<svg xmlns="http://www.w3.org/2000/svg" height="230" width="800" version="1.1" y="0" x="0" preserveAspectRatio="none" xmlns:xlink="http://www.w3.org/1999/xlink" viewBox="0 0 800 230"  >
<g class="clusterblast-cluster" label="Query sequence"  >
<text class="clusterblast-acc" y="10" x="5"  >
Query sequence</text>
<line y1="35" x2="778.0" style="stroke:grey; stroke-width:1; " x1="10" y2="35"  />
<polygon style="stroke:black; stroke-width:1; fill:rgb(190,63,63); " description="unannotated orf[br]Location: 121516 - 123190" locus_tag="CHAFR746836_0094200.1" class="clusterblast-orf" points="10,40 25,40 30,35 25,30 10,30 10,40 " id="clusterblast-1_q26_4_0"  />
<polygon style="stroke:black; stroke-width:1; fill:#FFFFFF; " description="unannotated orf[br]Location: 131375 - 131963" locus_tag="CHAFR746836_0094210.1" class="clusterblast-orf" points="129,35 134,30 136,30 136,40 134,40 129,35 " id="clusterblast-1_q26_4_1"  />
<polygon style="stroke:black; stroke-width:1; fill:#FFFFFF; " description="unannotated orf[br]Location: 132355 - 132981" locus_tag="CHAFR746836_0094220.1" class="clusterblast-orf" points="140,35 145,30 148,30 148,40 145,40 140,35 " id="clusterblast-1_q26_4_2"  />
<polygon style="stroke:black; stroke-width:1; fill:rgb(63,63,190); " description="unannotated orf[br]Location: 139202 - 140282" locus_tag="CHAFR746836_0094230.1" class="clusterblast-orf" points="223,35 228,30 236,30 236,40 228,40 223,35 " id="clusterblast-1_q26_4_3"  />
<polygon style="stroke:black; stroke-width:1; fill:rgb(63,190,63); " description="unannotated orf[br]Location: 142899 - 147562" locus_tag="CHAFR746836_0094240.1" class="clusterblast-orf" points="268,35 273,30 324,30 324,40 273,40 268,35 " id="clusterblast-1_q26_4_4"  />
<polygon style="stroke:black; stroke-width:1; fill:rgb(190,63,190); " description="unannotated orf[br]Location: 149403 - 151141" locus_tag="CHAFR746836_0094250.1" class="clusterblast-orf" points="346,40 362,40 367,35 362,30 346,30 346,40 " id="clusterblast-1_q26_4_5"  />
<polygon style="stroke:black; stroke-width:1; fill:rgb(190,190,63); " description="unannotated orf[br]Location: 153173 - 156458" locus_tag="CHAFR746836_0094260.1" class="clusterblast-orf" points="392,35 397,30 432,30 432,40 397,40 392,35 " id="clusterblast-1_q26_4_6"  />
<polygon style="stroke:black; stroke-width:1; fill:#FFFFFF; " description="unannotated orf[br]Location: 158921 - 161095" locus_tag="CHAFR746836_0094270.1" class="clusterblast-orf" points="461,40 483,40 488,35 483,30 461,30 461,40 " id="clusterblast-1_q26_4_7"  />
<polygon style="stroke:black; stroke-width:1; fill:#FFFFFF; " description="unannotated orf[br]Location: 163204 - 166182" locus_tag="CHAFR746836_0094280.1" class="clusterblast-orf" points="513,35 518,30 549,30 549,40 518,40 513,35 " id="clusterblast-1_q26_4_8"  />
<polygon style="stroke:black; stroke-width:1; fill:rgb(190,190,190); " description="unannotated orf[br]Location: 167736 - 168967" locus_tag="CHAFR746836_0094290.1" class="clusterblast-orf" points="568,40 578,40 583,35 578,30 568,30 568,40 " id="clusterblast-1_q26_4_9"  />
<polygon style="stroke:black; stroke-width:1; fill:rgb(63,190,190); " description="unannotated orf[br]Location: 169074 - 170389" locus_tag="CHAFR746836_0094300.1" class="clusterblast-orf" points="584,35 589,30 600,30 600,40 589,40 584,35 " id="clusterblast-1_q26_4_10"  />
<polygon style="stroke:black; stroke-width:1; fill:#FFFFFF; " description="unannotated orf[br]Location: 171033 - 171342" locus_tag="CHAFR746836_0094310.1" class="clusterblast-orf" points="608,35 612,30 612,40 608,35 " id="clusterblast-1_q26_4_11"  />
<polygon style="stroke:black; stroke-width:1; fill:#FFFFFF; " description="unannotated orf[br]Location: 175775 - 177555" locus_tag="CHAFR746836_0094320.1" class="clusterblast-orf" points="665,35 670,30 687,30 687,40 670,40 665,35 " id="clusterblast-1_q26_4_12"  />
<polygon style="stroke:black; stroke-width:1; fill:#FFFFFF; " description="unannotated orf[br]Location: 180145 - 180857" locus_tag="CHAFR746836_0094330.1" class="clusterblast-orf" points="718,40 721,40 726,35 721,30 718,30 718,40 " id="clusterblast-1_q26_4_13"  />
<polygon style="stroke:black; stroke-width:1; fill:#FFFFFF; " description="unannotated orf[br]Location: 181484 - 185078" locus_tag="CHAFR746836_0094340.1" class="clusterblast-orf" points="734,40 773,40 778,35 773,30 734,30 734,40 " id="clusterblast-1_q26_4_14"  />
</g>
<g class="clusterblast-cluster" description="Botryotinia fuckeliana isolate T4 SuperContig 48 1 genomic s..." label="FQ790272.1_c1"  >
<text class="clusterblast-acc" y="60" x="5"  >
FQ790272.1_c1</text>
<text class="clusterblast-desc" y="60" x="460.8"  >
Botryotinia fuckeliana isolate T4 SuperContig 48 1 genomic s...</text>
<line y1="85" x2="778.0" style="stroke:grey; stroke-width:1; " x1="10" y2="85"  />
<polygon style="stroke:black; stroke-width:1; fill:#FFFFFF; " description="similar_to_flavin-containing_monooxygenase[br]Location: 356991 - 358694" locus_tag="CCD44942.1" id="clusterblast-1_h26_4_0" points="114,90 129,90 134,85 129,80 114,80 114,90 " class="clusterblast-orf"  />
<polygon style="stroke:black; stroke-width:1; fill:rgb(190,190,63); " description="similar_to_Glucose-methanol-choline[br]Location: 358926 - 360896&lt;br&gt;&lt;br&gt;&lt;b&gt;BlastP hit with CHAFR746836_0094260.1&lt;/b&gt;&lt;br&gt;Percentage identity: 32%&lt;br&gt;Percentage coverage: 70%&lt;br&gt;BLAST bit score: 253&lt;br&gt;E-value: 2e-71" locus_tag="CCD44943.1" id="clusterblast-1_h26_4_1" points="137,85 142,80 161,80 161,90 142,90 137,85 " class="clusterblast-orf"  />
<polygon style="stroke:black; stroke-width:1; fill:#FFFFFF; " description="similar_to_short-chain_dehydrogenase/reductase[br]Location: 361032 - 362352" locus_tag="CCD44944.1" id="clusterblast-1_h26_4_2" points="162,90 173,90 178,85 173,80 162,80 162,90 " class="clusterblast-orf"  />
<polygon style="stroke:black; stroke-width:1; fill:#FFFFFF; " description="similar_to_ABC_transporter[br]Location: 362684 - 367868" locus_tag="CCD44945.1" id="clusterblast-1_h26_4_3" points="182,85 187,80 245,80 245,90 187,90 182,85 " class="clusterblast-orf"  />
<polygon style="stroke:black; stroke-width:1; fill:#FFFFFF; " description="similar_to_protease_S8_tripeptidyl_peptidase_I[br]Location: 368704 - 371235" locus_tag="CCD44946.1" id="clusterblast-1_h26_4_4" points="255,90 281,90 286,85 281,80 255,80 255,90 " class="clusterblast-orf"  />
<polygon style="stroke:black; stroke-width:1; fill:#FFFFFF; " description="similar_to_serine_carboxypeptidase_(CpdS)[br]Location: 371683 - 373692" locus_tag="CCD44947.1" id="clusterblast-1_h26_4_5" points="291,85 296,80 315,80 315,90 296,90 291,85 " class="clusterblast-orf"  />
<polygon style="stroke:black; stroke-width:1; fill:#FFFFFF; " description="similar_to_oxidoreductase_family_protein[br]Location: 374394 - 375721" locus_tag="CCD44948.1" id="clusterblast-1_h26_4_6" points="324,90 335,90 340,85 335,80 324,80 324,90 " class="clusterblast-orf"  />
<polygon style="stroke:black; stroke-width:1; fill:#FFFFFF; " description="predicted_protein[br]Location: 377152 - 377337" locus_tag="CCD44949.1" id="clusterblast-1_h26_4_7" points="357,90 359,85 357,80 357,90 " class="clusterblast-orf"  />
<polygon style="stroke:black; stroke-width:1; fill:rgb(190,63,63); " description="BcPKS17,_polyketide_synthase[br]Location: 377997 - 386280&lt;br&gt;&lt;br&gt;&lt;b&gt;BlastP hit with CHAFR746836_0094200.1&lt;/b&gt;&lt;br&gt;Percentage identity: 32%&lt;br&gt;Percentage coverage: 104%&lt;br&gt;BLAST bit score: 314&lt;br&gt;E-value: 2e-91" locus_tag="CCD44950.1" id="clusterblast-1_h26_4_8" points="367,85 372,80 467,80 467,90 372,90 367,85 " class="clusterblast-orf"  />
<polygon style="stroke:black; stroke-width:1; fill:#FFFFFF; " description="similar_to_oxydoreductase[br]Location: 386831 - 387646" locus_tag="CCD44951.1" id="clusterblast-1_h26_4_9" points="474,85 479,80 484,80 484,90 479,90 474,85 " class="clusterblast-orf"  />
<polygon style="stroke:black; stroke-width:1; fill:#FFFFFF; " description="similar_to_oxidoreductase[br]Location: 389245 - 390246" locus_tag="CCD44952.1" id="clusterblast-1_h26_4_10" points="503,90 510,90 515,85 510,80 503,80 503,90 " class="clusterblast-orf"  />
<polygon style="stroke:black; stroke-width:1; fill:#FFFFFF; " description="similar_to_fungal_specific_transcription_factor[br]Location: 390488 - 391829" locus_tag="CCD44953.1" id="clusterblast-1_h26_4_11" points="518,85 523,80 534,80 534,90 523,90 518,85 " class="clusterblast-orf"  />
<polygon style="stroke:black; stroke-width:1; fill:#FFFFFF; " description="similar_to_transcription_factor_Cys6[br]Location: 391878 - 392570" locus_tag="CCD44954.1" id="clusterblast-1_h26_4_12" points="535,85 540,80 543,80 543,90 540,90 535,85 " class="clusterblast-orf"  />
<polygon style="stroke:black; stroke-width:1; fill:#FFFFFF; " description="hypothetical_secreted_protein[br]Location: 394560 - 395508" locus_tag="CCD44955.1" id="clusterblast-1_h26_4_13" points="567,85 572,80 579,80 579,90 572,90 567,85 " class="clusterblast-orf"  />
<polygon style="stroke:black; stroke-width:1; fill:#FFFFFF; " description="predicted_protein[br]Location: 395782 - 396106" locus_tag="CCD44956.1" id="clusterblast-1_h26_4_14" points="582,90 586,85 582,80 582,90 " class="clusterblast-orf"  />
<polygon style="stroke:black; stroke-width:1; fill:#FFFFFF; " description="hypothetical_protein[br]Location: 396765 - 397577" locus_tag="CCD44957.1" id="clusterblast-1_h26_4_15" points="594,90 599,90 604,85 599,80 594,80 594,90 " class="clusterblast-orf"  />
<polygon style="stroke:black; stroke-width:1; fill:#FFFFFF; " description="hypothetical_protein[br]Location: 399476 - 400272" locus_tag="CCD44958.1" id="clusterblast-1_h26_4_16" points="627,85 632,80 636,80 636,90 632,90 627,85 " class="clusterblast-orf"  />
<polygon style="stroke:black; stroke-width:1; fill:#FFFFFF; " description="hypothetical_secreted_protein[br]Location: 401679 - 403310" locus_tag="CCD44959.1" id="clusterblast-1_h26_4_17" points="653,90 668,90 673,85 668,80 653,80 653,90 " class="clusterblast-orf"  />
</g>
</svg>
