<svg xmlns="http://www.w3.org/2000/svg" height="230" width="800" version="1.1" y="0" x="0" preserveAspectRatio="none" xmlns:xlink="http://www.w3.org/1999/xlink" viewBox="0 0 800 230"  >
<g class="clusterblast-cluster" label="Query sequence"  >
<text class="clusterblast-acc" y="10" x="5"  >
Query sequence</text>
<line y1="35" x2="778.0" style="stroke:grey; stroke-width:1; " x1="10" y2="35"  />
<polygon style="stroke:black; stroke-width:1; fill:#FFFFFF; " description="unannotated orf[br]Location: 16927 - 18620" locus_tag="CHAFR746836_0088270.1" class="clusterblast-orf" points="10,35 15,30 23,30 23,40 15,40 10,35 " id="clusterblast-1_q20_10_0"  />
<polygon style="stroke:black; stroke-width:1; fill:#FFFFFF; " description="unannotated orf[br]Location: 18968 - 19665" locus_tag="CHAFR746836_0088280.1" class="clusterblast-orf" points="25,40 26,40 31,35 26,30 25,30 25,40 " id="clusterblast-1_q20_10_1"  />
<polygon style="stroke:black; stroke-width:1; fill:#FFFFFF; " description="unannotated orf[br]Location: 24387 - 25688" locus_tag="CHAFR746836_0088290.1" class="clusterblast-orf" points="67,35 72,30 77,30 77,40 72,40 67,35 " id="clusterblast-1_q20_10_2"  />
<polygon style="stroke:black; stroke-width:1; fill:#FFFFFF; " description="unannotated orf[br]Location: 26085 - 26578" locus_tag="CHAFR746836_0088300.1" class="clusterblast-orf" points="80,40 84,35 80,30 80,40 " id="clusterblast-1_q20_10_3"  />
<polygon style="stroke:black; stroke-width:1; fill:#FFFFFF; " description="unannotated orf[br]Location: 27631 - 28537" locus_tag="CHAFR746836_0088310.1" class="clusterblast-orf" points="92,35 97,30 99,30 99,40 97,40 92,35 " id="clusterblast-1_q20_10_4"  />
<polygon style="stroke:black; stroke-width:1; fill:#FFFFFF; " description="unannotated orf[br]Location: 29462 - 32567" locus_tag="CHAFR746836_0088320.1" class="clusterblast-orf" points="106,35 111,30 130,30 130,40 111,40 106,35 " id="clusterblast-1_q20_10_5"  />
<polygon style="stroke:black; stroke-width:1; fill:#FFFFFF; " description="unannotated orf[br]Location: 32818 - 33248" locus_tag="CHAFR746836_0088330.1" class="clusterblast-orf" points="132,40 135,35 132,30 132,40 " id="clusterblast-1_q20_10_6"  />
<polygon style="stroke:black; stroke-width:1; fill:#FFFFFF; " description="unannotated orf[br]Location: 35812 - 38220" locus_tag="CHAFR746836_0088340.1" class="clusterblast-orf" points="155,40 169,40 174,35 169,30 155,30 155,40 " id="clusterblast-1_q20_10_7"  />
<polygon style="stroke:black; stroke-width:1; fill:#FFFFFF; " description="unannotated orf[br]Location: 38703 - 40515" locus_tag="CHAFR746836_0088350.1" class="clusterblast-orf" points="178,35 183,30 192,30 192,40 183,40 178,35 " id="clusterblast-1_q20_10_8"  />
<polygon style="stroke:black; stroke-width:1; fill:#FFFFFF; " description="unannotated orf[br]Location: 54570 - 56265" locus_tag="CHAFR746836_0088360.1" class="clusterblast-orf" points="300,35 305,30 313,30 313,40 305,40 300,35 " id="clusterblast-1_q20_10_9"  />
<polygon style="stroke:black; stroke-width:1; fill:#FFFFFF; " description="unannotated orf[br]Location: 57343 - 57641" locus_tag="CHAFR746836_0088370.1" class="clusterblast-orf" points="321,40 324,35 321,30 321,40 " id="clusterblast-1_q20_10_10"  />
<polygon style="stroke:black; stroke-width:1; fill:#FFFFFF; " description="unannotated orf[br]Location: 59489 - 60069" locus_tag="CHAFR746836_0088380.1" class="clusterblast-orf" points="338,40 342,35 338,30 338,40 " id="clusterblast-1_q20_10_11"  />
<polygon style="stroke:black; stroke-width:1; fill:rgb(190,63,63); " description="unannotated orf[br]Location: 61596 - 62517" locus_tag="CHAFR746836_0088390.1" class="clusterblast-orf" points="354,40 356,40 361,35 356,30 354,30 354,40 " id="clusterblast-1_q20_10_12"  />
<polygon style="stroke:black; stroke-width:1; fill:#FFFFFF; " description="unannotated orf[br]Location: 64887 - 66442" locus_tag="CHAFR746836_0088400.1" class="clusterblast-orf" points="380,40 387,40 392,35 387,30 380,30 380,40 " id="clusterblast-1_q20_10_13"  />
<polygon style="stroke:black; stroke-width:1; fill:rgb(63,63,190); " description="unannotated orf[br]Location: 70818 - 75812" locus_tag="CHAFR746836_0088410.1" class="clusterblast-orf" points="425,35 430,30 464,30 464,40 430,40 425,35 " id="clusterblast-1_q20_10_14"  />
<polygon style="stroke:black; stroke-width:1; fill:rgb(63,190,63); " description="unannotated orf[br]Location: 70818 - 75812" locus_tag="CHAFR746836_0088410.2" class="clusterblast-orf" points="425,35 430,30 464,30 464,40 430,40 425,35 " id="clusterblast-1_q20_10_15"  />
<polygon style="stroke:black; stroke-width:1; fill:rgb(190,63,190); " description="unannotated orf[br]Location: 79054 - 80030" locus_tag="CHAFR746836_0088420.1" class="clusterblast-orf" points="489,35 494,30 497,30 497,40 494,40 489,35 " id="clusterblast-1_q20_10_16"  />
<polygon style="stroke:black; stroke-width:1; fill:rgb(190,190,63); " description="unannotated orf[br]Location: 83242 - 92486" locus_tag="CHAFR746836_0088430.1" class="clusterblast-orf" points="521,40 588,40 593,35 588,30 521,30 521,40 " id="clusterblast-1_q20_10_17"  />
<polygon style="stroke:black; stroke-width:1; fill:#FFFFFF; " description="unannotated orf[br]Location: 96222 - 97917" locus_tag="CHAFR746836_0088440.1" class="clusterblast-orf" points="622,40 630,40 635,35 630,30 622,30 622,40 " id="clusterblast-1_q20_10_18"  />
<polygon style="stroke:black; stroke-width:1; fill:#FFFFFF; " description="unannotated orf[br]Location: 98082 - 99448" locus_tag="CHAFR746836_0088450.1" class="clusterblast-orf" points="636,35 641,30 646,30 646,40 641,40 636,35 " id="clusterblast-1_q20_10_19"  />
<polygon style="stroke:black; stroke-width:1; fill:rgb(190,190,190); " description="unannotated orf[br]Location: 104203 - 105217" locus_tag="CHAFR746836_0088460.1" class="clusterblast-orf" points="683,40 686,40 691,35 686,30 683,30 683,40 " id="clusterblast-1_q20_10_20"  />
<polygon style="stroke:black; stroke-width:1; fill:#FFFFFF; " description="unannotated orf[br]Location: 112157 - 113036" locus_tag="CHAFR746836_0088470.1" class="clusterblast-orf" points="744,40 746,40 751,35 746,30 744,30 744,40 " id="clusterblast-1_q20_10_21"  />
<polygon style="stroke:black; stroke-width:1; fill:#FFFFFF; " description="unannotated orf[br]Location: 114252 - 116434" locus_tag="CHAFR746836_0088480.1" class="clusterblast-orf" points="761,35 766,30 778,30 778,40 766,40 761,35 " id="clusterblast-1_q20_10_22"  />
</g>
<g class="clusterblast-cluster" description="Aspergillus kawachii IFO 4308 DNA, contig: scaffold00014, w..." label="DF126460.1_c1"  >
<text class="clusterblast-acc" y="60" x="5"  >
DF126460.1_c1</text>
<text class="clusterblast-desc" y="60" x="460.8"  >
Aspergillus kawachii IFO 4308 DNA, contig: scaffold00014, w...</text>
<line y1="85" x2="778.0" style="stroke:grey; stroke-width:1; " x1="10" y2="85"  />
<polygon style="stroke:black; stroke-width:1; fill:#FFFFFF; " description="alcohol_dehydrogenase[br]Location: 2873 - 4121" locus_tag="AKAW_05706" id="clusterblast-1_h20_10_0" points="59,90 63,90 68,85 63,80 59,80 59,90 " class="clusterblast-orf"  />
<polygon style="stroke:black; stroke-width:1; fill:#FFFFFF; " description="similar_to_DUF895_domain_membrane_protein[br]Location: 5638 - 7127" locus_tag="AKAW_05707" id="clusterblast-1_h20_10_1" points="80,85 85,80 91,80 91,90 85,90 80,85 " class="clusterblast-orf"  />
<polygon style="stroke:black; stroke-width:1; fill:#FFFFFF; " description="hypothetical_protein[br]Location: 7720 - 10296" locus_tag="AKAW_05708" id="clusterblast-1_h20_10_2" points="96,85 101,80 116,80 116,90 101,90 96,85 " class="clusterblast-orf"  />
<polygon style="stroke:black; stroke-width:1; fill:#FFFFFF; " description="alpha_1,6_mannosyltransferase[br]Location: 11913 - 13034" locus_tag="AKAW_05709" id="clusterblast-1_h20_10_3" points="128,85 133,80 137,80 137,90 133,90 128,85 " class="clusterblast-orf"  />
<polygon style="stroke:black; stroke-width:1; fill:#FFFFFF; " description="similar_to_An12g07030[br]Location: 14171 - 14724" locus_tag="AKAW_05710" id="clusterblast-1_h20_10_4" points="146,90 150,85 146,80 146,90 " class="clusterblast-orf"  />
<polygon style="stroke:black; stroke-width:1; fill:rgb(190,63,190); " description="DUF341_family_oxidoreductase[br]Location: 16465 - 18668&lt;br&gt;&lt;br&gt;&lt;b&gt;BlastP hit with CHAFR746836_0088420.1&lt;/b&gt;&lt;br&gt;Percentage identity: 41%&lt;br&gt;Percentage coverage: 94%&lt;br&gt;BLAST bit score: 182&lt;br&gt;E-value: 4e-52" locus_tag="AKAW_05711" id="clusterblast-1_h20_10_5" points="163,85 168,80 180,80 180,90 168,90 163,85 " class="clusterblast-orf"  />
<polygon style="stroke:black; stroke-width:1; fill:rgb(190,190,63); " description="polyketide_synthase[br]Location: 19394 - 26179&lt;br&gt;&lt;br&gt;&lt;b&gt;BlastP hit with CHAFR746836_0088430.1&lt;/b&gt;&lt;br&gt;Percentage identity: 43%&lt;br&gt;Percentage coverage: 91%&lt;br&gt;BLAST bit score: 1738&lt;br&gt;E-value: 0.0" locus_tag="AKAW_05712" id="clusterblast-1_h20_10_6" points="186,90 233,90 238,85 233,80 186,80 186,90 " class="clusterblast-orf"  />
<polygon style="stroke:black; stroke-width:1; fill:#FFFFFF; " description="FAD_binding_domain_protein[br]Location: 26985 - 28611" locus_tag="AKAW_05713" id="clusterblast-1_h20_10_7" points="245,85 250,80 257,80 257,90 250,90 245,85 " class="clusterblast-orf"  />
<polygon style="stroke:black; stroke-width:1; fill:#FFFFFF; " description="similar_to_An12g07100[br]Location: 30088 - 31202" locus_tag="AKAW_05714" id="clusterblast-1_h20_10_8" points="269,85 274,80 277,80 277,90 274,90 269,85 " class="clusterblast-orf"  />
<polygon style="stroke:black; stroke-width:1; fill:#FFFFFF; " description="hypothetical_protein[br]Location: 32212 - 32838" locus_tag="AKAW_05715" id="clusterblast-1_h20_10_9" points="285,90 285,90 290,85 285,80 285,80 285,90 " class="clusterblast-orf"  />
<polygon style="stroke:black; stroke-width:1; fill:#FFFFFF; " description="salicylate_synthetase[br]Location: 33317 - 34669" locus_tag="AKAW_05716" id="clusterblast-1_h20_10_10" points="293,90 299,90 304,85 299,80 293,80 293,90 " class="clusterblast-orf"  />
<polygon style="stroke:black; stroke-width:1; fill:#FFFFFF; " description="cytochrome_P450[br]Location: 35356 - 37374" locus_tag="AKAW_05717" id="clusterblast-1_h20_10_11" points="309,90 320,90 325,85 320,80 309,80 309,90 " class="clusterblast-orf"  />
<polygon style="stroke:black; stroke-width:1; fill:#FFFFFF; " description="isoflavone_reductase_family_protein[br]Location: 37800 - 38868" locus_tag="AKAW_05718" id="clusterblast-1_h20_10_12" points="328,85 333,80 336,80 336,90 333,90 328,85 " class="clusterblast-orf"  />
<polygon style="stroke:black; stroke-width:1; fill:#FFFFFF; " description="C6_zinc_finger_domain_protein[br]Location: 39411 - 41132" locus_tag="AKAW_05719" id="clusterblast-1_h20_10_13" points="341,85 346,80 354,80 354,90 346,90 341,85 " class="clusterblast-orf"  />
<polygon style="stroke:black; stroke-width:1; fill:#FFFFFF; " description="similar_to_An12g07160[br]Location: 42785 - 44008" locus_tag="AKAW_05720" id="clusterblast-1_h20_10_14" points="367,90 371,90 376,85 371,80 367,80 367,90 " class="clusterblast-orf"  />
<polygon style="stroke:black; stroke-width:1; fill:#FFFFFF; " description="sodium/solute_symporter[br]Location: 44109 - 46296" locus_tag="AKAW_05721" id="clusterblast-1_h20_10_15" points="377,85 382,80 394,80 394,90 382,90 377,85 " class="clusterblast-orf"  />
<polygon style="stroke:black; stroke-width:1; fill:#FFFFFF; " description="similar_to_An12g07180[br]Location: 47702 - 48531" locus_tag="AKAW_05722" id="clusterblast-1_h20_10_16" points="404,85 409,80 411,80 411,90 409,90 404,85 " class="clusterblast-orf"  />
<polygon style="stroke:black; stroke-width:1; fill:#FFFFFF; " description="C6_transcription_factor[br]Location: 49542 - 51121" locus_tag="AKAW_05723" id="clusterblast-1_h20_10_17" points="419,85 424,80 431,80 431,90 424,90 419,85 " class="clusterblast-orf"  />
<polygon style="stroke:black; stroke-width:1; fill:#FFFFFF; " description="similar_to_An12g07200[br]Location: 52172 - 52861" locus_tag="AKAW_05724" id="clusterblast-1_h20_10_18" points="439,90 439,90 444,85 439,80 439,80 439,90 " class="clusterblast-orf"  />
<polygon style="stroke:black; stroke-width:1; fill:#FFFFFF; " description="FAD_dependent_oxidoreductase[br]Location: 56750 - 58141" locus_tag="AKAW_05725" id="clusterblast-1_h20_10_19" points="474,90 480,90 485,85 480,80 474,80 474,90 " class="clusterblast-orf"  />
<polygon style="stroke:black; stroke-width:1; fill:#FFFFFF; " description="hypothetical_protein[br]Location: 58736 - 59314" locus_tag="AKAW_05726" id="clusterblast-1_h20_10_20" points="490,85 494,80 494,90 490,85 " class="clusterblast-orf"  />
<polygon style="stroke:black; stroke-width:1; fill:#FFFFFF; " description="nonribosomal_peptide_synthase[br]Location: 59905 - 72000" locus_tag="AKAW_05727" id="clusterblast-1_h20_10_21" points="499,90 587,90 592,85 587,80 499,80 499,90 " class="clusterblast-orf"  />
<polygon style="stroke:black; stroke-width:1; fill:#FFFFFF; " description="NAD_dependent_epimerase/dehydratase[br]Location: 72595 - 73383" locus_tag="AKAW_05728" id="clusterblast-1_h20_10_22" points="597,90 598,90 603,85 598,80 597,80 597,90 " class="clusterblast-orf"  />
<polygon style="stroke:black; stroke-width:1; fill:#FFFFFF; " description="hypothetical_protein[br]Location: 73814 - 74477" locus_tag="AKAW_05729" id="clusterblast-1_h20_10_23" points="606,85 611,80 611,80 611,90 611,90 606,85 " class="clusterblast-orf"  />
<polygon style="stroke:black; stroke-width:1; fill:#FFFFFF; " description="amidohydrolase[br]Location: 76223 - 79343" locus_tag="AKAW_05730" id="clusterblast-1_h20_10_24" points="625,85 630,80 649,80 649,90 630,90 625,85 " class="clusterblast-orf"  />
<polygon style="stroke:black; stroke-width:1; fill:#FFFFFF; " description="similar_to_An12g07260[br]Location: 79956 - 80742" locus_tag="AKAW_05731" id="clusterblast-1_h20_10_25" points="653,90 654,90 659,85 654,80 653,80 653,90 " class="clusterblast-orf"  />
<polygon style="stroke:black; stroke-width:1; fill:#FFFFFF; " description="hypothetical_protein[br]Location: 81148 - 82209" locus_tag="AKAW_05732" id="clusterblast-1_h20_10_26" points="663,90 666,90 671,85 666,80 663,80 663,90 " class="clusterblast-orf"  />
<polygon style="stroke:black; stroke-width:1; fill:#FFFFFF; " description="glucose-methanol-choline_oxidoreductase[br]Location: 82387 - 84263" locus_tag="AKAW_05733" id="clusterblast-1_h20_10_27" points="672,85 677,80 687,80 687,90 677,90 672,85 " class="clusterblast-orf"  />
<polygon style="stroke:black; stroke-width:1; fill:#FFFFFF; " description="proline_oxidase_Put1[br]Location: 88052 - 89544" locus_tag="AKAW_05734" id="clusterblast-1_h20_10_28" points="716,90 722,90 727,85 722,80 716,80 716,90 " class="clusterblast-orf"  />
</g>
</svg>
