<svg xmlns="http://www.w3.org/2000/svg" height="230" width="800" version="1.1" y="0" x="0" preserveAspectRatio="none" xmlns:xlink="http://www.w3.org/1999/xlink" viewBox="0 0 800 230"  >
<g class="clusterblast-cluster" label="Query sequence"  >
<text class="clusterblast-acc" y="10" x="5"  >
Query sequence</text>
<line y1="35" x2="778.0" style="stroke:grey; stroke-width:1; " x1="10" y2="35"  />
<polygon style="stroke:black; stroke-width:1; fill:red; " description="unannotated orf[br]Location: 147728 - 150067" locus_tag="CHAFR746836_0089390.1" class="clusterblast-orf" points="230,35 235,30 253,30 253,40 235,40 230,35 " id="clusterblast-1_q21_4_0"  />
<polygon style="stroke:black; stroke-width:1; fill:green; " description="unannotated orf[br]Location: 150361 - 151620" locus_tag="CHAFR746836_0089400.1" class="clusterblast-orf" points="256,40 263,40 268,35 263,30 256,30 256,40 " id="clusterblast-1_q21_4_1"  />
<polygon style="stroke:black; stroke-width:1; fill:#FFFFFF; " description="unannotated orf[br]Location: 151969 - 153053" locus_tag="CHAFR746836_0089410.1" class="clusterblast-orf" points="272,35 277,30 283,30 283,40 277,40 272,35 " id="clusterblast-1_q21_4_2"  />
<polygon style="stroke:black; stroke-width:1; fill:#FFFFFF; " description="unannotated orf[br]Location: 157887 - 159330" locus_tag="CHAFR746836_0089420.1" class="clusterblast-orf" points="331,35 336,30 345,30 345,40 336,40 331,35 " id="clusterblast-1_q21_4_3"  />
<polygon style="stroke:black; stroke-width:1; fill:#FFFFFF; " description="unannotated orf[br]Location: 160724 - 163324" locus_tag="CHAFR746836_0089430.1" class="clusterblast-orf" points="359,40 380,40 385,35 380,30 359,30 359,40 " id="clusterblast-1_q21_4_4"  />
<polygon style="stroke:black; stroke-width:1; fill:#FFFFFF; " description="unannotated orf[br]Location: 169082 - 169702" locus_tag="CHAFR746836_0089440.1" class="clusterblast-orf" points="442,35 447,30 449,30 449,40 447,40 442,35 " id="clusterblast-1_q21_4_5"  />
<polygon style="stroke:black; stroke-width:1; fill:#FFFFFF; " description="unannotated orf[br]Location: 172361 - 174491" locus_tag="CHAFR746836_0089450.1" class="clusterblast-orf" points="475,35 480,30 496,30 496,40 480,40 475,35 " id="clusterblast-1_q21_4_6"  />
<polygon style="stroke:black; stroke-width:1; fill:blue; " description="unannotated orf[br]Location: 175623 - 180497" locus_tag="CHAFR746836_0089460.1" class="clusterblast-orf" points="508,40 551,40 556,35 551,30 508,30 508,40 " id="clusterblast-1_q21_4_7"  />
</g>
<g class="clusterblast-cluster" description="Aspergillus oryzae RIB40 DNA, SC020." label="AP007167.1_c1"  >
<text class="clusterblast-acc" y="60" x="5"  >
AP007167.1_c1</text>
<text class="clusterblast-desc" y="60" x="460.8"  >
Aspergillus oryzae RIB40 DNA, SC020.</text>
<line y1="85" x2="778.0" style="stroke:grey; stroke-width:1; " x1="10" y2="85"  />
<polygon style="stroke:black; stroke-width:1; fill:#FFFFFF; " description="[br]Location: 437765 - 438166" locus_tag="AO090020000172" id="clusterblast-1_h21_4_0" points="10,85 13,80 13,90 10,85 " class="clusterblast-orf"  />
<polygon style="stroke:black; stroke-width:1; fill:#FFFFFF; " description="[br]Location: 438971 - 440316" locus_tag="AO090020000174" id="clusterblast-1_h21_4_1" points="22,85 27,80 35,80 35,90 27,90 22,85 " class="clusterblast-orf"  />
<polygon style="stroke:black; stroke-width:1; fill:#FFFFFF; " description="[br]Location: 440486 - 441160" locus_tag="AO090020000175" id="clusterblast-1_h21_4_2" points="37,85 42,80 43,80 43,90 42,90 37,85 " class="clusterblast-orf"  />
<polygon style="stroke:black; stroke-width:1; fill:#FFFFFF; " description="[br]Location: 441484 - 443378" locus_tag="AO090020000176" id="clusterblast-1_h21_4_3" points="47,85 52,80 65,80 65,90 52,90 47,85 " class="clusterblast-orf"  />
<polygon style="stroke:black; stroke-width:1; fill:#FFFFFF; " description="[br]Location: 444123 - 445040" locus_tag="AO090020000177" id="clusterblast-1_h21_4_4" points="73,85 78,80 82,80 82,90 78,90 73,85 " class="clusterblast-orf"  />
<polygon style="stroke:black; stroke-width:1; fill:#FFFFFF; " description="[br]Location: 446590 - 447364" locus_tag="AO090020000178" id="clusterblast-1_h21_4_5" points="97,90 100,90 105,85 100,80 97,80 97,90 " class="clusterblast-orf"  />
<polygon style="stroke:black; stroke-width:1; fill:#FFFFFF; " description="[br]Location: 447712 - 448251" locus_tag="AO090020000179" id="clusterblast-1_h21_4_6" points="109,90 109,90 114,85 109,80 109,80 109,90 " class="clusterblast-orf"  />
<polygon style="stroke:black; stroke-width:1; fill:#FFFFFF; " description="[br]Location: 448256 - 449483" locus_tag="AO090020000180" id="clusterblast-1_h21_4_7" points="114,85 119,80 126,80 126,90 119,90 114,85 " class="clusterblast-orf"  />
<polygon style="stroke:black; stroke-width:1; fill:#FFFFFF; " description="[br]Location: 450324 - 450996" locus_tag="AO090020000182" id="clusterblast-1_h21_4_8" points="135,85 140,80 141,80 141,90 140,90 135,85 " class="clusterblast-orf"  />
<polygon style="stroke:black; stroke-width:1; fill:#FFFFFF; " description="[br]Location: 451936 - 453338" locus_tag="AO090020000183" id="clusterblast-1_h21_4_9" points="151,90 160,90 165,85 160,80 151,80 151,90 " class="clusterblast-orf"  />
<polygon style="stroke:black; stroke-width:1; fill:#FFFFFF; " description="[br]Location: 456308 - 456802" locus_tag="AO090020000185" id="clusterblast-1_h21_4_10" points="194,85 199,80 199,80 199,90 199,90 194,85 " class="clusterblast-orf"  />
<polygon style="stroke:black; stroke-width:1; fill:blue; " description="[br]Location: 457790 - 465823&lt;br&gt;&lt;br&gt;&lt;b&gt;BlastP hit with CHAFR746836_0089460.1&lt;/b&gt;&lt;br&gt;Percentage identity: 34%&lt;br&gt;Percentage coverage: 17%&lt;br&gt;BLAST bit score: 148&lt;br&gt;E-value: 2e-34" locus_tag="AO090020000186" id="clusterblast-1_h21_4_11" points="209,90 284,90 289,85 284,80 209,80 209,90 " class="clusterblast-orf"  />
<polygon style="stroke:black; stroke-width:1; fill:#FFFFFF; " description="[br]Location: 467193 - 470773" locus_tag="AO090020000188" id="clusterblast-1_h21_4_12" points="303,85 308,80 339,80 339,90 308,90 303,85 " class="clusterblast-orf"  />
<polygon style="stroke:black; stroke-width:1; fill:#FFFFFF; " description="[br]Location: 474553 - 475503" locus_tag="AO090020000189" id="clusterblast-1_h21_4_13" points="376,90 381,90 386,85 381,80 376,80 376,90 " class="clusterblast-orf"  />
<polygon style="stroke:black; stroke-width:1; fill:#FFFFFF; " description="[br]Location: 478597 - 480899" locus_tag="AO090020000190" id="clusterblast-1_h21_4_14" points="417,85 422,80 439,80 439,90 422,90 417,85 " class="clusterblast-orf"  />
<polygon style="stroke:black; stroke-width:1; fill:#FFFFFF; " description="[br]Location: 483803 - 484603" locus_tag="AO090020000191" id="clusterblast-1_h21_4_15" points="468,90 471,90 476,85 471,80 468,80 468,90 " class="clusterblast-orf"  />
<polygon style="stroke:black; stroke-width:1; fill:#FFFFFF; " description="[br]Location: 486613 - 488335" locus_tag="AO090020000192" id="clusterblast-1_h21_4_16" points="496,85 501,80 514,80 514,90 501,90 496,85 " class="clusterblast-orf"  />
<polygon style="stroke:black; stroke-width:1; fill:#FFFFFF; " description="[br]Location: 489248 - 489994" locus_tag="AO090020000193" id="clusterblast-1_h21_4_17" points="523,90 525,90 530,85 525,80 523,80 523,90 " class="clusterblast-orf"  />
<polygon style="stroke:black; stroke-width:1; fill:#FFFFFF; " description="[br]Location: 491991 - 494336" locus_tag="AO090020000194" id="clusterblast-1_h21_4_18" points="550,90 568,90 573,85 568,80 550,80 550,90 " class="clusterblast-orf"  />
<polygon style="stroke:black; stroke-width:1; fill:#FFFFFF; " description="[br]Location: 495036 - 496681" locus_tag="AO090020000195" id="clusterblast-1_h21_4_19" points="580,85 585,80 597,80 597,90 585,90 580,85 " class="clusterblast-orf"  />
<polygon style="stroke:black; stroke-width:1; fill:#FFFFFF; " description="[br]Location: 498332 - 498679" locus_tag="AO090020000196" id="clusterblast-1_h21_4_20" points="613,85 617,80 617,90 613,85 " class="clusterblast-orf"  />
<polygon style="stroke:black; stroke-width:1; fill:#FFFFFF; " description="[br]Location: 499033 - 500650" locus_tag="AO090020000197" id="clusterblast-1_h21_4_21" points="620,85 625,80 636,80 636,90 625,90 620,85 " class="clusterblast-orf"  />
<polygon style="stroke:black; stroke-width:1; fill:#FFFFFF; " description="[br]Location: 501728 - 502390" locus_tag="AO090020000199" id="clusterblast-1_h21_4_22" points="647,85 652,80 654,80 654,90 652,90 647,85 " class="clusterblast-orf"  />
<polygon style="stroke:black; stroke-width:1; fill:#FFFFFF; " description="[br]Location: 503452 - 504241" locus_tag="AO090020000200" id="clusterblast-1_h21_4_23" points="664,90 667,90 672,85 667,80 664,80 664,90 " class="clusterblast-orf"  />
<polygon style="stroke:black; stroke-width:1; fill:#FFFFFF; " description="[br]Location: 506488 - 507766" locus_tag="AO090020000202" id="clusterblast-1_h21_4_24" points="695,90 702,90 707,85 702,80 695,80 695,90 " class="clusterblast-orf"  />
<polygon style="stroke:black; stroke-width:1; fill:#FFFFFF; " description="[br]Location: 508646 - 509987" locus_tag="AO090020000203" id="clusterblast-1_h21_4_25" points="716,90 724,90 729,85 724,80 716,80 716,90 " class="clusterblast-orf"  />
<polygon style="stroke:black; stroke-width:1; fill:red; " description="[br]Location: 513167 - 514813&lt;br&gt;&lt;br&gt;&lt;b&gt;BlastP hit with CHAFR746836_0089390.1&lt;/b&gt;&lt;br&gt;Percentage identity: 32%&lt;br&gt;Percentage coverage: 43%&lt;br&gt;BLAST bit score: 134&lt;br&gt;E-value: 1e-32" locus_tag="AO090020000204" id="clusterblast-1_h21_4_26" points="761,85 766,80 778,80 778,90 766,90 761,85 " class="clusterblast-orf"  />
</g>
</svg>
