<svg xmlns="http://www.w3.org/2000/svg" height="230" width="800" version="1.1" y="0" x="0" preserveAspectRatio="none" xmlns:xlink="http://www.w3.org/1999/xlink" viewBox="0 0 800 230"  >
<g class="clusterblast-cluster" label="Query sequence"  >
<text class="clusterblast-acc" y="10" x="5"  >
Query sequence</text>
<line y1="35" x2="778.0" style="stroke:grey; stroke-width:1; " x1="10" y2="35"  />
<polygon style="stroke:black; stroke-width:1; fill:rgb(190,63,63); " description="unannotated orf[br]Location: 1126 - 9218" locus_tag="CHAFR746836_0015230.1" class="clusterblast-orf" points="53,35 58,30 124,30 124,40 58,40 53,35 " id="clusterblast-1_q35_9_0"  />
<polygon style="stroke:black; stroke-width:1; fill:#FFFFFF; " description="unannotated orf[br]Location: 30506 - 31134" locus_tag="CHAFR746836_0015240.1" class="clusterblast-orf" points="311,35 316,30 317,30 317,40 316,40 311,35 " id="clusterblast-1_q35_9_1"  />
<polygon style="stroke:black; stroke-width:1; fill:rgb(63,63,190); " description="unannotated orf[br]Location: 31550 - 33962" locus_tag="CHAFR746836_0015250.1" class="clusterblast-orf" points="321,35 326,30 342,30 342,40 326,40 321,35 " id="clusterblast-1_q35_9_2"  />
<polygon style="stroke:black; stroke-width:1; fill:#FFFFFF; " description="unannotated orf[br]Location: 34436 - 34894" locus_tag="CHAFR746836_0015260.1" class="clusterblast-orf" points="346,40 350,35 346,30 346,40 " id="clusterblast-1_q35_9_3"  />
<polygon style="stroke:black; stroke-width:1; fill:rgb(63,190,63); " description="unannotated orf[br]Location: 36222 - 37622" locus_tag="CHAFR746836_0015270.1" class="clusterblast-orf" points="362,40 369,40 374,35 369,30 362,30 362,40 " id="clusterblast-1_q35_9_4"  />
<polygon style="stroke:black; stroke-width:1; fill:#FFFFFF; " description="unannotated orf[br]Location: 40179 - 41082" locus_tag="CHAFR746836_0015280.1" class="clusterblast-orf" points="397,40 400,40 405,35 400,30 397,30 397,40 " id="clusterblast-1_q35_9_5"  />
<polygon style="stroke:black; stroke-width:1; fill:#FFFFFF; " description="unannotated orf[br]Location: 42749 - 46034" locus_tag="CHAFR746836_0015290.1" class="clusterblast-orf" points="419,40 443,40 448,35 443,30 419,30 419,40 " id="clusterblast-1_q35_9_6"  />
<polygon style="stroke:black; stroke-width:1; fill:#FFFFFF; " description="unannotated orf[br]Location: 53083 - 55196" locus_tag="CHAFR746836_0015300.1" class="clusterblast-orf" points="511,40 524,40 529,35 524,30 511,30 511,40 " id="clusterblast-1_q35_9_7"  />
<polygon style="stroke:black; stroke-width:1; fill:#FFFFFF; " description="unannotated orf[br]Location: 57522 - 59597" locus_tag="CHAFR746836_0015310.1" class="clusterblast-orf" points="550,35 555,30 568,30 568,40 555,40 550,35 " id="clusterblast-1_q35_9_8"  />
<polygon style="stroke:black; stroke-width:1; fill:#FFFFFF; " description="unannotated orf[br]Location: 64099 - 66128" locus_tag="CHAFR746836_0015320.1" class="clusterblast-orf" points="608,35 613,30 626,30 626,40 613,40 608,35 " id="clusterblast-1_q35_9_9"  />
<polygon style="stroke:black; stroke-width:1; fill:#FFFFFF; " description="unannotated orf[br]Location: 66743 - 68055" locus_tag="CHAFR746836_0015330.1" class="clusterblast-orf" points="631,40 637,40 642,35 637,30 631,30 631,40 " id="clusterblast-1_q35_9_10"  />
<polygon style="stroke:black; stroke-width:1; fill:rgb(190,63,190); " description="unannotated orf[br]Location: 68693 - 70290" locus_tag="CHAFR746836_0015340.1" class="clusterblast-orf" points="648,35 653,30 662,30 662,40 653,40 648,35 " id="clusterblast-1_q35_9_11"  />
<polygon style="stroke:black; stroke-width:1; fill:#FFFFFF; " description="unannotated orf[br]Location: 72852 - 74846" locus_tag="CHAFR746836_0015350.1" class="clusterblast-orf" points="685,35 690,30 702,30 702,40 690,40 685,35 " id="clusterblast-1_q35_9_12"  />
<polygon style="stroke:black; stroke-width:1; fill:rgb(190,190,63); " description="unannotated orf[br]Location: 75794 - 78319" locus_tag="CHAFR746836_0015360.1" class="clusterblast-orf" points="711,40 728,40 733,35 728,30 711,30 711,40 " id="clusterblast-1_q35_9_13"  />
</g>
<g class="clusterblast-cluster" description="Micromonospora sp. ATCC 39149 genomic scaffold supercont..." label="NZ_GG657738.1_c16"  >
<text class="clusterblast-acc" y="60" x="5"  >
NZ_GG657738.1_c16</text>
<text class="clusterblast-desc" y="60" x="460.8"  >
Micromonospora sp. ATCC 39149 genomic scaffold supercont...</text>
<line y1="85" x2="778.0" style="stroke:grey; stroke-width:1; " x1="10" y2="85"  />
<polygon style="stroke:black; stroke-width:1; fill:#FFFFFF; " description="hypothetical_protein[br]Location: 6169875 - 6171308" locus_tag="MCAG_05159" id="clusterblast-1_h35_9_0" points="10,90 17,90 22,85 17,80 10,80 10,90 " class="clusterblast-orf"  />
<polygon style="stroke:black; stroke-width:1; fill:#FFFFFF; " description="transmembrane_transporter[br]Location: 6168931 - 6169878" locus_tag="MCAG_05158" id="clusterblast-1_h35_9_1" points="22,90 25,90 30,85 25,80 22,80 22,90 " class="clusterblast-orf"  />
<polygon style="stroke:black; stroke-width:1; fill:#FFFFFF; " description="ABC_transporter_related[br]Location: 6166953 - 6168233" locus_tag="MCAG_05157" id="clusterblast-1_h35_9_2" points="37,90 43,90 48,85 43,80 37,80 37,90 " class="clusterblast-orf"  />
<polygon style="stroke:black; stroke-width:1; fill:#FFFFFF; " description="ABC_transporter_related[br]Location: 6165877 - 6166953" locus_tag="MCAG_05156" id="clusterblast-1_h35_9_3" points="48,90 52,90 57,85 52,80 48,80 48,90 " class="clusterblast-orf"  />
<polygon style="stroke:black; stroke-width:1; fill:#FFFFFF; " description="succinate-semialdehyde_dehydrogenase,[br]Location: 6164141 - 6165580" locus_tag="MCAG_05155" id="clusterblast-1_h35_9_4" points="60,90 68,90 73,85 68,80 60,80 60,90 " class="clusterblast-orf"  />
<polygon style="stroke:black; stroke-width:1; fill:#FFFFFF; " description="hypothetical_protein[br]Location: 6163860 - 6164144" locus_tag="MCAG_05154" id="clusterblast-1_h35_9_5" points="73,90 75,85 73,80 73,90 " class="clusterblast-orf"  />
<polygon style="stroke:black; stroke-width:1; fill:#FFFFFF; " description="iron-containing_alcohol_dehydrogenase[br]Location: 6162605 - 6163858" locus_tag="MCAG_05153" id="clusterblast-1_h35_9_6" points="75,90 81,90 86,85 81,80 75,80 75,90 " class="clusterblast-orf"  />
<polygon style="stroke:black; stroke-width:1; fill:#FFFFFF; " description="aldehyde_dehydrogenase[br]Location: 6160764 - 6162257" locus_tag="MCAG_05152" id="clusterblast-1_h35_9_7" points="89,90 97,90 102,85 97,80 89,80 89,90 " class="clusterblast-orf"  />
<polygon style="stroke:black; stroke-width:1; fill:#FFFFFF; " description="hypothetical_protein[br]Location: 6160256 - 6160669" locus_tag="MCAG_05151" id="clusterblast-1_h35_9_8" points="103,90 107,85 103,80 103,90 " class="clusterblast-orf"  />
<polygon style="stroke:black; stroke-width:1; fill:#FFFFFF; " description="amylo-alpha-16-glucosidase[br]Location: 6158172 - 6160259" locus_tag="MCAG_05150" id="clusterblast-1_h35_9_9" points="107,90 120,90 125,85 120,80 107,80 107,90 " class="clusterblast-orf"  />
<polygon style="stroke:black; stroke-width:1; fill:#FFFFFF; " description="metal_transporter_ATPase[br]Location: 6157803 - 6158021" locus_tag="MCAG_05149" id="clusterblast-1_h35_9_10" points="127,85 129,80 129,90 127,85 " class="clusterblast-orf"  />
<polygon style="stroke:black; stroke-width:1; fill:#FFFFFF; " description="integral_membrane_sensor_signal_transduction[br]Location: 6156350 - 6157432" locus_tag="MCAG_05148" id="clusterblast-1_h35_9_11" points="132,90 136,90 141,85 136,80 132,80 132,90 " class="clusterblast-orf"  />
<polygon style="stroke:black; stroke-width:1; fill:#FFFFFF; " description="LuxR_family_two-component_system_transcriptional[br]Location: 6155736 - 6156398" locus_tag="MCAG_05147" id="clusterblast-1_h35_9_12" points="141,90 142,90 147,85 142,80 141,80 141,90 " class="clusterblast-orf"  />
<polygon style="stroke:black; stroke-width:1; fill:#FFFFFF; " description="glycosyl_transferase[br]Location: 6154478 - 6155713" locus_tag="MCAG_05146" id="clusterblast-1_h35_9_13" points="147,85 152,80 158,80 158,90 152,90 147,85 " class="clusterblast-orf"  />
<polygon style="stroke:black; stroke-width:1; fill:#FFFFFF; " description="daunorubicin_resistance_transmembrane_protein[br]Location: 6153666 - 6154481" locus_tag="MCAG_05145" id="clusterblast-1_h35_9_14" points="158,85 163,80 165,80 165,90 163,90 158,85 " class="clusterblast-orf"  />
<polygon style="stroke:black; stroke-width:1; fill:#FFFFFF; " description="ABC_multidrug_transporter_ATPase_component[br]Location: 6152674 - 6153669" locus_tag="MCAG_05144" id="clusterblast-1_h35_9_15" points="165,85 170,80 174,80 174,90 170,90 165,85 " class="clusterblast-orf"  />
<polygon style="stroke:black; stroke-width:1; fill:#FFFFFF; " description="polyketide_synthase[br]Location: 6150069 - 6152690" locus_tag="MCAG_05143" id="clusterblast-1_h35_9_16" points="174,85 179,80 197,80 197,90 179,90 174,85 " class="clusterblast-orf"  />
<polygon style="stroke:black; stroke-width:1; fill:#FFFFFF; " description="modular_polyketide_synthase[br]Location: 6149183 - 6149967" locus_tag="MCAG_05142" id="clusterblast-1_h35_9_17" points="198,85 203,80 205,80 205,90 203,90 198,85 " class="clusterblast-orf"  />
<polygon style="stroke:black; stroke-width:1; fill:rgb(190,63,63); " description="conserved_hypothetical_protein[br]Location: 6143373 - 6145598&lt;br&gt;&lt;br&gt;&lt;b&gt;BlastP hit with CHAFR746836_0015230.1&lt;/b&gt;&lt;br&gt;Percentage identity: 31%&lt;br&gt;Percentage coverage: 26%&lt;br&gt;BLAST bit score: 308&lt;br&gt;E-value: 9e-87" locus_tag="MCAG_05141" id="clusterblast-1_h35_9_18" points="236,85 241,80 256,80 256,90 241,90 236,85 " class="clusterblast-orf"  />
<polygon style="stroke:black; stroke-width:1; fill:#FFFFFF; " description="polyketide_synthase[br]Location: 6138380 - 6143380" locus_tag="MCAG_05140" id="clusterblast-1_h35_9_19" points="256,85 261,80 300,80 300,90 261,90 256,85 " class="clusterblast-orf"  />
<polygon style="stroke:black; stroke-width:1; fill:rgb(190,63,63); " description="polyketide_synthase[br]Location: 6136397 - 6137710&lt;br&gt;&lt;br&gt;&lt;b&gt;BlastP hit with CHAFR746836_0015230.1&lt;/b&gt;&lt;br&gt;Percentage identity: 32%&lt;br&gt;Percentage coverage: 10%&lt;br&gt;BLAST bit score: 95&lt;br&gt;E-value: 1e-18" locus_tag="MCAG_05139" id="clusterblast-1_h35_9_20" points="306,85 311,80 317,80 317,90 311,90 306,85 " class="clusterblast-orf"  />
<polygon style="stroke:black; stroke-width:1; fill:rgb(190,63,63); " description="rifamycin_polyketide_synthase[br]Location: 6129733 - 6131283&lt;br&gt;&lt;br&gt;&lt;b&gt;BlastP hit with CHAFR746836_0015230.1&lt;/b&gt;&lt;br&gt;Percentage identity: 37%&lt;br&gt;Percentage coverage: 16%&lt;br&gt;BLAST bit score: 286&lt;br&gt;E-value: 9e-82" locus_tag="MCAG_05138" id="clusterblast-1_h35_9_21" points="362,85 367,80 376,80 376,90 367,90 362,85 " class="clusterblast-orf"  />
<polygon style="stroke:black; stroke-width:1; fill:rgb(190,63,63); " description="polyketide_synthase[br]Location: 6123263 - 6126028&lt;br&gt;&lt;br&gt;&lt;b&gt;BlastP hit with CHAFR746836_0015230.1&lt;/b&gt;&lt;br&gt;Percentage identity: 31%&lt;br&gt;Percentage coverage: 36%&lt;br&gt;BLAST bit score: 410&lt;br&gt;E-value: 9e-120" locus_tag="MCAG_05137" id="clusterblast-1_h35_9_22" points="409,85 414,80 433,80 433,90 414,90 409,85 " class="clusterblast-orf"  />
<polygon style="stroke:black; stroke-width:1; fill:#FFFFFF; " description="LmbE_family_protein[br]Location: 6122244 - 6122921" locus_tag="MCAG_05136" id="clusterblast-1_h35_9_23" points="436,90 437,90 442,85 437,80 436,80 436,90 " class="clusterblast-orf"  />
<polygon style="stroke:black; stroke-width:1; fill:#FFFFFF; " description="thioesterase[br]Location: 6121478 - 6122260" locus_tag="MCAG_05135" id="clusterblast-1_h35_9_24" points="442,85 447,80 449,80 449,90 447,90 442,85 " class="clusterblast-orf"  />
<polygon style="stroke:black; stroke-width:1; fill:#FFFFFF; " description="transcriptional_regulator[br]Location: 6118520 - 6121291" locus_tag="MCAG_05134" id="clusterblast-1_h35_9_25" points="450,90 470,90 475,85 470,80 450,80 450,90 " class="clusterblast-orf"  />
<polygon style="stroke:black; stroke-width:1; fill:#FFFFFF; " description="polyketide_synthase[br]Location: 6115151 - 6118027" locus_tag="MCAG_05133" id="clusterblast-1_h35_9_26" points="479,85 484,80 505,80 505,90 484,90 479,85 " class="clusterblast-orf"  />
<polygon style="stroke:black; stroke-width:1; fill:#FFFFFF; " description="polyketide_synthase[br]Location: 6104477 - 6108996" locus_tag="MCAG_05132" id="clusterblast-1_h35_9_27" points="559,85 564,80 599,80 599,90 564,90 559,85 " class="clusterblast-orf"  />
<polygon style="stroke:black; stroke-width:1; fill:#FFFFFF; " description="cytochrome_P450[br]Location: 6101826 - 6103022" locus_tag="MCAG_05131" id="clusterblast-1_h35_9_28" points="611,85 616,80 622,80 622,90 616,90 611,85 " class="clusterblast-orf"  />
<polygon style="stroke:black; stroke-width:1; fill:#FFFFFF; " description="glutamate_mutase_subunit_B[br]Location: 6100576 - 6101826" locus_tag="MCAG_05130" id="clusterblast-1_h35_9_29" points="622,85 627,80 633,80 633,90 627,90 622,85 " class="clusterblast-orf"  />
<polygon style="stroke:black; stroke-width:1; fill:#FFFFFF; " description="glutamate_mutase_S-chain[br]Location: 6100109 - 6100579" locus_tag="MCAG_05129" id="clusterblast-1_h35_9_30" points="633,85 637,80 637,90 633,85 " class="clusterblast-orf"  />
<polygon style="stroke:black; stroke-width:1; fill:#FFFFFF; " description="decarboxylase[br]Location: 6098877 - 6100112" locus_tag="MCAG_05128" id="clusterblast-1_h35_9_31" points="637,85 642,80 648,80 648,90 642,90 637,85 " class="clusterblast-orf"  />
<polygon style="stroke:black; stroke-width:1; fill:#FFFFFF; " description="non-ribosomal_peptide_synthetase[br]Location: 6097357 - 6098880" locus_tag="MCAG_05127" id="clusterblast-1_h35_9_32" points="648,85 653,80 661,80 661,90 653,90 648,85 " class="clusterblast-orf"  />
<polygon style="stroke:black; stroke-width:1; fill:#FFFFFF; " description="non-ribosomal_peptide_synthetase[br]Location: 6095833 - 6097299" locus_tag="MCAG_05126" id="clusterblast-1_h35_9_33" points="662,85 667,80 675,80 675,90 667,90 662,85 " class="clusterblast-orf"  />
<polygon style="stroke:black; stroke-width:1; fill:#FFFFFF; " description="acyl_carrier_protein[br]Location: 6095381 - 6095629" locus_tag="MCAG_05125" id="clusterblast-1_h35_9_34" points="677,90 679,85 677,80 677,90 " class="clusterblast-orf"  />
<polygon style="stroke:black; stroke-width:1; fill:#FFFFFF; " description="malonyl_CoA-[acyl-carrier-protein]_transacylase[br]Location: 6094423 - 6095379" locus_tag="MCAG_05124" id="clusterblast-1_h35_9_35" points="679,85 684,80 687,80 687,90 684,90 679,85 " class="clusterblast-orf"  />
<polygon style="stroke:black; stroke-width:1; fill:rgb(63,63,190); " description="proline_iminopeptidase[br]Location: 6093510 - 6094412&lt;br&gt;&lt;br&gt;&lt;b&gt;BlastP hit with CHAFR746836_0015250.1&lt;/b&gt;&lt;br&gt;Percentage identity: 41%&lt;br&gt;Percentage coverage: 48%&lt;br&gt;BLAST bit score: 229&lt;br&gt;E-value: 3e-68" locus_tag="MCAG_05123" id="clusterblast-1_h35_9_36" points="687,85 692,80 695,80 695,90 692,90 687,85 " class="clusterblast-orf"  />
<polygon style="stroke:black; stroke-width:1; fill:#FFFFFF; " description="glycosyl_transferase[br]Location: 6092062 - 6093357" locus_tag="MCAG_05122" id="clusterblast-1_h35_9_37" points="697,90 703,90 708,85 703,80 697,80 697,90 " class="clusterblast-orf"  />
<polygon style="stroke:black; stroke-width:1; fill:#FFFFFF; " description="glycosyl_transferase[br]Location: 6090735 - 6092159" locus_tag="MCAG_05121" id="clusterblast-1_h35_9_38" points="707,90 715,90 720,85 715,80 707,80 707,90 " class="clusterblast-orf"  />
<polygon style="stroke:black; stroke-width:1; fill:#FFFFFF; " description="conserved_hypothetical_protein[br]Location: 6087691 - 6090648" locus_tag="MCAG_05120" id="clusterblast-1_h35_9_39" points="721,90 742,90 747,85 742,80 721,80 721,90 " class="clusterblast-orf"  />
<polygon style="stroke:black; stroke-width:1; fill:#FFFFFF; " description="transposase[br]Location: 6087207 - 6087530" locus_tag="MCAG_05119" id="clusterblast-1_h35_9_40" points="748,90 751,85 748,80 748,90 " class="clusterblast-orf"  />
<polygon style="stroke:black; stroke-width:1; fill:#FFFFFF; " description="transposase[br]Location: 6086464 - 6087210" locus_tag="MCAG_05118" id="clusterblast-1_h35_9_41" points="751,85 756,80 757,80 757,90 756,90 751,85 " class="clusterblast-orf"  />
<polygon style="stroke:black; stroke-width:1; fill:#FFFFFF; " description="transposase[br]Location: 6085653 - 6086000" locus_tag="MCAG_05117" id="clusterblast-1_h35_9_42" points="762,90 765,85 762,80 762,90 " class="clusterblast-orf"  />
<polygon style="stroke:black; stroke-width:1; fill:#FFFFFF; " description="arsR-family_transcriptional_regulator[br]Location: 6085421 - 6085594" locus_tag="MCAG_05116" id="clusterblast-1_h35_9_43" points="765,90 767,85 765,80 765,90 " class="clusterblast-orf"  />
<polygon style="stroke:black; stroke-width:1; fill:#FFFFFF; " description="NmrA_family_protein[br]Location: 6084186 - 6085016" locus_tag="MCAG_05115" id="clusterblast-1_h35_9_44" points="770,85 775,80 778,80 778,90 775,90 770,85 " class="clusterblast-orf"  />
</g>
</svg>
