<svg xmlns="http://www.w3.org/2000/svg" height="230" width="800" version="1.1" y="0" x="0" preserveAspectRatio="none" xmlns:xlink="http://www.w3.org/1999/xlink" viewBox="0 0 800 230"  >
<g class="clusterblast-cluster" label="Query sequence"  >
<text class="clusterblast-acc" y="10" x="5"  >
Query sequence</text>
<line y1="35" x2="778.0" style="stroke:grey; stroke-width:1; " x1="10" y2="35"  />
<polygon style="stroke:black; stroke-width:1; fill:red; " description="unannotated orf[br]Location: 68134 - 70502" locus_tag="CHAFR746836_0071420.1" class="clusterblast-orf" points="10,35 15,30 20,30 20,40 15,40 10,35 " id="clusterblast-1_q9_5_0"  />
<polygon style="stroke:black; stroke-width:1; fill:#FFFFFF; " description="unannotated orf[br]Location: 72327 - 73788" locus_tag="CHAFR746836_0071430.1" class="clusterblast-orf" points="28,35 33,30 35,30 35,40 33,40 28,35 " id="clusterblast-1_q9_5_1"  />
<polygon style="stroke:black; stroke-width:1; fill:#FFFFFF; " description="unannotated orf[br]Location: 76531 - 77863" locus_tag="CHAFR746836_0071440.1" class="clusterblast-orf" points="47,35 52,30 53,30 53,40 52,40 47,35 " id="clusterblast-1_q9_5_2"  />
<polygon style="stroke:black; stroke-width:1; fill:#FFFFFF; " description="unannotated orf[br]Location: 80274 - 82068" locus_tag="CHAFR746836_0071450.1" class="clusterblast-orf" points="64,40 67,40 72,35 67,30 64,30 64,40 " id="clusterblast-1_q9_5_3"  />
<polygon style="stroke:black; stroke-width:1; fill:green; " description="unannotated orf[br]Location: 84469 - 85881" locus_tag="CHAFR746836_0071460.1" class="clusterblast-orf" points="83,35 88,30 89,30 89,40 88,40 83,35 " id="clusterblast-1_q9_5_4"  />
<polygon style="stroke:black; stroke-width:1; fill:blue; " description="unannotated orf[br]Location: 86196 - 88112" locus_tag="CHAFR746836_0071470.1" class="clusterblast-orf" points="91,40 94,40 99,35 94,30 91,30 91,40 " id="clusterblast-1_q9_5_5"  />
<polygon style="stroke:black; stroke-width:1; fill:#FFFFFF; " description="unannotated orf[br]Location: 90971 - 93131" locus_tag="CHAFR746836_0071480.1" class="clusterblast-orf" points="112,35 117,30 122,30 122,40 117,40 112,35 " id="clusterblast-1_q9_5_6"  />
<polygon style="stroke:black; stroke-width:1; fill:#FFFFFF; " description="unannotated orf[br]Location: 94508 - 96197" locus_tag="CHAFR746836_0071490.1" class="clusterblast-orf" points="128,40 130,40 135,35 130,30 128,30 128,40 " id="clusterblast-1_q9_5_7"  />
<polygon style="stroke:black; stroke-width:1; fill:#FFFFFF; " description="unannotated orf[br]Location: 97454 - 99476" locus_tag="CHAFR746836_0071500.1" class="clusterblast-orf" points="141,40 145,40 150,35 145,30 141,30 141,40 " id="clusterblast-1_q9_5_8"  />
<polygon style="stroke:black; stroke-width:1; fill:#FFFFFF; " description="unannotated orf[br]Location: 100761 - 101297" locus_tag="CHAFR746836_0071510.1" class="clusterblast-orf" points="156,40 158,35 156,30 156,40 " id="clusterblast-1_q9_5_9"  />
<polygon style="stroke:black; stroke-width:1; fill:#FFFFFF; " description="unannotated orf[br]Location: 104385 - 104721" locus_tag="CHAFR746836_0071520.1" class="clusterblast-orf" points="172,40 174,35 172,30 172,40 " id="clusterblast-1_q9_5_10"  />
<polygon style="stroke:black; stroke-width:1; fill:#FFFFFF; " description="unannotated orf[br]Location: 107563 - 110227" locus_tag="CHAFR746836_0071530.1" class="clusterblast-orf" points="186,35 191,30 198,30 198,40 191,40 186,35 " id="clusterblast-1_q9_5_11"  />
<polygon style="stroke:black; stroke-width:1; fill:#FFFFFF; " description="unannotated orf[br]Location: 114742 - 115039" locus_tag="CHAFR746836_0071540.1" class="clusterblast-orf" points="219,40 220,35 219,30 219,40 " id="clusterblast-1_q9_5_12"  />
<polygon style="stroke:black; stroke-width:1; fill:#FFFFFF; " description="unannotated orf[br]Location: 123259 - 127108" locus_tag="CHAFR746836_0071550.1" class="clusterblast-orf" points="257,35 262,30 274,30 274,40 262,40 257,35 " id="clusterblast-1_q9_5_13"  />
<polygon style="stroke:black; stroke-width:1; fill:#FFFFFF; " description="unannotated orf[br]Location: 144812 - 146250" locus_tag="CHAFR746836_0071560.1" class="clusterblast-orf" points="354,35 359,30 360,30 360,40 359,40 354,35 " id="clusterblast-1_q9_5_14"  />
<polygon style="stroke:black; stroke-width:1; fill:#FFFFFF; " description="unannotated orf[br]Location: 152743 - 154459" locus_tag="CHAFR746836_0071570.1" class="clusterblast-orf" points="389,35 394,30 397,30 397,40 394,40 389,35 " id="clusterblast-1_q9_5_15"  />
<polygon style="stroke:black; stroke-width:1; fill:#FFFFFF; " description="unannotated orf[br]Location: 156531 - 157389" locus_tag="CHAFR746836_0071580.1" class="clusterblast-orf" points="406,35 410,30 410,40 406,35 " id="clusterblast-1_q9_5_16"  />
<polygon style="stroke:black; stroke-width:1; fill:#FFFFFF; " description="unannotated orf[br]Location: 164785 - 166669" locus_tag="CHAFR746836_0071590.1" class="clusterblast-orf" points="443,40 447,40 452,35 447,30 443,30 443,40 " id="clusterblast-1_q9_5_17"  />
<polygon style="stroke:black; stroke-width:1; fill:#FFFFFF; " description="unannotated orf[br]Location: 201968 - 203433" locus_tag="CHAFR746836_0071600.1" class="clusterblast-orf" points="610,40 612,40 617,35 612,30 610,30 610,40 " id="clusterblast-1_q9_5_18"  />
<polygon style="stroke:black; stroke-width:1; fill:#FFFFFF; " description="unannotated orf[br]Location: 204836 - 205972" locus_tag="CHAFR746836_0071610.1" class="clusterblast-orf" points="623,40 623,40 628,35 623,30 623,30 623,40 " id="clusterblast-1_q9_5_19"  />
<polygon style="stroke:black; stroke-width:1; fill:#FFFFFF; " description="unannotated orf[br]Location: 207637 - 210779" locus_tag="CHAFR746836_0071620.1" class="clusterblast-orf" points="636,35 641,30 650,30 650,40 641,40 636,35 " id="clusterblast-1_q9_5_20"  />
<polygon style="stroke:black; stroke-width:1; fill:#FFFFFF; " description="unannotated orf[br]Location: 211916 - 213325" locus_tag="CHAFR746836_0071630.1" class="clusterblast-orf" points="655,35 660,30 661,30 661,40 660,40 655,35 " id="clusterblast-1_q9_5_21"  />
<polygon style="stroke:black; stroke-width:1; fill:yellow; " description="unannotated orf[br]Location: 215213 - 216863" locus_tag="CHAFR746836_0071640.1" class="clusterblast-orf" points="670,35 675,30 677,30 677,40 675,40 670,35 " id="clusterblast-1_q9_5_22"  />
<polygon style="stroke:black; stroke-width:1; fill:#FFFFFF; " description="unannotated orf[br]Location: 224691 - 226010" locus_tag="CHAFR746836_0071650.1" class="clusterblast-orf" points="712,40 713,40 718,35 713,30 712,30 712,40 " id="clusterblast-1_q9_5_23"  />
<polygon style="stroke:black; stroke-width:1; fill:#FFFFFF; " description="unannotated orf[br]Location: 230972 - 232109" locus_tag="CHAFR746836_0071660.1" class="clusterblast-orf" points="740,40 740,40 745,35 740,30 740,30 740,40 " id="clusterblast-1_q9_5_24"  />
<polygon style="stroke:black; stroke-width:1; fill:#FFFFFF; " description="unannotated orf[br]Location: 233318 - 234463" locus_tag="CHAFR746836_0071670.1" class="clusterblast-orf" points="751,35 756,30 756,30 756,40 756,40 751,35 " id="clusterblast-1_q9_5_25"  />
<polygon style="stroke:black; stroke-width:1; fill:#FFFFFF; " description="unannotated orf[br]Location: 234897 - 236194" locus_tag="CHAFR746836_0071680.1" class="clusterblast-orf" points="758,40 759,40 764,35 759,30 758,30 758,40 " id="clusterblast-1_q9_5_26"  />
<polygon style="stroke:black; stroke-width:1; fill:#FFFFFF; " description="unannotated orf[br]Location: 236494 - 237888" locus_tag="CHAFR746836_0071690.1" class="clusterblast-orf" points="765,35 770,30 771,30 771,40 770,40 765,35 " id="clusterblast-1_q9_5_27"  />
<polygon style="stroke:black; stroke-width:1; fill:#FFFFFF; " description="unannotated orf[br]Location: 238790 - 239245" locus_tag="CHAFR746836_0071700.1" class="clusterblast-orf" points="775,40 778,35 775,30 775,40 " id="clusterblast-1_q9_5_28"  />
</g>
<g class="clusterblast-cluster" description="Burkholderia thailandensis E264 chromosome II, complete seq..." label="NC_007650.1_c2"  >
<text class="clusterblast-acc" y="60" x="5"  >
NC_007650.1_c2</text>
<text class="clusterblast-desc" y="60" x="460.8"  >
Burkholderia thailandensis E264 chromosome II, complete seq...</text>
<line y1="85" x2="778.0" style="stroke:grey; stroke-width:1; " x1="10" y2="85"  />
<polygon style="stroke:black; stroke-width:1; fill:#FFFFFF; " description="outer_membrane_protein,_putative[br]Location: 1136258 - 1142335" locus_tag="BTH_II0957" id="clusterblast-1_h9_5_0" points="285,90 307,90 312,85 307,80 285,80 285,90 " class="clusterblast-orf"  />
<polygon style="stroke:black; stroke-width:1; fill:#FFFFFF; " description="hypothetical_protein[br]Location: 1135785 - 1136267" locus_tag="BTH_II0956" id="clusterblast-1_h9_5_1" points="312,90 314,85 312,80 312,90 " class="clusterblast-orf"  />
<polygon style="stroke:black; stroke-width:1; fill:#FFFFFF; " description="TPR_domain-containing_protein[br]Location: 1133551 - 1135668" locus_tag="BTH_II0955" id="clusterblast-1_h9_5_2" points="314,90 319,90 324,85 319,80 314,80 314,90 " class="clusterblast-orf"  />
<polygon style="stroke:black; stroke-width:1; fill:#FFFFFF; " description="YadA-like_C-terminal_region_protein[br]Location: 1132798 - 1133439" locus_tag="BTH_II0954" id="clusterblast-1_h9_5_3" points="324,90 327,85 324,80 324,90 " class="clusterblast-orf"  />
<polygon style="stroke:black; stroke-width:1; fill:#FFFFFF; " description="hypothetical_protein[br]Location: 1131564 - 1132574" locus_tag="BTH_II0953" id="clusterblast-1_h9_5_4" points="328,90 328,90 333,85 328,80 328,80 328,90 " class="clusterblast-orf"  />
<polygon style="stroke:black; stroke-width:1; fill:#FFFFFF; " description="hypothetical_protein[br]Location: 1130395 - 1131543" locus_tag="BTH_II0952" id="clusterblast-1_h9_5_5" points="333,90 333,90 338,85 333,80 333,80 333,90 " class="clusterblast-orf"  />
<polygon style="stroke:black; stroke-width:1; fill:#FFFFFF; " description="hypothetical_protein[br]Location: 1129087 - 1130229" locus_tag="BTH_II0951" id="clusterblast-1_h9_5_6" points="339,85 344,80 344,80 344,90 344,90 339,85 " class="clusterblast-orf"  />
<polygon style="stroke:black; stroke-width:1; fill:red; " description="biotin_carboxylase[br]Location: 1126958 - 1128958&lt;br&gt;&lt;br&gt;&lt;b&gt;BlastP hit with CHAFR746836_0071420.1&lt;/b&gt;&lt;br&gt;Percentage identity: 53%&lt;br&gt;Percentage coverage: 64%&lt;br&gt;BLAST bit score: 452&lt;br&gt;E-value: 2e-147" locus_tag="BTH_II0950" id="clusterblast-1_h9_5_7" points="345,85 350,80 354,80 354,90 350,90 345,85 " class="clusterblast-orf"  />
<polygon style="stroke:black; stroke-width:1; fill:#FFFFFF; " description="enoyl-CoA_hydratase[br]Location: 1126049 - 1126834" locus_tag="BTH_II0949" id="clusterblast-1_h9_5_8" points="354,85 358,80 358,90 354,85 " class="clusterblast-orf"  />
<polygon style="stroke:black; stroke-width:1; fill:blue; " description="carboxyl_transferase_domain-containing_protein[br]Location: 1124421 - 1126028&lt;br&gt;&lt;br&gt;&lt;b&gt;BlastP hit with CHAFR746836_0071470.1&lt;/b&gt;&lt;br&gt;Percentage identity: 59%&lt;br&gt;Percentage coverage: 94%&lt;br&gt;BLAST bit score: 651&lt;br&gt;E-value: 0.0" locus_tag="BTH_II0948" id="clusterblast-1_h9_5_9" points="358,85 363,80 365,80 365,90 363,90 358,85 " class="clusterblast-orf"  />
<polygon style="stroke:black; stroke-width:1; fill:green; " description="isovaleryl-CoA_dehydrogenase[br]Location: 1123217 - 1124398&lt;br&gt;&lt;br&gt;&lt;b&gt;BlastP hit with CHAFR746836_0071460.1&lt;/b&gt;&lt;br&gt;Percentage identity: 59%&lt;br&gt;Percentage coverage: 88%&lt;br&gt;BLAST bit score: 472&lt;br&gt;E-value: 4e-163" locus_tag="BTH_II0947" id="clusterblast-1_h9_5_10" points="365,85 370,80 370,80 370,90 370,90 365,85 " class="clusterblast-orf"  />
<polygon style="stroke:black; stroke-width:1; fill:#FFFFFF; " description="TetR_family_transcriptional_regulator[br]Location: 1122236 - 1123012" locus_tag="BTH_II0946" id="clusterblast-1_h9_5_11" points="371,90 375,85 371,80 371,90 " class="clusterblast-orf"  />
<polygon style="stroke:black; stroke-width:1; fill:#FFFFFF; " description="nitric_oxide_reductase[br]Location: 1119312 - 1121633" locus_tag="BTH_II0945" id="clusterblast-1_h9_5_12" points="377,90 383,90 388,85 383,80 377,80 377,90 " class="clusterblast-orf"  />
<polygon style="stroke:black; stroke-width:1; fill:#FFFFFF; " description="mulitcopper_oxidase_domain-containing_protein[br]Location: 1117662 - 1119125" locus_tag="BTH_II0944" id="clusterblast-1_h9_5_13" points="389,90 390,90 395,85 390,80 389,80 389,90 " class="clusterblast-orf"  />
<polygon style="stroke:black; stroke-width:1; fill:#FFFFFF; " description="AMP-binding_domain-containing_protein[br]Location: 1114187 - 1117294" locus_tag="BTH_II0943" id="clusterblast-1_h9_5_14" points="397,85 402,80 411,80 411,90 402,90 397,85 " class="clusterblast-orf"  />
<polygon style="stroke:black; stroke-width:1; fill:#FFFFFF; " description="hypothetical_protein[br]Location: 1113918 - 1114142" locus_tag="BTH_II0942" id="clusterblast-1_h9_5_15" points="411,85 412,80 412,90 411,85 " class="clusterblast-orf"  />
<polygon style="stroke:black; stroke-width:1; fill:#FFFFFF; " description="glycogen_phosphorylase_family_protein[br]Location: 1111076 - 1113577" locus_tag="BTH_II0941" id="clusterblast-1_h9_5_16" points="414,85 419,80 425,80 425,90 419,90 414,85 " class="clusterblast-orf"  />
<polygon style="stroke:black; stroke-width:1; fill:#FFFFFF; " description="glycogen_synthase[br]Location: 1109366 - 1111036" locus_tag="BTH_II0940" id="clusterblast-1_h9_5_17" points="425,85 430,80 432,80 432,90 430,90 425,85 " class="clusterblast-orf"  />
<polygon style="stroke:black; stroke-width:1; fill:#FFFFFF; " description="glycogen_branching_enzyme[br]Location: 1106744 - 1109248" locus_tag="BTH_II0939" id="clusterblast-1_h9_5_18" points="433,90 439,90 444,85 439,80 433,80 433,90 " class="clusterblast-orf"  />
<polygon style="stroke:black; stroke-width:1; fill:#FFFFFF; " description="glycogen_operon_protein_GlgX[br]Location: 1102705 - 1106733" locus_tag="BTH_II0938" id="clusterblast-1_h9_5_19" points="444,90 457,90 462,85 457,80 444,80 444,90 " class="clusterblast-orf"  />
<polygon style="stroke:black; stroke-width:1; fill:#FFFFFF; " description="hypothetical_protein[br]Location: 1100030 - 1101622" locus_tag="BTH_II0937" id="clusterblast-1_h9_5_20" points="467,85 472,80 474,80 474,90 472,90 467,85 " class="clusterblast-orf"  />
<polygon style="stroke:black; stroke-width:1; fill:#FFFFFF; " description="IS4_family_transposase[br]Location: 1099587 - 1099967" locus_tag="BTH_II0936" id="clusterblast-1_h9_5_21" points="475,85 476,80 476,90 475,85 " class="clusterblast-orf"  />
<polygon style="stroke:black; stroke-width:1; fill:#FFFFFF; " description="transposase,_putative[br]Location: 1099210 - 1099617" locus_tag="BTH_II0935" id="clusterblast-1_h9_5_22" points="476,85 478,80 478,90 476,85 " class="clusterblast-orf"  />
<polygon style="stroke:black; stroke-width:1; fill:#FFFFFF; " description="hypothetical_protein[br]Location: 1097798 - 1098679" locus_tag="BTH_II0934" id="clusterblast-1_h9_5_23" points="480,85 484,80 484,90 480,85 " class="clusterblast-orf"  />
<polygon style="stroke:black; stroke-width:1; fill:#FFFFFF; " description="Rhs_element_Vgr_protein,_putative[br]Location: 1095456 - 1097798" locus_tag="BTH_II0933" id="clusterblast-1_h9_5_24" points="484,85 489,80 495,80 495,90 489,90 484,85 " class="clusterblast-orf"  />
<polygon style="stroke:black; stroke-width:1; fill:#FFFFFF; " description="LuxR_family_DNA-binding_response_regulator[br]Location: 1094203 - 1094637" locus_tag="BTH_II0932" id="clusterblast-1_h9_5_25" points="499,90 501,85 499,80 499,90 " class="clusterblast-orf"  />
<polygon style="stroke:black; stroke-width:1; fill:#FFFFFF; " description="hypothetical_protein[br]Location: 1093958 - 1094206" locus_tag="BTH_II0931" id="clusterblast-1_h9_5_26" points="501,85 502,80 502,90 501,85 " class="clusterblast-orf"  />
</g>
</svg>
