<svg xmlns="http://www.w3.org/2000/svg" height="230" width="800" version="1.1" y="0" x="0" preserveAspectRatio="none" xmlns:xlink="http://www.w3.org/1999/xlink" viewBox="0 0 800 230"  >
<g class="clusterblast-cluster" label="Query sequence"  >
<text class="clusterblast-acc" y="10" x="5"  >
Query sequence</text>
<line y1="35" x2="778.0" style="stroke:grey; stroke-width:1; " x1="10" y2="35"  />
<polygon style="stroke:black; stroke-width:1; fill:#FFFFFF; " description="unannotated orf[br]Location: 48550 - 50452" locus_tag="CHAFR746836_0048540.1" class="clusterblast-orf" points="10,35 15,30 42,30 42,40 15,40 10,35 " id="clusterblast-1_q60_1_0"  />
<polygon style="stroke:black; stroke-width:1; fill:#FFFFFF; " description="unannotated orf[br]Location: 51110 - 51728" locus_tag="CHAFR746836_0048550.1" class="clusterblast-orf" points="53,35 58,30 64,30 64,40 58,40 53,35 " id="clusterblast-1_q60_1_1"  />
<polygon style="stroke:black; stroke-width:1; fill:#FFFFFF; " description="unannotated orf[br]Location: 53237 - 55611" locus_tag="CHAFR746836_0048560.1" class="clusterblast-orf" points="89,35 94,30 130,30 130,40 94,40 89,35 " id="clusterblast-1_q60_1_2"  />
<polygon style="stroke:black; stroke-width:1; fill:#FFFFFF; " description="unannotated orf[br]Location: 57932 - 59484" locus_tag="CHAFR746836_0048570.1" class="clusterblast-orf" points="169,40 191,40 196,35 191,30 169,30 169,40 " id="clusterblast-1_q60_1_3"  />
<polygon style="stroke:black; stroke-width:1; fill:#FFFFFF; " description="unannotated orf[br]Location: 62331 - 63950" locus_tag="CHAFR746836_0048580.1" class="clusterblast-orf" points="244,35 249,30 272,30 272,40 249,40 244,35 " id="clusterblast-1_q60_1_4"  />
<polygon style="stroke:black; stroke-width:1; fill:red; " description="unannotated orf[br]Location: 64666 - 66296" locus_tag="CHAFR746836_0048590.1" class="clusterblast-orf" points="284,40 307,40 312,35 307,30 284,30 284,40 " id="clusterblast-1_q60_1_5"  />
<polygon style="stroke:black; stroke-width:1; fill:green; " description="unannotated orf[br]Location: 69864 - 75702" locus_tag="CHAFR746836_0048600.1" class="clusterblast-orf" points="373,40 467,40 472,35 467,30 373,30 373,40 " id="clusterblast-1_q60_1_6"  />
<polygon style="stroke:black; stroke-width:1; fill:blue; " description="unannotated orf[br]Location: 79743 - 81850" locus_tag="CHAFR746836_0048610.1" class="clusterblast-orf" points="541,40 572,40 577,35 572,30 541,30 541,40 " id="clusterblast-1_q60_1_7"  />
<polygon style="stroke:black; stroke-width:1; fill:#FFFFFF; " description="unannotated orf[br]Location: 85884 - 86805" locus_tag="CHAFR746836_0048620.1" class="clusterblast-orf" points="646,40 657,40 662,35 657,30 646,30 646,40 " id="clusterblast-1_q60_1_8"  />
<polygon style="stroke:black; stroke-width:1; fill:#FFFFFF; " description="unannotated orf[br]Location: 87662 - 90517" locus_tag="CHAFR746836_0048630.1" class="clusterblast-orf" points="676,40 720,40 725,35 720,30 676,30 676,40 " id="clusterblast-1_q60_1_9"  />
<polygon style="stroke:black; stroke-width:1; fill:#FFFFFF; " description="unannotated orf[br]Location: 91368 - 93605" locus_tag="CHAFR746836_0048640.1" class="clusterblast-orf" points="739,40 773,40 778,35 773,30 739,30 739,40 " id="clusterblast-1_q60_1_10"  />
</g>
<g class="clusterblast-cluster" description="Metarhizium acridum CQMa 102 unplaced genomic scaffold Scf 0..." label="GL698533.1_c1"  >
<text class="clusterblast-acc" y="60" x="5"  >
GL698533.1_c1</text>
<text class="clusterblast-desc" y="60" x="460.8"  >
Metarhizium acridum CQMa 102 unplaced genomic scaffold Scf 0...</text>
<line y1="85" x2="778.0" style="stroke:grey; stroke-width:1; " x1="10" y2="85"  />
<polygon style="stroke:black; stroke-width:1; fill:#FFFFFF; " description="hypothetical_protein[br]Location: 75071 - 75826" locus_tag="MAC_06868" id="clusterblast-1_h60_1_0" points="23,90 30,90 35,85 30,80 23,80 23,90 " class="clusterblast-orf"  />
<polygon style="stroke:black; stroke-width:1; fill:#FFFFFF; " description="hypothetical_protein[br]Location: 72185 - 72922" locus_tag="MAC_06867" id="clusterblast-1_h60_1_1" points="72,85 77,80 85,80 85,90 77,90 72,85 " class="clusterblast-orf"  />
<polygon style="stroke:black; stroke-width:1; fill:blue; " description="copper_amine_oxidase_1[br]Location: 69503 - 71545&lt;br&gt;&lt;br&gt;&lt;b&gt;BlastP hit with CHAFR746836_0048610.1&lt;/b&gt;&lt;br&gt;Percentage identity: 67%&lt;br&gt;Percentage coverage: 99%&lt;br&gt;BLAST bit score: 978&lt;br&gt;E-value: 0.0" locus_tag="MAC_06866" id="clusterblast-1_h60_1_2" points="95,90 125,90 130,85 125,80 95,80 95,90 " class="clusterblast-orf"  />
<polygon style="stroke:black; stroke-width:1; fill:#FFFFFF; " description="C2H2_finger_domain_protein,_putative[br]Location: 67055 - 69076" locus_tag="MAC_06865" id="clusterblast-1_h60_1_3" points="138,85 143,80 172,80 172,90 143,90 138,85 " class="clusterblast-orf"  />
<polygon style="stroke:black; stroke-width:1; fill:green; " description="agmatinase_precursor[br]Location: 62693 - 64062&lt;br&gt;&lt;br&gt;&lt;b&gt;BlastP hit with CHAFR746836_0048600.1&lt;/b&gt;&lt;br&gt;Percentage identity: 75%&lt;br&gt;Percentage coverage: 23%&lt;br&gt;BLAST bit score: 541&lt;br&gt;E-value: 2e-178" locus_tag="MAC_06864" id="clusterblast-1_h60_1_4" points="223,90 241,90 246,85 241,80 223,80 223,90 " class="clusterblast-orf"  />
<polygon style="stroke:black; stroke-width:1; fill:#FFFFFF; " description="phosphatidylserine_decarboxylase_family_protein[br]Location: 60750 - 62072" locus_tag="MAC_06863" id="clusterblast-1_h60_1_5" points="257,85 262,80 279,80 279,90 262,90 257,85 " class="clusterblast-orf"  />
<polygon style="stroke:black; stroke-width:1; fill:#FFFFFF; " description="NRPS-like_enzyme,_putative[br]Location: 58718 - 60263" locus_tag="MAC_06862" id="clusterblast-1_h60_1_6" points="288,90 309,90 314,85 309,80 288,80 288,90 " class="clusterblast-orf"  />
<polygon style="stroke:black; stroke-width:1; fill:red; " description="aldehyde_dehydrogenase[br]Location: 56804 - 58436&lt;br&gt;&lt;br&gt;&lt;b&gt;BlastP hit with CHAFR746836_0048590.1&lt;/b&gt;&lt;br&gt;Percentage identity: 71%&lt;br&gt;Percentage coverage: 99%&lt;br&gt;BLAST bit score: 758&lt;br&gt;E-value: 0.0" locus_tag="MAC_06861" id="clusterblast-1_h60_1_7" points="319,85 324,80 347,80 347,90 324,90 319,85 " class="clusterblast-orf"  />
<polygon style="stroke:black; stroke-width:1; fill:green; " description="nonribosomal_peptide_synthase,_putative[br]Location: 52762 - 56283&lt;br&gt;&lt;br&gt;&lt;b&gt;BlastP hit with CHAFR746836_0048600.1&lt;/b&gt;&lt;br&gt;Percentage identity: 45%&lt;br&gt;Percentage coverage: 77%&lt;br&gt;BLAST bit score: 900&lt;br&gt;E-value: 0.0" locus_tag="MAC_06860" id="clusterblast-1_h60_1_8" points="356,90 411,90 416,85 411,80 356,80 356,90 " class="clusterblast-orf"  />
<polygon style="stroke:black; stroke-width:1; fill:#FFFFFF; " description="MFS_multidrug_transporter,_putative[br]Location: 50468 - 52200" locus_tag="MAC_06859" id="clusterblast-1_h60_1_9" points="425,85 430,80 455,80 455,90 430,90 425,85 " class="clusterblast-orf"  />
<polygon style="stroke:black; stroke-width:1; fill:#FFFFFF; " description="glutamine_synthetase[br]Location: 46992 - 48544" locus_tag="MAC_06858" id="clusterblast-1_h60_1_10" points="488,85 493,80 514,80 514,90 493,90 488,85 " class="clusterblast-orf"  />
<polygon style="stroke:black; stroke-width:1; fill:#FFFFFF; " description="short-chain_dehydrogenase/reductase_family[br]Location: 44324 - 45325" locus_tag="MAC_06857" id="clusterblast-1_h60_1_11" points="542,90 554,90 559,85 554,80 542,80 542,90 " class="clusterblast-orf"  />
<polygon style="stroke:black; stroke-width:1; fill:#FFFFFF; " description="isocitrate_lyase[br]Location: 42266 - 44021" locus_tag="MAC_06856" id="clusterblast-1_h60_1_12" points="565,85 570,80 595,80 595,90 570,90 565,85 " class="clusterblast-orf"  />
<polygon style="stroke:black; stroke-width:1; fill:#FFFFFF; " description="methylcitrate_synthase_precursor[br]Location: 39717 - 41305" locus_tag="MAC_06855" id="clusterblast-1_h60_1_13" points="611,90 633,90 638,85 633,80 611,80 611,90 " class="clusterblast-orf"  />
<polygon style="stroke:black; stroke-width:1; fill:#FFFFFF; " description="amino_acid_transporter,_putative[br]Location: 37460 - 39103" locus_tag="MAC_06854" id="clusterblast-1_h60_1_14" points="648,85 653,80 676,80 676,90 653,90 648,85 " class="clusterblast-orf"  />
<polygon style="stroke:black; stroke-width:1; fill:#FFFFFF; " description="flavohemoglobin[br]Location: 32329 - 33588" locus_tag="MAC_06853" id="clusterblast-1_h60_1_15" points="742,90 759,90 764,85 759,80 742,80 742,90 " class="clusterblast-orf"  />
</g>
</svg>
