<svg xmlns="http://www.w3.org/2000/svg" height="230" width="800" version="1.1" y="0" x="0" preserveAspectRatio="none" xmlns:xlink="http://www.w3.org/1999/xlink" viewBox="0 0 800 230"  >
<g class="clusterblast-cluster" label="Query sequence"  >
<text class="clusterblast-acc" y="10" x="5"  >
Query sequence</text>
<line y1="35" x2="778.0" style="stroke:grey; stroke-width:1; " x1="10" y2="35"  />
<polygon style="stroke:black; stroke-width:1; fill:rgb(190,63,63); " description="unannotated orf[br]Location: 1171 - 2581" locus_tag="CHAFR746836_0090890.1" class="clusterblast-orf" points="10,35 15,30 21,30 21,40 15,40 10,35 " id="clusterblast-1_q24_9_0"  />
<polygon style="stroke:black; stroke-width:1; fill:#FFFFFF; " description="unannotated orf[br]Location: 3903 - 4681" locus_tag="CHAFR746836_0090900.1" class="clusterblast-orf" points="31,35 36,30 37,30 37,40 36,40 31,35 " id="clusterblast-1_q24_9_1"  />
<polygon style="stroke:black; stroke-width:1; fill:#FFFFFF; " description="unannotated orf[br]Location: 5272 - 5519" locus_tag="CHAFR746836_0090910.1" class="clusterblast-orf" points="42,40 44,35 42,30 42,40 " id="clusterblast-1_q24_9_2"  />
<polygon style="stroke:black; stroke-width:1; fill:#FFFFFF; " description="unannotated orf[br]Location: 14494 - 15565" locus_tag="CHAFR746836_0090920.1" class="clusterblast-orf" points="115,35 120,30 124,30 124,40 120,40 115,35 " id="clusterblast-1_q24_9_3"  />
<polygon style="stroke:black; stroke-width:1; fill:rgb(63,63,190); " description="unannotated orf[br]Location: 17145 - 18525" locus_tag="CHAFR746836_0090930.1" class="clusterblast-orf" points="136,40 142,40 147,35 142,30 136,30 136,40 " id="clusterblast-1_q24_9_4"  />
<polygon style="stroke:black; stroke-width:1; fill:#FFFFFF; " description="unannotated orf[br]Location: 28799 - 30524" locus_tag="CHAFR746836_0090940.1" class="clusterblast-orf" points="229,40 238,40 243,35 238,30 229,30 229,40 " id="clusterblast-1_q24_9_5"  />
<polygon style="stroke:black; stroke-width:1; fill:#FFFFFF; " description="unannotated orf[br]Location: 41424 - 43262" locus_tag="CHAFR746836_0090950.1" class="clusterblast-orf" points="329,35 334,30 344,30 344,40 334,40 329,35 " id="clusterblast-1_q24_9_6"  />
<polygon style="stroke:black; stroke-width:1; fill:#FFFFFF; " description="unannotated orf[br]Location: 43541 - 44533" locus_tag="CHAFR746836_0090960.1" class="clusterblast-orf" points="346,40 349,40 354,35 349,30 346,30 346,40 " id="clusterblast-1_q24_9_7"  />
<polygon style="stroke:black; stroke-width:1; fill:#FFFFFF; " description="unannotated orf[br]Location: 44819 - 46174" locus_tag="CHAFR746836_0090970.1" class="clusterblast-orf" points="356,35 361,30 367,30 367,40 361,40 356,35 " id="clusterblast-1_q24_9_8"  />
<polygon style="stroke:black; stroke-width:1; fill:#FFFFFF; " description="unannotated orf[br]Location: 46942 - 48495" locus_tag="CHAFR746836_0090980.1" class="clusterblast-orf" points="373,40 380,40 385,35 380,30 373,30 373,40 " id="clusterblast-1_q24_9_9"  />
<polygon style="stroke:black; stroke-width:1; fill:#FFFFFF; " description="unannotated orf[br]Location: 49208 - 50194" locus_tag="CHAFR746836_0090990.1" class="clusterblast-orf" points="391,40 394,40 399,35 394,30 391,30 391,40 " id="clusterblast-1_q24_9_10"  />
<polygon style="stroke:black; stroke-width:1; fill:rgb(63,190,63); " description="unannotated orf[br]Location: 51690 - 53335" locus_tag="CHAFR746836_0091000.1" class="clusterblast-orf" points="411,40 419,40 424,35 419,30 411,30 411,40 " id="clusterblast-1_q24_9_11"  />
<polygon style="stroke:black; stroke-width:1; fill:rgb(190,63,190); " description="unannotated orf[br]Location: 57952 - 59410" locus_tag="CHAFR746836_0091010.1" class="clusterblast-orf" points="460,40 467,40 472,35 467,30 460,30 460,40 " id="clusterblast-1_q24_9_12"  />
<polygon style="stroke:black; stroke-width:1; fill:rgb(190,190,63); " description="unannotated orf[br]Location: 62569 - 63924" locus_tag="CHAFR746836_0091020.1" class="clusterblast-orf" points="497,40 503,40 508,35 503,30 497,30 497,40 " id="clusterblast-1_q24_9_13"  />
<polygon style="stroke:black; stroke-width:1; fill:rgb(190,190,190); " description="unannotated orf[br]Location: 66784 - 68224" locus_tag="CHAFR746836_0091030.1" class="clusterblast-orf" points="531,40 537,40 542,35 537,30 531,30 531,40 " id="clusterblast-1_q24_9_14"  />
<polygon style="stroke:black; stroke-width:1; fill:#FFFFFF; " description="unannotated orf[br]Location: 88555 - 89706" locus_tag="CHAFR746836_0091040.1" class="clusterblast-orf" points="704,35 709,30 713,30 713,40 709,40 704,35 " id="clusterblast-1_q24_9_15"  />
<polygon style="stroke:black; stroke-width:1; fill:rgb(63,190,190); " description="unannotated orf[br]Location: 94755 - 95427" locus_tag="CHAFR746836_0091050.1" class="clusterblast-orf" points="753,35 758,30 758,30 758,40 758,40 753,35 " id="clusterblast-1_q24_9_16"  />
<polygon style="stroke:black; stroke-width:1; fill:rgb(63,63,63); " description="unannotated orf[br]Location: 95982 - 97863" locus_tag="CHAFR746836_0091060.1" class="clusterblast-orf" points="763,40 773,40 778,35 773,30 763,30 763,40 " id="clusterblast-1_q24_9_17"  />
</g>
<g class="clusterblast-cluster" description="Streptomyces sp. W007 contig00099, whole genome shotg..." label="NZ_AGSW01000095.1_c1"  >
<text class="clusterblast-acc" y="60" x="5"  >
NZ_AGSW01000095.1_c1</text>
<text class="clusterblast-desc" y="60" x="460.8"  >
Streptomyces sp. W007 contig00099, whole genome shotg...</text>
<line y1="85" x2="778.0" style="stroke:grey; stroke-width:1; " x1="10" y2="85"  />
<polygon style="stroke:black; stroke-width:1; fill:#FFFFFF; " description="putative_transcriptional_regulator,_IclR[br]Location: 628 - 1365" locus_tag="SPW_2459" id="clusterblast-1_h24_9_0" points="35,85 40,80 40,80 40,90 40,90 35,85 " class="clusterblast-orf"  />
<polygon style="stroke:black; stroke-width:1; fill:#FFFFFF; " description="putative_thioesterase[br]Location: 1362 - 2048" locus_tag="SPW_2460" id="clusterblast-1_h24_9_1" points="40,85 45,80 46,80 46,90 45,90 40,85 " class="clusterblast-orf"  />
<polygon style="stroke:black; stroke-width:1; fill:#FFFFFF; " description="LuxR_family_transcriptional_regulator[br]Location: 2275 - 3087" locus_tag="SPW_2461" id="clusterblast-1_h24_9_2" points="48,85 53,80 54,80 54,90 53,90 48,85 " class="clusterblast-orf"  />
<polygon style="stroke:black; stroke-width:1; fill:#FFFFFF; " description="LuxR_family_transcriptional_regulator[br]Location: 3166 - 3861" locus_tag="SPW_2462" id="clusterblast-1_h24_9_3" points="55,85 60,80 60,80 60,90 60,90 55,85 " class="clusterblast-orf"  />
<polygon style="stroke:black; stroke-width:1; fill:#FFFFFF; " description="hypothetical_protein[br]Location: 4287 - 4811" locus_tag="SPW_2463" id="clusterblast-1_h24_9_4" points="64,85 68,80 68,90 64,85 " class="clusterblast-orf"  />
<polygon style="stroke:black; stroke-width:1; fill:#FFFFFF; " description="D-3-phosphoglycerate_dehydrogenase[br]Location: 4808 - 6412" locus_tag="SPW_2464" id="clusterblast-1_h24_9_5" points="68,85 73,80 80,80 80,90 73,90 68,85 " class="clusterblast-orf"  />
<polygon style="stroke:black; stroke-width:1; fill:#FFFFFF; " description="putative_cysteine_synthase[br]Location: 6451 - 7464" locus_tag="SPW_2465" id="clusterblast-1_h24_9_6" points="81,85 86,80 89,80 89,90 86,90 81,85 " class="clusterblast-orf"  />
<polygon style="stroke:black; stroke-width:1; fill:#FFFFFF; " description="putative_ornithine_cyclodeaminase[br]Location: 7501 - 8544" locus_tag="SPW_2466" id="clusterblast-1_h24_9_7" points="89,85 94,80 97,80 97,90 94,90 89,85 " class="clusterblast-orf"  />
<polygon style="stroke:black; stroke-width:1; fill:#FFFFFF; " description="putative_NRPS-like_protein[br]Location: 8604 - 8999" locus_tag="SPW_2467" id="clusterblast-1_h24_9_8" points="98,85 101,80 101,90 98,85 " class="clusterblast-orf"  />
<polygon style="stroke:black; stroke-width:1; fill:#FFFFFF; " description="putative_NRPS-like_protein[br]Location: 8996 - 9592" locus_tag="SPW_2468" id="clusterblast-1_h24_9_9" points="101,85 106,80 106,80 106,90 106,90 101,85 " class="clusterblast-orf"  />
<polygon style="stroke:black; stroke-width:1; fill:#FFFFFF; " description="putative_NRPS-like_protein[br]Location: 9614 - 12025" locus_tag="SPW_2469" id="clusterblast-1_h24_9_10" points="106,85 111,80 125,80 125,90 111,90 106,85 " class="clusterblast-orf"  />
<polygon style="stroke:black; stroke-width:1; fill:#FFFFFF; " description="putative_isomerase[br]Location: 12037 - 12711" locus_tag="SPW_2470" id="clusterblast-1_h24_9_11" points="125,85 130,80 130,80 130,90 130,90 125,85 " class="clusterblast-orf"  />
<polygon style="stroke:black; stroke-width:1; fill:rgb(63,63,190); " description="putative_3-oxoacyl-ACP_reductase[br]Location: 12708 - 13391&lt;br&gt;&lt;br&gt;&lt;b&gt;BlastP hit with CHAFR746836_0090930.1&lt;/b&gt;&lt;br&gt;Percentage identity: 31%&lt;br&gt;Percentage coverage: 62%&lt;br&gt;BLAST bit score: 100&lt;br&gt;E-value: 2e-23" locus_tag="SPW_2471" id="clusterblast-1_h24_9_12" points="130,85 135,80 136,80 136,90 135,90 130,85 " class="clusterblast-orf"  />
<polygon style="stroke:black; stroke-width:1; fill:#FFFFFF; " description="putative_3-hydroxyacyl-ACP_dehydratase[br]Location: 13448 - 13900" locus_tag="SPW_2472" id="clusterblast-1_h24_9_13" points="136,85 140,80 140,90 136,85 " class="clusterblast-orf"  />
<polygon style="stroke:black; stroke-width:1; fill:#FFFFFF; " description="putative_dehydratase[br]Location: 13975 - 14382" locus_tag="SPW_2473" id="clusterblast-1_h24_9_14" points="141,85 144,80 144,90 141,85 " class="clusterblast-orf"  />
<polygon style="stroke:black; stroke-width:1; fill:#FFFFFF; " description="putative_3-oxoacyl-ACP_synthase_I[br]Location: 14379 - 15476" locus_tag="SPW_2474" id="clusterblast-1_h24_9_15" points="144,85 149,80 152,80 152,90 149,90 144,85 " class="clusterblast-orf"  />
<polygon style="stroke:black; stroke-width:1; fill:#FFFFFF; " description="hypothetical_protein[br]Location: 15482 - 16468" locus_tag="SPW_2475" id="clusterblast-1_h24_9_16" points="152,85 157,80 160,80 160,90 157,90 152,85 " class="clusterblast-orf"  />
<polygon style="stroke:black; stroke-width:1; fill:#FFFFFF; " description="putative_hydrolase[br]Location: 16516 - 17259" locus_tag="SPW_2476" id="clusterblast-1_h24_9_17" points="161,85 166,80 167,80 167,90 166,90 161,85 " class="clusterblast-orf"  />
<polygon style="stroke:black; stroke-width:1; fill:#FFFFFF; " description="putative_3-oxoacyl-ACP_synthase_I[br]Location: 17265 - 18152" locus_tag="SPW_2477" id="clusterblast-1_h24_9_18" points="167,85 172,80 174,80 174,90 172,90 167,85 " class="clusterblast-orf"  />
<polygon style="stroke:black; stroke-width:1; fill:#FFFFFF; " description="putative_3-oxoacyl-ACP_synthase_II[br]Location: 18158 - 19288" locus_tag="SPW_2478" id="clusterblast-1_h24_9_19" points="174,85 179,80 183,80 183,90 179,90 174,85 " class="clusterblast-orf"  />
<polygon style="stroke:black; stroke-width:1; fill:#FFFFFF; " description="putative_3-oxoacyl-ACP_synthase_II[br]Location: 19285 - 20538" locus_tag="SPW_2479" id="clusterblast-1_h24_9_20" points="183,85 188,80 193,80 193,90 188,90 183,85 " class="clusterblast-orf"  />
<polygon style="stroke:black; stroke-width:1; fill:#FFFFFF; " description="putative_acyl_carrier_protein[br]Location: 20572 - 20823" locus_tag="SPW_2480" id="clusterblast-1_h24_9_21" points="193,85 195,80 195,90 193,85 " class="clusterblast-orf"  />
<polygon style="stroke:black; stroke-width:1; fill:#FFFFFF; " description="putative_MbtH-like_protein[br]Location: 20850 - 21068" locus_tag="SPW_2481" id="clusterblast-1_h24_9_22" points="195,85 197,80 197,90 195,85 " class="clusterblast-orf"  />
<polygon style="stroke:black; stroke-width:1; fill:#FFFFFF; " description="putative_thioesterase[br]Location: 21536 - 22183" locus_tag="SPW_2482" id="clusterblast-1_h24_9_23" points="201,90 201,90 206,85 201,80 201,80 201,90 " class="clusterblast-orf"  />
<polygon style="stroke:black; stroke-width:1; fill:#FFFFFF; " description="hypothetical_protein[br]Location: 22201 - 22716" locus_tag="SPW_2483" id="clusterblast-1_h24_9_24" points="206,85 210,80 210,90 206,85 " class="clusterblast-orf"  />
<polygon style="stroke:black; stroke-width:1; fill:#FFFFFF; " description="putative_two-component_system_sensor_kinase[br]Location: 22869 - 24074" locus_tag="SPW_2484" id="clusterblast-1_h24_9_25" points="211,90 216,90 221,85 216,80 211,80 211,90 " class="clusterblast-orf"  />
<polygon style="stroke:black; stroke-width:1; fill:#FFFFFF; " description="hypothetical_protein[br]Location: 24065 - 25225" locus_tag="SPW_2485" id="clusterblast-1_h24_9_26" points="221,85 226,80 230,80 230,90 226,90 221,85 " class="clusterblast-orf"  />
<polygon style="stroke:black; stroke-width:1; fill:rgb(190,63,63); " description="hydroxyindole_O-methyltransferase[br]Location: 25231 - 26229&lt;br&gt;&lt;br&gt;&lt;b&gt;BlastP hit with CHAFR746836_0090890.1&lt;/b&gt;&lt;br&gt;Percentage identity: 31%&lt;br&gt;Percentage coverage: 35%&lt;br&gt;BLAST bit score: 60&lt;br&gt;E-value: 7e-09" locus_tag="SPW_2486" id="clusterblast-1_h24_9_27" points="230,85 235,80 238,80 238,90 235,90 230,85 " class="clusterblast-orf"  />
<polygon style="stroke:black; stroke-width:1; fill:#FFFFFF; " description="putative_cytochrome_P450[br]Location: 26508 - 27701" locus_tag="SPW_2487" id="clusterblast-1_h24_9_28" points="240,90 245,90 250,85 245,80 240,80 240,90 " class="clusterblast-orf"  />
<polygon style="stroke:black; stroke-width:1; fill:#FFFFFF; " description="acyltransferase_3[br]Location: 27847 - 28974" locus_tag="SPW_2488" id="clusterblast-1_h24_9_29" points="251,90 255,90 260,85 255,80 251,80 251,90 " class="clusterblast-orf"  />
<polygon style="stroke:black; stroke-width:1; fill:#FFFFFF; " description="putative_ABC_transporter_ATP-binding_protein[br]Location: 29065 - 30003" locus_tag="SPW_2489" id="clusterblast-1_h24_9_30" points="260,90 263,90 268,85 263,80 260,80 260,90 " class="clusterblast-orf"  />
<polygon style="stroke:black; stroke-width:1; fill:#FFFFFF; " description="putative_ABC_transporter_permease_protein[br]Location: 30013 - 30861" locus_tag="SPW_2490" id="clusterblast-1_h24_9_31" points="268,90 270,90 275,85 270,80 268,80 268,90 " class="clusterblast-orf"  />
<polygon style="stroke:black; stroke-width:1; fill:#FFFFFF; " description="hypothetical_protein[br]Location: 30940 - 31935" locus_tag="SPW_2491" id="clusterblast-1_h24_9_32" points="275,85 280,80 283,80 283,90 280,90 275,85 " class="clusterblast-orf"  />
<polygon style="stroke:black; stroke-width:1; fill:#FFFFFF; " description="putative_NRPS[br]Location: 32245 - 47043" locus_tag="SPW_2492" id="clusterblast-1_h24_9_33" points="286,85 291,80 403,80 403,90 291,90 286,85 " class="clusterblast-orf"  />
<polygon style="stroke:black; stroke-width:1; fill:#FFFFFF; " description="putative_NRPS[br]Location: 47061 - 62606" locus_tag="SPW_2493" id="clusterblast-1_h24_9_34" points="403,85 408,80 527,80 527,90 408,90 403,85 " class="clusterblast-orf"  />
<polygon style="stroke:black; stroke-width:1; fill:#FFFFFF; " description="putative_NRPS[br]Location: 62591 - 68818" locus_tag="SPW_2494" id="clusterblast-1_h24_9_35" points="527,85 532,80 576,80 576,90 532,90 527,85 " class="clusterblast-orf"  />
<polygon style="stroke:black; stroke-width:1; fill:#FFFFFF; " description="putative_cytochrome_P450[br]Location: 69328 - 70548" locus_tag="SPW_2495" id="clusterblast-1_h24_9_36" points="580,85 585,80 590,80 590,90 585,90 580,85 " class="clusterblast-orf"  />
<polygon style="stroke:black; stroke-width:1; fill:#FFFFFF; " description="hypothetical_protein[br]Location: 70551 - 71519" locus_tag="SPW_2496" id="clusterblast-1_h24_9_37" points="590,85 595,80 598,80 598,90 595,90 590,85 " class="clusterblast-orf"  />
<polygon style="stroke:black; stroke-width:1; fill:#FFFFFF; " description="hypothetical_protein[br]Location: 71516 - 75481" locus_tag="SPW_2497" id="clusterblast-1_h24_9_38" points="598,85 603,80 629,80 629,90 603,90 598,85 " class="clusterblast-orf"  />
<polygon style="stroke:black; stroke-width:1; fill:#FFFFFF; " description="putative_two-component_system_response[br]Location: 75771 - 76319" locus_tag="SPW_2498" id="clusterblast-1_h24_9_39" points="631,90 631,90 636,85 631,80 631,80 631,90 " class="clusterblast-orf"  />
<polygon style="stroke:black; stroke-width:1; fill:#FFFFFF; " description="putative_transcriptional_regulator[br]Location: 76365 - 76568" locus_tag="SPW_2499" id="clusterblast-1_h24_9_40" points="636,85 638,80 638,90 636,85 " class="clusterblast-orf"  />
<polygon style="stroke:black; stroke-width:1; fill:#FFFFFF; " description="putative_ABC_transporter_permease_protein[br]Location: 76845 - 79361" locus_tag="SPW_2500" id="clusterblast-1_h24_9_41" points="640,85 645,80 660,80 660,90 645,90 640,85 " class="clusterblast-orf"  />
<polygon style="stroke:black; stroke-width:1; fill:#FFFFFF; " description="putative_ABC_transporter_ATP-binding_protein[br]Location: 79385 - 80158" locus_tag="SPW_2501" id="clusterblast-1_h24_9_42" points="660,85 665,80 666,80 666,90 665,90 660,85 " class="clusterblast-orf"  />
<polygon style="stroke:black; stroke-width:1; fill:#FFFFFF; " description="putative_cytochrome_P450[br]Location: 80439 - 81626" locus_tag="SPW_2502" id="clusterblast-1_h24_9_43" points="668,90 673,90 678,85 673,80 668,80 668,90 " class="clusterblast-orf"  />
<polygon style="stroke:black; stroke-width:1; fill:#FFFFFF; " description="putative_ABC1_family_protein[br]Location: 81653 - 83731" locus_tag="SPW_2503" id="clusterblast-1_h24_9_44" points="678,85 683,80 695,80 695,90 683,90 678,85 " class="clusterblast-orf"  />
<polygon style="stroke:black; stroke-width:1; fill:#FFFFFF; " description="putative_polyprenyl_diphosphate_synthase[br]Location: 83831 - 84859" locus_tag="SPW_2504" id="clusterblast-1_h24_9_45" points="695,85 700,80 704,80 704,90 700,90 695,85 " class="clusterblast-orf"  />
<polygon style="stroke:black; stroke-width:1; fill:#FFFFFF; " description="hypothetical_protein[br]Location: 85247 - 90892" locus_tag="SPW_2505" id="clusterblast-1_h24_9_46" points="707,85 712,80 751,80 751,90 712,90 707,85 " class="clusterblast-orf"  />
</g>
</svg>
