<svg xmlns="http://www.w3.org/2000/svg" height="230" width="800" version="1.1" y="0" x="0" preserveAspectRatio="none" xmlns:xlink="http://www.w3.org/1999/xlink" viewBox="0 0 800 230"  >
<g class="clusterblast-cluster" label="Query sequence"  >
<text class="clusterblast-acc" y="10" x="5"  >
Query sequence</text>
<line y1="35" x2="778.0" style="stroke:grey; stroke-width:1; " x1="10" y2="35"  />
<polygon style="stroke:black; stroke-width:1; fill:#FFFFFF; " description="unannotated orf[br]Location: 1013 - 2670" locus_tag="CHAFR746836_0031900.1" class="clusterblast-orf" points="10,35 15,30 19,30 19,40 15,40 10,35 " id="clusterblast-1_q44_2_0"  />
<polygon style="stroke:black; stroke-width:1; fill:#FFFFFF; " description="unannotated orf[br]Location: 5806 - 8080" locus_tag="CHAFR746836_0031910.1" class="clusterblast-orf" points="38,40 47,40 52,35 47,30 38,30 38,40 " id="clusterblast-1_q44_2_1"  />
<polygon style="stroke:black; stroke-width:1; fill:rgb(190,63,63); " description="unannotated orf[br]Location: 14959 - 16522" locus_tag="CHAFR746836_0031920.1" class="clusterblast-orf" points="93,35 98,30 102,30 102,40 98,40 93,35 " id="clusterblast-1_q44_2_2"  />
<polygon style="stroke:black; stroke-width:1; fill:rgb(63,63,190); " description="unannotated orf[br]Location: 18634 - 27051" locus_tag="CHAFR746836_0031930.1" class="clusterblast-orf" points="115,35 120,30 165,30 165,40 120,40 115,35 " id="clusterblast-1_q44_2_3"  />
<polygon style="stroke:black; stroke-width:1; fill:rgb(63,190,63); " description="unannotated orf[br]Location: 28690 - 31017" locus_tag="CHAFR746836_0031940.1" class="clusterblast-orf" points="174,35 179,30 188,30 188,40 179,40 174,35 " id="clusterblast-1_q44_2_4"  />
<polygon style="stroke:black; stroke-width:1; fill:rgb(190,63,190); " description="unannotated orf[br]Location: 31821 - 32686" locus_tag="CHAFR746836_0031950.1" class="clusterblast-orf" points="193,40 193,40 198,35 193,30 193,30 193,40 " id="clusterblast-1_q44_2_5"  />
<polygon style="stroke:black; stroke-width:1; fill:#FFFFFF; " description="unannotated orf[br]Location: 33127 - 34136" locus_tag="CHAFR746836_0031960.1" class="clusterblast-orf" points="201,35 206,30 207,30 207,40 206,40 201,35 " id="clusterblast-1_q44_2_6"  />
<polygon style="stroke:black; stroke-width:1; fill:#FFFFFF; " description="unannotated orf[br]Location: 34492 - 36671" locus_tag="CHAFR746836_0031970.1" class="clusterblast-orf" points="209,40 217,40 222,35 217,30 209,30 209,40 " id="clusterblast-1_q44_2_7"  />
<polygon style="stroke:black; stroke-width:1; fill:#FFFFFF; " description="unannotated orf[br]Location: 90516 - 91329" locus_tag="CHAFR746836_0031980.1" class="clusterblast-orf" points="543,40 543,40 548,35 543,30 543,30 543,40 " id="clusterblast-1_q44_2_8"  />
<polygon style="stroke:black; stroke-width:1; fill:#FFFFFF; " description="unannotated orf[br]Location: 95107 - 95607" locus_tag="CHAFR746836_0031990.1" class="clusterblast-orf" points="570,35 573,30 573,40 570,35 " id="clusterblast-1_q44_2_9"  />
<polygon style="stroke:black; stroke-width:1; fill:#FFFFFF; " description="unannotated orf[br]Location: 98154 - 98987" locus_tag="CHAFR746836_0032000.1" class="clusterblast-orf" points="589,40 593,35 589,30 589,40 " id="clusterblast-1_q44_2_10"  />
<polygon style="stroke:black; stroke-width:1; fill:#FFFFFF; " description="unannotated orf[br]Location: 110556 - 112350" locus_tag="CHAFR746836_0032010.1" class="clusterblast-orf" points="662,35 667,30 673,30 673,40 667,40 662,35 " id="clusterblast-1_q44_2_11"  />
<polygon style="stroke:black; stroke-width:1; fill:rgb(190,190,63); " description="unannotated orf[br]Location: 112800 - 115534" locus_tag="CHAFR746836_0032020.1" class="clusterblast-orf" points="676,40 687,40 692,35 687,30 676,30 676,40 " id="clusterblast-1_q44_2_12"  />
<polygon style="stroke:black; stroke-width:1; fill:rgb(190,190,190); " description="unannotated orf[br]Location: 116249 - 122294" locus_tag="CHAFR746836_0032030.1" class="clusterblast-orf" points="696,40 727,40 732,35 727,30 696,30 696,40 " id="clusterblast-1_q44_2_13"  />
<polygon style="stroke:black; stroke-width:1; fill:rgb(63,190,190); " description="unannotated orf[br]Location: 126098 - 127042" locus_tag="CHAFR746836_0032040.1" class="clusterblast-orf" points="755,35 760,30 761,30 761,40 760,40 755,35 " id="clusterblast-1_q44_2_14"  />
<polygon style="stroke:black; stroke-width:1; fill:rgb(63,63,63); " description="unannotated orf[br]Location: 128617 - 129857" locus_tag="CHAFR746836_0032050.1" class="clusterblast-orf" points="770,40 773,40 778,35 773,30 770,30 770,40 " id="clusterblast-1_q44_2_15"  />
</g>
<g class="clusterblast-cluster" description="Metarhizium acridum CQMa 102 unplaced genomic scaffold Scf 0..." label="GL698474.1_c1"  >
<text class="clusterblast-acc" y="60" x="5"  >
GL698474.1_c1</text>
<text class="clusterblast-desc" y="60" x="460.8"  >
Metarhizium acridum CQMa 102 unplaced genomic scaffold Scf 0...</text>
<line y1="85" x2="778.0" style="stroke:grey; stroke-width:1; " x1="10" y2="85"  />
<polygon style="stroke:black; stroke-width:1; fill:rgb(190,190,63); " description="DNA_replication_licensing_factor_mcm2[br]Location: 30402 - 33122&lt;br&gt;&lt;br&gt;&lt;b&gt;BlastP hit with CHAFR746836_0032020.1&lt;/b&gt;&lt;br&gt;Percentage identity: 77%&lt;br&gt;Percentage coverage: 99%&lt;br&gt;BLAST bit score: 1347&lt;br&gt;E-value: 0.0" locus_tag="MAC_01210" id="clusterblast-1_h44_2_0" points="254,90 265,90 270,85 265,80 254,80 254,90 " class="clusterblast-orf"  />
<polygon style="stroke:black; stroke-width:1; fill:#FFFFFF; " description="aquaglyceroporin[br]Location: 42427 - 43460" locus_tag="MAC_01211" id="clusterblast-1_h44_2_1" points="325,85 330,80 331,80 331,90 330,90 325,85 " class="clusterblast-orf"  />
<polygon style="stroke:black; stroke-width:1; fill:#FFFFFF; " description="cytochrome_P450,_putative[br]Location: 45926 - 47257" locus_tag="MAC_01212" id="clusterblast-1_h44_2_2" points="346,85 351,80 354,80 354,90 351,90 346,85 " class="clusterblast-orf"  />
<polygon style="stroke:black; stroke-width:1; fill:#FFFFFF; " description="oxidoreductase,_2OG-Fe(II)_oxygenase_family,[br]Location: 49252 - 50369" locus_tag="MAC_01213" id="clusterblast-1_h44_2_3" points="366,90 368,90 373,85 368,80 366,80 366,90 " class="clusterblast-orf"  />
<polygon style="stroke:black; stroke-width:1; fill:#FFFFFF; " description="PKS-like_enzyme,_putative[br]Location: 50926 - 51894" locus_tag="MAC_01214" id="clusterblast-1_h44_2_4" points="376,90 377,90 382,85 377,80 376,80 376,90 " class="clusterblast-orf"  />
<polygon style="stroke:black; stroke-width:1; fill:rgb(63,63,190); " description="polyketide_synthase,_putative[br]Location: 52073 - 58951&lt;br&gt;&lt;br&gt;&lt;b&gt;BlastP hit with CHAFR746836_0031930.1&lt;/b&gt;&lt;br&gt;Percentage identity: 38%&lt;br&gt;Percentage coverage: 44%&lt;br&gt;BLAST bit score: 707&lt;br&gt;E-value: 0.0" locus_tag="MAC_01215" id="clusterblast-1_h44_2_5" points="383,85 388,80 424,80 424,90 388,90 383,85 " class="clusterblast-orf"  />
<polygon style="stroke:black; stroke-width:1; fill:rgb(63,190,63); " description="DUF341_domain_protein[br]Location: 62062 - 62869&lt;br&gt;&lt;br&gt;&lt;b&gt;BlastP hit with CHAFR746836_0031940.1&lt;/b&gt;&lt;br&gt;Percentage identity: 31%&lt;br&gt;Percentage coverage: 33%&lt;br&gt;BLAST bit score: 84&lt;br&gt;E-value: 4e-17" locus_tag="MAC_01216" id="clusterblast-1_h44_2_6" points="442,90 442,90 447,85 442,80 442,80 442,90 " class="clusterblast-orf"  />
<polygon style="stroke:black; stroke-width:1; fill:#FFFFFF; " description="integral_membrane_protein[br]Location: 63797 - 64971" locus_tag="MAC_01217" id="clusterblast-1_h44_2_7" points="453,90 455,90 460,85 455,80 453,80 453,90 " class="clusterblast-orf"  />
<polygon style="stroke:black; stroke-width:1; fill:#FFFFFF; " description="hypothetical_protein[br]Location: 66240 - 68881" locus_tag="MAC_01218" id="clusterblast-1_h44_2_8" points="467,85 472,80 483,80 483,90 472,90 467,85 " class="clusterblast-orf"  />
<polygon style="stroke:black; stroke-width:1; fill:#FFFFFF; " description="glycoside_hydrolase_family_24_protein[br]Location: 72002 - 73595" locus_tag="MAC_01219" id="clusterblast-1_h44_2_9" points="501,85 506,80 511,80 511,90 506,90 501,85 " class="clusterblast-orf"  />
<polygon style="stroke:black; stroke-width:1; fill:#FFFFFF; " description="alcohol_dehydrogenase[br]Location: 75427 - 77373" locus_tag="MAC_01220" id="clusterblast-1_h44_2_10" points="522,85 527,80 533,80 533,90 527,90 522,85 " class="clusterblast-orf"  />
</g>
</svg>
