<svg xmlns="http://www.w3.org/2000/svg" height="230" width="800" version="1.1" y="0" x="0" preserveAspectRatio="none" xmlns:xlink="http://www.w3.org/1999/xlink" viewBox="0 0 800 230"  >
<g class="clusterblast-cluster" label="Query sequence"  >
<text class="clusterblast-acc" y="10" x="5"  >
Query sequence</text>
<line y1="35" x2="778.0" style="stroke:grey; stroke-width:1; " x1="10" y2="35"  />
<polygon style="stroke:black; stroke-width:1; fill:red; " description="unannotated orf[br]Location: 68134 - 70502" locus_tag="CHAFR746836_0071420.1" class="clusterblast-orf" points="10,35 15,30 20,30 20,40 15,40 10,35 " id="clusterblast-1_q9_6_0"  />
<polygon style="stroke:black; stroke-width:1; fill:#FFFFFF; " description="unannotated orf[br]Location: 72327 - 73788" locus_tag="CHAFR746836_0071430.1" class="clusterblast-orf" points="28,35 33,30 35,30 35,40 33,40 28,35 " id="clusterblast-1_q9_6_1"  />
<polygon style="stroke:black; stroke-width:1; fill:#FFFFFF; " description="unannotated orf[br]Location: 76531 - 77863" locus_tag="CHAFR746836_0071440.1" class="clusterblast-orf" points="47,35 52,30 53,30 53,40 52,40 47,35 " id="clusterblast-1_q9_6_2"  />
<polygon style="stroke:black; stroke-width:1; fill:#FFFFFF; " description="unannotated orf[br]Location: 80274 - 82068" locus_tag="CHAFR746836_0071450.1" class="clusterblast-orf" points="64,40 67,40 72,35 67,30 64,30 64,40 " id="clusterblast-1_q9_6_3"  />
<polygon style="stroke:black; stroke-width:1; fill:green; " description="unannotated orf[br]Location: 84469 - 85881" locus_tag="CHAFR746836_0071460.1" class="clusterblast-orf" points="83,35 88,30 89,30 89,40 88,40 83,35 " id="clusterblast-1_q9_6_4"  />
<polygon style="stroke:black; stroke-width:1; fill:blue; " description="unannotated orf[br]Location: 86196 - 88112" locus_tag="CHAFR746836_0071470.1" class="clusterblast-orf" points="91,40 94,40 99,35 94,30 91,30 91,40 " id="clusterblast-1_q9_6_5"  />
<polygon style="stroke:black; stroke-width:1; fill:#FFFFFF; " description="unannotated orf[br]Location: 90971 - 93131" locus_tag="CHAFR746836_0071480.1" class="clusterblast-orf" points="112,35 117,30 122,30 122,40 117,40 112,35 " id="clusterblast-1_q9_6_6"  />
<polygon style="stroke:black; stroke-width:1; fill:#FFFFFF; " description="unannotated orf[br]Location: 94508 - 96197" locus_tag="CHAFR746836_0071490.1" class="clusterblast-orf" points="128,40 130,40 135,35 130,30 128,30 128,40 " id="clusterblast-1_q9_6_7"  />
<polygon style="stroke:black; stroke-width:1; fill:#FFFFFF; " description="unannotated orf[br]Location: 97454 - 99476" locus_tag="CHAFR746836_0071500.1" class="clusterblast-orf" points="141,40 145,40 150,35 145,30 141,30 141,40 " id="clusterblast-1_q9_6_8"  />
<polygon style="stroke:black; stroke-width:1; fill:#FFFFFF; " description="unannotated orf[br]Location: 100761 - 101297" locus_tag="CHAFR746836_0071510.1" class="clusterblast-orf" points="156,40 158,35 156,30 156,40 " id="clusterblast-1_q9_6_9"  />
<polygon style="stroke:black; stroke-width:1; fill:#FFFFFF; " description="unannotated orf[br]Location: 104385 - 104721" locus_tag="CHAFR746836_0071520.1" class="clusterblast-orf" points="172,40 174,35 172,30 172,40 " id="clusterblast-1_q9_6_10"  />
<polygon style="stroke:black; stroke-width:1; fill:#FFFFFF; " description="unannotated orf[br]Location: 107563 - 110227" locus_tag="CHAFR746836_0071530.1" class="clusterblast-orf" points="186,35 191,30 198,30 198,40 191,40 186,35 " id="clusterblast-1_q9_6_11"  />
<polygon style="stroke:black; stroke-width:1; fill:#FFFFFF; " description="unannotated orf[br]Location: 114742 - 115039" locus_tag="CHAFR746836_0071540.1" class="clusterblast-orf" points="219,40 220,35 219,30 219,40 " id="clusterblast-1_q9_6_12"  />
<polygon style="stroke:black; stroke-width:1; fill:#FFFFFF; " description="unannotated orf[br]Location: 123259 - 127108" locus_tag="CHAFR746836_0071550.1" class="clusterblast-orf" points="257,35 262,30 274,30 274,40 262,40 257,35 " id="clusterblast-1_q9_6_13"  />
<polygon style="stroke:black; stroke-width:1; fill:#FFFFFF; " description="unannotated orf[br]Location: 144812 - 146250" locus_tag="CHAFR746836_0071560.1" class="clusterblast-orf" points="354,35 359,30 360,30 360,40 359,40 354,35 " id="clusterblast-1_q9_6_14"  />
<polygon style="stroke:black; stroke-width:1; fill:#FFFFFF; " description="unannotated orf[br]Location: 152743 - 154459" locus_tag="CHAFR746836_0071570.1" class="clusterblast-orf" points="389,35 394,30 397,30 397,40 394,40 389,35 " id="clusterblast-1_q9_6_15"  />
<polygon style="stroke:black; stroke-width:1; fill:#FFFFFF; " description="unannotated orf[br]Location: 156531 - 157389" locus_tag="CHAFR746836_0071580.1" class="clusterblast-orf" points="406,35 410,30 410,40 406,35 " id="clusterblast-1_q9_6_16"  />
<polygon style="stroke:black; stroke-width:1; fill:#FFFFFF; " description="unannotated orf[br]Location: 164785 - 166669" locus_tag="CHAFR746836_0071590.1" class="clusterblast-orf" points="443,40 447,40 452,35 447,30 443,30 443,40 " id="clusterblast-1_q9_6_17"  />
<polygon style="stroke:black; stroke-width:1; fill:#FFFFFF; " description="unannotated orf[br]Location: 201968 - 203433" locus_tag="CHAFR746836_0071600.1" class="clusterblast-orf" points="610,40 612,40 617,35 612,30 610,30 610,40 " id="clusterblast-1_q9_6_18"  />
<polygon style="stroke:black; stroke-width:1; fill:#FFFFFF; " description="unannotated orf[br]Location: 204836 - 205972" locus_tag="CHAFR746836_0071610.1" class="clusterblast-orf" points="623,40 623,40 628,35 623,30 623,30 623,40 " id="clusterblast-1_q9_6_19"  />
<polygon style="stroke:black; stroke-width:1; fill:#FFFFFF; " description="unannotated orf[br]Location: 207637 - 210779" locus_tag="CHAFR746836_0071620.1" class="clusterblast-orf" points="636,35 641,30 650,30 650,40 641,40 636,35 " id="clusterblast-1_q9_6_20"  />
<polygon style="stroke:black; stroke-width:1; fill:#FFFFFF; " description="unannotated orf[br]Location: 211916 - 213325" locus_tag="CHAFR746836_0071630.1" class="clusterblast-orf" points="655,35 660,30 661,30 661,40 660,40 655,35 " id="clusterblast-1_q9_6_21"  />
<polygon style="stroke:black; stroke-width:1; fill:yellow; " description="unannotated orf[br]Location: 215213 - 216863" locus_tag="CHAFR746836_0071640.1" class="clusterblast-orf" points="670,35 675,30 677,30 677,40 675,40 670,35 " id="clusterblast-1_q9_6_22"  />
<polygon style="stroke:black; stroke-width:1; fill:#FFFFFF; " description="unannotated orf[br]Location: 224691 - 226010" locus_tag="CHAFR746836_0071650.1" class="clusterblast-orf" points="712,40 713,40 718,35 713,30 712,30 712,40 " id="clusterblast-1_q9_6_23"  />
<polygon style="stroke:black; stroke-width:1; fill:#FFFFFF; " description="unannotated orf[br]Location: 230972 - 232109" locus_tag="CHAFR746836_0071660.1" class="clusterblast-orf" points="740,40 740,40 745,35 740,30 740,30 740,40 " id="clusterblast-1_q9_6_24"  />
<polygon style="stroke:black; stroke-width:1; fill:#FFFFFF; " description="unannotated orf[br]Location: 233318 - 234463" locus_tag="CHAFR746836_0071670.1" class="clusterblast-orf" points="751,35 756,30 756,30 756,40 756,40 751,35 " id="clusterblast-1_q9_6_25"  />
<polygon style="stroke:black; stroke-width:1; fill:#FFFFFF; " description="unannotated orf[br]Location: 234897 - 236194" locus_tag="CHAFR746836_0071680.1" class="clusterblast-orf" points="758,40 759,40 764,35 759,30 758,30 758,40 " id="clusterblast-1_q9_6_26"  />
<polygon style="stroke:black; stroke-width:1; fill:#FFFFFF; " description="unannotated orf[br]Location: 236494 - 237888" locus_tag="CHAFR746836_0071690.1" class="clusterblast-orf" points="765,35 770,30 771,30 771,40 770,40 765,35 " id="clusterblast-1_q9_6_27"  />
<polygon style="stroke:black; stroke-width:1; fill:#FFFFFF; " description="unannotated orf[br]Location: 238790 - 239245" locus_tag="CHAFR746836_0071700.1" class="clusterblast-orf" points="775,40 778,35 775,30 775,40 " id="clusterblast-1_q9_6_28"  />
</g>
<g class="clusterblast-cluster" description="Xanthomonas vesicatoria ATCC 35937 XANTHO5DRAF Contig..." label="NZ_AEQV01000013.1_c1"  >
<text class="clusterblast-acc" y="60" x="5"  >
NZ_AEQV01000013.1_c1</text>
<text class="clusterblast-desc" y="60" x="460.8"  >
Xanthomonas vesicatoria ATCC 35937 XANTHO5DRAF Contig...</text>
<line y1="85" x2="778.0" style="stroke:grey; stroke-width:1; " x1="10" y2="85"  />
<polygon style="stroke:black; stroke-width:1; fill:#FFFFFF; " description="peptidyl-dipeptidase_Dcp[br]Location: 8065 - 10230" locus_tag="XVE_0562" id="clusterblast-1_h9_6_0" points="298,90 302,90 307,85 302,80 298,80 298,90 " class="clusterblast-orf"  />
<polygon style="stroke:black; stroke-width:1; fill:#FFFFFF; " description="peptidyl-dipeptidase_Dcp[br]Location: 10463 - 12628" locus_tag="XVE_0563" id="clusterblast-1_h9_6_1" points="308,90 313,90 318,85 313,80 308,80 308,90 " class="clusterblast-orf"  />
<polygon style="stroke:black; stroke-width:1; fill:#FFFFFF; " description="Xanthomonas_outer_protein_N[br]Location: 12867 - 15161" locus_tag="XVE_0564" id="clusterblast-1_h9_6_2" points="319,85 324,80 329,80 329,90 324,90 319,85 " class="clusterblast-orf"  />
<polygon style="stroke:black; stroke-width:1; fill:#FFFFFF; " description="putative_Zn-dependent_hydrolase_of[br]Location: 15485 - 16567" locus_tag="XVE_0565" id="clusterblast-1_h9_6_3" points="331,85 336,80 336,80 336,90 336,90 331,85 " class="clusterblast-orf"  />
<polygon style="stroke:black; stroke-width:1; fill:#FFFFFF; " description="transcriptional_regulator,_TetR_family[br]Location: 16663 - 17295" locus_tag="XVE_0566" id="clusterblast-1_h9_6_4" points="336,90 339,85 336,80 336,90 " class="clusterblast-orf"  />
<polygon style="stroke:black; stroke-width:1; fill:#FFFFFF; " description="lactoylglutathione_lyase_family_protein[br]Location: 17597 - 17959" locus_tag="XVE_0567" id="clusterblast-1_h9_6_5" points="340,85 342,80 342,90 340,85 " class="clusterblast-orf"  />
<polygon style="stroke:black; stroke-width:1; fill:#FFFFFF; " description="transcriptional_regulator,_AraC_family[br]Location: 18030 - 18755" locus_tag="XVE_0568" id="clusterblast-1_h9_6_6" points="342,85 345,80 345,90 342,85 " class="clusterblast-orf"  />
<polygon style="stroke:black; stroke-width:1; fill:#FFFFFF; " description="Kef-type_K+_transport_system,_membrane[br]Location: 18981 - 20243" locus_tag="XVE_0569" id="clusterblast-1_h9_6_7" points="346,85 351,80 352,80 352,90 351,90 346,85 " class="clusterblast-orf"  />
<polygon style="stroke:black; stroke-width:1; fill:#FFFFFF; " description="transcriptional_regulator[br]Location: 20600 - 21430" locus_tag="XVE_0570" id="clusterblast-1_h9_6_8" points="354,85 357,80 357,90 354,85 " class="clusterblast-orf"  />
<polygon style="stroke:black; stroke-width:1; fill:#FFFFFF; " description="malate_synthase_A[br]Location: 21657 - 23291" locus_tag="XVE_0571" id="clusterblast-1_h9_6_9" points="359,90 361,90 366,85 361,80 359,80 359,90 " class="clusterblast-orf"  />
<polygon style="stroke:black; stroke-width:1; fill:#FFFFFF; " description="isocitrate_lyase[br]Location: 23460 - 24755" locus_tag="XVE_0572" id="clusterblast-1_h9_6_10" points="367,90 367,90 372,85 367,80 367,80 367,90 " class="clusterblast-orf"  />
<polygon style="stroke:black; stroke-width:1; fill:#FFFFFF; " description="diguanylate_cyclase_(GGDEF)_domain-containing[br]Location: 25030 - 26025" locus_tag="XVE_0573" id="clusterblast-1_h9_6_11" points="374,90 378,85 374,80 374,90 " class="clusterblast-orf"  />
<polygon style="stroke:black; stroke-width:1; fill:#FFFFFF; " description="family_3_adenylate_cyclase[br]Location: 26029 - 28689" locus_tag="XVE_0574" id="clusterblast-1_h9_6_12" points="378,90 385,90 390,85 385,80 378,80 378,90 " class="clusterblast-orf"  />
<polygon style="stroke:black; stroke-width:1; fill:#FFFFFF; " description="hypothetical_protein[br]Location: 29138 - 29401" locus_tag="XVE_0575" id="clusterblast-1_h9_6_13" points="392,85 393,80 393,90 392,85 " class="clusterblast-orf"  />
<polygon style="stroke:black; stroke-width:1; fill:#FFFFFF; " description="nitroreductase[br]Location: 29441 - 30250" locus_tag="XVE_0576" id="clusterblast-1_h9_6_14" points="393,90 397,85 393,80 393,90 " class="clusterblast-orf"  />
<polygon style="stroke:black; stroke-width:1; fill:#FFFFFF; " description="dipeptidyl_aminopeptidase/acylaminoacyl[br]Location: 30468 - 32561" locus_tag="XVE_0577" id="clusterblast-1_h9_6_15" points="398,85 403,80 407,80 407,90 403,90 398,85 " class="clusterblast-orf"  />
<polygon style="stroke:black; stroke-width:1; fill:red; " description="3-methylcrotonoyl-CoA_carboxylase,_alpha[br]Location: 32664 - 34691&lt;br&gt;&lt;br&gt;&lt;b&gt;BlastP hit with CHAFR746836_0071420.1&lt;/b&gt;&lt;br&gt;Percentage identity: 41%&lt;br&gt;Percentage coverage: 97%&lt;br&gt;BLAST bit score: 462&lt;br&gt;E-value: 3e-151" locus_tag="XVE_0578" id="clusterblast-1_h9_6_16" points="408,85 413,80 417,80 417,90 413,90 408,85 " class="clusterblast-orf"  />
<polygon style="stroke:black; stroke-width:1; fill:blue; " description="acetyl-CoA_carboxylase,_carboxyltransferase[br]Location: 34900 - 36510&lt;br&gt;&lt;br&gt;&lt;b&gt;BlastP hit with CHAFR746836_0071470.1&lt;/b&gt;&lt;br&gt;Percentage identity: 59%&lt;br&gt;Percentage coverage: 95%&lt;br&gt;BLAST bit score: 644&lt;br&gt;E-value: 0.0" locus_tag="XVE_0579" id="clusterblast-1_h9_6_17" points="418,85 423,80 425,80 425,90 423,90 418,85 " class="clusterblast-orf"  />
<polygon style="stroke:black; stroke-width:1; fill:green; " description="isovaleryl-CoA_dehydrogenase[br]Location: 36521 - 37684&lt;br&gt;&lt;br&gt;&lt;b&gt;BlastP hit with CHAFR746836_0071460.1&lt;/b&gt;&lt;br&gt;Percentage identity: 61%&lt;br&gt;Percentage coverage: 87%&lt;br&gt;BLAST bit score: 462&lt;br&gt;E-value: 2e-159" locus_tag="XVE_0580" id="clusterblast-1_h9_6_18" points="425,85 430,80 430,80 430,90 430,90 425,85 " class="clusterblast-orf"  />
<polygon style="stroke:black; stroke-width:1; fill:#FFFFFF; " description="transcriptional_regulator,_TetR_family[br]Location: 37838 - 38425" locus_tag="XVE_0581" id="clusterblast-1_h9_6_19" points="431,90 434,85 431,80 431,90 " class="clusterblast-orf"  />
<polygon style="stroke:black; stroke-width:1; fill:#FFFFFF; " description="hypothetical_protein[br]Location: 38597 - 38893" locus_tag="XVE_0582" id="clusterblast-1_h9_6_20" points="435,90 436,85 435,80 435,90 " class="clusterblast-orf"  />
<polygon style="stroke:black; stroke-width:1; fill:#FFFFFF; " description="hypothetical_protein[br]Location: 38890 - 39417" locus_tag="XVE_0583" id="clusterblast-1_h9_6_21" points="436,90 438,85 436,80 436,90 " class="clusterblast-orf"  />
<polygon style="stroke:black; stroke-width:1; fill:#FFFFFF; " description="hypothetical_protein[br]Location: 39615 - 39950" locus_tag="XVE_0584" id="clusterblast-1_h9_6_22" points="439,85 441,80 441,90 439,85 " class="clusterblast-orf"  />
<polygon style="stroke:black; stroke-width:1; fill:#FFFFFF; " description="uncharacterized_iron-regulated_membrane_protein[br]Location: 39947 - 41566" locus_tag="XVE_0585" id="clusterblast-1_h9_6_23" points="441,85 446,80 448,80 448,90 446,90 441,85 " class="clusterblast-orf"  />
<polygon style="stroke:black; stroke-width:1; fill:#FFFFFF; " description="hypothetical_protein[br]Location: 41563 - 41874" locus_tag="XVE_0586" id="clusterblast-1_h9_6_24" points="448,85 449,80 449,90 448,85 " class="clusterblast-orf"  />
<polygon style="stroke:black; stroke-width:1; fill:#FFFFFF; " description="nickel_uptake_transporter_family_protein[br]Location: 41912 - 42556" locus_tag="XVE_0587" id="clusterblast-1_h9_6_25" points="449,85 452,80 452,90 449,85 " class="clusterblast-orf"  />
<polygon style="stroke:black; stroke-width:1; fill:#FFFFFF; " description="cytochrome_c5[br]Location: 42844 - 43362" locus_tag="XVE_0588" id="clusterblast-1_h9_6_26" points="454,90 456,85 454,80 454,90 " class="clusterblast-orf"  />
<polygon style="stroke:black; stroke-width:1; fill:#FFFFFF; " description="putative_extracellular_nuclease[br]Location: 43644 - 45362" locus_tag="XVE_0589" id="clusterblast-1_h9_6_27" points="457,90 460,90 465,85 460,80 457,80 457,90 " class="clusterblast-orf"  />
<polygon style="stroke:black; stroke-width:1; fill:#FFFFFF; " description="hypothetical_protein[br]Location: 45461 - 45952" locus_tag="XVE_0590" id="clusterblast-1_h9_6_28" points="465,85 468,80 468,90 465,85 " class="clusterblast-orf"  />
<polygon style="stroke:black; stroke-width:1; fill:#FFFFFF; " description="hypothetical_protein[br]Location: 46637 - 47023" locus_tag="XVE_0591" id="clusterblast-1_h9_6_29" points="471,85 472,80 472,90 471,85 " class="clusterblast-orf"  />
<polygon style="stroke:black; stroke-width:1; fill:#FFFFFF; " description="putative_GTPase,_G3E_family[br]Location: 47087 - 48412" locus_tag="XVE_0592" id="clusterblast-1_h9_6_30" points="473,90 474,90 479,85 474,80 473,80 473,90 " class="clusterblast-orf"  />
<polygon style="stroke:black; stroke-width:1; fill:#FFFFFF; " description="Putative_Xanthomonas_outer_protein_R[br]Location: 48610 - 49728" locus_tag="XVE_0593" id="clusterblast-1_h9_6_31" points="479,85 484,80 484,80 484,90 484,90 479,85 " class="clusterblast-orf"  />
<polygon style="stroke:black; stroke-width:1; fill:#FFFFFF; " description="hypothetical_protein[br]Location: 49958 - 50404" locus_tag="XVE_0594" id="clusterblast-1_h9_6_32" points="486,85 488,80 488,90 486,85 " class="clusterblast-orf"  />
</g>
</svg>
