<svg xmlns="http://www.w3.org/2000/svg" height="230" width="800" version="1.1" y="0" x="0" preserveAspectRatio="none" xmlns:xlink="http://www.w3.org/1999/xlink" viewBox="0 0 800 230"  >
<g class="clusterblast-cluster" label="Query sequence"  >
<text class="clusterblast-acc" y="10" x="5"  >
Query sequence</text>
<line y1="35" x2="778.0" style="stroke:grey; stroke-width:1; " x1="10" y2="35"  />
<polygon style="stroke:black; stroke-width:1; fill:#FFFFFF; " description="unannotated orf[br]Location: 4785 - 7296" locus_tag="CHAFR746836_0016870.1" class="clusterblast-orf" points="10,35 15,30 62,30 62,40 15,40 10,35 " id="clusterblast-1_q37_3_0"  />
<polygon style="stroke:black; stroke-width:1; fill:rgb(190,63,63); " description="unannotated orf[br]Location: 11527 - 13401" locus_tag="CHAFR746836_0016880.1" class="clusterblast-orf" points="149,35 154,30 188,30 188,40 154,40 149,35 " id="clusterblast-1_q37_3_1"  />
<polygon style="stroke:black; stroke-width:1; fill:rgb(63,63,190); " description="unannotated orf[br]Location: 16270 - 24285" locus_tag="CHAFR746836_0016890.1" class="clusterblast-orf" points="248,40 409,40 414,35 409,30 248,30 248,40 " id="clusterblast-1_q37_3_2"  />
<polygon style="stroke:black; stroke-width:1; fill:#FFFFFF; " description="unannotated orf[br]Location: 25847 - 26609" locus_tag="CHAFR746836_0016900.1" class="clusterblast-orf" points="447,35 452,30 462,30 462,40 452,40 447,35 " id="clusterblast-1_q37_3_3"  />
<polygon style="stroke:black; stroke-width:1; fill:rgb(63,190,63); " description="unannotated orf[br]Location: 27271 - 28737" locus_tag="CHAFR746836_0016910.1" class="clusterblast-orf" points="476,40 502,40 507,35 502,30 476,30 476,40 " id="clusterblast-1_q37_3_4"  />
<polygon style="stroke:black; stroke-width:1; fill:#FFFFFF; " description="unannotated orf[br]Location: 31240 - 32999" locus_tag="CHAFR746836_0016920.1" class="clusterblast-orf" points="559,40 590,40 595,35 590,30 559,30 559,40 " id="clusterblast-1_q37_3_5"  />
<polygon style="stroke:black; stroke-width:1; fill:#FFFFFF; " description="unannotated orf[br]Location: 33897 - 34787" locus_tag="CHAFR746836_0016930.1" class="clusterblast-orf" points="614,35 619,30 632,30 632,40 619,40 614,35 " id="clusterblast-1_q37_3_6"  />
<polygon style="stroke:black; stroke-width:1; fill:rgb(190,63,190); " description="unannotated orf[br]Location: 37376 - 38107" locus_tag="CHAFR746836_0016940.1" class="clusterblast-orf" points="686,35 691,30 701,30 701,40 691,40 686,35 " id="clusterblast-1_q37_3_7"  />
<polygon style="stroke:black; stroke-width:1; fill:rgb(190,190,63); " description="unannotated orf[br]Location: 39886 - 41791" locus_tag="CHAFR746836_0016950.1" class="clusterblast-orf" points="738,35 743,30 778,30 778,40 743,40 738,35 " id="clusterblast-1_q37_3_8"  />
</g>
<g class="clusterblast-cluster" description="Glomerella graminicola M1.001 genomic scaffold supercont1.74..." label="GG697404.1_c1"  >
<text class="clusterblast-acc" y="60" x="5"  >
GG697404.1_c1</text>
<text class="clusterblast-desc" y="60" x="460.8"  >
Glomerella graminicola M1.001 genomic scaffold supercont1.74...</text>
<line y1="85" x2="778.0" style="stroke:grey; stroke-width:1; " x1="10" y2="85"  />
<polygon style="stroke:black; stroke-width:1; fill:#FFFFFF; " description="fungal_specific_transcription_factor[br]Location: 45508 - 47925" locus_tag="GLRG_10819" id="clusterblast-1_h37_3_0" points="119,85 124,80 169,80 169,90 124,90 119,85 " class="clusterblast-orf"  />
<polygon style="stroke:black; stroke-width:1; fill:#FFFFFF; " description="GMC_oxidoreductase[br]Location: 48728 - 50633" locus_tag="GLRG_10820" id="clusterblast-1_h37_3_1" points="185,85 190,80 225,80 225,90 190,90 185,85 " class="clusterblast-orf"  />
<polygon style="stroke:black; stroke-width:1; fill:#FFFFFF; " description="alcohol_dehydrogenase_GroES-like[br]Location: 51968 - 53156" locus_tag="GLRG_10821" id="clusterblast-1_h37_3_2" points="253,85 258,80 277,80 277,90 258,90 253,85 " class="clusterblast-orf"  />
<polygon style="stroke:black; stroke-width:1; fill:rgb(190,190,63); " description="major_facilitator_superfamily_transporter[br]Location: 54313 - 56172&lt;br&gt;&lt;br&gt;&lt;b&gt;BlastP hit with CHAFR746836_0016950.1&lt;/b&gt;&lt;br&gt;Percentage identity: 38%&lt;br&gt;Percentage coverage: 97%&lt;br&gt;BLAST bit score: 375&lt;br&gt;E-value: 1e-121" locus_tag="GLRG_10822" id="clusterblast-1_h37_3_3" points="301,85 306,80 340,80 340,90 306,90 301,85 " class="clusterblast-orf"  />
<polygon style="stroke:black; stroke-width:1; fill:rgb(190,63,190); " description="hypothetical_protein[br]Location: 56820 - 57474&lt;br&gt;&lt;br&gt;&lt;b&gt;BlastP hit with CHAFR746836_0016940.1&lt;/b&gt;&lt;br&gt;Percentage identity: 43%&lt;br&gt;Percentage coverage: 90%&lt;br&gt;BLAST bit score: 142&lt;br&gt;E-value: 5e-41" locus_tag="GLRG_10823" id="clusterblast-1_h37_3_4" points="353,90 362,90 367,85 362,80 353,80 353,90 " class="clusterblast-orf"  />
<polygon style="stroke:black; stroke-width:1; fill:#FFFFFF; " description="hypothetical_protein[br]Location: 58056 - 58985" locus_tag="GLRG_10824" id="clusterblast-1_h37_3_5" points="379,85 384,80 398,80 398,90 384,90 379,85 " class="clusterblast-orf"  />
<polygon style="stroke:black; stroke-width:1; fill:rgb(190,63,63); " description="cofactor_FMO1_FAD_enzyme[br]Location: 59882 - 61711&lt;br&gt;&lt;br&gt;&lt;b&gt;BlastP hit with CHAFR746836_0016880.1&lt;/b&gt;&lt;br&gt;Percentage identity: 53%&lt;br&gt;Percentage coverage: 100%&lt;br&gt;BLAST bit score: 582&lt;br&gt;E-value: 0.0" locus_tag="GLRG_10825" id="clusterblast-1_h37_3_6" points="417,85 422,80 455,80 455,90 422,90 417,85 " class="clusterblast-orf"  />
<polygon style="stroke:black; stroke-width:1; fill:#FFFFFF; " description="hypothetical_protein[br]Location: 62414 - 63481" locus_tag="GLRG_10826" id="clusterblast-1_h37_3_7" points="469,90 487,90 492,85 487,80 469,80 469,90 " class="clusterblast-orf"  />
<polygon style="stroke:black; stroke-width:1; fill:rgb(63,63,190); " description="KR_domain-containing_protein[br]Location: 64697 - 71917&lt;br&gt;&lt;br&gt;&lt;b&gt;BlastP hit with CHAFR746836_0016890.1&lt;/b&gt;&lt;br&gt;Percentage identity: 53%&lt;br&gt;Percentage coverage: 99%&lt;br&gt;BLAST bit score: 2490&lt;br&gt;E-value: 0.0" locus_tag="GLRG_10827" id="clusterblast-1_h37_3_8" points="517,90 662,90 667,85 662,80 517,80 517,90 " class="clusterblast-orf"  />
</g>
</svg>
