<svg xmlns="http://www.w3.org/2000/svg" height="230" width="800" version="1.1" y="0" x="0" preserveAspectRatio="none" xmlns:xlink="http://www.w3.org/1999/xlink" viewBox="0 0 800 230"  >
<g class="clusterblast-cluster" label="Query sequence"  >
<text class="clusterblast-acc" y="10" x="5"  >
Query sequence</text>
<line y1="35" x2="778.0" style="stroke:grey; stroke-width:1; " x1="10" y2="35"  />
<polygon style="stroke:black; stroke-width:1; fill:#FFFFFF; " description="unannotated orf[br]Location: 690 - 1709" locus_tag="CHAFR746836_0063040.1" class="clusterblast-orf" points="235,35 240,30 243,30 243,40 240,40 235,35 " id="clusterblast-1_q6_6_0"  />
<polygon style="stroke:black; stroke-width:1; fill:red; " description="unannotated orf[br]Location: 3270 - 4522" locus_tag="CHAFR746836_0063050.1" class="clusterblast-orf" points="255,35 260,30 265,30 265,40 260,40 255,35 " id="clusterblast-1_q6_6_1"  />
<polygon style="stroke:black; stroke-width:1; fill:green; " description="unannotated orf[br]Location: 3270 - 4522" locus_tag="CHAFR746836_0063050.2" class="clusterblast-orf" points="255,35 260,30 265,30 265,40 260,40 255,35 " id="clusterblast-1_q6_6_2"  />
<polygon style="stroke:black; stroke-width:1; fill:#FFFFFF; " description="unannotated orf[br]Location: 14176 - 16017" locus_tag="CHAFR746836_0063060.1" class="clusterblast-orf" points="343,40 353,40 358,35 353,30 343,30 343,40 " id="clusterblast-1_q6_6_3"  />
<polygon style="stroke:black; stroke-width:1; fill:#FFFFFF; " description="unannotated orf[br]Location: 20821 - 21679" locus_tag="CHAFR746836_0063070.1" class="clusterblast-orf" points="396,35 401,30 403,30 403,40 401,40 396,35 " id="clusterblast-1_q6_6_4"  />
<polygon style="stroke:black; stroke-width:1; fill:blue; " description="unannotated orf[br]Location: 23739 - 34194" locus_tag="CHAFR746836_0063080.1" class="clusterblast-orf" points="420,35 425,30 503,30 503,40 425,40 420,35 " id="clusterblast-1_q6_6_5"  />
<polygon style="stroke:black; stroke-width:1; fill:yellow; " description="unannotated orf[br]Location: 38501 - 40231" locus_tag="CHAFR746836_0063090.1" class="clusterblast-orf" points="538,40 547,40 552,35 547,30 538,30 538,40 " id="clusterblast-1_q6_6_6"  />
</g>
<g class="clusterblast-cluster" description="Streptomyces cf. griseus XylebKG-1 genomic scaffold scaff..." label="NZ_GL877172.1_c4"  >
<text class="clusterblast-acc" y="60" x="5"  >
NZ_GL877172.1_c4</text>
<text class="clusterblast-desc" y="60" x="460.8"  >
Streptomyces cf. griseus XylebKG-1 genomic scaffold scaff...</text>
<line y1="85" x2="778.0" style="stroke:grey; stroke-width:1; " x1="10" y2="85"  />
<polygon style="stroke:black; stroke-width:1; fill:#FFFFFF; " description="major_facilitator_superfamily_MFS_1[br]Location: 765370 - 766578" locus_tag="SACT1_0651" id="clusterblast-1_h6_6_0" points="10,85 15,80 19,80 19,90 15,90 10,85 " class="clusterblast-orf"  />
<polygon style="stroke:black; stroke-width:1; fill:#FFFFFF; " description="hypothetical_protein[br]Location: 766575 - 767024" locus_tag="SACT1_0652" id="clusterblast-1_h6_6_1" points="19,85 23,80 23,90 19,85 " class="clusterblast-orf"  />
<polygon style="stroke:black; stroke-width:1; fill:#FFFFFF; " description="MaoC_domain_protein_dehydratase[br]Location: 767137 - 767691" locus_tag="SACT1_0653" id="clusterblast-1_h6_6_2" points="24,85 28,80 28,90 24,85 " class="clusterblast-orf"  />
<polygon style="stroke:black; stroke-width:1; fill:#FFFFFF; " description="protein_of_unknown_function_DUF407[br]Location: 767779 - 769137" locus_tag="SACT1_0654" id="clusterblast-1_h6_6_3" points="29,85 34,80 40,80 40,90 34,90 29,85 " class="clusterblast-orf"  />
<polygon style="stroke:black; stroke-width:1; fill:#FFFFFF; " description="Ornithine_cyclodeaminase[br]Location: 769124 - 770149" locus_tag="SACT1_0655" id="clusterblast-1_h6_6_4" points="40,85 45,80 48,80 48,90 45,90 40,85 " class="clusterblast-orf"  />
<polygon style="stroke:black; stroke-width:1; fill:#FFFFFF; " description="HpcH/HpaI_aldolase[br]Location: 770146 - 771015" locus_tag="SACT1_0656" id="clusterblast-1_h6_6_5" points="48,85 53,80 55,80 55,90 53,90 48,85 " class="clusterblast-orf"  />
<polygon style="stroke:black; stroke-width:1; fill:#FFFFFF; " description="aminotransferase_class_I_and_II[br]Location: 771012 - 772265" locus_tag="SACT1_0657" id="clusterblast-1_h6_6_6" points="55,85 60,80 65,80 65,90 60,90 55,85 " class="clusterblast-orf"  />
<polygon style="stroke:black; stroke-width:1; fill:#FFFFFF; " description="Cupin,_JmjC-type[br]Location: 772262 - 773131" locus_tag="SACT1_0658" id="clusterblast-1_h6_6_7" points="65,85 70,80 72,80 72,90 70,90 65,85 " class="clusterblast-orf"  />
<polygon style="stroke:black; stroke-width:1; fill:#FFFFFF; " description="4-hydroxy-2-oxovalerate_aldolase[br]Location: 773161 - 774183" locus_tag="SACT1_0659" id="clusterblast-1_h6_6_8" points="72,85 77,80 80,80 80,90 77,90 72,85 " class="clusterblast-orf"  />
<polygon style="stroke:black; stroke-width:1; fill:#FFFFFF; " description="acetaldehyde_dehydrogenase_(acetylating)[br]Location: 774180 - 775106" locus_tag="SACT1_0660" id="clusterblast-1_h6_6_9" points="80,85 85,80 88,80 88,90 85,90 80,85 " class="clusterblast-orf"  />
<polygon style="stroke:black; stroke-width:1; fill:#FFFFFF; " description="major_facilitator_superfamily_MFS_1[br]Location: 775900 - 777165" locus_tag="SACT1_0661" id="clusterblast-1_h6_6_10" points="94,90 99,90 104,85 99,80 94,80 94,90 " class="clusterblast-orf"  />
<polygon style="stroke:black; stroke-width:1; fill:#FFFFFF; " description="hypothetical_protein[br]Location: 777306 - 778697" locus_tag="SACT1_0662" id="clusterblast-1_h6_6_11" points="105,90 111,90 116,85 111,80 105,80 105,90 " class="clusterblast-orf"  />
<polygon style="stroke:black; stroke-width:1; fill:#FFFFFF; " description="hypothetical_protein[br]Location: 778881 - 779045" locus_tag="SACT1_0663" id="clusterblast-1_h6_6_12" points="118,85 119,80 119,90 118,85 " class="clusterblast-orf"  />
<polygon style="stroke:black; stroke-width:1; fill:#FFFFFF; " description="regulatory_protein_TetR[br]Location: 779111 - 779791" locus_tag="SACT1_0664" id="clusterblast-1_h6_6_13" points="120,90 120,90 125,85 120,80 120,80 120,90 " class="clusterblast-orf"  />
<polygon style="stroke:black; stroke-width:1; fill:#FFFFFF; " description="methyltransferase_FkbM_family[br]Location: 779846 - 780676" locus_tag="SACT1_0665" id="clusterblast-1_h6_6_14" points="126,85 131,80 132,80 132,90 131,90 126,85 " class="clusterblast-orf"  />
<polygon style="stroke:black; stroke-width:1; fill:#FFFFFF; " description="Radical_SAM_domain_protein[br]Location: 780673 - 782541" locus_tag="SACT1_0666" id="clusterblast-1_h6_6_15" points="132,85 137,80 147,80 147,90 137,90 132,85 " class="clusterblast-orf"  />
<polygon style="stroke:black; stroke-width:1; fill:#FFFFFF; " description="hypothetical_protein[br]Location: 782538 - 783353" locus_tag="SACT1_0667" id="clusterblast-1_h6_6_16" points="147,85 152,80 154,80 154,90 152,90 147,85 " class="clusterblast-orf"  />
<polygon style="stroke:black; stroke-width:1; fill:#FFFFFF; " description="Radical_SAM_domain_protein[br]Location: 783561 - 785009" locus_tag="SACT1_0668" id="clusterblast-1_h6_6_17" points="156,85 161,80 167,80 167,90 161,90 156,85 " class="clusterblast-orf"  />
<polygon style="stroke:black; stroke-width:1; fill:#FFFFFF; " description="major_facilitator_superfamily_MFS_1[br]Location: 785214 - 786503" locus_tag="SACT1_0669" id="clusterblast-1_h6_6_18" points="169,90 174,90 179,85 174,80 169,80 169,90 " class="clusterblast-orf"  />
<polygon style="stroke:black; stroke-width:1; fill:#FFFFFF; " description="amino_acid_adenylation_domain_protein[br]Location: 786500 - 789811" locus_tag="SACT1_0670" id="clusterblast-1_h6_6_19" points="179,90 201,90 206,85 201,80 179,80 179,90 " class="clusterblast-orf"  />
<polygon style="stroke:black; stroke-width:1; fill:#FFFFFF; " description="MbtH_domain_protein[br]Location: 789808 - 790032" locus_tag="SACT1_0671" id="clusterblast-1_h6_6_20" points="206,90 207,85 206,80 206,90 " class="clusterblast-orf"  />
<polygon style="stroke:black; stroke-width:1; fill:#FFFFFF; " description="hypothetical_protein[br]Location: 790029 - 790274" locus_tag="SACT1_0672" id="clusterblast-1_h6_6_21" points="207,90 209,85 207,80 207,90 " class="clusterblast-orf"  />
<polygon style="stroke:black; stroke-width:1; fill:#FFFFFF; " description="Taurine_catabolism_dioxygenase_TauD/TfdA[br]Location: 790280 - 791215" locus_tag="SACT1_0673" id="clusterblast-1_h6_6_22" points="209,90 212,90 217,85 212,80 209,80 209,90 " class="clusterblast-orf"  />
<polygon style="stroke:black; stroke-width:1; fill:#FFFFFF; " description="N-(5-amino-5-carboxypentanoyl)-L-cysteinyl-D-[br]Location: 791212 - 793140" locus_tag="SACT1_0674" id="clusterblast-1_h6_6_23" points="217,90 227,90 232,85 227,80 217,80 217,90 " class="clusterblast-orf"  />
<polygon style="stroke:black; stroke-width:1; fill:#FFFFFF; " description="amino_acid_adenylation_domain_protein[br]Location: 793133 - 799099" locus_tag="SACT1_0675" id="clusterblast-1_h6_6_24" points="232,90 275,90 280,85 275,80 232,80 232,90 " class="clusterblast-orf"  />
<polygon style="stroke:black; stroke-width:1; fill:#FFFFFF; " description="amino_acid_adenylation_domain_protein[br]Location: 799120 - 800703" locus_tag="SACT1_0676" id="clusterblast-1_h6_6_25" points="280,90 288,90 293,85 288,80 280,80 280,90 " class="clusterblast-orf"  />
<polygon style="stroke:black; stroke-width:1; fill:#FFFFFF; " description="Linalool_8-monooxygenase[br]Location: 800700 - 801962" locus_tag="SACT1_0677" id="clusterblast-1_h6_6_26" points="293,90 298,90 303,85 298,80 293,80 293,90 " class="clusterblast-orf"  />
<polygon style="stroke:black; stroke-width:1; fill:#FFFFFF; " description="Thioesterase[br]Location: 801959 - 803065" locus_tag="SACT1_0678" id="clusterblast-1_h6_6_27" points="303,90 307,90 312,85 307,80 303,80 303,90 " class="clusterblast-orf"  />
<polygon style="stroke:black; stroke-width:1; fill:#FFFFFF; " description="amino_acid_adenylation_domain_protein[br]Location: 803062 - 804885" locus_tag="SACT1_0679" id="clusterblast-1_h6_6_28" points="312,90 322,90 327,85 322,80 312,80 312,90 " class="clusterblast-orf"  />
<polygon style="stroke:black; stroke-width:1; fill:#FFFFFF; " description="Methyltransferase_type_11[br]Location: 804882 - 806645" locus_tag="SACT1_0680" id="clusterblast-1_h6_6_29" points="327,90 336,90 341,85 336,80 327,80 327,90 " class="clusterblast-orf"  />
<polygon style="stroke:black; stroke-width:1; fill:blue; " description="amino_acid_adenylation_domain_protein[br]Location: 806629 - 808443&lt;br&gt;&lt;br&gt;&lt;b&gt;BlastP hit with CHAFR746836_0063080.1&lt;/b&gt;&lt;br&gt;Percentage identity: 31%&lt;br&gt;Percentage coverage: 13%&lt;br&gt;BLAST bit score: 177&lt;br&gt;E-value: 3e-44" locus_tag="SACT1_0681" id="clusterblast-1_h6_6_30" points="341,85 346,80 355,80 355,90 346,90 341,85 " class="clusterblast-orf"  />
<polygon style="stroke:black; stroke-width:1; fill:#FFFFFF; " description="putative_glycosyl_transferase[br]Location: 808642 - 809691" locus_tag="SACT1_0682" id="clusterblast-1_h6_6_31" points="357,85 362,80 365,80 365,90 362,90 357,85 " class="clusterblast-orf"  />
<polygon style="stroke:black; stroke-width:1; fill:#FFFFFF; " description="hypothetical_protein[br]Location: 809706 - 810821" locus_tag="SACT1_0683" id="clusterblast-1_h6_6_32" points="365,85 370,80 374,80 374,90 370,90 365,85 " class="clusterblast-orf"  />
<polygon style="stroke:black; stroke-width:1; fill:#FFFFFF; " description="Xenobiotic-transporting_ATPase[br]Location: 810818 - 812584" locus_tag="SACT1_0684" id="clusterblast-1_h6_6_33" points="374,85 379,80 389,80 389,90 379,90 374,85 " class="clusterblast-orf"  />
<polygon style="stroke:black; stroke-width:1; fill:#FFFFFF; " description="nitroreductase[br]Location: 812581 - 813312" locus_tag="SACT1_0685" id="clusterblast-1_h6_6_34" points="389,85 394,80 394,80 394,90 394,90 389,85 " class="clusterblast-orf"  />
<polygon style="stroke:black; stroke-width:1; fill:#FFFFFF; " description="hypothetical_protein[br]Location: 813303 - 814958" locus_tag="SACT1_0686" id="clusterblast-1_h6_6_35" points="394,85 399,80 408,80 408,90 399,90 394,85 " class="clusterblast-orf"  />
<polygon style="stroke:black; stroke-width:1; fill:#FFFFFF; " description="hypothetical_protein[br]Location: 814942 - 815670" locus_tag="SACT1_0687" id="clusterblast-1_h6_6_36" points="407,85 412,80 413,80 413,90 412,90 407,85 " class="clusterblast-orf"  />
<polygon style="stroke:black; stroke-width:1; fill:#FFFFFF; " description="biosynthesis_docking_scaffold_protein,_SagD[br]Location: 815649 - 816956" locus_tag="SACT1_0688" id="clusterblast-1_h6_6_37" points="413,85 418,80 424,80 424,90 418,90 413,85 " class="clusterblast-orf"  />
<polygon style="stroke:black; stroke-width:1; fill:#FFFFFF; " description="hypothetical_protein[br]Location: 817064 - 817294" locus_tag="SACT1_0689" id="clusterblast-1_h6_6_38" points="425,85 426,80 426,90 425,85 " class="clusterblast-orf"  />
<polygon style="stroke:black; stroke-width:1; fill:#FFFFFF; " description="pyridoxamine_5'-phosphate_oxidase-related[br]Location: 817751 - 818287" locus_tag="SACT1_0690" id="clusterblast-1_h6_6_39" points="430,85 434,80 434,90 430,85 " class="clusterblast-orf"  />
<polygon style="stroke:black; stroke-width:1; fill:#FFFFFF; " description="PEP-utilizing_protein[br]Location: 818674 - 819900" locus_tag="SACT1_0691" id="clusterblast-1_h6_6_40" points="437,85 442,80 447,80 447,90 442,90 437,85 " class="clusterblast-orf"  />
<polygon style="stroke:black; stroke-width:1; fill:#FFFFFF; " description="FAD-dependent_pyridine_nucleotide-disulfide[br]Location: 819901 - 821802" locus_tag="SACT1_0692" id="clusterblast-1_h6_6_41" points="447,85 452,80 463,80 463,90 452,90 447,85 " class="clusterblast-orf"  />
<polygon style="stroke:black; stroke-width:1; fill:#FFFFFF; " description="alkylhydroperoxidase_like_protein,_AhpD_family[br]Location: 821938 - 822486" locus_tag="SACT1_0693" id="clusterblast-1_h6_6_42" points="464,85 468,80 468,90 464,85 " class="clusterblast-orf"  />
<polygon style="stroke:black; stroke-width:1; fill:#FFFFFF; " description="hypothetical_protein_CHP03084[br]Location: 823294 - 824097" locus_tag="SACT1_0694" id="clusterblast-1_h6_6_43" points="475,90 476,90 481,85 476,80 475,80 475,90 " class="clusterblast-orf"  />
<polygon style="stroke:black; stroke-width:1; fill:#FFFFFF; " description="FAD_dependent_oxidoreductase[br]Location: 824702 - 826357" locus_tag="SACT1_0695" id="clusterblast-1_h6_6_44" points="486,85 491,80 499,80 499,90 491,90 486,85 " class="clusterblast-orf"  />
<polygon style="stroke:black; stroke-width:1; fill:#FFFFFF; " description="hypothetical_protein[br]Location: 826354 - 826944" locus_tag="SACT1_0696" id="clusterblast-1_h6_6_45" points="499,85 504,80 504,80 504,90 504,90 499,85 " class="clusterblast-orf"  />
<polygon style="stroke:black; stroke-width:1; fill:#FFFFFF; " description="transcriptional_regulator,_AraC_family[br]Location: 827255 - 828034" locus_tag="SACT1_0697" id="clusterblast-1_h6_6_46" points="506,90 508,90 513,85 508,80 506,80 506,90 " class="clusterblast-orf"  />
<polygon style="stroke:black; stroke-width:1; fill:#FFFFFF; " description="hypothetical_protein[br]Location: 828514 - 828942" locus_tag="SACT1_0698" id="clusterblast-1_h6_6_47" points="516,85 520,80 520,90 516,85 " class="clusterblast-orf"  />
<polygon style="stroke:black; stroke-width:1; fill:#FFFFFF; " description="putative_enediyne_biosynthesis_protein[br]Location: 829518 - 829985" locus_tag="SACT1_0699" id="clusterblast-1_h6_6_48" points="524,90 528,85 524,80 524,90 " class="clusterblast-orf"  />
<polygon style="stroke:black; stroke-width:1; fill:#FFFFFF; " description="protein_of_unknown_function_DUF1702[br]Location: 830139 - 831122" locus_tag="SACT1_0700" id="clusterblast-1_h6_6_49" points="529,90 532,90 537,85 532,80 529,80 529,90 " class="clusterblast-orf"  />
<polygon style="stroke:black; stroke-width:1; fill:#FFFFFF; " description="protein_of_unknown_function_DUF1702[br]Location: 831214 - 832182" locus_tag="SACT1_0701" id="clusterblast-1_h6_6_50" points="538,90 541,90 546,85 541,80 538,80 538,90 " class="clusterblast-orf"  />
<polygon style="stroke:black; stroke-width:1; fill:#FFFFFF; " description="ASPIC/UnbV_domain_protein[br]Location: 832195 - 834126" locus_tag="SACT1_0702" id="clusterblast-1_h6_6_51" points="546,90 556,90 561,85 556,80 546,80 546,90 " class="clusterblast-orf"  />
<polygon style="stroke:black; stroke-width:1; fill:#FFFFFF; " description="putative_enediyne_biosynthesis_protein[br]Location: 834129 - 835277" locus_tag="SACT1_0703" id="clusterblast-1_h6_6_52" points="562,90 566,90 571,85 566,80 562,80 562,90 " class="clusterblast-orf"  />
<polygon style="stroke:black; stroke-width:1; fill:#FFFFFF; " description="6-deoxyerythronolide-B_synthase[br]Location: 835274 - 841114" locus_tag="SACT1_0704" id="clusterblast-1_h6_6_53" points="571,90 613,90 618,85 613,80 571,80 571,90 " class="clusterblast-orf"  />
<polygon style="stroke:black; stroke-width:1; fill:#FFFFFF; " description="flavin_reductase_domain_protein,_FMN-binding[br]Location: 841111 - 841659" locus_tag="SACT1_0705" id="clusterblast-1_h6_6_54" points="618,90 622,85 618,80 618,90 " class="clusterblast-orf"  />
<polygon style="stroke:black; stroke-width:1; fill:#FFFFFF; " description="Unspecific_monooxygenase[br]Location: 841656 - 843005" locus_tag="SACT1_0706" id="clusterblast-1_h6_6_55" points="622,90 628,90 633,85 628,80 622,80 622,90 " class="clusterblast-orf"  />
<polygon style="stroke:black; stroke-width:1; fill:#FFFFFF; " description="sphingomyelin_synthase_2[br]Location: 843036 - 843332" locus_tag="SACT1_0707" id="clusterblast-1_h6_6_56" points="633,90 635,85 633,80 633,90 " class="clusterblast-orf"  />
<polygon style="stroke:black; stroke-width:1; fill:#FFFFFF; " description="alkylhydroperoxidase_like_protein,_AhpD_family[br]Location: 843364 - 844401" locus_tag="SACT1_0708" id="clusterblast-1_h6_6_57" points="636,90 639,90 644,85 639,80 636,80 636,90 " class="clusterblast-orf"  />
<polygon style="stroke:black; stroke-width:1; fill:red; " description="Protochlorophyllide_reductase[br]Location: 844433 - 845353&lt;br&gt;&lt;br&gt;&lt;b&gt;BlastP hit with CHAFR746836_0063050.1&lt;/b&gt;&lt;br&gt;Percentage identity: 32%&lt;br&gt;Percentage coverage: 100%&lt;br&gt;BLAST bit score: 108&lt;br&gt;E-value: 4e-26&lt;br&gt;&lt;br&gt;&lt;b&gt;BlastP hit with CHAFR746836_0063050.2&lt;/b&gt;&lt;br&gt;Percentage identity: 37%&lt;br&gt;Percentage coverage: 75%&lt;br&gt;BLAST bit score: 106&lt;br&gt;E-value: 1e-25" locus_tag="SACT1_0709" id="clusterblast-1_h6_6_58" points="644,85 649,80 652,80 652,90 649,90 644,85 " class="clusterblast-orf"  />
<polygon style="stroke:black; stroke-width:1; fill:#FFFFFF; " description="alkylhydroperoxidase_like_protein,_AhpD_family[br]Location: 845380 - 845931" locus_tag="SACT1_0710" id="clusterblast-1_h6_6_59" points="652,85 656,80 656,90 652,85 " class="clusterblast-orf"  />
<polygon style="stroke:black; stroke-width:1; fill:#FFFFFF; " description="hypothetical_protein[br]Location: 846333 - 846896" locus_tag="SACT1_0711" id="clusterblast-1_h6_6_60" points="659,90 659,90 664,85 659,80 659,80 659,90 " class="clusterblast-orf"  />
<polygon style="stroke:black; stroke-width:1; fill:#FFFFFF; " description="hypothetical_protein[br]Location: 846901 - 847377" locus_tag="SACT1_0712" id="clusterblast-1_h6_6_61" points="664,90 668,85 664,80 664,90 " class="clusterblast-orf"  />
<polygon style="stroke:black; stroke-width:1; fill:#FFFFFF; " description="protein_of_unknown_function_DUF1205[br]Location: 847433 - 848776" locus_tag="SACT1_0713" id="clusterblast-1_h6_6_62" points="668,85 673,80 679,80 679,90 673,90 668,85 " class="clusterblast-orf"  />
<polygon style="stroke:black; stroke-width:1; fill:#FFFFFF; " description="protein_of_unknown_function_DUF899_thioredoxin[br]Location: 848939 - 849631" locus_tag="SACT1_0714" id="clusterblast-1_h6_6_63" points="680,85 685,80 686,80 686,90 685,90 680,85 " class="clusterblast-orf"  />
<polygon style="stroke:black; stroke-width:1; fill:#FFFFFF; " description="major_facilitator_superfamily_MFS_1[br]Location: 849756 - 851342" locus_tag="SACT1_0715" id="clusterblast-1_h6_6_64" points="687,85 692,80 700,80 700,90 692,90 687,85 " class="clusterblast-orf"  />
<polygon style="stroke:black; stroke-width:1; fill:#FFFFFF; " description="YCII-related_protein[br]Location: 851619 - 851960" locus_tag="SACT1_0716" id="clusterblast-1_h6_6_65" points="702,90 705,85 702,80 702,90 " class="clusterblast-orf"  />
<polygon style="stroke:black; stroke-width:1; fill:#FFFFFF; " description="Alcohol_dehydrogenase[br]Location: 852025 - 853041" locus_tag="SACT1_0717" id="clusterblast-1_h6_6_66" points="705,85 710,80 713,80 713,90 710,90 705,85 " class="clusterblast-orf"  />
<polygon style="stroke:black; stroke-width:1; fill:#FFFFFF; " description="cytochrome_P450[br]Location: 853038 - 854276" locus_tag="SACT1_0718" id="clusterblast-1_h6_6_67" points="713,85 718,80 723,80 723,90 718,90 713,85 " class="clusterblast-orf"  />
<polygon style="stroke:black; stroke-width:1; fill:#FFFFFF; " description="Protein_of_unknown_function_DUF2306,_membrane[br]Location: 854368 - 855090" locus_tag="SACT1_0719" id="clusterblast-1_h6_6_68" points="724,85 729,80 730,80 730,90 729,90 724,85 " class="clusterblast-orf"  />
<polygon style="stroke:black; stroke-width:1; fill:#FFFFFF; " description="monooxygenase_FAD-binding[br]Location: 855339 - 856724" locus_tag="SACT1_0720" id="clusterblast-1_h6_6_69" points="732,90 738,90 743,85 738,80 732,80 732,90 " class="clusterblast-orf"  />
<polygon style="stroke:black; stroke-width:1; fill:#FFFFFF; " description="Microsomal_epoxide_hydrolase[br]Location: 856759 - 857916" locus_tag="SACT1_0721" id="clusterblast-1_h6_6_70" points="743,90 747,90 752,85 747,80 743,80 743,90 " class="clusterblast-orf"  />
<polygon style="stroke:black; stroke-width:1; fill:#FFFFFF; " description="Berberine/berberine_domain_protein[br]Location: 857984 - 859612" locus_tag="SACT1_0722" id="clusterblast-1_h6_6_71" points="753,90 761,90 766,85 761,80 753,80 753,90 " class="clusterblast-orf"  />
<polygon style="stroke:black; stroke-width:1; fill:#FFFFFF; " description="Acyl-CoA_dehydrogenase_type_2_domain_protein[br]Location: 859843 - 861033" locus_tag="SACT1_0723" id="clusterblast-1_h6_6_72" points="768,90 773,90 778,85 773,80 768,80 768,90 " class="clusterblast-orf"  />
</g>
</svg>
