<svg xmlns="http://www.w3.org/2000/svg" height="230" width="800" version="1.1" y="0" x="0" preserveAspectRatio="none" xmlns:xlink="http://www.w3.org/1999/xlink" viewBox="0 0 800 230"  >
<g class="clusterblast-cluster" label="Query sequence"  >
<text class="clusterblast-acc" y="10" x="5"  >
Query sequence</text>
<line y1="35" x2="778.0" style="stroke:grey; stroke-width:1; " x1="10" y2="35"  />
<polygon style="stroke:black; stroke-width:1; fill:#FFFFFF; " description="unannotated orf[br]Location: 1013 - 2670" locus_tag="CHAFR746836_0031900.1" class="clusterblast-orf" points="10,35 15,30 19,30 19,40 15,40 10,35 " id="clusterblast-2_q45_2_0"  />
<polygon style="stroke:black; stroke-width:1; fill:#FFFFFF; " description="unannotated orf[br]Location: 5806 - 8080" locus_tag="CHAFR746836_0031910.1" class="clusterblast-orf" points="36,40 44,40 49,35 44,30 36,30 36,40 " id="clusterblast-2_q45_2_1"  />
<polygon style="stroke:black; stroke-width:1; fill:rgb(190,63,63); " description="unannotated orf[br]Location: 14959 - 16522" locus_tag="CHAFR746836_0031920.1" class="clusterblast-orf" points="87,35 92,30 96,30 96,40 92,40 87,35 " id="clusterblast-2_q45_2_2"  />
<polygon style="stroke:black; stroke-width:1; fill:rgb(63,63,190); " description="unannotated orf[br]Location: 18634 - 27051" locus_tag="CHAFR746836_0031930.1" class="clusterblast-orf" points="108,35 113,30 155,30 155,40 113,40 108,35 " id="clusterblast-2_q45_2_3"  />
<polygon style="stroke:black; stroke-width:1; fill:rgb(63,190,63); " description="unannotated orf[br]Location: 28690 - 31017" locus_tag="CHAFR746836_0031940.1" class="clusterblast-orf" points="164,35 169,30 177,30 177,40 169,40 164,35 " id="clusterblast-2_q45_2_4"  />
<polygon style="stroke:black; stroke-width:1; fill:rgb(190,63,190); " description="unannotated orf[br]Location: 31821 - 32686" locus_tag="CHAFR746836_0031950.1" class="clusterblast-orf" points="182,40 186,35 182,30 182,40 " id="clusterblast-2_q45_2_5"  />
<polygon style="stroke:black; stroke-width:1; fill:#FFFFFF; " description="unannotated orf[br]Location: 33127 - 34136" locus_tag="CHAFR746836_0031960.1" class="clusterblast-orf" points="189,35 194,30 195,30 195,40 194,40 189,35 " id="clusterblast-2_q45_2_6"  />
<polygon style="stroke:black; stroke-width:1; fill:#FFFFFF; " description="unannotated orf[br]Location: 34492 - 36671" locus_tag="CHAFR746836_0031970.1" class="clusterblast-orf" points="197,40 204,40 209,35 204,30 197,30 197,40 " id="clusterblast-2_q45_2_7"  />
<polygon style="stroke:black; stroke-width:1; fill:#FFFFFF; " description="unannotated orf[br]Location: 90516 - 91329" locus_tag="CHAFR746836_0031980.1" class="clusterblast-orf" points="510,40 514,35 510,30 510,40 " id="clusterblast-2_q45_2_8"  />
<polygon style="stroke:black; stroke-width:1; fill:#FFFFFF; " description="unannotated orf[br]Location: 95107 - 95607" locus_tag="CHAFR746836_0031990.1" class="clusterblast-orf" points="535,35 538,30 538,40 535,35 " id="clusterblast-2_q45_2_9"  />
<polygon style="stroke:black; stroke-width:1; fill:#FFFFFF; " description="unannotated orf[br]Location: 98154 - 98987" locus_tag="CHAFR746836_0032000.1" class="clusterblast-orf" points="552,40 552,40 557,35 552,30 552,30 552,40 " id="clusterblast-2_q45_2_10"  />
<polygon style="stroke:black; stroke-width:1; fill:#FFFFFF; " description="unannotated orf[br]Location: 110556 - 112350" locus_tag="CHAFR746836_0032010.1" class="clusterblast-orf" points="622,35 627,30 632,30 632,40 627,40 622,35 " id="clusterblast-2_q45_2_11"  />
<polygon style="stroke:black; stroke-width:1; fill:rgb(190,190,63); " description="unannotated orf[br]Location: 112800 - 115534" locus_tag="CHAFR746836_0032020.1" class="clusterblast-orf" points="634,40 644,40 649,35 644,30 634,30 634,40 " id="clusterblast-2_q45_2_12"  />
<polygon style="stroke:black; stroke-width:1; fill:rgb(190,190,190); " description="unannotated orf[br]Location: 116249 - 122294" locus_tag="CHAFR746836_0032030.1" class="clusterblast-orf" points="653,40 682,40 687,35 682,30 653,30 653,40 " id="clusterblast-2_q45_2_13"  />
<polygon style="stroke:black; stroke-width:1; fill:rgb(63,190,190); " description="unannotated orf[br]Location: 126098 - 127042" locus_tag="CHAFR746836_0032040.1" class="clusterblast-orf" points="708,35 713,30 714,30 714,40 713,40 708,35 " id="clusterblast-2_q45_2_14"  />
<polygon style="stroke:black; stroke-width:1; fill:rgb(63,63,63); " description="unannotated orf[br]Location: 128617 - 129857" locus_tag="CHAFR746836_0032050.1" class="clusterblast-orf" points="723,40 724,40 729,35 724,30 723,30 723,40 " id="clusterblast-2_q45_2_15"  />
<polygon style="stroke:black; stroke-width:1; fill:#FFFFFF; " description="unannotated orf[br]Location: 132905 - 135667" locus_tag="CHAFR746836_0032060.1" class="clusterblast-orf" points="746,40 757,40 762,35 757,30 746,30 746,40 " id="clusterblast-2_q45_2_16"  />
<polygon style="stroke:black; stroke-width:1; fill:#FFFFFF; " description="unannotated orf[br]Location: 137047 - 138460" locus_tag="CHAFR746836_0032070.1" class="clusterblast-orf" points="770,35 775,30 778,30 778,40 775,40 770,35 " id="clusterblast-2_q45_2_17"  />
</g>
<g class="clusterblast-cluster" description="Metarhizium acridum CQMa 102 unplaced genomic scaffold Scf 0..." label="GL698474.1_c1"  >
<text class="clusterblast-acc" y="60" x="5"  >
GL698474.1_c1</text>
<text class="clusterblast-desc" y="60" x="460.8"  >
Metarhizium acridum CQMa 102 unplaced genomic scaffold Scf 0...</text>
<line y1="85" x2="778.0" style="stroke:grey; stroke-width:1; " x1="10" y2="85"  />
<polygon style="stroke:black; stroke-width:1; fill:rgb(190,190,63); " description="DNA_replication_licensing_factor_mcm2[br]Location: 30402 - 33122&lt;br&gt;&lt;br&gt;&lt;b&gt;BlastP hit with CHAFR746836_0032020.1&lt;/b&gt;&lt;br&gt;Percentage identity: 77%&lt;br&gt;Percentage coverage: 99%&lt;br&gt;BLAST bit score: 1347&lt;br&gt;E-value: 0.0" locus_tag="MAC_01210" id="clusterblast-2_h45_2_0" points="262,90 272,90 277,85 272,80 262,80 262,90 " class="clusterblast-orf"  />
<polygon style="stroke:black; stroke-width:1; fill:#FFFFFF; " description="aquaglyceroporin[br]Location: 42427 - 43460" locus_tag="MAC_01211" id="clusterblast-2_h45_2_1" points="329,85 334,80 334,80 334,90 334,90 329,85 " class="clusterblast-orf"  />
<polygon style="stroke:black; stroke-width:1; fill:#FFFFFF; " description="cytochrome_P450,_putative[br]Location: 45926 - 47257" locus_tag="MAC_01212" id="clusterblast-2_h45_2_2" points="348,85 353,80 356,80 356,90 353,90 348,85 " class="clusterblast-orf"  />
<polygon style="stroke:black; stroke-width:1; fill:#FFFFFF; " description="oxidoreductase,_2OG-Fe(II)_oxygenase_family,[br]Location: 49252 - 50369" locus_tag="MAC_01213" id="clusterblast-2_h45_2_3" points="367,90 368,90 373,85 368,80 367,80 367,90 " class="clusterblast-orf"  />
<polygon style="stroke:black; stroke-width:1; fill:#FFFFFF; " description="PKS-like_enzyme,_putative[br]Location: 50926 - 51894" locus_tag="MAC_01214" id="clusterblast-2_h45_2_4" points="376,90 377,90 382,85 377,80 376,80 376,90 " class="clusterblast-orf"  />
<polygon style="stroke:black; stroke-width:1; fill:rgb(63,63,190); " description="polyketide_synthase,_putative[br]Location: 52073 - 58951&lt;br&gt;&lt;br&gt;&lt;b&gt;BlastP hit with CHAFR746836_0031930.1&lt;/b&gt;&lt;br&gt;Percentage identity: 38%&lt;br&gt;Percentage coverage: 44%&lt;br&gt;BLAST bit score: 707&lt;br&gt;E-value: 0.0" locus_tag="MAC_01215" id="clusterblast-2_h45_2_5" points="383,85 388,80 421,80 421,90 388,90 383,85 " class="clusterblast-orf"  />
<polygon style="stroke:black; stroke-width:1; fill:rgb(63,190,63); " description="DUF341_domain_protein[br]Location: 62062 - 62869&lt;br&gt;&lt;br&gt;&lt;b&gt;BlastP hit with CHAFR746836_0031940.1&lt;/b&gt;&lt;br&gt;Percentage identity: 31%&lt;br&gt;Percentage coverage: 33%&lt;br&gt;BLAST bit score: 84&lt;br&gt;E-value: 4e-17" locus_tag="MAC_01216" id="clusterblast-2_h45_2_6" points="438,90 438,90 443,85 438,80 438,80 438,90 " class="clusterblast-orf"  />
<polygon style="stroke:black; stroke-width:1; fill:#FFFFFF; " description="integral_membrane_protein[br]Location: 63797 - 64971" locus_tag="MAC_01217" id="clusterblast-2_h45_2_7" points="448,90 450,90 455,85 450,80 448,80 448,90 " class="clusterblast-orf"  />
<polygon style="stroke:black; stroke-width:1; fill:#FFFFFF; " description="hypothetical_protein[br]Location: 66240 - 68881" locus_tag="MAC_01218" id="clusterblast-2_h45_2_8" points="462,85 467,80 477,80 477,90 467,90 462,85 " class="clusterblast-orf"  />
<polygon style="stroke:black; stroke-width:1; fill:#FFFFFF; " description="glycoside_hydrolase_family_24_protein[br]Location: 72002 - 73595" locus_tag="MAC_01219" id="clusterblast-2_h45_2_9" points="494,85 499,80 503,80 503,90 499,90 494,85 " class="clusterblast-orf"  />
<polygon style="stroke:black; stroke-width:1; fill:#FFFFFF; " description="alcohol_dehydrogenase[br]Location: 75427 - 77373" locus_tag="MAC_01220" id="clusterblast-2_h45_2_10" points="513,85 518,80 524,80 524,90 518,90 513,85 " class="clusterblast-orf"  />
</g>
</svg>
