<svg xmlns="http://www.w3.org/2000/svg" height="230" width="800" version="1.1" y="0" x="0" preserveAspectRatio="none" xmlns:xlink="http://www.w3.org/1999/xlink" viewBox="0 0 800 230"  >
<g class="clusterblast-cluster" label="Query sequence"  >
<text class="clusterblast-acc" y="10" x="5"  >
Query sequence</text>
<line y1="35" x2="778.0" style="stroke:grey; stroke-width:1; " x1="10" y2="35"  />
<polygon style="stroke:black; stroke-width:1; fill:#FFFFFF; " description="unannotated orf[br]Location: 1502 - 2717" locus_tag="CHAFR746836_0018730.1" class="clusterblast-orf" points="149,40 164,40 169,35 164,30 149,30 149,40 " id="clusterblast-1_q38_5_0"  />
<polygon style="stroke:black; stroke-width:1; fill:#FFFFFF; " description="unannotated orf[br]Location: 5434 - 6658" locus_tag="CHAFR746836_0018740.1" class="clusterblast-orf" points="216,40 231,40 236,35 231,30 216,30 216,40 " id="clusterblast-1_q38_5_1"  />
<polygon style="stroke:black; stroke-width:1; fill:rgb(190,63,63); " description="unannotated orf[br]Location: 8194 - 15527" locus_tag="CHAFR746836_0018750.1" class="clusterblast-orf" points="263,35 268,30 388,30 388,40 268,40 263,35 " id="clusterblast-1_q38_5_2"  />
<polygon style="stroke:black; stroke-width:1; fill:rgb(63,63,190); " description="unannotated orf[br]Location: 16107 - 17386" locus_tag="CHAFR746836_0018760.1" class="clusterblast-orf" points="398,40 414,40 419,35 414,30 398,30 398,40 " id="clusterblast-1_q38_5_3"  />
<polygon style="stroke:black; stroke-width:1; fill:rgb(63,190,63); " description="unannotated orf[br]Location: 18113 - 19107" locus_tag="CHAFR746836_0018770.1" class="clusterblast-orf" points="432,40 444,40 449,35 444,30 432,30 432,40 " id="clusterblast-1_q38_5_4"  />
<polygon style="stroke:black; stroke-width:1; fill:#FFFFFF; " description="unannotated orf[br]Location: 21941 - 23810" locus_tag="CHAFR746836_0018780.1" class="clusterblast-orf" points="497,40 524,40 529,35 524,30 497,30 497,40 " id="clusterblast-1_q38_5_5"  />
<polygon style="stroke:black; stroke-width:1; fill:rgb(190,63,190); " description="unannotated orf[br]Location: 25428 - 26120" locus_tag="CHAFR746836_0018790.1" class="clusterblast-orf" points="557,40 563,40 568,35 563,30 557,30 557,40 " id="clusterblast-1_q38_5_6"  />
<polygon style="stroke:black; stroke-width:1; fill:rgb(190,190,63); " description="unannotated orf[br]Location: 28320 - 30189" locus_tag="CHAFR746836_0018800.1" class="clusterblast-orf" points="606,35 611,30 638,30 638,40 611,40 606,35 " id="clusterblast-1_q38_5_7"  />
</g>
<g class="clusterblast-cluster" description="Trichoderma atroviride IMI 206040 TRIATcontig 21, whole ..." label="ABDG02000021.1_c3"  >
<text class="clusterblast-acc" y="60" x="5"  >
ABDG02000021.1_c3</text>
<text class="clusterblast-desc" y="60" x="460.8"  >
Trichoderma atroviride IMI 206040 TRIATcontig 21, whole ...</text>
<line y1="85" x2="778.0" style="stroke:grey; stroke-width:1; " x1="10" y2="85"  />
<polygon style="stroke:black; stroke-width:1; fill:#FFFFFF; " description="hypothetical_protein[br]Location: 721160 - 721534" locus_tag="TRIATDRAFT_306763" id="clusterblast-1_h38_5_0" points="10,90 11,90 16,85 11,80 10,80 10,90 " class="clusterblast-orf"  />
<polygon style="stroke:black; stroke-width:1; fill:#FFFFFF; " description="hypothetical_protein[br]Location: 725199 - 725510" locus_tag="TRIATDRAFT_298850" id="clusterblast-1_h38_5_1" points="78,90 79,90 84,85 79,80 78,80 78,90 " class="clusterblast-orf"  />
<polygon style="stroke:black; stroke-width:1; fill:#FFFFFF; " description="hypothetical_protein[br]Location: 727571 - 728037" locus_tag="TRIATDRAFT_306764" id="clusterblast-1_h38_5_2" points="119,90 122,90 127,85 122,80 119,80 119,90 " class="clusterblast-orf"  />
<polygon style="stroke:black; stroke-width:1; fill:#FFFFFF; " description="hypothetical_protein[br]Location: 732125 - 733400" locus_tag="TRIATDRAFT_90929" id="clusterblast-1_h38_5_3" points="197,85 202,80 218,80 218,90 202,90 197,85 " class="clusterblast-orf"  />
<polygon style="stroke:black; stroke-width:1; fill:rgb(190,63,63); " description="polyketide_synthase-like_protein[br]Location: 737479 - 744870&lt;br&gt;&lt;br&gt;&lt;b&gt;BlastP hit with CHAFR746836_0018750.1&lt;/b&gt;&lt;br&gt;Percentage identity: 44%&lt;br&gt;Percentage coverage: 102%&lt;br&gt;BLAST bit score: 1930&lt;br&gt;E-value: 0.0" locus_tag="TRIATDRAFT_45973" id="clusterblast-1_h38_5_4" points="288,85 293,80 414,80 414,90 293,90 288,85 " class="clusterblast-orf"  />
<polygon style="stroke:black; stroke-width:1; fill:rgb(63,190,63); " description="hypothetical_protein[br]Location: 746621 - 747617&lt;br&gt;&lt;br&gt;&lt;b&gt;BlastP hit with CHAFR746836_0018770.1&lt;/b&gt;&lt;br&gt;Percentage identity: 49%&lt;br&gt;Percentage coverage: 98%&lt;br&gt;BLAST bit score: 253&lt;br&gt;E-value: 6e-82" locus_tag="TRIATDRAFT_217448" id="clusterblast-1_h38_5_5" points="444,90 456,90 461,85 456,80 444,80 444,90 " class="clusterblast-orf"  />
<polygon style="stroke:black; stroke-width:1; fill:rgb(190,63,190); " description="hypothetical_protein[br]Location: 748193 - 748825&lt;br&gt;&lt;br&gt;&lt;b&gt;BlastP hit with CHAFR746836_0018790.1&lt;/b&gt;&lt;br&gt;Percentage identity: 50%&lt;br&gt;Percentage coverage: 91%&lt;br&gt;BLAST bit score: 175&lt;br&gt;E-value: 2e-53" locus_tag="TRIATDRAFT_239450" id="clusterblast-1_h38_5_6" points="471,90 476,90 481,85 476,80 471,80 471,90 " class="clusterblast-orf"  />
<polygon style="stroke:black; stroke-width:1; fill:rgb(63,63,190); " description="hypothetical_protein[br]Location: 749499 - 750935&lt;br&gt;&lt;br&gt;&lt;b&gt;BlastP hit with CHAFR746836_0018760.1&lt;/b&gt;&lt;br&gt;Percentage identity: 53%&lt;br&gt;Percentage coverage: 96%&lt;br&gt;BLAST bit score: 300&lt;br&gt;E-value: 8e-100" locus_tag="TRIATDRAFT_306768" id="clusterblast-1_h38_5_7" points="493,85 498,80 517,80 517,90 498,90 493,85 " class="clusterblast-orf"  />
<polygon style="stroke:black; stroke-width:1; fill:#FFFFFF; " description="hypothetical_protein[br]Location: 751965 - 753891" locus_tag="TRIATDRAFT_263459" id="clusterblast-1_h38_5_8" points="535,90 563,90 568,85 563,80 535,80 535,90 " class="clusterblast-orf"  />
<polygon style="stroke:black; stroke-width:1; fill:#FFFFFF; " description="hypothetical_protein[br]Location: 757264 - 759903" locus_tag="TRIATDRAFT_142164" id="clusterblast-1_h38_5_9" points="625,90 665,90 670,85 665,80 625,80 625,90 " class="clusterblast-orf"  />
<polygon style="stroke:black; stroke-width:1; fill:#FFFFFF; " description="hypothetical_protein[br]Location: 762434 - 763298" locus_tag="TRIATDRAFT_282547" id="clusterblast-1_h38_5_10" points="714,85 719,80 728,80 728,90 719,90 714,85 " class="clusterblast-orf"  />
<polygon style="stroke:black; stroke-width:1; fill:#FFFFFF; " description="hypothetical_protein[br]Location: 764390 - 766182" locus_tag="TRIATDRAFT_217465" id="clusterblast-1_h38_5_11" points="747,90 773,90 778,85 773,80 747,80 747,90 " class="clusterblast-orf"  />
</g>
</svg>
