<svg xmlns="http://www.w3.org/2000/svg" height="230" width="800" version="1.1" y="0" x="0" preserveAspectRatio="none" xmlns:xlink="http://www.w3.org/1999/xlink" viewBox="0 0 800 230"  >
<g class="clusterblast-cluster" label="Query sequence"  >
<text class="clusterblast-acc" y="10" x="5"  >
Query sequence</text>
<line y1="35" x2="778.0" style="stroke:grey; stroke-width:1; " x1="10" y2="35"  />
<polygon style="stroke:black; stroke-width:1; fill:#FFFFFF; " description="unannotated orf[br]Location: 965 - 3615" locus_tag="CHAFR746836_0014310.1" class="clusterblast-orf" points="10,35 15,30 32,30 32,40 15,40 10,35 " id="clusterblast-1_q32_9_0"  />
<polygon style="stroke:black; stroke-width:1; fill:#FFFFFF; " description="unannotated orf[br]Location: 4260 - 6128" locus_tag="CHAFR746836_0014320.1" class="clusterblast-orf" points="38,40 49,40 54,35 49,30 38,30 38,40 " id="clusterblast-1_q32_9_1"  />
<polygon style="stroke:black; stroke-width:1; fill:#FFFFFF; " description="unannotated orf[br]Location: 7061 - 7582" locus_tag="CHAFR746836_0014330.1" class="clusterblast-orf" points="61,35 66,30 66,30 66,40 66,40 61,35 " id="clusterblast-1_q32_9_2"  />
<polygon style="stroke:black; stroke-width:1; fill:#FFFFFF; " description="unannotated orf[br]Location: 13564 - 15006" locus_tag="CHAFR746836_0014340.1" class="clusterblast-orf" points="117,35 122,30 129,30 129,40 122,40 117,35 " id="clusterblast-1_q32_9_3"  />
<polygon style="stroke:black; stroke-width:1; fill:#FFFFFF; " description="unannotated orf[br]Location: 17524 - 18715" locus_tag="CHAFR746836_0014350.1" class="clusterblast-orf" points="151,40 156,40 161,35 156,30 151,30 151,40 " id="clusterblast-1_q32_9_4"  />
<polygon style="stroke:black; stroke-width:1; fill:rgb(169,42,42); " description="unannotated orf[br]Location: 19792 - 21305" locus_tag="CHAFR746836_0014360.1" class="clusterblast-orf" points="170,35 175,30 183,30 183,40 175,40 170,35 " id="clusterblast-1_q32_9_5"  />
<polygon style="stroke:black; stroke-width:1; fill:#FFFFFF; " description="unannotated orf[br]Location: 22692 - 23566" locus_tag="CHAFR746836_0014370.1" class="clusterblast-orf" points="195,35 200,30 202,30 202,40 200,40 195,35 " id="clusterblast-1_q32_9_6"  />
<polygon style="stroke:black; stroke-width:1; fill:rgb(42,169,42); " description="unannotated orf[br]Location: 24871 - 25279" locus_tag="CHAFR746836_0014380.1" class="clusterblast-orf" points="213,40 217,35 213,30 213,40 " id="clusterblast-1_q32_9_7"  />
<polygon style="stroke:black; stroke-width:1; fill:rgb(42,169,212); " description="unannotated orf[br]Location: 30583 - 31348" locus_tag="CHAFR746836_0014390.1" class="clusterblast-orf" points="262,40 264,40 269,35 264,30 262,30 262,40 " id="clusterblast-1_q32_9_8"  />
<polygon style="stroke:black; stroke-width:1; fill:rgb(169,169,42); " description="unannotated orf[br]Location: 36255 - 37300" locus_tag="CHAFR746836_0014400.1" class="clusterblast-orf" points="310,40 314,40 319,35 314,30 310,30 310,40 " id="clusterblast-1_q32_9_9"  />
<polygon style="stroke:black; stroke-width:1; fill:rgb(169,42,127); " description="unannotated orf[br]Location: 40896 - 42318" locus_tag="CHAFR746836_0014410.1" class="clusterblast-orf" points="350,35 355,30 362,30 362,40 355,40 350,35 " id="clusterblast-1_q32_9_10"  />
<polygon style="stroke:black; stroke-width:1; fill:rgb(42,42,212); " description="unannotated orf[br]Location: 43231 - 44947" locus_tag="CHAFR746836_0014420.1" class="clusterblast-orf" points="370,35 375,30 384,30 384,40 375,40 370,35 " id="clusterblast-1_q32_9_11"  />
<polygon style="stroke:black; stroke-width:1; fill:rgb(169,169,212); " description="unannotated orf[br]Location: 48326 - 50264" locus_tag="CHAFR746836_0014430.1" class="clusterblast-orf" points="413,35 418,30 430,30 430,40 418,40 413,35 " id="clusterblast-1_q32_9_12"  />
<polygon style="stroke:black; stroke-width:1; fill:#FFFFFF; " description="unannotated orf[br]Location: 50648 - 51167" locus_tag="CHAFR746836_0014440.1" class="clusterblast-orf" points="433,35 438,30 438,30 438,40 438,40 433,35 " id="clusterblast-1_q32_9_13"  />
<polygon style="stroke:black; stroke-width:1; fill:#FFFFFF; " description="unannotated orf[br]Location: 52447 - 53731" locus_tag="CHAFR746836_0014450.1" class="clusterblast-orf" points="448,40 454,40 459,35 454,30 448,30 448,40 " id="clusterblast-1_q32_9_14"  />
<polygon style="stroke:black; stroke-width:1; fill:#FFFFFF; " description="unannotated orf[br]Location: 53956 - 55894" locus_tag="CHAFR746836_0014460.1" class="clusterblast-orf" points="461,35 466,30 478,30 478,40 466,40 461,35 " id="clusterblast-1_q32_9_15"  />
<polygon style="stroke:black; stroke-width:1; fill:#FFFFFF; " description="unannotated orf[br]Location: 57681 - 58665" locus_tag="CHAFR746836_0014470.1" class="clusterblast-orf" points="493,40 496,40 501,35 496,30 493,30 493,40 " id="clusterblast-1_q32_9_16"  />
<polygon style="stroke:black; stroke-width:1; fill:#FFFFFF; " description="unannotated orf[br]Location: 60333 - 62630" locus_tag="CHAFR746836_0014480.1" class="clusterblast-orf" points="516,40 530,40 535,35 530,30 516,30 516,40 " id="clusterblast-1_q32_9_17"  />
<polygon style="stroke:black; stroke-width:1; fill:rgb(42,169,127); " description="unannotated orf[br]Location: 65180 - 67570" locus_tag="CHAFR746836_0014490.1" class="clusterblast-orf" points="557,40 572,40 577,35 572,30 557,30 557,40 " id="clusterblast-1_q32_9_18"  />
<polygon style="stroke:black; stroke-width:1; fill:rgb(169,42,212); " description="unannotated orf[br]Location: 68037 - 69162" locus_tag="CHAFR746836_0014500.1" class="clusterblast-orf" points="581,35 586,30 591,30 591,40 586,40 581,35 " id="clusterblast-1_q32_9_19"  />
<polygon style="stroke:black; stroke-width:1; fill:#FFFFFF; " description="unannotated orf[br]Location: 70478 - 71612" locus_tag="CHAFR746836_0014510.1" class="clusterblast-orf" points="602,35 607,30 612,30 612,40 607,40 602,35 " id="clusterblast-1_q32_9_20"  />
<polygon style="stroke:black; stroke-width:1; fill:#FFFFFF; " description="unannotated orf[br]Location: 74985 - 76815" locus_tag="CHAFR746836_0014520.1" class="clusterblast-orf" points="641,40 651,40 656,35 651,30 641,30 641,40 " id="clusterblast-1_q32_9_21"  />
<polygon style="stroke:black; stroke-width:1; fill:#FFFFFF; " description="unannotated orf[br]Location: 83884 - 84673" locus_tag="CHAFR746836_0014530.1" class="clusterblast-orf" points="716,40 718,40 723,35 718,30 716,30 716,40 " id="clusterblast-1_q32_9_22"  />
<polygon style="stroke:black; stroke-width:1; fill:#FFFFFF; " description="unannotated orf[br]Location: 85064 - 86686" locus_tag="CHAFR746836_0014540.1" class="clusterblast-orf" points="726,35 731,30 740,30 740,40 731,40 726,35 " id="clusterblast-1_q32_9_23"  />
<polygon style="stroke:black; stroke-width:1; fill:#FFFFFF; " description="unannotated orf[br]Location: 89134 - 91047" locus_tag="CHAFR746836_0014550.1" class="clusterblast-orf" points="761,40 773,40 778,35 773,30 761,30 761,40 " id="clusterblast-1_q32_9_24"  />
</g>
<g class="clusterblast-cluster" description="Microvirga sp. WSM3557 genomic scaffold Micloscaffold 13,..." label="NZ_JH660645.1_c1"  >
<text class="clusterblast-acc" y="60" x="5"  >
NZ_JH660645.1_c1</text>
<text class="clusterblast-desc" y="60" x="460.8"  >
Microvirga sp. WSM3557 genomic scaffold Micloscaffold 13,...</text>
<line y1="85" x2="778.0" style="stroke:grey; stroke-width:1; " x1="10" y2="85"  />
<polygon style="stroke:black; stroke-width:1; fill:#FFFFFF; " description="hypothetical_protein[br]Location: 2356580 - 2358439" locus_tag="MicloDRAFT_00050840" id="clusterblast-1_h32_9_0" points="213,85 218,80 228,80 228,90 218,90 213,85 " class="clusterblast-orf"  />
<polygon style="stroke:black; stroke-width:1; fill:#FFFFFF; " description="Iron-sulfur_cluster_assembly_accessory_protein[br]Location: 2358524 - 2358850" locus_tag="MicloDRAFT_00050850" id="clusterblast-1_h32_9_1" points="229,85 232,80 232,90 229,85 " class="clusterblast-orf"  />
<polygon style="stroke:black; stroke-width:1; fill:#FFFFFF; " description="deoxyguanosinetriphosphate_triphosphohydrolase,[br]Location: 2358945 - 2360153" locus_tag="MicloDRAFT_00050860" id="clusterblast-1_h32_9_2" points="233,90 238,90 243,85 238,80 233,80 233,90 " class="clusterblast-orf"  />
<polygon style="stroke:black; stroke-width:1; fill:#FFFFFF; " description="arginyl-tRNA_synthetase[br]Location: 2360314 - 2362074" locus_tag="MicloDRAFT_00050870" id="clusterblast-1_h32_9_3" points="244,90 254,90 259,85 254,80 244,80 244,90 " class="clusterblast-orf"  />
<polygon style="stroke:black; stroke-width:1; fill:#FFFFFF; " description="sporulation_related_protein[br]Location: 2362181 - 2363584" locus_tag="MicloDRAFT_00050880" id="clusterblast-1_h32_9_4" points="260,90 267,90 272,85 267,80 260,80 260,90 " class="clusterblast-orf"  />
<polygon style="stroke:black; stroke-width:1; fill:#FFFFFF; " description="beta-glucosidase-like_glycosyl_hydrolase[br]Location: 2363643 - 2364662" locus_tag="MicloDRAFT_00050890" id="clusterblast-1_h32_9_5" points="273,90 276,90 281,85 276,80 273,80 273,90 " class="clusterblast-orf"  />
<polygon style="stroke:black; stroke-width:1; fill:#FFFFFF; " description="hypothetical_protein[br]Location: 2364703 - 2365503" locus_tag="MicloDRAFT_00050900" id="clusterblast-1_h32_9_6" points="282,90 284,90 289,85 284,80 282,80 282,90 " class="clusterblast-orf"  />
<polygon style="stroke:black; stroke-width:1; fill:#FFFFFF; " description="segregation_and_condensation_protein_B[br]Location: 2365509 - 2366228" locus_tag="MicloDRAFT_00050910" id="clusterblast-1_h32_9_7" points="289,90 290,90 295,85 290,80 289,80 289,90 " class="clusterblast-orf"  />
<polygon style="stroke:black; stroke-width:1; fill:#FFFFFF; " description="ABC-type_spermidine/putrescine_transport_system,[br]Location: 2366225 - 2367349" locus_tag="MicloDRAFT_00050920" id="clusterblast-1_h32_9_8" points="295,90 299,90 304,85 299,80 295,80 295,90 " class="clusterblast-orf"  />
<polygon style="stroke:black; stroke-width:1; fill:#FFFFFF; " description="twin_arginine-targeting_protein_translocase,[br]Location: 2367407 - 2367652" locus_tag="MicloDRAFT_00050930" id="clusterblast-1_h32_9_9" points="305,90 307,85 305,80 305,90 " class="clusterblast-orf"  />
<polygon style="stroke:black; stroke-width:1; fill:#FFFFFF; " description="twin_arginine-targeting_protein_translocase[br]Location: 2367727 - 2368332" locus_tag="MicloDRAFT_00050940" id="clusterblast-1_h32_9_10" points="308,90 308,90 313,85 308,80 308,80 308,90 " class="clusterblast-orf"  />
<polygon style="stroke:black; stroke-width:1; fill:#FFFFFF; " description="twin_arginine_targeting_protein_translocase[br]Location: 2368329 - 2369132" locus_tag="MicloDRAFT_00050950" id="clusterblast-1_h32_9_11" points="313,90 315,90 320,85 315,80 313,80 313,90 " class="clusterblast-orf"  />
<polygon style="stroke:black; stroke-width:1; fill:#FFFFFF; " description="seryl-tRNA_synthetase[br]Location: 2369235 - 2370596" locus_tag="MicloDRAFT_00050960" id="clusterblast-1_h32_9_12" points="320,90 327,90 332,85 327,80 320,80 320,90 " class="clusterblast-orf"  />
<polygon style="stroke:black; stroke-width:1; fill:#FFFFFF; " description="5''/3''-nucleotidase_SurE[br]Location: 2370598 - 2371362" locus_tag="MicloDRAFT_00050970" id="clusterblast-1_h32_9_13" points="332,90 334,90 339,85 334,80 332,80 332,90 " class="clusterblast-orf"  />
<polygon style="stroke:black; stroke-width:1; fill:#FFFFFF; " description="protein-L-isoaspartate[br]Location: 2371376 - 2372059" locus_tag="MicloDRAFT_00050980" id="clusterblast-1_h32_9_14" points="339,90 339,90 344,85 339,80 339,80 339,90 " class="clusterblast-orf"  />
<polygon style="stroke:black; stroke-width:1; fill:#FFFFFF; " description="metalloendopeptidase-like_membrane_protein[br]Location: 2372176 - 2373261" locus_tag="MicloDRAFT_00050990" id="clusterblast-1_h32_9_15" points="345,90 350,90 355,85 350,80 345,80 345,90 " class="clusterblast-orf"  />
<polygon style="stroke:black; stroke-width:1; fill:#FFFFFF; " description="putative_ATPase_(AAA+_superfamily)[br]Location: 2373349 - 2374224" locus_tag="MicloDRAFT_00051000" id="clusterblast-1_h32_9_16" points="355,85 360,80 363,80 363,90 360,90 355,85 " class="clusterblast-orf"  />
<polygon style="stroke:black; stroke-width:1; fill:#FFFFFF; " description="hypothetical_protein[br]Location: 2374209 - 2374457" locus_tag="MicloDRAFT_00051010" id="clusterblast-1_h32_9_17" points="363,85 365,80 365,90 363,85 " class="clusterblast-orf"  />
<polygon style="stroke:black; stroke-width:1; fill:#FFFFFF; " description="preprotein_translocase,_YajC_subunit[br]Location: 2374504 - 2374782" locus_tag="MicloDRAFT_00051020" id="clusterblast-1_h32_9_18" points="365,90 368,85 365,80 365,90 " class="clusterblast-orf"  />
<polygon style="stroke:black; stroke-width:1; fill:#FFFFFF; " description="protein-export_membrane_protein,_SecD/SecF[br]Location: 2374875 - 2376482" locus_tag="MicloDRAFT_00051030" id="clusterblast-1_h32_9_19" points="368,90 377,90 382,85 377,80 368,80 368,90 " class="clusterblast-orf"  />
<polygon style="stroke:black; stroke-width:1; fill:#FFFFFF; " description="protein-export_membrane_protein,_SecD/SecF[br]Location: 2376495 - 2377433" locus_tag="MicloDRAFT_00051040" id="clusterblast-1_h32_9_20" points="382,90 385,90 390,85 385,80 382,80 382,90 " class="clusterblast-orf"  />
<polygon style="stroke:black; stroke-width:1; fill:#FFFFFF; " description="hypothetical_protein[br]Location: 2377439 - 2377825" locus_tag="MicloDRAFT_00051050" id="clusterblast-1_h32_9_21" points="390,90 394,85 390,80 390,90 " class="clusterblast-orf"  />
<polygon style="stroke:black; stroke-width:1; fill:#FFFFFF; " description="phytoene/squalene_synthetase[br]Location: 2377827 - 2378669" locus_tag="MicloDRAFT_00051060" id="clusterblast-1_h32_9_22" points="394,90 396,90 401,85 396,80 394,80 394,90 " class="clusterblast-orf"  />
<polygon style="stroke:black; stroke-width:1; fill:#FFFFFF; " description="hypothetical_protein[br]Location: 2378701 - 2378925" locus_tag="MicloDRAFT_00051070" id="clusterblast-1_h32_9_23" points="401,85 403,80 403,90 401,85 " class="clusterblast-orf"  />
<polygon style="stroke:black; stroke-width:1; fill:#FFFFFF; " description="tRNA:m(5)U-54_methyltransferase[br]Location: 2379075 - 2380493" locus_tag="MicloDRAFT_00051080" id="clusterblast-1_h32_9_24" points="404,85 409,80 416,80 416,90 409,90 404,85 " class="clusterblast-orf"  />
<polygon style="stroke:black; stroke-width:1; fill:rgb(169,169,42); " description="dehydrogenase_of_unknown_specificity[br]Location: 2380692 - 2381450&lt;br&gt;&lt;br&gt;&lt;b&gt;BlastP hit with CHAFR746836_0014400.1&lt;/b&gt;&lt;br&gt;Percentage identity: 33%&lt;br&gt;Percentage coverage: 37%&lt;br&gt;BLAST bit score: 52&lt;br&gt;E-value: 1e-06" locus_tag="MicloDRAFT_00051090" id="clusterblast-1_h32_9_25" points="418,90 420,90 425,85 420,80 418,80 418,90 " class="clusterblast-orf"  />
<polygon style="stroke:black; stroke-width:1; fill:#FFFFFF; " description="uncharacterized_small_protein[br]Location: 2381530 - 2381685" locus_tag="MicloDRAFT_00051100" id="clusterblast-1_h32_9_26" points="425,85 427,80 427,90 425,85 " class="clusterblast-orf"  />
<polygon style="stroke:black; stroke-width:1; fill:#FFFFFF; " description="putative_calcium-binding_protein[br]Location: 2381983 - 2382867" locus_tag="MicloDRAFT_00051110" id="clusterblast-1_h32_9_27" points="429,85 434,80 437,80 437,90 434,90 429,85 " class="clusterblast-orf"  />
<polygon style="stroke:black; stroke-width:1; fill:#FFFFFF; " description="hypothetical_protein[br]Location: 2383157 - 2383984" locus_tag="MicloDRAFT_00051120" id="clusterblast-1_h32_9_28" points="439,90 441,90 446,85 441,80 439,80 439,90 " class="clusterblast-orf"  />
<polygon style="stroke:black; stroke-width:1; fill:#FFFFFF; " description="hypothetical_protein[br]Location: 2384065 - 2384385" locus_tag="MicloDRAFT_00051130" id="clusterblast-1_h32_9_29" points="447,90 450,85 447,80 447,90 " class="clusterblast-orf"  />
<polygon style="stroke:black; stroke-width:1; fill:#FFFFFF; " description="Porin_subfamily[br]Location: 2384576 - 2384860" locus_tag="MicloDRAFT_00051140" id="clusterblast-1_h32_9_30" points="451,85 454,80 454,90 451,85 " class="clusterblast-orf"  />
<polygon style="stroke:black; stroke-width:1; fill:#FFFFFF; " description="putative_membrane_protein[br]Location: 2384919 - 2385470" locus_tag="MicloDRAFT_00051150" id="clusterblast-1_h32_9_31" points="454,85 459,80 459,80 459,90 459,90 454,85 " class="clusterblast-orf"  />
<polygon style="stroke:black; stroke-width:1; fill:#FFFFFF; " description="diguanylate_cyclase_(GGDEF)_domain-containing[br]Location: 2385678 - 2386802" locus_tag="MicloDRAFT_00051160" id="clusterblast-1_h32_9_32" points="461,90 465,90 470,85 465,80 461,80 461,90 " class="clusterblast-orf"  />
<polygon style="stroke:black; stroke-width:1; fill:#FFFFFF; " description="hypothetical_protein[br]Location: 2386944 - 2387159" locus_tag="MicloDRAFT_00051170" id="clusterblast-1_h32_9_33" points="471,90 473,85 471,80 471,90 " class="clusterblast-orf"  />
<polygon style="stroke:black; stroke-width:1; fill:#FFFFFF; " description="hypothetical_protein[br]Location: 2387242 - 2387454" locus_tag="MicloDRAFT_00051180" id="clusterblast-1_h32_9_34" points="474,90 476,85 474,80 474,90 " class="clusterblast-orf"  />
<polygon style="stroke:black; stroke-width:1; fill:#FFFFFF; " description="hypothetical_protein[br]Location: 2387630 - 2388082" locus_tag="MicloDRAFT_00051190" id="clusterblast-1_h32_9_35" points="477,90 481,85 477,80 477,90 " class="clusterblast-orf"  />
<polygon style="stroke:black; stroke-width:1; fill:#FFFFFF; " description="hypothetical_protein[br]Location: 2388167 - 2388394" locus_tag="MicloDRAFT_00051200" id="clusterblast-1_h32_9_36" points="482,90 484,85 482,80 482,90 " class="clusterblast-orf"  />
<polygon style="stroke:black; stroke-width:1; fill:#FFFFFF; " description="hypothetical_protein[br]Location: 2388611 - 2389471" locus_tag="MicloDRAFT_00051210" id="clusterblast-1_h32_9_37" points="486,90 488,90 493,85 488,80 486,80 486,90 " class="clusterblast-orf"  />
<polygon style="stroke:black; stroke-width:1; fill:rgb(169,42,212); " description="methylase_involved_in_ubiquinone/menaquinone[br]Location: 2389650 - 2390459&lt;br&gt;&lt;br&gt;&lt;b&gt;BlastP hit with CHAFR746836_0014500.1&lt;/b&gt;&lt;br&gt;Percentage identity: 31%&lt;br&gt;Percentage coverage: 41%&lt;br&gt;BLAST bit score: 52&lt;br&gt;E-value: 1e-06" locus_tag="MicloDRAFT_00051220" id="clusterblast-1_h32_9_38" points="494,85 499,80 501,80 501,90 499,90 494,85 " class="clusterblast-orf"  />
<polygon style="stroke:black; stroke-width:1; fill:#FFFFFF; " description="hypothetical_protein[br]Location: 2390692 - 2391468" locus_tag="MicloDRAFT_00051230" id="clusterblast-1_h32_9_39" points="503,90 505,90 510,85 505,80 503,80 503,90 " class="clusterblast-orf"  />
<polygon style="stroke:black; stroke-width:1; fill:#FFFFFF; " description="2-nitropropane_dioxygenase-like_enzyme[br]Location: 2391501 - 2392571" locus_tag="MicloDRAFT_00051240" id="clusterblast-1_h32_9_40" points="510,90 514,90 519,85 514,80 510,80 510,90 " class="clusterblast-orf"  />
<polygon style="stroke:black; stroke-width:1; fill:#FFFFFF; " description="excinuclease_ABC,_A_subunit[br]Location: 2392585 - 2395566" locus_tag="MicloDRAFT_00051250" id="clusterblast-1_h32_9_41" points="519,85 524,80 545,80 545,90 524,90 519,85 " class="clusterblast-orf"  />
<polygon style="stroke:black; stroke-width:1; fill:#FFFFFF; " description="hypothetical_protein[br]Location: 2395876 - 2396223" locus_tag="MicloDRAFT_00051260" id="clusterblast-1_h32_9_42" points="548,90 550,85 548,80 548,90 " class="clusterblast-orf"  />
<polygon style="stroke:black; stroke-width:1; fill:#FFFFFF; " description="single_stranded_DNA-binding_protein[br]Location: 2396358 - 2396897" locus_tag="MicloDRAFT_00051270" id="clusterblast-1_h32_9_43" points="552,90 556,85 552,80 552,90 " class="clusterblast-orf"  />
<polygon style="stroke:black; stroke-width:1; fill:#FFFFFF; " description="hypothetical_protein[br]Location: 2397208 - 2397546" locus_tag="MicloDRAFT_00051280" id="clusterblast-1_h32_9_44" points="559,85 562,80 562,90 559,85 " class="clusterblast-orf"  />
<polygon style="stroke:black; stroke-width:1; fill:#FFFFFF; " description="acetylornithine[br]Location: 2397698 - 2398816" locus_tag="MicloDRAFT_00051290" id="clusterblast-1_h32_9_45" points="563,90 568,90 573,85 568,80 563,80 563,90 " class="clusterblast-orf"  />
</g>
</svg>
