<svg xmlns="http://www.w3.org/2000/svg" height="230" width="800" version="1.1" y="0" x="0" preserveAspectRatio="none" xmlns:xlink="http://www.w3.org/1999/xlink" viewBox="0 0 800 230"  >
<g class="clusterblast-cluster" label="Query sequence"  >
<text class="clusterblast-acc" y="10" x="5"  >
Query sequence</text>
<line y1="35" x2="778.0" style="stroke:grey; stroke-width:1; " x1="10" y2="35"  />
<polygon style="stroke:black; stroke-width:1; fill:#FFFFFF; " description="unannotated orf[br]Location: 26332 - 27454" locus_tag="CHAFR746836_0031510.1" class="clusterblast-orf" points="99,35 104,30 109,30 109,40 104,40 99,35 " id="clusterblast-1_q43_5_0"  />
<polygon style="stroke:black; stroke-width:1; fill:#FFFFFF; " description="unannotated orf[br]Location: 28016 - 30730" locus_tag="CHAFR746836_0031520.1" class="clusterblast-orf" points="114,35 119,30 139,30 139,40 119,40 114,35 " id="clusterblast-1_q43_5_1"  />
<polygon style="stroke:black; stroke-width:1; fill:rgb(190,63,63); " description="unannotated orf[br]Location: 32876 - 35300" locus_tag="CHAFR746836_0031530.1" class="clusterblast-orf" points="159,35 164,30 181,30 181,40 164,40 159,35 " id="clusterblast-1_q43_5_2"  />
<polygon style="stroke:black; stroke-width:1; fill:#FFFFFF; " description="unannotated orf[br]Location: 36022 - 38283" locus_tag="CHAFR746836_0031540.1" class="clusterblast-orf" points="188,35 193,30 208,30 208,40 193,40 188,35 " id="clusterblast-1_q43_5_3"  />
<polygon style="stroke:black; stroke-width:1; fill:#FFFFFF; " description="unannotated orf[br]Location: 39348 - 40508" locus_tag="CHAFR746836_0031550.1" class="clusterblast-orf" points="218,35 223,30 229,30 229,40 223,40 218,35 " id="clusterblast-1_q43_5_4"  />
<polygon style="stroke:black; stroke-width:1; fill:rgb(63,63,190); " description="unannotated orf[br]Location: 41047 - 43006" locus_tag="CHAFR746836_0031560.1" class="clusterblast-orf" points="234,40 247,40 252,35 247,30 234,30 234,40 " id="clusterblast-1_q43_5_5"  />
<polygon style="stroke:black; stroke-width:1; fill:rgb(63,190,63); " description="unannotated orf[br]Location: 43610 - 45501" locus_tag="CHAFR746836_0031570.1" class="clusterblast-orf" points="257,35 262,30 275,30 275,40 262,40 257,35 " id="clusterblast-1_q43_5_6"  />
<polygon style="stroke:black; stroke-width:1; fill:#FFFFFF; " description="unannotated orf[br]Location: 45774 - 47650" locus_tag="CHAFR746836_0031580.1" class="clusterblast-orf" points="277,40 290,40 295,35 290,30 277,30 277,40 " id="clusterblast-1_q43_5_7"  />
<polygon style="stroke:black; stroke-width:1; fill:#FFFFFF; " description="unannotated orf[br]Location: 50384 - 51212" locus_tag="CHAFR746836_0031590.1" class="clusterblast-orf" points="320,40 322,40 327,35 322,30 320,30 320,40 " id="clusterblast-1_q43_5_8"  />
<polygon style="stroke:black; stroke-width:1; fill:#FFFFFF; " description="unannotated orf[br]Location: 51638 - 52722" locus_tag="CHAFR746836_0031600.1" class="clusterblast-orf" points="331,35 336,30 341,30 341,40 336,40 331,35 " id="clusterblast-1_q43_5_9"  />
<polygon style="stroke:black; stroke-width:1; fill:rgb(190,63,190); " description="unannotated orf[br]Location: 53244 - 55045" locus_tag="CHAFR746836_0031610.1" class="clusterblast-orf" points="346,40 358,40 363,35 358,30 346,30 346,40 " id="clusterblast-1_q43_5_10"  />
<polygon style="stroke:black; stroke-width:1; fill:#FFFFFF; " description="unannotated orf[br]Location: 55388 - 56607" locus_tag="CHAFR746836_0031620.1" class="clusterblast-orf" points="366,35 371,30 377,30 377,40 371,40 366,35 " id="clusterblast-1_q43_5_11"  />
<polygon style="stroke:black; stroke-width:1; fill:rgb(190,190,63); " description="unannotated orf[br]Location: 57102 - 59186" locus_tag="CHAFR746836_0031630.1" class="clusterblast-orf" points="381,40 396,40 401,35 396,30 381,30 381,40 " id="clusterblast-1_q43_5_12"  />
<polygon style="stroke:black; stroke-width:1; fill:#FFFFFF; " description="unannotated orf[br]Location: 62747 - 63923" locus_tag="CHAFR746836_0031640.1" class="clusterblast-orf" points="433,35 438,30 444,30 444,40 438,40 433,35 " id="clusterblast-1_q43_5_13"  />
<polygon style="stroke:black; stroke-width:1; fill:rgb(190,190,190); " description="unannotated orf[br]Location: 89457 - 90423" locus_tag="CHAFR746836_0031650.1" class="clusterblast-orf" points="679,35 684,30 688,30 688,40 684,40 679,35 " id="clusterblast-1_q43_5_14"  />
</g>
<g class="clusterblast-cluster" description="Burkholderia gladioli BSR3 chromosome chromosome 2, complet..." label="NC_015376.1_c6"  >
<text class="clusterblast-acc" y="60" x="5"  >
NC_015376.1_c6</text>
<text class="clusterblast-desc" y="60" x="460.8"  >
Burkholderia gladioli BSR3 chromosome chromosome 2, complet...</text>
<line y1="85" x2="778.0" style="stroke:grey; stroke-width:1; " x1="10" y2="85"  />
<polygon style="stroke:black; stroke-width:1; fill:#FFFFFF; " description="Ferric_uptake_regulator,_Fur_family_protein[br]Location: 2102851 - 2103336" locus_tag="bgla_2g16710" id="clusterblast-1_h43_5_0" points="10,85 14,80 14,90 10,85 " class="clusterblast-orf"  />
<polygon style="stroke:black; stroke-width:1; fill:#FFFFFF; " description="Nitroreductase[br]Location: 2103587 - 2104210" locus_tag="bgla_2g16720" id="clusterblast-1_h43_5_1" points="16,90 17,90 22,85 17,80 16,80 16,90 " class="clusterblast-orf"  />
<polygon style="stroke:black; stroke-width:1; fill:#FFFFFF; " description="ABC_transporter_ATP-binding_protein[br]Location: 2104268 - 2106004" locus_tag="bgla_2g16730" id="clusterblast-1_h43_5_2" points="23,85 28,80 38,80 38,90 28,90 23,85 " class="clusterblast-orf"  />
<polygon style="stroke:black; stroke-width:1; fill:#FFFFFF; " description="hypothetical_protein[br]Location: 2106462 - 2106731" locus_tag="bgla_2g16740" id="clusterblast-1_h43_5_3" points="43,90 45,85 43,80 43,90 " class="clusterblast-orf"  />
<polygon style="stroke:black; stroke-width:1; fill:#FFFFFF; " description="Coenzyme_A_transferase[br]Location: 2107078 - 2108592" locus_tag="bgla_2g16750" id="clusterblast-1_h43_5_4" points="48,85 53,80 62,80 62,90 53,90 48,85 " class="clusterblast-orf"  />
<polygon style="stroke:black; stroke-width:1; fill:#FFFFFF; " description="gamma-glutamyltransferase[br]Location: 2109019 - 2111013" locus_tag="bgla_2g16760" id="clusterblast-1_h43_5_5" points="66,90 80,90 85,85 80,80 66,80 66,90 " class="clusterblast-orf"  />
<polygon style="stroke:black; stroke-width:1; fill:#FFFFFF; " description="Bifunctional_reductase[br]Location: 2111133 - 2115326" locus_tag="bgla_2g16770" id="clusterblast-1_h43_5_6" points="86,85 91,80 124,80 124,90 91,90 86,85 " class="clusterblast-orf"  />
<polygon style="stroke:black; stroke-width:1; fill:#FFFFFF; " description="Nitrite_reductase,_small_subunit[br]Location: 2115387 - 2115761" locus_tag="bgla_2g16780" id="clusterblast-1_h43_5_7" points="125,85 128,80 128,90 125,85 " class="clusterblast-orf"  />
<polygon style="stroke:black; stroke-width:1; fill:#FFFFFF; " description="Nitrite_reductase,_large_subunit[br]Location: 2115798 - 2118353" locus_tag="bgla_2g16790" id="clusterblast-1_h43_5_8" points="129,85 134,80 152,80 152,90 134,90 129,85 " class="clusterblast-orf"  />
<polygon style="stroke:black; stroke-width:1; fill:#FFFFFF; " description="Nitrate_transporter,_putative[br]Location: 2118364 - 2119686" locus_tag="bgla_2g16800" id="clusterblast-1_h43_5_9" points="152,85 157,80 164,80 164,90 157,90 152,85 " class="clusterblast-orf"  />
<polygon style="stroke:black; stroke-width:1; fill:#FFFFFF; " description="Uroporphyrin-III_C-methyltransferase[br]Location: 2120309 - 2121091" locus_tag="bgla_2g16810" id="clusterblast-1_h43_5_10" points="170,90 172,90 177,85 172,80 170,80 170,90 " class="clusterblast-orf"  />
<polygon style="stroke:black; stroke-width:1; fill:#FFFFFF; " description="Response_regulator_NasT[br]Location: 2121185 - 2121796" locus_tag="bgla_2g16820" id="clusterblast-1_h43_5_11" points="178,90 179,90 184,85 179,80 178,80 178,90 " class="clusterblast-orf"  />
<polygon style="stroke:black; stroke-width:1; fill:#FFFFFF; " description="nitrate_transporter_component[br]Location: 2121793 - 2122848" locus_tag="bgla_2g16830" id="clusterblast-1_h43_5_12" points="184,90 188,90 193,85 188,80 184,80 184,90 " class="clusterblast-orf"  />
<polygon style="stroke:black; stroke-width:1; fill:#FFFFFF; " description="Linear_gramicidin_synthetase_subunit_D[br]Location: 2123056 - 2130957" locus_tag="bgla_2g16840" id="clusterblast-1_h43_5_13" points="195,85 200,80 268,80 268,90 200,90 195,85 " class="clusterblast-orf"  />
<polygon style="stroke:black; stroke-width:1; fill:#FFFFFF; " description="Probable_non-ribosomal_peptide_synthetase[br]Location: 2130966 - 2139497" locus_tag="bgla_2g16850" id="clusterblast-1_h43_5_14" points="268,85 273,80 347,80 347,90 273,90 268,85 " class="clusterblast-orf"  />
<polygon style="stroke:black; stroke-width:1; fill:#FFFFFF; " description="hypothetical_protein[br]Location: 2139636 - 2140706" locus_tag="bgla_2g16860" id="clusterblast-1_h43_5_15" points="348,85 353,80 358,80 358,90 353,90 348,85 " class="clusterblast-orf"  />
<polygon style="stroke:black; stroke-width:1; fill:#FFFFFF; " description="Cupin_2_protein[br]Location: 2140800 - 2142242" locus_tag="bgla_2g16870" id="clusterblast-1_h43_5_16" points="358,85 363,80 372,80 372,90 363,90 358,85 " class="clusterblast-orf"  />
<polygon style="stroke:black; stroke-width:1; fill:#FFFFFF; " description="Outer_membrane_receptor_for_ferric_coprogen_and[br]Location: 2142793 - 2144961" locus_tag="bgla_2g16880" id="clusterblast-1_h43_5_17" points="377,85 382,80 397,80 397,90 382,90 377,85 " class="clusterblast-orf"  />
<polygon style="stroke:black; stroke-width:1; fill:#FFFFFF; " description="Transport_system_permease_protein[br]Location: 2145571 - 2147583" locus_tag="bgla_2g16890" id="clusterblast-1_h43_5_18" points="402,85 407,80 421,80 421,90 407,90 402,85 " class="clusterblast-orf"  />
<polygon style="stroke:black; stroke-width:1; fill:#FFFFFF; " description="ABC-type_Fe3_-hydroxamate_transport_system,[br]Location: 2147588 - 2148619" locus_tag="bgla_2g16900" id="clusterblast-1_h43_5_19" points="421,85 426,80 430,80 430,90 426,90 421,85 " class="clusterblast-orf"  />
<polygon style="stroke:black; stroke-width:1; fill:#FFFFFF; " description="ferrichrome_ABC_transporter,_ATP-binding[br]Location: 2148616 - 2149410" locus_tag="bgla_2g16910" id="clusterblast-1_h43_5_20" points="430,85 435,80 438,80 438,90 435,90 430,85 " class="clusterblast-orf"  />
<polygon style="stroke:black; stroke-width:1; fill:#FFFFFF; " description="peptide_synthase[br]Location: 2149475 - 2155153" locus_tag="bgla_2g16920" id="clusterblast-1_h43_5_21" points="438,85 443,80 490,80 490,90 443,90 438,85 " class="clusterblast-orf"  />
<polygon style="stroke:black; stroke-width:1; fill:#FFFFFF; " description="PvdI[br]Location: 2155182 - 2166245" locus_tag="bgla_2g16930" id="clusterblast-1_h43_5_22" points="491,85 496,80 592,80 592,90 496,90 491,85 " class="clusterblast-orf"  />
<polygon style="stroke:black; stroke-width:1; fill:#FFFFFF; " description="SyrP_protein,_putative[br]Location: 2166362 - 2167360" locus_tag="bgla_2g16940" id="clusterblast-1_h43_5_23" points="594,85 599,80 603,80 603,90 599,90 594,85 " class="clusterblast-orf"  />
<polygon style="stroke:black; stroke-width:1; fill:#FFFFFF; " description="Putative_thioesterase[br]Location: 2167348 - 2168166" locus_tag="bgla_2g16950" id="clusterblast-1_h43_5_24" points="603,85 608,80 610,80 610,90 608,90 603,85 " class="clusterblast-orf"  />
<polygon style="stroke:black; stroke-width:1; fill:#FFFFFF; " description="MbtH_domain_protein[br]Location: 2168170 - 2168394" locus_tag="bgla_2g16960" id="clusterblast-1_h43_5_25" points="610,85 612,80 612,90 610,85 " class="clusterblast-orf"  />
<polygon style="stroke:black; stroke-width:1; fill:#FFFFFF; " description="hypothetical_protein[br]Location: 2168926 - 2169759" locus_tag="bgla_2g16970" id="clusterblast-1_h43_5_26" points="617,90 620,90 625,85 620,80 617,80 617,90 " class="clusterblast-orf"  />
<polygon style="stroke:black; stroke-width:1; fill:#FFFFFF; " description="hypothetical_protein[br]Location: 2170037 - 2170795" locus_tag="bgla_2g16980" id="clusterblast-1_h43_5_27" points="627,90 629,90 634,85 629,80 627,80 627,90 " class="clusterblast-orf"  />
<polygon style="stroke:black; stroke-width:1; fill:#FFFFFF; " description="methyl-accepting_chemotaxis_sensory_transducer[br]Location: 2171425 - 2173011" locus_tag="bgla_2g16990" id="clusterblast-1_h43_5_28" points="640,90 650,90 655,85 650,80 640,80 640,90 " class="clusterblast-orf"  />
<polygon style="stroke:black; stroke-width:1; fill:#FFFFFF; " description="DNA-binding_transcriptional_regulator_CynR[br]Location: 2173081 - 2174016" locus_tag="bgla_2g17000" id="clusterblast-1_h43_5_29" points="655,85 660,80 664,80 664,90 660,90 655,85 " class="clusterblast-orf"  />
<polygon style="stroke:black; stroke-width:1; fill:#FFFFFF; " description="carbonic_anhydrase[br]Location: 2174137 - 2174796" locus_tag="bgla_2g17010" id="clusterblast-1_h43_5_30" points="665,90 666,90 671,85 666,80 665,80 665,90 " class="clusterblast-orf"  />
<polygon style="stroke:black; stroke-width:1; fill:#FFFFFF; " description="cyanate_hydratase[br]Location: 2174863 - 2175333" locus_tag="bgla_2g17020" id="clusterblast-1_h43_5_31" points="672,90 676,85 672,80 672,90 " class="clusterblast-orf"  />
<polygon style="stroke:black; stroke-width:1; fill:#FFFFFF; " description="putative_aliphatic_sulfonates_binding_protein[br]Location: 2175368 - 2176405" locus_tag="bgla_2g17030" id="clusterblast-1_h43_5_32" points="676,85 681,80 686,80 686,90 681,90 676,85 " class="clusterblast-orf"  />
<polygon style="stroke:black; stroke-width:1; fill:#FFFFFF; " description="hypothetical_protein[br]Location: 2176696 - 2177025" locus_tag="bgla_2g17040" id="clusterblast-1_h43_5_33" points="689,90 692,85 689,80 689,90 " class="clusterblast-orf"  />
<polygon style="stroke:black; stroke-width:1; fill:#FFFFFF; " description="hypothetical_protein[br]Location: 2177258 - 2178265" locus_tag="bgla_2g17050" id="clusterblast-1_h43_5_34" points="694,85 699,80 703,80 703,90 699,90 694,85 " class="clusterblast-orf"  />
<polygon style="stroke:black; stroke-width:1; fill:#FFFFFF; " description="alcohol_dehydrogenase_zinc-binding[br]Location: 2178506 - 2179015" locus_tag="bgla_2g17060" id="clusterblast-1_h43_5_35" points="705,85 710,80 710,80 710,90 710,90 705,85 " class="clusterblast-orf"  />
<polygon style="stroke:black; stroke-width:1; fill:rgb(190,63,190); " description="MFS_transporter[br]Location: 2179319 - 2180719&lt;br&gt;&lt;br&gt;&lt;b&gt;BlastP hit with CHAFR746836_0031610.1&lt;/b&gt;&lt;br&gt;Percentage identity: 31%&lt;br&gt;Percentage coverage: 27%&lt;br&gt;BLAST bit score: 63&lt;br&gt;E-value: 2e-09" locus_tag="bgla_2g17070" id="clusterblast-1_h43_5_36" points="713,90 721,90 726,85 721,80 713,80 713,90 " class="clusterblast-orf"  />
<polygon style="stroke:black; stroke-width:1; fill:#FFFFFF; " description="Na+/H+-dicarboxylate_symporter[br]Location: 2180837 - 2182216" locus_tag="bgla_2g17080" id="clusterblast-1_h43_5_37" points="727,85 732,80 739,80 739,90 732,90 727,85 " class="clusterblast-orf"  />
<polygon style="stroke:black; stroke-width:1; fill:rgb(190,63,63); " description="3-isopropylmalate_dehydratase[br]Location: 2182362 - 2183000&lt;br&gt;&lt;br&gt;&lt;b&gt;BlastP hit with CHAFR746836_0031530.1&lt;/b&gt;&lt;br&gt;Percentage identity: 37%&lt;br&gt;Percentage coverage: 26%&lt;br&gt;BLAST bit score: 133&lt;br&gt;E-value: 1e-33" locus_tag="bgla_2g17090" id="clusterblast-1_h43_5_38" points="741,85 746,80 747,80 747,90 746,90 741,85 " class="clusterblast-orf"  />
<polygon style="stroke:black; stroke-width:1; fill:rgb(190,63,63); " description="3-isopropylmalate_dehydratase,_large_subunit[br]Location: 2183002 - 2184408&lt;br&gt;&lt;br&gt;&lt;b&gt;BlastP hit with CHAFR746836_0031530.1&lt;/b&gt;&lt;br&gt;Percentage identity: 48%&lt;br&gt;Percentage coverage: 61%&lt;br&gt;BLAST bit score: 445&lt;br&gt;E-value: 8e-147" locus_tag="bgla_2g17100" id="clusterblast-1_h43_5_39" points="747,85 752,80 760,80 760,90 752,90 747,85 " class="clusterblast-orf"  />
<polygon style="stroke:black; stroke-width:1; fill:#FFFFFF; " description="alpha/beta_hydrolase_fold_protein[br]Location: 2184472 - 2185350" locus_tag="bgla_2g17110" id="clusterblast-1_h43_5_40" points="760,85 765,80 768,80 768,90 765,90 760,85 " class="clusterblast-orf"  />
<polygon style="stroke:black; stroke-width:1; fill:#FFFFFF; " description="transcriptional_regulator,_LysR_family[br]Location: 2185439 - 2186362" locus_tag="bgla_2g17120" id="clusterblast-1_h43_5_41" points="769,90 773,90 778,85 773,80 769,80 769,90 " class="clusterblast-orf"  />
</g>
</svg>
