<svg xmlns="http://www.w3.org/2000/svg" height="230" width="800" version="1.1" y="0" x="0" preserveAspectRatio="none" xmlns:xlink="http://www.w3.org/1999/xlink" viewBox="0 0 800 230"  >
<g class="clusterblast-cluster" label="Query sequence"  >
<text class="clusterblast-acc" y="10" x="5"  >
Query sequence</text>
<line y1="35" x2="778.0" style="stroke:grey; stroke-width:1; " x1="10" y2="35"  />
<polygon style="stroke:black; stroke-width:1; fill:#FFFFFF; " description="unannotated orf[br]Location: 215284 - 216006" locus_tag="CHAFR746836_0067220.1" class="clusterblast-orf" points="211,40 213,40 218,35 213,30 211,30 211,40 " id="clusterblast-1_q7_7_0"  />
<polygon style="stroke:black; stroke-width:1; fill:#FFFFFF; " description="unannotated orf[br]Location: 224693 - 224914" locus_tag="CHAFR746836_0067230.1" class="clusterblast-orf" points="312,35 315,30 315,40 312,35 " id="clusterblast-1_q7_7_1"  />
<polygon style="stroke:black; stroke-width:1; fill:red; " description="unannotated orf[br]Location: 228611 - 236326" locus_tag="CHAFR746836_0067240.1" class="clusterblast-orf" points="354,35 359,30 438,30 438,40 359,40 354,35 " id="clusterblast-1_q7_7_2"  />
<polygon style="stroke:black; stroke-width:1; fill:green; " description="unannotated orf[br]Location: 237740 - 238731" locus_tag="CHAFR746836_0067250.1" class="clusterblast-orf" points="453,40 459,40 464,35 459,30 453,30 453,40 " id="clusterblast-1_q7_7_3"  />
<polygon style="stroke:black; stroke-width:1; fill:blue; " description="unannotated orf[br]Location: 238911 - 240394" locus_tag="CHAFR746836_0067260.1" class="clusterblast-orf" points="466,35 471,30 482,30 482,40 471,40 466,35 " id="clusterblast-1_q7_7_4"  />
<polygon style="stroke:black; stroke-width:1; fill:yellow; " description="unannotated orf[br]Location: 240782 - 242473" locus_tag="CHAFR746836_0067270.1" class="clusterblast-orf" points="486,35 491,30 504,30 504,40 491,40 486,35 " id="clusterblast-1_q7_7_5"  />
<polygon style="stroke:black; stroke-width:1; fill:#FFFFFF; " description="unannotated orf[br]Location: 242970 - 243933" locus_tag="CHAFR746836_0067280.1" class="clusterblast-orf" points="510,40 515,40 520,35 515,30 510,30 510,40 " id="clusterblast-1_q7_7_6"  />
<polygon style="stroke:black; stroke-width:1; fill:#FFFFFF; " description="unannotated orf[br]Location: 244594 - 245945" locus_tag="CHAFR746836_0067290.1" class="clusterblast-orf" points="527,40 537,40 542,35 537,30 527,30 527,40 " id="clusterblast-1_q7_7_7"  />
<polygon style="stroke:black; stroke-width:1; fill:#FFFFFF; " description="unannotated orf[br]Location: 246456 - 248994" locus_tag="CHAFR746836_0067300.1" class="clusterblast-orf" points="547,40 570,40 575,35 570,30 547,30 547,40 " id="clusterblast-1_q7_7_8"  />
</g>
<g class="clusterblast-cluster" description="Glomerella graminicola M1.001 genomic scaffold supercont1.87..." label="GG697417.1_c1"  >
<text class="clusterblast-acc" y="60" x="5"  >
GG697417.1_c1</text>
<text class="clusterblast-desc" y="60" x="460.8"  >
Glomerella graminicola M1.001 genomic scaffold supercont1.87...</text>
<line y1="85" x2="778.0" style="stroke:grey; stroke-width:1; " x1="10" y2="85"  />
<polygon style="stroke:black; stroke-width:1; fill:#FFFFFF; " description="hypothetical_protein[br]Location: 74594 - 75450" locus_tag="GLRG_11442" id="clusterblast-1_h7_7_0" points="10,90 14,90 19,85 14,80 10,80 10,90 " class="clusterblast-orf"  />
<polygon style="stroke:black; stroke-width:1; fill:#FFFFFF; " description="hypothetical_protein[br]Location: 73093 - 73794" locus_tag="GLRG_11441" id="clusterblast-1_h7_7_1" points="27,90 30,90 35,85 30,80 27,80 27,90 " class="clusterblast-orf"  />
<polygon style="stroke:black; stroke-width:1; fill:#FFFFFF; " description="hypothetical_protein[br]Location: 68758 - 69467" locus_tag="GLRG_11440" id="clusterblast-1_h7_7_2" points="74,90 77,90 82,85 77,80 74,80 74,90 " class="clusterblast-orf"  />
<polygon style="stroke:black; stroke-width:1; fill:green; " description="short_chain_dehydrogenase[br]Location: 66252 - 67464&lt;br&gt;&lt;br&gt;&lt;b&gt;BlastP hit with CHAFR746836_0067250.1&lt;/b&gt;&lt;br&gt;Percentage identity: 48%&lt;br&gt;Percentage coverage: 94%&lt;br&gt;BLAST bit score: 281&lt;br&gt;E-value: 7e-92" locus_tag="GLRG_11439" id="clusterblast-1_h7_7_3" points="96,90 104,90 109,85 104,80 96,80 96,90 " class="clusterblast-orf"  />
<polygon style="stroke:black; stroke-width:1; fill:#FFFFFF; " description="capsule_polysaccharide_biosynthesis_protein[br]Location: 64203 - 65486" locus_tag="GLRG_11438" id="clusterblast-1_h7_7_4" points="117,85 122,80 131,80 131,90 122,90 117,85 " class="clusterblast-orf"  />
<polygon style="stroke:black; stroke-width:1; fill:#FFFFFF; " description="ABC_transporter[br]Location: 59137 - 63440" locus_tag="GLRG_11437" id="clusterblast-1_h7_7_5" points="139,90 181,90 186,85 181,80 139,80 139,90 " class="clusterblast-orf"  />
<polygon style="stroke:black; stroke-width:1; fill:#FFFFFF; " description="hypothetical_protein[br]Location: 56434 - 58006" locus_tag="GLRG_11436" id="clusterblast-1_h7_7_6" points="198,90 210,90 215,85 210,80 198,80 198,90 " class="clusterblast-orf"  />
<polygon style="stroke:black; stroke-width:1; fill:red; " description="KR_domain-containing_protein[br]Location: 47802 - 55788&lt;br&gt;&lt;br&gt;&lt;b&gt;BlastP hit with CHAFR746836_0067240.1&lt;/b&gt;&lt;br&gt;Percentage identity: 44%&lt;br&gt;Percentage coverage: 101%&lt;br&gt;BLAST bit score: 2066&lt;br&gt;E-value: 0.0" locus_tag="GLRG_11435" id="clusterblast-1_h7_7_7" points="222,85 227,80 308,80 308,90 227,90 222,85 " class="clusterblast-orf"  />
<polygon style="stroke:black; stroke-width:1; fill:#FFFFFF; " description="hypothetical_protein[br]Location: 42899 - 45599" locus_tag="GLRG_11434" id="clusterblast-1_h7_7_8" points="332,90 356,90 361,85 356,80 332,80 332,90 " class="clusterblast-orf"  />
<polygon style="stroke:black; stroke-width:1; fill:blue; " description="aminotransferase_class_I_and_II[br]Location: 40525 - 42061&lt;br&gt;&lt;br&gt;&lt;b&gt;BlastP hit with CHAFR746836_0067260.1&lt;/b&gt;&lt;br&gt;Percentage identity: 46%&lt;br&gt;Percentage coverage: 97%&lt;br&gt;BLAST bit score: 425&lt;br&gt;E-value: 3e-143" locus_tag="GLRG_11433" id="clusterblast-1_h7_7_9" points="370,85 375,80 387,80 387,90 375,90 370,85 " class="clusterblast-orf"  />
<polygon style="stroke:black; stroke-width:1; fill:#FFFFFF; " description="hypothetical_protein[br]Location: 39179 - 39858" locus_tag="GLRG_11432" id="clusterblast-1_h7_7_10" points="394,85 399,80 401,80 401,90 399,90 394,85 " class="clusterblast-orf"  />
<polygon style="stroke:black; stroke-width:1; fill:#FFFFFF; " description="cytochrome_P450[br]Location: 35121 - 38670" locus_tag="GLRG_11431" id="clusterblast-1_h7_7_11" points="407,90 440,90 445,85 440,80 407,80 407,90 " class="clusterblast-orf"  />
<polygon style="stroke:black; stroke-width:1; fill:#FFFFFF; " description="hypothetical_protein[br]Location: 32314 - 33209" locus_tag="GLRG_11430" id="clusterblast-1_h7_7_12" points="466,85 471,80 476,80 476,90 471,90 466,85 " class="clusterblast-orf"  />
<polygon style="stroke:black; stroke-width:1; fill:#FFFFFF; " description="hypothetical_protein[br]Location: 30313 - 30741" locus_tag="GLRG_11429" id="clusterblast-1_h7_7_13" points="493,85 497,80 497,90 493,85 " class="clusterblast-orf"  />
<polygon style="stroke:black; stroke-width:1; fill:#FFFFFF; " description="aminotransferase_class_I_and_II[br]Location: 27069 - 29456" locus_tag="GLRG_11428" id="clusterblast-1_h7_7_14" points="506,85 511,80 532,80 532,90 511,90 506,85 " class="clusterblast-orf"  />
<polygon style="stroke:black; stroke-width:1; fill:#FFFFFF; " description="hypothetical_protein[br]Location: 25467 - 26513" locus_tag="GLRG_11427" id="clusterblast-1_h7_7_15" points="538,85 543,80 550,80 550,90 543,90 538,85 " class="clusterblast-orf"  />
<polygon style="stroke:black; stroke-width:1; fill:#FFFFFF; " description="cytochrome_P450[br]Location: 21560 - 24889" locus_tag="GLRG_11426" id="clusterblast-1_h7_7_16" points="556,90 587,90 592,85 587,80 556,80 556,90 " class="clusterblast-orf"  />
<polygon style="stroke:black; stroke-width:1; fill:red; " description="beta-ketoacyl_synthase_domain-containing[br]Location: 14661 - 17249&lt;br&gt;&lt;br&gt;&lt;b&gt;BlastP hit with CHAFR746836_0067240.1&lt;/b&gt;&lt;br&gt;Percentage identity: 35%&lt;br&gt;Percentage coverage: 29%&lt;br&gt;BLAST bit score: 367&lt;br&gt;E-value: 4e-107" locus_tag="GLRG_11425" id="clusterblast-1_h7_7_17" points="638,90 661,90 666,85 661,80 638,80 638,90 " class="clusterblast-orf"  />
<polygon style="stroke:black; stroke-width:1; fill:#FFFFFF; " description="hypothetical_protein[br]Location: 4369 - 4614" locus_tag="GLRG_11424" id="clusterblast-1_h7_7_18" points="775,90 778,85 775,80 775,90 " class="clusterblast-orf"  />
</g>
</svg>
