<svg xmlns="http://www.w3.org/2000/svg" height="680" width="800" version="1.1" y="0" x="0" preserveAspectRatio="none" xmlns:xlink="http://www.w3.org/1999/xlink" viewBox="0 0 800 680"  >
<g class="clusterblast-cluster" label="Query sequence"  >
<text class="clusterblast-acc" y="10" x="5"  >
Query sequence</text>
<line y1="35" x2="778.0" style="stroke:grey; stroke-width:1; " x1="10" y2="35"  />
<polygon style="stroke:black; stroke-width:1; fill:#FFFFFF; " description="unannotated orf[br]Location: 526 - 1764" locus_tag="CHAFR746836_0049830.1" class="clusterblast-orf" points="24,35 29,30 43,30 43,40 29,40 24,35 " id="clusterblast-1_all_61_0_0"  />
<polygon style="stroke:black; stroke-width:1; fill:#FFFFFF; " description="unannotated orf[br]Location: 2667 - 6069" locus_tag="CHAFR746836_0049840.1" class="clusterblast-orf" points="57,40 105,40 110,35 105,30 57,30 57,40 " id="clusterblast-1_all_61_0_1"  />
<polygon style="stroke:black; stroke-width:1; fill:#FFFFFF; " description="unannotated orf[br]Location: 8378 - 11086" locus_tag="CHAFR746836_0049850.1" class="clusterblast-orf" points="147,35 152,30 189,30 189,40 152,40 147,35 " id="clusterblast-1_all_61_0_2"  />
<polygon style="stroke:black; stroke-width:1; fill:red; " description="unannotated orf[br]Location: 12115 - 13475" locus_tag="CHAFR746836_0049860.1" class="clusterblast-orf" points="205,40 222,40 227,35 222,30 205,30 205,40 " id="clusterblast-1_all_61_0_3"  />
<polygon style="stroke:black; stroke-width:1; fill:#FFFFFF; " description="unannotated orf[br]Location: 17223 - 18472" locus_tag="CHAFR746836_0049870.1" class="clusterblast-orf" points="285,40 300,40 305,35 300,30 285,30 285,40 " id="clusterblast-1_all_61_0_4"  />
<polygon style="stroke:black; stroke-width:1; fill:#FFFFFF; " description="unannotated orf[br]Location: 19776 - 20599" locus_tag="CHAFR746836_0049880.1" class="clusterblast-orf" points="325,35 330,30 338,30 338,40 330,40 325,35 " id="clusterblast-1_all_61_0_5"  />
<polygon style="stroke:black; stroke-width:1; fill:green; " description="unannotated orf[br]Location: 21414 - 28833" locus_tag="CHAFR746836_0049890.1" class="clusterblast-orf" points="351,35 356,30 467,30 467,40 356,40 351,35 " id="clusterblast-1_all_61_0_6"  />
<polygon style="stroke:black; stroke-width:1; fill:blue; " description="unannotated orf[br]Location: 33502 - 34522" locus_tag="CHAFR746836_0049900.1" class="clusterblast-orf" points="541,40 552,40 557,35 552,30 541,30 541,40 " id="clusterblast-1_all_61_0_7"  />
<polygon style="stroke:black; stroke-width:1; fill:#FFFFFF; " description="unannotated orf[br]Location: 35396 - 36560" locus_tag="CHAFR746836_0049910.1" class="clusterblast-orf" points="570,35 575,30 589,30 589,40 575,40 570,35 " id="clusterblast-1_all_61_0_8"  />
<polygon style="stroke:black; stroke-width:1; fill:#FFFFFF; " description="unannotated orf[br]Location: 43480 - 44101" locus_tag="CHAFR746836_0049920.1" class="clusterblast-orf" points="697,35 702,30 707,30 707,40 702,40 697,35 " id="clusterblast-1_all_61_0_9"  />
<polygon style="stroke:black; stroke-width:1; fill:#FFFFFF; " description="unannotated orf[br]Location: 46657 - 47620" locus_tag="CHAFR746836_0049930.1" class="clusterblast-orf" points="747,35 752,30 762,30 762,40 752,40 747,35 " id="clusterblast-1_all_61_0_10"  />
</g>
<g class="clusterblast-cluster" description="Verticillium dahliae VdLs.17 supercont1.20 genomic scaffold,..." label="DS572714.1_c1"  >
<text class="clusterblast-acc" y="60" x="5"  >
DS572714.1_c1</text>
<text class="clusterblast-desc" y="60" x="460.8"  >
Verticillium dahliae VdLs.17 supercont1.20 genomic scaffold,...</text>
<line y1="85" x2="778.0" style="stroke:grey; stroke-width:1; " x1="10" y2="85"  />
<polygon style="stroke:black; stroke-width:1; fill:#FFFFFF; " description="ubiquitin_C-terminal_hydrolase[br]Location: 457337 - 459982" locus_tag="VDAG_08442" id="clusterblast-1_all_61_1_0" points="668,90 704,90 709,85 704,80 668,80 668,90 " class="clusterblast-orf"  />
<polygon style="stroke:black; stroke-width:1; fill:#FFFFFF; " description="54S_ribosomal_protein_L7[br]Location: 461868 - 463047" locus_tag="VDAG_08443" id="clusterblast-1_all_61_1_1" points="620,85 625,80 639,80 639,90 625,90 620,85 " class="clusterblast-orf"  />
<polygon style="stroke:black; stroke-width:1; fill:#FFFFFF; " description="Hsp70_nucleotide_exchange_factor_FES1[br]Location: 463348 - 463977" locus_tag="VDAG_08444" id="clusterblast-1_all_61_1_2" points="606,90 611,90 616,85 611,80 606,80 606,90 " class="clusterblast-orf"  />
<polygon style="stroke:black; stroke-width:1; fill:red; " description="actin[br]Location: 466404 - 467516&lt;br&gt;&lt;br&gt;&lt;b&gt;BlastP hit with CHAFR746836_0049860.1&lt;/b&gt;&lt;br&gt;Percentage identity: 44%&lt;br&gt;Percentage coverage: 65%&lt;br&gt;BLAST bit score: 221&lt;br&gt;E-value: 4e-68" locus_tag="VDAG_08445" id="clusterblast-1_all_61_1_3" points="550,85 555,80 568,80 568,90 555,90 550,85 " class="clusterblast-orf"  />
<polygon style="stroke:black; stroke-width:1; fill:#FFFFFF; " description="multidrug_resistance_protein[br]Location: 469569 - 474381" locus_tag="VDAG_08446" id="clusterblast-1_all_61_1_4" points="443,90 513,90 518,85 513,80 443,80 443,90 " class="clusterblast-orf"  />
<polygon style="stroke:black; stroke-width:1; fill:blue; " description="hypothetical_protein[br]Location: 475077 - 476013&lt;br&gt;&lt;br&gt;&lt;b&gt;BlastP hit with CHAFR746836_0049900.1&lt;/b&gt;&lt;br&gt;Percentage identity: 48%&lt;br&gt;Percentage coverage: 96%&lt;br&gt;BLAST bit score: 241&lt;br&gt;E-value: 1e-77" locus_tag="VDAG_08447" id="clusterblast-1_all_61_1_5" points="417,90 427,90 432,85 427,80 417,80 417,90 " class="clusterblast-orf"  />
<polygon style="stroke:black; stroke-width:1; fill:green; " description="lovastatin_nonaketide_synthase[br]Location: 477875 - 484921&lt;br&gt;&lt;br&gt;&lt;b&gt;BlastP hit with CHAFR746836_0049890.1&lt;/b&gt;&lt;br&gt;Percentage identity: 47%&lt;br&gt;Percentage coverage: 86%&lt;br&gt;BLAST bit score: 1893&lt;br&gt;E-value: 0.0" locus_tag="VDAG_08448" id="clusterblast-1_all_61_1_6" points="277,85 282,80 388,80 388,90 282,90 277,85 " class="clusterblast-orf"  />
<polygon style="stroke:black; stroke-width:1; fill:#FFFFFF; " description="hypothetical_protein[br]Location: 485368 - 485787" locus_tag="VDAG_08449" id="clusterblast-1_all_61_1_7" points="264,85 269,80 270,80 270,90 269,90 264,85 " class="clusterblast-orf"  />
<polygon style="stroke:black; stroke-width:1; fill:#FFFFFF; " description="elongator_complex_protein[br]Location: 486187 - 488797" locus_tag="VDAG_08450" id="clusterblast-1_all_61_1_8" points="217,90 252,90 257,85 252,80 217,80 217,90 " class="clusterblast-orf"  />
<polygon style="stroke:black; stroke-width:1; fill:#FFFFFF; " description="hypothetical_protein[br]Location: 489422 - 489940" locus_tag="VDAG_08451" id="clusterblast-1_all_61_1_9" points="199,85 204,80 207,80 207,90 204,90 199,85 " class="clusterblast-orf"  />
<polygon style="stroke:black; stroke-width:1; fill:#FFFFFF; " description="zinc_finger_protein[br]Location: 495011 - 496489" locus_tag="VDAG_08452" id="clusterblast-1_all_61_1_10" points="96,90 114,90 119,85 114,80 96,80 96,90 " class="clusterblast-orf"  />
</g>
<g class="clusterblast-cluster" description="Glomerella graminicola M1.001 genomic scaffold supercont1.10..." label="GG697340.1_c1"  >
<text class="clusterblast-acc" y="110" x="5"  >
GG697340.1_c1</text>
<text class="clusterblast-desc" y="110" x="460.8"  >
Glomerella graminicola M1.001 genomic scaffold supercont1.10...</text>
<line y1="135" x2="778.0" style="stroke:grey; stroke-width:1; " x1="10" y2="135"  />
<polygon style="stroke:black; stroke-width:1; fill:#FFFFFF; " description="hypothetical_protein[br]Location: 203918 - 207661" locus_tag="GLRG_03357" id="clusterblast-1_all_61_2_0" points="58,135 63,130 116,130 116,140 63,140 58,135 " class="clusterblast-orf"  />
<polygon style="stroke:black; stroke-width:1; fill:#FFFFFF; " description="GMC_oxidoreductase[br]Location: 210383 - 212149" locus_tag="GLRG_03358" id="clusterblast-1_all_61_2_1" points="159,135 164,130 187,130 187,140 164,140 159,135 " class="clusterblast-orf"  />
<polygon style="stroke:black; stroke-width:1; fill:#FFFFFF; " description="aldehyde_dehydrogenase[br]Location: 215183 - 216697" locus_tag="GLRG_03359" id="clusterblast-1_all_61_2_2" points="234,140 253,140 258,135 253,130 234,130 234,140 " class="clusterblast-orf"  />
<polygon style="stroke:black; stroke-width:1; fill:green; " description="beta-ketoacyl_synthase_domain-containing[br]Location: 218621 - 225746&lt;br&gt;&lt;br&gt;&lt;b&gt;BlastP hit with CHAFR746836_0049890.1&lt;/b&gt;&lt;br&gt;Percentage identity: 51%&lt;br&gt;Percentage coverage: 90%&lt;br&gt;BLAST bit score: 2112&lt;br&gt;E-value: 0.0" locus_tag="GLRG_03360" id="clusterblast-1_all_61_2_3" points="288,135 293,130 400,130 400,140 293,140 288,135 " class="clusterblast-orf"  />
<polygon style="stroke:black; stroke-width:1; fill:blue; " description="hypothetical_protein[br]Location: 230427 - 231402&lt;br&gt;&lt;br&gt;&lt;b&gt;BlastP hit with CHAFR746836_0049900.1&lt;/b&gt;&lt;br&gt;Percentage identity: 48%&lt;br&gt;Percentage coverage: 96%&lt;br&gt;BLAST bit score: 250&lt;br&gt;E-value: 7e-81" locus_tag="GLRG_03361" id="clusterblast-1_all_61_2_4" points="473,140 484,140 489,135 484,130 473,130 473,140 " class="clusterblast-orf"  />
<polygon style="stroke:black; stroke-width:1; fill:#FFFFFF; " description="ABC_transporter[br]Location: 233613 - 238526" locus_tag="GLRG_03362" id="clusterblast-1_all_61_2_5" points="523,140 595,140 600,135 595,130 523,130 523,140 " class="clusterblast-orf"  />
<polygon style="stroke:black; stroke-width:1; fill:#FFFFFF; " description="cytochrome_b5-like_Heme/Steroid_binding[br]Location: 241391 - 246688" locus_tag="GLRG_03363" id="clusterblast-1_all_61_2_6" points="645,135 650,130 728,130 728,140 650,140 645,135 " class="clusterblast-orf"  />
</g>
<g class="clusterblast-cluster" description="Grosmannia clavigera kw1407 unplaced genomic scaffold GCSC 1..." label="GL629801.1_c1"  >
<text class="clusterblast-acc" y="160" x="5"  >
GL629801.1_c1</text>
<text class="clusterblast-desc" y="160" x="460.8"  >
Grosmannia clavigera kw1407 unplaced genomic scaffold GCSC 1...</text>
<line y1="185" x2="778.0" style="stroke:grey; stroke-width:1; " x1="10" y2="185"  />
<polygon style="stroke:black; stroke-width:1; fill:#FFFFFF; " description="acetolactate_synthase[br]Location: 1544756 - 1551620" locus_tag="CMQ_7097" id="clusterblast-1_all_61_3_0" points="688,185 693,180 795,180 795,190 693,190 688,185 " class="clusterblast-orf"  />
<polygon style="stroke:black; stroke-width:1; fill:#FFFFFF; " description="hypothetical_protein[br]Location: 1554180 - 1555976" locus_tag="CMQ_7588" id="clusterblast-1_all_61_3_1" points="620,185 625,180 648,180 648,190 625,190 620,185 " class="clusterblast-orf"  />
<polygon style="stroke:black; stroke-width:1; fill:#FFFFFF; " description="hypothetical_protein[br]Location: 1556620 - 1556994" locus_tag="CMQ_7685" id="clusterblast-1_all_61_3_2" points="604,185 609,180 610,180 610,190 609,190 604,185 " class="clusterblast-orf"  />
<polygon style="stroke:black; stroke-width:1; fill:#FFFFFF; " description="hypothetical_protein[br]Location: 1557139 - 1557750" locus_tag="CMQ_7459" id="clusterblast-1_all_61_3_3" points="592,185 597,180 602,180 602,190 597,190 592,185 " class="clusterblast-orf"  />
<polygon style="stroke:black; stroke-width:1; fill:#FFFFFF; " description="umta_methyltransferase_family_protein[br]Location: 1559231 - 1560795" locus_tag="CMQ_7491" id="clusterblast-1_all_61_3_4" points="545,185 550,180 569,180 569,190 550,190 545,185 " class="clusterblast-orf"  />
<polygon style="stroke:black; stroke-width:1; fill:#FFFFFF; " description="hypothetical_protein[br]Location: 1561184 - 1562421" locus_tag="CMQ_7226" id="clusterblast-1_all_61_3_5" points="519,190 533,190 538,185 533,180 519,180 519,190 " class="clusterblast-orf"  />
<polygon style="stroke:black; stroke-width:1; fill:blue; " description="duf341_domain_containing_protein[br]Location: 1564325 - 1565346&lt;br&gt;&lt;br&gt;&lt;b&gt;BlastP hit with CHAFR746836_0049900.1&lt;/b&gt;&lt;br&gt;Percentage identity: 49%&lt;br&gt;Percentage coverage: 95%&lt;br&gt;BLAST bit score: 265&lt;br&gt;E-value: 2e-86" locus_tag="CMQ_7522" id="clusterblast-1_all_61_3_6" points="473,190 484,190 489,185 484,180 473,180 473,190 " class="clusterblast-orf"  />
<polygon style="stroke:black; stroke-width:1; fill:green; " description="polyketide_synthase[br]Location: 1566165 - 1573137&lt;br&gt;&lt;br&gt;&lt;b&gt;BlastP hit with CHAFR746836_0049890.1&lt;/b&gt;&lt;br&gt;Percentage identity: 49%&lt;br&gt;Percentage coverage: 91%&lt;br&gt;BLAST bit score: 1964&lt;br&gt;E-value: 0.0" locus_tag="CMQ_7062" id="clusterblast-1_all_61_3_7" points="351,185 356,180 460,180 460,190 356,190 351,185 " class="clusterblast-orf"  />
<polygon style="stroke:black; stroke-width:1; fill:#FFFFFF; " description="hypothetical_protein[br]Location: 1576602 - 1577205" locus_tag="CMQ_7689" id="clusterblast-1_all_61_3_8" points="287,185 292,180 297,180 297,190 292,190 287,185 " class="clusterblast-orf"  />
<polygon style="stroke:black; stroke-width:1; fill:#FFFFFF; " description="hypothetical_protein[br]Location: 1580879 - 1581964" locus_tag="CMQ_7734" id="clusterblast-1_all_61_3_9" points="213,190 225,190 230,185 225,180 213,180 213,190 " class="clusterblast-orf"  />
<polygon style="stroke:black; stroke-width:1; fill:#FFFFFF; " description="extradiol_ring-cleavage_class_3_subunit_b[br]Location: 1583364 - 1584362" locus_tag="CMQ_7627" id="clusterblast-1_all_61_3_10" points="175,185 180,180 191,180 191,190 180,190 175,185 " class="clusterblast-orf"  />
<polygon style="stroke:black; stroke-width:1; fill:#FFFFFF; " description="hypothetical_protein[br]Location: 1586167 - 1587262" locus_tag="CMQ_7256" id="clusterblast-1_all_61_3_11" points="129,190 142,190 147,185 142,180 129,180 129,190 " class="clusterblast-orf"  />
<polygon style="stroke:black; stroke-width:1; fill:#FFFFFF; " description="integral_membrane_protein[br]Location: 1589167 - 1590542" locus_tag="CMQ_7539" id="clusterblast-1_all_61_3_12" points="78,185 83,180 100,180 100,190 83,190 78,185 " class="clusterblast-orf"  />
</g>
<g class="clusterblast-cluster" description="Aspergillus niger contig An12c0220, genomic contig." label="AM270278.1_c1"  >
<text class="clusterblast-acc" y="210" x="5"  >
AM270278.1_c1</text>
<text class="clusterblast-desc" y="210" x="460.8"  >
Aspergillus niger contig An12c0220, genomic contig.</text>
<line y1="235" x2="778.0" style="stroke:grey; stroke-width:1; " x1="10" y2="235"  />
<polygon style="stroke:black; stroke-width:1; fill:#FFFFFF; " description="extracellular_alpha-amylase[br]Location: 7374 - 9415" locus_tag="An12g06930" id="clusterblast-1_all_61_4_0" points="732,240 759,240 764,235 759,230 732,230 732,240 " class="clusterblast-orf"  />
<polygon style="stroke:black; stroke-width:1; fill:#FFFFFF; " description="unnamed[br]Location: 10370 - 11992" locus_tag="An12g06940" id="clusterblast-1_all_61_4_1" points="692,235 697,230 718,230 718,240 697,240 692,235 " class="clusterblast-orf"  />
<polygon style="stroke:black; stroke-width:1; fill:#FFFFFF; " description="[br]Location: 12286 - 13589" locus_tag="An12g06960" id="clusterblast-1_all_61_4_2" points="667,235 672,230 687,230 687,240 672,240 667,235 " class="clusterblast-orf"  />
<polygon style="stroke:black; stroke-width:1; fill:#FFFFFF; " description="[br]Location: 13980 - 14777" locus_tag="An12g06970" id="clusterblast-1_all_61_4_3" points="648,240 656,240 661,235 656,230 648,230 648,240 " class="clusterblast-orf"  />
<polygon style="stroke:black; stroke-width:1; fill:#FFFFFF; " description="[br]Location: 15996 - 16549" locus_tag="An12g06980" id="clusterblast-1_all_61_4_4" points="621,235 626,230 629,230 629,240 626,240 621,235 " class="clusterblast-orf"  />
<polygon style="stroke:black; stroke-width:1; fill:#FFFFFF; " description="[br]Location: 17603 - 17871" locus_tag="An12g06990" id="clusterblast-1_all_61_4_5" points="600,235 604,230 604,240 600,235 " class="clusterblast-orf"  />
<polygon style="stroke:black; stroke-width:1; fill:#FFFFFF; " description="5S_ribosomal_RNA[br]Location: 18046 - 19026" locus_tag="An12g07000" id="clusterblast-1_all_61_4_6" points="582,240 592,240 597,235 592,230 582,230 582,240 " class="clusterblast-orf"  />
<polygon style="stroke:black; stroke-width:1; fill:#FFFFFF; " description="[br]Location: 20407 - 21672" locus_tag="An12g07020" id="clusterblast-1_all_61_4_7" points="540,240 555,240 560,235 555,230 540,230 540,240 " class="clusterblast-orf"  />
<polygon style="stroke:black; stroke-width:1; fill:#FFFFFF; " description="unnamed[br]Location: 22216 - 23211" locus_tag="An12g07030" id="clusterblast-1_all_61_4_8" points="516,235 521,230 532,230 532,240 521,240 516,235 " class="clusterblast-orf"  />
<polygon style="stroke:black; stroke-width:1; fill:#FFFFFF; " description="[br]Location: 24086 - 24832" locus_tag="An12g07040" id="clusterblast-1_all_61_4_9" points="491,235 496,230 502,230 502,240 496,240 491,235 " class="clusterblast-orf"  />
<polygon style="stroke:black; stroke-width:1; fill:blue; " description="unnamed[br]Location: 25361 - 26347&lt;br&gt;&lt;br&gt;&lt;b&gt;BlastP hit with CHAFR746836_0049900.1&lt;/b&gt;&lt;br&gt;Percentage identity: 37%&lt;br&gt;Percentage coverage: 97%&lt;br&gt;BLAST bit score: 166&lt;br&gt;E-value: 2e-48" locus_tag="An12g07050" id="clusterblast-1_all_61_4_10" points="467,240 477,240 482,235 477,230 467,230 467,240 " class="clusterblast-orf"  />
<polygon style="stroke:black; stroke-width:1; fill:blue; " description="[br]Location: 26598 - 27527&lt;br&gt;&lt;br&gt;&lt;b&gt;BlastP hit with CHAFR746836_0049900.1&lt;/b&gt;&lt;br&gt;Percentage identity: 38%&lt;br&gt;Percentage coverage: 96%&lt;br&gt;BLAST bit score: 168&lt;br&gt;E-value: 2e-49" locus_tag="An12g07060" id="clusterblast-1_all_61_4_11" points="448,240 458,240 463,235 458,230 448,230 448,240 " class="clusterblast-orf"  />
<polygon style="stroke:black; stroke-width:1; fill:green; " description="5S_ribosomal_RNA[br]Location: 28213 - 35378&lt;br&gt;&lt;br&gt;&lt;b&gt;BlastP hit with CHAFR746836_0049890.1&lt;/b&gt;&lt;br&gt;Percentage identity: 46%&lt;br&gt;Percentage coverage: 90%&lt;br&gt;BLAST bit score: 1820&lt;br&gt;E-value: 0.0" locus_tag="An12g07070" id="clusterblast-1_all_61_4_12" points="325,235 330,230 438,230 438,240 330,240 325,235 " class="clusterblast-orf"  />
<polygon style="stroke:black; stroke-width:1; fill:#FFFFFF; " description="[br]Location: 35651 - 37079" locus_tag="An12g07090" id="clusterblast-1_all_61_4_13" points="299,240 316,240 321,235 316,230 299,230 299,240 " class="clusterblast-orf"  />
<polygon style="stroke:black; stroke-width:1; fill:#FFFFFF; " description="[br]Location: 38626 - 39761" locus_tag="An12g07100" id="clusterblast-1_all_61_4_14" points="257,240 269,240 274,235 269,230 257,230 257,240 " class="clusterblast-orf"  />
<polygon style="stroke:black; stroke-width:1; fill:#FFFFFF; " description="[br]Location: 41567 - 43672" locus_tag="An12g07110" id="clusterblast-1_all_61_4_15" points="195,235 200,230 228,230 228,240 200,240 195,235 " class="clusterblast-orf"  />
<polygon style="stroke:black; stroke-width:1; fill:#FFFFFF; " description="unnamed[br]Location: 48472 - 50548" locus_tag="An12g07120" id="clusterblast-1_all_61_4_16" points="87,235 92,230 120,230 120,240 92,240 87,235 " class="clusterblast-orf"  />
<polygon style="stroke:black; stroke-width:1; fill:#FFFFFF; " description="[br]Location: 50920 - 51987" locus_tag="An12g07130" id="clusterblast-1_all_61_4_17" points="65,240 77,240 82,235 77,230 65,230 65,240 " class="clusterblast-orf"  />
<polygon style="stroke:black; stroke-width:1; fill:#FFFFFF; " description="[br]Location: 52537 - 54246" locus_tag="An12g07140" id="clusterblast-1_all_61_4_18" points="29,240 51,240 56,235 51,230 29,230 29,240 " class="clusterblast-orf"  />
</g>
<g class="clusterblast-cluster" description="Trichoderma reesei QM6a unplaced genomic scaffold TRIREscaff..." label="GL985061.1_c3"  >
<text class="clusterblast-acc" y="260" x="5"  >
GL985061.1_c3</text>
<text class="clusterblast-desc" y="260" x="460.8"  >
Trichoderma reesei QM6a unplaced genomic scaffold TRIREscaff...</text>
<line y1="285" x2="778.0" style="stroke:grey; stroke-width:1; " x1="10" y2="285"  />
<polygon style="stroke:black; stroke-width:1; fill:#FFFFFF; " description="vesicular_transport_protein[br]Location: 467138 - 470596" locus_tag="TRIREDRAFT_59435" id="clusterblast-1_all_61_5_0" points="736,285 741,280 790,280 790,290 741,290 736,285 " class="clusterblast-orf"  />
<polygon style="stroke:black; stroke-width:1; fill:#FFFFFF; " description="predicted_protein[br]Location: 472904 - 474067" locus_tag="TRIREDRAFT_76734" id="clusterblast-1_all_61_5_1" points="682,290 695,290 700,285 695,280 682,280 682,290 " class="clusterblast-orf"  />
<polygon style="stroke:black; stroke-width:1; fill:#FFFFFF; " description="glycosyltransferase_family_1[br]Location: 484124 - 485739" locus_tag="TRIREDRAFT_105924" id="clusterblast-1_all_61_5_2" points="499,290 519,290 524,285 519,280 499,280 499,290 " class="clusterblast-orf"  />
<polygon style="stroke:black; stroke-width:1; fill:blue; " description="hypothetical_protein[br]Location: 486801 - 487766&lt;br&gt;&lt;br&gt;&lt;b&gt;BlastP hit with CHAFR746836_0049900.1&lt;/b&gt;&lt;br&gt;Percentage identity: 46%&lt;br&gt;Percentage coverage: 96%&lt;br&gt;BLAST bit score: 222&lt;br&gt;E-value: 3e-70" locus_tag="TRIREDRAFT_59368" id="clusterblast-1_all_61_5_3" points="467,290 477,290 482,285 477,280 467,280 467,290 " class="clusterblast-orf"  />
<polygon style="stroke:black; stroke-width:1; fill:green; " description="polyketide_synthase[br]Location: 489709 - 496750&lt;br&gt;&lt;br&gt;&lt;b&gt;BlastP hit with CHAFR746836_0049890.1&lt;/b&gt;&lt;br&gt;Percentage identity: 48%&lt;br&gt;Percentage coverage: 90%&lt;br&gt;BLAST bit score: 1927&lt;br&gt;E-value: 0.0" locus_tag="TRIREDRAFT_59482" id="clusterblast-1_all_61_5_4" points="326,285 331,280 437,280 437,290 331,290 326,285 " class="clusterblast-orf"  />
<polygon style="stroke:black; stroke-width:1; fill:#FFFFFF; " description="predicted_protein[br]Location: 500672 - 501274" locus_tag="TRIREDRAFT_59759" id="clusterblast-1_all_61_5_5" points="255,285 260,280 265,280 265,290 260,290 255,285 " class="clusterblast-orf"  />
<polygon style="stroke:black; stroke-width:1; fill:#FFFFFF; " description="predicted_protein[br]Location: 502741 - 503205" locus_tag="TRIREDRAFT_59151" id="clusterblast-1_all_61_5_6" points="225,285 230,280 232,280 232,290 230,290 225,285 " class="clusterblast-orf"  />
<polygon style="stroke:black; stroke-width:1; fill:#FFFFFF; " description="predicted_protein[br]Location: 504033 - 506795" locus_tag="TRIREDRAFT_35726" id="clusterblast-1_all_61_5_7" points="169,290 207,290 212,285 207,280 169,280 169,290 " class="clusterblast-orf"  />
<polygon style="stroke:black; stroke-width:1; fill:#FFFFFF; " description="glycoside_hydrolase_family_20[br]Location: 509949 - 512211" locus_tag="TRIREDRAFT_105931" id="clusterblast-1_all_61_5_8" points="84,285 89,280 119,280 119,290 89,290 84,285 " class="clusterblast-orf"  />
<polygon style="stroke:black; stroke-width:1; fill:#FFFFFF; " description="predicted_protein[br]Location: 512920 - 513568" locus_tag="TRIREDRAFT_121163" id="clusterblast-1_all_61_5_9" points="62,285 67,280 73,280 73,290 67,290 62,285 " class="clusterblast-orf"  />
<polygon style="stroke:black; stroke-width:1; fill:#FFFFFF; " description="predicted_protein[br]Location: 514286 - 516064" locus_tag="TRIREDRAFT_26994" id="clusterblast-1_all_61_5_10" points="23,290 46,290 51,285 46,280 23,280 23,290 " class="clusterblast-orf"  />
</g>
<g class="clusterblast-cluster" description="Trichoderma atroviride IMI 206040 TRIATcontig 26, whole ..." label="ABDG02000026.1_c5"  >
<text class="clusterblast-acc" y="310" x="5"  >
ABDG02000026.1_c5</text>
<text class="clusterblast-desc" y="310" x="460.8"  >
Trichoderma atroviride IMI 206040 TRIATcontig 26, whole ...</text>
<line y1="335" x2="778.0" style="stroke:grey; stroke-width:1; " x1="10" y2="335"  />
<polygon style="stroke:black; stroke-width:1; fill:#FFFFFF; " description="hypothetical_protein[br]Location: 1045891 - 1049857" locus_tag="TRIATDRAFT_293905" id="clusterblast-1_all_61_6_0" points="722,335 727,330 784,330 784,340 727,340 722,335 " class="clusterblast-orf"  />
<polygon style="stroke:black; stroke-width:1; fill:#FFFFFF; " description="hypothetical_protein[br]Location: 1051014 - 1051232" locus_tag="TRIATDRAFT_258114" id="clusterblast-1_all_61_6_1" points="701,340 704,335 701,330 701,340 " class="clusterblast-orf"  />
<polygon style="stroke:black; stroke-width:1; fill:#FFFFFF; " description="hypothetical_protein[br]Location: 1052204 - 1053478" locus_tag="TRIATDRAFT_177185" id="clusterblast-1_all_61_6_2" points="666,340 681,340 686,335 681,330 666,330 666,340 " class="clusterblast-orf"  />
<polygon style="stroke:black; stroke-width:1; fill:#FFFFFF; " description="glycosyltransferase_family_1_protein[br]Location: 1063433 - 1065084" locus_tag="TRIATDRAFT_78852" id="clusterblast-1_all_61_6_3" points="484,340 505,340 510,335 505,330 484,330 484,340 " class="clusterblast-orf"  />
<polygon style="stroke:black; stroke-width:1; fill:blue; " description="hypothetical_protein[br]Location: 1065925 - 1066903&lt;br&gt;&lt;br&gt;&lt;b&gt;BlastP hit with CHAFR746836_0049900.1&lt;/b&gt;&lt;br&gt;Percentage identity: 46%&lt;br&gt;Percentage coverage: 98%&lt;br&gt;BLAST bit score: 235&lt;br&gt;E-value: 2e-75" locus_tag="TRIATDRAFT_35252" id="clusterblast-1_all_61_6_4" points="455,340 465,340 470,335 465,330 455,330 455,340 " class="clusterblast-orf"  />
<polygon style="stroke:black; stroke-width:1; fill:green; " description="polyketide_synthase[br]Location: 1068691 - 1075711&lt;br&gt;&lt;br&gt;&lt;b&gt;BlastP hit with CHAFR746836_0049890.1&lt;/b&gt;&lt;br&gt;Percentage identity: 48%&lt;br&gt;Percentage coverage: 90%&lt;br&gt;BLAST bit score: 1894&lt;br&gt;E-value: 0.0" locus_tag="TRIATDRAFT_33092" id="clusterblast-1_all_61_6_5" points="317,335 322,330 427,330 427,340 322,340 317,335 " class="clusterblast-orf"  />
<polygon style="stroke:black; stroke-width:1; fill:#FFFFFF; " description="hypothetical_protein[br]Location: 1076610 - 1077198" locus_tag="TRIATDRAFT_34403" id="clusterblast-1_all_61_6_6" points="294,335 299,330 303,330 303,340 299,340 294,335 " class="clusterblast-orf"  />
<polygon style="stroke:black; stroke-width:1; fill:#FFFFFF; " description="hypothetical_protein[br]Location: 1078644 - 1079108" locus_tag="TRIATDRAFT_300786" id="clusterblast-1_all_61_6_7" points="264,335 269,330 271,330 271,340 269,340 264,335 " class="clusterblast-orf"  />
<polygon style="stroke:black; stroke-width:1; fill:#FFFFFF; " description="hypothetical_protein[br]Location: 1080913 - 1083545" locus_tag="TRIATDRAFT_172208" id="clusterblast-1_all_61_6_8" points="194,340 230,340 235,335 230,330 194,330 194,340 " class="clusterblast-orf"  />
<polygon style="stroke:black; stroke-width:1; fill:#FFFFFF; " description="glycoside_hydrolase_family_20_protein[br]Location: 1087200 - 1089476" locus_tag="TRIATDRAFT_33962" id="clusterblast-1_all_61_6_9" points="101,335 106,330 137,330 137,340 106,340 101,335 " class="clusterblast-orf"  />
<polygon style="stroke:black; stroke-width:1; fill:#FFFFFF; " description="hypothetical_protein[br]Location: 1089936 - 1090570" locus_tag="TRIATDRAFT_78849" id="clusterblast-1_all_61_6_10" points="84,335 89,330 94,330 94,340 89,340 84,335 " class="clusterblast-orf"  />
<polygon style="stroke:black; stroke-width:1; fill:#FFFFFF; " description="hypothetical_protein[br]Location: 1091792 - 1093774" locus_tag="TRIATDRAFT_285415" id="clusterblast-1_all_61_6_11" points="34,340 60,340 65,335 60,330 34,330 34,340 " class="clusterblast-orf"  />
</g>
<g class="clusterblast-cluster" description="Glarea lozoyensis 74030 Seq230, whole genome shotgun seq..." label="AGUE01000230.1_c1"  >
<text class="clusterblast-acc" y="360" x="5"  >
AGUE01000230.1_c1</text>
<text class="clusterblast-desc" y="360" x="460.8"  >
Glarea lozoyensis 74030 Seq230, whole genome shotgun seq...</text>
<line y1="385" x2="778.0" style="stroke:grey; stroke-width:1; " x1="10" y2="385"  />
<polygon style="stroke:black; stroke-width:1; fill:#FFFFFF; " description="putative_Retinol-binding_protein_3[br]Location: 39028 - 40185" locus_tag="M7I_7618" id="clusterblast-1_all_61_7_0" points="118,385 123,380 136,380 136,390 123,390 118,385 " class="clusterblast-orf"  />
<polygon style="stroke:black; stroke-width:1; fill:#FFFFFF; " description="hypothetical_protein[br]Location: 49320 - 50538" locus_tag="M7I_7619" id="clusterblast-1_all_61_7_1" points="279,385 284,380 298,380 298,390 284,390 279,385 " class="clusterblast-orf"  />
<polygon style="stroke:black; stroke-width:1; fill:#FFFFFF; " description="hypothetical_protein[br]Location: 51256 - 51600" locus_tag="M7I_7620" id="clusterblast-1_all_61_7_2" points="309,385 314,380 315,380 315,390 314,390 309,385 " class="clusterblast-orf"  />
<polygon style="stroke:black; stroke-width:1; fill:#FFFFFF; " description="hypothetical_protein[br]Location: 53855 - 54950" locus_tag="M7I_7621" id="clusterblast-1_all_61_7_3" points="350,385 355,380 367,380 367,390 355,390 350,385 " class="clusterblast-orf"  />
<polygon style="stroke:black; stroke-width:1; fill:#FFFFFF; " description="hypothetical_protein[br]Location: 55574 - 55758" locus_tag="M7I_7622" id="clusterblast-1_all_61_7_4" points="377,390 380,385 377,380 377,390 " class="clusterblast-orf"  />
<polygon style="stroke:black; stroke-width:1; fill:green; " description="putative_Phthioceranic/hydroxyphthioceranic_acid[br]Location: 57302 - 63976&lt;br&gt;&lt;br&gt;&lt;b&gt;BlastP hit with CHAFR746836_0049890.1&lt;/b&gt;&lt;br&gt;Percentage identity: 52%&lt;br&gt;Percentage coverage: 79%&lt;br&gt;BLAST bit score: 1906&lt;br&gt;E-value: 0.0" locus_tag="M7I_7623" id="clusterblast-1_all_61_7_5" points="404,385 409,380 509,380 509,390 409,390 404,385 " class="clusterblast-orf"  />
<polygon style="stroke:black; stroke-width:1; fill:blue; " description="putative_Uncharacterized_hydrolase_C22A12.06c[br]Location: 65599 - 67085&lt;br&gt;&lt;br&gt;&lt;b&gt;BlastP hit with CHAFR746836_0049900.1&lt;/b&gt;&lt;br&gt;Percentage identity: 45%&lt;br&gt;Percentage coverage: 92%&lt;br&gt;BLAST bit score: 221&lt;br&gt;E-value: 6e-70" locus_tag="M7I_7624" id="clusterblast-1_all_61_7_6" points="534,390 553,390 558,385 553,380 534,380 534,390 " class="clusterblast-orf"  />
<polygon style="stroke:black; stroke-width:1; fill:#FFFFFF; " description="putative_ABC_transporter_B_family_member_11[br]Location: 70014 - 70404" locus_tag="M7I_7625" id="clusterblast-1_all_61_7_7" points="604,390 605,390 610,385 605,380 604,380 604,390 " class="clusterblast-orf"  />
<polygon style="stroke:black; stroke-width:1; fill:#FFFFFF; " description="hypothetical_protein[br]Location: 73784 - 74155" locus_tag="M7I_7627" id="clusterblast-1_all_61_7_8" points="663,390 663,390 668,385 663,380 663,380 663,390 " class="clusterblast-orf"  />
</g>
<g class="clusterblast-cluster" description="Trichoderma virens Gv29-8 TRIVIscaffold 6, whole genome ..." label="ABDF02000006.1_c1"  >
<text class="clusterblast-acc" y="410" x="5"  >
ABDF02000006.1_c1</text>
<text class="clusterblast-desc" y="410" x="460.8"  >
Trichoderma virens Gv29-8 TRIVIscaffold 6, whole genome ...</text>
<line y1="435" x2="778.0" style="stroke:grey; stroke-width:1; " x1="10" y2="435"  />
<polygon style="stroke:black; stroke-width:1; fill:#FFFFFF; " description="hypothetical_protein[br]Location: 2266141 - 2267383" locus_tag="TRIVIDRAFT_16041" id="clusterblast-1_all_61_8_0" points="10,440 24,440 29,435 24,430 10,430 10,440 " class="clusterblast-orf"  />
<polygon style="stroke:black; stroke-width:1; fill:#FFFFFF; " description="hypothetical_protein[br]Location: 2269628 - 2271538" locus_tag="TRIVIDRAFT_180068" id="clusterblast-1_all_61_8_1" points="64,440 89,440 94,435 89,430 64,430 64,440 " class="clusterblast-orf"  />
<polygon style="stroke:black; stroke-width:1; fill:#FFFFFF; " description="hypothetical_protein[br]Location: 2272617 - 2273284" locus_tag="TRIVIDRAFT_27987" id="clusterblast-1_all_61_8_2" points="111,435 116,430 122,430 122,440 116,440 111,435 " class="clusterblast-orf"  />
<polygon style="stroke:black; stroke-width:1; fill:#FFFFFF; " description="hypothetical_protein[br]Location: 2273912 - 2274350" locus_tag="TRIVIDRAFT_222054" id="clusterblast-1_all_61_8_3" points="131,435 136,430 138,430 138,440 136,440 131,435 " class="clusterblast-orf"  />
<polygon style="stroke:black; stroke-width:1; fill:#FFFFFF; " description="glycoside_hydrolase_family_20_protein[br]Location: 2274754 - 2277013" locus_tag="TRIVIDRAFT_180069" id="clusterblast-1_all_61_8_4" points="145,435 150,430 180,430 180,440 150,440 145,435 " class="clusterblast-orf"  />
<polygon style="stroke:black; stroke-width:1; fill:#FFFFFF; " description="hypothetical_protein[br]Location: 2280140 - 2282726" locus_tag="TRIVIDRAFT_29732" id="clusterblast-1_all_61_8_5" points="229,440 265,440 270,435 265,430 229,430 229,440 " class="clusterblast-orf"  />
<polygon style="stroke:black; stroke-width:1; fill:#FFFFFF; " description="hypothetical_protein[br]Location: 2283688 - 2284152" locus_tag="TRIVIDRAFT_216106" id="clusterblast-1_all_61_8_6" points="285,435 290,430 292,430 292,440 290,440 285,435 " class="clusterblast-orf"  />
<polygon style="stroke:black; stroke-width:1; fill:#FFFFFF; " description="hypothetical_protein[br]Location: 2285457 - 2286064" locus_tag="TRIVIDRAFT_28822" id="clusterblast-1_all_61_8_7" points="312,435 317,430 322,430 322,440 317,440 312,435 " class="clusterblast-orf"  />
<polygon style="stroke:black; stroke-width:1; fill:green; " description="putative_polyketide_synthase[br]Location: 2286988 - 2293963&lt;br&gt;&lt;br&gt;&lt;b&gt;BlastP hit with CHAFR746836_0049890.1&lt;/b&gt;&lt;br&gt;Percentage identity: 47%&lt;br&gt;Percentage coverage: 90%&lt;br&gt;BLAST bit score: 1878&lt;br&gt;E-value: 0.0" locus_tag="TRIVIDRAFT_53926" id="clusterblast-1_all_61_8_8" points="336,435 341,430 446,430 446,440 341,440 336,435 " class="clusterblast-orf"  />
<polygon style="stroke:black; stroke-width:1; fill:blue; " description="hypothetical_protein[br]Location: 2295807 - 2296765&lt;br&gt;&lt;br&gt;&lt;b&gt;BlastP hit with CHAFR746836_0049900.1&lt;/b&gt;&lt;br&gt;Percentage identity: 46%&lt;br&gt;Percentage coverage: 96%&lt;br&gt;BLAST bit score: 233&lt;br&gt;E-value: 3e-74" locus_tag="TRIVIDRAFT_29725" id="clusterblast-1_all_61_8_9" points="475,440 485,440 490,435 485,430 475,430 475,440 " class="clusterblast-orf"  />
<polygon style="stroke:black; stroke-width:1; fill:#FFFFFF; " description="glycosyltransferase_family_1_protein[br]Location: 2297637 - 2299297" locus_tag="TRIVIDRAFT_150816" id="clusterblast-1_all_61_8_10" points="504,440 525,440 530,435 525,430 504,430 504,440 " class="clusterblast-orf"  />
<polygon style="stroke:black; stroke-width:1; fill:#FFFFFF; " description="hypothetical_protein[br]Location: 2307969 - 2309129" locus_tag="TRIVIDRAFT_29675" id="clusterblast-1_all_61_8_11" points="666,440 679,440 684,435 679,430 666,430 666,440 " class="clusterblast-orf"  />
<polygon style="stroke:black; stroke-width:1; fill:#FFFFFF; " description="hypothetical_protein[br]Location: 2311666 - 2315106" locus_tag="TRIVIDRAFT_222063" id="clusterblast-1_all_61_8_12" points="724,435 729,430 778,430 778,440 729,440 724,435 " class="clusterblast-orf"  />
</g>
<g class="clusterblast-cluster" description="Aspergillus niger ATCC 1015, whole genome shotgun sequen..." label="ACJE01000006.1_c1"  >
<text class="clusterblast-acc" y="460" x="5"  >
ACJE01000006.1_c1</text>
<text class="clusterblast-desc" y="460" x="460.8"  >
Aspergillus niger ATCC 1015, whole genome shotgun sequen...</text>
<line y1="485" x2="778.0" style="stroke:grey; stroke-width:1; " x1="10" y2="485"  />
<polygon style="stroke:black; stroke-width:1; fill:#FFFFFF; " description="hypothetical_protein[br]Location: 1045450 - 1047167" locus_tag="ASPNIDRAFT_185699" id="clusterblast-1_all_61_9_0" points="731,485 736,480 757,480 757,490 736,490 731,485 " class="clusterblast-orf"  />
<polygon style="stroke:black; stroke-width:1; fill:#FFFFFF; " description="hypothetical_protein[br]Location: 1047420 - 1048829" locus_tag="ASPNIDRAFT_133118" id="clusterblast-1_all_61_9_1" points="705,490 723,490 728,485 723,480 705,480 705,490 " class="clusterblast-orf"  />
<polygon style="stroke:black; stroke-width:1; fill:#FFFFFF; " description="hypothetical_protein[br]Location: 1049630 - 1050883" locus_tag="ASPNIDRAFT_186323" id="clusterblast-1_all_61_9_2" points="673,485 678,480 693,480 693,490 678,490 673,485 " class="clusterblast-orf"  />
<polygon style="stroke:black; stroke-width:1; fill:#FFFFFF; " description="hypothetical_protein[br]Location: 1051631 - 1053086" locus_tag="ASPNIDRAFT_140924" id="clusterblast-1_all_61_9_3" points="639,490 656,490 661,485 656,480 639,480 639,490 " class="clusterblast-orf"  />
<polygon style="stroke:black; stroke-width:1; fill:#FFFFFF; " description="hypothetical_protein[br]Location: 1053684 - 1056259" locus_tag="ASPNIDRAFT_42227" id="clusterblast-1_all_61_9_4" points="589,490 624,490 629,485 624,480 589,480 589,490 " class="clusterblast-orf"  />
<polygon style="stroke:black; stroke-width:1; fill:#FFFFFF; " description="hypothetical_protein[br]Location: 1058089 - 1059132" locus_tag="ASPNIDRAFT_186614" id="clusterblast-1_all_61_9_5" points="544,490 555,490 560,485 555,480 544,480 544,490 " class="clusterblast-orf"  />
<polygon style="stroke:black; stroke-width:1; fill:#FFFFFF; " description="hypothetical_protein[br]Location: 1060276 - 1060824" locus_tag="ASPNIDRAFT_42225" id="clusterblast-1_all_61_9_6" points="517,485 522,480 526,480 526,490 522,490 517,485 " class="clusterblast-orf"  />
<polygon style="stroke:black; stroke-width:1; fill:blue; " description="hypothetical_protein[br]Location: 1063115 - 1063890&lt;br&gt;&lt;br&gt;&lt;b&gt;BlastP hit with CHAFR746836_0049900.1&lt;/b&gt;&lt;br&gt;Percentage identity: 31%&lt;br&gt;Percentage coverage: 77%&lt;br&gt;BLAST bit score: 94&lt;br&gt;E-value: 5e-22" locus_tag="ASPNIDRAFT_42224" id="clusterblast-1_all_61_9_7" points="469,490 476,490 481,485 476,480 469,480 469,490 " class="clusterblast-orf"  />
<polygon style="stroke:black; stroke-width:1; fill:blue; " description="hypothetical_protein[br]Location: 1064326 - 1065070&lt;br&gt;&lt;br&gt;&lt;b&gt;BlastP hit with CHAFR746836_0049900.1&lt;/b&gt;&lt;br&gt;Percentage identity: 34%&lt;br&gt;Percentage coverage: 87%&lt;br&gt;BLAST bit score: 118&lt;br&gt;E-value: 2e-30" locus_tag="ASPNIDRAFT_42223" id="clusterblast-1_all_61_9_8" points="451,490 457,490 462,485 457,480 451,480 451,490 " class="clusterblast-orf"  />
<polygon style="stroke:black; stroke-width:1; fill:green; " description="hypothetical_protein[br]Location: 1065786 - 1072569&lt;br&gt;&lt;br&gt;&lt;b&gt;BlastP hit with CHAFR746836_0049890.1&lt;/b&gt;&lt;br&gt;Percentage identity: 46%&lt;br&gt;Percentage coverage: 90%&lt;br&gt;BLAST bit score: 1808&lt;br&gt;E-value: 0.0" locus_tag="ASPNIDRAFT_118666" id="clusterblast-1_all_61_9_9" points="333,485 338,480 439,480 439,490 338,490 333,485 " class="clusterblast-orf"  />
<polygon style="stroke:black; stroke-width:1; fill:#FFFFFF; " description="hypothetical_protein[br]Location: 1073194 - 1074622" locus_tag="ASPNIDRAFT_42220" id="clusterblast-1_all_61_9_10" points="301,490 318,490 323,485 318,480 301,480 301,490 " class="clusterblast-orf"  />
<polygon style="stroke:black; stroke-width:1; fill:#FFFFFF; " description="hypothetical_protein[br]Location: 1076169 - 1077370" locus_tag="ASPNIDRAFT_42219" id="clusterblast-1_all_61_9_11" points="258,490 272,490 277,485 272,480 258,480 258,490 " class="clusterblast-orf"  />
<polygon style="stroke:black; stroke-width:1; fill:#FFFFFF; " description="hypothetical_protein[br]Location: 1078663 - 1079289" locus_tag="ASPNIDRAFT_186516" id="clusterblast-1_all_61_9_12" points="228,485 233,480 237,480 237,490 233,490 228,485 " class="clusterblast-orf"  />
<polygon style="stroke:black; stroke-width:1; fill:#FFFFFF; " description="hypothetical_protein[br]Location: 1079929 - 1081281" locus_tag="ASPNIDRAFT_49591" id="clusterblast-1_all_61_9_13" points="196,485 201,480 218,480 218,490 201,490 196,485 " class="clusterblast-orf"  />
<polygon style="stroke:black; stroke-width:1; fill:#FFFFFF; " description="hypothetical_protein[br]Location: 1086130 - 1088158" locus_tag="ASPNIDRAFT_42216" id="clusterblast-1_all_61_9_14" points="89,485 94,480 120,480 120,490 94,490 89,485 " class="clusterblast-orf"  />
<polygon style="stroke:black; stroke-width:1; fill:#FFFFFF; " description="hypothetical_protein[br]Location: 1088530 - 1089597" locus_tag="ASPNIDRAFT_49590" id="clusterblast-1_all_61_9_15" points="66,490 78,490 83,485 78,480 66,480 66,490 " class="clusterblast-orf"  />
<polygon style="stroke:black; stroke-width:1; fill:#FFFFFF; " description="hypothetical_protein[br]Location: 1090147 - 1091856" locus_tag="ASPNIDRAFT_42214" id="clusterblast-1_all_61_9_16" points="31,490 52,490 57,485 52,480 31,480 31,490 " class="clusterblast-orf"  />
</g>
<g class="clusterblast-cluster" description="Verticillium dahliae VdLs.17 supercont1.5 genomic scaffold,..." label="DS572699.1_c2"  >
<text class="clusterblast-acc" y="510" x="5"  >
DS572699.1_c2</text>
<text class="clusterblast-desc" y="510" x="460.8"  >
Verticillium dahliae VdLs.17 supercont1.5 genomic scaffold,...</text>
<line y1="535" x2="778.0" style="stroke:grey; stroke-width:1; " x1="10" y2="535"  />
<polygon style="stroke:black; stroke-width:1; fill:#FFFFFF; " description="hypothetical_protein[br]Location: 1500448 - 1501474" locus_tag="VDAG_03457" id="clusterblast-1_all_61_10_0" points="47,535 52,530 63,530 63,540 52,540 47,535 " class="clusterblast-orf"  />
<polygon style="stroke:black; stroke-width:1; fill:#FFFFFF; " description="hypothetical_protein[br]Location: 1501949 - 1502650" locus_tag="VDAG_03458" id="clusterblast-1_all_61_10_1" points="70,540 76,540 81,535 76,530 70,530 70,540 " class="clusterblast-orf"  />
<polygon style="stroke:black; stroke-width:1; fill:#FFFFFF; " description="mitochondrial_inner_membrane_translocase_subunit[br]Location: 1503228 - 1504912" locus_tag="VDAG_03459" id="clusterblast-1_all_61_10_2" points="90,535 95,530 117,530 117,540 95,540 90,535 " class="clusterblast-orf"  />
<polygon style="stroke:black; stroke-width:1; fill:#FFFFFF; " description="mitochondrial_ribosomal_protein_S18[br]Location: 1505384 - 1506130" locus_tag="VDAG_03460" id="clusterblast-1_all_61_10_3" points="124,540 131,540 136,535 131,530 124,530 124,540 " class="clusterblast-orf"  />
<polygon style="stroke:black; stroke-width:1; fill:#FFFFFF; " description="hag1[br]Location: 1506436 - 1507278" locus_tag="VDAG_03461" id="clusterblast-1_all_61_10_4" points="140,535 145,530 154,530 154,540 145,540 140,535 " class="clusterblast-orf"  />
<polygon style="stroke:black; stroke-width:1; fill:#FFFFFF; " description="GTP-dependent_nucleic_acid-binding_protein_engD[br]Location: 1508332 - 1509968" locus_tag="VDAG_03462" id="clusterblast-1_all_61_10_5" points="170,540 191,540 196,535 191,530 170,530 170,540 " class="clusterblast-orf"  />
<polygon style="stroke:black; stroke-width:1; fill:#FFFFFF; " description="exopolygalacturonase[br]Location: 1510190 - 1512025" locus_tag="VDAG_03463" id="clusterblast-1_all_61_10_6" points="199,535 204,530 228,530 228,540 204,540 199,535 " class="clusterblast-orf"  />
<polygon style="stroke:black; stroke-width:1; fill:#FFFFFF; " description="thioredoxin[br]Location: 1512752 - 1513198" locus_tag="VDAG_03464" id="clusterblast-1_all_61_10_7" points="239,535 244,530 246,530 246,540 244,540 239,535 " class="clusterblast-orf"  />
<polygon style="stroke:black; stroke-width:1; fill:#FFFFFF; " description="drug_resistance_protein[br]Location: 1514042 - 1515821" locus_tag="VDAG_03465" id="clusterblast-1_all_61_10_8" points="260,540 283,540 288,535 283,530 260,530 260,540 " class="clusterblast-orf"  />
<polygon style="stroke:black; stroke-width:1; fill:green; " description="fatty_acid_synthase_S-acetyltransferase[br]Location: 1516713 - 1523486&lt;br&gt;&lt;br&gt;&lt;b&gt;BlastP hit with CHAFR746836_0049890.1&lt;/b&gt;&lt;br&gt;Percentage identity: 46%&lt;br&gt;Percentage coverage: 89%&lt;br&gt;BLAST bit score: 1808&lt;br&gt;E-value: 0.0" locus_tag="VDAG_03466" id="clusterblast-1_all_61_10_9" points="302,535 307,530 408,530 408,540 307,540 302,535 " class="clusterblast-orf"  />
<polygon style="stroke:black; stroke-width:1; fill:blue; " description="hypothetical_protein[br]Location: 1524238 - 1525299&lt;br&gt;&lt;br&gt;&lt;b&gt;BlastP hit with CHAFR746836_0049900.1&lt;/b&gt;&lt;br&gt;Percentage identity: 41%&lt;br&gt;Percentage coverage: 96%&lt;br&gt;BLAST bit score: 193&lt;br&gt;E-value: 2e-58" locus_tag="VDAG_03467" id="clusterblast-1_all_61_10_10" points="420,540 431,540 436,535 431,530 420,530 420,540 " class="clusterblast-orf"  />
<polygon style="stroke:black; stroke-width:1; fill:#FFFFFF; " description="3-hydroxyisobutyrate_dehydrogenase[br]Location: 1525907 - 1529426" locus_tag="VDAG_03468" id="clusterblast-1_all_61_10_11" points="446,535 451,530 501,530 501,540 451,540 446,535 " class="clusterblast-orf"  />
<polygon style="stroke:black; stroke-width:1; fill:#FFFFFF; " description="hypothetical_protein[br]Location: 1530013 - 1532403" locus_tag="VDAG_03469" id="clusterblast-1_all_61_10_12" points="510,540 543,540 548,535 543,530 510,530 510,540 " class="clusterblast-orf"  />
<polygon style="stroke:black; stroke-width:1; fill:#FFFFFF; " description="phthalate_transporter[br]Location: 1533491 - 1535100" locus_tag="VDAG_03470" id="clusterblast-1_all_61_10_13" points="565,540 585,540 590,535 585,530 565,530 565,540 " class="clusterblast-orf"  />
<polygon style="stroke:black; stroke-width:1; fill:#FFFFFF; " description="hypothetical_protein[br]Location: 1535841 - 1536458" locus_tag="VDAG_03471" id="clusterblast-1_all_61_10_14" points="602,540 606,540 611,535 606,530 602,530 602,540 " class="clusterblast-orf"  />
<polygon style="stroke:black; stroke-width:1; fill:#FFFFFF; " description="hypothetical_protein[br]Location: 1537220 - 1538028" locus_tag="VDAG_03472" id="clusterblast-1_all_61_10_15" points="623,535 628,530 636,530 636,540 628,540 623,535 " class="clusterblast-orf"  />
<polygon style="stroke:black; stroke-width:1; fill:#FFFFFF; " description="cutinase-2[br]Location: 1539140 - 1539869" locus_tag="VDAG_03473" id="clusterblast-1_all_61_10_16" points="653,535 658,530 665,530 665,540 658,540 653,535 " class="clusterblast-orf"  />
<polygon style="stroke:black; stroke-width:1; fill:#FFFFFF; " description="vacuolar_protein_sorting-associated_protein[br]Location: 1542234 - 1544693" locus_tag="VDAG_03474" id="clusterblast-1_all_61_10_17" points="702,540 735,540 740,535 735,530 702,530 702,540 " class="clusterblast-orf"  />
</g>
</svg>
