<svg xmlns="http://www.w3.org/2000/svg" height="230" width="800" version="1.1" y="0" x="0" preserveAspectRatio="none" xmlns:xlink="http://www.w3.org/1999/xlink" viewBox="0 0 800 230"  >
<g class="clusterblast-cluster" label="Query sequence"  >
<text class="clusterblast-acc" y="10" x="5"  >
Query sequence</text>
<line y1="35" x2="778.0" style="stroke:grey; stroke-width:1; " x1="10" y2="35"  />
<polygon style="stroke:black; stroke-width:1; fill:#FFFFFF; " description="unannotated orf[br]Location: 489 - 2721" locus_tag="CHAFR746836_0051070.1" class="clusterblast-orf" points="131,35 136,30 143,30 143,40 136,40 131,35 " id="clusterblast-1_q63_7_0"  />
<polygon style="stroke:black; stroke-width:1; fill:#FFFFFF; " description="unannotated orf[br]Location: 4200 - 5219" locus_tag="CHAFR746836_0051080.1" class="clusterblast-orf" points="152,35 157,30 158,30 158,40 157,40 152,35 " id="clusterblast-1_q63_7_1"  />
<polygon style="stroke:black; stroke-width:1; fill:#FFFFFF; " description="unannotated orf[br]Location: 6660 - 7800" locus_tag="CHAFR746836_0051090.1" class="clusterblast-orf" points="166,40 168,40 173,35 168,30 166,30 166,40 " id="clusterblast-1_q63_7_2"  />
<polygon style="stroke:black; stroke-width:1; fill:rgb(190,63,63); " description="unannotated orf[br]Location: 26765 - 27965" locus_tag="CHAFR746836_0051100.1" class="clusterblast-orf" points="283,40 285,40 290,35 285,30 283,30 283,40 " id="clusterblast-1_q63_7_3"  />
<polygon style="stroke:black; stroke-width:1; fill:rgb(63,63,190); " description="unannotated orf[br]Location: 28597 - 39479" locus_tag="CHAFR746836_0051110.1" class="clusterblast-orf" points="294,40 352,40 357,35 352,30 294,30 294,40 " id="clusterblast-1_q63_7_4"  />
<polygon style="stroke:black; stroke-width:1; fill:rgb(63,190,63); " description="unannotated orf[br]Location: 40061 - 41918" locus_tag="CHAFR746836_0051120.1" class="clusterblast-orf" points="361,40 367,40 372,35 367,30 361,30 361,40 " id="clusterblast-1_q63_7_5"  />
<polygon style="stroke:black; stroke-width:1; fill:rgb(190,63,190); " description="unannotated orf[br]Location: 43238 - 44908" locus_tag="CHAFR746836_0051130.1" class="clusterblast-orf" points="379,40 384,40 389,35 384,30 379,30 379,40 " id="clusterblast-1_q63_7_6"  />
<polygon style="stroke:black; stroke-width:1; fill:#FFFFFF; " description="unannotated orf[br]Location: 47854 - 53058" locus_tag="CHAFR746836_0051140.1" class="clusterblast-orf" points="406,35 411,30 436,30 436,40 411,40 406,35 " id="clusterblast-1_q63_7_7"  />
<polygon style="stroke:black; stroke-width:1; fill:rgb(190,190,63); " description="unannotated orf[br]Location: 53967 - 56732" locus_tag="CHAFR746836_0051150.1" class="clusterblast-orf" points="442,40 453,40 458,35 453,30 442,30 442,40 " id="clusterblast-1_q63_7_8"  />
<polygon style="stroke:black; stroke-width:1; fill:#FFFFFF; " description="unannotated orf[br]Location: 58548 - 59100" locus_tag="CHAFR746836_0051160.1" class="clusterblast-orf" points="468,35 472,30 472,40 468,35 " id="clusterblast-1_q63_7_9"  />
<polygon style="stroke:black; stroke-width:1; fill:#FFFFFF; " description="unannotated orf[br]Location: 60871 - 61857" locus_tag="CHAFR746836_0051170.1" class="clusterblast-orf" points="482,40 483,40 488,35 483,30 482,30 482,40 " id="clusterblast-1_q63_7_10"  />
<polygon style="stroke:black; stroke-width:1; fill:#FFFFFF; " description="unannotated orf[br]Location: 63105 - 64083" locus_tag="CHAFR746836_0051180.1" class="clusterblast-orf" points="495,35 500,30 501,30 501,40 500,40 495,35 " id="clusterblast-1_q63_7_11"  />
<polygon style="stroke:black; stroke-width:1; fill:#FFFFFF; " description="unannotated orf[br]Location: 67899 - 70038" locus_tag="CHAFR746836_0051190.1" class="clusterblast-orf" points="523,40 530,40 535,35 530,30 523,30 523,40 " id="clusterblast-1_q63_7_12"  />
<polygon style="stroke:black; stroke-width:1; fill:#FFFFFF; " description="unannotated orf[br]Location: 72649 - 74314" locus_tag="CHAFR746836_0051200.1" class="clusterblast-orf" points="550,35 555,30 560,30 560,40 555,40 550,35 " id="clusterblast-1_q63_7_13"  />
<polygon style="stroke:black; stroke-width:1; fill:#FFFFFF; " description="unannotated orf[br]Location: 77147 - 77748" locus_tag="CHAFR746836_0051210.1" class="clusterblast-orf" points="577,40 580,35 577,30 577,40 " id="clusterblast-1_q63_7_14"  />
<polygon style="stroke:black; stroke-width:1; fill:#FFFFFF; " description="unannotated orf[br]Location: 78975 - 79809" locus_tag="CHAFR746836_0051220.1" class="clusterblast-orf" points="587,40 587,40 592,35 587,30 587,30 587,40 " id="clusterblast-1_q63_7_15"  />
<polygon style="stroke:black; stroke-width:1; fill:#FFFFFF; " description="unannotated orf[br]Location: 85804 - 86841" locus_tag="CHAFR746836_0051230.1" class="clusterblast-orf" points="627,35 632,30 633,30 633,40 632,40 627,35 " id="clusterblast-1_q63_7_16"  />
<polygon style="stroke:black; stroke-width:1; fill:#FFFFFF; " description="unannotated orf[br]Location: 88142 - 90586" locus_tag="CHAFR746836_0051240.1" class="clusterblast-orf" points="641,35 646,30 655,30 655,40 646,40 641,35 " id="clusterblast-1_q63_7_17"  />
</g>
<g class="clusterblast-cluster" description="Streptomyces avermitilis MA-4680, complete genome." label="NC_003155.4_c17"  >
<text class="clusterblast-acc" y="60" x="5"  >
NC_003155.4_c17</text>
<text class="clusterblast-desc" y="60" x="460.8"  >
Streptomyces avermitilis MA-4680, complete genome.</text>
<line y1="85" x2="778.0" style="stroke:grey; stroke-width:1; " x1="10" y2="85"  />
<polygon style="stroke:black; stroke-width:1; fill:#FFFFFF; " description="transcription_termination_factor_Rho[br]Location: 3646335 - 3648401" locus_tag="SAV_2915" id="clusterblast-1_h63_7_0" points="10,90 17,90 22,85 17,80 10,80 10,90 " class="clusterblast-orf"  />
<polygon style="stroke:black; stroke-width:1; fill:#FFFFFF; " description="transcriptional_regulator[br]Location: 3644839 - 3645978" locus_tag="SAV_2914" id="clusterblast-1_h63_7_1" points="24,90 25,90 30,85 25,80 24,80 24,90 " class="clusterblast-orf"  />
<polygon style="stroke:black; stroke-width:1; fill:#FFFFFF; " description="50S_ribosomal_protein_L31[br]Location: 3644421 - 3644642" locus_tag="SAV_2913" id="clusterblast-1_h63_7_2" points="31,90 33,85 31,80 31,90 " class="clusterblast-orf"  />
<polygon style="stroke:black; stroke-width:1; fill:#FFFFFF; " description="peptide_chain_release_factor_1[br]Location: 3643170 - 3644246" locus_tag="SAV_2912" id="clusterblast-1_h63_7_3" points="34,90 35,90 40,85 35,80 34,80 34,90 " class="clusterblast-orf"  />
<polygon style="stroke:black; stroke-width:1; fill:#FFFFFF; " description="methyltransferase[br]Location: 3642242 - 3643123" locus_tag="SAV_2911" id="clusterblast-1_h63_7_4" points="40,90 40,90 45,85 40,80 40,80 40,90 " class="clusterblast-orf"  />
<polygon style="stroke:black; stroke-width:1; fill:#FFFFFF; " description="hypothetical_protein[br]Location: 3641542 - 3642189" locus_tag="SAV_2910" id="clusterblast-1_h63_7_5" points="46,90 49,85 46,80 46,90 " class="clusterblast-orf"  />
<polygon style="stroke:black; stroke-width:1; fill:#FFFFFF; " description="low_molecular_weight_protein_tyrosine[br]Location: 3640880 - 3641545" locus_tag="SAV_2909" id="clusterblast-1_h63_7_6" points="49,90 53,85 49,80 49,90 " class="clusterblast-orf"  />
<polygon style="stroke:black; stroke-width:1; fill:#FFFFFF; " description="serine_hydroxymethyltransferase[br]Location: 3639464 - 3640735" locus_tag="SAV_2908" id="clusterblast-1_h63_7_7" points="54,90 57,90 62,85 57,80 54,80 54,90 " class="clusterblast-orf"  />
<polygon style="stroke:black; stroke-width:1; fill:#FFFFFF; " description="teichoic_acid_linkage_unit_synthesis_(synthesis[br]Location: 3637912 - 3639336" locus_tag="SAV_2907" id="clusterblast-1_h63_7_8" points="62,90 66,90 71,85 66,80 62,80 62,90 " class="clusterblast-orf"  />
<polygon style="stroke:black; stroke-width:1; fill:#FFFFFF; " description="methylmalonyl-CoA_mutase,_alpha_subunit[br]Location: 3636671 - 3637804" locus_tag="SAV_2906" id="clusterblast-1_h63_7_9" points="71,85 76,80 78,80 78,90 76,90 71,85 " class="clusterblast-orf"  />
<polygon style="stroke:black; stroke-width:1; fill:#FFFFFF; " description="phosphopantetheinyl_transferase[br]Location: 3635892 - 3636674" locus_tag="SAV_2905" id="clusterblast-1_h63_7_10" points="78,85 82,80 82,90 78,85 " class="clusterblast-orf"  />
<polygon style="stroke:black; stroke-width:1; fill:#FFFFFF; " description="SimX4-like_protein[br]Location: 3634930 - 3635895" locus_tag="SAV_2904" id="clusterblast-1_h63_7_11" points="82,85 87,80 88,80 88,90 87,90 82,85 " class="clusterblast-orf"  />
<polygon style="stroke:black; stroke-width:1; fill:#FFFFFF; " description="thioesterase[br]Location: 3633834 - 3634592" locus_tag="SAV_2903" id="clusterblast-1_h63_7_12" points="90,90 94,85 90,80 90,90 " class="clusterblast-orf"  />
<polygon style="stroke:black; stroke-width:1; fill:#FFFFFF; " description="LuxR_family_transcriptional_regulator[br]Location: 3630367 - 3633162" locus_tag="SAV_2902" id="clusterblast-1_h63_7_13" points="98,90 109,90 114,85 109,80 98,80 98,90 " class="clusterblast-orf"  />
<polygon style="stroke:black; stroke-width:1; fill:#FFFFFF; " description="LuxR_family_transcriptional_regulator[br]Location: 3627319 - 3630147" locus_tag="SAV_2901" id="clusterblast-1_h63_7_14" points="116,90 127,90 132,85 127,80 116,80 116,90 " class="clusterblast-orf"  />
<polygon style="stroke:black; stroke-width:1; fill:#FFFFFF; " description="P450-like_protein[br]Location: 3626534 - 3626872" locus_tag="SAV_2900" id="clusterblast-1_h63_7_15" points="135,90 137,85 135,80 135,90 " class="clusterblast-orf"  />
<polygon style="stroke:black; stroke-width:1; fill:rgb(190,63,63); " description="modular_polyketide_synthase[br]Location: 3607907 - 3626347&lt;br&gt;&lt;br&gt;&lt;b&gt;BlastP hit with CHAFR746836_0051100.1&lt;/b&gt;&lt;br&gt;Percentage identity: 42%&lt;br&gt;Percentage coverage: 96%&lt;br&gt;BLAST bit score: 241&lt;br&gt;E-value: 5e-69&lt;br&gt;&lt;br&gt;&lt;b&gt;BlastP hit with CHAFR746836_0051110.1&lt;/b&gt;&lt;br&gt;Percentage identity: 32%&lt;br&gt;Percentage coverage: 11%&lt;br&gt;BLAST bit score: 134&lt;br&gt;E-value: 1e-29" locus_tag="SAV_2899" id="clusterblast-1_h63_7_16" points="138,90 240,90 245,85 240,80 138,80 138,90 " class="clusterblast-orf"  />
<polygon style="stroke:black; stroke-width:1; fill:rgb(190,63,63); " description="modular_polyketide_synthase[br]Location: 3593359 - 3607881&lt;br&gt;&lt;br&gt;&lt;b&gt;BlastP hit with CHAFR746836_0051100.1&lt;/b&gt;&lt;br&gt;Percentage identity: 40%&lt;br&gt;Percentage coverage: 96%&lt;br&gt;BLAST bit score: 215&lt;br&gt;E-value: 3e-60" locus_tag="SAV_2898" id="clusterblast-1_h63_7_17" points="245,90 325,90 330,85 325,80 245,80 245,90 " class="clusterblast-orf"  />
<polygon style="stroke:black; stroke-width:1; fill:rgb(190,63,63); " description="modular_polyketide_synthase[br]Location: 3581534 - 3593353&lt;br&gt;&lt;br&gt;&lt;b&gt;BlastP hit with CHAFR746836_0051100.1&lt;/b&gt;&lt;br&gt;Percentage identity: 42%&lt;br&gt;Percentage coverage: 96%&lt;br&gt;BLAST bit score: 250&lt;br&gt;E-value: 2e-72" locus_tag="SAV_2897" id="clusterblast-1_h63_7_18" points="330,90 394,90 399,85 394,80 330,80 330,90 " class="clusterblast-orf"  />
<polygon style="stroke:black; stroke-width:1; fill:rgb(190,63,63); " description="modular_polyketide_synthase[br]Location: 3567331 - 3581388&lt;br&gt;&lt;br&gt;&lt;b&gt;BlastP hit with CHAFR746836_0051100.1&lt;/b&gt;&lt;br&gt;Percentage identity: 38%&lt;br&gt;Percentage coverage: 98%&lt;br&gt;BLAST bit score: 220&lt;br&gt;E-value: 8e-62" locus_tag="SAV_2896" id="clusterblast-1_h63_7_19" points="399,90 476,90 481,85 476,80 399,80 399,90 " class="clusterblast-orf"  />
<polygon style="stroke:black; stroke-width:1; fill:rgb(190,63,63); " description="modular_polyketide_synthase[br]Location: 3556431 - 3567272&lt;br&gt;&lt;br&gt;&lt;b&gt;BlastP hit with CHAFR746836_0051100.1&lt;/b&gt;&lt;br&gt;Percentage identity: 39%&lt;br&gt;Percentage coverage: 95%&lt;br&gt;BLAST bit score: 218&lt;br&gt;E-value: 3e-61" locus_tag="SAV_2895" id="clusterblast-1_h63_7_20" points="482,90 540,90 545,85 540,80 482,80 482,90 " class="clusterblast-orf"  />
<polygon style="stroke:black; stroke-width:1; fill:#FFFFFF; " description="cytochrome_P450_hydroxylase[br]Location: 3554746 - 3555960" locus_tag="SAV_2894" id="clusterblast-1_h63_7_21" points="547,85 552,80 555,80 555,90 552,90 547,85 " class="clusterblast-orf"  />
<polygon style="stroke:black; stroke-width:1; fill:rgb(190,63,63); " description="modular_polyketide_synthase[br]Location: 3548827 - 3554550&lt;br&gt;&lt;br&gt;&lt;b&gt;BlastP hit with CHAFR746836_0051100.1&lt;/b&gt;&lt;br&gt;Percentage identity: 40%&lt;br&gt;Percentage coverage: 96%&lt;br&gt;BLAST bit score: 228&lt;br&gt;E-value: 5e-65" locus_tag="SAV_2893" id="clusterblast-1_h63_7_22" points="556,85 561,80 589,80 589,90 561,90 556,85 " class="clusterblast-orf"  />
<polygon style="stroke:black; stroke-width:1; fill:rgb(190,63,63); " description="modular_polyketide_synthase[br]Location: 3536766 - 3548678&lt;br&gt;&lt;br&gt;&lt;b&gt;BlastP hit with CHAFR746836_0051100.1&lt;/b&gt;&lt;br&gt;Percentage identity: 43%&lt;br&gt;Percentage coverage: 96%&lt;br&gt;BLAST bit score: 245&lt;br&gt;E-value: 1e-70" locus_tag="SAV_2892" id="clusterblast-1_h63_7_23" points="590,85 595,80 659,80 659,90 595,90 590,85 " class="clusterblast-orf"  />
<polygon style="stroke:black; stroke-width:1; fill:#FFFFFF; " description="hypothetical_protein[br]Location: 3536018 - 3536521" locus_tag="SAV_2891" id="clusterblast-1_h63_7_24" points="661,90 664,85 661,80 661,90 " class="clusterblast-orf"  />
<polygon style="stroke:black; stroke-width:1; fill:#FFFFFF; " description="crotonyl-CoA_reductase[br]Location: 3534525 - 3535877" locus_tag="SAV_2890" id="clusterblast-1_h63_7_25" points="664,90 667,90 672,85 667,80 664,80 664,90 " class="clusterblast-orf"  />
<polygon style="stroke:black; stroke-width:1; fill:#FFFFFF; " description="3-hydroxybutyryl-CoA_dehydrogenase[br]Location: 3533486 - 3534304" locus_tag="SAV_2889" id="clusterblast-1_h63_7_26" points="673,90 673,90 678,85 673,80 673,80 673,90 " class="clusterblast-orf"  />
<polygon style="stroke:black; stroke-width:1; fill:#FFFFFF; " description="ATP_synthase_protein_I[br]Location: 3532782 - 3533195" locus_tag="SAV_2888" id="clusterblast-1_h63_7_27" points="680,90 682,85 680,80 680,90 " class="clusterblast-orf"  />
<polygon style="stroke:black; stroke-width:1; fill:#FFFFFF; " description="F0F1_ATP_synthase_subunit_A[br]Location: 3531750 - 3532559" locus_tag="SAV_2887" id="clusterblast-1_h63_7_28" points="684,90 688,85 684,80 684,90 " class="clusterblast-orf"  />
<polygon style="stroke:black; stroke-width:1; fill:#FFFFFF; " description="F-type_proton-transporting_ATPase_c_chain[br]Location: 3531439 - 3531681" locus_tag="SAV_2886" id="clusterblast-1_h63_7_29" points="689,90 690,85 689,80 689,90 " class="clusterblast-orf"  />
<polygon style="stroke:black; stroke-width:1; fill:#FFFFFF; " description="F0F1_ATP_synthase_subunit_B[br]Location: 3530857 - 3531417" locus_tag="SAV_2885" id="clusterblast-1_h63_7_30" points="690,90 694,85 690,80 690,90 " class="clusterblast-orf"  />
<polygon style="stroke:black; stroke-width:1; fill:#FFFFFF; " description="F0F1_ATP_synthase_subunit_delta[br]Location: 3530039 - 3530860" locus_tag="SAV_2884" id="clusterblast-1_h63_7_31" points="694,90 698,85 694,80 694,90 " class="clusterblast-orf"  />
<polygon style="stroke:black; stroke-width:1; fill:#FFFFFF; " description="F0F1_ATP_synthase_subunit_alpha[br]Location: 3528320 - 3529909" locus_tag="SAV_2883" id="clusterblast-1_h63_7_32" points="699,90 703,90 708,85 703,80 699,80 699,90 " class="clusterblast-orf"  />
<polygon style="stroke:black; stroke-width:1; fill:#FFFFFF; " description="F0F1_ATP_synthase_subunit_gamma[br]Location: 3527381 - 3528298" locus_tag="SAV_2882" id="clusterblast-1_h63_7_33" points="708,90 709,90 714,85 709,80 708,80 708,90 " class="clusterblast-orf"  />
<polygon style="stroke:black; stroke-width:1; fill:#FFFFFF; " description="F0F1_ATP_synthase_subunit_beta[br]Location: 3525945 - 3527381" locus_tag="SAV_2881" id="clusterblast-1_h63_7_34" points="714,90 717,90 722,85 717,80 714,80 714,90 " class="clusterblast-orf"  />
<polygon style="stroke:black; stroke-width:1; fill:#FFFFFF; " description="F0F1_ATP_synthase_subunit_epsilon[br]Location: 3525460 - 3525834" locus_tag="SAV_2880" id="clusterblast-1_h63_7_35" points="723,90 725,85 723,80 723,90 " class="clusterblast-orf"  />
<polygon style="stroke:black; stroke-width:1; fill:#FFFFFF; " description="hypothetical_protein[br]Location: 3524875 - 3525327" locus_tag="SAV_2879" id="clusterblast-1_h63_7_36" points="726,90 728,85 726,80 726,90 " class="clusterblast-orf"  />
<polygon style="stroke:black; stroke-width:1; fill:#FFFFFF; " description="chitinase_C_precursor[br]Location: 3522979 - 3524802" locus_tag="SAV_2878" id="clusterblast-1_h63_7_37" points="729,85 734,80 739,80 739,90 734,90 729,85 " class="clusterblast-orf"  />
<polygon style="stroke:black; stroke-width:1; fill:#FFFFFF; " description="two-component_system_response_regulator[br]Location: 3522196 - 3522837" locus_tag="SAV_2877" id="clusterblast-1_h63_7_38" points="740,85 744,80 744,90 740,85 " class="clusterblast-orf"  />
<polygon style="stroke:black; stroke-width:1; fill:#FFFFFF; " description="two-component_system_sensor_kinase[br]Location: 3521015 - 3522199" locus_tag="SAV_2876" id="clusterblast-1_h63_7_39" points="744,85 749,80 751,80 751,90 749,90 744,85 " class="clusterblast-orf"  />
<polygon style="stroke:black; stroke-width:1; fill:#FFFFFF; " description="hypothetical_protein[br]Location: 3520317 - 3520940" locus_tag="SAV_2875" id="clusterblast-1_h63_7_40" points="751,90 755,85 751,80 751,90 " class="clusterblast-orf"  />
<polygon style="stroke:black; stroke-width:1; fill:#FFFFFF; " description="cobalamin_adenosyltransferase[br]Location: 3519748 - 3520320" locus_tag="SAV_2874" id="clusterblast-1_h63_7_41" points="755,85 758,80 758,90 755,85 " class="clusterblast-orf"  />
<polygon style="stroke:black; stroke-width:1; fill:#FFFFFF; " description="hypothetical_protein[br]Location: 3518985 - 3519734" locus_tag="SAV_2873" id="clusterblast-1_h63_7_42" points="758,85 763,80 763,80 763,90 763,90 758,85 " class="clusterblast-orf"  />
<polygon style="stroke:black; stroke-width:1; fill:#FFFFFF; " description="ABC_transporter_ATP-binding_protein[br]Location: 3518171 - 3518953" locus_tag="SAV_2872" id="clusterblast-1_h63_7_43" points="763,85 767,80 767,90 763,85 " class="clusterblast-orf"  />
<polygon style="stroke:black; stroke-width:1; fill:#FFFFFF; " description="TetR_family_transcriptional_regulator[br]Location: 3517449 - 3518090" locus_tag="SAV_2871" id="clusterblast-1_h63_7_44" points="768,90 772,85 768,80 768,90 " class="clusterblast-orf"  />
<polygon style="stroke:black; stroke-width:1; fill:#FFFFFF; " description="3-hydroxyacyl-CoA_dehydrogenase[br]Location: 3516433 - 3517281" locus_tag="SAV_2870" id="clusterblast-1_h63_7_45" points="773,90 773,90 778,85 773,80 773,80 773,90 " class="clusterblast-orf"  />
</g>
</svg>
