<svg xmlns="http://www.w3.org/2000/svg" height="230" width="800" version="1.1" y="0" x="0" preserveAspectRatio="none" xmlns:xlink="http://www.w3.org/1999/xlink" viewBox="0 0 800 230"  >
<g class="clusterblast-cluster" label="Query sequence"  >
<text class="clusterblast-acc" y="10" x="5"  >
Query sequence</text>
<line y1="35" x2="778.0" style="stroke:grey; stroke-width:1; " x1="10" y2="35"  />
<polygon style="stroke:black; stroke-width:1; fill:rgb(190,63,63); " description="unannotated orf[br]Location: 25203 - 26345" locus_tag="CHAFR746836_0077540.1" class="clusterblast-orf" points="157,40 157,40 162,35 157,30 157,30 157,40 " id="clusterblast-1_q10_5_0"  />
<polygon style="stroke:black; stroke-width:1; fill:rgb(63,63,190); " description="unannotated orf[br]Location: 33656 - 34656" locus_tag="CHAFR746836_0077550.1" class="clusterblast-orf" points="200,35 205,30 205,30 205,40 205,40 200,35 " id="clusterblast-1_q10_5_1"  />
<polygon style="stroke:black; stroke-width:1; fill:#FFFFFF; " description="unannotated orf[br]Location: 40941 - 41922" locus_tag="CHAFR746836_0077560.1" class="clusterblast-orf" points="237,40 237,40 242,35 237,30 237,30 237,40 " id="clusterblast-1_q10_5_2"  />
<polygon style="stroke:black; stroke-width:1; fill:#FFFFFF; " description="unannotated orf[br]Location: 42481 - 43285" locus_tag="CHAFR746836_0077570.1" class="clusterblast-orf" points="245,35 249,30 249,40 245,35 " id="clusterblast-1_q10_5_3"  />
<polygon style="stroke:black; stroke-width:1; fill:#FFFFFF; " description="unannotated orf[br]Location: 45175 - 46813" locus_tag="CHAFR746836_0077580.1" class="clusterblast-orf" points="259,40 262,40 267,35 262,30 259,30 259,40 " id="clusterblast-1_q10_5_4"  />
<polygon style="stroke:black; stroke-width:1; fill:#FFFFFF; " description="unannotated orf[br]Location: 52915 - 54699" locus_tag="CHAFR746836_0077590.1" class="clusterblast-orf" points="298,40 302,40 307,35 302,30 298,30 298,40 " id="clusterblast-1_q10_5_5"  />
<polygon style="stroke:black; stroke-width:1; fill:rgb(63,190,63); " description="unannotated orf[br]Location: 56890 - 57476" locus_tag="CHAFR746836_0077600.1" class="clusterblast-orf" points="319,40 322,35 319,30 319,40 " id="clusterblast-1_q10_5_6"  />
<polygon style="stroke:black; stroke-width:1; fill:rgb(190,63,190); " description="unannotated orf[br]Location: 58827 - 59758" locus_tag="CHAFR746836_0077610.1" class="clusterblast-orf" points="329,40 333,35 329,30 329,40 " id="clusterblast-1_q10_5_7"  />
<polygon style="stroke:black; stroke-width:1; fill:#FFFFFF; " description="unannotated orf[br]Location: 60873 - 61266" locus_tag="CHAFR746836_0077620.1" class="clusterblast-orf" points="339,35 341,30 341,40 339,35 " id="clusterblast-1_q10_5_8"  />
<polygon style="stroke:black; stroke-width:1; fill:#FFFFFF; " description="unannotated orf[br]Location: 62590 - 64438" locus_tag="CHAFR746836_0077630.1" class="clusterblast-orf" points="348,35 353,30 357,30 357,40 353,40 348,35 " id="clusterblast-1_q10_5_9"  />
<polygon style="stroke:black; stroke-width:1; fill:rgb(190,190,63); " description="unannotated orf[br]Location: 67540 - 77132" locus_tag="CHAFR746836_0077640.1" class="clusterblast-orf" points="373,35 378,30 422,30 422,40 378,40 373,35 " id="clusterblast-1_q10_5_10"  />
<polygon style="stroke:black; stroke-width:1; fill:#FFFFFF; " description="unannotated orf[br]Location: 83720 - 84542" locus_tag="CHAFR746836_0077650.1" class="clusterblast-orf" points="456,40 460,35 456,30 456,40 " id="clusterblast-1_q10_5_11"  />
<polygon style="stroke:black; stroke-width:1; fill:#FFFFFF; " description="unannotated orf[br]Location: 85708 - 88797" locus_tag="CHAFR746836_0077660.1" class="clusterblast-orf" points="466,35 471,30 482,30 482,40 471,40 466,35 " id="clusterblast-1_q10_5_12"  />
<polygon style="stroke:black; stroke-width:1; fill:#FFFFFF; " description="unannotated orf[br]Location: 89609 - 90957" locus_tag="CHAFR746836_0077670.1" class="clusterblast-orf" points="486,35 491,30 493,30 493,40 491,40 486,35 " id="clusterblast-1_q10_5_13"  />
<polygon style="stroke:black; stroke-width:1; fill:#FFFFFF; " description="unannotated orf[br]Location: 91271 - 91979" locus_tag="CHAFR746836_0077680.1" class="clusterblast-orf" points="495,40 498,35 495,30 495,40 " id="clusterblast-1_q10_5_14"  />
<polygon style="stroke:black; stroke-width:1; fill:#FFFFFF; " description="unannotated orf[br]Location: 92728 - 93646" locus_tag="CHAFR746836_0077690.1" class="clusterblast-orf" points="502,35 507,30 507,30 507,40 507,40 502,35 " id="clusterblast-1_q10_5_15"  />
<polygon style="stroke:black; stroke-width:1; fill:#FFFFFF; " description="unannotated orf[br]Location: 94508 - 95510" locus_tag="CHAFR746836_0077700.1" class="clusterblast-orf" points="511,40 511,40 516,35 511,30 511,30 511,40 " id="clusterblast-1_q10_5_16"  />
<polygon style="stroke:black; stroke-width:1; fill:#FFFFFF; " description="unannotated orf[br]Location: 95897 - 96815" locus_tag="CHAFR746836_0077710.1" class="clusterblast-orf" points="518,35 523,30 523,30 523,40 523,40 518,35 " id="clusterblast-1_q10_5_17"  />
<polygon style="stroke:black; stroke-width:1; fill:rgb(190,190,190); " description="unannotated orf[br]Location: 99791 - 101108" locus_tag="CHAFR746836_0077720.1" class="clusterblast-orf" points="538,40 540,40 545,35 540,30 538,30 538,40 " id="clusterblast-1_q10_5_18"  />
<polygon style="stroke:black; stroke-width:1; fill:#FFFFFF; " description="unannotated orf[br]Location: 105182 - 105691" locus_tag="CHAFR746836_0077730.1" class="clusterblast-orf" points="566,40 568,35 566,30 566,40 " id="clusterblast-1_q10_5_19"  />
<polygon style="stroke:black; stroke-width:1; fill:#FFFFFF; " description="unannotated orf[br]Location: 116324 - 117422" locus_tag="CHAFR746836_0077740.1" class="clusterblast-orf" points="623,35 628,30 629,30 629,40 628,40 623,35 " id="clusterblast-1_q10_5_20"  />
</g>
<g class="clusterblast-cluster" description="Streptomyces cattleya NRRL 8057, complete genome." label="NC_016111.1_c3"  >
<text class="clusterblast-acc" y="60" x="5"  >
NC_016111.1_c3</text>
<text class="clusterblast-desc" y="60" x="460.8"  >
Streptomyces cattleya NRRL 8057, complete genome.</text>
<line y1="85" x2="778.0" style="stroke:grey; stroke-width:1; " x1="10" y2="85"  />
<polygon style="stroke:black; stroke-width:1; fill:#FFFFFF; " description="integral_membrane_sensor_protein[br]Location: 128043 - 130808" locus_tag="SCAT_0115" id="clusterblast-1_h10_5_0" points="10,90 19,90 24,85 19,80 10,80 10,90 " class="clusterblast-orf"  />
<polygon style="stroke:black; stroke-width:1; fill:#FFFFFF; " description="hypothetical_protein[br]Location: 130878 - 133544" locus_tag="SCAT_0116" id="clusterblast-1_h10_5_1" points="24,85 29,80 38,80 38,90 29,90 24,85 " class="clusterblast-orf"  />
<polygon style="stroke:black; stroke-width:1; fill:#FFFFFF; " description="Dihydrolipoyl_dehydrogenase[br]Location: 131631 - 133031" locus_tag="SCAT_0117" id="clusterblast-1_h10_5_2" points="28,90 30,90 35,85 30,80 28,80 28,90 " class="clusterblast-orf"  />
<polygon style="stroke:black; stroke-width:1; fill:#FFFFFF; " description="hypothetical_protein[br]Location: 134175 - 134447" locus_tag="SCAT_0118" id="clusterblast-1_h10_5_3" points="41,90 42,85 41,80 41,90 " class="clusterblast-orf"  />
<polygon style="stroke:black; stroke-width:1; fill:#FFFFFF; " description="Limonene_1,2-monooxygenase[br]Location: 134444 - 135625" locus_tag="SCAT_0119" id="clusterblast-1_h10_5_4" points="42,90 43,90 48,85 43,80 42,80 42,90 " class="clusterblast-orf"  />
<polygon style="stroke:black; stroke-width:1; fill:#FFFFFF; " description="short-chain_dehydrogenase[br]Location: 135868 - 136701" locus_tag="SCAT_0120" id="clusterblast-1_h10_5_5" points="50,90 54,85 50,80 50,90 " class="clusterblast-orf"  />
<polygon style="stroke:black; stroke-width:1; fill:#FFFFFF; " description="hypothetical_protein[br]Location: 136792 - 137097" locus_tag="SCAT_0121" id="clusterblast-1_h10_5_6" points="54,90 56,85 54,80 54,90 " class="clusterblast-orf"  />
<polygon style="stroke:black; stroke-width:1; fill:#FFFFFF; " description="TMC_biosynthetic_enzyme_R3[br]Location: 137238 - 138602" locus_tag="SCAT_0122" id="clusterblast-1_h10_5_7" points="57,90 59,90 64,85 59,80 57,80 57,90 " class="clusterblast-orf"  />
<polygon style="stroke:black; stroke-width:1; fill:#FFFFFF; " description="hypothetical_protein[br]Location: 138818 - 139042" locus_tag="SCAT_0123" id="clusterblast-1_h10_5_8" points="65,90 66,85 65,80 65,90 " class="clusterblast-orf"  />
<polygon style="stroke:black; stroke-width:1; fill:#FFFFFF; " description="transposase_(fragment)[br]Location: 139044 - 139373" locus_tag="SCAT_0124" id="clusterblast-1_h10_5_9" points="66,90 67,85 66,80 66,90 " class="clusterblast-orf"  />
<polygon style="stroke:black; stroke-width:1; fill:#FFFFFF; " description="hypothetical_protein[br]Location: 139479 - 139889" locus_tag="SCAT_0125" id="clusterblast-1_h10_5_10" points="68,85 70,80 70,90 68,85 " class="clusterblast-orf"  />
<polygon style="stroke:black; stroke-width:1; fill:#FFFFFF; " description="Transcriptional_regulator,_luxR_family[br]Location: 139608 - 142385" locus_tag="SCAT_0126" id="clusterblast-1_h10_5_11" points="69,90 78,90 83,85 78,80 69,80 69,90 " class="clusterblast-orf"  />
<polygon style="stroke:black; stroke-width:1; fill:#FFFFFF; " description="hypothetical_protein[br]Location: 142597 - 143073" locus_tag="SCAT_0127" id="clusterblast-1_h10_5_12" points="84,90 86,85 84,80 84,90 " class="clusterblast-orf"  />
<polygon style="stroke:black; stroke-width:1; fill:#FFFFFF; " description="hypothetical_protein[br]Location: 143553 - 143663" locus_tag="SCAT_0128" id="clusterblast-1_h10_5_13" points="89,85 89,80 89,90 89,85 " class="clusterblast-orf"  />
<polygon style="stroke:black; stroke-width:1; fill:#FFFFFF; " description="hypothetical_protein[br]Location: 144689 - 145786" locus_tag="SCAT_0130" id="clusterblast-1_h10_5_14" points="95,90 95,90 100,85 95,80 95,80 95,90 " class="clusterblast-orf"  />
<polygon style="stroke:black; stroke-width:1; fill:#FFFFFF; " description="Thioesterase[br]Location: 144776 - 145795" locus_tag="SCAT_0129" id="clusterblast-1_h10_5_15" points="95,85 100,80 100,80 100,90 100,90 95,85 " class="clusterblast-orf"  />
<polygon style="stroke:black; stroke-width:1; fill:#FFFFFF; " description="hexachlorocyclohexane_dehydrochlorinase_1[br]Location: 145950 - 146399" locus_tag="SCAT_0131" id="clusterblast-1_h10_5_16" points="101,85 103,80 103,90 101,85 " class="clusterblast-orf"  />
<polygon style="stroke:black; stroke-width:1; fill:#FFFFFF; " description="carveol_dehydrogenase[br]Location: 146520 - 147362" locus_tag="SCAT_0132" id="clusterblast-1_h10_5_17" points="104,85 108,80 108,90 104,85 " class="clusterblast-orf"  />
<polygon style="stroke:black; stroke-width:1; fill:#FFFFFF; " description="hypothetical_protein[br]Location: 147411 - 147833" locus_tag="SCAT_0133" id="clusterblast-1_h10_5_18" points="109,85 111,80 111,90 109,85 " class="clusterblast-orf"  />
<polygon style="stroke:black; stroke-width:1; fill:#FFFFFF; " description="hypothetical_protein[br]Location: 147861 - 148220" locus_tag="SCAT_0134" id="clusterblast-1_h10_5_19" points="111,85 113,80 113,90 111,85 " class="clusterblast-orf"  />
<polygon style="stroke:black; stroke-width:1; fill:#FFFFFF; " description="Cytochrome_P450_107B1[br]Location: 148259 - 149509" locus_tag="SCAT_0135" id="clusterblast-1_h10_5_20" points="113,85 118,80 119,80 119,90 118,90 113,85 " class="clusterblast-orf"  />
<polygon style="stroke:black; stroke-width:1; fill:rgb(190,190,63); " description="6-methylsalicylic_acid_synthase[br]Location: 149575 - 167952&lt;br&gt;&lt;br&gt;&lt;b&gt;BlastP hit with CHAFR746836_0077640.1&lt;/b&gt;&lt;br&gt;Percentage identity: 32%&lt;br&gt;Percentage coverage: 33%&lt;br&gt;BLAST bit score: 444&lt;br&gt;E-value: 2e-123" locus_tag="SCAT_0136" id="clusterblast-1_h10_5_21" points="120,85 125,80 214,80 214,90 125,90 120,85 " class="clusterblast-orf"  />
<polygon style="stroke:black; stroke-width:1; fill:#FFFFFF; " description="Beta-ketoacyl-acyl-carrier-protein_synthase_II[br]Location: 167949 - 180998" locus_tag="SCAT_0137" id="clusterblast-1_h10_5_22" points="214,85 219,80 281,80 281,90 219,90 214,85 " class="clusterblast-orf"  />
<polygon style="stroke:black; stroke-width:1; fill:#FFFFFF; " description="hypothetical_protein[br]Location: 181102 - 181620" locus_tag="SCAT_0138" id="clusterblast-1_h10_5_23" points="281,85 284,80 284,90 281,85 " class="clusterblast-orf"  />
<polygon style="stroke:black; stroke-width:1; fill:#FFFFFF; " description="hypothetical_protein[br]Location: 181214 - 181735" locus_tag="SCAT_0139" id="clusterblast-1_h10_5_24" points="282,90 284,85 282,80 282,90 " class="clusterblast-orf"  />
<polygon style="stroke:black; stroke-width:1; fill:#FFFFFF; " description="Polyketide_synthase_type_I[br]Location: 181991 - 193786" locus_tag="SCAT_0140" id="clusterblast-1_h10_5_25" points="286,90 341,90 346,85 341,80 286,80 286,90 " class="clusterblast-orf"  />
<polygon style="stroke:black; stroke-width:1; fill:rgb(190,190,63); " description="type_I_polyketide_synthase[br]Location: 193841 - 197878&lt;br&gt;&lt;br&gt;&lt;b&gt;BlastP hit with CHAFR746836_0077640.1&lt;/b&gt;&lt;br&gt;Percentage identity: 31%&lt;br&gt;Percentage coverage: 34%&lt;br&gt;BLAST bit score: 402&lt;br&gt;E-value: 8e-114" locus_tag="SCAT_0141" id="clusterblast-1_h10_5_26" points="346,90 362,90 367,85 362,80 346,80 346,90 " class="clusterblast-orf"  />
<polygon style="stroke:black; stroke-width:1; fill:#FFFFFF; " description="hypothetical_protein[br]Location: 198712 - 199404" locus_tag="SCAT_0142" id="clusterblast-1_h10_5_27" points="371,90 375,85 371,80 371,90 " class="clusterblast-orf"  />
<polygon style="stroke:black; stroke-width:1; fill:#FFFFFF; " description="Zn-dependent_hydrolase,_glyoxylase_(fragment)[br]Location: 199100 - 199468" locus_tag="SCAT_0143" id="clusterblast-1_h10_5_28" points="373,90 375,85 373,80 373,90 " class="clusterblast-orf"  />
<polygon style="stroke:black; stroke-width:1; fill:#FFFFFF; " description="aldose_1-epimerase[br]Location: 199794 - 200927" locus_tag="SCAT_0144" id="clusterblast-1_h10_5_29" points="377,90 378,90 383,85 378,80 377,80 377,90 " class="clusterblast-orf"  />
<polygon style="stroke:black; stroke-width:1; fill:#FFFFFF; " description="protein_FarA[br]Location: 201276 - 201884" locus_tag="SCAT_0145" id="clusterblast-1_h10_5_30" points="384,85 387,80 387,90 384,85 " class="clusterblast-orf"  />
<polygon style="stroke:black; stroke-width:1; fill:#FFFFFF; " description="oxidoreductase_yetM[br]Location: 203115 - 204215" locus_tag="SCAT_0146" id="clusterblast-1_h10_5_31" points="394,90 394,90 399,85 394,80 394,80 394,90 " class="clusterblast-orf"  />
<polygon style="stroke:black; stroke-width:1; fill:#FFFFFF; " description="hypothetical_protein[br]Location: 204370 - 204549" locus_tag="SCAT_0147" id="clusterblast-1_h10_5_32" points="400,85 401,80 401,90 400,85 " class="clusterblast-orf"  />
<polygon style="stroke:black; stroke-width:1; fill:#FFFFFF; " description="transposase[br]Location: 204702 - 205463" locus_tag="SCAT_0148" id="clusterblast-1_h10_5_33" points="402,90 406,85 402,80 402,90 " class="clusterblast-orf"  />
<polygon style="stroke:black; stroke-width:1; fill:#FFFFFF; " description="hypothetical_protein[br]Location: 205453 - 205788" locus_tag="SCAT_0149" id="clusterblast-1_h10_5_34" points="406,90 407,85 406,80 406,90 " class="clusterblast-orf"  />
<polygon style="stroke:black; stroke-width:1; fill:#FFFFFF; " description="hypothetical_protein[br]Location: 205980 - 207230" locus_tag="SCAT_0150" id="clusterblast-1_h10_5_35" points="408,85 413,80 415,80 415,90 413,90 408,85 " class="clusterblast-orf"  />
<polygon style="stroke:black; stroke-width:1; fill:#FFFFFF; " description="hypothetical_protein[br]Location: 207428 - 207691" locus_tag="SCAT_0151" id="clusterblast-1_h10_5_36" points="416,85 417,80 417,90 416,85 " class="clusterblast-orf"  />
<polygon style="stroke:black; stroke-width:1; fill:#FFFFFF; " description="hypothetical_protein[br]Location: 207773 - 207949" locus_tag="SCAT_0152" id="clusterblast-1_h10_5_37" points="418,90 418,85 418,80 418,90 " class="clusterblast-orf"  />
<polygon style="stroke:black; stroke-width:1; fill:#FFFFFF; " description="hypothetical_protein[br]Location: 208071 - 208400" locus_tag="SCAT_0153" id="clusterblast-1_h10_5_38" points="419,85 421,80 421,90 419,85 " class="clusterblast-orf"  />
<polygon style="stroke:black; stroke-width:1; fill:#FFFFFF; " description="dipeptidase[br]Location: 208662 - 209348" locus_tag="SCAT_0154" id="clusterblast-1_h10_5_39" points="422,85 426,80 426,90 422,85 " class="clusterblast-orf"  />
<polygon style="stroke:black; stroke-width:1; fill:#FFFFFF; " description="Oxidoreductase,_zinc-binding_dehydrogenase[br]Location: 210038 - 210952" locus_tag="SCAT_0155" id="clusterblast-1_h10_5_40" points="429,85 434,80 434,80 434,90 434,90 429,85 " class="clusterblast-orf"  />
<polygon style="stroke:black; stroke-width:1; fill:#FFFFFF; " description="hypothetical_protein[br]Location: 210988 - 211398" locus_tag="SCAT_0156" id="clusterblast-1_h10_5_41" points="434,85 436,80 436,90 434,85 " class="clusterblast-orf"  />
<polygon style="stroke:black; stroke-width:1; fill:#FFFFFF; " description="Short-chain_type_dehydrogenase/reductase[br]Location: 211461 - 212171" locus_tag="SCAT_0157" id="clusterblast-1_h10_5_42" points="436,85 440,80 440,90 436,85 " class="clusterblast-orf"  />
<polygon style="stroke:black; stroke-width:1; fill:#FFFFFF; " description="Transcriptional_regulator,_LysR_family_protein[br]Location: 212377 - 213300" locus_tag="SCAT_0158" id="clusterblast-1_h10_5_43" points="441,90 441,90 446,85 441,80 441,80 441,90 " class="clusterblast-orf"  />
<polygon style="stroke:black; stroke-width:1; fill:#FFFFFF; " description="hypothetical_protein[br]Location: 213394 - 213564" locus_tag="SCAT_0159" id="clusterblast-1_h10_5_44" points="446,85 447,80 447,90 446,85 " class="clusterblast-orf"  />
<polygon style="stroke:black; stroke-width:1; fill:#FFFFFF; " description="hypothetical_protein[br]Location: 213696 - 213947" locus_tag="SCAT_0160" id="clusterblast-1_h10_5_45" points="448,90 449,85 448,80 448,90 " class="clusterblast-orf"  />
<polygon style="stroke:black; stroke-width:1; fill:#FFFFFF; " description="monooxygenase[br]Location: 213974 - 215410" locus_tag="SCAT_0161" id="clusterblast-1_h10_5_46" points="449,85 454,80 457,80 457,90 454,90 449,85 " class="clusterblast-orf"  />
<polygon style="stroke:black; stroke-width:1; fill:#FFFFFF; " description="hypothetical_protein[br]Location: 215679 - 215813" locus_tag="SCAT_0162" id="clusterblast-1_h10_5_47" points="458,85 459,80 459,90 458,85 " class="clusterblast-orf"  />
<polygon style="stroke:black; stroke-width:1; fill:#FFFFFF; " description="hypothetical_protein[br]Location: 215879 - 216463" locus_tag="SCAT_0163" id="clusterblast-1_h10_5_48" points="459,85 462,80 462,90 459,85 " class="clusterblast-orf"  />
<polygon style="stroke:black; stroke-width:1; fill:#FFFFFF; " description="Major_Facilitator_Superfamily_transporter[br]Location: 216515 - 217960" locus_tag="SCAT_0164" id="clusterblast-1_h10_5_49" points="462,90 465,90 470,85 465,80 462,80 462,90 " class="clusterblast-orf"  />
<polygon style="stroke:black; stroke-width:1; fill:rgb(190,190,190); " description="Epoxide_hydrolase_1[br]Location: 218012 - 219133&lt;br&gt;&lt;br&gt;&lt;b&gt;BlastP hit with CHAFR746836_0077720.1&lt;/b&gt;&lt;br&gt;Percentage identity: 34%&lt;br&gt;Percentage coverage: 100%&lt;br&gt;BLAST bit score: 210&lt;br&gt;E-value: 4e-62" locus_tag="SCAT_0165" id="clusterblast-1_h10_5_50" points="470,90 471,90 476,85 471,80 470,80 470,90 " class="clusterblast-orf"  />
<polygon style="stroke:black; stroke-width:1; fill:#FFFFFF; " description="hypothetical_protein[br]Location: 219246 - 220010" locus_tag="SCAT_0166" id="clusterblast-1_h10_5_51" points="476,85 480,80 480,90 476,85 " class="clusterblast-orf"  />
<polygon style="stroke:black; stroke-width:1; fill:#FFFFFF; " description="alpha/beta_hydrolase[br]Location: 219725 - 220645" locus_tag="SCAT_0167" id="clusterblast-1_h10_5_52" points="479,85 483,80 483,90 479,85 " class="clusterblast-orf"  />
<polygon style="stroke:black; stroke-width:1; fill:#FFFFFF; " description="amidase[br]Location: 220818 - 222269" locus_tag="SCAT_0168" id="clusterblast-1_h10_5_53" points="484,85 489,80 492,80 492,90 489,90 484,85 " class="clusterblast-orf"  />
<polygon style="stroke:black; stroke-width:1; fill:#FFFFFF; " description="tetR-family_transcriptional_regulator[br]Location: 222432 - 223028" locus_tag="SCAT_0169" id="clusterblast-1_h10_5_54" points="493,90 496,85 493,80 493,90 " class="clusterblast-orf"  />
<polygon style="stroke:black; stroke-width:1; fill:#FFFFFF; " description="hypothetical_protein[br]Location: 223578 - 224012" locus_tag="SCAT_0170" id="clusterblast-1_h10_5_55" points="498,85 501,80 501,90 498,85 " class="clusterblast-orf"  />
<polygon style="stroke:black; stroke-width:1; fill:#FFFFFF; " description="hypothetical_protein[br]Location: 224009 - 224473" locus_tag="SCAT_0171" id="clusterblast-1_h10_5_56" points="501,85 503,80 503,90 501,85 " class="clusterblast-orf"  />
<polygon style="stroke:black; stroke-width:1; fill:#FFFFFF; " description="HTH-type_transcriptional_regulator_cynR[br]Location: 224563 - 225477" locus_tag="SCAT_0172" id="clusterblast-1_h10_5_57" points="504,85 508,80 508,90 504,85 " class="clusterblast-orf"  />
<polygon style="stroke:black; stroke-width:1; fill:#FFFFFF; " description="carbonic_anhydrase[br]Location: 225658 - 226248" locus_tag="SCAT_0173" id="clusterblast-1_h10_5_58" points="509,90 512,85 509,80 509,90 " class="clusterblast-orf"  />
<polygon style="stroke:black; stroke-width:1; fill:#FFFFFF; " description="cyanate_hydratase[br]Location: 226372 - 226842" locus_tag="SCAT_0174" id="clusterblast-1_h10_5_59" points="513,90 515,85 513,80 513,90 " class="clusterblast-orf"  />
<polygon style="stroke:black; stroke-width:1; fill:#FFFFFF; " description="Cytosine/adenosine_deaminase[br]Location: 226913 - 227413" locus_tag="SCAT_0175" id="clusterblast-1_h10_5_60" points="516,90 518,85 516,80 516,90 " class="clusterblast-orf"  />
<polygon style="stroke:black; stroke-width:1; fill:#FFFFFF; " description="MutT/nudix_family_protein[br]Location: 227431 - 227829" locus_tag="SCAT_0176" id="clusterblast-1_h10_5_61" points="518,90 520,85 518,80 518,90 " class="clusterblast-orf"  />
<polygon style="stroke:black; stroke-width:1; fill:#FFFFFF; " description="hypothetical_protein[br]Location: 227676 - 228353" locus_tag="SCAT_0177" id="clusterblast-1_h10_5_62" points="519,90 523,85 519,80 519,90 " class="clusterblast-orf"  />
<polygon style="stroke:black; stroke-width:1; fill:#FFFFFF; " description="Oxidoreductase,_2-nitropropane_dioxygenase[br]Location: 228340 - 229368" locus_tag="SCAT_0178" id="clusterblast-1_h10_5_63" points="523,85 528,80 528,80 528,90 528,90 523,85 " class="clusterblast-orf"  />
<polygon style="stroke:black; stroke-width:1; fill:#FFFFFF; " description="hypothetical_protein[br]Location: 229458 - 230693" locus_tag="SCAT_0179" id="clusterblast-1_h10_5_64" points="529,85 534,80 535,80 535,90 534,90 529,85 " class="clusterblast-orf"  />
<polygon style="stroke:black; stroke-width:1; fill:#FFFFFF; " description="hypothetical_protein[br]Location: 229904 - 230719" locus_tag="SCAT_0180" id="clusterblast-1_h10_5_65" points="531,85 535,80 535,90 531,85 " class="clusterblast-orf"  />
<polygon style="stroke:black; stroke-width:1; fill:#FFFFFF; " description="hypothetical_protein[br]Location: 230843 - 230974" locus_tag="SCAT_0181" id="clusterblast-1_h10_5_66" points="536,85 536,80 536,90 536,85 " class="clusterblast-orf"  />
<polygon style="stroke:black; stroke-width:1; fill:#FFFFFF; " description="transposase[br]Location: 231319 - 232080" locus_tag="SCAT_0182" id="clusterblast-1_h10_5_67" points="538,85 542,80 542,90 538,85 " class="clusterblast-orf"  />
<polygon style="stroke:black; stroke-width:1; fill:rgb(190,190,63); " description="type_I_polyketide_synthase[br]Location: 232133 - 239965&lt;br&gt;&lt;br&gt;&lt;b&gt;BlastP hit with CHAFR746836_0077640.1&lt;/b&gt;&lt;br&gt;Percentage identity: 36%&lt;br&gt;Percentage coverage: 19%&lt;br&gt;BLAST bit score: 330&lt;br&gt;E-value: 3e-89" locus_tag="SCAT_0183" id="clusterblast-1_h10_5_68" points="542,85 547,80 582,80 582,90 547,90 542,85 " class="clusterblast-orf"  />
<polygon style="stroke:black; stroke-width:1; fill:#FFFFFF; " description="fatty_acid_desaturase[br]Location: 240141 - 241181" locus_tag="SCAT_0184" id="clusterblast-1_h10_5_69" points="583,85 588,80 589,80 589,90 588,90 583,85 " class="clusterblast-orf"  />
<polygon style="stroke:black; stroke-width:1; fill:#FFFFFF; " description="hypothetical_protein[br]Location: 241416 - 242453" locus_tag="SCAT_0185" id="clusterblast-1_h10_5_70" points="590,85 595,80 595,80 595,90 595,90 590,85 " class="clusterblast-orf"  />
<polygon style="stroke:black; stroke-width:1; fill:#FFFFFF; " description="transcriptional_regulator[br]Location: 242528 - 243142" locus_tag="SCAT_0186" id="clusterblast-1_h10_5_71" points="595,90 599,85 595,80 595,90 " class="clusterblast-orf"  />
<polygon style="stroke:black; stroke-width:1; fill:#FFFFFF; " description="DNA-binding_domain-containing_protein[br]Location: 243376 - 244374" locus_tag="SCAT_0187" id="clusterblast-1_h10_5_72" points="600,90 600,90 605,85 600,80 600,80 600,90 " class="clusterblast-orf"  />
<polygon style="stroke:black; stroke-width:1; fill:#FFFFFF; " description="NmrA_family_protein[br]Location: 244446 - 245336" locus_tag="SCAT_0188" id="clusterblast-1_h10_5_73" points="605,85 610,80 610,80 610,90 610,90 605,85 " class="clusterblast-orf"  />
<polygon style="stroke:black; stroke-width:1; fill:#FFFFFF; " description="phenylalanine_aminotransferase[br]Location: 245412 - 246494" locus_tag="SCAT_0189" id="clusterblast-1_h10_5_74" points="610,85 615,80 616,80 616,90 615,90 610,85 " class="clusterblast-orf"  />
<polygon style="stroke:black; stroke-width:1; fill:#FFFFFF; " description="Acetolactate_synthase_large_subunit[br]Location: 246491 - 248320" locus_tag="SCAT_0190" id="clusterblast-1_h10_5_75" points="616,85 621,80 625,80 625,90 621,90 616,85 " class="clusterblast-orf"  />
<polygon style="stroke:black; stroke-width:1; fill:#FFFFFF; " description="3-oxoacyl-ACP_synthase[br]Location: 248404 - 249432" locus_tag="SCAT_0191" id="clusterblast-1_h10_5_76" points="626,85 631,80 631,80 631,90 631,90 626,85 " class="clusterblast-orf"  />
<polygon style="stroke:black; stroke-width:1; fill:#FFFFFF; " description="hypothetical_protein[br]Location: 249437 - 250138" locus_tag="SCAT_0192" id="clusterblast-1_h10_5_77" points="631,85 634,80 634,90 631,85 " class="clusterblast-orf"  />
<polygon style="stroke:black; stroke-width:1; fill:#FFFFFF; " description="hypothetical_protein[br]Location: 250135 - 250671" locus_tag="SCAT_0193" id="clusterblast-1_h10_5_78" points="634,85 637,80 637,90 634,85 " class="clusterblast-orf"  />
<polygon style="stroke:black; stroke-width:1; fill:#FFFFFF; " description="hypothetical_protein[br]Location: 250801 - 251955" locus_tag="SCAT_0194" id="clusterblast-1_h10_5_79" points="638,85 643,80 644,80 644,90 643,90 638,85 " class="clusterblast-orf"  />
<polygon style="stroke:black; stroke-width:1; fill:#FFFFFF; " description="Plastocyanin[br]Location: 252059 - 253399" locus_tag="SCAT_0195" id="clusterblast-1_h10_5_80" points="644,90 646,90 651,85 646,80 644,80 644,90 " class="clusterblast-orf"  />
<polygon style="stroke:black; stroke-width:1; fill:#FFFFFF; " description="hypothetical_protein[br]Location: 253407 - 254087" locus_tag="SCAT_0196" id="clusterblast-1_h10_5_81" points="651,85 655,80 655,90 651,85 " class="clusterblast-orf"  />
<polygon style="stroke:black; stroke-width:1; fill:#FFFFFF; " description="acyl_esterase[br]Location: 254268 - 255836" locus_tag="SCAT_0197" id="clusterblast-1_h10_5_82" points="656,85 661,80 664,80 664,90 661,90 656,85 " class="clusterblast-orf"  />
<polygon style="stroke:black; stroke-width:1; fill:#FFFFFF; " description="hypothetical_protein[br]Location: 255939 - 256643" locus_tag="SCAT_0198" id="clusterblast-1_h10_5_83" points="664,85 668,80 668,90 664,85 " class="clusterblast-orf"  />
<polygon style="stroke:black; stroke-width:1; fill:#FFFFFF; " description="hypothetical_protein[br]Location: 257041 - 257199" locus_tag="SCAT_0199" id="clusterblast-1_h10_5_84" points="670,90 671,85 670,80 670,90 " class="clusterblast-orf"  />
<polygon style="stroke:black; stroke-width:1; fill:#FFFFFF; " description="LuxR_family_transcriptional_regulator[br]Location: 257153 - 257842" locus_tag="SCAT_0200" id="clusterblast-1_h10_5_85" points="670,85 674,80 674,90 670,85 " class="clusterblast-orf"  />
<polygon style="stroke:black; stroke-width:1; fill:#FFFFFF; " description="Two-component_sensor[br]Location: 258122 - 259858" locus_tag="SCAT_0201" id="clusterblast-1_h10_5_86" points="675,90 679,90 684,85 679,80 675,80 675,90 " class="clusterblast-orf"  />
<polygon style="stroke:black; stroke-width:1; fill:#FFFFFF; " description="hypothetical_protein[br]Location: 259860 - 260516" locus_tag="SCAT_0202" id="clusterblast-1_h10_5_87" points="684,85 688,80 688,90 684,85 " class="clusterblast-orf"  />
<polygon style="stroke:black; stroke-width:1; fill:#FFFFFF; " description="Regulator[br]Location: 260703 - 260981" locus_tag="SCAT_0203" id="clusterblast-1_h10_5_88" points="689,90 690,85 689,80 689,90 " class="clusterblast-orf"  />
<polygon style="stroke:black; stroke-width:1; fill:#FFFFFF; " description="copper_transporter_ATPase[br]Location: 261024 - 263312" locus_tag="SCAT_0204" id="clusterblast-1_h10_5_89" points="690,90 697,90 702,85 697,80 690,80 690,90 " class="clusterblast-orf"  />
<polygon style="stroke:black; stroke-width:1; fill:#FFFFFF; " description="Mn2+_or_Fe2+_transporter[br]Location: 263379 - 265034" locus_tag="SCAT_0205" id="clusterblast-1_h10_5_90" points="702,85 707,80 711,80 711,90 707,90 702,85 " class="clusterblast-orf"  />
<polygon style="stroke:black; stroke-width:1; fill:#FFFFFF; " description="polysaccharide_deacetylase[br]Location: 265612 - 266535" locus_tag="SCAT_0206" id="clusterblast-1_h10_5_91" points="714,90 718,85 714,80 714,90 " class="clusterblast-orf"  />
<polygon style="stroke:black; stroke-width:1; fill:#FFFFFF; " description="hypothetical_protein[br]Location: 266477 - 267505" locus_tag="SCAT_0207" id="clusterblast-1_h10_5_92" points="718,85 723,80 723,80 723,90 723,90 718,85 " class="clusterblast-orf"  />
<polygon style="stroke:black; stroke-width:1; fill:#FFFFFF; " description="Pyrrolidone-carboxylate_peptidase[br]Location: 267502 - 268146" locus_tag="SCAT_0208" id="clusterblast-1_h10_5_93" points="723,85 727,80 727,90 723,85 " class="clusterblast-orf"  />
<polygon style="stroke:black; stroke-width:1; fill:#FFFFFF; " description="membrane_protein[br]Location: 268158 - 269126" locus_tag="SCAT_0209" id="clusterblast-1_h10_5_94" points="727,85 732,80 732,80 732,90 732,90 727,85 " class="clusterblast-orf"  />
<polygon style="stroke:black; stroke-width:1; fill:#FFFFFF; " description="hypothetical_protein[br]Location: 269123 - 269848" locus_tag="SCAT_0210" id="clusterblast-1_h10_5_95" points="732,85 735,80 735,90 732,85 " class="clusterblast-orf"  />
<polygon style="stroke:black; stroke-width:1; fill:#FFFFFF; " description="GntR_family_transcriptional_regulator[br]Location: 270055 - 270771" locus_tag="SCAT_0211" id="clusterblast-1_h10_5_96" points="736,85 740,80 740,90 736,85 " class="clusterblast-orf"  />
<polygon style="stroke:black; stroke-width:1; fill:#FFFFFF; " description="nitrogen-containing_heterocycle_degradation[br]Location: 270928 - 271776" locus_tag="SCAT_0212" id="clusterblast-1_h10_5_97" points="741,90 745,85 741,80 741,90 " class="clusterblast-orf"  />
<polygon style="stroke:black; stroke-width:1; fill:#FFFFFF; " description="hydrolase_subunit[br]Location: 271773 - 272399" locus_tag="SCAT_0213" id="clusterblast-1_h10_5_98" points="745,90 748,85 745,80 745,90 " class="clusterblast-orf"  />
<polygon style="stroke:black; stroke-width:1; fill:#FFFFFF; " description="hypothetical_protein[br]Location: 272396 - 273259" locus_tag="SCAT_0214" id="clusterblast-1_h10_5_99" points="748,90 748,90 753,85 748,80 748,80 748,90 " class="clusterblast-orf"  />
<polygon style="stroke:black; stroke-width:1; fill:#FFFFFF; " description="magnesium_or_manganese-dependent_protein[br]Location: 273695 - 275863" locus_tag="SCAT_0215" id="clusterblast-1_h10_5_100" points="755,90 761,90 766,85 761,80 755,80 755,90 " class="clusterblast-orf"  />
<polygon style="stroke:black; stroke-width:1; fill:#FFFFFF; " description="hypothetical_protein[br]Location: 275921 - 276091" locus_tag="SCAT_0216" id="clusterblast-1_h10_5_101" points="766,90 767,85 766,80 766,90 " class="clusterblast-orf"  />
<polygon style="stroke:black; stroke-width:1; fill:#FFFFFF; " description="cytochrome_c_oxidase_subunit_1-alpha[br]Location: 276336 - 278090" locus_tag="SCAT_0217" id="clusterblast-1_h10_5_102" points="769,90 773,90 778,85 773,80 769,80 769,90 " class="clusterblast-orf"  />
</g>
</svg>
