<svg xmlns="http://www.w3.org/2000/svg" height="230" width="800" version="1.1" y="0" x="0" preserveAspectRatio="none" xmlns:xlink="http://www.w3.org/1999/xlink" viewBox="0 0 800 230"  >
<g class="clusterblast-cluster" label="Query sequence"  >
<text class="clusterblast-acc" y="10" x="5"  >
Query sequence</text>
<line y1="35" x2="778.0" style="stroke:grey; stroke-width:1; " x1="10" y2="35"  />
<polygon style="stroke:black; stroke-width:1; fill:rgb(190,63,63); " description="unannotated orf[br]Location: 25203 - 26345" locus_tag="CHAFR746836_0077540.1" class="clusterblast-orf" points="40,40 43,40 48,35 43,30 40,30 40,40 " id="clusterblast-1_q10_1_0"  />
<polygon style="stroke:black; stroke-width:1; fill:rgb(63,63,190); " description="unannotated orf[br]Location: 33656 - 34656" locus_tag="CHAFR746836_0077550.1" class="clusterblast-orf" points="104,35 109,30 112,30 112,40 109,40 104,35 " id="clusterblast-1_q10_1_1"  />
<polygon style="stroke:black; stroke-width:1; fill:#FFFFFF; " description="unannotated orf[br]Location: 40941 - 41922" locus_tag="CHAFR746836_0077560.1" class="clusterblast-orf" points="160,40 163,40 168,35 163,30 160,30 160,40 " id="clusterblast-1_q10_1_2"  />
<polygon style="stroke:black; stroke-width:1; fill:#FFFFFF; " description="unannotated orf[br]Location: 42481 - 43285" locus_tag="CHAFR746836_0077570.1" class="clusterblast-orf" points="172,35 177,30 178,30 178,40 177,40 172,35 " id="clusterblast-1_q10_1_3"  />
<polygon style="stroke:black; stroke-width:1; fill:#FFFFFF; " description="unannotated orf[br]Location: 45175 - 46813" locus_tag="CHAFR746836_0077580.1" class="clusterblast-orf" points="193,40 200,40 205,35 200,30 193,30 193,40 " id="clusterblast-1_q10_1_4"  />
<polygon style="stroke:black; stroke-width:1; fill:#FFFFFF; " description="unannotated orf[br]Location: 52915 - 54699" locus_tag="CHAFR746836_0077590.1" class="clusterblast-orf" points="252,40 261,40 266,35 261,30 252,30 252,40 " id="clusterblast-1_q10_1_5"  />
<polygon style="stroke:black; stroke-width:1; fill:rgb(63,190,63); " description="unannotated orf[br]Location: 56890 - 57476" locus_tag="CHAFR746836_0077600.1" class="clusterblast-orf" points="282,40 282,40 287,35 282,30 282,30 282,40 " id="clusterblast-1_q10_1_6"  />
<polygon style="stroke:black; stroke-width:1; fill:rgb(190,63,190); " description="unannotated orf[br]Location: 58827 - 59758" locus_tag="CHAFR746836_0077610.1" class="clusterblast-orf" points="297,40 299,40 304,35 299,30 297,30 297,40 " id="clusterblast-1_q10_1_7"  />
<polygon style="stroke:black; stroke-width:1; fill:#FFFFFF; " description="unannotated orf[br]Location: 60873 - 61266" locus_tag="CHAFR746836_0077620.1" class="clusterblast-orf" points="313,35 316,30 316,40 313,35 " id="clusterblast-1_q10_1_8"  />
<polygon style="stroke:black; stroke-width:1; fill:#FFFFFF; " description="unannotated orf[br]Location: 62590 - 64438" locus_tag="CHAFR746836_0077630.1" class="clusterblast-orf" points="326,35 331,30 340,30 340,40 331,40 326,35 " id="clusterblast-1_q10_1_9"  />
<polygon style="stroke:black; stroke-width:1; fill:rgb(190,190,63); " description="unannotated orf[br]Location: 67540 - 77132" locus_tag="CHAFR746836_0077640.1" class="clusterblast-orf" points="364,35 369,30 438,30 438,40 369,40 364,35 " id="clusterblast-1_q10_1_10"  />
<polygon style="stroke:black; stroke-width:1; fill:#FFFFFF; " description="unannotated orf[br]Location: 83720 - 84542" locus_tag="CHAFR746836_0077650.1" class="clusterblast-orf" points="488,40 489,40 494,35 489,30 488,30 488,40 " id="clusterblast-1_q10_1_11"  />
<polygon style="stroke:black; stroke-width:1; fill:#FFFFFF; " description="unannotated orf[br]Location: 85708 - 88797" locus_tag="CHAFR746836_0077660.1" class="clusterblast-orf" points="503,35 508,30 527,30 527,40 508,40 503,35 " id="clusterblast-1_q10_1_12"  />
<polygon style="stroke:black; stroke-width:1; fill:#FFFFFF; " description="unannotated orf[br]Location: 89609 - 90957" locus_tag="CHAFR746836_0077670.1" class="clusterblast-orf" points="533,35 538,30 544,30 544,40 538,40 533,35 " id="clusterblast-1_q10_1_13"  />
<polygon style="stroke:black; stroke-width:1; fill:#FFFFFF; " description="unannotated orf[br]Location: 91271 - 91979" locus_tag="CHAFR746836_0077680.1" class="clusterblast-orf" points="546,40 547,40 552,35 547,30 546,30 546,40 " id="clusterblast-1_q10_1_14"  />
<polygon style="stroke:black; stroke-width:1; fill:#FFFFFF; " description="unannotated orf[br]Location: 92728 - 93646" locus_tag="CHAFR746836_0077690.1" class="clusterblast-orf" points="557,35 562,30 564,30 564,40 562,40 557,35 " id="clusterblast-1_q10_1_15"  />
<polygon style="stroke:black; stroke-width:1; fill:#FFFFFF; " description="unannotated orf[br]Location: 94508 - 95510" locus_tag="CHAFR746836_0077700.1" class="clusterblast-orf" points="571,40 574,40 579,35 574,30 571,30 571,40 " id="clusterblast-1_q10_1_16"  />
<polygon style="stroke:black; stroke-width:1; fill:#FFFFFF; " description="unannotated orf[br]Location: 95897 - 96815" locus_tag="CHAFR746836_0077710.1" class="clusterblast-orf" points="582,35 587,30 589,30 589,40 587,40 582,35 " id="clusterblast-1_q10_1_17"  />
<polygon style="stroke:black; stroke-width:1; fill:rgb(190,190,190); " description="unannotated orf[br]Location: 99791 - 101108" locus_tag="CHAFR746836_0077720.1" class="clusterblast-orf" points="611,40 617,40 622,35 617,30 611,30 611,40 " id="clusterblast-1_q10_1_18"  />
<polygon style="stroke:black; stroke-width:1; fill:#FFFFFF; " description="unannotated orf[br]Location: 105182 - 105691" locus_tag="CHAFR746836_0077730.1" class="clusterblast-orf" points="653,40 657,35 653,30 653,40 " id="clusterblast-1_q10_1_19"  />
<polygon style="stroke:black; stroke-width:1; fill:#FFFFFF; " description="unannotated orf[br]Location: 116324 - 117422" locus_tag="CHAFR746836_0077740.1" class="clusterblast-orf" points="738,35 743,30 747,30 747,40 743,40 738,35 " id="clusterblast-1_q10_1_20"  />
</g>
<g class="clusterblast-cluster" description="Streptomyces lasaliensis lasalocid biosynthetic gene cluster..." label="FM173265.1_c1"  >
<text class="clusterblast-acc" y="60" x="5"  >
FM173265.1_c1</text>
<text class="clusterblast-desc" y="60" x="460.8"  >
Streptomyces lasaliensis lasalocid biosynthetic gene cluster...</text>
<line y1="85" x2="778.0" style="stroke:grey; stroke-width:1; " x1="10" y2="85"  />
<polygon style="stroke:black; stroke-width:1; fill:#FFFFFF; " description="AraC_family_transcriptional_regulator[br]Location: 99585 - 100478" locus_tag="CAQ64716.1" id="clusterblast-1_h10_1_0" points="10,90 11,90 16,85 11,80 10,80 10,90 " class="clusterblast-orf"  />
<polygon style="stroke:black; stroke-width:1; fill:#FFFFFF; " description="alcohol_dehydrogenase_zinc-binding_domain[br]Location: 98348 - 99292" locus_tag="CAQ64715.1" id="clusterblast-1_h10_1_1" points="19,85 24,80 26,80 26,90 24,90 19,85 " class="clusterblast-orf"  />
<polygon style="stroke:black; stroke-width:1; fill:#FFFFFF; " description="MarR_family_transcriptional_regulator[br]Location: 97517 - 98020" locus_tag="CAQ64714.1" id="clusterblast-1_h10_1_2" points="28,90 32,85 28,80 28,90 " class="clusterblast-orf"  />
<polygon style="stroke:black; stroke-width:1; fill:#FFFFFF; " description="cupin_domain_protein[br]Location: 96688 - 97188" locus_tag="CAQ64713.1" id="clusterblast-1_h10_1_3" points="35,90 39,85 35,80 35,90 " class="clusterblast-orf"  />
<polygon style="stroke:black; stroke-width:1; fill:#FFFFFF; " description="hypothetical_protein[br]Location: 96014 - 96328" locus_tag="CAQ64712.1" id="clusterblast-1_h10_1_4" points="41,90 44,85 41,80 41,90 " class="clusterblast-orf"  />
<polygon style="stroke:black; stroke-width:1; fill:#FFFFFF; " description="hypothetical_protein[br]Location: 95386 - 95733" locus_tag="CAQ64711.1" id="clusterblast-1_h10_1_5" points="46,85 49,80 49,90 46,85 " class="clusterblast-orf"  />
<polygon style="stroke:black; stroke-width:1; fill:#FFFFFF; " description="hypothetical_protein[br]Location: 94763 - 95233" locus_tag="CAQ64710.1" id="clusterblast-1_h10_1_6" points="50,85 53,80 53,90 50,85 " class="clusterblast-orf"  />
<polygon style="stroke:black; stroke-width:1; fill:#FFFFFF; " description="hydrolase[br]Location: 93475 - 94311" locus_tag="CAQ64709.1" id="clusterblast-1_h10_1_7" points="57,90 58,90 63,85 58,80 57,80 57,90 " class="clusterblast-orf"  />
<polygon style="stroke:black; stroke-width:1; fill:#FFFFFF; " description="TetR_family_transcriptional_regulator[br]Location: 92919 - 93482" locus_tag="CAQ64708.1" id="clusterblast-1_h10_1_8" points="63,90 67,85 63,80 63,90 " class="clusterblast-orf"  />
<polygon style="stroke:black; stroke-width:1; fill:#FFFFFF; " description="hypothetical_protein[br]Location: 92100 - 92255" locus_tag="CAQ64707.1" id="clusterblast-1_h10_1_9" points="73,90 74,85 73,80 73,90 " class="clusterblast-orf"  />
<polygon style="stroke:black; stroke-width:1; fill:#FFFFFF; " description="hypothetical_protein[br]Location: 91714 - 91944" locus_tag="CAQ64706.1" id="clusterblast-1_h10_1_10" points="75,85 77,80 77,90 75,85 " class="clusterblast-orf"  />
<polygon style="stroke:black; stroke-width:1; fill:#FFFFFF; " description="peptidase_U61_LD-carboxypeptidase_A[br]Location: 90282 - 91271" locus_tag="CAQ64705.1" id="clusterblast-1_h10_1_11" points="80,90 83,90 88,85 83,80 80,80 80,90 " class="clusterblast-orf"  />
<polygon style="stroke:black; stroke-width:1; fill:#FFFFFF; " description="hypothetical_protein[br]Location: 89789 - 90247" locus_tag="CAQ64704.1" id="clusterblast-1_h10_1_12" points="88,85 91,80 91,90 88,85 " class="clusterblast-orf"  />
<polygon style="stroke:black; stroke-width:1; fill:#FFFFFF; " description="hypothetical_protein[br]Location: 89074 - 89643" locus_tag="CAQ64703.1" id="clusterblast-1_h10_1_13" points="93,85 97,80 97,90 93,85 " class="clusterblast-orf"  />
<polygon style="stroke:black; stroke-width:1; fill:rgb(190,63,190); " description="probable_glucose_dehydrogenase[br]Location: 88177 - 88923&lt;br&gt;&lt;br&gt;&lt;b&gt;BlastP hit with CHAFR746836_0077610.1&lt;/b&gt;&lt;br&gt;Percentage identity: 31%&lt;br&gt;Percentage coverage: 92%&lt;br&gt;BLAST bit score: 93&lt;br&gt;E-value: 5e-21" locus_tag="CAQ64702.1" id="clusterblast-1_h10_1_14" points="98,85 103,80 104,80 104,90 103,90 98,85 " class="clusterblast-orf"  />
<polygon style="stroke:black; stroke-width:1; fill:#FFFFFF; " description="TetR_family_transcriptional_regulator[br]Location: 87418 - 88023" locus_tag="CAQ64701.1" id="clusterblast-1_h10_1_15" points="105,90 105,90 110,85 105,80 105,80 105,90 " class="clusterblast-orf"  />
<polygon style="stroke:black; stroke-width:1; fill:#FFFFFF; " description="hypothetical_protein[br]Location: 86553 - 87341" locus_tag="CAQ64700.1" id="clusterblast-1_h10_1_16" points="110,85 115,80 116,80 116,90 115,90 110,85 " class="clusterblast-orf"  />
<polygon style="stroke:black; stroke-width:1; fill:#FFFFFF; " description="hypothetical_protein[br]Location: 86050 - 86265" locus_tag="CAQ64699.1" id="clusterblast-1_h10_1_17" points="118,90 120,85 118,80 118,90 " class="clusterblast-orf"  />
<polygon style="stroke:black; stroke-width:1; fill:#FFFFFF; " description="hypothetical_protein[br]Location: 85247 - 85972" locus_tag="CAQ64698.1" id="clusterblast-1_h10_1_18" points="121,85 126,80 126,80 126,90 126,90 121,85 " class="clusterblast-orf"  />
<polygon style="stroke:black; stroke-width:1; fill:#FFFFFF; " description="hypothetical_protein[br]Location: 84406 - 85167" locus_tag="CAQ64697.1" id="clusterblast-1_h10_1_19" points="127,90 128,90 133,85 128,80 127,80 127,90 " class="clusterblast-orf"  />
<polygon style="stroke:black; stroke-width:1; fill:#FFFFFF; " description="serine-type_D-Ala-D-Ala_carboxypeptidase[br]Location: 83421 - 84350" locus_tag="CAQ64696.1" id="clusterblast-1_h10_1_20" points="133,85 138,80 140,80 140,90 138,90 133,85 " class="clusterblast-orf"  />
<polygon style="stroke:black; stroke-width:1; fill:#FFFFFF; " description="epoxide_hydrolase[br]Location: 82223 - 83071" locus_tag="CAQ64695.1" id="clusterblast-1_h10_1_21" points="143,85 148,80 149,80 149,90 148,90 143,85 " class="clusterblast-orf"  />
<polygon style="stroke:black; stroke-width:1; fill:#FFFFFF; " description="tetronomycin_epoxidase[br]Location: 80792 - 82210" locus_tag="CAQ64694.1" id="clusterblast-1_h10_1_22" points="150,85 155,80 160,80 160,90 155,90 150,85 " class="clusterblast-orf"  />
<polygon style="stroke:black; stroke-width:1; fill:#FFFFFF; " description="hypothetical_protein[br]Location: 80229 - 80597" locus_tag="CAQ64693.1" id="clusterblast-1_h10_1_23" points="162,90 165,85 162,80 162,90 " class="clusterblast-orf"  />
<polygon style="stroke:black; stroke-width:1; fill:rgb(190,190,63); " description="lasalocid_modular_polyketide_synthase[br]Location: 76171 - 80106&lt;br&gt;&lt;br&gt;&lt;b&gt;BlastP hit with CHAFR746836_0077640.1&lt;/b&gt;&lt;br&gt;Percentage identity: 31%&lt;br&gt;Percentage coverage: 34%&lt;br&gt;BLAST bit score: 415&lt;br&gt;E-value: 3e-118" locus_tag="CAQ64692.1" id="clusterblast-1_h10_1_24" points="166,85 171,80 196,80 196,90 171,90 166,85 " class="clusterblast-orf"  />
<polygon style="stroke:black; stroke-width:1; fill:rgb(190,190,63); " description="lasalocid_modular_polyketide_synthase[br]Location: 70541 - 76174&lt;br&gt;&lt;br&gt;&lt;b&gt;BlastP hit with CHAFR746836_0077640.1&lt;/b&gt;&lt;br&gt;Percentage identity: 31%&lt;br&gt;Percentage coverage: 37%&lt;br&gt;BLAST bit score: 451&lt;br&gt;E-value: 3e-127" locus_tag="CAQ64691.1" id="clusterblast-1_h10_1_25" points="196,85 201,80 239,80 239,90 201,90 196,85 " class="clusterblast-orf"  />
<polygon style="stroke:black; stroke-width:1; fill:#FFFFFF; " description="lasalocid_modular_polyketide_synthase[br]Location: 59390 - 70429" locus_tag="CAQ64690.1" id="clusterblast-1_h10_1_26" points="240,85 245,80 325,80 325,90 245,90 240,85 " class="clusterblast-orf"  />
<polygon style="stroke:black; stroke-width:1; fill:rgb(190,190,63); " description="lasalocid_modular_polyketide_synthase[br]Location: 54322 - 59265&lt;br&gt;&lt;br&gt;&lt;b&gt;BlastP hit with CHAFR746836_0077640.1&lt;/b&gt;&lt;br&gt;Percentage identity: 39%&lt;br&gt;Percentage coverage: 15%&lt;br&gt;BLAST bit score: 313&lt;br&gt;E-value: 9e-85" locus_tag="CAQ64689.1" id="clusterblast-1_h10_1_27" points="326,85 331,80 363,80 363,90 331,90 326,85 " class="clusterblast-orf"  />
<polygon style="stroke:black; stroke-width:1; fill:#FFFFFF; " description="lasalocid_modular_polyketide_synthase[br]Location: 50932 - 54258" locus_tag="CAQ64688.1" id="clusterblast-1_h10_1_28" points="364,85 369,80 389,80 389,90 369,90 364,85 " class="clusterblast-orf"  />
<polygon style="stroke:black; stroke-width:1; fill:rgb(190,190,63); " description="lasalocid_modular_polyketide_synthase[br]Location: 34479 - 50888&lt;br&gt;&lt;br&gt;&lt;b&gt;BlastP hit with CHAFR746836_0077640.1&lt;/b&gt;&lt;br&gt;Percentage identity: 33%&lt;br&gt;Percentage coverage: 36%&lt;br&gt;BLAST bit score: 453&lt;br&gt;E-value: 2e-126" locus_tag="CAQ64687.1" id="clusterblast-1_h10_1_29" points="390,85 395,80 516,80 516,90 395,90 390,85 " class="clusterblast-orf"  />
<polygon style="stroke:black; stroke-width:1; fill:#FFFFFF; " description="lasalocid_modular_polyketide_synthase[br]Location: 19470 - 34430" locus_tag="CAQ64686.1" id="clusterblast-1_h10_1_30" points="516,85 521,80 631,80 631,90 521,90 516,85 " class="clusterblast-orf"  />
<polygon style="stroke:black; stroke-width:1; fill:#FFFFFF; " description="3-hydroxyacyl-CoA_dehydrogenase[br]Location: 17453 - 19174" locus_tag="CAQ64685.1" id="clusterblast-1_h10_1_31" points="633,90 641,90 646,85 641,80 633,80 633,90 " class="clusterblast-orf"  />
<polygon style="stroke:black; stroke-width:1; fill:#FFFFFF; " description="crotonyl-CoA_reductase[br]Location: 15965 - 17329" locus_tag="CAQ64684.1" id="clusterblast-1_h10_1_32" points="647,85 652,80 658,80 658,90 652,90 647,85 " class="clusterblast-orf"  />
<polygon style="stroke:black; stroke-width:1; fill:#FFFFFF; " description="LuxR-family_transcriptional_regulator[br]Location: 13216 - 15954" locus_tag="CAQ64683.1" id="clusterblast-1_h10_1_33" points="658,85 663,80 679,80 679,90 663,90 658,85 " class="clusterblast-orf"  />
<polygon style="stroke:black; stroke-width:1; fill:#FFFFFF; " description="putative_transcriptional_regulator[br]Location: 12178 - 12663" locus_tag="CAQ64682.1" id="clusterblast-1_h10_1_34" points="683,85 687,80 687,90 683,85 " class="clusterblast-orf"  />
<polygon style="stroke:black; stroke-width:1; fill:#FFFFFF; " description="putative_resistance_protein,_transporter[br]Location: 10490 - 12046" locus_tag="CAQ64681.1" id="clusterblast-1_h10_1_35" points="688,90 694,90 699,85 694,80 688,80 688,90 " class="clusterblast-orf"  />
<polygon style="stroke:black; stroke-width:1; fill:#FFFFFF; " description="thioesterase[br]Location: 9538 - 10287" locus_tag="CAQ64680.1" id="clusterblast-1_h10_1_36" points="701,90 702,90 707,85 702,80 701,80 701,90 " class="clusterblast-orf"  />
<polygon style="stroke:black; stroke-width:1; fill:#FFFFFF; " description="IS10_transposase[br]Location: 6061 - 7269" locus_tag="CAQ64676.1" id="clusterblast-1_h10_1_37" points="724,90 728,90 733,85 728,80 724,80 724,90 " class="clusterblast-orf"  />
<polygon style="stroke:black; stroke-width:1; fill:#FFFFFF; " description="putative_MFS-type_efflux_protein[br]Location: 3605 - 5002" locus_tag="CAQ64674.1" id="clusterblast-1_h10_1_38" points="742,90 747,90 752,85 747,80 742,80 742,90 " class="clusterblast-orf"  />
<polygon style="stroke:black; stroke-width:1; fill:#FFFFFF; " description="putative_secreted_protein[br]Location: 2632 - 3312" locus_tag="CAQ64673.1" id="clusterblast-1_h10_1_39" points="755,90 755,90 760,85 755,80 755,80 755,90 " class="clusterblast-orf"  />
<polygon style="stroke:black; stroke-width:1; fill:#FFFFFF; " description="Ku70/Ku80_protein[br]Location: 1471 - 2379" locus_tag="CAQ64672.1" id="clusterblast-1_h10_1_40" points="762,90 764,90 769,85 764,80 762,80 762,90 " class="clusterblast-orf"  />
<polygon style="stroke:black; stroke-width:1; fill:#FFFFFF; " description="hypothetical_protein[br]Location: 317 - 1129" locus_tag="CAQ64671.1" id="clusterblast-1_h10_1_41" points="771,90 773,90 778,85 773,80 771,80 771,90 " class="clusterblast-orf"  />
</g>
</svg>
