<svg xmlns="http://www.w3.org/2000/svg" height="230" width="800" version="1.1" y="0" x="0" preserveAspectRatio="none" xmlns:xlink="http://www.w3.org/1999/xlink" viewBox="0 0 800 230"  >
<g class="clusterblast-cluster" label="Query sequence"  >
<text class="clusterblast-acc" y="10" x="5"  >
Query sequence</text>
<line y1="35" x2="778.0" style="stroke:grey; stroke-width:1; " x1="10" y2="35"  />
<polygon style="stroke:black; stroke-width:1; fill:#FFFFFF; " description="unannotated orf[br]Location: 4785 - 7296" locus_tag="CHAFR746836_0016870.1" class="clusterblast-orf" points="96,35 101,30 136,30 136,40 101,40 96,35 " id="clusterblast-1_q37_2_0"  />
<polygon style="stroke:black; stroke-width:1; fill:rgb(190,63,63); " description="unannotated orf[br]Location: 11527 - 13401" locus_tag="CHAFR746836_0016880.1" class="clusterblast-orf" points="204,35 209,30 234,30 234,40 209,40 204,35 " id="clusterblast-1_q37_2_1"  />
<polygon style="stroke:black; stroke-width:1; fill:rgb(63,63,190); " description="unannotated orf[br]Location: 16270 - 24285" locus_tag="CHAFR746836_0016890.1" class="clusterblast-orf" points="280,40 404,40 409,35 404,30 280,30 280,40 " id="clusterblast-1_q37_2_2"  />
<polygon style="stroke:black; stroke-width:1; fill:#FFFFFF; " description="unannotated orf[br]Location: 25847 - 26609" locus_tag="CHAFR746836_0016900.1" class="clusterblast-orf" points="434,35 439,30 446,30 446,40 439,40 434,35 " id="clusterblast-1_q37_2_3"  />
<polygon style="stroke:black; stroke-width:1; fill:rgb(63,190,63); " description="unannotated orf[br]Location: 27271 - 28737" locus_tag="CHAFR746836_0016910.1" class="clusterblast-orf" points="457,40 475,40 480,35 475,30 457,30 457,40 " id="clusterblast-1_q37_2_4"  />
<polygon style="stroke:black; stroke-width:1; fill:#FFFFFF; " description="unannotated orf[br]Location: 31240 - 32999" locus_tag="CHAFR746836_0016920.1" class="clusterblast-orf" points="521,40 544,40 549,35 544,30 521,30 521,40 " id="clusterblast-1_q37_2_5"  />
<polygon style="stroke:black; stroke-width:1; fill:#FFFFFF; " description="unannotated orf[br]Location: 33897 - 34787" locus_tag="CHAFR746836_0016930.1" class="clusterblast-orf" points="563,35 568,30 577,30 577,40 568,40 563,35 " id="clusterblast-1_q37_2_6"  />
<polygon style="stroke:black; stroke-width:1; fill:rgb(190,63,190); " description="unannotated orf[br]Location: 37376 - 38107" locus_tag="CHAFR746836_0016940.1" class="clusterblast-orf" points="619,35 624,30 631,30 631,40 624,40 619,35 " id="clusterblast-1_q37_2_7"  />
<polygon style="stroke:black; stroke-width:1; fill:rgb(190,190,63); " description="unannotated orf[br]Location: 39886 - 41791" locus_tag="CHAFR746836_0016950.1" class="clusterblast-orf" points="659,35 664,30 690,30 690,40 664,40 659,35 " id="clusterblast-1_q37_2_8"  />
</g>
<g class="clusterblast-cluster" description="Coccidioides posadasii str. Silveira unplaced genomic scaffo..." label="GL636486.1_c1"  >
<text class="clusterblast-acc" y="60" x="5"  >
GL636486.1_c1</text>
<text class="clusterblast-desc" y="60" x="460.8"  >
Coccidioides posadasii str. Silveira unplaced genomic scaffo...</text>
<line y1="85" x2="778.0" style="stroke:grey; stroke-width:1; " x1="10" y2="85"  />
<polygon style="stroke:black; stroke-width:1; fill:#FFFFFF; " description="predicted_protein[br]Location: 781010 - 782133" locus_tag="CPSG_00241" id="clusterblast-1_h37_2_0" points="10,85 15,80 28,80 28,90 15,90 10,85 " class="clusterblast-orf"  />
<polygon style="stroke:black; stroke-width:1; fill:#FFFFFF; " description="HLH_transcription_factor[br]Location: 783139 - 784829" locus_tag="CPSG_00242" id="clusterblast-1_h37_2_1" points="44,90 66,90 71,85 66,80 44,80 44,90 " class="clusterblast-orf"  />
<polygon style="stroke:black; stroke-width:1; fill:#FFFFFF; " description="conserved_hypothetical_protein[br]Location: 787398 - 788019" locus_tag="CPSG_00243" id="clusterblast-1_h37_2_2" points="112,90 117,90 122,85 117,80 112,80 112,90 " class="clusterblast-orf"  />
<polygon style="stroke:black; stroke-width:1; fill:#FFFFFF; " description="conserved_hypothetical_protein[br]Location: 788454 - 790619" locus_tag="CPSG_00244" id="clusterblast-1_h37_2_3" points="129,85 134,80 164,80 164,90 134,90 129,85 " class="clusterblast-orf"  />
<polygon style="stroke:black; stroke-width:1; fill:#FFFFFF; " description="transcription_initiation_factor_TFIID_subunit_7[br]Location: 791571 - 793106" locus_tag="CPSG_00245" id="clusterblast-1_h37_2_4" points="179,85 184,80 204,80 204,90 184,90 179,85 " class="clusterblast-orf"  />
<polygon style="stroke:black; stroke-width:1; fill:rgb(190,190,63); " description="conserved_hypothetical_protein[br]Location: 794029 - 796200&lt;br&gt;&lt;br&gt;&lt;b&gt;BlastP hit with CHAFR746836_0016950.1&lt;/b&gt;&lt;br&gt;Percentage identity: 57%&lt;br&gt;Percentage coverage: 94%&lt;br&gt;BLAST bit score: 626&lt;br&gt;E-value: 0.0" locus_tag="CPSG_00246" id="clusterblast-1_h37_2_5" points="219,85 224,80 254,80 254,90 224,90 219,85 " class="clusterblast-orf"  />
<polygon style="stroke:black; stroke-width:1; fill:rgb(190,63,63); " description="conserved_hypothetical_protein[br]Location: 798156 - 800096&lt;br&gt;&lt;br&gt;&lt;b&gt;BlastP hit with CHAFR746836_0016880.1&lt;/b&gt;&lt;br&gt;Percentage identity: 51%&lt;br&gt;Percentage coverage: 102%&lt;br&gt;BLAST bit score: 575&lt;br&gt;E-value: 0.0" locus_tag="CPSG_00247" id="clusterblast-1_h37_2_6" points="285,85 290,80 316,80 316,90 290,90 285,85 " class="clusterblast-orf"  />
<polygon style="stroke:black; stroke-width:1; fill:rgb(63,63,190); " description="polyketide_synthase[br]Location: 800795 - 808009&lt;br&gt;&lt;br&gt;&lt;b&gt;BlastP hit with CHAFR746836_0016890.1&lt;/b&gt;&lt;br&gt;Percentage identity: 54%&lt;br&gt;Percentage coverage: 99%&lt;br&gt;BLAST bit score: 2527&lt;br&gt;E-value: 0.0" locus_tag="CPSG_00248" id="clusterblast-1_h37_2_7" points="327,90 438,90 443,85 438,80 327,80 327,90 " class="clusterblast-orf"  />
<polygon style="stroke:black; stroke-width:1; fill:#FFFFFF; " description="conserved_hypothetical_protein[br]Location: 808564 - 809779" locus_tag="CPSG_00249" id="clusterblast-1_h37_2_8" points="452,85 457,80 472,80 472,90 457,90 452,85 " class="clusterblast-orf"  />
<polygon style="stroke:black; stroke-width:1; fill:#FFFFFF; " description="endo-arabinanase[br]Location: 811709 - 813079" locus_tag="CPSG_00250" id="clusterblast-1_h37_2_9" points="503,90 520,90 525,85 520,80 503,80 503,90 " class="clusterblast-orf"  />
<polygon style="stroke:black; stroke-width:1; fill:#FFFFFF; " description="RfeF[br]Location: 813588 - 815478" locus_tag="CPSG_00251" id="clusterblast-1_h37_2_10" points="533,85 538,80 563,80 563,90 538,90 533,85 " class="clusterblast-orf"  />
<polygon style="stroke:black; stroke-width:1; fill:#FFFFFF; " description="predicted_protein[br]Location: 815848 - 816818" locus_tag="CPSG_00252" id="clusterblast-1_h37_2_11" points="569,85 574,80 585,80 585,90 574,90 569,85 " class="clusterblast-orf"  />
<polygon style="stroke:black; stroke-width:1; fill:#FFFFFF; " description="predicted_protein[br]Location: 821339 - 821884" locus_tag="CPSG_00253" id="clusterblast-1_h37_2_12" points="657,85 662,80 666,80 666,90 662,90 657,85 " class="clusterblast-orf"  />
<polygon style="stroke:black; stroke-width:1; fill:#FFFFFF; " description="conserved_hypothetical_protein[br]Location: 822307 - 822750" locus_tag="CPSG_00254" id="clusterblast-1_h37_2_13" points="673,85 678,80 680,80 680,90 678,90 673,85 " class="clusterblast-orf"  />
<polygon style="stroke:black; stroke-width:1; fill:#FFFFFF; " description="conserved_hypothetical_protein[br]Location: 823292 - 824397" locus_tag="CPSG_00255" id="clusterblast-1_h37_2_14" points="689,90 702,90 707,85 702,80 689,80 689,90 " class="clusterblast-orf"  />
<polygon style="stroke:black; stroke-width:1; fill:#FFFFFF; " description="conserved_hypothetical_protein[br]Location: 827066 - 827587" locus_tag="CPSG_00256" id="clusterblast-1_h37_2_15" points="749,90 753,90 758,85 753,80 749,80 749,90 " class="clusterblast-orf"  />
<polygon style="stroke:black; stroke-width:1; fill:#FFFFFF; " description="predicted_protein[br]Location: 828007 - 828815" locus_tag="CPSG_00257" id="clusterblast-1_h37_2_16" points="765,85 770,80 778,80 778,90 770,90 765,85 " class="clusterblast-orf"  />
</g>
</svg>
