<svg xmlns="http://www.w3.org/2000/svg" height="230" width="800" version="1.1" y="0" x="0" preserveAspectRatio="none" xmlns:xlink="http://www.w3.org/1999/xlink" viewBox="0 0 800 230"  >
<g class="clusterblast-cluster" label="Query sequence"  >
<text class="clusterblast-acc" y="10" x="5"  >
Query sequence</text>
<line y1="35" x2="778.0" style="stroke:grey; stroke-width:1; " x1="10" y2="35"  />
<polygon style="stroke:black; stroke-width:1; fill:#FFFFFF; " description="unannotated orf[br]Location: 25963 - 28663" locus_tag="CHAFR746836_0081060.1" class="clusterblast-orf" points="225,35 230,30 247,30 247,40 230,40 225,35 " id="clusterblast-1_q12_9_0"  />
<polygon style="stroke:black; stroke-width:1; fill:#FFFFFF; " description="unannotated orf[br]Location: 30819 - 31372" locus_tag="CHAFR746836_0081070.1" class="clusterblast-orf" points="266,35 270,30 270,40 266,35 " id="clusterblast-1_q12_9_1"  />
<polygon style="stroke:black; stroke-width:1; fill:#FFFFFF; " description="unannotated orf[br]Location: 32308 - 34099" locus_tag="CHAFR746836_0081080.1" class="clusterblast-orf" points="278,40 288,40 293,35 288,30 278,30 278,40 " id="clusterblast-1_q12_9_2"  />
<polygon style="stroke:black; stroke-width:1; fill:red; " description="unannotated orf[br]Location: 34732 - 35414" locus_tag="CHAFR746836_0081090.1" class="clusterblast-orf" points="299,35 304,30 304,30 304,40 304,40 299,35 " id="clusterblast-1_q12_9_3"  />
<polygon style="stroke:black; stroke-width:1; fill:#FFFFFF; " description="unannotated orf[br]Location: 35795 - 37570" locus_tag="CHAFR746836_0081100.1" class="clusterblast-orf" points="308,40 318,40 323,35 318,30 308,30 308,40 " id="clusterblast-1_q12_9_4"  />
<polygon style="stroke:black; stroke-width:1; fill:green; " description="unannotated orf[br]Location: 39190 - 39826" locus_tag="CHAFR746836_0081110.1" class="clusterblast-orf" points="336,35 341,30 342,30 342,40 341,40 336,35 " id="clusterblast-1_q12_9_5"  />
<polygon style="stroke:black; stroke-width:1; fill:#FFFFFF; " description="unannotated orf[br]Location: 40045 - 40878" locus_tag="CHAFR746836_0081120.1" class="clusterblast-orf" points="343,40 345,40 350,35 345,30 343,30 343,40 " id="clusterblast-1_q12_9_6"  />
<polygon style="stroke:black; stroke-width:1; fill:#FFFFFF; " description="unannotated orf[br]Location: 43039 - 45807" locus_tag="CHAFR746836_0081130.1" class="clusterblast-orf" points="369,35 374,30 392,30 392,40 374,40 369,35 " id="clusterblast-1_q12_9_7"  />
<polygon style="stroke:black; stroke-width:1; fill:#FFFFFF; " description="unannotated orf[br]Location: 63962 - 65930" locus_tag="CHAFR746836_0081140.1" class="clusterblast-orf" points="545,40 557,40 562,35 557,30 545,30 545,40 " id="clusterblast-1_q12_9_8"  />
<polygon style="stroke:black; stroke-width:1; fill:#FFFFFF; " description="unannotated orf[br]Location: 63962 - 65930" locus_tag="CHAFR746836_0081140.2" class="clusterblast-orf" points="545,40 557,40 562,35 557,30 545,30 545,40 " id="clusterblast-1_q12_9_9"  />
</g>
<g class="clusterblast-cluster" description="Clostridium sp. BNL1100 chromosome, complete genome." label="NC_016791.1_c1"  >
<text class="clusterblast-acc" y="60" x="5"  >
NC_016791.1_c1</text>
<text class="clusterblast-desc" y="60" x="460.8"  >
Clostridium sp. BNL1100 chromosome, complete genome.</text>
<line y1="85" x2="778.0" style="stroke:grey; stroke-width:1; " x1="10" y2="85"  />
<polygon style="stroke:black; stroke-width:1; fill:#FFFFFF; " description="signal_transduction_histidine_kinase[br]Location: 578697 - 579725" locus_tag="Clo1100_0508" id="clusterblast-1_h12_9_0" points="10,90 13,90 18,85 13,80 10,80 10,90 " class="clusterblast-orf"  />
<polygon style="stroke:black; stroke-width:1; fill:#FFFFFF; " description="antimicrobial_peptide_ABC_transporter_ATPase[br]Location: 577825 - 578589" locus_tag="Clo1100_0507" id="clusterblast-1_h12_9_1" points="19,90 21,90 26,85 21,80 19,80 19,90 " class="clusterblast-orf"  />
<polygon style="stroke:black; stroke-width:1; fill:#FFFFFF; " description="lipoprotein_release_ABC_transporter_permease[br]Location: 575925 - 577838" locus_tag="Clo1100_0506" id="clusterblast-1_h12_9_2" points="25,90 37,90 42,85 37,80 25,80 25,90 " class="clusterblast-orf"  />
<polygon style="stroke:black; stroke-width:1; fill:#FFFFFF; " description="ATP-dependent_protease_LonB[br]Location: 574126 - 575808" locus_tag="Clo1100_0505" id="clusterblast-1_h12_9_3" points="43,85 48,80 57,80 57,90 48,90 43,85 " class="clusterblast-orf"  />
<polygon style="stroke:black; stroke-width:1; fill:#FFFFFF; " description="endopeptidase_Clp_ATP-binding_regulatory_subunit[br]Location: 572676 - 573971" locus_tag="Clo1100_0504" id="clusterblast-1_h12_9_4" points="58,85 63,80 69,80 69,90 63,90 58,85 " class="clusterblast-orf"  />
<polygon style="stroke:black; stroke-width:1; fill:#FFFFFF; " description="ATP-dependent_Clp_protease,_proteolytic_subunit[br]Location: 572078 - 572662" locus_tag="Clo1100_0503" id="clusterblast-1_h12_9_5" points="69,85 74,80 74,80 74,90 74,90 69,85 " class="clusterblast-orf"  />
<polygon style="stroke:black; stroke-width:1; fill:#FFFFFF; " description="trigger_factor[br]Location: 570686 - 571972" locus_tag="Clo1100_0502" id="clusterblast-1_h12_9_6" points="75,85 80,80 86,80 86,90 80,90 75,85 " class="clusterblast-orf"  />
<polygon style="stroke:black; stroke-width:1; fill:#FFFFFF; " description="putative_phosphohydrolase[br]Location: 569748 - 570449" locus_tag="Clo1100_0501" id="clusterblast-1_h12_9_7" points="88,85 93,80 94,80 94,90 93,90 88,85 " class="clusterblast-orf"  />
<polygon style="stroke:black; stroke-width:1; fill:#FFFFFF; " description="excinuclease_ABC_subunit_C[br]Location: 567885 - 569726" locus_tag="Clo1100_0500" id="clusterblast-1_h12_9_8" points="94,85 99,80 110,80 110,90 99,90 94,85 " class="clusterblast-orf"  />
<polygon style="stroke:black; stroke-width:1; fill:#FFFFFF; " description="phosphotransferase_system_HPr_(HPr)_family[br]Location: 567457 - 567714" locus_tag="Clo1100_0499" id="clusterblast-1_h12_9_9" points="111,85 113,80 113,90 111,85 " class="clusterblast-orf"  />
<polygon style="stroke:black; stroke-width:1; fill:#FFFFFF; " description="hypothetical_protein[br]Location: 566472 - 567377" locus_tag="Clo1100_0498" id="clusterblast-1_h12_9_10" points="114,85 119,80 121,80 121,90 119,90 114,85 " class="clusterblast-orf"  />
<polygon style="stroke:black; stroke-width:1; fill:#FFFFFF; " description="hypothetical_protein[br]Location: 565909 - 566475" locus_tag="Clo1100_0497" id="clusterblast-1_h12_9_11" points="121,85 126,80 126,80 126,90 126,90 121,85 " class="clusterblast-orf"  />
<polygon style="stroke:black; stroke-width:1; fill:#FFFFFF; " description="sigma-70_family_RNA_polymerase_sigma_factor[br]Location: 565358 - 565912" locus_tag="Clo1100_0496" id="clusterblast-1_h12_9_12" points="126,85 131,80 131,80 131,90 131,90 126,85 " class="clusterblast-orf"  />
<polygon style="stroke:black; stroke-width:1; fill:#FFFFFF; " description="putative_ATP-dependent_protease[br]Location: 562834 - 565248" locus_tag="Clo1100_0495" id="clusterblast-1_h12_9_13" points="132,85 137,80 152,80 152,90 137,90 132,85 " class="clusterblast-orf"  />
<polygon style="stroke:black; stroke-width:1; fill:#FFFFFF; " description="ribosomal-protein-alanine_acetyltransferase[br]Location: 562338 - 562790" locus_tag="Clo1100_0494" id="clusterblast-1_h12_9_14" points="153,85 156,80 156,90 153,85 " class="clusterblast-orf"  />
<polygon style="stroke:black; stroke-width:1; fill:#FFFFFF; " description="hypothetical_protein[br]Location: 561632 - 562345" locus_tag="Clo1100_0493" id="clusterblast-1_h12_9_15" points="156,85 161,80 162,80 162,90 161,90 156,85 " class="clusterblast-orf"  />
<polygon style="stroke:black; stroke-width:1; fill:#FFFFFF; " description="YjeE_family_ATPase[br]Location: 561167 - 561619" locus_tag="Clo1100_0492" id="clusterblast-1_h12_9_16" points="162,85 166,80 166,90 162,85 " class="clusterblast-orf"  />
<polygon style="stroke:black; stroke-width:1; fill:#FFFFFF; " description="amidohydrolase[br]Location: 559984 - 561174" locus_tag="Clo1100_0491" id="clusterblast-1_h12_9_17" points="166,85 171,80 176,80 176,90 171,90 166,85 " class="clusterblast-orf"  />
<polygon style="stroke:black; stroke-width:1; fill:#FFFFFF; " description="Mn-dependent_transcriptional_regulator[br]Location: 559285 - 559764" locus_tag="Clo1100_0490" id="clusterblast-1_h12_9_18" points="178,90 182,85 178,80 178,90 " class="clusterblast-orf"  />
<polygon style="stroke:black; stroke-width:1; fill:#FFFFFF; " description="hypothetical_protein[br]Location: 558829 - 559116" locus_tag="Clo1100_0489" id="clusterblast-1_h12_9_19" points="184,90 186,85 184,80 184,90 " class="clusterblast-orf"  />
<polygon style="stroke:black; stroke-width:1; fill:#FFFFFF; " description="amino_acid_adenylation_enzyme/thioester[br]Location: 536713 - 558867" locus_tag="Clo1100_0488" id="clusterblast-1_h12_9_20" points="186,85 191,80 373,80 373,90 191,90 186,85 " class="clusterblast-orf"  />
<polygon style="stroke:black; stroke-width:1; fill:#FFFFFF; " description="putative_thioesterase_involved_in_non-ribosomal[br]Location: 535963 - 536667" locus_tag="Clo1100_0487" id="clusterblast-1_h12_9_21" points="373,85 378,80 379,80 379,90 378,90 373,85 " class="clusterblast-orf"  />
<polygon style="stroke:black; stroke-width:1; fill:#FFFFFF; " description="non-ribosomal_peptide_synthase/amino_acid[br]Location: 528851 - 535933" locus_tag="Clo1100_0486" id="clusterblast-1_h12_9_22" points="379,85 384,80 439,80 439,90 384,90 379,85 " class="clusterblast-orf"  />
<polygon style="stroke:black; stroke-width:1; fill:#FFFFFF; " description="Fe-S_oxidoreductase[br]Location: 526148 - 528721" locus_tag="Clo1100_0485" id="clusterblast-1_h12_9_23" points="440,85 445,80 462,80 462,90 445,90 440,85 " class="clusterblast-orf"  />
<polygon style="stroke:black; stroke-width:1; fill:#FFFFFF; " description="multidrug_ABC_transporter_permease[br]Location: 524973 - 526091" locus_tag="Clo1100_0484" id="clusterblast-1_h12_9_24" points="462,85 467,80 472,80 472,90 467,90 462,85 " class="clusterblast-orf"  />
<polygon style="stroke:black; stroke-width:1; fill:#FFFFFF; " description="ABC_transporter[br]Location: 523849 - 524976" locus_tag="Clo1100_0483" id="clusterblast-1_h12_9_25" points="472,85 477,80 481,80 481,90 477,90 472,85 " class="clusterblast-orf"  />
<polygon style="stroke:black; stroke-width:1; fill:#FFFFFF; " description="multidrug_ABC_transporter_ATPase[br]Location: 522902 - 523831" locus_tag="Clo1100_0482" id="clusterblast-1_h12_9_26" points="482,85 487,80 489,80 489,90 487,90 482,85 " class="clusterblast-orf"  />
<polygon style="stroke:black; stroke-width:1; fill:#FFFFFF; " description="hypothetical_protein[br]Location: 521913 - 522881" locus_tag="Clo1100_0481" id="clusterblast-1_h12_9_27" points="490,85 495,80 498,80 498,90 495,90 490,85 " class="clusterblast-orf"  />
<polygon style="stroke:black; stroke-width:1; fill:#FFFFFF; " description="putative_transcriptional_regulator[br]Location: 521591 - 521923" locus_tag="Clo1100_0480" id="clusterblast-1_h12_9_28" points="498,85 500,80 500,90 498,85 " class="clusterblast-orf"  />
<polygon style="stroke:black; stroke-width:1; fill:#FFFFFF; " description="beta-ketoacyl_synthase[br]Location: 519479 - 521389" locus_tag="Clo1100_0479" id="clusterblast-1_h12_9_29" points="502,85 507,80 518,80 518,90 507,90 502,85 " class="clusterblast-orf"  />
<polygon style="stroke:black; stroke-width:1; fill:#FFFFFF; " description="hypothetical_protein[br]Location: 518499 - 519461" locus_tag="Clo1100_0478" id="clusterblast-1_h12_9_30" points="518,85 523,80 527,80 527,90 523,90 518,85 " class="clusterblast-orf"  />
<polygon style="stroke:black; stroke-width:1; fill:#FFFFFF; " description="beta-ketoacyl_synthase_family[br]Location: 513620 - 518461" locus_tag="Clo1100_0477" id="clusterblast-1_h12_9_31" points="527,85 532,80 568,80 568,90 532,90 527,85 " class="clusterblast-orf"  />
<polygon style="stroke:black; stroke-width:1; fill:#FFFFFF; " description="beta-ketoacyl_synthase_family[br]Location: 508874 - 513601" locus_tag="Clo1100_0476" id="clusterblast-1_h12_9_32" points="568,85 573,80 608,80 608,90 573,90 568,85 " class="clusterblast-orf"  />
<polygon style="stroke:black; stroke-width:1; fill:#FFFFFF; " description="malonyl_CoA-acyl_carrier_protein_transacylase[br]Location: 507546 - 508778" locus_tag="Clo1100_0475" id="clusterblast-1_h12_9_33" points="609,85 614,80 619,80 619,90 614,90 609,85 " class="clusterblast-orf"  />
<polygon style="stroke:black; stroke-width:1; fill:#FFFFFF; " description="site-specific_recombinase,_DNA_invertase_Pin[br]Location: 505182 - 506771" locus_tag="Clo1100_0474" id="clusterblast-1_h12_9_34" points="626,90 634,90 639,85 634,80 626,80 626,90 " class="clusterblast-orf"  />
<polygon style="stroke:black; stroke-width:1; fill:green; " description="30S_ribosomal_protein_S9[br]Location: 503555 - 503947&lt;br&gt;&lt;br&gt;&lt;b&gt;BlastP hit with CHAFR746836_0081110.1&lt;/b&gt;&lt;br&gt;Percentage identity: 32%&lt;br&gt;Percentage coverage: 94%&lt;br&gt;BLAST bit score: 49&lt;br&gt;E-value: 3e-07" locus_tag="Clo1100_0472" id="clusterblast-1_h12_9_35" points="650,85 653,80 653,90 650,85 " class="clusterblast-orf"  />
<polygon style="stroke:black; stroke-width:1; fill:#FFFFFF; " description="50S_ribosomal_protein_L13[br]Location: 503102 - 503536" locus_tag="Clo1100_0471" id="clusterblast-1_h12_9_36" points="653,85 657,80 657,90 653,85 " class="clusterblast-orf"  />
<polygon style="stroke:black; stroke-width:1; fill:#FFFFFF; " description="pseudouridylate_synthase_I[br]Location: 502129 - 502866" locus_tag="Clo1100_0470" id="clusterblast-1_h12_9_37" points="659,85 664,80 665,80 665,90 664,90 659,85 " class="clusterblast-orf"  />
<polygon style="stroke:black; stroke-width:1; fill:#FFFFFF; " description="cobalt_ABC_transporter_permease_CbiQ[br]Location: 501302 - 502105" locus_tag="Clo1100_0469" id="clusterblast-1_h12_9_38" points="665,85 670,80 672,80 672,90 670,90 665,85 " class="clusterblast-orf"  />
<polygon style="stroke:black; stroke-width:1; fill:#FFFFFF; " description="cobalt_ABC_transporter_ATPase[br]Location: 500434 - 501276" locus_tag="Clo1100_0468" id="clusterblast-1_h12_9_39" points="672,85 677,80 679,80 679,90 677,90 672,85 " class="clusterblast-orf"  />
<polygon style="stroke:black; stroke-width:1; fill:#FFFFFF; " description="16S_RNA_G1207_methylase_RsmC[br]Location: 499641 - 500237" locus_tag="Clo1100_0467" id="clusterblast-1_h12_9_40" points="681,90 681,90 686,85 681,80 681,80 681,90 " class="clusterblast-orf"  />
<polygon style="stroke:black; stroke-width:1; fill:#FFFFFF; " description="cobalt_ABC_transporter_ATPase[br]Location: 498794 - 499639" locus_tag="Clo1100_0466" id="clusterblast-1_h12_9_41" points="686,85 691,80 693,80 693,90 691,90 686,85 " class="clusterblast-orf"  />
<polygon style="stroke:black; stroke-width:1; fill:#FFFFFF; " description="50S_ribosomal_protein_L17[br]Location: 498120 - 498644" locus_tag="Clo1100_0465" id="clusterblast-1_h12_9_42" points="694,85 699,80 699,80 699,90 699,90 694,85 " class="clusterblast-orf"  />
<polygon style="stroke:black; stroke-width:1; fill:#FFFFFF; " description="DNA-directed_RNA_polymerase_subunit_alpha[br]Location: 497108 - 498055" locus_tag="Clo1100_0464" id="clusterblast-1_h12_9_43" points="699,85 704,80 707,80 707,90 704,90 699,85 " class="clusterblast-orf"  />
<polygon style="stroke:black; stroke-width:1; fill:#FFFFFF; " description="30S_ribosomal_protein_S4[br]Location: 496359 - 496985" locus_tag="Clo1100_0463" id="clusterblast-1_h12_9_44" points="708,85 713,80 714,80 714,90 713,90 708,85 " class="clusterblast-orf"  />
<polygon style="stroke:black; stroke-width:1; fill:red; " description="30S_ribosomal_protein_S11[br]Location: 495927 - 496328&lt;br&gt;&lt;br&gt;&lt;b&gt;BlastP hit with CHAFR746836_0081090.1&lt;/b&gt;&lt;br&gt;Percentage identity: 34%&lt;br&gt;Percentage coverage: 74%&lt;br&gt;BLAST bit score: 55&lt;br&gt;E-value: 3e-09" locus_tag="Clo1100_0462" id="clusterblast-1_h12_9_45" points="714,85 717,80 717,90 714,85 " class="clusterblast-orf"  />
<polygon style="stroke:black; stroke-width:1; fill:#FFFFFF; " description="30S_ribosomal_protein_S13[br]Location: 495537 - 495905" locus_tag="Clo1100_0461" id="clusterblast-1_h12_9_46" points="717,85 721,80 721,90 717,85 " class="clusterblast-orf"  />
<polygon style="stroke:black; stroke-width:1; fill:#FFFFFF; " description="50S_ribosomal_protein_L36[br]Location: 495190 - 495303" locus_tag="Clo1100_0460" id="clusterblast-1_h12_9_47" points="723,85 723,80 723,90 723,85 " class="clusterblast-orf"  />
<polygon style="stroke:black; stroke-width:1; fill:#FFFFFF; " description="translation_initiation_factor_IF-1[br]Location: 494879 - 495097" locus_tag="Clo1100_0459" id="clusterblast-1_h12_9_48" points="724,85 726,80 726,90 724,85 " class="clusterblast-orf"  />
<polygon style="stroke:black; stroke-width:1; fill:#FFFFFF; " description="hypothetical_protein[br]Location: 494543 - 494824" locus_tag="Clo1100_0458" id="clusterblast-1_h12_9_49" points="727,85 729,80 729,90 727,85 " class="clusterblast-orf"  />
<polygon style="stroke:black; stroke-width:1; fill:#FFFFFF; " description="methionine_aminopeptidase[br]Location: 493668 - 494435" locus_tag="Clo1100_0457" id="clusterblast-1_h12_9_50" points="730,85 735,80 736,80 736,90 735,90 730,85 " class="clusterblast-orf"  />
<polygon style="stroke:black; stroke-width:1; fill:#FFFFFF; " description="adenylate_kinase_family_protein[br]Location: 493022 - 493666" locus_tag="Clo1100_0456" id="clusterblast-1_h12_9_51" points="736,85 741,80 742,80 742,90 741,90 736,85 " class="clusterblast-orf"  />
<polygon style="stroke:black; stroke-width:1; fill:#FFFFFF; " description="preprotein_translocase_subunit_SecY[br]Location: 491629 - 492921" locus_tag="Clo1100_0455" id="clusterblast-1_h12_9_52" points="743,85 748,80 754,80 754,90 748,90 743,85 " class="clusterblast-orf"  />
<polygon style="stroke:black; stroke-width:1; fill:#FFFFFF; " description="50S_ribosomal_protein_L15[br]Location: 491184 - 491627" locus_tag="Clo1100_0454" id="clusterblast-1_h12_9_53" points="754,85 757,80 757,90 754,85 " class="clusterblast-orf"  />
<polygon style="stroke:black; stroke-width:1; fill:#FFFFFF; " description="50S_ribosomal_protein_L30[br]Location: 490990 - 491169" locus_tag="Clo1100_0453" id="clusterblast-1_h12_9_54" points="757,85 759,80 759,90 757,85 " class="clusterblast-orf"  />
<polygon style="stroke:black; stroke-width:1; fill:#FFFFFF; " description="30S_ribosomal_protein_S5[br]Location: 490474 - 490977" locus_tag="Clo1100_0452" id="clusterblast-1_h12_9_55" points="759,85 763,80 763,90 759,85 " class="clusterblast-orf"  />
<polygon style="stroke:black; stroke-width:1; fill:#FFFFFF; " description="50S_ribosomal_protein_L18[br]Location: 490087 - 490455" locus_tag="Clo1100_0451" id="clusterblast-1_h12_9_56" points="763,85 767,80 767,90 763,85 " class="clusterblast-orf"  />
<polygon style="stroke:black; stroke-width:1; fill:#FFFFFF; " description="50S_ribosomal_protein_L6[br]Location: 489518 - 490069" locus_tag="Clo1100_0450" id="clusterblast-1_h12_9_57" points="767,85 771,80 771,90 767,85 " class="clusterblast-orf"  />
<polygon style="stroke:black; stroke-width:1; fill:#FFFFFF; " description="30S_ribosomal_protein_S8[br]Location: 489004 - 489402" locus_tag="Clo1100_0449" id="clusterblast-1_h12_9_58" points="772,85 776,80 776,90 772,85 " class="clusterblast-orf"  />
<polygon style="stroke:black; stroke-width:1; fill:#FFFFFF; " description="30S_ribosomal_protein_S14[br]Location: 488794 - 488979" locus_tag="Clo1100_0448" id="clusterblast-1_h12_9_59" points="776,85 778,80 778,90 776,85 " class="clusterblast-orf"  />
</g>
</svg>
