<svg xmlns="http://www.w3.org/2000/svg" height="230" width="800" version="1.1" y="0" x="0" preserveAspectRatio="none" xmlns:xlink="http://www.w3.org/1999/xlink" viewBox="0 0 800 230"  >
<g class="clusterblast-cluster" label="Query sequence"  >
<text class="clusterblast-acc" y="10" x="5"  >
Query sequence</text>
<line y1="35" x2="778.0" style="stroke:grey; stroke-width:1; " x1="10" y2="35"  />
<polygon style="stroke:black; stroke-width:1; fill:rgb(190,63,63); " description="unannotated orf[br]Location: 1126 - 9218" locus_tag="CHAFR746836_0015230.1" class="clusterblast-orf" points="189,35 194,30 231,30 231,40 194,40 189,35 " id="clusterblast-1_q35_2_0"  />
<polygon style="stroke:black; stroke-width:1; fill:#FFFFFF; " description="unannotated orf[br]Location: 30506 - 31134" locus_tag="CHAFR746836_0015240.1" class="clusterblast-orf" points="344,35 347,30 347,40 344,35 " id="clusterblast-1_q35_2_1"  />
<polygon style="stroke:black; stroke-width:1; fill:rgb(63,63,190); " description="unannotated orf[br]Location: 31550 - 33962" locus_tag="CHAFR746836_0015250.1" class="clusterblast-orf" points="350,35 355,30 362,30 362,40 355,40 350,35 " id="clusterblast-1_q35_2_2"  />
<polygon style="stroke:black; stroke-width:1; fill:#FFFFFF; " description="unannotated orf[br]Location: 34436 - 34894" locus_tag="CHAFR746836_0015260.1" class="clusterblast-orf" points="365,40 367,35 365,30 365,40 " id="clusterblast-1_q35_2_3"  />
<polygon style="stroke:black; stroke-width:1; fill:rgb(63,190,63); " description="unannotated orf[br]Location: 36222 - 37622" locus_tag="CHAFR746836_0015270.1" class="clusterblast-orf" points="374,40 377,40 382,35 377,30 374,30 374,40 " id="clusterblast-1_q35_2_4"  />
<polygon style="stroke:black; stroke-width:1; fill:#FFFFFF; " description="unannotated orf[br]Location: 40179 - 41082" locus_tag="CHAFR746836_0015280.1" class="clusterblast-orf" points="395,40 395,40 400,35 395,30 395,30 395,40 " id="clusterblast-1_q35_2_5"  />
<polygon style="stroke:black; stroke-width:1; fill:#FFFFFF; " description="unannotated orf[br]Location: 42749 - 46034" locus_tag="CHAFR746836_0015290.1" class="clusterblast-orf" points="409,40 421,40 426,35 421,30 409,30 409,40 " id="clusterblast-1_q35_2_6"  />
<polygon style="stroke:black; stroke-width:1; fill:#FFFFFF; " description="unannotated orf[br]Location: 53083 - 55196" locus_tag="CHAFR746836_0015300.1" class="clusterblast-orf" points="464,40 470,40 475,35 470,30 464,30 464,40 " id="clusterblast-1_q35_2_7"  />
<polygon style="stroke:black; stroke-width:1; fill:#FFFFFF; " description="unannotated orf[br]Location: 57522 - 59597" locus_tag="CHAFR746836_0015310.1" class="clusterblast-orf" points="487,35 492,30 498,30 498,40 492,40 487,35 " id="clusterblast-1_q35_2_8"  />
<polygon style="stroke:black; stroke-width:1; fill:#FFFFFF; " description="unannotated orf[br]Location: 64099 - 66128" locus_tag="CHAFR746836_0015320.1" class="clusterblast-orf" points="522,35 527,30 533,30 533,40 527,40 522,35 " id="clusterblast-1_q35_2_9"  />
<polygon style="stroke:black; stroke-width:1; fill:#FFFFFF; " description="unannotated orf[br]Location: 66743 - 68055" locus_tag="CHAFR746836_0015330.1" class="clusterblast-orf" points="536,40 538,40 543,35 538,30 536,30 536,40 " id="clusterblast-1_q35_2_10"  />
<polygon style="stroke:black; stroke-width:1; fill:rgb(190,63,190); " description="unannotated orf[br]Location: 68693 - 70290" locus_tag="CHAFR746836_0015340.1" class="clusterblast-orf" points="546,35 551,30 555,30 555,40 551,40 546,35 " id="clusterblast-1_q35_2_11"  />
<polygon style="stroke:black; stroke-width:1; fill:#FFFFFF; " description="unannotated orf[br]Location: 72852 - 74846" locus_tag="CHAFR746836_0015350.1" class="clusterblast-orf" points="568,35 573,30 579,30 579,40 573,40 568,35 " id="clusterblast-1_q35_2_12"  />
<polygon style="stroke:black; stroke-width:1; fill:rgb(190,190,63); " description="unannotated orf[br]Location: 75794 - 78319" locus_tag="CHAFR746836_0015360.1" class="clusterblast-orf" points="584,40 592,40 597,35 592,30 584,30 584,40 " id="clusterblast-1_q35_2_13"  />
</g>
<g class="clusterblast-cluster" description="Stigmatella aurantiaca DW4/3-1 chromosome, complete genome." label="NC_014623.1_c8"  >
<text class="clusterblast-acc" y="60" x="5"  >
NC_014623.1_c8</text>
<text class="clusterblast-desc" y="60" x="460.8"  >
Stigmatella aurantiaca DW4/3-1 chromosome, complete genome.</text>
<line y1="85" x2="778.0" style="stroke:grey; stroke-width:1; " x1="10" y2="85"  />
<polygon style="stroke:black; stroke-width:1; fill:#FFFFFF; " description="hypothetical_protein[br]Location: 4750217 - 4751533" locus_tag="STAUR_3961" id="clusterblast-1_h35_2_0" points="10,90 11,90 16,85 11,80 10,80 10,90 " class="clusterblast-orf"  />
<polygon style="stroke:black; stroke-width:1; fill:#FFFFFF; " description="hypothetical_protein[br]Location: 4751743 - 4751958" locus_tag="STAUR_3962" id="clusterblast-1_h35_2_1" points="18,90 19,85 18,80 18,90 " class="clusterblast-orf"  />
<polygon style="stroke:black; stroke-width:1; fill:#FFFFFF; " description="hypothetical_protein[br]Location: 4752238 - 4752960" locus_tag="STAUR_3963" id="clusterblast-1_h35_2_2" points="20,85 24,80 24,90 20,85 " class="clusterblast-orf"  />
<polygon style="stroke:black; stroke-width:1; fill:#FFFFFF; " description="protein_kinase[br]Location: 4753079 - 4754440" locus_tag="STAUR_3964" id="clusterblast-1_h35_2_3" points="25,90 27,90 32,85 27,80 25,80 25,90 " class="clusterblast-orf"  />
<polygon style="stroke:black; stroke-width:1; fill:#FFFFFF; " description="hypothetical_protein[br]Location: 4754522 - 4754911" locus_tag="STAUR_3965" id="clusterblast-1_h35_2_4" points="32,90 34,85 32,80 32,90 " class="clusterblast-orf"  />
<polygon style="stroke:black; stroke-width:1; fill:#FFFFFF; " description="hypothetical_protein[br]Location: 4754930 - 4755370" locus_tag="STAUR_3966" id="clusterblast-1_h35_2_5" points="34,90 37,85 34,80 34,90 " class="clusterblast-orf"  />
<polygon style="stroke:black; stroke-width:1; fill:#FFFFFF; " description="HIT_family_protein[br]Location: 4755484 - 4755924" locus_tag="STAUR_3967" id="clusterblast-1_h35_2_6" points="37,90 40,85 37,80 37,90 " class="clusterblast-orf"  />
<polygon style="stroke:black; stroke-width:1; fill:#FFFFFF; " description="plasmid_pria4b_orf-3-like_family_protein[br]Location: 4755914 - 4756603" locus_tag="STAUR_3968" id="clusterblast-1_h35_2_7" points="40,90 43,85 40,80 40,90 " class="clusterblast-orf"  />
<polygon style="stroke:black; stroke-width:1; fill:#FFFFFF; " description="hypothetical_protein[br]Location: 4756639 - 4757562" locus_tag="STAUR_3969" id="clusterblast-1_h35_2_8" points="44,85 48,80 48,90 44,85 " class="clusterblast-orf"  />
<polygon style="stroke:black; stroke-width:1; fill:#FFFFFF; " description="hypothetical_protein[br]Location: 4757559 - 4758389" locus_tag="STAUR_3970" id="clusterblast-1_h35_2_9" points="48,85 53,80 53,80 53,90 53,90 48,85 " class="clusterblast-orf"  />
<polygon style="stroke:black; stroke-width:1; fill:#FFFFFF; " description="hypothetical_protein[br]Location: 4758555 - 4758875" locus_tag="STAUR_3971" id="clusterblast-1_h35_2_10" points="54,90 55,85 54,80 54,90 " class="clusterblast-orf"  />
<polygon style="stroke:black; stroke-width:1; fill:#FFFFFF; " description="levodione_reductase[br]Location: 4758896 - 4759651" locus_tag="STAUR_3972" id="clusterblast-1_h35_2_11" points="55,85 59,80 59,90 55,85 " class="clusterblast-orf"  />
<polygon style="stroke:black; stroke-width:1; fill:#FFFFFF; " description="copper_amine_oxidase[br]Location: 4759704 - 4761734" locus_tag="STAUR_3973" id="clusterblast-1_h35_2_12" points="60,85 65,80 70,80 70,90 65,90 60,85 " class="clusterblast-orf"  />
<polygon style="stroke:black; stroke-width:1; fill:#FFFFFF; " description="LysR-like_transcriptional_regulator[br]Location: 4761851 - 4762093" locus_tag="STAUR_3974" id="clusterblast-1_h35_2_13" points="71,85 72,80 72,90 71,85 " class="clusterblast-orf"  />
<polygon style="stroke:black; stroke-width:1; fill:#FFFFFF; " description="LysR-like_transcriptional_regulator[br]Location: 4762108 - 4762794" locus_tag="STAUR_3975" id="clusterblast-1_h35_2_14" points="72,85 76,80 76,90 72,85 " class="clusterblast-orf"  />
<polygon style="stroke:black; stroke-width:1; fill:#FFFFFF; " description="catalase_family_protein[br]Location: 4762846 - 4763406" locus_tag="STAUR_3976" id="clusterblast-1_h35_2_15" points="76,90 79,85 76,80 76,90 " class="clusterblast-orf"  />
<polygon style="stroke:black; stroke-width:1; fill:#FFFFFF; " description="hypothetical_protein[br]Location: 4763831 - 4764595" locus_tag="STAUR_3977" id="clusterblast-1_h35_2_16" points="82,90 86,85 82,80 82,90 " class="clusterblast-orf"  />
<polygon style="stroke:black; stroke-width:1; fill:#FFFFFF; " description="hypothetical_protein[br]Location: 4764627 - 4765877" locus_tag="STAUR_3978" id="clusterblast-1_h35_2_17" points="86,90 87,90 92,85 87,80 86,80 86,90 " class="clusterblast-orf"  />
<polygon style="stroke:black; stroke-width:1; fill:#FFFFFF; " description="hypothetical_protein[br]Location: 4766061 - 4769090" locus_tag="STAUR_3979" id="clusterblast-1_h35_2_18" points="93,90 104,90 109,85 104,80 93,80 93,90 " class="clusterblast-orf"  />
<polygon style="stroke:black; stroke-width:1; fill:#FFFFFF; " description="hypothetical_protein[br]Location: 4769224 - 4769478" locus_tag="STAUR_3980" id="clusterblast-1_h35_2_19" points="110,90 111,85 110,80 110,90 " class="clusterblast-orf"  />
<polygon style="stroke:black; stroke-width:1; fill:#FFFFFF; " description="transposase,_is4-like_protein[br]Location: 4769631 - 4771244" locus_tag="STAUR_3981" id="clusterblast-1_h35_2_20" points="112,90 116,90 121,85 116,80 112,80 112,90 " class="clusterblast-orf"  />
<polygon style="stroke:black; stroke-width:1; fill:rgb(190,63,63); " description="polyketide_synthase_AufC[br]Location: 4771261 - 4777539&lt;br&gt;&lt;br&gt;&lt;b&gt;BlastP hit with CHAFR746836_0015230.1&lt;/b&gt;&lt;br&gt;Percentage identity: 31%&lt;br&gt;Percentage coverage: 47%&lt;br&gt;BLAST bit score: 503&lt;br&gt;E-value: 1e-143" locus_tag="STAUR_3982" id="clusterblast-1_h35_2_21" points="121,85 126,80 154,80 154,90 126,90 121,85 " class="clusterblast-orf"  />
<polygon style="stroke:black; stroke-width:1; fill:rgb(190,63,63); " description="polyketide_synthase_AufC[br]Location: 4777536 - 4783190&lt;br&gt;&lt;br&gt;&lt;b&gt;BlastP hit with CHAFR746836_0015230.1&lt;/b&gt;&lt;br&gt;Percentage identity: 31%&lt;br&gt;Percentage coverage: 47%&lt;br&gt;BLAST bit score: 522&lt;br&gt;E-value: 1e-150" locus_tag="STAUR_3983" id="clusterblast-1_h35_2_22" points="154,85 159,80 184,80 184,90 159,90 154,85 " class="clusterblast-orf"  />
<polygon style="stroke:black; stroke-width:1; fill:#FFFFFF; " description="polyketide_synthase[br]Location: 4783216 - 4788771" locus_tag="STAUR_3984" id="clusterblast-1_h35_2_23" points="184,85 189,80 214,80 214,90 189,90 184,85 " class="clusterblast-orf"  />
<polygon style="stroke:black; stroke-width:1; fill:rgb(190,63,63); " description="polyketide_synthase_AufI[br]Location: 4788768 - 4795823&lt;br&gt;&lt;br&gt;&lt;b&gt;BlastP hit with CHAFR746836_0015230.1&lt;/b&gt;&lt;br&gt;Percentage identity: 33%&lt;br&gt;Percentage coverage: 36%&lt;br&gt;BLAST bit score: 473&lt;br&gt;E-value: 2e-133" locus_tag="STAUR_3985" id="clusterblast-1_h35_2_24" points="214,85 219,80 251,80 251,90 219,90 214,85 " class="clusterblast-orf"  />
<polygon style="stroke:black; stroke-width:1; fill:#FFFFFF; " description="glycoside_hydrolase[br]Location: 4796498 - 4797475" locus_tag="STAUR_3986" id="clusterblast-1_h35_2_25" points="255,90 255,90 260,85 255,80 255,80 255,90 " class="clusterblast-orf"  />
<polygon style="stroke:black; stroke-width:1; fill:#FFFFFF; " description="hypothetical_protein[br]Location: 4797597 - 4800443" locus_tag="STAUR_3987" id="clusterblast-1_h35_2_26" points="260,85 265,80 275,80 275,90 265,90 260,85 " class="clusterblast-orf"  />
<polygon style="stroke:black; stroke-width:1; fill:#FFFFFF; " description="alpha-L-arabinofuranosidase_B_family_protein[br]Location: 4800465 - 4803233" locus_tag="STAUR_3988" id="clusterblast-1_h35_2_27" points="276,85 281,80 290,80 290,90 281,90 276,85 " class="clusterblast-orf"  />
<polygon style="stroke:black; stroke-width:1; fill:#FFFFFF; " description="hypothetical_protein[br]Location: 4803391 - 4803654" locus_tag="STAUR_3989" id="clusterblast-1_h35_2_28" points="291,85 292,80 292,90 291,85 " class="clusterblast-orf"  />
<polygon style="stroke:black; stroke-width:1; fill:#FFFFFF; " description="histidine_ammonia-lyase[br]Location: 4803732 - 4805264" locus_tag="STAUR_3990" id="clusterblast-1_h35_2_29" points="293,85 298,80 301,80 301,90 298,90 293,85 " class="clusterblast-orf"  />
<polygon style="stroke:black; stroke-width:1; fill:#FFFFFF; " description="aspartokinase[br]Location: 4805321 - 4806625" locus_tag="STAUR_3991" id="clusterblast-1_h35_2_30" points="301,90 303,90 308,85 303,80 301,80 301,90 " class="clusterblast-orf"  />
<polygon style="stroke:black; stroke-width:1; fill:#FFFFFF; " description="ComE_protein[br]Location: 4806622 - 4807038" locus_tag="STAUR_3992" id="clusterblast-1_h35_2_31" points="308,90 310,85 308,80 308,90 " class="clusterblast-orf"  />
<polygon style="stroke:black; stroke-width:1; fill:#FFFFFF; " description="hypothetical_protein[br]Location: 4807075 - 4808949" locus_tag="STAUR_3993" id="clusterblast-1_h35_2_32" points="311,90 315,90 320,85 315,80 311,80 311,90 " class="clusterblast-orf"  />
<polygon style="stroke:black; stroke-width:1; fill:#FFFFFF; " description="glycosyl_transferase_group_2_family_protein[br]Location: 4809116 - 4810297" locus_tag="STAUR_3994" id="clusterblast-1_h35_2_33" points="321,90 323,90 328,85 323,80 321,80 321,90 " class="clusterblast-orf"  />
<polygon style="stroke:black; stroke-width:1; fill:#FFFFFF; " description="hypothetical_protein[br]Location: 4810298 - 4811167" locus_tag="STAUR_3995" id="clusterblast-1_h35_2_34" points="328,85 332,80 332,90 328,85 " class="clusterblast-orf"  />
<polygon style="stroke:black; stroke-width:1; fill:#FFFFFF; " description="StkY_protein[br]Location: 4811195 - 4812988" locus_tag="STAUR_3996" id="clusterblast-1_h35_2_35" points="332,90 337,90 342,85 337,80 332,80 332,90 " class="clusterblast-orf"  />
<polygon style="stroke:black; stroke-width:1; fill:#FFFFFF; " description="ATP-dependent_DNA_helicase,_uvrd/rep_family[br]Location: 4813038 - 4815116" locus_tag="STAUR_3997" id="clusterblast-1_h35_2_36" points="342,90 348,90 353,85 348,80 342,80 342,90 " class="clusterblast-orf"  />
<polygon style="stroke:black; stroke-width:1; fill:#FFFFFF; " description="StkA_protein[br]Location: 4815205 - 4816824" locus_tag="STAUR_3998" id="clusterblast-1_h35_2_37" points="354,90 357,90 362,85 357,80 354,80 354,90 " class="clusterblast-orf"  />
<polygon style="stroke:black; stroke-width:1; fill:#FFFFFF; " description="StkB_protein[br]Location: 4816834 - 4817259" locus_tag="STAUR_3999" id="clusterblast-1_h35_2_38" points="362,90 364,85 362,80 362,90 " class="clusterblast-orf"  />
<polygon style="stroke:black; stroke-width:1; fill:#FFFFFF; " description="StkC_protein[br]Location: 4817279 - 4817557" locus_tag="STAUR_4000" id="clusterblast-1_h35_2_39" points="365,90 366,85 365,80 365,90 " class="clusterblast-orf"  />
<polygon style="stroke:black; stroke-width:1; fill:#FFFFFF; " description="ice-like_protease_(caspase)_p20_domain_protein[br]Location: 4817794 - 4819938" locus_tag="STAUR_4002" id="clusterblast-1_h35_2_40" points="367,85 372,80 379,80 379,90 372,90 367,85 " class="clusterblast-orf"  />
<polygon style="stroke:black; stroke-width:1; fill:#FFFFFF; " description="chitinase,_class_I[br]Location: 4820103 - 4821314" locus_tag="STAUR_4003" id="clusterblast-1_h35_2_41" points="380,85 385,80 386,80 386,90 385,90 380,85 " class="clusterblast-orf"  />
<polygon style="stroke:black; stroke-width:1; fill:#FFFFFF; " description="hypothetical_protein[br]Location: 4821686 - 4822021" locus_tag="STAUR_4004" id="clusterblast-1_h35_2_42" points="388,90 390,85 388,80 388,90 " class="clusterblast-orf"  />
<polygon style="stroke:black; stroke-width:1; fill:#FFFFFF; " description="hypothetical_protein[br]Location: 4822135 - 4823265" locus_tag="STAUR_4005" id="clusterblast-1_h35_2_43" points="390,90 391,90 396,85 391,80 390,80 390,90 " class="clusterblast-orf"  />
<polygon style="stroke:black; stroke-width:1; fill:#FFFFFF; " description="rieske_family_iron-sulfur_cluster-binding[br]Location: 4823426 - 4825042" locus_tag="STAUR_4006" id="clusterblast-1_h35_2_44" points="397,90 401,90 406,85 401,80 397,80 397,90 " class="clusterblast-orf"  />
<polygon style="stroke:black; stroke-width:1; fill:#FFFFFF; " description="hypothetical_protein[br]Location: 4825058 - 4825696" locus_tag="STAUR_4007" id="clusterblast-1_h35_2_45" points="406,85 409,80 409,90 406,85 " class="clusterblast-orf"  />
<polygon style="stroke:black; stroke-width:1; fill:#FFFFFF; " description="hypothetical_protein[br]Location: 4825705 - 4826817" locus_tag="STAUR_4008" id="clusterblast-1_h35_2_46" points="409,85 414,80 415,80 415,90 414,90 409,85 " class="clusterblast-orf"  />
<polygon style="stroke:black; stroke-width:1; fill:#FFFFFF; " description="hypothetical_protein[br]Location: 4826834 - 4827928" locus_tag="STAUR_4009" id="clusterblast-1_h35_2_47" points="415,85 420,80 421,80 421,90 420,90 415,85 " class="clusterblast-orf"  />
<polygon style="stroke:black; stroke-width:1; fill:#FFFFFF; " description="group_2_glycosyl_transferase[br]Location: 4827925 - 4829172" locus_tag="STAUR_4010" id="clusterblast-1_h35_2_48" points="421,85 426,80 428,80 428,90 426,90 421,85 " class="clusterblast-orf"  />
<polygon style="stroke:black; stroke-width:1; fill:#FFFFFF; " description="kelch_domain-containing_protein[br]Location: 4829449 - 4831665" locus_tag="STAUR_4011" id="clusterblast-1_h35_2_49" points="429,90 436,90 441,85 436,80 429,80 429,90 " class="clusterblast-orf"  />
<polygon style="stroke:black; stroke-width:1; fill:#FFFFFF; " description="4'-phosphopantetheinyl_transferase[br]Location: 4831729 - 4832562" locus_tag="STAUR_4012" id="clusterblast-1_h35_2_50" points="441,90 441,90 446,85 441,80 441,80 441,90 " class="clusterblast-orf"  />
<polygon style="stroke:black; stroke-width:1; fill:#FFFFFF; " description="modular_polyketide_synthase[br]Location: 4833254 - 4845127" locus_tag="STAUR_4014" id="clusterblast-1_h35_2_51" points="449,90 507,90 512,85 507,80 449,80 449,90 " class="clusterblast-orf"  />
<polygon style="stroke:black; stroke-width:1; fill:#FFFFFF; " description="MtaC_protein[br]Location: 4845166 - 4849137" locus_tag="STAUR_4015" id="clusterblast-1_h35_2_52" points="512,90 528,90 533,85 528,80 512,80 512,90 " class="clusterblast-orf"  />
<polygon style="stroke:black; stroke-width:1; fill:#FFFFFF; " description="amino_acid_adenylation_domain-containing[br]Location: 4849134 - 4859009" locus_tag="STAUR_4016" id="clusterblast-1_h35_2_53" points="533,90 581,90 586,85 581,80 533,80 533,90 " class="clusterblast-orf"  />
<polygon style="stroke:black; stroke-width:1; fill:rgb(190,63,63); " description="MtaE_protein[br]Location: 4859068 - 4864911&lt;br&gt;&lt;br&gt;&lt;b&gt;BlastP hit with CHAFR746836_0015230.1&lt;/b&gt;&lt;br&gt;Percentage identity: 34%&lt;br&gt;Percentage coverage: 36%&lt;br&gt;BLAST bit score: 490&lt;br&gt;E-value: 6e-140" locus_tag="STAUR_4017" id="clusterblast-1_h35_2_54" points="586,90 612,90 617,85 612,80 586,80 586,90 " class="clusterblast-orf"  />
<polygon style="stroke:black; stroke-width:1; fill:rgb(190,63,63); " description="MtaF_protein[br]Location: 4864916 - 4868998&lt;br&gt;&lt;br&gt;&lt;b&gt;BlastP hit with CHAFR746836_0015230.1&lt;/b&gt;&lt;br&gt;Percentage identity: 33%&lt;br&gt;Percentage coverage: 37%&lt;br&gt;BLAST bit score: 471&lt;br&gt;E-value: 9e-137" locus_tag="STAUR_4018" id="clusterblast-1_h35_2_55" points="617,90 633,90 638,85 633,80 617,80 617,90 " class="clusterblast-orf"  />
<polygon style="stroke:black; stroke-width:1; fill:#FFFFFF; " description="non-ribosomal_peptide_synthase-like_protein[br]Location: 4868995 - 4874265" locus_tag="STAUR_4019" id="clusterblast-1_h35_2_56" points="638,90 661,90 666,85 661,80 638,80 638,90 " class="clusterblast-orf"  />
<polygon style="stroke:black; stroke-width:1; fill:#FFFFFF; " description="melh_protein[br]Location: 4874281 - 4875255" locus_tag="STAUR_4020" id="clusterblast-1_h35_2_57" points="666,90 667,90 672,85 667,80 666,80 666,90 " class="clusterblast-orf"  />
<polygon style="stroke:black; stroke-width:1; fill:#FFFFFF; " description="tRNA_nucleotidyltransferase/poly(a)_polymerase[br]Location: 4875301 - 4876572" locus_tag="STAUR_4021" id="clusterblast-1_h35_2_58" points="672,90 674,90 679,85 674,80 672,80 672,90 " class="clusterblast-orf"  />
<polygon style="stroke:black; stroke-width:1; fill:#FFFFFF; " description="tRNA-specific_2-thiouridylase_mnma[br]Location: 4876632 - 4877678" locus_tag="STAUR_4022" id="clusterblast-1_h35_2_59" points="679,90 679,90 684,85 679,80 679,80 679,90 " class="clusterblast-orf"  />
<polygon style="stroke:black; stroke-width:1; fill:#FFFFFF; " description="adventurous_gliding_motility_protein_I[br]Location: 4877808 - 4878671" locus_tag="STAUR_4023" id="clusterblast-1_h35_2_60" points="685,90 685,90 690,85 685,80 685,80 685,90 " class="clusterblast-orf"  />
<polygon style="stroke:black; stroke-width:1; fill:#FFFFFF; " description="cupin_domain-containing_protein[br]Location: 4878704 - 4879066" locus_tag="STAUR_4024" id="clusterblast-1_h35_2_61" points="690,90 692,85 690,80 690,90 " class="clusterblast-orf"  />
<polygon style="stroke:black; stroke-width:1; fill:#FFFFFF; " description="hypothetical_protein[br]Location: 4879091 - 4879696" locus_tag="STAUR_4025" id="clusterblast-1_h35_2_62" points="692,85 695,80 695,90 692,85 " class="clusterblast-orf"  />
<polygon style="stroke:black; stroke-width:1; fill:#FFFFFF; " description="hypothetical_protein[br]Location: 4879799 - 4879981" locus_tag="STAUR_4026" id="clusterblast-1_h35_2_63" points="696,90 697,85 696,80 696,90 " class="clusterblast-orf"  />
<polygon style="stroke:black; stroke-width:1; fill:#FFFFFF; " description="NAD-dependent_epimerase/dehydratase_family[br]Location: 4879985 - 4880941" locus_tag="STAUR_4027" id="clusterblast-1_h35_2_64" points="697,90 697,90 702,85 697,80 697,80 697,90 " class="clusterblast-orf"  />
<polygon style="stroke:black; stroke-width:1; fill:#FFFFFF; " description="UDP-glucose_4-epimerase[br]Location: 4880994 - 4881938" locus_tag="STAUR_4028" id="clusterblast-1_h35_2_65" points="702,90 702,90 707,85 702,80 702,80 702,90 " class="clusterblast-orf"  />
<polygon style="stroke:black; stroke-width:1; fill:rgb(190,190,63); " description="GTP-binding_protein_LepA[br]Location: 4882077 - 4883888&lt;br&gt;&lt;br&gt;&lt;b&gt;BlastP hit with CHAFR746836_0015360.1&lt;/b&gt;&lt;br&gt;Percentage identity: 37%&lt;br&gt;Percentage coverage: 15%&lt;br&gt;BLAST bit score: 71&lt;br&gt;E-value: 1e-11" locus_tag="STAUR_4029" id="clusterblast-1_h35_2_66" points="708,90 712,90 717,85 712,80 708,80 708,90 " class="clusterblast-orf"  />
<polygon style="stroke:black; stroke-width:1; fill:#FFFFFF; " description="signal_peptidase_i[br]Location: 4883889 - 4885124" locus_tag="STAUR_4030" id="clusterblast-1_h35_2_67" points="717,90 719,90 724,85 719,80 717,80 717,90 " class="clusterblast-orf"  />
<polygon style="stroke:black; stroke-width:1; fill:#FFFFFF; " description="aspartate_carbamoyltransferase[br]Location: 4885184 - 4886074" locus_tag="STAUR_4031" id="clusterblast-1_h35_2_68" points="724,90 724,90 729,85 724,80 724,80 724,90 " class="clusterblast-orf"  />
<polygon style="stroke:black; stroke-width:1; fill:#FFFFFF; " description="dihydroorotase,_multifunctional_complex_type[br]Location: 4886071 - 4887372" locus_tag="STAUR_4032" id="clusterblast-1_h35_2_69" points="729,90 731,90 736,85 731,80 729,80 729,90 " class="clusterblast-orf"  />
<polygon style="stroke:black; stroke-width:1; fill:#FFFFFF; " description="carbamoyl-phosphate_synthase_small_subunit[br]Location: 4887372 - 4888487" locus_tag="STAUR_4033" id="clusterblast-1_h35_2_70" points="736,90 737,90 742,85 737,80 736,80 736,90 " class="clusterblast-orf"  />
<polygon style="stroke:black; stroke-width:1; fill:#FFFFFF; " description="hypothetical_protein[br]Location: 4888507 - 4889178" locus_tag="STAUR_4034" id="clusterblast-1_h35_2_71" points="742,90 745,85 742,80 742,90 " class="clusterblast-orf"  />
<polygon style="stroke:black; stroke-width:1; fill:#FFFFFF; " description="pyruvate_kinase[br]Location: 4889224 - 4890624" locus_tag="STAUR_4035" id="clusterblast-1_h35_2_72" points="746,85 751,80 753,80 753,90 751,90 746,85 " class="clusterblast-orf"  />
<polygon style="stroke:black; stroke-width:1; fill:#FFFFFF; " description="hypothetical_protein[br]Location: 4890830 - 4891468" locus_tag="STAUR_4036" id="clusterblast-1_h35_2_73" points="754,85 757,80 757,90 754,85 " class="clusterblast-orf"  />
<polygon style="stroke:black; stroke-width:1; fill:#FFFFFF; " description="hypothetical_protein[br]Location: 4891615 - 4891971" locus_tag="STAUR_4037" id="clusterblast-1_h35_2_74" points="758,85 760,80 760,90 758,85 " class="clusterblast-orf"  />
<polygon style="stroke:black; stroke-width:1; fill:#FFFFFF; " description="long-chain-fatty-acid-CoA_ligase[br]Location: 4892098 - 4893894" locus_tag="STAUR_4038" id="clusterblast-1_h35_2_75" points="761,90 765,90 770,85 765,80 761,80 761,90 " class="clusterblast-orf"  />
<polygon style="stroke:black; stroke-width:1; fill:#FFFFFF; " description="citrate_synthase[br]Location: 4893963 - 4895264" locus_tag="STAUR_4039" id="clusterblast-1_h35_2_76" points="771,85 776,80 778,80 778,90 776,90 771,85 " class="clusterblast-orf"  />
</g>
</svg>
