<svg xmlns="http://www.w3.org/2000/svg" height="230" width="800" version="1.1" y="0" x="0" preserveAspectRatio="none" xmlns:xlink="http://www.w3.org/1999/xlink" viewBox="0 0 800 230"  >
<g class="clusterblast-cluster" label="Query sequence"  >
<text class="clusterblast-acc" y="10" x="5"  >
Query sequence</text>
<line y1="35" x2="778.0" style="stroke:grey; stroke-width:1; " x1="10" y2="35"  />
<polygon style="stroke:black; stroke-width:1; fill:#FFFFFF; " description="unannotated orf[br]Location: 3489 - 4914" locus_tag="CHAFR746836_0101380.1" class="clusterblast-orf" points="10,35 15,30 27,30 27,40 15,40 10,35 " id="clusterblast-1_q29_2_0"  />
<polygon style="stroke:black; stroke-width:1; fill:#FFFFFF; " description="unannotated orf[br]Location: 5456 - 6575" locus_tag="CHAFR746836_0101390.1" class="clusterblast-orf" points="33,35 38,30 47,30 47,40 38,40 33,35 " id="clusterblast-1_q29_2_1"  />
<polygon style="stroke:black; stroke-width:1; fill:#FFFFFF; " description="unannotated orf[br]Location: 10922 - 11634" locus_tag="CHAFR746836_0101400.1" class="clusterblast-orf" points="99,40 102,40 107,35 102,30 99,30 99,40 " id="clusterblast-1_q29_2_2"  />
<polygon style="stroke:black; stroke-width:1; fill:#FFFFFF; " description="unannotated orf[br]Location: 19756 - 21668" locus_tag="CHAFR746836_0101410.1" class="clusterblast-orf" points="205,35 210,30 227,30 227,40 210,40 205,35 " id="clusterblast-1_q29_2_3"  />
<polygon style="stroke:black; stroke-width:1; fill:#FFFFFF; " description="unannotated orf[br]Location: 22408 - 23374" locus_tag="CHAFR746836_0101420.1" class="clusterblast-orf" points="236,40 243,40 248,35 243,30 236,30 236,40 " id="clusterblast-1_q29_2_4"  />
<polygon style="stroke:black; stroke-width:1; fill:rgb(190,63,63); " description="unannotated orf[br]Location: 23890 - 24643" locus_tag="CHAFR746836_0101430.1" class="clusterblast-orf" points="254,35 259,30 263,30 263,40 259,40 254,35 " id="clusterblast-1_q29_2_5"  />
<polygon style="stroke:black; stroke-width:1; fill:rgb(63,63,190); " description="unannotated orf[br]Location: 25525 - 33031" locus_tag="CHAFR746836_0101440.1" class="clusterblast-orf" points="274,35 279,30 364,30 364,40 279,40 274,35 " id="clusterblast-1_q29_2_6"  />
<polygon style="stroke:black; stroke-width:1; fill:rgb(63,190,63); " description="unannotated orf[br]Location: 34425 - 35697" locus_tag="CHAFR746836_0101450.1" class="clusterblast-orf" points="380,40 391,40 396,35 391,30 380,30 380,40 " id="clusterblast-1_q29_2_7"  />
<polygon style="stroke:black; stroke-width:1; fill:#FFFFFF; " description="unannotated orf[br]Location: 38970 - 40379" locus_tag="CHAFR746836_0101460.1" class="clusterblast-orf" points="435,40 447,40 452,35 447,30 435,30 435,40 " id="clusterblast-1_q29_2_8"  />
<polygon style="stroke:black; stroke-width:1; fill:rgb(190,63,190); " description="unannotated orf[br]Location: 43420 - 44310" locus_tag="CHAFR746836_0101470.1" class="clusterblast-orf" points="488,40 494,40 499,35 494,30 488,30 488,40 " id="clusterblast-1_q29_2_9"  />
<polygon style="stroke:black; stroke-width:1; fill:rgb(190,190,63); " description="unannotated orf[br]Location: 45003 - 45808" locus_tag="CHAFR746836_0101480.1" class="clusterblast-orf" points="507,40 512,40 517,35 512,30 507,30 507,40 " id="clusterblast-1_q29_2_10"  />
<polygon style="stroke:black; stroke-width:1; fill:rgb(190,190,190); " description="unannotated orf[br]Location: 46298 - 48111" locus_tag="CHAFR746836_0101490.1" class="clusterblast-orf" points="523,35 528,30 545,30 545,40 528,40 523,35 " id="clusterblast-1_q29_2_11"  />
<polygon style="stroke:black; stroke-width:1; fill:#FFFFFF; " description="unannotated orf[br]Location: 48769 - 49804" locus_tag="CHAFR746836_0101500.1" class="clusterblast-orf" points="552,35 557,30 565,30 565,40 557,40 552,35 " id="clusterblast-1_q29_2_12"  />
<polygon style="stroke:black; stroke-width:1; fill:#FFFFFF; " description="unannotated orf[br]Location: 50970 - 51894" locus_tag="CHAFR746836_0101510.1" class="clusterblast-orf" points="579,40 585,40 590,35 585,30 579,30 579,40 " id="clusterblast-1_q29_2_13"  />
<polygon style="stroke:black; stroke-width:1; fill:#FFFFFF; " description="unannotated orf[br]Location: 52569 - 55191" locus_tag="CHAFR746836_0101520.1" class="clusterblast-orf" points="598,40 624,40 629,35 624,30 598,30 598,40 " id="clusterblast-1_q29_2_14"  />
<polygon style="stroke:black; stroke-width:1; fill:#FFFFFF; " description="unannotated orf[br]Location: 55978 - 57046" locus_tag="CHAFR746836_0101530.1" class="clusterblast-orf" points="639,40 647,40 652,35 647,30 639,30 639,40 " id="clusterblast-1_q29_2_15"  />
<polygon style="stroke:black; stroke-width:1; fill:#FFFFFF; " description="unannotated orf[br]Location: 58243 - 59708" locus_tag="CHAFR746836_0101540.1" class="clusterblast-orf" points="666,40 679,40 684,35 679,30 666,30 666,40 " id="clusterblast-1_q29_2_16"  />
<polygon style="stroke:black; stroke-width:1; fill:#FFFFFF; " description="unannotated orf[br]Location: 60927 - 61452" locus_tag="CHAFR746836_0101550.1" class="clusterblast-orf" points="698,35 703,30 705,30 705,40 703,40 698,35 " id="clusterblast-1_q29_2_17"  />
<polygon style="stroke:black; stroke-width:1; fill:#FFFFFF; " description="unannotated orf[br]Location: 63620 - 67540" locus_tag="CHAFR746836_0101560.1" class="clusterblast-orf" points="730,40 773,40 778,35 773,30 730,30 730,40 " id="clusterblast-1_q29_2_18"  />
</g>
<g class="clusterblast-cluster" description="Neurospora tetrasperma FGSC 2509 unplaced genomic scaffold N..." label="GL890999.1_c1"  >
<text class="clusterblast-acc" y="60" x="5"  >
GL890999.1_c1</text>
<text class="clusterblast-desc" y="60" x="460.8"  >
Neurospora tetrasperma FGSC 2509 unplaced genomic scaffold N...</text>
<line y1="85" x2="778.0" style="stroke:grey; stroke-width:1; " x1="10" y2="85"  />
<polygon style="stroke:black; stroke-width:1; fill:#FFFFFF; " description="hypothetical_protein[br]Location: 1111727 - 1114110" locus_tag="NEUTE2DRAFT_98098" id="clusterblast-1_h29_2_0" points="111,85 116,80 139,80 139,90 116,90 111,85 " class="clusterblast-orf"  />
<polygon style="stroke:black; stroke-width:1; fill:#FFFFFF; " description="hypothetical_protein[br]Location: 1122535 - 1122696" locus_tag="NEUTE2DRAFT_49542" id="clusterblast-1_h29_2_1" points="240,85 242,80 242,90 240,85 " class="clusterblast-orf"  />
<polygon style="stroke:black; stroke-width:1; fill:#FFFFFF; " description="hypothetical_protein[br]Location: 1123838 - 1131411" locus_tag="NEUTE2DRAFT_161289" id="clusterblast-1_h29_2_2" points="256,85 261,80 347,80 347,90 261,90 256,85 " class="clusterblast-orf"  />
<polygon style="stroke:black; stroke-width:1; fill:#FFFFFF; " description="hypothetical_protein[br]Location: 1132156 - 1132767" locus_tag="NEUTE2DRAFT_153299" id="clusterblast-1_h29_2_3" points="355,85 360,80 363,80 363,90 360,90 355,85 " class="clusterblast-orf"  />
<polygon style="stroke:black; stroke-width:1; fill:rgb(63,63,190); " description="ketoacyl-synt-domain-containing_protein[br]Location: 1133464 - 1140756&lt;br&gt;&lt;br&gt;&lt;b&gt;BlastP hit with CHAFR746836_0101440.1&lt;/b&gt;&lt;br&gt;Percentage identity: 45%&lt;br&gt;Percentage coverage: 100%&lt;br&gt;BLAST bit score: 2055&lt;br&gt;E-value: 0.0" locus_tag="NEUTE2DRAFT_98109" id="clusterblast-1_h29_2_4" points="371,85 376,80 459,80 459,90 376,90 371,85 " class="clusterblast-orf"  />
<polygon style="stroke:black; stroke-width:1; fill:rgb(190,190,63); " description="hypothetical_protein[br]Location: 1143013 - 1143676&lt;br&gt;&lt;br&gt;&lt;b&gt;BlastP hit with CHAFR746836_0101480.1&lt;/b&gt;&lt;br&gt;Percentage identity: 51%&lt;br&gt;Percentage coverage: 94%&lt;br&gt;BLAST bit score: 202&lt;br&gt;E-value: 8e-64" locus_tag="NEUTE2DRAFT_142462" id="clusterblast-1_h29_2_5" points="486,85 491,80 494,80 494,90 491,90 486,85 " class="clusterblast-orf"  />
<polygon style="stroke:black; stroke-width:1; fill:rgb(190,63,190); " description="NAD(P)-binding_protein[br]Location: 1144277 - 1145326&lt;br&gt;&lt;br&gt;&lt;b&gt;BlastP hit with CHAFR746836_0101470.1&lt;/b&gt;&lt;br&gt;Percentage identity: 46%&lt;br&gt;Percentage coverage: 96%&lt;br&gt;BLAST bit score: 252&lt;br&gt;E-value: 3e-81" locus_tag="NEUTE2DRAFT_98113" id="clusterblast-1_h29_2_6" points="501,90 508,90 513,85 508,80 501,80 501,90 " class="clusterblast-orf"  />
<polygon style="stroke:black; stroke-width:1; fill:rgb(190,190,63); " description="hypothetical_protein[br]Location: 1145567 - 1146214&lt;br&gt;&lt;br&gt;&lt;b&gt;BlastP hit with CHAFR746836_0101480.1&lt;/b&gt;&lt;br&gt;Percentage identity: 48%&lt;br&gt;Percentage coverage: 100%&lt;br&gt;BLAST bit score: 187&lt;br&gt;E-value: 3e-58" locus_tag="NEUTE2DRAFT_142463" id="clusterblast-1_h29_2_7" points="516,90 519,90 524,85 519,80 516,80 516,90 " class="clusterblast-orf"  />
<polygon style="stroke:black; stroke-width:1; fill:rgb(63,190,63); " description="NAD(P)-binding_protein[br]Location: 1147062 - 1148240&lt;br&gt;&lt;br&gt;&lt;b&gt;BlastP hit with CHAFR746836_0101450.1&lt;/b&gt;&lt;br&gt;Percentage identity: 53%&lt;br&gt;Percentage coverage: 82%&lt;br&gt;BLAST bit score: 177&lt;br&gt;E-value: 2e-53" locus_tag="NEUTE2DRAFT_76738" id="clusterblast-1_h29_2_8" points="534,85 539,80 548,80 548,90 539,90 534,85 " class="clusterblast-orf"  />
<polygon style="stroke:black; stroke-width:1; fill:#FFFFFF; " description="NAD(P)-binding_protein[br]Location: 1149406 - 1150311" locus_tag="NEUTE2DRAFT_123020" id="clusterblast-1_h29_2_9" points="562,90 568,90 573,85 568,80 562,80 562,90 " class="clusterblast-orf"  />
<polygon style="stroke:black; stroke-width:1; fill:#FFFFFF; " description="alpha/beta-hydrolase[br]Location: 1150840 - 1151954" locus_tag="NEUTE2DRAFT_142467" id="clusterblast-1_h29_2_10" points="579,90 588,90 593,85 588,80 579,80 579,90 " class="clusterblast-orf"  />
<polygon style="stroke:black; stroke-width:1; fill:#FFFFFF; " description="FAD/NAD(P)-binding_domain-containing_protein[br]Location: 1153806 - 1155236" locus_tag="NEUTE2DRAFT_76745" id="clusterblast-1_h29_2_11" points="615,90 627,90 632,85 627,80 615,80 615,90 " class="clusterblast-orf"  />
<polygon style="stroke:black; stroke-width:1; fill:#FFFFFF; " description="FAD-binding_domain-containing_protein[br]Location: 1157333 - 1158898" locus_tag="NEUTE2DRAFT_133728" id="clusterblast-1_h29_2_12" points="657,85 662,80 676,80 676,90 662,90 657,85 " class="clusterblast-orf"  />
</g>
</svg>
