<svg xmlns="http://www.w3.org/2000/svg" height="680" width="800" version="1.1" y="0" x="0" preserveAspectRatio="none" xmlns:xlink="http://www.w3.org/1999/xlink" viewBox="0 0 800 680"  >
<g class="clusterblast-cluster" label="Query sequence"  >
<text class="clusterblast-acc" y="10" x="5"  >
Query sequence</text>
<line y1="35" x2="778.0" style="stroke:grey; stroke-width:1; " x1="10" y2="35"  />
<polygon style="stroke:black; stroke-width:1; fill:red; " description="unannotated orf[br]Location: 41959 - 43540" locus_tag="CHAFR746836_0014170.1" class="clusterblast-orf" points="217,35 222,30 238,30 238,40 222,40 217,35 " id="clusterblast-1_all_31_0_0"  />
<polygon style="stroke:black; stroke-width:1; fill:green; " description="unannotated orf[br]Location: 53187 - 67692" locus_tag="CHAFR746836_0014180.1" class="clusterblast-orf" points="370,40 564,40 569,35 564,30 370,30 370,40 " id="clusterblast-1_all_31_0_1"  />
</g>
<g class="clusterblast-cluster" description="Trichoderma reesei QM6a unplaced genomic scaffold TRIREscaff..." label="GL985086.1_c1"  >
<text class="clusterblast-acc" y="60" x="5"  >
GL985086.1_c1</text>
<text class="clusterblast-desc" y="60" x="460.8"  >
Trichoderma reesei QM6a unplaced genomic scaffold TRIREscaff...</text>
<line y1="85" x2="778.0" style="stroke:grey; stroke-width:1; " x1="10" y2="85"  />
<polygon style="stroke:black; stroke-width:1; fill:#FFFFFF; " description="amidase[br]Location: 18435 - 20427" locus_tag="TRIREDRAFT_69863" id="clusterblast-1_all_31_1_0" points="757,85 762,80 784,80 784,90 762,90 757,85 " class="clusterblast-orf"  />
<polygon style="stroke:black; stroke-width:1; fill:#FFFFFF; " description="predicted_protein[br]Location: 20718 - 21695" locus_tag="TRIREDRAFT_111966" id="clusterblast-1_all_31_1_1" points="740,90 749,90 754,85 749,80 740,80 740,90 " class="clusterblast-orf"  />
<polygon style="stroke:black; stroke-width:1; fill:#FFFFFF; " description="predicted_protein[br]Location: 22647 - 23648" locus_tag="TRIREDRAFT_69920" id="clusterblast-1_all_31_1_2" points="713,85 718,80 727,80 727,90 718,90 713,85 " class="clusterblast-orf"  />
<polygon style="stroke:black; stroke-width:1; fill:#FFFFFF; " description="predicted_protein[br]Location: 23848 - 26061" locus_tag="TRIREDRAFT_111968" id="clusterblast-1_all_31_1_3" points="680,90 706,90 711,85 706,80 680,80 680,90 " class="clusterblast-orf"  />
<polygon style="stroke:black; stroke-width:1; fill:#FFFFFF; " description="predicted_protein[br]Location: 27356 - 28093" locus_tag="TRIREDRAFT_69963" id="clusterblast-1_all_31_1_4" points="652,85 657,80 663,80 663,90 657,90 652,85 " class="clusterblast-orf"  />
<polygon style="stroke:black; stroke-width:1; fill:#FFFFFF; " description="alcohol_dehydrogenase[br]Location: 29688 - 30794" locus_tag="TRIREDRAFT_69956" id="clusterblast-1_all_31_1_5" points="615,85 620,80 631,80 631,90 620,90 615,85 " class="clusterblast-orf"  />
<polygon style="stroke:black; stroke-width:1; fill:#FFFFFF; " description="predicted_protein[br]Location: 32775 - 33824" locus_tag="TRIREDRAFT_69950" id="clusterblast-1_all_31_1_6" points="574,85 579,80 588,80 588,90 579,90 574,85 " class="clusterblast-orf"  />
<polygon style="stroke:black; stroke-width:1; fill:#FFFFFF; " description="predicted_protein[br]Location: 33994 - 35520" locus_tag="TRIREDRAFT_52375" id="clusterblast-1_all_31_1_7" points="551,90 567,90 572,85 567,80 551,80 551,90 " class="clusterblast-orf"  />
<polygon style="stroke:black; stroke-width:1; fill:#FFFFFF; " description="choline_oxidase[br]Location: 37963 - 39594" locus_tag="TRIREDRAFT_23367" id="clusterblast-1_all_31_1_8" points="495,85 500,80 517,80 517,90 500,90 495,85 " class="clusterblast-orf"  />
<polygon style="stroke:black; stroke-width:1; fill:green; " description="non-ribosomal_peptide_synthetase,_siderophore[br]Location: 39879 - 54649&lt;br&gt;&lt;br&gt;&lt;b&gt;BlastP hit with CHAFR746836_0014180.1&lt;/b&gt;&lt;br&gt;Percentage identity: 37%&lt;br&gt;Percentage coverage: 100%&lt;br&gt;BLAST bit score: 3093&lt;br&gt;E-value: 0.0" locus_tag="TRIREDRAFT_69946" id="clusterblast-1_all_31_1_9" points="288,90 486,90 491,85 486,80 288,80 288,90 " class="clusterblast-orf"  />
<polygon style="stroke:black; stroke-width:1; fill:red; " description="ornithine_monooxygenase[br]Location: 57593 - 59345&lt;br&gt;&lt;br&gt;&lt;b&gt;BlastP hit with CHAFR746836_0014170.1&lt;/b&gt;&lt;br&gt;Percentage identity: 44%&lt;br&gt;Percentage coverage: 100%&lt;br&gt;BLAST bit score: 375&lt;br&gt;E-value: 8e-123" locus_tag="TRIREDRAFT_23368" id="clusterblast-1_all_31_1_10" points="224,85 229,80 248,80 248,90 229,90 224,85 " class="clusterblast-orf"  />
<polygon style="stroke:black; stroke-width:1; fill:#FFFFFF; " description="N-terminal_binuclear_Zn_cluster-containing/DNA[br]Location: 62613 - 64529" locus_tag="TRIREDRAFT_69972" id="clusterblast-1_all_31_1_11" points="153,85 158,80 179,80 179,90 158,90 153,85 " class="clusterblast-orf"  />
<polygon style="stroke:black; stroke-width:1; fill:#FFFFFF; " description="Hypothetical_protein[br]Location: 66063 - 67694" locus_tag="TRIREDRAFT_69885" id="clusterblast-1_all_31_1_12" points="110,85 115,80 132,80 132,90 115,90 110,85 " class="clusterblast-orf"  />
<polygon style="stroke:black; stroke-width:1; fill:#FFFFFF; " description="predicted_protein[br]Location: 67820 - 69550" locus_tag="TRIREDRAFT_111981" id="clusterblast-1_all_31_1_13" points="84,90 103,90 108,85 103,80 84,80 84,90 " class="clusterblast-orf"  />
<polygon style="stroke:black; stroke-width:1; fill:#FFFFFF; " description="predicted_protein[br]Location: 70077 - 71345" locus_tag="TRIREDRAFT_5844" id="clusterblast-1_all_31_1_14" points="60,90 72,90 77,85 72,80 60,80 60,90 " class="clusterblast-orf"  />
<polygon style="stroke:black; stroke-width:1; fill:#FFFFFF; " description="predicted_protein[br]Location: 71851 - 72771" locus_tag="TRIREDRAFT_124030" id="clusterblast-1_all_31_1_15" points="40,85 45,80 53,80 53,90 45,90 40,85 " class="clusterblast-orf"  />
<polygon style="stroke:black; stroke-width:1; fill:#FFFFFF; " description="hypothetical_protein[br]Location: 73449 - 74449" locus_tag="TRIREDRAFT_69858" id="clusterblast-1_all_31_1_16" points="17,85 22,80 31,80 31,90 22,90 17,85 " class="clusterblast-orf"  />
</g>
<g class="clusterblast-cluster" description="Trichoderma atroviride IMI 206040 TRIATcontig 24, whole ..." label="ABDG02000024.1_c1"  >
<text class="clusterblast-acc" y="110" x="5"  >
ABDG02000024.1_c1</text>
<text class="clusterblast-desc" y="110" x="460.8"  >
Trichoderma atroviride IMI 206040 TRIATcontig 24, whole ...</text>
<line y1="135" x2="778.0" style="stroke:grey; stroke-width:1; " x1="10" y2="135"  />
<polygon style="stroke:black; stroke-width:1; fill:#FFFFFF; " description="hypothetical_protein[br]Location: 106124 - 107080" locus_tag="TRIATDRAFT_299605" id="clusterblast-1_all_31_2_0" points="17,140 25,140 30,135 25,130 17,130 17,140 " class="clusterblast-orf"  />
<polygon style="stroke:black; stroke-width:1; fill:#FFFFFF; " description="Pap2-like_protein[br]Location: 107359 - 108443" locus_tag="TRIATDRAFT_88402" id="clusterblast-1_all_31_2_1" points="33,135 38,130 48,130 48,140 38,140 33,135 " class="clusterblast-orf"  />
<polygon style="stroke:black; stroke-width:1; fill:#FFFFFF; " description="hypothetical_protein[br]Location: 108958 - 109861" locus_tag="TRIATDRAFT_88401" id="clusterblast-1_all_31_2_2" points="55,135 60,130 68,130 68,140 60,140 55,135 " class="clusterblast-orf"  />
<polygon style="stroke:black; stroke-width:1; fill:#FFFFFF; " description="hypothetical_protein[br]Location: 110420 - 111685" locus_tag="TRIATDRAFT_299606" id="clusterblast-1_all_31_2_3" points="75,140 88,140 93,135 88,130 75,130 75,140 " class="clusterblast-orf"  />
<polygon style="stroke:black; stroke-width:1; fill:#FFFFFF; " description="hypothetical_protein[br]Location: 112064 - 113776" locus_tag="TRIATDRAFT_220363" id="clusterblast-1_all_31_2_4" points="98,140 116,140 121,135 116,130 98,130 98,140 " class="clusterblast-orf"  />
<polygon style="stroke:black; stroke-width:1; fill:#FFFFFF; " description="hypothetical_protein[br]Location: 113831 - 115469" locus_tag="TRIATDRAFT_283759" id="clusterblast-1_all_31_2_5" points="122,135 127,130 145,130 145,140 127,140 122,135 " class="clusterblast-orf"  />
<polygon style="stroke:black; stroke-width:1; fill:#FFFFFF; " description="hypothetical_protein[br]Location: 116513 - 118503" locus_tag="TRIATDRAFT_139614" id="clusterblast-1_all_31_2_6" points="159,135 164,130 186,130 186,140 164,140 159,135 " class="clusterblast-orf"  />
<polygon style="stroke:black; stroke-width:1; fill:red; " description="hypothetical_protein[br]Location: 121400 - 122970&lt;br&gt;&lt;br&gt;&lt;b&gt;BlastP hit with CHAFR746836_0014170.1&lt;/b&gt;&lt;br&gt;Percentage identity: 45%&lt;br&gt;Percentage coverage: 100%&lt;br&gt;BLAST bit score: 377&lt;br&gt;E-value: 5e-124" locus_tag="TRIATDRAFT_37736" id="clusterblast-1_all_31_2_7" points="226,135 231,130 247,130 247,140 231,140 226,135 " class="clusterblast-orf"  />
<polygon style="stroke:black; stroke-width:1; fill:green; " description="non-ribosomal_peptide_synthetase[br]Location: 125645 - 140356&lt;br&gt;&lt;br&gt;&lt;b&gt;BlastP hit with CHAFR746836_0014180.1&lt;/b&gt;&lt;br&gt;Percentage identity: 38%&lt;br&gt;Percentage coverage: 102%&lt;br&gt;BLAST bit score: 3061&lt;br&gt;E-value: 0.0" locus_tag="TRIATDRAFT_318290" id="clusterblast-1_all_31_2_8" points="284,140 481,140 486,135 481,130 284,130 284,140 " class="clusterblast-orf"  />
<polygon style="stroke:black; stroke-width:1; fill:#FFFFFF; " description="hypothetical_protein[br]Location: 140896 - 142527" locus_tag="TRIATDRAFT_242375" id="clusterblast-1_all_31_2_9" points="493,135 498,130 515,130 515,140 498,140 493,135 " class="clusterblast-orf"  />
<polygon style="stroke:black; stroke-width:1; fill:#FFFFFF; " description="hypothetical_protein[br]Location: 144406 - 146267" locus_tag="TRIATDRAFT_131933" id="clusterblast-1_all_31_2_10" points="541,140 562,140 567,135 562,130 541,130 541,140 " class="clusterblast-orf"  />
<polygon style="stroke:black; stroke-width:1; fill:#FFFFFF; " description="hypothetical_protein[br]Location: 147842 - 150115" locus_tag="TRIATDRAFT_38612" id="clusterblast-1_all_31_2_11" points="588,140 614,140 619,135 614,130 588,130 588,140 " class="clusterblast-orf"  />
<polygon style="stroke:black; stroke-width:1; fill:#FFFFFF; " description="hypothetical_protein[br]Location: 154823 - 156327" locus_tag="TRIATDRAFT_152123" id="clusterblast-1_all_31_2_12" points="684,135 689,130 705,130 705,140 689,140 684,135 " class="clusterblast-orf"  />
<polygon style="stroke:black; stroke-width:1; fill:#FFFFFF; " description="hypothetical_protein[br]Location: 157257 - 158402" locus_tag="TRIATDRAFT_38182" id="clusterblast-1_all_31_2_13" points="717,135 722,130 733,130 733,140 722,140 717,135 " class="clusterblast-orf"  />
<polygon style="stroke:black; stroke-width:1; fill:#FFFFFF; " description="hypothetical_protein[br]Location: 160080 - 161050" locus_tag="TRIATDRAFT_256937" id="clusterblast-1_all_31_2_14" points="756,135 761,130 769,130 769,140 761,140 756,135 " class="clusterblast-orf"  />
</g>
<g class="clusterblast-cluster" description="Trichoderma virens Gv29-8 TRIVIscaffold 1, whole genome ..." label="ABDF02000001.1_c4"  >
<text class="clusterblast-acc" y="160" x="5"  >
ABDF02000001.1_c4</text>
<text class="clusterblast-desc" y="160" x="460.8"  >
Trichoderma virens Gv29-8 TRIVIscaffold 1, whole genome ...</text>
<line y1="185" x2="778.0" style="stroke:grey; stroke-width:1; " x1="10" y2="185"  />
<polygon style="stroke:black; stroke-width:1; fill:#FFFFFF; " description="hypothetical_protein[br]Location: 338219 - 339191" locus_tag="TRIVIDRAFT_165883" id="clusterblast-1_all_31_3_0" points="12,190 20,190 25,185 20,180 12,180 12,190 " class="clusterblast-orf"  />
<polygon style="stroke:black; stroke-width:1; fill:#FFFFFF; " description="hypothetical_protein[br]Location: 339544 - 340684" locus_tag="TRIVIDRAFT_72904" id="clusterblast-1_all_31_3_1" points="30,185 35,180 45,180 45,190 35,190 30,185 " class="clusterblast-orf"  />
<polygon style="stroke:black; stroke-width:1; fill:#FFFFFF; " description="hypothetical_protein[br]Location: 341198 - 342101" locus_tag="TRIVIDRAFT_62634" id="clusterblast-1_all_31_3_2" points="52,185 57,180 65,180 65,190 57,190 52,185 " class="clusterblast-orf"  />
<polygon style="stroke:black; stroke-width:1; fill:#FFFFFF; " description="hypothetical_protein[br]Location: 342553 - 343845" locus_tag="TRIVIDRAFT_79439" id="clusterblast-1_all_31_3_3" points="71,190 84,190 89,185 84,180 71,180 71,190 " class="clusterblast-orf"  />
<polygon style="stroke:black; stroke-width:1; fill:#FFFFFF; " description="hypothetical_protein[br]Location: 344326 - 346017" locus_tag="TRIVIDRAFT_34968" id="clusterblast-1_all_31_3_4" points="95,190 113,190 118,185 113,180 95,180 95,190 " class="clusterblast-orf"  />
<polygon style="stroke:black; stroke-width:1; fill:#FFFFFF; " description="hypothetical_protein[br]Location: 346122 - 347736" locus_tag="TRIVIDRAFT_79440" id="clusterblast-1_all_31_3_5" points="120,185 125,180 142,180 142,190 125,190 120,185 " class="clusterblast-orf"  />
<polygon style="stroke:black; stroke-width:1; fill:#FFFFFF; " description="hypothetical_protein[br]Location: 348434 - 350695" locus_tag="TRIVIDRAFT_72912" id="clusterblast-1_all_31_3_6" points="152,185 157,180 182,180 182,190 157,190 152,185 " class="clusterblast-orf"  />
<polygon style="stroke:black; stroke-width:1; fill:red; " description="hypothetical_protein[br]Location: 353593 - 355146&lt;br&gt;&lt;br&gt;&lt;b&gt;BlastP hit with CHAFR746836_0014170.1&lt;/b&gt;&lt;br&gt;Percentage identity: 45%&lt;br&gt;Percentage coverage: 101%&lt;br&gt;BLAST bit score: 380&lt;br&gt;E-value: 3e-125" locus_tag="TRIVIDRAFT_33825" id="clusterblast-1_all_31_3_7" points="222,185 227,180 243,180 243,190 227,190 222,185 " class="clusterblast-orf"  />
<polygon style="stroke:black; stroke-width:1; fill:green; " description="putative_non-ribosomal_peptide_synthetase[br]Location: 357960 - 372711&lt;br&gt;&lt;br&gt;&lt;b&gt;BlastP hit with CHAFR746836_0014180.1&lt;/b&gt;&lt;br&gt;Percentage identity: 38%&lt;br&gt;Percentage coverage: 100%&lt;br&gt;BLAST bit score: 3053&lt;br&gt;E-value: 0.0" locus_tag="TRIVIDRAFT_85582" id="clusterblast-1_all_31_3_8" points="282,190 479,190 484,185 479,180 282,180 282,190 " class="clusterblast-orf"  />
<polygon style="stroke:black; stroke-width:1; fill:#FFFFFF; " description="hypothetical_protein[br]Location: 373092 - 374723" locus_tag="TRIVIDRAFT_85586" id="clusterblast-1_all_31_3_9" points="489,185 494,180 512,180 512,190 494,190 489,185 " class="clusterblast-orf"  />
<polygon style="stroke:black; stroke-width:1; fill:#FFFFFF; " description="hypothetical_protein[br]Location: 376878 - 378404" locus_tag="TRIVIDRAFT_165903" id="clusterblast-1_all_31_3_10" points="541,190 557,190 562,185 557,180 541,180 541,190 " class="clusterblast-orf"  />
<polygon style="stroke:black; stroke-width:1; fill:#FFFFFF; " description="hypothetical_protein[br]Location: 379817 - 381097" locus_tag="TRIVIDRAFT_34188" id="clusterblast-1_all_31_3_11" points="582,185 587,180 599,180 599,190 587,190 582,185 " class="clusterblast-orf"  />
<polygon style="stroke:black; stroke-width:1; fill:#FFFFFF; " description="hypothetical_protein[br]Location: 383409 - 385697" locus_tag="TRIVIDRAFT_34853" id="clusterblast-1_all_31_3_12" points="631,190 657,190 662,185 657,180 631,180 631,190 " class="clusterblast-orf"  />
<polygon style="stroke:black; stroke-width:1; fill:#FFFFFF; " description="hypothetical_protein[br]Location: 386262 - 388125" locus_tag="TRIVIDRAFT_187840" id="clusterblast-1_all_31_3_13" points="670,185 675,180 695,180 695,190 675,190 670,185 " class="clusterblast-orf"  />
<polygon style="stroke:black; stroke-width:1; fill:#FFFFFF; " description="hypothetical_protein[br]Location: 388877 - 390034" locus_tag="TRIVIDRAFT_34032" id="clusterblast-1_all_31_3_14" points="706,185 711,180 722,180 722,190 711,190 706,185 " class="clusterblast-orf"  />
<polygon style="stroke:black; stroke-width:1; fill:#FFFFFF; " description="hypothetical_protein[br]Location: 392184 - 393857" locus_tag="TRIVIDRAFT_62647" id="clusterblast-1_all_31_3_15" points="751,185 756,180 774,180 774,190 756,190 751,185 " class="clusterblast-orf"  />
</g>
<g class="clusterblast-cluster" description="Neurospora tetrasperma FGSC 2508 unplaced genomic scaffold N..." label="GL891307.1_c1"  >
<text class="clusterblast-acc" y="210" x="5"  >
GL891307.1_c1</text>
<text class="clusterblast-desc" y="210" x="460.8"  >
Neurospora tetrasperma FGSC 2508 unplaced genomic scaffold N...</text>
<line y1="235" x2="778.0" style="stroke:grey; stroke-width:1; " x1="10" y2="235"  />
<polygon style="stroke:black; stroke-width:1; fill:#FFFFFF; " description="hypothetical_protein[br]Location: 57946 - 58689" locus_tag="NEUTE1DRAFT_103425" id="clusterblast-1_all_31_4_0" points="760,240 765,240 770,235 765,230 760,230 760,240 " class="clusterblast-orf"  />
<polygon style="stroke:black; stroke-width:1; fill:#FFFFFF; " description="hypothetical_protein[br]Location: 60052 - 62970" locus_tag="NEUTE1DRAFT_68191" id="clusterblast-1_all_31_4_1" points="702,235 707,230 742,230 742,240 707,240 702,235 " class="clusterblast-orf"  />
<polygon style="stroke:black; stroke-width:1; fill:#FFFFFF; " description="hypothetical_protein[br]Location: 63162 - 65512" locus_tag="NEUTE1DRAFT_48354" id="clusterblast-1_all_31_4_2" points="667,240 694,240 699,235 694,230 667,230 667,240 " class="clusterblast-orf"  />
<polygon style="stroke:black; stroke-width:1; fill:#FFFFFF; " description="hypothetical_protein[br]Location: 67611 - 69769" locus_tag="NEUTE1DRAFT_86874" id="clusterblast-1_all_31_4_3" points="609,240 633,240 638,235 633,230 609,230 609,240 " class="clusterblast-orf"  />
<polygon style="stroke:black; stroke-width:1; fill:#FFFFFF; " description="hypothetical_protein[br]Location: 70481 - 71609" locus_tag="NEUTE1DRAFT_48564" id="clusterblast-1_all_31_4_4" points="583,235 588,230 599,230 599,240 588,240 583,235 " class="clusterblast-orf"  />
<polygon style="stroke:black; stroke-width:1; fill:#FFFFFF; " description="hypothetical_protein[br]Location: 72654 - 74911" locus_tag="NEUTE1DRAFT_148405" id="clusterblast-1_all_31_4_5" points="538,240 564,240 569,235 564,230 538,230 538,240 " class="clusterblast-orf"  />
<polygon style="stroke:black; stroke-width:1; fill:green; " description="hypothetical_protein[br]Location: 77808 - 93416&lt;br&gt;&lt;br&gt;&lt;b&gt;BlastP hit with CHAFR746836_0014180.1&lt;/b&gt;&lt;br&gt;Percentage identity: 38%&lt;br&gt;Percentage coverage: 101%&lt;br&gt;BLAST bit score: 3021&lt;br&gt;E-value: 0.0" locus_tag="NEUTE1DRAFT_148407" id="clusterblast-1_all_31_4_6" points="285,240 493,240 498,235 493,230 285,230 285,240 " class="clusterblast-orf"  />
<polygon style="stroke:black; stroke-width:1; fill:red; " description="hypothetical_protein[br]Location: 98118 - 99845&lt;br&gt;&lt;br&gt;&lt;b&gt;BlastP hit with CHAFR746836_0014170.1&lt;/b&gt;&lt;br&gt;Percentage identity: 44%&lt;br&gt;Percentage coverage: 103%&lt;br&gt;BLAST bit score: 382&lt;br&gt;E-value: 2e-125" locus_tag="NEUTE1DRAFT_118011" id="clusterblast-1_all_31_4_7" points="196,235 201,230 220,230 220,240 201,240 196,235 " class="clusterblast-orf"  />
<polygon style="stroke:black; stroke-width:1; fill:#FFFFFF; " description="hypothetical_protein[br]Location: 102486 - 108870" locus_tag="NEUTE1DRAFT_86887" id="clusterblast-1_all_31_4_8" points="73,240 155,240 160,235 155,230 73,230 73,240 " class="clusterblast-orf"  />
<polygon style="stroke:black; stroke-width:1; fill:#FFFFFF; " description="hypothetical_protein[br]Location: 109450 - 111252" locus_tag="NEUTE1DRAFT_124327" id="clusterblast-1_all_31_4_9" points="40,240 60,240 65,235 60,230 40,230 40,240 " class="clusterblast-orf"  />
<polygon style="stroke:black; stroke-width:1; fill:#FFFFFF; " description="hypothetical_protein[br]Location: 112179 - 113882" locus_tag="NEUTE1DRAFT_124328" id="clusterblast-1_all_31_4_10" points="4,235 9,230 27,230 27,240 9,240 4,235 " class="clusterblast-orf"  />
</g>
<g class="clusterblast-cluster" description="Metarhizium acridum CQMa 102 unplaced genomic scaffold Scf 0..." label="GL698560.1_c1"  >
<text class="clusterblast-acc" y="260" x="5"  >
GL698560.1_c1</text>
<text class="clusterblast-desc" y="260" x="460.8"  >
Metarhizium acridum CQMa 102 unplaced genomic scaffold Scf 0...</text>
<line y1="285" x2="778.0" style="stroke:grey; stroke-width:1; " x1="10" y2="285"  />
<polygon style="stroke:black; stroke-width:1; fill:#FFFFFF; " description="hypothetical_protein[br]Location: 17260 - 18709" locus_tag="MAC_07972" id="clusterblast-1_all_31_5_0" points="729,285 734,280 748,280 748,290 734,290 729,285 " class="clusterblast-orf"  />
<polygon style="stroke:black; stroke-width:1; fill:#FFFFFF; " description="hypothetical_protein[br]Location: 20155 - 22091" locus_tag="MAC_07973" id="clusterblast-1_all_31_5_1" points="683,285 688,280 710,280 710,290 688,290 683,285 " class="clusterblast-orf"  />
<polygon style="stroke:black; stroke-width:1; fill:#FFFFFF; " description="hypothetical_protein[br]Location: 25076 - 26605" locus_tag="MAC_07974" id="clusterblast-1_all_31_5_2" points="621,290 637,290 642,285 637,280 621,280 621,290 " class="clusterblast-orf"  />
<polygon style="stroke:black; stroke-width:1; fill:#FFFFFF; " description="choline_oxidase_(CodA)[br]Location: 29254 - 30888" locus_tag="MAC_07975" id="clusterblast-1_all_31_5_3" points="563,285 568,280 585,280 585,290 568,290 563,285 " class="clusterblast-orf"  />
<polygon style="stroke:black; stroke-width:1; fill:#FFFFFF; " description="DUF1479_domain_protein[br]Location: 32331 - 33757" locus_tag="MAC_07976" id="clusterblast-1_all_31_5_4" points="523,285 528,280 543,280 543,290 528,290 523,285 " class="clusterblast-orf"  />
<polygon style="stroke:black; stroke-width:1; fill:green; " description="peptide_synthetase[br]Location: 33981 - 48616&lt;br&gt;&lt;br&gt;&lt;b&gt;BlastP hit with CHAFR746836_0014180.1&lt;/b&gt;&lt;br&gt;Percentage identity: 36%&lt;br&gt;Percentage coverage: 102%&lt;br&gt;BLAST bit score: 2994&lt;br&gt;E-value: 0.0" locus_tag="MAC_07977" id="clusterblast-1_all_31_5_5" points="320,290 515,290 520,285 515,280 320,280 320,290 " class="clusterblast-orf"  />
<polygon style="stroke:black; stroke-width:1; fill:red; " description="L-ornithine_5-monooxygenase_(L-ornithine[br]Location: 53086 - 55029&lt;br&gt;&lt;br&gt;&lt;b&gt;BlastP hit with CHAFR746836_0014170.1&lt;/b&gt;&lt;br&gt;Percentage identity: 46%&lt;br&gt;Percentage coverage: 102%&lt;br&gt;BLAST bit score: 389&lt;br&gt;E-value: 3e-127" locus_tag="MAC_07978" id="clusterblast-1_all_31_5_6" points="232,285 237,280 258,280 258,290 237,290 232,285 " class="clusterblast-orf"  />
<polygon style="stroke:black; stroke-width:1; fill:#FFFFFF; " description="C6_transcription_factor[br]Location: 59176 - 61627" locus_tag="MAC_07979" id="clusterblast-1_all_31_5_7" points="141,285 146,280 175,280 175,290 146,290 141,285 " class="clusterblast-orf"  />
<polygon style="stroke:black; stroke-width:1; fill:#FFFFFF; " description="hypothetical_protein[br]Location: 61919 - 63677" locus_tag="MAC_07980" id="clusterblast-1_all_31_5_8" points="113,285 118,280 137,280 137,290 118,290 113,285 " class="clusterblast-orf"  />
<polygon style="stroke:black; stroke-width:1; fill:#FFFFFF; " description="FF_domain_protein[br]Location: 63969 - 65705" locus_tag="MAC_07981" id="clusterblast-1_all_31_5_9" points="85,290 104,290 109,285 104,280 85,280 85,290 " class="clusterblast-orf"  />
<polygon style="stroke:black; stroke-width:1; fill:#FFFFFF; " description="PAP2_domain_protein[br]Location: 66274 - 67386" locus_tag="MAC_07982" id="clusterblast-1_all_31_5_10" points="62,285 67,280 78,280 78,290 67,290 62,285 " class="clusterblast-orf"  />
<polygon style="stroke:black; stroke-width:1; fill:#FFFFFF; " description="proteasome_component_Y13[br]Location: 67673 - 68614" locus_tag="MAC_07983" id="clusterblast-1_all_31_5_11" points="46,290 53,290 58,285 53,280 46,280 46,290 " class="clusterblast-orf"  />
</g>
<g class="clusterblast-cluster" description="Metarhizium anisopliae ARSEF 23 unplaced genomic scaffold Sc..." label="GL698712.1_c4"  >
<text class="clusterblast-acc" y="310" x="5"  >
GL698712.1_c4</text>
<text class="clusterblast-desc" y="310" x="460.8"  >
Metarhizium anisopliae ARSEF 23 unplaced genomic scaffold Sc...</text>
<line y1="335" x2="778.0" style="stroke:grey; stroke-width:1; " x1="10" y2="335"  />
<polygon style="stroke:black; stroke-width:1; fill:#FFFFFF; " description="ATP-binding_cassette_transporter_ABC1[br]Location: 1048689 - 1053403" locus_tag="MAA_01883" id="clusterblast-1_all_31_6_0" points="760,335 765,330 824,330 824,340 765,340 760,335 " class="clusterblast-orf"  />
<polygon style="stroke:black; stroke-width:1; fill:#FFFFFF; " description="hypothetical_protein[br]Location: 1057191 - 1058582" locus_tag="MAA_01884" id="clusterblast-1_all_31_6_1" points="690,335 695,330 709,330 709,340 695,340 690,335 " class="clusterblast-orf"  />
<polygon style="stroke:black; stroke-width:1; fill:#FFFFFF; " description="hypothetical_protein[br]Location: 1060399 - 1062335" locus_tag="MAA_01885" id="clusterblast-1_all_31_6_2" points="638,335 643,330 665,330 665,340 643,340 638,335 " class="clusterblast-orf"  />
<polygon style="stroke:black; stroke-width:1; fill:#FFFFFF; " description="glyoxalase/bleomycin_resistance[br]Location: 1062981 - 1063379" locus_tag="MAA_01886" id="clusterblast-1_all_31_6_3" points="624,335 629,330 629,330 629,340 629,340 624,335 " class="clusterblast-orf"  />
<polygon style="stroke:black; stroke-width:1; fill:#FFFFFF; " description="betaine_aldehyde_dehydrogenase[br]Location: 1063846 - 1065375" locus_tag="MAA_01887" id="clusterblast-1_all_31_6_4" points="596,340 612,340 617,335 612,330 596,330 596,340 " class="clusterblast-orf"  />
<polygon style="stroke:black; stroke-width:1; fill:#FFFFFF; " description="choline_oxidase_(CodA)[br]Location: 1068612 - 1070246" locus_tag="MAA_01888" id="clusterblast-1_all_31_6_5" points="530,335 535,330 552,330 552,340 535,340 530,335 " class="clusterblast-orf"  />
<polygon style="stroke:black; stroke-width:1; fill:#FFFFFF; " description="DUF1479_domain-containing_protein[br]Location: 1071342 - 1073069" locus_tag="MAA_01889" id="clusterblast-1_all_31_6_6" points="491,335 496,330 515,330 515,340 496,340 491,335 " class="clusterblast-orf"  />
<polygon style="stroke:black; stroke-width:1; fill:green; " description="peptide_synthetase[br]Location: 1073222 - 1087875&lt;br&gt;&lt;br&gt;&lt;b&gt;BlastP hit with CHAFR746836_0014180.1&lt;/b&gt;&lt;br&gt;Percentage identity: 37%&lt;br&gt;Percentage coverage: 101%&lt;br&gt;BLAST bit score: 2988&lt;br&gt;E-value: 0.0" locus_tag="MAA_01890" id="clusterblast-1_all_31_6_7" points="288,340 484,340 489,335 484,330 288,330 288,340 " class="clusterblast-orf"  />
<polygon style="stroke:black; stroke-width:1; fill:red; " description="L-ornithine_5-monooxygenase_(L-ornithine[br]Location: 1092513 - 1094450&lt;br&gt;&lt;br&gt;&lt;b&gt;BlastP hit with CHAFR746836_0014170.1&lt;/b&gt;&lt;br&gt;Percentage identity: 46%&lt;br&gt;Percentage coverage: 102%&lt;br&gt;BLAST bit score: 389&lt;br&gt;E-value: 3e-127" locus_tag="MAA_01891" id="clusterblast-1_all_31_6_8" points="198,335 203,330 224,330 224,340 203,340 198,335 " class="clusterblast-orf"  />
<polygon style="stroke:black; stroke-width:1; fill:#FFFFFF; " description="C6_transcription_factor,_putative[br]Location: 1098470 - 1100902" locus_tag="MAA_01892" id="clusterblast-1_all_31_6_9" points="109,335 114,330 143,330 143,340 114,340 109,335 " class="clusterblast-orf"  />
<polygon style="stroke:black; stroke-width:1; fill:#FFFFFF; " description="hypothetical_protein[br]Location: 1101203 - 1102962" locus_tag="MAA_01893" id="clusterblast-1_all_31_6_10" points="81,335 86,330 105,330 105,340 86,340 81,335 " class="clusterblast-orf"  />
<polygon style="stroke:black; stroke-width:1; fill:#FFFFFF; " description="FF_domain_protein[br]Location: 1103250 - 1104986" locus_tag="MAA_01894" id="clusterblast-1_all_31_6_11" points="54,340 72,340 77,335 72,330 54,330 54,340 " class="clusterblast-orf"  />
<polygon style="stroke:black; stroke-width:1; fill:#FFFFFF; " description="proteasome_component_Y13[br]Location: 1106932 - 1107874" locus_tag="MAA_01895" id="clusterblast-1_all_31_6_12" points="14,340 22,340 27,335 22,330 14,330 14,340 " class="clusterblast-orf"  />
</g>
<g class="clusterblast-cluster" description="Exophiala dermatitidis NIH/UT8656 unplaced genomic scaffold ..." label="JH226135.1_c3"  >
<text class="clusterblast-acc" y="360" x="5"  >
JH226135.1_c3</text>
<text class="clusterblast-desc" y="360" x="460.8"  >
Exophiala dermatitidis NIH/UT8656 unplaced genomic scaffold ...</text>
<line y1="385" x2="778.0" style="stroke:grey; stroke-width:1; " x1="10" y2="385"  />
<polygon style="stroke:black; stroke-width:1; fill:#FFFFFF; " description="NuA3_HAT_complex_component_NTO1[br]Location: 2220046 - 2223489" locus_tag="HMPREF1120_07629" id="clusterblast-1_all_31_7_0" points="10,385 15,380 57,380 57,390 15,390 10,385 " class="clusterblast-orf"  />
<polygon style="stroke:black; stroke-width:1; fill:#FFFFFF; " description="hypothetical_protein[br]Location: 2224119 - 2224656" locus_tag="HMPREF1120_07630" id="clusterblast-1_all_31_7_1" points="65,390 68,390 73,385 68,380 65,380 65,390 " class="clusterblast-orf"  />
<polygon style="stroke:black; stroke-width:1; fill:#FFFFFF; " description="40S_ribosomal_protein_S13[br]Location: 2225429 - 2226234" locus_tag="HMPREF1120_07631" id="clusterblast-1_all_31_7_2" points="83,385 88,380 94,380 94,390 88,390 83,385 " class="clusterblast-orf"  />
<polygon style="stroke:black; stroke-width:1; fill:#FFFFFF; " description="hypothetical_protein[br]Location: 2227154 - 2227799" locus_tag="HMPREF1120_07632" id="clusterblast-1_all_31_7_3" points="107,385 112,380 116,380 116,390 112,390 107,385 " class="clusterblast-orf"  />
<polygon style="stroke:black; stroke-width:1; fill:#FFFFFF; " description="hypothetical_protein[br]Location: 2230515 - 2231559" locus_tag="HMPREF1120_07633" id="clusterblast-1_all_31_7_4" points="153,390 162,390 167,385 162,380 153,380 153,390 " class="clusterblast-orf"  />
<polygon style="stroke:black; stroke-width:1; fill:#FFFFFF; " description="adenosinetriphosphatase[br]Location: 2233156 - 2237890" locus_tag="HMPREF1120_07634" id="clusterblast-1_all_31_7_5" points="189,385 194,380 254,380 254,390 194,390 189,385 " class="clusterblast-orf"  />
<polygon style="stroke:black; stroke-width:1; fill:red; " description="L-ornithine_N5-oxygenase[br]Location: 2238665 - 2240161&lt;br&gt;&lt;br&gt;&lt;b&gt;BlastP hit with CHAFR746836_0014170.1&lt;/b&gt;&lt;br&gt;Percentage identity: 44%&lt;br&gt;Percentage coverage: 104%&lt;br&gt;BLAST bit score: 370&lt;br&gt;E-value: 2e-121" locus_tag="HMPREF1120_07635" id="clusterblast-1_all_31_7_6" points="265,385 270,380 285,380 285,390 270,390 265,385 " class="clusterblast-orf"  />
<polygon style="stroke:black; stroke-width:1; fill:green; " description="nonribosomal_siderophore_peptide_synthase_SidC[br]Location: 2241402 - 2256005&lt;br&gt;&lt;br&gt;&lt;b&gt;BlastP hit with CHAFR746836_0014180.1&lt;/b&gt;&lt;br&gt;Percentage identity: 36%&lt;br&gt;Percentage coverage: 101%&lt;br&gt;BLAST bit score: 2927&lt;br&gt;E-value: 0.0" locus_tag="HMPREF1120_07636" id="clusterblast-1_all_31_7_7" points="302,390 497,390 502,385 497,380 302,380 302,390 " class="clusterblast-orf"  />
<polygon style="stroke:black; stroke-width:1; fill:#FFFFFF; " description="hypothetical_protein[br]Location: 2257941 - 2259895" locus_tag="HMPREF1120_07637" id="clusterblast-1_all_31_7_8" points="529,390 551,390 556,385 551,380 529,380 529,390 " class="clusterblast-orf"  />
<polygon style="stroke:black; stroke-width:1; fill:#FFFFFF; " description="MFS_transporter,_ACS_family,_allantoate[br]Location: 2261267 - 2263365" locus_tag="HMPREF1120_07638" id="clusterblast-1_all_31_7_9" points="574,385 579,380 603,380 603,390 579,390 574,385 " class="clusterblast-orf"  />
<polygon style="stroke:black; stroke-width:1; fill:#FFFFFF; " description="hypothetical_protein[br]Location: 2265004 - 2267894" locus_tag="HMPREF1120_07639" id="clusterblast-1_all_31_7_10" points="626,385 631,380 665,380 665,390 631,390 626,385 " class="clusterblast-orf"  />
<polygon style="stroke:black; stroke-width:1; fill:#FFFFFF; " description="hypothetical_protein[br]Location: 2268133 - 2268885" locus_tag="HMPREF1120_07640" id="clusterblast-1_all_31_7_11" points="669,385 674,380 679,380 679,390 674,390 669,385 " class="clusterblast-orf"  />
<polygon style="stroke:black; stroke-width:1; fill:#FFFFFF; " description="hypothetical_protein[br]Location: 2274711 - 2276081" locus_tag="HMPREF1120_07641" id="clusterblast-1_all_31_7_12" points="759,390 773,390 778,385 773,380 759,380 759,390 " class="clusterblast-orf"  />
</g>
<g class="clusterblast-cluster" description="Cordyceps militaris CM01 unplaced genomic scaffold CCM S0000..." label="JH126399.1_c6"  >
<text class="clusterblast-acc" y="410" x="5"  >
JH126399.1_c6</text>
<text class="clusterblast-desc" y="410" x="460.8"  >
Cordyceps militaris CM01 unplaced genomic scaffold CCM S0000...</text>
<line y1="435" x2="778.0" style="stroke:grey; stroke-width:1; " x1="10" y2="435"  />
<polygon style="stroke:black; stroke-width:1; fill:#FFFFFF; " description="LysM_domain_protein[br]Location: 5457870 - 5463973" locus_tag="CCM_01698" id="clusterblast-1_all_31_8_0" points="642,435 647,430 725,430 725,440 647,440 642,435 " class="clusterblast-orf"  />
<polygon style="stroke:black; stroke-width:1; fill:#FFFFFF; " description="hypothetical_protein[br]Location: 5465650 - 5466994" locus_tag="CCM_01699" id="clusterblast-1_all_31_8_1" points="601,435 606,430 620,430 620,440 606,440 601,435 " class="clusterblast-orf"  />
<polygon style="stroke:black; stroke-width:1; fill:#FFFFFF; " description="amidase_family_protein[br]Location: 5467965 - 5469862" locus_tag="CCM_01700" id="clusterblast-1_all_31_8_2" points="562,435 567,430 588,430 588,440 567,440 562,435 " class="clusterblast-orf"  />
<polygon style="stroke:black; stroke-width:1; fill:#FFFFFF; " description="hypothetical_protein[br]Location: 5472306 - 5474576" locus_tag="CCM_01701" id="clusterblast-1_all_31_8_3" points="497,435 502,430 528,430 528,440 502,440 497,435 " class="clusterblast-orf"  />
<polygon style="stroke:black; stroke-width:1; fill:#FFFFFF; " description="glyoxalase_family_protein[br]Location: 5475227 - 5475631" locus_tag="CCM_01702" id="clusterblast-1_all_31_8_4" points="483,440 483,440 488,435 483,430 483,430 483,440 " class="clusterblast-orf"  />
<polygon style="stroke:black; stroke-width:1; fill:#FFFFFF; " description="betaine_aldehyde_dehydrogenase[br]Location: 5475843 - 5477372" locus_tag="CCM_01703" id="clusterblast-1_all_31_8_5" points="459,440 475,440 480,435 475,430 459,430 459,440 " class="clusterblast-orf"  />
<polygon style="stroke:black; stroke-width:1; fill:#FFFFFF; " description="choline_oxidase_(CodA),_putative[br]Location: 5479825 - 5481462" locus_tag="CCM_01704" id="clusterblast-1_all_31_8_6" points="403,435 408,430 425,430 425,440 408,440 403,435 " class="clusterblast-orf"  />
<polygon style="stroke:black; stroke-width:1; fill:green; " description="nonribosomal_siderophore_peptide_synthase[br]Location: 5481892 - 5496446&lt;br&gt;&lt;br&gt;&lt;b&gt;BlastP hit with CHAFR746836_0014180.1&lt;/b&gt;&lt;br&gt;Percentage identity: 36%&lt;br&gt;Percentage coverage: 102%&lt;br&gt;BLAST bit score: 2894&lt;br&gt;E-value: 0.0" locus_tag="CCM_01705" id="clusterblast-1_all_31_8_7" points="197,440 392,440 397,435 392,430 197,430 197,440 " class="clusterblast-orf"  />
<polygon style="stroke:black; stroke-width:1; fill:red; " description="L-ornithine_N5-oxygenase_SidA[br]Location: 5500297 - 5503992&lt;br&gt;&lt;br&gt;&lt;b&gt;BlastP hit with CHAFR746836_0014170.1&lt;/b&gt;&lt;br&gt;Percentage identity: 44%&lt;br&gt;Percentage coverage: 104%&lt;br&gt;BLAST bit score: 388&lt;br&gt;E-value: 1e-124" locus_tag="CCM_01706" id="clusterblast-1_all_31_8_8" points="94,435 99,430 145,430 145,440 99,440 94,435 " class="clusterblast-orf"  />
</g>
<g class="clusterblast-cluster" description="Verticillium dahliae VdLs.17 supercont1.10 genomic scaffold,..." label="DS572704.1_c1"  >
<text class="clusterblast-acc" y="460" x="5"  >
DS572704.1_c1</text>
<text class="clusterblast-desc" y="460" x="460.8"  >
Verticillium dahliae VdLs.17 supercont1.10 genomic scaffold,...</text>
<line y1="485" x2="778.0" style="stroke:grey; stroke-width:1; " x1="10" y2="485"  />
<polygon style="stroke:black; stroke-width:1; fill:#FFFFFF; " description="mediator_of_RNA_polymerase_II_transcription[br]Location: 44918 - 45800" locus_tag="VDAG_05307" id="clusterblast-1_all_31_9_0" points="14,490 21,490 26,485 21,480 14,480 14,490 " class="clusterblast-orf"  />
<polygon style="stroke:black; stroke-width:1; fill:#FFFFFF; " description="hypothetical_protein[br]Location: 46974 - 49601" locus_tag="VDAG_05308" id="clusterblast-1_all_31_9_1" points="42,485 47,480 78,480 78,490 47,490 42,485 " class="clusterblast-orf"  />
<polygon style="stroke:black; stroke-width:1; fill:#FFFFFF; " description="proteasome_component_Y13[br]Location: 50397 - 51347" locus_tag="VDAG_05309" id="clusterblast-1_all_31_9_2" points="89,490 97,490 102,485 97,480 89,480 89,490 " class="clusterblast-orf"  />
<polygon style="stroke:black; stroke-width:1; fill:#FFFFFF; " description="diacylglycerol_pyrophosphate_phosphatase[br]Location: 51630 - 52512" locus_tag="VDAG_05310" id="clusterblast-1_all_31_9_3" points="105,485 110,480 118,480 118,490 110,490 105,485 " class="clusterblast-orf"  />
<polygon style="stroke:black; stroke-width:1; fill:#FFFFFF; " description="FF_domain-containing_protein[br]Location: 53480 - 55231" locus_tag="VDAG_05311" id="clusterblast-1_all_31_9_4" points="131,490 150,490 155,485 150,480 131,480 131,490 " class="clusterblast-orf"  />
<polygon style="stroke:black; stroke-width:1; fill:#FFFFFF; " description="translation_initiation_factor_eIF-2B_subunit[br]Location: 56774 - 58353" locus_tag="VDAG_05312" id="clusterblast-1_all_31_9_5" points="176,485 181,480 198,480 198,490 181,490 176,485 " class="clusterblast-orf"  />
<polygon style="stroke:black; stroke-width:1; fill:red; " description="L-ornithine_5-monooxygenase[br]Location: 58869 - 60666&lt;br&gt;&lt;br&gt;&lt;b&gt;BlastP hit with CHAFR746836_0014170.1&lt;/b&gt;&lt;br&gt;Percentage identity: 44%&lt;br&gt;Percentage coverage: 102%&lt;br&gt;BLAST bit score: 362&lt;br&gt;E-value: 1e-117" locus_tag="VDAG_05313" id="clusterblast-1_all_31_9_6" points="205,485 210,480 229,480 229,490 210,490 205,485 " class="clusterblast-orf"  />
<polygon style="stroke:black; stroke-width:1; fill:green; " description="N-(5-amino-5-carboxypentanoyl)-L-cysteinyl-D-[br]Location: 65362 - 80400&lt;br&gt;&lt;br&gt;&lt;b&gt;BlastP hit with CHAFR746836_0014180.1&lt;/b&gt;&lt;br&gt;Percentage identity: 35%&lt;br&gt;Percentage coverage: 104%&lt;br&gt;BLAST bit score: 2880&lt;br&gt;E-value: 0.0" locus_tag="VDAG_05314" id="clusterblast-1_all_31_9_7" points="294,490 495,490 500,485 495,480 294,480 294,490 " class="clusterblast-orf"  />
<polygon style="stroke:black; stroke-width:1; fill:#FFFFFF; " description="hypothetical_protein[br]Location: 81079 - 81734" locus_tag="VDAG_05315" id="clusterblast-1_all_31_9_8" points="509,490 513,490 518,485 513,480 509,480 509,490 " class="clusterblast-orf"  />
<polygon style="stroke:black; stroke-width:1; fill:#FFFFFF; " description="mitochondrial_import_inner_membrane_translocase[br]Location: 82211 - 82791" locus_tag="VDAG_05316" id="clusterblast-1_all_31_9_9" points="525,490 528,490 533,485 528,480 525,480 525,490 " class="clusterblast-orf"  />
<polygon style="stroke:black; stroke-width:1; fill:#FFFFFF; " description="L-asparaginase[br]Location: 83331 - 84725" locus_tag="VDAG_05317" id="clusterblast-1_all_31_9_10" points="540,485 545,480 559,480 559,490 545,490 540,485 " class="clusterblast-orf"  />
<polygon style="stroke:black; stroke-width:1; fill:#FFFFFF; " description="WD_repeat-containing_protein[br]Location: 85077 - 88880" locus_tag="VDAG_05318" id="clusterblast-1_all_31_9_11" points="564,485 569,480 616,480 616,490 569,490 564,485 " class="clusterblast-orf"  />
<polygon style="stroke:black; stroke-width:1; fill:#FFFFFF; " description="hypothetical_protein[br]Location: 90489 - 90977" locus_tag="VDAG_05319" id="clusterblast-1_all_31_9_12" points="638,490 640,490 645,485 640,480 638,480 638,490 " class="clusterblast-orf"  />
<polygon style="stroke:black; stroke-width:1; fill:#FFFFFF; " description="succinate-semialdehyde_dehydrogenase[br]Location: 91050 - 92830" locus_tag="VDAG_05320" id="clusterblast-1_all_31_9_13" points="646,485 651,480 670,480 670,490 651,490 646,485 " class="clusterblast-orf"  />
<polygon style="stroke:black; stroke-width:1; fill:#FFFFFF; " description="hypothetical_protein[br]Location: 93844 - 95682" locus_tag="VDAG_05321" id="clusterblast-1_all_31_9_14" points="684,485 689,480 709,480 709,490 689,490 684,485 " class="clusterblast-orf"  />
<polygon style="stroke:black; stroke-width:1; fill:#FFFFFF; " description="hypothetical_protein[br]Location: 96435 - 97424" locus_tag="VDAG_05322" id="clusterblast-1_all_31_9_15" points="720,490 728,490 733,485 728,480 720,480 720,490 " class="clusterblast-orf"  />
<polygon style="stroke:black; stroke-width:1; fill:#FFFFFF; " description="hypothetical_protein[br]Location: 97500 - 100308" locus_tag="VDAG_05323" id="clusterblast-1_all_31_9_16" points="734,485 739,480 773,480 773,490 739,490 734,485 " class="clusterblast-orf"  />
</g>
<g class="clusterblast-cluster" description="Trichophyton tonsurans CBS 112818 genomic scaffold supercon..." label="GG698484.1_c1"  >
<text class="clusterblast-acc" y="510" x="5"  >
GG698484.1_c1</text>
<text class="clusterblast-desc" y="510" x="460.8"  >
Trichophyton tonsurans CBS 112818 genomic scaffold supercon...</text>
<line y1="535" x2="778.0" style="stroke:grey; stroke-width:1; " x1="10" y2="535"  />
<polygon style="stroke:black; stroke-width:1; fill:#FFFFFF; " description="hypothetical_protein[br]Location: 257237 - 258826" locus_tag="TESG_02207" id="clusterblast-1_all_31_10_0" points="724,540 740,540 745,535 740,530 724,530 724,540 " class="clusterblast-orf"  />
<polygon style="stroke:black; stroke-width:1; fill:#FFFFFF; " description="hypothetical_protein[br]Location: 259140 - 260090" locus_tag="TESG_02208" id="clusterblast-1_all_31_10_1" points="707,540 715,540 720,535 715,530 707,530 707,540 " class="clusterblast-orf"  />
<polygon style="stroke:black; stroke-width:1; fill:#FFFFFF; " description="AUR_protein_kinase[br]Location: 260526 - 261763" locus_tag="TESG_02209" id="clusterblast-1_all_31_10_2" points="684,535 689,530 701,530 701,540 689,540 684,535 " class="clusterblast-orf"  />
<polygon style="stroke:black; stroke-width:1; fill:#FFFFFF; " description="mitochondrial_inner_membrane_protease_atp23[br]Location: 261887 - 262734" locus_tag="TESG_02210" id="clusterblast-1_all_31_10_3" points="671,540 678,540 683,535 678,530 671,530 671,540 " class="clusterblast-orf"  />
<polygon style="stroke:black; stroke-width:1; fill:#FFFFFF; " description="cystathionine_beta-synthase[br]Location: 263376 - 265178" locus_tag="TESG_02211" id="clusterblast-1_all_31_10_4" points="637,535 642,530 662,530 662,540 642,540 637,535 " class="clusterblast-orf"  />
<polygon style="stroke:black; stroke-width:1; fill:#FFFFFF; " description="hypothetical_protein[br]Location: 265735 - 267012" locus_tag="TESG_02212" id="clusterblast-1_all_31_10_5" points="612,540 625,540 630,535 625,530 612,530 612,540 " class="clusterblast-orf"  />
<polygon style="stroke:black; stroke-width:1; fill:#FFFFFF; " description="hypothetical_protein[br]Location: 267238 - 268399" locus_tag="TESG_02213" id="clusterblast-1_all_31_10_6" points="593,535 598,530 609,530 609,540 598,540 593,535 " class="clusterblast-orf"  />
<polygon style="stroke:black; stroke-width:1; fill:#FFFFFF; " description="glutamate_5-kinase[br]Location: 268986 - 270575" locus_tag="TESG_02214" id="clusterblast-1_all_31_10_7" points="563,540 580,540 585,535 580,530 563,530 563,540 " class="clusterblast-orf"  />
<polygon style="stroke:black; stroke-width:1; fill:#FFFFFF; " description="WEE_protein_kinase[br]Location: 272365 - 275714" locus_tag="TESG_08340" id="clusterblast-1_all_31_10_8" points="493,540 534,540 539,535 534,530 493,530 493,540 " class="clusterblast-orf"  />
<polygon style="stroke:black; stroke-width:1; fill:green; " description="hypothetical_protein[br]Location: 277001 - 292803&lt;br&gt;&lt;br&gt;&lt;b&gt;BlastP hit with CHAFR746836_0014180.1&lt;/b&gt;&lt;br&gt;Percentage identity: 39%&lt;br&gt;Percentage coverage: 82%&lt;br&gt;BLAST bit score: 2737&lt;br&gt;E-value: 0.0" locus_tag="TESG_08341" id="clusterblast-1_all_31_10_9" points="259,540 470,540 475,535 470,530 259,530 259,540 " class="clusterblast-orf"  />
<polygon style="stroke:black; stroke-width:1; fill:red; " description="L-ornithine_5-monooxygenase[br]Location: 294581 - 296170&lt;br&gt;&lt;br&gt;&lt;b&gt;BlastP hit with CHAFR746836_0014170.1&lt;/b&gt;&lt;br&gt;Percentage identity: 45%&lt;br&gt;Percentage coverage: 96%&lt;br&gt;BLAST bit score: 402&lt;br&gt;E-value: 2e-133" locus_tag="TESG_02219" id="clusterblast-1_all_31_10_10" points="213,535 218,530 234,530 234,540 218,540 213,535 " class="clusterblast-orf"  />
<polygon style="stroke:black; stroke-width:1; fill:#FFFFFF; " description="hypothetical_protein[br]Location: 296689 - 297157" locus_tag="TESG_02220" id="clusterblast-1_all_31_10_11" points="199,535 204,530 206,530 206,540 204,540 199,535 " class="clusterblast-orf"  />
<polygon style="stroke:black; stroke-width:1; fill:#FFFFFF; " description="palmitoyltransferase[br]Location: 297392 - 299792" locus_tag="TESG_02221" id="clusterblast-1_all_31_10_12" points="163,540 191,540 196,535 191,530 163,530 163,540 " class="clusterblast-orf"  />
<polygon style="stroke:black; stroke-width:1; fill:#FFFFFF; " description="mRNA_splicing_factor_RNA_helicase_(Cdc28)[br]Location: 300735 - 301784" locus_tag="TESG_02222" id="clusterblast-1_all_31_10_13" points="136,535 141,530 150,530 150,540 141,540 136,535 " class="clusterblast-orf"  />
<polygon style="stroke:black; stroke-width:1; fill:#FFFFFF; " description="mRNA_splicing_factor_RNA_helicase[br]Location: 302322 - 304121" locus_tag="TESG_02223" id="clusterblast-1_all_31_10_14" points="104,535 109,530 128,530 128,540 109,540 104,535 " class="clusterblast-orf"  />
<polygon style="stroke:black; stroke-width:1; fill:#FFFFFF; " description="cytochrome_b5[br]Location: 304698 - 305019" locus_tag="TESG_02224" id="clusterblast-1_all_31_10_15" points="91,535 96,530 96,530 96,540 96,540 91,535 " class="clusterblast-orf"  />
<polygon style="stroke:black; stroke-width:1; fill:#FFFFFF; " description="hypothetical_protein[br]Location: 305704 - 306297" locus_tag="TESG_02225" id="clusterblast-1_all_31_10_16" points="74,535 79,530 82,530 82,540 79,540 74,535 " class="clusterblast-orf"  />
<polygon style="stroke:black; stroke-width:1; fill:#FFFFFF; " description="hypothetical_protein[br]Location: 307033 - 310904" locus_tag="TESG_02226" id="clusterblast-1_all_31_10_17" points="11,540 59,540 64,535 59,530 11,530 11,540 " class="clusterblast-orf"  />
</g>
</svg>
