<svg xmlns="http://www.w3.org/2000/svg" height="230" width="800" version="1.1" y="0" x="0" preserveAspectRatio="none" xmlns:xlink="http://www.w3.org/1999/xlink" viewBox="0 0 800 230"  >
<g class="clusterblast-cluster" label="Query sequence"  >
<text class="clusterblast-acc" y="10" x="5"  >
Query sequence</text>
<line y1="35" x2="778.0" style="stroke:grey; stroke-width:1; " x1="10" y2="35"  />
<polygon style="stroke:black; stroke-width:1; fill:#FFFFFF; " description="unannotated orf[br]Location: 1502 - 2717" locus_tag="CHAFR746836_0018730.1" class="clusterblast-orf" points="168,40 182,40 187,35 182,30 168,30 168,40 " id="clusterblast-1_q38_1_0"  />
<polygon style="stroke:black; stroke-width:1; fill:#FFFFFF; " description="unannotated orf[br]Location: 5434 - 6658" locus_tag="CHAFR746836_0018740.1" class="clusterblast-orf" points="229,40 244,40 249,35 244,30 229,30 229,40 " id="clusterblast-1_q38_1_1"  />
<polygon style="stroke:black; stroke-width:1; fill:rgb(190,63,63); " description="unannotated orf[br]Location: 8194 - 15527" locus_tag="CHAFR746836_0018750.1" class="clusterblast-orf" points="273,35 278,30 388,30 388,40 278,40 273,35 " id="clusterblast-1_q38_1_2"  />
<polygon style="stroke:black; stroke-width:1; fill:rgb(63,63,190); " description="unannotated orf[br]Location: 16107 - 17386" locus_tag="CHAFR746836_0018760.1" class="clusterblast-orf" points="397,40 412,40 417,35 412,30 397,30 397,40 " id="clusterblast-1_q38_1_3"  />
<polygon style="stroke:black; stroke-width:1; fill:rgb(63,190,63); " description="unannotated orf[br]Location: 18113 - 19107" locus_tag="CHAFR746836_0018770.1" class="clusterblast-orf" points="429,40 439,40 444,35 439,30 429,30 429,40 " id="clusterblast-1_q38_1_4"  />
<polygon style="stroke:black; stroke-width:1; fill:#FFFFFF; " description="unannotated orf[br]Location: 21941 - 23810" locus_tag="CHAFR746836_0018780.1" class="clusterblast-orf" points="489,40 513,40 518,35 513,30 489,30 489,40 " id="clusterblast-1_q38_1_5"  />
<polygon style="stroke:black; stroke-width:1; fill:rgb(190,63,190); " description="unannotated orf[br]Location: 25428 - 26120" locus_tag="CHAFR746836_0018790.1" class="clusterblast-orf" points="544,40 550,40 555,35 550,30 544,30 544,40 " id="clusterblast-1_q38_1_6"  />
<polygon style="stroke:black; stroke-width:1; fill:rgb(190,190,63); " description="unannotated orf[br]Location: 28320 - 30189" locus_tag="CHAFR746836_0018800.1" class="clusterblast-orf" points="589,35 594,30 619,30 619,40 594,40 589,35 " id="clusterblast-1_q38_1_7"  />
</g>
<g class="clusterblast-cluster" description="Aspergillus kawachii IFO 4308 DNA, contig: scaffold00006, wh..." label="DF126452.1_c3"  >
<text class="clusterblast-acc" y="60" x="5"  >
DF126452.1_c3</text>
<text class="clusterblast-desc" y="60" x="460.8"  >
Aspergillus kawachii IFO 4308 DNA, contig: scaffold00006, wh...</text>
<line y1="85" x2="778.0" style="stroke:grey; stroke-width:1; " x1="10" y2="85"  />
<polygon style="stroke:black; stroke-width:1; fill:#FFFFFF; " description="tripeptidyl_peptidase_Sed3[br]Location: 453726 - 455556" locus_tag="AKAW_02956" id="clusterblast-1_h38_1_0" points="10,85 15,80 38,80 38,90 15,90 10,85 " class="clusterblast-orf"  />
<polygon style="stroke:black; stroke-width:1; fill:#FFFFFF; " description="trichothecene_3-O-acetyltransferase[br]Location: 456894 - 458237" locus_tag="AKAW_02957" id="clusterblast-1_h38_1_1" points="59,85 64,80 80,80 80,90 64,90 59,85 " class="clusterblast-orf"  />
<polygon style="stroke:black; stroke-width:1; fill:#FFFFFF; " description="aldo/keto_reductase[br]Location: 458835 - 459884" locus_tag="AKAW_02958" id="clusterblast-1_h38_1_2" points="90,85 95,80 106,80 106,90 95,90 90,85 " class="clusterblast-orf"  />
<polygon style="stroke:black; stroke-width:1; fill:#FFFFFF; " description="FAD-dependent_oxidase[br]Location: 461329 - 463034" locus_tag="AKAW_02959" id="clusterblast-1_h38_1_3" points="129,85 134,80 156,80 156,90 134,90 129,85 " class="clusterblast-orf"  />
<polygon style="stroke:black; stroke-width:1; fill:#FFFFFF; " description="hypothetical_protein[br]Location: 465977 - 467363" locus_tag="AKAW_02960" id="clusterblast-1_h38_1_4" points="202,90 219,90 224,85 219,80 202,80 202,90 " class="clusterblast-orf"  />
<polygon style="stroke:black; stroke-width:1; fill:#FFFFFF; " description="aldehyde_dehydrogenase[br]Location: 467837 - 468899" locus_tag="AKAW_02961" id="clusterblast-1_h38_1_5" points="231,85 236,80 248,80 248,90 236,90 231,85 " class="clusterblast-orf"  />
<polygon style="stroke:black; stroke-width:1; fill:#FFFFFF; " description="hypothetical_protein[br]Location: 469363 - 469722" locus_tag="AKAW_02962" id="clusterblast-1_h38_1_6" points="255,85 260,80 261,80 261,90 260,90 255,85 " class="clusterblast-orf"  />
<polygon style="stroke:black; stroke-width:1; fill:#FFFFFF; " description="cytochrome_P450_monooxygenase[br]Location: 470058 - 471997" locus_tag="AKAW_02963" id="clusterblast-1_h38_1_7" points="266,85 271,80 297,80 297,90 271,90 266,85 " class="clusterblast-orf"  />
<polygon style="stroke:black; stroke-width:1; fill:#FFFFFF; " description="hypothetical_protein[br]Location: 473511 - 474419" locus_tag="AKAW_02964" id="clusterblast-1_h38_1_8" points="321,90 330,90 335,85 330,80 321,80 321,90 " class="clusterblast-orf"  />
<polygon style="stroke:black; stroke-width:1; fill:rgb(190,63,63); " description="polyketide_synthase[br]Location: 474667 - 482075&lt;br&gt;&lt;br&gt;&lt;b&gt;BlastP hit with CHAFR746836_0018750.1&lt;/b&gt;&lt;br&gt;Percentage identity: 51%&lt;br&gt;Percentage coverage: 100%&lt;br&gt;BLAST bit score: 2412&lt;br&gt;E-value: 0.0" locus_tag="AKAW_02965" id="clusterblast-1_h38_1_9" points="339,85 344,80 455,80 455,90 344,90 339,85 " class="clusterblast-orf"  />
<polygon style="stroke:black; stroke-width:1; fill:rgb(63,63,190); " description="short_chain_dehydrogenase[br]Location: 482448 - 483642&lt;br&gt;&lt;br&gt;&lt;b&gt;BlastP hit with CHAFR746836_0018760.1&lt;/b&gt;&lt;br&gt;Percentage identity: 63%&lt;br&gt;Percentage coverage: 99%&lt;br&gt;BLAST bit score: 369&lt;br&gt;E-value: 8e-127" locus_tag="AKAW_02966" id="clusterblast-1_h38_1_10" points="461,90 475,90 480,85 475,80 461,80 461,90 " class="clusterblast-orf"  />
<polygon style="stroke:black; stroke-width:1; fill:rgb(63,190,63); " description="oxidoreductase,_short-chain[br]Location: 483990 - 485046&lt;br&gt;&lt;br&gt;&lt;b&gt;BlastP hit with CHAFR746836_0018770.1&lt;/b&gt;&lt;br&gt;Percentage identity: 49%&lt;br&gt;Percentage coverage: 103%&lt;br&gt;BLAST bit score: 250&lt;br&gt;E-value: 2e-80" locus_tag="AKAW_02967" id="clusterblast-1_h38_1_11" points="485,90 497,90 502,85 497,80 485,80 485,90 " class="clusterblast-orf"  />
<polygon style="stroke:black; stroke-width:1; fill:rgb(190,63,190); " description="hypothetical_protein[br]Location: 485201 - 485836&lt;br&gt;&lt;br&gt;&lt;b&gt;BlastP hit with CHAFR746836_0018790.1&lt;/b&gt;&lt;br&gt;Percentage identity: 49%&lt;br&gt;Percentage coverage: 102%&lt;br&gt;BLAST bit score: 204&lt;br&gt;E-value: 1e-64" locus_tag="AKAW_02968" id="clusterblast-1_h38_1_12" points="505,90 509,90 514,85 509,80 505,80 505,90 " class="clusterblast-orf"  />
<polygon style="stroke:black; stroke-width:1; fill:#FFFFFF; " description="major_facilitator_superfamily_transporter[br]Location: 486014 - 487715" locus_tag="AKAW_02969" id="clusterblast-1_h38_1_13" points="517,85 522,80 544,80 544,90 522,90 517,85 " class="clusterblast-orf"  />
<polygon style="stroke:black; stroke-width:1; fill:#FFFFFF; " description="AMP_dependent_ligase/synthetase[br]Location: 488330 - 490260" locus_tag="AKAW_02970" id="clusterblast-1_h38_1_14" points="554,90 579,90 584,85 579,80 554,80 554,90 " class="clusterblast-orf"  />
<polygon style="stroke:black; stroke-width:1; fill:#FFFFFF; " description="hypothetical_protein[br]Location: 490340 - 491444" locus_tag="AKAW_02971" id="clusterblast-1_h38_1_15" points="585,85 590,80 603,80 603,90 590,90 585,85 " class="clusterblast-orf"  />
<polygon style="stroke:black; stroke-width:1; fill:#FFFFFF; " description="cytochrome_P450_monooxygenase[br]Location: 491690 - 493546" locus_tag="AKAW_02972" id="clusterblast-1_h38_1_16" points="607,90 631,90 636,85 631,80 607,80 607,90 " class="clusterblast-orf"  />
<polygon style="stroke:black; stroke-width:1; fill:#FFFFFF; " description="1-aminocyclopropane-1-carboxylate_oxidase[br]Location: 495338 - 496552" locus_tag="AKAW_02973" id="clusterblast-1_h38_1_17" points="664,90 678,90 683,85 678,80 664,80 664,90 " class="clusterblast-orf"  />
<polygon style="stroke:black; stroke-width:1; fill:#FFFFFF; " description="carbonyl_reductase[br]Location: 498033 - 498773" locus_tag="AKAW_02974" id="clusterblast-1_h38_1_18" points="706,90 713,90 718,85 713,80 706,80 706,90 " class="clusterblast-orf"  />
<polygon style="stroke:black; stroke-width:1; fill:#FFFFFF; " description="sterigmatocystin_8-O-methyltransferase[br]Location: 499214 - 500879" locus_tag="AKAW_02975" id="clusterblast-1_h38_1_19" points="725,90 746,90 751,85 746,80 725,80 725,90 " class="clusterblast-orf"  />
<polygon style="stroke:black; stroke-width:1; fill:#FFFFFF; " description="hypothetical_protein[br]Location: 501099 - 502559" locus_tag="AKAW_02976" id="clusterblast-1_h38_1_20" points="755,85 760,80 778,80 778,90 760,90 755,85 " class="clusterblast-orf"  />
</g>
</svg>
