<svg xmlns="http://www.w3.org/2000/svg" height="230" width="800" version="1.1" y="0" x="0" preserveAspectRatio="none" xmlns:xlink="http://www.w3.org/1999/xlink" viewBox="0 0 800 230"  >
<g class="clusterblast-cluster" label="Query sequence"  >
<text class="clusterblast-acc" y="10" x="5"  >
Query sequence</text>
<line y1="35" x2="778.0" style="stroke:grey; stroke-width:1; " x1="10" y2="35"  />
<polygon style="stroke:black; stroke-width:1; fill:red; " description="unannotated orf[br]Location: 68134 - 70502" locus_tag="CHAFR746836_0071420.1" class="clusterblast-orf" points="10,35 15,30 20,30 20,40 15,40 10,35 " id="clusterblast-1_q9_1_0"  />
<polygon style="stroke:black; stroke-width:1; fill:#FFFFFF; " description="unannotated orf[br]Location: 72327 - 73788" locus_tag="CHAFR746836_0071430.1" class="clusterblast-orf" points="28,35 33,30 35,30 35,40 33,40 28,35 " id="clusterblast-1_q9_1_1"  />
<polygon style="stroke:black; stroke-width:1; fill:#FFFFFF; " description="unannotated orf[br]Location: 76531 - 77863" locus_tag="CHAFR746836_0071440.1" class="clusterblast-orf" points="47,35 52,30 53,30 53,40 52,40 47,35 " id="clusterblast-1_q9_1_2"  />
<polygon style="stroke:black; stroke-width:1; fill:#FFFFFF; " description="unannotated orf[br]Location: 80274 - 82068" locus_tag="CHAFR746836_0071450.1" class="clusterblast-orf" points="64,40 67,40 72,35 67,30 64,30 64,40 " id="clusterblast-1_q9_1_3"  />
<polygon style="stroke:black; stroke-width:1; fill:green; " description="unannotated orf[br]Location: 84469 - 85881" locus_tag="CHAFR746836_0071460.1" class="clusterblast-orf" points="83,35 88,30 89,30 89,40 88,40 83,35 " id="clusterblast-1_q9_1_4"  />
<polygon style="stroke:black; stroke-width:1; fill:blue; " description="unannotated orf[br]Location: 86196 - 88112" locus_tag="CHAFR746836_0071470.1" class="clusterblast-orf" points="91,40 94,40 99,35 94,30 91,30 91,40 " id="clusterblast-1_q9_1_5"  />
<polygon style="stroke:black; stroke-width:1; fill:#FFFFFF; " description="unannotated orf[br]Location: 90971 - 93131" locus_tag="CHAFR746836_0071480.1" class="clusterblast-orf" points="112,35 117,30 122,30 122,40 117,40 112,35 " id="clusterblast-1_q9_1_6"  />
<polygon style="stroke:black; stroke-width:1; fill:#FFFFFF; " description="unannotated orf[br]Location: 94508 - 96197" locus_tag="CHAFR746836_0071490.1" class="clusterblast-orf" points="128,40 130,40 135,35 130,30 128,30 128,40 " id="clusterblast-1_q9_1_7"  />
<polygon style="stroke:black; stroke-width:1; fill:#FFFFFF; " description="unannotated orf[br]Location: 97454 - 99476" locus_tag="CHAFR746836_0071500.1" class="clusterblast-orf" points="141,40 145,40 150,35 145,30 141,30 141,40 " id="clusterblast-1_q9_1_8"  />
<polygon style="stroke:black; stroke-width:1; fill:#FFFFFF; " description="unannotated orf[br]Location: 100761 - 101297" locus_tag="CHAFR746836_0071510.1" class="clusterblast-orf" points="156,40 158,35 156,30 156,40 " id="clusterblast-1_q9_1_9"  />
<polygon style="stroke:black; stroke-width:1; fill:#FFFFFF; " description="unannotated orf[br]Location: 104385 - 104721" locus_tag="CHAFR746836_0071520.1" class="clusterblast-orf" points="172,40 174,35 172,30 172,40 " id="clusterblast-1_q9_1_10"  />
<polygon style="stroke:black; stroke-width:1; fill:#FFFFFF; " description="unannotated orf[br]Location: 107563 - 110227" locus_tag="CHAFR746836_0071530.1" class="clusterblast-orf" points="186,35 191,30 198,30 198,40 191,40 186,35 " id="clusterblast-1_q9_1_11"  />
<polygon style="stroke:black; stroke-width:1; fill:#FFFFFF; " description="unannotated orf[br]Location: 114742 - 115039" locus_tag="CHAFR746836_0071540.1" class="clusterblast-orf" points="219,40 220,35 219,30 219,40 " id="clusterblast-1_q9_1_12"  />
<polygon style="stroke:black; stroke-width:1; fill:#FFFFFF; " description="unannotated orf[br]Location: 123259 - 127108" locus_tag="CHAFR746836_0071550.1" class="clusterblast-orf" points="257,35 262,30 274,30 274,40 262,40 257,35 " id="clusterblast-1_q9_1_13"  />
<polygon style="stroke:black; stroke-width:1; fill:#FFFFFF; " description="unannotated orf[br]Location: 144812 - 146250" locus_tag="CHAFR746836_0071560.1" class="clusterblast-orf" points="354,35 359,30 360,30 360,40 359,40 354,35 " id="clusterblast-1_q9_1_14"  />
<polygon style="stroke:black; stroke-width:1; fill:#FFFFFF; " description="unannotated orf[br]Location: 152743 - 154459" locus_tag="CHAFR746836_0071570.1" class="clusterblast-orf" points="389,35 394,30 397,30 397,40 394,40 389,35 " id="clusterblast-1_q9_1_15"  />
<polygon style="stroke:black; stroke-width:1; fill:#FFFFFF; " description="unannotated orf[br]Location: 156531 - 157389" locus_tag="CHAFR746836_0071580.1" class="clusterblast-orf" points="406,35 410,30 410,40 406,35 " id="clusterblast-1_q9_1_16"  />
<polygon style="stroke:black; stroke-width:1; fill:#FFFFFF; " description="unannotated orf[br]Location: 164785 - 166669" locus_tag="CHAFR746836_0071590.1" class="clusterblast-orf" points="443,40 447,40 452,35 447,30 443,30 443,40 " id="clusterblast-1_q9_1_17"  />
<polygon style="stroke:black; stroke-width:1; fill:#FFFFFF; " description="unannotated orf[br]Location: 201968 - 203433" locus_tag="CHAFR746836_0071600.1" class="clusterblast-orf" points="610,40 612,40 617,35 612,30 610,30 610,40 " id="clusterblast-1_q9_1_18"  />
<polygon style="stroke:black; stroke-width:1; fill:#FFFFFF; " description="unannotated orf[br]Location: 204836 - 205972" locus_tag="CHAFR746836_0071610.1" class="clusterblast-orf" points="623,40 623,40 628,35 623,30 623,30 623,40 " id="clusterblast-1_q9_1_19"  />
<polygon style="stroke:black; stroke-width:1; fill:#FFFFFF; " description="unannotated orf[br]Location: 207637 - 210779" locus_tag="CHAFR746836_0071620.1" class="clusterblast-orf" points="636,35 641,30 650,30 650,40 641,40 636,35 " id="clusterblast-1_q9_1_20"  />
<polygon style="stroke:black; stroke-width:1; fill:#FFFFFF; " description="unannotated orf[br]Location: 211916 - 213325" locus_tag="CHAFR746836_0071630.1" class="clusterblast-orf" points="655,35 660,30 661,30 661,40 660,40 655,35 " id="clusterblast-1_q9_1_21"  />
<polygon style="stroke:black; stroke-width:1; fill:yellow; " description="unannotated orf[br]Location: 215213 - 216863" locus_tag="CHAFR746836_0071640.1" class="clusterblast-orf" points="670,35 675,30 677,30 677,40 675,40 670,35 " id="clusterblast-1_q9_1_22"  />
<polygon style="stroke:black; stroke-width:1; fill:#FFFFFF; " description="unannotated orf[br]Location: 224691 - 226010" locus_tag="CHAFR746836_0071650.1" class="clusterblast-orf" points="712,40 713,40 718,35 713,30 712,30 712,40 " id="clusterblast-1_q9_1_23"  />
<polygon style="stroke:black; stroke-width:1; fill:#FFFFFF; " description="unannotated orf[br]Location: 230972 - 232109" locus_tag="CHAFR746836_0071660.1" class="clusterblast-orf" points="740,40 740,40 745,35 740,30 740,30 740,40 " id="clusterblast-1_q9_1_24"  />
<polygon style="stroke:black; stroke-width:1; fill:#FFFFFF; " description="unannotated orf[br]Location: 233318 - 234463" locus_tag="CHAFR746836_0071670.1" class="clusterblast-orf" points="751,35 756,30 756,30 756,40 756,40 751,35 " id="clusterblast-1_q9_1_25"  />
<polygon style="stroke:black; stroke-width:1; fill:#FFFFFF; " description="unannotated orf[br]Location: 234897 - 236194" locus_tag="CHAFR746836_0071680.1" class="clusterblast-orf" points="758,40 759,40 764,35 759,30 758,30 758,40 " id="clusterblast-1_q9_1_26"  />
<polygon style="stroke:black; stroke-width:1; fill:#FFFFFF; " description="unannotated orf[br]Location: 236494 - 237888" locus_tag="CHAFR746836_0071690.1" class="clusterblast-orf" points="765,35 770,30 771,30 771,40 770,40 765,35 " id="clusterblast-1_q9_1_27"  />
<polygon style="stroke:black; stroke-width:1; fill:#FFFFFF; " description="unannotated orf[br]Location: 238790 - 239245" locus_tag="CHAFR746836_0071700.1" class="clusterblast-orf" points="775,40 778,35 775,30 775,40 " id="clusterblast-1_q9_1_28"  />
</g>
<g class="clusterblast-cluster" description="Gordonia sputi NBRC 100414 DNA, contig: GOSPT075, who..." label="NZ_BAFC01000075.1_c1"  >
<text class="clusterblast-acc" y="60" x="5"  >
NZ_BAFC01000075.1_c1</text>
<text class="clusterblast-desc" y="60" x="460.8"  >
Gordonia sputi NBRC 100414 DNA, contig: GOSPT075, who...</text>
<line y1="85" x2="778.0" style="stroke:grey; stroke-width:1; " x1="10" y2="85"  />
<polygon style="stroke:black; stroke-width:1; fill:#FFFFFF; " description="hypothetical_protein[br]Location: 61427 - 62800" locus_tag="GOSPT_075_00610" id="clusterblast-1_h9_1_0" points="316,85 321,80 322,80 322,90 321,90 316,85 " class="clusterblast-orf"  />
<polygon style="stroke:black; stroke-width:1; fill:#FFFFFF; " description="putative_4-carboxymuconolactone_decarboxylase[br]Location: 62810 - 63214" locus_tag="GOSPT_075_00620" id="clusterblast-1_h9_1_1" points="322,85 324,80 324,90 322,85 " class="clusterblast-orf"  />
<polygon style="stroke:black; stroke-width:1; fill:#FFFFFF; " description="putative_oxidoreductase[br]Location: 63211 - 64080" locus_tag="GOSPT_075_00630" id="clusterblast-1_h9_1_2" points="324,85 327,80 327,90 324,85 " class="clusterblast-orf"  />
<polygon style="stroke:black; stroke-width:1; fill:#FFFFFF; " description="putative_oxidoreductase[br]Location: 64077 - 64814" locus_tag="GOSPT_075_00640" id="clusterblast-1_h9_1_3" points="327,85 331,80 331,90 327,85 " class="clusterblast-orf"  />
<polygon style="stroke:black; stroke-width:1; fill:yellow; " description="putative_aldehyde_dehydrogenase[br]Location: 65038 - 66504&lt;br&gt;&lt;br&gt;&lt;b&gt;BlastP hit with CHAFR746836_0071640.1&lt;/b&gt;&lt;br&gt;Percentage identity: 34%&lt;br&gt;Percentage coverage: 98%&lt;br&gt;BLAST bit score: 235&lt;br&gt;E-value: 3e-69" locus_tag="GOSPT_075_00650" id="clusterblast-1_h9_1_4" points="332,85 337,80 338,80 338,90 337,90 332,85 " class="clusterblast-orf"  />
<polygon style="stroke:black; stroke-width:1; fill:#FFFFFF; " description="putative_TetR_family_transcriptional_regulator[br]Location: 66586 - 67173" locus_tag="GOSPT_075_00660" id="clusterblast-1_h9_1_5" points="339,90 341,85 339,80 339,90 " class="clusterblast-orf"  />
<polygon style="stroke:black; stroke-width:1; fill:#FFFFFF; " description="putative_cytochrome_P450[br]Location: 67251 - 68489" locus_tag="GOSPT_075_00670" id="clusterblast-1_h9_1_6" points="342,90 342,90 347,85 342,80 342,80 342,90 " class="clusterblast-orf"  />
<polygon style="stroke:black; stroke-width:1; fill:#FFFFFF; " description="putative_oxidoreductase[br]Location: 68489 - 69319" locus_tag="GOSPT_075_00680" id="clusterblast-1_h9_1_7" points="347,90 351,85 347,80 347,90 " class="clusterblast-orf"  />
<polygon style="stroke:black; stroke-width:1; fill:#FFFFFF; " description="putative_cytochrome_P450[br]Location: 69316 - 70665" locus_tag="GOSPT_075_00690" id="clusterblast-1_h9_1_8" points="351,90 352,90 357,85 352,80 351,80 351,90 " class="clusterblast-orf"  />
<polygon style="stroke:black; stroke-width:1; fill:#FFFFFF; " description="putative_3Fe-4S_ferredoxin[br]Location: 70675 - 70875" locus_tag="GOSPT_075_00700" id="clusterblast-1_h9_1_9" points="357,90 358,85 357,80 357,90 " class="clusterblast-orf"  />
<polygon style="stroke:black; stroke-width:1; fill:#FFFFFF; " description="hypothetical_protein[br]Location: 70970 - 71512" locus_tag="GOSPT_075_00710" id="clusterblast-1_h9_1_10" points="358,90 361,85 358,80 358,90 " class="clusterblast-orf"  />
<polygon style="stroke:black; stroke-width:1; fill:#FFFFFF; " description="hypothetical_protein[br]Location: 71521 - 72786" locus_tag="GOSPT_075_00720" id="clusterblast-1_h9_1_11" points="361,90 361,90 366,85 361,80 361,80 361,90 " class="clusterblast-orf"  />
<polygon style="stroke:black; stroke-width:1; fill:#FFFFFF; " description="putative_oxidoreductase[br]Location: 72815 - 73702" locus_tag="GOSPT_075_00730" id="clusterblast-1_h9_1_12" points="367,90 371,85 367,80 367,90 " class="clusterblast-orf"  />
<polygon style="stroke:black; stroke-width:1; fill:#FFFFFF; " description="hypothetical_protein[br]Location: 73777 - 74847" locus_tag="GOSPT_075_00740" id="clusterblast-1_h9_1_13" points="371,85 376,80 376,80 376,90 376,90 371,85 " class="clusterblast-orf"  />
<polygon style="stroke:black; stroke-width:1; fill:#FFFFFF; " description="putative_TetR_family_transcriptional_regulator[br]Location: 75061 - 75675" locus_tag="GOSPT_075_00750" id="clusterblast-1_h9_1_14" points="377,90 379,85 377,80 377,90 " class="clusterblast-orf"  />
<polygon style="stroke:black; stroke-width:1; fill:#FFFFFF; " description="NAD-dependent_epimerase/dehydratase_family[br]Location: 75696 - 76721" locus_tag="GOSPT_075_00760" id="clusterblast-1_h9_1_15" points="380,85 384,80 384,90 380,85 " class="clusterblast-orf"  />
<polygon style="stroke:black; stroke-width:1; fill:#FFFFFF; " description="hypothetical_protein[br]Location: 76718 - 77809" locus_tag="GOSPT_075_00770" id="clusterblast-1_h9_1_16" points="384,85 389,80 389,80 389,90 389,90 384,85 " class="clusterblast-orf"  />
<polygon style="stroke:black; stroke-width:1; fill:#FFFFFF; " description="putative_oxidoreductase[br]Location: 77806 - 78936" locus_tag="GOSPT_075_00780" id="clusterblast-1_h9_1_17" points="389,85 394,80 394,80 394,90 394,90 389,85 " class="clusterblast-orf"  />
<polygon style="stroke:black; stroke-width:1; fill:#FFFFFF; " description="long-chain_fatty-acid--CoA_ligase_FadD17[br]Location: 78956 - 80545" locus_tag="GOSPT_075_00790" id="clusterblast-1_h9_1_18" points="394,85 399,80 401,80 401,90 399,90 394,85 " class="clusterblast-orf"  />
<polygon style="stroke:black; stroke-width:1; fill:#FFFFFF; " description="hypothetical_protein[br]Location: 80634 - 81128" locus_tag="GOSPT_075_00800" id="clusterblast-1_h9_1_19" points="402,85 404,80 404,90 402,85 " class="clusterblast-orf"  />
<polygon style="stroke:black; stroke-width:1; fill:#FFFFFF; " description="putative_acyl-CoA_dehydrogenase[br]Location: 82032 - 85478" locus_tag="GOSPT_075_00810" id="clusterblast-1_h9_1_20" points="408,90 418,90 423,85 418,80 408,80 408,90 " class="clusterblast-orf"  />
<polygon style="stroke:black; stroke-width:1; fill:#FFFFFF; " description="hypothetical_protein[br]Location: 85548 - 85874" locus_tag="GOSPT_075_00820" id="clusterblast-1_h9_1_21" points="424,90 425,85 424,80 424,90 " class="clusterblast-orf"  />
<polygon style="stroke:black; stroke-width:1; fill:#FFFFFF; " description="hypothetical_protein[br]Location: 85874 - 86488" locus_tag="GOSPT_075_00830" id="clusterblast-1_h9_1_22" points="425,90 428,85 425,80 425,90 " class="clusterblast-orf"  />
<polygon style="stroke:black; stroke-width:1; fill:#FFFFFF; " description="hypothetical_protein[br]Location: 86496 - 87059" locus_tag="GOSPT_075_00840" id="clusterblast-1_h9_1_23" points="428,85 431,80 431,90 428,85 " class="clusterblast-orf"  />
<polygon style="stroke:black; stroke-width:1; fill:#FFFFFF; " description="hypothetical_protein[br]Location: 87211 - 88056" locus_tag="GOSPT_075_00850" id="clusterblast-1_h9_1_24" points="431,90 435,85 431,80 431,90 " class="clusterblast-orf"  />
<polygon style="stroke:black; stroke-width:1; fill:#FFFFFF; " description="hypothetical_protein[br]Location: 88110 - 89894" locus_tag="GOSPT_075_00860" id="clusterblast-1_h9_1_25" points="435,90 438,90 443,85 438,80 435,80 435,90 " class="clusterblast-orf"  />
<polygon style="stroke:black; stroke-width:1; fill:green; " description="acyl-CoA_dehydrogenase[br]Location: 89898 - 91073&lt;br&gt;&lt;br&gt;&lt;b&gt;BlastP hit with CHAFR746836_0071460.1&lt;/b&gt;&lt;br&gt;Percentage identity: 32%&lt;br&gt;Percentage coverage: 84%&lt;br&gt;BLAST bit score: 186&lt;br&gt;E-value: 1e-52" locus_tag="GOSPT_075_00870" id="clusterblast-1_h9_1_26" points="443,90 444,90 449,85 444,80 443,80 443,90 " class="clusterblast-orf"  />
<polygon style="stroke:black; stroke-width:1; fill:blue; " description="acyl-CoA_carboxylase_beta_chain[br]Location: 91070 - 92668&lt;br&gt;&lt;br&gt;&lt;b&gt;BlastP hit with CHAFR746836_0071470.1&lt;/b&gt;&lt;br&gt;Percentage identity: 44%&lt;br&gt;Percentage coverage: 94%&lt;br&gt;BLAST bit score: 434&lt;br&gt;E-value: 3e-144" locus_tag="GOSPT_075_00880" id="clusterblast-1_h9_1_27" points="449,90 451,90 456,85 451,80 449,80 449,90 " class="clusterblast-orf"  />
<polygon style="stroke:black; stroke-width:1; fill:red; " description="acyl-CoA_carboxylase_alpha_chain[br]Location: 92677 - 94722&lt;br&gt;&lt;br&gt;&lt;b&gt;BlastP hit with CHAFR746836_0071420.1&lt;/b&gt;&lt;br&gt;Percentage identity: 43%&lt;br&gt;Percentage coverage: 64%&lt;br&gt;BLAST bit score: 354&lt;br&gt;E-value: 8e-110" locus_tag="GOSPT_075_00890" id="clusterblast-1_h9_1_28" points="456,90 460,90 465,85 460,80 456,80 456,90 " class="clusterblast-orf"  />
<polygon style="stroke:black; stroke-width:1; fill:#FFFFFF; " description="acyl-CoA_dehydrogenase[br]Location: 94719 - 95876" locus_tag="GOSPT_075_00900" id="clusterblast-1_h9_1_29" points="465,90 465,90 470,85 465,80 465,80 465,90 " class="clusterblast-orf"  />
</g>
</svg>
