<svg xmlns="http://www.w3.org/2000/svg" height="230" width="800" version="1.1" y="0" x="0" preserveAspectRatio="none" xmlns:xlink="http://www.w3.org/1999/xlink" viewBox="0 0 800 230"  >
<g class="clusterblast-cluster" label="Query sequence"  >
<text class="clusterblast-acc" y="10" x="5"  >
Query sequence</text>
<line y1="35" x2="778.0" style="stroke:grey; stroke-width:1; " x1="10" y2="35"  />
<polygon style="stroke:black; stroke-width:1; fill:#FFFFFF; " description="unannotated orf[br]Location: 1502 - 2717" locus_tag="CHAFR746836_0018730.1" class="clusterblast-orf" points="108,40 127,40 132,35 127,30 108,30 108,40 " id="clusterblast-1_q38_3_0"  />
<polygon style="stroke:black; stroke-width:1; fill:#FFFFFF; " description="unannotated orf[br]Location: 5434 - 6658" locus_tag="CHAFR746836_0018740.1" class="clusterblast-orf" points="186,40 205,40 210,35 205,30 186,30 186,40 " id="clusterblast-1_q38_3_1"  />
<polygon style="stroke:black; stroke-width:1; fill:rgb(190,63,63); " description="unannotated orf[br]Location: 8194 - 15527" locus_tag="CHAFR746836_0018750.1" class="clusterblast-orf" points="241,35 246,30 387,30 387,40 246,40 241,35 " id="clusterblast-1_q38_3_2"  />
<polygon style="stroke:black; stroke-width:1; fill:rgb(63,63,190); " description="unannotated orf[br]Location: 16107 - 17386" locus_tag="CHAFR746836_0018760.1" class="clusterblast-orf" points="399,40 419,40 424,35 419,30 399,30 399,40 " id="clusterblast-1_q38_3_3"  />
<polygon style="stroke:black; stroke-width:1; fill:rgb(63,190,63); " description="unannotated orf[br]Location: 18113 - 19107" locus_tag="CHAFR746836_0018770.1" class="clusterblast-orf" points="439,40 453,40 458,35 453,30 439,30 439,40 " id="clusterblast-1_q38_3_4"  />
<polygon style="stroke:black; stroke-width:1; fill:#FFFFFF; " description="unannotated orf[br]Location: 21941 - 23810" locus_tag="CHAFR746836_0018780.1" class="clusterblast-orf" points="515,40 547,40 552,35 547,30 515,30 515,40 " id="clusterblast-1_q38_3_5"  />
<polygon style="stroke:black; stroke-width:1; fill:rgb(190,63,190); " description="unannotated orf[br]Location: 25428 - 26120" locus_tag="CHAFR746836_0018790.1" class="clusterblast-orf" points="584,40 593,40 598,35 593,30 584,30 584,40 " id="clusterblast-1_q38_3_6"  />
<polygon style="stroke:black; stroke-width:1; fill:rgb(190,190,63); " description="unannotated orf[br]Location: 28320 - 30189" locus_tag="CHAFR746836_0018800.1" class="clusterblast-orf" points="642,35 647,30 679,30 679,40 647,40 642,35 " id="clusterblast-1_q38_3_7"  />
</g>
<g class="clusterblast-cluster" description="Neurospora tetrasperma FGSC 2508 unplaced genomic scaffold N..." label="GL891382.1_c1"  >
<text class="clusterblast-acc" y="60" x="5"  >
GL891382.1_c1</text>
<text class="clusterblast-desc" y="60" x="460.8"  >
Neurospora tetrasperma FGSC 2508 unplaced genomic scaffold N...</text>
<line y1="85" x2="778.0" style="stroke:grey; stroke-width:1; " x1="10" y2="85"  />
<polygon style="stroke:black; stroke-width:1; fill:#FFFFFF; " description="hypothetical_protein[br]Location: 7893931 - 7896744" locus_tag="NEUTE1DRAFT_106244" id="clusterblast-1_h38_3_0" points="10,85 15,80 66,80 66,90 15,90 10,85 " class="clusterblast-orf"  />
<polygon style="stroke:black; stroke-width:1; fill:#FFFFFF; " description="hypothetical_protein[br]Location: 7898147 - 7900530" locus_tag="NEUTE1DRAFT_126657" id="clusterblast-1_h38_3_1" points="94,85 99,80 141,80 141,90 99,90 94,85 " class="clusterblast-orf"  />
<polygon style="stroke:black; stroke-width:1; fill:#FFFFFF; " description="hypothetical_protein[br]Location: 7903680 - 7904827" locus_tag="NEUTE1DRAFT_133749" id="clusterblast-1_h38_3_2" points="204,85 209,80 227,80 227,90 209,90 204,85 " class="clusterblast-orf"  />
<polygon style="stroke:black; stroke-width:1; fill:#FFFFFF; " description="hypothetical_protein[br]Location: 7905572 - 7906183" locus_tag="NEUTE1DRAFT_92506" id="clusterblast-1_h38_3_3" points="242,85 247,80 254,80 254,90 247,90 242,85 " class="clusterblast-orf"  />
<polygon style="stroke:black; stroke-width:1; fill:rgb(190,63,63); " description="hypothetical_protein[br]Location: 7906880 - 7914176&lt;br&gt;&lt;br&gt;&lt;b&gt;BlastP hit with CHAFR746836_0018750.1&lt;/b&gt;&lt;br&gt;Percentage identity: 53%&lt;br&gt;Percentage coverage: 100%&lt;br&gt;BLAST bit score: 2462&lt;br&gt;E-value: 0.0" locus_tag="NEUTE1DRAFT_126660" id="clusterblast-1_h38_3_4" points="268,85 273,80 413,80 413,90 273,90 268,85 " class="clusterblast-orf"  />
<polygon style="stroke:black; stroke-width:1; fill:rgb(190,63,190); " description="hypothetical_protein[br]Location: 7916425 - 7917083&lt;br&gt;&lt;br&gt;&lt;b&gt;BlastP hit with CHAFR746836_0018790.1&lt;/b&gt;&lt;br&gt;Percentage identity: 52%&lt;br&gt;Percentage coverage: 91%&lt;br&gt;BLAST bit score: 196&lt;br&gt;E-value: 2e-61" locus_tag="NEUTE1DRAFT_119159" id="clusterblast-1_h38_3_5" points="458,85 463,80 471,80 471,90 463,90 458,85 " class="clusterblast-orf"  />
<polygon style="stroke:black; stroke-width:1; fill:rgb(63,190,63); " description="hypothetical_protein[br]Location: 7917682 - 7918729&lt;br&gt;&lt;br&gt;&lt;b&gt;BlastP hit with CHAFR746836_0018770.1&lt;/b&gt;&lt;br&gt;Percentage identity: 51%&lt;br&gt;Percentage coverage: 100%&lt;br&gt;BLAST bit score: 285&lt;br&gt;E-value: 6e-94" locus_tag="NEUTE1DRAFT_73816" id="clusterblast-1_h38_3_6" points="483,90 499,90 504,85 499,80 483,80 483,90 " class="clusterblast-orf"  />
<polygon style="stroke:black; stroke-width:1; fill:rgb(190,63,190); " description="hypothetical_protein[br]Location: 7918970 - 7919640&lt;br&gt;&lt;br&gt;&lt;b&gt;BlastP hit with CHAFR746836_0018790.1&lt;/b&gt;&lt;br&gt;Percentage identity: 44%&lt;br&gt;Percentage coverage: 95%&lt;br&gt;BLAST bit score: 166&lt;br&gt;E-value: 1e-49" locus_tag="NEUTE1DRAFT_119160" id="clusterblast-1_h38_3_7" points="509,90 517,90 522,85 517,80 509,80 509,90 " class="clusterblast-orf"  />
<polygon style="stroke:black; stroke-width:1; fill:rgb(63,63,190); " description="hypothetical_protein[br]Location: 7920535 - 7921719&lt;br&gt;&lt;br&gt;&lt;b&gt;BlastP hit with CHAFR746836_0018760.1&lt;/b&gt;&lt;br&gt;Percentage identity: 58%&lt;br&gt;Percentage coverage: 96%&lt;br&gt;BLAST bit score: 327&lt;br&gt;E-value: 3e-110" locus_tag="NEUTE1DRAFT_73823" id="clusterblast-1_h38_3_8" points="540,85 545,80 563,80 563,90 545,90 540,85 " class="clusterblast-orf"  />
<polygon style="stroke:black; stroke-width:1; fill:#FFFFFF; " description="hypothetical_protein[br]Location: 7922974 - 7923883" locus_tag="NEUTE1DRAFT_119162" id="clusterblast-1_h38_3_9" points="588,90 602,90 607,85 602,80 588,80 588,90 " class="clusterblast-orf"  />
<polygon style="stroke:black; stroke-width:1; fill:#FFFFFF; " description="hypothetical_protein[br]Location: 7924410 - 7925531" locus_tag="NEUTE1DRAFT_119163" id="clusterblast-1_h38_3_10" points="617,90 634,90 639,85 634,80 617,80 617,90 " class="clusterblast-orf"  />
<polygon style="stroke:black; stroke-width:1; fill:#FFFFFF; " description="hypothetical_protein[br]Location: 7927380 - 7928799" locus_tag="NEUTE1DRAFT_53374" id="clusterblast-1_h38_3_11" points="676,90 700,90 705,85 700,80 676,80 676,90 " class="clusterblast-orf"  />
<polygon style="stroke:black; stroke-width:1; fill:#FFFFFF; " description="hypothetical_protein[br]Location: 7930890 - 7932455" locus_tag="NEUTE1DRAFT_51820" id="clusterblast-1_h38_3_12" points="746,85 751,80 778,80 778,90 751,90 746,85 " class="clusterblast-orf"  />
</g>
</svg>
