<svg xmlns="http://www.w3.org/2000/svg" height="230" width="800" version="1.1" y="0" x="0" preserveAspectRatio="none" xmlns:xlink="http://www.w3.org/1999/xlink" viewBox="0 0 800 230"  >
<g class="clusterblast-cluster" label="Query sequence"  >
<text class="clusterblast-acc" y="10" x="5"  >
Query sequence</text>
<line y1="35" x2="778.0" style="stroke:grey; stroke-width:1; " x1="10" y2="35"  />
<polygon style="stroke:black; stroke-width:1; fill:rgb(190,63,63); " description="unannotated orf[br]Location: 30881 - 32561" locus_tag="CHAFR746836_0027740.1" class="clusterblast-orf" points="10,35 15,30 35,30 35,40 15,40 10,35 " id="clusterblast-1_q41_2_0"  />
<polygon style="stroke:black; stroke-width:1; fill:#FFFFFF; " description="unannotated orf[br]Location: 34136 - 35442" locus_tag="CHAFR746836_0027750.1" class="clusterblast-orf" points="59,35 64,30 79,30 79,40 64,40 59,35 " id="clusterblast-1_q41_2_1"  />
<polygon style="stroke:black; stroke-width:1; fill:#FFFFFF; " description="unannotated orf[br]Location: 37053 - 38397" locus_tag="CHAFR746836_0027760.1" class="clusterblast-orf" points="104,40 119,40 124,35 119,30 104,30 104,40 " id="clusterblast-1_q41_2_2"  />
<polygon style="stroke:black; stroke-width:1; fill:#FFFFFF; " description="unannotated orf[br]Location: 40290 - 42003" locus_tag="CHAFR746836_0027770.1" class="clusterblast-orf" points="153,40 175,40 180,35 175,30 153,30 153,40 " id="clusterblast-1_q41_2_3"  />
<polygon style="stroke:black; stroke-width:1; fill:rgb(63,63,190); " description="unannotated orf[br]Location: 43155 - 44512" locus_tag="CHAFR746836_0027780.1" class="clusterblast-orf" points="197,35 202,30 218,30 218,40 202,40 197,35 " id="clusterblast-1_q41_2_4"  />
<polygon style="stroke:black; stroke-width:1; fill:rgb(63,190,63); " description="unannotated orf[br]Location: 46073 - 47620" locus_tag="CHAFR746836_0027790.1" class="clusterblast-orf" points="242,35 247,30 265,30 265,40 247,40 242,35 " id="clusterblast-1_q41_2_5"  />
<polygon style="stroke:black; stroke-width:1; fill:rgb(190,63,190); " description="unannotated orf[br]Location: 52322 - 58590" locus_tag="CHAFR746836_0027800.1" class="clusterblast-orf" points="337,40 428,40 433,35 428,30 337,30 337,40 " id="clusterblast-1_q41_2_6"  />
<polygon style="stroke:black; stroke-width:1; fill:rgb(190,190,63); " description="unannotated orf[br]Location: 60356 - 65267" locus_tag="CHAFR746836_0027810.1" class="clusterblast-orf" points="460,40 530,40 535,35 530,30 460,30 460,40 " id="clusterblast-1_q41_2_7"  />
<polygon style="stroke:black; stroke-width:1; fill:#FFFFFF; " description="unannotated orf[br]Location: 65402 - 66046" locus_tag="CHAFR746836_0027820.1" class="clusterblast-orf" points="537,35 542,30 547,30 547,40 542,40 537,35 " id="clusterblast-1_q41_2_8"  />
<polygon style="stroke:black; stroke-width:1; fill:rgb(190,190,190); " description="unannotated orf[br]Location: 66248 - 81117" locus_tag="CHAFR746836_0027830.1" class="clusterblast-orf" points="550,40 773,40 778,35 773,30 550,30 550,40 " id="clusterblast-1_q41_2_9"  />
</g>
<g class="clusterblast-cluster" description="Trichophyton tonsurans CBS 112818 genomic scaffold supercont..." label="GG698481.1_c2"  >
<text class="clusterblast-acc" y="60" x="5"  >
GG698481.1_c2</text>
<text class="clusterblast-desc" y="60" x="460.8"  >
Trichophyton tonsurans CBS 112818 genomic scaffold supercont...</text>
<line y1="85" x2="778.0" style="stroke:grey; stroke-width:1; " x1="10" y2="85"  />
<polygon style="stroke:black; stroke-width:1; fill:#FFFFFF; " description="CMGC/CDK/CDC2_protein_kinase[br]Location: 633163 - 634336" locus_tag="TESG_01590" id="clusterblast-1_h41_2_0" points="28,85 33,80 45,80 45,90 33,90 28,85 " class="clusterblast-orf"  />
<polygon style="stroke:black; stroke-width:1; fill:#FFFFFF; " description="oxidoreductase[br]Location: 635138 - 636275" locus_tag="TESG_01591" id="clusterblast-1_h41_2_1" points="58,90 70,90 75,85 70,80 58,80 58,90 " class="clusterblast-orf"  />
<polygon style="stroke:black; stroke-width:1; fill:#FFFFFF; " description="hypothetical_protein[br]Location: 637248 - 637881" locus_tag="TESG_01592" id="clusterblast-1_h41_2_2" points="90,90 95,90 100,85 95,80 90,80 90,90 " class="clusterblast-orf"  />
<polygon style="stroke:black; stroke-width:1; fill:#FFFFFF; " description="hypothetical_protein[br]Location: 638829 - 640847" locus_tag="TESG_01593" id="clusterblast-1_h41_2_3" points="114,90 140,90 145,85 140,80 114,80 114,90 " class="clusterblast-orf"  />
<polygon style="stroke:black; stroke-width:1; fill:#FFFFFF; " description="hypothetical_protein[br]Location: 642362 - 643827" locus_tag="TESG_01594" id="clusterblast-1_h41_2_4" points="168,85 173,80 191,80 191,90 173,90 168,85 " class="clusterblast-orf"  />
<polygon style="stroke:black; stroke-width:1; fill:#FFFFFF; " description="hypothetical_protein[br]Location: 644478 - 645599" locus_tag="TESG_01595" id="clusterblast-1_h41_2_5" points="200,85 205,80 218,80 218,90 205,90 200,85 " class="clusterblast-orf"  />
<polygon style="stroke:black; stroke-width:1; fill:rgb(190,63,190); " description="MFS_multidrug_transporter[br]Location: 647138 - 648848&lt;br&gt;&lt;br&gt;&lt;b&gt;BlastP hit with CHAFR746836_0027800.1&lt;/b&gt;&lt;br&gt;Percentage identity: 34%&lt;br&gt;Percentage coverage: 25%&lt;br&gt;BLAST bit score: 259&lt;br&gt;E-value: 3e-73" locus_tag="TESG_01596" id="clusterblast-1_h41_2_6" points="241,85 246,80 267,80 267,90 246,90 241,85 " class="clusterblast-orf"  />
<polygon style="stroke:black; stroke-width:1; fill:#FFFFFF; " description="fungal_specific_transcription_factor[br]Location: 650459 - 652719" locus_tag="TESG_01597" id="clusterblast-1_h41_2_7" points="292,90 321,90 326,85 321,80 292,80 292,90 " class="clusterblast-orf"  />
<polygon style="stroke:black; stroke-width:1; fill:#FFFFFF; " description="polyketide_synthase[br]Location: 654107 - 661977" locus_tag="TESG_01598" id="clusterblast-1_h41_2_8" points="348,90 463,90 468,85 463,80 348,80 348,90 " class="clusterblast-orf"  />
<polygon style="stroke:black; stroke-width:1; fill:rgb(63,190,63); " description="hypothetical_protein[br]Location: 662368 - 664349&lt;br&gt;&lt;br&gt;&lt;b&gt;BlastP hit with CHAFR746836_0027790.1&lt;/b&gt;&lt;br&gt;Percentage identity: 37%&lt;br&gt;Percentage coverage: 98%&lt;br&gt;BLAST bit score: 323&lt;br&gt;E-value: 5e-103" locus_tag="TESG_01599" id="clusterblast-1_h41_2_9" points="474,85 479,80 504,80 504,90 479,90 474,85 " class="clusterblast-orf"  />
<polygon style="stroke:black; stroke-width:1; fill:#FFFFFF; " description="hypothetical_protein[br]Location: 667279 - 668528" locus_tag="TESG_01600" id="clusterblast-1_h41_2_10" points="549,90 563,90 568,85 563,80 549,80 549,90 " class="clusterblast-orf"  />
<polygon style="stroke:black; stroke-width:1; fill:#FFFFFF; " description="hypothetical_protein[br]Location: 668733 - 669185" locus_tag="TESG_01601" id="clusterblast-1_h41_2_11" points="571,85 576,80 578,80 578,90 576,90 571,85 " class="clusterblast-orf"  />
<polygon style="stroke:black; stroke-width:1; fill:#FFFFFF; " description="hypothetical_protein[br]Location: 669490 - 670080" locus_tag="TESG_01602" id="clusterblast-1_h41_2_12" points="583,85 588,80 592,80 592,90 588,90 583,85 " class="clusterblast-orf"  />
<polygon style="stroke:black; stroke-width:1; fill:#FFFFFF; " description="dienelactone_hydrolase[br]Location: 670088 - 671274" locus_tag="TESG_01603" id="clusterblast-1_h41_2_13" points="592,90 605,90 610,85 605,80 592,80 592,90 " class="clusterblast-orf"  />
<polygon style="stroke:black; stroke-width:1; fill:#FFFFFF; " description="laccase[br]Location: 671563 - 673437" locus_tag="TESG_01604" id="clusterblast-1_h41_2_14" points="615,85 620,80 643,80 643,90 620,90 615,85 " class="clusterblast-orf"  />
<polygon style="stroke:black; stroke-width:1; fill:#FFFFFF; " description="hypothetical_protein[br]Location: 674081 - 675175" locus_tag="TESG_01605" id="clusterblast-1_h41_2_15" points="653,90 665,90 670,85 665,80 653,80 653,90 " class="clusterblast-orf"  />
<polygon style="stroke:black; stroke-width:1; fill:#FFFFFF; " description="hypothetical_protein[br]Location: 675351 - 676245" locus_tag="TESG_01606" id="clusterblast-1_h41_2_16" points="672,85 677,80 686,80 686,90 677,90 672,85 " class="clusterblast-orf"  />
<polygon style="stroke:black; stroke-width:1; fill:#FFFFFF; " description="monocarboxylate_transporter[br]Location: 677260 - 678801" locus_tag="TESG_01607" id="clusterblast-1_h41_2_17" points="702,90 720,90 725,85 720,80 702,80 702,90 " class="clusterblast-orf"  />
<polygon style="stroke:black; stroke-width:1; fill:#FFFFFF; " description="hypothetical_protein[br]Location: 680026 - 681032" locus_tag="TESG_01608" id="clusterblast-1_h41_2_18" points="744,85 749,80 759,80 759,90 749,90 744,85 " class="clusterblast-orf"  />
</g>
</svg>
