<svg xmlns="http://www.w3.org/2000/svg" height="230" width="800" version="1.1" y="0" x="0" preserveAspectRatio="none" xmlns:xlink="http://www.w3.org/1999/xlink" viewBox="0 0 800 230"  >
<g class="clusterblast-cluster" label="Query sequence"  >
<text class="clusterblast-acc" y="10" x="5"  >
Query sequence</text>
<line y1="35" x2="778.0" style="stroke:grey; stroke-width:1; " x1="10" y2="35"  />
<polygon style="stroke:black; stroke-width:1; fill:#FFFFFF; " description="unannotated orf[br]Location: 1495 - 3001" locus_tag="CHAFR746836_0081150.1" class="clusterblast-orf" points="121,40 123,40 128,35 123,30 121,30 121,40 " id="clusterblast-1_q13_7_0"  />
<polygon style="stroke:black; stroke-width:1; fill:#FFFFFF; " description="unannotated orf[br]Location: 21967 - 22906" locus_tag="CHAFR746836_0081160.1" class="clusterblast-orf" points="226,40 226,40 231,35 226,30 226,30 226,40 " id="clusterblast-1_q13_7_1"  />
<polygon style="stroke:black; stroke-width:1; fill:rgb(190,63,63); " description="unannotated orf[br]Location: 24204 - 25838" locus_tag="CHAFR746836_0081170.1" class="clusterblast-orf" points="237,40 241,40 246,35 241,30 237,30 237,40 " id="clusterblast-1_q13_7_2"  />
<polygon style="stroke:black; stroke-width:1; fill:rgb(63,63,190); " description="unannotated orf[br]Location: 26476 - 34147" locus_tag="CHAFR746836_0081180.1" class="clusterblast-orf" points="249,35 254,30 288,30 288,40 254,40 249,35 " id="clusterblast-1_q13_7_3"  />
<polygon style="stroke:black; stroke-width:1; fill:rgb(63,190,63); " description="unannotated orf[br]Location: 36803 - 37711" locus_tag="CHAFR746836_0081190.1" class="clusterblast-orf" points="302,40 302,40 307,35 302,30 302,30 302,40 " id="clusterblast-1_q13_7_4"  />
<polygon style="stroke:black; stroke-width:1; fill:#FFFFFF; " description="unannotated orf[br]Location: 39559 - 39909" locus_tag="CHAFR746836_0081200.1" class="clusterblast-orf" points="316,35 318,30 318,40 316,35 " id="clusterblast-1_q13_7_5"  />
<polygon style="stroke:black; stroke-width:1; fill:rgb(190,63,190); " description="unannotated orf[br]Location: 40364 - 42098" locus_tag="CHAFR746836_0081210.1" class="clusterblast-orf" points="320,40 324,40 329,35 324,30 320,30 320,40 " id="clusterblast-1_q13_7_6"  />
<polygon style="stroke:black; stroke-width:1; fill:#FFFFFF; " description="unannotated orf[br]Location: 65220 - 66075" locus_tag="CHAFR746836_0081220.1" class="clusterblast-orf" points="448,35 452,30 452,40 448,35 " id="clusterblast-1_q13_7_7"  />
<polygon style="stroke:black; stroke-width:1; fill:rgb(190,190,63); " description="unannotated orf[br]Location: 67588 - 77792" locus_tag="CHAFR746836_0081230.1" class="clusterblast-orf" points="460,40 507,40 512,35 507,30 460,30 460,40 " id="clusterblast-1_q13_7_8"  />
<polygon style="stroke:black; stroke-width:1; fill:#FFFFFF; " description="unannotated orf[br]Location: 80581 - 81578" locus_tag="CHAFR746836_0081240.1" class="clusterblast-orf" points="527,40 527,40 532,35 527,30 527,30 527,40 " id="clusterblast-1_q13_7_9"  />
<polygon style="stroke:black; stroke-width:1; fill:#FFFFFF; " description="unannotated orf[br]Location: 105554 - 107591" locus_tag="CHAFR746836_0081250.1" class="clusterblast-orf" points="655,35 660,30 666,30 666,40 660,40 655,35 " id="clusterblast-1_q13_7_10"  />
</g>
<g class="clusterblast-cluster" description="Haliangium ochraceum DSM 14365, complete genome." label="NC_013440.1_c14"  >
<text class="clusterblast-acc" y="60" x="5"  >
NC_013440.1_c14</text>
<text class="clusterblast-desc" y="60" x="460.8"  >
Haliangium ochraceum DSM 14365, complete genome.</text>
<line y1="85" x2="778.0" style="stroke:grey; stroke-width:1; " x1="10" y2="85"  />
<polygon style="stroke:black; stroke-width:1; fill:#FFFFFF; " description="hypothetical_protein[br]Location: 3998345 - 3999478" locus_tag="Hoch_2935" id="clusterblast-1_h13_7_0" points="10,90 10,90 15,85 10,80 10,80 10,90 " class="clusterblast-orf"  />
<polygon style="stroke:black; stroke-width:1; fill:#FFFFFF; " description="glycosyl_transferase_family_2[br]Location: 3999475 - 4001754" locus_tag="Hoch_2936" id="clusterblast-1_h13_7_1" points="15,90 22,90 27,85 22,80 15,80 15,90 " class="clusterblast-orf"  />
<polygon style="stroke:black; stroke-width:1; fill:#FFFFFF; " description="Annexin_repeat_protein[br]Location: 4002239 - 4005007" locus_tag="Hoch_2937" id="clusterblast-1_h13_7_2" points="30,90 39,90 44,85 39,80 30,80 30,90 " class="clusterblast-orf"  />
<polygon style="stroke:black; stroke-width:1; fill:#FFFFFF; " description="IstB_domain_protein_ATP-binding_protein[br]Location: 4004857 - 4005645" locus_tag="Hoch_2938" id="clusterblast-1_h13_7_3" points="43,85 47,80 47,90 43,85 " class="clusterblast-orf"  />
<polygon style="stroke:black; stroke-width:1; fill:#FFFFFF; " description="Integrase_catalytic_region[br]Location: 4005617 - 4007125" locus_tag="Hoch_2939" id="clusterblast-1_h13_7_4" points="47,85 52,80 55,80 55,90 52,90 47,85 " class="clusterblast-orf"  />
<polygon style="stroke:black; stroke-width:1; fill:#FFFFFF; " description="hypothetical_protein[br]Location: 4007122 - 4007469" locus_tag="Hoch_2940" id="clusterblast-1_h13_7_5" points="55,85 56,80 56,90 55,85 " class="clusterblast-orf"  />
<polygon style="stroke:black; stroke-width:1; fill:#FFFFFF; " description="hypothetical_protein[br]Location: 4010185 - 4011309" locus_tag="Hoch_2944" id="clusterblast-1_h13_7_6" points="70,85 75,80 76,80 76,90 75,90 70,85 " class="clusterblast-orf"  />
<polygon style="stroke:black; stroke-width:1; fill:#FFFFFF; " description="phosphopantetheine-binding_protein[br]Location: 4011306 - 4011542" locus_tag="Hoch_2945" id="clusterblast-1_h13_7_7" points="76,85 77,80 77,90 76,85 " class="clusterblast-orf"  />
<polygon style="stroke:black; stroke-width:1; fill:#FFFFFF; " description="Beta-ketoacyl-acyl-carrier-protein_synthase_III[br]Location: 4011567 - 4012553" locus_tag="Hoch_2946" id="clusterblast-1_h13_7_8" points="77,85 82,80 82,80 82,90 82,90 77,85 " class="clusterblast-orf"  />
<polygon style="stroke:black; stroke-width:1; fill:#FFFFFF; " description="FkbH_like_protein[br]Location: 4012546 - 4013727" locus_tag="Hoch_2947" id="clusterblast-1_h13_7_9" points="82,85 87,80 89,80 89,90 87,90 82,85 " class="clusterblast-orf"  />
<polygon style="stroke:black; stroke-width:1; fill:#FFFFFF; " description="acyl-CoA_dehydrogenase_domain_protein[br]Location: 4013724 - 4014899" locus_tag="Hoch_2948" id="clusterblast-1_h13_7_10" points="89,85 94,80 95,80 95,90 94,90 89,85 " class="clusterblast-orf"  />
<polygon style="stroke:black; stroke-width:1; fill:#FFFFFF; " description="hypothetical_protein[br]Location: 4014903 - 4015133" locus_tag="Hoch_2949" id="clusterblast-1_h13_7_11" points="95,85 96,80 96,90 95,85 " class="clusterblast-orf"  />
<polygon style="stroke:black; stroke-width:1; fill:#FFFFFF; " description="3-hydroxybutyryl-CoA_dehydrogenase[br]Location: 4015171 - 4016043" locus_tag="Hoch_2950" id="clusterblast-1_h13_7_12" points="96,85 100,80 100,90 96,85 " class="clusterblast-orf"  />
<polygon style="stroke:black; stroke-width:1; fill:#FFFFFF; " description="methyltransferase_FkbM_family[br]Location: 4016046 - 4018535" locus_tag="Hoch_2951" id="clusterblast-1_h13_7_13" points="100,85 105,80 113,80 113,90 105,90 100,85 " class="clusterblast-orf"  />
<polygon style="stroke:black; stroke-width:1; fill:#FFFFFF; " description="amino_acid_adenylation_domain_protein[br]Location: 4018547 - 4024585" locus_tag="Hoch_2952" id="clusterblast-1_h13_7_14" points="113,85 118,80 144,80 144,90 118,90 113,85 " class="clusterblast-orf"  />
<polygon style="stroke:black; stroke-width:1; fill:rgb(63,63,190); " description="Acyl_transferase[br]Location: 4024524 - 4027868&lt;br&gt;&lt;br&gt;&lt;b&gt;BlastP hit with CHAFR746836_0081180.1&lt;/b&gt;&lt;br&gt;Percentage identity: 36%&lt;br&gt;Percentage coverage: 38%&lt;br&gt;BLAST bit score: 468&lt;br&gt;E-value: 7e-138" locus_tag="Hoch_2953" id="clusterblast-1_h13_7_15" points="144,85 149,80 161,80 161,90 149,90 144,85 " class="clusterblast-orf"  />
<polygon style="stroke:black; stroke-width:1; fill:rgb(63,63,190); " description="Acyl_transferase[br]Location: 4027855 - 4038204&lt;br&gt;&lt;br&gt;&lt;b&gt;BlastP hit with CHAFR746836_0081180.1&lt;/b&gt;&lt;br&gt;Percentage identity: 32%&lt;br&gt;Percentage coverage: 47%&lt;br&gt;BLAST bit score: 474&lt;br&gt;E-value: 2e-133" locus_tag="Hoch_2954" id="clusterblast-1_h13_7_16" points="161,85 166,80 214,80 214,90 166,90 161,85 " class="clusterblast-orf"  />
<polygon style="stroke:black; stroke-width:1; fill:rgb(63,63,190); " description="6-deoxyerythronolide-B_synthase[br]Location: 4038201 - 4043804&lt;br&gt;&lt;br&gt;&lt;b&gt;BlastP hit with CHAFR746836_0081180.1&lt;/b&gt;&lt;br&gt;Percentage identity: 31%&lt;br&gt;Percentage coverage: 48%&lt;br&gt;BLAST bit score: 473&lt;br&gt;E-value: 1e-134" locus_tag="Hoch_2955" id="clusterblast-1_h13_7_17" points="214,85 219,80 243,80 243,90 219,90 214,85 " class="clusterblast-orf"  />
<polygon style="stroke:black; stroke-width:1; fill:rgb(63,63,190); " description="KR_domain_protein[br]Location: 4043794 - 4055586&lt;br&gt;&lt;br&gt;&lt;b&gt;BlastP hit with CHAFR746836_0081180.1&lt;/b&gt;&lt;br&gt;Percentage identity: 31%&lt;br&gt;Percentage coverage: 48%&lt;br&gt;BLAST bit score: 468&lt;br&gt;E-value: 1e-131" locus_tag="Hoch_2956" id="clusterblast-1_h13_7_18" points="243,85 248,80 304,80 304,90 248,90 243,85 " class="clusterblast-orf"  />
<polygon style="stroke:black; stroke-width:1; fill:#FFFFFF; " description="amino_acid_adenylation_domain_protein[br]Location: 4055634 - 4070282" locus_tag="Hoch_2957" id="clusterblast-1_h13_7_19" points="304,85 309,80 379,80 379,90 309,90 304,85 " class="clusterblast-orf"  />
<polygon style="stroke:black; stroke-width:1; fill:#FFFFFF; " description="hypothetical_protein[br]Location: 4070340 - 4071104" locus_tag="Hoch_2958" id="clusterblast-1_h13_7_20" points="379,90 383,85 379,80 379,90 " class="clusterblast-orf"  />
<polygon style="stroke:black; stroke-width:1; fill:#FFFFFF; " description="hypothetical_protein[br]Location: 4071155 - 4072222" locus_tag="Hoch_2959" id="clusterblast-1_h13_7_21" points="384,85 389,80 389,80 389,90 389,90 384,85 " class="clusterblast-orf"  />
<polygon style="stroke:black; stroke-width:1; fill:#FFFFFF; " description="putative_transposase[br]Location: 4072548 - 4073537" locus_tag="Hoch_2960" id="clusterblast-1_h13_7_22" points="391,85 396,80 396,80 396,90 396,90 391,85 " class="clusterblast-orf"  />
<polygon style="stroke:black; stroke-width:1; fill:#FFFFFF; " description="Alpha-tubulin_suppressor_and_related_RCC1[br]Location: 4073606 - 4074586" locus_tag="Hoch_2961" id="clusterblast-1_h13_7_23" points="396,85 401,80 401,80 401,90 401,90 396,85 " class="clusterblast-orf"  />
<polygon style="stroke:black; stroke-width:1; fill:#FFFFFF; " description="hypothetical_protein[br]Location: 4074780 - 4075976" locus_tag="Hoch_2963" id="clusterblast-1_h13_7_24" points="402,85 407,80 408,80 408,90 407,90 402,85 " class="clusterblast-orf"  />
<polygon style="stroke:black; stroke-width:1; fill:#FFFFFF; " description="transposase_IS3/IS911_family_protein[br]Location: 4077124 - 4077444" locus_tag="Hoch_2965" id="clusterblast-1_h13_7_25" points="414,85 416,80 416,90 414,85 " class="clusterblast-orf"  />
<polygon style="stroke:black; stroke-width:1; fill:rgb(190,63,190); " description="cytochrome_P450[br]Location: 4077615 - 4079042&lt;br&gt;&lt;br&gt;&lt;b&gt;BlastP hit with CHAFR746836_0081210.1&lt;/b&gt;&lt;br&gt;Percentage identity: 31%&lt;br&gt;Percentage coverage: 28%&lt;br&gt;BLAST bit score: 70&lt;br&gt;E-value: 1e-11" locus_tag="Hoch_2966" id="clusterblast-1_h13_7_26" points="417,90 419,90 424,85 419,80 417,80 417,90 " class="clusterblast-orf"  />
<polygon style="stroke:black; stroke-width:1; fill:#FFFFFF; " description="cytochrome_P450[br]Location: 4079133 - 4080437" locus_tag="Hoch_2967" id="clusterblast-1_h13_7_27" points="425,90 426,90 431,85 426,80 425,80 425,90 " class="clusterblast-orf"  />
<polygon style="stroke:black; stroke-width:1; fill:rgb(63,63,190); " description="6-deoxyerythronolide-B_synthase[br]Location: 4080451 - 4086180&lt;br&gt;&lt;br&gt;&lt;b&gt;BlastP hit with CHAFR746836_0081180.1&lt;/b&gt;&lt;br&gt;Percentage identity: 35%&lt;br&gt;Percentage coverage: 42%&lt;br&gt;BLAST bit score: 487&lt;br&gt;E-value: 4e-139" locus_tag="Hoch_2968" id="clusterblast-1_h13_7_28" points="431,85 436,80 461,80 461,90 436,90 431,85 " class="clusterblast-orf"  />
<polygon style="stroke:black; stroke-width:1; fill:rgb(63,63,190); " description="Acyl_transferase[br]Location: 4086184 - 4096467&lt;br&gt;&lt;br&gt;&lt;b&gt;BlastP hit with CHAFR746836_0081180.1&lt;/b&gt;&lt;br&gt;Percentage identity: 35%&lt;br&gt;Percentage coverage: 36%&lt;br&gt;BLAST bit score: 449&lt;br&gt;E-value: 1e-125" locus_tag="Hoch_2969" id="clusterblast-1_h13_7_29" points="461,85 466,80 514,80 514,90 466,90 461,85 " class="clusterblast-orf"  />
<polygon style="stroke:black; stroke-width:1; fill:rgb(63,63,190); " description="Beta-ketoacyl_synthase[br]Location: 4096860 - 4102385&lt;br&gt;&lt;br&gt;&lt;b&gt;BlastP hit with CHAFR746836_0081180.1&lt;/b&gt;&lt;br&gt;Percentage identity: 35%&lt;br&gt;Percentage coverage: 26%&lt;br&gt;BLAST bit score: 325&lt;br&gt;E-value: 3e-88" locus_tag="Hoch_2970" id="clusterblast-1_h13_7_30" points="516,90 539,90 544,85 539,80 516,80 516,90 " class="clusterblast-orf"  />
<polygon style="stroke:black; stroke-width:1; fill:rgb(63,63,190); " description="3-oxoacyl-(acyl-carrier-protein)_reductase.,_6-[br]Location: 4102462 - 4112736&lt;br&gt;&lt;br&gt;&lt;b&gt;BlastP hit with CHAFR746836_0081180.1&lt;/b&gt;&lt;br&gt;Percentage identity: 35%&lt;br&gt;Percentage coverage: 40%&lt;br&gt;BLAST bit score: 449&lt;br&gt;E-value: 1e-125" locus_tag="Hoch_2971" id="clusterblast-1_h13_7_31" points="544,90 592,90 597,85 592,80 544,80 544,90 " class="clusterblast-orf"  />
<polygon style="stroke:black; stroke-width:1; fill:rgb(63,63,190); " description="6-deoxyerythronolide-B_synthase[br]Location: 4112758 - 4119168&lt;br&gt;&lt;br&gt;&lt;b&gt;BlastP hit with CHAFR746836_0081180.1&lt;/b&gt;&lt;br&gt;Percentage identity: 35%&lt;br&gt;Percentage coverage: 41%&lt;br&gt;BLAST bit score: 476&lt;br&gt;E-value: 5e-135" locus_tag="Hoch_2972" id="clusterblast-1_h13_7_32" points="597,90 625,90 630,85 625,80 597,80 597,90 " class="clusterblast-orf"  />
<polygon style="stroke:black; stroke-width:1; fill:#FFFFFF; " description="cytochrome_P450[br]Location: 4119152 - 4120555" locus_tag="Hoch_2973" id="clusterblast-1_h13_7_33" points="630,90 632,90 637,85 632,80 630,80 630,90 " class="clusterblast-orf"  />
<polygon style="stroke:black; stroke-width:1; fill:rgb(63,63,190); " description="6-deoxyerythronolide-B_synthase.,_(Acyl-carrier-[br]Location: 4120552 - 4128711&lt;br&gt;&lt;br&gt;&lt;b&gt;BlastP hit with CHAFR746836_0081180.1&lt;/b&gt;&lt;br&gt;Percentage identity: 35%&lt;br&gt;Percentage coverage: 34%&lt;br&gt;BLAST bit score: 420&lt;br&gt;E-value: 8e-117" locus_tag="Hoch_2974" id="clusterblast-1_h13_7_34" points="637,90 674,90 679,85 674,80 637,80 637,90 " class="clusterblast-orf"  />
<polygon style="stroke:black; stroke-width:1; fill:#FFFFFF; " description="monooxygenase_FAD-binding_protein[br]Location: 4128717 - 4130237" locus_tag="Hoch_2975" id="clusterblast-1_h13_7_35" points="679,90 682,90 687,85 682,80 679,80 679,90 " class="clusterblast-orf"  />
<polygon style="stroke:black; stroke-width:1; fill:#FFFFFF; " description="hypothetical_protein[br]Location: 4131175 - 4131411" locus_tag="Hoch_2977" id="clusterblast-1_h13_7_36" points="692,85 693,80 693,90 692,85 " class="clusterblast-orf"  />
<polygon style="stroke:black; stroke-width:1; fill:#FFFFFF; " description="hypothetical_protein[br]Location: 4131494 - 4133038" locus_tag="Hoch_2978" id="clusterblast-1_h13_7_37" points="694,85 699,80 702,80 702,90 699,90 694,85 " class="clusterblast-orf"  />
<polygon style="stroke:black; stroke-width:1; fill:#FFFFFF; " description="fatty_acid_desaturase[br]Location: 4133247 - 4134347" locus_tag="Hoch_2979" id="clusterblast-1_h13_7_38" points="703,85 708,80 708,80 708,90 708,90 703,85 " class="clusterblast-orf"  />
<polygon style="stroke:black; stroke-width:1; fill:#FFFFFF; " description="transcriptional_regulator,_AraC_family[br]Location: 4136572 - 4137513" locus_tag="Hoch_2982" id="clusterblast-1_h13_7_39" points="720,85 724,80 724,90 720,85 " class="clusterblast-orf"  />
<polygon style="stroke:black; stroke-width:1; fill:#FFFFFF; " description="phenazine_biosynthesis_protein[br]Location: 4137611 - 4138006" locus_tag="Hoch_2983" id="clusterblast-1_h13_7_40" points="725,90 727,85 725,80 725,90 " class="clusterblast-orf"  />
<polygon style="stroke:black; stroke-width:1; fill:#FFFFFF; " description="NmrA_family_protein[br]Location: 4138003 - 4138878" locus_tag="Hoch_2984" id="clusterblast-1_h13_7_41" points="727,90 727,90 732,85 727,80 727,80 727,90 " class="clusterblast-orf"  />
<polygon style="stroke:black; stroke-width:1; fill:#FFFFFF; " description="hypothetical_protein[br]Location: 4139211 - 4139501" locus_tag="Hoch_2985" id="clusterblast-1_h13_7_42" points="733,90 735,85 733,80 733,90 " class="clusterblast-orf"  />
<polygon style="stroke:black; stroke-width:1; fill:#FFFFFF; " description="hypothetical_protein[br]Location: 4140168 - 4140371" locus_tag="Hoch_2987" id="clusterblast-1_h13_7_43" points="738,90 739,85 738,80 738,90 " class="clusterblast-orf"  />
<polygon style="stroke:black; stroke-width:1; fill:#FFFFFF; " description="hypothetical_protein[br]Location: 4140725 - 4141069" locus_tag="Hoch_2988" id="clusterblast-1_h13_7_44" points="741,90 743,85 741,80 741,90 " class="clusterblast-orf"  />
<polygon style="stroke:black; stroke-width:1; fill:#FFFFFF; " description="carbonic_anhydrase[br]Location: 4141179 - 4141982" locus_tag="Hoch_2989" id="clusterblast-1_h13_7_45" points="743,85 747,80 747,90 743,85 " class="clusterblast-orf"  />
<polygon style="stroke:black; stroke-width:1; fill:#FFFFFF; " description="hypothetical_protein[br]Location: 4142744 - 4143130" locus_tag="Hoch_2990" id="clusterblast-1_h13_7_46" points="751,90 753,85 751,80 751,90 " class="clusterblast-orf"  />
<polygon style="stroke:black; stroke-width:1; fill:#FFFFFF; " description="transcriptional_regulator,_LysR_family[br]Location: 4143072 - 4143974" locus_tag="Hoch_2991" id="clusterblast-1_h13_7_47" points="753,85 758,80 758,80 758,90 758,90 753,85 " class="clusterblast-orf"  />
<polygon style="stroke:black; stroke-width:1; fill:#FFFFFF; " description="sodium/calcium_exchanger_membrane_region[br]Location: 4144331 - 4145155" locus_tag="Hoch_2992" id="clusterblast-1_h13_7_48" points="760,90 764,85 760,80 760,90 " class="clusterblast-orf"  />
<polygon style="stroke:black; stroke-width:1; fill:#FFFFFF; " description="NmrA_family_protein[br]Location: 4145266 - 4146186" locus_tag="Hoch_2993" id="clusterblast-1_h13_7_49" points="764,85 769,80 769,80 769,90 769,90 764,85 " class="clusterblast-orf"  />
<polygon style="stroke:black; stroke-width:1; fill:#FFFFFF; " description="L-lactate_permease[br]Location: 4146183 - 4147829" locus_tag="Hoch_2994" id="clusterblast-1_h13_7_50" points="769,85 774,80 778,80 778,90 774,90 769,85 " class="clusterblast-orf"  />
</g>
</svg>
