<svg xmlns="http://www.w3.org/2000/svg" height="230" width="800" version="1.1" y="0" x="0" preserveAspectRatio="none" xmlns:xlink="http://www.w3.org/1999/xlink" viewBox="0 0 800 230"  >
<g class="clusterblast-cluster" label="Query sequence"  >
<text class="clusterblast-acc" y="10" x="5"  >
Query sequence</text>
<line y1="35" x2="778.0" style="stroke:grey; stroke-width:1; " x1="10" y2="35"  />
<polygon style="stroke:black; stroke-width:1; fill:#FFFFFF; " description="unannotated orf[br]Location: 526 - 1764" locus_tag="CHAFR746836_0049830.1" class="clusterblast-orf" points="10,35 15,30 30,30 30,40 15,40 10,35 " id="clusterblast-1_q61_1_0"  />
<polygon style="stroke:black; stroke-width:1; fill:#FFFFFF; " description="unannotated orf[br]Location: 2667 - 6069" locus_tag="CHAFR746836_0049840.1" class="clusterblast-orf" points="44,40 95,40 100,35 95,30 44,30 44,40 " id="clusterblast-1_q61_1_1"  />
<polygon style="stroke:black; stroke-width:1; fill:#FFFFFF; " description="unannotated orf[br]Location: 8378 - 11086" locus_tag="CHAFR746836_0049850.1" class="clusterblast-orf" points="138,35 143,30 182,30 182,40 143,40 138,35 " id="clusterblast-1_q61_1_2"  />
<polygon style="stroke:black; stroke-width:1; fill:red; " description="unannotated orf[br]Location: 12115 - 13475" locus_tag="CHAFR746836_0049860.1" class="clusterblast-orf" points="198,40 216,40 221,35 216,30 198,30 198,40 " id="clusterblast-1_q61_1_3"  />
<polygon style="stroke:black; stroke-width:1; fill:#FFFFFF; " description="unannotated orf[br]Location: 17223 - 18472" locus_tag="CHAFR746836_0049870.1" class="clusterblast-orf" points="282,40 297,40 302,35 297,30 282,30 282,40 " id="clusterblast-1_q61_1_4"  />
<polygon style="stroke:black; stroke-width:1; fill:#FFFFFF; " description="unannotated orf[br]Location: 19776 - 20599" locus_tag="CHAFR746836_0049880.1" class="clusterblast-orf" points="323,35 328,30 337,30 337,40 328,40 323,35 " id="clusterblast-1_q61_1_5"  />
<polygon style="stroke:black; stroke-width:1; fill:green; " description="unannotated orf[br]Location: 21414 - 28833" locus_tag="CHAFR746836_0049890.1" class="clusterblast-orf" points="350,35 355,30 471,30 471,40 355,40 350,35 " id="clusterblast-1_q61_1_6"  />
<polygon style="stroke:black; stroke-width:1; fill:blue; " description="unannotated orf[br]Location: 33502 - 34522" locus_tag="CHAFR746836_0049900.1" class="clusterblast-orf" points="547,40 559,40 564,35 559,30 547,30 547,40 " id="clusterblast-1_q61_1_7"  />
<polygon style="stroke:black; stroke-width:1; fill:#FFFFFF; " description="unannotated orf[br]Location: 35396 - 36560" locus_tag="CHAFR746836_0049910.1" class="clusterblast-orf" points="578,35 583,30 597,30 597,40 583,40 578,35 " id="clusterblast-1_q61_1_8"  />
<polygon style="stroke:black; stroke-width:1; fill:#FFFFFF; " description="unannotated orf[br]Location: 43480 - 44101" locus_tag="CHAFR746836_0049920.1" class="clusterblast-orf" points="710,35 715,30 720,30 720,40 715,40 710,35 " id="clusterblast-1_q61_1_9"  />
<polygon style="stroke:black; stroke-width:1; fill:#FFFFFF; " description="unannotated orf[br]Location: 46657 - 47620" locus_tag="CHAFR746836_0049930.1" class="clusterblast-orf" points="762,35 767,30 778,30 778,40 767,40 762,35 " id="clusterblast-1_q61_1_10"  />
</g>
<g class="clusterblast-cluster" description="Verticillium dahliae VdLs.17 supercont1.20 genomic scaffold,..." label="DS572714.1_c1"  >
<text class="clusterblast-acc" y="60" x="5"  >
DS572714.1_c1</text>
<text class="clusterblast-desc" y="60" x="460.8"  >
Verticillium dahliae VdLs.17 supercont1.20 genomic scaffold,...</text>
<line y1="85" x2="778.0" style="stroke:grey; stroke-width:1; " x1="10" y2="85"  />
<polygon style="stroke:black; stroke-width:1; fill:#FFFFFF; " description="zinc_finger_protein[br]Location: 495011 - 496489" locus_tag="VDAG_08452" id="clusterblast-1_h61_1_0" points="74,90 93,90 98,85 93,80 74,80 74,90 " class="clusterblast-orf"  />
<polygon style="stroke:black; stroke-width:1; fill:#FFFFFF; " description="hypothetical_protein[br]Location: 489422 - 489940" locus_tag="VDAG_08451" id="clusterblast-1_h61_1_1" points="180,85 185,80 189,80 189,90 185,90 180,85 " class="clusterblast-orf"  />
<polygon style="stroke:black; stroke-width:1; fill:#FFFFFF; " description="elongator_complex_protein[br]Location: 486187 - 488797" locus_tag="VDAG_08450" id="clusterblast-1_h61_1_2" points="199,90 237,90 242,85 237,80 199,80 199,90 " class="clusterblast-orf"  />
<polygon style="stroke:black; stroke-width:1; fill:#FFFFFF; " description="hypothetical_protein[br]Location: 485368 - 485787" locus_tag="VDAG_08449" id="clusterblast-1_h61_1_3" points="248,85 253,80 255,80 255,90 253,90 248,85 " class="clusterblast-orf"  />
<polygon style="stroke:black; stroke-width:1; fill:green; " description="lovastatin_nonaketide_synthase[br]Location: 477875 - 484921&lt;br&gt;&lt;br&gt;&lt;b&gt;BlastP hit with CHAFR746836_0049890.1&lt;/b&gt;&lt;br&gt;Percentage identity: 47%&lt;br&gt;Percentage coverage: 86%&lt;br&gt;BLAST bit score: 1893&lt;br&gt;E-value: 0.0" locus_tag="VDAG_08448" id="clusterblast-1_h61_1_4" points="262,85 267,80 377,80 377,90 267,90 262,85 " class="clusterblast-orf"  />
<polygon style="stroke:black; stroke-width:1; fill:blue; " description="hypothetical_protein[br]Location: 475077 - 476013&lt;br&gt;&lt;br&gt;&lt;b&gt;BlastP hit with CHAFR746836_0049900.1&lt;/b&gt;&lt;br&gt;Percentage identity: 48%&lt;br&gt;Percentage coverage: 96%&lt;br&gt;BLAST bit score: 241&lt;br&gt;E-value: 1e-77" locus_tag="VDAG_08447" id="clusterblast-1_h61_1_5" points="407,90 418,90 423,85 418,80 407,80 407,90 " class="clusterblast-orf"  />
<polygon style="stroke:black; stroke-width:1; fill:#FFFFFF; " description="multidrug_resistance_protein[br]Location: 469569 - 474381" locus_tag="VDAG_08446" id="clusterblast-1_h61_1_6" points="434,90 508,90 513,85 508,80 434,80 434,90 " class="clusterblast-orf"  />
<polygon style="stroke:black; stroke-width:1; fill:red; " description="actin[br]Location: 466404 - 467516&lt;br&gt;&lt;br&gt;&lt;b&gt;BlastP hit with CHAFR746836_0049860.1&lt;/b&gt;&lt;br&gt;Percentage identity: 44%&lt;br&gt;Percentage coverage: 65%&lt;br&gt;BLAST bit score: 221&lt;br&gt;E-value: 4e-68" locus_tag="VDAG_08445" id="clusterblast-1_h61_1_7" points="546,85 551,80 564,80 564,90 551,90 546,85 " class="clusterblast-orf"  />
<polygon style="stroke:black; stroke-width:1; fill:#FFFFFF; " description="Hsp70_nucleotide_exchange_factor_FES1[br]Location: 463348 - 463977" locus_tag="VDAG_08444" id="clusterblast-1_h61_1_8" points="604,90 609,90 614,85 609,80 604,80 604,90 " class="clusterblast-orf"  />
<polygon style="stroke:black; stroke-width:1; fill:#FFFFFF; " description="54S_ribosomal_protein_L7[br]Location: 461868 - 463047" locus_tag="VDAG_08443" id="clusterblast-1_h61_1_9" points="619,85 624,80 638,80 638,90 624,90 619,85 " class="clusterblast-orf"  />
<polygon style="stroke:black; stroke-width:1; fill:#FFFFFF; " description="ubiquitin_C-terminal_hydrolase[br]Location: 457337 - 459982" locus_tag="VDAG_08442" id="clusterblast-1_h61_1_10" points="669,90 707,90 712,85 707,80 669,80 669,90 " class="clusterblast-orf"  />
</g>
</svg>
