<svg xmlns="http://www.w3.org/2000/svg" height="230" width="800" version="1.1" y="0" x="0" preserveAspectRatio="none" xmlns:xlink="http://www.w3.org/1999/xlink" viewBox="0 0 800 230"  >
<g class="clusterblast-cluster" label="Query sequence"  >
<text class="clusterblast-acc" y="10" x="5"  >
Query sequence</text>
<line y1="35" x2="778.0" style="stroke:grey; stroke-width:1; " x1="10" y2="35"  />
<polygon style="stroke:black; stroke-width:1; fill:red; " description="unannotated orf[br]Location: 1639 - 3862" locus_tag="CHAFR746836_0009390.1" class="clusterblast-orf" points="16,40 60,40 65,35 60,30 16,30 16,40 " id="clusterblast-1_q30_5_0"  />
<polygon style="stroke:black; stroke-width:1; fill:#FFFFFF; " description="unannotated orf[br]Location: 4351 - 6763" locus_tag="CHAFR746836_0009400.1" class="clusterblast-orf" points="76,40 125,40 130,35 125,30 76,30 76,40 " id="clusterblast-1_q30_5_1"  />
<polygon style="stroke:black; stroke-width:1; fill:#FFFFFF; " description="unannotated orf[br]Location: 8433 - 9813" locus_tag="CHAFR746836_0009410.1" class="clusterblast-orf" points="168,40 194,40 199,35 194,30 168,30 168,40 " id="clusterblast-1_q30_5_2"  />
<polygon style="stroke:black; stroke-width:1; fill:#FFFFFF; " description="unannotated orf[br]Location: 10159 - 11305" locus_tag="CHAFR746836_0009420.1" class="clusterblast-orf" points="207,35 212,30 232,30 232,40 212,40 207,35 " id="clusterblast-1_q30_5_3"  />
<polygon style="stroke:black; stroke-width:1; fill:green; " description="unannotated orf[br]Location: 12094 - 15169" locus_tag="CHAFR746836_0009430.1" class="clusterblast-orf" points="250,35 255,30 319,30 319,40 255,40 250,35 " id="clusterblast-1_q30_5_4"  />
<polygon style="stroke:black; stroke-width:1; fill:blue; " description="unannotated orf[br]Location: 18460 - 19626" locus_tag="CHAFR746836_0009440.1" class="clusterblast-orf" points="393,35 398,30 419,30 419,40 398,40 393,35 " id="clusterblast-1_q30_5_5"  />
<polygon style="stroke:black; stroke-width:1; fill:yellow; " description="unannotated orf[br]Location: 21127 - 22798" locus_tag="CHAFR746836_0009450.1" class="clusterblast-orf" points="453,35 458,30 490,30 490,40 458,40 453,35 " id="clusterblast-1_q30_5_6"  />
<polygon style="stroke:black; stroke-width:1; fill:#FFFFFF; " description="unannotated orf[br]Location: 24451 - 25288" locus_tag="CHAFR746836_0009460.1" class="clusterblast-orf" points="527,35 532,30 546,30 546,40 532,40 527,35 " id="clusterblast-1_q30_5_7"  />
<polygon style="stroke:black; stroke-width:1; fill:#FFFFFF; " description="unannotated orf[br]Location: 26586 - 27329" locus_tag="CHAFR746836_0009470.1" class="clusterblast-orf" points="575,35 580,30 592,30 592,40 580,40 575,35 " id="clusterblast-1_q30_5_8"  />
<polygon style="stroke:black; stroke-width:1; fill:#FFFFFF; " description="unannotated orf[br]Location: 27584 - 28762" locus_tag="CHAFR746836_0009480.1" class="clusterblast-orf" points="598,40 619,40 624,35 619,30 598,30 598,40 " id="clusterblast-1_q30_5_9"  />
<polygon style="stroke:black; stroke-width:1; fill:#FFFFFF; " description="unannotated orf[br]Location: 28842 - 30026" locus_tag="CHAFR746836_0009490.1" class="clusterblast-orf" points="626,35 631,30 652,30 652,40 631,40 626,35 " id="clusterblast-1_q30_5_10"  />
<polygon style="stroke:black; stroke-width:1; fill:#FFFFFF; " description="unannotated orf[br]Location: 30391 - 33688" locus_tag="CHAFR746836_0009500.1" class="clusterblast-orf" points="660,40 729,40 734,35 729,30 660,30 660,40 " id="clusterblast-1_q30_5_11"  />
<polygon style="stroke:black; stroke-width:1; fill:#FFFFFF; " description="unannotated orf[br]Location: 34235 - 35268" locus_tag="CHAFR746836_0009510.1" class="clusterblast-orf" points="747,35 752,30 770,30 770,40 752,40 747,35 " id="clusterblast-1_q30_5_12"  />
</g>
<g class="clusterblast-cluster" description="Ajellomyces dermatitidis ER-3 genomic scaffold supercont1.15..." label="EQ999987.1_c1"  >
<text class="clusterblast-acc" y="60" x="5"  >
EQ999987.1_c1</text>
<text class="clusterblast-desc" y="60" x="460.8"  >
Ajellomyces dermatitidis ER-3 genomic scaffold supercont1.15...</text>
<line y1="85" x2="778.0" style="stroke:grey; stroke-width:1; " x1="10" y2="85"  />
<polygon style="stroke:black; stroke-width:1; fill:#FFFFFF; " description="histone-lysine_N-methyltransferase[br]Location: 683710 - 685498" locus_tag="BDCG_09394" id="clusterblast-1_h30_5_0" points="10,85 15,80 50,80 50,90 15,90 10,85 " class="clusterblast-orf"  />
<polygon style="stroke:black; stroke-width:1; fill:#FFFFFF; " description="bystin[br]Location: 687368 - 689053" locus_tag="BDCG_09395" id="clusterblast-1_h30_5_1" points="92,90 124,90 129,85 124,80 92,80 92,90 " class="clusterblast-orf"  />
<polygon style="stroke:black; stroke-width:1; fill:#FFFFFF; " description="SNF7_family_protein_Fti1/Did2[br]Location: 690091 - 690921" locus_tag="BDCG_09396" id="clusterblast-1_h30_5_2" points="153,85 158,80 171,80 171,90 158,90 153,85 " class="clusterblast-orf"  />
<polygon style="stroke:black; stroke-width:1; fill:#FFFFFF; " description="bZIP_transcription_factor_HacA[br]Location: 691870 - 693581" locus_tag="BDCG_09397" id="clusterblast-1_h30_5_3" points="193,85 198,80 231,80 231,90 198,90 193,85 " class="clusterblast-orf"  />
<polygon style="stroke:black; stroke-width:1; fill:#FFFFFF; " description="predicted_protein[br]Location: 696888 - 698114" locus_tag="BDCG_09398" id="clusterblast-1_h30_5_4" points="305,90 328,90 333,85 328,80 305,80 305,90 " class="clusterblast-orf"  />
<polygon style="stroke:black; stroke-width:1; fill:#FFFFFF; " description="predicted_protein[br]Location: 699757 - 700698" locus_tag="BDCG_09399" id="clusterblast-1_h30_5_5" points="369,90 386,90 391,85 386,80 369,80 369,90 " class="clusterblast-orf"  />
<polygon style="stroke:black; stroke-width:1; fill:#FFFFFF; " description="capsule_polysaccharide_biosynthesis_protein[br]Location: 701135 - 702328" locus_tag="BDCG_09400" id="clusterblast-1_h30_5_6" points="400,85 405,80 427,80 427,90 405,90 400,85 " class="clusterblast-orf"  />
<polygon style="stroke:black; stroke-width:1; fill:green; " description="antibiotic_synthetase[br]Location: 703326 - 706487&lt;br&gt;&lt;br&gt;&lt;b&gt;BlastP hit with CHAFR746836_0009430.1&lt;/b&gt;&lt;br&gt;Percentage identity: 56%&lt;br&gt;Percentage coverage: 99%&lt;br&gt;BLAST bit score: 1190&lt;br&gt;E-value: 0.0" locus_tag="BDCG_09401" id="clusterblast-1_h30_5_7" points="450,85 455,80 520,80 520,90 455,90 450,85 " class="clusterblast-orf"  />
<polygon style="stroke:black; stroke-width:1; fill:blue; " description="conserved_hypothetical_protein[br]Location: 707037 - 708263&lt;br&gt;&lt;br&gt;&lt;b&gt;BlastP hit with CHAFR746836_0009440.1&lt;/b&gt;&lt;br&gt;Percentage identity: 61%&lt;br&gt;Percentage coverage: 97%&lt;br&gt;BLAST bit score: 440&lt;br&gt;E-value: 3e-153" locus_tag="BDCG_09402" id="clusterblast-1_h30_5_8" points="533,90 555,90 560,85 555,80 533,80 533,90 " class="clusterblast-orf"  />
<polygon style="stroke:black; stroke-width:1; fill:#FFFFFF; " description="conserved_hypothetical_protein[br]Location: 709046 - 709896" locus_tag="BDCG_09403" id="clusterblast-1_h30_5_9" points="578,90 592,90 597,85 592,80 578,80 578,90 " class="clusterblast-orf"  />
<polygon style="stroke:black; stroke-width:1; fill:#FFFFFF; " description="phenol_monooxygenase[br]Location: 710855 - 712930" locus_tag="BDCG_09404" id="clusterblast-1_h30_5_10" points="618,90 660,90 665,85 660,80 618,80 618,90 " class="clusterblast-orf"  />
<polygon style="stroke:black; stroke-width:1; fill:#FFFFFF; " description="MFS_multidrug_transporter[br]Location: 713738 - 715498" locus_tag="BDCG_09405" id="clusterblast-1_h30_5_11" points="683,90 718,90 723,85 718,80 683,80 683,90 " class="clusterblast-orf"  />
<polygon style="stroke:black; stroke-width:1; fill:#FFFFFF; " description="conserved_hypothetical_protein[br]Location: 717016 - 717945" locus_tag="BDCG_09406" id="clusterblast-1_h30_5_12" points="757,90 773,90 778,85 773,80 757,80 757,90 " class="clusterblast-orf"  />
</g>
</svg>
