<svg xmlns="http://www.w3.org/2000/svg" height="230" width="800" version="1.1" y="0" x="0" preserveAspectRatio="none" xmlns:xlink="http://www.w3.org/1999/xlink" viewBox="0 0 800 230"  >
<g class="clusterblast-cluster" label="Query sequence"  >
<text class="clusterblast-acc" y="10" x="5"  >
Query sequence</text>
<line y1="35" x2="778.0" style="stroke:grey; stroke-width:1; " x1="10" y2="35"  />
<polygon style="stroke:black; stroke-width:1; fill:rgb(190,63,63); " description="unannotated orf[br]Location: 207 - 1204" locus_tag="CHAFR746836_0060940.1" class="clusterblast-orf" points="10,35 15,30 19,30 19,40 15,40 10,35 " id="clusterblast-2_q5_9_0"  />
<polygon style="stroke:black; stroke-width:1; fill:rgb(63,63,190); " description="unannotated orf[br]Location: 2322 - 6530" locus_tag="CHAFR746836_0060950.1" class="clusterblast-orf" points="29,40 64,40 69,35 64,30 29,30 29,40 " id="clusterblast-2_q5_9_1"  />
<polygon style="stroke:black; stroke-width:1; fill:rgb(63,190,63); " description="unannotated orf[br]Location: 10116 - 15324" locus_tag="CHAFR746836_0060960.1" class="clusterblast-orf" points="103,40 147,40 152,35 147,30 103,30 103,40 " id="clusterblast-2_q5_9_2"  />
<polygon style="stroke:black; stroke-width:1; fill:#FFFFFF; " description="unannotated orf[br]Location: 16383 - 17532" locus_tag="CHAFR746836_0060970.1" class="clusterblast-orf" points="162,35 167,30 173,30 173,40 167,40 162,35 " id="clusterblast-2_q5_9_3"  />
<polygon style="stroke:black; stroke-width:1; fill:#FFFFFF; " description="unannotated orf[br]Location: 21187 - 23857" locus_tag="CHAFR746836_0060980.1" class="clusterblast-orf" points="207,35 212,30 232,30 232,40 212,40 207,35 " id="clusterblast-2_q5_9_4"  />
<polygon style="stroke:black; stroke-width:1; fill:#FFFFFF; " description="unannotated orf[br]Location: 25860 - 27618" locus_tag="CHAFR746836_0060990.1" class="clusterblast-orf" points="251,35 256,30 268,30 268,40 256,40 251,35 " id="clusterblast-2_q5_9_5"  />
<polygon style="stroke:black; stroke-width:1; fill:#FFFFFF; " description="unannotated orf[br]Location: 28662 - 29973" locus_tag="CHAFR746836_0061000.1" class="clusterblast-orf" points="277,35 282,30 290,30 290,40 282,40 277,35 " id="clusterblast-2_q5_9_6"  />
<polygon style="stroke:black; stroke-width:1; fill:#FFFFFF; " description="unannotated orf[br]Location: 31849 - 32962" locus_tag="CHAFR746836_0061010.1" class="clusterblast-orf" points="307,35 312,30 318,30 318,40 312,40 307,35 " id="clusterblast-2_q5_9_7"  />
<polygon style="stroke:black; stroke-width:1; fill:#FFFFFF; " description="unannotated orf[br]Location: 35346 - 36469" locus_tag="CHAFR746836_0061020.1" class="clusterblast-orf" points="340,40 346,40 351,35 346,30 340,30 340,40 " id="clusterblast-2_q5_9_8"  />
<polygon style="stroke:black; stroke-width:1; fill:rgb(190,63,190); " description="unannotated orf[br]Location: 38122 - 39903" locus_tag="CHAFR746836_0061030.1" class="clusterblast-orf" points="366,40 378,40 383,35 378,30 366,30 366,40 " id="clusterblast-2_q5_9_9"  />
<polygon style="stroke:black; stroke-width:1; fill:#FFFFFF; " description="unannotated orf[br]Location: 40585 - 42854" locus_tag="CHAFR746836_0061040.1" class="clusterblast-orf" points="390,35 395,30 411,30 411,40 395,40 390,35 " id="clusterblast-2_q5_9_10"  />
<polygon style="stroke:black; stroke-width:1; fill:rgb(190,190,63); " description="unannotated orf[br]Location: 52799 - 56938" locus_tag="CHAFR746836_0061050.1" class="clusterblast-orf" points="505,35 510,30 544,30 544,40 510,40 505,35 " id="clusterblast-2_q5_9_11"  />
<polygon style="stroke:black; stroke-width:1; fill:#FFFFFF; " description="unannotated orf[br]Location: 58138 - 58734" locus_tag="CHAFR746836_0061060.1" class="clusterblast-orf" points="555,40 555,40 560,35 555,30 555,30 555,40 " id="clusterblast-2_q5_9_12"  />
<polygon style="stroke:black; stroke-width:1; fill:#FFFFFF; " description="unannotated orf[br]Location: 74060 - 75703" locus_tag="CHAFR746836_0061070.1" class="clusterblast-orf" points="705,40 715,40 720,35 715,30 705,30 705,40 " id="clusterblast-2_q5_9_13"  />
<polygon style="stroke:black; stroke-width:1; fill:rgb(190,190,190); " description="unannotated orf[br]Location: 80197 - 81757" locus_tag="CHAFR746836_0061080.2" class="clusterblast-orf" points="762,40 772,40 777,35 772,30 762,30 762,40 " id="clusterblast-2_q5_9_14"  />
<polygon style="stroke:black; stroke-width:1; fill:rgb(63,190,190); " description="unannotated orf[br]Location: 80197 - 81797" locus_tag="CHAFR746836_0061080.1" class="clusterblast-orf" points="762,40 773,40 778,35 773,30 762,30 762,40 " id="clusterblast-2_q5_9_15"  />
</g>
<g class="clusterblast-cluster" description="Neurospora crassa DNA linkage group II BAC contig B13B3." label="BX284762.1_c1"  >
<text class="clusterblast-acc" y="60" x="5"  >
BX284762.1_c1</text>
<text class="clusterblast-desc" y="60" x="460.8"  >
Neurospora crassa DNA linkage group II BAC contig B13B3.</text>
<line y1="85" x2="778.0" style="stroke:grey; stroke-width:1; " x1="10" y2="85"  />
<polygon style="stroke:black; stroke-width:1; fill:#FFFFFF; " description="related_to_RNA-directed_RNA_polymerase[br]Location: 40491 - 44669" locus_tag="CAD70515.1" id="clusterblast-2_h5_9_0" points="207,90 241,90 246,85 241,80 207,80 207,90 " class="clusterblast-orf"  />
<polygon style="stroke:black; stroke-width:1; fill:#FFFFFF; " description="related_to_3-OXOADIPATE_ENOL-LACTONASE_I[br]Location: 37392 - 39050" locus_tag="CAD70514.1" id="clusterblast-2_h5_9_1" points="259,90 270,90 275,85 270,80 259,80 259,90 " class="clusterblast-orf"  />
<polygon style="stroke:black; stroke-width:1; fill:#FFFFFF; " description="conserved_hypothetical_protein[br]Location: 36412 - 37079" locus_tag="CAD70513.1" id="clusterblast-2_h5_9_2" points="278,85 283,80 284,80 284,90 283,90 278,85 " class="clusterblast-orf"  />
<polygon style="stroke:black; stroke-width:1; fill:#FFFFFF; " description="conserved_hypothetical_protein[br]Location: 35448 - 35878" locus_tag="CAD70512.1" id="clusterblast-2_h5_9_3" points="289,85 293,80 293,90 289,85 " class="clusterblast-orf"  />
<polygon style="stroke:black; stroke-width:1; fill:rgb(63,63,190); " description="related_to_multidrug_resistance_protein[br]Location: 29751 - 34054&lt;br&gt;&lt;br&gt;&lt;b&gt;BlastP hit with CHAFR746836_0060950.1&lt;/b&gt;&lt;br&gt;Percentage identity: 58%&lt;br&gt;Percentage coverage: 98%&lt;br&gt;BLAST bit score: 1538&lt;br&gt;E-value: 0.0" locus_tag="CAD70511.1" id="clusterblast-2_h5_9_4" points="306,85 311,80 347,80 347,90 311,90 306,85 " class="clusterblast-orf"  />
<polygon style="stroke:black; stroke-width:1; fill:rgb(190,63,63); " description="conserved_hypothetical_protein[br]Location: 26706 - 27567&lt;br&gt;&lt;br&gt;&lt;b&gt;BlastP hit with CHAFR746836_0060940.1&lt;/b&gt;&lt;br&gt;Percentage identity: 51%&lt;br&gt;Percentage coverage: 75%&lt;br&gt;BLAST bit score: 200&lt;br&gt;E-value: 1e-61" locus_tag="CAD70510.1" id="clusterblast-2_h5_9_5" points="367,85 372,80 376,80 376,90 372,90 367,85 " class="clusterblast-orf"  />
<polygon style="stroke:black; stroke-width:1; fill:rgb(63,190,63); " description="related_to_AM-toxin_synthetase_(AMT)[br]Location: 18460 - 24617&lt;br&gt;&lt;br&gt;&lt;b&gt;BlastP hit with CHAFR746836_0060960.1&lt;/b&gt;&lt;br&gt;Percentage identity: 50%&lt;br&gt;Percentage coverage: 105%&lt;br&gt;BLAST bit score: 1717&lt;br&gt;E-value: 0.0&lt;br&gt;&lt;br&gt;&lt;b&gt;BlastP hit with CHAFR746836_0061050.1&lt;/b&gt;&lt;br&gt;Percentage identity: 33%&lt;br&gt;Percentage coverage: 45%&lt;br&gt;BLAST bit score: 301&lt;br&gt;E-value: 3e-82" locus_tag="CAD70509.1" id="clusterblast-2_h5_9_6" points="395,90 448,90 453,85 448,80 395,80 395,90 " class="clusterblast-orf"  />
<polygon style="stroke:black; stroke-width:1; fill:#FFFFFF; " description="hypothetical_protein[br]Location: 16797 - 17552" locus_tag="CAD70508.1" id="clusterblast-2_h5_9_7" points="462,90 464,90 469,85 464,80 462,80 462,90 " class="clusterblast-orf"  />
<polygon style="stroke:black; stroke-width:1; fill:#FFFFFF; " description="related_to_transcription_activator[br]Location: 12653 - 15824" locus_tag="CAD70507.1" id="clusterblast-2_h5_9_8" points="478,85 483,80 508,80 508,90 483,90 478,85 " class="clusterblast-orf"  />
<polygon style="stroke:black; stroke-width:1; fill:#FFFFFF; " description="conserved_hypothetical_protein[br]Location: 5038 - 6880" locus_tag="CAD70506.1" id="clusterblast-2_h5_9_9" points="562,85 567,80 580,80 580,90 567,90 562,85 " class="clusterblast-orf"  />
</g>
</svg>
