<svg xmlns="http://www.w3.org/2000/svg" height="230" width="800" version="1.1" y="0" x="0" preserveAspectRatio="none" xmlns:xlink="http://www.w3.org/1999/xlink" viewBox="0 0 800 230"  >
<g class="clusterblast-cluster" label="Query sequence"  >
<text class="clusterblast-acc" y="10" x="5"  >
Query sequence</text>
<line y1="35" x2="778.0" style="stroke:grey; stroke-width:1; " x1="10" y2="35"  />
<polygon style="stroke:black; stroke-width:1; fill:#FFFFFF; " description="unannotated orf[br]Location: 4785 - 7296" locus_tag="CHAFR746836_0016870.1" class="clusterblast-orf" points="10,35 15,30 62,30 62,40 15,40 10,35 " id="clusterblast-1_q37_1_0"  />
<polygon style="stroke:black; stroke-width:1; fill:rgb(190,63,63); " description="unannotated orf[br]Location: 11527 - 13401" locus_tag="CHAFR746836_0016880.1" class="clusterblast-orf" points="149,35 154,30 188,30 188,40 154,40 149,35 " id="clusterblast-1_q37_1_1"  />
<polygon style="stroke:black; stroke-width:1; fill:rgb(63,63,190); " description="unannotated orf[br]Location: 16270 - 24285" locus_tag="CHAFR746836_0016890.1" class="clusterblast-orf" points="248,40 409,40 414,35 409,30 248,30 248,40 " id="clusterblast-1_q37_1_2"  />
<polygon style="stroke:black; stroke-width:1; fill:#FFFFFF; " description="unannotated orf[br]Location: 25847 - 26609" locus_tag="CHAFR746836_0016900.1" class="clusterblast-orf" points="447,35 452,30 462,30 462,40 452,40 447,35 " id="clusterblast-1_q37_1_3"  />
<polygon style="stroke:black; stroke-width:1; fill:rgb(63,190,63); " description="unannotated orf[br]Location: 27271 - 28737" locus_tag="CHAFR746836_0016910.1" class="clusterblast-orf" points="476,40 502,40 507,35 502,30 476,30 476,40 " id="clusterblast-1_q37_1_4"  />
<polygon style="stroke:black; stroke-width:1; fill:#FFFFFF; " description="unannotated orf[br]Location: 31240 - 32999" locus_tag="CHAFR746836_0016920.1" class="clusterblast-orf" points="559,40 590,40 595,35 590,30 559,30 559,40 " id="clusterblast-1_q37_1_5"  />
<polygon style="stroke:black; stroke-width:1; fill:#FFFFFF; " description="unannotated orf[br]Location: 33897 - 34787" locus_tag="CHAFR746836_0016930.1" class="clusterblast-orf" points="614,35 619,30 632,30 632,40 619,40 614,35 " id="clusterblast-1_q37_1_6"  />
<polygon style="stroke:black; stroke-width:1; fill:rgb(190,63,190); " description="unannotated orf[br]Location: 37376 - 38107" locus_tag="CHAFR746836_0016940.1" class="clusterblast-orf" points="686,35 691,30 701,30 701,40 691,40 686,35 " id="clusterblast-1_q37_1_7"  />
<polygon style="stroke:black; stroke-width:1; fill:rgb(190,190,63); " description="unannotated orf[br]Location: 39886 - 41791" locus_tag="CHAFR746836_0016950.1" class="clusterblast-orf" points="738,35 743,30 778,30 778,40 743,40 738,35 " id="clusterblast-1_q37_1_8"  />
</g>
<g class="clusterblast-cluster" description="Alternaria brassicicola strain MUCL 202097 depudecin gene cl..." label="FJ977165.1_c1"  >
<text class="clusterblast-acc" y="60" x="5"  >
FJ977165.1_c1</text>
<text class="clusterblast-desc" y="60" x="460.8"  >
Alternaria brassicicola strain MUCL 202097 depudecin gene cl...</text>
<line y1="85" x2="778.0" style="stroke:grey; stroke-width:1; " x1="10" y2="85"  />
<polygon style="stroke:black; stroke-width:1; fill:#FFFFFF; " description="hypothetical_protein[br]Location: 1268 - 2377" locus_tag="ACZ57550.1" id="clusterblast-1_h37_1_0" points="181,85 186,80 204,80 204,90 186,90 181,85 " class="clusterblast-orf"  />
<polygon style="stroke:black; stroke-width:1; fill:rgb(63,190,63); " description="predicted_monooxygenase[br]Location: 2841 - 4622&lt;br&gt;&lt;br&gt;&lt;b&gt;BlastP hit with CHAFR746836_0016910.1&lt;/b&gt;&lt;br&gt;Percentage identity: 37%&lt;br&gt;Percentage coverage: 94%&lt;br&gt;BLAST bit score: 301&lt;br&gt;E-value: 2e-94" locus_tag="ACZ57545.1" id="clusterblast-1_h37_1_1" points="213,90 245,90 250,85 245,80 213,80 213,90 " class="clusterblast-orf"  />
<polygon style="stroke:black; stroke-width:1; fill:rgb(190,190,63); " description="predicted_MFS_transporter[br]Location: 5198 - 7358&lt;br&gt;&lt;br&gt;&lt;b&gt;BlastP hit with CHAFR746836_0016950.1&lt;/b&gt;&lt;br&gt;Percentage identity: 53%&lt;br&gt;Percentage coverage: 95%&lt;br&gt;BLAST bit score: 583&lt;br&gt;E-value: 0.0" locus_tag="ACZ57546.1" id="clusterblast-1_h37_1_2" points="262,85 267,80 307,80 307,90 267,90 262,85 " class="clusterblast-orf"  />
<polygon style="stroke:black; stroke-width:1; fill:rgb(190,63,63); " description="predicted_monooxygenase[br]Location: 7885 - 9848&lt;br&gt;&lt;br&gt;&lt;b&gt;BlastP hit with CHAFR746836_0016880.1&lt;/b&gt;&lt;br&gt;Percentage identity: 47%&lt;br&gt;Percentage coverage: 106%&lt;br&gt;BLAST bit score: 530&lt;br&gt;E-value: 0.0" locus_tag="ACZ57547.1" id="clusterblast-1_h37_1_3" points="318,85 323,80 359,80 359,90 323,90 318,85 " class="clusterblast-orf"  />
<polygon style="stroke:black; stroke-width:1; fill:rgb(63,63,190); " description="polyketide_synthase[br]Location: 11125 - 18528&lt;br&gt;&lt;br&gt;&lt;b&gt;BlastP hit with CHAFR746836_0016890.1&lt;/b&gt;&lt;br&gt;Percentage identity: 52%&lt;br&gt;Percentage coverage: 100%&lt;br&gt;BLAST bit score: 2388&lt;br&gt;E-value: 0.0" locus_tag="ACZ57548.1" id="clusterblast-1_h37_1_4" points="385,90 534,90 539,85 534,80 385,80 385,90 " class="clusterblast-orf"  />
<polygon style="stroke:black; stroke-width:1; fill:#FFFFFF; " description="predicted_transcription_factor[br]Location: 19449 - 21753" locus_tag="ACZ57549.1" id="clusterblast-1_h37_1_5" points="558,85 563,80 606,80 606,90 563,90 558,85 " class="clusterblast-orf"  />
</g>
</svg>
