<svg xmlns="http://www.w3.org/2000/svg" height="230" width="800" version="1.1" y="0" x="0" preserveAspectRatio="none" xmlns:xlink="http://www.w3.org/1999/xlink" viewBox="0 0 800 230"  >
<g class="clusterblast-cluster" label="Query sequence"  >
<text class="clusterblast-acc" y="10" x="5"  >
Query sequence</text>
<line y1="35" x2="778.0" style="stroke:grey; stroke-width:1; " x1="10" y2="35"  />
<polygon style="stroke:black; stroke-width:1; fill:rgb(190,63,63); " description="unannotated orf[br]Location: 272 - 1577" locus_tag="CHAFR746836_0058790.1" class="clusterblast-orf" points="67,40 71,40 76,35 71,30 67,30 67,40 " id="clusterblast-1_q3_1_0"  />
<polygon style="stroke:black; stroke-width:1; fill:#FFFFFF; " description="unannotated orf[br]Location: 1879 - 3966" locus_tag="CHAFR746836_0058800.1" class="clusterblast-orf" points="78,35 83,30 93,30 93,40 83,40 78,35 " id="clusterblast-1_q3_1_1"  />
<polygon style="stroke:black; stroke-width:1; fill:rgb(63,63,190); " description="unannotated orf[br]Location: 20578 - 22096" locus_tag="CHAFR746836_0058810.1" class="clusterblast-orf" points="213,35 218,30 224,30 224,40 218,40 213,35 " id="clusterblast-1_q3_1_2"  />
<polygon style="stroke:black; stroke-width:1; fill:rgb(63,190,63); " description="unannotated orf[br]Location: 25478 - 26482" locus_tag="CHAFR746836_0058820.1" class="clusterblast-orf" points="249,40 251,40 256,35 251,30 249,30 249,40 " id="clusterblast-1_q3_1_3"  />
<polygon style="stroke:black; stroke-width:1; fill:#FFFFFF; " description="unannotated orf[br]Location: 45229 - 46910" locus_tag="CHAFR746836_0058830.1" class="clusterblast-orf" points="392,40 399,40 404,35 399,30 392,30 392,40 " id="clusterblast-1_q3_1_4"  />
<polygon style="stroke:black; stroke-width:1; fill:#FFFFFF; " description="unannotated orf[br]Location: 51364 - 52222" locus_tag="CHAFR746836_0058840.1" class="clusterblast-orf" points="436,35 441,30 442,30 442,40 441,40 436,35 " id="clusterblast-1_q3_1_5"  />
<polygon style="stroke:black; stroke-width:1; fill:#FFFFFF; " description="unannotated orf[br]Location: 53027 - 54066" locus_tag="CHAFR746836_0058850.1" class="clusterblast-orf" points="448,40 451,40 456,35 451,30 448,30 448,40 " id="clusterblast-1_q3_1_6"  />
<polygon style="stroke:black; stroke-width:1; fill:rgb(190,63,190); " description="unannotated orf[br]Location: 55805 - 57189" locus_tag="CHAFR746836_0058860.1" class="clusterblast-orf" points="468,35 473,30 478,30 478,40 473,40 468,35 " id="clusterblast-1_q3_1_7"  />
<polygon style="stroke:black; stroke-width:1; fill:rgb(190,190,63); " description="unannotated orf[br]Location: 62252 - 71057" locus_tag="CHAFR746836_0058870.1" class="clusterblast-orf" points="515,40 574,40 579,35 574,30 515,30 515,40 " id="clusterblast-1_q3_1_8"  />
<polygon style="stroke:black; stroke-width:1; fill:#FFFFFF; " description="unannotated orf[br]Location: 72245 - 73215" locus_tag="CHAFR746836_0058880.1" class="clusterblast-orf" points="587,35 592,30 594,30 594,40 592,40 587,35 " id="clusterblast-1_q3_1_9"  />
<polygon style="stroke:black; stroke-width:1; fill:#FFFFFF; " description="unannotated orf[br]Location: 78567 - 79753" locus_tag="CHAFR746836_0058890.1" class="clusterblast-orf" points="633,35 638,30 641,30 641,40 638,40 633,35 " id="clusterblast-1_q3_1_10"  />
<polygon style="stroke:black; stroke-width:1; fill:#FFFFFF; " description="unannotated orf[br]Location: 89948 - 90559" locus_tag="CHAFR746836_0058900.1" class="clusterblast-orf" points="715,40 715,40 720,35 715,30 715,30 715,40 " id="clusterblast-1_q3_1_11"  />
</g>
<g class="clusterblast-cluster" description="Aspergillus niger ATCC 1015, whole genome shotgun sequen..." label="ACJE01000005.1_c3"  >
<text class="clusterblast-acc" y="60" x="5"  >
ACJE01000005.1_c3</text>
<text class="clusterblast-desc" y="60" x="460.8"  >
Aspergillus niger ATCC 1015, whole genome shotgun sequen...</text>
<line y1="85" x2="778.0" style="stroke:grey; stroke-width:1; " x1="10" y2="85"  />
<polygon style="stroke:black; stroke-width:1; fill:#FFFFFF; " description="hypothetical_protein[br]Location: 465370 - 467004" locus_tag="ASPNIDRAFT_189361" id="clusterblast-1_h3_1_0" points="10,90 16,90 21,85 16,80 10,80 10,90 " class="clusterblast-orf"  />
<polygon style="stroke:black; stroke-width:1; fill:#FFFFFF; " description="hypothetical_protein[br]Location: 470397 - 472109" locus_tag="ASPNIDRAFT_54493" id="clusterblast-1_h3_1_1" points="46,90 53,90 58,85 53,80 46,80 46,90 " class="clusterblast-orf"  />
<polygon style="stroke:black; stroke-width:1; fill:#FFFFFF; " description="hypothetical_protein[br]Location: 473309 - 475520" locus_tag="ASPNIDRAFT_43811" id="clusterblast-1_h3_1_2" points="67,90 78,90 83,85 78,80 67,80 67,90 " class="clusterblast-orf"  />
<polygon style="stroke:black; stroke-width:1; fill:#FFFFFF; " description="hypothetical_protein[br]Location: 479660 - 481202" locus_tag="ASPNIDRAFT_140637" id="clusterblast-1_h3_1_3" points="113,90 119,90 124,85 119,80 113,80 113,90 " class="clusterblast-orf"  />
<polygon style="stroke:black; stroke-width:1; fill:#FFFFFF; " description="hypothetical_protein[br]Location: 481358 - 483192" locus_tag="ASPNIDRAFT_189760" id="clusterblast-1_h3_1_4" points="125,85 130,80 138,80 138,90 130,90 125,85 " class="clusterblast-orf"  />
<polygon style="stroke:black; stroke-width:1; fill:rgb(63,190,63); " description="hypothetical_protein[br]Location: 483556 - 484623&lt;br&gt;&lt;br&gt;&lt;b&gt;BlastP hit with CHAFR746836_0058820.1&lt;/b&gt;&lt;br&gt;Percentage identity: 37%&lt;br&gt;Percentage coverage: 104%&lt;br&gt;BLAST bit score: 197&lt;br&gt;E-value: 2e-58" locus_tag="ASPNIDRAFT_50359" id="clusterblast-1_h3_1_5" points="141,85 146,80 149,80 149,90 146,90 141,85 " class="clusterblast-orf"  />
<polygon style="stroke:black; stroke-width:1; fill:#FFFFFF; " description="non-ribosomal_peptide_synthetase[br]Location: 485403 - 500544" locus_tag="ASPNIDRAFT_43807" id="clusterblast-1_h3_1_6" points="154,90 259,90 264,85 259,80 154,80 154,90 " class="clusterblast-orf"  />
<polygon style="stroke:black; stroke-width:1; fill:#FFFFFF; " description="hypothetical_protein[br]Location: 500924 - 501842" locus_tag="ASPNIDRAFT_190111" id="clusterblast-1_h3_1_7" points="267,85 272,80 273,80 273,90 272,90 267,85 " class="clusterblast-orf"  />
<polygon style="stroke:black; stroke-width:1; fill:#FFFFFF; " description="hypothetical_protein[br]Location: 502949 - 504469" locus_tag="ASPNIDRAFT_190170" id="clusterblast-1_h3_1_8" points="281,90 287,90 292,85 287,80 281,80 281,90 " class="clusterblast-orf"  />
<polygon style="stroke:black; stroke-width:1; fill:rgb(190,63,190); " description="hypothetical_protein[br]Location: 504621 - 505519&lt;br&gt;&lt;br&gt;&lt;b&gt;BlastP hit with CHAFR746836_0058860.1&lt;/b&gt;&lt;br&gt;Percentage identity: 35%&lt;br&gt;Percentage coverage: 74%&lt;br&gt;BLAST bit score: 165&lt;br&gt;E-value: 3e-46" locus_tag="ASPNIDRAFT_133988" id="clusterblast-1_h3_1_9" points="293,85 298,80 300,80 300,90 298,90 293,85 " class="clusterblast-orf"  />
<polygon style="stroke:black; stroke-width:1; fill:#FFFFFF; " description="hypothetical_protein[br]Location: 506549 - 508159" locus_tag="ASPNIDRAFT_132090" id="clusterblast-1_h3_1_10" points="307,85 312,80 319,80 319,90 312,90 307,85 " class="clusterblast-orf"  />
<polygon style="stroke:black; stroke-width:1; fill:#FFFFFF; " description="hypothetical_protein[br]Location: 508930 - 509976" locus_tag="ASPNIDRAFT_189545" id="clusterblast-1_h3_1_11" points="325,85 330,80 332,80 332,90 330,90 325,85 " class="clusterblast-orf"  />
<polygon style="stroke:black; stroke-width:1; fill:#FFFFFF; " description="hypothetical_protein[br]Location: 510732 - 512345" locus_tag="ASPNIDRAFT_43802" id="clusterblast-1_h3_1_12" points="338,85 343,80 349,80 349,90 343,90 338,85 " class="clusterblast-orf"  />
<polygon style="stroke:black; stroke-width:1; fill:#FFFFFF; " description="hypothetical_protein[br]Location: 513084 - 513812" locus_tag="ASPNIDRAFT_189363" id="clusterblast-1_h3_1_13" points="355,90 355,90 360,85 355,80 355,80 355,90 " class="clusterblast-orf"  />
<polygon style="stroke:black; stroke-width:1; fill:#FFFFFF; " description="hypothetical_protein[br]Location: 514905 - 515196" locus_tag="ASPNIDRAFT_143465" id="clusterblast-1_h3_1_14" points="368,90 370,85 368,80 368,90 " class="clusterblast-orf"  />
<polygon style="stroke:black; stroke-width:1; fill:#FFFFFF; " description="hypothetical_protein[br]Location: 518428 - 521957" locus_tag="ASPNIDRAFT_43800" id="clusterblast-1_h3_1_15" points="393,90 414,90 419,85 414,80 393,80 393,90 " class="clusterblast-orf"  />
<polygon style="stroke:black; stroke-width:1; fill:#FFFFFF; " description="hypothetical_protein[br]Location: 522432 - 523346" locus_tag="ASPNIDRAFT_43799" id="clusterblast-1_h3_1_16" points="422,90 424,90 429,85 424,80 422,80 422,90 " class="clusterblast-orf"  />
<polygon style="stroke:black; stroke-width:1; fill:rgb(190,190,63); " description="hypothetical_protein[br]Location: 529784 - 531346&lt;br&gt;&lt;br&gt;&lt;b&gt;BlastP hit with CHAFR746836_0058870.1&lt;/b&gt;&lt;br&gt;Percentage identity: 36%&lt;br&gt;Percentage coverage: 17%&lt;br&gt;BLAST bit score: 270&lt;br&gt;E-value: 3e-77" locus_tag="ASPNIDRAFT_190078" id="clusterblast-1_h3_1_17" points="475,85 480,80 487,80 487,90 480,90 475,85 " class="clusterblast-orf"  />
<polygon style="stroke:black; stroke-width:1; fill:#FFFFFF; " description="hypothetical_protein[br]Location: 533671 - 534585" locus_tag="ASPNIDRAFT_43797" id="clusterblast-1_h3_1_18" points="504,85 509,80 510,80 510,90 509,90 504,85 " class="clusterblast-orf"  />
<polygon style="stroke:black; stroke-width:1; fill:rgb(190,63,63); " description="hypothetical_protein[br]Location: 537628 - 538602&lt;br&gt;&lt;br&gt;&lt;b&gt;BlastP hit with CHAFR746836_0058790.1&lt;/b&gt;&lt;br&gt;Percentage identity: 33%&lt;br&gt;Percentage coverage: 29%&lt;br&gt;BLAST bit score: 54&lt;br&gt;E-value: 3e-07" locus_tag="ASPNIDRAFT_133560" id="clusterblast-1_h3_1_19" points="532,90 534,90 539,85 534,80 532,80 532,90 " class="clusterblast-orf"  />
<polygon style="stroke:black; stroke-width:1; fill:#FFFFFF; " description="hypothetical_protein[br]Location: 539507 - 540335" locus_tag="ASPNIDRAFT_50357" id="clusterblast-1_h3_1_20" points="546,85 551,80 552,80 552,90 551,90 546,85 " class="clusterblast-orf"  />
<polygon style="stroke:black; stroke-width:1; fill:#FFFFFF; " description="hypothetical_protein[br]Location: 542214 - 542771" locus_tag="ASPNIDRAFT_43795" id="clusterblast-1_h3_1_21" points="565,85 569,80 569,90 565,85 " class="clusterblast-orf"  />
<polygon style="stroke:black; stroke-width:1; fill:rgb(190,190,63); " description="hypothetical_protein[br]Location: 544590 - 552657&lt;br&gt;&lt;br&gt;&lt;b&gt;BlastP hit with CHAFR746836_0058870.1&lt;/b&gt;&lt;br&gt;Percentage identity: 43%&lt;br&gt;Percentage coverage: 91%&lt;br&gt;BLAST bit score: 1794&lt;br&gt;E-value: 0.0" locus_tag="ASPNIDRAFT_189378" id="clusterblast-1_h3_1_22" points="583,90 636,90 641,85 636,80 583,80 583,90 " class="clusterblast-orf"  />
<polygon style="stroke:black; stroke-width:1; fill:#FFFFFF; " description="hypothetical_protein[br]Location: 554326 - 554730" locus_tag="ASPNIDRAFT_43792" id="clusterblast-1_h3_1_23" points="653,90 656,85 653,80 653,90 " class="clusterblast-orf"  />
<polygon style="stroke:black; stroke-width:1; fill:#FFFFFF; " description="hypothetical_protein[br]Location: 556258 - 557070" locus_tag="ASPNIDRAFT_43791" id="clusterblast-1_h3_1_24" points="667,90 668,90 673,85 668,80 667,80 667,90 " class="clusterblast-orf"  />
<polygon style="stroke:black; stroke-width:1; fill:#FFFFFF; " description="Hypothetical_protein[br]Location: 557679 - 558724" locus_tag="ASPNIDRAFT_43790" id="clusterblast-1_h3_1_25" points="677,90 680,90 685,85 680,80 677,80 677,90 " class="clusterblast-orf"  />
<polygon style="stroke:black; stroke-width:1; fill:#FFFFFF; " description="hypothetical_protein[br]Location: 559134 - 560226" locus_tag="ASPNIDRAFT_43789" id="clusterblast-1_h3_1_26" points="688,85 693,80 696,80 696,90 693,90 688,85 " class="clusterblast-orf"  />
<polygon style="stroke:black; stroke-width:1; fill:#FFFFFF; " description="hypothetical_protein[br]Location: 560791 - 562530" locus_tag="ASPNIDRAFT_43788" id="clusterblast-1_h3_1_27" points="700,90 707,90 712,85 707,80 700,80 700,90 " class="clusterblast-orf"  />
<polygon style="stroke:black; stroke-width:1; fill:#FFFFFF; " description="hypothetical_protein[br]Location: 563872 - 564730" locus_tag="ASPNIDRAFT_43787" id="clusterblast-1_h3_1_28" points="722,90 723,90 728,85 723,80 722,80 722,90 " class="clusterblast-orf"  />
<polygon style="stroke:black; stroke-width:1; fill:#FFFFFF; " description="hypothetical_protein[br]Location: 570479 - 571546" locus_tag="ASPNIDRAFT_43786" id="clusterblast-1_h3_1_29" points="770,85 775,80 778,80 778,90 775,90 770,85 " class="clusterblast-orf"  />
</g>
</svg>
