<svg xmlns="http://www.w3.org/2000/svg" height="230" width="800" version="1.1" y="0" x="0" preserveAspectRatio="none" xmlns:xlink="http://www.w3.org/1999/xlink" viewBox="0 0 800 230"  >
<g class="clusterblast-cluster" label="Query sequence"  >
<text class="clusterblast-acc" y="10" x="5"  >
Query sequence</text>
<line y1="35" x2="778.0" style="stroke:grey; stroke-width:1; " x1="10" y2="35"  />
<polygon style="stroke:black; stroke-width:1; fill:#FFFFFF; " description="unannotated orf[br]Location: 489 - 2721" locus_tag="CHAFR746836_0051070.1" class="clusterblast-orf" points="10,35 15,30 29,30 29,40 15,40 10,35 " id="clusterblast-1_q63_3_0"  />
<polygon style="stroke:black; stroke-width:1; fill:#FFFFFF; " description="unannotated orf[br]Location: 4200 - 5219" locus_tag="CHAFR746836_0051080.1" class="clusterblast-orf" points="41,35 46,30 50,30 50,40 46,40 41,35 " id="clusterblast-1_q63_3_1"  />
<polygon style="stroke:black; stroke-width:1; fill:#FFFFFF; " description="unannotated orf[br]Location: 6660 - 7800" locus_tag="CHAFR746836_0051090.1" class="clusterblast-orf" points="62,40 67,40 72,35 67,30 62,30 62,40 " id="clusterblast-1_q63_3_2"  />
<polygon style="stroke:black; stroke-width:1; fill:rgb(190,63,63); " description="unannotated orf[br]Location: 26765 - 27965" locus_tag="CHAFR746836_0051100.1" class="clusterblast-orf" points="233,40 239,40 244,35 239,30 233,30 233,40 " id="clusterblast-1_q63_3_3"  />
<polygon style="stroke:black; stroke-width:1; fill:rgb(63,63,190); " description="unannotated orf[br]Location: 28597 - 39479" locus_tag="CHAFR746836_0051110.1" class="clusterblast-orf" points="249,40 337,40 342,35 337,30 249,30 249,40 " id="clusterblast-1_q63_3_4"  />
<polygon style="stroke:black; stroke-width:1; fill:rgb(63,190,63); " description="unannotated orf[br]Location: 40061 - 41918" locus_tag="CHAFR746836_0051120.1" class="clusterblast-orf" points="347,40 358,40 363,35 358,30 347,30 347,40 " id="clusterblast-1_q63_3_5"  />
<polygon style="stroke:black; stroke-width:1; fill:rgb(190,63,190); " description="unannotated orf[br]Location: 43238 - 44908" locus_tag="CHAFR746836_0051130.1" class="clusterblast-orf" points="374,40 383,40 388,35 383,30 374,30 374,40 " id="clusterblast-1_q63_3_6"  />
<polygon style="stroke:black; stroke-width:1; fill:#FFFFFF; " description="unannotated orf[br]Location: 47854 - 53058" locus_tag="CHAFR746836_0051140.1" class="clusterblast-orf" points="413,35 418,30 458,30 458,40 418,40 413,35 " id="clusterblast-1_q63_3_7"  />
<polygon style="stroke:black; stroke-width:1; fill:rgb(190,190,63); " description="unannotated orf[br]Location: 53967 - 56732" locus_tag="CHAFR746836_0051150.1" class="clusterblast-orf" points="465,40 484,40 489,35 484,30 465,30 465,40 " id="clusterblast-1_q63_3_8"  />
<polygon style="stroke:black; stroke-width:1; fill:#FFFFFF; " description="unannotated orf[br]Location: 58548 - 59100" locus_tag="CHAFR746836_0051160.1" class="clusterblast-orf" points="504,35 509,30 509,30 509,40 509,40 504,35 " id="clusterblast-1_q63_3_9"  />
<polygon style="stroke:black; stroke-width:1; fill:#FFFFFF; " description="unannotated orf[br]Location: 60871 - 61857" locus_tag="CHAFR746836_0051170.1" class="clusterblast-orf" points="524,40 528,40 533,35 528,30 524,30 524,40 " id="clusterblast-1_q63_3_10"  />
<polygon style="stroke:black; stroke-width:1; fill:#FFFFFF; " description="unannotated orf[br]Location: 63105 - 64083" locus_tag="CHAFR746836_0051180.1" class="clusterblast-orf" points="543,35 548,30 552,30 552,40 548,40 543,35 " id="clusterblast-1_q63_3_11"  />
<polygon style="stroke:black; stroke-width:1; fill:#FFFFFF; " description="unannotated orf[br]Location: 67899 - 70038" locus_tag="CHAFR746836_0051190.1" class="clusterblast-orf" points="584,40 597,40 602,35 597,30 584,30 584,40 " id="clusterblast-1_q63_3_12"  />
<polygon style="stroke:black; stroke-width:1; fill:#FFFFFF; " description="unannotated orf[br]Location: 72649 - 74314" locus_tag="CHAFR746836_0051200.1" class="clusterblast-orf" points="625,35 630,30 639,30 639,40 630,40 625,35 " id="clusterblast-1_q63_3_13"  />
<polygon style="stroke:black; stroke-width:1; fill:#FFFFFF; " description="unannotated orf[br]Location: 77147 - 77748" locus_tag="CHAFR746836_0051210.1" class="clusterblast-orf" points="663,40 663,40 668,35 663,30 663,30 663,40 " id="clusterblast-1_q63_3_14"  />
<polygon style="stroke:black; stroke-width:1; fill:#FFFFFF; " description="unannotated orf[br]Location: 78975 - 79809" locus_tag="CHAFR746836_0051220.1" class="clusterblast-orf" points="679,40 681,40 686,35 681,30 679,30 679,40 " id="clusterblast-1_q63_3_15"  />
<polygon style="stroke:black; stroke-width:1; fill:#FFFFFF; " description="unannotated orf[br]Location: 85804 - 86841" locus_tag="CHAFR746836_0051230.1" class="clusterblast-orf" points="737,35 742,30 746,30 746,40 742,40 737,35 " id="clusterblast-1_q63_3_16"  />
<polygon style="stroke:black; stroke-width:1; fill:#FFFFFF; " description="unannotated orf[br]Location: 88142 - 90586" locus_tag="CHAFR746836_0051240.1" class="clusterblast-orf" points="757,35 762,30 778,30 778,40 762,40 757,35 " id="clusterblast-1_q63_3_17"  />
</g>
<g class="clusterblast-cluster" description="Trichoderma reesei QM6a unplaced genomic scaffold TRIREscaff..." label="GL985072.1_c1"  >
<text class="clusterblast-acc" y="60" x="5"  >
GL985072.1_c1</text>
<text class="clusterblast-desc" y="60" x="460.8"  >
Trichoderma reesei QM6a unplaced genomic scaffold TRIREscaff...</text>
<line y1="85" x2="778.0" style="stroke:grey; stroke-width:1; " x1="10" y2="85"  />
<polygon style="stroke:black; stroke-width:1; fill:#FFFFFF; " description="Hypothetical_protein[br]Location: 608761 - 615711" locus_tag="TRIREDRAFT_34611" id="clusterblast-1_h63_3_0" points="184,90 238,90 243,85 238,80 184,80 184,90 " class="clusterblast-orf"  />
<polygon style="stroke:black; stroke-width:1; fill:#FFFFFF; " description="predicted_protein[br]Location: 616955 - 619233" locus_tag="TRIREDRAFT_80243" id="clusterblast-1_h63_3_1" points="253,85 258,80 273,80 273,90 258,90 253,85 " class="clusterblast-orf"  />
<polygon style="stroke:black; stroke-width:1; fill:#FFFFFF; " description="predicted_protein[br]Location: 620441 - 621639" locus_tag="TRIREDRAFT_80245" id="clusterblast-1_h63_3_2" points="283,90 288,90 293,85 288,80 283,80 283,90 " class="clusterblast-orf"  />
<polygon style="stroke:black; stroke-width:1; fill:#FFFFFF; " description="predicted_protein[br]Location: 622969 - 623522" locus_tag="TRIREDRAFT_65992" id="clusterblast-1_h63_3_3" points="305,90 309,85 305,80 305,90 " class="clusterblast-orf"  />
<polygon style="stroke:black; stroke-width:1; fill:#FFFFFF; " description="predicted_protein[br]Location: 624244 - 624867" locus_tag="TRIREDRAFT_65739" id="clusterblast-1_h63_3_4" points="315,90 316,90 321,85 316,80 315,80 315,90 " class="clusterblast-orf"  />
<polygon style="stroke:black; stroke-width:1; fill:rgb(63,190,63); " description="predicted_protein[br]Location: 625422 - 627465&lt;br&gt;&lt;br&gt;&lt;b&gt;BlastP hit with CHAFR746836_0051120.1&lt;/b&gt;&lt;br&gt;Percentage identity: 31%&lt;br&gt;Percentage coverage: 72%&lt;br&gt;BLAST bit score: 145&lt;br&gt;E-value: 5e-36" locus_tag="TRIREDRAFT_65744" id="clusterblast-1_h63_3_5" points="326,85 331,80 343,80 343,90 331,90 326,85 " class="clusterblast-orf"  />
<polygon style="stroke:black; stroke-width:1; fill:rgb(190,63,63); " description="polyketide_synthase[br]Location: 631535 - 639174&lt;br&gt;&lt;br&gt;&lt;b&gt;BlastP hit with CHAFR746836_0051100.1&lt;/b&gt;&lt;br&gt;Percentage identity: 45%&lt;br&gt;Percentage coverage: 101%&lt;br&gt;BLAST bit score: 294&lt;br&gt;E-value: 1e-87&lt;br&gt;&lt;br&gt;&lt;b&gt;BlastP hit with CHAFR746836_0051110.1&lt;/b&gt;&lt;br&gt;Percentage identity: 35%&lt;br&gt;Percentage coverage: 16%&lt;br&gt;BLAST bit score: 266&lt;br&gt;E-value: 1e-69" locus_tag="TRIREDRAFT_65891" id="clusterblast-1_h63_3_6" points="378,90 438,90 443,85 438,80 378,80 378,90 " class="clusterblast-orf"  />
<polygon style="stroke:black; stroke-width:1; fill:#FFFFFF; " description="predicted_protein[br]Location: 639988 - 641581" locus_tag="TRIREDRAFT_65711" id="clusterblast-1_h63_3_7" points="450,85 455,80 463,80 463,90 455,90 450,85 " class="clusterblast-orf"  />
<polygon style="stroke:black; stroke-width:1; fill:#FFFFFF; " description="predicted_protein[br]Location: 645126 - 646418" locus_tag="TRIREDRAFT_65965" id="clusterblast-1_h63_3_8" points="493,85 498,80 504,80 504,90 498,90 493,85 " class="clusterblast-orf"  />
<polygon style="stroke:black; stroke-width:1; fill:#FFFFFF; " description="predicted_protein[br]Location: 649002 - 650274" locus_tag="TRIREDRAFT_80252" id="clusterblast-1_h63_3_9" points="527,90 532,90 537,85 532,80 527,80 527,90 " class="clusterblast-orf"  />
<polygon style="stroke:black; stroke-width:1; fill:#FFFFFF; " description="predicted_protein[br]Location: 652737 - 654175" locus_tag="TRIREDRAFT_65945" id="clusterblast-1_h63_3_10" points="558,90 566,90 571,85 566,80 558,80 558,90 " class="clusterblast-orf"  />
<polygon style="stroke:black; stroke-width:1; fill:#FFFFFF; " description="predicted_protein[br]Location: 654600 - 657971" locus_tag="TRIREDRAFT_50491" id="clusterblast-1_h63_3_11" points="574,85 579,80 603,80 603,90 579,90 574,85 " class="clusterblast-orf"  />
</g>
</svg>
