<svg xmlns="http://www.w3.org/2000/svg" height="230" width="800" version="1.1" y="0" x="0" preserveAspectRatio="none" xmlns:xlink="http://www.w3.org/1999/xlink" viewBox="0 0 800 230"  >
<g class="clusterblast-cluster" label="Query sequence"  >
<text class="clusterblast-acc" y="10" x="5"  >
Query sequence</text>
<line y1="35" x2="778.0" style="stroke:grey; stroke-width:1; " x1="10" y2="35"  />
<polygon style="stroke:black; stroke-width:1; fill:#FFFFFF; " description="unannotated orf[br]Location: 978 - 3290" locus_tag="CHAFR746836_0087330.1" class="clusterblast-orf" points="10,40 16,40 21,35 16,30 10,30 10,40 " id="clusterblast-1_q19_6_0"  />
<polygon style="stroke:black; stroke-width:1; fill:#FFFFFF; " description="unannotated orf[br]Location: 11313 - 13260" locus_tag="CHAFR746836_0087340.1" class="clusterblast-orf" points="60,35 65,30 70,30 70,40 65,40 60,35 " id="clusterblast-1_q19_6_1"  />
<polygon style="stroke:black; stroke-width:1; fill:#FFFFFF; " description="unannotated orf[br]Location: 25150 - 25735" locus_tag="CHAFR746836_0087350.1" class="clusterblast-orf" points="128,35 131,30 131,40 128,35 " id="clusterblast-1_q19_6_2"  />
<polygon style="stroke:black; stroke-width:1; fill:#FFFFFF; " description="unannotated orf[br]Location: 26529 - 27424" locus_tag="CHAFR746836_0087360.1" class="clusterblast-orf" points="135,35 139,30 139,40 135,35 " id="clusterblast-1_q19_6_3"  />
<polygon style="stroke:black; stroke-width:1; fill:#FFFFFF; " description="unannotated orf[br]Location: 27971 - 29946" locus_tag="CHAFR746836_0087370.1" class="clusterblast-orf" points="142,40 147,40 152,35 147,30 142,30 142,40 " id="clusterblast-1_q19_6_4"  />
<polygon style="stroke:black; stroke-width:1; fill:rgb(169,42,42); " description="unannotated orf[br]Location: 31388 - 33149" locus_tag="CHAFR746836_0087380.1" class="clusterblast-orf" points="159,40 163,40 168,35 163,30 159,30 159,40 " id="clusterblast-1_q19_6_5"  />
<polygon style="stroke:black; stroke-width:1; fill:#FFFFFF; " description="unannotated orf[br]Location: 34560 - 35171" locus_tag="CHAFR746836_0087390.1" class="clusterblast-orf" points="175,40 178,35 175,30 175,40 " id="clusterblast-1_q19_6_6"  />
<polygon style="stroke:black; stroke-width:1; fill:#FFFFFF; " description="unannotated orf[br]Location: 36170 - 38717" locus_tag="CHAFR746836_0087400.1" class="clusterblast-orf" points="182,35 187,30 195,30 195,40 187,40 182,35 " id="clusterblast-1_q19_6_7"  />
<polygon style="stroke:black; stroke-width:1; fill:rgb(42,212,42); " description="unannotated orf[br]Location: 39938 - 40576" locus_tag="CHAFR746836_0087410.1" class="clusterblast-orf" points="201,35 204,30 204,40 201,35 " id="clusterblast-1_q19_6_8"  />
<polygon style="stroke:black; stroke-width:1; fill:#FFFFFF; " description="unannotated orf[br]Location: 41148 - 42949" locus_tag="CHAFR746836_0087420.1" class="clusterblast-orf" points="207,40 211,40 216,35 211,30 207,30 207,40 " id="clusterblast-1_q19_6_9"  />
<polygon style="stroke:black; stroke-width:1; fill:#FFFFFF; " description="unannotated orf[br]Location: 45079 - 46829" locus_tag="CHAFR746836_0087430.1" class="clusterblast-orf" points="226,40 230,40 235,35 230,30 226,30 226,40 " id="clusterblast-1_q19_6_10"  />
<polygon style="stroke:black; stroke-width:1; fill:#FFFFFF; " description="unannotated orf[br]Location: 47651 - 49501" locus_tag="CHAFR746836_0087440.1" class="clusterblast-orf" points="239,40 243,40 248,35 243,30 239,30 239,40 " id="clusterblast-1_q19_6_11"  />
<polygon style="stroke:black; stroke-width:1; fill:#FFFFFF; " description="unannotated orf[br]Location: 50578 - 52077" locus_tag="CHAFR746836_0087450.1" class="clusterblast-orf" points="253,35 258,30 261,30 261,40 258,40 253,35 " id="clusterblast-1_q19_6_12"  />
<polygon style="stroke:black; stroke-width:1; fill:#FFFFFF; " description="unannotated orf[br]Location: 57587 - 59108" locus_tag="CHAFR746836_0087460.1" class="clusterblast-orf" points="288,40 290,40 295,35 290,30 288,30 288,40 " id="clusterblast-1_q19_6_13"  />
<polygon style="stroke:black; stroke-width:1; fill:#FFFFFF; " description="unannotated orf[br]Location: 61987 - 64097" locus_tag="CHAFR746836_0087470.1" class="clusterblast-orf" points="309,40 315,40 320,35 315,30 309,30 309,40 " id="clusterblast-1_q19_6_14"  />
<polygon style="stroke:black; stroke-width:1; fill:#FFFFFF; " description="unannotated orf[br]Location: 69799 - 72236" locus_tag="CHAFR746836_0087480.1" class="clusterblast-orf" points="348,40 355,40 360,35 355,30 348,30 348,40 " id="clusterblast-1_q19_6_15"  />
<polygon style="stroke:black; stroke-width:1; fill:#FFFFFF; " description="unannotated orf[br]Location: 75226 - 76087" locus_tag="CHAFR746836_0087490.1" class="clusterblast-orf" points="374,35 379,30 379,30 379,40 379,40 374,35 " id="clusterblast-1_q19_6_16"  />
<polygon style="stroke:black; stroke-width:1; fill:rgb(42,42,212); " description="unannotated orf[br]Location: 83518 - 84938" locus_tag="CHAFR746836_0087500.1" class="clusterblast-orf" points="415,35 420,30 422,30 422,40 420,40 415,35 " id="clusterblast-1_q19_6_17"  />
<polygon style="stroke:black; stroke-width:1; fill:rgb(169,127,212); " description="unannotated orf[br]Location: 87633 - 89495" locus_tag="CHAFR746836_0087510.1" class="clusterblast-orf" points="435,35 440,30 445,30 445,40 440,40 435,35 " id="clusterblast-1_q19_6_18"  />
<polygon style="stroke:black; stroke-width:1; fill:rgb(169,212,42); " description="unannotated orf[br]Location: 89752 - 90556" locus_tag="CHAFR746836_0087520.1" class="clusterblast-orf" points="446,40 450,35 446,30 446,40 " id="clusterblast-1_q19_6_19"  />
<polygon style="stroke:black; stroke-width:1; fill:#FFFFFF; " description="unannotated orf[br]Location: 104976 - 106006" locus_tag="CHAFR746836_0087530.1" class="clusterblast-orf" points="521,35 526,30 526,30 526,40 526,40 521,35 " id="clusterblast-1_q19_6_20"  />
<polygon style="stroke:black; stroke-width:1; fill:rgb(42,212,212); " description="unannotated orf[br]Location: 127251 - 128425" locus_tag="CHAFR746836_0087540.1" class="clusterblast-orf" points="630,35 635,30 636,30 636,40 635,40 630,35 " id="clusterblast-1_q19_6_21"  />
<polygon style="stroke:black; stroke-width:1; fill:rgb(169,127,42); " description="unannotated orf[br]Location: 129252 - 129711" locus_tag="CHAFR746836_0087550.1" class="clusterblast-orf" points="640,40 642,35 640,30 640,40 " id="clusterblast-1_q19_6_22"  />
<polygon style="stroke:black; stroke-width:1; fill:rgb(169,42,127); " description="unannotated orf[br]Location: 133926 - 135028" locus_tag="CHAFR746836_0087560.1" class="clusterblast-orf" points="663,35 668,30 668,30 668,40 668,40 663,35 " id="clusterblast-1_q19_6_23"  />
<polygon style="stroke:black; stroke-width:1; fill:rgb(42,127,42); " description="unannotated orf[br]Location: 135294 - 136000" locus_tag="CHAFR746836_0087570.1" class="clusterblast-orf" points="670,40 673,35 670,30 670,40 " id="clusterblast-1_q19_6_24"  />
<polygon style="stroke:black; stroke-width:1; fill:#FFFFFF; " description="unannotated orf[br]Location: 137264 - 139678" locus_tag="CHAFR746836_0087580.1" class="clusterblast-orf" points="679,40 686,40 691,35 686,30 679,30 679,40 " id="clusterblast-1_q19_6_25"  />
<polygon style="stroke:black; stroke-width:1; fill:#FFFFFF; " description="unannotated orf[br]Location: 140410 - 140889" locus_tag="CHAFR746836_0087590.1" class="clusterblast-orf" points="695,40 697,35 695,30 695,40 " id="clusterblast-1_q19_6_26"  />
<polygon style="stroke:black; stroke-width:1; fill:#FFFFFF; " description="unannotated orf[br]Location: 145698 - 146640" locus_tag="CHAFR746836_0087600.1" class="clusterblast-orf" points="721,35 725,30 725,40 721,35 " id="clusterblast-1_q19_6_27"  />
<polygon style="stroke:black; stroke-width:1; fill:rgb(42,127,212); " description="unannotated orf[br]Location: 149111 - 149530" locus_tag="CHAFR746836_0087610.1" class="clusterblast-orf" points="738,40 740,35 738,30 738,40 " id="clusterblast-1_q19_6_28"  />
<polygon style="stroke:black; stroke-width:1; fill:rgb(42,212,127); " description="unannotated orf[br]Location: 150467 - 151609" locus_tag="CHAFR746836_0087620.1" class="clusterblast-orf" points="744,40 745,40 750,35 745,30 744,30 744,40 " id="clusterblast-1_q19_6_29"  />
<polygon style="stroke:black; stroke-width:1; fill:rgb(169,42,212); " description="unannotated orf[br]Location: 150467 - 154023" locus_tag="CHAFR746836_0087620.3" class="clusterblast-orf" points="744,40 757,40 762,35 757,30 744,30 744,40 " id="clusterblast-1_q19_6_30"  />
<polygon style="stroke:black; stroke-width:1; fill:#FFFFFF; " description="unannotated orf[br]Location: 152274 - 154023" locus_tag="CHAFR746836_0087620.2" class="clusterblast-orf" points="753,40 757,40 762,35 757,30 753,30 753,40 " id="clusterblast-1_q19_6_31"  />
<polygon style="stroke:black; stroke-width:1; fill:rgb(42,127,127); " description="unannotated orf[br]Location: 155579 - 157240" locus_tag="CHAFR746836_0087630.1" class="clusterblast-orf" points="769,40 773,40 778,35 773,30 769,30 769,40 " id="clusterblast-1_q19_6_32"  />
</g>
<g class="clusterblast-cluster" description="Aspergillus kawachii IFO 4308 DNA, contig: scaffold00006, wh..." label="DF126452.1_c3"  >
<text class="clusterblast-acc" y="60" x="5"  >
DF126452.1_c3</text>
<text class="clusterblast-desc" y="60" x="460.8"  >
Aspergillus kawachii IFO 4308 DNA, contig: scaffold00006, wh...</text>
<line y1="85" x2="778.0" style="stroke:grey; stroke-width:1; " x1="10" y2="85"  />
<polygon style="stroke:black; stroke-width:1; fill:#FFFFFF; " description="hypothetical_protein[br]Location: 501099 - 502559" locus_tag="AKAW_02976" id="clusterblast-1_h19_6_0" points="273,90 275,90 280,85 275,80 273,80 273,90 " class="clusterblast-orf"  />
<polygon style="stroke:black; stroke-width:1; fill:#FFFFFF; " description="sterigmatocystin_8-O-methyltransferase[br]Location: 499214 - 500879" locus_tag="AKAW_02975" id="clusterblast-1_h19_6_1" points="281,85 286,80 289,80 289,90 286,90 281,85 " class="clusterblast-orf"  />
<polygon style="stroke:black; stroke-width:1; fill:#FFFFFF; " description="carbonyl_reductase[br]Location: 498033 - 498773" locus_tag="AKAW_02974" id="clusterblast-1_h19_6_2" points="291,85 295,80 295,90 291,85 " class="clusterblast-orf"  />
<polygon style="stroke:black; stroke-width:1; fill:#FFFFFF; " description="1-aminocyclopropane-1-carboxylate_oxidase[br]Location: 495338 - 496552" locus_tag="AKAW_02973" id="clusterblast-1_h19_6_3" points="302,85 307,80 308,80 308,90 307,90 302,85 " class="clusterblast-orf"  />
<polygon style="stroke:black; stroke-width:1; fill:rgb(42,127,212); " description="cytochrome_P450_monooxygenase[br]Location: 491690 - 493546&lt;br&gt;&lt;br&gt;&lt;b&gt;BlastP hit with CHAFR746836_0087610.1&lt;/b&gt;&lt;br&gt;Percentage identity: 36%&lt;br&gt;Percentage coverage: 70%&lt;br&gt;BLAST bit score: 56&lt;br&gt;E-value: 6e-09" locus_tag="AKAW_02972" id="clusterblast-1_h19_6_4" points="317,85 322,80 326,80 326,90 322,90 317,85 " class="clusterblast-orf"  />
<polygon style="stroke:black; stroke-width:1; fill:#FFFFFF; " description="hypothetical_protein[br]Location: 490340 - 491444" locus_tag="AKAW_02971" id="clusterblast-1_h19_6_5" points="327,90 328,90 333,85 328,80 327,80 327,90 " class="clusterblast-orf"  />
<polygon style="stroke:black; stroke-width:1; fill:#FFFFFF; " description="AMP_dependent_ligase/synthetase[br]Location: 488330 - 490260" locus_tag="AKAW_02970" id="clusterblast-1_h19_6_6" points="333,85 338,80 342,80 342,90 338,90 333,85 " class="clusterblast-orf"  />
<polygon style="stroke:black; stroke-width:1; fill:#FFFFFF; " description="major_facilitator_superfamily_transporter[br]Location: 486014 - 487715" locus_tag="AKAW_02969" id="clusterblast-1_h19_6_7" points="345,90 349,90 354,85 349,80 345,80 345,90 " class="clusterblast-orf"  />
<polygon style="stroke:black; stroke-width:1; fill:#FFFFFF; " description="hypothetical_protein[br]Location: 485201 - 485836" locus_tag="AKAW_02968" id="clusterblast-1_h19_6_8" points="355,85 358,80 358,90 355,85 " class="clusterblast-orf"  />
<polygon style="stroke:black; stroke-width:1; fill:#FFFFFF; " description="oxidoreductase,_short-chain[br]Location: 483990 - 485046" locus_tag="AKAW_02967" id="clusterblast-1_h19_6_9" points="359,85 364,80 364,80 364,90 364,90 359,85 " class="clusterblast-orf"  />
<polygon style="stroke:black; stroke-width:1; fill:#FFFFFF; " description="short_chain_dehydrogenase[br]Location: 482448 - 483642" locus_tag="AKAW_02966" id="clusterblast-1_h19_6_10" points="365,85 370,80 371,80 371,90 370,90 365,85 " class="clusterblast-orf"  />
<polygon style="stroke:black; stroke-width:1; fill:#FFFFFF; " description="polyketide_synthase[br]Location: 474667 - 482075" locus_tag="AKAW_02965" id="clusterblast-1_h19_6_11" points="373,90 405,90 410,85 405,80 373,80 373,90 " class="clusterblast-orf"  />
<polygon style="stroke:black; stroke-width:1; fill:#FFFFFF; " description="hypothetical_protein[br]Location: 473511 - 474419" locus_tag="AKAW_02964" id="clusterblast-1_h19_6_12" points="411,85 415,80 415,90 411,85 " class="clusterblast-orf"  />
<polygon style="stroke:black; stroke-width:1; fill:rgb(169,42,42); " description="cytochrome_P450_monooxygenase[br]Location: 470058 - 471997&lt;br&gt;&lt;br&gt;&lt;b&gt;BlastP hit with CHAFR746836_0087380.1&lt;/b&gt;&lt;br&gt;Percentage identity: 31%&lt;br&gt;Percentage coverage: 44%&lt;br&gt;BLAST bit score: 87&lt;br&gt;E-value: 4e-17" locus_tag="AKAW_02963" id="clusterblast-1_h19_6_13" points="423,90 427,90 432,85 427,80 423,80 423,90 " class="clusterblast-orf"  />
<polygon style="stroke:black; stroke-width:1; fill:rgb(42,127,127); " description="hypothetical_protein[br]Location: 469363 - 469722&lt;br&gt;&lt;br&gt;&lt;b&gt;BlastP hit with CHAFR746836_0087630.1&lt;/b&gt;&lt;br&gt;Percentage identity: 39%&lt;br&gt;Percentage coverage: 17%&lt;br&gt;BLAST bit score: 58&lt;br&gt;E-value: 4e-09" locus_tag="AKAW_02962" id="clusterblast-1_h19_6_14" points="434,90 436,85 434,80 434,90 " class="clusterblast-orf"  />
<polygon style="stroke:black; stroke-width:1; fill:rgb(42,127,127); " description="aldehyde_dehydrogenase[br]Location: 467837 - 468899&lt;br&gt;&lt;br&gt;&lt;b&gt;BlastP hit with CHAFR746836_0087630.1&lt;/b&gt;&lt;br&gt;Percentage identity: 46%&lt;br&gt;Percentage coverage: 66%&lt;br&gt;BLAST bit score: 288&lt;br&gt;E-value: 1e-91" locus_tag="AKAW_02961" id="clusterblast-1_h19_6_15" points="438,90 438,90 443,85 438,80 438,80 438,90 " class="clusterblast-orf"  />
<polygon style="stroke:black; stroke-width:1; fill:#FFFFFF; " description="hypothetical_protein[br]Location: 465977 - 467363" locus_tag="AKAW_02960" id="clusterblast-1_h19_6_16" points="445,85 450,80 452,80 452,90 450,90 445,85 " class="clusterblast-orf"  />
<polygon style="stroke:black; stroke-width:1; fill:#FFFFFF; " description="FAD-dependent_oxidase[br]Location: 461329 - 463034" locus_tag="AKAW_02959" id="clusterblast-1_h19_6_17" points="467,90 470,90 475,85 470,80 467,80 467,90 " class="clusterblast-orf"  />
<polygon style="stroke:black; stroke-width:1; fill:#FFFFFF; " description="aldo/keto_reductase[br]Location: 458835 - 459884" locus_tag="AKAW_02958" id="clusterblast-1_h19_6_18" points="482,90 482,90 487,85 482,80 482,80 482,90 " class="clusterblast-orf"  />
<polygon style="stroke:black; stroke-width:1; fill:#FFFFFF; " description="trichothecene_3-O-acetyltransferase[br]Location: 456894 - 458237" locus_tag="AKAW_02957" id="clusterblast-1_h19_6_19" points="490,90 492,90 497,85 492,80 490,80 490,90 " class="clusterblast-orf"  />
<polygon style="stroke:black; stroke-width:1; fill:#FFFFFF; " description="tripeptidyl_peptidase_Sed3[br]Location: 453726 - 455556" locus_tag="AKAW_02956" id="clusterblast-1_h19_6_20" points="504,90 508,90 513,85 508,80 504,80 504,90 " class="clusterblast-orf"  />
</g>
</svg>
