<svg xmlns="http://www.w3.org/2000/svg" height="230" width="800" version="1.1" y="0" x="0" preserveAspectRatio="none" xmlns:xlink="http://www.w3.org/1999/xlink" viewBox="0 0 800 230"  >
<g class="clusterblast-cluster" label="Query sequence"  >
<text class="clusterblast-acc" y="10" x="5"  >
Query sequence</text>
<line y1="35" x2="778.0" style="stroke:grey; stroke-width:1; " x1="10" y2="35"  />
<polygon style="stroke:black; stroke-width:1; fill:#FFFFFF; " description="unannotated orf[br]Location: 25768 - 28581" locus_tag="CHAFR746836_0026480.1" class="clusterblast-orf" points="122,35 127,30 141,30 141,40 127,40 122,35 " id="clusterblast-1_q39_3_0"  />
<polygon style="stroke:black; stroke-width:1; fill:#FFFFFF; " description="unannotated orf[br]Location: 29389 - 32410" locus_tag="CHAFR746836_0026490.1" class="clusterblast-orf" points="146,40 161,40 166,35 161,30 146,30 146,40 " id="clusterblast-1_q39_3_1"  />
<polygon style="stroke:black; stroke-width:1; fill:#FFFFFF; " description="unannotated orf[br]Location: 35419 - 37881" locus_tag="CHAFR746836_0026500.1" class="clusterblast-orf" points="187,35 192,30 204,30 204,40 192,40 187,35 " id="clusterblast-1_q39_3_2"  />
<polygon style="stroke:black; stroke-width:1; fill:#FFFFFF; " description="unannotated orf[br]Location: 39000 - 40527" locus_tag="CHAFR746836_0026510.1" class="clusterblast-orf" points="211,40 216,40 221,35 216,30 211,30 211,40 " id="clusterblast-1_q39_3_3"  />
<polygon style="stroke:black; stroke-width:1; fill:#FFFFFF; " description="unannotated orf[br]Location: 42530 - 44770" locus_tag="CHAFR746836_0026520.1" class="clusterblast-orf" points="235,40 245,40 250,35 245,30 235,30 235,40 " id="clusterblast-1_q39_3_4"  />
<polygon style="stroke:black; stroke-width:1; fill:rgb(190,63,63); " description="unannotated orf[br]Location: 45848 - 55198" locus_tag="CHAFR746836_0026530.1" class="clusterblast-orf" points="258,35 263,30 321,30 321,40 263,40 258,35 " id="clusterblast-1_q39_3_5"  />
<polygon style="stroke:black; stroke-width:1; fill:rgb(63,63,190); " description="unannotated orf[br]Location: 56792 - 57839" locus_tag="CHAFR746836_0026540.1" class="clusterblast-orf" points="332,40 334,40 339,35 334,30 332,30 332,40 " id="clusterblast-1_q39_3_6"  />
<polygon style="stroke:black; stroke-width:1; fill:rgb(63,190,63); " description="unannotated orf[br]Location: 62197 - 63622" locus_tag="CHAFR746836_0026550.1" class="clusterblast-orf" points="368,35 373,30 378,30 378,40 373,40 368,35 " id="clusterblast-1_q39_3_7"  />
<polygon style="stroke:black; stroke-width:1; fill:rgb(190,63,190); " description="unannotated orf[br]Location: 66838 - 68074" locus_tag="CHAFR746836_0026560.1" class="clusterblast-orf" points="400,40 403,40 408,35 403,30 400,30 400,40 " id="clusterblast-1_q39_3_8"  />
<polygon style="stroke:black; stroke-width:1; fill:rgb(190,190,63); " description="unannotated orf[br]Location: 68566 - 70348" locus_tag="CHAFR746836_0026570.1" class="clusterblast-orf" points="411,35 416,30 423,30 423,40 416,40 411,35 " id="clusterblast-1_q39_3_9"  />
<polygon style="stroke:black; stroke-width:1; fill:rgb(190,190,190); " description="unannotated orf[br]Location: 72585 - 73335" locus_tag="CHAFR746836_0026580.1" class="clusterblast-orf" points="439,40 439,40 444,35 439,30 439,30 439,40 " id="clusterblast-1_q39_3_10"  />
<polygon style="stroke:black; stroke-width:1; fill:#FFFFFF; " description="unannotated orf[br]Location: 81371 - 83366" locus_tag="CHAFR746836_0026590.1" class="clusterblast-orf" points="498,35 503,30 512,30 512,40 503,40 498,35 " id="clusterblast-1_q39_3_11"  />
<polygon style="stroke:black; stroke-width:1; fill:#FFFFFF; " description="unannotated orf[br]Location: 88456 - 90331" locus_tag="CHAFR746836_0026600.1" class="clusterblast-orf" points="546,40 554,40 559,35 554,30 546,30 546,40 " id="clusterblast-1_q39_3_12"  />
<polygon style="stroke:black; stroke-width:1; fill:#FFFFFF; " description="unannotated orf[br]Location: 94138 - 95689" locus_tag="CHAFR746836_0026610.1" class="clusterblast-orf" points="585,35 590,30 595,30 595,40 590,40 585,35 " id="clusterblast-1_q39_3_13"  />
<polygon style="stroke:black; stroke-width:1; fill:rgb(63,190,190); " description="unannotated orf[br]Location: 98792 - 99832" locus_tag="CHAFR746836_0026620.1" class="clusterblast-orf" points="616,35 621,30 623,30 623,40 621,40 616,35 " id="clusterblast-1_q39_3_14"  />
<polygon style="stroke:black; stroke-width:1; fill:#FFFFFF; " description="unannotated orf[br]Location: 100558 - 102743" locus_tag="CHAFR746836_0026630.1" class="clusterblast-orf" points="628,35 633,30 643,30 643,40 633,40 628,35 " id="clusterblast-1_q39_3_15"  />
<polygon style="stroke:black; stroke-width:1; fill:#FFFFFF; " description="unannotated orf[br]Location: 103839 - 106040" locus_tag="CHAFR746836_0026640.1" class="clusterblast-orf" points="650,40 660,40 665,35 660,30 650,30 650,40 " id="clusterblast-1_q39_3_16"  />
</g>
<g class="clusterblast-cluster" description="Trichoderma virens Gv29-8 TRIVIscaffold 6, whole genome ..." label="ABDF02000006.1_c3"  >
<text class="clusterblast-acc" y="60" x="5"  >
ABDF02000006.1_c3</text>
<text class="clusterblast-desc" y="60" x="460.8"  >
Trichoderma virens Gv29-8 TRIVIscaffold 6, whole genome ...</text>
<line y1="85" x2="778.0" style="stroke:grey; stroke-width:1; " x1="10" y2="85"  />
<polygon style="stroke:black; stroke-width:1; fill:#FFFFFF; " description="hypothetical_protein[br]Location: 2926922 - 2928616" locus_tag="TRIVIDRAFT_222254" id="clusterblast-1_h39_3_0" points="10,90 16,90 21,85 16,80 10,80 10,90 " class="clusterblast-orf"  />
<polygon style="stroke:black; stroke-width:1; fill:#FFFFFF; " description="hypothetical_protein[br]Location: 2929805 - 2930775" locus_tag="TRIVIDRAFT_60187" id="clusterblast-1_h39_3_1" points="29,90 31,90 36,85 31,80 29,80 29,90 " class="clusterblast-orf"  />
<polygon style="stroke:black; stroke-width:1; fill:#FFFFFF; " description="hypothetical_protein[br]Location: 2933885 - 2934826" locus_tag="TRIVIDRAFT_216126" id="clusterblast-1_h39_3_2" points="57,90 58,90 63,85 58,80 57,80 57,90 " class="clusterblast-orf"  />
<polygon style="stroke:black; stroke-width:1; fill:#FFFFFF; " description="hypothetical_protein[br]Location: 2939827 - 2941069" locus_tag="TRIVIDRAFT_230724" id="clusterblast-1_h39_3_3" points="97,85 102,80 105,80 105,90 102,90 97,85 " class="clusterblast-orf"  />
<polygon style="stroke:black; stroke-width:1; fill:#FFFFFF; " description="hypothetical_protein[br]Location: 2942513 - 2943802" locus_tag="TRIVIDRAFT_53844" id="clusterblast-1_h39_3_4" points="115,90 119,90 124,85 119,80 115,80 115,90 " class="clusterblast-orf"  />
<polygon style="stroke:black; stroke-width:1; fill:#FFFFFF; " description="hypothetical_protein[br]Location: 2943939 - 2945402" locus_tag="TRIVIDRAFT_201263" id="clusterblast-1_h39_3_5" points="125,85 130,80 135,80 135,90 130,90 125,85 " class="clusterblast-orf"  />
<polygon style="stroke:black; stroke-width:1; fill:#FFFFFF; " description="putative_polyketide_synthase[br]Location: 2947633 - 2954310" locus_tag="TRIVIDRAFT_222260" id="clusterblast-1_h39_3_6" points="150,90 190,90 195,85 190,80 150,80 150,90 " class="clusterblast-orf"  />
<polygon style="stroke:black; stroke-width:1; fill:#FFFFFF; " description="hypothetical_protein[br]Location: 2955018 - 2958290" locus_tag="TRIVIDRAFT_60181" id="clusterblast-1_h39_3_7" points="200,85 205,80 222,80 222,90 205,90 200,85 " class="clusterblast-orf"  />
<polygon style="stroke:black; stroke-width:1; fill:rgb(190,190,190); " description="hypothetical_protein[br]Location: 2958935 - 2960932&lt;br&gt;&lt;br&gt;&lt;b&gt;BlastP hit with CHAFR746836_0026580.1&lt;/b&gt;&lt;br&gt;Percentage identity: 31%&lt;br&gt;Percentage coverage: 83%&lt;br&gt;BLAST bit score: 75&lt;br&gt;E-value: 2e-14" locus_tag="TRIVIDRAFT_60180" id="clusterblast-1_h39_3_8" points="226,85 231,80 240,80 240,90 231,90 226,85 " class="clusterblast-orf"  />
<polygon style="stroke:black; stroke-width:1; fill:#FFFFFF; " description="hypothetical_protein[br]Location: 2961143 - 2962970" locus_tag="TRIVIDRAFT_180162" id="clusterblast-1_h39_3_9" points="241,85 246,80 254,80 254,90 246,90 241,85 " class="clusterblast-orf"  />
<polygon style="stroke:black; stroke-width:1; fill:#FFFFFF; " description="hypothetical_protein[br]Location: 2963804 - 2965501" locus_tag="TRIVIDRAFT_191595" id="clusterblast-1_h39_3_10" points="259,90 266,90 271,85 266,80 259,80 259,90 " class="clusterblast-orf"  />
<polygon style="stroke:black; stroke-width:1; fill:#FFFFFF; " description="hypothetical_protein[br]Location: 2966522 - 2967746" locus_tag="TRIVIDRAFT_29580" id="clusterblast-1_h39_3_11" points="278,85 283,80 286,80 286,90 283,90 278,85 " class="clusterblast-orf"  />
<polygon style="stroke:black; stroke-width:1; fill:#FFFFFF; " description="hypothetical_protein[br]Location: 2968309 - 2970608" locus_tag="TRIVIDRAFT_53838" id="clusterblast-1_h39_3_12" points="290,85 295,80 305,80 305,90 295,90 290,85 " class="clusterblast-orf"  />
<polygon style="stroke:black; stroke-width:1; fill:rgb(190,63,63); " description="putative_PKS-NRPS_protein[br]Location: 2971004 - 2982836&lt;br&gt;&lt;br&gt;&lt;b&gt;BlastP hit with CHAFR746836_0026530.1&lt;/b&gt;&lt;br&gt;Percentage identity: 42%&lt;br&gt;Percentage coverage: 60%&lt;br&gt;BLAST bit score: 1331&lt;br&gt;E-value: 0.0" locus_tag="TRIVIDRAFT_28610" id="clusterblast-1_h39_3_13" points="308,90 383,90 388,85 383,80 308,80 308,90 " class="clusterblast-orf"  />
<polygon style="stroke:black; stroke-width:1; fill:#FFFFFF; " description="hypothetical_protein[br]Location: 2983409 - 2984659" locus_tag="TRIVIDRAFT_53837" id="clusterblast-1_h39_3_14" points="392,90 396,90 401,85 396,80 392,80 392,90 " class="clusterblast-orf"  />
<polygon style="stroke:black; stroke-width:1; fill:#FFFFFF; " description="hypothetical_protein[br]Location: 2985129 - 2986998" locus_tag="TRIVIDRAFT_60172" id="clusterblast-1_h39_3_15" points="404,85 409,80 416,80 416,90 409,90 404,85 " class="clusterblast-orf"  />
<polygon style="stroke:black; stroke-width:1; fill:#FFFFFF; " description="hypothetical_protein[br]Location: 2987924 - 2988892" locus_tag="TRIVIDRAFT_28484" id="clusterblast-1_h39_3_16" points="423,90 424,90 429,85 424,80 423,80 423,90 " class="clusterblast-orf"  />
<polygon style="stroke:black; stroke-width:1; fill:#FFFFFF; " description="hypothetical_protein[br]Location: 2990843 - 2992046" locus_tag="TRIVIDRAFT_28177" id="clusterblast-1_h39_3_17" points="442,85 447,80 451,80 451,90 447,90 442,85 " class="clusterblast-orf"  />
<polygon style="stroke:black; stroke-width:1; fill:#FFFFFF; " description="hypothetical_protein[br]Location: 2994448 - 2995716" locus_tag="TRIVIDRAFT_191602" id="clusterblast-1_h39_3_18" points="467,90 470,90 475,85 470,80 467,80 467,90 " class="clusterblast-orf"  />
<polygon style="stroke:black; stroke-width:1; fill:#FFFFFF; " description="hypothetical_protein[br]Location: 2996154 - 2997169" locus_tag="TRIVIDRAFT_60168" id="clusterblast-1_h39_3_19" points="478,85 483,80 485,80 485,90 483,90 478,85 " class="clusterblast-orf"  />
<polygon style="stroke:black; stroke-width:1; fill:#FFFFFF; " description="hypothetical_protein[br]Location: 2998532 - 3000465" locus_tag="TRIVIDRAFT_28724" id="clusterblast-1_h39_3_20" points="495,85 500,80 508,80 508,90 500,90 495,85 " class="clusterblast-orf"  />
<polygon style="stroke:black; stroke-width:1; fill:#FFFFFF; " description="hypothetical_protein[br]Location: 3001842 - 3003639" locus_tag="TRIVIDRAFT_28823" id="clusterblast-1_h39_3_21" points="517,90 524,90 529,85 524,80 517,80 517,90 " class="clusterblast-orf"  />
<polygon style="stroke:black; stroke-width:1; fill:#FFFFFF; " description="hypothetical_protein[br]Location: 3004139 - 3005743" locus_tag="TRIVIDRAFT_230726" id="clusterblast-1_h39_3_22" points="533,85 538,80 543,80 543,90 538,90 533,85 " class="clusterblast-orf"  />
<polygon style="stroke:black; stroke-width:1; fill:#FFFFFF; " description="hypothetical_protein[br]Location: 3006439 - 3007737" locus_tag="TRIVIDRAFT_201282" id="clusterblast-1_h39_3_23" points="548,90 552,90 557,85 552,80 548,80 548,90 " class="clusterblast-orf"  />
<polygon style="stroke:black; stroke-width:1; fill:rgb(190,63,63); " description="putative_PKS-NRPS_protein[br]Location: 3007775 - 3020453&lt;br&gt;&lt;br&gt;&lt;b&gt;BlastP hit with CHAFR746836_0026530.1&lt;/b&gt;&lt;br&gt;Percentage identity: 38%&lt;br&gt;Percentage coverage: 69%&lt;br&gt;BLAST bit score: 1275&lt;br&gt;E-value: 0.0" locus_tag="TRIVIDRAFT_191605" id="clusterblast-1_h39_3_24" points="557,85 562,80 643,80 643,90 562,90 557,85 " class="clusterblast-orf"  />
<polygon style="stroke:black; stroke-width:1; fill:#FFFFFF; " description="hypothetical_protein[br]Location: 3021136 - 3021459" locus_tag="TRIVIDRAFT_29262" id="clusterblast-1_h39_3_25" points="648,90 650,85 648,80 648,90 " class="clusterblast-orf"  />
<polygon style="stroke:black; stroke-width:1; fill:#FFFFFF; " description="hypothetical_protein[br]Location: 3022332 - 3023453" locus_tag="TRIVIDRAFT_60161" id="clusterblast-1_h39_3_26" points="656,85 661,80 663,80 663,90 661,90 656,85 " class="clusterblast-orf"  />
<polygon style="stroke:black; stroke-width:1; fill:#FFFFFF; " description="hypothetical_protein[br]Location: 3024226 - 3025360" locus_tag="TRIVIDRAFT_149423" id="clusterblast-1_h39_3_27" points="669,90 671,90 676,85 671,80 669,80 669,90 " class="clusterblast-orf"  />
<polygon style="stroke:black; stroke-width:1; fill:#FFFFFF; " description="hypothetical_protein[br]Location: 3026224 - 3027276" locus_tag="TRIVIDRAFT_60159" id="clusterblast-1_h39_3_28" points="682,90 684,90 689,85 684,80 682,80 682,90 " class="clusterblast-orf"  />
<polygon style="stroke:black; stroke-width:1; fill:#FFFFFF; " description="hypothetical_protein[br]Location: 3028992 - 3031155" locus_tag="TRIVIDRAFT_28132" id="clusterblast-1_h39_3_29" points="701,90 711,90 716,85 711,80 701,80 701,90 " class="clusterblast-orf"  />
<polygon style="stroke:black; stroke-width:1; fill:#FFFFFF; " description="hypothetical_protein[br]Location: 3032060 - 3032848" locus_tag="TRIVIDRAFT_29068" id="clusterblast-1_h39_3_30" points="722,90 722,90 727,85 722,80 722,80 722,90 " class="clusterblast-orf"  />
<polygon style="stroke:black; stroke-width:1; fill:#FFFFFF; " description="hypothetical_protein[br]Location: 3034647 - 3034955" locus_tag="TRIVIDRAFT_28184" id="clusterblast-1_h39_3_31" points="739,90 741,85 739,80 739,90 " class="clusterblast-orf"  />
<polygon style="stroke:black; stroke-width:1; fill:rgb(63,190,190); " description="hypothetical_protein[br]Location: 3035843 - 3036837&lt;br&gt;&lt;br&gt;&lt;b&gt;BlastP hit with CHAFR746836_0026620.1&lt;/b&gt;&lt;br&gt;Percentage identity: 34%&lt;br&gt;Percentage coverage: 67%&lt;br&gt;BLAST bit score: 93&lt;br&gt;E-value: 6e-21" locus_tag="TRIVIDRAFT_209304" id="clusterblast-1_h39_3_32" points="747,85 752,80 754,80 754,90 752,90 747,85 " class="clusterblast-orf"  />
<polygon style="stroke:black; stroke-width:1; fill:#FFFFFF; " description="hypothetical_protein[br]Location: 3037498 - 3038835" locus_tag="TRIVIDRAFT_29230" id="clusterblast-1_h39_3_33" points="758,90 763,90 768,85 763,80 758,80 758,90 " class="clusterblast-orf"  />
<polygon style="stroke:black; stroke-width:1; fill:#FFFFFF; " description="hypothetical_protein[br]Location: 3039146 - 3040304" locus_tag="TRIVIDRAFT_28826" id="clusterblast-1_h39_3_34" points="770,85 775,80 778,80 778,90 775,90 770,85 " class="clusterblast-orf"  />
</g>
</svg>
