<svg xmlns="http://www.w3.org/2000/svg" height="230" width="800" version="1.1" y="0" x="0" preserveAspectRatio="none" xmlns:xlink="http://www.w3.org/1999/xlink" viewBox="0 0 800 230"  >
<g class="clusterblast-cluster" label="Query sequence"  >
<text class="clusterblast-acc" y="10" x="5"  >
Query sequence</text>
<line y1="35" x2="778.0" style="stroke:grey; stroke-width:1; " x1="10" y2="35"  />
<polygon style="stroke:black; stroke-width:1; fill:#FFFFFF; " description="unannotated orf[br]Location: 16927 - 18620" locus_tag="CHAFR746836_0088270.1" class="clusterblast-orf" points="10,35 15,30 23,30 23,40 15,40 10,35 " id="clusterblast-1_q20_7_0"  />
<polygon style="stroke:black; stroke-width:1; fill:#FFFFFF; " description="unannotated orf[br]Location: 18968 - 19665" locus_tag="CHAFR746836_0088280.1" class="clusterblast-orf" points="25,40 26,40 31,35 26,30 25,30 25,40 " id="clusterblast-1_q20_7_1"  />
<polygon style="stroke:black; stroke-width:1; fill:#FFFFFF; " description="unannotated orf[br]Location: 24387 - 25688" locus_tag="CHAFR746836_0088290.1" class="clusterblast-orf" points="67,35 72,30 77,30 77,40 72,40 67,35 " id="clusterblast-1_q20_7_2"  />
<polygon style="stroke:black; stroke-width:1; fill:#FFFFFF; " description="unannotated orf[br]Location: 26085 - 26578" locus_tag="CHAFR746836_0088300.1" class="clusterblast-orf" points="80,40 84,35 80,30 80,40 " id="clusterblast-1_q20_7_3"  />
<polygon style="stroke:black; stroke-width:1; fill:#FFFFFF; " description="unannotated orf[br]Location: 27631 - 28537" locus_tag="CHAFR746836_0088310.1" class="clusterblast-orf" points="92,35 97,30 99,30 99,40 97,40 92,35 " id="clusterblast-1_q20_7_4"  />
<polygon style="stroke:black; stroke-width:1; fill:#FFFFFF; " description="unannotated orf[br]Location: 29462 - 32567" locus_tag="CHAFR746836_0088320.1" class="clusterblast-orf" points="106,35 111,30 130,30 130,40 111,40 106,35 " id="clusterblast-1_q20_7_5"  />
<polygon style="stroke:black; stroke-width:1; fill:#FFFFFF; " description="unannotated orf[br]Location: 32818 - 33248" locus_tag="CHAFR746836_0088330.1" class="clusterblast-orf" points="132,40 135,35 132,30 132,40 " id="clusterblast-1_q20_7_6"  />
<polygon style="stroke:black; stroke-width:1; fill:#FFFFFF; " description="unannotated orf[br]Location: 35812 - 38220" locus_tag="CHAFR746836_0088340.1" class="clusterblast-orf" points="155,40 169,40 174,35 169,30 155,30 155,40 " id="clusterblast-1_q20_7_7"  />
<polygon style="stroke:black; stroke-width:1; fill:#FFFFFF; " description="unannotated orf[br]Location: 38703 - 40515" locus_tag="CHAFR746836_0088350.1" class="clusterblast-orf" points="178,35 183,30 192,30 192,40 183,40 178,35 " id="clusterblast-1_q20_7_8"  />
<polygon style="stroke:black; stroke-width:1; fill:#FFFFFF; " description="unannotated orf[br]Location: 54570 - 56265" locus_tag="CHAFR746836_0088360.1" class="clusterblast-orf" points="300,35 305,30 313,30 313,40 305,40 300,35 " id="clusterblast-1_q20_7_9"  />
<polygon style="stroke:black; stroke-width:1; fill:#FFFFFF; " description="unannotated orf[br]Location: 57343 - 57641" locus_tag="CHAFR746836_0088370.1" class="clusterblast-orf" points="321,40 324,35 321,30 321,40 " id="clusterblast-1_q20_7_10"  />
<polygon style="stroke:black; stroke-width:1; fill:#FFFFFF; " description="unannotated orf[br]Location: 59489 - 60069" locus_tag="CHAFR746836_0088380.1" class="clusterblast-orf" points="338,40 342,35 338,30 338,40 " id="clusterblast-1_q20_7_11"  />
<polygon style="stroke:black; stroke-width:1; fill:rgb(190,63,63); " description="unannotated orf[br]Location: 61596 - 62517" locus_tag="CHAFR746836_0088390.1" class="clusterblast-orf" points="354,40 356,40 361,35 356,30 354,30 354,40 " id="clusterblast-1_q20_7_12"  />
<polygon style="stroke:black; stroke-width:1; fill:#FFFFFF; " description="unannotated orf[br]Location: 64887 - 66442" locus_tag="CHAFR746836_0088400.1" class="clusterblast-orf" points="380,40 387,40 392,35 387,30 380,30 380,40 " id="clusterblast-1_q20_7_13"  />
<polygon style="stroke:black; stroke-width:1; fill:rgb(63,63,190); " description="unannotated orf[br]Location: 70818 - 75812" locus_tag="CHAFR746836_0088410.1" class="clusterblast-orf" points="425,35 430,30 464,30 464,40 430,40 425,35 " id="clusterblast-1_q20_7_14"  />
<polygon style="stroke:black; stroke-width:1; fill:rgb(63,190,63); " description="unannotated orf[br]Location: 70818 - 75812" locus_tag="CHAFR746836_0088410.2" class="clusterblast-orf" points="425,35 430,30 464,30 464,40 430,40 425,35 " id="clusterblast-1_q20_7_15"  />
<polygon style="stroke:black; stroke-width:1; fill:rgb(190,63,190); " description="unannotated orf[br]Location: 79054 - 80030" locus_tag="CHAFR746836_0088420.1" class="clusterblast-orf" points="489,35 494,30 497,30 497,40 494,40 489,35 " id="clusterblast-1_q20_7_16"  />
<polygon style="stroke:black; stroke-width:1; fill:rgb(190,190,63); " description="unannotated orf[br]Location: 83242 - 92486" locus_tag="CHAFR746836_0088430.1" class="clusterblast-orf" points="521,40 588,40 593,35 588,30 521,30 521,40 " id="clusterblast-1_q20_7_17"  />
<polygon style="stroke:black; stroke-width:1; fill:#FFFFFF; " description="unannotated orf[br]Location: 96222 - 97917" locus_tag="CHAFR746836_0088440.1" class="clusterblast-orf" points="622,40 630,40 635,35 630,30 622,30 622,40 " id="clusterblast-1_q20_7_18"  />
<polygon style="stroke:black; stroke-width:1; fill:#FFFFFF; " description="unannotated orf[br]Location: 98082 - 99448" locus_tag="CHAFR746836_0088450.1" class="clusterblast-orf" points="636,35 641,30 646,30 646,40 641,40 636,35 " id="clusterblast-1_q20_7_19"  />
<polygon style="stroke:black; stroke-width:1; fill:rgb(190,190,190); " description="unannotated orf[br]Location: 104203 - 105217" locus_tag="CHAFR746836_0088460.1" class="clusterblast-orf" points="683,40 686,40 691,35 686,30 683,30 683,40 " id="clusterblast-1_q20_7_20"  />
<polygon style="stroke:black; stroke-width:1; fill:#FFFFFF; " description="unannotated orf[br]Location: 112157 - 113036" locus_tag="CHAFR746836_0088470.1" class="clusterblast-orf" points="744,40 746,40 751,35 746,30 744,30 744,40 " id="clusterblast-1_q20_7_21"  />
<polygon style="stroke:black; stroke-width:1; fill:#FFFFFF; " description="unannotated orf[br]Location: 114252 - 116434" locus_tag="CHAFR746836_0088480.1" class="clusterblast-orf" points="761,35 766,30 778,30 778,40 766,40 761,35 " id="clusterblast-1_q20_7_22"  />
</g>
<g class="clusterblast-cluster" description="Trichoderma atroviride IMI 206040 TRIATcontig 13, whole ..." label="ABDG02000013.1_c1"  >
<text class="clusterblast-acc" y="60" x="5"  >
ABDG02000013.1_c1</text>
<text class="clusterblast-desc" y="60" x="460.8"  >
Trichoderma atroviride IMI 206040 TRIATcontig 13, whole ...</text>
<line y1="85" x2="778.0" style="stroke:grey; stroke-width:1; " x1="10" y2="85"  />
<polygon style="stroke:black; stroke-width:1; fill:#FFFFFF; " description="hypothetical_protein[br]Location: 870131 - 871354" locus_tag="TRIATDRAFT_53035" id="clusterblast-1_h20_7_0" points="16,85 21,80 25,80 25,90 21,90 16,85 " class="clusterblast-orf"  />
<polygon style="stroke:black; stroke-width:1; fill:#FFFFFF; " description="hypothetical_protein[br]Location: 868531 - 869641" locus_tag="TRIATDRAFT_269919" id="clusterblast-1_h20_7_1" points="29,90 32,90 37,85 32,80 29,80 29,90 " class="clusterblast-orf"  />
<polygon style="stroke:black; stroke-width:1; fill:#FFFFFF; " description="hypothetical_protein[br]Location: 863190 - 864326" locus_tag="TRIATDRAFT_314352" id="clusterblast-1_h20_7_2" points="70,90 74,90 79,85 74,80 70,80 70,90 " class="clusterblast-orf"  />
<polygon style="stroke:black; stroke-width:1; fill:#FFFFFF; " description="hypothetical_protein[br]Location: 861135 - 862929" locus_tag="TRIATDRAFT_53012" id="clusterblast-1_h20_7_3" points="81,85 86,80 94,80 94,90 86,90 81,85 " class="clusterblast-orf"  />
<polygon style="stroke:black; stroke-width:1; fill:#FFFFFF; " description="hypothetical_protein[br]Location: 859102 - 859982" locus_tag="TRIATDRAFT_314350" id="clusterblast-1_h20_7_4" points="103,85 108,80 110,80 110,90 108,90 103,85 " class="clusterblast-orf"  />
<polygon style="stroke:black; stroke-width:1; fill:#FFFFFF; " description="hypothetical_protein[br]Location: 857045 - 858414" locus_tag="TRIATDRAFT_260926" id="clusterblast-1_h20_7_5" points="115,90 121,90 126,85 121,80 115,80 115,90 " class="clusterblast-orf"  />
<polygon style="stroke:black; stroke-width:1; fill:#FFFFFF; " description="hypothetical_protein[br]Location: 855302 - 856449" locus_tag="TRIATDRAFT_53082" id="clusterblast-1_h20_7_6" points="131,85 136,80 139,80 139,90 136,90 131,85 " class="clusterblast-orf"  />
<polygon style="stroke:black; stroke-width:1; fill:#FFFFFF; " description="hypothetical_protein[br]Location: 852847 - 854364" locus_tag="TRIATDRAFT_93352" id="clusterblast-1_h20_7_7" points="147,85 152,80 158,80 158,90 152,90 147,85 " class="clusterblast-orf"  />
<polygon style="stroke:black; stroke-width:1; fill:#FFFFFF; " description="hypothetical_protein[br]Location: 848312 - 851873" locus_tag="TRIATDRAFT_52932" id="clusterblast-1_h20_7_8" points="166,90 188,90 193,85 188,80 166,80 166,90 " class="clusterblast-orf"  />
<polygon style="stroke:black; stroke-width:1; fill:rgb(190,63,63); " description="hypothetical_protein[br]Location: 845037 - 846572&lt;br&gt;&lt;br&gt;&lt;b&gt;BlastP hit with CHAFR746836_0088390.1&lt;/b&gt;&lt;br&gt;Percentage identity: 41%&lt;br&gt;Percentage coverage: 100%&lt;br&gt;BLAST bit score: 215&lt;br&gt;E-value: 1e-65" locus_tag="TRIATDRAFT_314346" id="clusterblast-1_h20_7_9" points="207,90 214,90 219,85 214,80 207,80 207,90 " class="clusterblast-orf"  />
<polygon style="stroke:black; stroke-width:1; fill:#FFFFFF; " description="hypothetical_protein[br]Location: 842260 - 844830" locus_tag="TRIATDRAFT_211358" id="clusterblast-1_h20_7_10" points="220,85 225,80 240,80 240,90 225,90 220,85 " class="clusterblast-orf"  />
<polygon style="stroke:black; stroke-width:1; fill:rgb(190,190,63); " description="hypothetical_protein[br]Location: 832172 - 839622&lt;br&gt;&lt;br&gt;&lt;b&gt;BlastP hit with CHAFR746836_0088430.1&lt;/b&gt;&lt;br&gt;Percentage identity: 34%&lt;br&gt;Percentage coverage: 52%&lt;br&gt;BLAST bit score: 737&lt;br&gt;E-value: 0.0" locus_tag="TRIATDRAFT_211357" id="clusterblast-1_h20_7_11" points="260,90 313,90 318,85 313,80 260,80 260,90 " class="clusterblast-orf"  />
<polygon style="stroke:black; stroke-width:1; fill:#FFFFFF; " description="hypothetical_protein[br]Location: 830537 - 831175" locus_tag="TRIATDRAFT_27062" id="clusterblast-1_h20_7_12" points="326,85 331,80 331,80 331,90 331,90 326,85 " class="clusterblast-orf"  />
<polygon style="stroke:black; stroke-width:1; fill:#FFFFFF; " description="hypothetical_protein[br]Location: 827151 - 828116" locus_tag="TRIATDRAFT_53153" id="clusterblast-1_h20_7_13" points="349,90 352,90 357,85 352,80 349,80 349,90 " class="clusterblast-orf"  />
<polygon style="stroke:black; stroke-width:1; fill:#FFFFFF; " description="hypothetical_protein[br]Location: 824466 - 825671" locus_tag="TRIATDRAFT_83320" id="clusterblast-1_h20_7_14" points="368,90 372,90 377,85 372,80 368,80 368,90 " class="clusterblast-orf"  />
<polygon style="stroke:black; stroke-width:1; fill:#FFFFFF; " description="hypothetical_protein[br]Location: 822895 - 823773" locus_tag="TRIATDRAFT_280045" id="clusterblast-1_h20_7_15" points="383,85 388,80 390,80 390,90 388,90 383,85 " class="clusterblast-orf"  />
<polygon style="stroke:black; stroke-width:1; fill:#FFFFFF; " description="hypothetical_protein[br]Location: 821330 - 822419" locus_tag="TRIATDRAFT_83321" id="clusterblast-1_h20_7_16" points="393,90 397,90 402,85 397,80 393,80 393,90 " class="clusterblast-orf"  />
<polygon style="stroke:black; stroke-width:1; fill:rgb(63,63,190); " description="multidrug_resistance-type_transporter_protein[br]Location: 816077 - 820955&lt;br&gt;&lt;br&gt;&lt;b&gt;BlastP hit with CHAFR746836_0088410.1&lt;/b&gt;&lt;br&gt;Percentage identity: 45%&lt;br&gt;Percentage coverage: 96%&lt;br&gt;BLAST bit score: 1066&lt;br&gt;E-value: 0.0&lt;br&gt;&lt;br&gt;&lt;b&gt;BlastP hit with CHAFR746836_0088410.2&lt;/b&gt;&lt;br&gt;Percentage identity: 41%&lt;br&gt;Percentage coverage: 69%&lt;br&gt;BLAST bit score: 585&lt;br&gt;E-value: 0.0" locus_tag="TRIATDRAFT_269904" id="clusterblast-1_h20_7_17" points="404,85 409,80 442,80 442,90 409,90 404,85 " class="clusterblast-orf"  />
<polygon style="stroke:black; stroke-width:1; fill:#FFFFFF; " description="hypothetical_protein[br]Location: 814226 - 815488" locus_tag="TRIATDRAFT_288974" id="clusterblast-1_h20_7_18" points="447,85 452,80 456,80 456,90 452,90 447,85 " class="clusterblast-orf"  />
<polygon style="stroke:black; stroke-width:1; fill:#FFFFFF; " description="non-ribosomal_peptide_synthetase[br]Location: 793146 - 812576" locus_tag="TRIATDRAFT_211347" id="clusterblast-1_h20_7_19" points="469,90 614,90 619,85 614,80 469,80 469,90 " class="clusterblast-orf"  />
<polygon style="stroke:black; stroke-width:1; fill:#FFFFFF; " description="glycoside_hydrolase_family_45_protein[br]Location: 791334 - 792202" locus_tag="TRIATDRAFT_297095" id="clusterblast-1_h20_7_20" points="626,90 628,90 633,85 628,80 626,80 626,90 " class="clusterblast-orf"  />
<polygon style="stroke:black; stroke-width:1; fill:#FFFFFF; " description="hypothetical_protein[br]Location: 790605 - 790835" locus_tag="TRIATDRAFT_187253" id="clusterblast-1_h20_7_21" points="637,90 639,85 637,80 637,90 " class="clusterblast-orf"  />
<polygon style="stroke:black; stroke-width:1; fill:#FFFFFF; " description="hypothetical_protein[br]Location: 788937 - 790188" locus_tag="TRIATDRAFT_93365" id="clusterblast-1_h20_7_22" points="642,85 647,80 652,80 652,90 647,90 642,85 " class="clusterblast-orf"  />
<polygon style="stroke:black; stroke-width:1; fill:#FFFFFF; " description="hypothetical_protein[br]Location: 786661 - 787479" locus_tag="TRIATDRAFT_53079" id="clusterblast-1_h20_7_23" points="663,85 668,80 669,80 669,90 668,90 663,85 " class="clusterblast-orf"  />
<polygon style="stroke:black; stroke-width:1; fill:#FFFFFF; " description="glycoside_hydrolase_family_75_protein[br]Location: 784863 - 785833" locus_tag="TRIATDRAFT_145108" id="clusterblast-1_h20_7_24" points="676,85 681,80 683,80 683,90 681,90 676,85 " class="clusterblast-orf"  />
<polygon style="stroke:black; stroke-width:1; fill:#FFFFFF; " description="hypothetical_protein[br]Location: 781216 - 782010" locus_tag="TRIATDRAFT_52592" id="clusterblast-1_h20_7_25" points="705,90 706,90 711,85 706,80 705,80 705,90 " class="clusterblast-orf"  />
<polygon style="stroke:black; stroke-width:1; fill:#FFFFFF; " description="hypothetical_protein[br]Location: 779266 - 780790" locus_tag="TRIATDRAFT_52514" id="clusterblast-1_h20_7_26" points="714,85 719,80 726,80 726,90 719,90 714,85 " class="clusterblast-orf"  />
<polygon style="stroke:black; stroke-width:1; fill:#FFFFFF; " description="hypothetical_protein[br]Location: 775284 - 777504" locus_tag="TRIATDRAFT_233320" id="clusterblast-1_h20_7_27" points="740,90 752,90 757,85 752,80 740,80 740,90 " class="clusterblast-orf"  />
<polygon style="stroke:black; stroke-width:1; fill:#FFFFFF; " description="hypothetical_protein[br]Location: 773599 - 774852" locus_tag="TRIATDRAFT_93371" id="clusterblast-1_h20_7_28" points="760,85 765,80 770,80 770,90 765,90 760,85 " class="clusterblast-orf"  />
</g>
</svg>
