<svg xmlns="http://www.w3.org/2000/svg" height="230" width="800" version="1.1" y="0" x="0" preserveAspectRatio="none" xmlns:xlink="http://www.w3.org/1999/xlink" viewBox="0 0 800 230"  >
<g class="clusterblast-cluster" label="Query sequence"  >
<text class="clusterblast-acc" y="10" x="5"  >
Query sequence</text>
<line y1="35" x2="778.0" style="stroke:grey; stroke-width:1; " x1="10" y2="35"  />
<polygon style="stroke:black; stroke-width:1; fill:rgb(190,63,63); " description="unannotated orf[br]Location: 207 - 1204" locus_tag="CHAFR746836_0060940.1" class="clusterblast-orf" points="10,35 15,30 19,30 19,40 15,40 10,35 " id="clusterblast-2_q5_6_0"  />
<polygon style="stroke:black; stroke-width:1; fill:rgb(63,63,190); " description="unannotated orf[br]Location: 2322 - 6530" locus_tag="CHAFR746836_0060950.1" class="clusterblast-orf" points="29,40 64,40 69,35 64,30 29,30 29,40 " id="clusterblast-2_q5_6_1"  />
<polygon style="stroke:black; stroke-width:1; fill:rgb(63,190,63); " description="unannotated orf[br]Location: 10116 - 15324" locus_tag="CHAFR746836_0060960.1" class="clusterblast-orf" points="103,40 147,40 152,35 147,30 103,30 103,40 " id="clusterblast-2_q5_6_2"  />
<polygon style="stroke:black; stroke-width:1; fill:#FFFFFF; " description="unannotated orf[br]Location: 16383 - 17532" locus_tag="CHAFR746836_0060970.1" class="clusterblast-orf" points="162,35 167,30 173,30 173,40 167,40 162,35 " id="clusterblast-2_q5_6_3"  />
<polygon style="stroke:black; stroke-width:1; fill:#FFFFFF; " description="unannotated orf[br]Location: 21187 - 23857" locus_tag="CHAFR746836_0060980.1" class="clusterblast-orf" points="207,35 212,30 232,30 232,40 212,40 207,35 " id="clusterblast-2_q5_6_4"  />
<polygon style="stroke:black; stroke-width:1; fill:#FFFFFF; " description="unannotated orf[br]Location: 25860 - 27618" locus_tag="CHAFR746836_0060990.1" class="clusterblast-orf" points="251,35 256,30 268,30 268,40 256,40 251,35 " id="clusterblast-2_q5_6_5"  />
<polygon style="stroke:black; stroke-width:1; fill:#FFFFFF; " description="unannotated orf[br]Location: 28662 - 29973" locus_tag="CHAFR746836_0061000.1" class="clusterblast-orf" points="277,35 282,30 290,30 290,40 282,40 277,35 " id="clusterblast-2_q5_6_6"  />
<polygon style="stroke:black; stroke-width:1; fill:#FFFFFF; " description="unannotated orf[br]Location: 31849 - 32962" locus_tag="CHAFR746836_0061010.1" class="clusterblast-orf" points="307,35 312,30 318,30 318,40 312,40 307,35 " id="clusterblast-2_q5_6_7"  />
<polygon style="stroke:black; stroke-width:1; fill:#FFFFFF; " description="unannotated orf[br]Location: 35346 - 36469" locus_tag="CHAFR746836_0061020.1" class="clusterblast-orf" points="340,40 346,40 351,35 346,30 340,30 340,40 " id="clusterblast-2_q5_6_8"  />
<polygon style="stroke:black; stroke-width:1; fill:rgb(190,63,190); " description="unannotated orf[br]Location: 38122 - 39903" locus_tag="CHAFR746836_0061030.1" class="clusterblast-orf" points="366,40 378,40 383,35 378,30 366,30 366,40 " id="clusterblast-2_q5_6_9"  />
<polygon style="stroke:black; stroke-width:1; fill:#FFFFFF; " description="unannotated orf[br]Location: 40585 - 42854" locus_tag="CHAFR746836_0061040.1" class="clusterblast-orf" points="390,35 395,30 411,30 411,40 395,40 390,35 " id="clusterblast-2_q5_6_10"  />
<polygon style="stroke:black; stroke-width:1; fill:rgb(190,190,63); " description="unannotated orf[br]Location: 52799 - 56938" locus_tag="CHAFR746836_0061050.1" class="clusterblast-orf" points="505,35 510,30 544,30 544,40 510,40 505,35 " id="clusterblast-2_q5_6_11"  />
<polygon style="stroke:black; stroke-width:1; fill:#FFFFFF; " description="unannotated orf[br]Location: 58138 - 58734" locus_tag="CHAFR746836_0061060.1" class="clusterblast-orf" points="555,40 555,40 560,35 555,30 555,30 555,40 " id="clusterblast-2_q5_6_12"  />
<polygon style="stroke:black; stroke-width:1; fill:#FFFFFF; " description="unannotated orf[br]Location: 74060 - 75703" locus_tag="CHAFR746836_0061070.1" class="clusterblast-orf" points="705,40 715,40 720,35 715,30 705,30 705,40 " id="clusterblast-2_q5_6_13"  />
<polygon style="stroke:black; stroke-width:1; fill:rgb(190,190,190); " description="unannotated orf[br]Location: 80197 - 81757" locus_tag="CHAFR746836_0061080.2" class="clusterblast-orf" points="762,40 772,40 777,35 772,30 762,30 762,40 " id="clusterblast-2_q5_6_14"  />
<polygon style="stroke:black; stroke-width:1; fill:rgb(63,190,190); " description="unannotated orf[br]Location: 80197 - 81797" locus_tag="CHAFR746836_0061080.1" class="clusterblast-orf" points="762,40 773,40 778,35 773,30 762,30 762,40 " id="clusterblast-2_q5_6_15"  />
</g>
<g class="clusterblast-cluster" description="Aspergillus fumigatus A1163 scf 000003 genomic scaffold, who..." label="DS499596.1_c5"  >
<text class="clusterblast-acc" y="60" x="5"  >
DS499596.1_c5</text>
<text class="clusterblast-desc" y="60" x="460.8"  >
Aspergillus fumigatus A1163 scf 000003 genomic scaffold, who...</text>
<line y1="85" x2="778.0" style="stroke:grey; stroke-width:1; " x1="10" y2="85"  />
<polygon style="stroke:black; stroke-width:1; fill:#FFFFFF; " description="O-methyltransferase,_putative[br]Location: 3177992 - 3178772" locus_tag="AFUB_044750" id="clusterblast-2_h5_6_0" points="108,85 113,80 115,80 115,90 113,90 108,85 " class="clusterblast-orf"  />
<polygon style="stroke:black; stroke-width:1; fill:#FFFFFF; " description="cytochrome_P450_monooxygenase,_putative[br]Location: 3179311 - 3180912" locus_tag="AFUB_044760" id="clusterblast-2_h5_6_1" points="120,90 130,90 135,85 130,80 120,80 120,90 " class="clusterblast-orf"  />
<polygon style="stroke:black; stroke-width:1; fill:#FFFFFF; " description="conserved_hypothetical_protein[br]Location: 3182698 - 3183340" locus_tag="AFUB_044770" id="clusterblast-2_h5_6_2" points="152,90 153,90 158,85 153,80 152,80 152,90 " class="clusterblast-orf"  />
<polygon style="stroke:black; stroke-width:1; fill:#FFFFFF; " description="HAD_superfamily_hydrolase,_putative[br]Location: 3185201 - 3185875" locus_tag="AFUB_044780" id="clusterblast-2_h5_6_3" points="175,85 180,80 182,80 182,90 180,90 175,85 " class="clusterblast-orf"  />
<polygon style="stroke:black; stroke-width:1; fill:#FFFFFF; " description="cytochrome_P450_oxidoreductase,_putative[br]Location: 3188078 - 3189676" locus_tag="AFUB_044790" id="clusterblast-2_h5_6_4" points="202,90 212,90 217,85 212,80 202,80 202,90 " class="clusterblast-orf"  />
<polygon style="stroke:black; stroke-width:1; fill:#FFFFFF; " description="conserved_hypothetical_protein[br]Location: 3190259 - 3191042" locus_tag="AFUB_044800" id="clusterblast-2_h5_6_5" points="223,90 225,90 230,85 225,80 223,80 223,90 " class="clusterblast-orf"  />
<polygon style="stroke:black; stroke-width:1; fill:#FFFFFF; " description="MFS_siderophore_transporter_MirB-like,_putative[br]Location: 3191863 - 3193815" locus_tag="AFUB_044810" id="clusterblast-2_h5_6_6" points="238,85 243,80 256,80 256,90 243,90 238,85 " class="clusterblast-orf"  />
<polygon style="stroke:black; stroke-width:1; fill:rgb(63,63,190); " description="ABC_multidrug_transporter_SitT[br]Location: 3194593 - 3198587&lt;br&gt;&lt;br&gt;&lt;b&gt;BlastP hit with CHAFR746836_0060950.1&lt;/b&gt;&lt;br&gt;Percentage identity: 54%&lt;br&gt;Percentage coverage: 97%&lt;br&gt;BLAST bit score: 1389&lt;br&gt;E-value: 0.0" locus_tag="AFUB_044820" id="clusterblast-2_h5_6_7" points="264,90 296,90 301,85 296,80 264,80 264,90 " class="clusterblast-orf"  />
<polygon style="stroke:black; stroke-width:1; fill:rgb(63,190,63); " description="nonribosomal_peptide_synthase_SidD[br]Location: 3198715 - 3205021&lt;br&gt;&lt;br&gt;&lt;b&gt;BlastP hit with CHAFR746836_0060960.1&lt;/b&gt;&lt;br&gt;Percentage identity: 46%&lt;br&gt;Percentage coverage: 69%&lt;br&gt;BLAST bit score: 1069&lt;br&gt;E-value: 0.0&lt;br&gt;&lt;br&gt;&lt;b&gt;BlastP hit with CHAFR746836_0061050.1&lt;/b&gt;&lt;br&gt;Percentage identity: 32%&lt;br&gt;Percentage coverage: 55%&lt;br&gt;BLAST bit score: 315&lt;br&gt;E-value: 8e-87" locus_tag="AFUB_044830" id="clusterblast-2_h5_6_8" points="303,85 308,80 362,80 362,90 308,90 303,85 " class="clusterblast-orf"  />
<polygon style="stroke:black; stroke-width:1; fill:#FFFFFF; " description="enoyl-CoA_hydratase/isomerase_family_protein[br]Location: 3205730 - 3206615" locus_tag="AFUB_044840" id="clusterblast-2_h5_6_9" points="369,85 374,80 377,80 377,90 374,90 369,85 " class="clusterblast-orf"  />
<polygon style="stroke:black; stroke-width:1; fill:#FFFFFF; " description="siderophore_biosynthesis_acetylase_AceI,[br]Location: 3206927 - 3208315" locus_tag="AFUB_044850" id="clusterblast-2_h5_6_10" points="380,90 388,90 393,85 388,80 380,80 380,90 " class="clusterblast-orf"  />
<polygon style="stroke:black; stroke-width:1; fill:#FFFFFF; " description="siderophore_biosynthesis_lipase/esterase,[br]Location: 3209863 - 3210987" locus_tag="AFUB_044860" id="clusterblast-2_h5_6_11" points="407,90 413,90 418,85 413,80 407,80 407,90 " class="clusterblast-orf"  />
<polygon style="stroke:black; stroke-width:1; fill:#FFFFFF; " description="sugar_O-acetyltransferase,_putative[br]Location: 3211178 - 3211921" locus_tag="AFUB_044870" id="clusterblast-2_h5_6_12" points="420,85 425,80 427,80 427,90 425,90 420,85 " class="clusterblast-orf"  />
<polygon style="stroke:black; stroke-width:1; fill:#FFFFFF; " description="cell_surface_protein,_putative[br]Location: 3213303 - 3213863" locus_tag="AFUB_044890" id="clusterblast-2_h5_6_13" points="440,90 440,90 445,85 440,80 440,80 440,90 " class="clusterblast-orf"  />
<polygon style="stroke:black; stroke-width:1; fill:#FFFFFF; " description="nonribosomal_peptide_synthase_SidE[br]Location: 3214421 - 3220750" locus_tag="AFUB_044900" id="clusterblast-2_h5_6_14" points="450,85 455,80 510,80 510,90 455,90 450,85 " class="clusterblast-orf"  />
<polygon style="stroke:black; stroke-width:1; fill:#FFFFFF; " description="mitochondrial_enoyl_reductase,_putative[br]Location: 3222031 - 3223257" locus_tag="AFUB_044910" id="clusterblast-2_h5_6_15" points="522,90 529,90 534,85 529,80 522,80 522,90 " class="clusterblast-orf"  />
<polygon style="stroke:black; stroke-width:1; fill:rgb(190,63,190); " description="MFS_monocarboxylate_transporter,_putative[br]Location: 3223962 - 3225399&lt;br&gt;&lt;br&gt;&lt;b&gt;BlastP hit with CHAFR746836_0061030.1&lt;/b&gt;&lt;br&gt;Percentage identity: 37%&lt;br&gt;Percentage coverage: 77%&lt;br&gt;BLAST bit score: 263&lt;br&gt;E-value: 2e-80" locus_tag="AFUB_044920" id="clusterblast-2_h5_6_16" points="540,90 549,90 554,85 549,80 540,80 540,90 " class="clusterblast-orf"  />
<polygon style="stroke:black; stroke-width:1; fill:#FFFFFF; " description="C6_transcription_factor,_putative[br]Location: 3225865 - 3227135" locus_tag="AFUB_044930" id="clusterblast-2_h5_6_17" points="558,90 565,90 570,85 565,80 558,80 558,90 " class="clusterblast-orf"  />
<polygon style="stroke:black; stroke-width:1; fill:#FFFFFF; " description="RTA1_domain_protein[br]Location: 3227339 - 3228288" locus_tag="AFUB_044940" id="clusterblast-2_h5_6_18" points="572,85 577,80 581,80 581,90 577,90 572,85 " class="clusterblast-orf"  />
<polygon style="stroke:black; stroke-width:1; fill:#FFFFFF; " description="hypothetical_protein[br]Location: 3229027 - 3231822" locus_tag="AFUB_044950" id="clusterblast-2_h5_6_19" points="588,90 609,90 614,85 609,80 588,80 588,90 " class="clusterblast-orf"  />
<polygon style="stroke:black; stroke-width:1; fill:#FFFFFF; " description="conserved_hypothetical_protein[br]Location: 3233099 - 3234300" locus_tag="AFUB_044960" id="clusterblast-2_h5_6_20" points="626,85 631,80 638,80 638,90 631,90 626,85 " class="clusterblast-orf"  />
<polygon style="stroke:black; stroke-width:1; fill:#FFFFFF; " description="FAD_binding_monooxygenase,_putative[br]Location: 3235484 - 3237031" locus_tag="AFUB_044970" id="clusterblast-2_h5_6_21" points="649,85 654,80 663,80 663,90 654,90 649,85 " class="clusterblast-orf"  />
<polygon style="stroke:black; stroke-width:1; fill:#FFFFFF; " description="isochorismatase_family__hydrolase,_putative[br]Location: 3237878 - 3238739" locus_tag="AFUB_044980" id="clusterblast-2_h5_6_22" points="671,85 676,80 679,80 679,90 676,90 671,85 " class="clusterblast-orf"  />
</g>
</svg>
