<svg xmlns="http://www.w3.org/2000/svg" height="230" width="800" version="1.1" y="0" x="0" preserveAspectRatio="none" xmlns:xlink="http://www.w3.org/1999/xlink" viewBox="0 0 800 230"  >
<g class="clusterblast-cluster" label="Query sequence"  >
<text class="clusterblast-acc" y="10" x="5"  >
Query sequence</text>
<line y1="35" x2="778.0" style="stroke:grey; stroke-width:1; " x1="10" y2="35"  />
<polygon style="stroke:black; stroke-width:1; fill:rgb(190,63,63); " description="unannotated orf[br]Location: 0 - 4473" locus_tag="CHAFR746836_0033810.1" class="clusterblast-orf" points="46,35 51,30 115,30 115,40 51,40 46,35 " id="clusterblast-1_q47_5_0"  />
<polygon style="stroke:black; stroke-width:1; fill:rgb(63,63,190); " description="unannotated orf[br]Location: 8908 - 16258" locus_tag="CHAFR746836_0033820.1" class="clusterblast-orf" points="183,35 188,30 297,30 297,40 188,40 183,35 " id="clusterblast-1_q47_5_1"  />
<polygon style="stroke:black; stroke-width:1; fill:rgb(63,190,63); " description="unannotated orf[br]Location: 17051 - 17982" locus_tag="CHAFR746836_0033830.1" class="clusterblast-orf" points="309,40 319,40 324,35 319,30 309,30 309,40 " id="clusterblast-1_q47_5_2"  />
<polygon style="stroke:black; stroke-width:1; fill:rgb(190,63,190); " description="unannotated orf[br]Location: 20014 - 21694" locus_tag="CHAFR746836_0033840.1" class="clusterblast-orf" points="355,40 376,40 381,35 376,30 355,30 355,40 " id="clusterblast-1_q47_5_3"  />
<polygon style="stroke:black; stroke-width:1; fill:rgb(190,190,63); " description="unannotated orf[br]Location: 21817 - 22799" locus_tag="CHAFR746836_0033850.1" class="clusterblast-orf" points="383,35 388,30 398,30 398,40 388,40 383,35 " id="clusterblast-1_q47_5_4"  />
<polygon style="stroke:black; stroke-width:1; fill:rgb(190,190,190); " description="unannotated orf[br]Location: 23459 - 25108" locus_tag="CHAFR746836_0033860.1" class="clusterblast-orf" points="408,40 429,40 434,35 429,30 408,30 408,40 " id="clusterblast-1_q47_5_5"  />
<polygon style="stroke:black; stroke-width:1; fill:#FFFFFF; " description="unannotated orf[br]Location: 25635 - 26766" locus_tag="CHAFR746836_0033870.1" class="clusterblast-orf" points="442,40 455,40 460,35 455,30 442,30 442,40 " id="clusterblast-1_q47_5_6"  />
<polygon style="stroke:black; stroke-width:1; fill:#FFFFFF; " description="unannotated orf[br]Location: 33731 - 34287" locus_tag="CHAFR746836_0033880.1" class="clusterblast-orf" points="567,35 572,30 576,30 576,40 572,40 567,35 " id="clusterblast-1_q47_5_7"  />
<polygon style="stroke:black; stroke-width:1; fill:#FFFFFF; " description="unannotated orf[br]Location: 40637 - 41931" locus_tag="CHAFR746836_0033890.1" class="clusterblast-orf" points="674,35 679,30 694,30 694,40 679,40 674,35 " id="clusterblast-1_q47_5_8"  />
<polygon style="stroke:black; stroke-width:1; fill:#FFFFFF; " description="unannotated orf[br]Location: 43999 - 44934" locus_tag="CHAFR746836_0033900.1" class="clusterblast-orf" points="726,35 731,30 741,30 741,40 731,40 726,35 " id="clusterblast-1_q47_5_9"  />
</g>
<g class="clusterblast-cluster" description="Aspergillus kawachii IFO 4308 DNA, contig: scaffold00007, wh..." label="DF126453.1_c2"  >
<text class="clusterblast-acc" y="60" x="5"  >
DF126453.1_c2</text>
<text class="clusterblast-desc" y="60" x="460.8"  >
Aspergillus kawachii IFO 4308 DNA, contig: scaffold00007, wh...</text>
<line y1="85" x2="778.0" style="stroke:grey; stroke-width:1; " x1="10" y2="85"  />
<polygon style="stroke:black; stroke-width:1; fill:#FFFFFF; " description="beta-d-glucoside_glucohydrolase_D[br]Location: 1247450 - 1250031" locus_tag="AKAW_03681" id="clusterblast-1_h47_5_0" points="10,90 44,90 49,85 44,80 10,80 10,90 " class="clusterblast-orf"  />
<polygon style="stroke:black; stroke-width:1; fill:#FFFFFF; " description="O-acetyltransferase[br]Location: 1250535 - 1252013" locus_tag="AKAW_03682" id="clusterblast-1_h47_5_1" points="57,85 62,80 80,80 80,90 62,90 57,85 " class="clusterblast-orf"  />
<polygon style="stroke:black; stroke-width:1; fill:#FFFFFF; " description="phosphotransferase_enzyme_family_protein[br]Location: 1252881 - 1254129" locus_tag="AKAW_03683" id="clusterblast-1_h47_5_2" points="94,90 108,90 113,85 108,80 94,80 94,90 " class="clusterblast-orf"  />
<polygon style="stroke:black; stroke-width:1; fill:#FFFFFF; " description="similar_to_An07g09782[br]Location: 1254451 - 1255607" locus_tag="AKAW_03684" id="clusterblast-1_h47_5_3" points="118,90 131,90 136,85 131,80 118,80 118,90 " class="clusterblast-orf"  />
<polygon style="stroke:black; stroke-width:1; fill:#FFFFFF; " description="mitochondrial_cytochrome_b2[br]Location: 1256214 - 1257966" locus_tag="AKAW_03685" id="clusterblast-1_h47_5_4" points="145,85 150,80 172,80 172,90 150,90 145,85 " class="clusterblast-orf"  />
<polygon style="stroke:black; stroke-width:1; fill:#FFFFFF; " description="hypothetical_protein[br]Location: 1258819 - 1259316" locus_tag="AKAW_03686" id="clusterblast-1_h47_5_5" points="185,90 188,90 193,85 188,80 185,80 185,90 " class="clusterblast-orf"  />
<polygon style="stroke:black; stroke-width:1; fill:#FFFFFF; " description="6-phosphofructo-2-kinase_1[br]Location: 1263391 - 1265925" locus_tag="AKAW_03687" id="clusterblast-1_h47_5_6" points="256,90 290,90 295,85 290,80 256,80 256,90 " class="clusterblast-orf"  />
<polygon style="stroke:black; stroke-width:1; fill:#FFFFFF; " description="thioredoxin[br]Location: 1266549 - 1267346" locus_tag="AKAW_03688" id="clusterblast-1_h47_5_7" points="305,85 310,80 317,80 317,90 310,90 305,85 " class="clusterblast-orf"  />
<polygon style="stroke:black; stroke-width:1; fill:rgb(63,63,190); " description="polyketide_synthase[br]Location: 1268264 - 1275647&lt;br&gt;&lt;br&gt;&lt;b&gt;BlastP hit with CHAFR746836_0033820.1&lt;/b&gt;&lt;br&gt;Percentage identity: 42%&lt;br&gt;Percentage coverage: 102%&lt;br&gt;BLAST bit score: 1810&lt;br&gt;E-value: 0.0" locus_tag="AKAW_03689" id="clusterblast-1_h47_5_8" points="332,85 337,80 446,80 446,90 337,90 332,85 " class="clusterblast-orf"  />
<polygon style="stroke:black; stroke-width:1; fill:rgb(63,190,63); " description="DltD_N-terminal_domain_protein[br]Location: 1277674 - 1278673&lt;br&gt;&lt;br&gt;&lt;b&gt;BlastP hit with CHAFR746836_0033830.1&lt;/b&gt;&lt;br&gt;Percentage identity: 43%&lt;br&gt;Percentage coverage: 103%&lt;br&gt;BLAST bit score: 229&lt;br&gt;E-value: 1e-71" locus_tag="AKAW_03690" id="clusterblast-1_h47_5_9" points="477,90 488,90 493,85 488,80 477,80 477,90 " class="clusterblast-orf"  />
<polygon style="stroke:black; stroke-width:1; fill:#FFFFFF; " description="transferase[br]Location: 1278844 - 1281987" locus_tag="AKAW_03691" id="clusterblast-1_h47_5_10" points="495,85 500,80 544,80 544,90 500,90 495,85 " class="clusterblast-orf"  />
<polygon style="stroke:black; stroke-width:1; fill:#FFFFFF; " description="MFS_transporter[br]Location: 1284535 - 1286402" locus_tag="AKAW_03692" id="clusterblast-1_h47_5_11" points="583,90 607,90 612,85 607,80 583,80 583,90 " class="clusterblast-orf"  />
<polygon style="stroke:black; stroke-width:1; fill:#FFFFFF; " description="similar_to_An07g09790[br]Location: 1287541 - 1288912" locus_tag="AKAW_03693" id="clusterblast-1_h47_5_12" points="630,90 646,90 651,85 646,80 630,80 630,90 " class="clusterblast-orf"  />
<polygon style="stroke:black; stroke-width:1; fill:#FFFFFF; " description="SPX_domain_protein[br]Location: 1289397 - 1291839" locus_tag="AKAW_03694" id="clusterblast-1_h47_5_13" points="658,85 663,80 696,80 696,90 663,90 658,85 " class="clusterblast-orf"  />
<polygon style="stroke:black; stroke-width:1; fill:#FFFFFF; " description="NUDIX_family_hydrolase[br]Location: 1292489 - 1293873" locus_tag="AKAW_03695" id="clusterblast-1_h47_5_14" points="706,90 723,90 728,85 723,80 706,80 706,90 " class="clusterblast-orf"  />
<polygon style="stroke:black; stroke-width:1; fill:#FFFFFF; " description="similar_to_An07g09820[br]Location: 1294293 - 1294749" locus_tag="AKAW_03696" id="clusterblast-1_h47_5_15" points="734,90 736,90 741,85 736,80 734,80 734,90 " class="clusterblast-orf"  />
<polygon style="stroke:black; stroke-width:1; fill:#FFFFFF; " description="similar_to_An07g09830[br]Location: 1295521 - 1297090" locus_tag="AKAW_03697" id="clusterblast-1_h47_5_16" points="753,90 773,90 778,85 773,80 753,80 753,90 " class="clusterblast-orf"  />
</g>
</svg>
