<svg xmlns="http://www.w3.org/2000/svg" height="230" width="800" version="1.1" y="0" x="0" preserveAspectRatio="none" xmlns:xlink="http://www.w3.org/1999/xlink" viewBox="0 0 800 230"  >
<g class="clusterblast-cluster" label="Query sequence"  >
<text class="clusterblast-acc" y="10" x="5"  >
Query sequence</text>
<line y1="35" x2="778.0" style="stroke:grey; stroke-width:1; " x1="10" y2="35"  />
<polygon style="stroke:black; stroke-width:1; fill:#FFFFFF; " description="unannotated orf[br]Location: 4785 - 7296" locus_tag="CHAFR746836_0016870.1" class="clusterblast-orf" points="89,35 94,30 130,30 130,40 94,40 89,35 " id="clusterblast-1_q37_8_0"  />
<polygon style="stroke:black; stroke-width:1; fill:rgb(190,63,63); " description="unannotated orf[br]Location: 11527 - 13401" locus_tag="CHAFR746836_0016880.1" class="clusterblast-orf" points="199,35 204,30 230,30 230,40 204,40 199,35 " id="clusterblast-1_q37_8_1"  />
<polygon style="stroke:black; stroke-width:1; fill:rgb(63,63,190); " description="unannotated orf[br]Location: 16270 - 24285" locus_tag="CHAFR746836_0016890.1" class="clusterblast-orf" points="277,40 404,40 409,35 404,30 277,30 277,40 " id="clusterblast-1_q37_8_2"  />
<polygon style="stroke:black; stroke-width:1; fill:#FFFFFF; " description="unannotated orf[br]Location: 25847 - 26609" locus_tag="CHAFR746836_0016900.1" class="clusterblast-orf" points="435,35 440,30 447,30 447,40 440,40 435,35 " id="clusterblast-1_q37_8_3"  />
<polygon style="stroke:black; stroke-width:1; fill:rgb(63,190,63); " description="unannotated orf[br]Location: 27271 - 28737" locus_tag="CHAFR746836_0016910.1" class="clusterblast-orf" points="458,40 477,40 482,35 477,30 458,30 458,40 " id="clusterblast-1_q37_8_4"  />
<polygon style="stroke:black; stroke-width:1; fill:#FFFFFF; " description="unannotated orf[br]Location: 31240 - 32999" locus_tag="CHAFR746836_0016920.1" class="clusterblast-orf" points="523,40 547,40 552,35 547,30 523,30 523,40 " id="clusterblast-1_q37_8_5"  />
<polygon style="stroke:black; stroke-width:1; fill:#FFFFFF; " description="unannotated orf[br]Location: 33897 - 34787" locus_tag="CHAFR746836_0016930.1" class="clusterblast-orf" points="567,35 572,30 581,30 581,40 572,40 567,35 " id="clusterblast-1_q37_8_6"  />
<polygon style="stroke:black; stroke-width:1; fill:rgb(190,63,190); " description="unannotated orf[br]Location: 37376 - 38107" locus_tag="CHAFR746836_0016940.1" class="clusterblast-orf" points="624,35 629,30 636,30 636,40 629,40 624,35 " id="clusterblast-1_q37_8_7"  />
<polygon style="stroke:black; stroke-width:1; fill:rgb(190,190,63); " description="unannotated orf[br]Location: 39886 - 41791" locus_tag="CHAFR746836_0016950.1" class="clusterblast-orf" points="665,35 670,30 697,30 697,40 670,40 665,35 " id="clusterblast-1_q37_8_8"  />
</g>
<g class="clusterblast-cluster" description="Aspergillus niger contig An15c0180, genomic contig." label="AM270345.1_c1"  >
<text class="clusterblast-acc" y="60" x="5"  >
AM270345.1_c1</text>
<text class="clusterblast-desc" y="60" x="460.8"  >
Aspergillus niger contig An15c0180, genomic contig.</text>
<line y1="85" x2="778.0" style="stroke:grey; stroke-width:1; " x1="10" y2="85"  />
<polygon style="stroke:black; stroke-width:1; fill:#FFFFFF; " description="hypothetical_protein[br]Location: 19165 - 20255" locus_tag="An15g05000" id="clusterblast-1_h37_8_0" points="10,90 22,90 27,85 22,80 10,80 10,90 " class="clusterblast-orf"  />
<polygon style="stroke:black; stroke-width:1; fill:#FFFFFF; " description="hypothetical_protein[br]Location: 21226 - 21928" locus_tag="An15g05010" id="clusterblast-1_h37_8_1" points="43,85 48,80 55,80 55,90 48,90 43,85 " class="clusterblast-orf"  />
<polygon style="stroke:black; stroke-width:1; fill:#FFFFFF; " description="hypothetical_protein[br]Location: 22352 - 23373" locus_tag="An15g05020" id="clusterblast-1_h37_8_2" points="62,90 74,90 79,85 74,80 62,80 62,90 " class="clusterblast-orf"  />
<polygon style="stroke:black; stroke-width:1; fill:#FFFFFF; " description="tRNA-Val[br]Location: 24455 - 25588" locus_tag="An15g05030" id="clusterblast-1_h37_8_3" points="96,90 110,90 115,85 110,80 96,80 96,90 " class="clusterblast-orf"  />
<polygon style="stroke:black; stroke-width:1; fill:#FFFFFF; " description="[br]Location: 26784 - 29747" locus_tag="An15g05050" id="clusterblast-1_h37_8_4" points="135,90 178,90 183,85 178,80 135,80 135,90 " class="clusterblast-orf"  />
<polygon style="stroke:black; stroke-width:1; fill:rgb(190,190,63); " description="[br]Location: 30041 - 31705&lt;br&gt;&lt;br&gt;&lt;b&gt;BlastP hit with CHAFR746836_0016950.1&lt;/b&gt;&lt;br&gt;Percentage identity: 38%&lt;br&gt;Percentage coverage: 92%&lt;br&gt;BLAST bit score: 371&lt;br&gt;E-value: 7e-120" locus_tag="An15g05060" id="clusterblast-1_h37_8_5" points="188,85 193,80 216,80 216,90 193,90 188,85 " class="clusterblast-orf"  />
<polygon style="stroke:black; stroke-width:1; fill:#FFFFFF; " description="[br]Location: 32405 - 34304" locus_tag="An15g05070" id="clusterblast-1_h37_8_6" points="227,85 232,80 258,80 258,90 232,90 227,85 " class="clusterblast-orf"  />
<polygon style="stroke:black; stroke-width:1; fill:#FFFFFF; " description="[br]Location: 35037 - 37287" locus_tag="An15g05080" id="clusterblast-1_h37_8_7" points="270,85 275,80 307,80 307,90 275,90 270,85 " class="clusterblast-orf"  />
<polygon style="stroke:black; stroke-width:1; fill:rgb(63,63,190); " description="[br]Location: 38889 - 46483&lt;br&gt;&lt;br&gt;&lt;b&gt;BlastP hit with CHAFR746836_0016890.1&lt;/b&gt;&lt;br&gt;Percentage identity: 31%&lt;br&gt;Percentage coverage: 105%&lt;br&gt;BLAST bit score: 1088&lt;br&gt;E-value: 0.0" locus_tag="An15g05090" id="clusterblast-1_h37_8_8" points="334,90 453,90 458,85 453,80 334,80 334,90 " class="clusterblast-orf"  />
<polygon style="stroke:black; stroke-width:1; fill:#FFFFFF; " description="[br]Location: 46566 - 48032" locus_tag="An15g05100" id="clusterblast-1_h37_8_9" points="460,85 465,80 484,80 484,90 465,90 460,85 " class="clusterblast-orf"  />
<polygon style="stroke:black; stroke-width:1; fill:#FFFFFF; " description="unnamed[br]Location: 48426 - 50211" locus_tag="An15g05110" id="clusterblast-1_h37_8_10" points="490,85 495,80 520,80 520,90 495,90 490,85 " class="clusterblast-orf"  />
<polygon style="stroke:black; stroke-width:1; fill:#FFFFFF; " description="unnamed[br]Location: 51984 - 52995" locus_tag="An15g05120" id="clusterblast-1_h37_8_11" points="549,85 554,80 565,80 565,90 554,90 549,85 " class="clusterblast-orf"  />
<polygon style="stroke:black; stroke-width:1; fill:#FFFFFF; " description="unnamed[br]Location: 54046 - 56039" locus_tag="An15g05130" id="clusterblast-1_h37_8_12" points="583,85 588,80 615,80 615,90 588,90 583,85 " class="clusterblast-orf"  />
<polygon style="stroke:black; stroke-width:1; fill:#FFFFFF; " description="[br]Location: 59029 - 60549" locus_tag="An15g05150" id="clusterblast-1_h37_8_13" points="664,90 684,90 689,85 684,80 664,80 664,90 " class="clusterblast-orf"  />
<polygon style="stroke:black; stroke-width:1; fill:#FFFFFF; " description="[br]Location: 60701 - 62466" locus_tag="An15g05160" id="clusterblast-1_h37_8_14" points="692,85 697,80 721,80 721,90 697,90 692,85 " class="clusterblast-orf"  />
<polygon style="stroke:black; stroke-width:1; fill:#FFFFFF; " description="[br]Location: 62895 - 63851" locus_tag="An15g05170" id="clusterblast-1_h37_8_15" points="728,90 739,90 744,85 739,80 728,80 728,90 " class="clusterblast-orf"  />
<polygon style="stroke:black; stroke-width:1; fill:#FFFFFF; " description="hypothetical_protein[br]Location: 64072 - 65909" locus_tag="An15g05180" id="clusterblast-1_h37_8_16" points="747,85 752,80 778,80 778,90 752,90 747,85 " class="clusterblast-orf"  />
</g>
</svg>
