<svg xmlns="http://www.w3.org/2000/svg" height="230" width="800" version="1.1" y="0" x="0" preserveAspectRatio="none" xmlns:xlink="http://www.w3.org/1999/xlink" viewBox="0 0 800 230"  >
<g class="clusterblast-cluster" label="Query sequence"  >
<text class="clusterblast-acc" y="10" x="5"  >
Query sequence</text>
<line y1="35" x2="778.0" style="stroke:grey; stroke-width:1; " x1="10" y2="35"  />
<polygon style="stroke:black; stroke-width:1; fill:rgb(169,42,42); " description="unannotated orf[br]Location: 62218 - 64265" locus_tag="CHAFR746836_0054410.1" class="clusterblast-orf" points="10,40 19,40 24,35 19,30 10,30 10,40 " id="clusterblast-1_q1_2_0"  />
<polygon style="stroke:black; stroke-width:1; fill:#FFFFFF; " description="unannotated orf[br]Location: 64981 - 65489" locus_tag="CHAFR746836_0054420.1" class="clusterblast-orf" points="29,40 33,35 29,30 29,40 " id="clusterblast-1_q1_2_1"  />
<polygon style="stroke:black; stroke-width:1; fill:#FFFFFF; " description="unannotated orf[br]Location: 80166 - 81468" locus_tag="CHAFR746836_0054430.1" class="clusterblast-orf" points="136,40 140,40 145,35 140,30 136,30 136,40 " id="clusterblast-1_q1_2_2"  />
<polygon style="stroke:black; stroke-width:1; fill:#FFFFFF; " description="unannotated orf[br]Location: 84860 - 87066" locus_tag="CHAFR746836_0054440.1" class="clusterblast-orf" points="169,40 180,40 185,35 180,30 169,30 169,40 " id="clusterblast-1_q1_2_3"  />
<polygon style="stroke:black; stroke-width:1; fill:rgb(42,169,42); " description="unannotated orf[br]Location: 87538 - 88972" locus_tag="CHAFR746836_0054450.1" class="clusterblast-orf" points="188,40 194,40 199,35 194,30 188,30 188,40 " id="clusterblast-1_q1_2_4"  />
<polygon style="stroke:black; stroke-width:1; fill:rgb(42,169,212); " description="unannotated orf[br]Location: 97154 - 98501" locus_tag="CHAFR746836_0054460.1" class="clusterblast-orf" points="256,35 261,30 266,30 266,40 261,40 256,35 " id="clusterblast-1_q1_2_5"  />
<polygon style="stroke:black; stroke-width:1; fill:#FFFFFF; " description="unannotated orf[br]Location: 108188 - 110019" locus_tag="CHAFR746836_0054470.1" class="clusterblast-orf" points="334,40 342,40 347,35 342,30 334,30 334,40 " id="clusterblast-1_q1_2_6"  />
<polygon style="stroke:black; stroke-width:1; fill:rgb(169,169,42); " description="unannotated orf[br]Location: 111553 - 112688" locus_tag="CHAFR746836_0054480.1" class="clusterblast-orf" points="358,35 363,30 366,30 366,40 363,40 358,35 " id="clusterblast-1_q1_2_7"  />
<polygon style="stroke:black; stroke-width:1; fill:rgb(169,42,127); " description="unannotated orf[br]Location: 113347 - 114741" locus_tag="CHAFR746836_0054490.1" class="clusterblast-orf" points="371,40 376,40 381,35 376,30 371,30 371,40 " id="clusterblast-1_q1_2_8"  />
<polygon style="stroke:black; stroke-width:1; fill:rgb(42,42,212); " description="unannotated orf[br]Location: 114954 - 116913" locus_tag="CHAFR746836_0054500.1" class="clusterblast-orf" points="382,35 387,30 396,30 396,40 387,40 382,35 " id="clusterblast-1_q1_2_9"  />
<polygon style="stroke:black; stroke-width:1; fill:rgb(169,169,212); " description="unannotated orf[br]Location: 128349 - 129215" locus_tag="CHAFR746836_0054510.1" class="clusterblast-orf" points="477,35 482,30 483,30 483,40 482,40 477,35 " id="clusterblast-1_q1_2_10"  />
<polygon style="stroke:black; stroke-width:1; fill:#FFFFFF; " description="unannotated orf[br]Location: 131482 - 134522" locus_tag="CHAFR746836_0054520.1" class="clusterblast-orf" points="499,35 504,30 520,30 520,40 504,40 499,35 " id="clusterblast-1_q1_2_11"  />
<polygon style="stroke:black; stroke-width:1; fill:rgb(42,169,127); " description="unannotated orf[br]Location: 135952 - 139193" locus_tag="CHAFR746836_0054530.1" class="clusterblast-orf" points="530,35 535,30 553,30 553,40 535,40 530,35 " id="clusterblast-1_q1_2_12"  />
<polygon style="stroke:black; stroke-width:1; fill:#FFFFFF; " description="unannotated orf[br]Location: 139580 - 146566" locus_tag="CHAFR746836_0054540.1" class="clusterblast-orf" points="556,35 561,30 605,30 605,40 561,40 556,35 " id="clusterblast-1_q1_2_13"  />
<polygon style="stroke:black; stroke-width:1; fill:#FFFFFF; " description="unannotated orf[br]Location: 150095 - 150570" locus_tag="CHAFR746836_0054550.1" class="clusterblast-orf" points="630,40 634,35 630,30 630,40 " id="clusterblast-1_q1_2_14"  />
<polygon style="stroke:black; stroke-width:1; fill:#FFFFFF; " description="unannotated orf[br]Location: 151645 - 154018" locus_tag="CHAFR746836_0054560.1" class="clusterblast-orf" points="641,40 653,40 658,35 653,30 641,30 641,40 " id="clusterblast-1_q1_2_15"  />
<polygon style="stroke:black; stroke-width:1; fill:rgb(169,42,212); " description="unannotated orf[br]Location: 155657 - 156954" locus_tag="CHAFR746836_0054570.1" class="clusterblast-orf" points="670,40 674,40 679,35 674,30 670,30 670,40 " id="clusterblast-1_q1_2_16"  />
<polygon style="stroke:black; stroke-width:1; fill:#FFFFFF; " description="unannotated orf[br]Location: 161927 - 163454" locus_tag="CHAFR746836_0054580.1" class="clusterblast-orf" points="714,40 720,40 725,35 720,30 714,30 714,40 " id="clusterblast-1_q1_2_17"  />
<polygon style="stroke:black; stroke-width:1; fill:#FFFFFF; " description="unannotated orf[br]Location: 165596 - 167549" locus_tag="CHAFR746836_0054590.1" class="clusterblast-orf" points="740,35 745,30 754,30 754,40 745,40 740,35 " id="clusterblast-1_q1_2_18"  />
<polygon style="stroke:black; stroke-width:1; fill:#FFFFFF; " description="unannotated orf[br]Location: 170397 - 170926" locus_tag="CHAFR746836_0054600.1" class="clusterblast-orf" points="774,35 778,30 778,40 774,35 " id="clusterblast-1_q1_2_19"  />
</g>
<g class="clusterblast-cluster" description="Ajellomyces capsulatus H88 supercont1.1 genomic scaffold, wh..." label="DS990636.1_c1"  >
<text class="clusterblast-acc" y="60" x="5"  >
DS990636.1_c1</text>
<text class="clusterblast-desc" y="60" x="460.8"  >
Ajellomyces capsulatus H88 supercont1.1 genomic scaffold, wh...</text>
<line y1="85" x2="778.0" style="stroke:grey; stroke-width:1; " x1="10" y2="85"  />
<polygon style="stroke:black; stroke-width:1; fill:#FFFFFF; " description="predicted_protein[br]Location: 236919 - 237320" locus_tag="HCEG_00076" id="clusterblast-1_h1_2_0" points="236,90 238,85 236,80 236,90 " class="clusterblast-orf"  />
<polygon style="stroke:black; stroke-width:1; fill:rgb(169,42,127); " description="acetylase[br]Location: 233106 - 234553&lt;br&gt;&lt;br&gt;&lt;b&gt;BlastP hit with CHAFR746836_0054490.1&lt;/b&gt;&lt;br&gt;Percentage identity: 51%&lt;br&gt;Percentage coverage: 93%&lt;br&gt;BLAST bit score: 432&lt;br&gt;E-value: 7e-147" locus_tag="HCEG_00075" id="clusterblast-1_h1_2_1" points="255,90 260,90 265,85 260,80 255,80 255,90 " class="clusterblast-orf"  />
<polygon style="stroke:black; stroke-width:1; fill:rgb(42,42,212); " description="long-chain-fatty-acid-CoA_ligase[br]Location: 230991 - 232888&lt;br&gt;&lt;br&gt;&lt;b&gt;BlastP hit with CHAFR746836_0054500.1&lt;/b&gt;&lt;br&gt;Percentage identity: 59%&lt;br&gt;Percentage coverage: 97%&lt;br&gt;BLAST bit score: 688&lt;br&gt;E-value: 0.0" locus_tag="HCEG_00074" id="clusterblast-1_h1_2_2" points="267,85 272,80 280,80 280,90 272,90 267,85 " class="clusterblast-orf"  />
<polygon style="stroke:black; stroke-width:1; fill:rgb(169,169,212); " description="L-ornithine_5-monooxygenase[br]Location: 228386 - 229954&lt;br&gt;&lt;br&gt;&lt;b&gt;BlastP hit with CHAFR746836_0054510.1&lt;/b&gt;&lt;br&gt;Percentage identity: 33%&lt;br&gt;Percentage coverage: 62%&lt;br&gt;BLAST bit score: 100&lt;br&gt;E-value: 6e-23" locus_tag="HCEG_00073" id="clusterblast-1_h1_2_3" points="288,90 294,90 299,85 294,80 288,80 288,90 " class="clusterblast-orf"  />
<polygon style="stroke:black; stroke-width:1; fill:rgb(169,169,42); " description="peroxisomal_dehydratase[br]Location: 226706 - 228002&lt;br&gt;&lt;br&gt;&lt;b&gt;BlastP hit with CHAFR746836_0054480.1&lt;/b&gt;&lt;br&gt;Percentage identity: 46%&lt;br&gt;Percentage coverage: 100%&lt;br&gt;BLAST bit score: 248&lt;br&gt;E-value: 2e-78" locus_tag="HCEG_00072" id="clusterblast-1_h1_2_4" points="301,85 306,80 310,80 310,90 306,90 301,85 " class="clusterblast-orf"  />
<polygon style="stroke:black; stroke-width:1; fill:#FFFFFF; " description="conserved_hypothetical_protein[br]Location: 225081 - 225622" locus_tag="HCEG_00071" id="clusterblast-1_h1_2_5" points="318,85 322,80 322,90 318,85 " class="clusterblast-orf"  />
<polygon style="stroke:black; stroke-width:1; fill:#FFFFFF; " description="siderophore_iron_transporter[br]Location: 222411 - 224309" locus_tag="HCEG_00070" id="clusterblast-1_h1_2_6" points="327,85 332,80 341,80 341,90 332,90 327,85 " class="clusterblast-orf"  />
<polygon style="stroke:black; stroke-width:1; fill:#FFFFFF; " description="RTA1_domain-containing_protein[br]Location: 219292 - 220506" locus_tag="HCEG_00069" id="clusterblast-1_h1_2_7" points="354,90 358,90 363,85 358,80 354,80 354,90 " class="clusterblast-orf"  />
<polygon style="stroke:black; stroke-width:1; fill:#FFFFFF; " description="nonribosomal_peptide_synthetase[br]Location: 212768 - 218693" locus_tag="HCEG_00068" id="clusterblast-1_h1_2_8" points="367,85 372,80 409,80 409,90 372,90 367,85 " class="clusterblast-orf"  />
<polygon style="stroke:black; stroke-width:1; fill:#FFFFFF; " description="ABC_multidrug_transporter[br]Location: 207494 - 211580" locus_tag="HCEG_00067" id="clusterblast-1_h1_2_9" points="417,90 441,90 446,85 441,80 417,80 417,90 " class="clusterblast-orf"  />
<polygon style="stroke:black; stroke-width:1; fill:#FFFFFF; " description="conserved_hypothetical_protein[br]Location: 205411 - 207096" locus_tag="HCEG_00066" id="clusterblast-1_h1_2_10" points="449,85 454,80 461,80 461,90 454,90 449,85 " class="clusterblast-orf"  />
<polygon style="stroke:black; stroke-width:1; fill:#FFFFFF; " description="predicted_protein[br]Location: 202760 - 203158" locus_tag="HCEG_00065" id="clusterblast-1_h1_2_11" points="477,85 480,80 480,90 477,85 " class="clusterblast-orf"  />
<polygon style="stroke:black; stroke-width:1; fill:#FFFFFF; " description="type_I_phosphodiesterase/nucleotide[br]Location: 199960 - 202233" locus_tag="HCEG_00064" id="clusterblast-1_h1_2_12" points="483,85 488,80 499,80 499,90 488,90 483,85 " class="clusterblast-orf"  />
<polygon style="stroke:black; stroke-width:1; fill:#FFFFFF; " description="ubiquitin_carboxyl-terminal_hydrolase[br]Location: 195941 - 198961" locus_tag="HCEG_00063" id="clusterblast-1_h1_2_13" points="506,90 523,90 528,85 523,80 506,80 506,90 " class="clusterblast-orf"  />
<polygon style="stroke:black; stroke-width:1; fill:#FFFFFF; " description="excitatory_amino_acid_transporter[br]Location: 193937 - 195657" locus_tag="HCEG_00062" id="clusterblast-1_h1_2_14" points="530,85 535,80 542,80 542,90 535,90 530,85 " class="clusterblast-orf"  />
<polygon style="stroke:black; stroke-width:1; fill:#FFFFFF; " description="predicted_protein[br]Location: 192654 - 193728" locus_tag="HCEG_00061" id="clusterblast-1_h1_2_15" points="543,90 546,90 551,85 546,80 543,80 543,90 " class="clusterblast-orf"  />
</g>
</svg>
