<svg xmlns="http://www.w3.org/2000/svg" height="230" width="800" version="1.1" y="0" x="0" preserveAspectRatio="none" xmlns:xlink="http://www.w3.org/1999/xlink" viewBox="0 0 800 230"  >
<g class="clusterblast-cluster" label="Query sequence"  >
<text class="clusterblast-acc" y="10" x="5"  >
Query sequence</text>
<line y1="35" x2="778.0" style="stroke:grey; stroke-width:1; " x1="10" y2="35"  />
<polygon style="stroke:black; stroke-width:1; fill:red; " description="unannotated orf[br]Location: 78016 - 79242" locus_tag="CHAFR746836_0016770.1" class="clusterblast-orf" points="251,35 256,30 273,30 273,40 256,40 251,35 " id="clusterblast-1_q36_2_0"  />
<polygon style="stroke:black; stroke-width:1; fill:green; " description="unannotated orf[br]Location: 81171 - 82179" locus_tag="CHAFR746836_0016780.1" class="clusterblast-orf" points="308,40 321,40 326,35 321,30 308,30 308,40 " id="clusterblast-1_q36_2_1"  />
<polygon style="stroke:black; stroke-width:1; fill:blue; " description="unannotated orf[br]Location: 82820 - 84436" locus_tag="CHAFR746836_0016790.1" class="clusterblast-orf" points="338,40 362,40 367,35 362,30 338,30 338,40 " id="clusterblast-1_q36_2_2"  />
<polygon style="stroke:black; stroke-width:1; fill:#FFFFFF; " description="unannotated orf[br]Location: 86969 - 88192" locus_tag="CHAFR746836_0016800.1" class="clusterblast-orf" points="413,35 418,30 435,30 435,40 418,40 413,35 " id="clusterblast-1_q36_2_3"  />
<polygon style="stroke:black; stroke-width:1; fill:yellow; " description="unannotated orf[br]Location: 89104 - 90705" locus_tag="CHAFR746836_0016810.1" class="clusterblast-orf" points="452,40 476,40 481,35 476,30 452,30 452,40 " id="clusterblast-1_q36_2_4"  />
<polygon style="stroke:black; stroke-width:1; fill:#FFFFFF; " description="unannotated orf[br]Location: 92624 - 93697" locus_tag="CHAFR746836_0016820.1" class="clusterblast-orf" points="516,35 521,30 535,30 535,40 521,40 516,35 " id="clusterblast-1_q36_2_5"  />
</g>
<g class="clusterblast-cluster" description="Glomerella graminicola M1.001 genomic scaffold supercont1.28..." label="GG697358.1_c1"  >
<text class="clusterblast-acc" y="60" x="5"  >
GG697358.1_c1</text>
<text class="clusterblast-desc" y="60" x="460.8"  >
Glomerella graminicola M1.001 genomic scaffold supercont1.28...</text>
<line y1="85" x2="778.0" style="stroke:grey; stroke-width:1; " x1="10" y2="85"  />
<polygon style="stroke:black; stroke-width:1; fill:#FFFFFF; " description="hypothetical_protein[br]Location: 70848 - 72737" locus_tag="GLRG_06997" id="clusterblast-1_h36_2_0" points="10,85 15,80 44,80 44,90 15,90 10,85 " class="clusterblast-orf"  />
<polygon style="stroke:black; stroke-width:1; fill:#FFFFFF; " description="hypothetical_protein[br]Location: 73075 - 73359" locus_tag="GLRG_06998" id="clusterblast-1_h36_2_1" points="50,90 50,90 55,85 50,80 50,80 50,90 " class="clusterblast-orf"  />
<polygon style="stroke:black; stroke-width:1; fill:#FFFFFF; " description="hypothetical_protein[br]Location: 82268 - 82504" locus_tag="GLRG_06999" id="clusterblast-1_h36_2_2" points="217,90 221,85 217,80 217,90 " class="clusterblast-orf"  />
<polygon style="stroke:black; stroke-width:1; fill:#FFFFFF; " description="hypothetical_protein[br]Location: 83497 - 83914" locus_tag="GLRG_07000" id="clusterblast-1_h36_2_3" points="239,85 244,80 247,80 247,90 244,90 239,85 " class="clusterblast-orf"  />
<polygon style="stroke:black; stroke-width:1; fill:#FFFFFF; " description="subtilase[br]Location: 84946 - 86392" locus_tag="GLRG_07001" id="clusterblast-1_h36_2_4" points="265,90 287,90 292,85 287,80 265,80 265,90 " class="clusterblast-orf"  />
<polygon style="stroke:black; stroke-width:1; fill:yellow; " description="farnesyl-diphosphate_farnesyltransferase[br]Location: 90397 - 92121&lt;br&gt;&lt;br&gt;&lt;b&gt;BlastP hit with CHAFR746836_0016810.1&lt;/b&gt;&lt;br&gt;Percentage identity: 73%&lt;br&gt;Percentage coverage: 86%&lt;br&gt;BLAST bit score: 622&lt;br&gt;E-value: 0.0" locus_tag="GLRG_07002" id="clusterblast-1_h36_2_5" points="364,85 369,80 396,80 396,90 369,90 364,85 " class="clusterblast-orf"  />
<polygon style="stroke:black; stroke-width:1; fill:green; " description="NAD_dependent_epimerase/dehydratase[br]Location: 94994 - 95949&lt;br&gt;&lt;br&gt;&lt;b&gt;BlastP hit with CHAFR746836_0016780.1&lt;/b&gt;&lt;br&gt;Percentage identity: 82%&lt;br&gt;Percentage coverage: 98%&lt;br&gt;BLAST bit score: 511&lt;br&gt;E-value: 0.0" locus_tag="GLRG_07003" id="clusterblast-1_h36_2_6" points="448,90 460,90 465,85 460,80 448,80 448,90 " class="clusterblast-orf"  />
<polygon style="stroke:black; stroke-width:1; fill:blue; " description="DnaJ_domain-containing_protein[br]Location: 97016 - 98706&lt;br&gt;&lt;br&gt;&lt;b&gt;BlastP hit with CHAFR746836_0016790.1&lt;/b&gt;&lt;br&gt;Percentage identity: 66%&lt;br&gt;Percentage coverage: 104%&lt;br&gt;BLAST bit score: 641&lt;br&gt;E-value: 0.0" locus_tag="GLRG_07004" id="clusterblast-1_h36_2_7" points="484,90 510,90 515,85 510,80 484,80 484,90 " class="clusterblast-orf"  />
<polygon style="stroke:black; stroke-width:1; fill:#FFFFFF; " description="hypothetical_protein[br]Location: 102104 - 104116" locus_tag="GLRG_07005" id="clusterblast-1_h36_2_8" points="577,85 582,80 613,80 613,90 582,90 577,85 " class="clusterblast-orf"  />
<polygon style="stroke:black; stroke-width:1; fill:#FFFFFF; " description="hypothetical_protein[br]Location: 106738 - 107358" locus_tag="GLRG_07006" id="clusterblast-1_h36_2_9" points="661,90 667,90 672,85 667,80 661,80 661,90 " class="clusterblast-orf"  />
<polygon style="stroke:black; stroke-width:1; fill:#FFFFFF; " description="cytochrome_b5-like_Heme/Steroid_binding[br]Location: 107915 - 108553" locus_tag="GLRG_07007" id="clusterblast-1_h36_2_10" points="682,90 689,90 694,85 689,80 682,80 682,90 " class="clusterblast-orf"  />
<polygon style="stroke:black; stroke-width:1; fill:#FFFFFF; " description="FHA_domain-containing_protein[br]Location: 108791 - 111414" locus_tag="GLRG_07008" id="clusterblast-1_h36_2_11" points="698,85 703,80 746,80 746,90 703,90 698,85 " class="clusterblast-orf"  />
<polygon style="stroke:black; stroke-width:1; fill:#FFFFFF; " description="mannosyltransferase[br]Location: 111808 - 113173" locus_tag="GLRG_07009" id="clusterblast-1_h36_2_12" points="753,85 758,80 778,80 778,90 758,90 753,85 " class="clusterblast-orf"  />
</g>
</svg>
