<svg xmlns="http://www.w3.org/2000/svg" height="230" width="800" version="1.1" y="0" x="0" preserveAspectRatio="none" xmlns:xlink="http://www.w3.org/1999/xlink" viewBox="0 0 800 230"  >
<g class="clusterblast-cluster" label="Query sequence"  >
<text class="clusterblast-acc" y="10" x="5"  >
Query sequence</text>
<line y1="35" x2="778.0" style="stroke:grey; stroke-width:1; " x1="10" y2="35"  />
<polygon style="stroke:black; stroke-width:1; fill:#FFFFFF; " description="unannotated orf[br]Location: 2196 - 4302" locus_tag="CHAFR746836_0090270.1" class="clusterblast-orf" points="209,35 214,30 227,30 227,40 214,40 209,35 " id="clusterblast-1_q22_5_0"  />
<polygon style="stroke:black; stroke-width:1; fill:red; " description="unannotated orf[br]Location: 6729 - 7721" locus_tag="CHAFR746836_0090280.1" class="clusterblast-orf" points="249,35 254,30 258,30 258,40 254,40 249,35 " id="clusterblast-1_q22_5_1"  />
<polygon style="stroke:black; stroke-width:1; fill:green; " description="unannotated orf[br]Location: 11209 - 12209" locus_tag="CHAFR746836_0090290.1" class="clusterblast-orf" points="289,35 294,30 298,30 298,40 294,40 289,35 " id="clusterblast-1_q22_5_2"  />
<polygon style="stroke:black; stroke-width:1; fill:#FFFFFF; " description="unannotated orf[br]Location: 16783 - 17785" locus_tag="CHAFR746836_0090300.1" class="clusterblast-orf" points="338,40 342,40 347,35 342,30 338,30 338,40 " id="clusterblast-1_q22_5_3"  />
<polygon style="stroke:black; stroke-width:1; fill:#FFFFFF; " description="unannotated orf[br]Location: 18710 - 19905" locus_tag="CHAFR746836_0090310.1" class="clusterblast-orf" points="355,35 360,30 366,30 366,40 360,40 355,35 " id="clusterblast-1_q22_5_4"  />
<polygon style="stroke:black; stroke-width:1; fill:#FFFFFF; " description="unannotated orf[br]Location: 21175 - 22270" locus_tag="CHAFR746836_0090320.1" class="clusterblast-orf" points="377,35 382,30 387,30 387,40 382,40 377,35 " id="clusterblast-1_q22_5_5"  />
<polygon style="stroke:black; stroke-width:1; fill:#FFFFFF; " description="unannotated orf[br]Location: 24122 - 25277" locus_tag="CHAFR746836_0090330.1" class="clusterblast-orf" points="404,35 409,30 414,30 414,40 409,40 404,35 " id="clusterblast-1_q22_5_6"  />
<polygon style="stroke:black; stroke-width:1; fill:#FFFFFF; " description="unannotated orf[br]Location: 25820 - 27214" locus_tag="CHAFR746836_0090340.1" class="clusterblast-orf" points="419,40 426,40 431,35 426,30 419,30 419,40 " id="clusterblast-1_q22_5_7"  />
<polygon style="stroke:black; stroke-width:1; fill:#FFFFFF; " description="unannotated orf[br]Location: 29104 - 30035" locus_tag="CHAFR746836_0090350.1" class="clusterblast-orf" points="448,35 453,30 456,30 456,40 453,40 448,35 " id="clusterblast-1_q22_5_8"  />
<polygon style="stroke:black; stroke-width:1; fill:#FFFFFF; " description="unannotated orf[br]Location: 31646 - 32546" locus_tag="CHAFR746836_0090360.1" class="clusterblast-orf" points="471,35 476,30 479,30 479,40 476,40 471,35 " id="clusterblast-1_q22_5_9"  />
<polygon style="stroke:black; stroke-width:1; fill:#FFFFFF; " description="unannotated orf[br]Location: 33566 - 35498" locus_tag="CHAFR746836_0090370.1" class="clusterblast-orf" points="488,35 493,30 505,30 505,40 493,40 488,35 " id="clusterblast-1_q22_5_10"  />
<polygon style="stroke:black; stroke-width:1; fill:blue; " description="unannotated orf[br]Location: 42188 - 43711" locus_tag="CHAFR746836_0090380.1" class="clusterblast-orf" points="564,40 573,40 578,35 573,30 564,30 564,40 " id="clusterblast-1_q22_5_11"  />
</g>
<g class="clusterblast-cluster" description="Saccharopolyspora erythraea NRRL 2338, complete genome." label="NC_009142.1_c19"  >
<text class="clusterblast-acc" y="60" x="5"  >
NC_009142.1_c19</text>
<text class="clusterblast-desc" y="60" x="460.8"  >
Saccharopolyspora erythraea NRRL 2338, complete genome.</text>
<line y1="85" x2="778.0" style="stroke:grey; stroke-width:1; " x1="10" y2="85"  />
<polygon style="stroke:black; stroke-width:1; fill:#FFFFFF; " description="non-ribosomal_peptide_synthetase[br]Location: 4545937 - 4547028" locus_tag="SACE_4124" id="clusterblast-1_h22_5_0" points="10,90 14,90 19,85 14,80 10,80 10,90 " class="clusterblast-orf"  />
<polygon style="stroke:black; stroke-width:1; fill:#FFFFFF; " description="acyl-CoA_dehydrogenase[br]Location: 4547182 - 4548402" locus_tag="SACE_4125" id="clusterblast-1_h22_5_1" points="21,85 26,80 31,80 31,90 26,90 21,85 " class="clusterblast-orf"  />
<polygon style="stroke:black; stroke-width:1; fill:#FFFFFF; " description="AMP-dependent_synthetase_and_ligase[br]Location: 4548415 - 4550055" locus_tag="SACE_4126" id="clusterblast-1_h22_5_2" points="32,85 37,80 46,80 46,90 37,90 32,85 " class="clusterblast-orf"  />
<polygon style="stroke:black; stroke-width:1; fill:#FFFFFF; " description="acyl-CoA_transferase/carnitine_dehydratase[br]Location: 4550067 - 4551968" locus_tag="SACE_4127" id="clusterblast-1_h22_5_3" points="46,85 51,80 63,80 63,90 51,90 46,85 " class="clusterblast-orf"  />
<polygon style="stroke:black; stroke-width:1; fill:#FFFFFF; " description="unsaturated_glucuronyl_hydrolase[br]Location: 4552315 - 4553358" locus_tag="SACE_4128" id="clusterblast-1_h22_5_4" points="66,90 71,90 76,85 71,80 66,80 66,90 " class="clusterblast-orf"  />
<polygon style="stroke:black; stroke-width:1; fill:#FFFFFF; " description="TetR_family_transcriptional_regulator[br]Location: 4553420 - 4554025" locus_tag="SACE_4129" id="clusterblast-1_h22_5_5" points="76,85 81,80 81,80 81,90 81,90 76,85 " class="clusterblast-orf"  />
<polygon style="stroke:black; stroke-width:1; fill:#FFFFFF; " description="hypothetical_protein[br]Location: 4554516 - 4556939" locus_tag="SACE_4130" id="clusterblast-1_h22_5_6" points="86,90 102,90 107,85 102,80 86,80 86,90 " class="clusterblast-orf"  />
<polygon style="stroke:black; stroke-width:1; fill:blue; " description="ornithine/acetylornithine_aminotransferase[br]Location: 4556986 - 4559460&lt;br&gt;&lt;br&gt;&lt;b&gt;BlastP hit with CHAFR746836_0090380.1&lt;/b&gt;&lt;br&gt;Percentage identity: 32%&lt;br&gt;Percentage coverage: 69%&lt;br&gt;BLAST bit score: 135&lt;br&gt;E-value: 2e-32" locus_tag="SACE_4131" id="clusterblast-1_h22_5_7" points="108,90 125,90 130,85 125,80 108,80 108,90 " class="clusterblast-orf"  />
<polygon style="stroke:black; stroke-width:1; fill:#FFFFFF; " description="acyl_carrier_protein[br]Location: 4559463 - 4559750" locus_tag="SACE_4132" id="clusterblast-1_h22_5_8" points="130,90 132,85 130,80 130,90 " class="clusterblast-orf"  />
<polygon style="stroke:black; stroke-width:1; fill:#FFFFFF; " description="ketoacyl-ACP_synthase_(typeII)[br]Location: 4559747 - 4560988" locus_tag="SACE_4133" id="clusterblast-1_h22_5_9" points="132,90 138,90 143,85 138,80 132,80 132,90 " class="clusterblast-orf"  />
<polygon style="stroke:black; stroke-width:1; fill:#FFFFFF; " description="hypothetical_protein[br]Location: 4561064 - 4563226" locus_tag="SACE_4134" id="clusterblast-1_h22_5_10" points="144,90 158,90 163,85 158,80 144,80 144,90 " class="clusterblast-orf"  />
<polygon style="stroke:black; stroke-width:1; fill:#FFFFFF; " description="MaoC-like_dehydratase[br]Location: 4563228 - 4563716" locus_tag="SACE_4135" id="clusterblast-1_h22_5_11" points="163,90 163,90 168,85 163,80 163,80 163,90 " class="clusterblast-orf"  />
<polygon style="stroke:black; stroke-width:1; fill:#FFFFFF; " description="oxidoreductase[br]Location: 4563944 - 4564906" locus_tag="SACE_4136" id="clusterblast-1_h22_5_12" points="170,90 173,90 178,85 173,80 170,80 170,90 " class="clusterblast-orf"  />
<polygon style="stroke:black; stroke-width:1; fill:#FFFFFF; " description="PheA/TfdB_family_FAD-binding_monooxygenase[br]Location: 4564994 - 4566469" locus_tag="SACE_4137" id="clusterblast-1_h22_5_13" points="179,85 184,80 192,80 192,90 184,90 179,85 " class="clusterblast-orf"  />
<polygon style="stroke:black; stroke-width:1; fill:#FFFFFF; " description="type_I_PKS_modular_polyketide_synthas[br]Location: 4566466 - 4571886" locus_tag="SACE_4138" id="clusterblast-1_h22_5_14" points="192,85 197,80 240,80 240,90 197,90 192,85 " class="clusterblast-orf"  />
<polygon style="stroke:black; stroke-width:1; fill:#FFFFFF; " description="type_I_modular_polyketide_synthase[br]Location: 4571889 - 4587968" locus_tag="SACE_4139" id="clusterblast-1_h22_5_15" points="240,85 245,80 384,80 384,90 245,90 240,85 " class="clusterblast-orf"  />
<polygon style="stroke:black; stroke-width:1; fill:#FFFFFF; " description="type_I_modular_polyketide_synthase[br]Location: 4587997 - 4598442" locus_tag="SACE_4140" id="clusterblast-1_h22_5_16" points="384,85 389,80 477,80 477,90 389,90 384,85 " class="clusterblast-orf"  />
<polygon style="stroke:black; stroke-width:1; fill:#FFFFFF; " description="type_I_modular_polyketide_synthase[br]Location: 4598460 - 4611443" locus_tag="SACE_4141" id="clusterblast-1_h22_5_17" points="477,85 482,80 593,80 593,90 482,90 477,85 " class="clusterblast-orf"  />
<polygon style="stroke:black; stroke-width:1; fill:#FFFFFF; " description="cytochrome_P450_monooxygenase[br]Location: 4611465 - 4612715" locus_tag="SACE_4142" id="clusterblast-1_h22_5_18" points="593,85 598,80 604,80 604,90 598,90 593,85 " class="clusterblast-orf"  />
<polygon style="stroke:black; stroke-width:1; fill:#FFFFFF; " description="cytochrome_P450_monooxygenase[br]Location: 4612821 - 4614128" locus_tag="SACE_4143" id="clusterblast-1_h22_5_19" points="605,85 610,80 616,80 616,90 610,90 605,85 " class="clusterblast-orf"  />
<polygon style="stroke:black; stroke-width:1; fill:#FFFFFF; " description="cytochrome_P450_monooxygenase[br]Location: 4614537 - 4615769" locus_tag="SACE_4144" id="clusterblast-1_h22_5_20" points="620,85 625,80 631,80 631,90 625,90 620,85 " class="clusterblast-orf"  />
<polygon style="stroke:black; stroke-width:1; fill:#FFFFFF; " description="HTH_DNA-binding_domain-containing_protein[br]Location: 4616255 - 4616845" locus_tag="SACE_4145" id="clusterblast-1_h22_5_21" points="635,85 640,80 641,80 641,90 640,90 635,85 " class="clusterblast-orf"  />
<polygon style="stroke:black; stroke-width:1; fill:#FFFFFF; " description="benzoate_transporter[br]Location: 4616903 - 4618132" locus_tag="SACE_4146" id="clusterblast-1_h22_5_22" points="641,90 647,90 652,85 647,80 641,80 641,90 " class="clusterblast-orf"  />
<polygon style="stroke:black; stroke-width:1; fill:#FFFFFF; " description="secreted_protein[br]Location: 4618256 - 4619212" locus_tag="SACE_4147" id="clusterblast-1_h22_5_23" points="653,90 657,90 662,85 657,80 653,80 653,90 " class="clusterblast-orf"  />
<polygon style="stroke:black; stroke-width:1; fill:#FFFFFF; " description="hypothetical_protein[br]Location: 4619414 - 4620034" locus_tag="SACE_4148" id="clusterblast-1_h22_5_24" points="663,90 664,90 669,85 664,80 663,80 663,90 " class="clusterblast-orf"  />
<polygon style="stroke:black; stroke-width:1; fill:#FFFFFF; " description="amino_acid_transporter[br]Location: 4620222 - 4621634" locus_tag="SACE_4149" id="clusterblast-1_h22_5_25" points="671,90 678,90 683,85 678,80 671,80 671,90 " class="clusterblast-orf"  />
<polygon style="stroke:black; stroke-width:1; fill:#FFFFFF; " description="L-amino-acid_oxidase[br]Location: 4621643 - 4622941" locus_tag="SACE_4150" id="clusterblast-1_h22_5_26" points="683,90 690,90 695,85 690,80 683,80 683,90 " class="clusterblast-orf"  />
<polygon style="stroke:black; stroke-width:1; fill:green; " description="short-chain_dehydrogenase/reductase_SDR[br]Location: 4623171 - 4624031&lt;br&gt;&lt;br&gt;&lt;b&gt;BlastP hit with CHAFR746836_0090290.1&lt;/b&gt;&lt;br&gt;Percentage identity: 31%&lt;br&gt;Percentage coverage: 80%&lt;br&gt;BLAST bit score: 75&lt;br&gt;E-value: 8e-15" locus_tag="SACE_4151" id="clusterblast-1_h22_5_27" points="697,90 700,90 705,85 700,80 697,80 697,90 " class="clusterblast-orf"  />
<polygon style="stroke:black; stroke-width:1; fill:#FFFFFF; " description="peptidase_S15[br]Location: 4624058 - 4626082" locus_tag="SACE_4152" id="clusterblast-1_h22_5_28" points="705,90 718,90 723,85 718,80 705,80 705,90 " class="clusterblast-orf"  />
<polygon style="stroke:black; stroke-width:1; fill:#FFFFFF; " description="integral_membrane_protein[br]Location: 4626136 - 4626954" locus_tag="SACE_4153" id="clusterblast-1_h22_5_29" points="723,85 728,80 731,80 731,90 728,90 723,85 " class="clusterblast-orf"  />
<polygon style="stroke:black; stroke-width:1; fill:#FFFFFF; " description="NAD-dependent_epimerase/dehydratase[br]Location: 4627099 - 4628160" locus_tag="SACE_4154" id="clusterblast-1_h22_5_30" points="732,90 736,90 741,85 736,80 732,80 732,90 " class="clusterblast-orf"  />
<polygon style="stroke:black; stroke-width:1; fill:#FFFFFF; " description="hypothetical_protein[br]Location: 4628228 - 4628593" locus_tag="SACE_4155" id="clusterblast-1_h22_5_31" points="742,85 745,80 745,90 742,85 " class="clusterblast-orf"  />
<polygon style="stroke:black; stroke-width:1; fill:#FFFFFF; " description="integral_membrane_protein[br]Location: 4628590 - 4629012" locus_tag="SACE_4156" id="clusterblast-1_h22_5_32" points="745,85 749,80 749,90 745,85 " class="clusterblast-orf"  />
<polygon style="stroke:black; stroke-width:1; fill:#FFFFFF; " description="hypothetical_protein[br]Location: 4629060 - 4629242" locus_tag="SACE_4157" id="clusterblast-1_h22_5_33" points="749,85 751,80 751,90 749,85 " class="clusterblast-orf"  />
<polygon style="stroke:black; stroke-width:1; fill:#FFFFFF; " description="hypothetical_protein[br]Location: 4629466 - 4629963" locus_tag="SACE_4158" id="clusterblast-1_h22_5_34" points="753,85 757,80 757,90 753,85 " class="clusterblast-orf"  />
<polygon style="stroke:black; stroke-width:1; fill:#FFFFFF; " description="sugar_ABC_transporter,_ATP-binding_protein[br]Location: 4630194 - 4631288" locus_tag="SACE_4159" id="clusterblast-1_h22_5_35" points="759,85 764,80 769,80 769,90 764,90 759,85 " class="clusterblast-orf"  />
<polygon style="stroke:black; stroke-width:1; fill:#FFFFFF; " description="ABC_sugar_transporter,_permease_component[br]Location: 4631397 - 4632224" locus_tag="SACE_4160" id="clusterblast-1_h22_5_36" points="770,85 775,80 778,80 778,90 775,90 770,85 " class="clusterblast-orf"  />
</g>
</svg>
