<svg xmlns="http://www.w3.org/2000/svg" height="230" width="800" version="1.1" y="0" x="0" preserveAspectRatio="none" xmlns:xlink="http://www.w3.org/1999/xlink" viewBox="0 0 800 230"  >
<g class="clusterblast-cluster" label="Query sequence"  >
<text class="clusterblast-acc" y="10" x="5"  >
Query sequence</text>
<line y1="35" x2="778.0" style="stroke:grey; stroke-width:1; " x1="10" y2="35"  />
<polygon style="stroke:black; stroke-width:1; fill:#FFFFFF; " description="unannotated orf[br]Location: 978 - 3290" locus_tag="CHAFR746836_0087330.1" class="clusterblast-orf" points="10,40 16,40 21,35 16,30 10,30 10,40 " id="clusterblast-1_q19_5_0"  />
<polygon style="stroke:black; stroke-width:1; fill:#FFFFFF; " description="unannotated orf[br]Location: 11313 - 13260" locus_tag="CHAFR746836_0087340.1" class="clusterblast-orf" points="60,35 65,30 70,30 70,40 65,40 60,35 " id="clusterblast-1_q19_5_1"  />
<polygon style="stroke:black; stroke-width:1; fill:#FFFFFF; " description="unannotated orf[br]Location: 25150 - 25735" locus_tag="CHAFR746836_0087350.1" class="clusterblast-orf" points="128,35 131,30 131,40 128,35 " id="clusterblast-1_q19_5_2"  />
<polygon style="stroke:black; stroke-width:1; fill:#FFFFFF; " description="unannotated orf[br]Location: 26529 - 27424" locus_tag="CHAFR746836_0087360.1" class="clusterblast-orf" points="135,35 139,30 139,40 135,35 " id="clusterblast-1_q19_5_3"  />
<polygon style="stroke:black; stroke-width:1; fill:#FFFFFF; " description="unannotated orf[br]Location: 27971 - 29946" locus_tag="CHAFR746836_0087370.1" class="clusterblast-orf" points="142,40 147,40 152,35 147,30 142,30 142,40 " id="clusterblast-1_q19_5_4"  />
<polygon style="stroke:black; stroke-width:1; fill:rgb(169,42,42); " description="unannotated orf[br]Location: 31388 - 33149" locus_tag="CHAFR746836_0087380.1" class="clusterblast-orf" points="159,40 163,40 168,35 163,30 159,30 159,40 " id="clusterblast-1_q19_5_5"  />
<polygon style="stroke:black; stroke-width:1; fill:#FFFFFF; " description="unannotated orf[br]Location: 34560 - 35171" locus_tag="CHAFR746836_0087390.1" class="clusterblast-orf" points="175,40 178,35 175,30 175,40 " id="clusterblast-1_q19_5_6"  />
<polygon style="stroke:black; stroke-width:1; fill:#FFFFFF; " description="unannotated orf[br]Location: 36170 - 38717" locus_tag="CHAFR746836_0087400.1" class="clusterblast-orf" points="182,35 187,30 195,30 195,40 187,40 182,35 " id="clusterblast-1_q19_5_7"  />
<polygon style="stroke:black; stroke-width:1; fill:rgb(42,212,42); " description="unannotated orf[br]Location: 39938 - 40576" locus_tag="CHAFR746836_0087410.1" class="clusterblast-orf" points="201,35 204,30 204,40 201,35 " id="clusterblast-1_q19_5_8"  />
<polygon style="stroke:black; stroke-width:1; fill:#FFFFFF; " description="unannotated orf[br]Location: 41148 - 42949" locus_tag="CHAFR746836_0087420.1" class="clusterblast-orf" points="207,40 211,40 216,35 211,30 207,30 207,40 " id="clusterblast-1_q19_5_9"  />
<polygon style="stroke:black; stroke-width:1; fill:#FFFFFF; " description="unannotated orf[br]Location: 45079 - 46829" locus_tag="CHAFR746836_0087430.1" class="clusterblast-orf" points="226,40 230,40 235,35 230,30 226,30 226,40 " id="clusterblast-1_q19_5_10"  />
<polygon style="stroke:black; stroke-width:1; fill:#FFFFFF; " description="unannotated orf[br]Location: 47651 - 49501" locus_tag="CHAFR746836_0087440.1" class="clusterblast-orf" points="239,40 243,40 248,35 243,30 239,30 239,40 " id="clusterblast-1_q19_5_11"  />
<polygon style="stroke:black; stroke-width:1; fill:#FFFFFF; " description="unannotated orf[br]Location: 50578 - 52077" locus_tag="CHAFR746836_0087450.1" class="clusterblast-orf" points="253,35 258,30 261,30 261,40 258,40 253,35 " id="clusterblast-1_q19_5_12"  />
<polygon style="stroke:black; stroke-width:1; fill:#FFFFFF; " description="unannotated orf[br]Location: 57587 - 59108" locus_tag="CHAFR746836_0087460.1" class="clusterblast-orf" points="288,40 290,40 295,35 290,30 288,30 288,40 " id="clusterblast-1_q19_5_13"  />
<polygon style="stroke:black; stroke-width:1; fill:#FFFFFF; " description="unannotated orf[br]Location: 61987 - 64097" locus_tag="CHAFR746836_0087470.1" class="clusterblast-orf" points="309,40 315,40 320,35 315,30 309,30 309,40 " id="clusterblast-1_q19_5_14"  />
<polygon style="stroke:black; stroke-width:1; fill:#FFFFFF; " description="unannotated orf[br]Location: 69799 - 72236" locus_tag="CHAFR746836_0087480.1" class="clusterblast-orf" points="348,40 355,40 360,35 355,30 348,30 348,40 " id="clusterblast-1_q19_5_15"  />
<polygon style="stroke:black; stroke-width:1; fill:#FFFFFF; " description="unannotated orf[br]Location: 75226 - 76087" locus_tag="CHAFR746836_0087490.1" class="clusterblast-orf" points="374,35 379,30 379,30 379,40 379,40 374,35 " id="clusterblast-1_q19_5_16"  />
<polygon style="stroke:black; stroke-width:1; fill:rgb(42,42,212); " description="unannotated orf[br]Location: 83518 - 84938" locus_tag="CHAFR746836_0087500.1" class="clusterblast-orf" points="415,35 420,30 422,30 422,40 420,40 415,35 " id="clusterblast-1_q19_5_17"  />
<polygon style="stroke:black; stroke-width:1; fill:rgb(169,127,212); " description="unannotated orf[br]Location: 87633 - 89495" locus_tag="CHAFR746836_0087510.1" class="clusterblast-orf" points="435,35 440,30 445,30 445,40 440,40 435,35 " id="clusterblast-1_q19_5_18"  />
<polygon style="stroke:black; stroke-width:1; fill:rgb(169,212,42); " description="unannotated orf[br]Location: 89752 - 90556" locus_tag="CHAFR746836_0087520.1" class="clusterblast-orf" points="446,40 450,35 446,30 446,40 " id="clusterblast-1_q19_5_19"  />
<polygon style="stroke:black; stroke-width:1; fill:#FFFFFF; " description="unannotated orf[br]Location: 104976 - 106006" locus_tag="CHAFR746836_0087530.1" class="clusterblast-orf" points="521,35 526,30 526,30 526,40 526,40 521,35 " id="clusterblast-1_q19_5_20"  />
<polygon style="stroke:black; stroke-width:1; fill:rgb(42,212,212); " description="unannotated orf[br]Location: 127251 - 128425" locus_tag="CHAFR746836_0087540.1" class="clusterblast-orf" points="630,35 635,30 636,30 636,40 635,40 630,35 " id="clusterblast-1_q19_5_21"  />
<polygon style="stroke:black; stroke-width:1; fill:rgb(169,127,42); " description="unannotated orf[br]Location: 129252 - 129711" locus_tag="CHAFR746836_0087550.1" class="clusterblast-orf" points="640,40 642,35 640,30 640,40 " id="clusterblast-1_q19_5_22"  />
<polygon style="stroke:black; stroke-width:1; fill:rgb(169,42,127); " description="unannotated orf[br]Location: 133926 - 135028" locus_tag="CHAFR746836_0087560.1" class="clusterblast-orf" points="663,35 668,30 668,30 668,40 668,40 663,35 " id="clusterblast-1_q19_5_23"  />
<polygon style="stroke:black; stroke-width:1; fill:rgb(42,127,42); " description="unannotated orf[br]Location: 135294 - 136000" locus_tag="CHAFR746836_0087570.1" class="clusterblast-orf" points="670,40 673,35 670,30 670,40 " id="clusterblast-1_q19_5_24"  />
<polygon style="stroke:black; stroke-width:1; fill:#FFFFFF; " description="unannotated orf[br]Location: 137264 - 139678" locus_tag="CHAFR746836_0087580.1" class="clusterblast-orf" points="679,40 686,40 691,35 686,30 679,30 679,40 " id="clusterblast-1_q19_5_25"  />
<polygon style="stroke:black; stroke-width:1; fill:#FFFFFF; " description="unannotated orf[br]Location: 140410 - 140889" locus_tag="CHAFR746836_0087590.1" class="clusterblast-orf" points="695,40 697,35 695,30 695,40 " id="clusterblast-1_q19_5_26"  />
<polygon style="stroke:black; stroke-width:1; fill:#FFFFFF; " description="unannotated orf[br]Location: 145698 - 146640" locus_tag="CHAFR746836_0087600.1" class="clusterblast-orf" points="721,35 725,30 725,40 721,35 " id="clusterblast-1_q19_5_27"  />
<polygon style="stroke:black; stroke-width:1; fill:rgb(42,127,212); " description="unannotated orf[br]Location: 149111 - 149530" locus_tag="CHAFR746836_0087610.1" class="clusterblast-orf" points="738,40 740,35 738,30 738,40 " id="clusterblast-1_q19_5_28"  />
<polygon style="stroke:black; stroke-width:1; fill:rgb(42,212,127); " description="unannotated orf[br]Location: 150467 - 151609" locus_tag="CHAFR746836_0087620.1" class="clusterblast-orf" points="744,40 745,40 750,35 745,30 744,30 744,40 " id="clusterblast-1_q19_5_29"  />
<polygon style="stroke:black; stroke-width:1; fill:rgb(169,42,212); " description="unannotated orf[br]Location: 150467 - 154023" locus_tag="CHAFR746836_0087620.3" class="clusterblast-orf" points="744,40 757,40 762,35 757,30 744,30 744,40 " id="clusterblast-1_q19_5_30"  />
<polygon style="stroke:black; stroke-width:1; fill:#FFFFFF; " description="unannotated orf[br]Location: 152274 - 154023" locus_tag="CHAFR746836_0087620.2" class="clusterblast-orf" points="753,40 757,40 762,35 757,30 753,30 753,40 " id="clusterblast-1_q19_5_31"  />
<polygon style="stroke:black; stroke-width:1; fill:rgb(42,127,127); " description="unannotated orf[br]Location: 155579 - 157240" locus_tag="CHAFR746836_0087630.1" class="clusterblast-orf" points="769,40 773,40 778,35 773,30 769,30 769,40 " id="clusterblast-1_q19_5_32"  />
</g>
<g class="clusterblast-cluster" description="Trichoderma virens Gv29-8 TRIVIscaffold 6, whole genome ..." label="ABDF02000006.1_c3"  >
<text class="clusterblast-acc" y="60" x="5"  >
ABDF02000006.1_c3</text>
<text class="clusterblast-desc" y="60" x="460.8"  >
Trichoderma virens Gv29-8 TRIVIscaffold 6, whole genome ...</text>
<line y1="85" x2="778.0" style="stroke:grey; stroke-width:1; " x1="10" y2="85"  />
<polygon style="stroke:black; stroke-width:1; fill:#FFFFFF; " description="hypothetical_protein[br]Location: 2926922 - 2928616" locus_tag="TRIVIDRAFT_222254" id="clusterblast-1_h19_5_0" points="115,90 118,90 123,85 118,80 115,80 115,90 " class="clusterblast-orf"  />
<polygon style="stroke:black; stroke-width:1; fill:#FFFFFF; " description="hypothetical_protein[br]Location: 2929805 - 2930775" locus_tag="TRIVIDRAFT_60187" id="clusterblast-1_h19_5_1" points="129,90 133,85 129,80 129,90 " class="clusterblast-orf"  />
<polygon style="stroke:black; stroke-width:1; fill:#FFFFFF; " description="hypothetical_protein[br]Location: 2933885 - 2934826" locus_tag="TRIVIDRAFT_216126" id="clusterblast-1_h19_5_2" points="149,90 153,85 149,80 149,90 " class="clusterblast-orf"  />
<polygon style="stroke:black; stroke-width:1; fill:#FFFFFF; " description="hypothetical_protein[br]Location: 2939827 - 2941069" locus_tag="TRIVIDRAFT_230724" id="clusterblast-1_h19_5_3" points="178,85 183,80 184,80 184,90 183,90 178,85 " class="clusterblast-orf"  />
<polygon style="stroke:black; stroke-width:1; fill:#FFFFFF; " description="hypothetical_protein[br]Location: 2942513 - 2943802" locus_tag="TRIVIDRAFT_53844" id="clusterblast-1_h19_5_4" points="191,90 192,90 197,85 192,80 191,80 191,90 " class="clusterblast-orf"  />
<polygon style="stroke:black; stroke-width:1; fill:#FFFFFF; " description="hypothetical_protein[br]Location: 2943939 - 2945402" locus_tag="TRIVIDRAFT_201263" id="clusterblast-1_h19_5_5" points="198,85 203,80 205,80 205,90 203,90 198,85 " class="clusterblast-orf"  />
<polygon style="stroke:black; stroke-width:1; fill:#FFFFFF; " description="putative_polyketide_synthase[br]Location: 2947633 - 2954310" locus_tag="TRIVIDRAFT_222260" id="clusterblast-1_h19_5_6" points="216,90 244,90 249,85 244,80 216,80 216,90 " class="clusterblast-orf"  />
<polygon style="stroke:black; stroke-width:1; fill:#FFFFFF; " description="hypothetical_protein[br]Location: 2955018 - 2958290" locus_tag="TRIVIDRAFT_60181" id="clusterblast-1_h19_5_7" points="253,85 258,80 269,80 269,90 258,90 253,85 " class="clusterblast-orf"  />
<polygon style="stroke:black; stroke-width:1; fill:#FFFFFF; " description="hypothetical_protein[br]Location: 2958935 - 2960932" locus_tag="TRIVIDRAFT_60180" id="clusterblast-1_h19_5_8" points="272,85 277,80 282,80 282,90 277,90 272,85 " class="clusterblast-orf"  />
<polygon style="stroke:black; stroke-width:1; fill:rgb(42,127,127); " description="hypothetical_protein[br]Location: 2961143 - 2962970&lt;br&gt;&lt;br&gt;&lt;b&gt;BlastP hit with CHAFR746836_0087630.1&lt;/b&gt;&lt;br&gt;Percentage identity: 44%&lt;br&gt;Percentage coverage: 97%&lt;br&gt;BLAST bit score: 425&lt;br&gt;E-value: 7e-143" locus_tag="TRIVIDRAFT_180162" id="clusterblast-1_h19_5_9" points="283,85 288,80 292,80 292,90 288,90 283,85 " class="clusterblast-orf"  />
<polygon style="stroke:black; stroke-width:1; fill:#FFFFFF; " description="hypothetical_protein[br]Location: 2963804 - 2965501" locus_tag="TRIVIDRAFT_191595" id="clusterblast-1_h19_5_10" points="296,90 299,90 304,85 299,80 296,80 296,90 " class="clusterblast-orf"  />
<polygon style="stroke:black; stroke-width:1; fill:#FFFFFF; " description="hypothetical_protein[br]Location: 2966522 - 2967746" locus_tag="TRIVIDRAFT_29580" id="clusterblast-1_h19_5_11" points="309,85 314,80 315,80 315,90 314,90 309,85 " class="clusterblast-orf"  />
<polygon style="stroke:black; stroke-width:1; fill:#FFFFFF; " description="hypothetical_protein[br]Location: 2968309 - 2970608" locus_tag="TRIVIDRAFT_53838" id="clusterblast-1_h19_5_12" points="318,85 323,80 329,80 329,90 323,90 318,85 " class="clusterblast-orf"  />
<polygon style="stroke:black; stroke-width:1; fill:#FFFFFF; " description="putative_PKS-NRPS_protein[br]Location: 2971004 - 2982836" locus_tag="TRIVIDRAFT_28610" id="clusterblast-1_h19_5_13" points="331,90 384,90 389,85 384,80 331,80 331,90 " class="clusterblast-orf"  />
<polygon style="stroke:black; stroke-width:1; fill:#FFFFFF; " description="hypothetical_protein[br]Location: 2983409 - 2984659" locus_tag="TRIVIDRAFT_53837" id="clusterblast-1_h19_5_14" points="392,90 393,90 398,85 393,80 392,80 392,90 " class="clusterblast-orf"  />
<polygon style="stroke:black; stroke-width:1; fill:#FFFFFF; " description="hypothetical_protein[br]Location: 2985129 - 2986998" locus_tag="TRIVIDRAFT_60172" id="clusterblast-1_h19_5_15" points="401,85 406,80 410,80 410,90 406,90 401,85 " class="clusterblast-orf"  />
<polygon style="stroke:black; stroke-width:1; fill:#FFFFFF; " description="hypothetical_protein[br]Location: 2987924 - 2988892" locus_tag="TRIVIDRAFT_28484" id="clusterblast-1_h19_5_16" points="414,90 414,90 419,85 414,80 414,80 414,90 " class="clusterblast-orf"  />
<polygon style="stroke:black; stroke-width:1; fill:#FFFFFF; " description="hypothetical_protein[br]Location: 2990843 - 2992046" locus_tag="TRIVIDRAFT_28177" id="clusterblast-1_h19_5_17" points="429,85 434,80 435,80 435,90 434,90 429,85 " class="clusterblast-orf"  />
<polygon style="stroke:black; stroke-width:1; fill:#FFFFFF; " description="hypothetical_protein[br]Location: 2994448 - 2995716" locus_tag="TRIVIDRAFT_191602" id="clusterblast-1_h19_5_18" points="446,90 448,90 453,85 448,80 446,80 446,90 " class="clusterblast-orf"  />
<polygon style="stroke:black; stroke-width:1; fill:#FFFFFF; " description="hypothetical_protein[br]Location: 2996154 - 2997169" locus_tag="TRIVIDRAFT_60168" id="clusterblast-1_h19_5_19" points="455,85 460,80 460,80 460,90 460,90 455,85 " class="clusterblast-orf"  />
<polygon style="stroke:black; stroke-width:1; fill:#FFFFFF; " description="hypothetical_protein[br]Location: 2998532 - 3000465" locus_tag="TRIVIDRAFT_28724" id="clusterblast-1_h19_5_20" points="466,85 471,80 476,80 476,90 471,90 466,85 " class="clusterblast-orf"  />
<polygon style="stroke:black; stroke-width:1; fill:#FFFFFF; " description="hypothetical_protein[br]Location: 3001842 - 3003639" locus_tag="TRIVIDRAFT_28823" id="clusterblast-1_h19_5_21" points="483,90 487,90 492,85 487,80 483,80 483,90 " class="clusterblast-orf"  />
<polygon style="stroke:black; stroke-width:1; fill:#FFFFFF; " description="hypothetical_protein[br]Location: 3004139 - 3005743" locus_tag="TRIVIDRAFT_230726" id="clusterblast-1_h19_5_22" points="494,85 499,80 502,80 502,90 499,90 494,85 " class="clusterblast-orf"  />
<polygon style="stroke:black; stroke-width:1; fill:#FFFFFF; " description="hypothetical_protein[br]Location: 3006439 - 3007737" locus_tag="TRIVIDRAFT_201282" id="clusterblast-1_h19_5_23" points="505,90 507,90 512,85 507,80 505,80 505,90 " class="clusterblast-orf"  />
<polygon style="stroke:black; stroke-width:1; fill:#FFFFFF; " description="putative_PKS-NRPS_protein[br]Location: 3007775 - 3020453" locus_tag="TRIVIDRAFT_191605" id="clusterblast-1_h19_5_24" points="512,85 517,80 574,80 574,90 517,90 512,85 " class="clusterblast-orf"  />
<polygon style="stroke:black; stroke-width:1; fill:rgb(169,42,42); " description="hypothetical_protein[br]Location: 3021136 - 3021459&lt;br&gt;&lt;br&gt;&lt;b&gt;BlastP hit with CHAFR746836_0087380.1&lt;/b&gt;&lt;br&gt;Percentage identity: 42%&lt;br&gt;Percentage coverage: 15%&lt;br&gt;BLAST bit score: 84&lt;br&gt;E-value: 8e-18&lt;br&gt;&lt;br&gt;&lt;b&gt;BlastP hit with CHAFR746836_0087610.1&lt;/b&gt;&lt;br&gt;Percentage identity: 36%&lt;br&gt;Percentage coverage: 81%&lt;br&gt;BLAST bit score: 72&lt;br&gt;E-value: 9e-16" locus_tag="TRIVIDRAFT_29262" id="clusterblast-1_h19_5_25" points="578,90 579,85 578,80 578,90 " class="clusterblast-orf"  />
<polygon style="stroke:black; stroke-width:1; fill:#FFFFFF; " description="hypothetical_protein[br]Location: 3022332 - 3023453" locus_tag="TRIVIDRAFT_60161" id="clusterblast-1_h19_5_26" points="583,85 588,80 589,80 589,90 588,90 583,85 " class="clusterblast-orf"  />
<polygon style="stroke:black; stroke-width:1; fill:#FFFFFF; " description="hypothetical_protein[br]Location: 3024226 - 3025360" locus_tag="TRIVIDRAFT_149423" id="clusterblast-1_h19_5_27" points="593,90 593,90 598,85 593,80 593,80 593,90 " class="clusterblast-orf"  />
<polygon style="stroke:black; stroke-width:1; fill:#FFFFFF; " description="hypothetical_protein[br]Location: 3026224 - 3027276" locus_tag="TRIVIDRAFT_60159" id="clusterblast-1_h19_5_28" points="603,90 603,90 608,85 603,80 603,80 603,90 " class="clusterblast-orf"  />
<polygon style="stroke:black; stroke-width:1; fill:#FFFFFF; " description="hypothetical_protein[br]Location: 3028992 - 3031155" locus_tag="TRIVIDRAFT_28132" id="clusterblast-1_h19_5_29" points="616,90 622,90 627,85 622,80 616,80 616,90 " class="clusterblast-orf"  />
<polygon style="stroke:black; stroke-width:1; fill:#FFFFFF; " description="hypothetical_protein[br]Location: 3032060 - 3032848" locus_tag="TRIVIDRAFT_29068" id="clusterblast-1_h19_5_30" points="631,90 635,85 631,80 631,90 " class="clusterblast-orf"  />
<polygon style="stroke:black; stroke-width:1; fill:#FFFFFF; " description="hypothetical_protein[br]Location: 3034647 - 3034955" locus_tag="TRIVIDRAFT_28184" id="clusterblast-1_h19_5_31" points="644,90 645,85 644,80 644,90 " class="clusterblast-orf"  />
<polygon style="stroke:black; stroke-width:1; fill:#FFFFFF; " description="hypothetical_protein[br]Location: 3035843 - 3036837" locus_tag="TRIVIDRAFT_209304" id="clusterblast-1_h19_5_32" points="650,85 655,80 655,80 655,90 655,90 650,85 " class="clusterblast-orf"  />
<polygon style="stroke:black; stroke-width:1; fill:#FFFFFF; " description="hypothetical_protein[br]Location: 3037498 - 3038835" locus_tag="TRIVIDRAFT_29230" id="clusterblast-1_h19_5_33" points="658,90 660,90 665,85 660,80 658,80 658,90 " class="clusterblast-orf"  />
<polygon style="stroke:black; stroke-width:1; fill:#FFFFFF; " description="hypothetical_protein[br]Location: 3039146 - 3040304" locus_tag="TRIVIDRAFT_28826" id="clusterblast-1_h19_5_34" points="666,85 671,80 672,80 672,90 671,90 666,85 " class="clusterblast-orf"  />
</g>
</svg>
