<svg xmlns="http://www.w3.org/2000/svg" height="230" width="800" version="1.1" y="0" x="0" preserveAspectRatio="none" xmlns:xlink="http://www.w3.org/1999/xlink" viewBox="0 0 800 230"  >
<g class="clusterblast-cluster" label="Query sequence"  >
<text class="clusterblast-acc" y="10" x="5"  >
Query sequence</text>
<line y1="35" x2="778.0" style="stroke:grey; stroke-width:1; " x1="10" y2="35"  />
<polygon style="stroke:black; stroke-width:1; fill:#FFFFFF; " description="unannotated orf[br]Location: 18836 - 21554" locus_tag="CHAFR746836_0027290.1" class="clusterblast-orf" points="10,40 24,40 29,35 24,30 10,30 10,40 " id="clusterblast-1_q40_4_0"  />
<polygon style="stroke:black; stroke-width:1; fill:#FFFFFF; " description="unannotated orf[br]Location: 27135 - 27585" locus_tag="CHAFR746836_0027300.1" class="clusterblast-orf" points="68,40 72,35 68,30 68,40 " id="clusterblast-1_q40_4_1"  />
<polygon style="stroke:black; stroke-width:1; fill:rgb(190,63,63); " description="unannotated orf[br]Location: 30771 - 32507" locus_tag="CHAFR746836_0027310.1" class="clusterblast-orf" points="94,35 99,30 107,30 107,40 99,40 94,35 " id="clusterblast-1_q40_4_2"  />
<polygon style="stroke:black; stroke-width:1; fill:rgb(63,63,190); " description="unannotated orf[br]Location: 34247 - 35696" locus_tag="CHAFR746836_0027320.1" class="clusterblast-orf" points="119,40 124,40 129,35 124,30 119,30 119,40 " id="clusterblast-1_q40_4_3"  />
<polygon style="stroke:black; stroke-width:1; fill:#FFFFFF; " description="unannotated orf[br]Location: 37185 - 38130" locus_tag="CHAFR746836_0027330.1" class="clusterblast-orf" points="140,40 141,40 146,35 141,30 140,30 140,40 " id="clusterblast-1_q40_4_4"  />
<polygon style="stroke:black; stroke-width:1; fill:#FFFFFF; " description="unannotated orf[br]Location: 41765 - 42925" locus_tag="CHAFR746836_0027340.1" class="clusterblast-orf" points="172,35 177,30 180,30 180,40 177,40 172,35 " id="clusterblast-1_q40_4_5"  />
<polygon style="stroke:black; stroke-width:1; fill:#FFFFFF; " description="unannotated orf[br]Location: 55069 - 56002" locus_tag="CHAFR746836_0027350.1" class="clusterblast-orf" points="267,35 272,30 273,30 273,40 272,40 267,35 " id="clusterblast-1_q40_4_6"  />
<polygon style="stroke:black; stroke-width:1; fill:#FFFFFF; " description="unannotated orf[br]Location: 56950 - 57453" locus_tag="CHAFR746836_0027360.1" class="clusterblast-orf" points="280,35 284,30 284,40 280,35 " id="clusterblast-1_q40_4_7"  />
<polygon style="stroke:black; stroke-width:1; fill:#FFFFFF; " description="unannotated orf[br]Location: 59904 - 60587" locus_tag="CHAFR746836_0027370.1" class="clusterblast-orf" points="301,35 306,30 306,30 306,40 306,40 301,35 " id="clusterblast-1_q40_4_8"  />
<polygon style="stroke:black; stroke-width:1; fill:rgb(63,190,63); " description="unannotated orf[br]Location: 62113 - 63802" locus_tag="CHAFR746836_0027380.1" class="clusterblast-orf" points="317,40 324,40 329,35 324,30 317,30 317,40 " id="clusterblast-1_q40_4_9"  />
<polygon style="stroke:black; stroke-width:1; fill:rgb(190,63,190); " description="unannotated orf[br]Location: 65675 - 67240" locus_tag="CHAFR746836_0027390.1" class="clusterblast-orf" points="342,40 348,40 353,35 348,30 342,30 342,40 " id="clusterblast-1_q40_4_10"  />
<polygon style="stroke:black; stroke-width:1; fill:#FFFFFF; " description="unannotated orf[br]Location: 69095 - 71104" locus_tag="CHAFR746836_0027400.1" class="clusterblast-orf" points="366,35 371,30 380,30 380,40 371,40 366,35 " id="clusterblast-1_q40_4_11"  />
<polygon style="stroke:black; stroke-width:1; fill:#FFFFFF; " description="unannotated orf[br]Location: 72318 - 73122" locus_tag="CHAFR746836_0027410.1" class="clusterblast-orf" points="389,35 394,30 395,30 395,40 394,40 389,35 " id="clusterblast-1_q40_4_12"  />
<polygon style="stroke:black; stroke-width:1; fill:#FFFFFF; " description="unannotated orf[br]Location: 85144 - 86302" locus_tag="CHAFR746836_0027420.1" class="clusterblast-orf" points="480,40 483,40 488,35 483,30 480,30 480,40 " id="clusterblast-1_q40_4_13"  />
<polygon style="stroke:black; stroke-width:1; fill:#FFFFFF; " description="unannotated orf[br]Location: 87771 - 89252" locus_tag="CHAFR746836_0027430.1" class="clusterblast-orf" points="499,40 504,40 509,35 504,30 499,30 499,40 " id="clusterblast-1_q40_4_14"  />
<polygon style="stroke:black; stroke-width:1; fill:rgb(190,190,63); " description="unannotated orf[br]Location: 93673 - 95433" locus_tag="CHAFR746836_0027440.1" class="clusterblast-orf" points="541,35 546,30 553,30 553,40 546,40 541,35 " id="clusterblast-1_q40_4_15"  />
<polygon style="stroke:black; stroke-width:1; fill:#FFFFFF; " description="unannotated orf[br]Location: 101726 - 102802" locus_tag="CHAFR746836_0027450.1" class="clusterblast-orf" points="598,40 600,40 605,35 600,30 598,30 598,40 " id="clusterblast-1_q40_4_16"  />
<polygon style="stroke:black; stroke-width:1; fill:rgb(190,190,190); " description="unannotated orf[br]Location: 102943 - 104133" locus_tag="CHAFR746836_0027460.1" class="clusterblast-orf" points="606,35 611,30 615,30 615,40 611,40 606,35 " id="clusterblast-1_q40_4_17"  />
<polygon style="stroke:black; stroke-width:1; fill:rgb(63,190,190); " description="unannotated orf[br]Location: 113142 - 115383" locus_tag="CHAFR746836_0027470.1" class="clusterblast-orf" points="679,40 690,40 695,35 690,30 679,30 679,40 " id="clusterblast-1_q40_4_18"  />
<polygon style="stroke:black; stroke-width:1; fill:#FFFFFF; " description="unannotated orf[br]Location: 116732 - 117774" locus_tag="CHAFR746836_0027480.1" class="clusterblast-orf" points="704,40 707,40 712,35 707,30 704,30 704,40 " id="clusterblast-1_q40_4_19"  />
<polygon style="stroke:black; stroke-width:1; fill:rgb(63,63,63); " description="unannotated orf[br]Location: 118463 - 119147" locus_tag="CHAFR746836_0027490.1" class="clusterblast-orf" points="717,40 721,35 717,30 717,40 " id="clusterblast-1_q40_4_20"  />
<polygon style="stroke:black; stroke-width:1; fill:#FFFFFF; " description="unannotated orf[br]Location: 120001 - 121808" locus_tag="CHAFR746836_0027500.1" class="clusterblast-orf" points="727,40 735,40 740,35 735,30 727,30 727,40 " id="clusterblast-1_q40_4_21"  />
<polygon style="stroke:black; stroke-width:1; fill:#FFFFFF; " description="unannotated orf[br]Location: 122955 - 125087" locus_tag="CHAFR746836_0027510.1" class="clusterblast-orf" points="748,35 753,30 764,30 764,40 753,40 748,35 " id="clusterblast-1_q40_4_22"  />
<polygon style="stroke:black; stroke-width:1; fill:#FFFFFF; " description="unannotated orf[br]Location: 125673 - 127054" locus_tag="CHAFR746836_0027520.1" class="clusterblast-orf" points="768,35 773,30 778,30 778,40 773,40 768,35 " id="clusterblast-1_q40_4_23"  />
</g>
<g class="clusterblast-cluster" description="Trichoderma virens Gv29-8 TRIVIscaffold 85, whole genome..." label="ABDF02000085.1_c3"  >
<text class="clusterblast-acc" y="60" x="5"  >
ABDF02000085.1_c3</text>
<text class="clusterblast-desc" y="60" x="460.8"  >
Trichoderma virens Gv29-8 TRIVIscaffold 85, whole genome...</text>
<line y1="85" x2="778.0" style="stroke:grey; stroke-width:1; " x1="10" y2="85"  />
<polygon style="stroke:black; stroke-width:1; fill:rgb(63,63,190); " description="hypothetical_protein[br]Location: 811698 - 813234&lt;br&gt;&lt;br&gt;&lt;b&gt;BlastP hit with CHAFR746836_0027320.1&lt;/b&gt;&lt;br&gt;Percentage identity: 33%&lt;br&gt;Percentage coverage: 100%&lt;br&gt;BLAST bit score: 294&lt;br&gt;E-value: 9e-92" locus_tag="TRIVIDRAFT_43674" id="clusterblast-1_h40_4_0" points="95,90 100,90 105,85 100,80 95,80 95,90 " class="clusterblast-orf"  />
<polygon style="stroke:black; stroke-width:1; fill:rgb(190,190,190); " description="hypothetical_protein[br]Location: 813973 - 814969&lt;br&gt;&lt;br&gt;&lt;b&gt;BlastP hit with CHAFR746836_0027460.1&lt;/b&gt;&lt;br&gt;Percentage identity: 41%&lt;br&gt;Percentage coverage: 26%&lt;br&gt;BLAST bit score: 55&lt;br&gt;E-value: 1e-07" locus_tag="TRIVIDRAFT_43515" id="clusterblast-1_h40_4_1" points="111,90 113,90 118,85 113,80 111,80 111,90 " class="clusterblast-orf"  />
<polygon style="stroke:black; stroke-width:1; fill:#FFFFFF; " description="hypothetical_protein[br]Location: 815356 - 816733" locus_tag="TRIVIDRAFT_44263" id="clusterblast-1_h40_4_2" points="120,90 125,90 130,85 125,80 120,80 120,90 " class="clusterblast-orf"  />
<polygon style="stroke:black; stroke-width:1; fill:#FFFFFF; " description="hypothetical_protein[br]Location: 817922 - 819024" locus_tag="TRIVIDRAFT_43965" id="clusterblast-1_h40_4_3" points="139,85 144,80 146,80 146,90 144,90 139,85 " class="clusterblast-orf"  />
<polygon style="stroke:black; stroke-width:1; fill:#FFFFFF; " description="hypothetical_protein[br]Location: 820170 - 821799" locus_tag="TRIVIDRAFT_204313" id="clusterblast-1_h40_4_4" points="155,90 161,90 166,85 161,80 155,80 155,90 " class="clusterblast-orf"  />
<polygon style="stroke:black; stroke-width:1; fill:#FFFFFF; " description="hypothetical_protein[br]Location: 822302 - 822881" locus_tag="TRIVIDRAFT_43552" id="clusterblast-1_h40_4_5" points="170,85 174,80 174,90 170,85 " class="clusterblast-orf"  />
<polygon style="stroke:black; stroke-width:1; fill:#FFFFFF; " description="hypothetical_protein[br]Location: 823923 - 825631" locus_tag="TRIVIDRAFT_76316" id="clusterblast-1_h40_4_6" points="181,85 186,80 193,80 193,90 186,90 181,85 " class="clusterblast-orf"  />
<polygon style="stroke:black; stroke-width:1; fill:#FFFFFF; " description="Ca2+_transporter[br]Location: 828728 - 830102" locus_tag="TRIVIDRAFT_43618" id="clusterblast-1_h40_4_7" points="215,85 220,80 225,80 225,90 220,90 215,85 " class="clusterblast-orf"  />
<polygon style="stroke:black; stroke-width:1; fill:#FFFFFF; " description="hypothetical_protein[br]Location: 831111 - 832760" locus_tag="TRIVIDRAFT_43748" id="clusterblast-1_h40_4_8" points="232,90 239,90 244,85 239,80 232,80 232,90 " class="clusterblast-orf"  />
<polygon style="stroke:black; stroke-width:1; fill:#FFFFFF; " description="Non-robosomal_peptide_synthetase[br]Location: 833098 - 895907" locus_tag="TRIVIDRAFT_66940" id="clusterblast-1_h40_4_9" points="246,85 251,80 692,80 692,90 251,90 246,85 " class="clusterblast-orf"  />
</g>
</svg>
