<svg xmlns="http://www.w3.org/2000/svg" height="230" width="800" version="1.1" y="0" x="0" preserveAspectRatio="none" xmlns:xlink="http://www.w3.org/1999/xlink" viewBox="0 0 800 230"  >
<g class="clusterblast-cluster" label="Query sequence"  >
<text class="clusterblast-acc" y="10" x="5"  >
Query sequence</text>
<line y1="35" x2="778.0" style="stroke:grey; stroke-width:1; " x1="10" y2="35"  />
<polygon style="stroke:black; stroke-width:1; fill:#FFFFFF; " description="unannotated orf[br]Location: 978 - 3290" locus_tag="CHAFR746836_0087330.1" class="clusterblast-orf" points="10,40 16,40 21,35 16,30 10,30 10,40 " id="clusterblast-1_q19_7_0"  />
<polygon style="stroke:black; stroke-width:1; fill:#FFFFFF; " description="unannotated orf[br]Location: 11313 - 13260" locus_tag="CHAFR746836_0087340.1" class="clusterblast-orf" points="60,35 65,30 70,30 70,40 65,40 60,35 " id="clusterblast-1_q19_7_1"  />
<polygon style="stroke:black; stroke-width:1; fill:#FFFFFF; " description="unannotated orf[br]Location: 25150 - 25735" locus_tag="CHAFR746836_0087350.1" class="clusterblast-orf" points="128,35 131,30 131,40 128,35 " id="clusterblast-1_q19_7_2"  />
<polygon style="stroke:black; stroke-width:1; fill:#FFFFFF; " description="unannotated orf[br]Location: 26529 - 27424" locus_tag="CHAFR746836_0087360.1" class="clusterblast-orf" points="135,35 139,30 139,40 135,35 " id="clusterblast-1_q19_7_3"  />
<polygon style="stroke:black; stroke-width:1; fill:#FFFFFF; " description="unannotated orf[br]Location: 27971 - 29946" locus_tag="CHAFR746836_0087370.1" class="clusterblast-orf" points="142,40 147,40 152,35 147,30 142,30 142,40 " id="clusterblast-1_q19_7_4"  />
<polygon style="stroke:black; stroke-width:1; fill:rgb(169,42,42); " description="unannotated orf[br]Location: 31388 - 33149" locus_tag="CHAFR746836_0087380.1" class="clusterblast-orf" points="159,40 163,40 168,35 163,30 159,30 159,40 " id="clusterblast-1_q19_7_5"  />
<polygon style="stroke:black; stroke-width:1; fill:#FFFFFF; " description="unannotated orf[br]Location: 34560 - 35171" locus_tag="CHAFR746836_0087390.1" class="clusterblast-orf" points="175,40 178,35 175,30 175,40 " id="clusterblast-1_q19_7_6"  />
<polygon style="stroke:black; stroke-width:1; fill:#FFFFFF; " description="unannotated orf[br]Location: 36170 - 38717" locus_tag="CHAFR746836_0087400.1" class="clusterblast-orf" points="182,35 187,30 195,30 195,40 187,40 182,35 " id="clusterblast-1_q19_7_7"  />
<polygon style="stroke:black; stroke-width:1; fill:rgb(42,212,42); " description="unannotated orf[br]Location: 39938 - 40576" locus_tag="CHAFR746836_0087410.1" class="clusterblast-orf" points="201,35 204,30 204,40 201,35 " id="clusterblast-1_q19_7_8"  />
<polygon style="stroke:black; stroke-width:1; fill:#FFFFFF; " description="unannotated orf[br]Location: 41148 - 42949" locus_tag="CHAFR746836_0087420.1" class="clusterblast-orf" points="207,40 211,40 216,35 211,30 207,30 207,40 " id="clusterblast-1_q19_7_9"  />
<polygon style="stroke:black; stroke-width:1; fill:#FFFFFF; " description="unannotated orf[br]Location: 45079 - 46829" locus_tag="CHAFR746836_0087430.1" class="clusterblast-orf" points="226,40 230,40 235,35 230,30 226,30 226,40 " id="clusterblast-1_q19_7_10"  />
<polygon style="stroke:black; stroke-width:1; fill:#FFFFFF; " description="unannotated orf[br]Location: 47651 - 49501" locus_tag="CHAFR746836_0087440.1" class="clusterblast-orf" points="239,40 243,40 248,35 243,30 239,30 239,40 " id="clusterblast-1_q19_7_11"  />
<polygon style="stroke:black; stroke-width:1; fill:#FFFFFF; " description="unannotated orf[br]Location: 50578 - 52077" locus_tag="CHAFR746836_0087450.1" class="clusterblast-orf" points="253,35 258,30 261,30 261,40 258,40 253,35 " id="clusterblast-1_q19_7_12"  />
<polygon style="stroke:black; stroke-width:1; fill:#FFFFFF; " description="unannotated orf[br]Location: 57587 - 59108" locus_tag="CHAFR746836_0087460.1" class="clusterblast-orf" points="288,40 290,40 295,35 290,30 288,30 288,40 " id="clusterblast-1_q19_7_13"  />
<polygon style="stroke:black; stroke-width:1; fill:#FFFFFF; " description="unannotated orf[br]Location: 61987 - 64097" locus_tag="CHAFR746836_0087470.1" class="clusterblast-orf" points="309,40 315,40 320,35 315,30 309,30 309,40 " id="clusterblast-1_q19_7_14"  />
<polygon style="stroke:black; stroke-width:1; fill:#FFFFFF; " description="unannotated orf[br]Location: 69799 - 72236" locus_tag="CHAFR746836_0087480.1" class="clusterblast-orf" points="348,40 355,40 360,35 355,30 348,30 348,40 " id="clusterblast-1_q19_7_15"  />
<polygon style="stroke:black; stroke-width:1; fill:#FFFFFF; " description="unannotated orf[br]Location: 75226 - 76087" locus_tag="CHAFR746836_0087490.1" class="clusterblast-orf" points="374,35 379,30 379,30 379,40 379,40 374,35 " id="clusterblast-1_q19_7_16"  />
<polygon style="stroke:black; stroke-width:1; fill:rgb(42,42,212); " description="unannotated orf[br]Location: 83518 - 84938" locus_tag="CHAFR746836_0087500.1" class="clusterblast-orf" points="415,35 420,30 422,30 422,40 420,40 415,35 " id="clusterblast-1_q19_7_17"  />
<polygon style="stroke:black; stroke-width:1; fill:rgb(169,127,212); " description="unannotated orf[br]Location: 87633 - 89495" locus_tag="CHAFR746836_0087510.1" class="clusterblast-orf" points="435,35 440,30 445,30 445,40 440,40 435,35 " id="clusterblast-1_q19_7_18"  />
<polygon style="stroke:black; stroke-width:1; fill:rgb(169,212,42); " description="unannotated orf[br]Location: 89752 - 90556" locus_tag="CHAFR746836_0087520.1" class="clusterblast-orf" points="446,40 450,35 446,30 446,40 " id="clusterblast-1_q19_7_19"  />
<polygon style="stroke:black; stroke-width:1; fill:#FFFFFF; " description="unannotated orf[br]Location: 104976 - 106006" locus_tag="CHAFR746836_0087530.1" class="clusterblast-orf" points="521,35 526,30 526,30 526,40 526,40 521,35 " id="clusterblast-1_q19_7_20"  />
<polygon style="stroke:black; stroke-width:1; fill:rgb(42,212,212); " description="unannotated orf[br]Location: 127251 - 128425" locus_tag="CHAFR746836_0087540.1" class="clusterblast-orf" points="630,35 635,30 636,30 636,40 635,40 630,35 " id="clusterblast-1_q19_7_21"  />
<polygon style="stroke:black; stroke-width:1; fill:rgb(169,127,42); " description="unannotated orf[br]Location: 129252 - 129711" locus_tag="CHAFR746836_0087550.1" class="clusterblast-orf" points="640,40 642,35 640,30 640,40 " id="clusterblast-1_q19_7_22"  />
<polygon style="stroke:black; stroke-width:1; fill:rgb(169,42,127); " description="unannotated orf[br]Location: 133926 - 135028" locus_tag="CHAFR746836_0087560.1" class="clusterblast-orf" points="663,35 668,30 668,30 668,40 668,40 663,35 " id="clusterblast-1_q19_7_23"  />
<polygon style="stroke:black; stroke-width:1; fill:rgb(42,127,42); " description="unannotated orf[br]Location: 135294 - 136000" locus_tag="CHAFR746836_0087570.1" class="clusterblast-orf" points="670,40 673,35 670,30 670,40 " id="clusterblast-1_q19_7_24"  />
<polygon style="stroke:black; stroke-width:1; fill:#FFFFFF; " description="unannotated orf[br]Location: 137264 - 139678" locus_tag="CHAFR746836_0087580.1" class="clusterblast-orf" points="679,40 686,40 691,35 686,30 679,30 679,40 " id="clusterblast-1_q19_7_25"  />
<polygon style="stroke:black; stroke-width:1; fill:#FFFFFF; " description="unannotated orf[br]Location: 140410 - 140889" locus_tag="CHAFR746836_0087590.1" class="clusterblast-orf" points="695,40 697,35 695,30 695,40 " id="clusterblast-1_q19_7_26"  />
<polygon style="stroke:black; stroke-width:1; fill:#FFFFFF; " description="unannotated orf[br]Location: 145698 - 146640" locus_tag="CHAFR746836_0087600.1" class="clusterblast-orf" points="721,35 725,30 725,40 721,35 " id="clusterblast-1_q19_7_27"  />
<polygon style="stroke:black; stroke-width:1; fill:rgb(42,127,212); " description="unannotated orf[br]Location: 149111 - 149530" locus_tag="CHAFR746836_0087610.1" class="clusterblast-orf" points="738,40 740,35 738,30 738,40 " id="clusterblast-1_q19_7_28"  />
<polygon style="stroke:black; stroke-width:1; fill:rgb(42,212,127); " description="unannotated orf[br]Location: 150467 - 151609" locus_tag="CHAFR746836_0087620.1" class="clusterblast-orf" points="744,40 745,40 750,35 745,30 744,30 744,40 " id="clusterblast-1_q19_7_29"  />
<polygon style="stroke:black; stroke-width:1; fill:rgb(169,42,212); " description="unannotated orf[br]Location: 150467 - 154023" locus_tag="CHAFR746836_0087620.3" class="clusterblast-orf" points="744,40 757,40 762,35 757,30 744,30 744,40 " id="clusterblast-1_q19_7_30"  />
<polygon style="stroke:black; stroke-width:1; fill:#FFFFFF; " description="unannotated orf[br]Location: 152274 - 154023" locus_tag="CHAFR746836_0087620.2" class="clusterblast-orf" points="753,40 757,40 762,35 757,30 753,30 753,40 " id="clusterblast-1_q19_7_31"  />
<polygon style="stroke:black; stroke-width:1; fill:rgb(42,127,127); " description="unannotated orf[br]Location: 155579 - 157240" locus_tag="CHAFR746836_0087630.1" class="clusterblast-orf" points="769,40 773,40 778,35 773,30 769,30 769,40 " id="clusterblast-1_q19_7_32"  />
</g>
<g class="clusterblast-cluster" description="Gibberella moniliformis fumonisin biosynthetic gene cluster,..." label="AF155773.5_c1"  >
<text class="clusterblast-acc" y="60" x="5"  >
AF155773.5_c1</text>
<text class="clusterblast-desc" y="60" x="460.8"  >
Gibberella moniliformis fumonisin biosynthetic gene cluster,...</text>
<line y1="85" x2="778.0" style="stroke:grey; stroke-width:1; " x1="10" y2="85"  />
<polygon style="stroke:black; stroke-width:1; fill:#FFFFFF; " description="Npt1p[br]Location: 3262 - 4753" locus_tag="AAN74808.1" id="clusterblast-1_h19_7_0" points="276,85 281,80 283,80 283,90 281,90 276,85 " class="clusterblast-orf"  />
<polygon style="stroke:black; stroke-width:1; fill:#FFFFFF; " description="Wdr1p[br]Location: 5432 - 8120" locus_tag="AAN74809.1" id="clusterblast-1_h19_7_1" points="286,90 294,90 299,85 294,80 286,80 286,90 " class="clusterblast-orf"  />
<polygon style="stroke:black; stroke-width:1; fill:#FFFFFF; " description="Png1p[br]Location: 12676 - 14083" locus_tag="AAN74810.1" id="clusterblast-1_h19_7_2" points="322,90 324,90 329,85 324,80 322,80 322,90 " class="clusterblast-orf"  />
<polygon style="stroke:black; stroke-width:1; fill:#FFFFFF; " description="Znf1p[br]Location: 15039 - 16013" locus_tag="AAN74811.1" id="clusterblast-1_h19_7_3" points="333,90 333,90 338,85 333,80 333,80 333,90 " class="clusterblast-orf"  />
<polygon style="stroke:black; stroke-width:1; fill:#FFFFFF; " description="Zbd1p[br]Location: 16833 - 17980" locus_tag="AAN74812.2" id="clusterblast-1_h19_7_4" points="342,90 343,90 348,85 343,80 342,80 342,90 " class="clusterblast-orf"  />
<polygon style="stroke:black; stroke-width:1; fill:#FFFFFF; " description="Fum21p[br]Location: 18839 - 21433" locus_tag="ABQ95367.1" id="clusterblast-1_h19_7_5" points="352,90 360,90 365,85 360,80 352,80 352,90 " class="clusterblast-orf"  />
<polygon style="stroke:black; stroke-width:1; fill:#FFFFFF; " description="Fum1p[br]Location: 22097 - 30259" locus_tag="AAD43562.2" id="clusterblast-1_h19_7_6" points="368,90 403,90 408,85 403,80 368,80 368,90 " class="clusterblast-orf"  />
<polygon style="stroke:black; stroke-width:1; fill:#FFFFFF; " description="Fum6p[br]Location: 30698 - 34290" locus_tag="AAG27132.1" id="clusterblast-1_h19_7_7" points="410,85 415,80 428,80 428,90 415,90 410,85 " class="clusterblast-orf"  />
<polygon style="stroke:black; stroke-width:1; fill:#FFFFFF; " description="Fum7p[br]Location: 34828 - 36102" locus_tag="AAG27129.1" id="clusterblast-1_h19_7_8" points="431,90 432,90 437,85 432,80 431,80 431,90 " class="clusterblast-orf"  />
<polygon style="stroke:black; stroke-width:1; fill:#FFFFFF; " description="Fum8p[br]Location: 36298 - 39233" locus_tag="AAG27130.3" id="clusterblast-1_h19_7_9" points="438,85 443,80 452,80 452,90 443,90 438,85 " class="clusterblast-orf"  />
<polygon style="stroke:black; stroke-width:1; fill:#FFFFFF; " description="Fum3p[br]Location: 40012 - 40914" locus_tag="AAG27131.1" id="clusterblast-1_h19_7_10" points="456,85 461,80 461,80 461,90 461,90 456,85 " class="clusterblast-orf"  />
<polygon style="stroke:black; stroke-width:1; fill:#FFFFFF; " description="Fum10p[br]Location: 41389 - 43174" locus_tag="AAN74813.2" id="clusterblast-1_h19_7_11" points="463,90 467,90 472,85 467,80 463,80 463,90 " class="clusterblast-orf"  />
<polygon style="stroke:black; stroke-width:1; fill:#FFFFFF; " description="Fum11p[br]Location: 43573 - 44736" locus_tag="AAN74814.2" id="clusterblast-1_h19_7_12" points="474,85 479,80 479,80 479,90 479,90 474,85 " class="clusterblast-orf"  />
<polygon style="stroke:black; stroke-width:1; fill:rgb(169,42,42); " description="Fum2p[br]Location: 45264 - 46998&lt;br&gt;&lt;br&gt;&lt;b&gt;BlastP hit with CHAFR746836_0087380.1&lt;/b&gt;&lt;br&gt;Percentage identity: 32%&lt;br&gt;Percentage coverage: 34%&lt;br&gt;BLAST bit score: 65&lt;br&gt;E-value: 6e-10" locus_tag="AAN74815.2" id="clusterblast-1_h19_7_13" points="482,90 485,90 490,85 485,80 482,80 482,90 " class="clusterblast-orf"  />
<polygon style="stroke:black; stroke-width:1; fill:rgb(169,42,212); " description="Fum13p[br]Location: 47834 - 48943&lt;br&gt;&lt;br&gt;&lt;b&gt;BlastP hit with CHAFR746836_0087620.1&lt;/b&gt;&lt;br&gt;Percentage identity: 34%&lt;br&gt;Percentage coverage: 89%&lt;br&gt;BLAST bit score: 133&lt;br&gt;E-value: 5e-34&lt;br&gt;&lt;br&gt;&lt;b&gt;BlastP hit with CHAFR746836_0087620.3&lt;/b&gt;&lt;br&gt;Percentage identity: 34%&lt;br&gt;Percentage coverage: 38%&lt;br&gt;BLAST bit score: 134&lt;br&gt;E-value: 2e-32" locus_tag="AAN74816.1" id="clusterblast-1_h19_7_14" points="495,90 495,90 500,85 495,80 495,80 495,90 " class="clusterblast-orf"  />
<polygon style="stroke:black; stroke-width:1; fill:#FFFFFF; " description="Fum14p[br]Location: 49320 - 51269" locus_tag="AAN74817.2" id="clusterblast-1_h19_7_15" points="502,85 507,80 511,80 511,90 507,90 502,85 " class="clusterblast-orf"  />
</g>
</svg>
