<svg xmlns="http://www.w3.org/2000/svg" height="230" width="800" version="1.1" y="0" x="0" preserveAspectRatio="none" xmlns:xlink="http://www.w3.org/1999/xlink" viewBox="0 0 800 230"  >
<g class="clusterblast-cluster" label="Query sequence"  >
<text class="clusterblast-acc" y="10" x="5"  >
Query sequence</text>
<line y1="35" x2="778.0" style="stroke:grey; stroke-width:1; " x1="10" y2="35"  />
<polygon style="stroke:black; stroke-width:1; fill:#FFFFFF; " description="unannotated orf[br]Location: 215284 - 216006" locus_tag="CHAFR746836_0067220.1" class="clusterblast-orf" points="113,40 120,40 125,35 120,30 113,30 113,40 " id="clusterblast-1_q7_8_0"  />
<polygon style="stroke:black; stroke-width:1; fill:#FFFFFF; " description="unannotated orf[br]Location: 224693 - 224914" locus_tag="CHAFR746836_0067230.1" class="clusterblast-orf" points="269,35 273,30 273,40 269,35 " id="clusterblast-1_q7_8_1"  />
<polygon style="stroke:black; stroke-width:1; fill:red; " description="unannotated orf[br]Location: 228611 - 236326" locus_tag="CHAFR746836_0067240.1" class="clusterblast-orf" points="334,35 339,30 462,30 462,40 339,40 334,35 " id="clusterblast-1_q7_8_2"  />
<polygon style="stroke:black; stroke-width:1; fill:green; " description="unannotated orf[br]Location: 237740 - 238731" locus_tag="CHAFR746836_0067250.1" class="clusterblast-orf" points="486,40 497,40 502,35 497,30 486,30 486,40 " id="clusterblast-1_q7_8_3"  />
<polygon style="stroke:black; stroke-width:1; fill:blue; " description="unannotated orf[br]Location: 238911 - 240394" locus_tag="CHAFR746836_0067260.1" class="clusterblast-orf" points="505,35 510,30 530,30 530,40 510,40 505,35 " id="clusterblast-1_q7_8_4"  />
<polygon style="stroke:black; stroke-width:1; fill:yellow; " description="unannotated orf[br]Location: 240782 - 242473" locus_tag="CHAFR746836_0067270.1" class="clusterblast-orf" points="537,35 542,30 565,30 565,40 542,40 537,35 " id="clusterblast-1_q7_8_5"  />
<polygon style="stroke:black; stroke-width:1; fill:#FFFFFF; " description="unannotated orf[br]Location: 242970 - 243933" locus_tag="CHAFR746836_0067280.1" class="clusterblast-orf" points="573,40 584,40 589,35 584,30 573,30 573,40 " id="clusterblast-1_q7_8_6"  />
<polygon style="stroke:black; stroke-width:1; fill:#FFFFFF; " description="unannotated orf[br]Location: 244594 - 245945" locus_tag="CHAFR746836_0067290.1" class="clusterblast-orf" points="600,40 617,40 622,35 617,30 600,30 600,40 " id="clusterblast-1_q7_8_7"  />
<polygon style="stroke:black; stroke-width:1; fill:#FFFFFF; " description="unannotated orf[br]Location: 246456 - 248994" locus_tag="CHAFR746836_0067300.1" class="clusterblast-orf" points="631,40 668,40 673,35 668,30 631,30 631,40 " id="clusterblast-1_q7_8_8"  />
</g>
<g class="clusterblast-cluster" description="Coccidioides posadasii str. Silveira unplaced genomic scaffo..." label="GL636490.1_c2"  >
<text class="clusterblast-acc" y="60" x="5"  >
GL636490.1_c2</text>
<text class="clusterblast-desc" y="60" x="460.8"  >
Coccidioides posadasii str. Silveira unplaced genomic scaffo...</text>
<line y1="85" x2="778.0" style="stroke:grey; stroke-width:1; " x1="10" y2="85"  />
<polygon style="stroke:black; stroke-width:1; fill:#FFFFFF; " description="conserved_hypothetical_protein[br]Location: 1441157 - 1442293" locus_tag="CPSG_04175" id="clusterblast-1_h7_8_0" points="10,90 23,90 28,85 23,80 10,80 10,90 " class="clusterblast-orf"  />
<polygon style="stroke:black; stroke-width:1; fill:#FFFFFF; " description="conserved_hypothetical_protein[br]Location: 1443039 - 1443269" locus_tag="CPSG_04176" id="clusterblast-1_h7_8_1" points="41,90 45,85 41,80 41,90 " class="clusterblast-orf"  />
<polygon style="stroke:black; stroke-width:1; fill:#FFFFFF; " description="conserved_hypothetical_protein[br]Location: 1444509 - 1446324" locus_tag="CPSG_04177" id="clusterblast-1_h7_8_2" points="65,90 90,90 95,85 90,80 65,80 65,90 " class="clusterblast-orf"  />
<polygon style="stroke:black; stroke-width:1; fill:#FFFFFF; " description="conserved_hypothetical_protein[br]Location: 1447385 - 1450651" locus_tag="CPSG_04178" id="clusterblast-1_h7_8_3" points="113,85 118,80 167,80 167,90 118,90 113,85 " class="clusterblast-orf"  />
<polygon style="stroke:black; stroke-width:1; fill:#FFFFFF; " description="conserved_hypothetical_protein[br]Location: 1451623 - 1452444" locus_tag="CPSG_04179" id="clusterblast-1_h7_8_4" points="184,90 192,90 197,85 192,80 184,80 184,90 " class="clusterblast-orf"  />
<polygon style="stroke:black; stroke-width:1; fill:#FFFFFF; " description="predicted_protein[br]Location: 1452872 - 1453401" locus_tag="CPSG_04180" id="clusterblast-1_h7_8_5" points="204,90 208,90 213,85 208,80 204,80 204,90 " class="clusterblast-orf"  />
<polygon style="stroke:black; stroke-width:1; fill:#FFFFFF; " description="predicted_protein[br]Location: 1457852 - 1458598" locus_tag="CPSG_04181" id="clusterblast-1_h7_8_6" points="287,90 295,90 300,85 295,80 287,80 287,90 " class="clusterblast-orf"  />
<polygon style="stroke:black; stroke-width:1; fill:red; " description="polyketide_synthase[br]Location: 1461077 - 1468813&lt;br&gt;&lt;br&gt;&lt;b&gt;BlastP hit with CHAFR746836_0067240.1&lt;/b&gt;&lt;br&gt;Percentage identity: 53%&lt;br&gt;Percentage coverage: 38%&lt;br&gt;BLAST bit score: 977&lt;br&gt;E-value: 0.0" locus_tag="CPSG_04182" id="clusterblast-1_h7_8_7" points="341,90 464,90 469,85 464,80 341,80 341,90 " class="clusterblast-orf"  />
<polygon style="stroke:black; stroke-width:1; fill:#FFFFFF; " description="toxin_biosynthesis_protein[br]Location: 1472952 - 1474510" locus_tag="CPSG_04183" id="clusterblast-1_h7_8_8" points="538,85 543,80 564,80 564,90 543,90 538,85 " class="clusterblast-orf"  />
<polygon style="stroke:black; stroke-width:1; fill:yellow; " description="MFS_transporter[br]Location: 1475150 - 1476523&lt;br&gt;&lt;br&gt;&lt;b&gt;BlastP hit with CHAFR746836_0067270.1&lt;/b&gt;&lt;br&gt;Percentage identity: 45%&lt;br&gt;Percentage coverage: 84%&lt;br&gt;BLAST bit score: 367&lt;br&gt;E-value: 1e-119" locus_tag="CPSG_04184" id="clusterblast-1_h7_8_9" points="575,85 580,80 598,80 598,90 580,90 575,85 " class="clusterblast-orf"  />
<polygon style="stroke:black; stroke-width:1; fill:#FFFFFF; " description="conserved_hypothetical_protein[br]Location: 1477131 - 1477823" locus_tag="CPSG_04185" id="clusterblast-1_h7_8_10" points="608,90 614,90 619,85 614,80 608,80 608,90 " class="clusterblast-orf"  />
<polygon style="stroke:black; stroke-width:1; fill:green; " description="conserved_hypothetical_protein[br]Location: 1478128 - 1479366&lt;br&gt;&lt;br&gt;&lt;b&gt;BlastP hit with CHAFR746836_0067250.1&lt;/b&gt;&lt;br&gt;Percentage identity: 50%&lt;br&gt;Percentage coverage: 97%&lt;br&gt;BLAST bit score: 293&lt;br&gt;E-value: 2e-96" locus_tag="CPSG_04186" id="clusterblast-1_h7_8_11" points="624,90 640,90 645,85 640,80 624,80 624,90 " class="clusterblast-orf"  />
<polygon style="stroke:black; stroke-width:1; fill:#FFFFFF; " description="conserved_hypothetical_protein[br]Location: 1480848 - 1481184" locus_tag="CPSG_04187" id="clusterblast-1_h7_8_12" points="670,85 675,80 675,80 675,90 675,90 670,85 " class="clusterblast-orf"  />
<polygon style="stroke:black; stroke-width:1; fill:#FFFFFF; " description="conserved_hypothetical_protein[br]Location: 1482174 - 1482669" locus_tag="CPSG_04188" id="clusterblast-1_h7_8_13" points="692,85 697,80 700,80 700,90 697,90 692,85 " class="clusterblast-orf"  />
<polygon style="stroke:black; stroke-width:1; fill:#FFFFFF; " description="conserved_hypothetical_protein[br]Location: 1483191 - 1483761" locus_tag="CPSG_04189" id="clusterblast-1_h7_8_14" points="709,90 713,90 718,85 713,80 709,80 709,90 " class="clusterblast-orf"  />
<polygon style="stroke:black; stroke-width:1; fill:#FFFFFF; " description="conserved_hypothetical_protein[br]Location: 1483911 - 1485302" locus_tag="CPSG_04190" id="clusterblast-1_h7_8_15" points="721,85 726,80 744,80 744,90 726,90 721,85 " class="clusterblast-orf"  />
<polygon style="stroke:black; stroke-width:1; fill:#FFFFFF; " description="predicted_protein[br]Location: 1485363 - 1485713" locus_tag="CPSG_04191" id="clusterblast-1_h7_8_16" points="745,85 750,80 751,80 751,90 750,90 745,85 " class="clusterblast-orf"  />
<polygon style="stroke:black; stroke-width:1; fill:#FFFFFF; " description="hypothetical_protein[br]Location: 1485939 - 1487331" locus_tag="CPSG_04192" id="clusterblast-1_h7_8_17" points="754,90 773,90 778,85 773,80 754,80 754,90 " class="clusterblast-orf"  />
</g>
</svg>
