<svg xmlns="http://www.w3.org/2000/svg" height="230" width="800" version="1.1" y="0" x="0" preserveAspectRatio="none" xmlns:xlink="http://www.w3.org/1999/xlink" viewBox="0 0 800 230"  >
<g class="clusterblast-cluster" label="Query sequence"  >
<text class="clusterblast-acc" y="10" x="5"  >
Query sequence</text>
<line y1="35" x2="778.0" style="stroke:grey; stroke-width:1; " x1="10" y2="35"  />
<polygon style="stroke:black; stroke-width:1; fill:rgb(169,42,42); " description="unannotated orf[br]Location: 62218 - 64265" locus_tag="CHAFR746836_0054410.1" class="clusterblast-orf" points="10,40 19,40 24,35 19,30 10,30 10,40 " id="clusterblast-1_q1_5_0"  />
<polygon style="stroke:black; stroke-width:1; fill:#FFFFFF; " description="unannotated orf[br]Location: 64981 - 65489" locus_tag="CHAFR746836_0054420.1" class="clusterblast-orf" points="29,40 33,35 29,30 29,40 " id="clusterblast-1_q1_5_1"  />
<polygon style="stroke:black; stroke-width:1; fill:#FFFFFF; " description="unannotated orf[br]Location: 80166 - 81468" locus_tag="CHAFR746836_0054430.1" class="clusterblast-orf" points="136,40 140,40 145,35 140,30 136,30 136,40 " id="clusterblast-1_q1_5_2"  />
<polygon style="stroke:black; stroke-width:1; fill:#FFFFFF; " description="unannotated orf[br]Location: 84860 - 87066" locus_tag="CHAFR746836_0054440.1" class="clusterblast-orf" points="169,40 180,40 185,35 180,30 169,30 169,40 " id="clusterblast-1_q1_5_3"  />
<polygon style="stroke:black; stroke-width:1; fill:rgb(42,169,42); " description="unannotated orf[br]Location: 87538 - 88972" locus_tag="CHAFR746836_0054450.1" class="clusterblast-orf" points="188,40 194,40 199,35 194,30 188,30 188,40 " id="clusterblast-1_q1_5_4"  />
<polygon style="stroke:black; stroke-width:1; fill:rgb(42,169,212); " description="unannotated orf[br]Location: 97154 - 98501" locus_tag="CHAFR746836_0054460.1" class="clusterblast-orf" points="256,35 261,30 266,30 266,40 261,40 256,35 " id="clusterblast-1_q1_5_5"  />
<polygon style="stroke:black; stroke-width:1; fill:#FFFFFF; " description="unannotated orf[br]Location: 108188 - 110019" locus_tag="CHAFR746836_0054470.1" class="clusterblast-orf" points="334,40 342,40 347,35 342,30 334,30 334,40 " id="clusterblast-1_q1_5_6"  />
<polygon style="stroke:black; stroke-width:1; fill:rgb(169,169,42); " description="unannotated orf[br]Location: 111553 - 112688" locus_tag="CHAFR746836_0054480.1" class="clusterblast-orf" points="358,35 363,30 366,30 366,40 363,40 358,35 " id="clusterblast-1_q1_5_7"  />
<polygon style="stroke:black; stroke-width:1; fill:rgb(169,42,127); " description="unannotated orf[br]Location: 113347 - 114741" locus_tag="CHAFR746836_0054490.1" class="clusterblast-orf" points="371,40 376,40 381,35 376,30 371,30 371,40 " id="clusterblast-1_q1_5_8"  />
<polygon style="stroke:black; stroke-width:1; fill:rgb(42,42,212); " description="unannotated orf[br]Location: 114954 - 116913" locus_tag="CHAFR746836_0054500.1" class="clusterblast-orf" points="382,35 387,30 396,30 396,40 387,40 382,35 " id="clusterblast-1_q1_5_9"  />
<polygon style="stroke:black; stroke-width:1; fill:rgb(169,169,212); " description="unannotated orf[br]Location: 128349 - 129215" locus_tag="CHAFR746836_0054510.1" class="clusterblast-orf" points="477,35 482,30 483,30 483,40 482,40 477,35 " id="clusterblast-1_q1_5_10"  />
<polygon style="stroke:black; stroke-width:1; fill:#FFFFFF; " description="unannotated orf[br]Location: 131482 - 134522" locus_tag="CHAFR746836_0054520.1" class="clusterblast-orf" points="499,35 504,30 520,30 520,40 504,40 499,35 " id="clusterblast-1_q1_5_11"  />
<polygon style="stroke:black; stroke-width:1; fill:rgb(42,169,127); " description="unannotated orf[br]Location: 135952 - 139193" locus_tag="CHAFR746836_0054530.1" class="clusterblast-orf" points="530,35 535,30 553,30 553,40 535,40 530,35 " id="clusterblast-1_q1_5_12"  />
<polygon style="stroke:black; stroke-width:1; fill:#FFFFFF; " description="unannotated orf[br]Location: 139580 - 146566" locus_tag="CHAFR746836_0054540.1" class="clusterblast-orf" points="556,35 561,30 605,30 605,40 561,40 556,35 " id="clusterblast-1_q1_5_13"  />
<polygon style="stroke:black; stroke-width:1; fill:#FFFFFF; " description="unannotated orf[br]Location: 150095 - 150570" locus_tag="CHAFR746836_0054550.1" class="clusterblast-orf" points="630,40 634,35 630,30 630,40 " id="clusterblast-1_q1_5_14"  />
<polygon style="stroke:black; stroke-width:1; fill:#FFFFFF; " description="unannotated orf[br]Location: 151645 - 154018" locus_tag="CHAFR746836_0054560.1" class="clusterblast-orf" points="641,40 653,40 658,35 653,30 641,30 641,40 " id="clusterblast-1_q1_5_15"  />
<polygon style="stroke:black; stroke-width:1; fill:rgb(169,42,212); " description="unannotated orf[br]Location: 155657 - 156954" locus_tag="CHAFR746836_0054570.1" class="clusterblast-orf" points="670,40 674,40 679,35 674,30 670,30 670,40 " id="clusterblast-1_q1_5_16"  />
<polygon style="stroke:black; stroke-width:1; fill:#FFFFFF; " description="unannotated orf[br]Location: 161927 - 163454" locus_tag="CHAFR746836_0054580.1" class="clusterblast-orf" points="714,40 720,40 725,35 720,30 714,30 714,40 " id="clusterblast-1_q1_5_17"  />
<polygon style="stroke:black; stroke-width:1; fill:#FFFFFF; " description="unannotated orf[br]Location: 165596 - 167549" locus_tag="CHAFR746836_0054590.1" class="clusterblast-orf" points="740,35 745,30 754,30 754,40 745,40 740,35 " id="clusterblast-1_q1_5_18"  />
<polygon style="stroke:black; stroke-width:1; fill:#FFFFFF; " description="unannotated orf[br]Location: 170397 - 170926" locus_tag="CHAFR746836_0054600.1" class="clusterblast-orf" points="774,35 778,30 778,40 774,35 " id="clusterblast-1_q1_5_19"  />
</g>
<g class="clusterblast-cluster" description="Ajellomyces dermatitidis ER-3 genomic scaffold supercont1.11..." label="EQ999983.1_c2"  >
<text class="clusterblast-acc" y="60" x="5"  >
EQ999983.1_c2</text>
<text class="clusterblast-desc" y="60" x="460.8"  >
Ajellomyces dermatitidis ER-3 genomic scaffold supercont1.11...</text>
<line y1="85" x2="778.0" style="stroke:grey; stroke-width:1; " x1="10" y2="85"  />
<polygon style="stroke:black; stroke-width:1; fill:#FFFFFF; " description="predicted_protein[br]Location: 1978192 - 1979068" locus_tag="BDCG_08625" id="clusterblast-1_h1_5_0" points="236,85 241,80 242,80 242,90 241,90 236,85 " class="clusterblast-orf"  />
<polygon style="stroke:black; stroke-width:1; fill:rgb(169,42,127); " description="siderophore_biosynthesis_acetylase_AceI[br]Location: 1980997 - 1982471&lt;br&gt;&lt;br&gt;&lt;b&gt;BlastP hit with CHAFR746836_0054490.1&lt;/b&gt;&lt;br&gt;Percentage identity: 51%&lt;br&gt;Percentage coverage: 93%&lt;br&gt;BLAST bit score: 430&lt;br&gt;E-value: 5e-146" locus_tag="BDCG_08626" id="clusterblast-1_h1_5_1" points="255,90 261,90 266,85 261,80 255,80 255,90 " class="clusterblast-orf"  />
<polygon style="stroke:black; stroke-width:1; fill:rgb(42,42,212); " description="long-chain-fatty-acid-CoA_ligase[br]Location: 1982768 - 1984673&lt;br&gt;&lt;br&gt;&lt;b&gt;BlastP hit with CHAFR746836_0054500.1&lt;/b&gt;&lt;br&gt;Percentage identity: 60%&lt;br&gt;Percentage coverage: 97%&lt;br&gt;BLAST bit score: 691&lt;br&gt;E-value: 0.0" locus_tag="BDCG_08627" id="clusterblast-1_h1_5_2" points="268,85 273,80 281,80 281,90 273,90 268,85 " class="clusterblast-orf"  />
<polygon style="stroke:black; stroke-width:1; fill:rgb(169,169,212); " description="L-ornithine_5-monooxygenase[br]Location: 1985606 - 1987195&lt;br&gt;&lt;br&gt;&lt;b&gt;BlastP hit with CHAFR746836_0054510.1&lt;/b&gt;&lt;br&gt;Percentage identity: 36%&lt;br&gt;Percentage coverage: 62%&lt;br&gt;BLAST bit score: 108&lt;br&gt;E-value: 1e-25" locus_tag="BDCG_08628" id="clusterblast-1_h1_5_3" points="288,90 294,90 299,85 294,80 288,80 288,90 " class="clusterblast-orf"  />
<polygon style="stroke:black; stroke-width:1; fill:rgb(169,169,42); " description="peroxisomal_dehydratase[br]Location: 1987603 - 1988995&lt;br&gt;&lt;br&gt;&lt;b&gt;BlastP hit with CHAFR746836_0054480.1&lt;/b&gt;&lt;br&gt;Percentage identity: 44%&lt;br&gt;Percentage coverage: 97%&lt;br&gt;BLAST bit score: 231&lt;br&gt;E-value: 5e-72" locus_tag="BDCG_08629" id="clusterblast-1_h1_5_4" points="302,85 307,80 312,80 312,90 307,90 302,85 " class="clusterblast-orf"  />
<polygon style="stroke:black; stroke-width:1; fill:#FFFFFF; " description="conserved_hypothetical_protein[br]Location: 1989962 - 1990742" locus_tag="BDCG_08630" id="clusterblast-1_h1_5_5" points="319,85 324,80 324,80 324,90 324,90 319,85 " class="clusterblast-orf"  />
<polygon style="stroke:black; stroke-width:1; fill:#FFFFFF; " description="siderophore_iron_transporter[br]Location: 1991359 - 1993303" locus_tag="BDCG_08631" id="clusterblast-1_h1_5_6" points="329,85 334,80 342,80 342,90 334,90 329,85 " class="clusterblast-orf"  />
<polygon style="stroke:black; stroke-width:1; fill:#FFFFFF; " description="conserved_hypothetical_protein[br]Location: 1995304 - 1996536" locus_tag="BDCG_08632" id="clusterblast-1_h1_5_7" points="356,90 360,90 365,85 360,80 356,80 356,90 " class="clusterblast-orf"  />
<polygon style="stroke:black; stroke-width:1; fill:#FFFFFF; " description="peptide_synthetase[br]Location: 1997194 - 2002479" locus_tag="BDCG_08633" id="clusterblast-1_h1_5_8" points="370,85 375,80 407,80 407,90 375,90 370,85 " class="clusterblast-orf"  />
<polygon style="stroke:black; stroke-width:1; fill:#FFFFFF; " description="AtrH[br]Location: 2004278 - 2008403" locus_tag="BDCG_08634" id="clusterblast-1_h1_5_9" points="420,90 444,90 449,85 444,80 420,80 420,90 " class="clusterblast-orf"  />
<polygon style="stroke:black; stroke-width:1; fill:#FFFFFF; " description="conserved_hypothetical_protein[br]Location: 2008846 - 2010444" locus_tag="BDCG_08635" id="clusterblast-1_h1_5_10" points="452,85 457,80 463,80 463,90 457,90 452,85 " class="clusterblast-orf"  />
<polygon style="stroke:black; stroke-width:1; fill:#FFFFFF; " description="predicted_protein[br]Location: 2012251 - 2013050" locus_tag="BDCG_08636" id="clusterblast-1_h1_5_11" points="476,90 477,90 482,85 477,80 476,80 476,90 " class="clusterblast-orf"  />
<polygon style="stroke:black; stroke-width:1; fill:#FFFFFF; " description="type_I_phosphodiesterase/nucleotide[br]Location: 2014722 - 2017024" locus_tag="BDCG_08637" id="clusterblast-1_h1_5_12" points="494,85 499,80 510,80 510,90 499,90 494,85 " class="clusterblast-orf"  />
<polygon style="stroke:black; stroke-width:1; fill:#FFFFFF; " description="conserved_hypothetical_protein[br]Location: 2017506 - 2018491" locus_tag="BDCG_08638" id="clusterblast-1_h1_5_13" points="513,90 515,90 520,85 515,80 513,80 513,90 " class="clusterblast-orf"  />
<polygon style="stroke:black; stroke-width:1; fill:#FFFFFF; " description="ubiquitin_C-terminal_hydrolase[br]Location: 2020122 - 2022903" locus_tag="BDCG_08639" id="clusterblast-1_h1_5_14" points="532,90 546,90 551,85 546,80 532,80 532,90 " class="clusterblast-orf"  />
</g>
</svg>
