<svg xmlns="http://www.w3.org/2000/svg" height="230" width="800" version="1.1" y="0" x="0" preserveAspectRatio="none" xmlns:xlink="http://www.w3.org/1999/xlink" viewBox="0 0 800 230"  >
<g class="clusterblast-cluster" label="Query sequence"  >
<text class="clusterblast-acc" y="10" x="5"  >
Query sequence</text>
<line y1="35" x2="778.0" style="stroke:grey; stroke-width:1; " x1="10" y2="35"  />
<polygon style="stroke:black; stroke-width:1; fill:rgb(190,63,63); " description="unannotated orf[br]Location: 74290 - 75458" locus_tag="CHAFR746836_0084510.1" class="clusterblast-orf" points="193,40 216,40 221,35 216,30 193,30 193,40 " id="clusterblast-1_q15_4_0"  />
<polygon style="stroke:black; stroke-width:1; fill:#FFFFFF; " description="unannotated orf[br]Location: 75669 - 76875" locus_tag="CHAFR746836_0084520.1" class="clusterblast-orf" points="226,35 231,30 256,30 256,40 231,40 226,35 " id="clusterblast-1_q15_4_1"  />
<polygon style="stroke:black; stroke-width:1; fill:rgb(63,63,190); " description="unannotated orf[br]Location: 78561 - 80604" locus_tag="CHAFR746836_0084530.1" class="clusterblast-orf" points="297,35 302,30 347,30 347,40 302,40 297,35 " id="clusterblast-1_q15_4_2"  />
<polygon style="stroke:black; stroke-width:1; fill:rgb(63,190,63); " description="unannotated orf[br]Location: 81404 - 83288" locus_tag="CHAFR746836_0084540.1" class="clusterblast-orf" points="366,40 407,40 412,35 407,30 366,30 366,40 " id="clusterblast-1_q15_4_3"  />
<polygon style="stroke:black; stroke-width:1; fill:rgb(190,63,190); " description="unannotated orf[br]Location: 83676 - 85677" locus_tag="CHAFR746836_0084550.1" class="clusterblast-orf" points="422,40 466,40 471,35 466,30 422,30 422,40 " id="clusterblast-1_q15_4_4"  />
<polygon style="stroke:black; stroke-width:1; fill:rgb(190,190,63); " description="unannotated orf[br]Location: 86720 - 88095" locus_tag="CHAFR746836_0084560.1" class="clusterblast-orf" points="496,40 525,40 530,35 525,30 496,30 496,40 " id="clusterblast-1_q15_4_5"  />
<polygon style="stroke:black; stroke-width:1; fill:#FFFFFF; " description="unannotated orf[br]Location: 88452 - 90694" locus_tag="CHAFR746836_0084570.1" class="clusterblast-orf" points="539,35 544,30 593,30 593,40 544,40 539,35 " id="clusterblast-1_q15_4_6"  />
</g>
<g class="clusterblast-cluster" description="Mycosphaerella graminicola IPO323 chromosome 13, whole genom..." label="CM001208.1_c2"  >
<text class="clusterblast-acc" y="60" x="5"  >
CM001208.1_c2</text>
<text class="clusterblast-desc" y="60" x="460.8"  >
Mycosphaerella graminicola IPO323 chromosome 13, whole genom...</text>
<line y1="85" x2="778.0" style="stroke:grey; stroke-width:1; " x1="10" y2="85"  />
<polygon style="stroke:black; stroke-width:1; fill:#FFFFFF; " description="hypothetical_protein[br]Location: 1108381 - 1110419" locus_tag="MYCGRDRAFT_97523" id="clusterblast-1_h15_4_0" points="10,90 54,90 59,85 54,80 10,80 10,90 " class="clusterblast-orf"  />
<polygon style="stroke:black; stroke-width:1; fill:#FFFFFF; " description="hypothetical_protein[br]Location: 1110704 - 1112251" locus_tag="MYCGRDRAFT_97524" id="clusterblast-1_h15_4_1" points="66,85 71,80 104,80 104,90 71,90 66,85 " class="clusterblast-orf"  />
<polygon style="stroke:black; stroke-width:1; fill:#FFFFFF; " description="hypothetical_protein[br]Location: 1114143 - 1114912" locus_tag="MYCGRDRAFT_97525" id="clusterblast-1_h15_4_2" points="150,90 164,90 169,85 164,80 150,80 150,90 " class="clusterblast-orf"  />
<polygon style="stroke:black; stroke-width:1; fill:#FFFFFF; " description="hypothetical_protein[br]Location: 1116277 - 1116950" locus_tag="MYCGRDRAFT_97526" id="clusterblast-1_h15_4_3" points="202,90 214,90 219,85 214,80 202,80 202,90 " class="clusterblast-orf"  />
<polygon style="stroke:black; stroke-width:1; fill:rgb(63,63,190); " description="hypothetical_protein[br]Location: 1118153 - 1121027&lt;br&gt;&lt;br&gt;&lt;b&gt;BlastP hit with CHAFR746836_0084530.1&lt;/b&gt;&lt;br&gt;Percentage identity: 57%&lt;br&gt;Percentage coverage: 103%&lt;br&gt;BLAST bit score: 775&lt;br&gt;E-value: 0.0" locus_tag="MYCGRDRAFT_97527" id="clusterblast-1_h15_4_4" points="248,85 253,80 319,80 319,90 253,90 248,85 " class="clusterblast-orf"  />
<polygon style="stroke:black; stroke-width:1; fill:#FFFFFF; " description="hypothetical_protein[br]Location: 1123599 - 1123835" locus_tag="MYCGRDRAFT_31113" id="clusterblast-1_h15_4_5" points="381,90 382,90 387,85 382,80 381,80 381,90 " class="clusterblast-orf"  />
<polygon style="stroke:black; stroke-width:1; fill:rgb(63,190,63); " description="hypothetical_protein[br]Location: 1126071 - 1128010&lt;br&gt;&lt;br&gt;&lt;b&gt;BlastP hit with CHAFR746836_0084540.1&lt;/b&gt;&lt;br&gt;Percentage identity: 55%&lt;br&gt;Percentage coverage: 103%&lt;br&gt;BLAST bit score: 593&lt;br&gt;E-value: 0.0" locus_tag="MYCGRDRAFT_51545" id="clusterblast-1_h15_4_6" points="442,90 484,90 489,85 484,80 442,80 442,90 " class="clusterblast-orf"  />
<polygon style="stroke:black; stroke-width:1; fill:rgb(190,63,190); " description="hypothetical_protein[br]Location: 1128251 - 1131608&lt;br&gt;&lt;br&gt;&lt;b&gt;BlastP hit with CHAFR746836_0084550.1&lt;/b&gt;&lt;br&gt;Percentage identity: 55%&lt;br&gt;Percentage coverage: 103%&lt;br&gt;BLAST bit score: 672&lt;br&gt;E-value: 0.0" locus_tag="MYCGRDRAFT_101921" id="clusterblast-1_h15_4_7" points="495,90 572,90 577,85 572,80 495,80 495,90 " class="clusterblast-orf"  />
<polygon style="stroke:black; stroke-width:1; fill:rgb(190,190,63); " description="hypothetical_protein[br]Location: 1132625 - 1133774&lt;br&gt;&lt;br&gt;&lt;b&gt;BlastP hit with CHAFR746836_0084560.1&lt;/b&gt;&lt;br&gt;Percentage identity: 51%&lt;br&gt;Percentage coverage: 83%&lt;br&gt;BLAST bit score: 305&lt;br&gt;E-value: 2e-100" locus_tag="MYCGRDRAFT_106573" id="clusterblast-1_h15_4_8" points="602,90 625,90 630,85 625,80 602,80 602,90 " class="clusterblast-orf"  />
<polygon style="stroke:black; stroke-width:1; fill:#FFFFFF; " description="hypothetical_protein[br]Location: 1134425 - 1136228" locus_tag="MYCGRDRAFT_51525" id="clusterblast-1_h15_4_9" points="646,90 685,90 690,85 685,80 646,80 646,90 " class="clusterblast-orf"  />
<polygon style="stroke:black; stroke-width:1; fill:#FFFFFF; " description="hypothetical_protein[br]Location: 1138015 - 1139802" locus_tag="MYCGRDRAFT_111728" id="clusterblast-1_h15_4_10" points="734,90 773,90 778,85 773,80 734,80 734,90 " class="clusterblast-orf"  />
</g>
</svg>
