<svg xmlns="http://www.w3.org/2000/svg" height="430" width="800" version="1.1" y="0" x="0" preserveAspectRatio="none" xmlns:xlink="http://www.w3.org/1999/xlink" viewBox="0 0 800 430"  >
<g class="clusterblast-cluster" label="Query sequence"  >
<text class="clusterblast-acc" y="10" x="5"  >
Query sequence</text>
<line y1="35" x2="778.0" style="stroke:grey; stroke-width:1; " x1="10" y2="35"  />
<polygon style="stroke:black; stroke-width:1; fill:red; " description="unannotated orf[br]Location: 227 - 1850" locus_tag="CHAFR746836_0038550.1" class="clusterblast-orf" points="334,35 339,30 352,30 352,40 339,40 334,35 " id="clusterblast-1_all_49_0_0"  />
<polygon style="stroke:black; stroke-width:1; fill:green; " description="unannotated orf[br]Location: 2628 - 3596" locus_tag="CHAFR746836_0038560.1" class="clusterblast-orf" points="360,40 366,40 371,35 366,30 360,30 360,40 " id="clusterblast-1_all_49_0_1"  />
<polygon style="stroke:black; stroke-width:1; fill:#FFFFFF; " description="unannotated orf[br]Location: 5587 - 7498" locus_tag="CHAFR746836_0038570.1" class="clusterblast-orf" points="393,35 398,30 415,30 415,40 398,40 393,35 " id="clusterblast-1_all_49_0_2"  />
<polygon style="stroke:black; stroke-width:1; fill:blue; " description="unannotated orf[br]Location: 7719 - 10993" locus_tag="CHAFR746836_0038580.1" class="clusterblast-orf" points="417,40 448,40 453,35 448,30 417,30 417,40 " id="clusterblast-1_all_49_0_3"  />
</g>
<g class="clusterblast-cluster" description="Metarhizium anisopliae ARSEF 23 unplaced genomic scaffold Sc..." label="GL698720.1_c2"  >
<text class="clusterblast-acc" y="60" x="5"  >
GL698720.1_c2</text>
<text class="clusterblast-desc" y="60" x="460.8"  >
Metarhizium anisopliae ARSEF 23 unplaced genomic scaffold Sc...</text>
<line y1="85" x2="778.0" style="stroke:grey; stroke-width:1; " x1="10" y2="85"  />
<polygon style="stroke:black; stroke-width:1; fill:#FFFFFF; " description="glucose-methanol-choline_(gmc)_oxidoreductase,[br]Location: 90129 - 91920" locus_tag="MAA_06567" id="clusterblast-1_all_49_1_0" points="10,90 24,90 29,85 24,80 10,80 10,90 " class="clusterblast-orf"  />
<polygon style="stroke:black; stroke-width:1; fill:#FFFFFF; " description="C6_transcription_factor_(AflR),_putative[br]Location: 93777 - 95147" locus_tag="MAA_06568" id="clusterblast-1_all_49_1_1" points="50,85 55,80 65,80 65,90 55,90 50,85 " class="clusterblast-orf"  />
<polygon style="stroke:black; stroke-width:1; fill:#FFFFFF; " description="AMP_dependent_CoA_ligase,_putative[br]Location: 95306 - 100594" locus_tag="MAA_06569" id="clusterblast-1_all_49_1_2" points="67,90 121,90 126,85 121,80 67,80 67,90 " class="clusterblast-orf"  />
<polygon style="stroke:black; stroke-width:1; fill:#FFFFFF; " description="hypothetical_protein[br]Location: 101329 - 103707" locus_tag="MAA_06570" id="clusterblast-1_all_49_1_3" points="134,90 156,90 161,85 156,80 134,80 134,90 " class="clusterblast-orf"  />
<polygon style="stroke:black; stroke-width:1; fill:#FFFFFF; " description="short-chain_dehydrogenase,_putative[br]Location: 104119 - 105093" locus_tag="MAA_06571" id="clusterblast-1_all_49_1_4" points="165,85 170,80 176,80 176,90 170,90 165,85 " class="clusterblast-orf"  />
<polygon style="stroke:black; stroke-width:1; fill:#FFFFFF; " description="NAD-dependent_epimerase/dehydratase,_putative[br]Location: 105593 - 106387" locus_tag="MAA_06572" id="clusterblast-1_all_49_1_5" points="182,90 186,90 191,85 186,80 182,80 182,90 " class="clusterblast-orf"  />
<polygon style="stroke:black; stroke-width:1; fill:#FFFFFF; " description="hypothetical_protein[br]Location: 107143 - 108240" locus_tag="MAA_06573" id="clusterblast-1_all_49_1_6" points="199,85 204,80 211,80 211,90 204,90 199,85 " class="clusterblast-orf"  />
<polygon style="stroke:black; stroke-width:1; fill:#FFFFFF; " description="beta_lactamase_domain,_putative[br]Location: 108826 - 109929" locus_tag="MAA_06574" id="clusterblast-1_all_49_1_7" points="218,85 223,80 230,80 230,90 223,90 218,85 " class="clusterblast-orf"  />
<polygon style="stroke:black; stroke-width:1; fill:#FFFFFF; " description="polyketide_synthase,_putative[br]Location: 110962 - 116524" locus_tag="MAA_06575" id="clusterblast-1_all_49_1_8" points="242,90 299,90 304,85 299,80 242,80 242,90 " class="clusterblast-orf"  />
<polygon style="stroke:black; stroke-width:1; fill:#FFFFFF; " description="multidrug_resistance_protein_MDR,_putative[br]Location: 117426 - 122076" locus_tag="MAA_06576" id="clusterblast-1_all_49_1_9" points="314,85 319,80 365,80 365,90 319,90 314,85 " class="clusterblast-orf"  />
<polygon style="stroke:black; stroke-width:1; fill:#FFFFFF; " description="farnesyl-diphosphate_farnesyltransferase[br]Location: 125144 - 126627" locus_tag="MAA_06577" id="clusterblast-1_all_49_1_10" points="400,90 411,90 416,85 411,80 400,80 400,90 " class="clusterblast-orf"  />
<polygon style="stroke:black; stroke-width:1; fill:#FFFFFF; " description="hypothetical_protein[br]Location: 127557 - 130496" locus_tag="MAA_06578" id="clusterblast-1_all_49_1_11" points="426,85 431,80 459,80 459,90 431,90 426,85 " class="clusterblast-orf"  />
<polygon style="stroke:black; stroke-width:1; fill:#FFFFFF; " description="benzoate_4-monooxygenase_cytochrome_P450[br]Location: 135219 - 136546" locus_tag="MAA_06579" id="clusterblast-1_all_49_1_12" points="512,90 522,90 527,85 522,80 512,80 512,90 " class="clusterblast-orf"  />
<polygon style="stroke:black; stroke-width:1; fill:red; " description="hydroxymethylglutaryl-CoA_synthase[br]Location: 136853 - 138398&lt;br&gt;&lt;br&gt;&lt;b&gt;BlastP hit with CHAFR746836_0038550.1&lt;/b&gt;&lt;br&gt;Percentage identity: 65%&lt;br&gt;Percentage coverage: 99%&lt;br&gt;BLAST bit score: 636&lt;br&gt;E-value: 0.0" locus_tag="MAA_06580" id="clusterblast-1_all_49_1_13" points="530,85 535,80 547,80 547,90 535,90 530,85 " class="clusterblast-orf"  />
<polygon style="stroke:black; stroke-width:1; fill:green; " description="Aristolochene_Synthase[br]Location: 138908 - 140251&lt;br&gt;&lt;br&gt;&lt;b&gt;BlastP hit with CHAFR746836_0038560.1&lt;/b&gt;&lt;br&gt;Percentage identity: 53%&lt;br&gt;Percentage coverage: 99%&lt;br&gt;BLAST bit score: 327&lt;br&gt;E-value: 2e-109" locus_tag="MAA_06581" id="clusterblast-1_all_49_1_14" points="553,90 563,90 568,85 563,80 553,80 553,90 " class="clusterblast-orf"  />
<polygon style="stroke:black; stroke-width:1; fill:#FFFFFF; " description="aldo-keto_reductase_(AKR13),_putative[br]Location: 144445 - 145572" locus_tag="MAA_06582" id="clusterblast-1_all_49_1_15" points="615,90 622,90 627,85 622,80 615,80 615,90 " class="clusterblast-orf"  />
<polygon style="stroke:black; stroke-width:1; fill:#FFFFFF; " description="feruloyl_esterase,_putative[br]Location: 146330 - 147859" locus_tag="MAA_06583" id="clusterblast-1_all_49_1_16" points="636,85 641,80 653,80 653,90 641,90 636,85 " class="clusterblast-orf"  />
<polygon style="stroke:black; stroke-width:1; fill:#FFFFFF; " description="HC-toxin_synthetase[br]Location: 149825 - 150754" locus_tag="MAA_06584" id="clusterblast-1_all_49_1_17" points="675,90 680,90 685,85 680,80 675,80 675,90 " class="clusterblast-orf"  />
<polygon style="stroke:black; stroke-width:1; fill:#FFFFFF; " description="cytochrome_P450_4F12[br]Location: 155039 - 156646" locus_tag="MAA_06585" id="clusterblast-1_all_49_1_18" points="733,85 738,80 751,80 751,90 738,90 733,85 " class="clusterblast-orf"  />
<polygon style="stroke:black; stroke-width:1; fill:#FFFFFF; " description="cytochrome_P450[br]Location: 157455 - 159065" locus_tag="MAA_06586" id="clusterblast-1_all_49_1_19" points="760,85 765,80 778,80 778,90 765,90 760,85 " class="clusterblast-orf"  />
</g>
<g class="clusterblast-cluster" description="Grosmannia clavigera kw1407 unplaced genomic scaffold GCSC 9..." label="GL630006.1_c2"  >
<text class="clusterblast-acc" y="110" x="5"  >
GL630006.1_c2</text>
<text class="clusterblast-desc" y="110" x="460.8"  >
Grosmannia clavigera kw1407 unplaced genomic scaffold GCSC 9...</text>
<line y1="135" x2="778.0" style="stroke:grey; stroke-width:1; " x1="10" y2="135"  />
<polygon style="stroke:black; stroke-width:1; fill:#FFFFFF; " description="cytochrome_p450_monooxygenase[br]Location: 2147762 - 2149239" locus_tag="CMQ_4620" id="clusterblast-1_all_49_2_0" points="281,135 286,130 297,130 297,140 286,140 281,135 " class="clusterblast-orf"  />
<polygon style="stroke:black; stroke-width:1; fill:#FFFFFF; " description="1-aminocyclopropane-1-carboxylate_oxidase[br]Location: 2149721 - 2150968" locus_tag="CMQ_4827" id="clusterblast-1_all_49_2_1" points="302,135 307,130 316,130 316,140 307,140 302,135 " class="clusterblast-orf"  />
<polygon style="stroke:black; stroke-width:1; fill:#FFFFFF; " description="oxoglutarate/iron-dependent_oxygenase[br]Location: 2151385 - 2153037" locus_tag="CMQ_4817" id="clusterblast-1_all_49_2_2" points="321,135 326,130 339,130 339,140 326,140 321,135 " class="clusterblast-orf"  />
<polygon style="stroke:black; stroke-width:1; fill:#FFFFFF; " description="nonribosomal_peptide_synthetase_11[br]Location: 2154441 - 2154770" locus_tag="CMQ_4686" id="clusterblast-1_all_49_2_3" points="355,135 359,130 359,140 355,135 " class="clusterblast-orf"  />
<polygon style="stroke:black; stroke-width:1; fill:#FFFFFF; " description="methyltransferase_type_11_domain_containing[br]Location: 2156932 - 2157678" locus_tag="CMQ_4750" id="clusterblast-1_all_49_2_4" points="383,140 386,140 391,135 386,130 383,130 383,140 " class="clusterblast-orf"  />
<polygon style="stroke:black; stroke-width:1; fill:#FFFFFF; " description="ABC_multidrug_transporter_mdr1[br]Location: 2158741 - 2162491" locus_tag="CMQ_4844" id="clusterblast-1_all_49_2_5" points="403,135 408,130 445,130 445,140 408,140 403,135 " class="clusterblast-orf"  />
<polygon style="stroke:black; stroke-width:1; fill:green; " description="aristolochene_synthase[br]Location: 2165606 - 2166601&lt;br&gt;&lt;br&gt;&lt;b&gt;BlastP hit with CHAFR746836_0038560.1&lt;/b&gt;&lt;br&gt;Percentage identity: 61%&lt;br&gt;Percentage coverage: 79%&lt;br&gt;BLAST bit score: 317&lt;br&gt;E-value: 9e-106" locus_tag="CMQ_4272" id="clusterblast-1_all_49_2_6" points="479,135 484,130 490,130 490,140 484,140 479,135 " class="clusterblast-orf"  />
<polygon style="stroke:black; stroke-width:1; fill:blue; " description="short_chain_dehydrogenase_reductase[br]Location: 2167025 - 2167990&lt;br&gt;&lt;br&gt;&lt;b&gt;BlastP hit with CHAFR746836_0038580.1&lt;/b&gt;&lt;br&gt;Percentage identity: 50%&lt;br&gt;Percentage coverage: 35%&lt;br&gt;BLAST bit score: 291&lt;br&gt;E-value: 3e-89" locus_tag="CMQ_4666" id="clusterblast-1_all_49_2_7" points="495,140 501,140 506,135 501,130 495,130 495,140 " class="clusterblast-orf"  />
</g>
<g class="clusterblast-cluster" description="Cordyceps militaris CM01 unplaced genomic scaffold CCM S0000..." label="JH126400.1_c5"  >
<text class="clusterblast-acc" y="160" x="5"  >
JH126400.1_c5</text>
<text class="clusterblast-desc" y="160" x="460.8"  >
Cordyceps militaris CM01 unplaced genomic scaffold CCM S0000...</text>
<line y1="185" x2="778.0" style="stroke:grey; stroke-width:1; " x1="10" y2="185"  />
<polygon style="stroke:black; stroke-width:1; fill:#FFFFFF; " description="mitochondrial_DnaJ_chaperone_(Mdj1),_putative[br]Location: 3535657 - 3537372" locus_tag="CCM_03042" id="clusterblast-1_all_49_3_0" points="158,190 172,190 177,185 172,180 158,180 158,190 " class="clusterblast-orf"  />
<polygon style="stroke:black; stroke-width:1; fill:#FFFFFF; " description="DnaJ_domain_protein[br]Location: 3537894 - 3538720" locus_tag="CCM_03043" id="clusterblast-1_all_49_3_1" points="182,185 187,180 192,180 192,190 187,190 182,185 " class="clusterblast-orf"  />
<polygon style="stroke:black; stroke-width:1; fill:#FFFFFF; " description="amino_acid_transporter[br]Location: 3540223 - 3542151" locus_tag="CCM_03044" id="clusterblast-1_all_49_3_2" points="208,190 225,190 230,185 225,180 208,180 208,190 " class="clusterblast-orf"  />
<polygon style="stroke:black; stroke-width:1; fill:#FFFFFF; " description="formate_dehydrogenase[br]Location: 3542612 - 3544390" locus_tag="CCM_03045" id="clusterblast-1_all_49_3_3" points="235,185 240,180 255,180 255,190 240,190 235,185 " class="clusterblast-orf"  />
<polygon style="stroke:black; stroke-width:1; fill:#FFFFFF; " description="secretory_lipase,_putative[br]Location: 3548293 - 3549516" locus_tag="CCM_03046" id="clusterblast-1_all_49_3_4" points="298,185 303,180 312,180 312,190 303,190 298,185 " class="clusterblast-orf"  />
<polygon style="stroke:black; stroke-width:1; fill:#FFFFFF; " description="Protein_kinase-like_domain[br]Location: 3550071 - 3551285" locus_tag="CCM_03047" id="clusterblast-1_all_49_3_5" points="318,185 323,180 332,180 332,190 323,190 318,185 " class="clusterblast-orf"  />
<polygon style="stroke:black; stroke-width:1; fill:#FFFFFF; " description="Cytochrome_P450[br]Location: 3552203 - 3554216" locus_tag="CCM_03048" id="clusterblast-1_all_49_3_6" points="342,185 347,180 364,180 364,190 347,190 342,185 " class="clusterblast-orf"  />
<polygon style="stroke:black; stroke-width:1; fill:#FFFFFF; " description="gibberellin_3-beta_hydroxylase,_putative[br]Location: 3554571 - 3555730" locus_tag="CCM_03049" id="clusterblast-1_all_49_3_7" points="368,185 373,180 381,180 381,190 373,190 368,185 " class="clusterblast-orf"  />
<polygon style="stroke:black; stroke-width:1; fill:green; " description="aristolochene_synthase,_putative[br]Location: 3556961 - 3557703&lt;br&gt;&lt;br&gt;&lt;b&gt;BlastP hit with CHAFR746836_0038560.1&lt;/b&gt;&lt;br&gt;Percentage identity: 52%&lt;br&gt;Percentage coverage: 74%&lt;br&gt;BLAST bit score: 240&lt;br&gt;E-value: 8e-77" locus_tag="CCM_03050" id="clusterblast-1_all_49_3_8" points="395,185 400,180 403,180 403,190 400,190 395,185 " class="clusterblast-orf"  />
<polygon style="stroke:black; stroke-width:1; fill:blue; " description="NAD(P)-binding_domain[br]Location: 3558468 - 3559497&lt;br&gt;&lt;br&gt;&lt;b&gt;BlastP hit with CHAFR746836_0038580.1&lt;/b&gt;&lt;br&gt;Percentage identity: 50%&lt;br&gt;Percentage coverage: 35%&lt;br&gt;BLAST bit score: 286&lt;br&gt;E-value: 4e-87" locus_tag="CCM_03051" id="clusterblast-1_all_49_3_9" points="412,190 418,190 423,185 418,180 412,180 412,190 " class="clusterblast-orf"  />
<polygon style="stroke:black; stroke-width:1; fill:#FFFFFF; " description="benzoate_4-monooxygenase_cytochrome_P450[br]Location: 3559748 - 3561895" locus_tag="CCM_03052" id="clusterblast-1_all_49_3_10" points="426,185 431,180 450,180 450,190 431,190 426,185 " class="clusterblast-orf"  />
<polygon style="stroke:black; stroke-width:1; fill:#FFFFFF; " description="transferase_family_protein[br]Location: 3571862 - 3573487" locus_tag="CCM_03053" id="clusterblast-1_all_49_3_11" points="561,190 574,190 579,185 574,180 561,180 561,190 " class="clusterblast-orf"  />
<polygon style="stroke:black; stroke-width:1; fill:#FFFFFF; " description="cytochrome_P450,_putative[br]Location: 3573734 - 3575577" locus_tag="CCM_03054" id="clusterblast-1_all_49_3_12" points="582,185 587,180 602,180 602,190 587,190 582,185 " class="clusterblast-orf"  />
<polygon style="stroke:black; stroke-width:1; fill:#FFFFFF; " description="O-acetylhomoserine/O-acetylserine_sulfhydrylase[br]Location: 3576055 - 3578020" locus_tag="CCM_03055" id="clusterblast-1_all_49_3_13" points="608,190 624,190 629,185 624,180 608,180 608,190 " class="clusterblast-orf"  />
</g>
<g class="clusterblast-cluster" description="Aspergillus oryzae RIB40 DNA, SC011." label="AP007171.1_c2"  >
<text class="clusterblast-acc" y="210" x="5"  >
AP007171.1_c2</text>
<text class="clusterblast-desc" y="210" x="460.8"  >
Aspergillus oryzae RIB40 DNA, SC011.</text>
<line y1="235" x2="778.0" style="stroke:grey; stroke-width:1; " x1="10" y2="235"  />
<polygon style="stroke:black; stroke-width:1; fill:#FFFFFF; " description="[br]Location: 271774 - 272917" locus_tag="AO090011000094" id="clusterblast-1_all_49_4_0" points="164,240 171,240 176,235 171,230 164,230 164,240 " class="clusterblast-orf"  />
<polygon style="stroke:black; stroke-width:1; fill:#FFFFFF; " description="[br]Location: 274198 - 275205" locus_tag="AO090011000095" id="clusterblast-1_all_49_4_1" points="191,240 197,240 202,235 197,230 191,230 191,240 " class="clusterblast-orf"  />
<polygon style="stroke:black; stroke-width:1; fill:#FFFFFF; " description="[br]Location: 277123 - 278016" locus_tag="AO090011000096" id="clusterblast-1_all_49_4_2" points="223,235 228,230 233,230 233,240 228,240 223,235 " class="clusterblast-orf"  />
<polygon style="stroke:black; stroke-width:1; fill:blue; " description="[br]Location: 280214 - 282070&lt;br&gt;&lt;br&gt;&lt;b&gt;BlastP hit with CHAFR746836_0038580.1&lt;/b&gt;&lt;br&gt;Percentage identity: 49%&lt;br&gt;Percentage coverage: 54%&lt;br&gt;BLAST bit score: 459&lt;br&gt;E-value: 4e-150" locus_tag="AO090011000097" id="clusterblast-1_all_49_4_3" points="258,235 263,230 278,230 278,240 263,240 258,235 " class="clusterblast-orf"  />
<polygon style="stroke:black; stroke-width:1; fill:#FFFFFF; " description="[br]Location: 283156 - 283504" locus_tag="AO090011000098" id="clusterblast-1_all_49_4_4" points="290,235 294,230 294,240 290,235 " class="clusterblast-orf"  />
<polygon style="stroke:black; stroke-width:1; fill:#FFFFFF; " description="[br]Location: 284536 - 286384" locus_tag="AO090011000099" id="clusterblast-1_all_49_4_5" points="306,235 311,230 326,230 326,240 311,240 306,235 " class="clusterblast-orf"  />
<polygon style="stroke:black; stroke-width:1; fill:#FFFFFF; " description="[br]Location: 287266 - 288616" locus_tag="AO090011000100" id="clusterblast-1_all_49_4_6" points="336,240 346,240 351,235 346,230 336,230 336,240 " class="clusterblast-orf"  />
<polygon style="stroke:black; stroke-width:1; fill:#FFFFFF; " description="[br]Location: 288916 - 291007" locus_tag="AO090011000101" id="clusterblast-1_all_49_4_7" points="354,235 359,230 378,230 378,240 359,240 354,235 " class="clusterblast-orf"  />
<polygon style="stroke:black; stroke-width:1; fill:blue; " description="[br]Location: 291277 - 292404&lt;br&gt;&lt;br&gt;&lt;b&gt;BlastP hit with CHAFR746836_0038580.1&lt;/b&gt;&lt;br&gt;Percentage identity: 50%&lt;br&gt;Percentage coverage: 15%&lt;br&gt;BLAST bit score: 128&lt;br&gt;E-value: 5e-32" locus_tag="AO090011000102" id="clusterblast-1_all_49_4_8" points="381,240 388,240 393,235 388,230 381,230 381,240 " class="clusterblast-orf"  />
<polygon style="stroke:black; stroke-width:1; fill:green; " description="[br]Location: 292746 - 293902&lt;br&gt;&lt;br&gt;&lt;b&gt;BlastP hit with CHAFR746836_0038560.1&lt;/b&gt;&lt;br&gt;Percentage identity: 52%&lt;br&gt;Percentage coverage: 100%&lt;br&gt;BLAST bit score: 338&lt;br&gt;E-value: 3e-113" locus_tag="AO090011000103" id="clusterblast-1_all_49_4_9" points="397,240 405,240 410,235 405,230 397,230 397,240 " class="clusterblast-orf"  />
<polygon style="stroke:black; stroke-width:1; fill:#FFFFFF; " description="[br]Location: 296607 - 297865" locus_tag="AO090011000104" id="clusterblast-1_all_49_4_10" points="440,240 449,240 454,235 449,230 440,230 440,240 " class="clusterblast-orf"  />
<polygon style="stroke:black; stroke-width:1; fill:#FFFFFF; " description="[br]Location: 299220 - 300125" locus_tag="AO090011000105" id="clusterblast-1_all_49_4_11" points="469,240 474,240 479,235 474,230 469,230 469,240 " class="clusterblast-orf"  />
<polygon style="stroke:black; stroke-width:1; fill:#FFFFFF; " description="[br]Location: 300249 - 300803" locus_tag="AO090011000106" id="clusterblast-1_all_49_4_12" points="481,240 482,240 487,235 482,230 481,230 481,240 " class="clusterblast-orf"  />
<polygon style="stroke:black; stroke-width:1; fill:#FFFFFF; " description="[br]Location: 302791 - 303875" locus_tag="AO090011000107" id="clusterblast-1_all_49_4_13" points="509,240 516,240 521,235 516,230 509,230 509,240 " class="clusterblast-orf"  />
<polygon style="stroke:black; stroke-width:1; fill:#FFFFFF; " description="[br]Location: 305320 - 305922" locus_tag="AO090011000108" id="clusterblast-1_all_49_4_14" points="537,240 539,240 544,235 539,230 537,230 537,240 " class="clusterblast-orf"  />
<polygon style="stroke:black; stroke-width:1; fill:#FFFFFF; " description="[br]Location: 306785 - 308262" locus_tag="AO090011000109" id="clusterblast-1_all_49_4_15" points="554,240 565,240 570,235 565,230 554,230 554,240 " class="clusterblast-orf"  />
<polygon style="stroke:black; stroke-width:1; fill:#FFFFFF; " description="[br]Location: 308746 - 310075" locus_tag="AO090011000110" id="clusterblast-1_all_49_4_16" points="575,235 580,230 590,230 590,240 580,240 575,235 " class="clusterblast-orf"  />
<polygon style="stroke:black; stroke-width:1; fill:#FFFFFF; " description="[br]Location: 311173 - 312906" locus_tag="AO090011000111" id="clusterblast-1_all_49_4_17" points="602,240 617,240 622,235 617,230 602,230 602,240 " class="clusterblast-orf"  />
</g>
<g class="clusterblast-cluster" description="Glomerella graminicola M1.001 genomic scaffold supercont1.62..." label="GG697392.1_c1"  >
<text class="clusterblast-acc" y="260" x="5"  >
GG697392.1_c1</text>
<text class="clusterblast-desc" y="260" x="460.8"  >
Glomerella graminicola M1.001 genomic scaffold supercont1.62...</text>
<line y1="285" x2="778.0" style="stroke:grey; stroke-width:1; " x1="10" y2="285"  />
<polygon style="stroke:black; stroke-width:1; fill:#FFFFFF; " description="glucan_1,3-beta-glucosidase[br]Location: 96771 - 98051" locus_tag="GLRG_10529" id="clusterblast-1_all_49_5_0" points="149,285 154,280 163,280 163,290 154,290 149,285 " class="clusterblast-orf"  />
<polygon style="stroke:black; stroke-width:1; fill:#FFFFFF; " description="methyltransferase_domain-containing_protein[br]Location: 99144 - 100280" locus_tag="GLRG_10530" id="clusterblast-1_all_49_5_1" points="175,285 180,280 188,280 188,290 180,290 175,285 " class="clusterblast-orf"  />
<polygon style="stroke:black; stroke-width:1; fill:#FFFFFF; " description="hypothetical_protein[br]Location: 100977 - 102140" locus_tag="GLRG_10531" id="clusterblast-1_all_49_5_2" points="195,290 203,290 208,285 203,280 195,280 195,290 " class="clusterblast-orf"  />
<polygon style="stroke:black; stroke-width:1; fill:#FFFFFF; " description="cytochrome_P450_monooxygenase[br]Location: 102406 - 104216" locus_tag="GLRG_10532" id="clusterblast-1_all_49_5_3" points="211,285 216,280 231,280 231,290 216,290 211,285 " class="clusterblast-orf"  />
<polygon style="stroke:black; stroke-width:1; fill:#FFFFFF; " description="2-nitropropane_dioxygenase[br]Location: 104629 - 106128" locus_tag="GLRG_10533" id="clusterblast-1_all_49_5_4" points="236,290 248,290 253,285 248,280 236,280 236,290 " class="clusterblast-orf"  />
<polygon style="stroke:black; stroke-width:1; fill:#FFFFFF; " description="cytochrome_P450[br]Location: 106543 - 108587" locus_tag="GLRG_10534" id="clusterblast-1_all_49_5_5" points="257,285 262,280 280,280 280,290 262,290 257,285 " class="clusterblast-orf"  />
<polygon style="stroke:black; stroke-width:1; fill:red; " description="hydroxymethylglutaryl-CoA_synthase[br]Location: 109088 - 110679&lt;br&gt;&lt;br&gt;&lt;b&gt;BlastP hit with CHAFR746836_0038550.1&lt;/b&gt;&lt;br&gt;Percentage identity: 55%&lt;br&gt;Percentage coverage: 100%&lt;br&gt;BLAST bit score: 526&lt;br&gt;E-value: 0.0" locus_tag="GLRG_10535" id="clusterblast-1_all_49_5_6" points="286,285 291,280 303,280 303,290 291,290 286,285 " class="clusterblast-orf"  />
<polygon style="stroke:black; stroke-width:1; fill:#FFFFFF; " description="cytochrome_P450_monooxygenase[br]Location: 111184 - 112809" locus_tag="GLRG_10536" id="clusterblast-1_all_49_5_7" points="309,290 322,290 327,285 322,280 309,280 309,290 " class="clusterblast-orf"  />
<polygon style="stroke:black; stroke-width:1; fill:#FFFFFF; " description="beta-ketoacyl_synthase_domain-containing[br]Location: 113355 - 120836" locus_tag="GLRG_10537" id="clusterblast-1_all_49_5_8" points="333,285 338,280 417,280 417,290 338,290 333,285 " class="clusterblast-orf"  />
<polygon style="stroke:black; stroke-width:1; fill:blue; " description="major_facilitator_superfamily_transporter[br]Location: 121801 - 123950&lt;br&gt;&lt;br&gt;&lt;b&gt;BlastP hit with CHAFR746836_0038580.1&lt;/b&gt;&lt;br&gt;Percentage identity: 33%&lt;br&gt;Percentage coverage: 63%&lt;br&gt;BLAST bit score: 298&lt;br&gt;E-value: 1e-88" locus_tag="GLRG_10538" id="clusterblast-1_all_49_5_9" points="427,285 432,280 451,280 451,290 432,290 427,285 " class="clusterblast-orf"  />
<polygon style="stroke:black; stroke-width:1; fill:#FFFFFF; " description="transferase[br]Location: 124636 - 126051" locus_tag="GLRG_10539" id="clusterblast-1_all_49_5_10" points="459,290 470,290 475,285 470,280 459,280 459,290 " class="clusterblast-orf"  />
<polygon style="stroke:black; stroke-width:1; fill:#FFFFFF; " description="enoyl-CoA_hydratase/isomerase[br]Location: 126184 - 127023" locus_tag="GLRG_10540" id="clusterblast-1_all_49_5_11" points="476,290 481,290 486,285 481,280 476,280 476,290 " class="clusterblast-orf"  />
<polygon style="stroke:black; stroke-width:1; fill:#FFFFFF; " description="hypothetical_protein[br]Location: 129703 - 130257" locus_tag="GLRG_10541" id="clusterblast-1_all_49_5_12" points="515,290 517,290 522,285 517,280 515,280 515,290 " class="clusterblast-orf"  />
<polygon style="stroke:black; stroke-width:1; fill:#FFFFFF; " description="hypothetical_protein[br]Location: 130348 - 131965" locus_tag="GLRG_10542" id="clusterblast-1_all_49_5_13" points="523,285 528,280 541,280 541,290 528,290 523,285 " class="clusterblast-orf"  />
<polygon style="stroke:black; stroke-width:1; fill:#FFFFFF; " description="methyltransferase_domain-containing_protein[br]Location: 132617 - 133270" locus_tag="GLRG_10543" id="clusterblast-1_all_49_5_14" points="548,285 553,280 555,280 555,290 553,290 548,285 " class="clusterblast-orf"  />
<polygon style="stroke:black; stroke-width:1; fill:#FFFFFF; " description="GMC_oxidoreductase[br]Location: 134619 - 136627" locus_tag="GLRG_10544" id="clusterblast-1_all_49_5_15" points="570,290 588,290 593,285 588,280 570,280 570,290 " class="clusterblast-orf"  />
<polygon style="stroke:black; stroke-width:1; fill:#FFFFFF; " description="FAD_binding_domain-containing_protein[br]Location: 136809 - 138632" locus_tag="GLRG_10545" id="clusterblast-1_all_49_5_16" points="595,285 600,280 615,280 615,290 600,290 595,285 " class="clusterblast-orf"  />
<polygon style="stroke:black; stroke-width:1; fill:#FFFFFF; " description="tat_pathway_signal_sequence[br]Location: 139248 - 140589" locus_tag="GLRG_10546" id="clusterblast-1_all_49_5_17" points="622,290 632,290 637,285 632,280 622,280 622,290 " class="clusterblast-orf"  />
</g>
</svg>
