<svg xmlns="http://www.w3.org/2000/svg" height="230" width="800" version="1.1" y="0" x="0" preserveAspectRatio="none" xmlns:xlink="http://www.w3.org/1999/xlink" viewBox="0 0 800 230"  >
<g class="clusterblast-cluster" label="Query sequence"  >
<text class="clusterblast-acc" y="10" x="5"  >
Query sequence</text>
<line y1="35" x2="778.0" style="stroke:grey; stroke-width:1; " x1="10" y2="35"  />
<polygon style="stroke:black; stroke-width:1; fill:#FFFFFF; " description="unannotated orf[br]Location: 215284 - 216006" locus_tag="CHAFR746836_0067220.1" class="clusterblast-orf" points="126,40 132,40 137,35 132,30 126,30 126,40 " id="clusterblast-1_q7_6_0"  />
<polygon style="stroke:black; stroke-width:1; fill:#FFFFFF; " description="unannotated orf[br]Location: 224693 - 224914" locus_tag="CHAFR746836_0067230.1" class="clusterblast-orf" points="275,35 278,30 278,40 275,35 " id="clusterblast-1_q7_6_1"  />
<polygon style="stroke:black; stroke-width:1; fill:red; " description="unannotated orf[br]Location: 228611 - 236326" locus_tag="CHAFR746836_0067240.1" class="clusterblast-orf" points="337,35 342,30 459,30 459,40 342,40 337,35 " id="clusterblast-1_q7_6_2"  />
<polygon style="stroke:black; stroke-width:1; fill:green; " description="unannotated orf[br]Location: 237740 - 238731" locus_tag="CHAFR746836_0067250.1" class="clusterblast-orf" points="481,40 492,40 497,35 492,30 481,30 481,40 " id="clusterblast-1_q7_6_3"  />
<polygon style="stroke:black; stroke-width:1; fill:blue; " description="unannotated orf[br]Location: 238911 - 240394" locus_tag="CHAFR746836_0067260.1" class="clusterblast-orf" points="500,35 505,30 524,30 524,40 505,40 500,35 " id="clusterblast-1_q7_6_4"  />
<polygon style="stroke:black; stroke-width:1; fill:yellow; " description="unannotated orf[br]Location: 240782 - 242473" locus_tag="CHAFR746836_0067270.1" class="clusterblast-orf" points="530,35 535,30 557,30 557,40 535,40 530,35 " id="clusterblast-1_q7_6_5"  />
<polygon style="stroke:black; stroke-width:1; fill:#FFFFFF; " description="unannotated orf[br]Location: 242970 - 243933" locus_tag="CHAFR746836_0067280.1" class="clusterblast-orf" points="564,40 575,40 580,35 575,30 564,30 564,40 " id="clusterblast-1_q7_6_6"  />
<polygon style="stroke:black; stroke-width:1; fill:#FFFFFF; " description="unannotated orf[br]Location: 244594 - 245945" locus_tag="CHAFR746836_0067290.1" class="clusterblast-orf" points="590,40 607,40 612,35 607,30 590,30 590,40 " id="clusterblast-1_q7_6_7"  />
<polygon style="stroke:black; stroke-width:1; fill:#FFFFFF; " description="unannotated orf[br]Location: 246456 - 248994" locus_tag="CHAFR746836_0067300.1" class="clusterblast-orf" points="620,40 655,40 660,35 655,30 620,30 620,40 " id="clusterblast-1_q7_6_8"  />
</g>
<g class="clusterblast-cluster" description="Aspergillus fumigatus A1163 scf 000003 genomic scaffold, who..." label="DS499596.1_c2"  >
<text class="clusterblast-acc" y="60" x="5"  >
DS499596.1_c2</text>
<text class="clusterblast-desc" y="60" x="460.8"  >
Aspergillus fumigatus A1163 scf 000003 genomic scaffold, who...</text>
<line y1="85" x2="778.0" style="stroke:grey; stroke-width:1; " x1="10" y2="85"  />
<polygon style="stroke:black; stroke-width:1; fill:#FFFFFF; " description="extracellular_endo-1,5-alpha-L-arabinase,[br]Location: 185736 - 186968" locus_tag="AFUB_034610" id="clusterblast-1_h7_6_0" points="10,90 24,90 29,85 24,80 10,80 10,90 " class="clusterblast-orf"  />
<polygon style="stroke:black; stroke-width:1; fill:#FFFFFF; " description="extracellular_dioxygenase,_putative[br]Location: 182574 - 183677" locus_tag="AFUB_034600" id="clusterblast-1_h7_6_1" points="62,90 74,90 79,85 74,80 62,80 62,90 " class="clusterblast-orf"  />
<polygon style="stroke:black; stroke-width:1; fill:#FFFFFF; " description="C4-dicarboxylate_transporter/malic_acid[br]Location: 180788 - 182016" locus_tag="AFUB_034590" id="clusterblast-1_h7_6_2" points="88,90 102,90 107,85 102,80 88,80 88,90 " class="clusterblast-orf"  />
<polygon style="stroke:black; stroke-width:1; fill:#FFFFFF; " description="LipA_and_NB-ARC_domain_protein[br]Location: 177998 - 180076" locus_tag="AFUB_034580" id="clusterblast-1_h7_6_3" points="119,90 147,90 152,85 147,80 119,80 119,90 " class="clusterblast-orf"  />
<polygon style="stroke:black; stroke-width:1; fill:#FFFFFF; " description="conserved_hypothetical_protein[br]Location: 177584 - 177858" locus_tag="AFUB_034570" id="clusterblast-1_h7_6_4" points="154,85 158,80 158,90 154,85 " class="clusterblast-orf"  />
<polygon style="stroke:black; stroke-width:1; fill:#FFFFFF; " description="hypothetical_protein[br]Location: 173226 - 173691" locus_tag="AFUB_034560" id="clusterblast-1_h7_6_5" points="220,90 222,90 227,85 222,80 220,80 220,90 " class="clusterblast-orf"  />
<polygon style="stroke:black; stroke-width:1; fill:#FFFFFF; " description="MFS_transporter,_putative[br]Location: 170560 - 172160" locus_tag="AFUB_034550" id="clusterblast-1_h7_6_6" points="244,90 265,90 270,85 265,80 244,80 244,90 " class="clusterblast-orf"  />
<polygon style="stroke:black; stroke-width:1; fill:#FFFFFF; " description="lysophospholipase_Plb3[br]Location: 168256 - 170148" locus_tag="AFUB_034540" id="clusterblast-1_h7_6_7" points="276,90 301,90 306,85 301,80 276,80 276,90 " class="clusterblast-orf"  />
<polygon style="stroke:black; stroke-width:1; fill:blue; " description="aminotransferase,_putative[br]Location: 166463 - 167998&lt;br&gt;&lt;br&gt;&lt;b&gt;BlastP hit with CHAFR746836_0067260.1&lt;/b&gt;&lt;br&gt;Percentage identity: 50%&lt;br&gt;Percentage coverage: 98%&lt;br&gt;BLAST bit score: 457&lt;br&gt;E-value: 4e-156" locus_tag="AFUB_034530" id="clusterblast-1_h7_6_8" points="310,85 315,80 335,80 335,90 315,90 310,85 " class="clusterblast-orf"  />
<polygon style="stroke:black; stroke-width:1; fill:red; " description="polyketide_synthase,_putative[br]Location: 158409 - 166143&lt;br&gt;&lt;br&gt;&lt;b&gt;BlastP hit with CHAFR746836_0067240.1&lt;/b&gt;&lt;br&gt;Percentage identity: 48%&lt;br&gt;Percentage coverage: 101%&lt;br&gt;BLAST bit score: 2379&lt;br&gt;E-value: 0.0" locus_tag="AFUB_034520" id="clusterblast-1_h7_6_9" points="340,90 457,90 462,85 457,80 340,80 340,90 " class="clusterblast-orf"  />
<polygon style="stroke:black; stroke-width:1; fill:#FFFFFF; " description="toxin_biosynthesis_proten_(Fum3),_putative[br]Location: 156741 - 157832" locus_tag="AFUB_034510" id="clusterblast-1_h7_6_10" points="471,90 484,90 489,85 484,80 471,80 471,90 " class="clusterblast-orf"  />
<polygon style="stroke:black; stroke-width:1; fill:yellow; " description="MFS_transporter,_putative[br]Location: 154865 - 156666&lt;br&gt;&lt;br&gt;&lt;b&gt;BlastP hit with CHAFR746836_0067270.1&lt;/b&gt;&lt;br&gt;Percentage identity: 45%&lt;br&gt;Percentage coverage: 96%&lt;br&gt;BLAST bit score: 456&lt;br&gt;E-value: 1e-152" locus_tag="AFUB_034500" id="clusterblast-1_h7_6_11" points="490,85 495,80 518,80 518,90 495,90 490,85 " class="clusterblast-orf"  />
<polygon style="stroke:black; stroke-width:1; fill:#FFFFFF; " description="LysR_family_regulatory_protein,_putative[br]Location: 152710 - 154257" locus_tag="AFUB_034490" id="clusterblast-1_h7_6_12" points="528,90 548,90 553,85 548,80 528,80 528,90 " class="clusterblast-orf"  />
<polygon style="stroke:black; stroke-width:1; fill:#FFFFFF; " description="conserved_hypothetical_protein[br]Location: 151084 - 152589" locus_tag="AFUB_034480" id="clusterblast-1_h7_6_13" points="554,85 559,80 578,80 578,90 559,90 554,85 " class="clusterblast-orf"  />
<polygon style="stroke:black; stroke-width:1; fill:#FFFFFF; " description="fungal_specific_transcription_factor,_putative[br]Location: 146878 - 149718" locus_tag="AFUB_034470" id="clusterblast-1_h7_6_14" points="600,90 640,90 645,85 640,80 600,80 600,90 " class="clusterblast-orf"  />
<polygon style="stroke:black; stroke-width:1; fill:#FFFFFF; " description="cytochrome_P450_monooxygenase_(Fum15),_putative[br]Location: 144725 - 146477" locus_tag="AFUB_034460" id="clusterblast-1_h7_6_15" points="651,90 674,90 679,85 674,80 651,80 651,90 " class="clusterblast-orf"  />
<polygon style="stroke:black; stroke-width:1; fill:#FFFFFF; " description="reductase,_putative[br]Location: 143203 - 144261" locus_tag="AFUB_034450" id="clusterblast-1_h7_6_16" points="687,90 698,90 703,85 698,80 687,80 687,90 " class="clusterblast-orf"  />
<polygon style="stroke:black; stroke-width:1; fill:#FFFFFF; " description="pentafunctional_AROM_polypeptide,_putative[br]Location: 141885 - 142748" locus_tag="AFUB_034440" id="clusterblast-1_h7_6_17" points="710,85 715,80 724,80 724,90 715,90 710,85 " class="clusterblast-orf"  />
<polygon style="stroke:black; stroke-width:1; fill:#FFFFFF; " description="shikimate_5-dehydrogenase,_putative[br]Location: 140427 - 141458" locus_tag="AFUB_034430" id="clusterblast-1_h7_6_18" points="731,90 742,90 747,85 742,80 731,80 731,90 " class="clusterblast-orf"  />
<polygon style="stroke:black; stroke-width:1; fill:#FFFFFF; " description="pathogenesis_associated_protein_Pep2,_putative[br]Location: 139586 - 140333" locus_tag="AFUB_034420" id="clusterblast-1_h7_6_19" points="749,90 756,90 761,85 756,80 749,80 749,90 " class="clusterblast-orf"  />
<polygon style="stroke:black; stroke-width:1; fill:#FFFFFF; " description="4-hydroxyphenylpyruvate_dioxygenase,_putative[br]Location: 138521 - 139540" locus_tag="AFUB_034410" id="clusterblast-1_h7_6_20" points="761,85 766,80 778,80 778,90 766,90 761,85 " class="clusterblast-orf"  />
</g>
</svg>
