<svg xmlns="http://www.w3.org/2000/svg" height="230" width="800" version="1.1" y="0" x="0" preserveAspectRatio="none" xmlns:xlink="http://www.w3.org/1999/xlink" viewBox="0 0 800 230"  >
<g class="clusterblast-cluster" label="Query sequence"  >
<text class="clusterblast-acc" y="10" x="5"  >
Query sequence</text>
<line y1="35" x2="778.0" style="stroke:grey; stroke-width:1; " x1="10" y2="35"  />
<polygon style="stroke:black; stroke-width:1; fill:#FFFFFF; " description="unannotated orf[br]Location: 7918 - 9403" locus_tag="CHAFR746836_0043710.1" class="clusterblast-orf" points="10,40 39,40 44,35 39,30 10,30 10,40 " id="clusterblast-1_q54_8_0"  />
<polygon style="stroke:black; stroke-width:1; fill:rgb(169,42,42); " description="unannotated orf[br]Location: 10656 - 11541" locus_tag="CHAFR746836_0043720.1" class="clusterblast-orf" points="74,35 79,30 95,30 95,40 79,40 74,35 " id="clusterblast-1_q54_8_1"  />
<polygon style="stroke:black; stroke-width:1; fill:rgb(42,169,42); " description="unannotated orf[br]Location: 13140 - 14726" locus_tag="CHAFR746836_0043730.1" class="clusterblast-orf" points="132,40 165,40 170,35 165,30 132,30 132,40 " id="clusterblast-1_q54_8_2"  />
<polygon style="stroke:black; stroke-width:1; fill:#FFFFFF; " description="unannotated orf[br]Location: 14976 - 15545" locus_tag="CHAFR746836_0043740.1" class="clusterblast-orf" points="176,35 181,30 189,30 189,40 181,40 176,35 " id="clusterblast-1_q54_8_3"  />
<polygon style="stroke:black; stroke-width:1; fill:rgb(42,169,212); " description="unannotated orf[br]Location: 16433 - 17294" locus_tag="CHAFR746836_0043750.1" class="clusterblast-orf" points="210,40 225,40 230,35 225,30 210,30 210,40 " id="clusterblast-1_q54_8_4"  />
<polygon style="stroke:black; stroke-width:1; fill:rgb(169,169,42); " description="unannotated orf[br]Location: 17728 - 18694" locus_tag="CHAFR746836_0043760.1" class="clusterblast-orf" points="241,40 258,40 263,35 258,30 241,30 241,40 " id="clusterblast-1_q54_8_5"  />
<polygon style="stroke:black; stroke-width:1; fill:#FFFFFF; " description="unannotated orf[br]Location: 19149 - 19718" locus_tag="CHAFR746836_0043770.1" class="clusterblast-orf" points="274,35 279,30 287,30 287,40 279,40 274,35 " id="clusterblast-1_q54_8_6"  />
<polygon style="stroke:black; stroke-width:1; fill:rgb(169,42,127); " description="unannotated orf[br]Location: 20132 - 21930" locus_tag="CHAFR746836_0043780.1" class="clusterblast-orf" points="297,40 334,40 339,35 334,30 297,30 297,40 " id="clusterblast-1_q54_8_7"  />
<polygon style="stroke:black; stroke-width:1; fill:#FFFFFF; " description="unannotated orf[br]Location: 22653 - 24219" locus_tag="CHAFR746836_0043790.1" class="clusterblast-orf" points="357,35 362,30 393,30 393,40 362,40 357,35 " id="clusterblast-1_q54_8_8"  />
<polygon style="stroke:black; stroke-width:1; fill:rgb(42,42,212); " description="unannotated orf[br]Location: 25134 - 26929" locus_tag="CHAFR746836_0043800.1" class="clusterblast-orf" points="415,40 452,40 457,35 452,30 415,30 415,40 " id="clusterblast-1_q54_8_9"  />
<polygon style="stroke:black; stroke-width:1; fill:rgb(169,169,212); " description="unannotated orf[br]Location: 28053 - 29459" locus_tag="CHAFR746836_0043810.1" class="clusterblast-orf" points="484,40 512,40 517,35 512,30 484,30 484,40 " id="clusterblast-1_q54_8_10"  />
<polygon style="stroke:black; stroke-width:1; fill:#FFFFFF; " description="unannotated orf[br]Location: 30463 - 31516" locus_tag="CHAFR746836_0043820.1" class="clusterblast-orf" points="540,35 545,30 565,30 565,40 545,40 540,35 " id="clusterblast-1_q54_8_11"  />
<polygon style="stroke:black; stroke-width:1; fill:rgb(42,169,127); " description="unannotated orf[br]Location: 32618 - 34109" locus_tag="CHAFR746836_0043830.1" class="clusterblast-orf" points="591,35 596,30 626,30 626,40 596,40 591,35 " id="clusterblast-1_q54_8_12"  />
<polygon style="stroke:black; stroke-width:1; fill:rgb(169,42,212); " description="unannotated orf[br]Location: 37073 - 38965" locus_tag="CHAFR746836_0043840.1" class="clusterblast-orf" points="696,35 701,30 741,30 741,40 701,40 696,35 " id="clusterblast-1_q54_8_13"  />
<polygon style="stroke:black; stroke-width:1; fill:#FFFFFF; " description="unannotated orf[br]Location: 39447 - 40529" locus_tag="CHAFR746836_0043850.1" class="clusterblast-orf" points="752,40 773,40 778,35 773,30 752,30 752,40 " id="clusterblast-1_q54_8_14"  />
</g>
<g class="clusterblast-cluster" description="Fusarium sp. NRRL 13405 trichotecene gene cluster, complete ..." label="GQ865563.1_c1"  >
<text class="clusterblast-acc" y="60" x="5"  >
GQ865563.1_c1</text>
<text class="clusterblast-desc" y="60" x="460.8"  >
Fusarium sp. NRRL 13405 trichotecene gene cluster, complete ...</text>
<line y1="85" x2="778.0" style="stroke:grey; stroke-width:1; " x1="10" y2="85"  />
<polygon style="stroke:black; stroke-width:1; fill:#FFFFFF; " description="esterase[br]Location: 31117 - 32463" locus_tag="ACZ51419.1" id="clusterblast-1_h54_8_0" points="21,85 26,80 52,80 52,90 26,90 21,85 " class="clusterblast-orf"  />
<polygon style="stroke:black; stroke-width:1; fill:#FFFFFF; " description="acetyltransferase[br]Location: 28819 - 30186" locus_tag="ACZ51418.1" id="clusterblast-1_h54_8_1" points="74,90 101,90 106,85 101,80 74,80 74,90 " class="clusterblast-orf"  />
<polygon style="stroke:black; stroke-width:1; fill:#FFFFFF; " description="acetyltransferase[br]Location: 26328 - 28089" locus_tag="ACZ51417.1" id="clusterblast-1_h54_8_2" points="124,90 160,90 165,85 160,80 124,80 124,90 " class="clusterblast-orf"  />
<polygon style="stroke:black; stroke-width:1; fill:#FFFFFF; " description="acetyltransferase[br]Location: 24285 - 25649" locus_tag="ACZ51416.1" id="clusterblast-1_h54_8_3" points="181,90 208,90 213,85 208,80 181,80 181,90 " class="clusterblast-orf"  />
<polygon style="stroke:black; stroke-width:1; fill:#FFFFFF; " description="hypothetical_protein[br]Location: 22617 - 23791" locus_tag="ACZ51415.1" id="clusterblast-1_h54_8_4" points="225,85 230,80 252,80 252,90 230,90 225,85 " class="clusterblast-orf"  />
<polygon style="stroke:black; stroke-width:1; fill:rgb(169,42,127); " description="cytochrome_P450_monooxygenase[br]Location: 20152 - 21945&lt;br&gt;&lt;br&gt;&lt;b&gt;BlastP hit with CHAFR746836_0043780.1&lt;/b&gt;&lt;br&gt;Percentage identity: 36%&lt;br&gt;Percentage coverage: 97%&lt;br&gt;BLAST bit score: 398&lt;br&gt;E-value: 2e-129" locus_tag="ACZ51414.1" id="clusterblast-1_h54_8_5" points="268,90 305,90 310,85 305,80 268,80 268,90 " class="clusterblast-orf"  />
<polygon style="stroke:black; stroke-width:1; fill:#FFFFFF; " description="cytochrome_P450_monooxygenase[br]Location: 18142 - 19853" locus_tag="ACZ51413.1" id="clusterblast-1_h54_8_6" points="317,90 353,90 358,85 353,80 317,80 317,90 " class="clusterblast-orf"  />
<polygon style="stroke:black; stroke-width:1; fill:rgb(169,42,212); " description="cytochrome_P450_monooxygenase[br]Location: 15658 - 17420&lt;br&gt;&lt;br&gt;&lt;b&gt;BlastP hit with CHAFR746836_0043840.1&lt;/b&gt;&lt;br&gt;Percentage identity: 35%&lt;br&gt;Percentage coverage: 87%&lt;br&gt;BLAST bit score: 273&lt;br&gt;E-value: 5e-83" locus_tag="ACZ51412.1" id="clusterblast-1_h54_8_7" points="375,85 380,80 416,80 416,90 380,90 375,85 " class="clusterblast-orf"  />
<polygon style="stroke:black; stroke-width:1; fill:#FFFFFF; " description="hypothetical_protein[br]Location: 14716 - 14847" locus_tag="ACZ51411.1" id="clusterblast-1_h54_8_8" points="435,90 438,85 435,80 435,90 " class="clusterblast-orf"  />
<polygon style="stroke:black; stroke-width:1; fill:#FFFFFF; " description="regulatory_protein[br]Location: 12546 - 13896" locus_tag="ACZ51410.1" id="clusterblast-1_h54_8_9" points="458,85 463,80 490,80 490,90 463,90 458,85 " class="clusterblast-orf"  />
<polygon style="stroke:black; stroke-width:1; fill:#FFFFFF; " description="sesquiterpene_cyclase[br]Location: 10704 - 11880" locus_tag="ACZ51409.1" id="clusterblast-1_h54_8_10" points="505,85 510,80 533,80 533,90 510,90 505,85 " class="clusterblast-orf"  />
<polygon style="stroke:black; stroke-width:1; fill:#FFFFFF; " description="Zn(II)2-Cys6_binuclear_cluster_domain-like[br]Location: 8498 - 9676" locus_tag="ACZ51408.1" id="clusterblast-1_h54_8_11" points="557,90 580,90 585,85 580,80 557,80 557,90 " class="clusterblast-orf"  />
<polygon style="stroke:black; stroke-width:1; fill:#FFFFFF; " description="transcription_factor[br]Location: 6841 - 7500" locus_tag="ACZ51407.1" id="clusterblast-1_h54_8_12" points="608,85 613,80 624,80 624,90 613,90 608,85 " class="clusterblast-orf"  />
<polygon style="stroke:black; stroke-width:1; fill:#FFFFFF; " description="cytochrome_P450_monooxygenase[br]Location: 3783 - 5507" locus_tag="ACZ51406.1" id="clusterblast-1_h54_8_13" points="655,90 691,90 696,85 691,80 655,80 655,90 " class="clusterblast-orf"  />
<polygon style="stroke:black; stroke-width:1; fill:#FFFFFF; " description="hypothetical_protein[br]Location: 788 - 1621" locus_tag="ACZ51405.1" id="clusterblast-1_h54_8_14" points="747,90 761,90 766,85 761,80 747,80 747,90 " class="clusterblast-orf"  />
</g>
</svg>
