<svg xmlns="http://www.w3.org/2000/svg" height="230" width="800" version="1.1" y="0" x="0" preserveAspectRatio="none" xmlns:xlink="http://www.w3.org/1999/xlink" viewBox="0 0 800 230"  >
<g class="clusterblast-cluster" label="Query sequence"  >
<text class="clusterblast-acc" y="10" x="5"  >
Query sequence</text>
<line y1="35" x2="778.0" style="stroke:grey; stroke-width:1; " x1="10" y2="35"  />
<polygon style="stroke:black; stroke-width:1; fill:#FFFFFF; " description="unannotated orf[br]Location: 6431 - 7772" locus_tag="CHAFR746836_0097870.1" class="clusterblast-orf" points="10,35 15,30 23,30 23,40 15,40 10,35 " id="clusterblast-1_q28_1_0"  />
<polygon style="stroke:black; stroke-width:1; fill:rgb(190,63,63); " description="unannotated orf[br]Location: 16189 - 18187" locus_tag="CHAFR746836_0097880.1" class="clusterblast-orf" points="108,35 113,30 128,30 128,40 113,40 108,35 " id="clusterblast-1_q28_1_1"  />
<polygon style="stroke:black; stroke-width:1; fill:rgb(63,63,190); " description="unannotated orf[br]Location: 19681 - 20616" locus_tag="CHAFR746836_0097890.1" class="clusterblast-orf" points="143,40 147,40 152,35 147,30 143,30 143,40 " id="clusterblast-1_q28_1_2"  />
<polygon style="stroke:black; stroke-width:1; fill:rgb(63,190,63); " description="unannotated orf[br]Location: 21366 - 23094" locus_tag="CHAFR746836_0097900.1" class="clusterblast-orf" points="160,40 172,40 177,35 172,30 160,30 160,40 " id="clusterblast-1_q28_1_3"  />
<polygon style="stroke:black; stroke-width:1; fill:rgb(190,63,190); " description="unannotated orf[br]Location: 26972 - 28062" locus_tag="CHAFR746836_0097910.1" class="clusterblast-orf" points="216,35 221,30 227,30 227,40 221,40 216,35 " id="clusterblast-1_q28_1_4"  />
<polygon style="stroke:black; stroke-width:1; fill:rgb(190,190,63); " description="unannotated orf[br]Location: 28976 - 30266" locus_tag="CHAFR746836_0097920.1" class="clusterblast-orf" points="236,40 244,40 249,35 244,30 236,30 236,40 " id="clusterblast-1_q28_1_5"  />
<polygon style="stroke:black; stroke-width:1; fill:rgb(190,190,190); " description="unannotated orf[br]Location: 30763 - 43644" locus_tag="CHAFR746836_0097930.1" class="clusterblast-orf" points="254,35 259,30 383,30 383,40 259,40 254,35 " id="clusterblast-1_q28_1_6"  />
<polygon style="stroke:black; stroke-width:1; fill:rgb(63,190,190); " description="unannotated orf[br]Location: 44702 - 45994" locus_tag="CHAFR746836_0097940.1" class="clusterblast-orf" points="394,35 399,30 407,30 407,40 399,40 394,35 " id="clusterblast-1_q28_1_7"  />
<polygon style="stroke:black; stroke-width:1; fill:rgb(63,63,63); " description="unannotated orf[br]Location: 47339 - 48596" locus_tag="CHAFR746836_0097950.1" class="clusterblast-orf" points="420,35 425,30 433,30 433,40 425,40 420,35 " id="clusterblast-1_q28_1_8"  />
<polygon style="stroke:black; stroke-width:1; fill:#FFFFFF; " description="unannotated orf[br]Location: 51399 - 52845" locus_tag="CHAFR746836_0097960.1" class="clusterblast-orf" points="461,35 466,30 476,30 476,40 466,40 461,35 " id="clusterblast-1_q28_1_9"  />
<polygon style="stroke:black; stroke-width:1; fill:#FFFFFF; " description="unannotated orf[br]Location: 70832 - 71924" locus_tag="CHAFR746836_0097970.1" class="clusterblast-orf" points="656,40 662,40 667,35 662,30 656,30 656,40 " id="clusterblast-1_q28_1_10"  />
<polygon style="stroke:black; stroke-width:1; fill:#FFFFFF; " description="unannotated orf[br]Location: 74856 - 75574" locus_tag="CHAFR746836_0097980.1" class="clusterblast-orf" points="697,40 699,40 704,35 699,30 697,30 697,40 " id="clusterblast-1_q28_1_11"  />
<polygon style="stroke:black; stroke-width:1; fill:#FFFFFF; " description="unannotated orf[br]Location: 80903 - 82884" locus_tag="CHAFR746836_0097990.1" class="clusterblast-orf" points="758,35 763,30 778,30 778,40 763,40 758,35 " id="clusterblast-1_q28_1_12"  />
</g>
<g class="clusterblast-cluster" description="Trichoderma virens Gv29-8 TRIVIscaffold 81, whole genome..." label="ABDF02000081.1_c3"  >
<text class="clusterblast-acc" y="60" x="5"  >
ABDF02000081.1_c3</text>
<text class="clusterblast-desc" y="60" x="460.8"  >
Trichoderma virens Gv29-8 TRIVIscaffold 81, whole genome...</text>
<line y1="85" x2="778.0" style="stroke:grey; stroke-width:1; " x1="10" y2="85"  />
<polygon style="stroke:black; stroke-width:1; fill:#FFFFFF; " description="hypothetical_protein[br]Location: 707724 - 709109" locus_tag="TRIVIDRAFT_48107" id="clusterblast-1_h28_1_0" points="136,85 141,80 149,80 149,90 141,90 136,85 " class="clusterblast-orf"  />
<polygon style="stroke:black; stroke-width:1; fill:#FFFFFF; " description="hypothetical_protein[br]Location: 712866 - 713712" locus_tag="TRIVIDRAFT_68765" id="clusterblast-1_h28_1_1" points="187,90 191,90 196,85 191,80 187,80 187,90 " class="clusterblast-orf"  />
<polygon style="stroke:black; stroke-width:1; fill:#FFFFFF; " description="hypothetical_protein[br]Location: 716162 - 716948" locus_tag="TRIVIDRAFT_193161" id="clusterblast-1_h28_1_2" points="220,85 225,80 228,80 228,90 225,90 220,85 " class="clusterblast-orf"  />
<polygon style="stroke:black; stroke-width:1; fill:#FFFFFF; " description="hypothetical_protein[br]Location: 717515 - 719933" locus_tag="TRIVIDRAFT_47744" id="clusterblast-1_h28_1_3" points="234,90 253,90 258,85 253,80 234,80 234,90 " class="clusterblast-orf"  />
<polygon style="stroke:black; stroke-width:1; fill:#FFFFFF; " description="hypothetical_protein[br]Location: 721399 - 722362" locus_tag="TRIVIDRAFT_90003" id="clusterblast-1_h28_1_4" points="273,85 278,80 283,80 283,90 278,90 273,85 " class="clusterblast-orf"  />
<polygon style="stroke:black; stroke-width:1; fill:#FFFFFF; " description="hypothetical_protein[br]Location: 724274 - 725248" locus_tag="TRIVIDRAFT_137077" id="clusterblast-1_h28_1_5" points="302,85 307,80 312,80 312,90 307,90 302,85 " class="clusterblast-orf"  />
<polygon style="stroke:black; stroke-width:1; fill:#FFFFFF; " description="hypothetical_protein[br]Location: 726207 - 727378" locus_tag="TRIVIDRAFT_68769" id="clusterblast-1_h28_1_6" points="321,85 326,80 333,80 333,90 326,90 321,85 " class="clusterblast-orf"  />
<polygon style="stroke:black; stroke-width:1; fill:rgb(190,190,190); " description="putative_PKS-NRPS_protein[br]Location: 727939 - 740017&lt;br&gt;&lt;br&gt;&lt;b&gt;BlastP hit with CHAFR746836_0097930.1&lt;/b&gt;&lt;br&gt;Percentage identity: 45%&lt;br&gt;Percentage coverage: 62%&lt;br&gt;BLAST bit score: 2171&lt;br&gt;E-value: 0.0" locus_tag="TRIVIDRAFT_47905" id="clusterblast-1_h28_1_7" points="339,85 344,80 460,80 460,90 344,90 339,85 " class="clusterblast-orf"  />
<polygon style="stroke:black; stroke-width:1; fill:#FFFFFF; " description="hypothetical_protein[br]Location: 740643 - 741798" locus_tag="TRIVIDRAFT_48208" id="clusterblast-1_h28_1_8" points="466,85 471,80 478,80 478,90 471,90 466,85 " class="clusterblast-orf"  />
<polygon style="stroke:black; stroke-width:1; fill:rgb(63,63,63); " description="hypothetical_protein[br]Location: 742322 - 743581&lt;br&gt;&lt;br&gt;&lt;b&gt;BlastP hit with CHAFR746836_0097950.1&lt;/b&gt;&lt;br&gt;Percentage identity: 49%&lt;br&gt;Percentage coverage: 94%&lt;br&gt;BLAST bit score: 407&lt;br&gt;E-value: 2e-137" locus_tag="TRIVIDRAFT_47972" id="clusterblast-1_h28_1_9" points="483,90 491,90 496,85 491,80 483,80 483,90 " class="clusterblast-orf"  />
<polygon style="stroke:black; stroke-width:1; fill:rgb(63,190,63); " description="hypothetical_protein[br]Location: 744563 - 749093&lt;br&gt;&lt;br&gt;&lt;b&gt;BlastP hit with CHAFR746836_0097890.1&lt;/b&gt;&lt;br&gt;Percentage identity: 45%&lt;br&gt;Percentage coverage: 81%&lt;br&gt;BLAST bit score: 216&lt;br&gt;E-value: 6e-62&lt;br&gt;&lt;br&gt;&lt;b&gt;BlastP hit with CHAFR746836_0097900.1&lt;/b&gt;&lt;br&gt;Percentage identity: 40%&lt;br&gt;Percentage coverage: 94%&lt;br&gt;BLAST bit score: 434&lt;br&gt;E-value: 1e-137" locus_tag="TRIVIDRAFT_155466" id="clusterblast-1_h28_1_10" points="506,85 511,80 551,80 551,90 511,90 506,85 " class="clusterblast-orf"  />
<polygon style="stroke:black; stroke-width:1; fill:rgb(63,190,190); " description="hypothetical_protein[br]Location: 749714 - 751006&lt;br&gt;&lt;br&gt;&lt;b&gt;BlastP hit with CHAFR746836_0097940.1&lt;/b&gt;&lt;br&gt;Percentage identity: 42%&lt;br&gt;Percentage coverage: 47%&lt;br&gt;BLAST bit score: 160&lt;br&gt;E-value: 3e-43" locus_tag="TRIVIDRAFT_193168" id="clusterblast-1_h28_1_11" points="557,85 562,80 570,80 570,90 562,90 557,85 " class="clusterblast-orf"  />
<polygon style="stroke:black; stroke-width:1; fill:#FFFFFF; " description="hypothetical_protein[br]Location: 751863 - 752480" locus_tag="TRIVIDRAFT_48080" id="clusterblast-1_h28_1_12" points="579,90 580,90 585,85 580,80 579,80 579,90 " class="clusterblast-orf"  />
<polygon style="stroke:black; stroke-width:1; fill:rgb(190,63,190); " description="hypothetical_protein[br]Location: 753520 - 754643&lt;br&gt;&lt;br&gt;&lt;b&gt;BlastP hit with CHAFR746836_0097910.1&lt;/b&gt;&lt;br&gt;Percentage identity: 42%&lt;br&gt;Percentage coverage: 95%&lt;br&gt;BLAST bit score: 242&lt;br&gt;E-value: 2e-75" locus_tag="TRIVIDRAFT_209800" id="clusterblast-1_h28_1_13" points="596,85 601,80 607,80 607,90 601,90 596,85 " class="clusterblast-orf"  />
<polygon style="stroke:black; stroke-width:1; fill:rgb(190,190,63); " description="hypothetical_protein[br]Location: 755112 - 756401&lt;br&gt;&lt;br&gt;&lt;b&gt;BlastP hit with CHAFR746836_0097920.1&lt;/b&gt;&lt;br&gt;Percentage identity: 54%&lt;br&gt;Percentage coverage: 99%&lt;br&gt;BLAST bit score: 505&lt;br&gt;E-value: 1e-175" locus_tag="TRIVIDRAFT_68777" id="clusterblast-1_h28_1_14" points="612,90 619,90 624,85 619,80 612,80 612,90 " class="clusterblast-orf"  />
<polygon style="stroke:black; stroke-width:1; fill:rgb(190,63,63); " description="hypothetical_protein[br]Location: 757105 - 759046&lt;br&gt;&lt;br&gt;&lt;b&gt;BlastP hit with CHAFR746836_0097880.1&lt;/b&gt;&lt;br&gt;Percentage identity: 58%&lt;br&gt;Percentage coverage: 94%&lt;br&gt;BLAST bit score: 756&lt;br&gt;E-value: 0.0" locus_tag="TRIVIDRAFT_47764" id="clusterblast-1_h28_1_15" points="632,85 637,80 651,80 651,90 637,90 632,85 " class="clusterblast-orf"  />
</g>
</svg>
