<svg xmlns="http://www.w3.org/2000/svg" height="230" width="800" version="1.1" y="0" x="0" preserveAspectRatio="none" xmlns:xlink="http://www.w3.org/1999/xlink" viewBox="0 0 800 230"  >
<g class="clusterblast-cluster" label="Query sequence"  >
<text class="clusterblast-acc" y="10" x="5"  >
Query sequence</text>
<line y1="35" x2="778.0" style="stroke:grey; stroke-width:1; " x1="10" y2="35"  />
<polygon style="stroke:black; stroke-width:1; fill:rgb(190,63,63); " description="unannotated orf[br]Location: 25203 - 26345" locus_tag="CHAFR746836_0077540.1" class="clusterblast-orf" points="80,40 82,40 87,35 82,30 80,30 80,40 " id="clusterblast-1_q10_8_0"  />
<polygon style="stroke:black; stroke-width:1; fill:rgb(63,63,190); " description="unannotated orf[br]Location: 33656 - 34656" locus_tag="CHAFR746836_0077550.1" class="clusterblast-orf" points="137,35 142,30 144,30 144,40 142,40 137,35 " id="clusterblast-1_q10_8_1"  />
<polygon style="stroke:black; stroke-width:1; fill:#FFFFFF; " description="unannotated orf[br]Location: 40941 - 41922" locus_tag="CHAFR746836_0077560.1" class="clusterblast-orf" points="186,40 188,40 193,35 188,30 186,30 186,40 " id="clusterblast-1_q10_8_2"  />
<polygon style="stroke:black; stroke-width:1; fill:#FFFFFF; " description="unannotated orf[br]Location: 42481 - 43285" locus_tag="CHAFR746836_0077570.1" class="clusterblast-orf" points="197,35 202,30 202,30 202,40 202,40 197,35 " id="clusterblast-1_q10_8_3"  />
<polygon style="stroke:black; stroke-width:1; fill:#FFFFFF; " description="unannotated orf[br]Location: 45175 - 46813" locus_tag="CHAFR746836_0077580.1" class="clusterblast-orf" points="215,40 221,40 226,35 221,30 215,30 215,40 " id="clusterblast-1_q10_8_4"  />
<polygon style="stroke:black; stroke-width:1; fill:#FFFFFF; " description="unannotated orf[br]Location: 52915 - 54699" locus_tag="CHAFR746836_0077590.1" class="clusterblast-orf" points="268,40 275,40 280,35 275,30 268,30 268,40 " id="clusterblast-1_q10_8_5"  />
<polygon style="stroke:black; stroke-width:1; fill:rgb(63,190,63); " description="unannotated orf[br]Location: 56890 - 57476" locus_tag="CHAFR746836_0077600.1" class="clusterblast-orf" points="295,40 299,35 295,30 295,40 " id="clusterblast-1_q10_8_6"  />
<polygon style="stroke:black; stroke-width:1; fill:rgb(190,63,190); " description="unannotated orf[br]Location: 58827 - 59758" locus_tag="CHAFR746836_0077610.1" class="clusterblast-orf" points="308,40 309,40 314,35 309,30 308,30 308,40 " id="clusterblast-1_q10_8_7"  />
<polygon style="stroke:black; stroke-width:1; fill:#FFFFFF; " description="unannotated orf[br]Location: 60873 - 61266" locus_tag="CHAFR746836_0077620.1" class="clusterblast-orf" points="322,35 324,30 324,40 322,35 " id="clusterblast-1_q10_8_8"  />
<polygon style="stroke:black; stroke-width:1; fill:#FFFFFF; " description="unannotated orf[br]Location: 62590 - 64438" locus_tag="CHAFR746836_0077630.1" class="clusterblast-orf" points="333,35 338,30 346,30 346,40 338,40 333,35 " id="clusterblast-1_q10_8_9"  />
<polygon style="stroke:black; stroke-width:1; fill:rgb(190,190,63); " description="unannotated orf[br]Location: 67540 - 77132" locus_tag="CHAFR746836_0077640.1" class="clusterblast-orf" points="367,35 372,30 432,30 432,40 372,40 367,35 " id="clusterblast-1_q10_8_10"  />
<polygon style="stroke:black; stroke-width:1; fill:#FFFFFF; " description="unannotated orf[br]Location: 83720 - 84542" locus_tag="CHAFR746836_0077650.1" class="clusterblast-orf" points="477,40 477,40 482,35 477,30 477,30 477,40 " id="clusterblast-1_q10_8_11"  />
<polygon style="stroke:black; stroke-width:1; fill:#FFFFFF; " description="unannotated orf[br]Location: 85708 - 88797" locus_tag="CHAFR746836_0077660.1" class="clusterblast-orf" points="490,35 495,30 511,30 511,40 495,40 490,35 " id="clusterblast-1_q10_8_12"  />
<polygon style="stroke:black; stroke-width:1; fill:#FFFFFF; " description="unannotated orf[br]Location: 89609 - 90957" locus_tag="CHAFR746836_0077670.1" class="clusterblast-orf" points="517,35 522,30 526,30 526,40 522,40 517,35 " id="clusterblast-1_q10_8_13"  />
<polygon style="stroke:black; stroke-width:1; fill:#FFFFFF; " description="unannotated orf[br]Location: 91271 - 91979" locus_tag="CHAFR746836_0077680.1" class="clusterblast-orf" points="528,40 528,40 533,35 528,30 528,30 528,40 " id="clusterblast-1_q10_8_14"  />
<polygon style="stroke:black; stroke-width:1; fill:#FFFFFF; " description="unannotated orf[br]Location: 92728 - 93646" locus_tag="CHAFR746836_0077690.1" class="clusterblast-orf" points="538,35 543,30 544,30 544,40 543,40 538,35 " id="clusterblast-1_q10_8_15"  />
<polygon style="stroke:black; stroke-width:1; fill:#FFFFFF; " description="unannotated orf[br]Location: 94508 - 95510" locus_tag="CHAFR746836_0077700.1" class="clusterblast-orf" points="550,40 552,40 557,35 552,30 550,30 550,40 " id="clusterblast-1_q10_8_16"  />
<polygon style="stroke:black; stroke-width:1; fill:#FFFFFF; " description="unannotated orf[br]Location: 95897 - 96815" locus_tag="CHAFR746836_0077710.1" class="clusterblast-orf" points="560,35 565,30 566,30 566,40 565,40 560,35 " id="clusterblast-1_q10_8_17"  />
<polygon style="stroke:black; stroke-width:1; fill:rgb(190,190,190); " description="unannotated orf[br]Location: 99791 - 101108" locus_tag="CHAFR746836_0077720.1" class="clusterblast-orf" points="586,40 590,40 595,35 590,30 586,30 586,40 " id="clusterblast-1_q10_8_18"  />
<polygon style="stroke:black; stroke-width:1; fill:#FFFFFF; " description="unannotated orf[br]Location: 105182 - 105691" locus_tag="CHAFR746836_0077730.1" class="clusterblast-orf" points="623,40 626,35 623,30 623,40 " id="clusterblast-1_q10_8_19"  />
<polygon style="stroke:black; stroke-width:1; fill:#FFFFFF; " description="unannotated orf[br]Location: 116324 - 117422" locus_tag="CHAFR746836_0077740.1" class="clusterblast-orf" points="698,35 703,30 706,30 706,40 703,40 698,35 " id="clusterblast-1_q10_8_20"  />
</g>
<g class="clusterblast-cluster" description="Streptomyces pristinaespiralis strain Pr11, contig 106." label="FR682001.1_c1"  >
<text class="clusterblast-acc" y="60" x="5"  >
FR682001.1_c1</text>
<text class="clusterblast-desc" y="60" x="460.8"  >
Streptomyces pristinaespiralis strain Pr11, contig 106.</text>
<line y1="85" x2="778.0" style="stroke:grey; stroke-width:1; " x1="10" y2="85"  />
<polygon style="stroke:black; stroke-width:1; fill:rgb(190,190,63); " description="putative_modular_polyketide_synthase_(fragment)[br]Location: 140 - 1867&lt;br&gt;&lt;br&gt;&lt;b&gt;BlastP hit with CHAFR746836_0077640.1&lt;/b&gt;&lt;br&gt;Percentage identity: 37%&lt;br&gt;Percentage coverage: 15%&lt;br&gt;BLAST bit score: 252&lt;br&gt;E-value: 2e-69" locus_tag="CBW45692.1" id="clusterblast-1_h10_8_0" points="10,85 15,80 21,80 21,90 15,90 10,85 " class="clusterblast-orf"  />
<polygon style="stroke:black; stroke-width:1; fill:#FFFFFF; " description="putative_enoyl-CoA_hydratase[br]Location: 1864 - 2652" locus_tag="CBW45693.1" id="clusterblast-1_h10_8_1" points="21,85 26,80 27,80 27,90 26,90 21,85 " class="clusterblast-orf"  />
<polygon style="stroke:black; stroke-width:1; fill:#FFFFFF; " description="putative_enoyl-CoA_hydratase[br]Location: 2649 - 3377" locus_tag="CBW45694.1" id="clusterblast-1_h10_8_2" points="27,85 31,80 31,90 27,85 " class="clusterblast-orf"  />
<polygon style="stroke:black; stroke-width:1; fill:#FFFFFF; " description="HMG-CoA_synthase-like_protein[br]Location: 3398 - 4645" locus_tag="CBW45695.1" id="clusterblast-1_h10_8_3" points="32,85 37,80 40,80 40,90 37,90 32,85 " class="clusterblast-orf"  />
<polygon style="stroke:black; stroke-width:1; fill:#FFFFFF; " description="putative_acyl_carrier_protein[br]Location: 4642 - 4905" locus_tag="CBW45696.1" id="clusterblast-1_h10_8_4" points="40,85 42,80 42,90 40,85 " class="clusterblast-orf"  />
<polygon style="stroke:black; stroke-width:1; fill:#FFFFFF; " description="conserved_hypothetical_protein[br]Location: 4902 - 5849" locus_tag="CBW45697.1" id="clusterblast-1_h10_8_5" points="42,85 47,80 48,80 48,90 47,90 42,85 " class="clusterblast-orf"  />
<polygon style="stroke:black; stroke-width:1; fill:#FFFFFF; " description="hypothetical_protein[br]Location: 5846 - 6118" locus_tag="CBW45698.1" id="clusterblast-1_h10_8_6" points="48,85 50,80 50,90 48,85 " class="clusterblast-orf"  />
<polygon style="stroke:black; stroke-width:1; fill:#FFFFFF; " description="putative_NDP-hexose_2,3-dehydratase[br]Location: 6259 - 7662" locus_tag="CBW45699.1" id="clusterblast-1_h10_8_7" points="51,85 56,80 61,80 61,90 56,90 51,85 " class="clusterblast-orf"  />
<polygon style="stroke:black; stroke-width:1; fill:#FFFFFF; " description="putative_esterase[br]Location: 7836 - 9020" locus_tag="CBW45700.1" id="clusterblast-1_h10_8_8" points="62,90 65,90 70,85 65,80 62,80 62,90 " class="clusterblast-orf"  />
<polygon style="stroke:black; stroke-width:1; fill:#FFFFFF; " description="putative_aromatase[br]Location: 9028 - 9849" locus_tag="CBW45701.1" id="clusterblast-1_h10_8_9" points="70,85 75,80 75,80 75,90 75,90 70,85 " class="clusterblast-orf"  />
<polygon style="stroke:black; stroke-width:1; fill:#FFFFFF; " description="putative_glycosyltransferase[br]Location: 9981 - 11219" locus_tag="CBW45702.1" id="clusterblast-1_h10_8_10" points="76,90 80,90 85,85 80,80 76,80 76,90 " class="clusterblast-orf"  />
<polygon style="stroke:black; stroke-width:1; fill:#FFFFFF; " description="putative_oxidoreductase[br]Location: 11237 - 12205" locus_tag="CBW45703.1" id="clusterblast-1_h10_8_11" points="85,90 86,90 91,85 86,80 85,80 85,90 " class="clusterblast-orf"  />
<polygon style="stroke:black; stroke-width:1; fill:#FFFFFF; " description="putative_glycosyltransferase[br]Location: 13201 - 14334" locus_tag="CBW45704.1" id="clusterblast-1_h10_8_12" points="98,85 103,80 106,80 106,90 103,90 98,85 " class="clusterblast-orf"  />
<polygon style="stroke:black; stroke-width:1; fill:#FFFFFF; " description="hypothetical_protein[br]Location: 14338 - 15261" locus_tag="CBW45705.1" id="clusterblast-1_h10_8_13" points="106,85 111,80 112,80 112,90 111,90 106,85 " class="clusterblast-orf"  />
<polygon style="stroke:black; stroke-width:1; fill:#FFFFFF; " description="putative_dTDP-glucose_4,6-dehydratase[br]Location: 15346 - 16353" locus_tag="CBW45706.1" id="clusterblast-1_h10_8_14" points="113,85 118,80 120,80 120,90 118,90 113,85 " class="clusterblast-orf"  />
<polygon style="stroke:black; stroke-width:1; fill:#FFFFFF; " description="putative_dTDP-glucose_synthase[br]Location: 16350 - 17417" locus_tag="CBW45707.1" id="clusterblast-1_h10_8_15" points="120,85 125,80 127,80 127,90 125,90 120,85 " class="clusterblast-orf"  />
<polygon style="stroke:black; stroke-width:1; fill:#FFFFFF; " description="conserved_hypothetical_protein[br]Location: 17616 - 18632" locus_tag="CBW45708.1" id="clusterblast-1_h10_8_16" points="128,90 130,90 135,85 130,80 128,80 128,90 " class="clusterblast-orf"  />
<polygon style="stroke:black; stroke-width:1; fill:rgb(190,63,190); " description="putative_ketoreductase[br]Location: 18629 - 19438&lt;br&gt;&lt;br&gt;&lt;b&gt;BlastP hit with CHAFR746836_0077610.1&lt;/b&gt;&lt;br&gt;Percentage identity: 31%&lt;br&gt;Percentage coverage: 84%&lt;br&gt;BLAST bit score: 94&lt;br&gt;E-value: 3e-21" locus_tag="CBW45709.1" id="clusterblast-1_h10_8_17" points="135,90 136,90 141,85 136,80 135,80 135,90 " class="clusterblast-orf"  />
<polygon style="stroke:black; stroke-width:1; fill:#FFFFFF; " description="putative_ketoreductase[br]Location: 19473 - 20216" locus_tag="CBW45710.1" id="clusterblast-1_h10_8_18" points="141,90 141,90 146,85 141,80 141,80 141,90 " class="clusterblast-orf"  />
<polygon style="stroke:black; stroke-width:1; fill:#FFFFFF; " description="putative_FMN-dependent_monooxygenase[br]Location: 20342 - 21373" locus_tag="CBW45711.1" id="clusterblast-1_h10_8_19" points="147,85 152,80 154,80 154,90 152,90 147,85 " class="clusterblast-orf"  />
<polygon style="stroke:black; stroke-width:1; fill:#FFFFFF; " description="putative_acyltransferase[br]Location: 21404 - 22411" locus_tag="CBW45712.1" id="clusterblast-1_h10_8_20" points="154,85 159,80 161,80 161,90 159,90 154,85 " class="clusterblast-orf"  />
<polygon style="stroke:black; stroke-width:1; fill:#FFFFFF; " description="putative_3-oxoacyl-ACP_synthase_III[br]Location: 22608 - 23657" locus_tag="CBW45713.1" id="clusterblast-1_h10_8_21" points="162,90 164,90 169,85 164,80 162,80 162,90 " class="clusterblast-orf"  />
<polygon style="stroke:black; stroke-width:1; fill:#FFFFFF; " description="putative_acyl_carrier_protein[br]Location: 23731 - 23985" locus_tag="CBW45714.1" id="clusterblast-1_h10_8_22" points="170,90 171,85 170,80 170,90 " class="clusterblast-orf"  />
<polygon style="stroke:black; stroke-width:1; fill:#FFFFFF; " description="putative_ketoacylsynthase,_chain_length_factor[br]Location: 23982 - 25256" locus_tag="CBW45715.1" id="clusterblast-1_h10_8_23" points="171,90 175,90 180,85 175,80 171,80 171,90 " class="clusterblast-orf"  />
<polygon style="stroke:black; stroke-width:1; fill:#FFFFFF; " description="putative_ketoacylsynthase,_chain_length_factor[br]Location: 25253 - 26461" locus_tag="CBW45716.1" id="clusterblast-1_h10_8_24" points="180,90 183,90 188,85 183,80 180,80 180,90 " class="clusterblast-orf"  />
<polygon style="stroke:black; stroke-width:1; fill:#FFFFFF; " description="putative_glycosyltransferase[br]Location: 26458 - 27711" locus_tag="CBW45717.1" id="clusterblast-1_h10_8_25" points="188,90 192,90 197,85 192,80 188,80 188,90 " class="clusterblast-orf"  />
<polygon style="stroke:black; stroke-width:1; fill:#FFFFFF; " description="putative_aromatase[br]Location: 27727 - 28185" locus_tag="CBW45718.1" id="clusterblast-1_h10_8_26" points="197,90 200,85 197,80 197,90 " class="clusterblast-orf"  />
<polygon style="stroke:black; stroke-width:1; fill:#FFFFFF; " description="putative_cyclase[br]Location: 28268 - 29215" locus_tag="CBW45719.1" id="clusterblast-1_h10_8_27" points="201,85 206,80 207,80 207,90 206,90 201,85 " class="clusterblast-orf"  />
<polygon style="stroke:black; stroke-width:1; fill:#FFFFFF; " description="putative_oxygenase/hydroxylase[br]Location: 29377 - 30522" locus_tag="CBW45720.1" id="clusterblast-1_h10_8_28" points="208,90 211,90 216,85 211,80 208,80 208,90 " class="clusterblast-orf"  />
<polygon style="stroke:black; stroke-width:1; fill:#FFFFFF; " description="hypothetical_protein[br]Location: 30522 - 30755" locus_tag="CBW45721.1" id="clusterblast-1_h10_8_29" points="216,90 217,85 216,80 216,90 " class="clusterblast-orf"  />
<polygon style="stroke:black; stroke-width:1; fill:#FFFFFF; " description="putative_cytochrome_P450_hydroxylase[br]Location: 30870 - 32180" locus_tag="CBW45722.1" id="clusterblast-1_h10_8_30" points="218,85 223,80 227,80 227,90 223,90 218,85 " class="clusterblast-orf"  />
<polygon style="stroke:black; stroke-width:1; fill:#FFFFFF; " description="putative_O-acyltransferase[br]Location: 32177 - 33412" locus_tag="CBW45723.1" id="clusterblast-1_h10_8_31" points="227,85 232,80 235,80 235,90 232,90 227,85 " class="clusterblast-orf"  />
<polygon style="stroke:black; stroke-width:1; fill:#FFFFFF; " description="putative_oxidoreductase[br]Location: 33469 - 35112" locus_tag="CBW45724.1" id="clusterblast-1_h10_8_32" points="236,85 241,80 247,80 247,90 241,90 236,85 " class="clusterblast-orf"  />
<polygon style="stroke:black; stroke-width:1; fill:#FFFFFF; " description="putative_oxygenase[br]Location: 35109 - 36404" locus_tag="CBW45725.1" id="clusterblast-1_h10_8_33" points="247,85 252,80 256,80 256,90 252,90 247,85 " class="clusterblast-orf"  />
<polygon style="stroke:black; stroke-width:1; fill:#FFFFFF; " description="putative_acyl_carrier_protein[br]Location: 36401 - 36664" locus_tag="CBW45726.1" id="clusterblast-1_h10_8_34" points="256,85 258,80 258,90 256,85 " class="clusterblast-orf"  />
<polygon style="stroke:black; stroke-width:1; fill:#FFFFFF; " description="putative_ketoacylsynthase,_chain_length_factor[br]Location: 36691 - 37974" locus_tag="CBW45727.1" id="clusterblast-1_h10_8_35" points="258,85 263,80 266,80 266,90 263,90 258,85 " class="clusterblast-orf"  />
<polygon style="stroke:black; stroke-width:1; fill:#FFFFFF; " description="putative_IS200/IS605_family_transposase[br]Location: 38121 - 39326" locus_tag="CBW45728.1" id="clusterblast-1_h10_8_36" points="267,90 271,90 276,85 271,80 267,80 267,90 " class="clusterblast-orf"  />
<polygon style="stroke:black; stroke-width:1; fill:#FFFFFF; " description="putative_ketoacylsynthase,_chain_length_factor[br]Location: 39356 - 40624" locus_tag="CBW45729.1" id="clusterblast-1_h10_8_37" points="276,85 281,80 284,80 284,90 281,90 276,85 " class="clusterblast-orf"  />
<polygon style="stroke:black; stroke-width:1; fill:#FFFFFF; " description="putative_thioesterase_type_II[br]Location: 40636 - 41439" locus_tag="CBW45730.1" id="clusterblast-1_h10_8_38" points="284,85 289,80 290,80 290,90 289,90 284,85 " class="clusterblast-orf"  />
<polygon style="stroke:black; stroke-width:1; fill:#FFFFFF; " description="SARP-type_regulator[br]Location: 41511 - 42287" locus_tag="CBW45731.1" id="clusterblast-1_h10_8_39" points="290,85 295,80 296,80 296,90 295,90 290,85 " class="clusterblast-orf"  />
<polygon style="stroke:black; stroke-width:1; fill:#FFFFFF; " description="hypothetical_protein[br]Location: 42625 - 42909" locus_tag="CBW45732.1" id="clusterblast-1_h10_8_40" points="298,90 300,85 298,80 298,90 " class="clusterblast-orf"  />
<polygon style="stroke:black; stroke-width:1; fill:#FFFFFF; " description="flavin-dependent_oxidoreductase[br]Location: 43056 - 44138" locus_tag="CBW45733.1" id="clusterblast-1_h10_8_41" points="301,90 303,90 308,85 303,80 301,80 301,90 " class="clusterblast-orf"  />
<polygon style="stroke:black; stroke-width:1; fill:#FFFFFF; " description="thioesterase[br]Location: 44165 - 44911" locus_tag="CBW45734.1" id="clusterblast-1_h10_8_42" points="308,90 309,90 314,85 309,80 308,80 308,90 " class="clusterblast-orf"  />
<polygon style="stroke:black; stroke-width:1; fill:#FFFFFF; " description="sarcosine_oxidase[br]Location: 44908 - 46053" locus_tag="CBW45735.1" id="clusterblast-1_h10_8_43" points="314,90 316,90 321,85 316,80 314,80 314,90 " class="clusterblast-orf"  />
<polygon style="stroke:black; stroke-width:1; fill:#FFFFFF; " description="SARP-type_regulator[br]Location: 46074 - 47069" locus_tag="CBW45736.1" id="clusterblast-1_h10_8_44" points="321,90 323,90 328,85 323,80 321,80 321,90 " class="clusterblast-orf"  />
<polygon style="stroke:black; stroke-width:1; fill:#FFFFFF; " description="NADH:FMN_oxidoreductase[br]Location: 48363 - 48893" locus_tag="CBW45737.1" id="clusterblast-1_h10_8_45" points="337,85 341,80 341,90 337,85 " class="clusterblast-orf"  />
<polygon style="stroke:black; stroke-width:1; fill:#FFFFFF; " description="4'-phosphopantetheinyl_transferase[br]Location: 48925 - 49773" locus_tag="CBW45738.1" id="clusterblast-1_h10_8_46" points="341,85 346,80 347,80 347,90 346,90 341,85 " class="clusterblast-orf"  />
<polygon style="stroke:black; stroke-width:1; fill:#FFFFFF; " description="acyltransferase[br]Location: 49770 - 50648" locus_tag="CBW45739.1" id="clusterblast-1_h10_8_47" points="347,85 352,80 352,80 352,90 352,90 347,85 " class="clusterblast-orf"  />
<polygon style="stroke:black; stroke-width:1; fill:#FFFFFF; " description="hybrid_NRPS/PKS_(PKSIV)[br]Location: 50843 - 58903" locus_tag="CBW45740.1" id="clusterblast-1_h10_8_48" points="354,85 359,80 409,80 409,90 359,90 354,85 " class="clusterblast-orf"  />
<polygon style="stroke:black; stroke-width:1; fill:rgb(190,190,63); " description="hybrid_PKS/NRPS_(PKSI)[br]Location: 58929 - 64907&lt;br&gt;&lt;br&gt;&lt;b&gt;BlastP hit with CHAFR746836_0077640.1&lt;/b&gt;&lt;br&gt;Percentage identity: 36%&lt;br&gt;Percentage coverage: 20%&lt;br&gt;BLAST bit score: 317&lt;br&gt;E-value: 1e-85" locus_tag="CBW45741.1" id="clusterblast-1_h10_8_49" points="409,85 414,80 449,80 449,90 414,90 409,85 " class="clusterblast-orf"  />
<polygon style="stroke:black; stroke-width:1; fill:#FFFFFF; " description="hypothetical_protein[br]Location: 64994 - 65632" locus_tag="CBW45742.1" id="clusterblast-1_h10_8_50" points="450,85 454,80 454,90 450,85 " class="clusterblast-orf"  />
<polygon style="stroke:black; stroke-width:1; fill:#FFFFFF; " description="enyol-CoA_hydratase[br]Location: 65930 - 66706" locus_tag="CBW45743.1" id="clusterblast-1_h10_8_51" points="456,85 461,80 462,80 462,90 461,90 456,85 " class="clusterblast-orf"  />
<polygon style="stroke:black; stroke-width:1; fill:#FFFFFF; " description="enyol-CoA_hydratase[br]Location: 66703 - 67455" locus_tag="CBW45744.1" id="clusterblast-1_h10_8_52" points="462,85 467,80 467,80 467,90 467,90 462,85 " class="clusterblast-orf"  />
<polygon style="stroke:black; stroke-width:1; fill:#FFFFFF; " description="HMG-CoA_synthase-like_protein[br]Location: 67452 - 68702" locus_tag="CBW45745.1" id="clusterblast-1_h10_8_53" points="467,85 472,80 475,80 475,90 472,90 467,85 " class="clusterblast-orf"  />
<polygon style="stroke:black; stroke-width:1; fill:#FFFFFF; " description="beta-ketoacyl-ACP_synthase[br]Location: 68735 - 70009" locus_tag="CBW45746.1" id="clusterblast-1_h10_8_54" points="475,85 480,80 484,80 484,90 480,90 475,85 " class="clusterblast-orf"  />
<polygon style="stroke:black; stroke-width:1; fill:#FFFFFF; " description="acyl_carrier_protein[br]Location: 70006 - 70257" locus_tag="CBW45747.1" id="clusterblast-1_h10_8_55" points="484,85 486,80 486,90 484,85 " class="clusterblast-orf"  />
<polygon style="stroke:black; stroke-width:1; fill:rgb(190,190,63); " description="hybrid_PKS/NRPS_(PKSI)[br]Location: 70328 - 77878&lt;br&gt;&lt;br&gt;&lt;b&gt;BlastP hit with CHAFR746836_0077640.1&lt;/b&gt;&lt;br&gt;Percentage identity: 38%&lt;br&gt;Percentage coverage: 15%&lt;br&gt;BLAST bit score: 291&lt;br&gt;E-value: 2e-77" locus_tag="CBW45748.1" id="clusterblast-1_h10_8_56" points="486,85 491,80 537,80 537,90 491,90 486,85 " class="clusterblast-orf"  />
<polygon style="stroke:black; stroke-width:1; fill:rgb(190,190,63); " description="hybrid_PKS/NRPS_(PKSI)[br]Location: 77875 - 93396&lt;br&gt;&lt;br&gt;&lt;b&gt;BlastP hit with CHAFR746836_0077640.1&lt;/b&gt;&lt;br&gt;Percentage identity: 35%&lt;br&gt;Percentage coverage: 19%&lt;br&gt;BLAST bit score: 292&lt;br&gt;E-value: 1e-77" locus_tag="CBW45749.1" id="clusterblast-1_h10_8_57" points="537,85 542,80 643,80 643,90 542,90 537,85 " class="clusterblast-orf"  />
<polygon style="stroke:black; stroke-width:1; fill:#FFFFFF; " description="branched-chain_alpha-keto_acid_decarboxylase[br]Location: 93400 - 95466" locus_tag="CBW45750.1" id="clusterblast-1_h10_8_58" points="643,85 648,80 657,80 657,90 648,90 643,85 " class="clusterblast-orf"  />
<polygon style="stroke:black; stroke-width:1; fill:#FFFFFF; " description="SARP-type_regulator[br]Location: 95608 - 96465" locus_tag="CBW45751.1" id="clusterblast-1_h10_8_59" points="658,85 663,80 664,80 664,90 663,90 658,85 " class="clusterblast-orf"  />
<polygon style="stroke:black; stroke-width:1; fill:#FFFFFF; " description="N-methylase[br]Location: 96641 - 97519" locus_tag="CBW45752.1" id="clusterblast-1_h10_8_60" points="665,85 670,80 671,80 671,90 670,90 665,85 " class="clusterblast-orf"  />
<polygon style="stroke:black; stroke-width:1; fill:#FFFFFF; " description="mutase[br]Location: 97516 - 97905" locus_tag="CBW45753.1" id="clusterblast-1_h10_8_61" points="671,85 673,80 673,90 671,85 " class="clusterblast-orf"  />
<polygon style="stroke:black; stroke-width:1; fill:#FFFFFF; " description="dehydrogenase[br]Location: 97942 - 98832" locus_tag="CBW45754.1" id="clusterblast-1_h10_8_62" points="674,90 675,90 680,85 675,80 674,80 674,90 " class="clusterblast-orf"  />
<polygon style="stroke:black; stroke-width:1; fill:#FFFFFF; " description="p-aminobenzoate_synthase[br]Location: 99091 - 101250" locus_tag="CBW45755.1" id="clusterblast-1_h10_8_63" points="681,85 686,80 696,80 696,90 686,90 681,85 " class="clusterblast-orf"  />
<polygon style="stroke:black; stroke-width:1; fill:#FFFFFF; " description="cytochrome_P45_monooxygenase[br]Location: 101272 - 102468" locus_tag="CBW45756.1" id="clusterblast-1_h10_8_64" points="696,85 701,80 704,80 704,90 701,90 696,85 " class="clusterblast-orf"  />
<polygon style="stroke:black; stroke-width:1; fill:#FFFFFF; " description="lysine_cyclodeaminase[br]Location: 102594 - 103661" locus_tag="CBW45757.1" id="clusterblast-1_h10_8_65" points="705,85 710,80 712,80 712,90 710,90 705,85 " class="clusterblast-orf"  />
<polygon style="stroke:black; stroke-width:1; fill:#FFFFFF; " description="PI_synthetase_1[br]Location: 103905 - 105653" locus_tag="CBW45758.1" id="clusterblast-1_h10_8_66" points="714,90 721,90 726,85 721,80 714,80 714,90 " class="clusterblast-orf"  />
<polygon style="stroke:black; stroke-width:1; fill:#FFFFFF; " description="L-lysine_2-aminotransferase[br]Location: 105650 - 106918" locus_tag="CBW45759.1" id="clusterblast-1_h10_8_67" points="726,90 730,90 735,85 730,80 726,80 726,90 " class="clusterblast-orf"  />
<polygon style="stroke:black; stroke-width:1; fill:#FFFFFF; " description="4-oxalocrotonate_tautomerase[br]Location: 106971 - 107156" locus_tag="CBW45760.1" id="clusterblast-1_h10_8_68" points="735,90 736,85 735,80 735,90 " class="clusterblast-orf"  />
<polygon style="stroke:black; stroke-width:1; fill:#FFFFFF; " description="protein_of_the_major_Facilitator_superfamily[br]Location: 108396 - 109931" locus_tag="CBW45761.1" id="clusterblast-1_h10_8_69" points="745,85 750,80 755,80 755,90 750,90 745,85 " class="clusterblast-orf"  />
<polygon style="stroke:black; stroke-width:1; fill:#FFFFFF; " description="methylmalonyl-CoA_decarboxylase_alpha-subunit[br]Location: 110412 - 112001" locus_tag="CBW45762.1" id="clusterblast-1_h10_8_70" points="758,85 763,80 769,80 769,90 763,90 758,85 " class="clusterblast-orf"  />
<polygon style="stroke:black; stroke-width:1; fill:#FFFFFF; " description="hypothetical_protein[br]Location: 112144 - 112350" locus_tag="CBW45763.1" id="clusterblast-1_h10_8_71" points="770,85 771,80 771,90 770,85 " class="clusterblast-orf"  />
<polygon style="stroke:black; stroke-width:1; fill:#FFFFFF; " description="hypothetical_protein[br]Location: 112816 - 113238" locus_tag="CBW45764.1" id="clusterblast-1_h10_8_72" points="775,85 778,80 778,90 775,85 " class="clusterblast-orf"  />
</g>
</svg>
