<svg xmlns="http://www.w3.org/2000/svg" height="330" width="800" version="1.1" y="0" x="0" preserveAspectRatio="none" xmlns:xlink="http://www.w3.org/1999/xlink" viewBox="0 0 800 330"  >
<g class="clusterblast-cluster" label="Query sequence"  >
<text class="clusterblast-acc" y="10" x="5"  >
Query sequence</text>
<line y1="35" x2="778.0" style="stroke:grey; stroke-width:1; " x1="10" y2="35"  />
<polygon style="stroke:black; stroke-width:1; fill:#FFFFFF; " description="unannotated orf[br]Location: 1512 - 2448" locus_tag="CHAFR746836_0050080.1" class="clusterblast-orf" points="134,35 139,30 148,30 148,40 139,40 134,35 " id="clusterblast-1_all_62_0_0"  />
<polygon style="stroke:black; stroke-width:1; fill:red; " description="unannotated orf[br]Location: 2882 - 4133" locus_tag="CHAFR746836_0050090.1" class="clusterblast-orf" points="155,35 160,30 175,30 175,40 160,40 155,35 " id="clusterblast-1_all_62_0_1"  />
<polygon style="stroke:black; stroke-width:1; fill:#FFFFFF; " description="unannotated orf[br]Location: 5123 - 5570" locus_tag="CHAFR746836_0050100.1" class="clusterblast-orf" points="190,35 195,30 197,30 197,40 195,40 190,35 " id="clusterblast-1_all_62_0_2"  />
<polygon style="stroke:black; stroke-width:1; fill:#FFFFFF; " description="unannotated orf[br]Location: 8355 - 9336" locus_tag="CHAFR746836_0050110.1" class="clusterblast-orf" points="241,35 246,30 257,30 257,40 246,40 241,35 " id="clusterblast-1_all_62_0_3"  />
<polygon style="stroke:black; stroke-width:1; fill:#FFFFFF; " description="unannotated orf[br]Location: 12324 - 14874" locus_tag="CHAFR746836_0050120.1" class="clusterblast-orf" points="304,35 309,30 344,30 344,40 309,40 304,35 " id="clusterblast-1_all_62_0_4"  />
<polygon style="stroke:black; stroke-width:1; fill:green; " description="unannotated orf[br]Location: 15980 - 17688" locus_tag="CHAFR746836_0050130.1" class="clusterblast-orf" points="361,35 366,30 388,30 388,40 366,40 361,35 " id="clusterblast-1_all_62_0_5"  />
<polygon style="stroke:black; stroke-width:1; fill:blue; " description="unannotated orf[br]Location: 19826 - 23199" locus_tag="CHAFR746836_0050140.1" class="clusterblast-orf" points="421,40 470,40 475,35 470,30 421,30 421,40 " id="clusterblast-1_all_62_0_6"  />
<polygon style="stroke:black; stroke-width:1; fill:yellow; " description="unannotated orf[br]Location: 28885 - 30583" locus_tag="CHAFR746836_0050150.1" class="clusterblast-orf" points="564,40 586,40 591,35 586,30 564,30 564,40 " id="clusterblast-1_all_62_0_7"  />
<polygon style="stroke:black; stroke-width:1; fill:#FFFFFF; " description="unannotated orf[br]Location: 33511 - 34482" locus_tag="CHAFR746836_0050160.1" class="clusterblast-orf" points="637,40 647,40 652,35 647,30 637,30 637,40 " id="clusterblast-1_all_62_0_8"  />
</g>
<g class="clusterblast-cluster" description="Glomerella graminicola M1.001 genomic scaffold supercont1.58..." label="GG697388.1_c1"  >
<text class="clusterblast-acc" y="60" x="5"  >
GG697388.1_c1</text>
<text class="clusterblast-desc" y="60" x="460.8"  >
Glomerella graminicola M1.001 genomic scaffold supercont1.58...</text>
<line y1="85" x2="778.0" style="stroke:grey; stroke-width:1; " x1="10" y2="85"  />
<polygon style="stroke:black; stroke-width:1; fill:#FFFFFF; " description="hypothetical_protein[br]Location: 7938 - 8291" locus_tag="GLRG_10233" id="clusterblast-1_all_62_1_0" points="45,90 45,90 50,85 45,80 45,80 45,90 " class="clusterblast-orf"  />
<polygon style="stroke:black; stroke-width:1; fill:#FFFFFF; " description="dihydropyrimidinase[br]Location: 17675 - 19351" locus_tag="GLRG_10234" id="clusterblast-1_all_62_1_1" points="198,85 203,80 224,80 224,90 203,90 198,85 " class="clusterblast-orf"  />
<polygon style="stroke:black; stroke-width:1; fill:#FFFFFF; " description="carbon-nitrogen_hydrolase[br]Location: 19957 - 21768" locus_tag="GLRG_10235" id="clusterblast-1_all_62_1_2" points="233,90 257,90 262,85 257,80 233,80 233,90 " class="clusterblast-orf"  />
<polygon style="stroke:black; stroke-width:1; fill:#FFFFFF; " description="fungal_specific_transcription_factor[br]Location: 22055 - 24172" locus_tag="GLRG_10236" id="clusterblast-1_all_62_1_3" points="266,90 295,90 300,85 295,80 266,80 266,90 " class="clusterblast-orf"  />
<polygon style="stroke:black; stroke-width:1; fill:green; " description="NCS1_nucleoside_transporter[br]Location: 24302 - 26092&lt;br&gt;&lt;br&gt;&lt;b&gt;BlastP hit with CHAFR746836_0050130.1&lt;/b&gt;&lt;br&gt;Percentage identity: 64%&lt;br&gt;Percentage coverage: 99%&lt;br&gt;BLAST bit score: 716&lt;br&gt;E-value: 0.0" locus_tag="GLRG_10237" id="clusterblast-1_all_62_1_4" points="302,85 307,80 330,80 330,90 307,90 302,85 " class="clusterblast-orf"  />
<polygon style="stroke:black; stroke-width:1; fill:blue; " description="male_sterility_protein[br]Location: 26654 - 30122&lt;br&gt;&lt;br&gt;&lt;b&gt;BlastP hit with CHAFR746836_0050140.1&lt;/b&gt;&lt;br&gt;Percentage identity: 39%&lt;br&gt;Percentage coverage: 86%&lt;br&gt;BLAST bit score: 587&lt;br&gt;E-value: 0.0" locus_tag="GLRG_10238" id="clusterblast-1_all_62_1_5" points="339,90 388,90 393,85 388,80 339,80 339,90 " class="clusterblast-orf"  />
<polygon style="stroke:black; stroke-width:1; fill:#FFFFFF; " description="short-chain_dehydrogenase/reductase_SDR[br]Location: 30623 - 31387" locus_tag="GLRG_10239" id="clusterblast-1_all_62_1_6" points="401,90 408,90 413,85 408,80 401,80 401,90 " class="clusterblast-orf"  />
<polygon style="stroke:black; stroke-width:1; fill:#FFFFFF; " description="hypothetical_protein[br]Location: 32650 - 33933" locus_tag="GLRG_10240" id="clusterblast-1_all_62_1_7" points="433,90 448,90 453,85 448,80 433,80 433,90 " class="clusterblast-orf"  />
<polygon style="stroke:black; stroke-width:1; fill:#FFFFFF; " description="cytidylyltransferase[br]Location: 35759 - 36808" locus_tag="GLRG_10241" id="clusterblast-1_all_62_1_8" points="482,85 487,80 498,80 498,90 487,90 482,85 " class="clusterblast-orf"  />
<polygon style="stroke:black; stroke-width:1; fill:#FFFFFF; " description="glycosyl_transferase_group_1[br]Location: 37150 - 38672" locus_tag="GLRG_10242" id="clusterblast-1_all_62_1_9" points="504,85 509,80 528,80 528,90 509,90 504,85 " class="clusterblast-orf"  />
<polygon style="stroke:black; stroke-width:1; fill:#FFFFFF; " description="enoyl-CoA_hydratase/isomerase[br]Location: 39598 - 40428" locus_tag="GLRG_10243" id="clusterblast-1_all_62_1_10" points="542,90 550,90 555,85 550,80 542,80 542,90 " class="clusterblast-orf"  />
<polygon style="stroke:black; stroke-width:1; fill:#FFFFFF; " description="TBC_domain-containing_protein[br]Location: 40809 - 44027" locus_tag="GLRG_10244" id="clusterblast-1_all_62_1_11" points="561,85 566,80 612,80 612,90 566,90 561,85 " class="clusterblast-orf"  />
<polygon style="stroke:black; stroke-width:1; fill:#FFFFFF; " description="WD_repeat_domain-containing_protein[br]Location: 46755 - 52295" locus_tag="GLRG_10245" id="clusterblast-1_all_62_1_12" points="655,85 660,80 742,80 742,90 660,90 655,85 " class="clusterblast-orf"  />
</g>
<g class="clusterblast-cluster" description="Mycosphaerella graminicola IPO323 chromosome 11, whole genom..." label="CM001206.1_c1"  >
<text class="clusterblast-acc" y="110" x="5"  >
CM001206.1_c1</text>
<text class="clusterblast-desc" y="110" x="460.8"  >
Mycosphaerella graminicola IPO323 chromosome 11, whole genom...</text>
<line y1="135" x2="778.0" style="stroke:grey; stroke-width:1; " x1="10" y2="135"  />
<polygon style="stroke:black; stroke-width:1; fill:#FFFFFF; " description="hypothetical_protein[br]Location: 12765 - 13813" locus_tag="MYCGRDRAFT_96438" id="clusterblast-1_all_62_2_0" points="425,135 430,130 441,130 441,140 430,140 425,135 " class="clusterblast-orf"  />
<polygon style="stroke:black; stroke-width:1; fill:blue; " description="hypothetical_protein[br]Location: 14422 - 16654&lt;br&gt;&lt;br&gt;&lt;b&gt;BlastP hit with CHAFR746836_0050140.1&lt;/b&gt;&lt;br&gt;Percentage identity: 35%&lt;br&gt;Percentage coverage: 26%&lt;br&gt;BLAST bit score: 149&lt;br&gt;E-value: 1e-36" locus_tag="MYCGRDRAFT_96439" id="clusterblast-1_all_62_2_1" points="381,140 411,140 416,135 411,130 381,130 381,140 " class="clusterblast-orf"  />
<polygon style="stroke:black; stroke-width:1; fill:green; " description="hypothetical_protein[br]Location: 17766 - 18792&lt;br&gt;&lt;br&gt;&lt;b&gt;BlastP hit with CHAFR746836_0050130.1&lt;/b&gt;&lt;br&gt;Percentage identity: 73%&lt;br&gt;Percentage coverage: 59%&lt;br&gt;BLAST bit score: 494&lt;br&gt;E-value: 3e-171" locus_tag="MYCGRDRAFT_49811" id="clusterblast-1_all_62_2_2" points="347,135 352,130 363,130 363,140 352,140 347,135 " class="clusterblast-orf"  />
</g>
<g class="clusterblast-cluster" description="Botryotinia fuckeliana isolate T4 SuperContig 277 1 genomic ..." label="FQ790293.1_c2"  >
<text class="clusterblast-acc" y="160" x="5"  >
FQ790293.1_c2</text>
<text class="clusterblast-desc" y="160" x="460.8"  >
Botryotinia fuckeliana isolate T4 SuperContig 277 1 genomic ...</text>
<line y1="185" x2="778.0" style="stroke:grey; stroke-width:1; " x1="10" y2="185"  />
<polygon style="stroke:black; stroke-width:1; fill:#FFFFFF; " description="predicted_protein[br]Location: 765821 - 766000" locus_tag="CCD48590.1" id="clusterblast-1_all_62_3_0" points="10,190 12,185 10,180 10,190 " class="clusterblast-orf"  />
<polygon style="stroke:black; stroke-width:1; fill:red; " description="similar_to_oxidoreductase_domain_containing[br]Location: 766398 - 767655&lt;br&gt;&lt;br&gt;&lt;b&gt;BlastP hit with CHAFR746836_0050090.1&lt;/b&gt;&lt;br&gt;Percentage identity: 61%&lt;br&gt;Percentage coverage: 101%&lt;br&gt;BLAST bit score: 466&lt;br&gt;E-value: 4e-161" locus_tag="CCD48591.1" id="clusterblast-1_all_62_3_1" points="19,190 33,190 38,185 33,180 19,180 19,190 " class="clusterblast-orf"  />
<polygon style="stroke:black; stroke-width:1; fill:#FFFFFF; " description="predicted_protein[br]Location: 770587 - 770850" locus_tag="CCD48592.1" id="clusterblast-1_all_62_3_2" points="84,190 84,190 89,185 84,180 84,180 84,190 " class="clusterblast-orf"  />
<polygon style="stroke:black; stroke-width:1; fill:#FFFFFF; " description="hypothetical_protein[br]Location: 771405 - 771857" locus_tag="CCD48593.1" id="clusterblast-1_all_62_3_3" points="97,185 102,180 104,180 104,190 102,190 97,185 " class="clusterblast-orf"  />
<polygon style="stroke:black; stroke-width:1; fill:yellow; " description="hypothetical_protein[br]Location: 772663 - 774344&lt;br&gt;&lt;br&gt;&lt;b&gt;BlastP hit with CHAFR746836_0050150.1&lt;/b&gt;&lt;br&gt;Percentage identity: 50%&lt;br&gt;Percentage coverage: 99%&lt;br&gt;BLAST bit score: 419&lt;br&gt;E-value: 2e-139" locus_tag="CCD48594.1" id="clusterblast-1_all_62_3_4" points="117,190 139,190 144,185 139,180 117,180 117,190 " class="clusterblast-orf"  />
<polygon style="stroke:black; stroke-width:1; fill:#FFFFFF; " description="hypothetical_protein[br]Location: 775288 - 775727" locus_tag="CCD48595.1" id="clusterblast-1_all_62_3_5" points="158,185 163,180 165,180 165,190 163,190 158,185 " class="clusterblast-orf"  />
<polygon style="stroke:black; stroke-width:1; fill:#FFFFFF; " description="similar_to_50S_ribosomal_protein_L27[br]Location: 776178 - 777069" locus_tag="CCD48596.1" id="clusterblast-1_all_62_3_6" points="172,190 181,190 186,185 181,180 172,180 172,190 " class="clusterblast-orf"  />
<polygon style="stroke:black; stroke-width:1; fill:#FFFFFF; " description="similar_to_SH3_domain-containing_protein[br]Location: 778016 - 781943" locus_tag="CCD48597.1" id="clusterblast-1_all_62_3_7" points="201,185 206,180 263,180 263,190 206,190 201,185 " class="clusterblast-orf"  />
<polygon style="stroke:black; stroke-width:1; fill:#FFFFFF; " description="similar_to_mst3-like_protein_kinase[br]Location: 782456 - 784430" locus_tag="CCD48598.1" id="clusterblast-1_all_62_3_8" points="271,190 297,190 302,185 297,180 271,180 271,190 " class="clusterblast-orf"  />
<polygon style="stroke:black; stroke-width:1; fill:#FFFFFF; " description="predicted_protein[br]Location: 784863 - 785075" locus_tag="CCD48599.1" id="clusterblast-1_all_62_3_9" points="309,185 312,180 312,190 309,185 " class="clusterblast-orf"  />
<polygon style="stroke:black; stroke-width:1; fill:#FFFFFF; " description="BcNRPS4,_nonribosomal_peptide_synthetase,[br]Location: 785710 - 792395" locus_tag="CCD48600.1" id="clusterblast-1_all_62_3_10" points="322,185 327,180 427,180 427,190 327,190 322,185 " class="clusterblast-orf"  />
<polygon style="stroke:black; stroke-width:1; fill:#FFFFFF; " description="BcNRPS4,_nonribosomal_peptide_synthetase,[br]Location: 792452 - 794440" locus_tag="CCD48601.1" id="clusterblast-1_all_62_3_11" points="428,185 433,180 460,180 460,190 433,190 428,185 " class="clusterblast-orf"  />
<polygon style="stroke:black; stroke-width:1; fill:#FFFFFF; " description="predicted_protein[br]Location: 795175 - 795687" locus_tag="CCD48602.1" id="clusterblast-1_all_62_3_12" points="471,185 476,180 479,180 479,190 476,190 471,185 " class="clusterblast-orf"  />
<polygon style="stroke:black; stroke-width:1; fill:#FFFFFF; " description="hypothetical_protein[br]Location: 796417 - 798328" locus_tag="CCD48603.1" id="clusterblast-1_all_62_3_13" points="491,190 516,190 521,185 516,180 491,180 491,190 " class="clusterblast-orf"  />
<polygon style="stroke:black; stroke-width:1; fill:#FFFFFF; " description="hypothetical_protein[br]Location: 798648 - 800295" locus_tag="CCD48604.1" id="clusterblast-1_all_62_3_14" points="526,190 547,190 552,185 547,180 526,180 526,190 " class="clusterblast-orf"  />
<polygon style="stroke:black; stroke-width:1; fill:#FFFFFF; " description="hypothetical_protein[br]Location: 801626 - 802855" locus_tag="CCD48605.1" id="clusterblast-1_all_62_3_15" points="573,185 578,180 592,180 592,190 578,190 573,185 " class="clusterblast-orf"  />
<polygon style="stroke:black; stroke-width:1; fill:#FFFFFF; " description="predicted_protein[br]Location: 804830 - 805210" locus_tag="CCD48606.1" id="clusterblast-1_all_62_3_16" points="623,185 628,180 629,180 629,190 628,190 623,185 " class="clusterblast-orf"  />
<polygon style="stroke:black; stroke-width:1; fill:#FFFFFF; " description="similar_to_carnitine_acetyl_transferase[br]Location: 810634 - 813366" locus_tag="CCD48607.1" id="clusterblast-1_all_62_3_17" points="714,185 719,180 757,180 757,190 719,190 714,185 " class="clusterblast-orf"  />
<polygon style="stroke:black; stroke-width:1; fill:#FFFFFF; " description="hypothetical_protein[br]Location: 813792 - 814070" locus_tag="CCD48608.1" id="clusterblast-1_all_62_3_18" points="764,190 768,185 764,180 764,190 " class="clusterblast-orf"  />
<polygon style="stroke:black; stroke-width:1; fill:#FFFFFF; " description="hypothetical_protein[br]Location: 814423 - 814662" locus_tag="CCD48609.1" id="clusterblast-1_all_62_3_19" points="774,190 778,185 774,180 774,190 " class="clusterblast-orf"  />
</g>
</svg>
