<svg xmlns="http://www.w3.org/2000/svg" height="230" width="800" version="1.1" y="0" x="0" preserveAspectRatio="none" xmlns:xlink="http://www.w3.org/1999/xlink" viewBox="0 0 800 230"  >
<g class="clusterblast-cluster" label="Query sequence"  >
<text class="clusterblast-acc" y="10" x="5"  >
Query sequence</text>
<line y1="35" x2="778.0" style="stroke:grey; stroke-width:1; " x1="10" y2="35"  />
<polygon style="stroke:black; stroke-width:1; fill:#FFFFFF; " description="unannotated orf[br]Location: 1013 - 2670" locus_tag="CHAFR746836_0031900.1" class="clusterblast-orf" points="10,35 15,30 19,30 19,40 15,40 10,35 " id="clusterblast-1_q44_5_0"  />
<polygon style="stroke:black; stroke-width:1; fill:#FFFFFF; " description="unannotated orf[br]Location: 5806 - 8080" locus_tag="CHAFR746836_0031910.1" class="clusterblast-orf" points="38,40 47,40 52,35 47,30 38,30 38,40 " id="clusterblast-1_q44_5_1"  />
<polygon style="stroke:black; stroke-width:1; fill:rgb(190,63,63); " description="unannotated orf[br]Location: 14959 - 16522" locus_tag="CHAFR746836_0031920.1" class="clusterblast-orf" points="93,35 98,30 102,30 102,40 98,40 93,35 " id="clusterblast-1_q44_5_2"  />
<polygon style="stroke:black; stroke-width:1; fill:rgb(63,63,190); " description="unannotated orf[br]Location: 18634 - 27051" locus_tag="CHAFR746836_0031930.1" class="clusterblast-orf" points="115,35 120,30 165,30 165,40 120,40 115,35 " id="clusterblast-1_q44_5_3"  />
<polygon style="stroke:black; stroke-width:1; fill:rgb(63,190,63); " description="unannotated orf[br]Location: 28690 - 31017" locus_tag="CHAFR746836_0031940.1" class="clusterblast-orf" points="174,35 179,30 188,30 188,40 179,40 174,35 " id="clusterblast-1_q44_5_4"  />
<polygon style="stroke:black; stroke-width:1; fill:rgb(190,63,190); " description="unannotated orf[br]Location: 31821 - 32686" locus_tag="CHAFR746836_0031950.1" class="clusterblast-orf" points="193,40 193,40 198,35 193,30 193,30 193,40 " id="clusterblast-1_q44_5_5"  />
<polygon style="stroke:black; stroke-width:1; fill:#FFFFFF; " description="unannotated orf[br]Location: 33127 - 34136" locus_tag="CHAFR746836_0031960.1" class="clusterblast-orf" points="201,35 206,30 207,30 207,40 206,40 201,35 " id="clusterblast-1_q44_5_6"  />
<polygon style="stroke:black; stroke-width:1; fill:#FFFFFF; " description="unannotated orf[br]Location: 34492 - 36671" locus_tag="CHAFR746836_0031970.1" class="clusterblast-orf" points="209,40 217,40 222,35 217,30 209,30 209,40 " id="clusterblast-1_q44_5_7"  />
<polygon style="stroke:black; stroke-width:1; fill:#FFFFFF; " description="unannotated orf[br]Location: 90516 - 91329" locus_tag="CHAFR746836_0031980.1" class="clusterblast-orf" points="543,40 543,40 548,35 543,30 543,30 543,40 " id="clusterblast-1_q44_5_8"  />
<polygon style="stroke:black; stroke-width:1; fill:#FFFFFF; " description="unannotated orf[br]Location: 95107 - 95607" locus_tag="CHAFR746836_0031990.1" class="clusterblast-orf" points="570,35 573,30 573,40 570,35 " id="clusterblast-1_q44_5_9"  />
<polygon style="stroke:black; stroke-width:1; fill:#FFFFFF; " description="unannotated orf[br]Location: 98154 - 98987" locus_tag="CHAFR746836_0032000.1" class="clusterblast-orf" points="589,40 593,35 589,30 589,40 " id="clusterblast-1_q44_5_10"  />
<polygon style="stroke:black; stroke-width:1; fill:#FFFFFF; " description="unannotated orf[br]Location: 110556 - 112350" locus_tag="CHAFR746836_0032010.1" class="clusterblast-orf" points="662,35 667,30 673,30 673,40 667,40 662,35 " id="clusterblast-1_q44_5_11"  />
<polygon style="stroke:black; stroke-width:1; fill:rgb(190,190,63); " description="unannotated orf[br]Location: 112800 - 115534" locus_tag="CHAFR746836_0032020.1" class="clusterblast-orf" points="676,40 687,40 692,35 687,30 676,30 676,40 " id="clusterblast-1_q44_5_12"  />
<polygon style="stroke:black; stroke-width:1; fill:rgb(190,190,190); " description="unannotated orf[br]Location: 116249 - 122294" locus_tag="CHAFR746836_0032030.1" class="clusterblast-orf" points="696,40 727,40 732,35 727,30 696,30 696,40 " id="clusterblast-1_q44_5_13"  />
<polygon style="stroke:black; stroke-width:1; fill:rgb(63,190,190); " description="unannotated orf[br]Location: 126098 - 127042" locus_tag="CHAFR746836_0032040.1" class="clusterblast-orf" points="755,35 760,30 761,30 761,40 760,40 755,35 " id="clusterblast-1_q44_5_14"  />
<polygon style="stroke:black; stroke-width:1; fill:rgb(63,63,63); " description="unannotated orf[br]Location: 128617 - 129857" locus_tag="CHAFR746836_0032050.1" class="clusterblast-orf" points="770,40 773,40 778,35 773,30 770,30 770,40 " id="clusterblast-1_q44_5_15"  />
</g>
<g class="clusterblast-cluster" description="Aspergillus niger ATCC 1015, whole genome shotgun sequen..." label="ACJE01000019.1_c4"  >
<text class="clusterblast-acc" y="60" x="5"  >
ACJE01000019.1_c4</text>
<text class="clusterblast-desc" y="60" x="460.8"  >
Aspergillus niger ATCC 1015, whole genome shotgun sequen...</text>
<line y1="85" x2="778.0" style="stroke:grey; stroke-width:1; " x1="10" y2="85"  />
<polygon style="stroke:black; stroke-width:1; fill:#FFFFFF; " description="hypothetical_protein[br]Location: 999671 - 1004532" locus_tag="ASPNIDRAFT_38983" id="clusterblast-1_h44_5_0" points="253,90 276,90 281,85 276,80 253,80 253,90 " class="clusterblast-orf"  />
<polygon style="stroke:black; stroke-width:1; fill:#FFFFFF; " description="hypothetical_protein[br]Location: 1006332 - 1007264" locus_tag="ASPNIDRAFT_47928" id="clusterblast-1_h44_5_1" points="292,90 293,90 298,85 293,80 292,80 292,90 " class="clusterblast-orf"  />
<polygon style="stroke:black; stroke-width:1; fill:#FFFFFF; " description="hypothetical_protein[br]Location: 1007635 - 1009775" locus_tag="ASPNIDRAFT_178064" id="clusterblast-1_h44_5_2" points="300,90 308,90 313,85 308,80 300,80 300,90 " class="clusterblast-orf"  />
<polygon style="stroke:black; stroke-width:1; fill:#FFFFFF; " description="hypothetical_protein[br]Location: 1010181 - 1012004" locus_tag="ASPNIDRAFT_122527" id="clusterblast-1_h44_5_3" points="315,90 321,90 326,85 321,80 315,80 315,90 " class="clusterblast-orf"  />
<polygon style="stroke:black; stroke-width:1; fill:#FFFFFF; " description="hypothetical_protein[br]Location: 1012649 - 1014238" locus_tag="ASPNIDRAFT_38987" id="clusterblast-1_h44_5_4" points="330,85 335,80 339,80 339,90 335,90 330,85 " class="clusterblast-orf"  />
<polygon style="stroke:black; stroke-width:1; fill:#FFFFFF; " description="hypothetical_protein[br]Location: 1015078 - 1016337" locus_tag="ASPNIDRAFT_38988" id="clusterblast-1_h44_5_5" points="344,85 349,80 352,80 352,90 349,90 344,85 " class="clusterblast-orf"  />
<polygon style="stroke:black; stroke-width:1; fill:rgb(63,63,190); " description="hypothetical_protein[br]Location: 1021584 - 1030266&lt;br&gt;&lt;br&gt;&lt;b&gt;BlastP hit with CHAFR746836_0031930.1&lt;/b&gt;&lt;br&gt;Percentage identity: 34%&lt;br&gt;Percentage coverage: 105%&lt;br&gt;BLAST bit score: 1432&lt;br&gt;E-value: 0.0" locus_tag="ASPNIDRAFT_179079" id="clusterblast-1_h44_5_6" points="383,85 388,80 435,80 435,90 388,90 383,85 " class="clusterblast-orf"  />
<polygon style="stroke:black; stroke-width:1; fill:rgb(63,190,63); " description="hypothetical_protein[br]Location: 1030827 - 1031550&lt;br&gt;&lt;br&gt;&lt;b&gt;BlastP hit with CHAFR746836_0031940.1&lt;/b&gt;&lt;br&gt;Percentage identity: 31%&lt;br&gt;Percentage coverage: 31%&lt;br&gt;BLAST bit score: 78&lt;br&gt;E-value: 5e-15" locus_tag="ASPNIDRAFT_38991" id="clusterblast-1_h44_5_7" points="438,85 443,80 443,80 443,90 443,90 438,85 " class="clusterblast-orf"  />
<polygon style="stroke:black; stroke-width:1; fill:#FFFFFF; " description="monooxygenase[br]Location: 1032106 - 1033892" locus_tag="ASPNIDRAFT_38992" id="clusterblast-1_h44_5_8" points="446,90 451,90 456,85 451,80 446,80 446,90 " class="clusterblast-orf"  />
<polygon style="stroke:black; stroke-width:1; fill:#FFFFFF; " description="hypothetical_protein[br]Location: 1035153 - 1036743" locus_tag="ASPNIDRAFT_179510" id="clusterblast-1_h44_5_9" points="464,85 469,80 473,80 473,90 469,90 464,85 " class="clusterblast-orf"  />
<polygon style="stroke:black; stroke-width:1; fill:#FFFFFF; " description="hypothetical_protein[br]Location: 1037748 - 1038450" locus_tag="ASPNIDRAFT_178352" id="clusterblast-1_h44_5_10" points="479,90 479,90 484,85 479,80 479,80 479,90 " class="clusterblast-orf"  />
<polygon style="stroke:black; stroke-width:1; fill:#FFFFFF; " description="hypothetical_protein[br]Location: 1040920 - 1042838" locus_tag="ASPNIDRAFT_38995" id="clusterblast-1_h44_5_11" points="498,85 503,80 510,80 510,90 503,90 498,85 " class="clusterblast-orf"  />
<polygon style="stroke:black; stroke-width:1; fill:#FFFFFF; " description="hypothetical_protein[br]Location: 1046174 - 1046887" locus_tag="ASPNIDRAFT_38996" id="clusterblast-1_h44_5_12" points="530,85 534,80 534,90 530,85 " class="clusterblast-orf"  />
</g>
</svg>
