<svg xmlns="http://www.w3.org/2000/svg" height="230" width="800" version="1.1" y="0" x="0" preserveAspectRatio="none" xmlns:xlink="http://www.w3.org/1999/xlink" viewBox="0 0 800 230"  >
<g class="clusterblast-cluster" label="Query sequence"  >
<text class="clusterblast-acc" y="10" x="5"  >
Query sequence</text>
<line y1="35" x2="778.0" style="stroke:grey; stroke-width:1; " x1="10" y2="35"  />
<polygon style="stroke:black; stroke-width:1; fill:rgb(190,63,63); " description="unannotated orf[br]Location: 25203 - 26345" locus_tag="CHAFR746836_0077540.1" class="clusterblast-orf" points="157,40 157,40 162,35 157,30 157,30 157,40 " id="clusterblast-1_q10_2_0"  />
<polygon style="stroke:black; stroke-width:1; fill:rgb(63,63,190); " description="unannotated orf[br]Location: 33656 - 34656" locus_tag="CHAFR746836_0077550.1" class="clusterblast-orf" points="200,35 205,30 205,30 205,40 205,40 200,35 " id="clusterblast-1_q10_2_1"  />
<polygon style="stroke:black; stroke-width:1; fill:#FFFFFF; " description="unannotated orf[br]Location: 40941 - 41922" locus_tag="CHAFR746836_0077560.1" class="clusterblast-orf" points="237,40 237,40 242,35 237,30 237,30 237,40 " id="clusterblast-1_q10_2_2"  />
<polygon style="stroke:black; stroke-width:1; fill:#FFFFFF; " description="unannotated orf[br]Location: 42481 - 43285" locus_tag="CHAFR746836_0077570.1" class="clusterblast-orf" points="245,35 249,30 249,40 245,35 " id="clusterblast-1_q10_2_3"  />
<polygon style="stroke:black; stroke-width:1; fill:#FFFFFF; " description="unannotated orf[br]Location: 45175 - 46813" locus_tag="CHAFR746836_0077580.1" class="clusterblast-orf" points="259,40 262,40 267,35 262,30 259,30 259,40 " id="clusterblast-1_q10_2_4"  />
<polygon style="stroke:black; stroke-width:1; fill:#FFFFFF; " description="unannotated orf[br]Location: 52915 - 54699" locus_tag="CHAFR746836_0077590.1" class="clusterblast-orf" points="299,40 303,40 308,35 303,30 299,30 299,40 " id="clusterblast-1_q10_2_5"  />
<polygon style="stroke:black; stroke-width:1; fill:rgb(63,190,63); " description="unannotated orf[br]Location: 56890 - 57476" locus_tag="CHAFR746836_0077600.1" class="clusterblast-orf" points="319,40 322,35 319,30 319,40 " id="clusterblast-1_q10_2_6"  />
<polygon style="stroke:black; stroke-width:1; fill:rgb(190,63,190); " description="unannotated orf[br]Location: 58827 - 59758" locus_tag="CHAFR746836_0077610.1" class="clusterblast-orf" points="329,40 329,40 334,35 329,30 329,30 329,40 " id="clusterblast-1_q10_2_7"  />
<polygon style="stroke:black; stroke-width:1; fill:#FFFFFF; " description="unannotated orf[br]Location: 60873 - 61266" locus_tag="CHAFR746836_0077620.1" class="clusterblast-orf" points="339,35 341,30 341,40 339,35 " id="clusterblast-1_q10_2_8"  />
<polygon style="stroke:black; stroke-width:1; fill:#FFFFFF; " description="unannotated orf[br]Location: 62590 - 64438" locus_tag="CHAFR746836_0077630.1" class="clusterblast-orf" points="348,35 353,30 358,30 358,40 353,40 348,35 " id="clusterblast-1_q10_2_9"  />
<polygon style="stroke:black; stroke-width:1; fill:rgb(190,190,63); " description="unannotated orf[br]Location: 67540 - 77132" locus_tag="CHAFR746836_0077640.1" class="clusterblast-orf" points="373,35 378,30 423,30 423,40 378,40 373,35 " id="clusterblast-1_q10_2_10"  />
<polygon style="stroke:black; stroke-width:1; fill:#FFFFFF; " description="unannotated orf[br]Location: 83720 - 84542" locus_tag="CHAFR746836_0077650.1" class="clusterblast-orf" points="456,40 456,40 461,35 456,30 456,30 456,40 " id="clusterblast-1_q10_2_11"  />
<polygon style="stroke:black; stroke-width:1; fill:#FFFFFF; " description="unannotated orf[br]Location: 85708 - 88797" locus_tag="CHAFR746836_0077660.1" class="clusterblast-orf" points="467,35 472,30 482,30 482,40 472,40 467,35 " id="clusterblast-1_q10_2_12"  />
<polygon style="stroke:black; stroke-width:1; fill:#FFFFFF; " description="unannotated orf[br]Location: 89609 - 90957" locus_tag="CHAFR746836_0077670.1" class="clusterblast-orf" points="487,35 492,30 493,30 493,40 492,40 487,35 " id="clusterblast-1_q10_2_13"  />
<polygon style="stroke:black; stroke-width:1; fill:#FFFFFF; " description="unannotated orf[br]Location: 91271 - 91979" locus_tag="CHAFR746836_0077680.1" class="clusterblast-orf" points="495,40 499,35 495,30 495,40 " id="clusterblast-1_q10_2_14"  />
<polygon style="stroke:black; stroke-width:1; fill:#FFFFFF; " description="unannotated orf[br]Location: 92728 - 93646" locus_tag="CHAFR746836_0077690.1" class="clusterblast-orf" points="503,35 507,30 507,40 503,35 " id="clusterblast-1_q10_2_15"  />
<polygon style="stroke:black; stroke-width:1; fill:#FFFFFF; " description="unannotated orf[br]Location: 94508 - 95510" locus_tag="CHAFR746836_0077700.1" class="clusterblast-orf" points="512,40 512,40 517,35 512,30 512,30 512,40 " id="clusterblast-1_q10_2_16"  />
<polygon style="stroke:black; stroke-width:1; fill:#FFFFFF; " description="unannotated orf[br]Location: 95897 - 96815" locus_tag="CHAFR746836_0077710.1" class="clusterblast-orf" points="519,35 523,30 523,40 519,35 " id="clusterblast-1_q10_2_17"  />
<polygon style="stroke:black; stroke-width:1; fill:rgb(190,190,190); " description="unannotated orf[br]Location: 99791 - 101108" locus_tag="CHAFR746836_0077720.1" class="clusterblast-orf" points="539,40 540,40 545,35 540,30 539,30 539,40 " id="clusterblast-1_q10_2_18"  />
<polygon style="stroke:black; stroke-width:1; fill:#FFFFFF; " description="unannotated orf[br]Location: 105182 - 105691" locus_tag="CHAFR746836_0077730.1" class="clusterblast-orf" points="566,40 569,35 566,30 566,40 " id="clusterblast-1_q10_2_19"  />
<polygon style="stroke:black; stroke-width:1; fill:#FFFFFF; " description="unannotated orf[br]Location: 116324 - 117422" locus_tag="CHAFR746836_0077740.1" class="clusterblast-orf" points="623,35 628,30 629,30 629,40 628,40 623,35 " id="clusterblast-1_q10_2_20"  />
</g>
<g class="clusterblast-cluster" description="Herpetosiphon aurantiacus ATCC 23779, complete genome." label="NC_009972.1_c14"  >
<text class="clusterblast-acc" y="60" x="5"  >
NC_009972.1_c14</text>
<text class="clusterblast-desc" y="60" x="460.8"  >
Herpetosiphon aurantiacus ATCC 23779, complete genome.</text>
<line y1="85" x2="778.0" style="stroke:grey; stroke-width:1; " x1="10" y2="85"  />
<polygon style="stroke:black; stroke-width:1; fill:#FFFFFF; " description="aspartate_carbamoyltransferase_catalytic[br]Location: 5092779 - 5093735" locus_tag="Haur_3992" id="clusterblast-1_h10_2_0" points="10,85 14,80 14,90 10,85 " class="clusterblast-orf"  />
<polygon style="stroke:black; stroke-width:1; fill:#FFFFFF; " description="ATPase[br]Location: 5089620 - 5092703" locus_tag="Haur_3991" id="clusterblast-1_h10_2_1" points="15,85 20,80 31,80 31,90 20,90 15,85 " class="clusterblast-orf"  />
<polygon style="stroke:black; stroke-width:1; fill:#FFFFFF; " description="Uracil_phosphoribosyltransferase[br]Location: 5089084 - 5089620" locus_tag="Haur_3990" id="clusterblast-1_h10_2_2" points="31,85 33,80 33,90 31,85 " class="clusterblast-orf"  />
<polygon style="stroke:black; stroke-width:1; fill:#FFFFFF; " description="glycosyl_transferase_family_protein[br]Location: 5088272 - 5088988" locus_tag="Haur_3989" id="clusterblast-1_h10_2_3" points="34,85 37,80 37,90 34,85 " class="clusterblast-orf"  />
<polygon style="stroke:black; stroke-width:1; fill:#FFFFFF; " description="LAO/AO_transport_system_ATPase[br]Location: 5086987 - 5087961" locus_tag="Haur_3988" id="clusterblast-1_h10_2_4" points="39,85 44,80 44,80 44,90 44,90 39,85 " class="clusterblast-orf"  />
<polygon style="stroke:black; stroke-width:1; fill:#FFFFFF; " description="cobalamin_B12-binding_domain-containing_protein[br]Location: 5086566 - 5086979" locus_tag="Haur_3987" id="clusterblast-1_h10_2_5" points="44,85 46,80 46,90 44,85 " class="clusterblast-orf"  />
<polygon style="stroke:black; stroke-width:1; fill:#FFFFFF; " description="hypothetical_protein[br]Location: 5085132 - 5086451" locus_tag="Haur_3986" id="clusterblast-1_h10_2_6" points="47,85 52,80 54,80 54,90 52,90 47,85 " class="clusterblast-orf"  />
<polygon style="stroke:black; stroke-width:1; fill:#FFFFFF; " description="aspartyl/glutamyl-tRNA_amidotransferase_subunit[br]Location: 5083485 - 5084954" locus_tag="Haur_3985" id="clusterblast-1_h10_2_7" points="54,85 59,80 62,80 62,90 59,90 54,85 " class="clusterblast-orf"  />
<polygon style="stroke:black; stroke-width:1; fill:#FFFFFF; " description="hypothetical_protein[br]Location: 5082581 - 5083171" locus_tag="Haur_3984" id="clusterblast-1_h10_2_8" points="64,90 67,85 64,80 64,90 " class="clusterblast-orf"  />
<polygon style="stroke:black; stroke-width:1; fill:#FFFFFF; " description="hydrolase[br]Location: 5081892 - 5082584" locus_tag="Haur_3983" id="clusterblast-1_h10_2_9" points="67,90 70,85 67,80 67,90 " class="clusterblast-orf"  />
<polygon style="stroke:black; stroke-width:1; fill:rgb(190,63,190); " description="short-chain_dehydrogenase/reductase_SDR[br]Location: 5081069 - 5081908&lt;br&gt;&lt;br&gt;&lt;b&gt;BlastP hit with CHAFR746836_0077610.1&lt;/b&gt;&lt;br&gt;Percentage identity: 32%&lt;br&gt;Percentage coverage: 31%&lt;br&gt;BLAST bit score: 51&lt;br&gt;E-value: 3e-06" locus_tag="Haur_3982" id="clusterblast-1_h10_2_10" points="70,90 74,85 70,80 70,90 " class="clusterblast-orf"  />
<polygon style="stroke:black; stroke-width:1; fill:#FFFFFF; " description="methyltransferase_type_12[br]Location: 5080190 - 5080897" locus_tag="Haur_3981" id="clusterblast-1_h10_2_11" points="75,90 79,85 75,80 75,90 " class="clusterblast-orf"  />
<polygon style="stroke:black; stroke-width:1; fill:#FFFFFF; " description="hypothetical_protein[br]Location: 5079474 - 5079830" locus_tag="Haur_3980" id="clusterblast-1_h10_2_12" points="81,85 83,80 83,90 81,85 " class="clusterblast-orf"  />
<polygon style="stroke:black; stroke-width:1; fill:#FFFFFF; " description="transposase,_IS204/IS1001/IS1096/IS1165_family[br]Location: 5079154 - 5079351" locus_tag="Haur_3979" id="clusterblast-1_h10_2_13" points="83,85 84,80 84,90 83,85 " class="clusterblast-orf"  />
<polygon style="stroke:black; stroke-width:1; fill:#FFFFFF; " description="transposase[br]Location: 5078240 - 5078563" locus_tag="Haur_3978" id="clusterblast-1_h10_2_14" points="87,85 89,80 89,90 87,85 " class="clusterblast-orf"  />
<polygon style="stroke:black; stroke-width:1; fill:#FFFFFF; " description="phospho-2-dehydro-3-deoxyheptonate_aldolase[br]Location: 5076437 - 5077312" locus_tag="Haur_3977" id="clusterblast-1_h10_2_15" points="94,85 98,80 98,90 94,85 " class="clusterblast-orf"  />
<polygon style="stroke:black; stroke-width:1; fill:#FFFFFF; " description="ABC-2_type_transporter[br]Location: 5075486 - 5076355" locus_tag="Haur_3976" id="clusterblast-1_h10_2_16" points="99,85 103,80 103,90 99,85 " class="clusterblast-orf"  />
<polygon style="stroke:black; stroke-width:1; fill:#FFFFFF; " description="ABC_transporter_related[br]Location: 5074514 - 5075473" locus_tag="Haur_3975" id="clusterblast-1_h10_2_17" points="103,85 108,80 108,80 108,90 108,90 103,85 " class="clusterblast-orf"  />
<polygon style="stroke:black; stroke-width:1; fill:#FFFFFF; " description="oleoyl-(acyl-carrier-protein)_hydrolase[br]Location: 5073624 - 5074469" locus_tag="Haur_3974" id="clusterblast-1_h10_2_18" points="108,85 113,80 113,80 113,90 113,90 108,85 " class="clusterblast-orf"  />
<polygon style="stroke:black; stroke-width:1; fill:#FFFFFF; " description="amino_acid_adenylation_domain-containing[br]Location: 5053596 - 5073581" locus_tag="Haur_3973" id="clusterblast-1_h10_2_19" points="113,85 118,80 215,80 215,90 118,90 113,85 " class="clusterblast-orf"  />
<polygon style="stroke:black; stroke-width:1; fill:#FFFFFF; " description="amino_acid_adenylation_domain-containing[br]Location: 5050094 - 5053474" locus_tag="Haur_3972" id="clusterblast-1_h10_2_20" points="216,85 221,80 233,80 233,90 221,90 216,85 " class="clusterblast-orf"  />
<polygon style="stroke:black; stroke-width:1; fill:#FFFFFF; " description="FkbH_like_protein[br]Location: 5048908 - 5049978" locus_tag="Haur_3971" id="clusterblast-1_h10_2_21" points="234,85 239,80 239,80 239,90 239,90 234,85 " class="clusterblast-orf"  />
<polygon style="stroke:black; stroke-width:1; fill:#FFFFFF; " description="acyl-CoA_dehydrogenase_domain-containing[br]Location: 5047747 - 5048877" locus_tag="Haur_3970" id="clusterblast-1_h10_2_22" points="239,85 244,80 245,80 245,90 244,90 239,85 " class="clusterblast-orf"  />
<polygon style="stroke:black; stroke-width:1; fill:#FFFFFF; " description="hypothetical_protein[br]Location: 5047400 - 5047657" locus_tag="Haur_3969" id="clusterblast-1_h10_2_23" points="246,85 247,80 247,90 246,85 " class="clusterblast-orf"  />
<polygon style="stroke:black; stroke-width:1; fill:#FFFFFF; " description="3-hydroxybutyryl-CoA_dehydrogenase[br]Location: 5046458 - 5047309" locus_tag="Haur_3968" id="clusterblast-1_h10_2_24" points="247,85 252,80 252,80 252,90 252,90 247,85 " class="clusterblast-orf"  />
<polygon style="stroke:black; stroke-width:1; fill:#FFFFFF; " description="Beta-ketoacyl_synthase[br]Location: 5037152 - 5046433" locus_tag="Haur_3967" id="clusterblast-1_h10_2_25" points="252,85 257,80 299,80 299,90 257,90 252,85 " class="clusterblast-orf"  />
<polygon style="stroke:black; stroke-width:1; fill:#FFFFFF; " description="Beta-ketoacyl_synthase[br]Location: 5027829 - 5037155" locus_tag="Haur_3966" id="clusterblast-1_h10_2_26" points="299,85 304,80 347,80 347,90 304,90 299,85 " class="clusterblast-orf"  />
<polygon style="stroke:black; stroke-width:1; fill:#FFFFFF; " description="Beta-ketoacyl_synthase[br]Location: 5013803 - 5027743" locus_tag="Haur_3965" id="clusterblast-1_h10_2_27" points="348,85 353,80 419,80 419,90 353,90 348,85 " class="clusterblast-orf"  />
<polygon style="stroke:black; stroke-width:1; fill:#FFFFFF; " description="Beta-ketoacyl_synthase[br]Location: 5004448 - 5013717" locus_tag="Haur_3964" id="clusterblast-1_h10_2_28" points="420,85 425,80 467,80 467,90 425,90 420,85 " class="clusterblast-orf"  />
<polygon style="stroke:black; stroke-width:1; fill:#FFFFFF; " description="Beta-ketoacyl_synthase[br]Location: 4995179 - 5004451" locus_tag="Haur_3963" id="clusterblast-1_h10_2_29" points="467,85 472,80 515,80 515,90 472,90 467,85 " class="clusterblast-orf"  />
<polygon style="stroke:black; stroke-width:1; fill:#FFFFFF; " description="Beta-ketoacyl_synthase[br]Location: 4990434 - 4995182" locus_tag="Haur_3962" id="clusterblast-1_h10_2_30" points="515,85 520,80 539,80 539,90 520,90 515,85 " class="clusterblast-orf"  />
<polygon style="stroke:black; stroke-width:1; fill:rgb(190,190,63); " description="Beta-ketoacyl_synthase[br]Location: 4981029 - 4990421&lt;br&gt;&lt;br&gt;&lt;b&gt;BlastP hit with CHAFR746836_0077640.1&lt;/b&gt;&lt;br&gt;Percentage identity: 31%&lt;br&gt;Percentage coverage: 35%&lt;br&gt;BLAST bit score: 433&lt;br&gt;E-value: 1e-120" locus_tag="Haur_3961" id="clusterblast-1_h10_2_31" points="539,85 544,80 587,80 587,90 544,90 539,85 " class="clusterblast-orf"  />
<polygon style="stroke:black; stroke-width:1; fill:rgb(190,190,63); " description="Beta-ketoacyl_synthase[br]Location: 4974338 - 4981036&lt;br&gt;&lt;br&gt;&lt;b&gt;BlastP hit with CHAFR746836_0077640.1&lt;/b&gt;&lt;br&gt;Percentage identity: 33%&lt;br&gt;Percentage coverage: 44%&lt;br&gt;BLAST bit score: 598&lt;br&gt;E-value: 8e-174" locus_tag="Haur_3960" id="clusterblast-1_h10_2_32" points="587,85 592,80 621,80 621,90 592,90 587,85 " class="clusterblast-orf"  />
<polygon style="stroke:black; stroke-width:1; fill:rgb(190,190,63); " description="Beta-ketoacyl_synthase[br]Location: 4967590 - 4974282&lt;br&gt;&lt;br&gt;&lt;b&gt;BlastP hit with CHAFR746836_0077640.1&lt;/b&gt;&lt;br&gt;Percentage identity: 31%&lt;br&gt;Percentage coverage: 43%&lt;br&gt;BLAST bit score: 537&lt;br&gt;E-value: 8e-154" locus_tag="Haur_3959" id="clusterblast-1_h10_2_33" points="622,85 627,80 656,80 656,90 627,90 622,85 " class="clusterblast-orf"  />
<polygon style="stroke:black; stroke-width:1; fill:#FFFFFF; " description="AMP-dependent_synthetase_and_ligase[br]Location: 4965375 - 4967498" locus_tag="Haur_3958" id="clusterblast-1_h10_2_34" points="656,85 661,80 667,80 667,90 661,90 656,85 " class="clusterblast-orf"  />
<polygon style="stroke:black; stroke-width:1; fill:#FFFFFF; " description="hypothetical_protein[br]Location: 4964758 - 4965294" locus_tag="Haur_3957" id="clusterblast-1_h10_2_35" points="668,85 670,80 670,90 668,85 " class="clusterblast-orf"  />
<polygon style="stroke:black; stroke-width:1; fill:#FFFFFF; " description="hypothetical_protein[br]Location: 4962687 - 4963592" locus_tag="Haur_3956" id="clusterblast-1_h10_2_36" points="676,85 681,80 681,80 681,90 681,90 676,85 " class="clusterblast-orf"  />
<polygon style="stroke:black; stroke-width:1; fill:#FFFFFF; " description="XRE_family_transcriptional_regulator[br]Location: 4962232 - 4962486" locus_tag="Haur_3955" id="clusterblast-1_h10_2_37" points="682,85 683,80 683,90 682,85 " class="clusterblast-orf"  />
<polygon style="stroke:black; stroke-width:1; fill:#FFFFFF; " description="cell_divisionFtsK/SpoIIIE[br]Location: 4960950 - 4962131" locus_tag="Haur_3954" id="clusterblast-1_h10_2_38" points="684,90 685,90 690,85 685,80 684,80 684,90 " class="clusterblast-orf"  />
<polygon style="stroke:black; stroke-width:1; fill:#FFFFFF; " description="Tn7-like_transposition_protein_D[br]Location: 4958928 - 4960721" locus_tag="Haur_3953" id="clusterblast-1_h10_2_39" points="691,85 696,80 700,80 700,90 696,90 691,85 " class="clusterblast-orf"  />
<polygon style="stroke:black; stroke-width:1; fill:#FFFFFF; " description="Tn7-like_transposition_protein_C[br]Location: 4957277 - 4958779" locus_tag="Haur_3952" id="clusterblast-1_h10_2_40" points="701,85 706,80 709,80 709,90 706,90 701,85 " class="clusterblast-orf"  />
<polygon style="stroke:black; stroke-width:1; fill:#FFFFFF; " description="TnsA_endonuclease[br]Location: 4954270 - 4955100" locus_tag="Haur_3949" id="clusterblast-1_h10_2_41" points="720,85 724,80 724,90 720,85 " class="clusterblast-orf"  />
<polygon style="stroke:black; stroke-width:1; fill:#FFFFFF; " description="glucosamine--fructose-6-phosphate[br]Location: 4951524 - 4953368" locus_tag="Haur_3948" id="clusterblast-1_h10_2_42" points="729,85 734,80 738,80 738,90 734,90 729,85 " class="clusterblast-orf"  />
<polygon style="stroke:black; stroke-width:1; fill:#FFFFFF; " description="serine/threonine_protein_kinase[br]Location: 4948836 - 4950644" locus_tag="Haur_3947" id="clusterblast-1_h10_2_43" points="743,90 747,90 752,85 747,80 743,80 743,90 " class="clusterblast-orf"  />
<polygon style="stroke:black; stroke-width:1; fill:#FFFFFF; " description="serine/threonine_protein_kinase[br]Location: 4946861 - 4948624" locus_tag="Haur_3946" id="clusterblast-1_h10_2_44" points="753,90 757,90 762,85 757,80 753,80 753,90 " class="clusterblast-orf"  />
<polygon style="stroke:black; stroke-width:1; fill:#FFFFFF; " description="hypothetical_protein[br]Location: 4943862 - 4946678" locus_tag="Haur_3945" id="clusterblast-1_h10_2_45" points="763,90 773,90 778,85 773,80 763,80 763,90 " class="clusterblast-orf"  />
</g>
</svg>
