<svg xmlns="http://www.w3.org/2000/svg" height="230" width="800" version="1.1" y="0" x="0" preserveAspectRatio="none" xmlns:xlink="http://www.w3.org/1999/xlink" viewBox="0 0 800 230"  >
<g class="clusterblast-cluster" label="Query sequence"  >
<text class="clusterblast-acc" y="10" x="5"  >
Query sequence</text>
<line y1="35" x2="778.0" style="stroke:grey; stroke-width:1; " x1="10" y2="35"  />
<polygon style="stroke:black; stroke-width:1; fill:red; " description="unannotated orf[br]Location: 18826 - 24323" locus_tag="CHAFR746836_0048040.1" class="clusterblast-orf" points="237,35 242,30 325,30 325,40 242,40 237,35 " id="clusterblast-1_q57_2_0"  />
<polygon style="stroke:black; stroke-width:1; fill:#FFFFFF; " description="unannotated orf[br]Location: 27327 - 29289" locus_tag="CHAFR746836_0048050.1" class="clusterblast-orf" points="373,35 378,30 404,30 404,40 378,40 373,35 " id="clusterblast-1_q57_2_1"  />
<polygon style="stroke:black; stroke-width:1; fill:green; " description="unannotated orf[br]Location: 31909 - 32971" locus_tag="CHAFR746836_0048060.1" class="clusterblast-orf" points="446,40 458,40 463,35 458,30 446,30 446,40 " id="clusterblast-1_q57_2_2"  />
<polygon style="stroke:black; stroke-width:1; fill:blue; " description="unannotated orf[br]Location: 33755 - 35353" locus_tag="CHAFR746836_0048070.1" class="clusterblast-orf" points="476,35 481,30 502,30 502,40 481,40 476,35 " id="clusterblast-1_q57_2_3"  />
<polygon style="stroke:black; stroke-width:1; fill:yellow; " description="unannotated orf[br]Location: 36309 - 38321" locus_tag="CHAFR746836_0048080.1" class="clusterblast-orf" points="517,40 544,40 549,35 544,30 517,30 517,40 " id="clusterblast-1_q57_2_4"  />
</g>
<g class="clusterblast-cluster" description="Trichophyton tonsurans CBS 112818 genomic scaffold supercont..." label="GG698481.1_c2"  >
<text class="clusterblast-acc" y="60" x="5"  >
GG698481.1_c2</text>
<text class="clusterblast-desc" y="60" x="460.8"  >
Trichophyton tonsurans CBS 112818 genomic scaffold supercont...</text>
<line y1="85" x2="778.0" style="stroke:grey; stroke-width:1; " x1="10" y2="85"  />
<polygon style="stroke:black; stroke-width:1; fill:#FFFFFF; " description="CMGC/CDK/CDC2_protein_kinase[br]Location: 633163 - 634336" locus_tag="TESG_01590" id="clusterblast-1_h57_2_0" points="10,85 15,80 28,80 28,90 15,90 10,85 " class="clusterblast-orf"  />
<polygon style="stroke:black; stroke-width:1; fill:#FFFFFF; " description="oxidoreductase[br]Location: 635138 - 636275" locus_tag="TESG_01591" id="clusterblast-1_h57_2_1" points="41,90 54,90 59,85 54,80 41,80 41,90 " class="clusterblast-orf"  />
<polygon style="stroke:black; stroke-width:1; fill:#FFFFFF; " description="hypothetical_protein[br]Location: 637248 - 637881" locus_tag="TESG_01592" id="clusterblast-1_h57_2_2" points="75,90 80,90 85,85 80,80 75,80 75,90 " class="clusterblast-orf"  />
<polygon style="stroke:black; stroke-width:1; fill:#FFFFFF; " description="hypothetical_protein[br]Location: 638829 - 640847" locus_tag="TESG_01593" id="clusterblast-1_h57_2_3" points="100,90 128,90 133,85 128,80 100,80 100,90 " class="clusterblast-orf"  />
<polygon style="stroke:black; stroke-width:1; fill:#FFFFFF; " description="hypothetical_protein[br]Location: 642362 - 643827" locus_tag="TESG_01594" id="clusterblast-1_h57_2_4" points="157,85 162,80 181,80 181,90 162,90 157,85 " class="clusterblast-orf"  />
<polygon style="stroke:black; stroke-width:1; fill:#FFFFFF; " description="hypothetical_protein[br]Location: 644478 - 645599" locus_tag="TESG_01595" id="clusterblast-1_h57_2_5" points="191,85 196,80 209,80 209,90 196,90 191,85 " class="clusterblast-orf"  />
<polygon style="stroke:black; stroke-width:1; fill:blue; " description="MFS_multidrug_transporter[br]Location: 647138 - 648848&lt;br&gt;&lt;br&gt;&lt;b&gt;BlastP hit with CHAFR746836_0048070.1&lt;/b&gt;&lt;br&gt;Percentage identity: 46%&lt;br&gt;Percentage coverage: 101%&lt;br&gt;BLAST bit score: 443&lt;br&gt;E-value: 6e-150" locus_tag="TESG_01596" id="clusterblast-1_h57_2_6" points="234,85 239,80 261,80 261,90 239,90 234,85 " class="clusterblast-orf"  />
<polygon style="stroke:black; stroke-width:1; fill:yellow; " description="fungal_specific_transcription_factor[br]Location: 650459 - 652719&lt;br&gt;&lt;br&gt;&lt;b&gt;BlastP hit with CHAFR746836_0048080.1&lt;/b&gt;&lt;br&gt;Percentage identity: 39%&lt;br&gt;Percentage coverage: 95%&lt;br&gt;BLAST bit score: 394&lt;br&gt;E-value: 1e-126" locus_tag="TESG_01597" id="clusterblast-1_h57_2_7" points="287,90 318,90 323,85 318,80 287,80 287,90 " class="clusterblast-orf"  />
<polygon style="stroke:black; stroke-width:1; fill:red; " description="polyketide_synthase[br]Location: 654107 - 661977&lt;br&gt;&lt;br&gt;&lt;b&gt;BlastP hit with CHAFR746836_0048040.1&lt;/b&gt;&lt;br&gt;Percentage identity: 42%&lt;br&gt;Percentage coverage: 101%&lt;br&gt;BLAST bit score: 1414&lt;br&gt;E-value: 0.0&lt;br&gt;&lt;br&gt;&lt;b&gt;BlastP hit with CHAFR746836_0048050.1&lt;/b&gt;&lt;br&gt;Percentage identity: 61%&lt;br&gt;Percentage coverage: 98%&lt;br&gt;BLAST bit score: 701&lt;br&gt;E-value: 0.0" locus_tag="TESG_01598" id="clusterblast-1_h57_2_8" points="346,90 467,90 472,85 467,80 346,80 346,90 " class="clusterblast-orf"  />
<polygon style="stroke:black; stroke-width:1; fill:#FFFFFF; " description="hypothetical_protein[br]Location: 662368 - 664349" locus_tag="TESG_01599" id="clusterblast-1_h57_2_9" points="478,85 483,80 510,80 510,90 483,90 478,85 " class="clusterblast-orf"  />
<polygon style="stroke:black; stroke-width:1; fill:#FFFFFF; " description="hypothetical_protein[br]Location: 667279 - 668528" locus_tag="TESG_01600" id="clusterblast-1_h57_2_10" points="557,90 572,90 577,85 572,80 557,80 557,90 " class="clusterblast-orf"  />
<polygon style="stroke:black; stroke-width:1; fill:#FFFFFF; " description="hypothetical_protein[br]Location: 668733 - 669185" locus_tag="TESG_01601" id="clusterblast-1_h57_2_11" points="580,85 585,80 587,80 587,90 585,90 580,85 " class="clusterblast-orf"  />
<polygon style="stroke:black; stroke-width:1; fill:#FFFFFF; " description="hypothetical_protein[br]Location: 669490 - 670080" locus_tag="TESG_01602" id="clusterblast-1_h57_2_12" points="592,85 597,80 602,80 602,90 597,90 592,85 " class="clusterblast-orf"  />
<polygon style="stroke:black; stroke-width:1; fill:#FFFFFF; " description="dienelactone_hydrolase[br]Location: 670088 - 671274" locus_tag="TESG_01603" id="clusterblast-1_h57_2_13" points="602,90 616,90 621,85 616,80 602,80 602,90 " class="clusterblast-orf"  />
<polygon style="stroke:black; stroke-width:1; fill:#FFFFFF; " description="laccase[br]Location: 671563 - 673437" locus_tag="TESG_01604" id="clusterblast-1_h57_2_14" points="626,85 631,80 656,80 656,90 631,90 626,85 " class="clusterblast-orf"  />
<polygon style="stroke:black; stroke-width:1; fill:#FFFFFF; " description="hypothetical_protein[br]Location: 674081 - 675175" locus_tag="TESG_01605" id="clusterblast-1_h57_2_15" points="666,90 679,90 684,85 679,80 666,80 666,90 " class="clusterblast-orf"  />
<polygon style="stroke:black; stroke-width:1; fill:#FFFFFF; " description="hypothetical_protein[br]Location: 675351 - 676245" locus_tag="TESG_01606" id="clusterblast-1_h57_2_16" points="686,85 691,80 701,80 701,90 691,90 686,85 " class="clusterblast-orf"  />
<polygon style="stroke:black; stroke-width:1; fill:#FFFFFF; " description="monocarboxylate_transporter[br]Location: 677260 - 678801" locus_tag="TESG_01607" id="clusterblast-1_h57_2_17" points="717,90 737,90 742,85 737,80 717,80 717,90 " class="clusterblast-orf"  />
<polygon style="stroke:black; stroke-width:1; fill:#FFFFFF; " description="hypothetical_protein[br]Location: 680026 - 681032" locus_tag="TESG_01608" id="clusterblast-1_h57_2_18" points="761,85 766,80 778,80 778,90 766,90 761,85 " class="clusterblast-orf"  />
</g>
</svg>
