<svg xmlns="http://www.w3.org/2000/svg" height="230" width="800" version="1.1" y="0" x="0" preserveAspectRatio="none" xmlns:xlink="http://www.w3.org/1999/xlink" viewBox="0 0 800 230"  >
<g class="clusterblast-cluster" label="Query sequence"  >
<text class="clusterblast-acc" y="10" x="5"  >
Query sequence</text>
<line y1="35" x2="778.0" style="stroke:grey; stroke-width:1; " x1="10" y2="35"  />
<polygon style="stroke:black; stroke-width:1; fill:#FFFFFF; " description="unannotated orf[br]Location: 489 - 2721" locus_tag="CHAFR746836_0051070.1" class="clusterblast-orf" points="10,35 15,30 29,30 29,40 15,40 10,35 " id="clusterblast-1_q63_9_0"  />
<polygon style="stroke:black; stroke-width:1; fill:#FFFFFF; " description="unannotated orf[br]Location: 4200 - 5219" locus_tag="CHAFR746836_0051080.1" class="clusterblast-orf" points="41,35 46,30 50,30 50,40 46,40 41,35 " id="clusterblast-1_q63_9_1"  />
<polygon style="stroke:black; stroke-width:1; fill:#FFFFFF; " description="unannotated orf[br]Location: 6660 - 7800" locus_tag="CHAFR746836_0051090.1" class="clusterblast-orf" points="62,40 67,40 72,35 67,30 62,30 62,40 " id="clusterblast-1_q63_9_2"  />
<polygon style="stroke:black; stroke-width:1; fill:rgb(190,63,63); " description="unannotated orf[br]Location: 26765 - 27965" locus_tag="CHAFR746836_0051100.1" class="clusterblast-orf" points="233,40 239,40 244,35 239,30 233,30 233,40 " id="clusterblast-1_q63_9_3"  />
<polygon style="stroke:black; stroke-width:1; fill:rgb(63,63,190); " description="unannotated orf[br]Location: 28597 - 39479" locus_tag="CHAFR746836_0051110.1" class="clusterblast-orf" points="249,40 337,40 342,35 337,30 249,30 249,40 " id="clusterblast-1_q63_9_4"  />
<polygon style="stroke:black; stroke-width:1; fill:rgb(63,190,63); " description="unannotated orf[br]Location: 40061 - 41918" locus_tag="CHAFR746836_0051120.1" class="clusterblast-orf" points="347,40 358,40 363,35 358,30 347,30 347,40 " id="clusterblast-1_q63_9_5"  />
<polygon style="stroke:black; stroke-width:1; fill:rgb(190,63,190); " description="unannotated orf[br]Location: 43238 - 44908" locus_tag="CHAFR746836_0051130.1" class="clusterblast-orf" points="374,40 383,40 388,35 383,30 374,30 374,40 " id="clusterblast-1_q63_9_6"  />
<polygon style="stroke:black; stroke-width:1; fill:#FFFFFF; " description="unannotated orf[br]Location: 47854 - 53058" locus_tag="CHAFR746836_0051140.1" class="clusterblast-orf" points="413,35 418,30 458,30 458,40 418,40 413,35 " id="clusterblast-1_q63_9_7"  />
<polygon style="stroke:black; stroke-width:1; fill:rgb(190,190,63); " description="unannotated orf[br]Location: 53967 - 56732" locus_tag="CHAFR746836_0051150.1" class="clusterblast-orf" points="465,40 484,40 489,35 484,30 465,30 465,40 " id="clusterblast-1_q63_9_8"  />
<polygon style="stroke:black; stroke-width:1; fill:#FFFFFF; " description="unannotated orf[br]Location: 58548 - 59100" locus_tag="CHAFR746836_0051160.1" class="clusterblast-orf" points="504,35 509,30 509,30 509,40 509,40 504,35 " id="clusterblast-1_q63_9_9"  />
<polygon style="stroke:black; stroke-width:1; fill:#FFFFFF; " description="unannotated orf[br]Location: 60871 - 61857" locus_tag="CHAFR746836_0051170.1" class="clusterblast-orf" points="524,40 528,40 533,35 528,30 524,30 524,40 " id="clusterblast-1_q63_9_10"  />
<polygon style="stroke:black; stroke-width:1; fill:#FFFFFF; " description="unannotated orf[br]Location: 63105 - 64083" locus_tag="CHAFR746836_0051180.1" class="clusterblast-orf" points="543,35 548,30 552,30 552,40 548,40 543,35 " id="clusterblast-1_q63_9_11"  />
<polygon style="stroke:black; stroke-width:1; fill:#FFFFFF; " description="unannotated orf[br]Location: 67899 - 70038" locus_tag="CHAFR746836_0051190.1" class="clusterblast-orf" points="584,40 597,40 602,35 597,30 584,30 584,40 " id="clusterblast-1_q63_9_12"  />
<polygon style="stroke:black; stroke-width:1; fill:#FFFFFF; " description="unannotated orf[br]Location: 72649 - 74314" locus_tag="CHAFR746836_0051200.1" class="clusterblast-orf" points="625,35 630,30 639,30 639,40 630,40 625,35 " id="clusterblast-1_q63_9_13"  />
<polygon style="stroke:black; stroke-width:1; fill:#FFFFFF; " description="unannotated orf[br]Location: 77147 - 77748" locus_tag="CHAFR746836_0051210.1" class="clusterblast-orf" points="663,40 663,40 668,35 663,30 663,30 663,40 " id="clusterblast-1_q63_9_14"  />
<polygon style="stroke:black; stroke-width:1; fill:#FFFFFF; " description="unannotated orf[br]Location: 78975 - 79809" locus_tag="CHAFR746836_0051220.1" class="clusterblast-orf" points="679,40 681,40 686,35 681,30 679,30 679,40 " id="clusterblast-1_q63_9_15"  />
<polygon style="stroke:black; stroke-width:1; fill:#FFFFFF; " description="unannotated orf[br]Location: 85804 - 86841" locus_tag="CHAFR746836_0051230.1" class="clusterblast-orf" points="737,35 742,30 746,30 746,40 742,40 737,35 " id="clusterblast-1_q63_9_16"  />
<polygon style="stroke:black; stroke-width:1; fill:#FFFFFF; " description="unannotated orf[br]Location: 88142 - 90586" locus_tag="CHAFR746836_0051240.1" class="clusterblast-orf" points="757,35 762,30 778,30 778,40 762,40 757,35 " id="clusterblast-1_q63_9_17"  />
</g>
<g class="clusterblast-cluster" description="Botryotinia fuckeliana isolate T4 SuperContig 29 1 genomic s..." label="FQ790287.1_c2"  >
<text class="clusterblast-acc" y="60" x="5"  >
FQ790287.1_c2</text>
<text class="clusterblast-desc" y="60" x="460.8"  >
Botryotinia fuckeliana isolate T4 SuperContig 29 1 genomic s...</text>
<line y1="85" x2="778.0" style="stroke:grey; stroke-width:1; " x1="10" y2="85"  />
<polygon style="stroke:black; stroke-width:1; fill:#FFFFFF; " description="hypothetical_protein[br]Location: 545582 - 547253" locus_tag="CCD47784.1" id="clusterblast-1_h63_9_0" points="154,85 159,80 168,80 168,90 159,90 154,85 " class="clusterblast-orf"  />
<polygon style="stroke:black; stroke-width:1; fill:#FFFFFF; " description="similar_to_37S_ribosomal_protein_S11[br]Location: 547516 - 548298" locus_tag="CCD47785.1" id="clusterblast-1_h63_9_1" points="170,90 172,90 177,85 172,80 170,80 170,90 " class="clusterblast-orf"  />
<polygon style="stroke:black; stroke-width:1; fill:#FFFFFF; " description="hypothetical_protein[br]Location: 548487 - 549290" locus_tag="CCD47786.1" id="clusterblast-1_h63_9_2" points="178,85 183,80 185,80 185,90 183,90 178,85 " class="clusterblast-orf"  />
<polygon style="stroke:black; stroke-width:1; fill:#FFFFFF; " description="similar_to_GTP-binding_protein[br]Location: 550043 - 551591" locus_tag="CCD47787.1" id="clusterblast-1_h63_9_3" points="192,90 200,90 205,85 200,80 192,80 192,90 " class="clusterblast-orf"  />
<polygon style="stroke:black; stroke-width:1; fill:#FFFFFF; " description="predicted_protein[br]Location: 551759 - 552188" locus_tag="CCD47788.1" id="clusterblast-1_h63_9_4" points="206,90 210,85 206,80 206,90 " class="clusterblast-orf"  />
<polygon style="stroke:black; stroke-width:1; fill:#FFFFFF; " description="similar_to_major_facilitator_superfamily[br]Location: 553801 - 555551" locus_tag="CCD47789.1" id="clusterblast-1_h63_9_5" points="224,90 233,90 238,85 233,80 224,80 224,90 " class="clusterblast-orf"  />
<polygon style="stroke:black; stroke-width:1; fill:#FFFFFF; " description="hypothetical_protein[br]Location: 557692 - 558258" locus_tag="CCD47790.1" id="clusterblast-1_h63_9_6" points="257,85 262,80 262,80 262,90 262,90 257,85 " class="clusterblast-orf"  />
<polygon style="stroke:black; stroke-width:1; fill:#FFFFFF; " description="similar_to_phytanoyl-CoA_dioxygenase[br]Location: 561495 - 562391" locus_tag="CCD47791.1" id="clusterblast-1_h63_9_7" points="289,90 292,90 297,85 292,80 289,80 289,90 " class="clusterblast-orf"  />
<polygon style="stroke:black; stroke-width:1; fill:#FFFFFF; " description="similar_to_cyclohexanone_1,2-monooxygenase[br]Location: 562797 - 564401" locus_tag="CCD47792.1" id="clusterblast-1_h63_9_8" points="300,90 309,90 314,85 309,80 300,80 300,90 " class="clusterblast-orf"  />
<polygon style="stroke:black; stroke-width:1; fill:#FFFFFF; " description="BcNRPS8,_nonribosomal_peptide_synthetase[br]Location: 565439 - 570271" locus_tag="CCD47793.1" id="clusterblast-1_h63_9_9" points="323,85 328,80 364,80 364,90 328,90 323,85 " class="clusterblast-orf"  />
<polygon style="stroke:black; stroke-width:1; fill:#FFFFFF; " description="hypothetical_protein[br]Location: 570480 - 571325" locus_tag="CCD47794.1" id="clusterblast-1_h63_9_10" points="366,85 371,80 373,80 373,90 371,90 366,85 " class="clusterblast-orf"  />
<polygon style="stroke:black; stroke-width:1; fill:#FFFFFF; " description="hypothetical_protein[br]Location: 572470 - 573768" locus_tag="CCD47795.1" id="clusterblast-1_h63_9_11" points="383,90 389,90 394,85 389,80 383,80 383,90 " class="clusterblast-orf"  />
<polygon style="stroke:black; stroke-width:1; fill:#FFFFFF; " description="similar_to_amp-dependent_synthetase_and_ligase[br]Location: 574435 - 576095" locus_tag="CCD47796.1" id="clusterblast-1_h63_9_12" points="399,85 404,80 414,80 414,90 404,90 399,85 " class="clusterblast-orf"  />
<polygon style="stroke:black; stroke-width:1; fill:#FFFFFF; " description="similar_to_EF-hand_calcium-binding_domain[br]Location: 576833 - 577673" locus_tag="CCD47797.1" id="clusterblast-1_h63_9_13" points="420,90 422,90 427,85 422,80 420,80 420,90 " class="clusterblast-orf"  />
<polygon style="stroke:black; stroke-width:1; fill:rgb(190,63,63); " description="BcPKS4,_polyketide_synthase,_partial_sequence[br]Location: 579187 - 580181&lt;br&gt;&lt;br&gt;&lt;b&gt;BlastP hit with CHAFR746836_0051100.1&lt;/b&gt;&lt;br&gt;Percentage identity: 52%&lt;br&gt;Percentage coverage: 90%&lt;br&gt;BLAST bit score: 318&lt;br&gt;E-value: 1e-105" locus_tag="CCD47798.1" id="clusterblast-1_h63_9_14" points="440,90 443,90 448,85 443,80 440,80 440,90 " class="clusterblast-orf"  />
<polygon style="stroke:black; stroke-width:1; fill:rgb(63,63,190); " description="BcPKS4,_polyketide_synthase,_partial_sequence[br]Location: 581600 - 587255&lt;br&gt;&lt;br&gt;&lt;b&gt;BlastP hit with CHAFR746836_0051110.1&lt;/b&gt;&lt;br&gt;Percentage identity: 31%&lt;br&gt;Percentage coverage: 54%&lt;br&gt;BLAST bit score: 909&lt;br&gt;E-value: 0.0" locus_tag="CCD47799.1" id="clusterblast-1_h63_9_15" points="461,90 504,90 509,85 504,80 461,80 461,90 " class="clusterblast-orf"  />
<polygon style="stroke:black; stroke-width:1; fill:#FFFFFF; " description="hypothetical_protein[br]Location: 587410 - 587580" locus_tag="CCD47800.1" id="clusterblast-1_h63_9_16" points="510,90 511,85 510,80 510,90 " class="clusterblast-orf"  />
<polygon style="stroke:black; stroke-width:1; fill:#FFFFFF; " description="similar_to_small_glutamine-rich[br]Location: 587967 - 589094" locus_tag="CCD47801.1" id="clusterblast-1_h63_9_17" points="515,90 519,90 524,85 519,80 515,80 515,90 " class="clusterblast-orf"  />
<polygon style="stroke:black; stroke-width:1; fill:#FFFFFF; " description="predicted_protein[br]Location: 590725 - 590874" locus_tag="CCD47802.1" id="clusterblast-1_h63_9_18" points="538,85 540,80 540,90 538,85 " class="clusterblast-orf"  />
<polygon style="stroke:black; stroke-width:1; fill:#FFFFFF; " description="similar_to_glycerol_dehydrogenase_(GldB)[br]Location: 592685 - 593715" locus_tag="CCD47803.1" id="clusterblast-1_h63_9_19" points="555,85 560,80 564,80 564,90 560,90 555,85 " class="clusterblast-orf"  />
<polygon style="stroke:black; stroke-width:1; fill:#FFFFFF; " description="hypothetical_protein[br]Location: 594696 - 595436" locus_tag="CCD47804.1" id="clusterblast-1_h63_9_20" points="572,90 573,90 578,85 573,80 572,80 572,90 " class="clusterblast-orf"  />
<polygon style="stroke:black; stroke-width:1; fill:#FFFFFF; " description="BcPIO5,_similar_to_phosphatidyl_synthase[br]Location: 595675 - 597162" locus_tag="CCD47805.1" id="clusterblast-1_h63_9_21" points="581,90 588,90 593,85 588,80 581,80 581,90 " class="clusterblast-orf"  />
<polygon style="stroke:black; stroke-width:1; fill:#FFFFFF; " description="hypothetical_protein[br]Location: 599201 - 601682" locus_tag="CCD47806.1" id="clusterblast-1_h63_9_22" points="611,90 627,90 632,85 627,80 611,80 611,90 " class="clusterblast-orf"  />
</g>
</svg>
