<svg xmlns="http://www.w3.org/2000/svg" height="230" width="800" version="1.1" y="0" x="0" preserveAspectRatio="none" xmlns:xlink="http://www.w3.org/1999/xlink" viewBox="0 0 800 230"  >
<g class="clusterblast-cluster" label="Query sequence"  >
<text class="clusterblast-acc" y="10" x="5"  >
Query sequence</text>
<line y1="35" x2="778.0" style="stroke:grey; stroke-width:1; " x1="10" y2="35"  />
<polygon style="stroke:black; stroke-width:1; fill:#FFFFFF; " description="unannotated orf[br]Location: 1502 - 2717" locus_tag="CHAFR746836_0018730.1" class="clusterblast-orf" points="296,40 299,40 304,35 299,30 296,30 296,40 " id="clusterblast-1_q38_9_0"  />
<polygon style="stroke:black; stroke-width:1; fill:#FFFFFF; " description="unannotated orf[br]Location: 5434 - 6658" locus_tag="CHAFR746836_0018740.1" class="clusterblast-orf" points="322,40 325,40 330,35 325,30 322,30 322,40 " id="clusterblast-1_q38_9_1"  />
<polygon style="stroke:black; stroke-width:1; fill:rgb(190,63,63); " description="unannotated orf[br]Location: 8194 - 15527" locus_tag="CHAFR746836_0018750.1" class="clusterblast-orf" points="341,35 346,30 390,30 390,40 346,40 341,35 " id="clusterblast-1_q38_9_2"  />
<polygon style="stroke:black; stroke-width:1; fill:rgb(63,63,190); " description="unannotated orf[br]Location: 16107 - 17386" locus_tag="CHAFR746836_0018760.1" class="clusterblast-orf" points="394,40 398,40 403,35 398,30 394,30 394,40 " id="clusterblast-1_q38_9_3"  />
<polygon style="stroke:black; stroke-width:1; fill:rgb(63,190,63); " description="unannotated orf[br]Location: 18113 - 19107" locus_tag="CHAFR746836_0018770.1" class="clusterblast-orf" points="408,40 410,40 415,35 410,30 408,30 408,40 " id="clusterblast-1_q38_9_4"  />
<polygon style="stroke:black; stroke-width:1; fill:#FFFFFF; " description="unannotated orf[br]Location: 21941 - 23810" locus_tag="CHAFR746836_0018780.1" class="clusterblast-orf" points="434,40 442,40 447,35 442,30 434,30 434,40 " id="clusterblast-1_q38_9_5"  />
<polygon style="stroke:black; stroke-width:1; fill:rgb(190,63,190); " description="unannotated orf[br]Location: 25428 - 26120" locus_tag="CHAFR746836_0018790.1" class="clusterblast-orf" points="458,40 462,35 458,30 458,40 " id="clusterblast-1_q38_9_6"  />
<polygon style="stroke:black; stroke-width:1; fill:rgb(190,190,63); " description="unannotated orf[br]Location: 28320 - 30189" locus_tag="CHAFR746836_0018800.1" class="clusterblast-orf" points="477,35 482,30 490,30 490,40 482,40 477,35 " id="clusterblast-1_q38_9_7"  />
</g>
<g class="clusterblast-cluster" description="Trichoderma virens Gv29-8 TRIVIscaffold 6, whole genome ..." label="ABDF02000006.1_c3"  >
<text class="clusterblast-acc" y="60" x="5"  >
ABDF02000006.1_c3</text>
<text class="clusterblast-desc" y="60" x="460.8"  >
Trichoderma virens Gv29-8 TRIVIscaffold 6, whole genome ...</text>
<line y1="85" x2="778.0" style="stroke:grey; stroke-width:1; " x1="10" y2="85"  />
<polygon style="stroke:black; stroke-width:1; fill:#FFFFFF; " description="hypothetical_protein[br]Location: 3039146 - 3040304" locus_tag="TRIVIDRAFT_28826" id="clusterblast-1_h38_9_0" points="10,90 12,90 17,85 12,80 10,80 10,90 " class="clusterblast-orf"  />
<polygon style="stroke:black; stroke-width:1; fill:#FFFFFF; " description="hypothetical_protein[br]Location: 3037498 - 3038835" locus_tag="TRIVIDRAFT_29230" id="clusterblast-1_h38_9_1" points="19,85 24,80 29,80 29,90 24,90 19,85 " class="clusterblast-orf"  />
<polygon style="stroke:black; stroke-width:1; fill:#FFFFFF; " description="hypothetical_protein[br]Location: 3035843 - 3036837" locus_tag="TRIVIDRAFT_209304" id="clusterblast-1_h38_9_2" points="33,90 35,90 40,85 35,80 33,80 33,90 " class="clusterblast-orf"  />
<polygon style="stroke:black; stroke-width:1; fill:#FFFFFF; " description="hypothetical_protein[br]Location: 3034647 - 3034955" locus_tag="TRIVIDRAFT_28184" id="clusterblast-1_h38_9_3" points="46,85 48,80 48,90 46,85 " class="clusterblast-orf"  />
<polygon style="stroke:black; stroke-width:1; fill:#FFFFFF; " description="hypothetical_protein[br]Location: 3032060 - 3032848" locus_tag="TRIVIDRAFT_29068" id="clusterblast-1_h38_9_4" points="60,85 65,80 65,80 65,90 65,90 60,85 " class="clusterblast-orf"  />
<polygon style="stroke:black; stroke-width:1; fill:#FFFFFF; " description="hypothetical_protein[br]Location: 3028992 - 3031155" locus_tag="TRIVIDRAFT_28132" id="clusterblast-1_h38_9_5" points="71,85 76,80 86,80 86,90 76,90 71,85 " class="clusterblast-orf"  />
<polygon style="stroke:black; stroke-width:1; fill:#FFFFFF; " description="hypothetical_protein[br]Location: 3026224 - 3027276" locus_tag="TRIVIDRAFT_60159" id="clusterblast-1_h38_9_6" points="98,85 103,80 105,80 105,90 103,90 98,85 " class="clusterblast-orf"  />
<polygon style="stroke:black; stroke-width:1; fill:#FFFFFF; " description="hypothetical_protein[br]Location: 3024226 - 3025360" locus_tag="TRIVIDRAFT_149423" id="clusterblast-1_h38_9_7" points="111,85 116,80 118,80 118,90 116,90 111,85 " class="clusterblast-orf"  />
<polygon style="stroke:black; stroke-width:1; fill:#FFFFFF; " description="hypothetical_protein[br]Location: 3022332 - 3023453" locus_tag="TRIVIDRAFT_60161" id="clusterblast-1_h38_9_8" points="124,90 126,90 131,85 126,80 124,80 124,90 " class="clusterblast-orf"  />
<polygon style="stroke:black; stroke-width:1; fill:#FFFFFF; " description="hypothetical_protein[br]Location: 3021136 - 3021459" locus_tag="TRIVIDRAFT_29262" id="clusterblast-1_h38_9_9" points="137,85 139,80 139,90 137,85 " class="clusterblast-orf"  />
<polygon style="stroke:black; stroke-width:1; fill:rgb(190,63,63); " description="putative_PKS-NRPS_protein[br]Location: 3007775 - 3020453&lt;br&gt;&lt;br&gt;&lt;b&gt;BlastP hit with CHAFR746836_0018750.1&lt;/b&gt;&lt;br&gt;Percentage identity: 35%&lt;br&gt;Percentage coverage: 55%&lt;br&gt;BLAST bit score: 644&lt;br&gt;E-value: 0.0" locus_tag="TRIVIDRAFT_191605" id="clusterblast-1_h38_9_10" points="144,90 225,90 230,85 225,80 144,80 144,90 " class="clusterblast-orf"  />
<polygon style="stroke:black; stroke-width:1; fill:#FFFFFF; " description="hypothetical_protein[br]Location: 3006439 - 3007737" locus_tag="TRIVIDRAFT_201282" id="clusterblast-1_h38_9_11" points="230,85 235,80 239,80 239,90 235,90 230,85 " class="clusterblast-orf"  />
<polygon style="stroke:black; stroke-width:1; fill:#FFFFFF; " description="hypothetical_protein[br]Location: 3004139 - 3005743" locus_tag="TRIVIDRAFT_230726" id="clusterblast-1_h38_9_12" points="244,90 249,90 254,85 249,80 244,80 244,90 " class="clusterblast-orf"  />
<polygon style="stroke:black; stroke-width:1; fill:rgb(190,190,63); " description="hypothetical_protein[br]Location: 3001842 - 3003639&lt;br&gt;&lt;br&gt;&lt;b&gt;BlastP hit with CHAFR746836_0018800.1&lt;/b&gt;&lt;br&gt;Percentage identity: 40%&lt;br&gt;Percentage coverage: 95%&lt;br&gt;BLAST bit score: 396&lt;br&gt;E-value: 2e-129" locus_tag="TRIVIDRAFT_28823" id="clusterblast-1_h38_9_13" points="258,85 263,80 270,80 270,90 263,90 258,85 " class="clusterblast-orf"  />
<polygon style="stroke:black; stroke-width:1; fill:#FFFFFF; " description="hypothetical_protein[br]Location: 2998532 - 3000465" locus_tag="TRIVIDRAFT_28724" id="clusterblast-1_h38_9_14" points="279,90 287,90 292,85 287,80 279,80 279,90 " class="clusterblast-orf"  />
<polygon style="stroke:black; stroke-width:1; fill:rgb(63,63,190); " description="hypothetical_protein[br]Location: 2996154 - 2997169&lt;br&gt;&lt;br&gt;&lt;b&gt;BlastP hit with CHAFR746836_0018760.1&lt;/b&gt;&lt;br&gt;Percentage identity: 33%&lt;br&gt;Percentage coverage: 93%&lt;br&gt;BLAST bit score: 157&lt;br&gt;E-value: 6e-44" locus_tag="TRIVIDRAFT_60168" id="clusterblast-1_h38_9_15" points="302,90 304,90 309,85 304,80 302,80 302,90 " class="clusterblast-orf"  />
<polygon style="stroke:black; stroke-width:1; fill:#FFFFFF; " description="hypothetical_protein[br]Location: 2994448 - 2995716" locus_tag="TRIVIDRAFT_191602" id="clusterblast-1_h38_9_16" points="312,85 317,80 320,80 320,90 317,90 312,85 " class="clusterblast-orf"  />
<polygon style="stroke:black; stroke-width:1; fill:#FFFFFF; " description="hypothetical_protein[br]Location: 2990843 - 2992046" locus_tag="TRIVIDRAFT_28177" id="clusterblast-1_h38_9_17" points="336,90 340,90 345,85 340,80 336,80 336,90 " class="clusterblast-orf"  />
<polygon style="stroke:black; stroke-width:1; fill:#FFFFFF; " description="hypothetical_protein[br]Location: 2987924 - 2988892" locus_tag="TRIVIDRAFT_28484" id="clusterblast-1_h38_9_18" points="358,85 363,80 364,80 364,90 363,90 358,85 " class="clusterblast-orf"  />
<polygon style="stroke:black; stroke-width:1; fill:#FFFFFF; " description="hypothetical_protein[br]Location: 2985129 - 2986998" locus_tag="TRIVIDRAFT_60172" id="clusterblast-1_h38_9_19" points="371,90 378,90 383,85 378,80 371,80 371,90 " class="clusterblast-orf"  />
<polygon style="stroke:black; stroke-width:1; fill:#FFFFFF; " description="hypothetical_protein[br]Location: 2983409 - 2984659" locus_tag="TRIVIDRAFT_53837" id="clusterblast-1_h38_9_20" points="386,85 391,80 395,80 395,90 391,90 386,85 " class="clusterblast-orf"  />
<polygon style="stroke:black; stroke-width:1; fill:rgb(190,63,63); " description="putative_PKS-NRPS_protein[br]Location: 2971004 - 2982836&lt;br&gt;&lt;br&gt;&lt;b&gt;BlastP hit with CHAFR746836_0018750.1&lt;/b&gt;&lt;br&gt;Percentage identity: 37%&lt;br&gt;Percentage coverage: 49%&lt;br&gt;BLAST bit score: 704&lt;br&gt;E-value: 0.0" locus_tag="TRIVIDRAFT_28610" id="clusterblast-1_h38_9_21" points="399,85 404,80 479,80 479,90 404,90 399,85 " class="clusterblast-orf"  />
<polygon style="stroke:black; stroke-width:1; fill:#FFFFFF; " description="hypothetical_protein[br]Location: 2968309 - 2970608" locus_tag="TRIVIDRAFT_53838" id="clusterblast-1_h38_9_22" points="482,90 492,90 497,85 492,80 482,80 482,90 " class="clusterblast-orf"  />
<polygon style="stroke:black; stroke-width:1; fill:#FFFFFF; " description="hypothetical_protein[br]Location: 2966522 - 2967746" locus_tag="TRIVIDRAFT_29580" id="clusterblast-1_h38_9_23" points="501,90 504,90 509,85 504,80 501,80 501,90 " class="clusterblast-orf"  />
<polygon style="stroke:black; stroke-width:1; fill:#FFFFFF; " description="hypothetical_protein[br]Location: 2963804 - 2965501" locus_tag="TRIVIDRAFT_191595" id="clusterblast-1_h38_9_24" points="516,85 521,80 528,80 528,90 521,90 516,85 " class="clusterblast-orf"  />
<polygon style="stroke:black; stroke-width:1; fill:#FFFFFF; " description="hypothetical_protein[br]Location: 2961143 - 2962970" locus_tag="TRIVIDRAFT_180162" id="clusterblast-1_h38_9_25" points="533,90 541,90 546,85 541,80 533,80 533,90 " class="clusterblast-orf"  />
<polygon style="stroke:black; stroke-width:1; fill:#FFFFFF; " description="hypothetical_protein[br]Location: 2958935 - 2960932" locus_tag="TRIVIDRAFT_60180" id="clusterblast-1_h38_9_26" points="547,90 556,90 561,85 556,80 547,80 547,90 " class="clusterblast-orf"  />
<polygon style="stroke:black; stroke-width:1; fill:#FFFFFF; " description="hypothetical_protein[br]Location: 2955018 - 2958290" locus_tag="TRIVIDRAFT_60181" id="clusterblast-1_h38_9_27" points="565,90 582,90 587,85 582,80 565,80 565,90 " class="clusterblast-orf"  />
<polygon style="stroke:black; stroke-width:1; fill:rgb(190,63,63); " description="putative_polyketide_synthase[br]Location: 2947633 - 2954310&lt;br&gt;&lt;br&gt;&lt;b&gt;BlastP hit with CHAFR746836_0018750.1&lt;/b&gt;&lt;br&gt;Percentage identity: 32%&lt;br&gt;Percentage coverage: 33%&lt;br&gt;BLAST bit score: 346&lt;br&gt;E-value: 2e-94" locus_tag="TRIVIDRAFT_222260" id="clusterblast-1_h38_9_28" points="592,85 597,80 637,80 637,90 597,90 592,85 " class="clusterblast-orf"  />
<polygon style="stroke:black; stroke-width:1; fill:#FFFFFF; " description="hypothetical_protein[br]Location: 2943939 - 2945402" locus_tag="TRIVIDRAFT_201263" id="clusterblast-1_h38_9_29" points="652,90 657,90 662,85 657,80 652,80 652,90 " class="clusterblast-orf"  />
<polygon style="stroke:black; stroke-width:1; fill:#FFFFFF; " description="hypothetical_protein[br]Location: 2942513 - 2943802" locus_tag="TRIVIDRAFT_53844" id="clusterblast-1_h38_9_30" points="663,85 668,80 672,80 672,90 668,90 663,85 " class="clusterblast-orf"  />
<polygon style="stroke:black; stroke-width:1; fill:#FFFFFF; " description="hypothetical_protein[br]Location: 2939827 - 2941069" locus_tag="TRIVIDRAFT_230724" id="clusterblast-1_h38_9_31" points="682,90 685,90 690,85 685,80 682,80 682,90 " class="clusterblast-orf"  />
<polygon style="stroke:black; stroke-width:1; fill:#FFFFFF; " description="hypothetical_protein[br]Location: 2933885 - 2934826" locus_tag="TRIVIDRAFT_216126" id="clusterblast-1_h38_9_32" points="724,85 729,80 730,80 730,90 729,90 724,85 " class="clusterblast-orf"  />
<polygon style="stroke:black; stroke-width:1; fill:#FFFFFF; " description="hypothetical_protein[br]Location: 2929805 - 2930775" locus_tag="TRIVIDRAFT_60187" id="clusterblast-1_h38_9_33" points="751,85 756,80 758,80 758,90 756,90 751,85 " class="clusterblast-orf"  />
<polygon style="stroke:black; stroke-width:1; fill:#FFFFFF; " description="hypothetical_protein[br]Location: 2926922 - 2928616" locus_tag="TRIVIDRAFT_222254" id="clusterblast-1_h38_9_34" points="766,85 771,80 778,80 778,90 771,90 766,85 " class="clusterblast-orf"  />
</g>
</svg>
