<svg xmlns="http://www.w3.org/2000/svg" height="230" width="800" version="1.1" y="0" x="0" preserveAspectRatio="none" xmlns:xlink="http://www.w3.org/1999/xlink" viewBox="0 0 800 230"  >
<g class="clusterblast-cluster" label="Query sequence"  >
<text class="clusterblast-acc" y="10" x="5"  >
Query sequence</text>
<line y1="35" x2="778.0" style="stroke:grey; stroke-width:1; " x1="10" y2="35"  />
<polygon style="stroke:black; stroke-width:1; fill:#FFFFFF; " description="unannotated orf[br]Location: 18836 - 21554" locus_tag="CHAFR746836_0027290.1" class="clusterblast-orf" points="10,40 24,40 29,35 24,30 10,30 10,40 " id="clusterblast-1_q40_7_0"  />
<polygon style="stroke:black; stroke-width:1; fill:#FFFFFF; " description="unannotated orf[br]Location: 27135 - 27585" locus_tag="CHAFR746836_0027300.1" class="clusterblast-orf" points="68,40 72,35 68,30 68,40 " id="clusterblast-1_q40_7_1"  />
<polygon style="stroke:black; stroke-width:1; fill:rgb(190,63,63); " description="unannotated orf[br]Location: 30771 - 32507" locus_tag="CHAFR746836_0027310.1" class="clusterblast-orf" points="94,35 99,30 107,30 107,40 99,40 94,35 " id="clusterblast-1_q40_7_2"  />
<polygon style="stroke:black; stroke-width:1; fill:rgb(63,63,190); " description="unannotated orf[br]Location: 34247 - 35696" locus_tag="CHAFR746836_0027320.1" class="clusterblast-orf" points="119,40 124,40 129,35 124,30 119,30 119,40 " id="clusterblast-1_q40_7_3"  />
<polygon style="stroke:black; stroke-width:1; fill:#FFFFFF; " description="unannotated orf[br]Location: 37185 - 38130" locus_tag="CHAFR746836_0027330.1" class="clusterblast-orf" points="140,40 141,40 146,35 141,30 140,30 140,40 " id="clusterblast-1_q40_7_4"  />
<polygon style="stroke:black; stroke-width:1; fill:#FFFFFF; " description="unannotated orf[br]Location: 41765 - 42925" locus_tag="CHAFR746836_0027340.1" class="clusterblast-orf" points="172,35 177,30 180,30 180,40 177,40 172,35 " id="clusterblast-1_q40_7_5"  />
<polygon style="stroke:black; stroke-width:1; fill:#FFFFFF; " description="unannotated orf[br]Location: 55069 - 56002" locus_tag="CHAFR746836_0027350.1" class="clusterblast-orf" points="267,35 272,30 273,30 273,40 272,40 267,35 " id="clusterblast-1_q40_7_6"  />
<polygon style="stroke:black; stroke-width:1; fill:#FFFFFF; " description="unannotated orf[br]Location: 56950 - 57453" locus_tag="CHAFR746836_0027360.1" class="clusterblast-orf" points="280,35 284,30 284,40 280,35 " id="clusterblast-1_q40_7_7"  />
<polygon style="stroke:black; stroke-width:1; fill:#FFFFFF; " description="unannotated orf[br]Location: 59904 - 60587" locus_tag="CHAFR746836_0027370.1" class="clusterblast-orf" points="301,35 306,30 306,30 306,40 306,40 301,35 " id="clusterblast-1_q40_7_8"  />
<polygon style="stroke:black; stroke-width:1; fill:rgb(63,190,63); " description="unannotated orf[br]Location: 62113 - 63802" locus_tag="CHAFR746836_0027380.1" class="clusterblast-orf" points="317,40 324,40 329,35 324,30 317,30 317,40 " id="clusterblast-1_q40_7_9"  />
<polygon style="stroke:black; stroke-width:1; fill:rgb(190,63,190); " description="unannotated orf[br]Location: 65675 - 67240" locus_tag="CHAFR746836_0027390.1" class="clusterblast-orf" points="342,40 348,40 353,35 348,30 342,30 342,40 " id="clusterblast-1_q40_7_10"  />
<polygon style="stroke:black; stroke-width:1; fill:#FFFFFF; " description="unannotated orf[br]Location: 69095 - 71104" locus_tag="CHAFR746836_0027400.1" class="clusterblast-orf" points="366,35 371,30 380,30 380,40 371,40 366,35 " id="clusterblast-1_q40_7_11"  />
<polygon style="stroke:black; stroke-width:1; fill:#FFFFFF; " description="unannotated orf[br]Location: 72318 - 73122" locus_tag="CHAFR746836_0027410.1" class="clusterblast-orf" points="389,35 394,30 395,30 395,40 394,40 389,35 " id="clusterblast-1_q40_7_12"  />
<polygon style="stroke:black; stroke-width:1; fill:#FFFFFF; " description="unannotated orf[br]Location: 85144 - 86302" locus_tag="CHAFR746836_0027420.1" class="clusterblast-orf" points="480,40 483,40 488,35 483,30 480,30 480,40 " id="clusterblast-1_q40_7_13"  />
<polygon style="stroke:black; stroke-width:1; fill:#FFFFFF; " description="unannotated orf[br]Location: 87771 - 89252" locus_tag="CHAFR746836_0027430.1" class="clusterblast-orf" points="499,40 504,40 509,35 504,30 499,30 499,40 " id="clusterblast-1_q40_7_14"  />
<polygon style="stroke:black; stroke-width:1; fill:rgb(190,190,63); " description="unannotated orf[br]Location: 93673 - 95433" locus_tag="CHAFR746836_0027440.1" class="clusterblast-orf" points="541,35 546,30 553,30 553,40 546,40 541,35 " id="clusterblast-1_q40_7_15"  />
<polygon style="stroke:black; stroke-width:1; fill:#FFFFFF; " description="unannotated orf[br]Location: 101726 - 102802" locus_tag="CHAFR746836_0027450.1" class="clusterblast-orf" points="598,40 600,40 605,35 600,30 598,30 598,40 " id="clusterblast-1_q40_7_16"  />
<polygon style="stroke:black; stroke-width:1; fill:rgb(190,190,190); " description="unannotated orf[br]Location: 102943 - 104133" locus_tag="CHAFR746836_0027460.1" class="clusterblast-orf" points="606,35 611,30 615,30 615,40 611,40 606,35 " id="clusterblast-1_q40_7_17"  />
<polygon style="stroke:black; stroke-width:1; fill:rgb(63,190,190); " description="unannotated orf[br]Location: 113142 - 115383" locus_tag="CHAFR746836_0027470.1" class="clusterblast-orf" points="679,40 690,40 695,35 690,30 679,30 679,40 " id="clusterblast-1_q40_7_18"  />
<polygon style="stroke:black; stroke-width:1; fill:#FFFFFF; " description="unannotated orf[br]Location: 116732 - 117774" locus_tag="CHAFR746836_0027480.1" class="clusterblast-orf" points="704,40 707,40 712,35 707,30 704,30 704,40 " id="clusterblast-1_q40_7_19"  />
<polygon style="stroke:black; stroke-width:1; fill:rgb(63,63,63); " description="unannotated orf[br]Location: 118463 - 119147" locus_tag="CHAFR746836_0027490.1" class="clusterblast-orf" points="717,40 721,35 717,30 717,40 " id="clusterblast-1_q40_7_20"  />
<polygon style="stroke:black; stroke-width:1; fill:#FFFFFF; " description="unannotated orf[br]Location: 120001 - 121808" locus_tag="CHAFR746836_0027500.1" class="clusterblast-orf" points="727,40 735,40 740,35 735,30 727,30 727,40 " id="clusterblast-1_q40_7_21"  />
<polygon style="stroke:black; stroke-width:1; fill:#FFFFFF; " description="unannotated orf[br]Location: 122955 - 125087" locus_tag="CHAFR746836_0027510.1" class="clusterblast-orf" points="748,35 753,30 764,30 764,40 753,40 748,35 " id="clusterblast-1_q40_7_22"  />
<polygon style="stroke:black; stroke-width:1; fill:#FFFFFF; " description="unannotated orf[br]Location: 125673 - 127054" locus_tag="CHAFR746836_0027520.1" class="clusterblast-orf" points="768,35 773,30 778,30 778,40 773,40 768,35 " id="clusterblast-1_q40_7_23"  />
</g>
<g class="clusterblast-cluster" description="Metarhizium anisopliae ARSEF 23 unplaced genomic scaffold Sc..." label="GL698714.1_c2"  >
<text class="clusterblast-acc" y="60" x="5"  >
GL698714.1_c2</text>
<text class="clusterblast-desc" y="60" x="460.8"  >
Metarhizium anisopliae ARSEF 23 unplaced genomic scaffold Sc...</text>
<line y1="85" x2="778.0" style="stroke:grey; stroke-width:1; " x1="10" y2="85"  />
<polygon style="stroke:black; stroke-width:1; fill:#FFFFFF; " description="hypothetical_protein[br]Location: 215909 - 216196" locus_tag="MAA_03312" id="clusterblast-1_h40_7_0" points="241,85 243,80 243,90 241,85 " class="clusterblast-orf"  />
<polygon style="stroke:black; stroke-width:1; fill:#FFFFFF; " description="MYND_domain_protein,_putative[br]Location: 227418 - 228392" locus_tag="MAA_03313" id="clusterblast-1_h40_7_1" points="322,85 327,80 329,80 329,90 327,90 322,85 " class="clusterblast-orf"  />
<polygon style="stroke:black; stroke-width:1; fill:rgb(190,190,190); " description="hydrolase,_putative[br]Location: 228849 - 229745&lt;br&gt;&lt;br&gt;&lt;b&gt;BlastP hit with CHAFR746836_0027460.1&lt;/b&gt;&lt;br&gt;Percentage identity: 32%&lt;br&gt;Percentage coverage: 36%&lt;br&gt;BLAST bit score: 65&lt;br&gt;E-value: 1e-10" locus_tag="MAA_03314" id="clusterblast-1_h40_7_2" points="332,85 337,80 339,80 339,90 337,90 332,85 " class="clusterblast-orf"  />
<polygon style="stroke:black; stroke-width:1; fill:#FFFFFF; " description="hypothetical_protein[br]Location: 231162 - 232376" locus_tag="MAA_03315" id="clusterblast-1_h40_7_3" points="349,90 352,90 357,85 352,80 349,80 349,90 " class="clusterblast-orf"  />
<polygon style="stroke:black; stroke-width:1; fill:#FFFFFF; " description="sedoheptulose-1,7-bisphosphatase[br]Location: 233481 - 234491" locus_tag="MAA_03316" id="clusterblast-1_h40_7_4" points="365,90 367,90 372,85 367,80 365,80 365,90 " class="clusterblast-orf"  />
<polygon style="stroke:black; stroke-width:1; fill:#FFFFFF; " description="NRPS-like_enzyme,_putative[br]Location: 234668 - 237990" locus_tag="MAA_03317" id="clusterblast-1_h40_7_5" points="374,85 379,80 397,80 397,90 379,90 374,85 " class="clusterblast-orf"  />
<polygon style="stroke:black; stroke-width:1; fill:rgb(63,63,190); " description="MFS_transporter,_putative[br]Location: 240407 - 241454&lt;br&gt;&lt;br&gt;&lt;b&gt;BlastP hit with CHAFR746836_0027320.1&lt;/b&gt;&lt;br&gt;Percentage identity: 36%&lt;br&gt;Percentage coverage: 48%&lt;br&gt;BLAST bit score: 144&lt;br&gt;E-value: 6e-38" locus_tag="MAA_03318" id="clusterblast-1_h40_7_6" points="414,85 419,80 422,80 422,90 419,90 414,85 " class="clusterblast-orf"  />
<polygon style="stroke:black; stroke-width:1; fill:#FFFFFF; " description="succinyl-CoA:3-ketoacid-coenzyme_A_transferase[br]Location: 242225 - 244158" locus_tag="MAA_03319" id="clusterblast-1_h40_7_7" points="427,90 436,90 441,85 436,80 427,80 427,90 " class="clusterblast-orf"  />
<polygon style="stroke:black; stroke-width:1; fill:#FFFFFF; " description="hypothetical_protein[br]Location: 244473 - 245141" locus_tag="MAA_03320" id="clusterblast-1_h40_7_8" points="443,85 448,80 448,80 448,90 448,90 443,85 " class="clusterblast-orf"  />
<polygon style="stroke:black; stroke-width:1; fill:#FFFFFF; " description="dicarboxylate_carrier_protein[br]Location: 245770 - 246639" locus_tag="MAA_03321" id="clusterblast-1_h40_7_9" points="452,90 454,90 459,85 454,80 452,80 452,90 " class="clusterblast-orf"  />
<polygon style="stroke:black; stroke-width:1; fill:#FFFFFF; " description="hypothetical_protein[br]Location: 247201 - 249743" locus_tag="MAA_03322" id="clusterblast-1_h40_7_10" points="463,85 468,80 481,80 481,90 468,90 463,85 " class="clusterblast-orf"  />
<polygon style="stroke:black; stroke-width:1; fill:#FFFFFF; " description="NACHT_and_Ankyrin_domain_protein[br]Location: 254666 - 258769" locus_tag="MAA_03323" id="clusterblast-1_h40_7_11" points="516,90 540,90 545,85 540,80 516,80 516,90 " class="clusterblast-orf"  />
</g>
</svg>
