<svg xmlns="http://www.w3.org/2000/svg" height="230" width="800" version="1.1" y="0" x="0" preserveAspectRatio="none" xmlns:xlink="http://www.w3.org/1999/xlink" viewBox="0 0 800 230"  >
<g class="clusterblast-cluster" label="Query sequence"  >
<text class="clusterblast-acc" y="10" x="5"  >
Query sequence</text>
<line y1="35" x2="778.0" style="stroke:grey; stroke-width:1; " x1="10" y2="35"  />
<polygon style="stroke:black; stroke-width:1; fill:#FFFFFF; " description="unannotated orf[br]Location: 965 - 3615" locus_tag="CHAFR746836_0014310.1" class="clusterblast-orf" points="10,35 15,30 32,30 32,40 15,40 10,35 " id="clusterblast-1_q32_6_0"  />
<polygon style="stroke:black; stroke-width:1; fill:#FFFFFF; " description="unannotated orf[br]Location: 4260 - 6128" locus_tag="CHAFR746836_0014320.1" class="clusterblast-orf" points="38,40 49,40 54,35 49,30 38,30 38,40 " id="clusterblast-1_q32_6_1"  />
<polygon style="stroke:black; stroke-width:1; fill:#FFFFFF; " description="unannotated orf[br]Location: 7061 - 7582" locus_tag="CHAFR746836_0014330.1" class="clusterblast-orf" points="61,35 66,30 66,30 66,40 66,40 61,35 " id="clusterblast-1_q32_6_2"  />
<polygon style="stroke:black; stroke-width:1; fill:#FFFFFF; " description="unannotated orf[br]Location: 13564 - 15006" locus_tag="CHAFR746836_0014340.1" class="clusterblast-orf" points="117,35 122,30 129,30 129,40 122,40 117,35 " id="clusterblast-1_q32_6_3"  />
<polygon style="stroke:black; stroke-width:1; fill:#FFFFFF; " description="unannotated orf[br]Location: 17524 - 18715" locus_tag="CHAFR746836_0014350.1" class="clusterblast-orf" points="151,40 156,40 161,35 156,30 151,30 151,40 " id="clusterblast-1_q32_6_4"  />
<polygon style="stroke:black; stroke-width:1; fill:rgb(169,42,42); " description="unannotated orf[br]Location: 19792 - 21305" locus_tag="CHAFR746836_0014360.1" class="clusterblast-orf" points="170,35 175,30 183,30 183,40 175,40 170,35 " id="clusterblast-1_q32_6_5"  />
<polygon style="stroke:black; stroke-width:1; fill:#FFFFFF; " description="unannotated orf[br]Location: 22692 - 23566" locus_tag="CHAFR746836_0014370.1" class="clusterblast-orf" points="195,35 200,30 202,30 202,40 200,40 195,35 " id="clusterblast-1_q32_6_6"  />
<polygon style="stroke:black; stroke-width:1; fill:rgb(42,169,42); " description="unannotated orf[br]Location: 24871 - 25279" locus_tag="CHAFR746836_0014380.1" class="clusterblast-orf" points="213,40 217,35 213,30 213,40 " id="clusterblast-1_q32_6_7"  />
<polygon style="stroke:black; stroke-width:1; fill:rgb(42,169,212); " description="unannotated orf[br]Location: 30583 - 31348" locus_tag="CHAFR746836_0014390.1" class="clusterblast-orf" points="262,40 264,40 269,35 264,30 262,30 262,40 " id="clusterblast-1_q32_6_8"  />
<polygon style="stroke:black; stroke-width:1; fill:rgb(169,169,42); " description="unannotated orf[br]Location: 36255 - 37300" locus_tag="CHAFR746836_0014400.1" class="clusterblast-orf" points="310,40 314,40 319,35 314,30 310,30 310,40 " id="clusterblast-1_q32_6_9"  />
<polygon style="stroke:black; stroke-width:1; fill:rgb(169,42,127); " description="unannotated orf[br]Location: 40896 - 42318" locus_tag="CHAFR746836_0014410.1" class="clusterblast-orf" points="350,35 355,30 362,30 362,40 355,40 350,35 " id="clusterblast-1_q32_6_10"  />
<polygon style="stroke:black; stroke-width:1; fill:rgb(42,42,212); " description="unannotated orf[br]Location: 43231 - 44947" locus_tag="CHAFR746836_0014420.1" class="clusterblast-orf" points="370,35 375,30 384,30 384,40 375,40 370,35 " id="clusterblast-1_q32_6_11"  />
<polygon style="stroke:black; stroke-width:1; fill:rgb(169,169,212); " description="unannotated orf[br]Location: 48326 - 50264" locus_tag="CHAFR746836_0014430.1" class="clusterblast-orf" points="413,35 418,30 430,30 430,40 418,40 413,35 " id="clusterblast-1_q32_6_12"  />
<polygon style="stroke:black; stroke-width:1; fill:#FFFFFF; " description="unannotated orf[br]Location: 50648 - 51167" locus_tag="CHAFR746836_0014440.1" class="clusterblast-orf" points="433,35 438,30 438,30 438,40 438,40 433,35 " id="clusterblast-1_q32_6_13"  />
<polygon style="stroke:black; stroke-width:1; fill:#FFFFFF; " description="unannotated orf[br]Location: 52447 - 53731" locus_tag="CHAFR746836_0014450.1" class="clusterblast-orf" points="448,40 454,40 459,35 454,30 448,30 448,40 " id="clusterblast-1_q32_6_14"  />
<polygon style="stroke:black; stroke-width:1; fill:#FFFFFF; " description="unannotated orf[br]Location: 53956 - 55894" locus_tag="CHAFR746836_0014460.1" class="clusterblast-orf" points="461,35 466,30 478,30 478,40 466,40 461,35 " id="clusterblast-1_q32_6_15"  />
<polygon style="stroke:black; stroke-width:1; fill:#FFFFFF; " description="unannotated orf[br]Location: 57681 - 58665" locus_tag="CHAFR746836_0014470.1" class="clusterblast-orf" points="493,40 496,40 501,35 496,30 493,30 493,40 " id="clusterblast-1_q32_6_16"  />
<polygon style="stroke:black; stroke-width:1; fill:#FFFFFF; " description="unannotated orf[br]Location: 60333 - 62630" locus_tag="CHAFR746836_0014480.1" class="clusterblast-orf" points="516,40 530,40 535,35 530,30 516,30 516,40 " id="clusterblast-1_q32_6_17"  />
<polygon style="stroke:black; stroke-width:1; fill:rgb(42,169,127); " description="unannotated orf[br]Location: 65180 - 67570" locus_tag="CHAFR746836_0014490.1" class="clusterblast-orf" points="557,40 572,40 577,35 572,30 557,30 557,40 " id="clusterblast-1_q32_6_18"  />
<polygon style="stroke:black; stroke-width:1; fill:rgb(169,42,212); " description="unannotated orf[br]Location: 68037 - 69162" locus_tag="CHAFR746836_0014500.1" class="clusterblast-orf" points="581,35 586,30 591,30 591,40 586,40 581,35 " id="clusterblast-1_q32_6_19"  />
<polygon style="stroke:black; stroke-width:1; fill:#FFFFFF; " description="unannotated orf[br]Location: 70478 - 71612" locus_tag="CHAFR746836_0014510.1" class="clusterblast-orf" points="602,35 607,30 612,30 612,40 607,40 602,35 " id="clusterblast-1_q32_6_20"  />
<polygon style="stroke:black; stroke-width:1; fill:#FFFFFF; " description="unannotated orf[br]Location: 74985 - 76815" locus_tag="CHAFR746836_0014520.1" class="clusterblast-orf" points="641,40 651,40 656,35 651,30 641,30 641,40 " id="clusterblast-1_q32_6_21"  />
<polygon style="stroke:black; stroke-width:1; fill:#FFFFFF; " description="unannotated orf[br]Location: 83884 - 84673" locus_tag="CHAFR746836_0014530.1" class="clusterblast-orf" points="716,40 718,40 723,35 718,30 716,30 716,40 " id="clusterblast-1_q32_6_22"  />
<polygon style="stroke:black; stroke-width:1; fill:#FFFFFF; " description="unannotated orf[br]Location: 85064 - 86686" locus_tag="CHAFR746836_0014540.1" class="clusterblast-orf" points="726,35 731,30 740,30 740,40 731,40 726,35 " id="clusterblast-1_q32_6_23"  />
<polygon style="stroke:black; stroke-width:1; fill:#FFFFFF; " description="unannotated orf[br]Location: 89134 - 91047" locus_tag="CHAFR746836_0014550.1" class="clusterblast-orf" points="761,40 773,40 778,35 773,30 761,30 761,40 " id="clusterblast-1_q32_6_24"  />
</g>
<g class="clusterblast-cluster" description="Glarea lozoyensis 74030 Seq132, whole genome shotgun seq..." label="AGUE01000132.1_c1"  >
<text class="clusterblast-acc" y="60" x="5"  >
AGUE01000132.1_c1</text>
<text class="clusterblast-desc" y="60" x="460.8"  >
Glarea lozoyensis 74030 Seq132, whole genome shotgun seq...</text>
<line y1="85" x2="778.0" style="stroke:grey; stroke-width:1; " x1="10" y2="85"  />
<polygon style="stroke:black; stroke-width:1; fill:#FFFFFF; " description="putative_importin_subunit_beta-4[br]Location: 249856 - 252787" locus_tag="M7I_5177" id="clusterblast-1_h32_6_0" points="221,90 240,90 245,85 240,80 221,80 221,90 " class="clusterblast-orf"  />
<polygon style="stroke:black; stroke-width:1; fill:#FFFFFF; " description="putative_protein_bfr-2[br]Location: 263434 - 264945" locus_tag="M7I_5178" id="clusterblast-1_h32_6_1" points="336,90 344,90 349,85 344,80 336,80 336,90 " class="clusterblast-orf"  />
<polygon style="stroke:black; stroke-width:1; fill:rgb(169,42,42); " description="putative_polyketide_synthase_1[br]Location: 270668 - 272194&lt;br&gt;&lt;br&gt;&lt;b&gt;BlastP hit with CHAFR746836_0014360.1&lt;/b&gt;&lt;br&gt;Percentage identity: 71%&lt;br&gt;Percentage coverage: 50%&lt;br&gt;BLAST bit score: 342&lt;br&gt;E-value: 1e-113" locus_tag="M7I_5179" id="clusterblast-1_h32_6_2" points="398,85 403,80 411,80 411,90 403,90 398,85 " class="clusterblast-orf"  />
<polygon style="stroke:black; stroke-width:1; fill:rgb(42,169,212); " description="hypothetical_protein[br]Location: 276588 - 276928&lt;br&gt;&lt;br&gt;&lt;b&gt;BlastP hit with CHAFR746836_0014390.1&lt;/b&gt;&lt;br&gt;Percentage identity: 60%&lt;br&gt;Percentage coverage: 24%&lt;br&gt;BLAST bit score: 71&lt;br&gt;E-value: 9e-15" locus_tag="M7I_5180" id="clusterblast-1_h32_6_3" points="448,90 451,85 448,80 448,90 " class="clusterblast-orf"  />
<polygon style="stroke:black; stroke-width:1; fill:#FFFFFF; " description="putative_Sulfite_reductase[br]Location: 277671 - 281888" locus_tag="M7I_5181" id="clusterblast-1_h32_6_4" points="458,85 463,80 494,80 494,90 463,90 458,85 " class="clusterblast-orf"  />
<polygon style="stroke:black; stroke-width:1; fill:#FFFFFF; " description="putative_protein_fmp52,_mitochondrial[br]Location: 286376 - 287113" locus_tag="M7I_5182" id="clusterblast-1_h32_6_5" points="532,90 533,90 538,85 533,80 532,80 532,90 " class="clusterblast-orf"  />
<polygon style="stroke:black; stroke-width:1; fill:#FFFFFF; " description="putative_Homogentisate_1,2-dioxygenase[br]Location: 288400 - 290287" locus_tag="M7I_5183" id="clusterblast-1_h32_6_6" points="549,85 554,80 565,80 565,90 554,90 549,85 " class="clusterblast-orf"  />
</g>
</svg>
