<svg xmlns="http://www.w3.org/2000/svg" height="230" width="800" version="1.1" y="0" x="0" preserveAspectRatio="none" xmlns:xlink="http://www.w3.org/1999/xlink" viewBox="0 0 800 230"  >
<g class="clusterblast-cluster" label="Query sequence"  >
<text class="clusterblast-acc" y="10" x="5"  >
Query sequence</text>
<line y1="35" x2="778.0" style="stroke:grey; stroke-width:1; " x1="10" y2="35"  />
<polygon style="stroke:black; stroke-width:1; fill:#FFFFFF; " description="unannotated orf[br]Location: 7918 - 9403" locus_tag="CHAFR746836_0043710.1" class="clusterblast-orf" points="214,40 225,40 230,35 225,30 214,30 214,40 " id="clusterblast-1_q54_5_0"  />
<polygon style="stroke:black; stroke-width:1; fill:rgb(169,42,42); " description="unannotated orf[br]Location: 10656 - 11541" locus_tag="CHAFR746836_0043720.1" class="clusterblast-orf" points="244,35 249,30 253,30 253,40 249,40 244,35 " id="clusterblast-1_q54_5_1"  />
<polygon style="stroke:black; stroke-width:1; fill:rgb(42,169,42); " description="unannotated orf[br]Location: 13140 - 14726" locus_tag="CHAFR746836_0043730.1" class="clusterblast-orf" points="271,40 283,40 288,35 283,30 271,30 271,40 " id="clusterblast-1_q54_5_2"  />
<polygon style="stroke:black; stroke-width:1; fill:#FFFFFF; " description="unannotated orf[br]Location: 14976 - 15545" locus_tag="CHAFR746836_0043740.1" class="clusterblast-orf" points="291,35 296,30 297,30 297,40 296,40 291,35 " id="clusterblast-1_q54_5_3"  />
<polygon style="stroke:black; stroke-width:1; fill:rgb(42,169,212); " description="unannotated orf[br]Location: 16433 - 17294" locus_tag="CHAFR746836_0043750.1" class="clusterblast-orf" points="307,40 311,40 316,35 311,30 307,30 307,40 " id="clusterblast-1_q54_5_4"  />
<polygon style="stroke:black; stroke-width:1; fill:rgb(169,169,42); " description="unannotated orf[br]Location: 17728 - 18694" locus_tag="CHAFR746836_0043760.1" class="clusterblast-orf" points="321,40 327,40 332,35 327,30 321,30 321,40 " id="clusterblast-1_q54_5_5"  />
<polygon style="stroke:black; stroke-width:1; fill:#FFFFFF; " description="unannotated orf[br]Location: 19149 - 19718" locus_tag="CHAFR746836_0043770.1" class="clusterblast-orf" points="337,35 342,30 343,30 343,40 342,40 337,35 " id="clusterblast-1_q54_5_6"  />
<polygon style="stroke:black; stroke-width:1; fill:rgb(169,42,127); " description="unannotated orf[br]Location: 20132 - 21930" locus_tag="CHAFR746836_0043780.1" class="clusterblast-orf" points="348,40 362,40 367,35 362,30 348,30 348,40 " id="clusterblast-1_q54_5_7"  />
<polygon style="stroke:black; stroke-width:1; fill:#FFFFFF; " description="unannotated orf[br]Location: 22653 - 24219" locus_tag="CHAFR746836_0043790.1" class="clusterblast-orf" points="375,35 380,30 392,30 392,40 380,40 375,35 " id="clusterblast-1_q54_5_8"  />
<polygon style="stroke:black; stroke-width:1; fill:rgb(42,42,212); " description="unannotated orf[br]Location: 25134 - 26929" locus_tag="CHAFR746836_0043800.1" class="clusterblast-orf" points="403,40 417,40 422,35 417,30 403,30 403,40 " id="clusterblast-1_q54_5_9"  />
<polygon style="stroke:black; stroke-width:1; fill:rgb(169,169,212); " description="unannotated orf[br]Location: 28053 - 29459" locus_tag="CHAFR746836_0043810.1" class="clusterblast-orf" points="435,40 445,40 450,35 445,30 435,30 435,40 " id="clusterblast-1_q54_5_10"  />
<polygon style="stroke:black; stroke-width:1; fill:#FFFFFF; " description="unannotated orf[br]Location: 30463 - 31516" locus_tag="CHAFR746836_0043820.1" class="clusterblast-orf" points="461,35 466,30 473,30 473,40 466,40 461,35 " id="clusterblast-1_q54_5_11"  />
<polygon style="stroke:black; stroke-width:1; fill:rgb(42,169,127); " description="unannotated orf[br]Location: 32618 - 34109" locus_tag="CHAFR746836_0043830.1" class="clusterblast-orf" points="485,35 490,30 501,30 501,40 490,40 485,35 " id="clusterblast-1_q54_5_12"  />
<polygon style="stroke:black; stroke-width:1; fill:rgb(169,42,212); " description="unannotated orf[br]Location: 37073 - 38965" locus_tag="CHAFR746836_0043840.1" class="clusterblast-orf" points="534,35 539,30 554,30 554,40 539,40 534,35 " id="clusterblast-1_q54_5_13"  />
<polygon style="stroke:black; stroke-width:1; fill:#FFFFFF; " description="unannotated orf[br]Location: 39447 - 40529" locus_tag="CHAFR746836_0043850.1" class="clusterblast-orf" points="560,40 567,40 572,35 567,30 560,30 560,40 " id="clusterblast-1_q54_5_14"  />
</g>
<g class="clusterblast-cluster" description="Glomerella graminicola M1.001 genomic scaffold supercont1.42..." label="GG697372.1_c1"  >
<text class="clusterblast-acc" y="60" x="5"  >
GG697372.1_c1</text>
<text class="clusterblast-desc" y="60" x="460.8"  >
Glomerella graminicola M1.001 genomic scaffold supercont1.42...</text>
<line y1="85" x2="778.0" style="stroke:grey; stroke-width:1; " x1="10" y2="85"  />
<polygon style="stroke:black; stroke-width:1; fill:#FFFFFF; " description="multicopper_oxidase[br]Location: 411256 - 413194" locus_tag="GLRG_08638" id="clusterblast-1_h54_5_0" points="10,85 15,80 31,80 31,90 15,90 10,85 " class="clusterblast-orf"  />
<polygon style="stroke:black; stroke-width:1; fill:#FFFFFF; " description="NAD-dependent_epimerase/dehydratase[br]Location: 409692 - 410384" locus_tag="GLRG_08637" id="clusterblast-1_h54_5_1" points="40,85 45,80 48,80 48,90 45,90 40,85 " class="clusterblast-orf"  />
<polygon style="stroke:black; stroke-width:1; fill:#FFFFFF; " description="hypothetical_protein[br]Location: 407220 - 408335" locus_tag="GLRG_08636" id="clusterblast-1_h54_5_2" points="63,90 70,90 75,85 70,80 63,80 63,90 " class="clusterblast-orf"  />
<polygon style="stroke:black; stroke-width:1; fill:#FFFFFF; " description="FAD_binding_domain-containing_protein[br]Location: 405023 - 406698" locus_tag="GLRG_08635" id="clusterblast-1_h54_5_3" points="81,85 86,80 99,80 99,90 86,90 81,85 " class="clusterblast-orf"  />
<polygon style="stroke:black; stroke-width:1; fill:rgb(169,169,212); " description="O-methyltransferase[br]Location: 403220 - 404531&lt;br&gt;&lt;br&gt;&lt;b&gt;BlastP hit with CHAFR746836_0043810.1&lt;/b&gt;&lt;br&gt;Percentage identity: 37%&lt;br&gt;Percentage coverage: 94%&lt;br&gt;BLAST bit score: 266&lt;br&gt;E-value: 6e-84" locus_tag="GLRG_08634" id="clusterblast-1_h54_5_4" points="105,90 114,90 119,85 114,80 105,80 105,90 " class="clusterblast-orf"  />
<polygon style="stroke:black; stroke-width:1; fill:#FFFFFF; " description="metallo-beta-lactamase_superfamily_protein[br]Location: 401264 - 402277" locus_tag="GLRG_08633" id="clusterblast-1_h54_5_5" points="129,90 135,90 140,85 135,80 129,80 129,90 " class="clusterblast-orf"  />
<polygon style="stroke:black; stroke-width:1; fill:#FFFFFF; " description="beta-ketoacyl_synthase_domain-containing[br]Location: 395097 - 400665" locus_tag="GLRG_08632" id="clusterblast-1_h54_5_6" points="147,90 203,90 208,85 203,80 147,80 147,90 " class="clusterblast-orf"  />
<polygon style="stroke:black; stroke-width:1; fill:#FFFFFF; " description="hypothetical_protein[br]Location: 393385 - 394539" locus_tag="GLRG_08631" id="clusterblast-1_h54_5_7" points="214,85 219,80 227,80 227,90 219,90 214,85 " class="clusterblast-orf"  />
<polygon style="stroke:black; stroke-width:1; fill:#FFFFFF; " description="hypothetical_protein[br]Location: 389788 - 391170" locus_tag="GLRG_08630" id="clusterblast-1_h54_5_8" points="251,90 261,90 266,85 261,80 251,80 251,90 " class="clusterblast-orf"  />
<polygon style="stroke:black; stroke-width:1; fill:#FFFFFF; " description="hypothetical_protein[br]Location: 388774 - 389340" locus_tag="GLRG_08629" id="clusterblast-1_h54_5_9" points="271,85 276,80 278,80 278,90 276,90 271,85 " class="clusterblast-orf"  />
<polygon style="stroke:black; stroke-width:1; fill:#FFFFFF; " description="glutathione_S-transferase_domain-containing[br]Location: 387350 - 388079" locus_tag="GLRG_08628" id="clusterblast-1_h54_5_10" points="285,90 288,90 293,85 288,80 285,80 285,90 " class="clusterblast-orf"  />
<polygon style="stroke:black; stroke-width:1; fill:#FFFFFF; " description="major_facilitator_superfamily_transporter[br]Location: 385359 - 386962" locus_tag="GLRG_08627" id="clusterblast-1_h54_5_11" points="298,85 303,80 315,80 315,90 303,90 298,85 " class="clusterblast-orf"  />
<polygon style="stroke:black; stroke-width:1; fill:#FFFFFF; " description="hypothetical_protein[br]Location: 382932 - 384925" locus_tag="GLRG_08626" id="clusterblast-1_h54_5_12" points="320,90 337,90 342,85 337,80 320,80 320,90 " class="clusterblast-orf"  />
<polygon style="stroke:black; stroke-width:1; fill:#FFFFFF; " description="hypothetical_protein[br]Location: 381222 - 382618" locus_tag="GLRG_08625" id="clusterblast-1_h54_5_13" points="345,85 350,80 361,80 361,90 350,90 345,85 " class="clusterblast-orf"  />
<polygon style="stroke:black; stroke-width:1; fill:#FFFFFF; " description="fasciclin_domain-containing_protein[br]Location: 376962 - 377964" locus_tag="GLRG_08624" id="clusterblast-1_h54_5_14" points="396,85 401,80 407,80 407,90 401,90 396,85 " class="clusterblast-orf"  />
<polygon style="stroke:black; stroke-width:1; fill:#FFFFFF; " description="multicopper_oxidase[br]Location: 374606 - 376486" locus_tag="GLRG_08623" id="clusterblast-1_h54_5_15" points="413,90 428,90 433,85 428,80 413,80 413,90 " class="clusterblast-orf"  />
<polygon style="stroke:black; stroke-width:1; fill:#FFFFFF; " description="hypothetical_protein[br]Location: 373275 - 374303" locus_tag="GLRG_08622" id="clusterblast-1_h54_5_16" points="436,85 441,80 448,80 448,90 441,90 436,85 " class="clusterblast-orf"  />
<polygon style="stroke:black; stroke-width:1; fill:rgb(42,169,42); " description="FAD_binding_domain-containing_protein[br]Location: 371224 - 372681&lt;br&gt;&lt;br&gt;&lt;b&gt;BlastP hit with CHAFR746836_0043730.1&lt;/b&gt;&lt;br&gt;Percentage identity: 39%&lt;br&gt;Percentage coverage: 13%&lt;br&gt;BLAST bit score: 51&lt;br&gt;E-value: 6e-06" locus_tag="GLRG_08621" id="clusterblast-1_h54_5_17" points="454,90 465,90 470,85 465,80 454,80 454,90 " class="clusterblast-orf"  />
<polygon style="stroke:black; stroke-width:1; fill:#FFFFFF; " description="beta-ketoacyl_synthase_domain-containing[br]Location: 363560 - 370196" locus_tag="GLRG_08620" id="clusterblast-1_h54_5_18" points="482,85 487,80 554,80 554,90 487,90 482,85 " class="clusterblast-orf"  />
<polygon style="stroke:black; stroke-width:1; fill:#FFFFFF; " description="O-methyltransferase[br]Location: 360294 - 362987" locus_tag="GLRG_08619" id="clusterblast-1_h54_5_19" points="561,90 585,90 590,85 585,80 561,80 561,90 " class="clusterblast-orf"  />
<polygon style="stroke:black; stroke-width:1; fill:#FFFFFF; " description="O-methyltransferase[br]Location: 357357 - 358734" locus_tag="GLRG_08618" id="clusterblast-1_h54_5_20" points="607,90 618,90 623,85 618,80 607,80 607,90 " class="clusterblast-orf"  />
<polygon style="stroke:black; stroke-width:1; fill:#FFFFFF; " description="zinc_finger_transcription_factor[br]Location: 355550 - 356659" locus_tag="GLRG_08617" id="clusterblast-1_h54_5_21" points="630,85 635,80 642,80 642,90 635,90 630,85 " class="clusterblast-orf"  />
<polygon style="stroke:black; stroke-width:1; fill:#FFFFFF; " description="ferric_reductase_like_transmembrane_component[br]Location: 352087 - 354286" locus_tag="GLRG_08616" id="clusterblast-1_h54_5_22" points="656,85 661,80 680,80 680,90 661,90 656,85 " class="clusterblast-orf"  />
<polygon style="stroke:black; stroke-width:1; fill:#FFFFFF; " description="major_facilitator_superfamily_transporter[br]Location: 349037 - 350994" locus_tag="GLRG_08615" id="clusterblast-1_h54_5_23" points="692,85 697,80 714,80 714,90 697,90 692,85 " class="clusterblast-orf"  />
<polygon style="stroke:black; stroke-width:1; fill:#FFFFFF; " description="short_chain_dehydrogenase[br]Location: 347225 - 348357" locus_tag="GLRG_08614" id="clusterblast-1_h54_5_24" points="721,85 726,80 734,80 734,90 726,90 721,85 " class="clusterblast-orf"  />
<polygon style="stroke:black; stroke-width:1; fill:#FFFFFF; " description="GA4_desaturase[br]Location: 345382 - 346388" locus_tag="GLRG_08613" id="clusterblast-1_h54_5_25" points="743,90 749,90 754,85 749,80 743,80 743,90 " class="clusterblast-orf"  />
<polygon style="stroke:black; stroke-width:1; fill:rgb(169,42,42); " description="short_chain_dehydrogenase[br]Location: 344339 - 345222&lt;br&gt;&lt;br&gt;&lt;b&gt;BlastP hit with CHAFR746836_0043720.1&lt;/b&gt;&lt;br&gt;Percentage identity: 31%&lt;br&gt;Percentage coverage: 103%&lt;br&gt;BLAST bit score: 78&lt;br&gt;E-value: 5e-16" locus_tag="GLRG_08612" id="clusterblast-1_h54_5_26" points="756,85 761,80 765,80 765,90 761,90 756,85 " class="clusterblast-orf"  />
<polygon style="stroke:black; stroke-width:1; fill:#FFFFFF; " description="hypothetical_protein[br]Location: 343244 - 343770" locus_tag="GLRG_08611" id="clusterblast-1_h54_5_27" points="772,90 773,90 778,85 773,80 772,80 772,90 " class="clusterblast-orf"  />
</g>
</svg>
