<svg xmlns="http://www.w3.org/2000/svg" height="230" width="800" version="1.1" y="0" x="0" preserveAspectRatio="none" xmlns:xlink="http://www.w3.org/1999/xlink" viewBox="0 0 800 230"  >
<g class="clusterblast-cluster" label="Query sequence"  >
<text class="clusterblast-acc" y="10" x="5"  >
Query sequence</text>
<line y1="35" x2="778.0" style="stroke:grey; stroke-width:1; " x1="10" y2="35"  />
<polygon style="stroke:black; stroke-width:1; fill:#FFFFFF; " description="unannotated orf[br]Location: 16927 - 18620" locus_tag="CHAFR746836_0088270.1" class="clusterblast-orf" points="10,35 15,30 23,30 23,40 15,40 10,35 " id="clusterblast-1_q20_2_0"  />
<polygon style="stroke:black; stroke-width:1; fill:#FFFFFF; " description="unannotated orf[br]Location: 18968 - 19665" locus_tag="CHAFR746836_0088280.1" class="clusterblast-orf" points="25,40 26,40 31,35 26,30 25,30 25,40 " id="clusterblast-1_q20_2_1"  />
<polygon style="stroke:black; stroke-width:1; fill:#FFFFFF; " description="unannotated orf[br]Location: 24387 - 25688" locus_tag="CHAFR746836_0088290.1" class="clusterblast-orf" points="67,35 72,30 77,30 77,40 72,40 67,35 " id="clusterblast-1_q20_2_2"  />
<polygon style="stroke:black; stroke-width:1; fill:#FFFFFF; " description="unannotated orf[br]Location: 26085 - 26578" locus_tag="CHAFR746836_0088300.1" class="clusterblast-orf" points="80,40 84,35 80,30 80,40 " id="clusterblast-1_q20_2_3"  />
<polygon style="stroke:black; stroke-width:1; fill:#FFFFFF; " description="unannotated orf[br]Location: 27631 - 28537" locus_tag="CHAFR746836_0088310.1" class="clusterblast-orf" points="92,35 97,30 99,30 99,40 97,40 92,35 " id="clusterblast-1_q20_2_4"  />
<polygon style="stroke:black; stroke-width:1; fill:#FFFFFF; " description="unannotated orf[br]Location: 29462 - 32567" locus_tag="CHAFR746836_0088320.1" class="clusterblast-orf" points="106,35 111,30 130,30 130,40 111,40 106,35 " id="clusterblast-1_q20_2_5"  />
<polygon style="stroke:black; stroke-width:1; fill:#FFFFFF; " description="unannotated orf[br]Location: 32818 - 33248" locus_tag="CHAFR746836_0088330.1" class="clusterblast-orf" points="132,40 135,35 132,30 132,40 " id="clusterblast-1_q20_2_6"  />
<polygon style="stroke:black; stroke-width:1; fill:#FFFFFF; " description="unannotated orf[br]Location: 35812 - 38220" locus_tag="CHAFR746836_0088340.1" class="clusterblast-orf" points="155,40 169,40 174,35 169,30 155,30 155,40 " id="clusterblast-1_q20_2_7"  />
<polygon style="stroke:black; stroke-width:1; fill:#FFFFFF; " description="unannotated orf[br]Location: 38703 - 40515" locus_tag="CHAFR746836_0088350.1" class="clusterblast-orf" points="178,35 183,30 192,30 192,40 183,40 178,35 " id="clusterblast-1_q20_2_8"  />
<polygon style="stroke:black; stroke-width:1; fill:#FFFFFF; " description="unannotated orf[br]Location: 54570 - 56265" locus_tag="CHAFR746836_0088360.1" class="clusterblast-orf" points="300,35 305,30 313,30 313,40 305,40 300,35 " id="clusterblast-1_q20_2_9"  />
<polygon style="stroke:black; stroke-width:1; fill:#FFFFFF; " description="unannotated orf[br]Location: 57343 - 57641" locus_tag="CHAFR746836_0088370.1" class="clusterblast-orf" points="321,40 324,35 321,30 321,40 " id="clusterblast-1_q20_2_10"  />
<polygon style="stroke:black; stroke-width:1; fill:#FFFFFF; " description="unannotated orf[br]Location: 59489 - 60069" locus_tag="CHAFR746836_0088380.1" class="clusterblast-orf" points="338,40 342,35 338,30 338,40 " id="clusterblast-1_q20_2_11"  />
<polygon style="stroke:black; stroke-width:1; fill:rgb(190,63,63); " description="unannotated orf[br]Location: 61596 - 62517" locus_tag="CHAFR746836_0088390.1" class="clusterblast-orf" points="354,40 356,40 361,35 356,30 354,30 354,40 " id="clusterblast-1_q20_2_12"  />
<polygon style="stroke:black; stroke-width:1; fill:#FFFFFF; " description="unannotated orf[br]Location: 64887 - 66442" locus_tag="CHAFR746836_0088400.1" class="clusterblast-orf" points="380,40 387,40 392,35 387,30 380,30 380,40 " id="clusterblast-1_q20_2_13"  />
<polygon style="stroke:black; stroke-width:1; fill:rgb(63,63,190); " description="unannotated orf[br]Location: 70818 - 75812" locus_tag="CHAFR746836_0088410.1" class="clusterblast-orf" points="425,35 430,30 464,30 464,40 430,40 425,35 " id="clusterblast-1_q20_2_14"  />
<polygon style="stroke:black; stroke-width:1; fill:rgb(63,190,63); " description="unannotated orf[br]Location: 70818 - 75812" locus_tag="CHAFR746836_0088410.2" class="clusterblast-orf" points="425,35 430,30 464,30 464,40 430,40 425,35 " id="clusterblast-1_q20_2_15"  />
<polygon style="stroke:black; stroke-width:1; fill:rgb(190,63,190); " description="unannotated orf[br]Location: 79054 - 80030" locus_tag="CHAFR746836_0088420.1" class="clusterblast-orf" points="489,35 494,30 497,30 497,40 494,40 489,35 " id="clusterblast-1_q20_2_16"  />
<polygon style="stroke:black; stroke-width:1; fill:rgb(190,190,63); " description="unannotated orf[br]Location: 83242 - 92486" locus_tag="CHAFR746836_0088430.1" class="clusterblast-orf" points="521,40 588,40 593,35 588,30 521,30 521,40 " id="clusterblast-1_q20_2_17"  />
<polygon style="stroke:black; stroke-width:1; fill:#FFFFFF; " description="unannotated orf[br]Location: 96222 - 97917" locus_tag="CHAFR746836_0088440.1" class="clusterblast-orf" points="622,40 630,40 635,35 630,30 622,30 622,40 " id="clusterblast-1_q20_2_18"  />
<polygon style="stroke:black; stroke-width:1; fill:#FFFFFF; " description="unannotated orf[br]Location: 98082 - 99448" locus_tag="CHAFR746836_0088450.1" class="clusterblast-orf" points="636,35 641,30 646,30 646,40 641,40 636,35 " id="clusterblast-1_q20_2_19"  />
<polygon style="stroke:black; stroke-width:1; fill:rgb(190,190,190); " description="unannotated orf[br]Location: 104203 - 105217" locus_tag="CHAFR746836_0088460.1" class="clusterblast-orf" points="683,40 686,40 691,35 686,30 683,30 683,40 " id="clusterblast-1_q20_2_20"  />
<polygon style="stroke:black; stroke-width:1; fill:#FFFFFF; " description="unannotated orf[br]Location: 112157 - 113036" locus_tag="CHAFR746836_0088470.1" class="clusterblast-orf" points="744,40 746,40 751,35 746,30 744,30 744,40 " id="clusterblast-1_q20_2_21"  />
<polygon style="stroke:black; stroke-width:1; fill:#FFFFFF; " description="unannotated orf[br]Location: 114252 - 116434" locus_tag="CHAFR746836_0088480.1" class="clusterblast-orf" points="761,35 766,30 778,30 778,40 766,40 761,35 " id="clusterblast-1_q20_2_22"  />
</g>
<g class="clusterblast-cluster" description="Verticillium dahliae VdLs.17 supercont1.20 genomic scaffold,..." label="DS572714.1_c1"  >
<text class="clusterblast-acc" y="60" x="5"  >
DS572714.1_c1</text>
<text class="clusterblast-desc" y="60" x="460.8"  >
Verticillium dahliae VdLs.17 supercont1.20 genomic scaffold,...</text>
<line y1="85" x2="778.0" style="stroke:grey; stroke-width:1; " x1="10" y2="85"  />
<polygon style="stroke:black; stroke-width:1; fill:#FFFFFF; " description="ubiquitin_C-terminal_hydrolase[br]Location: 457337 - 459982" locus_tag="VDAG_08442" id="clusterblast-1_h20_2_0" points="242,85 247,80 262,80 262,90 247,90 242,85 " class="clusterblast-orf"  />
<polygon style="stroke:black; stroke-width:1; fill:#FFFFFF; " description="54S_ribosomal_protein_L7[br]Location: 461868 - 463047" locus_tag="VDAG_08443" id="clusterblast-1_h20_2_1" points="276,90 281,90 286,85 281,80 276,80 276,90 " class="clusterblast-orf"  />
<polygon style="stroke:black; stroke-width:1; fill:#FFFFFF; " description="Hsp70_nucleotide_exchange_factor_FES1[br]Location: 463348 - 463977" locus_tag="VDAG_08444" id="clusterblast-1_h20_2_2" points="288,85 293,80 293,80 293,90 293,90 288,85 " class="clusterblast-orf"  />
<polygon style="stroke:black; stroke-width:1; fill:#FFFFFF; " description="actin[br]Location: 466404 - 467516" locus_tag="VDAG_08445" id="clusterblast-1_h20_2_3" points="311,90 315,90 320,85 315,80 311,80 311,90 " class="clusterblast-orf"  />
<polygon style="stroke:black; stroke-width:1; fill:rgb(63,63,190); " description="multidrug_resistance_protein[br]Location: 469569 - 474381&lt;br&gt;&lt;br&gt;&lt;b&gt;BlastP hit with CHAFR746836_0088410.1&lt;/b&gt;&lt;br&gt;Percentage identity: 52%&lt;br&gt;Percentage coverage: 99%&lt;br&gt;BLAST bit score: 1295&lt;br&gt;E-value: 0.0&lt;br&gt;&lt;br&gt;&lt;b&gt;BlastP hit with CHAFR746836_0088410.2&lt;/b&gt;&lt;br&gt;Percentage identity: 44%&lt;br&gt;Percentage coverage: 70%&lt;br&gt;BLAST bit score: 654&lt;br&gt;E-value: 0.0" locus_tag="VDAG_08446" id="clusterblast-1_h20_2_4" points="336,85 341,80 373,80 373,90 341,90 336,85 " class="clusterblast-orf"  />
<polygon style="stroke:black; stroke-width:1; fill:rgb(190,63,190); " description="hypothetical_protein[br]Location: 475077 - 476013&lt;br&gt;&lt;br&gt;&lt;b&gt;BlastP hit with CHAFR746836_0088420.1&lt;/b&gt;&lt;br&gt;Percentage identity: 55%&lt;br&gt;Percentage coverage: 98%&lt;br&gt;BLAST bit score: 283&lt;br&gt;E-value: 1e-93" locus_tag="VDAG_08447" id="clusterblast-1_h20_2_5" points="378,85 383,80 386,80 386,90 383,90 378,85 " class="clusterblast-orf"  />
<polygon style="stroke:black; stroke-width:1; fill:rgb(190,190,63); " description="lovastatin_nonaketide_synthase[br]Location: 477875 - 484921&lt;br&gt;&lt;br&gt;&lt;b&gt;BlastP hit with CHAFR746836_0088430.1&lt;/b&gt;&lt;br&gt;Percentage identity: 51%&lt;br&gt;Percentage coverage: 90%&lt;br&gt;BLAST bit score: 2226&lt;br&gt;E-value: 0.0" locus_tag="VDAG_08448" id="clusterblast-1_h20_2_6" points="400,90 449,90 454,85 449,80 400,80 400,90 " class="clusterblast-orf"  />
<polygon style="stroke:black; stroke-width:1; fill:#FFFFFF; " description="hypothetical_protein[br]Location: 485368 - 485787" locus_tag="VDAG_08449" id="clusterblast-1_h20_2_7" points="458,90 461,85 458,80 458,90 " class="clusterblast-orf"  />
<polygon style="stroke:black; stroke-width:1; fill:#FFFFFF; " description="elongator_complex_protein[br]Location: 486187 - 488797" locus_tag="VDAG_08450" id="clusterblast-1_h20_2_8" points="464,85 469,80 484,80 484,90 469,90 464,85 " class="clusterblast-orf"  />
<polygon style="stroke:black; stroke-width:1; fill:#FFFFFF; " description="hypothetical_protein[br]Location: 489422 - 489940" locus_tag="VDAG_08451" id="clusterblast-1_h20_2_9" points="489,90 493,85 489,80 489,90 " class="clusterblast-orf"  />
<polygon style="stroke:black; stroke-width:1; fill:#FFFFFF; " description="zinc_finger_protein[br]Location: 495011 - 496489" locus_tag="VDAG_08452" id="clusterblast-1_h20_2_10" points="532,85 537,80 544,80 544,90 537,90 532,85 " class="clusterblast-orf"  />
</g>
</svg>
