<svg xmlns="http://www.w3.org/2000/svg" height="230" width="800" version="1.1" y="0" x="0" preserveAspectRatio="none" xmlns:xlink="http://www.w3.org/1999/xlink" viewBox="0 0 800 230"  >
<g class="clusterblast-cluster" label="Query sequence"  >
<text class="clusterblast-acc" y="10" x="5"  >
Query sequence</text>
<line y1="35" x2="778.0" style="stroke:grey; stroke-width:1; " x1="10" y2="35"  />
<polygon style="stroke:black; stroke-width:1; fill:rgb(169,42,42); " description="unannotated orf[br]Location: 42361 - 45359" locus_tag="CHAFR746836_0094690.1" class="clusterblast-orf" points="10,35 15,30 30,30 30,40 15,40 10,35 " id="clusterblast-1_q27_10_0"  />
<polygon style="stroke:black; stroke-width:1; fill:#FFFFFF; " description="unannotated orf[br]Location: 45759 - 47601" locus_tag="CHAFR746836_0094700.1" class="clusterblast-orf" points="32,40 40,40 45,35 40,30 32,30 32,40 " id="clusterblast-1_q27_10_1"  />
<polygon style="stroke:black; stroke-width:1; fill:#FFFFFF; " description="unannotated orf[br]Location: 49113 - 50656" locus_tag="CHAFR746836_0094710.1" class="clusterblast-orf" points="55,35 60,30 65,30 65,40 60,40 55,35 " id="clusterblast-1_q27_10_2"  />
<polygon style="stroke:black; stroke-width:1; fill:#FFFFFF; " description="unannotated orf[br]Location: 51961 - 53519" locus_tag="CHAFR746836_0094720.1" class="clusterblast-orf" points="74,35 79,30 84,30 84,40 79,40 74,35 " id="clusterblast-1_q27_10_3"  />
<polygon style="stroke:black; stroke-width:1; fill:rgb(42,169,42); " description="unannotated orf[br]Location: 61574 - 67323" locus_tag="CHAFR746836_0094730.1" class="clusterblast-orf" points="138,35 143,30 177,30 177,40 143,40 138,35 " id="clusterblast-1_q27_10_4"  />
<polygon style="stroke:black; stroke-width:1; fill:rgb(42,169,212); " description="unannotated orf[br]Location: 70255 - 75654" locus_tag="CHAFR746836_0094740.1" class="clusterblast-orf" points="196,40 228,40 233,35 228,30 196,30 196,40 " id="clusterblast-1_q27_10_5"  />
<polygon style="stroke:black; stroke-width:1; fill:rgb(169,169,42); " description="unannotated orf[br]Location: 88624 - 90116" locus_tag="CHAFR746836_0094750.1" class="clusterblast-orf" points="320,35 325,30 330,30 330,40 325,40 320,35 " id="clusterblast-1_q27_10_6"  />
<polygon style="stroke:black; stroke-width:1; fill:#FFFFFF; " description="unannotated orf[br]Location: 91304 - 92309" locus_tag="CHAFR746836_0094760.1" class="clusterblast-orf" points="338,40 339,40 344,35 339,30 338,30 338,40 " id="clusterblast-1_q27_10_7"  />
<polygon style="stroke:black; stroke-width:1; fill:#FFFFFF; " description="unannotated orf[br]Location: 92407 - 93918" locus_tag="CHAFR746836_0094770.1" class="clusterblast-orf" points="345,35 350,30 355,30 355,40 350,40 345,35 " id="clusterblast-1_q27_10_8"  />
<polygon style="stroke:black; stroke-width:1; fill:rgb(169,42,127); " description="unannotated orf[br]Location: 94558 - 96160" locus_tag="CHAFR746836_0094780.1" class="clusterblast-orf" points="359,40 365,40 370,35 365,30 359,30 359,40 " id="clusterblast-1_q27_10_9"  />
<polygon style="stroke:black; stroke-width:1; fill:#FFFFFF; " description="unannotated orf[br]Location: 96488 - 97143" locus_tag="CHAFR746836_0094790.1" class="clusterblast-orf" points="372,35 377,30 377,30 377,40 377,40 372,35 " id="clusterblast-1_q27_10_10"  />
<polygon style="stroke:black; stroke-width:1; fill:#FFFFFF; " description="unannotated orf[br]Location: 99047 - 101039" locus_tag="CHAFR746836_0094800.1" class="clusterblast-orf" points="389,40 398,40 403,35 398,30 389,30 389,40 " id="clusterblast-1_q27_10_11"  />
<polygon style="stroke:black; stroke-width:1; fill:#FFFFFF; " description="unannotated orf[br]Location: 105913 - 106563" locus_tag="CHAFR746836_0094810.1" class="clusterblast-orf" points="435,35 440,30 440,30 440,40 440,40 435,35 " id="clusterblast-1_q27_10_12"  />
<polygon style="stroke:black; stroke-width:1; fill:#FFFFFF; " description="unannotated orf[br]Location: 108528 - 112083" locus_tag="CHAFR746836_0094820.1" class="clusterblast-orf" points="453,40 472,40 477,35 472,30 453,30 453,40 " id="clusterblast-1_q27_10_13"  />
<polygon style="stroke:black; stroke-width:1; fill:rgb(42,42,212); " description="unannotated orf[br]Location: 112908 - 114711" locus_tag="CHAFR746836_0094830.1" class="clusterblast-orf" points="482,35 487,30 494,30 494,40 487,40 482,35 " id="clusterblast-1_q27_10_14"  />
<polygon style="stroke:black; stroke-width:1; fill:rgb(169,169,212); " description="unannotated orf[br]Location: 115507 - 115979" locus_tag="CHAFR746836_0094840.1" class="clusterblast-orf" points="500,40 503,35 500,30 500,40 " id="clusterblast-1_q27_10_15"  />
<polygon style="stroke:black; stroke-width:1; fill:rgb(42,169,127); " description="unannotated orf[br]Location: 116099 - 117436" locus_tag="CHAFR746836_0094850.1" class="clusterblast-orf" points="504,35 509,30 513,30 513,40 509,40 504,35 " id="clusterblast-1_q27_10_16"  />
<polygon style="stroke:black; stroke-width:1; fill:#FFFFFF; " description="unannotated orf[br]Location: 117682 - 118147" locus_tag="CHAFR746836_0094860.1" class="clusterblast-orf" points="514,40 518,35 514,30 514,40 " id="clusterblast-1_q27_10_17"  />
<polygon style="stroke:black; stroke-width:1; fill:#FFFFFF; " description="unannotated orf[br]Location: 119597 - 120815" locus_tag="CHAFR746836_0094870.1" class="clusterblast-orf" points="527,35 532,30 535,30 535,40 532,40 527,35 " id="clusterblast-1_q27_10_18"  />
<polygon style="stroke:black; stroke-width:1; fill:#FFFFFF; " description="unannotated orf[br]Location: 121630 - 122020" locus_tag="CHAFR746836_0094880.1" class="clusterblast-orf" points="541,40 543,35 541,30 541,40 " id="clusterblast-1_q27_10_19"  />
<polygon style="stroke:black; stroke-width:1; fill:#FFFFFF; " description="unannotated orf[br]Location: 122290 - 123684" locus_tag="CHAFR746836_0094890.1" class="clusterblast-orf" points="545,40 550,40 555,35 550,30 545,30 545,40 " id="clusterblast-1_q27_10_20"  />
<polygon style="stroke:black; stroke-width:1; fill:#FFFFFF; " description="unannotated orf[br]Location: 124088 - 124999" locus_tag="CHAFR746836_0094900.1" class="clusterblast-orf" points="557,35 562,30 563,30 563,40 562,40 557,35 " id="clusterblast-1_q27_10_21"  />
<polygon style="stroke:black; stroke-width:1; fill:#FFFFFF; " description="unannotated orf[br]Location: 125439 - 126681" locus_tag="CHAFR746836_0094910.1" class="clusterblast-orf" points="566,40 570,40 575,35 570,30 566,30 566,40 " id="clusterblast-1_q27_10_22"  />
<polygon style="stroke:black; stroke-width:1; fill:#FFFFFF; " description="unannotated orf[br]Location: 127006 - 130058" locus_tag="CHAFR746836_0094920.1" class="clusterblast-orf" points="577,35 582,30 597,30 597,40 582,40 577,35 " id="clusterblast-1_q27_10_23"  />
<polygon style="stroke:black; stroke-width:1; fill:#FFFFFF; " description="unannotated orf[br]Location: 132463 - 134428" locus_tag="CHAFR746836_0094930.1" class="clusterblast-orf" points="613,35 618,30 627,30 627,40 618,40 613,35 " id="clusterblast-1_q27_10_24"  />
<polygon style="stroke:black; stroke-width:1; fill:rgb(169,42,212); " description="unannotated orf[br]Location: 137446 - 138588" locus_tag="CHAFR746836_0094940.2" class="clusterblast-orf" points="647,35 652,30 655,30 655,40 652,40 647,35 " id="clusterblast-1_q27_10_25"  />
<polygon style="stroke:black; stroke-width:1; fill:rgb(42,42,127); " description="unannotated orf[br]Location: 137501 - 138588" locus_tag="CHAFR746836_0094940.1" class="clusterblast-orf" points="647,35 652,30 655,30 655,40 652,40 647,35 " id="clusterblast-1_q27_10_26"  />
<polygon style="stroke:black; stroke-width:1; fill:#FFFFFF; " description="unannotated orf[br]Location: 154744 - 156934" locus_tag="CHAFR746836_0094950.1" class="clusterblast-orf" points="763,40 773,40 778,35 773,30 763,30 763,40 " id="clusterblast-1_q27_10_27"  />
</g>
<g class="clusterblast-cluster" description="Burkholderia cenocepacia HI2424 chromosome 1, complete seq..." label="NC_008542.1_c1"  >
<text class="clusterblast-acc" y="60" x="5"  >
NC_008542.1_c1</text>
<text class="clusterblast-desc" y="60" x="460.8"  >
Burkholderia cenocepacia HI2424 chromosome 1, complete seq...</text>
<line y1="85" x2="778.0" style="stroke:grey; stroke-width:1; " x1="10" y2="85"  />
<polygon style="stroke:black; stroke-width:1; fill:#FFFFFF; " description="transcriptional_regulator_NrdR[br]Location: 908706 - 909185" locus_tag="Bcen2424_0807" id="clusterblast-1_h27_10_0" points="231,85 234,80 234,90 231,85 " class="clusterblast-orf"  />
<polygon style="stroke:black; stroke-width:1; fill:#FFFFFF; " description="serine_hydroxymethyltransferase[br]Location: 907452 - 908699" locus_tag="Bcen2424_0806" id="clusterblast-1_h27_10_1" points="234,85 239,80 242,80 242,90 239,90 234,85 " class="clusterblast-orf"  />
<polygon style="stroke:black; stroke-width:1; fill:rgb(42,42,127); " description="short-chain_dehydrogenase/reductase_SDR[br]Location: 906287 - 907033&lt;br&gt;&lt;br&gt;&lt;b&gt;BlastP hit with CHAFR746836_0094940.2&lt;/b&gt;&lt;br&gt;Percentage identity: 42%&lt;br&gt;Percentage coverage: 92%&lt;br&gt;BLAST bit score: 183&lt;br&gt;E-value: 6e-55&lt;br&gt;&lt;br&gt;&lt;b&gt;BlastP hit with CHAFR746836_0094940.1&lt;/b&gt;&lt;br&gt;Percentage identity: 42%&lt;br&gt;Percentage coverage: 94%&lt;br&gt;BLAST bit score: 184&lt;br&gt;E-value: 5e-55" locus_tag="Bcen2424_0805" id="clusterblast-1_h27_10_2" points="245,90 245,90 250,85 245,80 245,80 245,90 " class="clusterblast-orf"  />
<polygon style="stroke:black; stroke-width:1; fill:#FFFFFF; " description="4-hydroxybenzoyl-CoA_thioesterase[br]Location: 905694 - 906179" locus_tag="Bcen2424_0804" id="clusterblast-1_h27_10_3" points="251,90 254,85 251,80 251,90 " class="clusterblast-orf"  />
<polygon style="stroke:black; stroke-width:1; fill:#FFFFFF; " description="MotA/TolQ/ExbB_proton_channel[br]Location: 904872 - 905549" locus_tag="Bcen2424_0803" id="clusterblast-1_h27_10_4" points="255,90 259,85 255,80 255,90 " class="clusterblast-orf"  />
<polygon style="stroke:black; stroke-width:1; fill:#FFFFFF; " description="biopolymer_transport_protein_ExbD/TolR[br]Location: 904412 - 904861" locus_tag="Bcen2424_0802" id="clusterblast-1_h27_10_5" points="259,90 262,85 259,80 259,90 " class="clusterblast-orf"  />
<polygon style="stroke:black; stroke-width:1; fill:#FFFFFF; " description="TonB_family_protein[br]Location: 903360 - 904415" locus_tag="Bcen2424_0801" id="clusterblast-1_h27_10_6" points="262,90 265,90 270,85 265,80 262,80 262,90 " class="clusterblast-orf"  />
<polygon style="stroke:black; stroke-width:1; fill:#FFFFFF; " description="translocation_protein_TolB[br]Location: 901955 - 903250" locus_tag="Bcen2424_0800" id="clusterblast-1_h27_10_7" points="270,90 274,90 279,85 274,80 270,80 270,90 " class="clusterblast-orf"  />
<polygon style="stroke:black; stroke-width:1; fill:#FFFFFF; " description="OmpA-like_protein[br]Location: 901425 - 901937" locus_tag="Bcen2424_0799" id="clusterblast-1_h27_10_8" points="279,90 283,85 279,80 279,90 " class="clusterblast-orf"  />
<polygon style="stroke:black; stroke-width:1; fill:#FFFFFF; " description="hypothetical_protein[br]Location: 900656 - 901405" locus_tag="Bcen2424_0798" id="clusterblast-1_h27_10_9" points="283,90 283,90 288,85 283,80 283,80 283,90 " class="clusterblast-orf"  />
<polygon style="stroke:black; stroke-width:1; fill:#FFFFFF; " description="XRE_family_transcriptional_regulator[br]Location: 899877 - 900227" locus_tag="Bcen2424_0797" id="clusterblast-1_h27_10_10" points="291,85 293,80 293,90 291,85 " class="clusterblast-orf"  />
<polygon style="stroke:black; stroke-width:1; fill:#FFFFFF; " description="hypothetical_protein[br]Location: 899374 - 899844" locus_tag="Bcen2424_0796" id="clusterblast-1_h27_10_11" points="293,90 296,85 293,80 293,90 " class="clusterblast-orf"  />
<polygon style="stroke:black; stroke-width:1; fill:#FFFFFF; " description="hypothetical_protein[br]Location: 898827 - 899306" locus_tag="Bcen2424_0795" id="clusterblast-1_h27_10_12" points="297,90 300,85 297,80 297,90 " class="clusterblast-orf"  />
<polygon style="stroke:black; stroke-width:1; fill:#FFFFFF; " description="hypothetical_protein[br]Location: 898502 - 898714" locus_tag="Bcen2424_0794" id="clusterblast-1_h27_10_13" points="301,90 302,85 301,80 301,90 " class="clusterblast-orf"  />
<polygon style="stroke:black; stroke-width:1; fill:#FFFFFF; " description="transcriptional_modulator_of_MazE/toxin,_MazF[br]Location: 898182 - 898505" locus_tag="Bcen2424_0793" id="clusterblast-1_h27_10_14" points="302,90 304,85 302,80 302,90 " class="clusterblast-orf"  />
<polygon style="stroke:black; stroke-width:1; fill:#FFFFFF; " description="hypothetical_protein[br]Location: 897337 - 897861" locus_tag="Bcen2424_0792" id="clusterblast-1_h27_10_15" points="306,90 310,85 306,80 306,90 " class="clusterblast-orf"  />
<polygon style="stroke:black; stroke-width:1; fill:#FFFFFF; " description="plasmid-related_protein[br]Location: 896301 - 897335" locus_tag="Bcen2424_0791" id="clusterblast-1_h27_10_16" points="310,90 312,90 317,85 312,80 310,80 310,90 " class="clusterblast-orf"  />
<polygon style="stroke:black; stroke-width:1; fill:#FFFFFF; " description="YiaAB_two_helix_domain-containing_protein[br]Location: 895735 - 896178" locus_tag="Bcen2424_0790" id="clusterblast-1_h27_10_17" points="318,85 321,80 321,90 318,85 " class="clusterblast-orf"  />
<polygon style="stroke:black; stroke-width:1; fill:#FFFFFF; " description="AraC_family_transcriptional_regulator[br]Location: 894684 - 895631" locus_tag="Bcen2424_0789" id="clusterblast-1_h27_10_18" points="321,85 326,80 328,80 328,90 326,90 321,85 " class="clusterblast-orf"  />
<polygon style="stroke:black; stroke-width:1; fill:#FFFFFF; " description="alkylhydroperoxidase[br]Location: 894225 - 894554" locus_tag="Bcen2424_0788" id="clusterblast-1_h27_10_19" points="329,90 331,85 329,80 329,90 " class="clusterblast-orf"  />
<polygon style="stroke:black; stroke-width:1; fill:#FFFFFF; " description="glutamine_amidotransferase,_class-II[br]Location: 893193 - 894059" locus_tag="Bcen2424_0787" id="clusterblast-1_h27_10_20" points="332,90 333,90 338,85 333,80 332,80 332,90 " class="clusterblast-orf"  />
<polygon style="stroke:black; stroke-width:1; fill:#FFFFFF; " description="adenylyl-sulfate_kinase[br]Location: 891914 - 892477" locus_tag="Bcen2424_0786" id="clusterblast-1_h27_10_21" points="342,90 346,85 342,80 342,90 " class="clusterblast-orf"  />
<polygon style="stroke:black; stroke-width:1; fill:#FFFFFF; " description="GCN5-related_N-acetyltransferase[br]Location: 891137 - 891817" locus_tag="Bcen2424_0785" id="clusterblast-1_h27_10_22" points="347,85 351,80 351,90 347,85 " class="clusterblast-orf"  />
<polygon style="stroke:black; stroke-width:1; fill:#FFFFFF; " description="8-amino-7-oxononanoate_synthase[br]Location: 889812 - 891140" locus_tag="Bcen2424_0784" id="clusterblast-1_h27_10_23" points="351,85 356,80 360,80 360,90 356,90 351,85 " class="clusterblast-orf"  />
<polygon style="stroke:black; stroke-width:1; fill:#FFFFFF; " description="UDP-3-O-[3-hydroxymyristoyl]_N-acetylglucosamine[br]Location: 888830 - 889747" locus_tag="Bcen2424_0783" id="clusterblast-1_h27_10_24" points="361,85 366,80 367,80 367,90 366,90 361,85 " class="clusterblast-orf"  />
<polygon style="stroke:black; stroke-width:1; fill:#FFFFFF; " description="beta-ketoacyl_synthase[br]Location: 881199 - 888833" locus_tag="Bcen2424_0782" id="clusterblast-1_h27_10_25" points="367,85 372,80 418,80 418,90 372,90 367,85 " class="clusterblast-orf"  />
<polygon style="stroke:black; stroke-width:1; fill:#FFFFFF; " description="sulfatase[br]Location: 879657 - 881195" locus_tag="Bcen2424_0781" id="clusterblast-1_h27_10_26" points="418,85 423,80 428,80 428,90 423,90 418,85 " class="clusterblast-orf"  />
<polygon style="stroke:black; stroke-width:1; fill:rgb(169,42,212); " description="short-chain_dehydrogenase/reductase_SDR[br]Location: 878900 - 879655&lt;br&gt;&lt;br&gt;&lt;b&gt;BlastP hit with CHAFR746836_0094940.2&lt;/b&gt;&lt;br&gt;Percentage identity: 32%&lt;br&gt;Percentage coverage: 73%&lt;br&gt;BLAST bit score: 77&lt;br&gt;E-value: 1e-15&lt;br&gt;&lt;br&gt;&lt;b&gt;BlastP hit with CHAFR746836_0094940.1&lt;/b&gt;&lt;br&gt;Percentage identity: 32%&lt;br&gt;Percentage coverage: 74%&lt;br&gt;BLAST bit score: 77&lt;br&gt;E-value: 1e-15" locus_tag="Bcen2424_0780" id="clusterblast-1_h27_10_27" points="428,85 433,80 434,80 434,90 433,90 428,85 " class="clusterblast-orf"  />
<polygon style="stroke:black; stroke-width:1; fill:#FFFFFF; " description="capsule_polysaccharide_biosynthesis[br]Location: 877672 - 878877" locus_tag="Bcen2424_0779" id="clusterblast-1_h27_10_28" points="434,85 439,80 442,80 442,90 439,90 434,85 " class="clusterblast-orf"  />
<polygon style="stroke:black; stroke-width:1; fill:#FFFFFF; " description="lipopolysaccharide_biosynthesis[br]Location: 875285 - 876433" locus_tag="Bcen2424_0778" id="clusterblast-1_h27_10_29" points="450,90 453,90 458,85 453,80 450,80 450,90 " class="clusterblast-orf"  />
<polygon style="stroke:black; stroke-width:1; fill:#FFFFFF; " description="ABC-2_type_transporter[br]Location: 874486 - 875313" locus_tag="Bcen2424_0777" id="clusterblast-1_h27_10_30" points="458,90 458,90 463,85 458,80 458,80 458,90 " class="clusterblast-orf"  />
<polygon style="stroke:black; stroke-width:1; fill:#FFFFFF; " description="ABC_transporter_related[br]Location: 873833 - 874489" locus_tag="Bcen2424_0776" id="clusterblast-1_h27_10_31" points="463,90 467,85 463,80 463,90 " class="clusterblast-orf"  />
<polygon style="stroke:black; stroke-width:1; fill:#FFFFFF; " description="glycosyl_transferase,_group_1[br]Location: 871506 - 873728" locus_tag="Bcen2424_0775" id="clusterblast-1_h27_10_32" points="468,90 478,90 483,85 478,80 468,80 468,90 " class="clusterblast-orf"  />
<polygon style="stroke:black; stroke-width:1; fill:#FFFFFF; " description="glycosyl_transferase,_group_1[br]Location: 870274 - 871488" locus_tag="Bcen2424_0774" id="clusterblast-1_h27_10_33" points="483,90 486,90 491,85 486,80 483,80 483,90 " class="clusterblast-orf"  />
<polygon style="stroke:black; stroke-width:1; fill:#FFFFFF; " description="hypothetical_protein[br]Location: 868883 - 870277" locus_tag="Bcen2424_0773" id="clusterblast-1_h27_10_34" points="491,90 496,90 501,85 496,80 491,80 491,90 " class="clusterblast-orf"  />
<polygon style="stroke:black; stroke-width:1; fill:#FFFFFF; " description="glycosyl_transferase_family_protein[br]Location: 866291 - 868420" locus_tag="Bcen2424_0772" id="clusterblast-1_h27_10_35" points="504,90 513,90 518,85 513,80 504,80 504,90 " class="clusterblast-orf"  />
<polygon style="stroke:black; stroke-width:1; fill:#FFFFFF; " description="polysaccharide_export_protein[br]Location: 864830 - 866059" locus_tag="Bcen2424_0771" id="clusterblast-1_h27_10_36" points="520,85 525,80 528,80 528,90 525,90 520,85 " class="clusterblast-orf"  />
<polygon style="stroke:black; stroke-width:1; fill:#FFFFFF; " description="glycosyl_transferase,_group_1[br]Location: 863565 - 864764" locus_tag="Bcen2424_0770" id="clusterblast-1_h27_10_37" points="528,90 531,90 536,85 531,80 528,80 528,90 " class="clusterblast-orf"  />
<polygon style="stroke:black; stroke-width:1; fill:#FFFFFF; " description="capsule_polysaccharide_biosynthesis[br]Location: 861593 - 863530" locus_tag="Bcen2424_0769" id="clusterblast-1_h27_10_38" points="537,90 545,90 550,85 545,80 537,80 537,90 " class="clusterblast-orf"  />
<polygon style="stroke:black; stroke-width:1; fill:#FFFFFF; " description="MscS_mechanosensitive_ion_channel[br]Location: 860633 - 861445" locus_tag="Bcen2424_0768" id="clusterblast-1_h27_10_39" points="551,90 551,90 556,85 551,80 551,80 551,90 " class="clusterblast-orf"  />
</g>
</svg>
