<svg xmlns="http://www.w3.org/2000/svg" height="230" width="800" version="1.1" y="0" x="0" preserveAspectRatio="none" xmlns:xlink="http://www.w3.org/1999/xlink" viewBox="0 0 800 230"  >
<g class="clusterblast-cluster" label="Query sequence"  >
<text class="clusterblast-acc" y="10" x="5"  >
Query sequence</text>
<line y1="35" x2="778.0" style="stroke:grey; stroke-width:1; " x1="10" y2="35"  />
<polygon style="stroke:black; stroke-width:1; fill:rgb(190,63,63); " description="unannotated orf[br]Location: 207 - 1204" locus_tag="CHAFR746836_0060940.1" class="clusterblast-orf" points="10,35 15,30 19,30 19,40 15,40 10,35 " id="clusterblast-1_q4_5_0"  />
<polygon style="stroke:black; stroke-width:1; fill:rgb(63,63,190); " description="unannotated orf[br]Location: 2322 - 6530" locus_tag="CHAFR746836_0060950.1" class="clusterblast-orf" points="29,40 64,40 69,35 64,30 29,30 29,40 " id="clusterblast-1_q4_5_1"  />
<polygon style="stroke:black; stroke-width:1; fill:rgb(63,190,63); " description="unannotated orf[br]Location: 10116 - 15324" locus_tag="CHAFR746836_0060960.1" class="clusterblast-orf" points="103,40 147,40 152,35 147,30 103,30 103,40 " id="clusterblast-1_q4_5_2"  />
<polygon style="stroke:black; stroke-width:1; fill:#FFFFFF; " description="unannotated orf[br]Location: 16383 - 17532" locus_tag="CHAFR746836_0060970.1" class="clusterblast-orf" points="162,35 167,30 173,30 173,40 167,40 162,35 " id="clusterblast-1_q4_5_3"  />
<polygon style="stroke:black; stroke-width:1; fill:#FFFFFF; " description="unannotated orf[br]Location: 21187 - 23857" locus_tag="CHAFR746836_0060980.1" class="clusterblast-orf" points="207,35 212,30 232,30 232,40 212,40 207,35 " id="clusterblast-1_q4_5_4"  />
<polygon style="stroke:black; stroke-width:1; fill:#FFFFFF; " description="unannotated orf[br]Location: 25860 - 27618" locus_tag="CHAFR746836_0060990.1" class="clusterblast-orf" points="251,35 256,30 268,30 268,40 256,40 251,35 " id="clusterblast-1_q4_5_5"  />
<polygon style="stroke:black; stroke-width:1; fill:#FFFFFF; " description="unannotated orf[br]Location: 28662 - 29973" locus_tag="CHAFR746836_0061000.1" class="clusterblast-orf" points="277,35 282,30 290,30 290,40 282,40 277,35 " id="clusterblast-1_q4_5_6"  />
<polygon style="stroke:black; stroke-width:1; fill:#FFFFFF; " description="unannotated orf[br]Location: 31849 - 32962" locus_tag="CHAFR746836_0061010.1" class="clusterblast-orf" points="307,35 312,30 318,30 318,40 312,40 307,35 " id="clusterblast-1_q4_5_7"  />
<polygon style="stroke:black; stroke-width:1; fill:#FFFFFF; " description="unannotated orf[br]Location: 35346 - 36469" locus_tag="CHAFR746836_0061020.1" class="clusterblast-orf" points="340,40 346,40 351,35 346,30 340,30 340,40 " id="clusterblast-1_q4_5_8"  />
<polygon style="stroke:black; stroke-width:1; fill:rgb(190,63,190); " description="unannotated orf[br]Location: 38122 - 39903" locus_tag="CHAFR746836_0061030.1" class="clusterblast-orf" points="366,40 378,40 383,35 378,30 366,30 366,40 " id="clusterblast-1_q4_5_9"  />
<polygon style="stroke:black; stroke-width:1; fill:#FFFFFF; " description="unannotated orf[br]Location: 40585 - 42854" locus_tag="CHAFR746836_0061040.1" class="clusterblast-orf" points="390,35 395,30 411,30 411,40 395,40 390,35 " id="clusterblast-1_q4_5_10"  />
<polygon style="stroke:black; stroke-width:1; fill:rgb(190,190,63); " description="unannotated orf[br]Location: 52799 - 56938" locus_tag="CHAFR746836_0061050.1" class="clusterblast-orf" points="505,35 510,30 544,30 544,40 510,40 505,35 " id="clusterblast-1_q4_5_11"  />
<polygon style="stroke:black; stroke-width:1; fill:#FFFFFF; " description="unannotated orf[br]Location: 58138 - 58734" locus_tag="CHAFR746836_0061060.1" class="clusterblast-orf" points="555,40 555,40 560,35 555,30 555,30 555,40 " id="clusterblast-1_q4_5_12"  />
<polygon style="stroke:black; stroke-width:1; fill:#FFFFFF; " description="unannotated orf[br]Location: 74060 - 75703" locus_tag="CHAFR746836_0061070.1" class="clusterblast-orf" points="705,40 715,40 720,35 715,30 705,30 705,40 " id="clusterblast-1_q4_5_13"  />
<polygon style="stroke:black; stroke-width:1; fill:rgb(190,190,190); " description="unannotated orf[br]Location: 80197 - 81757" locus_tag="CHAFR746836_0061080.2" class="clusterblast-orf" points="762,40 772,40 777,35 772,30 762,30 762,40 " id="clusterblast-1_q4_5_14"  />
<polygon style="stroke:black; stroke-width:1; fill:rgb(63,190,190); " description="unannotated orf[br]Location: 80197 - 81797" locus_tag="CHAFR746836_0061080.1" class="clusterblast-orf" points="762,40 773,40 778,35 773,30 762,30 762,40 " id="clusterblast-1_q4_5_15"  />
</g>
<g class="clusterblast-cluster" description="Ajellomyces capsulatus G186AR genomic scaffold supercont2.20..." label="GG663382.1_c1"  >
<text class="clusterblast-acc" y="60" x="5"  >
GG663382.1_c1</text>
<text class="clusterblast-desc" y="60" x="460.8"  >
Ajellomyces capsulatus G186AR genomic scaffold supercont2.20...</text>
<line y1="85" x2="778.0" style="stroke:grey; stroke-width:1; " x1="10" y2="85"  />
<polygon style="stroke:black; stroke-width:1; fill:#FFFFFF; " description="predicted_protein[br]Location: 190886 - 192237" locus_tag="HCBG_09042" id="clusterblast-1_h4_5_0" points="177,85 182,80 189,80 189,90 182,90 177,85 " class="clusterblast-orf"  />
<polygon style="stroke:black; stroke-width:1; fill:#FFFFFF; " description="acetylase[br]Location: 187186 - 188633" locus_tag="HCBG_09041" id="clusterblast-1_h4_5_1" points="210,90 219,90 224,85 219,80 210,80 210,90 " class="clusterblast-orf"  />
<polygon style="stroke:black; stroke-width:1; fill:#FFFFFF; " description="long-chain-fatty-acid-CoA_ligase[br]Location: 185071 - 186967" locus_tag="HCBG_09040" id="clusterblast-1_h4_5_2" points="226,85 231,80 244,80 244,90 231,90 226,85 " class="clusterblast-orf"  />
<polygon style="stroke:black; stroke-width:1; fill:#FFFFFF; " description="L-ornithine_5-monooxygenase[br]Location: 182460 - 184028" locus_tag="HCBG_09039" id="clusterblast-1_h4_5_3" points="254,90 264,90 269,85 264,80 254,80 254,90 " class="clusterblast-orf"  />
<polygon style="stroke:black; stroke-width:1; fill:#FFFFFF; " description="conserved_hypothetical_protein[br]Location: 180781 - 182076" locus_tag="HCBG_09038" id="clusterblast-1_h4_5_4" points="272,85 277,80 284,80 284,90 277,90 272,85 " class="clusterblast-orf"  />
<polygon style="stroke:black; stroke-width:1; fill:rgb(190,63,63); " description="conserved_hypothetical_protein[br]Location: 178940 - 179695&lt;br&gt;&lt;br&gt;&lt;b&gt;BlastP hit with CHAFR746836_0060940.1&lt;/b&gt;&lt;br&gt;Percentage identity: 36%&lt;br&gt;Percentage coverage: 26%&lt;br&gt;BLAST bit score: 58&lt;br&gt;E-value: 3e-09" locus_tag="HCBG_09037" id="clusterblast-1_h4_5_5" points="295,85 300,80 302,80 302,90 300,90 295,85 " class="clusterblast-orf"  />
<polygon style="stroke:black; stroke-width:1; fill:#FFFFFF; " description="siderophore_iron_transporter[br]Location: 176412 - 178377" locus_tag="HCBG_09036" id="clusterblast-1_h4_5_6" points="307,85 312,80 325,80 325,90 312,90 307,85 " class="clusterblast-orf"  />
<polygon style="stroke:black; stroke-width:1; fill:#FFFFFF; " description="predicted_protein[br]Location: 175583 - 176054" locus_tag="HCBG_09035" id="clusterblast-1_h4_5_7" points="329,90 333,85 329,80 329,90 " class="clusterblast-orf"  />
<polygon style="stroke:black; stroke-width:1; fill:#FFFFFF; " description="conserved_hypothetical_protein[br]Location: 173185 - 174399" locus_tag="HCBG_09034" id="clusterblast-1_h4_5_8" points="344,90 351,90 356,85 351,80 344,80 344,90 " class="clusterblast-orf"  />
<polygon style="stroke:black; stroke-width:1; fill:rgb(63,190,63); " description="nonribosomal_peptide_synthetase[br]Location: 166658 - 172583&lt;br&gt;&lt;br&gt;&lt;b&gt;BlastP hit with CHAFR746836_0060960.1&lt;/b&gt;&lt;br&gt;Percentage identity: 62%&lt;br&gt;Percentage coverage: 100%&lt;br&gt;BLAST bit score: 2256&lt;br&gt;E-value: 0.0&lt;br&gt;&lt;br&gt;&lt;b&gt;BlastP hit with CHAFR746836_0061050.1&lt;/b&gt;&lt;br&gt;Percentage identity: 35%&lt;br&gt;Percentage coverage: 44%&lt;br&gt;BLAST bit score: 331&lt;br&gt;E-value: 8e-92" locus_tag="HCBG_09033" id="clusterblast-1_h4_5_9" points="362,85 367,80 417,80 417,90 367,90 362,85 " class="clusterblast-orf"  />
<polygon style="stroke:black; stroke-width:1; fill:rgb(63,63,190); " description="conserved_hypothetical_protein[br]Location: 161387 - 165473&lt;br&gt;&lt;br&gt;&lt;b&gt;BlastP hit with CHAFR746836_0060950.1&lt;/b&gt;&lt;br&gt;Percentage identity: 54%&lt;br&gt;Percentage coverage: 99%&lt;br&gt;BLAST bit score: 1443&lt;br&gt;E-value: 0.0" locus_tag="HCBG_09032" id="clusterblast-1_h4_5_10" points="428,90 462,90 467,85 462,80 428,80 428,90 " class="clusterblast-orf"  />
<polygon style="stroke:black; stroke-width:1; fill:#FFFFFF; " description="conserved_hypothetical_protein[br]Location: 159414 - 161000" locus_tag="HCBG_09031" id="clusterblast-1_h4_5_11" points="471,85 476,80 485,80 485,90 476,90 471,85 " class="clusterblast-orf"  />
<polygon style="stroke:black; stroke-width:1; fill:#FFFFFF; " description="predicted_protein[br]Location: 156635 - 157044" locus_tag="HCBG_09030" id="clusterblast-1_h4_5_12" points="508,85 512,80 512,90 508,85 " class="clusterblast-orf"  />
<polygon style="stroke:black; stroke-width:1; fill:#FFFFFF; " description="type_I_phosphodiesterase/nucleotide[br]Location: 153845 - 156118" locus_tag="HCBG_09029" id="clusterblast-1_h4_5_13" points="516,85 521,80 538,80 538,90 521,90 516,85 " class="clusterblast-orf"  />
<polygon style="stroke:black; stroke-width:1; fill:#FFFFFF; " description="ubiquitin_carboxyl-terminal_hydrolase[br]Location: 149992 - 153012" locus_tag="HCBG_09028" id="clusterblast-1_h4_5_14" points="546,90 569,90 574,85 569,80 546,80 546,90 " class="clusterblast-orf"  />
<polygon style="stroke:black; stroke-width:1; fill:#FFFFFF; " description="glutamate_transporter_2A[br]Location: 147975 - 149712" locus_tag="HCBG_09027" id="clusterblast-1_h4_5_15" points="577,85 582,80 593,80 593,90 582,90 577,85 " class="clusterblast-orf"  />
<polygon style="stroke:black; stroke-width:1; fill:#FFFFFF; " description="predicted_protein[br]Location: 146276 - 147626" locus_tag="HCBG_09026" id="clusterblast-1_h4_5_16" points="596,90 604,90 609,85 604,80 596,80 596,90 " class="clusterblast-orf"  />
</g>
</svg>
