<svg xmlns="http://www.w3.org/2000/svg" height="230" width="800" version="1.1" y="0" x="0" preserveAspectRatio="none" xmlns:xlink="http://www.w3.org/1999/xlink" viewBox="0 0 800 230"  >
<g class="clusterblast-cluster" label="Query sequence"  >
<text class="clusterblast-acc" y="10" x="5"  >
Query sequence</text>
<line y1="35" x2="778.0" style="stroke:grey; stroke-width:1; " x1="10" y2="35"  />
<polygon style="stroke:black; stroke-width:1; fill:red; " description="unannotated orf[br]Location: 147728 - 150067" locus_tag="CHAFR746836_0089390.1" class="clusterblast-orf" points="212,35 217,30 237,30 237,40 217,40 212,35 " id="clusterblast-1_q21_2_0"  />
<polygon style="stroke:black; stroke-width:1; fill:green; " description="unannotated orf[br]Location: 150361 - 151620" locus_tag="CHAFR746836_0089400.1" class="clusterblast-orf" points="241,40 250,40 255,35 250,30 241,30 241,40 " id="clusterblast-1_q21_2_1"  />
<polygon style="stroke:black; stroke-width:1; fill:#FFFFFF; " description="unannotated orf[br]Location: 151969 - 153053" locus_tag="CHAFR746836_0089410.1" class="clusterblast-orf" points="259,35 264,30 271,30 271,40 264,40 259,35 " id="clusterblast-1_q21_2_2"  />
<polygon style="stroke:black; stroke-width:1; fill:#FFFFFF; " description="unannotated orf[br]Location: 157887 - 159330" locus_tag="CHAFR746836_0089420.1" class="clusterblast-orf" points="324,35 329,30 340,30 340,40 329,40 324,35 " id="clusterblast-1_q21_2_3"  />
<polygon style="stroke:black; stroke-width:1; fill:#FFFFFF; " description="unannotated orf[br]Location: 160724 - 163324" locus_tag="CHAFR746836_0089430.1" class="clusterblast-orf" points="356,40 379,40 384,35 379,30 356,30 356,40 " id="clusterblast-1_q21_2_4"  />
<polygon style="stroke:black; stroke-width:1; fill:#FFFFFF; " description="unannotated orf[br]Location: 169082 - 169702" locus_tag="CHAFR746836_0089440.1" class="clusterblast-orf" points="448,35 453,30 455,30 455,40 453,40 448,35 " id="clusterblast-1_q21_2_5"  />
<polygon style="stroke:black; stroke-width:1; fill:#FFFFFF; " description="unannotated orf[br]Location: 172361 - 174491" locus_tag="CHAFR746836_0089450.1" class="clusterblast-orf" points="485,35 490,30 508,30 508,40 490,40 485,35 " id="clusterblast-1_q21_2_6"  />
<polygon style="stroke:black; stroke-width:1; fill:blue; " description="unannotated orf[br]Location: 175623 - 180497" locus_tag="CHAFR746836_0089460.1" class="clusterblast-orf" points="521,40 570,40 575,35 570,30 521,30 521,40 " id="clusterblast-1_q21_2_7"  />
</g>
<g class="clusterblast-cluster" description="Myxococcus xanthus DK 1622 chromosome, complete genome." label="NC_008095.1_c14"  >
<text class="clusterblast-acc" y="60" x="5"  >
NC_008095.1_c14</text>
<text class="clusterblast-desc" y="60" x="460.8"  >
Myxococcus xanthus DK 1622 chromosome, complete genome.</text>
<line y1="85" x2="778.0" style="stroke:grey; stroke-width:1; " x1="10" y2="85"  />
<polygon style="stroke:black; stroke-width:1; fill:#FFFFFF; " description="putative_tRNA_pseudouridine_synthase_A[br]Location: 4976766 - 4977611" locus_tag="MXAN_4057" id="clusterblast-1_h21_2_0" points="10,90 14,90 19,85 14,80 10,80 10,90 " class="clusterblast-orf"  />
<polygon style="stroke:black; stroke-width:1; fill:#FFFFFF; " description="hypothetical_protein[br]Location: 4977639 - 4977803" locus_tag="MXAN_4058" id="clusterblast-1_h21_2_1" points="19,85 21,80 21,90 19,85 " class="clusterblast-orf"  />
<polygon style="stroke:black; stroke-width:1; fill:#FFFFFF; " description="hypothetical_protein[br]Location: 4978552 - 4979067" locus_tag="MXAN_4059" id="clusterblast-1_h21_2_2" points="29,85 34,80 35,80 35,90 34,90 29,85 " class="clusterblast-orf"  />
<polygon style="stroke:black; stroke-width:1; fill:#FFFFFF; " description="AraC_family_transcriptional_regulator[br]Location: 4979121 - 4979909" locus_tag="MXAN_4060" id="clusterblast-1_h21_2_3" points="36,90 39,90 44,85 39,80 36,80 36,90 " class="clusterblast-orf"  />
<polygon style="stroke:black; stroke-width:1; fill:#FFFFFF; " description="putative_lipoprotein[br]Location: 4979999 - 4980937" locus_tag="MXAN_4061" id="clusterblast-1_h21_2_4" points="45,90 51,90 56,85 51,80 45,80 45,90 " class="clusterblast-orf"  />
<polygon style="stroke:black; stroke-width:1; fill:#FFFFFF; " description="leucine-rich_repeat-containing_protein[br]Location: 4980997 - 4982871" locus_tag="MXAN_4062" id="clusterblast-1_h21_2_5" points="56,90 72,90 77,85 72,80 56,80 56,90 " class="clusterblast-orf"  />
<polygon style="stroke:black; stroke-width:1; fill:#FFFFFF; " description="hypothetical_protein[br]Location: 4982912 - 4983808" locus_tag="MXAN_4063" id="clusterblast-1_h21_2_6" points="78,85 83,80 88,80 88,90 83,90 78,85 " class="clusterblast-orf"  />
<polygon style="stroke:black; stroke-width:1; fill:#FFFFFF; " description="putative_adenylylsulfate_kinase[br]Location: 4983907 - 4984680" locus_tag="MXAN_4064" id="clusterblast-1_h21_2_7" points="89,85 94,80 97,80 97,90 94,90 89,85 " class="clusterblast-orf"  />
<polygon style="stroke:black; stroke-width:1; fill:#FFFFFF; " description="hypothetical_protein[br]Location: 4984873 - 4985286" locus_tag="MXAN_4065" id="clusterblast-1_h21_2_8" points="99,85 104,80 104,80 104,90 104,90 99,85 " class="clusterblast-orf"  />
<polygon style="stroke:black; stroke-width:1; fill:#FFFFFF; " description="hypothetical_protein[br]Location: 4985283 - 4985924" locus_tag="MXAN_4066" id="clusterblast-1_h21_2_9" points="104,85 109,80 111,80 111,90 109,90 104,85 " class="clusterblast-orf"  />
<polygon style="stroke:black; stroke-width:1; fill:#FFFFFF; " description="ThiS_family_protein[br]Location: 4985930 - 4986202" locus_tag="MXAN_4067" id="clusterblast-1_h21_2_10" points="111,85 114,80 114,90 111,85 " class="clusterblast-orf"  />
<polygon style="stroke:black; stroke-width:1; fill:#FFFFFF; " description="hypothetical_protein[br]Location: 4986210 - 4986449" locus_tag="MXAN_4068" id="clusterblast-1_h21_2_11" points="114,85 117,80 117,90 114,85 " class="clusterblast-orf"  />
<polygon style="stroke:black; stroke-width:1; fill:#FFFFFF; " description="ThiF/MoeZ/MoeB_domain-containing_protein[br]Location: 4986437 - 4987204" locus_tag="MXAN_4069" id="clusterblast-1_h21_2_12" points="117,85 122,80 125,80 125,90 122,90 117,85 " class="clusterblast-orf"  />
<polygon style="stroke:black; stroke-width:1; fill:#FFFFFF; " description="hypothetical_protein[br]Location: 4987237 - 4987713" locus_tag="MXAN_4070" id="clusterblast-1_h21_2_13" points="126,90 126,90 131,85 126,80 126,80 126,90 " class="clusterblast-orf"  />
<polygon style="stroke:black; stroke-width:1; fill:#FFFFFF; " description="sensor_histidine_kinase[br]Location: 4987823 - 4989106" locus_tag="MXAN_4071" id="clusterblast-1_h21_2_14" points="132,90 141,90 146,85 141,80 132,80 132,90 " class="clusterblast-orf"  />
<polygon style="stroke:black; stroke-width:1; fill:#FFFFFF; " description="LuxR_family_DNA-binding_response_regulator[br]Location: 4989103 - 4989843" locus_tag="MXAN_4072" id="clusterblast-1_h21_2_15" points="146,90 150,90 155,85 150,80 146,80 146,90 " class="clusterblast-orf"  />
<polygon style="stroke:black; stroke-width:1; fill:#FFFFFF; " description="putative_glycosyl_hydrolase[br]Location: 4989859 - 4991049" locus_tag="MXAN_4073" id="clusterblast-1_h21_2_16" points="155,85 160,80 168,80 168,90 160,90 155,85 " class="clusterblast-orf"  />
<polygon style="stroke:black; stroke-width:1; fill:#FFFFFF; " description="ABC_transporter_ATP-binding_protein[br]Location: 4991197 - 4992078" locus_tag="MXAN_4074" id="clusterblast-1_h21_2_17" points="170,90 174,90 179,85 174,80 170,80 170,90 " class="clusterblast-orf"  />
<polygon style="stroke:black; stroke-width:1; fill:#FFFFFF; " description="hypothetical_protein[br]Location: 4992088 - 4995690" locus_tag="MXAN_4075" id="clusterblast-1_h21_2_18" points="179,90 214,90 219,85 214,80 179,80 179,90 " class="clusterblast-orf"  />
<polygon style="stroke:black; stroke-width:1; fill:#FFFFFF; " description="hypothetical_protein[br]Location: 4995695 - 4996231" locus_tag="MXAN_4076" id="clusterblast-1_h21_2_19" points="219,85 224,80 225,80 225,90 224,90 219,85 " class="clusterblast-orf"  />
<polygon style="stroke:black; stroke-width:1; fill:blue; " description="polyketide_synthase_type_I[br]Location: 4996865 - 5003323&lt;br&gt;&lt;br&gt;&lt;b&gt;BlastP hit with CHAFR746836_0089460.1&lt;/b&gt;&lt;br&gt;Percentage identity: 33%&lt;br&gt;Percentage coverage: 12%&lt;br&gt;BLAST bit score: 96&lt;br&gt;E-value: 1e-18" locus_tag="MXAN_4077" id="clusterblast-1_h21_2_20" points="232,90 299,90 304,85 299,80 232,80 232,90 " class="clusterblast-orf"  />
<polygon style="stroke:black; stroke-width:1; fill:#FFFFFF; " description="non-ribosomal_peptide_synthetase[br]Location: 5003320 - 5012466" locus_tag="MXAN_4078" id="clusterblast-1_h21_2_21" points="304,90 400,90 405,85 400,80 304,80 304,90 " class="clusterblast-orf"  />
<polygon style="stroke:black; stroke-width:1; fill:#FFFFFF; " description="non-ribosomal_peptide_synthetase[br]Location: 5012499 - 5025896" locus_tag="MXAN_4079" id="clusterblast-1_h21_2_22" points="406,90 549,90 554,85 549,80 406,80 406,90 " class="clusterblast-orf"  />
<polygon style="stroke:black; stroke-width:1; fill:#FFFFFF; " description="hypothetical_protein[br]Location: 5025893 - 5026357" locus_tag="MXAN_4080" id="clusterblast-1_h21_2_23" points="554,90 555,90 560,85 555,80 554,80 554,90 " class="clusterblast-orf"  />
<polygon style="stroke:black; stroke-width:1; fill:red; " description="putative_ATP-dependent_RNA_helicase_RhlE[br]Location: 5026443 - 5027948&lt;br&gt;&lt;br&gt;&lt;b&gt;BlastP hit with CHAFR746836_0089390.1&lt;/b&gt;&lt;br&gt;Percentage identity: 35%&lt;br&gt;Percentage coverage: 54%&lt;br&gt;BLAST bit score: 199&lt;br&gt;E-value: 4e-54" locus_tag="MXAN_4081" id="clusterblast-1_h21_2_24" points="560,85 565,80 577,80 577,90 565,90 560,85 " class="clusterblast-orf"  />
<polygon style="stroke:black; stroke-width:1; fill:#FFFFFF; " description="translation_elongation_factor_G[br]Location: 5028298 - 5030406" locus_tag="MXAN_4082" id="clusterblast-1_h21_2_25" points="581,85 586,80 604,80 604,90 586,90 581,85 " class="clusterblast-orf"  />
<polygon style="stroke:black; stroke-width:1; fill:#FFFFFF; " description="hypothetical_protein[br]Location: 5030650 - 5030751" locus_tag="MXAN_4083" id="clusterblast-1_h21_2_26" points="607,85 608,80 608,90 607,85 " class="clusterblast-orf"  />
<polygon style="stroke:black; stroke-width:1; fill:#FFFFFF; " description="cyclic_nucleotide-binding_domain-containing[br]Location: 5030841 - 5032031" locus_tag="MXAN_4084" id="clusterblast-1_h21_2_27" points="609,85 614,80 622,80 622,90 614,90 609,85 " class="clusterblast-orf"  />
<polygon style="stroke:black; stroke-width:1; fill:#FFFFFF; " description="FKBP-type_peptidylprolyl_cis-trans_isomerase[br]Location: 5032150 - 5032803" locus_tag="MXAN_4085" id="clusterblast-1_h21_2_28" points="624,85 629,80 631,80 631,90 629,90 624,85 " class="clusterblast-orf"  />
<polygon style="stroke:black; stroke-width:1; fill:#FFFFFF; " description="serine/threonine_protein_phosphatase_family[br]Location: 5032797 - 5033993" locus_tag="MXAN_4086" id="clusterblast-1_h21_2_29" points="631,90 639,90 644,85 639,80 631,80 631,90 " class="clusterblast-orf"  />
<polygon style="stroke:black; stroke-width:1; fill:#FFFFFF; " description="gufA_protein[br]Location: 5034007 - 5034771" locus_tag="MXAN_4087" id="clusterblast-1_h21_2_30" points="644,85 649,80 653,80 653,90 649,90 644,85 " class="clusterblast-orf"  />
<polygon style="stroke:black; stroke-width:1; fill:#FFFFFF; " description="RNA_polymerase_sigma_factor_CarQ[br]Location: 5034991 - 5035515" locus_tag="MXAN_4088" id="clusterblast-1_h21_2_31" points="655,90 656,90 661,85 656,80 655,80 655,90 " class="clusterblast-orf"  />
<polygon style="stroke:black; stroke-width:1; fill:#FFFFFF; " description="carotenogenesis_protein_CarR[br]Location: 5035512 - 5036177" locus_tag="MXAN_4089" id="clusterblast-1_h21_2_32" points="661,90 663,90 668,85 663,80 661,80 661,90 " class="clusterblast-orf"  />
<polygon style="stroke:black; stroke-width:1; fill:#FFFFFF; " description="carotenogenesis_protein_carS[br]Location: 5036174 - 5036509" locus_tag="MXAN_4090" id="clusterblast-1_h21_2_33" points="668,90 672,85 668,80 668,90 " class="clusterblast-orf"  />
<polygon style="stroke:black; stroke-width:1; fill:#FFFFFF; " description="TPR_repeat-containing_protein[br]Location: 5036526 - 5037038" locus_tag="MXAN_4091" id="clusterblast-1_h21_2_34" points="672,85 677,80 678,80 678,90 677,90 672,85 " class="clusterblast-orf"  />
<polygon style="stroke:black; stroke-width:1; fill:#FFFFFF; " description="hypothetical_protein[br]Location: 5037089 - 5038165" locus_tag="MXAN_4092" id="clusterblast-1_h21_2_35" points="679,85 684,80 690,80 690,90 684,90 679,85 " class="clusterblast-orf"  />
<polygon style="stroke:black; stroke-width:1; fill:#FFFFFF; " description="hypothetical_protein[br]Location: 5038205 - 5039362" locus_tag="MXAN_4093" id="clusterblast-1_h21_2_36" points="691,85 696,80 704,80 704,90 696,90 691,85 " class="clusterblast-orf"  />
<polygon style="stroke:black; stroke-width:1; fill:#FFFFFF; " description="hypothetical_protein[br]Location: 5039640 - 5039945" locus_tag="MXAN_4094" id="clusterblast-1_h21_2_37" points="707,90 710,85 707,80 707,90 " class="clusterblast-orf"  />
<polygon style="stroke:black; stroke-width:1; fill:#FFFFFF; " description="hypothetical_protein[br]Location: 5039977 - 5040096" locus_tag="MXAN_4095" id="clusterblast-1_h21_2_38" points="711,85 712,80 712,90 711,85 " class="clusterblast-orf"  />
<polygon style="stroke:black; stroke-width:1; fill:#FFFFFF; " description="D-aminopeptidase[br]Location: 5040139 - 5041491" locus_tag="MXAN_4096" id="clusterblast-1_h21_2_39" points="712,85 717,80 727,80 727,90 717,90 712,85 " class="clusterblast-orf"  />
<polygon style="stroke:black; stroke-width:1; fill:#FFFFFF; " description="D-alanine-D-alanine_ligase_family_protein[br]Location: 5041602 - 5043791" locus_tag="MXAN_4097" id="clusterblast-1_h21_2_40" points="729,85 734,80 753,80 753,90 734,90 729,85 " class="clusterblast-orf"  />
<polygon style="stroke:black; stroke-width:1; fill:#FFFFFF; " description="hypothetical_protein[br]Location: 5043776 - 5044423" locus_tag="MXAN_4098" id="clusterblast-1_h21_2_41" points="753,85 758,80 760,80 760,90 758,90 753,85 " class="clusterblast-orf"  />
<polygon style="stroke:black; stroke-width:1; fill:#FFFFFF; " description="hypothetical_protein[br]Location: 5044420 - 5044974" locus_tag="MXAN_4099" id="clusterblast-1_h21_2_42" points="760,85 765,80 766,80 766,90 765,90 760,85 " class="clusterblast-orf"  />
<polygon style="stroke:black; stroke-width:1; fill:#FFFFFF; " description="delta-aminolevulinic_acid_dehydratase[br]Location: 5045002 - 5046009" locus_tag="MXAN_4100" id="clusterblast-1_h21_2_43" points="766,85 771,80 778,80 778,90 771,90 766,85 " class="clusterblast-orf"  />
</g>
</svg>
