<svg xmlns="http://www.w3.org/2000/svg" height="230" width="800" version="1.1" y="0" x="0" preserveAspectRatio="none" xmlns:xlink="http://www.w3.org/1999/xlink" viewBox="0 0 800 230"  >
<g class="clusterblast-cluster" label="Query sequence"  >
<text class="clusterblast-acc" y="10" x="5"  >
Query sequence</text>
<line y1="35" x2="778.0" style="stroke:grey; stroke-width:1; " x1="10" y2="35"  />
<polygon style="stroke:black; stroke-width:1; fill:#FFFFFF; " description="unannotated orf[br]Location: 25768 - 28581" locus_tag="CHAFR746836_0026480.1" class="clusterblast-orf" points="10,35 15,30 36,30 36,40 15,40 10,35 " id="clusterblast-1_q39_10_0"  />
<polygon style="stroke:black; stroke-width:1; fill:#FFFFFF; " description="unannotated orf[br]Location: 29389 - 32410" locus_tag="CHAFR746836_0026490.1" class="clusterblast-orf" points="44,40 68,40 73,35 68,30 44,30 44,40 " id="clusterblast-1_q39_10_1"  />
<polygon style="stroke:black; stroke-width:1; fill:#FFFFFF; " description="unannotated orf[br]Location: 35419 - 37881" locus_tag="CHAFR746836_0026500.1" class="clusterblast-orf" points="102,35 107,30 125,30 125,40 107,40 102,35 " id="clusterblast-1_q39_10_2"  />
<polygon style="stroke:black; stroke-width:1; fill:#FFFFFF; " description="unannotated orf[br]Location: 39000 - 40527" locus_tag="CHAFR746836_0026510.1" class="clusterblast-orf" points="136,40 146,40 151,35 146,30 136,30 136,40 " id="clusterblast-1_q39_10_3"  />
<polygon style="stroke:black; stroke-width:1; fill:#FFFFFF; " description="unannotated orf[br]Location: 42530 - 44770" locus_tag="CHAFR746836_0026520.1" class="clusterblast-orf" points="170,40 186,40 191,35 186,30 170,30 170,40 " id="clusterblast-1_q39_10_4"  />
<polygon style="stroke:black; stroke-width:1; fill:rgb(190,63,63); " description="unannotated orf[br]Location: 45848 - 55198" locus_tag="CHAFR746836_0026530.1" class="clusterblast-orf" points="202,35 207,30 291,30 291,40 207,40 202,35 " id="clusterblast-1_q39_10_5"  />
<polygon style="stroke:black; stroke-width:1; fill:rgb(63,63,190); " description="unannotated orf[br]Location: 56792 - 57839" locus_tag="CHAFR746836_0026540.1" class="clusterblast-orf" points="306,40 311,40 316,35 311,30 306,30 306,40 " id="clusterblast-1_q39_10_6"  />
<polygon style="stroke:black; stroke-width:1; fill:rgb(63,190,63); " description="unannotated orf[br]Location: 62197 - 63622" locus_tag="CHAFR746836_0026550.1" class="clusterblast-orf" points="358,35 363,30 372,30 372,40 363,40 358,35 " id="clusterblast-1_q39_10_7"  />
<polygon style="stroke:black; stroke-width:1; fill:rgb(190,63,190); " description="unannotated orf[br]Location: 66838 - 68074" locus_tag="CHAFR746836_0026560.1" class="clusterblast-orf" points="402,40 409,40 414,35 409,30 402,30 402,40 " id="clusterblast-1_q39_10_8"  />
<polygon style="stroke:black; stroke-width:1; fill:rgb(190,190,63); " description="unannotated orf[br]Location: 68566 - 70348" locus_tag="CHAFR746836_0026570.1" class="clusterblast-orf" points="419,35 424,30 436,30 436,40 424,40 419,35 " id="clusterblast-1_q39_10_9"  />
<polygon style="stroke:black; stroke-width:1; fill:rgb(190,190,190); " description="unannotated orf[br]Location: 72585 - 73335" locus_tag="CHAFR746836_0026580.1" class="clusterblast-orf" points="457,40 460,40 465,35 460,30 457,30 457,40 " id="clusterblast-1_q39_10_10"  />
<polygon style="stroke:black; stroke-width:1; fill:#FFFFFF; " description="unannotated orf[br]Location: 81371 - 83366" locus_tag="CHAFR746836_0026590.1" class="clusterblast-orf" points="541,35 546,30 561,30 561,40 546,40 541,35 " id="clusterblast-1_q39_10_11"  />
<polygon style="stroke:black; stroke-width:1; fill:#FFFFFF; " description="unannotated orf[br]Location: 88456 - 90331" locus_tag="CHAFR746836_0026600.1" class="clusterblast-orf" points="609,40 622,40 627,35 622,30 609,30 609,40 " id="clusterblast-1_q39_10_12"  />
<polygon style="stroke:black; stroke-width:1; fill:#FFFFFF; " description="unannotated orf[br]Location: 94138 - 95689" locus_tag="CHAFR746836_0026610.1" class="clusterblast-orf" points="664,35 669,30 678,30 678,40 669,40 664,35 " id="clusterblast-1_q39_10_13"  />
<polygon style="stroke:black; stroke-width:1; fill:rgb(63,190,190); " description="unannotated orf[br]Location: 98792 - 99832" locus_tag="CHAFR746836_0026620.1" class="clusterblast-orf" points="708,35 713,30 718,30 718,40 713,40 708,35 " id="clusterblast-1_q39_10_14"  />
<polygon style="stroke:black; stroke-width:1; fill:#FFFFFF; " description="unannotated orf[br]Location: 100558 - 102743" locus_tag="CHAFR746836_0026630.1" class="clusterblast-orf" points="725,35 730,30 746,30 746,40 730,40 725,35 " id="clusterblast-1_q39_10_15"  />
<polygon style="stroke:black; stroke-width:1; fill:#FFFFFF; " description="unannotated orf[br]Location: 103839 - 106040" locus_tag="CHAFR746836_0026640.1" class="clusterblast-orf" points="756,40 773,40 778,35 773,30 756,30 756,40 " id="clusterblast-1_q39_10_16"  />
</g>
<g class="clusterblast-cluster" description="Aspergillus niger ATCC 1015, whole genome shotgun seque..." label="ACJE01000009.1_c1"  >
<text class="clusterblast-acc" y="60" x="5"  >
ACJE01000009.1_c1</text>
<text class="clusterblast-desc" y="60" x="460.8"  >
Aspergillus niger ATCC 1015, whole genome shotgun seque...</text>
<line y1="85" x2="778.0" style="stroke:grey; stroke-width:1; " x1="10" y2="85"  />
<polygon style="stroke:black; stroke-width:1; fill:#FFFFFF; " description="hypothetical_protein[br]Location: 2156 - 3680" locus_tag="ASPNIDRAFT_181473" id="clusterblast-1_h39_10_0" points="217,85 222,80 231,80 231,90 222,90 217,85 " class="clusterblast-orf"  />
<polygon style="stroke:black; stroke-width:1; fill:#FFFFFF; " description="hypothetical_protein[br]Location: 3866 - 4902" locus_tag="ASPNIDRAFT_40281" id="clusterblast-1_h39_10_1" points="233,90 238,90 243,85 238,80 233,80 233,90 " class="clusterblast-orf"  />
<polygon style="stroke:black; stroke-width:1; fill:#FFFFFF; " description="hypothetical_protein[br]Location: 5139 - 6665" locus_tag="ASPNIDRAFT_40280" id="clusterblast-1_h39_10_2" points="245,85 250,80 260,80 260,90 250,90 245,85 " class="clusterblast-orf"  />
<polygon style="stroke:black; stroke-width:1; fill:rgb(190,63,63); " description="hypothetical_protein[br]Location: 7122 - 18652&lt;br&gt;&lt;br&gt;&lt;b&gt;BlastP hit with CHAFR746836_0026530.1&lt;/b&gt;&lt;br&gt;Percentage identity: 39%&lt;br&gt;Percentage coverage: 46%&lt;br&gt;BLAST bit score: 877&lt;br&gt;E-value: 0.0" locus_tag="ASPNIDRAFT_118581" id="clusterblast-1_h39_10_3" points="264,85 269,80 374,80 374,90 269,90 264,85 " class="clusterblast-orf"  />
<polygon style="stroke:black; stroke-width:1; fill:#FFFFFF; " description="hypothetical_protein[br]Location: 19056 - 19602" locus_tag="ASPNIDRAFT_40277" id="clusterblast-1_h39_10_4" points="378,90 378,90 383,85 378,80 378,80 378,90 " class="clusterblast-orf"  />
<polygon style="stroke:black; stroke-width:1; fill:#FFFFFF; " description="hypothetical_protein[br]Location: 20161 - 21465" locus_tag="ASPNIDRAFT_180465" id="clusterblast-1_h39_10_5" points="389,90 396,90 401,85 396,80 389,80 389,90 " class="clusterblast-orf"  />
<polygon style="stroke:black; stroke-width:1; fill:#FFFFFF; " description="hypothetical_protein[br]Location: 22050 - 23390" locus_tag="ASPNIDRAFT_180480" id="clusterblast-1_h39_10_6" points="407,85 412,80 420,80 420,90 412,90 407,85 " class="clusterblast-orf"  />
<polygon style="stroke:black; stroke-width:1; fill:#FFFFFF; " description="hypothetical_protein[br]Location: 23868 - 25681" locus_tag="ASPNIDRAFT_131416" id="clusterblast-1_h39_10_7" points="424,90 437,90 442,85 437,80 424,80 424,90 " class="clusterblast-orf"  />
<polygon style="stroke:black; stroke-width:1; fill:#FFFFFF; " description="hypothetical_protein[br]Location: 26746 - 27624" locus_tag="ASPNIDRAFT_40273" id="clusterblast-1_h39_10_8" points="452,85 457,80 460,80 460,90 457,90 452,85 " class="clusterblast-orf"  />
<polygon style="stroke:black; stroke-width:1; fill:#FFFFFF; " description="hypothetical_protein[br]Location: 29134 - 30759" locus_tag="ASPNIDRAFT_140075" id="clusterblast-1_h39_10_9" points="475,90 485,90 490,85 485,80 475,80 475,90 " class="clusterblast-orf"  />
<polygon style="stroke:black; stroke-width:1; fill:#FFFFFF; " description="hypothetical_protein[br]Location: 31575 - 32098" locus_tag="ASPNIDRAFT_180489" id="clusterblast-1_h39_10_10" points="498,85 503,80 503,80 503,90 503,90 498,85 " class="clusterblast-orf"  />
<polygon style="stroke:black; stroke-width:1; fill:rgb(190,190,63); " description="monooxygenase[br]Location: 32634 - 34332&lt;br&gt;&lt;br&gt;&lt;b&gt;BlastP hit with CHAFR746836_0026570.1&lt;/b&gt;&lt;br&gt;Percentage identity: 36%&lt;br&gt;Percentage coverage: 92%&lt;br&gt;BLAST bit score: 310&lt;br&gt;E-value: 3e-97&lt;br&gt;&lt;br&gt;&lt;b&gt;BlastP hit with CHAFR746836_0026580.1&lt;/b&gt;&lt;br&gt;Percentage identity: 32%&lt;br&gt;Percentage coverage: 94%&lt;br&gt;BLAST bit score: 110&lt;br&gt;E-value: 2e-26" locus_tag="ASPNIDRAFT_40270" id="clusterblast-1_h39_10_11" points="508,90 519,90 524,85 519,80 508,80 508,90 " class="clusterblast-orf"  />
<polygon style="stroke:black; stroke-width:1; fill:#FFFFFF; " description="hypothetical_protein[br]Location: 34598 - 35605" locus_tag="ASPNIDRAFT_40269" id="clusterblast-1_h39_10_12" points="527,85 532,80 537,80 537,90 532,90 527,85 " class="clusterblast-orf"  />
<polygon style="stroke:black; stroke-width:1; fill:#FFFFFF; " description="hypothetical_protein[br]Location: 36131 - 36783" locus_tag="ASPNIDRAFT_181662" id="clusterblast-1_h39_10_13" points="542,90 543,90 548,85 543,80 542,80 542,90 " class="clusterblast-orf"  />
<polygon style="stroke:black; stroke-width:1; fill:#FFFFFF; " description="hypothetical_protein[br]Location: 37690 - 39009" locus_tag="ASPNIDRAFT_40267" id="clusterblast-1_h39_10_14" points="556,85 561,80 569,80 569,90 561,90 556,85 " class="clusterblast-orf"  />
</g>
</svg>
