<svg xmlns="http://www.w3.org/2000/svg" height="230" width="800" version="1.1" y="0" x="0" preserveAspectRatio="none" xmlns:xlink="http://www.w3.org/1999/xlink" viewBox="0 0 800 230"  >
<g class="clusterblast-cluster" label="Query sequence"  >
<text class="clusterblast-acc" y="10" x="5"  >
Query sequence</text>
<line y1="35" x2="778.0" style="stroke:grey; stroke-width:1; " x1="10" y2="35"  />
<polygon style="stroke:black; stroke-width:1; fill:red; " description="unannotated orf[br]Location: 78016 - 79242" locus_tag="CHAFR746836_0016770.1" class="clusterblast-orf" points="259,35 264,30 279,30 279,40 264,40 259,35 " id="clusterblast-1_q36_9_0"  />
<polygon style="stroke:black; stroke-width:1; fill:green; " description="unannotated orf[br]Location: 81171 - 82179" locus_tag="CHAFR746836_0016780.1" class="clusterblast-orf" points="312,40 325,40 330,35 325,30 312,30 312,40 " id="clusterblast-1_q36_9_1"  />
<polygon style="stroke:black; stroke-width:1; fill:blue; " description="unannotated orf[br]Location: 82820 - 84436" locus_tag="CHAFR746836_0016790.1" class="clusterblast-orf" points="341,40 363,40 368,35 363,30 341,30 341,40 " id="clusterblast-1_q36_9_2"  />
<polygon style="stroke:black; stroke-width:1; fill:#FFFFFF; " description="unannotated orf[br]Location: 86969 - 88192" locus_tag="CHAFR746836_0016800.1" class="clusterblast-orf" points="412,35 417,30 432,30 432,40 417,40 412,35 " id="clusterblast-1_q36_9_3"  />
<polygon style="stroke:black; stroke-width:1; fill:yellow; " description="unannotated orf[br]Location: 89104 - 90705" locus_tag="CHAFR746836_0016810.1" class="clusterblast-orf" points="448,40 470,40 475,35 470,30 448,30 448,40 " id="clusterblast-1_q36_9_4"  />
<polygon style="stroke:black; stroke-width:1; fill:#FFFFFF; " description="unannotated orf[br]Location: 92624 - 93697" locus_tag="CHAFR746836_0016820.1" class="clusterblast-orf" points="508,35 513,30 527,30 527,40 513,40 508,35 " id="clusterblast-1_q36_9_5"  />
</g>
<g class="clusterblast-cluster" description="Chaetomium thermophilum var. thermophilum DSM 1495 unplaced ..." label="GL988044.1_c1"  >
<text class="clusterblast-acc" y="60" x="5"  >
GL988044.1_c1</text>
<text class="clusterblast-desc" y="60" x="460.8"  >
Chaetomium thermophilum var. thermophilum DSM 1495 unplaced ...</text>
<line y1="85" x2="778.0" style="stroke:grey; stroke-width:1; " x1="10" y2="85"  />
<polygon style="stroke:black; stroke-width:1; fill:#FFFFFF; " description="hypothetical_protein[br]Location: 98153 - 101252" locus_tag="CTHT_0047880" id="clusterblast-1_h36_9_0" points="10,90 57,90 62,85 57,80 10,80 10,90 " class="clusterblast-orf"  />
<polygon style="stroke:black; stroke-width:1; fill:#FFFFFF; " description="putative_heme-binding_protein[br]Location: 96592 - 97740" locus_tag="CTHT_0047870" id="clusterblast-1_h36_9_1" points="70,85 75,80 89,80 89,90 75,90 70,85 " class="clusterblast-orf"  />
<polygon style="stroke:black; stroke-width:1; fill:#FFFFFF; " description="hypothetical_protein[br]Location: 92576 - 95137" locus_tag="CTHT_0047860" id="clusterblast-1_h36_9_2" points="114,90 153,90 158,85 153,80 114,80 114,90 " class="clusterblast-orf"  />
<polygon style="stroke:black; stroke-width:1; fill:#FFFFFF; " description="hypothetical_protein[br]Location: 88346 - 90583" locus_tag="CTHT_0047850" id="clusterblast-1_h36_9_3" points="192,85 197,80 230,80 230,90 197,90 192,85 " class="clusterblast-orf"  />
<polygon style="stroke:black; stroke-width:1; fill:#FFFFFF; " description="hypothetical_protein[br]Location: 81976 - 83676" locus_tag="CTHT_0047840" id="clusterblast-1_h36_9_4" points="310,90 334,90 339,85 334,80 310,80 310,90 " class="clusterblast-orf"  />
<polygon style="stroke:black; stroke-width:1; fill:yellow; " description="farnesyl-diphosphate_farnesyltransferase-like[br]Location: 77961 - 79590&lt;br&gt;&lt;br&gt;&lt;b&gt;BlastP hit with CHAFR746836_0016810.1&lt;/b&gt;&lt;br&gt;Percentage identity: 64%&lt;br&gt;Percentage coverage: 98%&lt;br&gt;BLAST bit score: 566&lt;br&gt;E-value: 0.0" locus_tag="CTHT_0047830" id="clusterblast-1_h36_9_5" points="380,85 385,80 408,80 408,90 385,90 380,85 " class="clusterblast-orf"  />
<polygon style="stroke:black; stroke-width:1; fill:green; " description="hypothetical_protein[br]Location: 75761 - 76711&lt;br&gt;&lt;br&gt;&lt;b&gt;BlastP hit with CHAFR746836_0016780.1&lt;/b&gt;&lt;br&gt;Percentage identity: 77%&lt;br&gt;Percentage coverage: 98%&lt;br&gt;BLAST bit score: 484&lt;br&gt;E-value: 6e-172" locus_tag="CTHT_0047820" id="clusterblast-1_h36_9_6" points="429,90 440,90 445,85 440,80 429,80 429,90 " class="clusterblast-orf"  />
<polygon style="stroke:black; stroke-width:1; fill:blue; " description="hypothetical_protein[br]Location: 73190 - 74854&lt;br&gt;&lt;br&gt;&lt;b&gt;BlastP hit with CHAFR746836_0016790.1&lt;/b&gt;&lt;br&gt;Percentage identity: 62%&lt;br&gt;Percentage coverage: 94%&lt;br&gt;BLAST bit score: 525&lt;br&gt;E-value: 0.0" locus_tag="CTHT_0047810" id="clusterblast-1_h36_9_7" points="461,90 484,90 489,85 484,80 461,80 461,90 " class="clusterblast-orf"  />
<polygon style="stroke:black; stroke-width:1; fill:#FFFFFF; " description="hypothetical_protein[br]Location: 71174 - 72727" locus_tag="CTHT_0047800" id="clusterblast-1_h36_9_8" points="497,85 502,80 524,80 524,90 502,90 497,85 " class="clusterblast-orf"  />
<polygon style="stroke:black; stroke-width:1; fill:#FFFFFF; " description="hypothetical_protein[br]Location: 69630 - 70665" locus_tag="CTHT_0047790" id="clusterblast-1_h36_9_9" points="532,90 545,90 550,85 545,80 532,80 532,90 " class="clusterblast-orf"  />
<polygon style="stroke:black; stroke-width:1; fill:#FFFFFF; " description="elongation_factor_1-beta-like_protein[br]Location: 67950 - 68995" locus_tag="CTHT_0047780" id="clusterblast-1_h36_9_10" points="561,90 574,90 579,85 574,80 561,80 561,90 " class="clusterblast-orf"  />
<polygon style="stroke:black; stroke-width:1; fill:#FFFFFF; " description="pantetheine-phosphate_adenylyltransferase-like[br]Location: 66284 - 67528" locus_tag="CTHT_0047770" id="clusterblast-1_h36_9_11" points="586,85 591,80 607,80 607,90 591,90 586,85 " class="clusterblast-orf"  />
<polygon style="stroke:black; stroke-width:1; fill:#FFFFFF; " description="putative_WD_repeat_protein[br]Location: 63357 - 65321" locus_tag="CTHT_0047760" id="clusterblast-1_h36_9_12" points="624,90 652,90 657,85 652,80 624,80 624,90 " class="clusterblast-orf"  />
<polygon style="stroke:black; stroke-width:1; fill:#FFFFFF; " description="hypothetical_protein[br]Location: 62112 - 62408" locus_tag="CTHT_0047740" id="clusterblast-1_h36_9_13" points="674,85 679,80 679,80 679,90 679,90 674,85 " class="clusterblast-orf"  />
<polygon style="stroke:black; stroke-width:1; fill:#FFFFFF; " description="hypothetical_protein[br]Location: 56331 - 59193" locus_tag="CTHT_0047730" id="clusterblast-1_h36_9_14" points="729,90 773,90 778,85 773,80 729,80 729,90 " class="clusterblast-orf"  />
</g>
</svg>
