<svg xmlns="http://www.w3.org/2000/svg" height="230" width="800" version="1.1" y="0" x="0" preserveAspectRatio="none" xmlns:xlink="http://www.w3.org/1999/xlink" viewBox="0 0 800 230"  >
<g class="clusterblast-cluster" label="Query sequence"  >
<text class="clusterblast-acc" y="10" x="5"  >
Query sequence</text>
<line y1="35" x2="778.0" style="stroke:grey; stroke-width:1; " x1="10" y2="35"  />
<polygon style="stroke:black; stroke-width:1; fill:#FFFFFF; " description="unannotated orf[br]Location: 6431 - 7772" locus_tag="CHAFR746836_0097870.1" class="clusterblast-orf" points="71,35 76,30 82,30 82,40 76,40 71,35 " id="clusterblast-1_q28_6_0"  />
<polygon style="stroke:black; stroke-width:1; fill:rgb(190,63,63); " description="unannotated orf[br]Location: 16189 - 18187" locus_tag="CHAFR746836_0097880.1" class="clusterblast-orf" points="153,35 158,30 170,30 170,40 158,40 153,35 " id="clusterblast-1_q28_6_1"  />
<polygon style="stroke:black; stroke-width:1; fill:rgb(63,63,190); " description="unannotated orf[br]Location: 19681 - 20616" locus_tag="CHAFR746836_0097890.1" class="clusterblast-orf" points="182,40 185,40 190,35 185,30 182,30 182,40 " id="clusterblast-1_q28_6_2"  />
<polygon style="stroke:black; stroke-width:1; fill:rgb(63,190,63); " description="unannotated orf[br]Location: 21366 - 23094" locus_tag="CHAFR746836_0097900.1" class="clusterblast-orf" points="196,40 206,40 211,35 206,30 196,30 196,40 " id="clusterblast-1_q28_6_3"  />
<polygon style="stroke:black; stroke-width:1; fill:rgb(190,63,190); " description="unannotated orf[br]Location: 26972 - 28062" locus_tag="CHAFR746836_0097910.1" class="clusterblast-orf" points="244,35 249,30 253,30 253,40 249,40 244,35 " id="clusterblast-1_q28_6_4"  />
<polygon style="stroke:black; stroke-width:1; fill:rgb(190,190,63); " description="unannotated orf[br]Location: 28976 - 30266" locus_tag="CHAFR746836_0097920.1" class="clusterblast-orf" points="261,40 266,40 271,35 266,30 261,30 261,40 " id="clusterblast-1_q28_6_5"  />
<polygon style="stroke:black; stroke-width:1; fill:rgb(190,190,190); " description="unannotated orf[br]Location: 30763 - 43644" locus_tag="CHAFR746836_0097930.1" class="clusterblast-orf" points="276,35 281,30 384,30 384,40 281,40 276,35 " id="clusterblast-1_q28_6_6"  />
<polygon style="stroke:black; stroke-width:1; fill:rgb(63,190,190); " description="unannotated orf[br]Location: 44702 - 45994" locus_tag="CHAFR746836_0097940.1" class="clusterblast-orf" points="393,35 398,30 404,30 404,40 398,40 393,35 " id="clusterblast-1_q28_6_7"  />
<polygon style="stroke:black; stroke-width:1; fill:rgb(63,63,63); " description="unannotated orf[br]Location: 47339 - 48596" locus_tag="CHAFR746836_0097950.1" class="clusterblast-orf" points="415,35 420,30 426,30 426,40 420,40 415,35 " id="clusterblast-1_q28_6_8"  />
<polygon style="stroke:black; stroke-width:1; fill:#FFFFFF; " description="unannotated orf[br]Location: 51399 - 52845" locus_tag="CHAFR746836_0097960.1" class="clusterblast-orf" points="450,35 455,30 462,30 462,40 455,40 450,35 " id="clusterblast-1_q28_6_9"  />
<polygon style="stroke:black; stroke-width:1; fill:#FFFFFF; " description="unannotated orf[br]Location: 70832 - 71924" locus_tag="CHAFR746836_0097970.1" class="clusterblast-orf" points="613,40 618,40 623,35 618,30 613,30 613,40 " id="clusterblast-1_q28_6_10"  />
<polygon style="stroke:black; stroke-width:1; fill:#FFFFFF; " description="unannotated orf[br]Location: 74856 - 75574" locus_tag="CHAFR746836_0097980.1" class="clusterblast-orf" points="647,40 648,40 653,35 648,30 647,30 647,40 " id="clusterblast-1_q28_6_11"  />
<polygon style="stroke:black; stroke-width:1; fill:#FFFFFF; " description="unannotated orf[br]Location: 80903 - 82884" locus_tag="CHAFR746836_0097990.1" class="clusterblast-orf" points="698,35 703,30 715,30 715,40 703,40 698,35 " id="clusterblast-1_q28_6_12"  />
</g>
<g class="clusterblast-cluster" description="Coccidioides posadasii str. Silveira unplaced genomic scaffo..." label="GL636498.1_c1"  >
<text class="clusterblast-acc" y="60" x="5"  >
GL636498.1_c1</text>
<text class="clusterblast-desc" y="60" x="460.8"  >
Coccidioides posadasii str. Silveira unplaced genomic scaffo...</text>
<line y1="85" x2="778.0" style="stroke:grey; stroke-width:1; " x1="10" y2="85"  />
<polygon style="stroke:black; stroke-width:1; fill:#FFFFFF; " description="predicted_protein[br]Location: 238700 - 239163" locus_tag="CPSG_07180" id="clusterblast-1_h28_6_0" points="10,90 13,85 10,80 10,90 " class="clusterblast-orf"  />
<polygon style="stroke:black; stroke-width:1; fill:#FFFFFF; " description="ABC_transporter[br]Location: 239834 - 244444" locus_tag="CPSG_07181" id="clusterblast-1_h28_6_1" points="19,90 53,90 58,85 53,80 19,80 19,90 " class="clusterblast-orf"  />
<polygon style="stroke:black; stroke-width:1; fill:#FFFFFF; " description="conserved_hypothetical_protein[br]Location: 245807 - 250831" locus_tag="CPSG_07182" id="clusterblast-1_h28_6_2" points="69,90 107,90 112,85 107,80 69,80 69,90 " class="clusterblast-orf"  />
<polygon style="stroke:black; stroke-width:1; fill:#FFFFFF; " description="conserved_hypothetical_protein[br]Location: 251119 - 251806" locus_tag="CPSG_07183" id="clusterblast-1_h28_6_3" points="114,85 119,80 120,80 120,90 119,90 114,85 " class="clusterblast-orf"  />
<polygon style="stroke:black; stroke-width:1; fill:#FFFFFF; " description="conserved_hypothetical_protein[br]Location: 253377 - 255239" locus_tag="CPSG_07184" id="clusterblast-1_h28_6_4" points="133,90 144,90 149,85 144,80 133,80 133,90 " class="clusterblast-orf"  />
<polygon style="stroke:black; stroke-width:1; fill:#FFFFFF; " description="conserved_hypothetical_protein[br]Location: 255597 - 256136" locus_tag="CPSG_07185" id="clusterblast-1_h28_6_5" points="152,85 156,80 156,90 152,85 " class="clusterblast-orf"  />
<polygon style="stroke:black; stroke-width:1; fill:rgb(190,190,63); " description="conserved_hypothetical_protein[br]Location: 256713 - 258017&lt;br&gt;&lt;br&gt;&lt;b&gt;BlastP hit with CHAFR746836_0097920.1&lt;/b&gt;&lt;br&gt;Percentage identity: 45%&lt;br&gt;Percentage coverage: 97%&lt;br&gt;BLAST bit score: 381&lt;br&gt;E-value: 5e-127" locus_tag="CPSG_07186" id="clusterblast-1_h28_6_6" points="161,90 167,90 172,85 167,80 161,80 161,90 " class="clusterblast-orf"  />
<polygon style="stroke:black; stroke-width:1; fill:rgb(190,190,190); " description="polyketide_synthase[br]Location: 258423 - 270579&lt;br&gt;&lt;br&gt;&lt;b&gt;BlastP hit with CHAFR746836_0097930.1&lt;/b&gt;&lt;br&gt;Percentage identity: 45%&lt;br&gt;Percentage coverage: 62%&lt;br&gt;BLAST bit score: 2101&lt;br&gt;E-value: 0.0" locus_tag="CPSG_07187" id="clusterblast-1_h28_6_7" points="176,85 181,80 278,80 278,90 181,90 176,85 " class="clusterblast-orf"  />
<polygon style="stroke:black; stroke-width:1; fill:#FFFFFF; " description="hypothetical_protein[br]Location: 270817 - 271325" locus_tag="CPSG_07188" id="clusterblast-1_h28_6_8" points="280,90 280,90 285,85 280,80 280,80 280,90 " class="clusterblast-orf"  />
<polygon style="stroke:black; stroke-width:1; fill:#FFFFFF; " description="hypothetical_protein[br]Location: 272058 - 272369" locus_tag="CPSG_07189" id="clusterblast-1_h28_6_9" points="291,90 293,85 291,80 291,90 " class="clusterblast-orf"  />
<polygon style="stroke:black; stroke-width:1; fill:#FFFFFF; " description="conserved_hypothetical_protein[br]Location: 273258 - 274429" locus_tag="CPSG_07190" id="clusterblast-1_h28_6_10" points="301,90 306,90 311,85 306,80 301,80 301,90 " class="clusterblast-orf"  />
<polygon style="stroke:black; stroke-width:1; fill:#FFFFFF; " description="predicted_protein[br]Location: 277821 - 278543" locus_tag="CPSG_07191" id="clusterblast-1_h28_6_11" points="339,85 344,80 345,80 345,90 344,90 339,85 " class="clusterblast-orf"  />
<polygon style="stroke:black; stroke-width:1; fill:#FFFFFF; " description="conserved_hypothetical_protein[br]Location: 280649 - 282067" locus_tag="CPSG_07192" id="clusterblast-1_h28_6_12" points="363,90 370,90 375,85 370,80 363,80 363,90 " class="clusterblast-orf"  />
<polygon style="stroke:black; stroke-width:1; fill:#FFFFFF; " description="predicted_protein[br]Location: 283034 - 283477" locus_tag="CPSG_07193" id="clusterblast-1_h28_6_13" points="383,90 387,85 383,80 383,90 " class="clusterblast-orf"  />
<polygon style="stroke:black; stroke-width:1; fill:#FFFFFF; " description="conserved_hypothetical_protein[br]Location: 284513 - 284779" locus_tag="CPSG_07194" id="clusterblast-1_h28_6_14" points="396,90 398,85 396,80 396,90 " class="clusterblast-orf"  />
<polygon style="stroke:black; stroke-width:1; fill:#FFFFFF; " description="conserved_hypothetical_protein[br]Location: 284974 - 285459" locus_tag="CPSG_07195" id="clusterblast-1_h28_6_15" points="400,90 404,85 400,80 400,90 " class="clusterblast-orf"  />
<polygon style="stroke:black; stroke-width:1; fill:#FFFFFF; " description="aspartyl_aminopeptidase[br]Location: 286032 - 287543" locus_tag="CPSG_07196" id="clusterblast-1_h28_6_16" points="408,90 416,90 421,85 416,80 408,80 408,90 " class="clusterblast-orf"  />
<polygon style="stroke:black; stroke-width:1; fill:#FFFFFF; " description="20S-pre-rRNA_D-site_endonuclease_NOB1[br]Location: 288301 - 289641" locus_tag="CPSG_07197" id="clusterblast-1_h28_6_17" points="428,90 434,90 439,85 434,80 428,80 428,90 " class="clusterblast-orf"  />
<polygon style="stroke:black; stroke-width:1; fill:#FFFFFF; " description="Nop10_family_nucleolar_RNA-binding_protein[br]Location: 289846 - 290176" locus_tag="CPSG_07198" id="clusterblast-1_h28_6_18" points="441,85 443,80 443,90 441,85 " class="clusterblast-orf"  />
<polygon style="stroke:black; stroke-width:1; fill:#FFFFFF; " description="tRNA-splicing_endonuclease_subunit_SEN2[br]Location: 290864 - 292285" locus_tag="CPSG_07199" id="clusterblast-1_h28_6_19" points="449,90 456,90 461,85 456,80 449,80 449,90 " class="clusterblast-orf"  />
<polygon style="stroke:black; stroke-width:1; fill:#FFFFFF; " description="conserved_hypothetical_protein[br]Location: 292657 - 293493" locus_tag="CPSG_07200" id="clusterblast-1_h28_6_20" points="464,90 466,90 471,85 466,80 464,80 464,90 " class="clusterblast-orf"  />
<polygon style="stroke:black; stroke-width:1; fill:#FFFFFF; " description="hypothetical_protein[br]Location: 294334 - 298804" locus_tag="CPSG_07201" id="clusterblast-1_h28_6_21" points="478,90 511,90 516,85 511,80 478,80 478,90 " class="clusterblast-orf"  />
<polygon style="stroke:black; stroke-width:1; fill:#FFFFFF; " description="50S_ribosomal_protein_L27[br]Location: 299227 - 299976" locus_tag="CPSG_07202" id="clusterblast-1_h28_6_22" points="520,85 525,80 526,80 526,90 525,90 520,85 " class="clusterblast-orf"  />
<polygon style="stroke:black; stroke-width:1; fill:#FFFFFF; " description="conserved_hypothetical_protein[br]Location: 300251 - 300701" locus_tag="CPSG_07203" id="clusterblast-1_h28_6_23" points="528,90 532,85 528,80 528,90 " class="clusterblast-orf"  />
<polygon style="stroke:black; stroke-width:1; fill:#FFFFFF; " description="scramblase[br]Location: 301208 - 302890" locus_tag="CPSG_07204" id="clusterblast-1_h28_6_24" points="536,90 546,90 551,85 546,80 536,80 536,90 " class="clusterblast-orf"  />
<polygon style="stroke:black; stroke-width:1; fill:#FFFFFF; " description="ubiquitin-conjugating_enzyme_E[br]Location: 303353 - 303958" locus_tag="CPSG_07205" id="clusterblast-1_h28_6_25" points="555,90 555,90 560,85 555,80 555,80 555,90 " class="clusterblast-orf"  />
<polygon style="stroke:black; stroke-width:1; fill:#FFFFFF; " description="meiosis-specific_topoisomerase_Spo11[br]Location: 304212 - 305712" locus_tag="CPSG_07206" id="clusterblast-1_h28_6_26" points="562,85 567,80 574,80 574,90 567,90 562,85 " class="clusterblast-orf"  />
<polygon style="stroke:black; stroke-width:1; fill:#FFFFFF; " description="oxidosqualene:lanosterol_cyclase[br]Location: 306414 - 308804" locus_tag="CPSG_07207" id="clusterblast-1_h28_6_27" points="580,90 595,90 600,85 595,80 580,80 580,90 " class="clusterblast-orf"  />
<polygon style="stroke:black; stroke-width:1; fill:#FFFFFF; " description="conserved_hypothetical_protein[br]Location: 309389 - 310857" locus_tag="CPSG_07208" id="clusterblast-1_h28_6_28" points="605,90 613,90 618,85 613,80 605,80 605,90 " class="clusterblast-orf"  />
<polygon style="stroke:black; stroke-width:1; fill:#FFFFFF; " description="PQ_loop_repeat_protein[br]Location: 311420 - 312599" locus_tag="CPSG_07209" id="clusterblast-1_h28_6_29" points="623,85 628,80 632,80 632,90 628,90 623,85 " class="clusterblast-orf"  />
<polygon style="stroke:black; stroke-width:1; fill:#FFFFFF; " description="conserved_hypothetical_protein[br]Location: 313072 - 314000" locus_tag="CPSG_07210" id="clusterblast-1_h28_6_30" points="636,85 641,80 644,80 644,90 641,90 636,85 " class="clusterblast-orf"  />
<polygon style="stroke:black; stroke-width:1; fill:#FFFFFF; " description="cysteinyl-tRNA_synthetase[br]Location: 314586 - 317070" locus_tag="CPSG_07211" id="clusterblast-1_h28_6_31" points="649,85 654,80 670,80 670,90 654,90 649,85 " class="clusterblast-orf"  />
<polygon style="stroke:black; stroke-width:1; fill:#FFFFFF; " description="tRNA_(adenine-N(1)-)-methyltransferase_catalytic[br]Location: 317506 - 319032" locus_tag="CPSG_07212" id="clusterblast-1_h28_6_32" points="674,90 682,90 687,85 682,80 674,80 674,90 " class="clusterblast-orf"  />
<polygon style="stroke:black; stroke-width:1; fill:#FFFFFF; " description="conserved_hypothetical_protein[br]Location: 319191 - 322020" locus_tag="CPSG_07213" id="clusterblast-1_h28_6_33" points="688,85 693,80 712,80 712,90 693,90 688,85 " class="clusterblast-orf"  />
<polygon style="stroke:black; stroke-width:1; fill:#FFFFFF; " description="conserved_hypothetical_protein[br]Location: 324197 - 324571" locus_tag="CPSG_07214" id="clusterblast-1_h28_6_34" points="730,90 733,85 730,80 730,90 " class="clusterblast-orf"  />
<polygon style="stroke:black; stroke-width:1; fill:#FFFFFF; " description="predicted_protein[br]Location: 325136 - 325841" locus_tag="CPSG_07215" id="clusterblast-1_h28_6_35" points="738,85 743,80 744,80 744,90 743,90 738,85 " class="clusterblast-orf"  />
<polygon style="stroke:black; stroke-width:1; fill:#FFFFFF; " description="hypothetical_protein[br]Location: 326184 - 327900" locus_tag="CPSG_07216" id="clusterblast-1_h28_6_36" points="747,90 756,90 761,85 756,80 747,80 747,90 " class="clusterblast-orf"  />
<polygon style="stroke:black; stroke-width:1; fill:#FFFFFF; " description="small_monomeric_GTPase[br]Location: 328676 - 329806" locus_tag="CPSG_07217" id="clusterblast-1_h28_6_37" points="768,90 773,90 778,85 773,80 768,80 768,90 " class="clusterblast-orf"  />
</g>
</svg>
