<svg xmlns="http://www.w3.org/2000/svg" height="230" width="800" version="1.1" y="0" x="0" preserveAspectRatio="none" xmlns:xlink="http://www.w3.org/1999/xlink" viewBox="0 0 800 230"  >
<g class="clusterblast-cluster" label="Query sequence"  >
<text class="clusterblast-acc" y="10" x="5"  >
Query sequence</text>
<line y1="35" x2="778.0" style="stroke:grey; stroke-width:1; " x1="10" y2="35"  />
<polygon style="stroke:black; stroke-width:1; fill:#FFFFFF; " description="unannotated orf[br]Location: 7918 - 9403" locus_tag="CHAFR746836_0043710.1" class="clusterblast-orf" points="62,40 87,40 92,35 87,30 62,30 62,40 " id="clusterblast-1_q54_3_0"  />
<polygon style="stroke:black; stroke-width:1; fill:rgb(169,42,42); " description="unannotated orf[br]Location: 10656 - 11541" locus_tag="CHAFR746836_0043720.1" class="clusterblast-orf" points="117,35 122,30 135,30 135,40 122,40 117,35 " id="clusterblast-1_q54_3_1"  />
<polygon style="stroke:black; stroke-width:1; fill:rgb(42,169,42); " description="unannotated orf[br]Location: 13140 - 14726" locus_tag="CHAFR746836_0043730.1" class="clusterblast-orf" points="168,40 195,40 200,35 195,30 168,30 168,40 " id="clusterblast-1_q54_3_2"  />
<polygon style="stroke:black; stroke-width:1; fill:#FFFFFF; " description="unannotated orf[br]Location: 14976 - 15545" locus_tag="CHAFR746836_0043740.1" class="clusterblast-orf" points="205,35 210,30 216,30 216,40 210,40 205,35 " id="clusterblast-1_q54_3_3"  />
<polygon style="stroke:black; stroke-width:1; fill:rgb(42,169,212); " description="unannotated orf[br]Location: 16433 - 17294" locus_tag="CHAFR746836_0043750.1" class="clusterblast-orf" points="234,40 247,40 252,35 247,30 234,30 234,40 " id="clusterblast-1_q54_3_4"  />
<polygon style="stroke:black; stroke-width:1; fill:rgb(169,169,42); " description="unannotated orf[br]Location: 17728 - 18694" locus_tag="CHAFR746836_0043760.1" class="clusterblast-orf" points="261,40 275,40 280,35 275,30 261,30 261,40 " id="clusterblast-1_q54_3_5"  />
<polygon style="stroke:black; stroke-width:1; fill:#FFFFFF; " description="unannotated orf[br]Location: 19149 - 19718" locus_tag="CHAFR746836_0043770.1" class="clusterblast-orf" points="290,35 295,30 301,30 301,40 295,40 290,35 " id="clusterblast-1_q54_3_6"  />
<polygon style="stroke:black; stroke-width:1; fill:rgb(169,42,127); " description="unannotated orf[br]Location: 20132 - 21930" locus_tag="CHAFR746836_0043780.1" class="clusterblast-orf" points="309,40 341,40 346,35 341,30 309,30 309,40 " id="clusterblast-1_q54_3_7"  />
<polygon style="stroke:black; stroke-width:1; fill:#FFFFFF; " description="unannotated orf[br]Location: 22653 - 24219" locus_tag="CHAFR746836_0043790.1" class="clusterblast-orf" points="361,35 366,30 392,30 392,40 366,40 361,35 " id="clusterblast-1_q54_3_8"  />
<polygon style="stroke:black; stroke-width:1; fill:rgb(42,42,212); " description="unannotated orf[br]Location: 25134 - 26929" locus_tag="CHAFR746836_0043800.1" class="clusterblast-orf" points="411,40 442,40 447,35 442,30 411,30 411,40 " id="clusterblast-1_q54_3_9"  />
<polygon style="stroke:black; stroke-width:1; fill:rgb(169,169,212); " description="unannotated orf[br]Location: 28053 - 29459" locus_tag="CHAFR746836_0043810.1" class="clusterblast-orf" points="470,40 494,40 499,35 494,30 470,30 470,40 " id="clusterblast-1_q54_3_10"  />
<polygon style="stroke:black; stroke-width:1; fill:#FFFFFF; " description="unannotated orf[br]Location: 30463 - 31516" locus_tag="CHAFR746836_0043820.1" class="clusterblast-orf" points="519,35 524,30 541,30 541,40 524,40 519,35 " id="clusterblast-1_q54_3_11"  />
<polygon style="stroke:black; stroke-width:1; fill:rgb(42,169,127); " description="unannotated orf[br]Location: 32618 - 34109" locus_tag="CHAFR746836_0043830.1" class="clusterblast-orf" points="563,35 568,30 593,30 593,40 568,40 563,35 " id="clusterblast-1_q54_3_12"  />
<polygon style="stroke:black; stroke-width:1; fill:rgb(169,42,212); " description="unannotated orf[br]Location: 37073 - 38965" locus_tag="CHAFR746836_0043840.1" class="clusterblast-orf" points="653,35 658,30 692,30 692,40 658,40 653,35 " id="clusterblast-1_q54_3_13"  />
<polygon style="stroke:black; stroke-width:1; fill:#FFFFFF; " description="unannotated orf[br]Location: 39447 - 40529" locus_tag="CHAFR746836_0043850.1" class="clusterblast-orf" points="702,40 719,40 724,35 719,30 702,30 702,40 " id="clusterblast-1_q54_3_14"  />
</g>
<g class="clusterblast-cluster" description="Neurospora tetrasperma FGSC 2508 unplaced genomic scaffold N..." label="GL891303.1_c1"  >
<text class="clusterblast-acc" y="60" x="5"  >
GL891303.1_c1</text>
<text class="clusterblast-desc" y="60" x="460.8"  >
Neurospora tetrasperma FGSC 2508 unplaced genomic scaffold N...</text>
<line y1="85" x2="778.0" style="stroke:grey; stroke-width:1; " x1="10" y2="85"  />
<polygon style="stroke:black; stroke-width:1; fill:#FFFFFF; " description="phosphatidate_cytidylyltransferase[br]Location: 37105 - 38684" locus_tag="NEUTE1DRAFT_128204" id="clusterblast-1_h54_3_0" points="10,90 37,90 42,85 37,80 10,80 10,90 " class="clusterblast-orf"  />
<polygon style="stroke:black; stroke-width:1; fill:#FFFFFF; " description="hypothetical_protein[br]Location: 35927 - 36527" locus_tag="NEUTE1DRAFT_135633" id="clusterblast-1_h54_3_1" points="53,90 60,90 65,85 60,80 53,80 53,90 " class="clusterblast-orf"  />
<polygon style="stroke:black; stroke-width:1; fill:#FFFFFF; " description="hypothetical_protein[br]Location: 32523 - 34995" locus_tag="NEUTE1DRAFT_59188" id="clusterblast-1_h54_3_2" points="84,90 130,90 135,85 130,80 84,80 84,90 " class="clusterblast-orf"  />
<polygon style="stroke:black; stroke-width:1; fill:rgb(169,42,42); " description="hypothetical_protein[br]Location: 31125 - 32176&lt;br&gt;&lt;br&gt;&lt;b&gt;BlastP hit with CHAFR746836_0043720.1&lt;/b&gt;&lt;br&gt;Percentage identity: 44%&lt;br&gt;Percentage coverage: 108%&lt;br&gt;BLAST bit score: 191&lt;br&gt;E-value: 5e-58" locus_tag="NEUTE1DRAFT_116200" id="clusterblast-1_h54_3_3" points="142,85 147,80 163,80 163,90 147,90 142,85 " class="clusterblast-orf"  />
<polygon style="stroke:black; stroke-width:1; fill:#FFFFFF; " description="hypothetical_protein[br]Location: 28067 - 30473" locus_tag="NEUTE1DRAFT_98790" id="clusterblast-1_h54_3_4" points="176,85 181,80 225,80 225,90 181,90 176,85 " class="clusterblast-orf"  />
<polygon style="stroke:black; stroke-width:1; fill:#FFFFFF; " description="hypothetical_protein[br]Location: 21781 - 23530" locus_tag="NEUTE1DRAFT_59180" id="clusterblast-1_h54_3_5" points="317,90 348,90 353,85 348,80 317,80 317,90 " class="clusterblast-orf"  />
<polygon style="stroke:black; stroke-width:1; fill:#FFFFFF; " description="hypothetical_protein[br]Location: 18925 - 20793" locus_tag="NEUTE1DRAFT_77863" id="clusterblast-1_h54_3_6" points="373,90 406,90 411,85 406,80 373,80 373,90 " class="clusterblast-orf"  />
<polygon style="stroke:black; stroke-width:1; fill:#FFFFFF; " description="hypothetical_protein[br]Location: 10191 - 18268" locus_tag="NEUTE1DRAFT_77860" id="clusterblast-1_h54_3_7" points="424,85 429,80 588,80 588,90 429,90 424,85 " class="clusterblast-orf"  />
<polygon style="stroke:black; stroke-width:1; fill:#FFFFFF; " description="hypothetical_protein[br]Location: 9790 - 9963" locus_tag="NEUTE1DRAFT_116197" id="clusterblast-1_h54_3_8" points="593,85 596,80 596,90 593,85 " class="clusterblast-orf"  />
<polygon style="stroke:black; stroke-width:1; fill:#FFFFFF; " description="hypothetical_protein[br]Location: 8091 - 9442" locus_tag="NEUTE1DRAFT_59173" id="clusterblast-1_h54_3_9" points="603,90 626,90 631,85 626,80 603,80 603,90 " class="clusterblast-orf"  />
<polygon style="stroke:black; stroke-width:1; fill:rgb(169,42,127); " description="hypothetical_protein[br]Location: 5501 - 7324&lt;br&gt;&lt;br&gt;&lt;b&gt;BlastP hit with CHAFR746836_0043780.1&lt;/b&gt;&lt;br&gt;Percentage identity: 38%&lt;br&gt;Percentage coverage: 98%&lt;br&gt;BLAST bit score: 403&lt;br&gt;E-value: 2e-131" locus_tag="NEUTE1DRAFT_39987" id="clusterblast-1_h54_3_10" points="646,85 651,80 683,80 683,90 651,90 646,85 " class="clusterblast-orf"  />
<polygon style="stroke:black; stroke-width:1; fill:rgb(42,169,42); " description="hypothetical_protein[br]Location: 3018 - 4639&lt;br&gt;&lt;br&gt;&lt;b&gt;BlastP hit with CHAFR746836_0043730.1&lt;/b&gt;&lt;br&gt;Percentage identity: 56%&lt;br&gt;Percentage coverage: 94%&lt;br&gt;BLAST bit score: 442&lt;br&gt;E-value: 1e-149" locus_tag="NEUTE1DRAFT_77853" id="clusterblast-1_h54_3_11" points="701,90 729,90 734,85 729,80 701,80 701,90 " class="clusterblast-orf"  />
<polygon style="stroke:black; stroke-width:1; fill:#FFFFFF; " description="hypothetical_protein[br]Location: 857 - 2419" locus_tag="NEUTE1DRAFT_59167" id="clusterblast-1_h54_3_12" points="746,85 751,80 778,80 778,90 751,90 746,85 " class="clusterblast-orf"  />
</g>
</svg>
