<svg xmlns="http://www.w3.org/2000/svg" height="230" width="800" version="1.1" y="0" x="0" preserveAspectRatio="none" xmlns:xlink="http://www.w3.org/1999/xlink" viewBox="0 0 800 230"  >
<g class="clusterblast-cluster" label="Query sequence"  >
<text class="clusterblast-acc" y="10" x="5"  >
Query sequence</text>
<line y1="35" x2="778.0" style="stroke:grey; stroke-width:1; " x1="10" y2="35"  />
<polygon style="stroke:black; stroke-width:1; fill:#FFFFFF; " description="unannotated orf[br]Location: 5400 - 7279" locus_tag="CHAFR746836_0015100.1" class="clusterblast-orf" points="10,35 15,30 38,30 38,40 15,40 10,35 " id="clusterblast-1_q34_10_0"  />
<polygon style="stroke:black; stroke-width:1; fill:#FFFFFF; " description="unannotated orf[br]Location: 13745 - 15770" locus_tag="CHAFR746836_0015110.1" class="clusterblast-orf" points="138,40 164,40 169,35 164,30 138,30 138,40 " id="clusterblast-1_q34_10_1"  />
<polygon style="stroke:black; stroke-width:1; fill:red; " description="unannotated orf[br]Location: 17291 - 22939" locus_tag="CHAFR746836_0015120.1" class="clusterblast-orf" points="193,35 198,30 280,30 280,40 198,40 193,35 " id="clusterblast-1_q34_10_2"  />
<polygon style="stroke:black; stroke-width:1; fill:green; " description="unannotated orf[br]Location: 27044 - 51976" locus_tag="CHAFR746836_0015130.1" class="clusterblast-orf" points="343,40 723,40 728,35 723,30 343,30 343,40 " id="clusterblast-1_q34_10_3"  />
<polygon style="stroke:black; stroke-width:1; fill:#FFFFFF; " description="unannotated orf[br]Location: 53293 - 55207" locus_tag="CHAFR746836_0015140.1" class="clusterblast-orf" points="748,35 753,30 778,30 778,40 753,40 748,35 " id="clusterblast-1_q34_10_4"  />
</g>
<g class="clusterblast-cluster" description="Aspergillus niger ATCC 1015, whole genome shotgun seque..." label="ACJE01000014.1_c1"  >
<text class="clusterblast-acc" y="60" x="5"  >
ACJE01000014.1_c1</text>
<text class="clusterblast-desc" y="60" x="460.8"  >
Aspergillus niger ATCC 1015, whole genome shotgun seque...</text>
<line y1="85" x2="778.0" style="stroke:grey; stroke-width:1; " x1="10" y2="85"  />
<polygon style="stroke:black; stroke-width:1; fill:#FFFFFF; " description="hypothetical_protein[br]Location: 46245 - 47250" locus_tag="ASPNIDRAFT_193869" id="clusterblast-1_h34_10_0" points="64,85 69,80 79,80 79,90 69,90 64,85 " class="clusterblast-orf"  />
<polygon style="stroke:black; stroke-width:1; fill:#FFFFFF; " description="hypothetical_protein[br]Location: 44509 - 45926" locus_tag="ASPNIDRAFT_45625" id="clusterblast-1_h34_10_1" points="84,90 101,90 106,85 101,80 84,80 84,90 " class="clusterblast-orf"  />
<polygon style="stroke:black; stroke-width:1; fill:#FFFFFF; " description="hypothetical_protein[br]Location: 41264 - 42943" locus_tag="ASPNIDRAFT_55102" id="clusterblast-1_h34_10_2" points="130,85 135,80 156,80 156,90 135,90 130,85 " class="clusterblast-orf"  />
<polygon style="stroke:black; stroke-width:1; fill:red; " description="hypothetical_protein[br]Location: 35827 - 40610&lt;br&gt;&lt;br&gt;&lt;b&gt;BlastP hit with CHAFR746836_0015120.1&lt;/b&gt;&lt;br&gt;Percentage identity: 38%&lt;br&gt;Percentage coverage: 99%&lt;br&gt;BLAST bit score: 1019&lt;br&gt;E-value: 0.0" locus_tag="ASPNIDRAFT_214611" id="clusterblast-1_h34_10_3" points="166,85 171,80 240,80 240,90 171,90 166,85 " class="clusterblast-orf"  />
<polygon style="stroke:black; stroke-width:1; fill:green; " description="hypothetical_protein[br]Location: 12862 - 27463&lt;br&gt;&lt;br&gt;&lt;b&gt;BlastP hit with CHAFR746836_0015130.1&lt;/b&gt;&lt;br&gt;Percentage identity: 33%&lt;br&gt;Percentage coverage: 27%&lt;br&gt;BLAST bit score: 1142&lt;br&gt;E-value: 0.0" locus_tag="ASPNIDRAFT_118601" id="clusterblast-1_h34_10_4" points="369,90 589,90 594,85 589,80 369,80 369,90 " class="clusterblast-orf"  />
<polygon style="stroke:black; stroke-width:1; fill:#FFFFFF; " description="hypothetical_protein[br]Location: 4453 - 7958" locus_tag="ASPNIDRAFT_45631" id="clusterblast-1_h34_10_5" points="669,85 674,80 723,80 723,90 674,90 669,85 " class="clusterblast-orf"  />
</g>
</svg>
