<svg xmlns="http://www.w3.org/2000/svg" height="230" width="800" version="1.1" y="0" x="0" preserveAspectRatio="none" xmlns:xlink="http://www.w3.org/1999/xlink" viewBox="0 0 800 230"  >
<g class="clusterblast-cluster" label="Query sequence"  >
<text class="clusterblast-acc" y="10" x="5"  >
Query sequence</text>
<line y1="35" x2="778.0" style="stroke:grey; stroke-width:1; " x1="10" y2="35"  />
<polygon style="stroke:black; stroke-width:1; fill:#FFFFFF; " description="unannotated orf[br]Location: 16927 - 18620" locus_tag="CHAFR746836_0088270.1" class="clusterblast-orf" points="10,35 15,30 23,30 23,40 15,40 10,35 " id="clusterblast-1_q20_3_0"  />
<polygon style="stroke:black; stroke-width:1; fill:#FFFFFF; " description="unannotated orf[br]Location: 18968 - 19665" locus_tag="CHAFR746836_0088280.1" class="clusterblast-orf" points="25,40 26,40 31,35 26,30 25,30 25,40 " id="clusterblast-1_q20_3_1"  />
<polygon style="stroke:black; stroke-width:1; fill:#FFFFFF; " description="unannotated orf[br]Location: 24387 - 25688" locus_tag="CHAFR746836_0088290.1" class="clusterblast-orf" points="67,35 72,30 77,30 77,40 72,40 67,35 " id="clusterblast-1_q20_3_2"  />
<polygon style="stroke:black; stroke-width:1; fill:#FFFFFF; " description="unannotated orf[br]Location: 26085 - 26578" locus_tag="CHAFR746836_0088300.1" class="clusterblast-orf" points="80,40 84,35 80,30 80,40 " id="clusterblast-1_q20_3_3"  />
<polygon style="stroke:black; stroke-width:1; fill:#FFFFFF; " description="unannotated orf[br]Location: 27631 - 28537" locus_tag="CHAFR746836_0088310.1" class="clusterblast-orf" points="92,35 97,30 99,30 99,40 97,40 92,35 " id="clusterblast-1_q20_3_4"  />
<polygon style="stroke:black; stroke-width:1; fill:#FFFFFF; " description="unannotated orf[br]Location: 29462 - 32567" locus_tag="CHAFR746836_0088320.1" class="clusterblast-orf" points="106,35 111,30 130,30 130,40 111,40 106,35 " id="clusterblast-1_q20_3_5"  />
<polygon style="stroke:black; stroke-width:1; fill:#FFFFFF; " description="unannotated orf[br]Location: 32818 - 33248" locus_tag="CHAFR746836_0088330.1" class="clusterblast-orf" points="132,40 135,35 132,30 132,40 " id="clusterblast-1_q20_3_6"  />
<polygon style="stroke:black; stroke-width:1; fill:#FFFFFF; " description="unannotated orf[br]Location: 35812 - 38220" locus_tag="CHAFR746836_0088340.1" class="clusterblast-orf" points="155,40 169,40 174,35 169,30 155,30 155,40 " id="clusterblast-1_q20_3_7"  />
<polygon style="stroke:black; stroke-width:1; fill:#FFFFFF; " description="unannotated orf[br]Location: 38703 - 40515" locus_tag="CHAFR746836_0088350.1" class="clusterblast-orf" points="178,35 183,30 192,30 192,40 183,40 178,35 " id="clusterblast-1_q20_3_8"  />
<polygon style="stroke:black; stroke-width:1; fill:#FFFFFF; " description="unannotated orf[br]Location: 54570 - 56265" locus_tag="CHAFR746836_0088360.1" class="clusterblast-orf" points="300,35 305,30 313,30 313,40 305,40 300,35 " id="clusterblast-1_q20_3_9"  />
<polygon style="stroke:black; stroke-width:1; fill:#FFFFFF; " description="unannotated orf[br]Location: 57343 - 57641" locus_tag="CHAFR746836_0088370.1" class="clusterblast-orf" points="321,40 324,35 321,30 321,40 " id="clusterblast-1_q20_3_10"  />
<polygon style="stroke:black; stroke-width:1; fill:#FFFFFF; " description="unannotated orf[br]Location: 59489 - 60069" locus_tag="CHAFR746836_0088380.1" class="clusterblast-orf" points="338,40 342,35 338,30 338,40 " id="clusterblast-1_q20_3_11"  />
<polygon style="stroke:black; stroke-width:1; fill:rgb(190,63,63); " description="unannotated orf[br]Location: 61596 - 62517" locus_tag="CHAFR746836_0088390.1" class="clusterblast-orf" points="354,40 356,40 361,35 356,30 354,30 354,40 " id="clusterblast-1_q20_3_12"  />
<polygon style="stroke:black; stroke-width:1; fill:#FFFFFF; " description="unannotated orf[br]Location: 64887 - 66442" locus_tag="CHAFR746836_0088400.1" class="clusterblast-orf" points="380,40 387,40 392,35 387,30 380,30 380,40 " id="clusterblast-1_q20_3_13"  />
<polygon style="stroke:black; stroke-width:1; fill:rgb(63,63,190); " description="unannotated orf[br]Location: 70818 - 75812" locus_tag="CHAFR746836_0088410.1" class="clusterblast-orf" points="425,35 430,30 464,30 464,40 430,40 425,35 " id="clusterblast-1_q20_3_14"  />
<polygon style="stroke:black; stroke-width:1; fill:rgb(63,190,63); " description="unannotated orf[br]Location: 70818 - 75812" locus_tag="CHAFR746836_0088410.2" class="clusterblast-orf" points="425,35 430,30 464,30 464,40 430,40 425,35 " id="clusterblast-1_q20_3_15"  />
<polygon style="stroke:black; stroke-width:1; fill:rgb(190,63,190); " description="unannotated orf[br]Location: 79054 - 80030" locus_tag="CHAFR746836_0088420.1" class="clusterblast-orf" points="489,35 494,30 497,30 497,40 494,40 489,35 " id="clusterblast-1_q20_3_16"  />
<polygon style="stroke:black; stroke-width:1; fill:rgb(190,190,63); " description="unannotated orf[br]Location: 83242 - 92486" locus_tag="CHAFR746836_0088430.1" class="clusterblast-orf" points="521,40 588,40 593,35 588,30 521,30 521,40 " id="clusterblast-1_q20_3_17"  />
<polygon style="stroke:black; stroke-width:1; fill:#FFFFFF; " description="unannotated orf[br]Location: 96222 - 97917" locus_tag="CHAFR746836_0088440.1" class="clusterblast-orf" points="622,40 630,40 635,35 630,30 622,30 622,40 " id="clusterblast-1_q20_3_18"  />
<polygon style="stroke:black; stroke-width:1; fill:#FFFFFF; " description="unannotated orf[br]Location: 98082 - 99448" locus_tag="CHAFR746836_0088450.1" class="clusterblast-orf" points="636,35 641,30 646,30 646,40 641,40 636,35 " id="clusterblast-1_q20_3_19"  />
<polygon style="stroke:black; stroke-width:1; fill:rgb(190,190,190); " description="unannotated orf[br]Location: 104203 - 105217" locus_tag="CHAFR746836_0088460.1" class="clusterblast-orf" points="683,40 686,40 691,35 686,30 683,30 683,40 " id="clusterblast-1_q20_3_20"  />
<polygon style="stroke:black; stroke-width:1; fill:#FFFFFF; " description="unannotated orf[br]Location: 112157 - 113036" locus_tag="CHAFR746836_0088470.1" class="clusterblast-orf" points="744,40 746,40 751,35 746,30 744,30 744,40 " id="clusterblast-1_q20_3_21"  />
<polygon style="stroke:black; stroke-width:1; fill:#FFFFFF; " description="unannotated orf[br]Location: 114252 - 116434" locus_tag="CHAFR746836_0088480.1" class="clusterblast-orf" points="761,35 766,30 778,30 778,40 766,40 761,35 " id="clusterblast-1_q20_3_22"  />
</g>
<g class="clusterblast-cluster" description="Leptosphaeria maculans v23.1.3 lm SuperContig 0 v2 genomic s..." label="FP929139.1_c5"  >
<text class="clusterblast-acc" y="60" x="5"  >
FP929139.1_c5</text>
<text class="clusterblast-desc" y="60" x="460.8"  >
Leptosphaeria maculans v23.1.3 lm SuperContig 0 v2 genomic s...</text>
<line y1="85" x2="778.0" style="stroke:grey; stroke-width:1; " x1="10" y2="85"  />
<polygon style="stroke:black; stroke-width:1; fill:#FFFFFF; " description="similar_to_translational_activator[br]Location: 2530701 - 2539025" locus_tag="CBY01879.1" id="clusterblast-1_h20_3_0" points="256,85 261,80 320,80 320,90 261,90 256,85 " class="clusterblast-orf"  />
<polygon style="stroke:black; stroke-width:1; fill:#FFFFFF; " description="similar_to_ATP_dependent_RNA_helicase[br]Location: 2525250 - 2530309" locus_tag="CBY01878.1" id="clusterblast-1_h20_3_1" points="323,90 357,90 362,85 357,80 323,80 323,90 " class="clusterblast-orf"  />
<polygon style="stroke:black; stroke-width:1; fill:#FFFFFF; " description="similar_to_beta-lactamase_family_protein[br]Location: 2521380 - 2523855" locus_tag="CBY01877.1" id="clusterblast-1_h20_3_2" points="373,85 378,80 392,80 392,90 378,90 373,85 " class="clusterblast-orf"  />
<polygon style="stroke:black; stroke-width:1; fill:rgb(63,63,190); " description="similar_to_ABC_multidrug_transporter[br]Location: 2515904 - 2520524&lt;br&gt;&lt;br&gt;&lt;b&gt;BlastP hit with CHAFR746836_0088410.1&lt;/b&gt;&lt;br&gt;Percentage identity: 48%&lt;br&gt;Percentage coverage: 89%&lt;br&gt;BLAST bit score: 1117&lt;br&gt;E-value: 0.0&lt;br&gt;&lt;br&gt;&lt;b&gt;BlastP hit with CHAFR746836_0088410.2&lt;/b&gt;&lt;br&gt;Percentage identity: 39%&lt;br&gt;Percentage coverage: 96%&lt;br&gt;BLAST bit score: 778&lt;br&gt;E-value: 0.0" locus_tag="CBY01876.1" id="clusterblast-1_h20_3_3" points="398,85 403,80 434,80 434,90 403,90 398,85 " class="clusterblast-orf"  />
<polygon style="stroke:black; stroke-width:1; fill:rgb(190,63,190); " description="similar_to_EF-hand_calcium-binding_domain[br]Location: 2514273 - 2515241&lt;br&gt;&lt;br&gt;&lt;b&gt;BlastP hit with CHAFR746836_0088420.1&lt;/b&gt;&lt;br&gt;Percentage identity: 56%&lt;br&gt;Percentage coverage: 97%&lt;br&gt;BLAST bit score: 289&lt;br&gt;E-value: 4e-96" locus_tag="CBY01875.1" id="clusterblast-1_h20_3_4" points="439,85 444,80 447,80 447,90 444,90 439,85 " class="clusterblast-orf"  />
<polygon style="stroke:black; stroke-width:1; fill:rgb(190,190,63); " description="hypothetical_protein[br]Location: 2503452 - 2513155&lt;br&gt;&lt;br&gt;&lt;b&gt;BlastP hit with CHAFR746836_0088430.1&lt;/b&gt;&lt;br&gt;Percentage identity: 47%&lt;br&gt;Percentage coverage: 92%&lt;br&gt;BLAST bit score: 2027&lt;br&gt;E-value: 0.0" locus_tag="CBY01874.1" id="clusterblast-1_h20_3_5" points="455,90 525,90 530,85 525,80 455,80 455,90 " class="clusterblast-orf"  />
</g>
</svg>
