<svg xmlns="http://www.w3.org/2000/svg" height="230" width="800" version="1.1" y="0" x="0" preserveAspectRatio="none" xmlns:xlink="http://www.w3.org/1999/xlink" viewBox="0 0 800 230"  >
<g class="clusterblast-cluster" label="Query sequence"  >
<text class="clusterblast-acc" y="10" x="5"  >
Query sequence</text>
<line y1="35" x2="778.0" style="stroke:grey; stroke-width:1; " x1="10" y2="35"  />
<polygon style="stroke:black; stroke-width:1; fill:rgb(190,63,63); " description="unannotated orf[br]Location: 74290 - 75458" locus_tag="CHAFR746836_0084510.1" class="clusterblast-orf" points="238,40 255,40 260,35 255,30 238,30 238,40 " id="clusterblast-1_q15_3_0"  />
<polygon style="stroke:black; stroke-width:1; fill:#FFFFFF; " description="unannotated orf[br]Location: 75669 - 76875" locus_tag="CHAFR746836_0084520.1" class="clusterblast-orf" points="264,35 269,30 287,30 287,40 269,40 264,35 " id="clusterblast-1_q15_3_1"  />
<polygon style="stroke:black; stroke-width:1; fill:rgb(63,63,190); " description="unannotated orf[br]Location: 78561 - 80604" locus_tag="CHAFR746836_0084530.1" class="clusterblast-orf" points="318,35 323,30 357,30 357,40 323,40 318,35 " id="clusterblast-1_q15_3_2"  />
<polygon style="stroke:black; stroke-width:1; fill:rgb(63,190,63); " description="unannotated orf[br]Location: 81404 - 83288" locus_tag="CHAFR746836_0084540.1" class="clusterblast-orf" points="372,40 403,40 408,35 403,30 372,30 372,40 " id="clusterblast-1_q15_3_3"  />
<polygon style="stroke:black; stroke-width:1; fill:rgb(190,63,190); " description="unannotated orf[br]Location: 83676 - 85677" locus_tag="CHAFR746836_0084550.1" class="clusterblast-orf" points="415,40 448,40 453,35 448,30 415,30 415,40 " id="clusterblast-1_q15_3_4"  />
<polygon style="stroke:black; stroke-width:1; fill:rgb(190,190,63); " description="unannotated orf[br]Location: 86720 - 88095" locus_tag="CHAFR746836_0084560.1" class="clusterblast-orf" points="473,40 494,40 499,35 494,30 473,30 473,40 " id="clusterblast-1_q15_3_5"  />
<polygon style="stroke:black; stroke-width:1; fill:#FFFFFF; " description="unannotated orf[br]Location: 88452 - 90694" locus_tag="CHAFR746836_0084570.1" class="clusterblast-orf" points="506,35 511,30 548,30 548,40 511,40 506,35 " id="clusterblast-1_q15_3_6"  />
</g>
<g class="clusterblast-cluster" description="Exophiala dermatitidis NIH/UT8656 unplaced genomic scaffold ..." label="JH226131.1_c1"  >
<text class="clusterblast-acc" y="60" x="5"  >
JH226131.1_c1</text>
<text class="clusterblast-desc" y="60" x="460.8"  >
Exophiala dermatitidis NIH/UT8656 unplaced genomic scaffold ...</text>
<line y1="85" x2="778.0" style="stroke:grey; stroke-width:1; " x1="10" y2="85"  />
<polygon style="stroke:black; stroke-width:1; fill:#FFFFFF; " description="molybdenum_cofactor_biosynthesis_protein_E[br]Location: 3904389 - 3904982" locus_tag="HMPREF1120_02868" id="clusterblast-1_h15_3_0" points="10,85 15,80 21,80 21,90 15,90 10,85 " class="clusterblast-orf"  />
<polygon style="stroke:black; stroke-width:1; fill:#FFFFFF; " description="hypothetical_protein[br]Location: 3902099 - 3902782" locus_tag="HMPREF1120_02867" id="clusterblast-1_h15_3_1" points="51,85 56,80 64,80 64,90 56,90 51,85 " class="clusterblast-orf"  />
<polygon style="stroke:black; stroke-width:1; fill:#FFFFFF; " description="Ca2+-transporting_ATPase[br]Location: 3897230 - 3901164" locus_tag="HMPREF1120_02866" id="clusterblast-1_h15_3_2" points="82,85 87,80 156,80 156,90 87,90 82,85 " class="clusterblast-orf"  />
<polygon style="stroke:black; stroke-width:1; fill:#FFFFFF; " description="fumarate_reductase_flavoprotein_subunit[br]Location: 3892733 - 3894313" locus_tag="HMPREF1120_02865" id="clusterblast-1_h15_3_3" points="212,85 217,80 242,80 242,90 217,90 212,85 " class="clusterblast-orf"  />
<polygon style="stroke:black; stroke-width:1; fill:rgb(63,63,190); " description="carotenoid_cleavage_dioxygenase[br]Location: 3889709 - 3891853&lt;br&gt;&lt;br&gt;&lt;b&gt;BlastP hit with CHAFR746836_0084530.1&lt;/b&gt;&lt;br&gt;Percentage identity: 61%&lt;br&gt;Percentage coverage: 102%&lt;br&gt;BLAST bit score: 793&lt;br&gt;E-value: 0.0" locus_tag="HMPREF1120_02864" id="clusterblast-1_h15_3_4" points="258,85 263,80 299,80 299,90 263,90 258,85 " class="clusterblast-orf"  />
<polygon style="stroke:black; stroke-width:1; fill:rgb(63,190,63); " description="phytoene_synthase[br]Location: 3886503 - 3888530&lt;br&gt;&lt;br&gt;&lt;b&gt;BlastP hit with CHAFR746836_0084540.1&lt;/b&gt;&lt;br&gt;Percentage identity: 47%&lt;br&gt;Percentage coverage: 103%&lt;br&gt;BLAST bit score: 530&lt;br&gt;E-value: 0.0" locus_tag="HMPREF1120_02863" id="clusterblast-1_h15_3_5" points="321,90 355,90 360,85 355,80 321,80 321,90 " class="clusterblast-orf"  />
<polygon style="stroke:black; stroke-width:1; fill:rgb(190,63,190); " description="phytoene_dehydrogenase[br]Location: 3884238 - 3886070&lt;br&gt;&lt;br&gt;&lt;b&gt;BlastP hit with CHAFR746836_0084550.1&lt;/b&gt;&lt;br&gt;Percentage identity: 60%&lt;br&gt;Percentage coverage: 90%&lt;br&gt;BLAST bit score: 661&lt;br&gt;E-value: 0.0" locus_tag="HMPREF1120_02862" id="clusterblast-1_h15_3_6" points="368,90 398,90 403,85 398,80 368,80 368,90 " class="clusterblast-orf"  />
<polygon style="stroke:black; stroke-width:1; fill:rgb(190,190,63); " description="hypothetical_protein[br]Location: 3881749 - 3882781&lt;br&gt;&lt;br&gt;&lt;b&gt;BlastP hit with CHAFR746836_0084560.1&lt;/b&gt;&lt;br&gt;Percentage identity: 47%&lt;br&gt;Percentage coverage: 80%&lt;br&gt;BLAST bit score: 253&lt;br&gt;E-value: 4e-80" locus_tag="HMPREF1120_02861" id="clusterblast-1_h15_3_7" points="430,90 445,90 450,85 445,80 430,80 430,90 " class="clusterblast-orf"  />
<polygon style="stroke:black; stroke-width:1; fill:#FFFFFF; " description="hypothetical_protein[br]Location: 3878409 - 3879428" locus_tag="HMPREF1120_02860" id="clusterblast-1_h15_3_8" points="494,90 508,90 513,85 508,80 494,80 494,90 " class="clusterblast-orf"  />
<polygon style="stroke:black; stroke-width:1; fill:#FFFFFF; " description="hypothetical_protein[br]Location: 3874765 - 3876633" locus_tag="HMPREF1120_02859" id="clusterblast-1_h15_3_9" points="547,90 577,90 582,85 577,80 547,80 547,90 " class="clusterblast-orf"  />
<polygon style="stroke:black; stroke-width:1; fill:#FFFFFF; " description="hypothetical_protein[br]Location: 3872918 - 3874120" locus_tag="HMPREF1120_02858" id="clusterblast-1_h15_3_10" points="595,85 600,80 617,80 617,90 600,90 595,85 " class="clusterblast-orf"  />
<polygon style="stroke:black; stroke-width:1; fill:#FFFFFF; " description="hypothetical_protein[br]Location: 3871299 - 3872246" locus_tag="HMPREF1120_02857" id="clusterblast-1_h15_3_11" points="630,85 635,80 648,80 648,90 635,90 630,85 " class="clusterblast-orf"  />
<polygon style="stroke:black; stroke-width:1; fill:#FFFFFF; " description="structure-specific_recognition_protein_1[br]Location: 3867608 - 3870877" locus_tag="HMPREF1120_02856" id="clusterblast-1_h15_3_12" points="656,90 713,90 718,85 713,80 656,80 656,90 " class="clusterblast-orf"  />
<polygon style="stroke:black; stroke-width:1; fill:#FFFFFF; " description="AAA_family_ATPase[br]Location: 3864468 - 3866983" locus_tag="HMPREF1120_02855" id="clusterblast-1_h15_3_13" points="730,85 735,80 778,80 778,90 735,90 730,85 " class="clusterblast-orf"  />
</g>
</svg>
