<svg xmlns="http://www.w3.org/2000/svg" height="230" width="800" version="1.1" y="0" x="0" preserveAspectRatio="none" xmlns:xlink="http://www.w3.org/1999/xlink" viewBox="0 0 800 230"  >
<g class="clusterblast-cluster" label="Query sequence"  >
<text class="clusterblast-acc" y="10" x="5"  >
Query sequence</text>
<line y1="35" x2="778.0" style="stroke:grey; stroke-width:1; " x1="10" y2="35"  />
<polygon style="stroke:black; stroke-width:1; fill:rgb(190,63,63); " description="unannotated orf[br]Location: 0 - 4473" locus_tag="CHAFR746836_0033810.1" class="clusterblast-orf" points="25,35 30,30 98,30 98,40 30,40 25,35 " id="clusterblast-1_q47_7_0"  />
<polygon style="stroke:black; stroke-width:1; fill:rgb(63,63,190); " description="unannotated orf[br]Location: 8908 - 16258" locus_tag="CHAFR746836_0033820.1" class="clusterblast-orf" points="171,35 176,30 291,30 291,40 176,40 171,35 " id="clusterblast-1_q47_7_1"  />
<polygon style="stroke:black; stroke-width:1; fill:rgb(63,190,63); " description="unannotated orf[br]Location: 17051 - 17982" locus_tag="CHAFR746836_0033830.1" class="clusterblast-orf" points="304,40 315,40 320,35 315,30 304,30 304,40 " id="clusterblast-1_q47_7_2"  />
<polygon style="stroke:black; stroke-width:1; fill:rgb(190,63,190); " description="unannotated orf[br]Location: 20014 - 21694" locus_tag="CHAFR746836_0033840.1" class="clusterblast-orf" points="353,40 376,40 381,35 376,30 353,30 353,40 " id="clusterblast-1_q47_7_3"  />
<polygon style="stroke:black; stroke-width:1; fill:rgb(190,190,63); " description="unannotated orf[br]Location: 21817 - 22799" locus_tag="CHAFR746836_0033850.1" class="clusterblast-orf" points="383,35 388,30 399,30 399,40 388,40 383,35 " id="clusterblast-1_q47_7_4"  />
<polygon style="stroke:black; stroke-width:1; fill:rgb(190,190,190); " description="unannotated orf[br]Location: 23459 - 25108" locus_tag="CHAFR746836_0033860.1" class="clusterblast-orf" points="410,40 432,40 437,35 432,30 410,30 410,40 " id="clusterblast-1_q47_7_5"  />
<polygon style="stroke:black; stroke-width:1; fill:#FFFFFF; " description="unannotated orf[br]Location: 25635 - 26766" locus_tag="CHAFR746836_0033870.1" class="clusterblast-orf" points="445,40 459,40 464,35 459,30 445,30 445,40 " id="clusterblast-1_q47_7_6"  />
<polygon style="stroke:black; stroke-width:1; fill:#FFFFFF; " description="unannotated orf[br]Location: 33731 - 34287" locus_tag="CHAFR746836_0033880.1" class="clusterblast-orf" points="578,35 583,30 588,30 588,40 583,40 578,35 " id="clusterblast-1_q47_7_7"  />
<polygon style="stroke:black; stroke-width:1; fill:#FFFFFF; " description="unannotated orf[br]Location: 40637 - 41931" locus_tag="CHAFR746836_0033890.1" class="clusterblast-orf" points="692,35 697,30 713,30 713,40 697,40 692,35 " id="clusterblast-1_q47_7_8"  />
<polygon style="stroke:black; stroke-width:1; fill:#FFFFFF; " description="unannotated orf[br]Location: 43999 - 44934" locus_tag="CHAFR746836_0033900.1" class="clusterblast-orf" points="747,35 752,30 762,30 762,40 752,40 747,35 " id="clusterblast-1_q47_7_9"  />
</g>
<g class="clusterblast-cluster" description="Glomerella graminicola M1.001 genomic scaffold supercont1.7,..." label="GG697337.1_c1"  >
<text class="clusterblast-acc" y="60" x="5"  >
GG697337.1_c1</text>
<text class="clusterblast-desc" y="60" x="460.8"  >
Glomerella graminicola M1.001 genomic scaffold supercont1.7,...</text>
<line y1="85" x2="778.0" style="stroke:grey; stroke-width:1; " x1="10" y2="85"  />
<polygon style="stroke:black; stroke-width:1; fill:#FFFFFF; " description="hypothetical_protein[br]Location: 641699 - 643235" locus_tag="GLRG_01855" id="clusterblast-1_h47_7_0" points="10,85 15,80 35,80 35,90 15,90 10,85 " class="clusterblast-orf"  />
<polygon style="stroke:black; stroke-width:1; fill:#FFFFFF; " description="hypothetical_protein[br]Location: 647586 - 649086" locus_tag="GLRG_01856" id="clusterblast-1_h47_7_1" points="106,85 111,80 131,80 131,90 111,90 106,85 " class="clusterblast-orf"  />
<polygon style="stroke:black; stroke-width:1; fill:#FFFFFF; " description="glycosyl_hydrolase_family_11[br]Location: 650514 - 651537" locus_tag="GLRG_01857" id="clusterblast-1_h47_7_2" points="154,85 159,80 171,80 171,90 159,90 154,85 " class="clusterblast-orf"  />
<polygon style="stroke:black; stroke-width:1; fill:#FFFFFF; " description="hypothetical_protein[br]Location: 653166 - 654077" locus_tag="GLRG_01858" id="clusterblast-1_h47_7_3" points="198,85 203,80 213,80 213,90 203,90 198,85 " class="clusterblast-orf"  />
<polygon style="stroke:black; stroke-width:1; fill:rgb(190,63,63); " description="glycosyltransferase_family_28_domain-containing[br]Location: 655824 - 658701&lt;br&gt;&lt;br&gt;&lt;b&gt;BlastP hit with CHAFR746836_0033810.1&lt;/b&gt;&lt;br&gt;Percentage identity: 33%&lt;br&gt;Percentage coverage: 32%&lt;br&gt;BLAST bit score: 250&lt;br&gt;E-value: 2e-67" locus_tag="GLRG_01859" id="clusterblast-1_h47_7_4" points="241,85 246,80 289,80 289,90 246,90 241,85 " class="clusterblast-orf"  />
<polygon style="stroke:black; stroke-width:1; fill:rgb(63,63,190); " description="beta-ketoacyl_synthase_domain-containing[br]Location: 660023 - 668273&lt;br&gt;&lt;br&gt;&lt;b&gt;BlastP hit with CHAFR746836_0033820.1&lt;/b&gt;&lt;br&gt;Percentage identity: 33%&lt;br&gt;Percentage coverage: 57%&lt;br&gt;BLAST bit score: 632&lt;br&gt;E-value: 0.0" locus_tag="GLRG_01860" id="clusterblast-1_h47_7_5" points="310,85 315,80 446,80 446,90 315,90 310,85 " class="clusterblast-orf"  />
<polygon style="stroke:black; stroke-width:1; fill:#FFFFFF; " description="TAM_domain_methyltransferase[br]Location: 671095 - 672664" locus_tag="GLRG_01861" id="clusterblast-1_h47_7_6" points="492,90 513,90 518,85 513,80 492,80 492,90 " class="clusterblast-orf"  />
<polygon style="stroke:black; stroke-width:1; fill:#FFFFFF; " description="methyltransferase_domain-containing_protein[br]Location: 673844 - 674566" locus_tag="GLRG_01862" id="clusterblast-1_h47_7_7" points="537,90 544,90 549,85 544,80 537,80 537,90 " class="clusterblast-orf"  />
<polygon style="stroke:black; stroke-width:1; fill:#FFFFFF; " description="hypothetical_protein[br]Location: 675684 - 676007" locus_tag="GLRG_01863" id="clusterblast-1_h47_7_8" points="568,85 573,80 573,80 573,90 573,90 568,85 " class="clusterblast-orf"  />
<polygon style="stroke:black; stroke-width:1; fill:#FFFFFF; " description="GDSL-like_Lipase/Acylhydrolase[br]Location: 677737 - 678578" locus_tag="GLRG_01864" id="clusterblast-1_h47_7_9" points="601,85 606,80 615,80 615,90 606,90 601,85 " class="clusterblast-orf"  />
<polygon style="stroke:black; stroke-width:1; fill:#FFFFFF; " description="hypothetical_protein[br]Location: 680211 - 680780" locus_tag="GLRG_01865" id="clusterblast-1_h47_7_10" points="642,90 646,90 651,85 646,80 642,80 642,90 " class="clusterblast-orf"  />
<polygon style="stroke:black; stroke-width:1; fill:#FFFFFF; " description="hypothetical_protein[br]Location: 681591 - 682675" locus_tag="GLRG_01866" id="clusterblast-1_h47_7_11" points="665,85 670,80 682,80 682,90 670,90 665,85 " class="clusterblast-orf"  />
<polygon style="stroke:black; stroke-width:1; fill:#FFFFFF; " description="hypothetical_protein[br]Location: 683534 - 683877" locus_tag="GLRG_01867" id="clusterblast-1_h47_7_12" points="696,90 697,90 702,85 697,80 696,80 696,90 " class="clusterblast-orf"  />
<polygon style="stroke:black; stroke-width:1; fill:#FFFFFF; " description="hypothetical_protein[br]Location: 686484 - 687398" locus_tag="GLRG_01868" id="clusterblast-1_h47_7_13" points="745,90 755,90 760,85 755,80 745,80 745,90 " class="clusterblast-orf"  />
<polygon style="stroke:black; stroke-width:1; fill:#FFFFFF; " description="hypothetical_protein[br]Location: 688217 - 688468" locus_tag="GLRG_01869" id="clusterblast-1_h47_7_14" points="773,90 773,90 778,85 773,80 773,80 773,90 " class="clusterblast-orf"  />
</g>
</svg>
