<svg xmlns="http://www.w3.org/2000/svg" height="230" width="800" version="1.1" y="0" x="0" preserveAspectRatio="none" xmlns:xlink="http://www.w3.org/1999/xlink" viewBox="0 0 800 230"  >
<g class="clusterblast-cluster" label="Query sequence"  >
<text class="clusterblast-acc" y="10" x="5"  >
Query sequence</text>
<line y1="35" x2="778.0" style="stroke:grey; stroke-width:1; " x1="10" y2="35"  />
<polygon style="stroke:black; stroke-width:1; fill:red; " description="unannotated orf[br]Location: 7069 - 8172" locus_tag="CHAFR746836_0067810.1" class="clusterblast-orf" points="256,40 268,40 273,35 268,30 256,30 256,40 " id="clusterblast-1_q8_9_0"  />
<polygon style="stroke:black; stroke-width:1; fill:green; " description="unannotated orf[br]Location: 9727 - 13318" locus_tag="CHAFR746836_0067820.1" class="clusterblast-orf" points="298,35 303,30 356,30 356,40 303,40 298,35 " id="clusterblast-1_q8_9_1"  />
<polygon style="stroke:black; stroke-width:1; fill:blue; " description="unannotated orf[br]Location: 14449 - 16282" locus_tag="CHAFR746836_0067830.1" class="clusterblast-orf" points="374,40 399,40 404,35 399,30 374,30 374,40 " id="clusterblast-1_q8_9_2"  />
<polygon style="stroke:black; stroke-width:1; fill:yellow; " description="unannotated orf[br]Location: 18109 - 19056" locus_tag="CHAFR746836_0067840.1" class="clusterblast-orf" points="433,35 438,30 448,30 448,40 438,40 433,35 " id="clusterblast-1_q8_9_3"  />
<polygon style="stroke:black; stroke-width:1; fill:#FFFFFF; " description="unannotated orf[br]Location: 20406 - 24215" locus_tag="CHAFR746836_0067850.1" class="clusterblast-orf" points="470,35 475,30 531,30 531,40 475,40 470,35 " id="clusterblast-1_q8_9_4"  />
</g>
<g class="clusterblast-cluster" description="Exophiala dermatitidis NIH/UT8656 unplaced genomic scaffold ..." label="JH226134.1_c1"  >
<text class="clusterblast-acc" y="60" x="5"  >
JH226134.1_c1</text>
<text class="clusterblast-desc" y="60" x="460.8"  >
Exophiala dermatitidis NIH/UT8656 unplaced genomic scaffold ...</text>
<line y1="85" x2="778.0" style="stroke:grey; stroke-width:1; " x1="10" y2="85"  />
<polygon style="stroke:black; stroke-width:1; fill:#FFFFFF; " description="cytochrome_P450_alkane_hydroxylase[br]Location: 1230450 - 1231950" locus_tag="HMPREF1120_06036" id="clusterblast-1_h8_9_0" points="10,90 29,90 34,85 29,80 10,80 10,90 " class="clusterblast-orf"  />
<polygon style="stroke:black; stroke-width:1; fill:#FFFFFF; " description="hypothetical_protein[br]Location: 1232615 - 1236676" locus_tag="HMPREF1120_06037" id="clusterblast-1_h8_9_1" points="44,90 105,90 110,85 105,80 44,80 44,90 " class="clusterblast-orf"  />
<polygon style="stroke:black; stroke-width:1; fill:#FFFFFF; " description="ATP-dependent_RNA_helicase[br]Location: 1237251 - 1239947" locus_tag="HMPREF1120_06038" id="clusterblast-1_h8_9_2" points="119,90 157,90 162,85 157,80 119,80 119,90 " class="clusterblast-orf"  />
<polygon style="stroke:black; stroke-width:1; fill:#FFFFFF; " description="4-coumarate-CoA_ligase[br]Location: 1240508 - 1242346" locus_tag="HMPREF1120_06039" id="clusterblast-1_h8_9_3" points="171,85 176,80 201,80 201,90 176,90 171,85 " class="clusterblast-orf"  />
<polygon style="stroke:black; stroke-width:1; fill:#FFFFFF; " description="hypothetical_protein[br]Location: 1243234 - 1244079" locus_tag="HMPREF1120_06040" id="clusterblast-1_h8_9_4" points="215,90 224,90 229,85 224,80 215,80 215,90 " class="clusterblast-orf"  />
<polygon style="stroke:black; stroke-width:1; fill:#FFFFFF; " description="phosphoenolpyruvate_carboxykinase_[ATP][br]Location: 1245161 - 1247444" locus_tag="HMPREF1120_06041" id="clusterblast-1_h8_9_5" points="246,90 278,90 283,85 278,80 246,80 246,90 " class="clusterblast-orf"  />
<polygon style="stroke:black; stroke-width:1; fill:#FFFFFF; " description="hypothetical_protein[br]Location: 1249418 - 1250692" locus_tag="HMPREF1120_06042" id="clusterblast-1_h8_9_6" points="315,90 330,90 335,85 330,80 315,80 315,90 " class="clusterblast-orf"  />
<polygon style="stroke:black; stroke-width:1; fill:green; " description="L-aminoadipate-semialdehyde_dehydrogenase[br]Location: 1251748 - 1256238&lt;br&gt;&lt;br&gt;&lt;b&gt;BlastP hit with CHAFR746836_0067820.1&lt;/b&gt;&lt;br&gt;Percentage identity: 59%&lt;br&gt;Percentage coverage: 105%&lt;br&gt;BLAST bit score: 1451&lt;br&gt;E-value: 0.0" locus_tag="HMPREF1120_06043" id="clusterblast-1_h8_9_7" points="352,85 357,80 424,80 424,90 357,90 352,85 " class="clusterblast-orf"  />
<polygon style="stroke:black; stroke-width:1; fill:blue; " description="hypothetical_protein[br]Location: 1256768 - 1258669&lt;br&gt;&lt;br&gt;&lt;b&gt;BlastP hit with CHAFR746836_0067830.1&lt;/b&gt;&lt;br&gt;Percentage identity: 41%&lt;br&gt;Percentage coverage: 101%&lt;br&gt;BLAST bit score: 491&lt;br&gt;E-value: 2e-164" locus_tag="HMPREF1120_06044" id="clusterblast-1_h8_9_8" points="433,90 458,90 463,85 458,80 433,80 433,90 " class="clusterblast-orf"  />
<polygon style="stroke:black; stroke-width:1; fill:#FFFFFF; " description="hypothetical_protein[br]Location: 1258721 - 1260169" locus_tag="HMPREF1120_06045" id="clusterblast-1_h8_9_9" points="464,85 469,80 487,80 487,90 469,90 464,85 " class="clusterblast-orf"  />
<polygon style="stroke:black; stroke-width:1; fill:#FFFFFF; " description="hypothetical_protein[br]Location: 1261906 - 1264300" locus_tag="HMPREF1120_06046" id="clusterblast-1_h8_9_10" points="515,90 549,90 554,85 549,80 515,80 515,90 " class="clusterblast-orf"  />
<polygon style="stroke:black; stroke-width:1; fill:#FFFFFF; " description="hypothetical_protein[br]Location: 1266499 - 1266864" locus_tag="HMPREF1120_06047" id="clusterblast-1_h8_9_11" points="589,85 594,80 595,80 595,90 594,90 589,85 " class="clusterblast-orf"  />
<polygon style="stroke:black; stroke-width:1; fill:#FFFFFF; " description="transposase[br]Location: 1268583 - 1269515" locus_tag="HMPREF1120_06048" id="clusterblast-1_h8_9_12" points="623,90 633,90 638,85 633,80 623,80 623,90 " class="clusterblast-orf"  />
<polygon style="stroke:black; stroke-width:1; fill:#FFFFFF; " description="Ca2+:H+_antiporter[br]Location: 1270136 - 1272050" locus_tag="HMPREF1120_06049" id="clusterblast-1_h8_9_13" points="648,90 673,90 678,85 673,80 648,80 648,90 " class="clusterblast-orf"  />
<polygon style="stroke:black; stroke-width:1; fill:#FFFFFF; " description="chromate_transporter[br]Location: 1272754 - 1274622" locus_tag="HMPREF1120_06050" id="clusterblast-1_h8_9_14" points="690,90 715,90 720,85 715,80 690,80 690,90 " class="clusterblast-orf"  />
<polygon style="stroke:black; stroke-width:1; fill:#FFFFFF; " description="hypothetical_protein[br]Location: 1275142 - 1278207" locus_tag="HMPREF1120_06051" id="clusterblast-1_h8_9_15" points="728,90 773,90 778,85 773,80 728,80 728,90 " class="clusterblast-orf"  />
</g>
</svg>
