<svg xmlns="http://www.w3.org/2000/svg" height="230" width="800" version="1.1" y="0" x="0" preserveAspectRatio="none" xmlns:xlink="http://www.w3.org/1999/xlink" viewBox="0 0 800 230"  >
<g class="clusterblast-cluster" label="Query sequence"  >
<text class="clusterblast-acc" y="10" x="5"  >
Query sequence</text>
<line y1="35" x2="778.0" style="stroke:grey; stroke-width:1; " x1="10" y2="35"  />
<polygon style="stroke:black; stroke-width:1; fill:red; " description="unannotated orf[br]Location: 7069 - 8172" locus_tag="CHAFR746836_0067810.1" class="clusterblast-orf" points="245,40 259,40 264,35 259,30 245,30 245,40 " id="clusterblast-1_q8_4_0"  />
<polygon style="stroke:black; stroke-width:1; fill:green; " description="unannotated orf[br]Location: 9727 - 13318" locus_tag="CHAFR746836_0067820.1" class="clusterblast-orf" points="291,35 296,30 353,30 353,40 296,40 291,35 " id="clusterblast-1_q8_4_1"  />
<polygon style="stroke:black; stroke-width:1; fill:blue; " description="unannotated orf[br]Location: 14449 - 16282" locus_tag="CHAFR746836_0067830.1" class="clusterblast-orf" points="372,40 399,40 404,35 399,30 372,30 372,40 " id="clusterblast-1_q8_4_2"  />
<polygon style="stroke:black; stroke-width:1; fill:yellow; " description="unannotated orf[br]Location: 18109 - 19056" locus_tag="CHAFR746836_0067840.1" class="clusterblast-orf" points="436,35 441,30 452,30 452,40 441,40 436,35 " id="clusterblast-1_q8_4_3"  />
<polygon style="stroke:black; stroke-width:1; fill:#FFFFFF; " description="unannotated orf[br]Location: 20406 - 24215" locus_tag="CHAFR746836_0067850.1" class="clusterblast-orf" points="476,35 481,30 542,30 542,40 481,40 476,35 " id="clusterblast-1_q8_4_4"  />
</g>
<g class="clusterblast-cluster" description="Botryotinia fuckeliana isolate T4 SuperContig 219 1 genomic ..." label="FQ790303.1_c1"  >
<text class="clusterblast-acc" y="60" x="5"  >
FQ790303.1_c1</text>
<text class="clusterblast-desc" y="60" x="460.8"  >
Botryotinia fuckeliana isolate T4 SuperContig 219 1 genomic ...</text>
<line y1="85" x2="778.0" style="stroke:grey; stroke-width:1; " x1="10" y2="85"  />
<polygon style="stroke:black; stroke-width:1; fill:#FFFFFF; " description="similar_to_50S_ribosomal_protein_L24[br]Location: 36605 - 37306" locus_tag="CCD34129.1" id="clusterblast-1_h8_4_0" points="10,85 15,80 22,80 22,90 15,90 10,85 " class="clusterblast-orf"  />
<polygon style="stroke:black; stroke-width:1; fill:#FFFFFF; " description="hypothetical_protein[br]Location: 38006 - 38734" locus_tag="CCD34130.1" id="clusterblast-1_h8_4_1" points="34,85 39,80 46,80 46,90 39,90 34,85 " class="clusterblast-orf"  />
<polygon style="stroke:black; stroke-width:1; fill:#FFFFFF; " description="hypothetical_protein[br]Location: 39203 - 39937" locus_tag="CCD34131.1" id="clusterblast-1_h8_4_2" points="55,90 62,90 67,85 62,80 55,80 55,90 " class="clusterblast-orf"  />
<polygon style="stroke:black; stroke-width:1; fill:#FFFFFF; " description="similar_to_vacuolar_morphogenesis_protein_AvaB[br]Location: 41231 - 44482" locus_tag="CCD34132.1" id="clusterblast-1_h8_4_3" points="90,90 141,90 146,85 141,80 90,80 90,90 " class="clusterblast-orf"  />
<polygon style="stroke:black; stroke-width:1; fill:#FFFFFF; " description="hypothetical_protein[br]Location: 44586 - 44939" locus_tag="CCD34133.1" id="clusterblast-1_h8_4_4" points="148,85 153,80 154,80 154,90 153,90 148,85 " class="clusterblast-orf"  />
<polygon style="stroke:black; stroke-width:1; fill:#FFFFFF; " description="hypothetical_protein[br]Location: 45516 - 48279" locus_tag="CCD34134.1" id="clusterblast-1_h8_4_5" points="164,90 207,90 212,85 207,80 164,80 164,90 " class="clusterblast-orf"  />
<polygon style="stroke:black; stroke-width:1; fill:#FFFFFF; " description="hypothetical_protein[br]Location: 51139 - 53754" locus_tag="CCD34135.1" id="clusterblast-1_h8_4_6" points="261,85 266,80 307,80 307,90 266,90 261,85 " class="clusterblast-orf"  />
<polygon style="stroke:black; stroke-width:1; fill:#FFFFFF; " description="hypothetical_protein[br]Location: 55631 - 56034" locus_tag="CCD34136.1" id="clusterblast-1_h8_4_7" points="339,90 341,90 346,85 341,80 339,80 339,90 " class="clusterblast-orf"  />
<polygon style="stroke:black; stroke-width:1; fill:green; " description="similar_to_L-aminoadipate-semialdehyde[br]Location: 56868 - 60689&lt;br&gt;&lt;br&gt;&lt;b&gt;BlastP hit with CHAFR746836_0067820.1&lt;/b&gt;&lt;br&gt;Percentage identity: 82%&lt;br&gt;Percentage coverage: 99%&lt;br&gt;BLAST bit score: 2001&lt;br&gt;E-value: 0.0" locus_tag="CCD34137.1" id="clusterblast-1_h8_4_8" points="361,85 366,80 427,80 427,90 366,90 361,85 " class="clusterblast-orf"  />
<polygon style="stroke:black; stroke-width:1; fill:blue; " description="hypothetical_protein[br]Location: 61860 - 63710&lt;br&gt;&lt;br&gt;&lt;b&gt;BlastP hit with CHAFR746836_0067830.1&lt;/b&gt;&lt;br&gt;Percentage identity: 68%&lt;br&gt;Percentage coverage: 100%&lt;br&gt;BLAST bit score: 873&lt;br&gt;E-value: 0.0" locus_tag="CCD34138.1" id="clusterblast-1_h8_4_9" points="447,90 474,90 479,85 474,80 447,80 447,90 " class="clusterblast-orf"  />
<polygon style="stroke:black; stroke-width:1; fill:#FFFFFF; " description="hypothetical_protein[br]Location: 64266 - 64964" locus_tag="CCD34139.1" id="clusterblast-1_h8_4_10" points="489,85 494,80 501,80 501,90 494,90 489,85 " class="clusterblast-orf"  />
<polygon style="stroke:black; stroke-width:1; fill:#FFFFFF; " description="predicted_protein[br]Location: 66164 - 66436" locus_tag="CCD34140.1" id="clusterblast-1_h8_4_11" points="522,90 522,90 527,85 522,80 522,80 522,90 " class="clusterblast-orf"  />
<polygon style="stroke:black; stroke-width:1; fill:#FFFFFF; " description="similar_to_short-chain_dehydrogenase/reductase[br]Location: 66722 - 67852" locus_tag="CCD34141.1" id="clusterblast-1_h8_4_12" points="531,90 546,90 551,85 546,80 531,80 531,90 " class="clusterblast-orf"  />
<polygon style="stroke:black; stroke-width:1; fill:#FFFFFF; " description="predicted_protein[br]Location: 69544 - 70094" locus_tag="CCD34142.1" id="clusterblast-1_h8_4_13" points="580,85 585,80 590,80 590,90 585,90 580,85 " class="clusterblast-orf"  />
<polygon style="stroke:black; stroke-width:1; fill:#FFFFFF; " description="predicted_protein[br]Location: 70140 - 70404" locus_tag="CCD34143.1" id="clusterblast-1_h8_4_14" points="591,90 595,85 591,80 591,90 " class="clusterblast-orf"  />
<polygon style="stroke:black; stroke-width:1; fill:yellow; " description="hypothetical_protein[br]Location: 71020 - 71823&lt;br&gt;&lt;br&gt;&lt;b&gt;BlastP hit with CHAFR746836_0067840.1&lt;/b&gt;&lt;br&gt;Percentage identity: 54%&lt;br&gt;Percentage coverage: 100%&lt;br&gt;BLAST bit score: 269&lt;br&gt;E-value: 7e-89" locus_tag="CCD34144.1" id="clusterblast-1_h8_4_15" points="606,90 615,90 620,85 615,80 606,80 606,90 " class="clusterblast-orf"  />
<polygon style="stroke:black; stroke-width:1; fill:#FFFFFF; " description="hypothetical_protein[br]Location: 72548 - 74599" locus_tag="CCD34145.1" id="clusterblast-1_h8_4_16" points="632,85 637,80 668,80 668,90 637,90 632,85 " class="clusterblast-orf"  />
<polygon style="stroke:black; stroke-width:1; fill:#FFFFFF; " description="predicted_protein[br]Location: 76057 - 76441" locus_tag="CCD34146.1" id="clusterblast-1_h8_4_17" points="693,85 698,80 700,80 700,90 698,90 693,85 " class="clusterblast-orf"  />
<polygon style="stroke:black; stroke-width:1; fill:#FFFFFF; " description="hypothetical_protein[br]Location: 78438 - 78815" locus_tag="CCD34147.1" id="clusterblast-1_h8_4_18" points="735,90 736,90 741,85 736,80 735,80 735,90 " class="clusterblast-orf"  />
<polygon style="stroke:black; stroke-width:1; fill:#FFFFFF; " description="similar_to_delta-aminolevulinic_acid[br]Location: 79685 - 80916" locus_tag="CCD34148.1" id="clusterblast-1_h8_4_19" points="756,90 773,90 778,85 773,80 756,80 756,90 " class="clusterblast-orf"  />
</g>
</svg>
