<svg xmlns="http://www.w3.org/2000/svg" height="230" width="800" version="1.1" y="0" x="0" preserveAspectRatio="none" xmlns:xlink="http://www.w3.org/1999/xlink" viewBox="0 0 800 230"  >
<g class="clusterblast-cluster" label="Query sequence"  >
<text class="clusterblast-acc" y="10" x="5"  >
Query sequence</text>
<line y1="35" x2="778.0" style="stroke:grey; stroke-width:1; " x1="10" y2="35"  />
<polygon style="stroke:black; stroke-width:1; fill:red; " description="unannotated orf[br]Location: 1639 - 3862" locus_tag="CHAFR746836_0009390.1" class="clusterblast-orf" points="72,40 109,40 114,35 109,30 72,30 72,40 " id="clusterblast-1_q30_8_0"  />
<polygon style="stroke:black; stroke-width:1; fill:#FFFFFF; " description="unannotated orf[br]Location: 4351 - 6763" locus_tag="CHAFR746836_0009400.1" class="clusterblast-orf" points="123,40 165,40 170,35 165,30 123,30 123,40 " id="clusterblast-1_q30_8_1"  />
<polygon style="stroke:black; stroke-width:1; fill:#FFFFFF; " description="unannotated orf[br]Location: 8433 - 9813" locus_tag="CHAFR746836_0009410.1" class="clusterblast-orf" points="201,40 223,40 228,35 223,30 201,30 201,40 " id="clusterblast-1_q30_8_2"  />
<polygon style="stroke:black; stroke-width:1; fill:#FFFFFF; " description="unannotated orf[br]Location: 10159 - 11305" locus_tag="CHAFR746836_0009420.1" class="clusterblast-orf" points="235,35 240,30 256,30 256,40 240,40 235,35 " id="clusterblast-1_q30_8_3"  />
<polygon style="stroke:black; stroke-width:1; fill:green; " description="unannotated orf[br]Location: 12094 - 15169" locus_tag="CHAFR746836_0009430.1" class="clusterblast-orf" points="272,35 277,30 330,30 330,40 277,40 272,35 " id="clusterblast-1_q30_8_4"  />
<polygon style="stroke:black; stroke-width:1; fill:blue; " description="unannotated orf[br]Location: 18460 - 19626" locus_tag="CHAFR746836_0009440.1" class="clusterblast-orf" points="393,35 398,30 416,30 416,40 398,40 393,35 " id="clusterblast-1_q30_8_5"  />
<polygon style="stroke:black; stroke-width:1; fill:yellow; " description="unannotated orf[br]Location: 21127 - 22798" locus_tag="CHAFR746836_0009450.1" class="clusterblast-orf" points="444,35 449,30 476,30 476,40 449,40 444,35 " id="clusterblast-1_q30_8_6"  />
<polygon style="stroke:black; stroke-width:1; fill:#FFFFFF; " description="unannotated orf[br]Location: 24451 - 25288" locus_tag="CHAFR746836_0009460.1" class="clusterblast-orf" points="508,35 513,30 524,30 524,40 513,40 508,35 " id="clusterblast-1_q30_8_7"  />
<polygon style="stroke:black; stroke-width:1; fill:#FFFFFF; " description="unannotated orf[br]Location: 26586 - 27329" locus_tag="CHAFR746836_0009470.1" class="clusterblast-orf" points="549,35 554,30 563,30 563,40 554,40 549,35 " id="clusterblast-1_q30_8_8"  />
<polygon style="stroke:black; stroke-width:1; fill:#FFFFFF; " description="unannotated orf[br]Location: 27584 - 28762" locus_tag="CHAFR746836_0009480.1" class="clusterblast-orf" points="568,40 585,40 590,35 585,30 568,30 568,40 " id="clusterblast-1_q30_8_9"  />
<polygon style="stroke:black; stroke-width:1; fill:#FFFFFF; " description="unannotated orf[br]Location: 28842 - 30026" locus_tag="CHAFR746836_0009490.1" class="clusterblast-orf" points="592,35 597,30 615,30 615,40 597,40 592,35 " id="clusterblast-1_q30_8_10"  />
<polygon style="stroke:black; stroke-width:1; fill:#FFFFFF; " description="unannotated orf[br]Location: 30391 - 33688" locus_tag="CHAFR746836_0009500.1" class="clusterblast-orf" points="622,40 680,40 685,35 680,30 622,30 622,40 " id="clusterblast-1_q30_8_11"  />
<polygon style="stroke:black; stroke-width:1; fill:#FFFFFF; " description="unannotated orf[br]Location: 34235 - 35268" locus_tag="CHAFR746836_0009510.1" class="clusterblast-orf" points="695,35 700,30 715,30 715,40 700,40 695,35 " id="clusterblast-1_q30_8_12"  />
</g>
<g class="clusterblast-cluster" description="Paracoccidioides brasiliensis Pb18 supercont1.1 genomic scaf..." label="DS572750.1_c2"  >
<text class="clusterblast-acc" y="60" x="5"  >
DS572750.1_c2</text>
<text class="clusterblast-desc" y="60" x="460.8"  >
Paracoccidioides brasiliensis Pb18 supercont1.1 genomic scaf...</text>
<line y1="85" x2="778.0" style="stroke:grey; stroke-width:1; " x1="10" y2="85"  />
<polygon style="stroke:black; stroke-width:1; fill:#FFFFFF; " description="catalase_B[br]Location: 772963 - 775440" locus_tag="PADG_00225" id="clusterblast-1_h30_8_0" points="10,85 15,80 57,80 57,90 15,90 10,85 " class="clusterblast-orf"  />
<polygon style="stroke:black; stroke-width:1; fill:#FFFFFF; " description="predicted_protein[br]Location: 775881 - 777102" locus_tag="PADG_00226" id="clusterblast-1_h30_8_1" points="65,90 84,90 89,85 84,80 65,80 65,90 " class="clusterblast-orf"  />
<polygon style="stroke:black; stroke-width:1; fill:#FFFFFF; " description="conserved_hypothetical_protein[br]Location: 780149 - 781278" locus_tag="PADG_00227" id="clusterblast-1_h30_8_2" points="147,85 152,80 169,80 169,90 152,90 147,85 " class="clusterblast-orf"  />
<polygon style="stroke:black; stroke-width:1; fill:#FFFFFF; " description="multidrug_resistance_protein_fnx1[br]Location: 782099 - 783884" locus_tag="PADG_00228" id="clusterblast-1_h30_8_3" points="184,85 189,80 218,80 218,90 189,90 184,85 " class="clusterblast-orf"  />
<polygon style="stroke:black; stroke-width:1; fill:#FFFFFF; " description="conserved_hypothetical_protein[br]Location: 784672 - 786748" locus_tag="PADG_00229" id="clusterblast-1_h30_8_4" points="234,85 239,80 273,80 273,90 239,90 234,85 " class="clusterblast-orf"  />
<polygon style="stroke:black; stroke-width:1; fill:#FFFFFF; " description="predicted_protein[br]Location: 787257 - 787620" locus_tag="PADG_00230" id="clusterblast-1_h30_8_5" points="283,90 285,90 290,85 285,80 283,80 283,90 " class="clusterblast-orf"  />
<polygon style="stroke:black; stroke-width:1; fill:#FFFFFF; " description="conserved_hypothetical_protein[br]Location: 787764 - 788672" locus_tag="PADG_00231" id="clusterblast-1_h30_8_6" points="293,85 298,80 310,80 310,90 298,90 293,85 " class="clusterblast-orf"  />
<polygon style="stroke:black; stroke-width:1; fill:blue; " description="conserved_hypothetical_protein[br]Location: 790221 - 791488&lt;br&gt;&lt;br&gt;&lt;b&gt;BlastP hit with CHAFR746836_0009440.1&lt;/b&gt;&lt;br&gt;Percentage identity: 60%&lt;br&gt;Percentage coverage: 97%&lt;br&gt;BLAST bit score: 428&lt;br&gt;E-value: 3e-148" locus_tag="PADG_00232" id="clusterblast-1_h30_8_7" points="340,85 345,80 364,80 364,90 345,90 340,85 " class="clusterblast-orf"  />
<polygon style="stroke:black; stroke-width:1; fill:green; " description="D-alanine-poly(phosphoribitol)_ligase_subunit_1[br]Location: 791976 - 795125&lt;br&gt;&lt;br&gt;&lt;b&gt;BlastP hit with CHAFR746836_0009430.1&lt;/b&gt;&lt;br&gt;Percentage identity: 56%&lt;br&gt;Percentage coverage: 99%&lt;br&gt;BLAST bit score: 1153&lt;br&gt;E-value: 0.0" locus_tag="PADG_00233" id="clusterblast-1_h30_8_8" points="373,90 429,90 434,85 429,80 373,80 373,90 " class="clusterblast-orf"  />
<polygon style="stroke:black; stroke-width:1; fill:#FFFFFF; " description="conserved_hypothetical_protein[br]Location: 796299 - 797198" locus_tag="PADG_00234" id="clusterblast-1_h30_8_9" points="456,90 468,90 473,85 468,80 456,80 456,90 " class="clusterblast-orf"  />
<polygon style="stroke:black; stroke-width:1; fill:#FFFFFF; " description="predicted_protein[br]Location: 798191 - 799561" locus_tag="PADG_00235" id="clusterblast-1_h30_8_10" points="492,85 497,80 518,80 518,90 497,90 492,85 " class="clusterblast-orf"  />
<polygon style="stroke:black; stroke-width:1; fill:#FFFFFF; " description="glutamyl-tRNA(Gln)_amidotransferase_subunit_A[br]Location: 800260 - 802029" locus_tag="PADG_00236" id="clusterblast-1_h30_8_11" points="532,90 561,90 566,85 561,80 532,80 532,90 " class="clusterblast-orf"  />
<polygon style="stroke:black; stroke-width:1; fill:#FFFFFF; " description="conserved_hypothetical_protein[br]Location: 802432 - 804307" locus_tag="PADG_00237" id="clusterblast-1_h30_8_12" points="573,85 578,80 609,80 609,90 578,90 573,85 " class="clusterblast-orf"  />
<polygon style="stroke:black; stroke-width:1; fill:#FFFFFF; " description="predicted_protein[br]Location: 804616 - 805389" locus_tag="PADG_00238" id="clusterblast-1_h30_8_13" points="615,90 625,90 630,85 625,80 615,80 615,90 " class="clusterblast-orf"  />
<polygon style="stroke:black; stroke-width:1; fill:#FFFFFF; " description="bystin[br]Location: 806438 - 808594" locus_tag="PADG_00239" id="clusterblast-1_h30_8_14" points="650,90 686,90 691,85 686,80 650,80 650,90 " class="clusterblast-orf"  />
<polygon style="stroke:black; stroke-width:1; fill:#FFFFFF; " description="conserved_hypothetical_protein[br]Location: 808774 - 809606" locus_tag="PADG_00240" id="clusterblast-1_h30_8_15" points="695,85 700,80 711,80 711,90 700,90 695,85 " class="clusterblast-orf"  />
<polygon style="stroke:black; stroke-width:1; fill:#FFFFFF; " description="bZIP_transcription_factor_HacA[br]Location: 811179 - 812570" locus_tag="PADG_00241" id="clusterblast-1_h30_8_16" points="741,85 746,80 767,80 767,90 746,90 741,85 " class="clusterblast-orf"  />
<polygon style="stroke:black; stroke-width:1; fill:#FFFFFF; " description="predicted_protein[br]Location: 812660 - 813105" locus_tag="PADG_00242" id="clusterblast-1_h30_8_17" points="769,85 774,80 778,80 778,90 774,90 769,85 " class="clusterblast-orf"  />
</g>
</svg>
