<svg xmlns="http://www.w3.org/2000/svg" height="230" width="800" version="1.1" y="0" x="0" preserveAspectRatio="none" xmlns:xlink="http://www.w3.org/1999/xlink" viewBox="0 0 800 230"  >
<g class="clusterblast-cluster" label="Query sequence"  >
<text class="clusterblast-acc" y="10" x="5"  >
Query sequence</text>
<line y1="35" x2="778.0" style="stroke:grey; stroke-width:1; " x1="10" y2="35"  />
<polygon style="stroke:black; stroke-width:1; fill:#FFFFFF; " description="unannotated orf[br]Location: 965 - 3615" locus_tag="CHAFR746836_0014310.1" class="clusterblast-orf" points="10,35 15,30 32,30 32,40 15,40 10,35 " id="clusterblast-1_q32_1_0"  />
<polygon style="stroke:black; stroke-width:1; fill:#FFFFFF; " description="unannotated orf[br]Location: 4260 - 6128" locus_tag="CHAFR746836_0014320.1" class="clusterblast-orf" points="38,40 49,40 54,35 49,30 38,30 38,40 " id="clusterblast-1_q32_1_1"  />
<polygon style="stroke:black; stroke-width:1; fill:#FFFFFF; " description="unannotated orf[br]Location: 7061 - 7582" locus_tag="CHAFR746836_0014330.1" class="clusterblast-orf" points="61,35 66,30 66,30 66,40 66,40 61,35 " id="clusterblast-1_q32_1_2"  />
<polygon style="stroke:black; stroke-width:1; fill:#FFFFFF; " description="unannotated orf[br]Location: 13564 - 15006" locus_tag="CHAFR746836_0014340.1" class="clusterblast-orf" points="117,35 122,30 129,30 129,40 122,40 117,35 " id="clusterblast-1_q32_1_3"  />
<polygon style="stroke:black; stroke-width:1; fill:#FFFFFF; " description="unannotated orf[br]Location: 17524 - 18715" locus_tag="CHAFR746836_0014350.1" class="clusterblast-orf" points="151,40 156,40 161,35 156,30 151,30 151,40 " id="clusterblast-1_q32_1_4"  />
<polygon style="stroke:black; stroke-width:1; fill:rgb(169,42,42); " description="unannotated orf[br]Location: 19792 - 21305" locus_tag="CHAFR746836_0014360.1" class="clusterblast-orf" points="170,35 175,30 183,30 183,40 175,40 170,35 " id="clusterblast-1_q32_1_5"  />
<polygon style="stroke:black; stroke-width:1; fill:#FFFFFF; " description="unannotated orf[br]Location: 22692 - 23566" locus_tag="CHAFR746836_0014370.1" class="clusterblast-orf" points="195,35 200,30 202,30 202,40 200,40 195,35 " id="clusterblast-1_q32_1_6"  />
<polygon style="stroke:black; stroke-width:1; fill:rgb(42,169,42); " description="unannotated orf[br]Location: 24871 - 25279" locus_tag="CHAFR746836_0014380.1" class="clusterblast-orf" points="213,40 217,35 213,30 213,40 " id="clusterblast-1_q32_1_7"  />
<polygon style="stroke:black; stroke-width:1; fill:rgb(42,169,212); " description="unannotated orf[br]Location: 30583 - 31348" locus_tag="CHAFR746836_0014390.1" class="clusterblast-orf" points="262,40 264,40 269,35 264,30 262,30 262,40 " id="clusterblast-1_q32_1_8"  />
<polygon style="stroke:black; stroke-width:1; fill:rgb(169,169,42); " description="unannotated orf[br]Location: 36255 - 37300" locus_tag="CHAFR746836_0014400.1" class="clusterblast-orf" points="310,40 314,40 319,35 314,30 310,30 310,40 " id="clusterblast-1_q32_1_9"  />
<polygon style="stroke:black; stroke-width:1; fill:rgb(169,42,127); " description="unannotated orf[br]Location: 40896 - 42318" locus_tag="CHAFR746836_0014410.1" class="clusterblast-orf" points="350,35 355,30 362,30 362,40 355,40 350,35 " id="clusterblast-1_q32_1_10"  />
<polygon style="stroke:black; stroke-width:1; fill:rgb(42,42,212); " description="unannotated orf[br]Location: 43231 - 44947" locus_tag="CHAFR746836_0014420.1" class="clusterblast-orf" points="370,35 375,30 384,30 384,40 375,40 370,35 " id="clusterblast-1_q32_1_11"  />
<polygon style="stroke:black; stroke-width:1; fill:rgb(169,169,212); " description="unannotated orf[br]Location: 48326 - 50264" locus_tag="CHAFR746836_0014430.1" class="clusterblast-orf" points="413,35 418,30 430,30 430,40 418,40 413,35 " id="clusterblast-1_q32_1_12"  />
<polygon style="stroke:black; stroke-width:1; fill:#FFFFFF; " description="unannotated orf[br]Location: 50648 - 51167" locus_tag="CHAFR746836_0014440.1" class="clusterblast-orf" points="433,35 438,30 438,30 438,40 438,40 433,35 " id="clusterblast-1_q32_1_13"  />
<polygon style="stroke:black; stroke-width:1; fill:#FFFFFF; " description="unannotated orf[br]Location: 52447 - 53731" locus_tag="CHAFR746836_0014450.1" class="clusterblast-orf" points="448,40 454,40 459,35 454,30 448,30 448,40 " id="clusterblast-1_q32_1_14"  />
<polygon style="stroke:black; stroke-width:1; fill:#FFFFFF; " description="unannotated orf[br]Location: 53956 - 55894" locus_tag="CHAFR746836_0014460.1" class="clusterblast-orf" points="461,35 466,30 478,30 478,40 466,40 461,35 " id="clusterblast-1_q32_1_15"  />
<polygon style="stroke:black; stroke-width:1; fill:#FFFFFF; " description="unannotated orf[br]Location: 57681 - 58665" locus_tag="CHAFR746836_0014470.1" class="clusterblast-orf" points="493,40 496,40 501,35 496,30 493,30 493,40 " id="clusterblast-1_q32_1_16"  />
<polygon style="stroke:black; stroke-width:1; fill:#FFFFFF; " description="unannotated orf[br]Location: 60333 - 62630" locus_tag="CHAFR746836_0014480.1" class="clusterblast-orf" points="516,40 530,40 535,35 530,30 516,30 516,40 " id="clusterblast-1_q32_1_17"  />
<polygon style="stroke:black; stroke-width:1; fill:rgb(42,169,127); " description="unannotated orf[br]Location: 65180 - 67570" locus_tag="CHAFR746836_0014490.1" class="clusterblast-orf" points="557,40 572,40 577,35 572,30 557,30 557,40 " id="clusterblast-1_q32_1_18"  />
<polygon style="stroke:black; stroke-width:1; fill:rgb(169,42,212); " description="unannotated orf[br]Location: 68037 - 69162" locus_tag="CHAFR746836_0014500.1" class="clusterblast-orf" points="581,35 586,30 591,30 591,40 586,40 581,35 " id="clusterblast-1_q32_1_19"  />
<polygon style="stroke:black; stroke-width:1; fill:#FFFFFF; " description="unannotated orf[br]Location: 70478 - 71612" locus_tag="CHAFR746836_0014510.1" class="clusterblast-orf" points="602,35 607,30 612,30 612,40 607,40 602,35 " id="clusterblast-1_q32_1_20"  />
<polygon style="stroke:black; stroke-width:1; fill:#FFFFFF; " description="unannotated orf[br]Location: 74985 - 76815" locus_tag="CHAFR746836_0014520.1" class="clusterblast-orf" points="641,40 651,40 656,35 651,30 641,30 641,40 " id="clusterblast-1_q32_1_21"  />
<polygon style="stroke:black; stroke-width:1; fill:#FFFFFF; " description="unannotated orf[br]Location: 83884 - 84673" locus_tag="CHAFR746836_0014530.1" class="clusterblast-orf" points="716,40 718,40 723,35 718,30 716,30 716,40 " id="clusterblast-1_q32_1_22"  />
<polygon style="stroke:black; stroke-width:1; fill:#FFFFFF; " description="unannotated orf[br]Location: 85064 - 86686" locus_tag="CHAFR746836_0014540.1" class="clusterblast-orf" points="726,35 731,30 740,30 740,40 731,40 726,35 " id="clusterblast-1_q32_1_23"  />
<polygon style="stroke:black; stroke-width:1; fill:#FFFFFF; " description="unannotated orf[br]Location: 89134 - 91047" locus_tag="CHAFR746836_0014550.1" class="clusterblast-orf" points="761,40 773,40 778,35 773,30 761,30 761,40 " id="clusterblast-1_q32_1_24"  />
</g>
<g class="clusterblast-cluster" description="Botryotinia fuckeliana isolate T4 SupSuperContig 36 28 1 gen..." label="FQ790351.1_c1"  >
<text class="clusterblast-acc" y="60" x="5"  >
FQ790351.1_c1</text>
<text class="clusterblast-desc" y="60" x="460.8"  >
Botryotinia fuckeliana isolate T4 SupSuperContig 36 28 1 gen...</text>
<line y1="85" x2="778.0" style="stroke:grey; stroke-width:1; " x1="10" y2="85"  />
<polygon style="stroke:black; stroke-width:1; fill:#FFFFFF; " description="hypothetical_protein[br]Location: 240355 - 242991" locus_tag="CCD54450.1" id="clusterblast-1_h32_1_0" points="224,85 229,80 246,80 246,90 229,90 224,85 " class="clusterblast-orf"  />
<polygon style="stroke:black; stroke-width:1; fill:#FFFFFF; " description="predicted_protein[br]Location: 244377 - 244634" locus_tag="CCD54451.1" id="clusterblast-1_h32_1_1" points="258,85 260,80 260,90 258,85 " class="clusterblast-orf"  />
<polygon style="stroke:black; stroke-width:1; fill:#FFFFFF; " description="hypothetical_protein[br]Location: 245189 - 246493" locus_tag="CCD54452.1" id="clusterblast-1_h32_1_2" points="265,85 270,80 276,80 276,90 270,90 265,85 " class="clusterblast-orf"  />
<polygon style="stroke:black; stroke-width:1; fill:#FFFFFF; " description="predicted_protein[br]Location: 246706 - 247055" locus_tag="CCD54453.1" id="clusterblast-1_h32_1_3" points="278,90 281,85 278,80 278,90 " class="clusterblast-orf"  />
<polygon style="stroke:black; stroke-width:1; fill:#FFFFFF; " description="similar_to_cytochrome_P450[br]Location: 247511 - 249187" locus_tag="CCD54454.1" id="clusterblast-1_h32_1_4" points="285,90 294,90 299,85 294,80 285,80 285,90 " class="clusterblast-orf"  />
<polygon style="stroke:black; stroke-width:1; fill:#FFFFFF; " description="hypothetical_protein[br]Location: 250788 - 254761" locus_tag="CCD54455.1" id="clusterblast-1_h32_1_5" points="312,85 317,80 346,80 346,90 317,90 312,85 " class="clusterblast-orf"  />
<polygon style="stroke:black; stroke-width:1; fill:#FFFFFF; " description="similar_to_transcription_factor_Cys6[br]Location: 255283 - 256179" locus_tag="CCD54456.1" id="clusterblast-1_h32_1_6" points="351,85 356,80 358,80 358,90 356,90 351,85 " class="clusterblast-orf"  />
<polygon style="stroke:black; stroke-width:1; fill:#FFFFFF; " description="hypothetical_protein[br]Location: 256302 - 256700" locus_tag="CCD54457.1" id="clusterblast-1_h32_1_7" points="359,85 363,80 363,90 359,85 " class="clusterblast-orf"  />
<polygon style="stroke:black; stroke-width:1; fill:rgb(169,42,42); " description="BcCHS1,_similar_to_chalcone_synthase[br]Location: 258617 - 260337&lt;br&gt;&lt;br&gt;&lt;b&gt;BlastP hit with CHAFR746836_0014360.1&lt;/b&gt;&lt;br&gt;Percentage identity: 68%&lt;br&gt;Percentage coverage: 107%&lt;br&gt;BLAST bit score: 676&lt;br&gt;E-value: 0.0" locus_tag="CCD54458.1" id="clusterblast-1_h32_1_8" points="379,90 389,90 394,85 389,80 379,80 379,90 " class="clusterblast-orf"  />
<polygon style="stroke:black; stroke-width:1; fill:rgb(169,42,127); " description="hypothetical_protein[br]Location: 260981 - 262483&lt;br&gt;&lt;br&gt;&lt;b&gt;BlastP hit with CHAFR746836_0014410.1&lt;/b&gt;&lt;br&gt;Percentage identity: 33%&lt;br&gt;Percentage coverage: 112%&lt;br&gt;BLAST bit score: 170&lt;br&gt;E-value: 3e-45" locus_tag="CCD54459.1" id="clusterblast-1_h32_1_9" points="399,85 404,80 412,80 412,90 404,90 399,85 " class="clusterblast-orf"  />
<polygon style="stroke:black; stroke-width:1; fill:rgb(169,169,42); " description="similar_to_short_chain_dehydrogenase/reductase[br]Location: 262907 - 263871&lt;br&gt;&lt;br&gt;&lt;b&gt;BlastP hit with CHAFR746836_0014400.1&lt;/b&gt;&lt;br&gt;Percentage identity: 58%&lt;br&gt;Percentage coverage: 98%&lt;br&gt;BLAST bit score: 354&lt;br&gt;E-value: 2e-120" locus_tag="CCD54460.1" id="clusterblast-1_h32_1_10" points="416,90 419,90 424,85 419,80 416,80 416,90 " class="clusterblast-orf"  />
<polygon style="stroke:black; stroke-width:1; fill:rgb(42,42,212); " description="glycoside_hydrolase_family_7_protein[br]Location: 267671 - 269335&lt;br&gt;&lt;br&gt;&lt;b&gt;BlastP hit with CHAFR746836_0014420.1&lt;/b&gt;&lt;br&gt;Percentage identity: 73%&lt;br&gt;Percentage coverage: 100%&lt;br&gt;BLAST bit score: 706&lt;br&gt;E-value: 0.0" locus_tag="CCD54461.1" id="clusterblast-1_h32_1_11" points="456,90 466,90 471,85 466,80 456,80 456,90 " class="clusterblast-orf"  />
<polygon style="stroke:black; stroke-width:1; fill:#FFFFFF; " description="hypothetical_protein[br]Location: 271902 - 272591" locus_tag="CCD54462.1" id="clusterblast-1_h32_1_12" points="492,90 493,90 498,85 493,80 492,80 492,90 " class="clusterblast-orf"  />
<polygon style="stroke:black; stroke-width:1; fill:#FFFFFF; " description="hypothetical_protein[br]Location: 273956 - 275518" locus_tag="CCD54463.1" id="clusterblast-1_h32_1_13" points="510,85 515,80 523,80 523,90 515,90 510,85 " class="clusterblast-orf"  />
<polygon style="stroke:black; stroke-width:1; fill:#FFFFFF; " description="hypothetical_protein[br]Location: 277395 - 279030" locus_tag="CCD54464.1" id="clusterblast-1_h32_1_14" points="539,90 548,90 553,85 548,80 539,80 539,90 " class="clusterblast-orf"  />
<polygon style="stroke:black; stroke-width:1; fill:#FFFFFF; " description="hypothetical_protein[br]Location: 279365 - 280192" locus_tag="CCD54465.1" id="clusterblast-1_h32_1_15" points="556,90 558,90 563,85 558,80 556,80 556,90 " class="clusterblast-orf"  />
</g>
</svg>
