<svg xmlns="http://www.w3.org/2000/svg" height="230" width="800" version="1.1" y="0" x="0" preserveAspectRatio="none" xmlns:xlink="http://www.w3.org/1999/xlink" viewBox="0 0 800 230"  >
<g class="clusterblast-cluster" label="Query sequence"  >
<text class="clusterblast-acc" y="10" x="5"  >
Query sequence</text>
<line y1="35" x2="778.0" style="stroke:grey; stroke-width:1; " x1="10" y2="35"  />
<polygon style="stroke:black; stroke-width:1; fill:red; " description="unannotated orf[br]Location: 68134 - 70502" locus_tag="CHAFR746836_0071420.1" class="clusterblast-orf" points="10,35 15,30 20,30 20,40 15,40 10,35 " id="clusterblast-1_q9_9_0"  />
<polygon style="stroke:black; stroke-width:1; fill:#FFFFFF; " description="unannotated orf[br]Location: 72327 - 73788" locus_tag="CHAFR746836_0071430.1" class="clusterblast-orf" points="28,35 33,30 35,30 35,40 33,40 28,35 " id="clusterblast-1_q9_9_1"  />
<polygon style="stroke:black; stroke-width:1; fill:#FFFFFF; " description="unannotated orf[br]Location: 76531 - 77863" locus_tag="CHAFR746836_0071440.1" class="clusterblast-orf" points="47,35 52,30 53,30 53,40 52,40 47,35 " id="clusterblast-1_q9_9_2"  />
<polygon style="stroke:black; stroke-width:1; fill:#FFFFFF; " description="unannotated orf[br]Location: 80274 - 82068" locus_tag="CHAFR746836_0071450.1" class="clusterblast-orf" points="64,40 67,40 72,35 67,30 64,30 64,40 " id="clusterblast-1_q9_9_3"  />
<polygon style="stroke:black; stroke-width:1; fill:green; " description="unannotated orf[br]Location: 84469 - 85881" locus_tag="CHAFR746836_0071460.1" class="clusterblast-orf" points="83,35 88,30 89,30 89,40 88,40 83,35 " id="clusterblast-1_q9_9_4"  />
<polygon style="stroke:black; stroke-width:1; fill:blue; " description="unannotated orf[br]Location: 86196 - 88112" locus_tag="CHAFR746836_0071470.1" class="clusterblast-orf" points="91,40 94,40 99,35 94,30 91,30 91,40 " id="clusterblast-1_q9_9_5"  />
<polygon style="stroke:black; stroke-width:1; fill:#FFFFFF; " description="unannotated orf[br]Location: 90971 - 93131" locus_tag="CHAFR746836_0071480.1" class="clusterblast-orf" points="112,35 117,30 122,30 122,40 117,40 112,35 " id="clusterblast-1_q9_9_6"  />
<polygon style="stroke:black; stroke-width:1; fill:#FFFFFF; " description="unannotated orf[br]Location: 94508 - 96197" locus_tag="CHAFR746836_0071490.1" class="clusterblast-orf" points="128,40 130,40 135,35 130,30 128,30 128,40 " id="clusterblast-1_q9_9_7"  />
<polygon style="stroke:black; stroke-width:1; fill:#FFFFFF; " description="unannotated orf[br]Location: 97454 - 99476" locus_tag="CHAFR746836_0071500.1" class="clusterblast-orf" points="141,40 145,40 150,35 145,30 141,30 141,40 " id="clusterblast-1_q9_9_8"  />
<polygon style="stroke:black; stroke-width:1; fill:#FFFFFF; " description="unannotated orf[br]Location: 100761 - 101297" locus_tag="CHAFR746836_0071510.1" class="clusterblast-orf" points="156,40 158,35 156,30 156,40 " id="clusterblast-1_q9_9_9"  />
<polygon style="stroke:black; stroke-width:1; fill:#FFFFFF; " description="unannotated orf[br]Location: 104385 - 104721" locus_tag="CHAFR746836_0071520.1" class="clusterblast-orf" points="172,40 174,35 172,30 172,40 " id="clusterblast-1_q9_9_10"  />
<polygon style="stroke:black; stroke-width:1; fill:#FFFFFF; " description="unannotated orf[br]Location: 107563 - 110227" locus_tag="CHAFR746836_0071530.1" class="clusterblast-orf" points="186,35 191,30 198,30 198,40 191,40 186,35 " id="clusterblast-1_q9_9_11"  />
<polygon style="stroke:black; stroke-width:1; fill:#FFFFFF; " description="unannotated orf[br]Location: 114742 - 115039" locus_tag="CHAFR746836_0071540.1" class="clusterblast-orf" points="219,40 220,35 219,30 219,40 " id="clusterblast-1_q9_9_12"  />
<polygon style="stroke:black; stroke-width:1; fill:#FFFFFF; " description="unannotated orf[br]Location: 123259 - 127108" locus_tag="CHAFR746836_0071550.1" class="clusterblast-orf" points="257,35 262,30 274,30 274,40 262,40 257,35 " id="clusterblast-1_q9_9_13"  />
<polygon style="stroke:black; stroke-width:1; fill:#FFFFFF; " description="unannotated orf[br]Location: 144812 - 146250" locus_tag="CHAFR746836_0071560.1" class="clusterblast-orf" points="354,35 359,30 360,30 360,40 359,40 354,35 " id="clusterblast-1_q9_9_14"  />
<polygon style="stroke:black; stroke-width:1; fill:#FFFFFF; " description="unannotated orf[br]Location: 152743 - 154459" locus_tag="CHAFR746836_0071570.1" class="clusterblast-orf" points="389,35 394,30 397,30 397,40 394,40 389,35 " id="clusterblast-1_q9_9_15"  />
<polygon style="stroke:black; stroke-width:1; fill:#FFFFFF; " description="unannotated orf[br]Location: 156531 - 157389" locus_tag="CHAFR746836_0071580.1" class="clusterblast-orf" points="406,35 410,30 410,40 406,35 " id="clusterblast-1_q9_9_16"  />
<polygon style="stroke:black; stroke-width:1; fill:#FFFFFF; " description="unannotated orf[br]Location: 164785 - 166669" locus_tag="CHAFR746836_0071590.1" class="clusterblast-orf" points="443,40 447,40 452,35 447,30 443,30 443,40 " id="clusterblast-1_q9_9_17"  />
<polygon style="stroke:black; stroke-width:1; fill:#FFFFFF; " description="unannotated orf[br]Location: 201968 - 203433" locus_tag="CHAFR746836_0071600.1" class="clusterblast-orf" points="610,40 612,40 617,35 612,30 610,30 610,40 " id="clusterblast-1_q9_9_18"  />
<polygon style="stroke:black; stroke-width:1; fill:#FFFFFF; " description="unannotated orf[br]Location: 204836 - 205972" locus_tag="CHAFR746836_0071610.1" class="clusterblast-orf" points="623,40 623,40 628,35 623,30 623,30 623,40 " id="clusterblast-1_q9_9_19"  />
<polygon style="stroke:black; stroke-width:1; fill:#FFFFFF; " description="unannotated orf[br]Location: 207637 - 210779" locus_tag="CHAFR746836_0071620.1" class="clusterblast-orf" points="636,35 641,30 650,30 650,40 641,40 636,35 " id="clusterblast-1_q9_9_20"  />
<polygon style="stroke:black; stroke-width:1; fill:#FFFFFF; " description="unannotated orf[br]Location: 211916 - 213325" locus_tag="CHAFR746836_0071630.1" class="clusterblast-orf" points="655,35 660,30 661,30 661,40 660,40 655,35 " id="clusterblast-1_q9_9_21"  />
<polygon style="stroke:black; stroke-width:1; fill:yellow; " description="unannotated orf[br]Location: 215213 - 216863" locus_tag="CHAFR746836_0071640.1" class="clusterblast-orf" points="670,35 675,30 677,30 677,40 675,40 670,35 " id="clusterblast-1_q9_9_22"  />
<polygon style="stroke:black; stroke-width:1; fill:#FFFFFF; " description="unannotated orf[br]Location: 224691 - 226010" locus_tag="CHAFR746836_0071650.1" class="clusterblast-orf" points="712,40 713,40 718,35 713,30 712,30 712,40 " id="clusterblast-1_q9_9_23"  />
<polygon style="stroke:black; stroke-width:1; fill:#FFFFFF; " description="unannotated orf[br]Location: 230972 - 232109" locus_tag="CHAFR746836_0071660.1" class="clusterblast-orf" points="740,40 740,40 745,35 740,30 740,30 740,40 " id="clusterblast-1_q9_9_24"  />
<polygon style="stroke:black; stroke-width:1; fill:#FFFFFF; " description="unannotated orf[br]Location: 233318 - 234463" locus_tag="CHAFR746836_0071670.1" class="clusterblast-orf" points="751,35 756,30 756,30 756,40 756,40 751,35 " id="clusterblast-1_q9_9_25"  />
<polygon style="stroke:black; stroke-width:1; fill:#FFFFFF; " description="unannotated orf[br]Location: 234897 - 236194" locus_tag="CHAFR746836_0071680.1" class="clusterblast-orf" points="758,40 759,40 764,35 759,30 758,30 758,40 " id="clusterblast-1_q9_9_26"  />
<polygon style="stroke:black; stroke-width:1; fill:#FFFFFF; " description="unannotated orf[br]Location: 236494 - 237888" locus_tag="CHAFR746836_0071690.1" class="clusterblast-orf" points="765,35 770,30 771,30 771,40 770,40 765,35 " id="clusterblast-1_q9_9_27"  />
<polygon style="stroke:black; stroke-width:1; fill:#FFFFFF; " description="unannotated orf[br]Location: 238790 - 239245" locus_tag="CHAFR746836_0071700.1" class="clusterblast-orf" points="775,40 778,35 775,30 775,40 " id="clusterblast-1_q9_9_28"  />
</g>
<g class="clusterblast-cluster" description="Xanthomonas oryzae pv. oryzicola BLS256 chromosome, complet..." label="NC_017267.1_c3"  >
<text class="clusterblast-acc" y="60" x="5"  >
NC_017267.1_c3</text>
<text class="clusterblast-desc" y="60" x="460.8"  >
Xanthomonas oryzae pv. oryzicola BLS256 chromosome, complet...</text>
<line y1="85" x2="778.0" style="stroke:grey; stroke-width:1; " x1="10" y2="85"  />
<polygon style="stroke:black; stroke-width:1; fill:#FFFFFF; " description="MFS_transporter[br]Location: 4706745 - 4708055" locus_tag="XOC_4565" id="clusterblast-1_h9_9_0" points="301,85 306,80 306,80 306,90 306,90 301,85 " class="clusterblast-orf"  />
<polygon style="stroke:black; stroke-width:1; fill:#FFFFFF; " description="transferase[br]Location: 4708527 - 4709072" locus_tag="XOC_4566" id="clusterblast-1_h9_9_1" points="308,90 311,85 308,80 308,90 " class="clusterblast-orf"  />
<polygon style="stroke:black; stroke-width:1; fill:#FFFFFF; " description="proteinase_inhibitor[br]Location: 4709098 - 4709370" locus_tag="XOC_4567" id="clusterblast-1_h9_9_2" points="311,85 312,80 312,90 311,85 " class="clusterblast-orf"  />
<polygon style="stroke:black; stroke-width:1; fill:#FFFFFF; " description="hypothetical_protein[br]Location: 4709389 - 4709520" locus_tag="XOC_4568" id="clusterblast-1_h9_9_3" points="312,90 313,85 312,80 312,90 " class="clusterblast-orf"  />
<polygon style="stroke:black; stroke-width:1; fill:#FFFFFF; " description="dihydroxy-acid_dehydratase[br]Location: 4709539 - 4711377" locus_tag="XOC_4569" id="clusterblast-1_h9_9_4" points="313,90 316,90 321,85 316,80 313,80 313,90 " class="clusterblast-orf"  />
<polygon style="stroke:black; stroke-width:1; fill:#FFFFFF; " description="transposase-like_protein,_IS30_family[br]Location: 4711400 - 4712086" locus_tag="XOC_4570" id="clusterblast-1_h9_9_5" points="321,85 324,80 324,90 321,85 " class="clusterblast-orf"  />
<polygon style="stroke:black; stroke-width:1; fill:#FFFFFF; " description="transposase[br]Location: 4711864 - 4712826" locus_tag="XOC_4571" id="clusterblast-1_h9_9_6" points="323,85 328,80 328,80 328,90 328,90 323,85 " class="clusterblast-orf"  />
<polygon style="stroke:black; stroke-width:1; fill:#FFFFFF; " description="hypothetical_protein[br]Location: 4712922 - 4713287" locus_tag="XOC_4572" id="clusterblast-1_h9_9_7" points="328,90 330,85 328,80 328,90 " class="clusterblast-orf"  />
<polygon style="stroke:black; stroke-width:1; fill:#FFFFFF; " description="outer_membrane_lipoprotein[br]Location: 4713371 - 4713904" locus_tag="XOC_4573" id="clusterblast-1_h9_9_8" points="330,85 333,80 333,90 330,85 " class="clusterblast-orf"  />
<polygon style="stroke:black; stroke-width:1; fill:#FFFFFF; " description="amino_acid_transporter[br]Location: 4714039 - 4714200" locus_tag="XOC_4574" id="clusterblast-1_h9_9_9" points="333,85 334,80 334,90 333,85 " class="clusterblast-orf"  />
<polygon style="stroke:black; stroke-width:1; fill:#FFFFFF; " description="beta-xylosidase_(1,4-beta-D-xylan_xylohydrolase)[br]Location: 4714389 - 4715423" locus_tag="XOC_4575" id="clusterblast-1_h9_9_10" points="335,85 339,80 339,90 335,85 " class="clusterblast-orf"  />
<polygon style="stroke:black; stroke-width:1; fill:#FFFFFF; " description="transporter[br]Location: 4715479 - 4716999" locus_tag="XOC_4576" id="clusterblast-1_h9_9_11" points="340,85 345,80 347,80 347,90 345,90 340,85 " class="clusterblast-orf"  />
<polygon style="stroke:black; stroke-width:1; fill:#FFFFFF; " description="TonB-dependent_receptor[br]Location: 4717041 - 4719974" locus_tag="XOC_4577" id="clusterblast-1_h9_9_12" points="347,85 352,80 360,80 360,90 352,90 347,85 " class="clusterblast-orf"  />
<polygon style="stroke:black; stroke-width:1; fill:#FFFFFF; " description="hypothetical_protein[br]Location: 4720293 - 4720439" locus_tag="XOC_4578" id="clusterblast-1_h9_9_13" points="361,90 362,85 361,80 361,90 " class="clusterblast-orf"  />
<polygon style="stroke:black; stroke-width:1; fill:#FFFFFF; " description="anion:cation_symporter_family_protein[br]Location: 4720436 - 4721737" locus_tag="XOC_4579" id="clusterblast-1_h9_9_14" points="362,90 363,90 368,85 363,80 362,80 362,90 " class="clusterblast-orf"  />
<polygon style="stroke:black; stroke-width:1; fill:#FFFFFF; " description="xylanase[br]Location: 4721768 - 4721935" locus_tag="XOC_4580" id="clusterblast-1_h9_9_15" points="368,90 369,85 368,80 368,90 " class="clusterblast-orf"  />
<polygon style="stroke:black; stroke-width:1; fill:#FFFFFF; " description="glycosyl_transferase_family_protein[br]Location: 4721922 - 4722692" locus_tag="XOC_4581" id="clusterblast-1_h9_9_16" points="369,90 372,85 369,80 369,90 " class="clusterblast-orf"  />
<polygon style="stroke:black; stroke-width:1; fill:#FFFFFF; " description="glycosyl_transferase_family_protein[br]Location: 4723128 - 4724075" locus_tag="XOC_4582" id="clusterblast-1_h9_9_17" points="374,90 378,85 374,80 374,90 " class="clusterblast-orf"  />
<polygon style="stroke:black; stroke-width:1; fill:#FFFFFF; " description="glucuronate_isomerase[br]Location: 4724128 - 4725534" locus_tag="XOC_4583" id="clusterblast-1_h9_9_18" points="379,90 380,90 385,85 380,80 379,80 379,90 " class="clusterblast-orf"  />
<polygon style="stroke:black; stroke-width:1; fill:#FFFFFF; " description="hypothetical_protein[br]Location: 4725761 - 4726819" locus_tag="XOC_4584" id="clusterblast-1_h9_9_19" points="386,90 386,90 391,85 386,80 386,80 386,90 " class="clusterblast-orf"  />
<polygon style="stroke:black; stroke-width:1; fill:#FFFFFF; " description="transposase[br]Location: 4727190 - 4727366" locus_tag="XOC_4585" id="clusterblast-1_h9_9_20" points="392,85 393,80 393,90 392,85 " class="clusterblast-orf"  />
<polygon style="stroke:black; stroke-width:1; fill:#FFFFFF; " description="hypothetical_protein[br]Location: 4727388 - 4727801" locus_tag="XOC_4586" id="clusterblast-1_h9_9_21" points="393,90 395,85 393,80 393,90 " class="clusterblast-orf"  />
<polygon style="stroke:black; stroke-width:1; fill:#FFFFFF; " description="hypothetical_protein[br]Location: 4727785 - 4728201" locus_tag="XOC_4587" id="clusterblast-1_h9_9_22" points="395,90 397,85 395,80 395,90 " class="clusterblast-orf"  />
<polygon style="stroke:black; stroke-width:1; fill:#FFFFFF; " description="dipeptidyl_anminopeptidase[br]Location: 4728401 - 4730485" locus_tag="XOC_4588" id="clusterblast-1_h9_9_23" points="398,85 403,80 407,80 407,90 403,90 398,85 " class="clusterblast-orf"  />
<polygon style="stroke:black; stroke-width:1; fill:red; " description="biotin_carboxylase[br]Location: 4730585 - 4732612&lt;br&gt;&lt;br&gt;&lt;b&gt;BlastP hit with CHAFR746836_0071420.1&lt;/b&gt;&lt;br&gt;Percentage identity: 40%&lt;br&gt;Percentage coverage: 95%&lt;br&gt;BLAST bit score: 454&lt;br&gt;E-value: 4e-148" locus_tag="XOC_4589" id="clusterblast-1_h9_9_24" points="408,85 413,80 417,80 417,90 413,90 408,85 " class="clusterblast-orf"  />
<polygon style="stroke:black; stroke-width:1; fill:blue; " description="acyl-CoA_carboxyltransferase_subunit_beta[br]Location: 4732855 - 4734465&lt;br&gt;&lt;br&gt;&lt;b&gt;BlastP hit with CHAFR746836_0071470.1&lt;/b&gt;&lt;br&gt;Percentage identity: 58%&lt;br&gt;Percentage coverage: 95%&lt;br&gt;BLAST bit score: 636&lt;br&gt;E-value: 0.0" locus_tag="XOC_4590" id="clusterblast-1_h9_9_25" points="418,85 423,80 425,80 425,90 423,90 418,85 " class="clusterblast-orf"  />
<polygon style="stroke:black; stroke-width:1; fill:green; " description="acyl-CoA_dehydrogenase[br]Location: 4734476 - 4735639&lt;br&gt;&lt;br&gt;&lt;b&gt;BlastP hit with CHAFR746836_0071460.1&lt;/b&gt;&lt;br&gt;Percentage identity: 61%&lt;br&gt;Percentage coverage: 87%&lt;br&gt;BLAST bit score: 467&lt;br&gt;E-value: 2e-161" locus_tag="XOC_4591" id="clusterblast-1_h9_9_26" points="425,85 430,80 430,80 430,90 430,90 425,85 " class="clusterblast-orf"  />
<polygon style="stroke:black; stroke-width:1; fill:#FFFFFF; " description="TetR_family_transcriptional_regulator[br]Location: 4735768 - 4736388" locus_tag="XOC_4592" id="clusterblast-1_h9_9_27" points="431,90 434,85 431,80 431,90 " class="clusterblast-orf"  />
<polygon style="stroke:black; stroke-width:1; fill:#FFFFFF; " description="hypothetical_protein[br]Location: 4736440 - 4736628" locus_tag="XOC_4593" id="clusterblast-1_h9_9_28" points="434,90 435,85 434,80 434,90 " class="clusterblast-orf"  />
<polygon style="stroke:black; stroke-width:1; fill:#FFFFFF; " description="hypothetical_protein[br]Location: 4736667 - 4736840" locus_tag="XOC_4594" id="clusterblast-1_h9_9_29" points="435,85 436,80 436,90 435,85 " class="clusterblast-orf"  />
<polygon style="stroke:black; stroke-width:1; fill:#FFFFFF; " description="PepSY-associated_membrane_protein[br]Location: 4736950 - 4737645" locus_tag="XOC_4595" id="clusterblast-1_h9_9_30" points="436,85 439,80 439,90 436,85 " class="clusterblast-orf"  />
<polygon style="stroke:black; stroke-width:1; fill:#FFFFFF; " description="hypothetical_protein[br]Location: 4737991 - 4738179" locus_tag="XOC_4596" id="clusterblast-1_h9_9_31" points="441,85 442,80 442,90 441,85 " class="clusterblast-orf"  />
<polygon style="stroke:black; stroke-width:1; fill:#FFFFFF; " description="hypothetical_protein[br]Location: 4738196 - 4738309" locus_tag="XOC_4598" id="clusterblast-1_h9_9_32" points="442,90 442,85 442,80 442,90 " class="clusterblast-orf"  />
<polygon style="stroke:black; stroke-width:1; fill:#FFFFFF; " description="hypothetical_protein[br]Location: 4738306 - 4738734" locus_tag="XOC_4597" id="clusterblast-1_h9_9_33" points="442,85 444,80 444,90 442,85 " class="clusterblast-orf"  />
<polygon style="stroke:black; stroke-width:1; fill:#FFFFFF; " description="cytochromeC5[br]Location: 4739052 - 4739531" locus_tag="XOC_4599" id="clusterblast-1_h9_9_34" points="446,90 448,85 446,80 446,90 " class="clusterblast-orf"  />
<polygon style="stroke:black; stroke-width:1; fill:#FFFFFF; " description="nuclease[br]Location: 4739803 - 4741521" locus_tag="XOC_4600" id="clusterblast-1_h9_9_35" points="449,90 452,90 457,85 452,80 449,80 449,90 " class="clusterblast-orf"  />
<polygon style="stroke:black; stroke-width:1; fill:#FFFFFF; " description="hypothetical_protein[br]Location: 4741612 - 4741998" locus_tag="XOC_4601" id="clusterblast-1_h9_9_36" points="457,85 459,80 459,90 457,85 " class="clusterblast-orf"  />
<polygon style="stroke:black; stroke-width:1; fill:#FFFFFF; " description="nitrile_hydratase_activator[br]Location: 4742060 - 4743385" locus_tag="XOC_4602" id="clusterblast-1_h9_9_37" points="459,90 460,90 465,85 460,80 459,80 459,90 " class="clusterblast-orf"  />
<polygon style="stroke:black; stroke-width:1; fill:#FFFFFF; " description="type_III_effector_protein_XopR[br]Location: 4743500 - 4744813" locus_tag="XOC_4603" id="clusterblast-1_h9_9_38" points="465,85 470,80 471,80 471,90 470,90 465,85 " class="clusterblast-orf"  />
<polygon style="stroke:black; stroke-width:1; fill:#FFFFFF; " description="integral_membrane_protein[br]Location: 4744912 - 4746045" locus_tag="XOC_4604" id="clusterblast-1_h9_9_39" points="472,85 477,80 477,80 477,90 477,90 472,85 " class="clusterblast-orf"  />
<polygon style="stroke:black; stroke-width:1; fill:#FFFFFF; " description="hypothetical_protein[br]Location: 4746112 - 4746774" locus_tag="XOC_4605" id="clusterblast-1_h9_9_40" points="477,90 480,85 477,80 477,90 " class="clusterblast-orf"  />
<polygon style="stroke:black; stroke-width:1; fill:#FFFFFF; " description="ATPase[br]Location: 4746814 - 4747947" locus_tag="XOC_4606" id="clusterblast-1_h9_9_41" points="480,90 480,90 485,85 480,80 480,80 480,90 " class="clusterblast-orf"  />
</g>
</svg>
