<svg xmlns="http://www.w3.org/2000/svg" height="230" width="800" version="1.1" y="0" x="0" preserveAspectRatio="none" xmlns:xlink="http://www.w3.org/1999/xlink" viewBox="0 0 800 230"  >
<g class="clusterblast-cluster" label="Query sequence"  >
<text class="clusterblast-acc" y="10" x="5"  >
Query sequence</text>
<line y1="35" x2="778.0" style="stroke:grey; stroke-width:1; " x1="10" y2="35"  />
<polygon style="stroke:black; stroke-width:1; fill:#FFFFFF; " description="unannotated orf[br]Location: 4785 - 7296" locus_tag="CHAFR746836_0016870.1" class="clusterblast-orf" points="268,35 273,30 285,30 285,40 273,40 268,35 " id="clusterblast-1_q37_6_0"  />
<polygon style="stroke:black; stroke-width:1; fill:rgb(190,63,63); " description="unannotated orf[br]Location: 11527 - 13401" locus_tag="CHAFR746836_0016880.1" class="clusterblast-orf" points="313,35 318,30 326,30 326,40 318,40 313,35 " id="clusterblast-1_q37_6_1"  />
<polygon style="stroke:black; stroke-width:1; fill:rgb(63,63,190); " description="unannotated orf[br]Location: 16270 - 24285" locus_tag="CHAFR746836_0016890.1" class="clusterblast-orf" points="345,40 395,40 400,35 395,30 345,30 345,40 " id="clusterblast-1_q37_6_2"  />
<polygon style="stroke:black; stroke-width:1; fill:#FFFFFF; " description="unannotated orf[br]Location: 25847 - 26609" locus_tag="CHAFR746836_0016900.1" class="clusterblast-orf" points="410,35 415,30 415,30 415,40 415,40 410,35 " id="clusterblast-1_q37_6_3"  />
<polygon style="stroke:black; stroke-width:1; fill:rgb(63,190,63); " description="unannotated orf[br]Location: 27271 - 28737" locus_tag="CHAFR746836_0016910.1" class="clusterblast-orf" points="420,40 425,40 430,35 425,30 420,30 420,40 " id="clusterblast-1_q37_6_4"  />
<polygon style="stroke:black; stroke-width:1; fill:#FFFFFF; " description="unannotated orf[br]Location: 31240 - 32999" locus_tag="CHAFR746836_0016920.1" class="clusterblast-orf" points="447,40 454,40 459,35 454,30 447,30 447,40 " id="clusterblast-1_q37_6_5"  />
<polygon style="stroke:black; stroke-width:1; fill:#FFFFFF; " description="unannotated orf[br]Location: 33897 - 34787" locus_tag="CHAFR746836_0016930.1" class="clusterblast-orf" points="465,35 470,30 471,30 471,40 470,40 465,35 " id="clusterblast-1_q37_6_6"  />
<polygon style="stroke:black; stroke-width:1; fill:rgb(190,63,190); " description="unannotated orf[br]Location: 37376 - 38107" locus_tag="CHAFR746836_0016940.1" class="clusterblast-orf" points="488,35 493,30 493,30 493,40 493,40 488,35 " id="clusterblast-1_q37_6_7"  />
<polygon style="stroke:black; stroke-width:1; fill:rgb(190,190,63); " description="unannotated orf[br]Location: 39886 - 41791" locus_tag="CHAFR746836_0016950.1" class="clusterblast-orf" points="505,35 510,30 518,30 518,40 510,40 505,35 " id="clusterblast-1_q37_6_8"  />
</g>
<g class="clusterblast-cluster" description="Trichoderma virens Gv29-8 TRIVIscaffold 6, whole genome ..." label="ABDF02000006.1_c3"  >
<text class="clusterblast-acc" y="60" x="5"  >
ABDF02000006.1_c3</text>
<text class="clusterblast-desc" y="60" x="460.8"  >
Trichoderma virens Gv29-8 TRIVIscaffold 6, whole genome ...</text>
<line y1="85" x2="778.0" style="stroke:grey; stroke-width:1; " x1="10" y2="85"  />
<polygon style="stroke:black; stroke-width:1; fill:#FFFFFF; " description="hypothetical_protein[br]Location: 3039146 - 3040304" locus_tag="TRIVIDRAFT_28826" id="clusterblast-1_h37_6_0" points="10,90 12,90 17,85 12,80 10,80 10,90 " class="clusterblast-orf"  />
<polygon style="stroke:black; stroke-width:1; fill:#FFFFFF; " description="hypothetical_protein[br]Location: 3037498 - 3038835" locus_tag="TRIVIDRAFT_29230" id="clusterblast-1_h37_6_1" points="19,85 24,80 29,80 29,90 24,90 19,85 " class="clusterblast-orf"  />
<polygon style="stroke:black; stroke-width:1; fill:#FFFFFF; " description="hypothetical_protein[br]Location: 3035843 - 3036837" locus_tag="TRIVIDRAFT_209304" id="clusterblast-1_h37_6_2" points="33,90 35,90 40,85 35,80 33,80 33,90 " class="clusterblast-orf"  />
<polygon style="stroke:black; stroke-width:1; fill:#FFFFFF; " description="hypothetical_protein[br]Location: 3034647 - 3034955" locus_tag="TRIVIDRAFT_28184" id="clusterblast-1_h37_6_3" points="46,85 48,80 48,90 46,85 " class="clusterblast-orf"  />
<polygon style="stroke:black; stroke-width:1; fill:#FFFFFF; " description="hypothetical_protein[br]Location: 3032060 - 3032848" locus_tag="TRIVIDRAFT_29068" id="clusterblast-1_h37_6_4" points="60,85 65,80 65,80 65,90 65,90 60,85 " class="clusterblast-orf"  />
<polygon style="stroke:black; stroke-width:1; fill:#FFFFFF; " description="hypothetical_protein[br]Location: 3028992 - 3031155" locus_tag="TRIVIDRAFT_28132" id="clusterblast-1_h37_6_5" points="71,85 76,80 86,80 86,90 76,90 71,85 " class="clusterblast-orf"  />
<polygon style="stroke:black; stroke-width:1; fill:#FFFFFF; " description="hypothetical_protein[br]Location: 3026224 - 3027276" locus_tag="TRIVIDRAFT_60159" id="clusterblast-1_h37_6_6" points="98,85 103,80 105,80 105,90 103,90 98,85 " class="clusterblast-orf"  />
<polygon style="stroke:black; stroke-width:1; fill:#FFFFFF; " description="hypothetical_protein[br]Location: 3024226 - 3025360" locus_tag="TRIVIDRAFT_149423" id="clusterblast-1_h37_6_7" points="111,85 116,80 118,80 118,90 116,90 111,85 " class="clusterblast-orf"  />
<polygon style="stroke:black; stroke-width:1; fill:#FFFFFF; " description="hypothetical_protein[br]Location: 3022332 - 3023453" locus_tag="TRIVIDRAFT_60161" id="clusterblast-1_h37_6_8" points="124,90 126,90 131,85 126,80 124,80 124,90 " class="clusterblast-orf"  />
<polygon style="stroke:black; stroke-width:1; fill:#FFFFFF; " description="hypothetical_protein[br]Location: 3021136 - 3021459" locus_tag="TRIVIDRAFT_29262" id="clusterblast-1_h37_6_9" points="137,85 139,80 139,90 137,85 " class="clusterblast-orf"  />
<polygon style="stroke:black; stroke-width:1; fill:rgb(63,63,190); " description="putative_PKS-NRPS_protein[br]Location: 3007775 - 3020453&lt;br&gt;&lt;br&gt;&lt;b&gt;BlastP hit with CHAFR746836_0016890.1&lt;/b&gt;&lt;br&gt;Percentage identity: 31%&lt;br&gt;Percentage coverage: 55%&lt;br&gt;BLAST bit score: 613&lt;br&gt;E-value: 3e-177" locus_tag="TRIVIDRAFT_191605" id="clusterblast-1_h37_6_10" points="144,90 225,90 230,85 225,80 144,80 144,90 " class="clusterblast-orf"  />
<polygon style="stroke:black; stroke-width:1; fill:#FFFFFF; " description="hypothetical_protein[br]Location: 3006439 - 3007737" locus_tag="TRIVIDRAFT_201282" id="clusterblast-1_h37_6_11" points="230,85 235,80 239,80 239,90 235,90 230,85 " class="clusterblast-orf"  />
<polygon style="stroke:black; stroke-width:1; fill:#FFFFFF; " description="hypothetical_protein[br]Location: 3004139 - 3005743" locus_tag="TRIVIDRAFT_230726" id="clusterblast-1_h37_6_12" points="244,90 249,90 254,85 249,80 244,80 244,90 " class="clusterblast-orf"  />
<polygon style="stroke:black; stroke-width:1; fill:rgb(190,190,63); " description="hypothetical_protein[br]Location: 3001842 - 3003639&lt;br&gt;&lt;br&gt;&lt;b&gt;BlastP hit with CHAFR746836_0016950.1&lt;/b&gt;&lt;br&gt;Percentage identity: 40%&lt;br&gt;Percentage coverage: 95%&lt;br&gt;BLAST bit score: 390&lt;br&gt;E-value: 3e-127" locus_tag="TRIVIDRAFT_28823" id="clusterblast-1_h37_6_13" points="258,85 263,80 270,80 270,90 263,90 258,85 " class="clusterblast-orf"  />
<polygon style="stroke:black; stroke-width:1; fill:#FFFFFF; " description="hypothetical_protein[br]Location: 2998532 - 3000465" locus_tag="TRIVIDRAFT_28724" id="clusterblast-1_h37_6_14" points="279,90 287,90 292,85 287,80 279,80 279,90 " class="clusterblast-orf"  />
<polygon style="stroke:black; stroke-width:1; fill:#FFFFFF; " description="hypothetical_protein[br]Location: 2996154 - 2997169" locus_tag="TRIVIDRAFT_60168" id="clusterblast-1_h37_6_15" points="302,90 304,90 309,85 304,80 302,80 302,90 " class="clusterblast-orf"  />
<polygon style="stroke:black; stroke-width:1; fill:#FFFFFF; " description="hypothetical_protein[br]Location: 2994448 - 2995716" locus_tag="TRIVIDRAFT_191602" id="clusterblast-1_h37_6_16" points="312,85 317,80 320,80 320,90 317,90 312,85 " class="clusterblast-orf"  />
<polygon style="stroke:black; stroke-width:1; fill:#FFFFFF; " description="hypothetical_protein[br]Location: 2990843 - 2992046" locus_tag="TRIVIDRAFT_28177" id="clusterblast-1_h37_6_17" points="336,90 340,90 345,85 340,80 336,80 336,90 " class="clusterblast-orf"  />
<polygon style="stroke:black; stroke-width:1; fill:#FFFFFF; " description="hypothetical_protein[br]Location: 2987924 - 2988892" locus_tag="TRIVIDRAFT_28484" id="clusterblast-1_h37_6_18" points="358,85 363,80 364,80 364,90 363,90 358,85 " class="clusterblast-orf"  />
<polygon style="stroke:black; stroke-width:1; fill:#FFFFFF; " description="hypothetical_protein[br]Location: 2985129 - 2986998" locus_tag="TRIVIDRAFT_60172" id="clusterblast-1_h37_6_19" points="371,90 378,90 383,85 378,80 371,80 371,90 " class="clusterblast-orf"  />
<polygon style="stroke:black; stroke-width:1; fill:#FFFFFF; " description="hypothetical_protein[br]Location: 2983409 - 2984659" locus_tag="TRIVIDRAFT_53837" id="clusterblast-1_h37_6_20" points="386,85 391,80 395,80 395,90 391,90 386,85 " class="clusterblast-orf"  />
<polygon style="stroke:black; stroke-width:1; fill:rgb(63,63,190); " description="putative_PKS-NRPS_protein[br]Location: 2971004 - 2982836&lt;br&gt;&lt;br&gt;&lt;b&gt;BlastP hit with CHAFR746836_0016890.1&lt;/b&gt;&lt;br&gt;Percentage identity: 33%&lt;br&gt;Percentage coverage: 55%&lt;br&gt;BLAST bit score: 653&lt;br&gt;E-value: 0.0" locus_tag="TRIVIDRAFT_28610" id="clusterblast-1_h37_6_21" points="399,85 404,80 479,80 479,90 404,90 399,85 " class="clusterblast-orf"  />
<polygon style="stroke:black; stroke-width:1; fill:#FFFFFF; " description="hypothetical_protein[br]Location: 2968309 - 2970608" locus_tag="TRIVIDRAFT_53838" id="clusterblast-1_h37_6_22" points="482,90 492,90 497,85 492,80 482,80 482,90 " class="clusterblast-orf"  />
<polygon style="stroke:black; stroke-width:1; fill:#FFFFFF; " description="hypothetical_protein[br]Location: 2966522 - 2967746" locus_tag="TRIVIDRAFT_29580" id="clusterblast-1_h37_6_23" points="501,90 504,90 509,85 504,80 501,80 501,90 " class="clusterblast-orf"  />
<polygon style="stroke:black; stroke-width:1; fill:#FFFFFF; " description="hypothetical_protein[br]Location: 2963804 - 2965501" locus_tag="TRIVIDRAFT_191595" id="clusterblast-1_h37_6_24" points="516,85 521,80 528,80 528,90 521,90 516,85 " class="clusterblast-orf"  />
<polygon style="stroke:black; stroke-width:1; fill:#FFFFFF; " description="hypothetical_protein[br]Location: 2961143 - 2962970" locus_tag="TRIVIDRAFT_180162" id="clusterblast-1_h37_6_25" points="533,90 541,90 546,85 541,80 533,80 533,90 " class="clusterblast-orf"  />
<polygon style="stroke:black; stroke-width:1; fill:#FFFFFF; " description="hypothetical_protein[br]Location: 2958935 - 2960932" locus_tag="TRIVIDRAFT_60180" id="clusterblast-1_h37_6_26" points="547,90 556,90 561,85 556,80 547,80 547,90 " class="clusterblast-orf"  />
<polygon style="stroke:black; stroke-width:1; fill:#FFFFFF; " description="hypothetical_protein[br]Location: 2955018 - 2958290" locus_tag="TRIVIDRAFT_60181" id="clusterblast-1_h37_6_27" points="565,90 582,90 587,85 582,80 565,80 565,90 " class="clusterblast-orf"  />
<polygon style="stroke:black; stroke-width:1; fill:#FFFFFF; " description="putative_polyketide_synthase[br]Location: 2947633 - 2954310" locus_tag="TRIVIDRAFT_222260" id="clusterblast-1_h37_6_28" points="592,85 597,80 637,80 637,90 597,90 592,85 " class="clusterblast-orf"  />
<polygon style="stroke:black; stroke-width:1; fill:#FFFFFF; " description="hypothetical_protein[br]Location: 2943939 - 2945402" locus_tag="TRIVIDRAFT_201263" id="clusterblast-1_h37_6_29" points="652,90 657,90 662,85 657,80 652,80 652,90 " class="clusterblast-orf"  />
<polygon style="stroke:black; stroke-width:1; fill:#FFFFFF; " description="hypothetical_protein[br]Location: 2942513 - 2943802" locus_tag="TRIVIDRAFT_53844" id="clusterblast-1_h37_6_30" points="663,85 668,80 672,80 672,90 668,90 663,85 " class="clusterblast-orf"  />
<polygon style="stroke:black; stroke-width:1; fill:#FFFFFF; " description="hypothetical_protein[br]Location: 2939827 - 2941069" locus_tag="TRIVIDRAFT_230724" id="clusterblast-1_h37_6_31" points="682,90 685,90 690,85 685,80 682,80 682,90 " class="clusterblast-orf"  />
<polygon style="stroke:black; stroke-width:1; fill:#FFFFFF; " description="hypothetical_protein[br]Location: 2933885 - 2934826" locus_tag="TRIVIDRAFT_216126" id="clusterblast-1_h37_6_32" points="724,85 729,80 730,80 730,90 729,90 724,85 " class="clusterblast-orf"  />
<polygon style="stroke:black; stroke-width:1; fill:#FFFFFF; " description="hypothetical_protein[br]Location: 2929805 - 2930775" locus_tag="TRIVIDRAFT_60187" id="clusterblast-1_h37_6_33" points="751,85 756,80 758,80 758,90 756,90 751,85 " class="clusterblast-orf"  />
<polygon style="stroke:black; stroke-width:1; fill:#FFFFFF; " description="hypothetical_protein[br]Location: 2926922 - 2928616" locus_tag="TRIVIDRAFT_222254" id="clusterblast-1_h37_6_34" points="766,85 771,80 778,80 778,90 771,90 766,85 " class="clusterblast-orf"  />
</g>
</svg>
