<svg xmlns="http://www.w3.org/2000/svg" height="230" width="800" version="1.1" y="0" x="0" preserveAspectRatio="none" xmlns:xlink="http://www.w3.org/1999/xlink" viewBox="0 0 800 230"  >
<g class="clusterblast-cluster" label="Query sequence"  >
<text class="clusterblast-acc" y="10" x="5"  >
Query sequence</text>
<line y1="35" x2="778.0" style="stroke:grey; stroke-width:1; " x1="10" y2="35"  />
<polygon style="stroke:black; stroke-width:1; fill:#FFFFFF; " description="unannotated orf[br]Location: 6136 - 7367" locus_tag="CHAFR746836_0085100.1" class="clusterblast-orf" points="45,35 50,30 55,30 55,40 50,40 45,35 " id="clusterblast-1_q17_7_0"  />
<polygon style="stroke:black; stroke-width:1; fill:rgb(190,63,63); " description="unannotated orf[br]Location: 11222 - 12640" locus_tag="CHAFR746836_0085110.1" class="clusterblast-orf" points="90,35 95,30 102,30 102,40 95,40 90,35 " id="clusterblast-1_q17_7_1"  />
<polygon style="stroke:black; stroke-width:1; fill:#FFFFFF; " description="unannotated orf[br]Location: 13318 - 14845" locus_tag="CHAFR746836_0085120.1" class="clusterblast-orf" points="108,40 117,40 122,35 117,30 108,30 108,40 " id="clusterblast-1_q17_7_2"  />
<polygon style="stroke:black; stroke-width:1; fill:rgb(63,63,190); " description="unannotated orf[br]Location: 45129 - 47273" locus_tag="CHAFR746836_0085130.1" class="clusterblast-orf" points="391,35 396,30 410,30 410,40 396,40 391,35 " id="clusterblast-1_q17_7_3"  />
<polygon style="stroke:black; stroke-width:1; fill:#FFFFFF; " description="unannotated orf[br]Location: 49048 - 50295" locus_tag="CHAFR746836_0085140.1" class="clusterblast-orf" points="426,40 432,40 437,35 432,30 426,30 426,40 " id="clusterblast-1_q17_7_4"  />
<polygon style="stroke:black; stroke-width:1; fill:#FFFFFF; " description="unannotated orf[br]Location: 50632 - 52244" locus_tag="CHAFR746836_0085150.1" class="clusterblast-orf" points="440,35 445,30 454,30 454,40 445,40 440,35 " id="clusterblast-1_q17_7_5"  />
<polygon style="stroke:black; stroke-width:1; fill:rgb(63,190,63); " description="unannotated orf[br]Location: 54334 - 65855" locus_tag="CHAFR746836_0085160.1" class="clusterblast-orf" points="473,40 570,40 575,35 570,30 473,30 473,40 " id="clusterblast-1_q17_7_6"  />
<polygon style="stroke:black; stroke-width:1; fill:rgb(190,63,190); " description="unannotated orf[br]Location: 67816 - 68591" locus_tag="CHAFR746836_0085170.1" class="clusterblast-orf" points="593,35 598,30 600,30 600,40 598,40 593,35 " id="clusterblast-1_q17_7_7"  />
<polygon style="stroke:black; stroke-width:1; fill:rgb(190,190,63); " description="unannotated orf[br]Location: 74280 - 75627" locus_tag="CHAFR746836_0085180.1" class="clusterblast-orf" points="650,40 657,40 662,35 657,30 650,30 650,40 " id="clusterblast-1_q17_7_8"  />
<polygon style="stroke:black; stroke-width:1; fill:#FFFFFF; " description="unannotated orf[br]Location: 77113 - 77652" locus_tag="CHAFR746836_0085190.1" class="clusterblast-orf" points="675,35 680,30 680,30 680,40 680,40 675,35 " id="clusterblast-1_q17_7_9"  />
<polygon style="stroke:black; stroke-width:1; fill:rgb(190,190,190); " description="unannotated orf[br]Location: 78175 - 79191" locus_tag="CHAFR746836_0085200.1" class="clusterblast-orf" points="685,40 689,40 694,35 689,30 685,30 685,40 " id="clusterblast-1_q17_7_10"  />
<polygon style="stroke:black; stroke-width:1; fill:#FFFFFF; " description="unannotated orf[br]Location: 83575 - 84480" locus_tag="CHAFR746836_0085210.1" class="clusterblast-orf" points="733,40 736,40 741,35 736,30 733,30 733,40 " id="clusterblast-1_q17_7_11"  />
</g>
<g class="clusterblast-cluster" description="Paenibacillus elgii B69 Contig10, whole genome shotgu..." label="NZ_AFHW01000010.1_c1"  >
<text class="clusterblast-acc" y="60" x="5"  >
NZ_AFHW01000010.1_c1</text>
<text class="clusterblast-desc" y="60" x="460.8"  >
Paenibacillus elgii B69 Contig10, whole genome shotgu...</text>
<line y1="85" x2="778.0" style="stroke:grey; stroke-width:1; " x1="10" y2="85"  />
<polygon style="stroke:black; stroke-width:1; fill:#FFFFFF; " description="EmrB/QacA_subfamily_drug_resistance_transporter[br]Location: 113956 - 115350" locus_tag="PelgB_010100004605" id="clusterblast-1_h17_7_0" points="10,90 17,90 22,85 17,80 10,80 10,90 " class="clusterblast-orf"  />
<polygon style="stroke:black; stroke-width:1; fill:#FFFFFF; " description="hypothetical_protein[br]Location: 113033 - 113923" locus_tag="PelgB_010100004600" id="clusterblast-1_h17_7_1" points="22,90 25,90 30,85 25,80 22,80 22,90 " class="clusterblast-orf"  />
<polygon style="stroke:black; stroke-width:1; fill:#FFFFFF; " description="family_1_extracellular_solute-binding_protein[br]Location: 110859 - 112247" locus_tag="PelgB_010100004595" id="clusterblast-1_h17_7_2" points="37,90 44,90 49,85 44,80 37,80 37,90 " class="clusterblast-orf"  />
<polygon style="stroke:black; stroke-width:1; fill:#FFFFFF; " description="sensor_with_HAMP_domain[br]Location: 108956 - 110839" locus_tag="PelgB_010100004590" id="clusterblast-1_h17_7_3" points="50,90 61,90 66,85 61,80 50,80 50,90 " class="clusterblast-orf"  />
<polygon style="stroke:black; stroke-width:1; fill:#FFFFFF; " description="AraC_family_transcriptional_regulator[br]Location: 107337 - 108944" locus_tag="PelgB_010100004585" id="clusterblast-1_h17_7_4" points="66,90 76,90 81,85 76,80 66,80 66,90 " class="clusterblast-orf"  />
<polygon style="stroke:black; stroke-width:1; fill:#FFFFFF; " description="family_1_extracellular_solute-binding_protein[br]Location: 105826 - 107169" locus_tag="PelgB_010100004580" id="clusterblast-1_h17_7_5" points="82,90 89,90 94,85 89,80 82,80 82,90 " class="clusterblast-orf"  />
<polygon style="stroke:black; stroke-width:1; fill:#FFFFFF; " description="binding-protein-dependent_transporter_inner[br]Location: 104888 - 105808" locus_tag="PelgB_010100004575" id="clusterblast-1_h17_7_6" points="94,90 97,90 102,85 97,80 94,80 94,90 " class="clusterblast-orf"  />
<polygon style="stroke:black; stroke-width:1; fill:#FFFFFF; " description="hypothetical_protein[br]Location: 104073 - 104888" locus_tag="PelgB_010100004570" id="clusterblast-1_h17_7_7" points="102,90 105,90 110,85 105,80 102,80 102,90 " class="clusterblast-orf"  />
<polygon style="stroke:black; stroke-width:1; fill:#FFFFFF; " description="hypothetical_protein[br]Location: 102299 - 103942" locus_tag="PelgB_010100004565" id="clusterblast-1_h17_7_8" points="111,90 120,90 125,85 120,80 111,80 111,90 " class="clusterblast-orf"  />
<polygon style="stroke:black; stroke-width:1; fill:#FFFFFF; " description="glycoside_hydrolase_family_protein[br]Location: 100429 - 102207" locus_tag="PelgB_010100004560" id="clusterblast-1_h17_7_9" points="126,90 137,90 142,85 137,80 126,80 126,90 " class="clusterblast-orf"  />
<polygon style="stroke:black; stroke-width:1; fill:#FFFFFF; " description="transcription_antitermination_protein[br]Location: 99571 - 100146" locus_tag="PelgB_010100004555" id="clusterblast-1_h17_7_10" points="145,90 145,90 150,85 145,80 145,80 145,90 " class="clusterblast-orf"  />
<polygon style="stroke:black; stroke-width:1; fill:#FFFFFF; " description="hypothetical_protein[br]Location: 96166 - 99432" locus_tag="PelgB_010100004550" id="clusterblast-1_h17_7_11" points="151,90 175,90 180,85 175,80 151,80 151,90 " class="clusterblast-orf"  />
<polygon style="stroke:black; stroke-width:1; fill:#FFFFFF; " description="hypothetical_protein[br]Location: 94899 - 96140" locus_tag="PelgB_010100004545" id="clusterblast-1_h17_7_12" points="180,90 186,90 191,85 186,80 180,80 180,90 " class="clusterblast-orf"  />
<polygon style="stroke:black; stroke-width:1; fill:rgb(63,190,63); " description="polyketide_synthase[br]Location: 89685 - 94859&lt;br&gt;&lt;br&gt;&lt;b&gt;BlastP hit with CHAFR746836_0085160.1&lt;/b&gt;&lt;br&gt;Percentage identity: 37%&lt;br&gt;Percentage coverage: 12%&lt;br&gt;BLAST bit score: 293&lt;br&gt;E-value: 4e-78&lt;br&gt;&lt;br&gt;&lt;b&gt;BlastP hit with CHAFR746836_0085180.1&lt;/b&gt;&lt;br&gt;Percentage identity: 42%&lt;br&gt;Percentage coverage: 47%&lt;br&gt;BLAST bit score: 130&lt;br&gt;E-value: 2e-31" locus_tag="PelgB_010100004540" id="clusterblast-1_h17_7_13" points="192,90 233,90 238,85 233,80 192,80 192,90 " class="clusterblast-orf"  />
<polygon style="stroke:black; stroke-width:1; fill:rgb(63,190,63); " description="polyketide_synthase[br]Location: 83824 - 89625&lt;br&gt;&lt;br&gt;&lt;b&gt;BlastP hit with CHAFR746836_0085160.1&lt;/b&gt;&lt;br&gt;Percentage identity: 34%&lt;br&gt;Percentage coverage: 14%&lt;br&gt;BLAST bit score: 270&lt;br&gt;E-value: 6e-71" locus_tag="PelgB_010100004535" id="clusterblast-1_h17_7_14" points="238,90 285,90 290,85 285,80 238,80 238,90 " class="clusterblast-orf"  />
<polygon style="stroke:black; stroke-width:1; fill:rgb(63,190,63); " description="polyketide_synthase[br]Location: 66237 - 83783&lt;br&gt;&lt;br&gt;&lt;b&gt;BlastP hit with CHAFR746836_0085160.1&lt;/b&gt;&lt;br&gt;Percentage identity: 37%&lt;br&gt;Percentage coverage: 13%&lt;br&gt;BLAST bit score: 312&lt;br&gt;E-value: 2e-83&lt;br&gt;&lt;br&gt;&lt;b&gt;BlastP hit with CHAFR746836_0085180.1&lt;/b&gt;&lt;br&gt;Percentage identity: 31%&lt;br&gt;Percentage coverage: 109%&lt;br&gt;BLAST bit score: 169&lt;br&gt;E-value: 2e-44" locus_tag="PelgB_010100004530" id="clusterblast-1_h17_7_15" points="290,90 441,90 446,85 441,80 290,80 290,90 " class="clusterblast-orf"  />
<polygon style="stroke:black; stroke-width:1; fill:rgb(63,190,63); " description="polyketide_synthase_of_type_I[br]Location: 55547 - 66223&lt;br&gt;&lt;br&gt;&lt;b&gt;BlastP hit with CHAFR746836_0085160.1&lt;/b&gt;&lt;br&gt;Percentage identity: 35%&lt;br&gt;Percentage coverage: 14%&lt;br&gt;BLAST bit score: 294&lt;br&gt;E-value: 7e-78&lt;br&gt;&lt;br&gt;&lt;b&gt;BlastP hit with CHAFR746836_0085180.1&lt;/b&gt;&lt;br&gt;Percentage identity: 42%&lt;br&gt;Percentage coverage: 46%&lt;br&gt;BLAST bit score: 123&lt;br&gt;E-value: 5e-29" locus_tag="PelgB_010100004525" id="clusterblast-1_h17_7_16" points="446,90 536,90 541,85 536,80 446,80 446,90 " class="clusterblast-orf"  />
<polygon style="stroke:black; stroke-width:1; fill:rgb(63,190,63); " description="DfnH[br]Location: 48321 - 55526&lt;br&gt;&lt;br&gt;&lt;b&gt;BlastP hit with CHAFR746836_0085160.1&lt;/b&gt;&lt;br&gt;Percentage identity: 35%&lt;br&gt;Percentage coverage: 14%&lt;br&gt;BLAST bit score: 299&lt;br&gt;E-value: 1e-79" locus_tag="PelgB_010100004520" id="clusterblast-1_h17_7_17" points="541,90 600,90 605,85 600,80 541,80 541,90 " class="clusterblast-orf"  />
<polygon style="stroke:black; stroke-width:1; fill:#FFFFFF; " description="hypothetical_protein[br]Location: 47780 - 48295" locus_tag="PelgB_010100004515" id="clusterblast-1_h17_7_18" points="605,90 605,90 610,85 605,80 605,80 605,90 " class="clusterblast-orf"  />
<polygon style="stroke:black; stroke-width:1; fill:#FFFFFF; " description="YjiB[br]Location: 46534 - 47733" locus_tag="PelgB_010100004510" id="clusterblast-1_h17_7_19" points="610,90 616,90 621,85 616,80 610,80 610,90 " class="clusterblast-orf"  />
<polygon style="stroke:black; stroke-width:1; fill:#FFFFFF; " description="3-methyl-2-oxobutanoate_dehydrogenase[br]Location: 45111 - 46124" locus_tag="PelgB_010100004505" id="clusterblast-1_h17_7_20" points="625,90 629,90 634,85 629,80 625,80 625,90 " class="clusterblast-orf"  />
<polygon style="stroke:black; stroke-width:1; fill:#FFFFFF; " description="2-oxoisovalerate_dehydrogenase_beta_subunit[br]Location: 44115 - 45098" locus_tag="PelgB_010100004500" id="clusterblast-1_h17_7_21" points="634,90 638,90 643,85 638,80 634,80 634,90 " class="clusterblast-orf"  />
<polygon style="stroke:black; stroke-width:1; fill:#FFFFFF; " description="lipoamide_acyltransferase_component_of[br]Location: 42804 - 44096" locus_tag="PelgB_010100004495" id="clusterblast-1_h17_7_22" points="643,90 649,90 654,85 649,80 643,80 643,90 " class="clusterblast-orf"  />
<polygon style="stroke:black; stroke-width:1; fill:#FFFFFF; " description="acyl-CoA_dehydrogenase[br]Location: 41629 - 42768" locus_tag="PelgB_010100004490" id="clusterblast-1_h17_7_23" points="655,90 660,90 665,85 660,80 655,80 655,90 " class="clusterblast-orf"  />
<polygon style="stroke:black; stroke-width:1; fill:#FFFFFF; " description="acetyl-CoA_carboxylase_biotin_carboxylase[br]Location: 40274 - 41614" locus_tag="PelgB_010100004485" id="clusterblast-1_h17_7_24" points="665,90 672,90 677,85 672,80 665,80 665,90 " class="clusterblast-orf"  />
<polygon style="stroke:black; stroke-width:1; fill:#FFFFFF; " description="acetyl-CoA_carboxylase_biotin_carboxyl_carrier[br]Location: 40044 - 40256" locus_tag="PelgB_010100004480" id="clusterblast-1_h17_7_25" points="677,90 679,85 677,80 677,90 " class="clusterblast-orf"  />
<polygon style="stroke:black; stroke-width:1; fill:#FFFFFF; " description="hydroxymethylglutaryl-CoA_lyase[br]Location: 39112 - 40038" locus_tag="PelgB_010100004475" id="clusterblast-1_h17_7_26" points="679,90 682,90 687,85 682,80 679,80 679,90 " class="clusterblast-orf"  />
<polygon style="stroke:black; stroke-width:1; fill:rgb(190,190,190); " description="enoyl-CoA_hydratase[br]Location: 38292 - 39074&lt;br&gt;&lt;br&gt;&lt;b&gt;BlastP hit with CHAFR746836_0085200.1&lt;/b&gt;&lt;br&gt;Percentage identity: 38%&lt;br&gt;Percentage coverage: 88%&lt;br&gt;BLAST bit score: 169&lt;br&gt;E-value: 7e-49" locus_tag="PelgB_010100004470" id="clusterblast-1_h17_7_27" points="687,90 689,90 694,85 689,80 687,80 687,90 " class="clusterblast-orf"  />
<polygon style="stroke:black; stroke-width:1; fill:#FFFFFF; " description="propionyl-CoA_carboxylase[br]Location: 36719 - 38257" locus_tag="PelgB_010100004465" id="clusterblast-1_h17_7_28" points="695,90 703,90 708,85 703,80 695,80 695,90 " class="clusterblast-orf"  />
<polygon style="stroke:black; stroke-width:1; fill:#FFFFFF; " description="transcriptional_regulator[br]Location: 35679 - 36572" locus_tag="PelgB_010100004460" id="clusterblast-1_h17_7_29" points="710,90 713,90 718,85 713,80 710,80 710,90 " class="clusterblast-orf"  />
<polygon style="stroke:black; stroke-width:1; fill:#FFFFFF; " description="sulfite_oxidase[br]Location: 34538 - 35230" locus_tag="PelgB_010100004455" id="clusterblast-1_h17_7_30" points="722,90 723,90 728,85 723,80 722,80 722,90 " class="clusterblast-orf"  />
<polygon style="stroke:black; stroke-width:1; fill:#FFFFFF; " description="amine_oxidase[br]Location: 32956 - 34395" locus_tag="PelgB_010100004450" id="clusterblast-1_h17_7_31" points="729,90 737,90 742,85 737,80 729,80 729,90 " class="clusterblast-orf"  />
<polygon style="stroke:black; stroke-width:1; fill:#FFFFFF; " description="hypothetical_protein[br]Location: 32215 - 32787" locus_tag="PelgB_010100004445" id="clusterblast-1_h17_7_32" points="743,90 743,90 748,85 743,80 743,80 743,90 " class="clusterblast-orf"  />
<polygon style="stroke:black; stroke-width:1; fill:#FFFFFF; " description="hypothetical_protein[br]Location: 31672 - 32031" locus_tag="PelgB_010100004440" id="clusterblast-1_h17_7_33" points="750,90 753,85 750,80 750,90 " class="clusterblast-orf"  />
<polygon style="stroke:black; stroke-width:1; fill:#FFFFFF; " description="YCII-related_protein[br]Location: 31251 - 31496" locus_tag="PelgB_010100004435" id="clusterblast-1_h17_7_34" points="755,90 757,85 755,80 755,90 " class="clusterblast-orf"  />
<polygon style="stroke:black; stroke-width:1; fill:#FFFFFF; " description="bifunctional_deaminase-reductase[br]Location: 30768 - 31238" locus_tag="PelgB_010100004430" id="clusterblast-1_h17_7_35" points="757,90 761,85 757,80 757,90 " class="clusterblast-orf"  />
<polygon style="stroke:black; stroke-width:1; fill:#FFFFFF; " description="hypothetical_protein[br]Location: 29911 - 30477" locus_tag="PelgB_010100004425" id="clusterblast-1_h17_7_36" points="764,90 764,90 769,85 764,80 764,80 764,90 " class="clusterblast-orf"  />
<polygon style="stroke:black; stroke-width:1; fill:#FFFFFF; " description="hypothetical_protein[br]Location: 28934 - 29653" locus_tag="PelgB_010100004420" id="clusterblast-1_h17_7_37" points="771,85 776,80 778,80 778,90 776,90 771,85 " class="clusterblast-orf"  />
</g>
</svg>
