<svg xmlns="http://www.w3.org/2000/svg" height="230" width="800" version="1.1" y="0" x="0" preserveAspectRatio="none" xmlns:xlink="http://www.w3.org/1999/xlink" viewBox="0 0 800 230"  >
<g class="clusterblast-cluster" label="Query sequence"  >
<text class="clusterblast-acc" y="10" x="5"  >
Query sequence</text>
<line y1="35" x2="778.0" style="stroke:grey; stroke-width:1; " x1="10" y2="35"  />
<polygon style="stroke:black; stroke-width:1; fill:#FFFFFF; " description="unannotated orf[br]Location: 48550 - 50452" locus_tag="CHAFR746836_0048540.1" class="clusterblast-orf" points="17,35 22,30 48,30 48,40 22,40 17,35 " id="clusterblast-1_q60_8_0"  />
<polygon style="stroke:black; stroke-width:1; fill:#FFFFFF; " description="unannotated orf[br]Location: 51110 - 51728" locus_tag="CHAFR746836_0048550.1" class="clusterblast-orf" points="59,35 64,30 70,30 70,40 64,40 59,35 " id="clusterblast-1_q60_8_1"  />
<polygon style="stroke:black; stroke-width:1; fill:#FFFFFF; " description="unannotated orf[br]Location: 53237 - 55611" locus_tag="CHAFR746836_0048560.1" class="clusterblast-orf" points="95,35 100,30 135,30 135,40 100,40 95,35 " id="clusterblast-1_q60_8_2"  />
<polygon style="stroke:black; stroke-width:1; fill:#FFFFFF; " description="unannotated orf[br]Location: 57932 - 59484" locus_tag="CHAFR746836_0048570.1" class="clusterblast-orf" points="173,40 194,40 199,35 194,30 173,30 173,40 " id="clusterblast-1_q60_8_3"  />
<polygon style="stroke:black; stroke-width:1; fill:#FFFFFF; " description="unannotated orf[br]Location: 62331 - 63950" locus_tag="CHAFR746836_0048580.1" class="clusterblast-orf" points="247,35 252,30 274,30 274,40 252,40 247,35 " id="clusterblast-1_q60_8_4"  />
<polygon style="stroke:black; stroke-width:1; fill:red; " description="unannotated orf[br]Location: 64666 - 66296" locus_tag="CHAFR746836_0048590.1" class="clusterblast-orf" points="286,40 308,40 313,35 308,30 286,30 286,40 " id="clusterblast-1_q60_8_5"  />
<polygon style="stroke:black; stroke-width:1; fill:green; " description="unannotated orf[br]Location: 69864 - 75702" locus_tag="CHAFR746836_0048600.1" class="clusterblast-orf" points="373,40 466,40 471,35 466,30 373,30 373,40 " id="clusterblast-1_q60_8_6"  />
<polygon style="stroke:black; stroke-width:1; fill:blue; " description="unannotated orf[br]Location: 79743 - 81850" locus_tag="CHAFR746836_0048610.1" class="clusterblast-orf" points="538,40 569,40 574,35 569,30 538,30 538,40 " id="clusterblast-1_q60_8_7"  />
<polygon style="stroke:black; stroke-width:1; fill:#FFFFFF; " description="unannotated orf[br]Location: 85884 - 86805" locus_tag="CHAFR746836_0048620.1" class="clusterblast-orf" points="641,40 652,40 657,35 652,30 641,30 641,40 " id="clusterblast-1_q60_8_8"  />
<polygon style="stroke:black; stroke-width:1; fill:#FFFFFF; " description="unannotated orf[br]Location: 87662 - 90517" locus_tag="CHAFR746836_0048630.1" class="clusterblast-orf" points="671,40 714,40 719,35 714,30 671,30 671,40 " id="clusterblast-1_q60_8_9"  />
<polygon style="stroke:black; stroke-width:1; fill:#FFFFFF; " description="unannotated orf[br]Location: 91368 - 93605" locus_tag="CHAFR746836_0048640.1" class="clusterblast-orf" points="733,40 765,40 770,35 765,30 733,30 733,40 " id="clusterblast-1_q60_8_10"  />
</g>
<g class="clusterblast-cluster" description="Burkholderia pseudomallei 1026b chromosome chromosome 2, co..." label="NC_017832.1_c3"  >
<text class="clusterblast-acc" y="60" x="5"  >
NC_017832.1_c3</text>
<text class="clusterblast-desc" y="60" x="460.8"  >
Burkholderia pseudomallei 1026b chromosome chromosome 2, co...</text>
<line y1="85" x2="778.0" style="stroke:grey; stroke-width:1; " x1="10" y2="85"  />
<polygon style="stroke:black; stroke-width:1; fill:#FFFFFF; " description="aminotransferase[br]Location: 642574 - 643992" locus_tag="BP1026B_II0522" id="clusterblast-1_h60_8_0" points="10,85 15,80 33,80 33,90 15,90 10,85 " class="clusterblast-orf"  />
<polygon style="stroke:black; stroke-width:1; fill:#FFFFFF; " description="glutamine_synthetase[br]Location: 644028 - 645362" locus_tag="BP1026B_II0523" id="clusterblast-1_h60_8_1" points="34,85 39,80 56,80 56,90 39,90 34,85 " class="clusterblast-orf"  />
<polygon style="stroke:black; stroke-width:1; fill:#FFFFFF; " description="glutamine_amidotransferase[br]Location: 645389 - 646144" locus_tag="BP1026B_II0524" id="clusterblast-1_h60_8_2" points="57,85 62,80 69,80 69,90 62,90 57,85 " class="clusterblast-orf"  />
<polygon style="stroke:black; stroke-width:1; fill:#FFFFFF; " description="hypothetical_protein[br]Location: 646424 - 646831" locus_tag="BP1026B_II0525" id="clusterblast-1_h60_8_3" points="74,90 76,90 81,85 76,80 74,80 74,90 " class="clusterblast-orf"  />
<polygon style="stroke:black; stroke-width:1; fill:#FFFFFF; " description="aldehyde_dehydrogenase-like_protein[br]Location: 647131 - 647682" locus_tag="BP1026B_II0526" id="clusterblast-1_h60_8_4" points="86,90 90,90 95,85 90,80 86,80 86,90 " class="clusterblast-orf"  />
<polygon style="stroke:black; stroke-width:1; fill:red; " description="aldehyde_dehydrogenase_family_protein[br]Location: 647800 - 649290&lt;br&gt;&lt;br&gt;&lt;b&gt;BlastP hit with CHAFR746836_0048590.1&lt;/b&gt;&lt;br&gt;Percentage identity: 39%&lt;br&gt;Percentage coverage: 94%&lt;br&gt;BLAST bit score: 301&lt;br&gt;E-value: 5e-94" locus_tag="BP1026B_II0527" id="clusterblast-1_h60_8_5" points="97,90 117,90 122,85 117,80 97,80 97,90 " class="clusterblast-orf"  />
<polygon style="stroke:black; stroke-width:1; fill:green; " description="agmatinase[br]Location: 649421 - 650383&lt;br&gt;&lt;br&gt;&lt;b&gt;BlastP hit with CHAFR746836_0048600.1&lt;/b&gt;&lt;br&gt;Percentage identity: 37%&lt;br&gt;Percentage coverage: 22%&lt;br&gt;BLAST bit score: 179&lt;br&gt;E-value: 9e-48" locus_tag="BP1026B_II0528" id="clusterblast-1_h60_8_6" points="124,90 135,90 140,85 135,80 124,80 124,90 " class="clusterblast-orf"  />
<polygon style="stroke:black; stroke-width:1; fill:#FFFFFF; " description="hypothetical_protein[br]Location: 650502 - 650915" locus_tag="BP1026B_II0529" id="clusterblast-1_h60_8_7" points="142,90 144,90 149,85 144,80 142,80 142,90 " class="clusterblast-orf"  />
<polygon style="stroke:black; stroke-width:1; fill:#FFFFFF; " description="co-chaperonin_GroES[br]Location: 651109 - 651399" locus_tag="BP1026B_II0530" id="clusterblast-1_h60_8_8" points="152,90 152,90 157,85 152,80 152,80 152,90 " class="clusterblast-orf"  />
<polygon style="stroke:black; stroke-width:1; fill:#FFFFFF; " description="chaperonin_GroEL[br]Location: 651421 - 653061" locus_tag="BP1026B_II0531" id="clusterblast-1_h60_8_9" points="158,90 180,90 185,85 180,80 158,80 158,90 " class="clusterblast-orf"  />
<polygon style="stroke:black; stroke-width:1; fill:#FFFFFF; " description="hypothetical_protein[br]Location: 653123 - 653569" locus_tag="BP1026B_II0532" id="clusterblast-1_h60_8_10" points="186,85 191,80 193,80 193,90 191,90 186,85 " class="clusterblast-orf"  />
<polygon style="stroke:black; stroke-width:1; fill:#FFFFFF; " description="ribonucleotide_reductase,_coenzyme[br]Location: 654174 - 656708" locus_tag="BP1026B_II0533" id="clusterblast-1_h60_8_11" points="204,90 241,90 246,85 241,80 204,80 204,90 " class="clusterblast-orf"  />
<polygon style="stroke:black; stroke-width:1; fill:#FFFFFF; " description="2-aminobenzoate-CoA_ligase[br]Location: 657741 - 659366" locus_tag="BP1026B_II0535" id="clusterblast-1_h60_8_12" points="263,90 285,90 290,85 285,80 263,80 263,90 " class="clusterblast-orf"  />
<polygon style="stroke:black; stroke-width:1; fill:#FFFFFF; " description="hypothetical_protein[br]Location: 659453 - 660343" locus_tag="BP1026B_II0536" id="clusterblast-1_h60_8_13" points="292,90 302,90 307,85 302,80 292,80 292,90 " class="clusterblast-orf"  />
<polygon style="stroke:black; stroke-width:1; fill:#FFFFFF; " description="beta-ketoacyl-ACP_synthase[br]Location: 660322 - 661449" locus_tag="BP1026B_II0537" id="clusterblast-1_h60_8_14" points="306,90 320,90 325,85 320,80 306,80 306,90 " class="clusterblast-orf"  />
<polygon style="stroke:black; stroke-width:1; fill:#FFFFFF; " description="3-oxoacyl-ACP_synthase[br]Location: 661439 - 662437" locus_tag="BP1026B_II0538" id="clusterblast-1_h60_8_15" points="325,90 337,90 342,85 337,80 325,80 325,90 " class="clusterblast-orf"  />
<polygon style="stroke:black; stroke-width:1; fill:#FFFFFF; " description="metallo-beta_lactamase-related_protein[br]Location: 662452 - 663342" locus_tag="BP1026B_II0539" id="clusterblast-1_h60_8_16" points="342,90 352,90 357,85 352,80 342,80 342,90 " class="clusterblast-orf"  />
<polygon style="stroke:black; stroke-width:1; fill:#FFFFFF; " description="polyketide_synthase[br]Location: 663470 - 667303" locus_tag="BP1026B_II0540" id="clusterblast-1_h60_8_17" points="359,90 418,90 423,85 418,80 359,80 359,90 " class="clusterblast-orf"  />
<polygon style="stroke:black; stroke-width:1; fill:#FFFFFF; " description="hypothetical_protein[br]Location: 667317 - 669452" locus_tag="BP1026B_II0541" id="clusterblast-1_h60_8_18" points="424,90 454,90 459,85 454,80 424,80 424,90 " class="clusterblast-orf"  />
<polygon style="stroke:black; stroke-width:1; fill:#FFFFFF; " description="hypothetical_protein[br]Location: 669819 - 670190" locus_tag="BP1026B_II0542" id="clusterblast-1_h60_8_19" points="465,90 467,90 472,85 467,80 465,80 465,90 " class="clusterblast-orf"  />
<polygon style="stroke:black; stroke-width:1; fill:#FFFFFF; " description="hypothetical_protein[br]Location: 671015 - 671485" locus_tag="BP1026B_II0544" id="clusterblast-1_h60_8_20" points="485,90 488,90 493,85 488,80 485,80 485,90 " class="clusterblast-orf"  />
<polygon style="stroke:black; stroke-width:1; fill:#FFFFFF; " description="transposase_B[br]Location: 671990 - 672226" locus_tag="BP1026B_II0545" id="clusterblast-1_h60_8_21" points="502,90 506,85 502,80 502,90 " class="clusterblast-orf"  />
<polygon style="stroke:black; stroke-width:1; fill:#FFFFFF; " description="alkyl_hydroperoxide_reductase_subunit[br]Location: 672441 - 674048" locus_tag="BP1026B_II0546" id="clusterblast-1_h60_8_22" points="509,85 514,80 536,80 536,90 514,90 509,85 " class="clusterblast-orf"  />
<polygon style="stroke:black; stroke-width:1; fill:#FFFFFF; " description="alkyl_hydroperoxide_reductase_protein[br]Location: 674252 - 674815" locus_tag="BP1026B_II0547" id="clusterblast-1_h60_8_23" points="540,85 545,80 549,80 549,90 545,90 540,85 " class="clusterblast-orf"  />
<polygon style="stroke:black; stroke-width:1; fill:#FFFFFF; " description="chitin_binding_domain-containing_protein[br]Location: 675075 - 676172" locus_tag="BP1026B_II0548" id="clusterblast-1_h60_8_24" points="553,85 558,80 572,80 572,90 558,90 553,85 " class="clusterblast-orf"  />
<polygon style="stroke:black; stroke-width:1; fill:#FFFFFF; " description="hypothetical_protein[br]Location: 676732 - 677235" locus_tag="BP1026B_II0549" id="clusterblast-1_h60_8_25" points="581,85 586,80 589,80 589,90 586,90 581,85 " class="clusterblast-orf"  />
<polygon style="stroke:black; stroke-width:1; fill:#FFFFFF; " description="nitroreductase_family_protein[br]Location: 677310 - 677933" locus_tag="BP1026B_II0550" id="clusterblast-1_h60_8_26" points="591,85 596,80 601,80 601,90 596,90 591,85 " class="clusterblast-orf"  />
<polygon style="stroke:black; stroke-width:1; fill:#FFFFFF; " description="hypothetical_protein[br]Location: 678667 - 680082" locus_tag="BP1026B_II0551" id="clusterblast-1_h60_8_27" points="613,90 632,90 637,85 632,80 613,80 613,90 " class="clusterblast-orf"  />
<polygon style="stroke:black; stroke-width:1; fill:#FFFFFF; " description="hypothetical_protein[br]Location: 680179 - 681120" locus_tag="BP1026B_II0553" id="clusterblast-1_h60_8_28" points="639,90 649,90 654,85 649,80 639,80 639,90 " class="clusterblast-orf"  />
<polygon style="stroke:black; stroke-width:1; fill:#FFFFFF; " description="transglutaminase-like_superfamily_protein[br]Location: 681129 - 682085" locus_tag="BP1026B_II0552" id="clusterblast-1_h60_8_29" points="655,90 666,90 671,85 666,80 655,80 655,90 " class="clusterblast-orf"  />
<polygon style="stroke:black; stroke-width:1; fill:#FFFFFF; " description="transglutaminase-like_superfamily_protein[br]Location: 682222 - 685638" locus_tag="BP1026B_II0554" id="clusterblast-1_h60_8_30" points="673,90 725,90 730,85 725,80 673,80 673,90 " class="clusterblast-orf"  />
<polygon style="stroke:black; stroke-width:1; fill:#FFFFFF; " description="hypothetical_protein[br]Location: 685826 - 688474" locus_tag="BP1026B_II0555" id="clusterblast-1_h60_8_31" points="733,90 773,90 778,85 773,80 733,80 733,90 " class="clusterblast-orf"  />
</g>
</svg>
