<svg xmlns="http://www.w3.org/2000/svg" height="230" width="800" version="1.1" y="0" x="0" preserveAspectRatio="none" xmlns:xlink="http://www.w3.org/1999/xlink" viewBox="0 0 800 230"  >
<g class="clusterblast-cluster" label="Query sequence"  >
<text class="clusterblast-acc" y="10" x="5"  >
Query sequence</text>
<line y1="35" x2="778.0" style="stroke:grey; stroke-width:1; " x1="10" y2="35"  />
<polygon style="stroke:black; stroke-width:1; fill:rgb(190,63,63); " description="unannotated orf[br]Location: 1126 - 9218" locus_tag="CHAFR746836_0015230.1" class="clusterblast-orf" points="98,35 103,30 159,30 159,40 103,40 98,35 " id="clusterblast-1_q35_3_0"  />
<polygon style="stroke:black; stroke-width:1; fill:#FFFFFF; " description="unannotated orf[br]Location: 30506 - 31134" locus_tag="CHAFR746836_0015240.1" class="clusterblast-orf" points="322,35 327,30 327,30 327,40 327,40 322,35 " id="clusterblast-1_q35_3_1"  />
<polygon style="stroke:black; stroke-width:1; fill:rgb(63,63,190); " description="unannotated orf[br]Location: 31550 - 33962" locus_tag="CHAFR746836_0015250.1" class="clusterblast-orf" points="330,35 335,30 349,30 349,40 335,40 330,35 " id="clusterblast-1_q35_3_2"  />
<polygon style="stroke:black; stroke-width:1; fill:#FFFFFF; " description="unannotated orf[br]Location: 34436 - 34894" locus_tag="CHAFR746836_0015260.1" class="clusterblast-orf" points="352,40 356,35 352,30 352,40 " id="clusterblast-1_q35_3_3"  />
<polygon style="stroke:black; stroke-width:1; fill:rgb(63,190,63); " description="unannotated orf[br]Location: 36222 - 37622" locus_tag="CHAFR746836_0015270.1" class="clusterblast-orf" points="366,40 372,40 377,35 372,30 366,30 366,40 " id="clusterblast-1_q35_3_4"  />
<polygon style="stroke:black; stroke-width:1; fill:#FFFFFF; " description="unannotated orf[br]Location: 40179 - 41082" locus_tag="CHAFR746836_0015280.1" class="clusterblast-orf" points="396,40 398,40 403,35 398,30 396,30 396,40 " id="clusterblast-1_q35_3_5"  />
<polygon style="stroke:black; stroke-width:1; fill:#FFFFFF; " description="unannotated orf[br]Location: 42749 - 46034" locus_tag="CHAFR746836_0015290.1" class="clusterblast-orf" points="416,40 436,40 441,35 436,30 416,30 416,40 " id="clusterblast-1_q35_3_6"  />
<polygon style="stroke:black; stroke-width:1; fill:#FFFFFF; " description="unannotated orf[br]Location: 53083 - 55196" locus_tag="CHAFR746836_0015300.1" class="clusterblast-orf" points="495,40 506,40 511,35 506,30 495,30 495,40 " id="clusterblast-1_q35_3_7"  />
<polygon style="stroke:black; stroke-width:1; fill:#FFFFFF; " description="unannotated orf[br]Location: 57522 - 59597" locus_tag="CHAFR746836_0015310.1" class="clusterblast-orf" points="529,35 534,30 545,30 545,40 534,40 529,35 " id="clusterblast-1_q35_3_8"  />
<polygon style="stroke:black; stroke-width:1; fill:#FFFFFF; " description="unannotated orf[br]Location: 64099 - 66128" locus_tag="CHAFR746836_0015320.1" class="clusterblast-orf" points="579,35 584,30 595,30 595,40 584,40 579,35 " id="clusterblast-1_q35_3_9"  />
<polygon style="stroke:black; stroke-width:1; fill:#FFFFFF; " description="unannotated orf[br]Location: 66743 - 68055" locus_tag="CHAFR746836_0015330.1" class="clusterblast-orf" points="599,40 604,40 609,35 604,30 599,30 599,40 " id="clusterblast-1_q35_3_10"  />
<polygon style="stroke:black; stroke-width:1; fill:rgb(190,63,190); " description="unannotated orf[br]Location: 68693 - 70290" locus_tag="CHAFR746836_0015340.1" class="clusterblast-orf" points="614,35 619,30 627,30 627,40 619,40 614,35 " id="clusterblast-1_q35_3_11"  />
<polygon style="stroke:black; stroke-width:1; fill:#FFFFFF; " description="unannotated orf[br]Location: 72852 - 74846" locus_tag="CHAFR746836_0015350.1" class="clusterblast-orf" points="646,35 651,30 661,30 661,40 651,40 646,35 " id="clusterblast-1_q35_3_12"  />
<polygon style="stroke:black; stroke-width:1; fill:rgb(190,190,63); " description="unannotated orf[br]Location: 75794 - 78319" locus_tag="CHAFR746836_0015360.1" class="clusterblast-orf" points="669,40 683,40 688,35 683,30 669,30 669,40 " id="clusterblast-1_q35_3_13"  />
</g>
<g class="clusterblast-cluster" description="Streptomyces cattleya NRRL 8057, complete genome." label="NC_016111.1_c13"  >
<text class="clusterblast-acc" y="60" x="5"  >
NC_016111.1_c13</text>
<text class="clusterblast-desc" y="60" x="460.8"  >
Streptomyces cattleya NRRL 8057, complete genome.</text>
<line y1="85" x2="778.0" style="stroke:grey; stroke-width:1; " x1="10" y2="85"  />
<polygon style="stroke:black; stroke-width:1; fill:#FFFFFF; " description="50S_ribosomal_protein_L24[br]Location: 3878579 - 3878902" locus_tag="SCAT_3603" id="clusterblast-1_h35_3_0" points="10,85 12,80 12,90 10,85 " class="clusterblast-orf"  />
<polygon style="stroke:black; stroke-width:1; fill:#FFFFFF; " description="50S_ribosomal_protein_L14[br]Location: 3878207 - 3878575" locus_tag="SCAT_3602" id="clusterblast-1_h35_3_1" points="12,85 15,80 15,90 12,85 " class="clusterblast-orf"  />
<polygon style="stroke:black; stroke-width:1; fill:#FFFFFF; " description="30S_ribosomal_protein_S17[br]Location: 3877819 - 3878103" locus_tag="SCAT_3601" id="clusterblast-1_h35_3_2" points="16,85 18,80 18,90 16,85 " class="clusterblast-orf"  />
<polygon style="stroke:black; stroke-width:1; fill:#FFFFFF; " description="50S_ribosomal_protein_L29[br]Location: 3877595 - 3877819" locus_tag="SCAT_3600" id="clusterblast-1_h35_3_3" points="18,85 19,80 19,90 18,85 " class="clusterblast-orf"  />
<polygon style="stroke:black; stroke-width:1; fill:#FFFFFF; " description="50S_ribosomal_protein_L16[br]Location: 3877176 - 3877595" locus_tag="SCAT_3599" id="clusterblast-1_h35_3_4" points="19,85 23,80 23,90 19,85 " class="clusterblast-orf"  />
<polygon style="stroke:black; stroke-width:1; fill:#FFFFFF; " description="30S_ribosomal_protein_S3[br]Location: 3876346 - 3877170" locus_tag="SCAT_3598" id="clusterblast-1_h35_3_5" points="23,85 28,80 29,80 29,90 28,90 23,85 " class="clusterblast-orf"  />
<polygon style="stroke:black; stroke-width:1; fill:#FFFFFF; " description="50S_ribosomal_protein_L22[br]Location: 3875999 - 3876346" locus_tag="SCAT_3597" id="clusterblast-1_h35_3_6" points="29,85 32,80 32,90 29,85 " class="clusterblast-orf"  />
<polygon style="stroke:black; stroke-width:1; fill:#FFFFFF; " description="30S_ribosomal_protein_S19[br]Location: 3875672 - 3875953" locus_tag="SCAT_3596" id="clusterblast-1_h35_3_7" points="32,85 34,80 34,90 32,85 " class="clusterblast-orf"  />
<polygon style="stroke:black; stroke-width:1; fill:#FFFFFF; " description="50S_ribosomal_protein_L2[br]Location: 3874823 - 3875659" locus_tag="SCAT_3595" id="clusterblast-1_h35_3_8" points="34,85 39,80 41,80 41,90 39,90 34,85 " class="clusterblast-orf"  />
<polygon style="stroke:black; stroke-width:1; fill:#FFFFFF; " description="50S_ribosomal_protein_L23[br]Location: 3874457 - 3874783" locus_tag="SCAT_3594" id="clusterblast-1_h35_3_9" points="41,85 44,80 44,90 41,85 " class="clusterblast-orf"  />
<polygon style="stroke:black; stroke-width:1; fill:#FFFFFF; " description="50S_ribosomal_protein_L4[br]Location: 3873807 - 3874457" locus_tag="SCAT_3593" id="clusterblast-1_h35_3_10" points="44,85 48,80 48,90 44,85 " class="clusterblast-orf"  />
<polygon style="stroke:black; stroke-width:1; fill:#FFFFFF; " description="50S_ribosomal_protein_L3[br]Location: 3873196 - 3873798" locus_tag="SCAT_3592" id="clusterblast-1_h35_3_11" points="49,85 53,80 53,90 49,85 " class="clusterblast-orf"  />
<polygon style="stroke:black; stroke-width:1; fill:#FFFFFF; " description="30S_ribosomal_protein_S10[br]Location: 3872832 - 3873140" locus_tag="SCAT_3591" id="clusterblast-1_h35_3_12" points="54,85 56,80 56,90 54,85 " class="clusterblast-orf"  />
<polygon style="stroke:black; stroke-width:1; fill:#FFFFFF; " description="Drug_resistance_transporter,_emrB/qacA[br]Location: 3870829 - 3872439" locus_tag="SCAT_3590" id="clusterblast-1_h35_3_13" points="59,85 64,80 71,80 71,90 64,90 59,85 " class="clusterblast-orf"  />
<polygon style="stroke:black; stroke-width:1; fill:#FFFFFF; " description="Transcriptional_regulator,_TetR_family[br]Location: 3870041 - 3870712" locus_tag="SCAT_3589" id="clusterblast-1_h35_3_14" points="72,90 72,90 77,85 72,80 72,80 72,90 " class="clusterblast-orf"  />
<polygon style="stroke:black; stroke-width:1; fill:#FFFFFF; " description="Cytochrome_P450_107B1[br]Location: 3868816 - 3870030" locus_tag="SCAT_3588" id="clusterblast-1_h35_3_15" points="77,85 82,80 87,80 87,90 82,90 77,85 " class="clusterblast-orf"  />
<polygon style="stroke:black; stroke-width:1; fill:#FFFFFF; " description="hypothetical_protein[br]Location: 3867888 - 3868571" locus_tag="SCAT_3587" id="clusterblast-1_h35_3_16" points="89,90 89,90 94,85 89,80 89,80 89,90 " class="clusterblast-orf"  />
<polygon style="stroke:black; stroke-width:1; fill:#FFFFFF; " description="KirCII_protein[br]Location: 3865823 - 3867790" locus_tag="SCAT_3586" id="clusterblast-1_h35_3_17" points="95,90 105,90 110,85 105,80 95,80 95,90 " class="clusterblast-orf"  />
<polygon style="stroke:black; stroke-width:1; fill:#FFFFFF; " description="type_11_methyltransferase[br]Location: 3864760 - 3865728" locus_tag="SCAT_3585" id="clusterblast-1_h35_3_18" points="110,90 113,90 118,85 113,80 110,80 110,90 " class="clusterblast-orf"  />
<polygon style="stroke:black; stroke-width:1; fill:#FFFFFF; " description="acyltransferase[br]Location: 3861500 - 3864763" locus_tag="SCAT_3584" id="clusterblast-1_h35_3_19" points="118,90 138,90 143,85 138,80 118,80 118,90 " class="clusterblast-orf"  />
<polygon style="stroke:black; stroke-width:1; fill:#FFFFFF; " description="6-deoxyerythronolide_B_hydroxylase[br]Location: 3860273 - 3861496" locus_tag="SCAT_3583" id="clusterblast-1_h35_3_20" points="143,90 147,90 152,85 147,80 143,80 143,90 " class="clusterblast-orf"  />
<polygon style="stroke:black; stroke-width:1; fill:#FFFFFF; " description="Indoleacetamide_hydrolase[br]Location: 3858802 - 3860211" locus_tag="SCAT_3582" id="clusterblast-1_h35_3_21" points="152,85 157,80 163,80 163,90 157,90 152,85 " class="clusterblast-orf"  />
<polygon style="stroke:black; stroke-width:1; fill:rgb(190,63,63); " description="3-oxoacyl-ACP_reductase[br]Location: 3851204 - 3858760&lt;br&gt;&lt;br&gt;&lt;b&gt;BlastP hit with CHAFR746836_0015230.1&lt;/b&gt;&lt;br&gt;Percentage identity: 37%&lt;br&gt;Percentage coverage: 16%&lt;br&gt;BLAST bit score: 290&lt;br&gt;E-value: 3e-77" locus_tag="SCAT_3581" id="clusterblast-1_h35_3_22" points="164,85 169,80 221,80 221,90 169,90 164,85 " class="clusterblast-orf"  />
<polygon style="stroke:black; stroke-width:1; fill:rgb(190,63,63); " description="polyketide_synthase[br]Location: 3843620 - 3851125&lt;br&gt;&lt;br&gt;&lt;b&gt;BlastP hit with CHAFR746836_0015230.1&lt;/b&gt;&lt;br&gt;Percentage identity: 35%&lt;br&gt;Percentage coverage: 16%&lt;br&gt;BLAST bit score: 263&lt;br&gt;E-value: 4e-69" locus_tag="SCAT_3580" id="clusterblast-1_h35_3_23" points="222,85 227,80 279,80 279,90 227,90 222,85 " class="clusterblast-orf"  />
<polygon style="stroke:black; stroke-width:1; fill:rgb(190,63,63); " description="polyketide_synthase[br]Location: 3823441 - 3843606&lt;br&gt;&lt;br&gt;&lt;b&gt;BlastP hit with CHAFR746836_0015230.1&lt;/b&gt;&lt;br&gt;Percentage identity: 38%&lt;br&gt;Percentage coverage: 17%&lt;br&gt;BLAST bit score: 298&lt;br&gt;E-value: 2e-79" locus_tag="SCAT_3579" id="clusterblast-1_h35_3_24" points="279,85 284,80 434,80 434,90 284,90 279,85 " class="clusterblast-orf"  />
<polygon style="stroke:black; stroke-width:1; fill:rgb(190,63,63); " description="hybrid_non-ribosomal_peptide[br]Location: 3818680 - 3823440&lt;br&gt;&lt;br&gt;&lt;b&gt;BlastP hit with CHAFR746836_0015230.1&lt;/b&gt;&lt;br&gt;Percentage identity: 37%&lt;br&gt;Percentage coverage: 17%&lt;br&gt;BLAST bit score: 298&lt;br&gt;E-value: 5e-80" locus_tag="SCAT_3578" id="clusterblast-1_h35_3_25" points="434,85 439,80 470,80 470,90 439,90 434,85 " class="clusterblast-orf"  />
<polygon style="stroke:black; stroke-width:1; fill:rgb(190,63,63); " description="polyketide_synthase[br]Location: 3804857 - 3818683&lt;br&gt;&lt;br&gt;&lt;b&gt;BlastP hit with CHAFR746836_0015230.1&lt;/b&gt;&lt;br&gt;Percentage identity: 36%&lt;br&gt;Percentage coverage: 17%&lt;br&gt;BLAST bit score: 283&lt;br&gt;E-value: 8e-75" locus_tag="SCAT_3577" id="clusterblast-1_h35_3_26" points="470,85 475,80 576,80 576,90 475,90 470,85 " class="clusterblast-orf"  />
<polygon style="stroke:black; stroke-width:1; fill:rgb(190,63,63); " description="polyketide_synthase[br]Location: 3798621 - 3804833&lt;br&gt;&lt;br&gt;&lt;b&gt;BlastP hit with CHAFR746836_0015230.1&lt;/b&gt;&lt;br&gt;Percentage identity: 38%&lt;br&gt;Percentage coverage: 17%&lt;br&gt;BLAST bit score: 304&lt;br&gt;E-value: 1e-81" locus_tag="SCAT_3576" id="clusterblast-1_h35_3_27" points="576,85 581,80 624,80 624,90 581,90 576,85 " class="clusterblast-orf"  />
<polygon style="stroke:black; stroke-width:1; fill:#FFFFFF; " description="4'-phosphopantetheinyl_transferase[br]Location: 3797504 - 3798283" locus_tag="SCAT_3575" id="clusterblast-1_h35_3_28" points="626,85 631,80 632,80 632,90 631,90 626,85 " class="clusterblast-orf"  />
<polygon style="stroke:black; stroke-width:1; fill:#FFFFFF; " description="Transcriptional_regulator[br]Location: 3794307 - 3796931" locus_tag="SCAT_3574" id="clusterblast-1_h35_3_29" points="637,90 652,90 657,85 652,80 637,80 637,90 " class="clusterblast-orf"  />
<polygon style="stroke:black; stroke-width:1; fill:#FFFFFF; " description="Thioesterase[br]Location: 3793229 - 3793987" locus_tag="SCAT_3573" id="clusterblast-1_h35_3_30" points="659,90 660,90 665,85 660,80 659,80 659,90 " class="clusterblast-orf"  />
<polygon style="stroke:black; stroke-width:1; fill:#FFFFFF; " description="S-adenosylmethionine_synthetase[br]Location: 3792039 - 3793202" locus_tag="SCAT_3572" id="clusterblast-1_h35_3_31" points="665,90 669,90 674,85 669,80 665,80 665,90 " class="clusterblast-orf"  />
<polygon style="stroke:black; stroke-width:1; fill:#FFFFFF; " description="elongation_factor_Tu[br]Location: 3790740 - 3791933" locus_tag="SCAT_3571" id="clusterblast-1_h35_3_32" points="675,85 680,80 684,80 684,90 680,90 675,85 " class="clusterblast-orf"  />
<polygon style="stroke:black; stroke-width:1; fill:rgb(190,190,63); " description="elongation_factor_G[br]Location: 3788405 - 3790525&lt;br&gt;&lt;br&gt;&lt;b&gt;BlastP hit with CHAFR746836_0015360.1&lt;/b&gt;&lt;br&gt;Percentage identity: 32%&lt;br&gt;Percentage coverage: 100%&lt;br&gt;BLAST bit score: 379&lt;br&gt;E-value: 4e-118" locus_tag="SCAT_3570" id="clusterblast-1_h35_3_33" points="686,85 691,80 702,80 702,90 691,90 686,85 " class="clusterblast-orf"  />
<polygon style="stroke:black; stroke-width:1; fill:#FFFFFF; " description="30S_ribosomal_protein_S7[br]Location: 3787895 - 3788365" locus_tag="SCAT_3569" id="clusterblast-1_h35_3_34" points="702,85 706,80 706,90 702,85 " class="clusterblast-orf"  />
<polygon style="stroke:black; stroke-width:1; fill:#FFFFFF; " description="30S_ribosomal_protein_S12[br]Location: 3787520 - 3787891" locus_tag="SCAT_3568" id="clusterblast-1_h35_3_35" points="706,85 709,80 709,90 706,85 " class="clusterblast-orf"  />
<polygon style="stroke:black; stroke-width:1; fill:#FFFFFF; " description="RNA_polymerase_(beta'_subunit)[br]Location: 3783170 - 3787069" locus_tag="SCAT_3567" id="clusterblast-1_h35_3_36" points="712,85 717,80 742,80 742,90 717,90 712,85 " class="clusterblast-orf"  />
<polygon style="stroke:black; stroke-width:1; fill:#FFFFFF; " description="DNA-directed_RNA_polymerase_subunit_beta[br]Location: 3779552 - 3783037" locus_tag="SCAT_3566" id="clusterblast-1_h35_3_37" points="743,85 748,80 769,80 769,90 748,90 743,85 " class="clusterblast-orf"  />
<polygon style="stroke:black; stroke-width:1; fill:#FFFFFF; " description="50S_ribosomal_protein_L12[br]Location: 3778503 - 3778889" locus_tag="SCAT_3565" id="clusterblast-1_h35_3_38" points="775,85 778,80 778,90 775,85 " class="clusterblast-orf"  />
</g>
</svg>
