<svg xmlns="http://www.w3.org/2000/svg" height="230" width="800" version="1.1" y="0" x="0" preserveAspectRatio="none" xmlns:xlink="http://www.w3.org/1999/xlink" viewBox="0 0 800 230"  >
<g class="clusterblast-cluster" label="Query sequence"  >
<text class="clusterblast-acc" y="10" x="5"  >
Query sequence</text>
<line y1="35" x2="778.0" style="stroke:grey; stroke-width:1; " x1="10" y2="35"  />
<polygon style="stroke:black; stroke-width:1; fill:#FFFFFF; " description="unannotated orf[br]Location: 526 - 1764" locus_tag="CHAFR746836_0049830.1" class="clusterblast-orf" points="24,35 29,30 43,30 43,40 29,40 24,35 " id="clusterblast-1_q61_8_0"  />
<polygon style="stroke:black; stroke-width:1; fill:#FFFFFF; " description="unannotated orf[br]Location: 2667 - 6069" locus_tag="CHAFR746836_0049840.1" class="clusterblast-orf" points="57,40 105,40 110,35 105,30 57,30 57,40 " id="clusterblast-1_q61_8_1"  />
<polygon style="stroke:black; stroke-width:1; fill:#FFFFFF; " description="unannotated orf[br]Location: 8378 - 11086" locus_tag="CHAFR746836_0049850.1" class="clusterblast-orf" points="147,35 152,30 189,30 189,40 152,40 147,35 " id="clusterblast-1_q61_8_2"  />
<polygon style="stroke:black; stroke-width:1; fill:red; " description="unannotated orf[br]Location: 12115 - 13475" locus_tag="CHAFR746836_0049860.1" class="clusterblast-orf" points="205,40 222,40 227,35 222,30 205,30 205,40 " id="clusterblast-1_q61_8_3"  />
<polygon style="stroke:black; stroke-width:1; fill:#FFFFFF; " description="unannotated orf[br]Location: 17223 - 18472" locus_tag="CHAFR746836_0049870.1" class="clusterblast-orf" points="285,40 300,40 305,35 300,30 285,30 285,40 " id="clusterblast-1_q61_8_4"  />
<polygon style="stroke:black; stroke-width:1; fill:#FFFFFF; " description="unannotated orf[br]Location: 19776 - 20599" locus_tag="CHAFR746836_0049880.1" class="clusterblast-orf" points="325,35 330,30 338,30 338,40 330,40 325,35 " id="clusterblast-1_q61_8_5"  />
<polygon style="stroke:black; stroke-width:1; fill:green; " description="unannotated orf[br]Location: 21414 - 28833" locus_tag="CHAFR746836_0049890.1" class="clusterblast-orf" points="351,35 356,30 467,30 467,40 356,40 351,35 " id="clusterblast-1_q61_8_6"  />
<polygon style="stroke:black; stroke-width:1; fill:blue; " description="unannotated orf[br]Location: 33502 - 34522" locus_tag="CHAFR746836_0049900.1" class="clusterblast-orf" points="541,40 552,40 557,35 552,30 541,30 541,40 " id="clusterblast-1_q61_8_7"  />
<polygon style="stroke:black; stroke-width:1; fill:#FFFFFF; " description="unannotated orf[br]Location: 35396 - 36560" locus_tag="CHAFR746836_0049910.1" class="clusterblast-orf" points="570,35 575,30 589,30 589,40 575,40 570,35 " id="clusterblast-1_q61_8_8"  />
<polygon style="stroke:black; stroke-width:1; fill:#FFFFFF; " description="unannotated orf[br]Location: 43480 - 44101" locus_tag="CHAFR746836_0049920.1" class="clusterblast-orf" points="697,35 702,30 707,30 707,40 702,40 697,35 " id="clusterblast-1_q61_8_9"  />
<polygon style="stroke:black; stroke-width:1; fill:#FFFFFF; " description="unannotated orf[br]Location: 46657 - 47620" locus_tag="CHAFR746836_0049930.1" class="clusterblast-orf" points="747,35 752,30 762,30 762,40 752,40 747,35 " id="clusterblast-1_q61_8_10"  />
</g>
<g class="clusterblast-cluster" description="Trichoderma virens Gv29-8 TRIVIscaffold 6, whole genome ..." label="ABDF02000006.1_c1"  >
<text class="clusterblast-acc" y="60" x="5"  >
ABDF02000006.1_c1</text>
<text class="clusterblast-desc" y="60" x="460.8"  >
Trichoderma virens Gv29-8 TRIVIscaffold 6, whole genome ...</text>
<line y1="85" x2="778.0" style="stroke:grey; stroke-width:1; " x1="10" y2="85"  />
<polygon style="stroke:black; stroke-width:1; fill:#FFFFFF; " description="hypothetical_protein[br]Location: 2266141 - 2267383" locus_tag="TRIVIDRAFT_16041" id="clusterblast-1_h61_8_0" points="10,90 24,90 29,85 24,80 10,80 10,90 " class="clusterblast-orf"  />
<polygon style="stroke:black; stroke-width:1; fill:#FFFFFF; " description="hypothetical_protein[br]Location: 2269628 - 2271538" locus_tag="TRIVIDRAFT_180068" id="clusterblast-1_h61_8_1" points="64,90 89,90 94,85 89,80 64,80 64,90 " class="clusterblast-orf"  />
<polygon style="stroke:black; stroke-width:1; fill:#FFFFFF; " description="hypothetical_protein[br]Location: 2272617 - 2273284" locus_tag="TRIVIDRAFT_27987" id="clusterblast-1_h61_8_2" points="111,85 116,80 122,80 122,90 116,90 111,85 " class="clusterblast-orf"  />
<polygon style="stroke:black; stroke-width:1; fill:#FFFFFF; " description="hypothetical_protein[br]Location: 2273912 - 2274350" locus_tag="TRIVIDRAFT_222054" id="clusterblast-1_h61_8_3" points="131,85 136,80 138,80 138,90 136,90 131,85 " class="clusterblast-orf"  />
<polygon style="stroke:black; stroke-width:1; fill:#FFFFFF; " description="glycoside_hydrolase_family_20_protein[br]Location: 2274754 - 2277013" locus_tag="TRIVIDRAFT_180069" id="clusterblast-1_h61_8_4" points="145,85 150,80 180,80 180,90 150,90 145,85 " class="clusterblast-orf"  />
<polygon style="stroke:black; stroke-width:1; fill:#FFFFFF; " description="hypothetical_protein[br]Location: 2280140 - 2282726" locus_tag="TRIVIDRAFT_29732" id="clusterblast-1_h61_8_5" points="229,90 265,90 270,85 265,80 229,80 229,90 " class="clusterblast-orf"  />
<polygon style="stroke:black; stroke-width:1; fill:#FFFFFF; " description="hypothetical_protein[br]Location: 2283688 - 2284152" locus_tag="TRIVIDRAFT_216106" id="clusterblast-1_h61_8_6" points="285,85 290,80 292,80 292,90 290,90 285,85 " class="clusterblast-orf"  />
<polygon style="stroke:black; stroke-width:1; fill:#FFFFFF; " description="hypothetical_protein[br]Location: 2285457 - 2286064" locus_tag="TRIVIDRAFT_28822" id="clusterblast-1_h61_8_7" points="312,85 317,80 322,80 322,90 317,90 312,85 " class="clusterblast-orf"  />
<polygon style="stroke:black; stroke-width:1; fill:green; " description="putative_polyketide_synthase[br]Location: 2286988 - 2293963&lt;br&gt;&lt;br&gt;&lt;b&gt;BlastP hit with CHAFR746836_0049890.1&lt;/b&gt;&lt;br&gt;Percentage identity: 47%&lt;br&gt;Percentage coverage: 90%&lt;br&gt;BLAST bit score: 1878&lt;br&gt;E-value: 0.0" locus_tag="TRIVIDRAFT_53926" id="clusterblast-1_h61_8_8" points="336,85 341,80 446,80 446,90 341,90 336,85 " class="clusterblast-orf"  />
<polygon style="stroke:black; stroke-width:1; fill:blue; " description="hypothetical_protein[br]Location: 2295807 - 2296765&lt;br&gt;&lt;br&gt;&lt;b&gt;BlastP hit with CHAFR746836_0049900.1&lt;/b&gt;&lt;br&gt;Percentage identity: 46%&lt;br&gt;Percentage coverage: 96%&lt;br&gt;BLAST bit score: 233&lt;br&gt;E-value: 3e-74" locus_tag="TRIVIDRAFT_29725" id="clusterblast-1_h61_8_9" points="475,90 485,90 490,85 485,80 475,80 475,90 " class="clusterblast-orf"  />
<polygon style="stroke:black; stroke-width:1; fill:#FFFFFF; " description="glycosyltransferase_family_1_protein[br]Location: 2297637 - 2299297" locus_tag="TRIVIDRAFT_150816" id="clusterblast-1_h61_8_10" points="504,90 525,90 530,85 525,80 504,80 504,90 " class="clusterblast-orf"  />
<polygon style="stroke:black; stroke-width:1; fill:#FFFFFF; " description="hypothetical_protein[br]Location: 2307969 - 2309129" locus_tag="TRIVIDRAFT_29675" id="clusterblast-1_h61_8_11" points="666,90 679,90 684,85 679,80 666,80 666,90 " class="clusterblast-orf"  />
<polygon style="stroke:black; stroke-width:1; fill:#FFFFFF; " description="hypothetical_protein[br]Location: 2311666 - 2315106" locus_tag="TRIVIDRAFT_222063" id="clusterblast-1_h61_8_12" points="724,85 729,80 778,80 778,90 729,90 724,85 " class="clusterblast-orf"  />
</g>
</svg>
