<svg xmlns="http://www.w3.org/2000/svg" height="330" width="800" version="1.1" y="0" x="0" preserveAspectRatio="none" xmlns:xlink="http://www.w3.org/1999/xlink" viewBox="0 0 800 330"  >
<g class="clusterblast-cluster" label="Query sequence"  >
<text class="clusterblast-acc" y="10" x="5"  >
Query sequence</text>
<line y1="35" x2="778.0" style="stroke:grey; stroke-width:1; " x1="10" y2="35"  />
<polygon style="stroke:black; stroke-width:1; fill:#FFFFFF; " description="unannotated orf[br]Location: 26281 - 31608" locus_tag="CHAFR746836_0084640.1" class="clusterblast-orf" points="219,40 252,40 257,35 252,30 219,30 219,40 " id="clusterblast-1_all_16_0_0"  />
<polygon style="stroke:black; stroke-width:1; fill:#FFFFFF; " description="unannotated orf[br]Location: 38353 - 39581" locus_tag="CHAFR746836_0084650.1" class="clusterblast-orf" points="306,40 310,40 315,35 310,30 306,30 306,40 " id="clusterblast-1_all_16_0_1"  />
<polygon style="stroke:black; stroke-width:1; fill:#FFFFFF; " description="unannotated orf[br]Location: 44228 - 48651" locus_tag="CHAFR746836_0084660.1" class="clusterblast-orf" points="349,35 354,30 381,30 381,40 354,40 349,35 " id="clusterblast-1_all_16_0_2"  />
<polygon style="stroke:black; stroke-width:1; fill:red; " description="unannotated orf[br]Location: 50656 - 54036" locus_tag="CHAFR746836_0084670.1" class="clusterblast-orf" points="396,40 416,40 421,35 416,30 396,30 396,40 " id="clusterblast-1_all_16_0_3"  />
<polygon style="stroke:black; stroke-width:1; fill:green; " description="unannotated orf[br]Location: 70727 - 72035" locus_tag="CHAFR746836_0084680.1" class="clusterblast-orf" points="542,35 547,30 552,30 552,40 547,40 542,35 " id="clusterblast-1_all_16_0_4"  />
<polygon style="stroke:black; stroke-width:1; fill:#FFFFFF; " description="unannotated orf[br]Location: 72765 - 74194" locus_tag="CHAFR746836_0084690.1" class="clusterblast-orf" points="557,40 562,40 567,35 562,30 557,30 557,40 " id="clusterblast-1_all_16_0_5"  />
</g>
<g class="clusterblast-cluster" description="Streptomyces clavuligerus ATCC 27064 plasmid pSCL4, whol..." label="NZ_CM000914.1_c10"  >
<text class="clusterblast-acc" y="60" x="5"  >
NZ_CM000914.1_c10</text>
<text class="clusterblast-desc" y="60" x="460.8"  >
Streptomyces clavuligerus ATCC 27064 plasmid pSCL4, whol...</text>
<line y1="85" x2="778.0" style="stroke:grey; stroke-width:1; " x1="10" y2="85"  />
<polygon style="stroke:black; stroke-width:1; fill:#FFFFFF; " description="putative_O-methyltransferase[br]Location: 1589296 - 1590474" locus_tag="SCLAV_p1392" id="clusterblast-1_all_16_1_0" points="647,85 652,80 655,80 655,90 652,90 647,85 " class="clusterblast-orf"  />
<polygon style="stroke:black; stroke-width:1; fill:#FFFFFF; " description="GCN5-related_N-acetyltransferase[br]Location: 1590494 - 1591039" locus_tag="SCLAV_p1393" id="clusterblast-1_all_16_1_1" points="643,90 647,85 643,80 643,90 " class="clusterblast-orf"  />
<polygon style="stroke:black; stroke-width:1; fill:#FFFFFF; " description="CRP_family_transcriptional_regulator[br]Location: 1591185 - 1592360" locus_tag="SCLAV_p1394" id="clusterblast-1_all_16_1_2" points="634,85 639,80 642,80 642,90 639,90 634,85 " class="clusterblast-orf"  />
<polygon style="stroke:black; stroke-width:1; fill:#FFFFFF; " description="ABC_transporter_related_protein[br]Location: 1592712 - 1593581" locus_tag="SCLAV_p1395" id="clusterblast-1_all_16_1_3" points="625,85 630,80 631,80 631,90 630,90 625,85 " class="clusterblast-orf"  />
<polygon style="stroke:black; stroke-width:1; fill:#FFFFFF; " description="ABC_transporter_related_protein[br]Location: 1593578 - 1594384" locus_tag="SCLAV_p1396" id="clusterblast-1_all_16_1_4" points="619,85 624,80 625,80 625,90 624,90 619,85 " class="clusterblast-orf"  />
<polygon style="stroke:black; stroke-width:1; fill:#FFFFFF; " description="lipoprotein[br]Location: 1594494 - 1595600" locus_tag="SCLAV_p1397" id="clusterblast-1_all_16_1_5" points="610,85 615,80 618,80 618,90 615,90 610,85 " class="clusterblast-orf"  />
<polygon style="stroke:black; stroke-width:1; fill:#FFFFFF; " description="sulfatase[br]Location: 1595597 - 1597411" locus_tag="SCLAV_p1398" id="clusterblast-1_all_16_1_6" points="597,85 602,80 610,80 610,90 602,90 597,85 " class="clusterblast-orf"  />
<polygon style="stroke:black; stroke-width:1; fill:#FFFFFF; " description="Hypothetical_protein[br]Location: 1597392 - 1599719" locus_tag="SCLAV_p1399" id="clusterblast-1_all_16_1_7" points="580,85 585,80 597,80 597,90 585,90 580,85 " class="clusterblast-orf"  />
<polygon style="stroke:black; stroke-width:1; fill:#FFFFFF; " description="AraC_family_transcription_regulator[br]Location: 1599775 - 1600800" locus_tag="SCLAV_p1400" id="clusterblast-1_all_16_1_8" points="572,85 577,80 580,80 580,90 577,90 572,85 " class="clusterblast-orf"  />
<polygon style="stroke:black; stroke-width:1; fill:#FFFFFF; " description="Hypothetical_protein[br]Location: 1600974 - 1601390" locus_tag="SCLAV_p1401" id="clusterblast-1_all_16_1_9" points="568,85 571,80 571,90 568,85 " class="clusterblast-orf"  />
<polygon style="stroke:black; stroke-width:1; fill:#FFFFFF; " description="Actinohivin[br]Location: 1601467 - 1602042" locus_tag="SCLAV_p1402" id="clusterblast-1_all_16_1_10" points="563,90 567,85 563,80 563,90 " class="clusterblast-orf"  />
<polygon style="stroke:black; stroke-width:1; fill:#FFFFFF; " description="DNA-binding_protein[br]Location: 1602212 - 1603051" locus_tag="SCLAV_p1403" id="clusterblast-1_all_16_1_11" points="556,85 561,80 562,80 562,90 561,90 556,85 " class="clusterblast-orf"  />
<polygon style="stroke:black; stroke-width:1; fill:#FFFFFF; " description="Multicopper_oxidase,_type_2[br]Location: 1603111 - 1604877" locus_tag="SCLAV_p1404" id="clusterblast-1_all_16_1_12" points="543,90 550,90 555,85 550,80 543,80 543,90 " class="clusterblast-orf"  />
<polygon style="stroke:black; stroke-width:1; fill:#FFFFFF; " description="integrin-like_protein[br]Location: 1605533 - 1607005" locus_tag="SCLAV_p1405" id="clusterblast-1_all_16_1_13" points="527,85 532,80 538,80 538,90 532,90 527,85 " class="clusterblast-orf"  />
<polygon style="stroke:black; stroke-width:1; fill:#FFFFFF; " description="V8-like_Glu-specific_endopeptidase[br]Location: 1607370 - 1608503" locus_tag="SCLAV_p1406" id="clusterblast-1_all_16_1_14" points="516,85 521,80 524,80 524,90 521,90 516,85 " class="clusterblast-orf"  />
<polygon style="stroke:black; stroke-width:1; fill:#FFFFFF; " description="Pentalenene_synthase[br]Location: 1608584 - 1609687" locus_tag="SCLAV_p1407" id="clusterblast-1_all_16_1_15" points="508,90 511,90 516,85 511,80 508,80 508,90 " class="clusterblast-orf"  />
<polygon style="stroke:black; stroke-width:1; fill:#FFFFFF; " description="V8-like_Glu-specific_endopeptidase[br]Location: 1609810 - 1610859" locus_tag="SCLAV_p1408" id="clusterblast-1_all_16_1_16" points="499,85 504,80 507,80 507,90 504,90 499,85 " class="clusterblast-orf"  />
<polygon style="stroke:black; stroke-width:1; fill:#FFFFFF; " description="cytochrome_P450[br]Location: 1610959 - 1612146" locus_tag="SCLAV_p1409" id="clusterblast-1_all_16_1_17" points="490,90 493,90 498,85 493,80 490,80 490,90 " class="clusterblast-orf"  />
<polygon style="stroke:black; stroke-width:1; fill:#FFFFFF; " description="DUF397_domain-containing_protein[br]Location: 1612404 - 1612601" locus_tag="SCLAV_p1410" id="clusterblast-1_all_16_1_18" points="486,85 488,80 488,90 486,85 " class="clusterblast-orf"  />
<polygon style="stroke:black; stroke-width:1; fill:#FFFFFF; " description="Hypothetical_protein[br]Location: 1612761 - 1614086" locus_tag="SCLAV_p1411" id="clusterblast-1_all_16_1_19" points="476,90 480,90 485,85 480,80 476,80 476,90 " class="clusterblast-orf"  />
<polygon style="stroke:black; stroke-width:1; fill:#FFFFFF; " description="Putative_membrane_protein[br]Location: 1614223 - 1615353" locus_tag="SCLAV_p1412" id="clusterblast-1_all_16_1_20" points="466,90 470,90 475,85 470,80 466,80 466,90 " class="clusterblast-orf"  />
<polygon style="stroke:black; stroke-width:1; fill:#FFFFFF; " description="Hypothetical_protein[br]Location: 1615723 - 1616211" locus_tag="SCLAV_p1413" id="clusterblast-1_all_16_1_21" points="460,85 464,80 464,90 460,85 " class="clusterblast-orf"  />
<polygon style="stroke:black; stroke-width:1; fill:#FFFFFF; " description="Hypothetical_protein[br]Location: 1616426 - 1617613" locus_tag="SCLAV_p1414" id="clusterblast-1_all_16_1_22" points="450,85 455,80 459,80 459,90 455,90 450,85 " class="clusterblast-orf"  />
<polygon style="stroke:black; stroke-width:1; fill:#FFFFFF; " description="putative_hydrolase[br]Location: 1618118 - 1619692" locus_tag="SCLAV_p1415" id="clusterblast-1_all_16_1_23" points="435,90 441,90 446,85 441,80 435,80 435,90 " class="clusterblast-orf"  />
<polygon style="stroke:black; stroke-width:1; fill:#FFFFFF; " description="Hypothetical_protein[br]Location: 1620055 - 1620954" locus_tag="SCLAV_p1416" id="clusterblast-1_all_16_1_24" points="426,85 431,80 432,80 432,90 431,90 426,85 " class="clusterblast-orf"  />
<polygon style="stroke:black; stroke-width:1; fill:#FFFFFF; " description="Hypothetical_protein[br]Location: 1621223 - 1621918" locus_tag="SCLAV_p1417" id="clusterblast-1_all_16_1_25" points="419,90 419,90 424,85 419,80 419,80 419,90 " class="clusterblast-orf"  />
<polygon style="stroke:black; stroke-width:1; fill:#FFFFFF; " description="Putative_glucan_synthasis_protein[br]Location: 1622216 - 1622905" locus_tag="SCLAV_p1418" id="clusterblast-1_all_16_1_26" points="411,85 416,80 416,80 416,90 416,90 411,85 " class="clusterblast-orf"  />
<polygon style="stroke:black; stroke-width:1; fill:#FFFFFF; " description="putative_MarR_family_transcriptional_regulator[br]Location: 1623055 - 1623540" locus_tag="SCLAV_p1419" id="clusterblast-1_all_16_1_27" points="407,90 410,85 407,80 407,90 " class="clusterblast-orf"  />
<polygon style="stroke:black; stroke-width:1; fill:green; " description="short-chain_dehydrogenase/reductase_SDR[br]Location: 1623588 - 1624445&lt;br&gt;&lt;br&gt;&lt;b&gt;BlastP hit with CHAFR746836_0084680.1&lt;/b&gt;&lt;br&gt;Percentage identity: 34%&lt;br&gt;Percentage coverage: 43%&lt;br&gt;BLAST bit score: 88&lt;br&gt;E-value: 1e-18" locus_tag="SCLAV_p1420" id="clusterblast-1_all_16_1_28" points="400,85 405,80 406,80 406,90 405,90 400,85 " class="clusterblast-orf"  />
<polygon style="stroke:black; stroke-width:1; fill:#FFFFFF; " description="Hypothetical_protein[br]Location: 1624545 - 1628207" locus_tag="SCLAV_p1421" id="clusterblast-1_all_16_1_29" points="373,90 394,90 399,85 394,80 373,80 373,90 " class="clusterblast-orf"  />
<polygon style="stroke:black; stroke-width:1; fill:#FFFFFF; " description="Putative_secreted_serine_protease[br]Location: 1628531 - 1629778" locus_tag="SCLAV_p1422" id="clusterblast-1_all_16_1_30" points="361,90 365,90 370,85 365,80 361,80 361,90 " class="clusterblast-orf"  />
<polygon style="stroke:black; stroke-width:1; fill:#FFFFFF; " description="putative_sulfatase[br]Location: 1629932 - 1631353" locus_tag="SCLAV_p1423" id="clusterblast-1_all_16_1_31" points="350,90 355,90 360,85 355,80 350,80 350,90 " class="clusterblast-orf"  />
<polygon style="stroke:black; stroke-width:1; fill:#FFFFFF; " description="Hypothetical_protein[br]Location: 1632188 - 1632865" locus_tag="SCLAV_p1424" id="clusterblast-1_all_16_1_32" points="339,85 344,80 344,80 344,90 344,90 339,85 " class="clusterblast-orf"  />
<polygon style="stroke:black; stroke-width:1; fill:#FFFFFF; " description="Hypothetical_protein[br]Location: 1633171 - 1633722" locus_tag="SCLAV_p1425" id="clusterblast-1_all_16_1_33" points="333,85 337,80 337,90 333,85 " class="clusterblast-orf"  />
<polygon style="stroke:black; stroke-width:1; fill:#FFFFFF; " description="Putative_non-ribosomal_synthetase[br]Location: 1633980 - 1635464" locus_tag="SCLAV_p1426" id="clusterblast-1_all_16_1_34" points="320,90 326,90 331,85 326,80 320,80 320,90 " class="clusterblast-orf"  />
<polygon style="stroke:black; stroke-width:1; fill:red; " description="Non-ribosomal_peptide_synthetase[br]Location: 1635461 - 1640443&lt;br&gt;&lt;br&gt;&lt;b&gt;BlastP hit with CHAFR746836_0084670.1&lt;/b&gt;&lt;br&gt;Percentage identity: 33%&lt;br&gt;Percentage coverage: 12%&lt;br&gt;BLAST bit score: 66&lt;br&gt;E-value: 1e-09" locus_tag="SCLAV_p1427" id="clusterblast-1_all_16_1_35" points="284,90 315,90 320,85 315,80 284,80 284,90 " class="clusterblast-orf"  />
<polygon style="stroke:black; stroke-width:1; fill:#FFFFFF; " description="prenyltransferase/squalene_oxidase[br]Location: 1640913 - 1642478" locus_tag="SCLAV_p1428" id="clusterblast-1_all_16_1_36" points="269,90 275,90 280,85 275,80 269,80 269,90 " class="clusterblast-orf"  />
<polygon style="stroke:black; stroke-width:1; fill:#FFFFFF; " description="Terpene_synthase,_metal-binding_protein[br]Location: 1642465 - 1643457" locus_tag="SCLAV_p1429" id="clusterblast-1_all_16_1_37" points="262,90 264,90 269,85 264,80 262,80 262,90 " class="clusterblast-orf"  />
<polygon style="stroke:black; stroke-width:1; fill:#FFFFFF; " description="Hypothetical_protein[br]Location: 1643526 - 1643720" locus_tag="SCLAV_p1430" id="clusterblast-1_all_16_1_38" points="260,85 261,80 261,90 260,85 " class="clusterblast-orf"  />
<polygon style="stroke:black; stroke-width:1; fill:#FFFFFF; " description="Putative_surface_layer_protein[br]Location: 1643838 - 1645346" locus_tag="SCLAV_p1431" id="clusterblast-1_all_16_1_39" points="248,90 254,90 259,85 254,80 248,80 248,90 " class="clusterblast-orf"  />
<polygon style="stroke:black; stroke-width:1; fill:#FFFFFF; " description="Hypothetical_protein[br]Location: 1645466 - 1645642" locus_tag="SCLAV_p1432" id="clusterblast-1_all_16_1_40" points="246,90 247,85 246,80 246,90 " class="clusterblast-orf"  />
<polygon style="stroke:black; stroke-width:1; fill:#FFFFFF; " description="Putative_membrane_protein[br]Location: 1645778 - 1651477" locus_tag="SCLAV_p1433" id="clusterblast-1_all_16_1_41" points="203,85 208,80 245,80 245,90 208,90 203,85 " class="clusterblast-orf"  />
<polygon style="stroke:black; stroke-width:1; fill:#FFFFFF; " description="Hypothetical_protein[br]Location: 1651807 - 1652463" locus_tag="SCLAV_p1434" id="clusterblast-1_all_16_1_42" points="196,85 201,80 201,80 201,90 201,90 196,85 " class="clusterblast-orf"  />
<polygon style="stroke:black; stroke-width:1; fill:#FFFFFF; " description="integral_membrane_protein[br]Location: 1652574 - 1652987" locus_tag="SCLAV_p1435" id="clusterblast-1_all_16_1_43" points="192,90 195,85 192,80 192,90 " class="clusterblast-orf"  />
<polygon style="stroke:black; stroke-width:1; fill:#FFFFFF; " description="Putative_integral_membrane_protein[br]Location: 1653141 - 1653659" locus_tag="SCLAV_p1436" id="clusterblast-1_all_16_1_44" points="187,90 191,85 187,80 187,90 " class="clusterblast-orf"  />
<polygon style="stroke:black; stroke-width:1; fill:#FFFFFF; " description="Hypothetical_protein[br]Location: 1653871 - 1654266" locus_tag="SCLAV_p1437" id="clusterblast-1_all_16_1_45" points="183,85 186,80 186,90 183,85 " class="clusterblast-orf"  />
<polygon style="stroke:black; stroke-width:1; fill:#FFFFFF; " description="Sensor_protein[br]Location: 1654385 - 1655626" locus_tag="SCLAV_p1438" id="clusterblast-1_all_16_1_46" points="173,90 177,90 182,85 177,80 173,80 173,90 " class="clusterblast-orf"  />
<polygon style="stroke:black; stroke-width:1; fill:#FFFFFF; " description="Response_regulator_receiver[br]Location: 1655623 - 1656252" locus_tag="SCLAV_p1439" id="clusterblast-1_all_16_1_47" points="168,90 168,90 173,85 168,80 168,80 168,90 " class="clusterblast-orf"  />
<polygon style="stroke:black; stroke-width:1; fill:#FFFFFF; " description="Permease,_putative[br]Location: 1656481 - 1657941" locus_tag="SCLAV_p1440" id="clusterblast-1_all_16_1_48" points="156,85 161,80 167,80 167,90 161,90 156,85 " class="clusterblast-orf"  />
<polygon style="stroke:black; stroke-width:1; fill:#FFFFFF; " description="ABC-transporter[br]Location: 1657946 - 1658632" locus_tag="SCLAV_p1441" id="clusterblast-1_all_16_1_49" points="151,85 156,80 156,80 156,90 156,90 151,85 " class="clusterblast-orf"  />
<polygon style="stroke:black; stroke-width:1; fill:#FFFFFF; " description="Hypothetical_protein[br]Location: 1658718 - 1659416" locus_tag="SCLAV_p1442" id="clusterblast-1_all_16_1_50" points="145,90 146,90 151,85 146,80 145,80 145,90 " class="clusterblast-orf"  />
<polygon style="stroke:black; stroke-width:1; fill:#FFFFFF; " description="Integrin_alpha2_domain-containing_protein[br]Location: 1660065 - 1661027" locus_tag="SCLAV_p1443" id="clusterblast-1_all_16_1_51" points="134,85 139,80 141,80 141,90 139,90 134,85 " class="clusterblast-orf"  />
</g>
<g class="clusterblast-cluster" description="Micromonospora sp. ATCC 39149 genomic scaffold supercont..." label="NZ_GG657738.1_c12"  >
<text class="clusterblast-acc" y="110" x="5"  >
NZ_GG657738.1_c12</text>
<text class="clusterblast-desc" y="110" x="460.8"  >
Micromonospora sp. ATCC 39149 genomic scaffold supercont...</text>
<line y1="135" x2="778.0" style="stroke:grey; stroke-width:1; " x1="10" y2="135"  />
<polygon style="stroke:black; stroke-width:1; fill:#FFFFFF; " description="GCN5_N-acetyltransferase[br]Location: 4208273 - 4208914" locus_tag="MCAG_03506" id="clusterblast-1_all_16_2_0" points="218,140 222,135 218,130 218,140 " class="clusterblast-orf"  />
<polygon style="stroke:black; stroke-width:1; fill:#FFFFFF; " description="hypothetical_protein[br]Location: 4209082 - 4209882" locus_tag="MCAG_03507" id="clusterblast-1_all_16_2_1" points="223,140 224,140 229,135 224,130 223,130 223,140 " class="clusterblast-orf"  />
<polygon style="stroke:black; stroke-width:1; fill:#FFFFFF; " description="hypothetical_protein[br]Location: 4210391 - 4210618" locus_tag="MCAG_03508" id="clusterblast-1_all_16_2_2" points="233,135 235,130 235,140 233,135 " class="clusterblast-orf"  />
<polygon style="stroke:black; stroke-width:1; fill:#FFFFFF; " description="hypothetical_protein[br]Location: 4210862 - 4211494" locus_tag="MCAG_03509" id="clusterblast-1_all_16_2_3" points="236,140 236,140 241,135 236,130 236,130 236,140 " class="clusterblast-orf"  />
<polygon style="stroke:black; stroke-width:1; fill:#FFFFFF; " description="transcriptional_regulator[br]Location: 4211633 - 4212532" locus_tag="MCAG_03510" id="clusterblast-1_all_16_2_4" points="242,135 247,130 249,130 249,140 247,140 242,135 " class="clusterblast-orf"  />
<polygon style="stroke:black; stroke-width:1; fill:#FFFFFF; " description="thioredoxin[br]Location: 4212615 - 4213256" locus_tag="MCAG_03511" id="clusterblast-1_all_16_2_5" points="249,140 249,140 254,135 249,130 249,130 249,140 " class="clusterblast-orf"  />
<polygon style="stroke:black; stroke-width:1; fill:#FFFFFF; " description="NAD-dependent_epimerase/dehydratase[br]Location: 4213300 - 4213950" locus_tag="MCAG_03512" id="clusterblast-1_all_16_2_6" points="254,140 254,140 259,135 254,130 254,130 254,140 " class="clusterblast-orf"  />
<polygon style="stroke:black; stroke-width:1; fill:#FFFFFF; " description="MerR-family_transcriptional_regulator[br]Location: 4214427 - 4215179" locus_tag="MCAG_03513" id="clusterblast-1_all_16_2_7" points="262,140 263,140 268,135 263,130 262,130 262,140 " class="clusterblast-orf"  />
<polygon style="stroke:black; stroke-width:1; fill:#FFFFFF; " description="hypothetical_protein[br]Location: 4215176 - 4215922" locus_tag="MCAG_03514" id="clusterblast-1_all_16_2_8" points="268,140 268,140 273,135 268,130 268,130 268,140 " class="clusterblast-orf"  />
<polygon style="stroke:black; stroke-width:1; fill:#FFFFFF; " description="hypothetical_protein[br]Location: 4215869 - 4216123" locus_tag="MCAG_03515" id="clusterblast-1_all_16_2_9" points="273,135 275,130 275,140 273,135 " class="clusterblast-orf"  />
<polygon style="stroke:black; stroke-width:1; fill:#FFFFFF; " description="conserved_hypothetical_protein[br]Location: 4216452 - 4217147" locus_tag="MCAG_03516" id="clusterblast-1_all_16_2_10" points="277,140 277,140 282,135 277,130 277,130 277,140 " class="clusterblast-orf"  />
<polygon style="stroke:black; stroke-width:1; fill:#FFFFFF; " description="xylanase-arabinofuranosidase_bifunctional[br]Location: 4217630 - 4219912" locus_tag="MCAG_03517" id="clusterblast-1_all_16_2_11" points="286,140 297,140 302,135 297,130 286,130 286,140 " class="clusterblast-orf"  />
<polygon style="stroke:black; stroke-width:1; fill:#FFFFFF; " description="conserved_hypothetical_protein[br]Location: 4220694 - 4221620" locus_tag="MCAG_03518" id="clusterblast-1_all_16_2_12" points="308,140 310,140 315,135 310,130 308,130 308,140 " class="clusterblast-orf"  />
<polygon style="stroke:black; stroke-width:1; fill:#FFFFFF; " description="hypothetical_protein[br]Location: 4221623 - 4221838" locus_tag="MCAG_03519" id="clusterblast-1_all_16_2_13" points="315,140 316,135 315,130 315,140 " class="clusterblast-orf"  />
<polygon style="stroke:black; stroke-width:1; fill:#FFFFFF; " description="hypothetical_protein[br]Location: 4221756 - 4222469" locus_tag="MCAG_03520" id="clusterblast-1_all_16_2_14" points="316,140 316,140 321,135 316,130 316,130 316,140 " class="clusterblast-orf"  />
<polygon style="stroke:black; stroke-width:1; fill:#FFFFFF; " description="hypothetical_protein[br]Location: 4222605 - 4222832" locus_tag="MCAG_03521" id="clusterblast-1_all_16_2_15" points="322,140 324,135 322,130 322,140 " class="clusterblast-orf"  />
<polygon style="stroke:black; stroke-width:1; fill:#FFFFFF; " description="hypothetical_protein[br]Location: 4222733 - 4223080" locus_tag="MCAG_03522" id="clusterblast-1_all_16_2_16" points="323,135 325,130 325,140 323,135 " class="clusterblast-orf"  />
<polygon style="stroke:black; stroke-width:1; fill:#FFFFFF; " description="hypothetical_protein[br]Location: 4223507 - 4224727" locus_tag="MCAG_03523" id="clusterblast-1_all_16_2_17" points="328,135 333,130 337,130 337,140 333,140 328,135 " class="clusterblast-orf"  />
<polygon style="stroke:black; stroke-width:1; fill:#FFFFFF; " description="cytochrome_P450[br]Location: 4225432 - 4227876" locus_tag="MCAG_03524" id="clusterblast-1_all_16_2_18" points="342,135 347,130 360,130 360,140 347,140 342,135 " class="clusterblast-orf"  />
<polygon style="stroke:black; stroke-width:1; fill:red; " description="non-ribosomal_peptide_synthetase[br]Location: 4228377 - 4235723&lt;br&gt;&lt;br&gt;&lt;b&gt;BlastP hit with CHAFR746836_0084670.1&lt;/b&gt;&lt;br&gt;Percentage identity: 33%&lt;br&gt;Percentage coverage: 16%&lt;br&gt;BLAST bit score: 89&lt;br&gt;E-value: 1e-16" locus_tag="MCAG_03525" id="clusterblast-1_all_16_2_19" points="364,140 412,140 417,135 412,130 364,130 364,140 " class="clusterblast-orf"  />
<polygon style="stroke:black; stroke-width:1; fill:#FFFFFF; " description="monooxygenase,_FAD-binding[br]Location: 4236334 - 4238472" locus_tag="MCAG_03526" id="clusterblast-1_all_16_2_20" points="422,140 432,140 437,135 432,130 422,130 422,140 " class="clusterblast-orf"  />
<polygon style="stroke:black; stroke-width:1; fill:green; " description="short-chain_dehydrogenase[br]Location: 4238469 - 4239416&lt;br&gt;&lt;br&gt;&lt;b&gt;BlastP hit with CHAFR746836_0084680.1&lt;/b&gt;&lt;br&gt;Percentage identity: 36%&lt;br&gt;Percentage coverage: 21%&lt;br&gt;BLAST bit score: 61&lt;br&gt;E-value: 3e-09" locus_tag="MCAG_03527" id="clusterblast-1_all_16_2_21" points="437,140 439,140 444,135 439,130 437,130 437,140 " class="clusterblast-orf"  />
<polygon style="stroke:black; stroke-width:1; fill:#FFFFFF; " description="hypothetical_protein[br]Location: 4239422 - 4239922" locus_tag="MCAG_03528" id="clusterblast-1_all_16_2_22" points="444,140 448,135 444,130 444,140 " class="clusterblast-orf"  />
<polygon style="stroke:black; stroke-width:1; fill:#FFFFFF; " description="hypothetical_protein[br]Location: 4240009 - 4241025" locus_tag="MCAG_03529" id="clusterblast-1_all_16_2_23" points="449,135 454,130 456,130 456,140 454,140 449,135 " class="clusterblast-orf"  />
<polygon style="stroke:black; stroke-width:1; fill:#FFFFFF; " description="4'-phosphopantetheinyl_transferase[br]Location: 4241092 - 4241799" locus_tag="MCAG_03530" id="clusterblast-1_all_16_2_24" points="456,135 461,130 462,130 462,140 461,140 456,135 " class="clusterblast-orf"  />
<polygon style="stroke:black; stroke-width:1; fill:#FFFFFF; " description="hypothetical_protein[br]Location: 4241796 - 4242116" locus_tag="MCAG_03531" id="clusterblast-1_all_16_2_25" points="462,135 464,130 464,140 462,135 " class="clusterblast-orf"  />
<polygon style="stroke:black; stroke-width:1; fill:#FFFFFF; " description="glycosyl_transferase_family_39[br]Location: 4242426 - 4244150" locus_tag="MCAG_03532" id="clusterblast-1_all_16_2_26" points="466,135 471,130 479,130 479,140 471,140 466,135 " class="clusterblast-orf"  />
<polygon style="stroke:black; stroke-width:1; fill:#FFFFFF; " description="uroporphyrin-III_C/tetrapyrrole[br]Location: 4244234 - 4245082" locus_tag="MCAG_03533" id="clusterblast-1_all_16_2_27" points="479,140 481,140 486,135 481,130 479,130 479,140 " class="clusterblast-orf"  />
<polygon style="stroke:black; stroke-width:1; fill:#FFFFFF; " description="methionyl-tRNA_synthetase[br]Location: 4246424 - 4248235" locus_tag="MCAG_03534" id="clusterblast-1_all_16_2_28" points="495,140 504,140 509,135 504,130 495,130 495,140 " class="clusterblast-orf"  />
<polygon style="stroke:black; stroke-width:1; fill:#FFFFFF; " description="hypothetical_protein[br]Location: 4248512 - 4249291" locus_tag="MCAG_03535" id="clusterblast-1_all_16_2_29" points="511,140 511,140 516,135 511,130 511,130 511,140 " class="clusterblast-orf"  />
<polygon style="stroke:black; stroke-width:1; fill:#FFFFFF; " description="non-heme_chloroperoxidase[br]Location: 4249308 - 4250159" locus_tag="MCAG_03536" id="clusterblast-1_all_16_2_30" points="516,135 521,130 523,130 523,140 521,140 516,135 " class="clusterblast-orf"  />
<polygon style="stroke:black; stroke-width:1; fill:#FFFFFF; " description="hypothetical_protein[br]Location: 4250307 - 4251554" locus_tag="MCAG_03537" id="clusterblast-1_all_16_2_31" points="524,135 529,130 533,130 533,140 529,140 524,135 " class="clusterblast-orf"  />
<polygon style="stroke:black; stroke-width:1; fill:#FFFFFF; " description="hydrolase_tatD[br]Location: 4251720 - 4252637" locus_tag="MCAG_03538" id="clusterblast-1_all_16_2_32" points="534,140 536,140 541,135 536,130 534,130 534,140 " class="clusterblast-orf"  />
<polygon style="stroke:black; stroke-width:1; fill:#FFFFFF; " description="dimethyladenosine_transferase[br]Location: 4252631 - 4253506" locus_tag="MCAG_03539" id="clusterblast-1_all_16_2_33" points="541,140 542,140 547,135 542,130 541,130 541,140 " class="clusterblast-orf"  />
<polygon style="stroke:black; stroke-width:1; fill:#FFFFFF; " description="4-diphosphocytidyl-2-C-methyl-D-erythritol[br]Location: 4254267 - 4254602" locus_tag="MCAG_03540" id="clusterblast-1_all_16_2_34" points="552,140 555,135 552,130 552,140 " class="clusterblast-orf"  />
<polygon style="stroke:black; stroke-width:1; fill:#FFFFFF; " description="ABC_transporter_related[br]Location: 4254698 - 4256533" locus_tag="MCAG_03541" id="clusterblast-1_all_16_2_35" points="556,140 564,140 569,135 564,130 556,130 556,140 " class="clusterblast-orf"  />
</g>
<g class="clusterblast-cluster" description="Streptomyces kanamyceticus strain KCTC 9225 FK506 gene clust..." label="HM116536.1_c1"  >
<text class="clusterblast-acc" y="160" x="5"  >
HM116536.1_c1</text>
<text class="clusterblast-desc" y="160" x="460.8"  >
Streptomyces kanamyceticus strain KCTC 9225 FK506 gene clust...</text>
<line y1="185" x2="778.0" style="stroke:grey; stroke-width:1; " x1="10" y2="185"  />
<polygon style="stroke:black; stroke-width:1; fill:#FFFFFF; " description="probable_NAD-dependent_formate_dehdyrogenase[br]Location: 122 - 1297" locus_tag="Tcs_SK_001" id="clusterblast-1_all_16_3_0" points="10,190 13,190 18,185 13,180 10,180 10,190 " class="clusterblast-orf"  />
<polygon style="stroke:black; stroke-width:1; fill:#FFFFFF; " description="hypothetical_protein[br]Location: 1462 - 2061" locus_tag="Tcs_SK_002" id="clusterblast-1_all_16_3_1" points="19,185 24,180 24,180 24,190 24,190 19,185 " class="clusterblast-orf"  />
<polygon style="stroke:black; stroke-width:1; fill:#FFFFFF; " description="hypothetical_protein[br]Location: 2092 - 2319" locus_tag="Tcs_SK_003" id="clusterblast-1_all_16_3_2" points="24,190 25,185 24,180 24,190 " class="clusterblast-orf"  />
<polygon style="stroke:black; stroke-width:1; fill:#FFFFFF; " description="putative_tetR-family_transcriptional_regulator[br]Location: 2376 - 2990" locus_tag="Tcs_SK_004" id="clusterblast-1_all_16_3_3" points="26,185 30,180 30,190 26,185 " class="clusterblast-orf"  />
<polygon style="stroke:black; stroke-width:1; fill:green; " description="putative_oxidoreductase[br]Location: 2990 - 3838&lt;br&gt;&lt;br&gt;&lt;b&gt;BlastP hit with CHAFR746836_0084680.1&lt;/b&gt;&lt;br&gt;Percentage identity: 37%&lt;br&gt;Percentage coverage: 27%&lt;br&gt;BLAST bit score: 72&lt;br&gt;E-value: 4e-13" locus_tag="Tcs_SK_005" id="clusterblast-1_all_16_3_4" points="30,185 35,180 37,180 37,190 35,190 30,185 " class="clusterblast-orf"  />
<polygon style="stroke:black; stroke-width:1; fill:#FFFFFF; " description="TPR_repeat_protein[br]Location: 4272 - 4940" locus_tag="Tcs_SK_006" id="clusterblast-1_all_16_3_5" points="40,185 45,180 45,180 45,190 45,190 40,185 " class="clusterblast-orf"  />
<polygon style="stroke:black; stroke-width:1; fill:#FFFFFF; " description="hypothetical_protein[br]Location: 5155 - 5286" locus_tag="Tcs_SK_007" id="clusterblast-1_all_16_3_6" points="46,185 47,180 47,190 46,185 " class="clusterblast-orf"  />
<polygon style="stroke:black; stroke-width:1; fill:#FFFFFF; " description="putative_transcriptional_regulator[br]Location: 5499 - 5891" locus_tag="Tcs_SK_008" id="clusterblast-1_all_16_3_7" points="49,185 52,180 52,190 49,185 " class="clusterblast-orf"  />
<polygon style="stroke:black; stroke-width:1; fill:#FFFFFF; " description="hypothetical_protein[br]Location: 5947 - 6102" locus_tag="Tcs_SK_009" id="clusterblast-1_all_16_3_8" points="52,185 53,180 53,190 52,185 " class="clusterblast-orf"  />
<polygon style="stroke:black; stroke-width:1; fill:#FFFFFF; " description="FrnE[br]Location: 6174 - 6557" locus_tag="Tcs_SK_010" id="clusterblast-1_all_16_3_9" points="54,190 56,185 54,180 54,190 " class="clusterblast-orf"  />
<polygon style="stroke:black; stroke-width:1; fill:#FFFFFF; " description="FMN-dependent_NADH-azoreductase[br]Location: 6605 - 7249" locus_tag="Tcs_SK_011" id="clusterblast-1_all_16_3_10" points="57,190 61,185 57,180 57,190 " class="clusterblast-orf"  />
<polygon style="stroke:black; stroke-width:1; fill:#FFFFFF; " description="hypothetical_protein[br]Location: 7392 - 8735" locus_tag="Tcs_SK_012" id="clusterblast-1_all_16_3_11" points="62,185 67,180 72,180 72,190 67,190 62,185 " class="clusterblast-orf"  />
<polygon style="stroke:black; stroke-width:1; fill:#FFFFFF; " description="hypothetical_protein[br]Location: 8757 - 9314" locus_tag="Tcs_SK_013" id="clusterblast-1_all_16_3_12" points="72,185 76,180 76,190 72,185 " class="clusterblast-orf"  />
<polygon style="stroke:black; stroke-width:1; fill:#FFFFFF; " description="hypothetical_protein[br]Location: 9500 - 9814" locus_tag="Tcs_SK_014" id="clusterblast-1_all_16_3_13" points="78,185 80,180 80,190 78,185 " class="clusterblast-orf"  />
<polygon style="stroke:black; stroke-width:1; fill:#FFFFFF; " description="transcriptional_regulator,_LysR_family[br]Location: 10018 - 10905" locus_tag="Tcs_SK_015" id="clusterblast-1_all_16_3_14" points="82,190 83,190 88,185 83,180 82,180 82,190 " class="clusterblast-orf"  />
<polygon style="stroke:black; stroke-width:1; fill:#FFFFFF; " description="hypothetical_protein[br]Location: 10954 - 11859" locus_tag="Tcs_SK_016" id="clusterblast-1_all_16_3_15" points="88,185 93,180 95,180 95,190 93,190 88,185 " class="clusterblast-orf"  />
<polygon style="stroke:black; stroke-width:1; fill:#FFFFFF; " description="hypothetical_protein[br]Location: 11856 - 12221" locus_tag="Tcs_SK_017" id="clusterblast-1_all_16_3_16" points="95,185 98,180 98,190 95,185 " class="clusterblast-orf"  />
<polygon style="stroke:black; stroke-width:1; fill:#FFFFFF; " description="hypothetical_protein[br]Location: 12606 - 13166" locus_tag="Tcs_SK_018" id="clusterblast-1_all_16_3_17" points="100,185 104,180 104,190 100,185 " class="clusterblast-orf"  />
<polygon style="stroke:black; stroke-width:1; fill:#FFFFFF; " description="protein_kinase/transcriptional_regulator,_LuxR[br]Location: 13194 - 15296" locus_tag="Tcs_SK_019" id="clusterblast-1_all_16_3_18" points="105,185 110,180 120,180 120,190 110,190 105,185 " class="clusterblast-orf"  />
<polygon style="stroke:black; stroke-width:1; fill:#FFFFFF; " description="acyl_transferase_domain_protein[br]Location: 15815 - 17095" locus_tag="Tcs_SK_020" id="clusterblast-1_all_16_3_19" points="124,190 128,190 133,185 128,180 124,180 124,190 " class="clusterblast-orf"  />
<polygon style="stroke:black; stroke-width:1; fill:#FFFFFF; " description="polyketide_synthase_module-related_protein[br]Location: 17103 - 19493" locus_tag="Tcs_SK_021" id="clusterblast-1_all_16_3_20" points="133,190 146,190 151,185 146,180 133,180 133,190 " class="clusterblast-orf"  />
<polygon style="stroke:black; stroke-width:1; fill:#FFFFFF; " description="crotonyl-CoA_reductase[br]Location: 19490 - 20827" locus_tag="Tcs_SK_022" id="clusterblast-1_all_16_3_21" points="151,190 155,190 160,185 155,180 151,180 151,190 " class="clusterblast-orf"  />
<polygon style="stroke:black; stroke-width:1; fill:#FFFFFF; " description="acyl-CoA_dehydrogenase[br]Location: 20824 - 21984" locus_tag="Tcs_SK_023" id="clusterblast-1_all_16_3_22" points="160,190 164,190 169,185 164,180 160,180 160,190 " class="clusterblast-orf"  />
<polygon style="stroke:black; stroke-width:1; fill:#FFFFFF; " description="hydroxy-malonyl-ACP_O-methyltransferase[br]Location: 22063 - 22731" locus_tag="Tcs_SK_024" id="clusterblast-1_all_16_3_23" points="169,190 169,190 174,185 169,180 169,180 169,190 " class="clusterblast-orf"  />
<polygon style="stroke:black; stroke-width:1; fill:#FFFFFF; " description="glyceryl_transferase[br]Location: 22709 - 23797" locus_tag="Tcs_SK_025" id="clusterblast-1_all_16_3_24" points="174,185 179,180 182,180 182,190 179,190 174,185 " class="clusterblast-orf"  />
<polygon style="stroke:black; stroke-width:1; fill:#FFFFFF; " description="acyl-CoA_dehydrogenase[br]Location: 23808 - 24908" locus_tag="Tcs_SK_026" id="clusterblast-1_all_16_3_25" points="182,185 187,180 190,180 190,190 187,190 182,185 " class="clusterblast-orf"  />
<polygon style="stroke:black; stroke-width:1; fill:#FFFFFF; " description="acyl_carrier_protein[br]Location: 24901 - 25161" locus_tag="Tcs_SK_027" id="clusterblast-1_all_16_3_26" points="190,185 192,180 192,190 190,185 " class="clusterblast-orf"  />
<polygon style="stroke:black; stroke-width:1; fill:#FFFFFF; " description="glyceryl-ACP_oxidoreductase[br]Location: 25158 - 26009" locus_tag="Tcs_SK_028" id="clusterblast-1_all_16_3_27" points="192,185 197,180 198,180 198,190 197,190 192,185 " class="clusterblast-orf"  />
<polygon style="stroke:black; stroke-width:1; fill:#FFFFFF; " description="lysine_cyclodeaminase[br]Location: 26030 - 27067" locus_tag="Tcs_SK_029" id="clusterblast-1_all_16_3_28" points="198,185 203,180 206,180 206,190 203,190 198,185 " class="clusterblast-orf"  />
<polygon style="stroke:black; stroke-width:1; fill:#FFFFFF; " description="polyketide_synthase[br]Location: 27071 - 37864" locus_tag="Tcs_SK_030" id="clusterblast-1_all_16_3_29" points="206,185 211,180 284,180 284,190 211,190 206,185 " class="clusterblast-orf"  />
<polygon style="stroke:black; stroke-width:1; fill:red; " description="polyketide_synthase[br]Location: 37869 - 60644&lt;br&gt;&lt;br&gt;&lt;b&gt;BlastP hit with CHAFR746836_0084670.1&lt;/b&gt;&lt;br&gt;Percentage identity: 31%&lt;br&gt;Percentage coverage: 12%&lt;br&gt;BLAST bit score: 54&lt;br&gt;E-value: 6e-06" locus_tag="Tcs_SK_031" id="clusterblast-1_all_16_3_30" points="284,185 289,180 450,180 450,190 289,190 284,185 " class="clusterblast-orf"  />
<polygon style="stroke:black; stroke-width:1; fill:#FFFFFF; " description="oxidase[br]Location: 60907 - 61905" locus_tag="Tcs_SK_032" id="clusterblast-1_all_16_3_31" points="452,190 454,190 459,185 454,180 452,180 452,190 " class="clusterblast-orf"  />
<polygon style="stroke:black; stroke-width:1; fill:#FFFFFF; " description="peptide_synthetase[br]Location: 61902 - 66422" locus_tag="Tcs_SK_033" id="clusterblast-1_all_16_3_32" points="459,190 487,190 492,185 487,180 459,180 459,190 " class="clusterblast-orf"  />
<polygon style="stroke:black; stroke-width:1; fill:#FFFFFF; " description="polyketide_synthase[br]Location: 66425 - 85651" locus_tag="Tcs_SK_034" id="clusterblast-1_all_16_3_33" points="492,190 627,190 632,185 627,180 492,180 492,190 " class="clusterblast-orf"  />
<polygon style="stroke:black; stroke-width:1; fill:#FFFFFF; " description="cytochrome_P450[br]Location: 85648 - 86814" locus_tag="Tcs_SK_035" id="clusterblast-1_all_16_3_34" points="632,190 636,190 641,185 636,180 632,180 632,190 " class="clusterblast-orf"  />
<polygon style="stroke:black; stroke-width:1; fill:#FFFFFF; " description="31-O-demethyl-FK506_methyltransferase[br]Location: 86953 - 87591" locus_tag="Tcs_SK_036" id="clusterblast-1_all_16_3_35" points="642,190 646,185 642,180 642,190 " class="clusterblast-orf"  />
<polygon style="stroke:black; stroke-width:1; fill:#FFFFFF; " description="cholesterol_oxidase_regulator[br]Location: 87607 - 90411" locus_tag="Tcs_SK_037" id="clusterblast-1_all_16_3_36" points="647,185 652,180 667,180 667,190 652,190 647,185 " class="clusterblast-orf"  />
<polygon style="stroke:black; stroke-width:1; fill:#FFFFFF; " description="thioesterase[br]Location: 90447 - 91214" locus_tag="Tcs_SK_038" id="clusterblast-1_all_16_3_37" points="667,185 672,180 673,180 673,190 672,190 667,185 " class="clusterblast-orf"  />
<polygon style="stroke:black; stroke-width:1; fill:#FFFFFF; " description="crotonyl-CoA_reductase[br]Location: 91211 - 91552" locus_tag="Tcs_SK_039" id="clusterblast-1_all_16_3_38" points="673,185 675,180 675,190 673,185 " class="clusterblast-orf"  />
<polygon style="stroke:black; stroke-width:1; fill:#FFFFFF; " description="hypothetical_protein[br]Location: 91622 - 91762" locus_tag="Tcs_SK_040" id="clusterblast-1_all_16_3_39" points="676,190 677,185 676,180 676,190 " class="clusterblast-orf"  />
<polygon style="stroke:black; stroke-width:1; fill:#FFFFFF; " description="hypothetical_protein[br]Location: 91805 - 92641" locus_tag="Tcs_SK_041" id="clusterblast-1_all_16_3_40" points="677,185 682,180 683,180 683,190 682,190 677,185 " class="clusterblast-orf"  />
<polygon style="stroke:black; stroke-width:1; fill:#FFFFFF; " description="putative_lipase[br]Location: 92633 - 93091" locus_tag="Tcs_SK_042" id="clusterblast-1_all_16_3_41" points="683,190 687,185 683,180 683,190 " class="clusterblast-orf"  />
<polygon style="stroke:black; stroke-width:1; fill:#FFFFFF; " description="hypothetical_protein[br]Location: 93108 - 93458" locus_tag="Tcs_SK_043" id="clusterblast-1_all_16_3_42" points="687,190 689,185 687,180 687,190 " class="clusterblast-orf"  />
<polygon style="stroke:black; stroke-width:1; fill:#FFFFFF; " description="putative_membrane_protein[br]Location: 93449 - 93610" locus_tag="Tcs_SK_044" id="clusterblast-1_all_16_3_43" points="689,190 690,185 689,180 689,190 " class="clusterblast-orf"  />
<polygon style="stroke:black; stroke-width:1; fill:#FFFFFF; " description="hypothetical_protein[br]Location: 93839 - 94795" locus_tag="Tcs_SK_045" id="clusterblast-1_all_16_3_44" points="692,185 697,180 699,180 699,190 697,190 692,185 " class="clusterblast-orf"  />
<polygon style="stroke:black; stroke-width:1; fill:#FFFFFF; " description="hypothetical_protein[br]Location: 95308 - 95718" locus_tag="Tcs_SK_046" id="clusterblast-1_all_16_3_45" points="703,190 706,185 703,180 703,190 " class="clusterblast-orf"  />
<polygon style="stroke:black; stroke-width:1; fill:#FFFFFF; " description="hypothetical_protein[br]Location: 95722 - 96012" locus_tag="Tcs_SK_047" id="clusterblast-1_all_16_3_46" points="706,185 708,180 708,190 706,185 " class="clusterblast-orf"  />
<polygon style="stroke:black; stroke-width:1; fill:#FFFFFF; " description="hypothetical_protein[br]Location: 96025 - 96180" locus_tag="Tcs_SK_048" id="clusterblast-1_all_16_3_47" points="708,190 709,185 708,180 708,190 " class="clusterblast-orf"  />
<polygon style="stroke:black; stroke-width:1; fill:#FFFFFF; " description="hypothetical_protein[br]Location: 96232 - 97302" locus_tag="Tcs_SK_049" id="clusterblast-1_all_16_3_48" points="709,185 714,180 717,180 717,190 714,190 709,185 " class="clusterblast-orf"  />
<polygon style="stroke:black; stroke-width:1; fill:#FFFFFF; " description="putative_regulatory_protein[br]Location: 97410 - 98402" locus_tag="Tcs_SK_050" id="clusterblast-1_all_16_3_49" points="718,190 720,190 725,185 720,180 718,180 718,190 " class="clusterblast-orf"  />
<polygon style="stroke:black; stroke-width:1; fill:#FFFFFF; " description="putative_zinc-binding_dehydrogenase[br]Location: 98492 - 99445" locus_tag="Tcs_SK_051" id="clusterblast-1_all_16_3_50" points="726,185 731,180 733,180 733,190 731,190 726,185 " class="clusterblast-orf"  />
<polygon style="stroke:black; stroke-width:1; fill:#FFFFFF; " description="regulatory_protein_TetR[br]Location: 99518 - 100102" locus_tag="Tcs_SK_052" id="clusterblast-1_all_16_3_51" points="733,190 733,190 738,185 733,180 733,180 733,190 " class="clusterblast-orf"  />
<polygon style="stroke:black; stroke-width:1; fill:#FFFFFF; " description="hypothetical_protein[br]Location: 100266 - 100676" locus_tag="Tcs_SK_053" id="clusterblast-1_all_16_3_52" points="739,190 742,185 739,180 739,190 " class="clusterblast-orf"  />
<polygon style="stroke:black; stroke-width:1; fill:#FFFFFF; " description="hypothetical_protein[br]Location: 100877 - 101311" locus_tag="Tcs_SK_054" id="clusterblast-1_all_16_3_53" points="743,185 746,180 746,190 743,185 " class="clusterblast-orf"  />
<polygon style="stroke:black; stroke-width:1; fill:#FFFFFF; " description="hypothetical_protein[br]Location: 101319 - 101444" locus_tag="Tcs_SK_055" id="clusterblast-1_all_16_3_54" points="746,190 747,185 746,180 746,190 " class="clusterblast-orf"  />
<polygon style="stroke:black; stroke-width:1; fill:#FFFFFF; " description="hypothetical_protein[br]Location: 101444 - 101617" locus_tag="Tcs_SK_056" id="clusterblast-1_all_16_3_55" points="747,190 749,185 747,180 747,190 " class="clusterblast-orf"  />
<polygon style="stroke:black; stroke-width:1; fill:#FFFFFF; " description="hypothetical_protein[br]Location: 101704 - 102945" locus_tag="Tcs_SK_057" id="clusterblast-1_all_16_3_56" points="749,185 754,180 758,180 758,190 754,190 749,185 " class="clusterblast-orf"  />
<polygon style="stroke:black; stroke-width:1; fill:#FFFFFF; " description="putative_integral_membrane_protein[br]Location: 103057 - 103203" locus_tag="Tcs_SK_058" id="clusterblast-1_all_16_3_57" points="759,185 760,180 760,190 759,185 " class="clusterblast-orf"  />
<polygon style="stroke:black; stroke-width:1; fill:#FFFFFF; " description="hypothetical_protein[br]Location: 103190 - 103831" locus_tag="Tcs_SK_059" id="clusterblast-1_all_16_3_58" points="760,190 760,190 765,185 760,180 760,180 760,190 " class="clusterblast-orf"  />
<polygon style="stroke:black; stroke-width:1; fill:#FFFFFF; " description="sensor_protein[br]Location: 103898 - 105037" locus_tag="Tcs_SK_060" id="clusterblast-1_all_16_3_59" points="765,185 770,180 774,180 774,190 770,190 765,185 " class="clusterblast-orf"  />
<polygon style="stroke:black; stroke-width:1; fill:#FFFFFF; " description="sensor_protein[br]Location: 105077 - 105241" locus_tag="Tcs_SK_061" id="clusterblast-1_all_16_3_60" points="774,185 775,180 775,190 774,185 " class="clusterblast-orf"  />
<polygon style="stroke:black; stroke-width:1; fill:#FFFFFF; " description="putative_two-component_regulator[br]Location: 105259 - 105585" locus_tag="Tcs_SK_062" id="clusterblast-1_all_16_3_61" points="775,185 778,180 778,190 775,185 " class="clusterblast-orf"  />
</g>
</svg>
