<svg xmlns="http://www.w3.org/2000/svg" height="230" width="800" version="1.1" y="0" x="0" preserveAspectRatio="none" xmlns:xlink="http://www.w3.org/1999/xlink" viewBox="0 0 800 230"  >
<g class="clusterblast-cluster" label="Query sequence"  >
<text class="clusterblast-acc" y="10" x="5"  >
Query sequence</text>
<line y1="35" x2="778.0" style="stroke:grey; stroke-width:1; " x1="10" y2="35"  />
<polygon style="stroke:black; stroke-width:1; fill:red; " description="unannotated orf[br]Location: 132361 - 134630" locus_tag="CHAFR746836_0093380.1" class="clusterblast-orf" points="75,35 80,30 117,30 117,40 80,40 75,35 " id="clusterblast-1_q25_3_0"  />
<polygon style="stroke:black; stroke-width:1; fill:green; " description="unannotated orf[br]Location: 135481 - 137568" locus_tag="CHAFR746836_0093390.1" class="clusterblast-orf" points="133,35 138,30 171,30 171,40 138,40 133,35 " id="clusterblast-1_q25_3_1"  />
<polygon style="stroke:black; stroke-width:1; fill:blue; " description="unannotated orf[br]Location: 139704 - 140960" locus_tag="CHAFR746836_0093400.1" class="clusterblast-orf" points="211,40 229,40 234,35 229,30 211,30 211,40 " id="clusterblast-1_q25_3_2"  />
<polygon style="stroke:black; stroke-width:1; fill:#FFFFFF; " description="unannotated orf[br]Location: 141330 - 141954" locus_tag="CHAFR746836_0093410.1" class="clusterblast-orf" points="241,35 246,30 253,30 253,40 246,40 241,35 " id="clusterblast-1_q25_3_3"  />
<polygon style="stroke:black; stroke-width:1; fill:#FFFFFF; " description="unannotated orf[br]Location: 142312 - 143163" locus_tag="CHAFR746836_0093420.1" class="clusterblast-orf" points="260,35 265,30 275,30 275,40 265,40 260,35 " id="clusterblast-1_q25_3_4"  />
<polygon style="stroke:black; stroke-width:1; fill:yellow; " description="unannotated orf[br]Location: 143792 - 145365" locus_tag="CHAFR746836_0093430.1" class="clusterblast-orf" points="287,40 311,40 316,35 311,30 287,30 287,40 " id="clusterblast-1_q25_3_5"  />
<polygon style="stroke:black; stroke-width:1; fill:#FFFFFF; " description="unannotated orf[br]Location: 149266 - 150822" locus_tag="CHAFR746836_0093440.1" class="clusterblast-orf" points="389,35 394,30 418,30 418,40 394,40 389,35 " id="clusterblast-1_q25_3_6"  />
<polygon style="stroke:black; stroke-width:1; fill:#FFFFFF; " description="unannotated orf[br]Location: 152427 - 154072" locus_tag="CHAFR746836_0093450.1" class="clusterblast-orf" points="448,35 453,30 478,30 478,40 453,40 448,35 " id="clusterblast-1_q25_3_7"  />
<polygon style="stroke:black; stroke-width:1; fill:#FFFFFF; " description="unannotated orf[br]Location: 156646 - 158903" locus_tag="CHAFR746836_0093460.1" class="clusterblast-orf" points="526,35 531,30 568,30 568,40 531,40 526,35 " id="clusterblast-1_q25_3_8"  />
<polygon style="stroke:black; stroke-width:1; fill:#FFFFFF; " description="unannotated orf[br]Location: 159870 - 162862" locus_tag="CHAFR746836_0093470.1" class="clusterblast-orf" points="586,40 637,40 642,35 637,30 586,30 586,40 " id="clusterblast-1_q25_3_9"  />
<polygon style="stroke:black; stroke-width:1; fill:#FFFFFF; " description="unannotated orf[br]Location: 164208 - 166576" locus_tag="CHAFR746836_0093480.1" class="clusterblast-orf" points="667,40 706,40 711,35 706,30 667,30 667,40 " id="clusterblast-1_q25_3_10"  />
</g>
<g class="clusterblast-cluster" description="Aspergillus oryzae RIB40 DNA, SC011." label="AP007171.1_c4"  >
<text class="clusterblast-acc" y="60" x="5"  >
AP007171.1_c4</text>
<text class="clusterblast-desc" y="60" x="460.8"  >
Aspergillus oryzae RIB40 DNA, SC011.</text>
<line y1="85" x2="778.0" style="stroke:grey; stroke-width:1; " x1="10" y2="85"  />
<polygon style="stroke:black; stroke-width:1; fill:#FFFFFF; " description="[br]Location: 1064223 - 1067040" locus_tag="AO090011000418" id="clusterblast-1_h25_3_0" points="10,85 15,80 62,80 62,90 15,90 10,85 " class="clusterblast-orf"  />
<polygon style="stroke:black; stroke-width:1; fill:#FFFFFF; " description="[br]Location: 1062198 - 1063548" locus_tag="AO090011000417" id="clusterblast-1_h25_3_1" points="74,85 79,80 100,80 100,90 79,90 74,85 " class="clusterblast-orf"  />
<polygon style="stroke:black; stroke-width:1; fill:#FFFFFF; " description="[br]Location: 1059957 - 1060664" locus_tag="AO090011000416" id="clusterblast-1_h25_3_2" points="128,90 136,90 141,85 136,80 128,80 128,90 " class="clusterblast-orf"  />
<polygon style="stroke:black; stroke-width:1; fill:green; " description="[br]Location: 1057794 - 1059707&lt;br&gt;&lt;br&gt;&lt;b&gt;BlastP hit with CHAFR746836_0093390.1&lt;/b&gt;&lt;br&gt;Percentage identity: 42%&lt;br&gt;Percentage coverage: 97%&lt;br&gt;BLAST bit score: 425&lt;br&gt;E-value: 1e-141" locus_tag="AO090011000415" id="clusterblast-1_h25_3_3" points="146,85 151,80 181,80 181,90 151,90 146,85 " class="clusterblast-orf"  />
<polygon style="stroke:black; stroke-width:1; fill:#FFFFFF; " description="[br]Location: 1055930 - 1057050" locus_tag="AO090011000414" id="clusterblast-1_h25_3_4" points="195,90 211,90 216,85 211,80 195,80 195,90 " class="clusterblast-orf"  />
<polygon style="stroke:black; stroke-width:1; fill:#FFFFFF; " description="[br]Location: 1053886 - 1055459" locus_tag="AO090011000413" id="clusterblast-1_h25_3_5" points="225,90 249,90 254,85 249,80 225,80 225,90 " class="clusterblast-orf"  />
<polygon style="stroke:black; stroke-width:1; fill:#FFFFFF; " description="[br]Location: 1051900 - 1053775" locus_tag="AO090011000412" id="clusterblast-1_h25_3_6" points="256,85 261,80 291,80 291,90 261,90 256,85 " class="clusterblast-orf"  />
<polygon style="stroke:black; stroke-width:1; fill:#FFFFFF; " description="[br]Location: 1049375 - 1051191" locus_tag="AO090011000411" id="clusterblast-1_h25_3_7" points="304,90 333,90 338,85 333,80 304,80 304,90 " class="clusterblast-orf"  />
<polygon style="stroke:black; stroke-width:1; fill:#FFFFFF; " description="[br]Location: 1047060 - 1048604" locus_tag="AO090011000410" id="clusterblast-1_h25_3_8" points="352,85 357,80 381,80 381,90 357,90 352,85 " class="clusterblast-orf"  />
<polygon style="stroke:black; stroke-width:1; fill:yellow; " description="[br]Location: 1044546 - 1045095&lt;br&gt;&lt;br&gt;&lt;b&gt;BlastP hit with CHAFR746836_0093430.1&lt;/b&gt;&lt;br&gt;Percentage identity: 34%&lt;br&gt;Percentage coverage: 40%&lt;br&gt;BLAST bit score: 87&lt;br&gt;E-value: 5e-19" locus_tag="AO090011000408" id="clusterblast-1_h25_3_9" points="418,90 423,90 428,85 423,80 418,80 418,90 " class="clusterblast-orf"  />
<polygon style="stroke:black; stroke-width:1; fill:#FFFFFF; " description="[br]Location: 1039554 - 1040571" locus_tag="AO090011000406" id="clusterblast-1_h25_3_10" points="502,85 507,80 521,80 521,90 507,90 502,85 " class="clusterblast-orf"  />
<polygon style="stroke:black; stroke-width:1; fill:#FFFFFF; " description="[br]Location: 1037610 - 1038567" locus_tag="AO090011000405" id="clusterblast-1_h25_3_11" points="539,90 552,90 557,85 552,80 539,80 539,90 " class="clusterblast-orf"  />
<polygon style="stroke:black; stroke-width:1; fill:#FFFFFF; " description="[br]Location: 1035820 - 1036248" locus_tag="AO090011000404" id="clusterblast-1_h25_3_12" points="582,90 585,90 590,85 585,80 582,80 582,90 " class="clusterblast-orf"  />
<polygon style="stroke:black; stroke-width:1; fill:#FFFFFF; " description="[br]Location: 1035262 - 1035754" locus_tag="AO090011000403" id="clusterblast-1_h25_3_13" points="591,90 595,90 600,85 595,80 591,80 591,90 " class="clusterblast-orf"  />
<polygon style="stroke:black; stroke-width:1; fill:#FFFFFF; " description="[br]Location: 1030328 - 1033641" locus_tag="AO090011000402" id="clusterblast-1_h25_3_14" points="631,90 687,90 692,85 687,80 631,80 631,90 " class="clusterblast-orf"  />
<polygon style="stroke:black; stroke-width:1; fill:#FFFFFF; " description="[br]Location: 1025735 - 1026467" locus_tag="AO090011000401" id="clusterblast-1_h25_3_15" points="764,90 773,90 778,85 773,80 764,80 764,90 " class="clusterblast-orf"  />
</g>
</svg>
