<svg xmlns="http://www.w3.org/2000/svg" height="230" width="800" version="1.1" y="0" x="0" preserveAspectRatio="none" xmlns:xlink="http://www.w3.org/1999/xlink" viewBox="0 0 800 230"  >
<g class="clusterblast-cluster" label="Query sequence"  >
<text class="clusterblast-acc" y="10" x="5"  >
Query sequence</text>
<line y1="35" x2="778.0" style="stroke:grey; stroke-width:1; " x1="10" y2="35"  />
<polygon style="stroke:black; stroke-width:1; fill:rgb(169,42,42); " description="unannotated orf[br]Location: 42361 - 45359" locus_tag="CHAFR746836_0094690.1" class="clusterblast-orf" points="10,35 15,30 30,30 30,40 15,40 10,35 " id="clusterblast-1_q27_3_0"  />
<polygon style="stroke:black; stroke-width:1; fill:#FFFFFF; " description="unannotated orf[br]Location: 45759 - 47601" locus_tag="CHAFR746836_0094700.1" class="clusterblast-orf" points="32,40 40,40 45,35 40,30 32,30 32,40 " id="clusterblast-1_q27_3_1"  />
<polygon style="stroke:black; stroke-width:1; fill:#FFFFFF; " description="unannotated orf[br]Location: 49113 - 50656" locus_tag="CHAFR746836_0094710.1" class="clusterblast-orf" points="55,35 60,30 65,30 65,40 60,40 55,35 " id="clusterblast-1_q27_3_2"  />
<polygon style="stroke:black; stroke-width:1; fill:#FFFFFF; " description="unannotated orf[br]Location: 51961 - 53519" locus_tag="CHAFR746836_0094720.1" class="clusterblast-orf" points="74,35 79,30 84,30 84,40 79,40 74,35 " id="clusterblast-1_q27_3_3"  />
<polygon style="stroke:black; stroke-width:1; fill:rgb(42,169,42); " description="unannotated orf[br]Location: 61574 - 67323" locus_tag="CHAFR746836_0094730.1" class="clusterblast-orf" points="138,35 143,30 177,30 177,40 143,40 138,35 " id="clusterblast-1_q27_3_4"  />
<polygon style="stroke:black; stroke-width:1; fill:rgb(42,169,212); " description="unannotated orf[br]Location: 70255 - 75654" locus_tag="CHAFR746836_0094740.1" class="clusterblast-orf" points="196,40 228,40 233,35 228,30 196,30 196,40 " id="clusterblast-1_q27_3_5"  />
<polygon style="stroke:black; stroke-width:1; fill:rgb(169,169,42); " description="unannotated orf[br]Location: 88624 - 90116" locus_tag="CHAFR746836_0094750.1" class="clusterblast-orf" points="320,35 325,30 330,30 330,40 325,40 320,35 " id="clusterblast-1_q27_3_6"  />
<polygon style="stroke:black; stroke-width:1; fill:#FFFFFF; " description="unannotated orf[br]Location: 91304 - 92309" locus_tag="CHAFR746836_0094760.1" class="clusterblast-orf" points="338,40 339,40 344,35 339,30 338,30 338,40 " id="clusterblast-1_q27_3_7"  />
<polygon style="stroke:black; stroke-width:1; fill:#FFFFFF; " description="unannotated orf[br]Location: 92407 - 93918" locus_tag="CHAFR746836_0094770.1" class="clusterblast-orf" points="345,35 350,30 355,30 355,40 350,40 345,35 " id="clusterblast-1_q27_3_8"  />
<polygon style="stroke:black; stroke-width:1; fill:rgb(169,42,127); " description="unannotated orf[br]Location: 94558 - 96160" locus_tag="CHAFR746836_0094780.1" class="clusterblast-orf" points="359,40 365,40 370,35 365,30 359,30 359,40 " id="clusterblast-1_q27_3_9"  />
<polygon style="stroke:black; stroke-width:1; fill:#FFFFFF; " description="unannotated orf[br]Location: 96488 - 97143" locus_tag="CHAFR746836_0094790.1" class="clusterblast-orf" points="372,35 377,30 377,30 377,40 377,40 372,35 " id="clusterblast-1_q27_3_10"  />
<polygon style="stroke:black; stroke-width:1; fill:#FFFFFF; " description="unannotated orf[br]Location: 99047 - 101039" locus_tag="CHAFR746836_0094800.1" class="clusterblast-orf" points="389,40 398,40 403,35 398,30 389,30 389,40 " id="clusterblast-1_q27_3_11"  />
<polygon style="stroke:black; stroke-width:1; fill:#FFFFFF; " description="unannotated orf[br]Location: 105913 - 106563" locus_tag="CHAFR746836_0094810.1" class="clusterblast-orf" points="435,35 440,30 440,30 440,40 440,40 435,35 " id="clusterblast-1_q27_3_12"  />
<polygon style="stroke:black; stroke-width:1; fill:#FFFFFF; " description="unannotated orf[br]Location: 108528 - 112083" locus_tag="CHAFR746836_0094820.1" class="clusterblast-orf" points="453,40 472,40 477,35 472,30 453,30 453,40 " id="clusterblast-1_q27_3_13"  />
<polygon style="stroke:black; stroke-width:1; fill:rgb(42,42,212); " description="unannotated orf[br]Location: 112908 - 114711" locus_tag="CHAFR746836_0094830.1" class="clusterblast-orf" points="482,35 487,30 494,30 494,40 487,40 482,35 " id="clusterblast-1_q27_3_14"  />
<polygon style="stroke:black; stroke-width:1; fill:rgb(169,169,212); " description="unannotated orf[br]Location: 115507 - 115979" locus_tag="CHAFR746836_0094840.1" class="clusterblast-orf" points="500,40 503,35 500,30 500,40 " id="clusterblast-1_q27_3_15"  />
<polygon style="stroke:black; stroke-width:1; fill:rgb(42,169,127); " description="unannotated orf[br]Location: 116099 - 117436" locus_tag="CHAFR746836_0094850.1" class="clusterblast-orf" points="504,35 509,30 513,30 513,40 509,40 504,35 " id="clusterblast-1_q27_3_16"  />
<polygon style="stroke:black; stroke-width:1; fill:#FFFFFF; " description="unannotated orf[br]Location: 117682 - 118147" locus_tag="CHAFR746836_0094860.1" class="clusterblast-orf" points="514,40 518,35 514,30 514,40 " id="clusterblast-1_q27_3_17"  />
<polygon style="stroke:black; stroke-width:1; fill:#FFFFFF; " description="unannotated orf[br]Location: 119597 - 120815" locus_tag="CHAFR746836_0094870.1" class="clusterblast-orf" points="527,35 532,30 535,30 535,40 532,40 527,35 " id="clusterblast-1_q27_3_18"  />
<polygon style="stroke:black; stroke-width:1; fill:#FFFFFF; " description="unannotated orf[br]Location: 121630 - 122020" locus_tag="CHAFR746836_0094880.1" class="clusterblast-orf" points="541,40 543,35 541,30 541,40 " id="clusterblast-1_q27_3_19"  />
<polygon style="stroke:black; stroke-width:1; fill:#FFFFFF; " description="unannotated orf[br]Location: 122290 - 123684" locus_tag="CHAFR746836_0094890.1" class="clusterblast-orf" points="545,40 550,40 555,35 550,30 545,30 545,40 " id="clusterblast-1_q27_3_20"  />
<polygon style="stroke:black; stroke-width:1; fill:#FFFFFF; " description="unannotated orf[br]Location: 124088 - 124999" locus_tag="CHAFR746836_0094900.1" class="clusterblast-orf" points="557,35 562,30 563,30 563,40 562,40 557,35 " id="clusterblast-1_q27_3_21"  />
<polygon style="stroke:black; stroke-width:1; fill:#FFFFFF; " description="unannotated orf[br]Location: 125439 - 126681" locus_tag="CHAFR746836_0094910.1" class="clusterblast-orf" points="566,40 570,40 575,35 570,30 566,30 566,40 " id="clusterblast-1_q27_3_22"  />
<polygon style="stroke:black; stroke-width:1; fill:#FFFFFF; " description="unannotated orf[br]Location: 127006 - 130058" locus_tag="CHAFR746836_0094920.1" class="clusterblast-orf" points="577,35 582,30 597,30 597,40 582,40 577,35 " id="clusterblast-1_q27_3_23"  />
<polygon style="stroke:black; stroke-width:1; fill:#FFFFFF; " description="unannotated orf[br]Location: 132463 - 134428" locus_tag="CHAFR746836_0094930.1" class="clusterblast-orf" points="613,35 618,30 627,30 627,40 618,40 613,35 " id="clusterblast-1_q27_3_24"  />
<polygon style="stroke:black; stroke-width:1; fill:rgb(169,42,212); " description="unannotated orf[br]Location: 137446 - 138588" locus_tag="CHAFR746836_0094940.2" class="clusterblast-orf" points="647,35 652,30 655,30 655,40 652,40 647,35 " id="clusterblast-1_q27_3_25"  />
<polygon style="stroke:black; stroke-width:1; fill:rgb(42,42,127); " description="unannotated orf[br]Location: 137501 - 138588" locus_tag="CHAFR746836_0094940.1" class="clusterblast-orf" points="647,35 652,30 655,30 655,40 652,40 647,35 " id="clusterblast-1_q27_3_26"  />
<polygon style="stroke:black; stroke-width:1; fill:#FFFFFF; " description="unannotated orf[br]Location: 154744 - 156934" locus_tag="CHAFR746836_0094950.1" class="clusterblast-orf" points="763,40 773,40 778,35 773,30 763,30 763,40 " id="clusterblast-1_q27_3_27"  />
</g>
<g class="clusterblast-cluster" description="Achromobacter piechaudii ATCC 43553 contig00055, whol..." label="NZ_ADMS01000052.1_c1"  >
<text class="clusterblast-acc" y="60" x="5"  >
NZ_ADMS01000052.1_c1</text>
<text class="clusterblast-desc" y="60" x="460.8"  >
Achromobacter piechaudii ATCC 43553 contig00055, whol...</text>
<line y1="85" x2="778.0" style="stroke:grey; stroke-width:1; " x1="10" y2="85"  />
<polygon style="stroke:black; stroke-width:1; fill:#FFFFFF; " description="transcriptional_regulator[br]Location: 14906 - 16345" locus_tag="HMPREF0004_2270" id="clusterblast-1_h27_3_0" points="240,85 245,80 249,80 249,90 245,90 240,85 " class="clusterblast-orf"  />
<polygon style="stroke:black; stroke-width:1; fill:#FFFFFF; " description="prevent-host-death_family_antitoxin[br]Location: 16334 - 16486" locus_tag="HMPREF0004_2271" id="clusterblast-1_h27_3_1" points="249,90 250,85 249,80 249,90 " class="clusterblast-orf"  />
<polygon style="stroke:black; stroke-width:1; fill:#FFFFFF; " description="hypothetical_protein[br]Location: 16502 - 16891" locus_tag="HMPREF0004_2272" id="clusterblast-1_h27_3_2" points="250,90 253,85 250,80 250,90 " class="clusterblast-orf"  />
<polygon style="stroke:black; stroke-width:1; fill:#FFFFFF; " description="conserved_hypothetical_protein[br]Location: 17175 - 17519" locus_tag="HMPREF0004_2273" id="clusterblast-1_h27_3_3" points="255,90 257,85 255,80 255,90 " class="clusterblast-orf"  />
<polygon style="stroke:black; stroke-width:1; fill:#FFFFFF; " description="pyridine_nucleotide-disulfide_oxidoreductase[br]Location: 17738 - 19087" locus_tag="HMPREF0004_2274" id="clusterblast-1_h27_3_4" points="258,90 263,90 268,85 263,80 258,80 258,90 " class="clusterblast-orf"  />
<polygon style="stroke:black; stroke-width:1; fill:#FFFFFF; " description="conserved_hypothetical_protein[br]Location: 19106 - 19513" locus_tag="HMPREF0004_2275" id="clusterblast-1_h27_3_5" points="268,85 270,80 270,90 268,85 " class="clusterblast-orf"  />
<polygon style="stroke:black; stroke-width:1; fill:#FFFFFF; " description="conserved_hypothetical_protein[br]Location: 19575 - 19934" locus_tag="HMPREF0004_2276" id="clusterblast-1_h27_3_6" points="271,85 273,80 273,90 271,85 " class="clusterblast-orf"  />
<polygon style="stroke:black; stroke-width:1; fill:#FFFFFF; " description="entericidin_EcnAB[br]Location: 20147 - 20314" locus_tag="HMPREF0004_2277" id="clusterblast-1_h27_3_7" points="275,90 276,85 275,80 275,90 " class="clusterblast-orf"  />
<polygon style="stroke:black; stroke-width:1; fill:#FFFFFF; " description="conserved_hypothetical_protein[br]Location: 20444 - 20875" locus_tag="HMPREF0004_2278" id="clusterblast-1_h27_3_8" points="277,90 280,85 277,80 277,90 " class="clusterblast-orf"  />
<polygon style="stroke:black; stroke-width:1; fill:#FFFFFF; " description="conserved_hypothetical_protein[br]Location: 20879 - 21289" locus_tag="HMPREF0004_2279" id="clusterblast-1_h27_3_9" points="280,90 282,85 280,80 280,90 " class="clusterblast-orf"  />
<polygon style="stroke:black; stroke-width:1; fill:#FFFFFF; " description="conserved_hypothetical_protein[br]Location: 21274 - 21414" locus_tag="HMPREF0004_2280" id="clusterblast-1_h27_3_10" points="282,85 283,80 283,90 282,85 " class="clusterblast-orf"  />
<polygon style="stroke:black; stroke-width:1; fill:#FFFFFF; " description="aspartate_carbamoyltransferase,_catalytic[br]Location: 21397 - 22689" locus_tag="HMPREF0004_2281" id="clusterblast-1_h27_3_11" points="283,90 287,90 292,85 287,80 283,80 283,90 " class="clusterblast-orf"  />
<polygon style="stroke:black; stroke-width:1; fill:#FFFFFF; " description="diguanylate_kinase[br]Location: 22815 - 24236" locus_tag="HMPREF0004_2282" id="clusterblast-1_h27_3_12" points="293,90 297,90 302,85 297,80 293,80 293,90 " class="clusterblast-orf"  />
<polygon style="stroke:black; stroke-width:1; fill:#FFFFFF; " description="recombination-associated_protein_RdgC[br]Location: 24341 - 25240" locus_tag="HMPREF0004_2283" id="clusterblast-1_h27_3_13" points="303,85 308,80 309,80 309,90 308,90 303,85 " class="clusterblast-orf"  />
<polygon style="stroke:black; stroke-width:1; fill:#FFFFFF; " description="hypothetical_protein[br]Location: 25371 - 25601" locus_tag="HMPREF0004_2284" id="clusterblast-1_h27_3_14" points="310,90 311,85 310,80 310,90 " class="clusterblast-orf"  />
<polygon style="stroke:black; stroke-width:1; fill:#FFFFFF; " description="MFS_family_major_facilitator_transporter[br]Location: 26012 - 27637" locus_tag="HMPREF0004_2285" id="clusterblast-1_h27_3_15" points="314,85 319,80 325,80 325,90 319,90 314,85 " class="clusterblast-orf"  />
<polygon style="stroke:black; stroke-width:1; fill:#FFFFFF; " description="sensor_histidine_kinase[br]Location: 27895 - 29406" locus_tag="HMPREF0004_2286" id="clusterblast-1_h27_3_16" points="327,85 332,80 337,80 337,90 332,90 327,85 " class="clusterblast-orf"  />
<polygon style="stroke:black; stroke-width:1; fill:#FFFFFF; " description="DNA-binding_response_regulator[br]Location: 29384 - 30073" locus_tag="HMPREF0004_2287" id="clusterblast-1_h27_3_17" points="337,85 341,80 341,90 337,85 " class="clusterblast-orf"  />
<polygon style="stroke:black; stroke-width:1; fill:#FFFFFF; " description="recombination_protein_A[br]Location: 30421 - 31482" locus_tag="HMPREF0004_2288" id="clusterblast-1_h27_3_18" points="343,90 346,90 351,85 346,80 343,80 343,90 " class="clusterblast-orf"  />
<polygon style="stroke:black; stroke-width:1; fill:#FFFFFF; " description="regulatory_protein_RecX[br]Location: 31647 - 32414" locus_tag="HMPREF0004_2289" id="clusterblast-1_h27_3_19" points="352,90 352,90 357,85 352,80 352,80 352,90 " class="clusterblast-orf"  />
<polygon style="stroke:black; stroke-width:1; fill:#FFFFFF; " description="HTH-type_transcriptional_regulator_MetR[br]Location: 32427 - 33347" locus_tag="HMPREF0004_2290" id="clusterblast-1_h27_3_20" points="357,85 362,80 363,80 363,90 362,90 357,85 " class="clusterblast-orf"  />
<polygon style="stroke:black; stroke-width:1; fill:#FFFFFF; " description="5-methyltetrahydropteroyltriglutamate--[br]Location: 33492 - 35789" locus_tag="HMPREF0004_2291" id="clusterblast-1_h27_3_21" points="364,90 374,90 379,85 374,80 364,80 364,90 " class="clusterblast-orf"  />
<polygon style="stroke:black; stroke-width:1; fill:#FFFFFF; " description="non-ribosomal_peptide_synthetase[br]Location: 35975 - 39937" locus_tag="HMPREF0004_2292" id="clusterblast-1_h27_3_22" points="381,90 402,90 407,85 402,80 381,80 381,90 " class="clusterblast-orf"  />
<polygon style="stroke:black; stroke-width:1; fill:#FFFFFF; " description="conserved_hypothetical_protein[br]Location: 39968 - 40699" locus_tag="HMPREF0004_2293" id="clusterblast-1_h27_3_23" points="407,90 407,90 412,85 407,80 407,80 407,90 " class="clusterblast-orf"  />
<polygon style="stroke:black; stroke-width:1; fill:#FFFFFF; " description="succinyl-CoA_ligase_subunit_beta[br]Location: 40710 - 41870" locus_tag="HMPREF0004_2294" id="clusterblast-1_h27_3_24" points="412,90 415,90 420,85 415,80 412,80 412,90 " class="clusterblast-orf"  />
<polygon style="stroke:black; stroke-width:1; fill:rgb(169,42,42); " description="succinyl-CoA_synthetase_subunit_alpha[br]Location: 41974 - 42855&lt;br&gt;&lt;br&gt;&lt;b&gt;BlastP hit with CHAFR746836_0094690.1&lt;/b&gt;&lt;br&gt;Percentage identity: 56%&lt;br&gt;Percentage coverage: 39%&lt;br&gt;BLAST bit score: 322&lt;br&gt;E-value: 4e-102" locus_tag="HMPREF0004_2295" id="clusterblast-1_h27_3_25" points="421,90 422,90 427,85 422,80 421,80 421,90 " class="clusterblast-orf"  />
<polygon style="stroke:black; stroke-width:1; fill:#FFFFFF; " description="TerC_family_integral_membrane_protein[br]Location: 43144 - 43842" locus_tag="HMPREF0004_2296" id="clusterblast-1_h27_3_26" points="429,90 433,85 429,80 429,90 " class="clusterblast-orf"  />
<polygon style="stroke:black; stroke-width:1; fill:#FFFFFF; " description="TerC_family_integral_membrane_protein[br]Location: 43900 - 44673" locus_tag="HMPREF0004_2297" id="clusterblast-1_h27_3_27" points="434,90 434,90 439,85 434,80 434,80 434,90 " class="clusterblast-orf"  />
<polygon style="stroke:black; stroke-width:1; fill:#FFFFFF; " description="hypothetical_protein[br]Location: 44660 - 44782" locus_tag="HMPREF0004_2298" id="clusterblast-1_h27_3_28" points="439,90 440,85 439,80 439,90 " class="clusterblast-orf"  />
<polygon style="stroke:black; stroke-width:1; fill:#FFFFFF; " description="hydroxymethylbilane_synthase[br]Location: 44792 - 45739" locus_tag="HMPREF0004_2299" id="clusterblast-1_h27_3_29" points="440,90 441,90 446,85 441,80 440,80 440,90 " class="clusterblast-orf"  />
<polygon style="stroke:black; stroke-width:1; fill:#FFFFFF; " description="uroporphyrinogen-III_synthase[br]Location: 45739 - 46539" locus_tag="HMPREF0004_2300" id="clusterblast-1_h27_3_30" points="446,90 447,90 452,85 447,80 446,80 446,90 " class="clusterblast-orf"  />
<polygon style="stroke:black; stroke-width:1; fill:#FFFFFF; " description="hypothetical_protein[br]Location: 46577 - 47770" locus_tag="HMPREF0004_2301" id="clusterblast-1_h27_3_31" points="452,90 455,90 460,85 455,80 452,80 452,90 " class="clusterblast-orf"  />
<polygon style="stroke:black; stroke-width:1; fill:#FFFFFF; " description="hypothetical_protein[br]Location: 47776 - 49389" locus_tag="HMPREF0004_2302" id="clusterblast-1_h27_3_32" points="460,90 466,90 471,85 466,80 460,80 460,90 " class="clusterblast-orf"  />
<polygon style="stroke:black; stroke-width:1; fill:#FFFFFF; " description="inorganic_diphosphatase[br]Location: 49422 - 49952" locus_tag="HMPREF0004_2303" id="clusterblast-1_h27_3_33" points="471,90 474,85 471,80 471,90 " class="clusterblast-orf"  />
<polygon style="stroke:black; stroke-width:1; fill:#FFFFFF; " description="IclR_family_transcriptional_regulator[br]Location: 49953 - 50789" locus_tag="HMPREF0004_2304" id="clusterblast-1_h27_3_34" points="474,85 479,80 480,80 480,90 479,90 474,85 " class="clusterblast-orf"  />
<polygon style="stroke:black; stroke-width:1; fill:rgb(169,42,212); " description="3-oxoacyl-[acyl-carrier-protein]_reductase[br]Location: 50805 - 51566&lt;br&gt;&lt;br&gt;&lt;b&gt;BlastP hit with CHAFR746836_0094940.2&lt;/b&gt;&lt;br&gt;Percentage identity: 32%&lt;br&gt;Percentage coverage: 65%&lt;br&gt;BLAST bit score: 65&lt;br&gt;E-value: 2e-11&lt;br&gt;&lt;br&gt;&lt;b&gt;BlastP hit with CHAFR746836_0094940.1&lt;/b&gt;&lt;br&gt;Percentage identity: 32%&lt;br&gt;Percentage coverage: 66%&lt;br&gt;BLAST bit score: 65&lt;br&gt;E-value: 2e-11" locus_tag="HMPREF0004_2305" id="clusterblast-1_h27_3_35" points="480,85 485,80 485,80 485,90 485,90 480,85 " class="clusterblast-orf"  />
<polygon style="stroke:black; stroke-width:1; fill:#FFFFFF; " description="branched-chain_amino_acid_ABC_superfamily_ATP[br]Location: 51566 - 52777" locus_tag="HMPREF0004_2306" id="clusterblast-1_h27_3_36" points="485,85 490,80 493,80 493,90 490,90 485,85 " class="clusterblast-orf"  />
<polygon style="stroke:black; stroke-width:1; fill:#FFFFFF; " description="anti-Sigma_factor,_ChrR[br]Location: 52869 - 53267" locus_tag="HMPREF0004_2307" id="clusterblast-1_h27_3_37" points="494,85 497,80 497,90 494,85 " class="clusterblast-orf"  />
<polygon style="stroke:black; stroke-width:1; fill:#FFFFFF; " description="gluconate_5-dehydrogenase[br]Location: 53443 - 54222" locus_tag="HMPREF0004_2308" id="clusterblast-1_h27_3_38" points="498,90 498,90 503,85 498,80 498,80 498,90 " class="clusterblast-orf"  />
<polygon style="stroke:black; stroke-width:1; fill:#FFFFFF; " description="branched-chain_amino_acid_ABC_superfamily_ATP[br]Location: 54233 - 55003" locus_tag="HMPREF0004_2309" id="clusterblast-1_h27_3_39" points="503,90 503,90 508,85 503,80 503,80 503,90 " class="clusterblast-orf"  />
<polygon style="stroke:black; stroke-width:1; fill:#FFFFFF; " description="branched-chain_amino_acid_ABC_superfamily_ATP[br]Location: 55005 - 55697" locus_tag="HMPREF0004_2310" id="clusterblast-1_h27_3_40" points="508,90 508,90 513,85 508,80 508,80 508,90 " class="clusterblast-orf"  />
<polygon style="stroke:black; stroke-width:1; fill:#FFFFFF; " description="branched_chain_amino_acid_ABC_superfamily_ATP[br]Location: 55648 - 57588" locus_tag="HMPREF0004_2311" id="clusterblast-1_h27_3_41" points="513,90 521,90 526,85 521,80 513,80 513,90 " class="clusterblast-orf"  />
<polygon style="stroke:black; stroke-width:1; fill:#FFFFFF; " description="conserved_hypothetical_protein[br]Location: 57588 - 57890" locus_tag="HMPREF0004_2312" id="clusterblast-1_h27_3_42" points="526,90 528,85 526,80 526,90 " class="clusterblast-orf"  />
<polygon style="stroke:black; stroke-width:1; fill:#FFFFFF; " description="fumarylacetoacetate_hydrolase[br]Location: 58061 - 58756" locus_tag="HMPREF0004_2313" id="clusterblast-1_h27_3_43" points="529,90 533,85 529,80 529,90 " class="clusterblast-orf"  />
<polygon style="stroke:black; stroke-width:1; fill:#FFFFFF; " description="ECN_family_pore-forming_entericidin[br]Location: 58796 - 58927" locus_tag="HMPREF0004_2314" id="clusterblast-1_h27_3_44" points="534,90 535,85 534,80 534,90 " class="clusterblast-orf"  />
<polygon style="stroke:black; stroke-width:1; fill:#FFFFFF; " description="PhoH_family_protein[br]Location: 59007 - 60710" locus_tag="HMPREF0004_2315" id="clusterblast-1_h27_3_45" points="535,85 540,80 547,80 547,90 540,90 535,85 " class="clusterblast-orf"  />
</g>
</svg>
