<svg xmlns="http://www.w3.org/2000/svg" height="230" width="800" version="1.1" y="0" x="0" preserveAspectRatio="none" xmlns:xlink="http://www.w3.org/1999/xlink" viewBox="0 0 800 230"  >
<g class="clusterblast-cluster" label="Query sequence"  >
<text class="clusterblast-acc" y="10" x="5"  >
Query sequence</text>
<line y1="35" x2="778.0" style="stroke:grey; stroke-width:1; " x1="10" y2="35"  />
<polygon style="stroke:black; stroke-width:1; fill:red; " description="unannotated orf[br]Location: 41959 - 43540" locus_tag="CHAFR746836_0014170.1" class="clusterblast-orf" points="227,35 232,30 247,30 247,40 232,40 227,35 " id="clusterblast-1_q31_6_0"  />
<polygon style="stroke:black; stroke-width:1; fill:green; " description="unannotated orf[br]Location: 53187 - 67692" locus_tag="CHAFR746836_0014180.1" class="clusterblast-orf" points="372,40 555,40 560,35 555,30 372,30 372,40 " id="clusterblast-1_q31_6_1"  />
</g>
<g class="clusterblast-cluster" description="Metarhizium anisopliae ARSEF 23 unplaced genomic scaffold Sc..." label="GL698712.1_c4"  >
<text class="clusterblast-acc" y="60" x="5"  >
GL698712.1_c4</text>
<text class="clusterblast-desc" y="60" x="460.8"  >
Metarhizium anisopliae ARSEF 23 unplaced genomic scaffold Sc...</text>
<line y1="85" x2="778.0" style="stroke:grey; stroke-width:1; " x1="10" y2="85"  />
<polygon style="stroke:black; stroke-width:1; fill:#FFFFFF; " description="proteasome_component_Y13[br]Location: 1106932 - 1107874" locus_tag="MAA_01895" id="clusterblast-1_h31_6_0" points="10,90 17,90 22,85 17,80 10,80 10,90 " class="clusterblast-orf"  />
<polygon style="stroke:black; stroke-width:1; fill:#FFFFFF; " description="FF_domain_protein[br]Location: 1103250 - 1104986" locus_tag="MAA_01894" id="clusterblast-1_h31_6_1" points="47,90 65,90 70,85 65,80 47,80 47,90 " class="clusterblast-orf"  />
<polygon style="stroke:black; stroke-width:1; fill:#FFFFFF; " description="hypothetical_protein[br]Location: 1101203 - 1102962" locus_tag="MAA_01893" id="clusterblast-1_h31_6_2" points="73,85 78,80 96,80 96,90 78,90 73,85 " class="clusterblast-orf"  />
<polygon style="stroke:black; stroke-width:1; fill:#FFFFFF; " description="C6_transcription_factor,_putative[br]Location: 1098470 - 1100902" locus_tag="MAA_01892" id="clusterblast-1_h31_6_3" points="100,85 105,80 132,80 132,90 105,90 100,85 " class="clusterblast-orf"  />
<polygon style="stroke:black; stroke-width:1; fill:red; " description="L-ornithine_5-monooxygenase_(L-ornithine[br]Location: 1092513 - 1094450&lt;br&gt;&lt;br&gt;&lt;b&gt;BlastP hit with CHAFR746836_0014170.1&lt;/b&gt;&lt;br&gt;Percentage identity: 46%&lt;br&gt;Percentage coverage: 102%&lt;br&gt;BLAST bit score: 389&lt;br&gt;E-value: 3e-127" locus_tag="MAA_01891" id="clusterblast-1_h31_6_4" points="184,85 189,80 209,80 209,90 189,90 184,85 " class="clusterblast-orf"  />
<polygon style="stroke:black; stroke-width:1; fill:green; " description="peptide_synthetase[br]Location: 1073222 - 1087875&lt;br&gt;&lt;br&gt;&lt;b&gt;BlastP hit with CHAFR746836_0014180.1&lt;/b&gt;&lt;br&gt;Percentage identity: 37%&lt;br&gt;Percentage coverage: 101%&lt;br&gt;BLAST bit score: 2988&lt;br&gt;E-value: 0.0" locus_tag="MAA_01890" id="clusterblast-1_h31_6_5" points="269,90 454,90 459,85 454,80 269,80 269,90 " class="clusterblast-orf"  />
<polygon style="stroke:black; stroke-width:1; fill:#FFFFFF; " description="DUF1479_domain-containing_protein[br]Location: 1071342 - 1073069" locus_tag="MAA_01889" id="clusterblast-1_h31_6_6" points="461,85 466,80 484,80 484,90 466,90 461,85 " class="clusterblast-orf"  />
<polygon style="stroke:black; stroke-width:1; fill:#FFFFFF; " description="choline_oxidase_(CodA)[br]Location: 1068612 - 1070246" locus_tag="MAA_01888" id="clusterblast-1_h31_6_7" points="498,85 503,80 519,80 519,90 503,90 498,85 " class="clusterblast-orf"  />
<polygon style="stroke:black; stroke-width:1; fill:#FFFFFF; " description="betaine_aldehyde_dehydrogenase[br]Location: 1063846 - 1065375" locus_tag="MAA_01887" id="clusterblast-1_h31_6_8" points="561,90 576,90 581,85 576,80 561,80 561,90 " class="clusterblast-orf"  />
<polygon style="stroke:black; stroke-width:1; fill:#FFFFFF; " description="glyoxalase/bleomycin_resistance[br]Location: 1062981 - 1063379" locus_tag="MAA_01886" id="clusterblast-1_h31_6_9" points="587,85 592,80 592,80 592,90 592,90 587,85 " class="clusterblast-orf"  />
<polygon style="stroke:black; stroke-width:1; fill:#FFFFFF; " description="hypothetical_protein[br]Location: 1060399 - 1062335" locus_tag="MAA_01885" id="clusterblast-1_h31_6_10" points="600,85 605,80 626,80 626,90 605,90 600,85 " class="clusterblast-orf"  />
<polygon style="stroke:black; stroke-width:1; fill:#FFFFFF; " description="hypothetical_protein[br]Location: 1057191 - 1058582" locus_tag="MAA_01884" id="clusterblast-1_h31_6_11" points="649,85 654,80 667,80 667,90 654,90 649,85 " class="clusterblast-orf"  />
<polygon style="stroke:black; stroke-width:1; fill:#FFFFFF; " description="ATP-binding_cassette_transporter_ABC1[br]Location: 1048689 - 1053403" locus_tag="MAA_01883" id="clusterblast-1_h31_6_12" points="716,85 721,80 778,80 778,90 721,90 716,85 " class="clusterblast-orf"  />
</g>
</svg>
