<svg xmlns="http://www.w3.org/2000/svg" height="230" width="800" version="1.1" y="0" x="0" preserveAspectRatio="none" xmlns:xlink="http://www.w3.org/1999/xlink" viewBox="0 0 800 230"  >
<g class="clusterblast-cluster" label="Query sequence"  >
<text class="clusterblast-acc" y="10" x="5"  >
Query sequence</text>
<line y1="35" x2="778.0" style="stroke:grey; stroke-width:1; " x1="10" y2="35"  />
<polygon style="stroke:black; stroke-width:1; fill:rgb(190,63,63); " description="unannotated orf[br]Location: 272 - 1577" locus_tag="CHAFR746836_0058790.1" class="clusterblast-orf" points="10,40 16,40 21,35 16,30 10,30 10,40 " id="clusterblast-1_q3_3_0"  />
<polygon style="stroke:black; stroke-width:1; fill:#FFFFFF; " description="unannotated orf[br]Location: 1879 - 3966" locus_tag="CHAFR746836_0058800.1" class="clusterblast-orf" points="23,35 28,30 41,30 41,40 28,40 23,35 " id="clusterblast-1_q3_3_1"  />
<polygon style="stroke:black; stroke-width:1; fill:rgb(63,63,190); " description="unannotated orf[br]Location: 20578 - 22096" locus_tag="CHAFR746836_0058810.1" class="clusterblast-orf" points="182,35 187,30 195,30 195,40 187,40 182,35 " id="clusterblast-1_q3_3_2"  />
<polygon style="stroke:black; stroke-width:1; fill:rgb(63,190,63); " description="unannotated orf[br]Location: 25478 - 26482" locus_tag="CHAFR746836_0058820.1" class="clusterblast-orf" points="224,40 227,40 232,35 227,30 224,30 224,40 " id="clusterblast-1_q3_3_3"  />
<polygon style="stroke:black; stroke-width:1; fill:#FFFFFF; " description="unannotated orf[br]Location: 45229 - 46910" locus_tag="CHAFR746836_0058830.1" class="clusterblast-orf" points="392,40 401,40 406,35 401,30 392,30 392,40 " id="clusterblast-1_q3_3_4"  />
<polygon style="stroke:black; stroke-width:1; fill:#FFFFFF; " description="unannotated orf[br]Location: 51364 - 52222" locus_tag="CHAFR746836_0058840.1" class="clusterblast-orf" points="444,35 449,30 451,30 451,40 449,40 444,35 " id="clusterblast-1_q3_3_5"  />
<polygon style="stroke:black; stroke-width:1; fill:#FFFFFF; " description="unannotated orf[br]Location: 53027 - 54066" locus_tag="CHAFR746836_0058850.1" class="clusterblast-orf" points="458,40 462,40 467,35 462,30 458,30 458,40 " id="clusterblast-1_q3_3_6"  />
<polygon style="stroke:black; stroke-width:1; fill:rgb(190,63,190); " description="unannotated orf[br]Location: 55805 - 57189" locus_tag="CHAFR746836_0058860.1" class="clusterblast-orf" points="482,35 487,30 494,30 494,40 487,40 482,35 " id="clusterblast-1_q3_3_7"  />
<polygon style="stroke:black; stroke-width:1; fill:rgb(190,190,63); " description="unannotated orf[br]Location: 62252 - 71057" locus_tag="CHAFR746836_0058870.1" class="clusterblast-orf" points="537,40 607,40 612,35 607,30 537,30 537,40 " id="clusterblast-1_q3_3_8"  />
<polygon style="stroke:black; stroke-width:1; fill:#FFFFFF; " description="unannotated orf[br]Location: 72245 - 73215" locus_tag="CHAFR746836_0058880.1" class="clusterblast-orf" points="622,35 627,30 630,30 630,40 627,40 622,35 " id="clusterblast-1_q3_3_9"  />
<polygon style="stroke:black; stroke-width:1; fill:#FFFFFF; " description="unannotated orf[br]Location: 78567 - 79753" locus_tag="CHAFR746836_0058890.1" class="clusterblast-orf" points="675,35 680,30 686,30 686,40 680,40 675,35 " id="clusterblast-1_q3_3_10"  />
<polygon style="stroke:black; stroke-width:1; fill:#FFFFFF; " description="unannotated orf[br]Location: 89948 - 90559" locus_tag="CHAFR746836_0058900.1" class="clusterblast-orf" points="772,40 773,40 778,35 773,30 772,30 772,40 " id="clusterblast-1_q3_3_11"  />
</g>
<g class="clusterblast-cluster" description="Aspergillus niger ATCC 1015, whole genome shotgun sequen..." label="ACJE01000019.1_c6"  >
<text class="clusterblast-acc" y="60" x="5"  >
ACJE01000019.1_c6</text>
<text class="clusterblast-desc" y="60" x="460.8"  >
Aspergillus niger ATCC 1015, whole genome shotgun sequen...</text>
<line y1="85" x2="778.0" style="stroke:grey; stroke-width:1; " x1="10" y2="85"  />
<polygon style="stroke:black; stroke-width:1; fill:#FFFFFF; " description="hypothetical_protein[br]Location: 1398443 - 1401256" locus_tag="ASPNIDRAFT_39106" id="clusterblast-1_h3_3_0" points="88,85 93,80 111,80 111,90 93,90 88,85 " class="clusterblast-orf"  />
<polygon style="stroke:black; stroke-width:1; fill:#FFFFFF; " description="hypothetical_protein[br]Location: 1403391 - 1404659" locus_tag="ASPNIDRAFT_39107" id="clusterblast-1_h3_3_1" points="130,90 135,90 140,85 135,80 130,80 130,90 " class="clusterblast-orf"  />
<polygon style="stroke:black; stroke-width:1; fill:#FFFFFF; " description="hypothetical_protein[br]Location: 1405210 - 1405833" locus_tag="ASPNIDRAFT_39108" id="clusterblast-1_h3_3_2" points="145,85 150,80 150,80 150,90 150,90 145,85 " class="clusterblast-orf"  />
<polygon style="stroke:black; stroke-width:1; fill:#FFFFFF; " description="hypothetical_protein[br]Location: 1407304 - 1409294" locus_tag="ASPNIDRAFT_39109" id="clusterblast-1_h3_3_3" points="163,90 175,90 180,85 175,80 163,80 163,90 " class="clusterblast-orf"  />
<polygon style="stroke:black; stroke-width:1; fill:#FFFFFF; " description="hypothetical_protein[br]Location: 1409713 - 1410889" locus_tag="ASPNIDRAFT_199345" id="clusterblast-1_h3_3_4" points="183,90 188,90 193,85 188,80 183,80 183,90 " class="clusterblast-orf"  />
<polygon style="stroke:black; stroke-width:1; fill:#FFFFFF; " description="hypothetical_protein[br]Location: 1411162 - 1411965" locus_tag="ASPNIDRAFT_47986" id="clusterblast-1_h3_3_5" points="196,90 198,90 203,85 198,80 196,80 196,90 " class="clusterblast-orf"  />
<polygon style="stroke:black; stroke-width:1; fill:#FFFFFF; " description="hypothetical_protein[br]Location: 1412079 - 1414125" locus_tag="ASPNIDRAFT_179660" id="clusterblast-1_h3_3_6" points="203,85 208,80 221,80 221,90 208,90 203,85 " class="clusterblast-orf"  />
<polygon style="stroke:black; stroke-width:1; fill:#FFFFFF; " description="hypothetical_protein[br]Location: 1414375 - 1415615" locus_tag="ASPNIDRAFT_47987" id="clusterblast-1_h3_3_7" points="223,85 228,80 234,80 234,90 228,90 223,85 " class="clusterblast-orf"  />
<polygon style="stroke:black; stroke-width:1; fill:#FFFFFF; " description="hypothetical_protein[br]Location: 1416026 - 1416467" locus_tag="ASPNIDRAFT_39113" id="clusterblast-1_h3_3_8" points="237,85 241,80 241,90 237,85 " class="clusterblast-orf"  />
<polygon style="stroke:black; stroke-width:1; fill:#FFFFFF; " description="non-ribosomal_peptide_synthetase[br]Location: 1418556 - 1421801" locus_tag="ASPNIDRAFT_39114" id="clusterblast-1_h3_3_9" points="259,90 281,90 286,85 281,80 259,80 259,90 " class="clusterblast-orf"  />
<polygon style="stroke:black; stroke-width:1; fill:#FFFFFF; " description="hypothetical_protein[br]Location: 1423040 - 1428156" locus_tag="ASPNIDRAFT_128905" id="clusterblast-1_h3_3_10" points="297,90 335,90 340,85 335,80 297,80 297,90 " class="clusterblast-orf"  />
<polygon style="stroke:black; stroke-width:1; fill:#FFFFFF; " description="hypothetical_protein[br]Location: 1429458 - 1432963" locus_tag="ASPNIDRAFT_39117" id="clusterblast-1_h3_3_11" points="351,85 356,80 381,80 381,90 356,90 351,85 " class="clusterblast-orf"  />
<polygon style="stroke:black; stroke-width:1; fill:#FFFFFF; " description="hypothetical_protein[br]Location: 1434870 - 1437372" locus_tag="ASPNIDRAFT_178964" id="clusterblast-1_h3_3_12" points="397,85 402,80 419,80 419,90 402,90 397,85 " class="clusterblast-orf"  />
<polygon style="stroke:black; stroke-width:1; fill:rgb(190,63,63); " description="hypothetical_protein[br]Location: 1437818 - 1439425&lt;br&gt;&lt;br&gt;&lt;b&gt;BlastP hit with CHAFR746836_0058790.1&lt;/b&gt;&lt;br&gt;Percentage identity: 48%&lt;br&gt;Percentage coverage: 100%&lt;br&gt;BLAST bit score: 433&lt;br&gt;E-value: 8e-146" locus_tag="ASPNIDRAFT_179508" id="clusterblast-1_h3_3_13" points="422,85 427,80 436,80 436,90 427,90 422,85 " class="clusterblast-orf"  />
<polygon style="stroke:black; stroke-width:1; fill:rgb(63,63,190); " description="hypothetical_protein[br]Location: 1439861 - 1441213&lt;br&gt;&lt;br&gt;&lt;b&gt;BlastP hit with CHAFR746836_0058810.1&lt;/b&gt;&lt;br&gt;Percentage identity: 51%&lt;br&gt;Percentage coverage: 86%&lt;br&gt;BLAST bit score: 447&lt;br&gt;E-value: 1e-152" locus_tag="ASPNIDRAFT_179151" id="clusterblast-1_h3_3_14" points="440,85 445,80 451,80 451,90 445,90 440,85 " class="clusterblast-orf"  />
<polygon style="stroke:black; stroke-width:1; fill:rgb(190,190,63); " description="hypothetical_protein[br]Location: 1442359 - 1449970&lt;br&gt;&lt;br&gt;&lt;b&gt;BlastP hit with CHAFR746836_0058870.1&lt;/b&gt;&lt;br&gt;Percentage identity: 43%&lt;br&gt;Percentage coverage: 100%&lt;br&gt;BLAST bit score: 1953&lt;br&gt;E-value: 0.0" locus_tag="ASPNIDRAFT_47991" id="clusterblast-1_h3_3_15" points="461,90 521,90 526,85 521,80 461,80 461,90 " class="clusterblast-orf"  />
<polygon style="stroke:black; stroke-width:1; fill:#FFFFFF; " description="glucose_oxidase[br]Location: 1451341 - 1453234" locus_tag="ASPNIDRAFT_179579" id="clusterblast-1_h3_3_16" points="537,85 542,80 554,80 554,90 542,90 537,85 " class="clusterblast-orf"  />
<polygon style="stroke:black; stroke-width:1; fill:#FFFFFF; " description="hypothetical_protein[br]Location: 1454560 - 1456221" locus_tag="ASPNIDRAFT_208861" id="clusterblast-1_h3_3_17" points="565,85 570,80 579,80 579,90 570,90 565,85 " class="clusterblast-orf"  />
<polygon style="stroke:black; stroke-width:1; fill:#FFFFFF; " description="hypothetical_protein[br]Location: 1457276 - 1457871" locus_tag="ASPNIDRAFT_135884" id="clusterblast-1_h3_3_18" points="588,90 588,90 593,85 588,80 588,80 588,90 " class="clusterblast-orf"  />
<polygon style="stroke:black; stroke-width:1; fill:#FFFFFF; " description="hypothetical_protein[br]Location: 1458127 - 1459029" locus_tag="ASPNIDRAFT_39124" id="clusterblast-1_h3_3_19" points="595,85 600,80 603,80 603,90 600,90 595,85 " class="clusterblast-orf"  />
<polygon style="stroke:black; stroke-width:1; fill:#FFFFFF; " description="hypothetical_protein[br]Location: 1459247 - 1460404" locus_tag="ASPNIDRAFT_124897" id="clusterblast-1_h3_3_20" points="605,90 610,90 615,85 610,80 605,80 605,90 " class="clusterblast-orf"  />
<polygon style="stroke:black; stroke-width:1; fill:#FFFFFF; " description="hypothetical_protein[br]Location: 1462122 - 1463108" locus_tag="ASPNIDRAFT_143109" id="clusterblast-1_h3_3_21" points="629,85 634,80 638,80 638,90 634,90 629,85 " class="clusterblast-orf"  />
<polygon style="stroke:black; stroke-width:1; fill:#FFFFFF; " description="hypothetical_protein[br]Location: 1468630 - 1470353" locus_tag="ASPNIDRAFT_39128" id="clusterblast-1_h3_3_22" points="685,90 694,90 699,85 694,80 685,80 685,90 " class="clusterblast-orf"  />
</g>
</svg>
