<svg xmlns="http://www.w3.org/2000/svg" height="230" width="800" version="1.1" y="0" x="0" preserveAspectRatio="none" xmlns:xlink="http://www.w3.org/1999/xlink" viewBox="0 0 800 230"  >
<g class="clusterblast-cluster" label="Query sequence"  >
<text class="clusterblast-acc" y="10" x="5"  >
Query sequence</text>
<line y1="35" x2="778.0" style="stroke:grey; stroke-width:1; " x1="10" y2="35"  />
<polygon style="stroke:black; stroke-width:1; fill:rgb(190,63,63); " description="unannotated orf[br]Location: 1126 - 9218" locus_tag="CHAFR746836_0015230.1" class="clusterblast-orf" points="253,35 258,30 282,30 282,40 258,40 253,35 " id="clusterblast-1_q35_4_0"  />
<polygon style="stroke:black; stroke-width:1; fill:#FFFFFF; " description="unannotated orf[br]Location: 30506 - 31134" locus_tag="CHAFR746836_0015240.1" class="clusterblast-orf" points="359,35 361,30 361,40 359,35 " id="clusterblast-1_q35_4_1"  />
<polygon style="stroke:black; stroke-width:1; fill:rgb(63,63,190); " description="unannotated orf[br]Location: 31550 - 33962" locus_tag="CHAFR746836_0015250.1" class="clusterblast-orf" points="363,35 368,30 372,30 372,40 368,40 363,35 " id="clusterblast-1_q35_4_2"  />
<polygon style="stroke:black; stroke-width:1; fill:#FFFFFF; " description="unannotated orf[br]Location: 34436 - 34894" locus_tag="CHAFR746836_0015260.1" class="clusterblast-orf" points="373,40 375,35 373,30 373,40 " id="clusterblast-1_q35_4_3"  />
<polygon style="stroke:black; stroke-width:1; fill:rgb(63,190,63); " description="unannotated orf[br]Location: 36222 - 37622" locus_tag="CHAFR746836_0015270.1" class="clusterblast-orf" points="380,40 380,40 385,35 380,30 380,30 380,40 " id="clusterblast-1_q35_4_4"  />
<polygon style="stroke:black; stroke-width:1; fill:#FFFFFF; " description="unannotated orf[br]Location: 40179 - 41082" locus_tag="CHAFR746836_0015280.1" class="clusterblast-orf" points="394,40 398,35 394,30 394,40 " id="clusterblast-1_q35_4_5"  />
<polygon style="stroke:black; stroke-width:1; fill:#FFFFFF; " description="unannotated orf[br]Location: 42749 - 46034" locus_tag="CHAFR746836_0015290.1" class="clusterblast-orf" points="404,40 411,40 416,35 411,30 404,30 404,40 " id="clusterblast-1_q35_4_6"  />
<polygon style="stroke:black; stroke-width:1; fill:#FFFFFF; " description="unannotated orf[br]Location: 53083 - 55196" locus_tag="CHAFR746836_0015300.1" class="clusterblast-orf" points="441,40 444,40 449,35 444,30 441,30 441,40 " id="clusterblast-1_q35_4_7"  />
<polygon style="stroke:black; stroke-width:1; fill:#FFFFFF; " description="unannotated orf[br]Location: 57522 - 59597" locus_tag="CHAFR746836_0015310.1" class="clusterblast-orf" points="457,35 462,30 465,30 465,40 462,40 457,35 " id="clusterblast-1_q35_4_8"  />
<polygon style="stroke:black; stroke-width:1; fill:#FFFFFF; " description="unannotated orf[br]Location: 64099 - 66128" locus_tag="CHAFR746836_0015320.1" class="clusterblast-orf" points="481,35 486,30 489,30 489,40 486,40 481,35 " id="clusterblast-1_q35_4_9"  />
<polygon style="stroke:black; stroke-width:1; fill:#FFFFFF; " description="unannotated orf[br]Location: 66743 - 68055" locus_tag="CHAFR746836_0015330.1" class="clusterblast-orf" points="491,40 491,40 496,35 491,30 491,30 491,40 " id="clusterblast-1_q35_4_10"  />
<polygon style="stroke:black; stroke-width:1; fill:rgb(190,63,190); " description="unannotated orf[br]Location: 68693 - 70290" locus_tag="CHAFR746836_0015340.1" class="clusterblast-orf" points="498,35 503,30 504,30 504,40 503,40 498,35 " id="clusterblast-1_q35_4_11"  />
<polygon style="stroke:black; stroke-width:1; fill:#FFFFFF; " description="unannotated orf[br]Location: 72852 - 74846" locus_tag="CHAFR746836_0015350.1" class="clusterblast-orf" points="513,35 518,30 520,30 520,40 518,40 513,35 " id="clusterblast-1_q35_4_12"  />
<polygon style="stroke:black; stroke-width:1; fill:rgb(190,190,63); " description="unannotated orf[br]Location: 75794 - 78319" locus_tag="CHAFR746836_0015360.1" class="clusterblast-orf" points="524,40 528,40 533,35 528,30 524,30 524,40 " id="clusterblast-1_q35_4_13"  />
</g>
<g class="clusterblast-cluster" description="Streptomyces hygroscopicus ATCC 53653 genomic scaffold s..." label="NZ_GG657754.1_c31"  >
<text class="clusterblast-acc" y="60" x="5"  >
NZ_GG657754.1_c31</text>
<text class="clusterblast-desc" y="60" x="460.8"  >
Streptomyces hygroscopicus ATCC 53653 genomic scaffold s...</text>
<line y1="85" x2="778.0" style="stroke:grey; stroke-width:1; " x1="10" y2="85"  />
<polygon style="stroke:black; stroke-width:1; fill:#FFFFFF; " description="transcriptional_regulator,_TetR_family_protein[br]Location: 9271056 - 9271709" locus_tag="SSOG_07837" id="clusterblast-1_h35_4_0" points="10,90 12,85 10,80 10,90 " class="clusterblast-orf"  />
<polygon style="stroke:black; stroke-width:1; fill:#FFFFFF; " description="cytochrome_P450-SU2[br]Location: 9271712 - 9272956" locus_tag="SSOG_07838" id="clusterblast-1_h35_4_1" points="12,85 16,80 16,90 12,85 " class="clusterblast-orf"  />
<polygon style="stroke:black; stroke-width:1; fill:#FFFFFF; " description="conserved_domain_protein[br]Location: 9273061 - 9273261" locus_tag="SSOG_07839" id="clusterblast-1_h35_4_2" points="17,90 18,85 17,80 17,90 " class="clusterblast-orf"  />
<polygon style="stroke:black; stroke-width:1; fill:#FFFFFF; " description="ferredoxin_reductase[br]Location: 9273294 - 9274463" locus_tag="SSOG_07840" id="clusterblast-1_h35_4_3" points="18,90 22,85 18,80 18,90 " class="clusterblast-orf"  />
<polygon style="stroke:black; stroke-width:1; fill:#FFFFFF; " description="cytochrome_P450-SU2[br]Location: 9274460 - 9275770" locus_tag="SSOG_07841" id="clusterblast-1_h35_4_4" points="22,90 22,90 27,85 22,80 22,80 22,90 " class="clusterblast-orf"  />
<polygon style="stroke:black; stroke-width:1; fill:#FFFFFF; " description="WD-40_repeat_protein[br]Location: 9276958 - 9279957" locus_tag="SSOG_07842" id="clusterblast-1_h35_4_5" points="31,90 37,90 42,85 37,80 31,80 31,90 " class="clusterblast-orf"  />
<polygon style="stroke:black; stroke-width:1; fill:#FFFFFF; " description="LigA_protein[br]Location: 9279954 - 9280916" locus_tag="SSOG_07843" id="clusterblast-1_h35_4_6" points="42,85 45,80 45,90 42,85 " class="clusterblast-orf"  />
<polygon style="stroke:black; stroke-width:1; fill:#FFFFFF; " description="hypothetical_protein[br]Location: 9280953 - 9281135" locus_tag="SSOG_07844" id="clusterblast-1_h35_4_7" points="45,85 46,80 46,90 45,85 " class="clusterblast-orf"  />
<polygon style="stroke:black; stroke-width:1; fill:#FFFFFF; " description="M20D_family_peptidase[br]Location: 9281094 - 9282344" locus_tag="SSOG_07845" id="clusterblast-1_h35_4_8" points="46,90 50,85 46,80 46,90 " class="clusterblast-orf"  />
<polygon style="stroke:black; stroke-width:1; fill:#FFFFFF; " description="6-aminohexanoate-cyclic-dimer_hydrolase[br]Location: 9282363 - 9283799" locus_tag="SSOG_07846" id="clusterblast-1_h35_4_9" points="51,85 56,80 56,80 56,90 56,90 51,85 " class="clusterblast-orf"  />
<polygon style="stroke:black; stroke-width:1; fill:#FFFFFF; " description="efflux_pump_component_MtrF[br]Location: 9284082 - 9285653" locus_tag="SSOG_07847" id="clusterblast-1_h35_4_10" points="57,85 62,80 63,80 63,90 62,90 57,85 " class="clusterblast-orf"  />
<polygon style="stroke:black; stroke-width:1; fill:#FFFFFF; " description="amidohydrolase[br]Location: 9285524 - 9286372" locus_tag="SSOG_07848" id="clusterblast-1_h35_4_11" points="62,85 65,80 65,90 62,85 " class="clusterblast-orf"  />
<polygon style="stroke:black; stroke-width:1; fill:#FFFFFF; " description="AsnC_family_transcriptional_regulator[br]Location: 9286959 - 9288014" locus_tag="SSOG_07849" id="clusterblast-1_h35_4_12" points="67,90 71,85 67,80 67,90 " class="clusterblast-orf"  />
<polygon style="stroke:black; stroke-width:1; fill:#FFFFFF; " description="feruloyl_esterase_B[br]Location: 9288034 - 9289485" locus_tag="SSOG_07850" id="clusterblast-1_h35_4_13" points="71,90 71,90 76,85 71,80 71,80 71,90 " class="clusterblast-orf"  />
<polygon style="stroke:black; stroke-width:1; fill:#FFFFFF; " description="2-oxopent-4-enoate_hydratase[br]Location: 9289571 - 9290353" locus_tag="SSOG_07851" id="clusterblast-1_h35_4_14" points="77,90 80,85 77,80 77,90 " class="clusterblast-orf"  />
<polygon style="stroke:black; stroke-width:1; fill:#FFFFFF; " description="tellurium_resistance_protein[br]Location: 9290637 - 9291218" locus_tag="SSOG_07852" id="clusterblast-1_h35_4_15" points="81,85 83,80 83,90 81,85 " class="clusterblast-orf"  />
<polygon style="stroke:black; stroke-width:1; fill:#FFFFFF; " description="modular_polyketide_synthase[br]Location: 9291492 - 9296195" locus_tag="SSOG_07853" id="clusterblast-1_h35_4_16" points="84,90 96,90 101,85 96,80 84,80 84,90 " class="clusterblast-orf"  />
<polygon style="stroke:black; stroke-width:1; fill:#FFFFFF; " description="hypothetical_protein[br]Location: 9296201 - 9296410" locus_tag="SSOG_07854" id="clusterblast-1_h35_4_17" points="101,90 102,85 101,80 101,90 " class="clusterblast-orf"  />
<polygon style="stroke:black; stroke-width:1; fill:#FFFFFF; " description="modular_polyketide_synthase[br]Location: 9296472 - 9297194" locus_tag="SSOG_07855" id="clusterblast-1_h35_4_18" points="102,90 104,85 102,80 102,90 " class="clusterblast-orf"  />
<polygon style="stroke:black; stroke-width:1; fill:#FFFFFF; " description="modular_polyketide_synthase[br]Location: 9297892 - 9306606" locus_tag="SSOG_07856" id="clusterblast-1_h35_4_19" points="107,90 134,90 139,85 134,80 107,80 107,90 " class="clusterblast-orf"  />
<polygon style="stroke:black; stroke-width:1; fill:#FFFFFF; " description="modular_polyketide_synthase[br]Location: 9306464 - 9312568" locus_tag="SSOG_07857" id="clusterblast-1_h35_4_20" points="138,90 155,90 160,85 155,80 138,80 138,90 " class="clusterblast-orf"  />
<polygon style="stroke:black; stroke-width:1; fill:rgb(63,63,190); " description="prolyl_aminopeptidase[br]Location: 9312616 - 9313551&lt;br&gt;&lt;br&gt;&lt;b&gt;BlastP hit with CHAFR746836_0015250.1&lt;/b&gt;&lt;br&gt;Percentage identity: 42%&lt;br&gt;Percentage coverage: 51%&lt;br&gt;BLAST bit score: 249&lt;br&gt;E-value: 9e-76" locus_tag="SSOG_07858" id="clusterblast-1_h35_4_21" points="160,90 164,85 160,80 160,90 " class="clusterblast-orf"  />
<polygon style="stroke:black; stroke-width:1; fill:#FFFFFF; " description="modular_polyketide_synthase[br]Location: 9313559 - 9323410" locus_tag="SSOG_07859" id="clusterblast-1_h35_4_22" points="164,90 195,90 200,85 195,80 164,80 164,90 " class="clusterblast-orf"  />
<polygon style="stroke:black; stroke-width:1; fill:#FFFFFF; " description="6-deoxyerythronolide_B_hydroxylase[br]Location: 9324146 - 9325024" locus_tag="SSOG_07860" id="clusterblast-1_h35_4_23" points="202,90 206,85 202,80 202,90 " class="clusterblast-orf"  />
<polygon style="stroke:black; stroke-width:1; fill:#FFFFFF; " description="putative_drug_resistance_transporter[br]Location: 9325123 - 9326703" locus_tag="SSOG_07861" id="clusterblast-1_h35_4_24" points="206,85 211,80 212,80 212,90 211,90 206,85 " class="clusterblast-orf"  />
<polygon style="stroke:black; stroke-width:1; fill:#FFFFFF; " description="putative_TetR-family_transcriptional_regulator[br]Location: 9326802 - 9327398" locus_tag="SSOG_07862" id="clusterblast-1_h35_4_25" points="212,90 214,85 212,80 212,90 " class="clusterblast-orf"  />
<polygon style="stroke:black; stroke-width:1; fill:#FFFFFF; " description="putative_non-ribosomal_peptide_synthetase[br]Location: 9327400 - 9328974" locus_tag="SSOG_07863" id="clusterblast-1_h35_4_26" points="214,85 219,80 220,80 220,90 219,90 214,85 " class="clusterblast-orf"  />
<polygon style="stroke:black; stroke-width:1; fill:#FFFFFF; " description="conserved_hypothetical_protein[br]Location: 9329066 - 9329302" locus_tag="SSOG_07864" id="clusterblast-1_h35_4_27" points="220,90 221,85 220,80 220,90 " class="clusterblast-orf"  />
<polygon style="stroke:black; stroke-width:1; fill:#FFFFFF; " description="conserved_hypothetical_protein[br]Location: 9329324 - 9330265" locus_tag="SSOG_07865" id="clusterblast-1_h35_4_28" points="221,85 225,80 225,90 221,85 " class="clusterblast-orf"  />
<polygon style="stroke:black; stroke-width:1; fill:#FFFFFF; " description="putative_AMP-binding_enzyme[br]Location: 9330431 - 9332101" locus_tag="SSOG_07866" id="clusterblast-1_h35_4_29" points="225,90 226,90 231,85 226,80 225,80 225,90 " class="clusterblast-orf"  />
<polygon style="stroke:black; stroke-width:1; fill:rgb(190,63,63); " description="modular_polyketide_synthase[br]Location: 9332142 - 9334808&lt;br&gt;&lt;br&gt;&lt;b&gt;BlastP hit with CHAFR746836_0015230.1&lt;/b&gt;&lt;br&gt;Percentage identity: 32%&lt;br&gt;Percentage coverage: 31%&lt;br&gt;BLAST bit score: 381&lt;br&gt;E-value: 3e-110" locus_tag="SSOG_07867" id="clusterblast-1_h35_4_30" points="231,90 236,90 241,85 236,80 231,80 231,90 " class="clusterblast-orf"  />
<polygon style="stroke:black; stroke-width:1; fill:#FFFFFF; " description="modular_polyketide_synthase[br]Location: 9338372 - 9338827" locus_tag="SSOG_07868" id="clusterblast-1_h35_4_31" points="254,90 256,85 254,80 254,90 " class="clusterblast-orf"  />
<polygon style="stroke:black; stroke-width:1; fill:#FFFFFF; " description="conserved_hypothetical_protein[br]Location: 9342764 - 9343327" locus_tag="SSOG_07869" id="clusterblast-1_h35_4_32" points="270,90 272,85 270,80 270,90 " class="clusterblast-orf"  />
<polygon style="stroke:black; stroke-width:1; fill:#FFFFFF; " description="modular_polyketide_synthase[br]Location: 9344657 - 9345445" locus_tag="SSOG_07870" id="clusterblast-1_h35_4_33" points="277,90 280,85 277,80 277,90 " class="clusterblast-orf"  />
<polygon style="stroke:black; stroke-width:1; fill:#FFFFFF; " description="glycine_oxidase_ThiO[br]Location: 9345442 - 9346539" locus_tag="SSOG_07871" id="clusterblast-1_h35_4_34" points="280,90 284,85 280,80 280,90 " class="clusterblast-orf"  />
<polygon style="stroke:black; stroke-width:1; fill:#FFFFFF; " description="modular_polyketide_synthase[br]Location: 9346612 - 9347394" locus_tag="SSOG_07872" id="clusterblast-1_h35_4_35" points="284,85 287,80 287,90 284,85 " class="clusterblast-orf"  />
<polygon style="stroke:black; stroke-width:1; fill:rgb(190,63,63); " description="polyketide_synthase[br]Location: 9347607 - 9349730&lt;br&gt;&lt;br&gt;&lt;b&gt;BlastP hit with CHAFR746836_0015230.1&lt;/b&gt;&lt;br&gt;Percentage identity: 35%&lt;br&gt;Percentage coverage: 27%&lt;br&gt;BLAST bit score: 393&lt;br&gt;E-value: 2e-116" locus_tag="SSOG_07873" id="clusterblast-1_h35_4_36" points="288,85 293,80 295,80 295,90 293,90 288,85 " class="clusterblast-orf"  />
<polygon style="stroke:black; stroke-width:1; fill:#FFFFFF; " description="modular_polyketide_synthase[br]Location: 9350339 - 9350938" locus_tag="SSOG_07874" id="clusterblast-1_h35_4_37" points="297,85 300,80 300,90 297,85 " class="clusterblast-orf"  />
<polygon style="stroke:black; stroke-width:1; fill:#FFFFFF; " description="polyketide_synthase[br]Location: 9351827 - 9356272" locus_tag="SSOG_07875" id="clusterblast-1_h35_4_38" points="303,85 308,80 319,80 319,90 308,90 303,85 " class="clusterblast-orf"  />
<polygon style="stroke:black; stroke-width:1; fill:#FFFFFF; " description="polyketide_synthase[br]Location: 9359543 - 9359887" locus_tag="SSOG_07876" id="clusterblast-1_h35_4_39" points="331,85 332,80 332,90 331,85 " class="clusterblast-orf"  />
<polygon style="stroke:black; stroke-width:1; fill:rgb(190,63,63); " description="modular_polyketide_synthase[br]Location: 9364162 - 9366381&lt;br&gt;&lt;br&gt;&lt;b&gt;BlastP hit with CHAFR746836_0015230.1&lt;/b&gt;&lt;br&gt;Percentage identity: 32%&lt;br&gt;Percentage coverage: 29%&lt;br&gt;BLAST bit score: 379&lt;br&gt;E-value: 4e-111" locus_tag="SSOG_07877" id="clusterblast-1_h35_4_40" points="348,85 353,80 356,80 356,90 353,90 348,85 " class="clusterblast-orf"  />
<polygon style="stroke:black; stroke-width:1; fill:rgb(190,63,63); " description="polyketide_synthase_type_I[br]Location: 9367932 - 9369470&lt;br&gt;&lt;br&gt;&lt;b&gt;BlastP hit with CHAFR746836_0015230.1&lt;/b&gt;&lt;br&gt;Percentage identity: 42%&lt;br&gt;Percentage coverage: 14%&lt;br&gt;BLAST bit score: 253&lt;br&gt;E-value: 3e-70" locus_tag="SSOG_07878" id="clusterblast-1_h35_4_41" points="361,85 366,80 367,80 367,90 366,90 361,85 " class="clusterblast-orf"  />
<polygon style="stroke:black; stroke-width:1; fill:#FFFFFF; " description="LuxR-family_transcriptional_regulator[br]Location: 9369693 - 9372476" locus_tag="SSOG_07879" id="clusterblast-1_h35_4_42" points="368,85 373,80 378,80 378,90 373,90 368,85 " class="clusterblast-orf"  />
<polygon style="stroke:black; stroke-width:1; fill:#FFFFFF; " description="type_I_secretion_target_repeat_protein[br]Location: 9372863 - 9373732" locus_tag="SSOG_07880" id="clusterblast-1_h35_4_43" points="379,85 382,80 382,90 379,85 " class="clusterblast-orf"  />
<polygon style="stroke:black; stroke-width:1; fill:#FFFFFF; " description="nogalamycin_resistance_protein_SnorO[br]Location: 9373938 - 9376277" locus_tag="SSOG_07881" id="clusterblast-1_h35_4_44" points="383,90 387,90 392,85 387,80 383,80 383,90 " class="clusterblast-orf"  />
<polygon style="stroke:black; stroke-width:1; fill:#FFFFFF; " description="putative_excinuclease_ABC,_A_subunit[br]Location: 9376309 - 9376458" locus_tag="SSOG_07882" id="clusterblast-1_h35_4_45" points="392,90 392,85 392,80 392,90 " class="clusterblast-orf"  />
<polygon style="stroke:black; stroke-width:1; fill:#FFFFFF; " description="sugar_transporter[br]Location: 9376472 - 9377899" locus_tag="SSOG_07883" id="clusterblast-1_h35_4_46" points="392,85 397,80 398,80 398,90 397,90 392,85 " class="clusterblast-orf"  />
<polygon style="stroke:black; stroke-width:1; fill:#FFFFFF; " description="LacI_family_transcriptional_regulator[br]Location: 9378109 - 9379134" locus_tag="SSOG_07884" id="clusterblast-1_h35_4_47" points="398,90 402,85 398,80 398,90 " class="clusterblast-orf"  />
<polygon style="stroke:black; stroke-width:1; fill:#FFFFFF; " description="haloacid_dehalogenase,_type_II[br]Location: 9379140 - 9379832" locus_tag="SSOG_07885" id="clusterblast-1_h35_4_48" points="402,85 405,80 405,90 402,85 " class="clusterblast-orf"  />
<polygon style="stroke:black; stroke-width:1; fill:#FFFFFF; " description="conserved_hypothetical_protein[br]Location: 9379911 - 9380450" locus_tag="SSOG_07886" id="clusterblast-1_h35_4_49" points="405,90 407,85 405,80 405,90 " class="clusterblast-orf"  />
<polygon style="stroke:black; stroke-width:1; fill:#FFFFFF; " description="metallo-beta-lactamase_superfamily_hydrolase[br]Location: 9380633 - 9381502" locus_tag="SSOG_07887" id="clusterblast-1_h35_4_50" points="407,90 411,85 407,80 407,90 " class="clusterblast-orf"  />
<polygon style="stroke:black; stroke-width:1; fill:#FFFFFF; " description="conserved_hypothetical_protein[br]Location: 9381518 - 9382390" locus_tag="SSOG_07888" id="clusterblast-1_h35_4_51" points="411,85 414,80 414,90 411,85 " class="clusterblast-orf"  />
<polygon style="stroke:black; stroke-width:1; fill:#FFFFFF; " description="conserved_hypothetical_protein[br]Location: 9382554 - 9382943" locus_tag="SSOG_07889" id="clusterblast-1_h35_4_52" points="414,90 416,85 414,80 414,90 " class="clusterblast-orf"  />
<polygon style="stroke:black; stroke-width:1; fill:#FFFFFF; " description="serine-type_D-Ala-D-Ala_carboxypeptidase[br]Location: 9383264 - 9384199" locus_tag="SSOG_07890" id="clusterblast-1_h35_4_53" points="417,90 420,85 417,80 417,90 " class="clusterblast-orf"  />
<polygon style="stroke:black; stroke-width:1; fill:#FFFFFF; " description="linear_gramicidin_synthetase_LgrC[br]Location: 9384280 - 9387726" locus_tag="SSOG_07891" id="clusterblast-1_h35_4_54" points="421,85 426,80 433,80 433,90 426,90 421,85 " class="clusterblast-orf"  />
<polygon style="stroke:black; stroke-width:1; fill:rgb(190,63,63); " description="non-ribosomal_peptide_synthetase[br]Location: 9394967 - 9396371&lt;br&gt;&lt;br&gt;&lt;b&gt;BlastP hit with CHAFR746836_0015230.1&lt;/b&gt;&lt;br&gt;Percentage identity: 32%&lt;br&gt;Percentage coverage: 19%&lt;br&gt;BLAST bit score: 209&lt;br&gt;E-value: 6e-56" locus_tag="SSOG_07892" id="clusterblast-1_h35_4_55" points="460,85 465,80 465,80 465,90 465,90 460,85 " class="clusterblast-orf"  />
<polygon style="stroke:black; stroke-width:1; fill:#FFFFFF; " description="putative_phosphopantetheine_attachment_site[br]Location: 9396391 - 9397785" locus_tag="SSOG_07893" id="clusterblast-1_h35_4_56" points="465,85 470,80 470,80 470,90 470,90 465,85 " class="clusterblast-orf"  />
<polygon style="stroke:black; stroke-width:1; fill:#FFFFFF; " description="alpha-ketoglutarate_permease[br]Location: 9399087 - 9400391" locus_tag="SSOG_07894" id="clusterblast-1_h35_4_57" points="474,85 479,80 479,80 479,90 479,90 474,85 " class="clusterblast-orf"  />
<polygon style="stroke:black; stroke-width:1; fill:#FFFFFF; " description="DeoR_family_transcriptional_regulator[br]Location: 9400455 - 9401258" locus_tag="SSOG_07895" id="clusterblast-1_h35_4_58" points="479,85 482,80 482,90 479,85 " class="clusterblast-orf"  />
<polygon style="stroke:black; stroke-width:1; fill:#FFFFFF; " description="HAD-superfamily_hydrolase_subfamily_IA[br]Location: 9401374 - 9402042" locus_tag="SSOG_07896" id="clusterblast-1_h35_4_59" points="483,90 485,85 483,80 483,90 " class="clusterblast-orf"  />
<polygon style="stroke:black; stroke-width:1; fill:#FFFFFF; " description="putative_D-3-phosphoglycerate_dehydrogenase[br]Location: 9402048 - 9403118" locus_tag="SSOG_07897" id="clusterblast-1_h35_4_60" points="485,90 489,85 485,80 485,90 " class="clusterblast-orf"  />
<polygon style="stroke:black; stroke-width:1; fill:#FFFFFF; " description="putative_FGGY_family_of_carbohydrate_kinase,_N-[br]Location: 9403115 - 9404575" locus_tag="SSOG_07898" id="clusterblast-1_h35_4_61" points="489,90 489,90 494,85 489,80 489,80 489,90 " class="clusterblast-orf"  />
<polygon style="stroke:black; stroke-width:1; fill:#FFFFFF; " description="dihydroxyacetone_kinase[br]Location: 9404572 - 9406338" locus_tag="SSOG_07899" id="clusterblast-1_h35_4_62" points="494,90 496,90 501,85 496,80 494,80 494,90 " class="clusterblast-orf"  />
<polygon style="stroke:black; stroke-width:1; fill:#FFFFFF; " description="ribose_5-phosphate_isomerase[br]Location: 9406335 - 9406799" locus_tag="SSOG_07900" id="clusterblast-1_h35_4_63" points="501,90 502,85 501,80 501,90 " class="clusterblast-orf"  />
<polygon style="stroke:black; stroke-width:1; fill:#FFFFFF; " description="peptide_amidase[br]Location: 9406807 - 9408192" locus_tag="SSOG_07901" id="clusterblast-1_h35_4_64" points="503,85 508,80 508,80 508,90 508,90 503,85 " class="clusterblast-orf"  />
<polygon style="stroke:black; stroke-width:1; fill:#FFFFFF; " description="YeeE/YedE_family_protein[br]Location: 9408430 - 9409710" locus_tag="SSOG_07902" id="clusterblast-1_h35_4_65" points="508,90 508,90 513,85 508,80 508,80 508,90 " class="clusterblast-orf"  />
<polygon style="stroke:black; stroke-width:1; fill:#FFFFFF; " description="putative_NAD_dependent_epimerase/dehydratase[br]Location: 9409995 - 9410759" locus_tag="SSOG_07903" id="clusterblast-1_h35_4_66" points="514,90 517,85 514,80 514,90 " class="clusterblast-orf"  />
<polygon style="stroke:black; stroke-width:1; fill:rgb(190,63,63); " description="non-ribosomal_peptide_synthetase[br]Location: 9410726 - 9412339&lt;br&gt;&lt;br&gt;&lt;b&gt;BlastP hit with CHAFR746836_0015230.1&lt;/b&gt;&lt;br&gt;Percentage identity: 33%&lt;br&gt;Percentage coverage: 17%&lt;br&gt;BLAST bit score: 242&lt;br&gt;E-value: 2e-66" locus_tag="SSOG_07904" id="clusterblast-1_h35_4_67" points="517,90 518,90 523,85 518,80 517,80 517,90 " class="clusterblast-orf"  />
<polygon style="stroke:black; stroke-width:1; fill:#FFFFFF; " description="8-amino-7-oxononanoate_synthase[br]Location: 9413018 - 9414238" locus_tag="SSOG_07905" id="clusterblast-1_h35_4_68" points="525,90 525,90 530,85 525,80 525,80 525,90 " class="clusterblast-orf"  />
<polygon style="stroke:black; stroke-width:1; fill:#FFFFFF; " description="putative_toxin-antitoxin_system,_toxin[br]Location: 9414249 - 9414827" locus_tag="SSOG_07906" id="clusterblast-1_h35_4_69" points="530,85 532,80 532,90 530,85 " class="clusterblast-orf"  />
<polygon style="stroke:black; stroke-width:1; fill:#FFFFFF; " description="xre_family_toxin-antitoxin_system,_antitoxin[br]Location: 9414824 - 9415306" locus_tag="SSOG_07907" id="clusterblast-1_h35_4_70" points="532,85 533,80 533,90 532,85 " class="clusterblast-orf"  />
<polygon style="stroke:black; stroke-width:1; fill:#FFFFFF; " description="conserved_hypothetical_protein[br]Location: 9415640 - 9416809" locus_tag="SSOG_07908" id="clusterblast-1_h35_4_71" points="535,85 539,80 539,90 535,85 " class="clusterblast-orf"  />
<polygon style="stroke:black; stroke-width:1; fill:#FFFFFF; " description="TetR-family_transcriptional_regulator[br]Location: 9416864 - 9417682" locus_tag="SSOG_07909" id="clusterblast-1_h35_4_72" points="539,85 542,80 542,90 539,85 " class="clusterblast-orf"  />
<polygon style="stroke:black; stroke-width:1; fill:#FFFFFF; " description="AraC_family_transcriptional_regulator[br]Location: 9417737 - 9418675" locus_tag="SSOG_07910" id="clusterblast-1_h35_4_73" points="542,85 546,80 546,90 542,85 " class="clusterblast-orf"  />
<polygon style="stroke:black; stroke-width:1; fill:#FFFFFF; " description="ThiJ/PfpI[br]Location: 9418887 - 9419579" locus_tag="SSOG_07911" id="clusterblast-1_h35_4_74" points="546,90 549,85 546,80 546,90 " class="clusterblast-orf"  />
<polygon style="stroke:black; stroke-width:1; fill:#FFFFFF; " description="putative_integral_membrane_protein[br]Location: 9419600 - 9420064" locus_tag="SSOG_07912" id="clusterblast-1_h35_4_75" points="549,90 551,85 549,80 549,90 " class="clusterblast-orf"  />
<polygon style="stroke:black; stroke-width:1; fill:#FFFFFF; " description="conserved_hypothetical_protein[br]Location: 9420007 - 9420369" locus_tag="SSOG_07913" id="clusterblast-1_h35_4_76" points="550,90 552,85 550,80 550,90 " class="clusterblast-orf"  />
<polygon style="stroke:black; stroke-width:1; fill:#FFFFFF; " description="AraC_family_transcriptional_regulator[br]Location: 9420399 - 9421265" locus_tag="SSOG_07914" id="clusterblast-1_h35_4_77" points="552,90 555,85 552,80 552,90 " class="clusterblast-orf"  />
<polygon style="stroke:black; stroke-width:1; fill:#FFFFFF; " description="methyltransferase[br]Location: 9421270 - 9422199" locus_tag="SSOG_07915" id="clusterblast-1_h35_4_78" points="555,85 558,80 558,90 555,85 " class="clusterblast-orf"  />
<polygon style="stroke:black; stroke-width:1; fill:#FFFFFF; " description="putative_calcium_binding_protein[br]Location: 9422220 - 9422753" locus_tag="SSOG_07916" id="clusterblast-1_h35_4_79" points="559,85 560,80 560,90 559,85 " class="clusterblast-orf"  />
<polygon style="stroke:black; stroke-width:1; fill:#FFFFFF; " description="conserved_hypothetical_protein[br]Location: 9422865 - 9423443" locus_tag="SSOG_07917" id="clusterblast-1_h35_4_80" points="561,90 563,85 561,80 561,90 " class="clusterblast-orf"  />
<polygon style="stroke:black; stroke-width:1; fill:#FFFFFF; " description="dimodular_nonribosomal_peptide_synthetase[br]Location: 9423974 - 9427795" locus_tag="SSOG_07918" id="clusterblast-1_h35_4_81" points="565,90 574,90 579,85 574,80 565,80 565,90 " class="clusterblast-orf"  />
<polygon style="stroke:black; stroke-width:1; fill:#FFFFFF; " description="dimodular_nonribosomal_peptide_synthetase[br]Location: 9430024 - 9431574" locus_tag="SSOG_07919" id="clusterblast-1_h35_4_82" points="587,90 587,90 592,85 587,80 587,80 587,90 " class="clusterblast-orf"  />
<polygon style="stroke:black; stroke-width:1; fill:#FFFFFF; " description="dimodular_nonribosomal_peptide_synthetase[br]Location: 9433332 - 9435626" locus_tag="SSOG_07920" id="clusterblast-1_h35_4_83" points="599,90 602,90 607,85 602,80 599,80 599,90 " class="clusterblast-orf"  />
<polygon style="stroke:black; stroke-width:1; fill:#FFFFFF; " description="putative_fatty-acid--CoA_ligase[br]Location: 9435623 - 9437578" locus_tag="SSOG_07921" id="clusterblast-1_h35_4_84" points="607,90 609,90 614,85 609,80 607,80 607,90 " class="clusterblast-orf"  />
<polygon style="stroke:black; stroke-width:1; fill:#FFFFFF; " description="putative_cupin_domain_protein[br]Location: 9437580 - 9438146" locus_tag="SSOG_07922" id="clusterblast-1_h35_4_85" points="614,90 616,85 614,80 614,90 " class="clusterblast-orf"  />
<polygon style="stroke:black; stroke-width:1; fill:#FFFFFF; " description="glyceraldehyde-3-phosphate_dehydrogenase,_type[br]Location: 9438260 - 9439714" locus_tag="SSOG_07923" id="clusterblast-1_h35_4_86" points="617,90 617,90 622,85 617,80 617,80 617,90 " class="clusterblast-orf"  />
<polygon style="stroke:black; stroke-width:1; fill:#FFFFFF; " description="erythronolide_synthase,_modules_5_and_6[br]Location: 9439693 - 9440970" locus_tag="SSOG_07924" id="clusterblast-1_h35_4_87" points="622,85 627,80 627,80 627,90 627,90 622,85 " class="clusterblast-orf"  />
<polygon style="stroke:black; stroke-width:1; fill:#FFFFFF; " description="beta-galactosidase[br]Location: 9441139 - 9444246" locus_tag="SSOG_07925" id="clusterblast-1_h35_4_88" points="627,85 632,80 639,80 639,90 632,90 627,85 " class="clusterblast-orf"  />
<polygon style="stroke:black; stroke-width:1; fill:#FFFFFF; " description="putative_endo-1,4-beta-xylanase[br]Location: 9444289 - 9446514" locus_tag="SSOG_07926" id="clusterblast-1_h35_4_89" points="639,85 644,80 647,80 647,90 644,90 639,85 " class="clusterblast-orf"  />
<polygon style="stroke:black; stroke-width:1; fill:#FFFFFF; " description="HAD-superfamily_subfamily_IB_hydrolase[br]Location: 9446637 - 9447362" locus_tag="SSOG_07927" id="clusterblast-1_h35_4_90" points="647,85 650,80 650,90 647,85 " class="clusterblast-orf"  />
<polygon style="stroke:black; stroke-width:1; fill:#FFFFFF; " description="aldo/keto_reductase_family_oxidoreductase[br]Location: 9447438 - 9448433" locus_tag="SSOG_07928" id="clusterblast-1_h35_4_91" points="650,85 654,80 654,90 650,85 " class="clusterblast-orf"  />
<polygon style="stroke:black; stroke-width:1; fill:#FFFFFF; " description="monooxygenase,_FAD-binding[br]Location: 9448463 - 9450082" locus_tag="SSOG_07929" id="clusterblast-1_h35_4_92" points="654,85 659,80 660,80 660,90 659,90 654,85 " class="clusterblast-orf"  />
<polygon style="stroke:black; stroke-width:1; fill:#FFFFFF; " description="putative_3-oxoacyl-(acyl-carrier-protein)[br]Location: 9450079 - 9450435" locus_tag="SSOG_07930" id="clusterblast-1_h35_4_93" points="660,85 661,80 661,90 660,85 " class="clusterblast-orf"  />
<polygon style="stroke:black; stroke-width:1; fill:#FFFFFF; " description="putative_3-oxoacyl-(acyl-carrier-protein)[br]Location: 9450546 - 9451196" locus_tag="SSOG_07931" id="clusterblast-1_h35_4_94" points="661,85 664,80 664,90 661,85 " class="clusterblast-orf"  />
<polygon style="stroke:black; stroke-width:1; fill:#FFFFFF; " description="putative_gamma-butyrolactone_biosynthesis[br]Location: 9451211 - 9452236" locus_tag="SSOG_07932" id="clusterblast-1_h35_4_95" points="664,85 668,80 668,90 664,85 " class="clusterblast-orf"  />
<polygon style="stroke:black; stroke-width:1; fill:#FFFFFF; " description="3-oxoacyl-(acyl-carrier-protein)_synthase_III[br]Location: 9452547 - 9453548" locus_tag="SSOG_07933" id="clusterblast-1_h35_4_96" points="669,90 672,85 669,80 669,90 " class="clusterblast-orf"  />
<polygon style="stroke:black; stroke-width:1; fill:#FFFFFF; " description="putative_phosphopantetheine_attachment_site[br]Location: 9453436 - 9453828" locus_tag="SSOG_07934" id="clusterblast-1_h35_4_97" points="672,90 673,85 672,80 672,90 " class="clusterblast-orf"  />
<polygon style="stroke:black; stroke-width:1; fill:#FFFFFF; " description="beta-ketoacyl-acyl-carrier-protein_synthase_II[br]Location: 9453825 - 9455048" locus_tag="SSOG_07935" id="clusterblast-1_h35_4_98" points="673,90 673,90 678,85 673,80 673,80 673,90 " class="clusterblast-orf"  />
<polygon style="stroke:black; stroke-width:1; fill:#FFFFFF; " description="3-oxoacyl-(acyl-carrier-protein)_reductase[br]Location: 9455074 - 9455778" locus_tag="SSOG_07936" id="clusterblast-1_h35_4_99" points="678,90 680,85 678,80 678,90 " class="clusterblast-orf"  />
<polygon style="stroke:black; stroke-width:1; fill:#FFFFFF; " description="probable_cadicidin_biosynthesis_thioesterase[br]Location: 9455857 - 9456663" locus_tag="SSOG_07937" id="clusterblast-1_h35_4_100" points="681,90 684,85 681,80 681,90 " class="clusterblast-orf"  />
<polygon style="stroke:black; stroke-width:1; fill:#FFFFFF; " description="regulatory_protein_DnrI[br]Location: 9456632 - 9457429" locus_tag="SSOG_07938" id="clusterblast-1_h35_4_101" points="683,85 686,80 686,90 683,85 " class="clusterblast-orf"  />
<polygon style="stroke:black; stroke-width:1; fill:#FFFFFF; " description="hypothetical_protein[br]Location: 9457499 - 9457678" locus_tag="SSOG_07939" id="clusterblast-1_h35_4_102" points="687,90 687,85 687,80 687,90 " class="clusterblast-orf"  />
<polygon style="stroke:black; stroke-width:1; fill:#FFFFFF; " description="putative_Polyketide_synthase[br]Location: 9458419 - 9462003" locus_tag="SSOG_07940" id="clusterblast-1_h35_4_103" points="690,90 698,90 703,85 698,80 690,80 690,90 " class="clusterblast-orf"  />
<polygon style="stroke:black; stroke-width:1; fill:#FFFFFF; " description="TetR_family_transcriptional_regulator[br]Location: 9462111 - 9462806" locus_tag="SSOG_07941" id="clusterblast-1_h35_4_104" points="703,90 706,85 703,80 703,90 " class="clusterblast-orf"  />
<polygon style="stroke:black; stroke-width:1; fill:#FFFFFF; " description="aldo/keto_reductase_family_oxidoreductase[br]Location: 9462882 - 9463937" locus_tag="SSOG_07942" id="clusterblast-1_h35_4_105" points="706,85 710,80 710,90 706,85 " class="clusterblast-orf"  />
<polygon style="stroke:black; stroke-width:1; fill:#FFFFFF; " description="EmrB/QacA_family_drug_resistance_transporter[br]Location: 9464077 - 9465606" locus_tag="SSOG_07943" id="clusterblast-1_h35_4_106" points="711,90 711,90 716,85 711,80 711,80 711,90 " class="clusterblast-orf"  />
<polygon style="stroke:black; stroke-width:1; fill:#FFFFFF; " description="NADPH:quinone_reductase[br]Location: 9465620 - 9466603" locus_tag="SSOG_07944" id="clusterblast-1_h35_4_107" points="716,90 720,85 716,80 716,90 " class="clusterblast-orf"  />
<polygon style="stroke:black; stroke-width:1; fill:#FFFFFF; " description="putative_cytochrome_P450[br]Location: 9466711 - 9468021" locus_tag="SSOG_07945" id="clusterblast-1_h35_4_108" points="720,85 725,80 725,80 725,90 725,90 720,85 " class="clusterblast-orf"  />
<polygon style="stroke:black; stroke-width:1; fill:#FFFFFF; " description="conserved_hypothetical_protein[br]Location: 9468137 - 9468922" locus_tag="SSOG_07946" id="clusterblast-1_h35_4_109" points="725,90 728,85 725,80 725,90 " class="clusterblast-orf"  />
<polygon style="stroke:black; stroke-width:1; fill:#FFFFFF; " description="putative_major_facilitator_superfamily_(MFS)[br]Location: 9469103 - 9470482" locus_tag="SSOG_07947" id="clusterblast-1_h35_4_110" points="729,90 729,90 734,85 729,80 729,80 729,90 " class="clusterblast-orf"  />
<polygon style="stroke:black; stroke-width:1; fill:#FFFFFF; " description="LigA_protein[br]Location: 9470479 - 9471858" locus_tag="SSOG_07948" id="clusterblast-1_h35_4_111" points="734,90 734,90 739,85 734,80 734,80 734,90 " class="clusterblast-orf"  />
<polygon style="stroke:black; stroke-width:1; fill:#FFFFFF; " description="conserved_hypothetical_protein[br]Location: 9471855 - 9472466" locus_tag="SSOG_07949" id="clusterblast-1_h35_4_112" points="739,85 741,80 741,90 739,85 " class="clusterblast-orf"  />
<polygon style="stroke:black; stroke-width:1; fill:#FFFFFF; " description="roadblock/LC7_domain_protein[br]Location: 9472474 - 9472893" locus_tag="SSOG_07950" id="clusterblast-1_h35_4_113" points="741,85 743,80 743,90 741,85 " class="clusterblast-orf"  />
<polygon style="stroke:black; stroke-width:1; fill:#FFFFFF; " description="putative_membrane_protein_SC1C2.25c[br]Location: 9473313 - 9475968" locus_tag="SSOG_07951" id="clusterblast-1_h35_4_114" points="744,85 749,80 754,80 754,90 749,90 744,85 " class="clusterblast-orf"  />
<polygon style="stroke:black; stroke-width:1; fill:#FFFFFF; " description="major_facilitator_family_transporter[br]Location: 9476141 - 9477577" locus_tag="SSOG_07952" id="clusterblast-1_h35_4_115" points="754,85 759,80 760,80 760,90 759,90 754,85 " class="clusterblast-orf"  />
<polygon style="stroke:black; stroke-width:1; fill:#FFFFFF; " description="putative_integral_membrane_protein_(DUF485)[br]Location: 9478190 - 9478585" locus_tag="SSOG_07953" id="clusterblast-1_h35_4_116" points="762,90 763,85 762,80 762,90 " class="clusterblast-orf"  />
<polygon style="stroke:black; stroke-width:1; fill:#FFFFFF; " description="putative_sodium:solute_symporter_family_protein[br]Location: 9478582 - 9480177" locus_tag="SSOG_07954" id="clusterblast-1_h35_4_117" points="763,90 764,90 769,85 764,80 763,80 763,90 " class="clusterblast-orf"  />
<polygon style="stroke:black; stroke-width:1; fill:#FFFFFF; " description="LacI_family_transcriptional_regulator[br]Location: 9480567 - 9481593" locus_tag="SSOG_07955" id="clusterblast-1_h35_4_118" points="770,85 774,80 774,90 770,85 " class="clusterblast-orf"  />
<polygon style="stroke:black; stroke-width:1; fill:#FFFFFF; " description="sugar_transport_system_permease[br]Location: 9481592 - 9482518" locus_tag="SSOG_07956" id="clusterblast-1_h35_4_119" points="774,90 778,85 774,80 774,90 " class="clusterblast-orf"  />
</g>
</svg>
