<svg xmlns="http://www.w3.org/2000/svg" height="230" width="800" version="1.1" y="0" x="0" preserveAspectRatio="none" xmlns:xlink="http://www.w3.org/1999/xlink" viewBox="0 0 800 230"  >
<g class="clusterblast-cluster" label="Query sequence"  >
<text class="clusterblast-acc" y="10" x="5"  >
Query sequence</text>
<line y1="35" x2="778.0" style="stroke:grey; stroke-width:1; " x1="10" y2="35"  />
<polygon style="stroke:black; stroke-width:1; fill:red; " description="unannotated orf[br]Location: 68134 - 70502" locus_tag="CHAFR746836_0071420.1" class="clusterblast-orf" points="10,35 15,30 20,30 20,40 15,40 10,35 " id="clusterblast-1_q9_3_0"  />
<polygon style="stroke:black; stroke-width:1; fill:#FFFFFF; " description="unannotated orf[br]Location: 72327 - 73788" locus_tag="CHAFR746836_0071430.1" class="clusterblast-orf" points="28,35 33,30 35,30 35,40 33,40 28,35 " id="clusterblast-1_q9_3_1"  />
<polygon style="stroke:black; stroke-width:1; fill:#FFFFFF; " description="unannotated orf[br]Location: 76531 - 77863" locus_tag="CHAFR746836_0071440.1" class="clusterblast-orf" points="47,35 52,30 53,30 53,40 52,40 47,35 " id="clusterblast-1_q9_3_2"  />
<polygon style="stroke:black; stroke-width:1; fill:#FFFFFF; " description="unannotated orf[br]Location: 80274 - 82068" locus_tag="CHAFR746836_0071450.1" class="clusterblast-orf" points="64,40 67,40 72,35 67,30 64,30 64,40 " id="clusterblast-1_q9_3_3"  />
<polygon style="stroke:black; stroke-width:1; fill:green; " description="unannotated orf[br]Location: 84469 - 85881" locus_tag="CHAFR746836_0071460.1" class="clusterblast-orf" points="83,35 88,30 89,30 89,40 88,40 83,35 " id="clusterblast-1_q9_3_4"  />
<polygon style="stroke:black; stroke-width:1; fill:blue; " description="unannotated orf[br]Location: 86196 - 88112" locus_tag="CHAFR746836_0071470.1" class="clusterblast-orf" points="91,40 94,40 99,35 94,30 91,30 91,40 " id="clusterblast-1_q9_3_5"  />
<polygon style="stroke:black; stroke-width:1; fill:#FFFFFF; " description="unannotated orf[br]Location: 90971 - 93131" locus_tag="CHAFR746836_0071480.1" class="clusterblast-orf" points="112,35 117,30 122,30 122,40 117,40 112,35 " id="clusterblast-1_q9_3_6"  />
<polygon style="stroke:black; stroke-width:1; fill:#FFFFFF; " description="unannotated orf[br]Location: 94508 - 96197" locus_tag="CHAFR746836_0071490.1" class="clusterblast-orf" points="128,40 130,40 135,35 130,30 128,30 128,40 " id="clusterblast-1_q9_3_7"  />
<polygon style="stroke:black; stroke-width:1; fill:#FFFFFF; " description="unannotated orf[br]Location: 97454 - 99476" locus_tag="CHAFR746836_0071500.1" class="clusterblast-orf" points="141,40 145,40 150,35 145,30 141,30 141,40 " id="clusterblast-1_q9_3_8"  />
<polygon style="stroke:black; stroke-width:1; fill:#FFFFFF; " description="unannotated orf[br]Location: 100761 - 101297" locus_tag="CHAFR746836_0071510.1" class="clusterblast-orf" points="156,40 158,35 156,30 156,40 " id="clusterblast-1_q9_3_9"  />
<polygon style="stroke:black; stroke-width:1; fill:#FFFFFF; " description="unannotated orf[br]Location: 104385 - 104721" locus_tag="CHAFR746836_0071520.1" class="clusterblast-orf" points="172,40 174,35 172,30 172,40 " id="clusterblast-1_q9_3_10"  />
<polygon style="stroke:black; stroke-width:1; fill:#FFFFFF; " description="unannotated orf[br]Location: 107563 - 110227" locus_tag="CHAFR746836_0071530.1" class="clusterblast-orf" points="186,35 191,30 198,30 198,40 191,40 186,35 " id="clusterblast-1_q9_3_11"  />
<polygon style="stroke:black; stroke-width:1; fill:#FFFFFF; " description="unannotated orf[br]Location: 114742 - 115039" locus_tag="CHAFR746836_0071540.1" class="clusterblast-orf" points="219,40 220,35 219,30 219,40 " id="clusterblast-1_q9_3_12"  />
<polygon style="stroke:black; stroke-width:1; fill:#FFFFFF; " description="unannotated orf[br]Location: 123259 - 127108" locus_tag="CHAFR746836_0071550.1" class="clusterblast-orf" points="257,35 262,30 274,30 274,40 262,40 257,35 " id="clusterblast-1_q9_3_13"  />
<polygon style="stroke:black; stroke-width:1; fill:#FFFFFF; " description="unannotated orf[br]Location: 144812 - 146250" locus_tag="CHAFR746836_0071560.1" class="clusterblast-orf" points="354,35 359,30 360,30 360,40 359,40 354,35 " id="clusterblast-1_q9_3_14"  />
<polygon style="stroke:black; stroke-width:1; fill:#FFFFFF; " description="unannotated orf[br]Location: 152743 - 154459" locus_tag="CHAFR746836_0071570.1" class="clusterblast-orf" points="389,35 394,30 397,30 397,40 394,40 389,35 " id="clusterblast-1_q9_3_15"  />
<polygon style="stroke:black; stroke-width:1; fill:#FFFFFF; " description="unannotated orf[br]Location: 156531 - 157389" locus_tag="CHAFR746836_0071580.1" class="clusterblast-orf" points="406,35 410,30 410,40 406,35 " id="clusterblast-1_q9_3_16"  />
<polygon style="stroke:black; stroke-width:1; fill:#FFFFFF; " description="unannotated orf[br]Location: 164785 - 166669" locus_tag="CHAFR746836_0071590.1" class="clusterblast-orf" points="443,40 447,40 452,35 447,30 443,30 443,40 " id="clusterblast-1_q9_3_17"  />
<polygon style="stroke:black; stroke-width:1; fill:#FFFFFF; " description="unannotated orf[br]Location: 201968 - 203433" locus_tag="CHAFR746836_0071600.1" class="clusterblast-orf" points="610,40 612,40 617,35 612,30 610,30 610,40 " id="clusterblast-1_q9_3_18"  />
<polygon style="stroke:black; stroke-width:1; fill:#FFFFFF; " description="unannotated orf[br]Location: 204836 - 205972" locus_tag="CHAFR746836_0071610.1" class="clusterblast-orf" points="623,40 623,40 628,35 623,30 623,30 623,40 " id="clusterblast-1_q9_3_19"  />
<polygon style="stroke:black; stroke-width:1; fill:#FFFFFF; " description="unannotated orf[br]Location: 207637 - 210779" locus_tag="CHAFR746836_0071620.1" class="clusterblast-orf" points="636,35 641,30 650,30 650,40 641,40 636,35 " id="clusterblast-1_q9_3_20"  />
<polygon style="stroke:black; stroke-width:1; fill:#FFFFFF; " description="unannotated orf[br]Location: 211916 - 213325" locus_tag="CHAFR746836_0071630.1" class="clusterblast-orf" points="655,35 660,30 661,30 661,40 660,40 655,35 " id="clusterblast-1_q9_3_21"  />
<polygon style="stroke:black; stroke-width:1; fill:yellow; " description="unannotated orf[br]Location: 215213 - 216863" locus_tag="CHAFR746836_0071640.1" class="clusterblast-orf" points="670,35 675,30 677,30 677,40 675,40 670,35 " id="clusterblast-1_q9_3_22"  />
<polygon style="stroke:black; stroke-width:1; fill:#FFFFFF; " description="unannotated orf[br]Location: 224691 - 226010" locus_tag="CHAFR746836_0071650.1" class="clusterblast-orf" points="712,40 713,40 718,35 713,30 712,30 712,40 " id="clusterblast-1_q9_3_23"  />
<polygon style="stroke:black; stroke-width:1; fill:#FFFFFF; " description="unannotated orf[br]Location: 230972 - 232109" locus_tag="CHAFR746836_0071660.1" class="clusterblast-orf" points="740,40 740,40 745,35 740,30 740,30 740,40 " id="clusterblast-1_q9_3_24"  />
<polygon style="stroke:black; stroke-width:1; fill:#FFFFFF; " description="unannotated orf[br]Location: 233318 - 234463" locus_tag="CHAFR746836_0071670.1" class="clusterblast-orf" points="751,35 756,30 756,30 756,40 756,40 751,35 " id="clusterblast-1_q9_3_25"  />
<polygon style="stroke:black; stroke-width:1; fill:#FFFFFF; " description="unannotated orf[br]Location: 234897 - 236194" locus_tag="CHAFR746836_0071680.1" class="clusterblast-orf" points="758,40 759,40 764,35 759,30 758,30 758,40 " id="clusterblast-1_q9_3_26"  />
<polygon style="stroke:black; stroke-width:1; fill:#FFFFFF; " description="unannotated orf[br]Location: 236494 - 237888" locus_tag="CHAFR746836_0071690.1" class="clusterblast-orf" points="765,35 770,30 771,30 771,40 770,40 765,35 " id="clusterblast-1_q9_3_27"  />
<polygon style="stroke:black; stroke-width:1; fill:#FFFFFF; " description="unannotated orf[br]Location: 238790 - 239245" locus_tag="CHAFR746836_0071700.1" class="clusterblast-orf" points="775,40 778,35 775,30 775,40 " id="clusterblast-1_q9_3_28"  />
</g>
<g class="clusterblast-cluster" description="Burkholderia sp. H160 ctg00543, whole genome shotgun ..." label="NZ_ABYL01000002.1_c1"  >
<text class="clusterblast-acc" y="60" x="5"  >
NZ_ABYL01000002.1_c1</text>
<text class="clusterblast-desc" y="60" x="460.8"  >
Burkholderia sp. H160 ctg00543, whole genome shotgun ...</text>
<line y1="85" x2="778.0" style="stroke:grey; stroke-width:1; " x1="10" y2="85"  />
<polygon style="stroke:black; stroke-width:1; fill:#FFFFFF; " description="hypothetical_protein[br]Location: 107565 - 109349" locus_tag="BH160DRAFT_0333" id="clusterblast-1_h9_3_0" points="300,90 303,90 308,85 303,80 300,80 300,90 " class="clusterblast-orf"  />
<polygon style="stroke:black; stroke-width:1; fill:#FFFFFF; " description="IS6_family_transposase[br]Location: 106714 - 107448" locus_tag="BH160DRAFT_0332" id="clusterblast-1_h9_3_1" points="308,85 311,80 311,90 308,85 " class="clusterblast-orf"  />
<polygon style="stroke:black; stroke-width:1; fill:#FFFFFF; " description="protein_of_unknown_function_DUF899_thioredoxin[br]Location: 105782 - 106471" locus_tag="BH160DRAFT_0331" id="clusterblast-1_h9_3_2" points="312,90 316,85 312,80 312,90 " class="clusterblast-orf"  />
<polygon style="stroke:black; stroke-width:1; fill:#FFFFFF; " description="short-chain_dehydrogenase/reductase_SDR[br]Location: 104988 - 105725" locus_tag="BH160DRAFT_0330" id="clusterblast-1_h9_3_3" points="316,85 319,80 319,90 316,85 " class="clusterblast-orf"  />
<polygon style="stroke:black; stroke-width:1; fill:#FFFFFF; " description="short-chain_dehydrogenase/reductase_SDR[br]Location: 104077 - 104904" locus_tag="BH160DRAFT_0329" id="clusterblast-1_h9_3_4" points="319,85 323,80 323,90 319,85 " class="clusterblast-orf"  />
<polygon style="stroke:black; stroke-width:1; fill:#FFFFFF; " description="helix-turn-helix_domain_protein[br]Location: 103075 - 103980" locus_tag="BH160DRAFT_0328" id="clusterblast-1_h9_3_5" points="324,90 328,85 324,80 324,90 " class="clusterblast-orf"  />
<polygon style="stroke:black; stroke-width:1; fill:#FFFFFF; " description="hypothetical_protein[br]Location: 102722 - 103009" locus_tag="BH160DRAFT_0327" id="clusterblast-1_h9_3_6" points="328,85 329,80 329,90 328,85 " class="clusterblast-orf"  />
<polygon style="stroke:black; stroke-width:1; fill:#FFFFFF; " description="hypothetical_protein[br]Location: 102244 - 102570" locus_tag="BH160DRAFT_0326" id="clusterblast-1_h9_3_7" points="330,85 331,80 331,90 330,85 " class="clusterblast-orf"  />
<polygon style="stroke:black; stroke-width:1; fill:#FFFFFF; " description="hypothetical_protein[br]Location: 100681 - 101166" locus_tag="BH160DRAFT_0325" id="clusterblast-1_h9_3_8" points="336,85 338,80 338,90 336,85 " class="clusterblast-orf"  />
<polygon style="stroke:black; stroke-width:1; fill:#FFFFFF; " description="transcriptional_regulator,_TetR_family[br]Location: 99982 - 100635" locus_tag="BH160DRAFT_0324" id="clusterblast-1_h9_3_9" points="339,90 342,85 339,80 339,90 " class="clusterblast-orf"  />
<polygon style="stroke:black; stroke-width:1; fill:#FFFFFF; " description="histidine_kinase[br]Location: 98978 - 99676" locus_tag="BH160DRAFT_0323" id="clusterblast-1_h9_3_10" points="343,90 346,85 343,80 343,90 " class="clusterblast-orf"  />
<polygon style="stroke:black; stroke-width:1; fill:#FFFFFF; " description="two_component_transcriptional_regulator,_LuxR[br]Location: 98355 - 98981" locus_tag="BH160DRAFT_0322" id="clusterblast-1_h9_3_11" points="346,90 349,85 346,80 346,90 " class="clusterblast-orf"  />
<polygon style="stroke:black; stroke-width:1; fill:#FFFFFF; " description="protein_of_unknown_function_DUF849[br]Location: 97312 - 98142" locus_tag="BH160DRAFT_0321" id="clusterblast-1_h9_3_12" points="350,90 354,85 350,80 350,90 " class="clusterblast-orf"  />
<polygon style="stroke:black; stroke-width:1; fill:#FFFFFF; " description="hypothetical_protein[br]Location: 95731 - 97038" locus_tag="BH160DRAFT_0320" id="clusterblast-1_h9_3_13" points="355,90 356,90 361,85 356,80 355,80 355,90 " class="clusterblast-orf"  />
<polygon style="stroke:black; stroke-width:1; fill:#FFFFFF; " description="hypothetical_protein[br]Location: 95341 - 95670" locus_tag="BH160DRAFT_0319" id="clusterblast-1_h9_3_14" points="361,90 362,85 361,80 361,90 " class="clusterblast-orf"  />
<polygon style="stroke:black; stroke-width:1; fill:#FFFFFF; " description="GntR_domain_protein[br]Location: 94604 - 95332" locus_tag="BH160DRAFT_0318" id="clusterblast-1_h9_3_15" points="362,85 366,80 366,90 362,85 " class="clusterblast-orf"  />
<polygon style="stroke:black; stroke-width:1; fill:#FFFFFF; " description="putative_solute-binding_component_of_ABC[br]Location: 93073 - 94200" locus_tag="BH160DRAFT_0317" id="clusterblast-1_h9_3_16" points="367,90 368,90 373,85 368,80 367,80 367,90 " class="clusterblast-orf"  />
<polygon style="stroke:black; stroke-width:1; fill:#FFFFFF; " description="ABC_transporter_related[br]Location: 91487 - 93037" locus_tag="BH160DRAFT_0316" id="clusterblast-1_h9_3_17" points="373,90 375,90 380,85 375,80 373,80 373,90 " class="clusterblast-orf"  />
<polygon style="stroke:black; stroke-width:1; fill:#FFFFFF; " description="inner-membrane_translocator[br]Location: 90510 - 91490" locus_tag="BH160DRAFT_0315" id="clusterblast-1_h9_3_18" points="380,90 384,85 380,80 380,90 " class="clusterblast-orf"  />
<polygon style="stroke:black; stroke-width:1; fill:#FFFFFF; " description="Monosaccharide-transporting_ATPase[br]Location: 89527 - 90513" locus_tag="BH160DRAFT_0314" id="clusterblast-1_h9_3_19" points="384,90 388,85 384,80 384,90 " class="clusterblast-orf"  />
<polygon style="stroke:black; stroke-width:1; fill:#FFFFFF; " description="precorrin-6A_synthase_(deacetylating)[br]Location: 88717 - 89487" locus_tag="BH160DRAFT_0313" id="clusterblast-1_h9_3_20" points="389,90 392,85 389,80 389,90 " class="clusterblast-orf"  />
<polygon style="stroke:black; stroke-width:1; fill:#FFFFFF; " description="nitroreductase[br]Location: 88034 - 88705" locus_tag="BH160DRAFT_0312" id="clusterblast-1_h9_3_21" points="392,85 395,80 395,90 392,85 " class="clusterblast-orf"  />
<polygon style="stroke:black; stroke-width:1; fill:#FFFFFF; " description="nitrate_reductase,_alpha_subunit[br]Location: 87481 - 87936" locus_tag="BH160DRAFT_0311" id="clusterblast-1_h9_3_22" points="396,85 398,80 398,90 396,85 " class="clusterblast-orf"  />
<polygon style="stroke:black; stroke-width:1; fill:#FFFFFF; " description="glutamine_amidotransferase_class-II[br]Location: 86351 - 87184" locus_tag="BH160DRAFT_0310" id="clusterblast-1_h9_3_23" points="399,90 403,85 399,80 399,90 " class="clusterblast-orf"  />
<polygon style="stroke:black; stroke-width:1; fill:#FFFFFF; " description="metallophosphoesterase[br]Location: 84841 - 86202" locus_tag="BH160DRAFT_0309" id="clusterblast-1_h9_3_24" points="403,90 404,90 409,85 404,80 403,80 403,90 " class="clusterblast-orf"  />
<polygon style="stroke:black; stroke-width:1; fill:#FFFFFF; " description="diguanylate_cyclase/phosphodiesterase_with[br]Location: 82345 - 84714" locus_tag="BH160DRAFT_0308" id="clusterblast-1_h9_3_25" points="410,90 416,90 421,85 416,80 410,80 410,90 " class="clusterblast-orf"  />
<polygon style="stroke:black; stroke-width:1; fill:#FFFFFF; " description="hypothetical_protein[br]Location: 82013 - 82333" locus_tag="BH160DRAFT_0307" id="clusterblast-1_h9_3_26" points="421,85 422,80 422,90 421,85 " class="clusterblast-orf"  />
<polygon style="stroke:black; stroke-width:1; fill:#FFFFFF; " description="hypothetical_protein[br]Location: 81095 - 81856" locus_tag="BH160DRAFT_0306" id="clusterblast-1_h9_3_27" points="423,85 426,80 426,90 423,85 " class="clusterblast-orf"  />
<polygon style="stroke:black; stroke-width:1; fill:#FFFFFF; " description="Lytic_transglycosylase_catalytic[br]Location: 80004 - 80588" locus_tag="BH160DRAFT_0305" id="clusterblast-1_h9_3_28" points="429,90 431,85 429,80 429,90 " class="clusterblast-orf"  />
<polygon style="stroke:black; stroke-width:1; fill:#FFFFFF; " description="hypothetical_protein[br]Location: 79666 - 79884" locus_tag="BH160DRAFT_0304" id="clusterblast-1_h9_3_29" points="432,85 433,80 433,90 432,85 " class="clusterblast-orf"  />
<polygon style="stroke:black; stroke-width:1; fill:#FFFFFF; " description="type_VI_secretion_system_lysozyme-related[br]Location: 79125 - 79550" locus_tag="BH160DRAFT_0303" id="clusterblast-1_h9_3_30" points="433,90 435,85 433,80 433,90 " class="clusterblast-orf"  />
<polygon style="stroke:black; stroke-width:1; fill:#FFFFFF; " description="hypothetical_protein[br]Location: 78458 - 78754" locus_tag="BH160DRAFT_0302" id="clusterblast-1_h9_3_31" points="437,85 438,80 438,90 437,85 " class="clusterblast-orf"  />
<polygon style="stroke:black; stroke-width:1; fill:#FFFFFF; " description="sodium/hydrogen_exchanger[br]Location: 76670 - 77938" locus_tag="BH160DRAFT_0301" id="clusterblast-1_h9_3_32" points="440,90 441,90 446,85 441,80 440,80 440,90 " class="clusterblast-orf"  />
<polygon style="stroke:black; stroke-width:1; fill:#FFFFFF; " description="hypothetical_protein[br]Location: 76182 - 76460" locus_tag="BH160DRAFT_0300" id="clusterblast-1_h9_3_33" points="447,90 448,85 447,80 447,90 " class="clusterblast-orf"  />
<polygon style="stroke:black; stroke-width:1; fill:#FFFFFF; " description="ABC-type_phosphate/phosphonate_transport_system[br]Location: 75299 - 76162" locus_tag="BH160DRAFT_0299" id="clusterblast-1_h9_3_34" points="448,90 452,85 448,80 448,90 " class="clusterblast-orf"  />
<polygon style="stroke:black; stroke-width:1; fill:red; " description="Carbamoyl-phosphate_synthase_L_chain[br]Location: 73287 - 75356&lt;br&gt;&lt;br&gt;&lt;b&gt;BlastP hit with CHAFR746836_0071420.1&lt;/b&gt;&lt;br&gt;Percentage identity: 42%&lt;br&gt;Percentage coverage: 97%&lt;br&gt;BLAST bit score: 498&lt;br&gt;E-value: 5e-165" locus_tag="BH160DRAFT_0298" id="clusterblast-1_h9_3_35" points="452,85 457,80 461,80 461,90 457,90 452,85 " class="clusterblast-orf"  />
<polygon style="stroke:black; stroke-width:1; fill:#FFFFFF; " description="Enoyl-CoA_hydratase/isomerase[br]Location: 72446 - 73234" locus_tag="BH160DRAFT_0297" id="clusterblast-1_h9_3_36" points="462,85 465,80 465,90 462,85 " class="clusterblast-orf"  />
<polygon style="stroke:black; stroke-width:1; fill:blue; " description="Propionyl-CoA_carboxylase[br]Location: 70789 - 72396&lt;br&gt;&lt;br&gt;&lt;b&gt;BlastP hit with CHAFR746836_0071470.1&lt;/b&gt;&lt;br&gt;Percentage identity: 61%&lt;br&gt;Percentage coverage: 94%&lt;br&gt;BLAST bit score: 670&lt;br&gt;E-value: 0.0" locus_tag="BH160DRAFT_0296" id="clusterblast-1_h9_3_37" points="465,85 470,80 473,80 473,90 470,90 465,85 " class="clusterblast-orf"  />
<polygon style="stroke:black; stroke-width:1; fill:green; " description="acyl-CoA_dehydrogenase_domain_protein[br]Location: 69555 - 70736&lt;br&gt;&lt;br&gt;&lt;b&gt;BlastP hit with CHAFR746836_0071460.1&lt;/b&gt;&lt;br&gt;Percentage identity: 59%&lt;br&gt;Percentage coverage: 89%&lt;br&gt;BLAST bit score: 465&lt;br&gt;E-value: 1e-160" locus_tag="BH160DRAFT_0295" id="clusterblast-1_h9_3_38" points="473,85 478,80 478,80 478,90 478,90 473,85 " class="clusterblast-orf"  />
<polygon style="stroke:black; stroke-width:1; fill:#FFFFFF; " description="transcriptional_regulator,_TetR_family[br]Location: 68569 - 69306" locus_tag="BH160DRAFT_0294" id="clusterblast-1_h9_3_39" points="479,90 483,85 479,80 479,90 " class="clusterblast-orf"  />
<polygon style="stroke:black; stroke-width:1; fill:#FFFFFF; " description="protein_of_unknown_function_DUF72[br]Location: 67654 - 68529" locus_tag="BH160DRAFT_0293" id="clusterblast-1_h9_3_40" points="483,90 487,85 483,80 483,90 " class="clusterblast-orf"  />
</g>
</svg>
