<svg xmlns="http://www.w3.org/2000/svg" height="230" width="800" version="1.1" y="0" x="0" preserveAspectRatio="none" xmlns:xlink="http://www.w3.org/1999/xlink" viewBox="0 0 800 230"  >
<g class="clusterblast-cluster" label="Query sequence"  >
<text class="clusterblast-acc" y="10" x="5"  >
Query sequence</text>
<line y1="35" x2="778.0" style="stroke:grey; stroke-width:1; " x1="10" y2="35"  />
<polygon style="stroke:black; stroke-width:1; fill:#FFFFFF; " description="unannotated orf[br]Location: 1013 - 2670" locus_tag="CHAFR746836_0031900.1" class="clusterblast-orf" points="10,35 15,30 19,30 19,40 15,40 10,35 " id="clusterblast-2_q45_10_0"  />
<polygon style="stroke:black; stroke-width:1; fill:#FFFFFF; " description="unannotated orf[br]Location: 5806 - 8080" locus_tag="CHAFR746836_0031910.1" class="clusterblast-orf" points="36,40 44,40 49,35 44,30 36,30 36,40 " id="clusterblast-2_q45_10_1"  />
<polygon style="stroke:black; stroke-width:1; fill:rgb(190,63,63); " description="unannotated orf[br]Location: 14959 - 16522" locus_tag="CHAFR746836_0031920.1" class="clusterblast-orf" points="87,35 92,30 96,30 96,40 92,40 87,35 " id="clusterblast-2_q45_10_2"  />
<polygon style="stroke:black; stroke-width:1; fill:rgb(63,63,190); " description="unannotated orf[br]Location: 18634 - 27051" locus_tag="CHAFR746836_0031930.1" class="clusterblast-orf" points="108,35 113,30 155,30 155,40 113,40 108,35 " id="clusterblast-2_q45_10_3"  />
<polygon style="stroke:black; stroke-width:1; fill:rgb(63,190,63); " description="unannotated orf[br]Location: 28690 - 31017" locus_tag="CHAFR746836_0031940.1" class="clusterblast-orf" points="164,35 169,30 177,30 177,40 169,40 164,35 " id="clusterblast-2_q45_10_4"  />
<polygon style="stroke:black; stroke-width:1; fill:rgb(190,63,190); " description="unannotated orf[br]Location: 31821 - 32686" locus_tag="CHAFR746836_0031950.1" class="clusterblast-orf" points="182,40 186,35 182,30 182,40 " id="clusterblast-2_q45_10_5"  />
<polygon style="stroke:black; stroke-width:1; fill:#FFFFFF; " description="unannotated orf[br]Location: 33127 - 34136" locus_tag="CHAFR746836_0031960.1" class="clusterblast-orf" points="189,35 194,30 195,30 195,40 194,40 189,35 " id="clusterblast-2_q45_10_6"  />
<polygon style="stroke:black; stroke-width:1; fill:#FFFFFF; " description="unannotated orf[br]Location: 34492 - 36671" locus_tag="CHAFR746836_0031970.1" class="clusterblast-orf" points="197,40 204,40 209,35 204,30 197,30 197,40 " id="clusterblast-2_q45_10_7"  />
<polygon style="stroke:black; stroke-width:1; fill:#FFFFFF; " description="unannotated orf[br]Location: 90516 - 91329" locus_tag="CHAFR746836_0031980.1" class="clusterblast-orf" points="510,40 514,35 510,30 510,40 " id="clusterblast-2_q45_10_8"  />
<polygon style="stroke:black; stroke-width:1; fill:#FFFFFF; " description="unannotated orf[br]Location: 95107 - 95607" locus_tag="CHAFR746836_0031990.1" class="clusterblast-orf" points="535,35 538,30 538,40 535,35 " id="clusterblast-2_q45_10_9"  />
<polygon style="stroke:black; stroke-width:1; fill:#FFFFFF; " description="unannotated orf[br]Location: 98154 - 98987" locus_tag="CHAFR746836_0032000.1" class="clusterblast-orf" points="552,40 552,40 557,35 552,30 552,30 552,40 " id="clusterblast-2_q45_10_10"  />
<polygon style="stroke:black; stroke-width:1; fill:#FFFFFF; " description="unannotated orf[br]Location: 110556 - 112350" locus_tag="CHAFR746836_0032010.1" class="clusterblast-orf" points="622,35 627,30 632,30 632,40 627,40 622,35 " id="clusterblast-2_q45_10_11"  />
<polygon style="stroke:black; stroke-width:1; fill:rgb(190,190,63); " description="unannotated orf[br]Location: 112800 - 115534" locus_tag="CHAFR746836_0032020.1" class="clusterblast-orf" points="634,40 644,40 649,35 644,30 634,30 634,40 " id="clusterblast-2_q45_10_12"  />
<polygon style="stroke:black; stroke-width:1; fill:rgb(190,190,190); " description="unannotated orf[br]Location: 116249 - 122294" locus_tag="CHAFR746836_0032030.1" class="clusterblast-orf" points="653,40 682,40 687,35 682,30 653,30 653,40 " id="clusterblast-2_q45_10_13"  />
<polygon style="stroke:black; stroke-width:1; fill:rgb(63,190,190); " description="unannotated orf[br]Location: 126098 - 127042" locus_tag="CHAFR746836_0032040.1" class="clusterblast-orf" points="708,35 713,30 714,30 714,40 713,40 708,35 " id="clusterblast-2_q45_10_14"  />
<polygon style="stroke:black; stroke-width:1; fill:rgb(63,63,63); " description="unannotated orf[br]Location: 128617 - 129857" locus_tag="CHAFR746836_0032050.1" class="clusterblast-orf" points="723,40 724,40 729,35 724,30 723,30 723,40 " id="clusterblast-2_q45_10_15"  />
<polygon style="stroke:black; stroke-width:1; fill:#FFFFFF; " description="unannotated orf[br]Location: 132905 - 135667" locus_tag="CHAFR746836_0032060.1" class="clusterblast-orf" points="746,40 757,40 762,35 757,30 746,30 746,40 " id="clusterblast-2_q45_10_16"  />
<polygon style="stroke:black; stroke-width:1; fill:#FFFFFF; " description="unannotated orf[br]Location: 137047 - 138460" locus_tag="CHAFR746836_0032070.1" class="clusterblast-orf" points="770,35 775,30 778,30 778,40 775,40 770,35 " id="clusterblast-2_q45_10_17"  />
</g>
<g class="clusterblast-cluster" description="Aspergillus niger contig An12c0070, genomic contig." label="AM270264.1_c1"  >
<text class="clusterblast-acc" y="60" x="5"  >
AM270264.1_c1</text>
<text class="clusterblast-desc" y="60" x="460.8"  >
Aspergillus niger contig An12c0070, genomic contig.</text>
<line y1="85" x2="778.0" style="stroke:grey; stroke-width:1; " x1="10" y2="85"  />
<polygon style="stroke:black; stroke-width:1; fill:#FFFFFF; " description="[br]Location: 137134 - 140664" locus_tag="An12g02750" id="clusterblast-2_h45_10_0" points="242,90 256,90 261,85 256,80 242,80 242,90 " class="clusterblast-orf"  />
<polygon style="stroke:black; stroke-width:1; fill:#FFFFFF; " description="[br]Location: 135745 - 136659" locus_tag="An12g02740" id="clusterblast-2_h45_10_1" points="264,90 264,90 269,85 264,80 264,80 264,90 " class="clusterblast-orf"  />
<polygon style="stroke:black; stroke-width:1; fill:rgb(63,63,190); " description="[br]Location: 127745 - 135210&lt;br&gt;&lt;br&gt;&lt;b&gt;BlastP hit with CHAFR746836_0031930.1&lt;/b&gt;&lt;br&gt;Percentage identity: 35%&lt;br&gt;Percentage coverage: 51%&lt;br&gt;BLAST bit score: 760&lt;br&gt;E-value: 0.0" locus_tag="An12g02730" id="clusterblast-2_h45_10_2" points="272,85 277,80 314,80 314,90 277,90 272,85 " class="clusterblast-orf"  />
<polygon style="stroke:black; stroke-width:1; fill:rgb(63,190,63); " description="[br]Location: 124506 - 125420&lt;br&gt;&lt;br&gt;&lt;b&gt;BlastP hit with CHAFR746836_0031940.1&lt;/b&gt;&lt;br&gt;Percentage identity: 31%&lt;br&gt;Percentage coverage: 22%&lt;br&gt;BLAST bit score: 52&lt;br&gt;E-value: 4e-06" locus_tag="An12g02720" id="clusterblast-2_h45_10_3" points="327,85 332,80 332,80 332,90 332,90 327,85 " class="clusterblast-orf"  />
<polygon style="stroke:black; stroke-width:1; fill:#FFFFFF; " description="[br]Location: 119657 - 122354" locus_tag="An12g02710" id="clusterblast-2_h45_10_4" points="344,90 354,90 359,85 354,80 344,80 344,90 " class="clusterblast-orf"  />
<polygon style="stroke:black; stroke-width:1; fill:#FFFFFF; " description="[br]Location: 118752 - 119580" locus_tag="An12g02700" id="clusterblast-2_h45_10_5" points="359,85 364,80 364,80 364,90 364,90 359,85 " class="clusterblast-orf"  />
<polygon style="stroke:black; stroke-width:1; fill:#FFFFFF; " description="[br]Location: 118071 - 118627" locus_tag="An12g02690" id="clusterblast-2_h45_10_6" points="365,90 368,85 365,80 365,90 " class="clusterblast-orf"  />
<polygon style="stroke:black; stroke-width:1; fill:#FFFFFF; " description="unnamed[br]Location: 116316 - 116873" locus_tag="An12g02680" id="clusterblast-2_h45_10_7" points="374,85 378,80 378,90 374,85 " class="clusterblast-orf"  />
<polygon style="stroke:black; stroke-width:1; fill:#FFFFFF; " description="[br]Location: 105465 - 114488" locus_tag="An12g02670" id="clusterblast-2_h45_10_8" points="388,90 433,90 438,85 433,80 388,80 388,90 " class="clusterblast-orf"  />
<polygon style="stroke:black; stroke-width:1; fill:#FFFFFF; " description="hypothetical_protein[br]Location: 103761 - 105218" locus_tag="An12g02660" id="clusterblast-2_h45_10_9" points="440,85 445,80 448,80 448,90 445,90 440,85 " class="clusterblast-orf"  />
<polygon style="stroke:black; stroke-width:1; fill:#FFFFFF; " description="[br]Location: 102008 - 102820" locus_tag="An12g02650" id="clusterblast-2_h45_10_10" points="453,90 457,85 453,80 453,90 " class="clusterblast-orf"  />
<polygon style="stroke:black; stroke-width:1; fill:#FFFFFF; " description="[br]Location: 100264 - 101399" locus_tag="An12g02640" id="clusterblast-2_h45_10_11" points="461,90 462,90 467,85 462,80 461,80 461,90 " class="clusterblast-orf"  />
<polygon style="stroke:black; stroke-width:1; fill:#FFFFFF; " description="unnamed[br]Location: 98852 - 99944" locus_tag="An12g02630" id="clusterblast-2_h45_10_12" points="469,85 474,80 475,80 475,90 474,90 469,85 " class="clusterblast-orf"  />
<polygon style="stroke:black; stroke-width:1; fill:#FFFFFF; " description="[br]Location: 96548 - 98287" locus_tag="An12g02620" id="clusterblast-2_h45_10_13" points="478,90 483,90 488,85 483,80 478,80 478,90 " class="clusterblast-orf"  />
<polygon style="stroke:black; stroke-width:1; fill:#FFFFFF; " description="tRNA-Asp[br]Location: 94348 - 95796" locus_tag="An12g02600" id="clusterblast-2_h45_10_14" points="492,90 495,90 500,85 495,80 492,80 492,90 " class="clusterblast-orf"  />
<polygon style="stroke:black; stroke-width:1; fill:#FFFFFF; " description="unnamed[br]Location: 93446 - 93845" locus_tag="An12g02590" id="clusterblast-2_h45_10_15" points="503,85 505,80 505,90 503,85 " class="clusterblast-orf"  />
<polygon style="stroke:black; stroke-width:1; fill:#FFFFFF; " description="hypothetical_protein[br]Location: 92144 - 92520" locus_tag="An12g02580" id="clusterblast-2_h45_10_16" points="511,85 513,80 513,90 511,85 " class="clusterblast-orf"  />
<polygon style="stroke:black; stroke-width:1; fill:#FFFFFF; " description="5S_ribosomal_RNA[br]Location: 86460 - 88802" locus_tag="An12g02560" id="clusterblast-2_h45_10_17" points="531,85 536,80 544,80 544,90 536,90 531,85 " class="clusterblast-orf"  />
</g>
</svg>
