<svg xmlns="http://www.w3.org/2000/svg" height="230" width="800" version="1.1" y="0" x="0" preserveAspectRatio="none" xmlns:xlink="http://www.w3.org/1999/xlink" viewBox="0 0 800 230"  >
<g class="clusterblast-cluster" label="Query sequence"  >
<text class="clusterblast-acc" y="10" x="5"  >
Query sequence</text>
<line y1="35" x2="778.0" style="stroke:grey; stroke-width:1; " x1="10" y2="35"  />
<polygon style="stroke:black; stroke-width:1; fill:rgb(190,63,63); " description="unannotated orf[br]Location: 121516 - 123190" locus_tag="CHAFR746836_0094200.1" class="clusterblast-orf" points="10,40 25,40 30,35 25,30 10,30 10,40 " id="clusterblast-1_q26_3_0"  />
<polygon style="stroke:black; stroke-width:1; fill:#FFFFFF; " description="unannotated orf[br]Location: 131375 - 131963" locus_tag="CHAFR746836_0094210.1" class="clusterblast-orf" points="129,35 134,30 136,30 136,40 134,40 129,35 " id="clusterblast-1_q26_3_1"  />
<polygon style="stroke:black; stroke-width:1; fill:#FFFFFF; " description="unannotated orf[br]Location: 132355 - 132981" locus_tag="CHAFR746836_0094220.1" class="clusterblast-orf" points="140,35 145,30 148,30 148,40 145,40 140,35 " id="clusterblast-1_q26_3_2"  />
<polygon style="stroke:black; stroke-width:1; fill:rgb(63,63,190); " description="unannotated orf[br]Location: 139202 - 140282" locus_tag="CHAFR746836_0094230.1" class="clusterblast-orf" points="223,35 228,30 236,30 236,40 228,40 223,35 " id="clusterblast-1_q26_3_3"  />
<polygon style="stroke:black; stroke-width:1; fill:rgb(63,190,63); " description="unannotated orf[br]Location: 142899 - 147562" locus_tag="CHAFR746836_0094240.1" class="clusterblast-orf" points="268,35 273,30 324,30 324,40 273,40 268,35 " id="clusterblast-1_q26_3_4"  />
<polygon style="stroke:black; stroke-width:1; fill:rgb(190,63,190); " description="unannotated orf[br]Location: 149403 - 151141" locus_tag="CHAFR746836_0094250.1" class="clusterblast-orf" points="346,40 362,40 367,35 362,30 346,30 346,40 " id="clusterblast-1_q26_3_5"  />
<polygon style="stroke:black; stroke-width:1; fill:rgb(190,190,63); " description="unannotated orf[br]Location: 153173 - 156458" locus_tag="CHAFR746836_0094260.1" class="clusterblast-orf" points="392,35 397,30 432,30 432,40 397,40 392,35 " id="clusterblast-1_q26_3_6"  />
<polygon style="stroke:black; stroke-width:1; fill:#FFFFFF; " description="unannotated orf[br]Location: 158921 - 161095" locus_tag="CHAFR746836_0094270.1" class="clusterblast-orf" points="461,40 483,40 488,35 483,30 461,30 461,40 " id="clusterblast-1_q26_3_7"  />
<polygon style="stroke:black; stroke-width:1; fill:#FFFFFF; " description="unannotated orf[br]Location: 163204 - 166182" locus_tag="CHAFR746836_0094280.1" class="clusterblast-orf" points="513,35 518,30 549,30 549,40 518,40 513,35 " id="clusterblast-1_q26_3_8"  />
<polygon style="stroke:black; stroke-width:1; fill:rgb(190,190,190); " description="unannotated orf[br]Location: 167736 - 168967" locus_tag="CHAFR746836_0094290.1" class="clusterblast-orf" points="568,40 578,40 583,35 578,30 568,30 568,40 " id="clusterblast-1_q26_3_9"  />
<polygon style="stroke:black; stroke-width:1; fill:rgb(63,190,190); " description="unannotated orf[br]Location: 169074 - 170389" locus_tag="CHAFR746836_0094300.1" class="clusterblast-orf" points="584,35 589,30 600,30 600,40 589,40 584,35 " id="clusterblast-1_q26_3_10"  />
<polygon style="stroke:black; stroke-width:1; fill:#FFFFFF; " description="unannotated orf[br]Location: 171033 - 171342" locus_tag="CHAFR746836_0094310.1" class="clusterblast-orf" points="608,35 612,30 612,40 608,35 " id="clusterblast-1_q26_3_11"  />
<polygon style="stroke:black; stroke-width:1; fill:#FFFFFF; " description="unannotated orf[br]Location: 175775 - 177555" locus_tag="CHAFR746836_0094320.1" class="clusterblast-orf" points="665,35 670,30 687,30 687,40 670,40 665,35 " id="clusterblast-1_q26_3_12"  />
<polygon style="stroke:black; stroke-width:1; fill:#FFFFFF; " description="unannotated orf[br]Location: 180145 - 180857" locus_tag="CHAFR746836_0094330.1" class="clusterblast-orf" points="718,40 721,40 726,35 721,30 718,30 718,40 " id="clusterblast-1_q26_3_13"  />
<polygon style="stroke:black; stroke-width:1; fill:#FFFFFF; " description="unannotated orf[br]Location: 181484 - 185078" locus_tag="CHAFR746836_0094340.1" class="clusterblast-orf" points="734,40 773,40 778,35 773,30 734,30 734,40 " id="clusterblast-1_q26_3_14"  />
</g>
<g class="clusterblast-cluster" description="Ajellomyces dermatitidis ATCC 18188 genomic scaffold superco..." label="GG749542.1_c1"  >
<text class="clusterblast-acc" y="60" x="5"  >
GG749542.1_c1</text>
<text class="clusterblast-desc" y="60" x="460.8"  >
Ajellomyces dermatitidis ATCC 18188 genomic scaffold superco...</text>
<line y1="85" x2="778.0" style="stroke:grey; stroke-width:1; " x1="10" y2="85"  />
<polygon style="stroke:black; stroke-width:1; fill:#FFFFFF; " description="ubiquitin_carrier_protein[br]Location: 19975 - 21911" locus_tag="BDDG_09329" id="clusterblast-1_h26_3_0" points="169,90 187,90 192,85 187,80 169,80 169,90 " class="clusterblast-orf"  />
<polygon style="stroke:black; stroke-width:1; fill:rgb(63,190,63); " description="cell_wall_biogenesis_protein_phosphatase_Ssd1[br]Location: 23406 - 27978&lt;br&gt;&lt;br&gt;&lt;b&gt;BlastP hit with CHAFR746836_0094240.1&lt;/b&gt;&lt;br&gt;Percentage identity: 65%&lt;br&gt;Percentage coverage: 102%&lt;br&gt;BLAST bit score: 1631&lt;br&gt;E-value: 0.0" locus_tag="BDDG_09330" id="clusterblast-1_h26_3_1" points="210,85 215,80 265,80 265,90 215,90 210,85 " class="clusterblast-orf"  />
<polygon style="stroke:black; stroke-width:1; fill:#FFFFFF; " description="hypothetical_protein[br]Location: 28147 - 29094" locus_tag="BDDG_09331" id="clusterblast-1_h26_3_2" points="267,90 274,90 279,85 274,80 267,80 267,90 " class="clusterblast-orf"  />
<polygon style="stroke:black; stroke-width:1; fill:#FFFFFF; " description="hypothetical_protein[br]Location: 30328 - 31855" locus_tag="BDDG_09332" id="clusterblast-1_h26_3_3" points="294,90 307,90 312,85 307,80 294,80 294,90 " class="clusterblast-orf"  />
<polygon style="stroke:black; stroke-width:1; fill:rgb(190,63,190); " description="RNA_export_mediator_Gle1[br]Location: 32186 - 33995&lt;br&gt;&lt;br&gt;&lt;b&gt;BlastP hit with CHAFR746836_0094250.1&lt;/b&gt;&lt;br&gt;Percentage identity: 40%&lt;br&gt;Percentage coverage: 57%&lt;br&gt;BLAST bit score: 233&lt;br&gt;E-value: 2e-67" locus_tag="BDDG_09333" id="clusterblast-1_h26_3_4" points="316,90 333,90 338,85 333,80 316,80 316,90 " class="clusterblast-orf"  />
<polygon style="stroke:black; stroke-width:1; fill:#FFFFFF; " description="hypothetical_protein[br]Location: 35526 - 36404" locus_tag="BDDG_09334" id="clusterblast-1_h26_3_5" points="356,85 361,80 367,80 367,90 361,90 356,85 " class="clusterblast-orf"  />
<polygon style="stroke:black; stroke-width:1; fill:#FFFFFF; " description="hypothetical_protein[br]Location: 36946 - 37397" locus_tag="BDDG_09335" id="clusterblast-1_h26_3_6" points="374,90 374,90 379,85 374,80 374,80 374,90 " class="clusterblast-orf"  />
<polygon style="stroke:black; stroke-width:1; fill:#FFFFFF; " description="hypothetical_protein[br]Location: 38202 - 38825" locus_tag="BDDG_09336" id="clusterblast-1_h26_3_7" points="389,85 394,80 396,80 396,90 394,90 389,85 " class="clusterblast-orf"  />
<polygon style="stroke:black; stroke-width:1; fill:#FFFFFF; " description="lanthionine_synthetase_C_family_protein[br]Location: 39553 - 41338" locus_tag="BDDG_09337" id="clusterblast-1_h26_3_8" points="405,90 422,90 427,85 422,80 405,80 405,90 " class="clusterblast-orf"  />
<polygon style="stroke:black; stroke-width:1; fill:#FFFFFF; " description="CCAAT-box-binding_transcription_factor[br]Location: 41696 - 45238" locus_tag="BDDG_09338" id="clusterblast-1_h26_3_9" points="431,85 436,80 474,80 474,90 436,90 431,85 " class="clusterblast-orf"  />
<polygon style="stroke:black; stroke-width:1; fill:#FFFFFF; " description="prolyl-tRNA_synthetase[br]Location: 45600 - 47782" locus_tag="BDDG_09339" id="clusterblast-1_h26_3_10" points="478,90 499,90 504,85 499,80 478,80 478,90 " class="clusterblast-orf"  />
<polygon style="stroke:black; stroke-width:1; fill:#FFFFFF; " description="prefoldin_subunit_5[br]Location: 48100 - 49018" locus_tag="BDDG_09340" id="clusterblast-1_h26_3_11" points="508,90 514,90 519,85 514,80 508,80 508,90 " class="clusterblast-orf"  />
<polygon style="stroke:black; stroke-width:1; fill:#FFFFFF; " description="hypothetical_protein[br]Location: 49695 - 52145" locus_tag="BDDG_09341" id="clusterblast-1_h26_3_12" points="528,85 533,80 557,80 557,90 533,90 528,85 " class="clusterblast-orf"  />
<polygon style="stroke:black; stroke-width:1; fill:#FFFFFF; " description="NADH-ubiquinone_oxidoreductase_20.8_kDa_subunit[br]Location: 54471 - 55233" locus_tag="BDDG_09342" id="clusterblast-1_h26_3_13" points="585,90 590,90 595,85 590,80 585,80 585,90 " class="clusterblast-orf"  />
<polygon style="stroke:black; stroke-width:1; fill:#FFFFFF; " description="hypothetical_protein[br]Location: 55613 - 57058" locus_tag="BDDG_09343" id="clusterblast-1_h26_3_14" points="599,85 604,80 617,80 617,90 604,90 599,85 " class="clusterblast-orf"  />
</g>
</svg>
