<svg xmlns="http://www.w3.org/2000/svg" height="230" width="800" version="1.1" y="0" x="0" preserveAspectRatio="none" xmlns:xlink="http://www.w3.org/1999/xlink" viewBox="0 0 800 230"  >
<g class="clusterblast-cluster" label="Query sequence"  >
<text class="clusterblast-acc" y="10" x="5"  >
Query sequence</text>
<line y1="35" x2="778.0" style="stroke:grey; stroke-width:1; " x1="10" y2="35"  />
<polygon style="stroke:black; stroke-width:1; fill:rgb(190,63,63); " description="unannotated orf[br]Location: 121516 - 123190" locus_tag="CHAFR746836_0094200.1" class="clusterblast-orf" points="182,40 188,40 193,35 188,30 182,30 182,40 " id="clusterblast-1_q26_1_0"  />
<polygon style="stroke:black; stroke-width:1; fill:#FFFFFF; " description="unannotated orf[br]Location: 131375 - 131963" locus_tag="CHAFR746836_0094210.1" class="clusterblast-orf" points="247,35 251,30 251,40 247,35 " id="clusterblast-1_q26_1_1"  />
<polygon style="stroke:black; stroke-width:1; fill:#FFFFFF; " description="unannotated orf[br]Location: 132355 - 132981" locus_tag="CHAFR746836_0094220.1" class="clusterblast-orf" points="254,35 258,30 258,40 254,35 " id="clusterblast-1_q26_1_2"  />
<polygon style="stroke:black; stroke-width:1; fill:rgb(63,63,190); " description="unannotated orf[br]Location: 139202 - 140282" locus_tag="CHAFR746836_0094230.1" class="clusterblast-orf" points="299,35 304,30 306,30 306,40 304,40 299,35 " id="clusterblast-1_q26_1_3"  />
<polygon style="stroke:black; stroke-width:1; fill:rgb(63,190,63); " description="unannotated orf[br]Location: 142899 - 147562" locus_tag="CHAFR746836_0094240.1" class="clusterblast-orf" points="324,35 329,30 355,30 355,40 329,40 324,35 " id="clusterblast-1_q26_1_4"  />
<polygon style="stroke:black; stroke-width:1; fill:rgb(190,63,190); " description="unannotated orf[br]Location: 149403 - 151141" locus_tag="CHAFR746836_0094250.1" class="clusterblast-orf" points="367,40 373,40 378,35 373,30 367,30 367,40 " id="clusterblast-1_q26_1_5"  />
<polygon style="stroke:black; stroke-width:1; fill:rgb(190,190,63); " description="unannotated orf[br]Location: 153173 - 156458" locus_tag="CHAFR746836_0094260.1" class="clusterblast-orf" points="392,35 397,30 414,30 414,40 397,40 392,35 " id="clusterblast-1_q26_1_6"  />
<polygon style="stroke:black; stroke-width:1; fill:#FFFFFF; " description="unannotated orf[br]Location: 158921 - 161095" locus_tag="CHAFR746836_0094270.1" class="clusterblast-orf" points="430,40 439,40 444,35 439,30 430,30 430,40 " id="clusterblast-1_q26_1_7"  />
<polygon style="stroke:black; stroke-width:1; fill:#FFFFFF; " description="unannotated orf[br]Location: 163204 - 166182" locus_tag="CHAFR746836_0094280.1" class="clusterblast-orf" points="458,35 463,30 478,30 478,40 463,40 458,35 " id="clusterblast-1_q26_1_8"  />
<polygon style="stroke:black; stroke-width:1; fill:rgb(190,190,190); " description="unannotated orf[br]Location: 167736 - 168967" locus_tag="CHAFR746836_0094290.1" class="clusterblast-orf" points="489,40 492,40 497,35 492,30 489,30 489,40 " id="clusterblast-1_q26_1_9"  />
<polygon style="stroke:black; stroke-width:1; fill:rgb(63,190,190); " description="unannotated orf[br]Location: 169074 - 170389" locus_tag="CHAFR746836_0094300.1" class="clusterblast-orf" points="497,35 502,30 506,30 506,40 502,40 497,35 " id="clusterblast-1_q26_1_10"  />
<polygon style="stroke:black; stroke-width:1; fill:#FFFFFF; " description="unannotated orf[br]Location: 171033 - 171342" locus_tag="CHAFR746836_0094310.1" class="clusterblast-orf" points="510,35 513,30 513,40 510,35 " id="clusterblast-1_q26_1_11"  />
<polygon style="stroke:black; stroke-width:1; fill:#FFFFFF; " description="unannotated orf[br]Location: 175775 - 177555" locus_tag="CHAFR746836_0094320.1" class="clusterblast-orf" points="542,35 547,30 554,30 554,40 547,40 542,35 " id="clusterblast-1_q26_1_12"  />
<polygon style="stroke:black; stroke-width:1; fill:#FFFFFF; " description="unannotated orf[br]Location: 180145 - 180857" locus_tag="CHAFR746836_0094330.1" class="clusterblast-orf" points="571,40 571,40 576,35 571,30 571,30 571,40 " id="clusterblast-1_q26_1_13"  />
<polygon style="stroke:black; stroke-width:1; fill:#FFFFFF; " description="unannotated orf[br]Location: 181484 - 185078" locus_tag="CHAFR746836_0094340.1" class="clusterblast-orf" points="580,40 599,40 604,35 599,30 580,30 580,40 " id="clusterblast-1_q26_1_14"  />
</g>
<g class="clusterblast-cluster" description="Streptomyces sp. NRRL 30748 meridamycin biosynthetic gene cl..." label="DQ351275.1_c1"  >
<text class="clusterblast-acc" y="60" x="5"  >
DQ351275.1_c1</text>
<text class="clusterblast-desc" y="60" x="460.8"  >
Streptomyces sp. NRRL 30748 meridamycin biosynthetic gene cl...</text>
<line y1="85" x2="778.0" style="stroke:grey; stroke-width:1; " x1="10" y2="85"  />
<polygon style="stroke:black; stroke-width:1; fill:#FFFFFF; " description="purine_synthase[br]Location: 1240 - 2805" locus_tag="ABC87494.1" id="clusterblast-1_h26_1_0" points="10,85 15,80 20,80 20,90 15,90 10,85 " class="clusterblast-orf"  />
<polygon style="stroke:black; stroke-width:1; fill:#FFFFFF; " description="purine_synthase[br]Location: 2802 - 3458" locus_tag="ABC87495.1" id="clusterblast-1_h26_1_1" points="20,85 24,80 24,90 20,85 " class="clusterblast-orf"  />
<polygon style="stroke:black; stroke-width:1; fill:#FFFFFF; " description="ion_transport_protein[br]Location: 3860 - 4702" locus_tag="ABC87496.1" id="clusterblast-1_h26_1_2" points="27,90 28,90 33,85 28,80 27,80 27,90 " class="clusterblast-orf"  />
<polygon style="stroke:black; stroke-width:1; fill:#FFFFFF; " description="membrane_protein[br]Location: 4765 - 6618" locus_tag="ABC87497.1" id="clusterblast-1_h26_1_3" points="33,85 38,80 45,80 45,90 38,90 33,85 " class="clusterblast-orf"  />
<polygon style="stroke:black; stroke-width:1; fill:#FFFFFF; " description="succinyl-CoA_synthetase_alpha_chain[br]Location: 6853 - 7737" locus_tag="ABC87498.1" id="clusterblast-1_h26_1_4" points="47,85 52,80 53,80 53,90 52,90 47,85 " class="clusterblast-orf"  />
<polygon style="stroke:black; stroke-width:1; fill:#FFFFFF; " description="succinyl-CoA_synthetase_beta_chain[br]Location: 7759 - 8877" locus_tag="ABC87499.1" id="clusterblast-1_h26_1_5" points="53,85 58,80 60,80 60,90 58,90 53,85 " class="clusterblast-orf"  />
<polygon style="stroke:black; stroke-width:1; fill:#FFFFFF; " description="beta-1,4-endo_glucanase[br]Location: 9295 - 10935" locus_tag="ABC87500.1" id="clusterblast-1_h26_1_6" points="63,90 69,90 74,85 69,80 63,80 63,90 " class="clusterblast-orf"  />
<polygon style="stroke:black; stroke-width:1; fill:#FFFFFF; " description="argininosuccinate_synthase[br]Location: 11012 - 12352" locus_tag="ABC87501.1" id="clusterblast-1_h26_1_7" points="74,85 79,80 83,80 83,90 79,90 74,85 " class="clusterblast-orf"  />
<polygon style="stroke:black; stroke-width:1; fill:#FFFFFF; " description="mycodextranase[br]Location: 12652 - 14784" locus_tag="ABC87502.1" id="clusterblast-1_h26_1_8" points="85,85 90,80 99,80 99,90 90,90 85,85 " class="clusterblast-orf"  />
<polygon style="stroke:black; stroke-width:1; fill:#FFFFFF; " description="alpha-1,_4-glucosidase[br]Location: 14894 - 16492" locus_tag="ABC87503.1" id="clusterblast-1_h26_1_9" points="100,85 105,80 111,80 111,90 105,90 100,85 " class="clusterblast-orf"  />
<polygon style="stroke:black; stroke-width:1; fill:#FFFFFF; " description="sugar_transporter_intracellular_portion[br]Location: 16523 - 17398" locus_tag="ABC87504.1" id="clusterblast-1_h26_1_10" points="111,85 116,80 117,80 117,90 116,90 111,85 " class="clusterblast-orf"  />
<polygon style="stroke:black; stroke-width:1; fill:#FFFFFF; " description="sugar_transporter_intracellular_portion[br]Location: 17395 - 18417" locus_tag="ABC87505.1" id="clusterblast-1_h26_1_11" points="117,85 122,80 124,80 124,90 122,90 117,85 " class="clusterblast-orf"  />
<polygon style="stroke:black; stroke-width:1; fill:#FFFFFF; " description="sugar_transporter_extracellular_portion[br]Location: 18356 - 19786" locus_tag="ABC87506.1" id="clusterblast-1_h26_1_12" points="123,85 128,80 133,80 133,90 128,90 123,85 " class="clusterblast-orf"  />
<polygon style="stroke:black; stroke-width:1; fill:#FFFFFF; " description="LacI_family_transcription_regulator[br]Location: 19917 - 20915" locus_tag="ABC87507.1" id="clusterblast-1_h26_1_13" points="134,85 139,80 140,80 140,90 139,90 134,85 " class="clusterblast-orf"  />
<polygon style="stroke:black; stroke-width:1; fill:#FFFFFF; " description="NRPS_for_pipecolate_incorporation[br]Location: 21568 - 26286" locus_tag="ABC87508.1" id="clusterblast-1_h26_1_14" points="145,90 171,90 176,85 171,80 145,80 145,90 " class="clusterblast-orf"  />
<polygon style="stroke:black; stroke-width:1; fill:rgb(190,190,190); " description="polyketide_synthase[br]Location: 26259 - 43397&lt;br&gt;&lt;br&gt;&lt;b&gt;BlastP hit with CHAFR746836_0094290.1&lt;/b&gt;&lt;br&gt;Percentage identity: 32%&lt;br&gt;Percentage coverage: 37%&lt;br&gt;BLAST bit score: 56&lt;br&gt;E-value: 3e-07" locus_tag="ABC87509.1" id="clusterblast-1_h26_1_15" points="176,90 285,90 290,85 285,80 176,80 176,90 " class="clusterblast-orf"  />
<polygon style="stroke:black; stroke-width:1; fill:rgb(63,190,190); " description="polyketide_synthase[br]Location: 43455 - 64763&lt;br&gt;&lt;br&gt;&lt;b&gt;BlastP hit with CHAFR746836_0094300.1&lt;/b&gt;&lt;br&gt;Percentage identity: 32%&lt;br&gt;Percentage coverage: 64%&lt;br&gt;BLAST bit score: 65&lt;br&gt;E-value: 2e-10" locus_tag="ABC87510.1" id="clusterblast-1_h26_1_16" points="290,90 427,90 432,85 427,80 290,80 290,90 " class="clusterblast-orf"  />
<polygon style="stroke:black; stroke-width:1; fill:#FFFFFF; " description="polyketide_synthase[br]Location: 64760 - 88666" locus_tag="ABC87511.1" id="clusterblast-1_h26_1_17" points="432,90 585,90 590,85 585,80 432,80 432,90 " class="clusterblast-orf"  />
<polygon style="stroke:black; stroke-width:1; fill:#FFFFFF; " description="polyketide_synthase[br]Location: 88050 - 98327" locus_tag="ABC87512.1" id="clusterblast-1_h26_1_18" points="586,90 650,90 655,85 650,80 586,80 586,90 " class="clusterblast-orf"  />
<polygon style="stroke:black; stroke-width:1; fill:#FFFFFF; " description="cytochrome_P450_monooxygenase[br]Location: 98368 - 99561" locus_tag="ABC87513.1" id="clusterblast-1_h26_1_19" points="655,90 658,90 663,85 658,80 655,80 655,90 " class="clusterblast-orf"  />
<polygon style="stroke:black; stroke-width:1; fill:#FFFFFF; " description="unknown[br]Location: 99711 - 100367" locus_tag="ABC87514.1" id="clusterblast-1_h26_1_20" points="664,85 668,80 668,90 664,85 " class="clusterblast-orf"  />
<polygon style="stroke:black; stroke-width:1; fill:#FFFFFF; " description="unknown[br]Location: 100253 - 100789" locus_tag="ABC87515.1" id="clusterblast-1_h26_1_21" points="667,85 671,80 671,90 667,85 " class="clusterblast-orf"  />
<polygon style="stroke:black; stroke-width:1; fill:#FFFFFF; " description="drug_efflux_transporter[br]Location: 101189 - 102673" locus_tag="ABC87516.1" id="clusterblast-1_h26_1_22" points="674,85 679,80 683,80 683,90 679,90 674,85 " class="clusterblast-orf"  />
<polygon style="stroke:black; stroke-width:1; fill:#FFFFFF; " description="drug_resistance_related_regulator[br]Location: 102792 - 103271" locus_tag="ABC87517.1" id="clusterblast-1_h26_1_23" points="684,85 687,80 687,90 684,85 " class="clusterblast-orf"  />
<polygon style="stroke:black; stroke-width:1; fill:#FFFFFF; " description="regulatory_protein[br]Location: 103353 - 104297" locus_tag="ABC87518.1" id="clusterblast-1_h26_1_24" points="688,85 693,80 694,80 694,90 693,90 688,85 " class="clusterblast-orf"  />
<polygon style="stroke:black; stroke-width:1; fill:#FFFFFF; " description="membrane_protein[br]Location: 104252 - 105247" locus_tag="ABC87519.1" id="clusterblast-1_h26_1_25" points="694,90 696,90 701,85 696,80 694,80 694,90 " class="clusterblast-orf"  />
<polygon style="stroke:black; stroke-width:1; fill:#FFFFFF; " description="unknown[br]Location: 105357 - 106181" locus_tag="ABC87520.1" id="clusterblast-1_h26_1_26" points="701,85 706,80 707,80 707,90 706,90 701,85 " class="clusterblast-orf"  />
<polygon style="stroke:black; stroke-width:1; fill:#FFFFFF; " description="unknown[br]Location: 106294 - 107343" locus_tag="ABC87521.1" id="clusterblast-1_h26_1_27" points="707,85 712,80 714,80 714,90 712,90 707,85 " class="clusterblast-orf"  />
<polygon style="stroke:black; stroke-width:1; fill:#FFFFFF; " description="resistance_related_regulator[br]Location: 107413 - 107820" locus_tag="ABC87522.1" id="clusterblast-1_h26_1_28" points="715,85 718,80 718,90 715,85 " class="clusterblast-orf"  />
<polygon style="stroke:black; stroke-width:1; fill:#FFFFFF; " description="putative_drug_efflux_transporter[br]Location: 107905 - 109398" locus_tag="ABC87523.1" id="clusterblast-1_h26_1_29" points="718,85 723,80 728,80 728,90 723,90 718,85 " class="clusterblast-orf"  />
<polygon style="stroke:black; stroke-width:1; fill:#FFFFFF; " description="drug_resistance_related_regulator[br]Location: 109395 - 110036" locus_tag="ABC87524.1" id="clusterblast-1_h26_1_30" points="728,85 732,80 732,90 728,85 " class="clusterblast-orf"  />
<polygon style="stroke:black; stroke-width:1; fill:#FFFFFF; " description="LysR_family_regulator[br]Location: 110126 - 111172" locus_tag="ABC87525.1" id="clusterblast-1_h26_1_31" points="733,85 738,80 740,80 740,90 738,90 733,85 " class="clusterblast-orf"  />
<polygon style="stroke:black; stroke-width:1; fill:#FFFFFF; " description="unknown[br]Location: 111037 - 111693" locus_tag="ABC87526.1" id="clusterblast-1_h26_1_32" points="739,90 743,85 739,80 739,90 " class="clusterblast-orf"  />
<polygon style="stroke:black; stroke-width:1; fill:#FFFFFF; " description="FAD-dependent_monooxygenase[br]Location: 111822 - 113201" locus_tag="ABC87527.1" id="clusterblast-1_h26_1_33" points="744,90 748,90 753,85 748,80 744,80 744,90 " class="clusterblast-orf"  />
<polygon style="stroke:black; stroke-width:1; fill:#FFFFFF; " description="unknown[br]Location: 113251 - 113658" locus_tag="ABC87528.1" id="clusterblast-1_h26_1_34" points="754,85 756,80 756,90 754,85 " class="clusterblast-orf"  />
<polygon style="stroke:black; stroke-width:1; fill:#FFFFFF; " description="unknown[br]Location: 113891 - 116341" locus_tag="ABC87529.1" id="clusterblast-1_h26_1_35" points="758,85 763,80 774,80 774,90 763,90 758,85 " class="clusterblast-orf"  />
<polygon style="stroke:black; stroke-width:1; fill:#FFFFFF; " description="methyl_transferase[br]Location: 116429 - 116831" locus_tag="ABC87530.1" id="clusterblast-1_h26_1_36" points="775,90 778,85 775,80 775,90 " class="clusterblast-orf"  />
</g>
</svg>
