<svg xmlns="http://www.w3.org/2000/svg" height="230" width="800" version="1.1" y="0" x="0" preserveAspectRatio="none" xmlns:xlink="http://www.w3.org/1999/xlink" viewBox="0 0 800 230"  >
<g class="clusterblast-cluster" label="Query sequence"  >
<text class="clusterblast-acc" y="10" x="5"  >
Query sequence</text>
<line y1="35" x2="778.0" style="stroke:grey; stroke-width:1; " x1="10" y2="35"  />
<polygon style="stroke:black; stroke-width:1; fill:rgb(169,42,42); " description="unannotated orf[br]Location: 62218 - 64265" locus_tag="CHAFR746836_0054410.1" class="clusterblast-orf" points="10,40 19,40 24,35 19,30 10,30 10,40 " id="clusterblast-1_q1_6_0"  />
<polygon style="stroke:black; stroke-width:1; fill:#FFFFFF; " description="unannotated orf[br]Location: 64981 - 65489" locus_tag="CHAFR746836_0054420.1" class="clusterblast-orf" points="29,40 33,35 29,30 29,40 " id="clusterblast-1_q1_6_1"  />
<polygon style="stroke:black; stroke-width:1; fill:#FFFFFF; " description="unannotated orf[br]Location: 80166 - 81468" locus_tag="CHAFR746836_0054430.1" class="clusterblast-orf" points="136,40 140,40 145,35 140,30 136,30 136,40 " id="clusterblast-1_q1_6_2"  />
<polygon style="stroke:black; stroke-width:1; fill:#FFFFFF; " description="unannotated orf[br]Location: 84860 - 87066" locus_tag="CHAFR746836_0054440.1" class="clusterblast-orf" points="169,40 180,40 185,35 180,30 169,30 169,40 " id="clusterblast-1_q1_6_3"  />
<polygon style="stroke:black; stroke-width:1; fill:rgb(42,169,42); " description="unannotated orf[br]Location: 87538 - 88972" locus_tag="CHAFR746836_0054450.1" class="clusterblast-orf" points="188,40 194,40 199,35 194,30 188,30 188,40 " id="clusterblast-1_q1_6_4"  />
<polygon style="stroke:black; stroke-width:1; fill:rgb(42,169,212); " description="unannotated orf[br]Location: 97154 - 98501" locus_tag="CHAFR746836_0054460.1" class="clusterblast-orf" points="256,35 261,30 266,30 266,40 261,40 256,35 " id="clusterblast-1_q1_6_5"  />
<polygon style="stroke:black; stroke-width:1; fill:#FFFFFF; " description="unannotated orf[br]Location: 108188 - 110019" locus_tag="CHAFR746836_0054470.1" class="clusterblast-orf" points="334,40 342,40 347,35 342,30 334,30 334,40 " id="clusterblast-1_q1_6_6"  />
<polygon style="stroke:black; stroke-width:1; fill:rgb(169,169,42); " description="unannotated orf[br]Location: 111553 - 112688" locus_tag="CHAFR746836_0054480.1" class="clusterblast-orf" points="358,35 363,30 366,30 366,40 363,40 358,35 " id="clusterblast-1_q1_6_7"  />
<polygon style="stroke:black; stroke-width:1; fill:rgb(169,42,127); " description="unannotated orf[br]Location: 113347 - 114741" locus_tag="CHAFR746836_0054490.1" class="clusterblast-orf" points="371,40 376,40 381,35 376,30 371,30 371,40 " id="clusterblast-1_q1_6_8"  />
<polygon style="stroke:black; stroke-width:1; fill:rgb(42,42,212); " description="unannotated orf[br]Location: 114954 - 116913" locus_tag="CHAFR746836_0054500.1" class="clusterblast-orf" points="382,35 387,30 396,30 396,40 387,40 382,35 " id="clusterblast-1_q1_6_9"  />
<polygon style="stroke:black; stroke-width:1; fill:rgb(169,169,212); " description="unannotated orf[br]Location: 128349 - 129215" locus_tag="CHAFR746836_0054510.1" class="clusterblast-orf" points="477,35 482,30 483,30 483,40 482,40 477,35 " id="clusterblast-1_q1_6_10"  />
<polygon style="stroke:black; stroke-width:1; fill:#FFFFFF; " description="unannotated orf[br]Location: 131482 - 134522" locus_tag="CHAFR746836_0054520.1" class="clusterblast-orf" points="499,35 504,30 520,30 520,40 504,40 499,35 " id="clusterblast-1_q1_6_11"  />
<polygon style="stroke:black; stroke-width:1; fill:rgb(42,169,127); " description="unannotated orf[br]Location: 135952 - 139193" locus_tag="CHAFR746836_0054530.1" class="clusterblast-orf" points="530,35 535,30 553,30 553,40 535,40 530,35 " id="clusterblast-1_q1_6_12"  />
<polygon style="stroke:black; stroke-width:1; fill:#FFFFFF; " description="unannotated orf[br]Location: 139580 - 146566" locus_tag="CHAFR746836_0054540.1" class="clusterblast-orf" points="556,35 561,30 605,30 605,40 561,40 556,35 " id="clusterblast-1_q1_6_13"  />
<polygon style="stroke:black; stroke-width:1; fill:#FFFFFF; " description="unannotated orf[br]Location: 150095 - 150570" locus_tag="CHAFR746836_0054550.1" class="clusterblast-orf" points="630,40 634,35 630,30 630,40 " id="clusterblast-1_q1_6_14"  />
<polygon style="stroke:black; stroke-width:1; fill:#FFFFFF; " description="unannotated orf[br]Location: 151645 - 154018" locus_tag="CHAFR746836_0054560.1" class="clusterblast-orf" points="641,40 653,40 658,35 653,30 641,30 641,40 " id="clusterblast-1_q1_6_15"  />
<polygon style="stroke:black; stroke-width:1; fill:rgb(169,42,212); " description="unannotated orf[br]Location: 155657 - 156954" locus_tag="CHAFR746836_0054570.1" class="clusterblast-orf" points="670,40 674,40 679,35 674,30 670,30 670,40 " id="clusterblast-1_q1_6_16"  />
<polygon style="stroke:black; stroke-width:1; fill:#FFFFFF; " description="unannotated orf[br]Location: 161927 - 163454" locus_tag="CHAFR746836_0054580.1" class="clusterblast-orf" points="714,40 720,40 725,35 720,30 714,30 714,40 " id="clusterblast-1_q1_6_17"  />
<polygon style="stroke:black; stroke-width:1; fill:#FFFFFF; " description="unannotated orf[br]Location: 165596 - 167549" locus_tag="CHAFR746836_0054590.1" class="clusterblast-orf" points="740,35 745,30 754,30 754,40 745,40 740,35 " id="clusterblast-1_q1_6_18"  />
<polygon style="stroke:black; stroke-width:1; fill:#FFFFFF; " description="unannotated orf[br]Location: 170397 - 170926" locus_tag="CHAFR746836_0054600.1" class="clusterblast-orf" points="774,35 778,30 778,40 774,35 " id="clusterblast-1_q1_6_19"  />
</g>
<g class="clusterblast-cluster" description="Paracoccidioides brasiliensis Pb03 supercont1.5 genomic scaf..." label="DS544807.1_c2"  >
<text class="clusterblast-acc" y="60" x="5"  >
DS544807.1_c2</text>
<text class="clusterblast-desc" y="60" x="460.8"  >
Paracoccidioides brasiliensis Pb03 supercont1.5 genomic scaf...</text>
<line y1="85" x2="778.0" style="stroke:grey; stroke-width:1; " x1="10" y2="85"  />
<polygon style="stroke:black; stroke-width:1; fill:#FFFFFF; " description="ubiquitin_carboxyl-terminal_hydrolase[br]Location: 557786 - 562183" locus_tag="PABG_03719" id="clusterblast-1_h1_6_0" points="221,85 226,80 252,80 252,90 226,90 221,85 " class="clusterblast-orf"  />
<polygon style="stroke:black; stroke-width:1; fill:#FFFFFF; " description="ectonucleotide[br]Location: 564979 - 567519" locus_tag="PABG_03720" id="clusterblast-1_h1_6_1" points="271,90 284,90 289,85 284,80 271,80 271,90 " class="clusterblast-orf"  />
<polygon style="stroke:black; stroke-width:1; fill:#FFFFFF; " description="predicted_protein[br]Location: 568063 - 568443" locus_tag="PABG_03721" id="clusterblast-1_h1_6_2" points="293,90 296,85 293,80 293,90 " class="clusterblast-orf"  />
<polygon style="stroke:black; stroke-width:1; fill:#FFFFFF; " description="hypothetical_protein[br]Location: 569565 - 570646" locus_tag="PABG_03722" id="clusterblast-1_h1_6_3" points="304,85 309,80 311,80 311,90 309,90 304,85 " class="clusterblast-orf"  />
<polygon style="stroke:black; stroke-width:1; fill:#FFFFFF; " description="predicted_protein[br]Location: 571434 - 572280" locus_tag="PABG_03723" id="clusterblast-1_h1_6_4" points="317,85 322,80 323,80 323,90 322,90 317,85 " class="clusterblast-orf"  />
<polygon style="stroke:black; stroke-width:1; fill:#FFFFFF; " description="conserved_hypothetical_protein[br]Location: 572448 - 574083" locus_tag="PABG_03724" id="clusterblast-1_h1_6_5" points="324,90 331,90 336,85 331,80 324,80 324,90 " class="clusterblast-orf"  />
<polygon style="stroke:black; stroke-width:1; fill:#FFFFFF; " description="leptomycin_B_resistance_protein_pmd1[br]Location: 574563 - 578668" locus_tag="PABG_03725" id="clusterblast-1_h1_6_6" points="339,85 344,80 368,80 368,90 344,90 339,85 " class="clusterblast-orf"  />
<polygon style="stroke:black; stroke-width:1; fill:#FFFFFF; " description="phenyloxazoline_synthase_mbtB[br]Location: 579916 - 586823" locus_tag="PABG_03726" id="clusterblast-1_h1_6_7" points="377,90 421,90 426,85 421,80 377,80 377,90 " class="clusterblast-orf"  />
<polygon style="stroke:black; stroke-width:1; fill:#FFFFFF; " description="predicted_protein[br]Location: 588712 - 589189" locus_tag="PABG_03727" id="clusterblast-1_h1_6_8" points="439,85 442,80 442,90 439,85 " class="clusterblast-orf"  />
<polygon style="stroke:black; stroke-width:1; fill:rgb(169,42,127); " description="acetylase[br]Location: 589216 - 590651&lt;br&gt;&lt;br&gt;&lt;b&gt;BlastP hit with CHAFR746836_0054490.1&lt;/b&gt;&lt;br&gt;Percentage identity: 50%&lt;br&gt;Percentage coverage: 93%&lt;br&gt;BLAST bit score: 422&lt;br&gt;E-value: 8e-143" locus_tag="PABG_03728" id="clusterblast-1_h1_6_9" points="443,90 448,90 453,85 448,80 443,80 443,90 " class="clusterblast-orf"  />
<polygon style="stroke:black; stroke-width:1; fill:rgb(42,42,212); " description="short-chain-fatty-acid-CoA_ligase[br]Location: 591209 - 593092&lt;br&gt;&lt;br&gt;&lt;b&gt;BlastP hit with CHAFR746836_0054500.1&lt;/b&gt;&lt;br&gt;Percentage identity: 60%&lt;br&gt;Percentage coverage: 98%&lt;br&gt;BLAST bit score: 686&lt;br&gt;E-value: 0.0" locus_tag="PABG_03729" id="clusterblast-1_h1_6_10" points="457,85 462,80 470,80 470,90 462,90 457,85 " class="clusterblast-orf"  />
<polygon style="stroke:black; stroke-width:1; fill:rgb(169,169,212); " description="L-ornithine_5-monooxygenase[br]Location: 594175 - 595740&lt;br&gt;&lt;br&gt;&lt;b&gt;BlastP hit with CHAFR746836_0054510.1&lt;/b&gt;&lt;br&gt;Percentage identity: 36%&lt;br&gt;Percentage coverage: 62%&lt;br&gt;BLAST bit score: 105&lt;br&gt;E-value: 7e-25" locus_tag="PABG_03730" id="clusterblast-1_h1_6_11" points="478,90 484,90 489,85 484,80 478,80 478,90 " class="clusterblast-orf"  />
<polygon style="stroke:black; stroke-width:1; fill:rgb(169,169,42); " description="conserved_hypothetical_protein[br]Location: 596132 - 597495&lt;br&gt;&lt;br&gt;&lt;b&gt;BlastP hit with CHAFR746836_0054480.1&lt;/b&gt;&lt;br&gt;Percentage identity: 46%&lt;br&gt;Percentage coverage: 52%&lt;br&gt;BLAST bit score: 131&lt;br&gt;E-value: 1e-34" locus_tag="PABG_03731" id="clusterblast-1_h1_6_12" points="491,85 496,80 501,80 501,90 496,90 491,85 " class="clusterblast-orf"  />
<polygon style="stroke:black; stroke-width:1; fill:#FFFFFF; " description="siderophore_iron_transporter_mirB[br]Location: 599650 - 601583" locus_tag="PABG_03732" id="clusterblast-1_h1_6_13" points="516,85 521,80 530,80 530,90 521,90 516,85 " class="clusterblast-orf"  />
<polygon style="stroke:black; stroke-width:1; fill:#FFFFFF; " description="predicted_protein[br]Location: 603589 - 604187" locus_tag="PABG_03733" id="clusterblast-1_h1_6_14" points="544,90 548,85 544,80 544,90 " class="clusterblast-orf"  />
<polygon style="stroke:black; stroke-width:1; fill:#FFFFFF; " description="predicted_protein[br]Location: 605491 - 606660" locus_tag="PABG_03734" id="clusterblast-1_h1_6_15" points="558,90 561,90 566,85 561,80 558,80 558,90 " class="clusterblast-orf"  />
</g>
</svg>
