<svg xmlns="http://www.w3.org/2000/svg" height="230" width="800" version="1.1" y="0" x="0" preserveAspectRatio="none" xmlns:xlink="http://www.w3.org/1999/xlink" viewBox="0 0 800 230"  >
<g class="clusterblast-cluster" label="Query sequence"  >
<text class="clusterblast-acc" y="10" x="5"  >
Query sequence</text>
<line y1="35" x2="778.0" style="stroke:grey; stroke-width:1; " x1="10" y2="35"  />
<polygon style="stroke:black; stroke-width:1; fill:red; " description="unannotated orf[br]Location: 78016 - 79242" locus_tag="CHAFR746836_0016770.1" class="clusterblast-orf" points="251,35 256,30 273,30 273,40 256,40 251,35 " id="clusterblast-1_q36_8_0"  />
<polygon style="stroke:black; stroke-width:1; fill:green; " description="unannotated orf[br]Location: 81171 - 82179" locus_tag="CHAFR746836_0016780.1" class="clusterblast-orf" points="308,40 321,40 326,35 321,30 308,30 308,40 " id="clusterblast-1_q36_8_1"  />
<polygon style="stroke:black; stroke-width:1; fill:blue; " description="unannotated orf[br]Location: 82820 - 84436" locus_tag="CHAFR746836_0016790.1" class="clusterblast-orf" points="338,40 362,40 367,35 362,30 338,30 338,40 " id="clusterblast-1_q36_8_2"  />
<polygon style="stroke:black; stroke-width:1; fill:#FFFFFF; " description="unannotated orf[br]Location: 86969 - 88192" locus_tag="CHAFR746836_0016800.1" class="clusterblast-orf" points="413,35 418,30 435,30 435,40 418,40 413,35 " id="clusterblast-1_q36_8_3"  />
<polygon style="stroke:black; stroke-width:1; fill:yellow; " description="unannotated orf[br]Location: 89104 - 90705" locus_tag="CHAFR746836_0016810.1" class="clusterblast-orf" points="452,40 476,40 481,35 476,30 452,30 452,40 " id="clusterblast-1_q36_8_4"  />
<polygon style="stroke:black; stroke-width:1; fill:#FFFFFF; " description="unannotated orf[br]Location: 92624 - 93697" locus_tag="CHAFR746836_0016820.1" class="clusterblast-orf" points="515,35 520,30 535,30 535,40 520,40 515,35 " id="clusterblast-1_q36_8_5"  />
</g>
<g class="clusterblast-cluster" description="Trichoderma reesei QM6a unplaced genomic scaffold TRIREscaff..." label="GL985069.1_c1"  >
<text class="clusterblast-acc" y="60" x="5"  >
GL985069.1_c1</text>
<text class="clusterblast-desc" y="60" x="460.8"  >
Trichoderma reesei QM6a unplaced genomic scaffold TRIREscaff...</text>
<line y1="85" x2="778.0" style="stroke:grey; stroke-width:1; " x1="10" y2="85"  />
<polygon style="stroke:black; stroke-width:1; fill:#FFFFFF; " description="predicted_protein[br]Location: 127378 - 128064" locus_tag="TRIREDRAFT_64672" id="clusterblast-1_h36_8_0" points="10,85 15,80 22,80 22,90 15,90 10,85 " class="clusterblast-orf"  />
<polygon style="stroke:black; stroke-width:1; fill:#FFFFFF; " description="predicted_protein[br]Location: 130189 - 130596" locus_tag="TRIREDRAFT_33811" id="clusterblast-1_h36_8_1" points="60,85 65,80 68,80 68,90 65,90 60,85 " class="clusterblast-orf"  />
<polygon style="stroke:black; stroke-width:1; fill:#FFFFFF; " description="predicted_protein[br]Location: 133057 - 133966" locus_tag="TRIREDRAFT_64625" id="clusterblast-1_h36_8_2" points="113,85 118,80 129,80 129,90 118,90 113,85 " class="clusterblast-orf"  />
<polygon style="stroke:black; stroke-width:1; fill:#FFFFFF; " description="glycosyltransferase_family_50[br]Location: 134534 - 135982" locus_tag="TRIREDRAFT_64543" id="clusterblast-1_h36_8_3" points="139,90 161,90 166,85 161,80 139,80 139,90 " class="clusterblast-orf"  />
<polygon style="stroke:black; stroke-width:1; fill:#FFFFFF; " description="predicted_protein[br]Location: 136682 - 138479" locus_tag="TRIREDRAFT_79466" id="clusterblast-1_h36_8_4" points="178,85 183,80 211,80 211,90 183,90 178,85 " class="clusterblast-orf"  />
<polygon style="stroke:black; stroke-width:1; fill:#FFFFFF; " description="protease[br]Location: 145149 - 146530" locus_tag="TRIREDRAFT_64719" id="clusterblast-1_h36_8_5" points="332,90 352,90 357,85 352,80 332,80 332,90 " class="clusterblast-orf"  />
<polygon style="stroke:black; stroke-width:1; fill:yellow; " description="squalene_synthase[br]Location: 147461 - 149034&lt;br&gt;&lt;br&gt;&lt;b&gt;BlastP hit with CHAFR746836_0016810.1&lt;/b&gt;&lt;br&gt;Percentage identity: 62%&lt;br&gt;Percentage coverage: 97%&lt;br&gt;BLAST bit score: 575&lt;br&gt;E-value: 0.0" locus_tag="TRIREDRAFT_122653" id="clusterblast-1_h36_8_6" points="374,85 379,80 402,80 402,90 379,90 374,85 " class="clusterblast-orf"  />
<polygon style="stroke:black; stroke-width:1; fill:#FFFFFF; " description="predicted_protein[br]Location: 149207 - 149788" locus_tag="TRIREDRAFT_108975" id="clusterblast-1_h36_8_7" points="405,90 411,90 416,85 411,80 405,80 405,90 " class="clusterblast-orf"  />
<polygon style="stroke:black; stroke-width:1; fill:green; " description="predicted_protein[br]Location: 151399 - 152363&lt;br&gt;&lt;br&gt;&lt;b&gt;BlastP hit with CHAFR746836_0016780.1&lt;/b&gt;&lt;br&gt;Percentage identity: 70%&lt;br&gt;Percentage coverage: 99%&lt;br&gt;BLAST bit score: 454&lt;br&gt;E-value: 8e-160" locus_tag="TRIREDRAFT_64836" id="clusterblast-1_h36_8_8" points="445,90 458,90 463,85 458,80 445,80 445,90 " class="clusterblast-orf"  />
<polygon style="stroke:black; stroke-width:1; fill:blue; " description="predicted_protein[br]Location: 153073 - 154735&lt;br&gt;&lt;br&gt;&lt;b&gt;BlastP hit with CHAFR746836_0016790.1&lt;/b&gt;&lt;br&gt;Percentage identity: 68%&lt;br&gt;Percentage coverage: 95%&lt;br&gt;BLAST bit score: 597&lt;br&gt;E-value: 0.0" locus_tag="TRIREDRAFT_49696" id="clusterblast-1_h36_8_9" points="476,90 501,90 506,85 501,80 476,80 476,90 " class="clusterblast-orf"  />
<polygon style="stroke:black; stroke-width:1; fill:#FFFFFF; " description="predicted_protein[br]Location: 156385 - 158946" locus_tag="TRIREDRAFT_122656" id="clusterblast-1_h36_8_10" points="536,85 541,80 582,80 582,90 541,90 536,85 " class="clusterblast-orf"  />
<polygon style="stroke:black; stroke-width:1; fill:#FFFFFF; " description="Hypothetical_protein[br]Location: 160640 - 161707" locus_tag="TRIREDRAFT_122657" id="clusterblast-1_h36_8_11" points="613,90 627,90 632,85 627,80 613,80 613,90 " class="clusterblast-orf"  />
<polygon style="stroke:black; stroke-width:1; fill:#FFFFFF; " description="hypothetical_protein[br]Location: 161924 - 164470" locus_tag="TRIREDRAFT_64498" id="clusterblast-1_h36_8_12" points="636,85 641,80 682,80 682,90 641,90 636,85 " class="clusterblast-orf"  />
<polygon style="stroke:black; stroke-width:1; fill:#FFFFFF; " description="predicted_protein[br]Location: 165217 - 166587" locus_tag="TRIREDRAFT_64545" id="clusterblast-1_h36_8_13" points="696,85 701,80 721,80 721,90 701,90 696,85 " class="clusterblast-orf"  />
<polygon style="stroke:black; stroke-width:1; fill:#FFFFFF; " description="predicted_protein[br]Location: 168851 - 169716" locus_tag="TRIREDRAFT_64790" id="clusterblast-1_h36_8_14" points="762,85 767,80 778,80 778,90 767,90 762,85 " class="clusterblast-orf"  />
</g>
</svg>
