<svg xmlns="http://www.w3.org/2000/svg" height="230" width="800" version="1.1" y="0" x="0" preserveAspectRatio="none" xmlns:xlink="http://www.w3.org/1999/xlink" viewBox="0 0 800 230"  >
<g class="clusterblast-cluster" label="Query sequence"  >
<text class="clusterblast-acc" y="10" x="5"  >
Query sequence</text>
<line y1="35" x2="778.0" style="stroke:grey; stroke-width:1; " x1="10" y2="35"  />
<polygon style="stroke:black; stroke-width:1; fill:red; " description="unannotated orf[br]Location: 12682 - 14106" locus_tag="CHAFR746836_0048090.1" class="clusterblast-orf" points="264,35 269,30 287,30 287,40 269,40 264,35 " id="clusterblast-1_q58_5_0"  />
<polygon style="stroke:black; stroke-width:1; fill:green; " description="unannotated orf[br]Location: 15778 - 17791" locus_tag="CHAFR746836_0048100.1" class="clusterblast-orf" points="314,40 341,40 346,35 341,30 314,30 314,40 " id="clusterblast-1_q58_5_1"  />
<polygon style="stroke:black; stroke-width:1; fill:blue; " description="unannotated orf[br]Location: 18075 - 18962" locus_tag="CHAFR746836_0048110.1" class="clusterblast-orf" points="351,35 356,30 366,30 366,40 356,40 351,35 " id="clusterblast-1_q58_5_2"  />
<polygon style="stroke:black; stroke-width:1; fill:yellow; " description="unannotated orf[br]Location: 20277 - 28682" locus_tag="CHAFR746836_0048120.1" class="clusterblast-orf" points="387,40 518,40 523,35 518,30 387,30 387,40 " id="clusterblast-1_q58_5_3"  />
</g>
<g class="clusterblast-cluster" description="Aspergillus kawachii IFO 4308 DNA, contig: scaffold00033, wh..." label="DF126479.1_c1"  >
<text class="clusterblast-acc" y="60" x="5"  >
DF126479.1_c1</text>
<text class="clusterblast-desc" y="60" x="460.8"  >
Aspergillus kawachii IFO 4308 DNA, contig: scaffold00033, wh...</text>
<line y1="85" x2="778.0" style="stroke:grey; stroke-width:1; " x1="10" y2="85"  />
<polygon style="stroke:black; stroke-width:1; fill:#FFFFFF; " description="similar_to_An03g05230[br]Location: 21809 - 22236" locus_tag="AKAW_09333" id="clusterblast-1_h58_5_0" points="10,85 15,80 16,80 16,90 15,90 10,85 " class="clusterblast-orf"  />
<polygon style="stroke:black; stroke-width:1; fill:#FFFFFF; " description="similar_to_An03g05220[br]Location: 23150 - 24341" locus_tag="AKAW_09334" id="clusterblast-1_h58_5_1" points="31,90 46,90 51,85 46,80 31,80 31,90 " class="clusterblast-orf"  />
<polygon style="stroke:black; stroke-width:1; fill:#FFFFFF; " description="glucooligosaccharide_oxidase[br]Location: 24444 - 25926" locus_tag="AKAW_09335" id="clusterblast-1_h58_5_2" points="52,85 57,80 76,80 76,90 57,90 52,85 " class="clusterblast-orf"  />
<polygon style="stroke:black; stroke-width:1; fill:#FFFFFF; " description="serine_carboxypeptidase[br]Location: 26609 - 28412" locus_tag="AKAW_09336" id="clusterblast-1_h58_5_3" points="87,85 92,80 117,80 117,90 92,90 87,85 " class="clusterblast-orf"  />
<polygon style="stroke:black; stroke-width:1; fill:#FFFFFF; " description="xylitol_dehydrogenase_XdhB[br]Location: 28931 - 30084" locus_tag="AKAW_09337" id="clusterblast-1_h58_5_4" points="125,85 130,80 144,80 144,90 130,90 125,85 " class="clusterblast-orf"  />
<polygon style="stroke:black; stroke-width:1; fill:#FFFFFF; " description="flavin_containing_amine_oxidase[br]Location: 30653 - 31726" locus_tag="AKAW_09338" id="clusterblast-1_h58_5_5" points="153,90 166,90 171,85 166,80 153,80 153,90 " class="clusterblast-orf"  />
<polygon style="stroke:black; stroke-width:1; fill:#FFFFFF; " description="HLH_transcription_factor[br]Location: 33281 - 36226" locus_tag="AKAW_09339" id="clusterblast-1_h58_5_6" points="196,90 239,90 244,85 239,80 196,80 196,90 " class="clusterblast-orf"  />
<polygon style="stroke:black; stroke-width:1; fill:#FFFFFF; " description="ferric-chelate_reductase[br]Location: 38432 - 40552" locus_tag="AKAW_09340" id="clusterblast-1_h58_5_7" points="280,90 309,90 314,85 309,80 280,80 280,90 " class="clusterblast-orf"  />
<polygon style="stroke:black; stroke-width:1; fill:#FFFFFF; " description="D-mandelate_dehydrogenase[br]Location: 40872 - 41807" locus_tag="AKAW_09341" id="clusterblast-1_h58_5_8" points="319,85 324,80 334,80 334,90 324,90 319,85 " class="clusterblast-orf"  />
<polygon style="stroke:black; stroke-width:1; fill:yellow; " description="polyketide_synthase[br]Location: 42040 - 50533&lt;br&gt;&lt;br&gt;&lt;b&gt;BlastP hit with CHAFR746836_0048120.1&lt;/b&gt;&lt;br&gt;Percentage identity: 37%&lt;br&gt;Percentage coverage: 103%&lt;br&gt;BLAST bit score: 1586&lt;br&gt;E-value: 0.0" locus_tag="AKAW_09342" id="clusterblast-1_h58_5_9" points="338,85 343,80 476,80 476,90 343,90 338,85 " class="clusterblast-orf"  />
<polygon style="stroke:black; stroke-width:1; fill:green; " description="major_facilitator_superfamily_transporter[br]Location: 51125 - 54661&lt;br&gt;&lt;br&gt;&lt;b&gt;BlastP hit with CHAFR746836_0048100.1&lt;/b&gt;&lt;br&gt;Percentage identity: 37%&lt;br&gt;Percentage coverage: 93%&lt;br&gt;BLAST bit score: 296&lt;br&gt;E-value: 3e-89&lt;br&gt;&lt;br&gt;&lt;b&gt;BlastP hit with CHAFR746836_0048110.1&lt;/b&gt;&lt;br&gt;Percentage identity: 38%&lt;br&gt;Percentage coverage: 74%&lt;br&gt;BLAST bit score: 112&lt;br&gt;E-value: 1e-26" locus_tag="AKAW_09343" id="clusterblast-1_h58_5_10" points="486,90 538,90 543,85 538,80 486,80 486,90 " class="clusterblast-orf"  />
<polygon style="stroke:black; stroke-width:1; fill:#FFFFFF; " description="EF-hand_calcium-binding_domain_protein[br]Location: 54844 - 55698" locus_tag="AKAW_09344" id="clusterblast-1_h58_5_11" points="546,85 551,80 560,80 560,90 551,90 546,85 " class="clusterblast-orf"  />
<polygon style="stroke:black; stroke-width:1; fill:#FFFFFF; " description="exosome_complex_subunit_Rrp46[br]Location: 56934 - 57774" locus_tag="AKAW_09345" id="clusterblast-1_h58_5_12" points="580,90 589,90 594,85 589,80 580,80 580,90 " class="clusterblast-orf"  />
<polygon style="stroke:black; stroke-width:1; fill:#FFFFFF; " description="NAD+_kinase_Utr1[br]Location: 59442 - 61450" locus_tag="AKAW_09346" id="clusterblast-1_h58_5_13" points="621,90 648,90 653,85 648,80 621,80 621,90 " class="clusterblast-orf"  />
<polygon style="stroke:black; stroke-width:1; fill:#FFFFFF; " description="GAF_domain_nucleotide-binding_protein[br]Location: 62001 - 62904" locus_tag="AKAW_09347" id="clusterblast-1_h58_5_14" points="662,85 667,80 677,80 677,90 667,90 662,85 " class="clusterblast-orf"  />
<polygon style="stroke:black; stroke-width:1; fill:#FFFFFF; " description="arginase_family_protein[br]Location: 63405 - 64984" locus_tag="AKAW_09348" id="clusterblast-1_h58_5_15" points="685,90 706,90 711,85 706,80 685,80 685,90 " class="clusterblast-orf"  />
<polygon style="stroke:black; stroke-width:1; fill:#FFFFFF; " description="GABA_permease[br]Location: 65152 - 66990" locus_tag="AKAW_09349" id="clusterblast-1_h58_5_16" points="714,85 719,80 743,80 743,90 719,90 714,85 " class="clusterblast-orf"  />
<polygon style="stroke:black; stroke-width:1; fill:#FFFFFF; " description="short_chain_dehydrogenase/oxidoreductase[br]Location: 68243 - 69091" locus_tag="AKAW_09350" id="clusterblast-1_h58_5_17" points="764,90 773,90 778,85 773,80 764,80 764,90 " class="clusterblast-orf"  />
</g>
</svg>
