<svg xmlns="http://www.w3.org/2000/svg" height="230" width="800" version="1.1" y="0" x="0" preserveAspectRatio="none" xmlns:xlink="http://www.w3.org/1999/xlink" viewBox="0 0 800 230"  >
<g class="clusterblast-cluster" label="Query sequence"  >
<text class="clusterblast-acc" y="10" x="5"  >
Query sequence</text>
<line y1="35" x2="778.0" style="stroke:grey; stroke-width:1; " x1="10" y2="35"  />
<polygon style="stroke:black; stroke-width:1; fill:rgb(190,63,63); " description="unannotated orf[br]Location: 207 - 1204" locus_tag="CHAFR746836_0060940.1" class="clusterblast-orf" points="10,35 15,30 19,30 19,40 15,40 10,35 " id="clusterblast-2_q5_1_0"  />
<polygon style="stroke:black; stroke-width:1; fill:rgb(63,63,190); " description="unannotated orf[br]Location: 2322 - 6530" locus_tag="CHAFR746836_0060950.1" class="clusterblast-orf" points="29,40 64,40 69,35 64,30 29,30 29,40 " id="clusterblast-2_q5_1_1"  />
<polygon style="stroke:black; stroke-width:1; fill:rgb(63,190,63); " description="unannotated orf[br]Location: 10116 - 15324" locus_tag="CHAFR746836_0060960.1" class="clusterblast-orf" points="103,40 147,40 152,35 147,30 103,30 103,40 " id="clusterblast-2_q5_1_2"  />
<polygon style="stroke:black; stroke-width:1; fill:#FFFFFF; " description="unannotated orf[br]Location: 16383 - 17532" locus_tag="CHAFR746836_0060970.1" class="clusterblast-orf" points="162,35 167,30 173,30 173,40 167,40 162,35 " id="clusterblast-2_q5_1_3"  />
<polygon style="stroke:black; stroke-width:1; fill:#FFFFFF; " description="unannotated orf[br]Location: 21187 - 23857" locus_tag="CHAFR746836_0060980.1" class="clusterblast-orf" points="207,35 212,30 232,30 232,40 212,40 207,35 " id="clusterblast-2_q5_1_4"  />
<polygon style="stroke:black; stroke-width:1; fill:#FFFFFF; " description="unannotated orf[br]Location: 25860 - 27618" locus_tag="CHAFR746836_0060990.1" class="clusterblast-orf" points="251,35 256,30 268,30 268,40 256,40 251,35 " id="clusterblast-2_q5_1_5"  />
<polygon style="stroke:black; stroke-width:1; fill:#FFFFFF; " description="unannotated orf[br]Location: 28662 - 29973" locus_tag="CHAFR746836_0061000.1" class="clusterblast-orf" points="277,35 282,30 290,30 290,40 282,40 277,35 " id="clusterblast-2_q5_1_6"  />
<polygon style="stroke:black; stroke-width:1; fill:#FFFFFF; " description="unannotated orf[br]Location: 31849 - 32962" locus_tag="CHAFR746836_0061010.1" class="clusterblast-orf" points="307,35 312,30 318,30 318,40 312,40 307,35 " id="clusterblast-2_q5_1_7"  />
<polygon style="stroke:black; stroke-width:1; fill:#FFFFFF; " description="unannotated orf[br]Location: 35346 - 36469" locus_tag="CHAFR746836_0061020.1" class="clusterblast-orf" points="340,40 346,40 351,35 346,30 340,30 340,40 " id="clusterblast-2_q5_1_8"  />
<polygon style="stroke:black; stroke-width:1; fill:rgb(190,63,190); " description="unannotated orf[br]Location: 38122 - 39903" locus_tag="CHAFR746836_0061030.1" class="clusterblast-orf" points="366,40 378,40 383,35 378,30 366,30 366,40 " id="clusterblast-2_q5_1_9"  />
<polygon style="stroke:black; stroke-width:1; fill:#FFFFFF; " description="unannotated orf[br]Location: 40585 - 42854" locus_tag="CHAFR746836_0061040.1" class="clusterblast-orf" points="390,35 395,30 411,30 411,40 395,40 390,35 " id="clusterblast-2_q5_1_10"  />
<polygon style="stroke:black; stroke-width:1; fill:rgb(190,190,63); " description="unannotated orf[br]Location: 52799 - 56938" locus_tag="CHAFR746836_0061050.1" class="clusterblast-orf" points="505,35 510,30 544,30 544,40 510,40 505,35 " id="clusterblast-2_q5_1_11"  />
<polygon style="stroke:black; stroke-width:1; fill:#FFFFFF; " description="unannotated orf[br]Location: 58138 - 58734" locus_tag="CHAFR746836_0061060.1" class="clusterblast-orf" points="555,40 555,40 560,35 555,30 555,30 555,40 " id="clusterblast-2_q5_1_12"  />
<polygon style="stroke:black; stroke-width:1; fill:#FFFFFF; " description="unannotated orf[br]Location: 74060 - 75703" locus_tag="CHAFR746836_0061070.1" class="clusterblast-orf" points="705,40 715,40 720,35 715,30 705,30 705,40 " id="clusterblast-2_q5_1_13"  />
<polygon style="stroke:black; stroke-width:1; fill:rgb(190,190,190); " description="unannotated orf[br]Location: 80197 - 81757" locus_tag="CHAFR746836_0061080.2" class="clusterblast-orf" points="762,40 772,40 777,35 772,30 762,30 762,40 " id="clusterblast-2_q5_1_14"  />
<polygon style="stroke:black; stroke-width:1; fill:rgb(63,190,190); " description="unannotated orf[br]Location: 80197 - 81797" locus_tag="CHAFR746836_0061080.1" class="clusterblast-orf" points="762,40 773,40 778,35 773,30 762,30 762,40 " id="clusterblast-2_q5_1_15"  />
</g>
<g class="clusterblast-cluster" description="Glarea lozoyensis 74030 Seq110, whole genome shotgun seq..." label="AGUE01000110.1_c1"  >
<text class="clusterblast-acc" y="60" x="5"  >
AGUE01000110.1_c1</text>
<text class="clusterblast-desc" y="60" x="460.8"  >
Glarea lozoyensis 74030 Seq110, whole genome shotgun seq...</text>
<line y1="85" x2="778.0" style="stroke:grey; stroke-width:1; " x1="10" y2="85"  />
<polygon style="stroke:black; stroke-width:1; fill:#FFFFFF; " description="putative_N-acetylated-alpha-linked_acidic[br]Location: 352848 - 353313" locus_tag="M7I_4537" id="clusterblast-2_h5_1_0" points="216,85 220,80 220,90 216,85 " class="clusterblast-orf"  />
<polygon style="stroke:black; stroke-width:1; fill:rgb(190,190,190); " description="putative_Allantoate_permease[br]Location: 346785 - 348687&lt;br&gt;&lt;br&gt;&lt;b&gt;BlastP hit with CHAFR746836_0061080.2&lt;/b&gt;&lt;br&gt;Percentage identity: 31%&lt;br&gt;Percentage coverage: 25%&lt;br&gt;BLAST bit score: 60&lt;br&gt;E-value: 1e-09&lt;br&gt;&lt;br&gt;&lt;b&gt;BlastP hit with CHAFR746836_0061080.1&lt;/b&gt;&lt;br&gt;Percentage identity: 31%&lt;br&gt;Percentage coverage: 23%&lt;br&gt;BLAST bit score: 60&lt;br&gt;E-value: 1e-09" locus_tag="M7I_4536" id="clusterblast-2_h5_1_1" points="259,90 272,90 277,85 272,80 259,80 259,90 " class="clusterblast-orf"  />
<polygon style="stroke:black; stroke-width:1; fill:rgb(190,190,63); " description="putative_HC-toxin_synthetase[br]Location: 334869 - 345330&lt;br&gt;&lt;br&gt;&lt;b&gt;BlastP hit with CHAFR746836_0060960.1&lt;/b&gt;&lt;br&gt;Percentage identity: 41%&lt;br&gt;Percentage coverage: 27%&lt;br&gt;BLAST bit score: 378&lt;br&gt;E-value: 6e-105&lt;br&gt;&lt;br&gt;&lt;b&gt;BlastP hit with CHAFR746836_0061050.1&lt;/b&gt;&lt;br&gt;Percentage identity: 31%&lt;br&gt;Percentage coverage: 63%&lt;br&gt;BLAST bit score: 390&lt;br&gt;E-value: 9e-111" locus_tag="M7I_4535" id="clusterblast-2_h5_1_2" points="291,85 296,80 389,80 389,90 296,90 291,85 " class="clusterblast-orf"  />
<polygon style="stroke:black; stroke-width:1; fill:rgb(63,63,190); " description="putative_Metal_resistance_protein_YCF1[br]Location: 315642 - 319329&lt;br&gt;&lt;br&gt;&lt;b&gt;BlastP hit with CHAFR746836_0060950.1&lt;/b&gt;&lt;br&gt;Percentage identity: 35%&lt;br&gt;Percentage coverage: 14%&lt;br&gt;BLAST bit score: 100&lt;br&gt;E-value: 6e-20" locus_tag="M7I_4533" id="clusterblast-2_h5_1_3" points="535,90 565,90 570,85 565,80 535,80 535,90 " class="clusterblast-orf"  />
</g>
</svg>
