<svg xmlns="http://www.w3.org/2000/svg" height="230" width="800" version="1.1" y="0" x="0" preserveAspectRatio="none" xmlns:xlink="http://www.w3.org/1999/xlink" viewBox="0 0 800 230"  >
<g class="clusterblast-cluster" label="Query sequence"  >
<text class="clusterblast-acc" y="10" x="5"  >
Query sequence</text>
<line y1="35" x2="778.0" style="stroke:grey; stroke-width:1; " x1="10" y2="35"  />
<polygon style="stroke:black; stroke-width:1; fill:#FFFFFF; " description="unannotated orf[br]Location: 6136 - 7367" locus_tag="CHAFR746836_0085100.1" class="clusterblast-orf" points="10,35 15,30 22,30 22,40 15,40 10,35 " id="clusterblast-1_q17_4_0"  />
<polygon style="stroke:black; stroke-width:1; fill:rgb(190,63,63); " description="unannotated orf[br]Location: 11222 - 12640" locus_tag="CHAFR746836_0085110.1" class="clusterblast-orf" points="59,35 64,30 73,30 73,40 64,40 59,35 " id="clusterblast-1_q17_4_1"  />
<polygon style="stroke:black; stroke-width:1; fill:#FFFFFF; " description="unannotated orf[br]Location: 13318 - 14845" locus_tag="CHAFR746836_0085120.1" class="clusterblast-orf" points="80,40 90,40 95,35 90,30 80,30 80,40 " id="clusterblast-1_q17_4_2"  />
<polygon style="stroke:black; stroke-width:1; fill:rgb(63,63,190); " description="unannotated orf[br]Location: 45129 - 47273" locus_tag="CHAFR746836_0085130.1" class="clusterblast-orf" points="392,35 397,30 413,30 413,40 397,40 392,35 " id="clusterblast-1_q17_4_3"  />
<polygon style="stroke:black; stroke-width:1; fill:#FFFFFF; " description="unannotated orf[br]Location: 49048 - 50295" locus_tag="CHAFR746836_0085140.1" class="clusterblast-orf" points="430,40 437,40 442,35 437,30 430,30 430,40 " id="clusterblast-1_q17_4_4"  />
<polygon style="stroke:black; stroke-width:1; fill:#FFFFFF; " description="unannotated orf[br]Location: 50632 - 52244" locus_tag="CHAFR746836_0085150.1" class="clusterblast-orf" points="446,35 451,30 461,30 461,40 451,40 446,35 " id="clusterblast-1_q17_4_5"  />
<polygon style="stroke:black; stroke-width:1; fill:rgb(63,190,63); " description="unannotated orf[br]Location: 54334 - 65855" locus_tag="CHAFR746836_0085160.1" class="clusterblast-orf" points="482,40 590,40 595,35 590,30 482,30 482,40 " id="clusterblast-1_q17_4_6"  />
<polygon style="stroke:black; stroke-width:1; fill:rgb(190,63,190); " description="unannotated orf[br]Location: 67816 - 68591" locus_tag="CHAFR746836_0085170.1" class="clusterblast-orf" points="614,35 619,30 622,30 622,40 619,40 614,35 " id="clusterblast-1_q17_4_7"  />
<polygon style="stroke:black; stroke-width:1; fill:rgb(190,190,63); " description="unannotated orf[br]Location: 74280 - 75627" locus_tag="CHAFR746836_0085180.1" class="clusterblast-orf" points="678,40 686,40 691,35 686,30 678,30 678,40 " id="clusterblast-1_q17_4_8"  />
<polygon style="stroke:black; stroke-width:1; fill:#FFFFFF; " description="unannotated orf[br]Location: 77113 - 77652" locus_tag="CHAFR746836_0085190.1" class="clusterblast-orf" points="705,35 710,30 711,30 711,40 710,40 705,35 " id="clusterblast-1_q17_4_9"  />
<polygon style="stroke:black; stroke-width:1; fill:rgb(190,190,190); " description="unannotated orf[br]Location: 78175 - 79191" locus_tag="CHAFR746836_0085200.1" class="clusterblast-orf" points="716,40 721,40 726,35 721,30 716,30 716,40 " id="clusterblast-1_q17_4_10"  />
<polygon style="stroke:black; stroke-width:1; fill:#FFFFFF; " description="unannotated orf[br]Location: 83575 - 84480" locus_tag="CHAFR746836_0085210.1" class="clusterblast-orf" points="769,40 773,40 778,35 773,30 769,30 769,40 " id="clusterblast-1_q17_4_11"  />
</g>
<g class="clusterblast-cluster" description="Chondromyces crocatus crocacin biosynthetic gene cluster, st..." label="FN547928.1_c1"  >
<text class="clusterblast-acc" y="60" x="5"  >
FN547928.1_c1</text>
<text class="clusterblast-desc" y="60" x="460.8"  >
Chondromyces crocatus crocacin biosynthetic gene cluster, st...</text>
<line y1="85" x2="778.0" style="stroke:grey; stroke-width:1; " x1="10" y2="85"  />
<polygon style="stroke:black; stroke-width:1; fill:#FFFFFF; " description="hypothetical_protein[br]Location: 312 - 2426" locus_tag="CBD77727.1" id="clusterblast-1_h17_4_0" points="97,90 112,90 117,85 112,80 97,80 97,90 " class="clusterblast-orf"  />
<polygon style="stroke:black; stroke-width:1; fill:#FFFFFF; " description="hypothetical_protein[br]Location: 3673 - 5499" locus_tag="CBD77728.1" id="clusterblast-1_h17_4_1" points="129,90 142,90 147,85 142,80 129,80 129,90 " class="clusterblast-orf"  />
<polygon style="stroke:black; stroke-width:1; fill:#FFFFFF; " description="hypothetical_protein[br]Location: 5523 - 7367" locus_tag="CBD77730.1" id="clusterblast-1_h17_4_2" points="148,90 161,90 166,85 161,80 148,80 148,90 " class="clusterblast-orf"  />
<polygon style="stroke:black; stroke-width:1; fill:rgb(63,190,63); " description="polyketide_synthase[br]Location: 7669 - 15435&lt;br&gt;&lt;br&gt;&lt;b&gt;BlastP hit with CHAFR746836_0085160.1&lt;/b&gt;&lt;br&gt;Percentage identity: 35%&lt;br&gt;Percentage coverage: 24%&lt;br&gt;BLAST bit score: 506&lt;br&gt;E-value: 6e-143" locus_tag="CBD77732.1" id="clusterblast-1_h17_4_3" points="169,90 240,90 245,85 240,80 169,80 169,90 " class="clusterblast-orf"  />
<polygon style="stroke:black; stroke-width:1; fill:rgb(63,190,63); " description="polyketide_synthase[br]Location: 15432 - 21140&lt;br&gt;&lt;br&gt;&lt;b&gt;BlastP hit with CHAFR746836_0085160.1&lt;/b&gt;&lt;br&gt;Percentage identity: 34%&lt;br&gt;Percentage coverage: 24%&lt;br&gt;BLAST bit score: 493&lt;br&gt;E-value: 3e-140&lt;br&gt;&lt;br&gt;&lt;b&gt;BlastP hit with CHAFR746836_0085180.1&lt;/b&gt;&lt;br&gt;Percentage identity: 39%&lt;br&gt;Percentage coverage: 45%&lt;br&gt;BLAST bit score: 112&lt;br&gt;E-value: 2e-25" locus_tag="CBD77734.1" id="clusterblast-1_h17_4_4" points="245,90 296,90 301,85 296,80 245,80 245,90 " class="clusterblast-orf"  />
<polygon style="stroke:black; stroke-width:1; fill:rgb(63,190,63); " description="polyketide_synthase[br]Location: 21208 - 26844&lt;br&gt;&lt;br&gt;&lt;b&gt;BlastP hit with CHAFR746836_0085160.1&lt;/b&gt;&lt;br&gt;Percentage identity: 33%&lt;br&gt;Percentage coverage: 23%&lt;br&gt;BLAST bit score: 460&lt;br&gt;E-value: 7e-130&lt;br&gt;&lt;br&gt;&lt;b&gt;BlastP hit with CHAFR746836_0085180.1&lt;/b&gt;&lt;br&gt;Percentage identity: 31%&lt;br&gt;Percentage coverage: 108%&lt;br&gt;BLAST bit score: 163&lt;br&gt;E-value: 2e-42" locus_tag="CBD77736.1" id="clusterblast-1_h17_4_5" points="301,90 352,90 357,85 352,80 301,80 301,90 " class="clusterblast-orf"  />
<polygon style="stroke:black; stroke-width:1; fill:rgb(63,190,63); " description="polyketide_synthase[br]Location: 26841 - 29633&lt;br&gt;&lt;br&gt;&lt;b&gt;BlastP hit with CHAFR746836_0085160.1&lt;/b&gt;&lt;br&gt;Percentage identity: 34%&lt;br&gt;Percentage coverage: 23%&lt;br&gt;BLAST bit score: 460&lt;br&gt;E-value: 3e-136" locus_tag="CBD77738.1" id="clusterblast-1_h17_4_6" points="357,90 379,90 384,85 379,80 357,80 357,90 " class="clusterblast-orf"  />
<polygon style="stroke:black; stroke-width:1; fill:#FFFFFF; " description="hydroxymethylglutaryl-coenzyme_A[br]Location: 29630 - 30883" locus_tag="CBD77739.1" id="clusterblast-1_h17_4_7" points="384,90 391,90 396,85 391,80 384,80 384,90 " class="clusterblast-orf"  />
<polygon style="stroke:black; stroke-width:1; fill:#FFFFFF; " description="enoyl-coA-hydratase/isomerase[br]Location: 30874 - 31677" locus_tag="CBD77741.1" id="clusterblast-1_h17_4_8" points="396,90 399,90 404,85 399,80 396,80 396,90 " class="clusterblast-orf"  />
<polygon style="stroke:black; stroke-width:1; fill:rgb(190,190,190); " description="enoyl-coA-hydratase/isomerase[br]Location: 31674 - 32462&lt;br&gt;&lt;br&gt;&lt;b&gt;BlastP hit with CHAFR746836_0085200.1&lt;/b&gt;&lt;br&gt;Percentage identity: 32%&lt;br&gt;Percentage coverage: 47%&lt;br&gt;BLAST bit score: 70&lt;br&gt;E-value: 1e-12" locus_tag="CBD77742.1" id="clusterblast-1_h17_4_9" points="404,90 407,90 412,85 407,80 404,80 404,90 " class="clusterblast-orf"  />
<polygon style="stroke:black; stroke-width:1; fill:#FFFFFF; " description="acyl_carrier_protein[br]Location: 32449 - 32700" locus_tag="CBD77744.1" id="clusterblast-1_h17_4_10" points="412,90 414,85 412,80 412,90 " class="clusterblast-orf"  />
<polygon style="stroke:black; stroke-width:1; fill:rgb(190,190,63); " description="non-ribosomal_peptide_synthetase/polyketide[br]Location: 32700 - 41591&lt;br&gt;&lt;br&gt;&lt;b&gt;BlastP hit with CHAFR746836_0085180.1&lt;/b&gt;&lt;br&gt;Percentage identity: 39%&lt;br&gt;Percentage coverage: 48%&lt;br&gt;BLAST bit score: 110&lt;br&gt;E-value: 1e-24" locus_tag="CBD77746.1" id="clusterblast-1_h17_4_11" points="414,90 496,90 501,85 496,80 414,80 414,90 " class="clusterblast-orf"  />
<polygon style="stroke:black; stroke-width:1; fill:rgb(63,190,63); " description="polyketide_synthase[br]Location: 41588 - 47272&lt;br&gt;&lt;br&gt;&lt;b&gt;BlastP hit with CHAFR746836_0085160.1&lt;/b&gt;&lt;br&gt;Percentage identity: 32%&lt;br&gt;Percentage coverage: 24%&lt;br&gt;BLAST bit score: 444&lt;br&gt;E-value: 1e-124&lt;br&gt;&lt;br&gt;&lt;b&gt;BlastP hit with CHAFR746836_0085180.1&lt;/b&gt;&lt;br&gt;Percentage identity: 32%&lt;br&gt;Percentage coverage: 111%&lt;br&gt;BLAST bit score: 164&lt;br&gt;E-value: 5e-43" locus_tag="CBD77748.1" id="clusterblast-1_h17_4_12" points="501,90 552,90 557,85 552,80 501,80 501,90 " class="clusterblast-orf"  />
<polygon style="stroke:black; stroke-width:1; fill:#FFFFFF; " description="non-ribosomal_peptide_synthetase[br]Location: 47269 - 51879" locus_tag="CBD77749.1" id="clusterblast-1_h17_4_13" points="557,90 597,90 602,85 597,80 557,80 557,90 " class="clusterblast-orf"  />
<polygon style="stroke:black; stroke-width:1; fill:#FFFFFF; " description="O-methyltransferase[br]Location: 51991 - 52713" locus_tag="CBD77751.1" id="clusterblast-1_h17_4_14" points="603,90 605,90 610,85 605,80 603,80 603,90 " class="clusterblast-orf"  />
<polygon style="stroke:black; stroke-width:1; fill:#FFFFFF; " description="cytochrome_P450[br]Location: 52781 - 54028" locus_tag="CBD77752.1" id="clusterblast-1_h17_4_15" points="611,85 616,80 623,80 623,90 616,90 611,85 " class="clusterblast-orf"  />
<polygon style="stroke:black; stroke-width:1; fill:#FFFFFF; " description="hypothetical_protein[br]Location: 54050 - 56128" locus_tag="CBD77754.1" id="clusterblast-1_h17_4_16" points="623,85 628,80 644,80 644,90 628,90 623,85 " class="clusterblast-orf"  />
<polygon style="stroke:black; stroke-width:1; fill:#FFFFFF; " description="hypothetical_protein[br]Location: 56487 - 56942" locus_tag="CBD77756.1" id="clusterblast-1_h17_4_17" points="647,85 652,80 652,80 652,90 652,90 647,85 " class="clusterblast-orf"  />
<polygon style="stroke:black; stroke-width:1; fill:#FFFFFF; " description="cytochrome-c_peroxidase[br]Location: 57147 - 58493" locus_tag="CBD77757.1" id="clusterblast-1_h17_4_18" points="654,85 659,80 667,80 667,90 659,90 654,85 " class="clusterblast-orf"  />
<polygon style="stroke:black; stroke-width:1; fill:#FFFFFF; " description="hypothetical_protein[br]Location: 58845 - 59963" locus_tag="CBD77759.1" id="clusterblast-1_h17_4_19" points="670,90 676,90 681,85 676,80 670,80 670,90 " class="clusterblast-orf"  />
<polygon style="stroke:black; stroke-width:1; fill:#FFFFFF; " description="hypothetical_protein[br]Location: 59960 - 60742" locus_tag="CBD77761.1" id="clusterblast-1_h17_4_20" points="681,90 684,90 689,85 684,80 681,80 681,90 " class="clusterblast-orf"  />
</g>
</svg>
