<svg xmlns="http://www.w3.org/2000/svg" height="230" width="800" version="1.1" y="0" x="0" preserveAspectRatio="none" xmlns:xlink="http://www.w3.org/1999/xlink" viewBox="0 0 800 230"  >
<g class="clusterblast-cluster" label="Query sequence"  >
<text class="clusterblast-acc" y="10" x="5"  >
Query sequence</text>
<line y1="35" x2="778.0" style="stroke:grey; stroke-width:1; " x1="10" y2="35"  />
<polygon style="stroke:black; stroke-width:1; fill:rgb(190,63,63); " description="unannotated orf[br]Location: 1171 - 2581" locus_tag="CHAFR746836_0090890.1" class="clusterblast-orf" points="10,35 15,30 21,30 21,40 15,40 10,35 " id="clusterblast-1_q24_1_0"  />
<polygon style="stroke:black; stroke-width:1; fill:#FFFFFF; " description="unannotated orf[br]Location: 3903 - 4681" locus_tag="CHAFR746836_0090900.1" class="clusterblast-orf" points="31,35 36,30 37,30 37,40 36,40 31,35 " id="clusterblast-1_q24_1_1"  />
<polygon style="stroke:black; stroke-width:1; fill:#FFFFFF; " description="unannotated orf[br]Location: 5272 - 5519" locus_tag="CHAFR746836_0090910.1" class="clusterblast-orf" points="42,40 44,35 42,30 42,40 " id="clusterblast-1_q24_1_2"  />
<polygon style="stroke:black; stroke-width:1; fill:#FFFFFF; " description="unannotated orf[br]Location: 14494 - 15565" locus_tag="CHAFR746836_0090920.1" class="clusterblast-orf" points="115,35 120,30 124,30 124,40 120,40 115,35 " id="clusterblast-1_q24_1_3"  />
<polygon style="stroke:black; stroke-width:1; fill:rgb(63,63,190); " description="unannotated orf[br]Location: 17145 - 18525" locus_tag="CHAFR746836_0090930.1" class="clusterblast-orf" points="136,40 142,40 147,35 142,30 136,30 136,40 " id="clusterblast-1_q24_1_4"  />
<polygon style="stroke:black; stroke-width:1; fill:#FFFFFF; " description="unannotated orf[br]Location: 28799 - 30524" locus_tag="CHAFR746836_0090940.1" class="clusterblast-orf" points="229,40 238,40 243,35 238,30 229,30 229,40 " id="clusterblast-1_q24_1_5"  />
<polygon style="stroke:black; stroke-width:1; fill:#FFFFFF; " description="unannotated orf[br]Location: 41424 - 43262" locus_tag="CHAFR746836_0090950.1" class="clusterblast-orf" points="329,35 334,30 344,30 344,40 334,40 329,35 " id="clusterblast-1_q24_1_6"  />
<polygon style="stroke:black; stroke-width:1; fill:#FFFFFF; " description="unannotated orf[br]Location: 43541 - 44533" locus_tag="CHAFR746836_0090960.1" class="clusterblast-orf" points="346,40 349,40 354,35 349,30 346,30 346,40 " id="clusterblast-1_q24_1_7"  />
<polygon style="stroke:black; stroke-width:1; fill:#FFFFFF; " description="unannotated orf[br]Location: 44819 - 46174" locus_tag="CHAFR746836_0090970.1" class="clusterblast-orf" points="356,35 361,30 367,30 367,40 361,40 356,35 " id="clusterblast-1_q24_1_8"  />
<polygon style="stroke:black; stroke-width:1; fill:#FFFFFF; " description="unannotated orf[br]Location: 46942 - 48495" locus_tag="CHAFR746836_0090980.1" class="clusterblast-orf" points="373,40 380,40 385,35 380,30 373,30 373,40 " id="clusterblast-1_q24_1_9"  />
<polygon style="stroke:black; stroke-width:1; fill:#FFFFFF; " description="unannotated orf[br]Location: 49208 - 50194" locus_tag="CHAFR746836_0090990.1" class="clusterblast-orf" points="391,40 394,40 399,35 394,30 391,30 391,40 " id="clusterblast-1_q24_1_10"  />
<polygon style="stroke:black; stroke-width:1; fill:rgb(63,190,63); " description="unannotated orf[br]Location: 51690 - 53335" locus_tag="CHAFR746836_0091000.1" class="clusterblast-orf" points="411,40 419,40 424,35 419,30 411,30 411,40 " id="clusterblast-1_q24_1_11"  />
<polygon style="stroke:black; stroke-width:1; fill:rgb(190,63,190); " description="unannotated orf[br]Location: 57952 - 59410" locus_tag="CHAFR746836_0091010.1" class="clusterblast-orf" points="460,40 467,40 472,35 467,30 460,30 460,40 " id="clusterblast-1_q24_1_12"  />
<polygon style="stroke:black; stroke-width:1; fill:rgb(190,190,63); " description="unannotated orf[br]Location: 62569 - 63924" locus_tag="CHAFR746836_0091020.1" class="clusterblast-orf" points="497,40 503,40 508,35 503,30 497,30 497,40 " id="clusterblast-1_q24_1_13"  />
<polygon style="stroke:black; stroke-width:1; fill:rgb(190,190,190); " description="unannotated orf[br]Location: 66784 - 68224" locus_tag="CHAFR746836_0091030.1" class="clusterblast-orf" points="531,40 537,40 542,35 537,30 531,30 531,40 " id="clusterblast-1_q24_1_14"  />
<polygon style="stroke:black; stroke-width:1; fill:#FFFFFF; " description="unannotated orf[br]Location: 88555 - 89706" locus_tag="CHAFR746836_0091040.1" class="clusterblast-orf" points="704,35 709,30 713,30 713,40 709,40 704,35 " id="clusterblast-1_q24_1_15"  />
<polygon style="stroke:black; stroke-width:1; fill:rgb(63,190,190); " description="unannotated orf[br]Location: 94755 - 95427" locus_tag="CHAFR746836_0091050.1" class="clusterblast-orf" points="753,35 758,30 758,30 758,40 758,40 753,35 " id="clusterblast-1_q24_1_16"  />
<polygon style="stroke:black; stroke-width:1; fill:rgb(63,63,63); " description="unannotated orf[br]Location: 95982 - 97863" locus_tag="CHAFR746836_0091060.1" class="clusterblast-orf" points="763,40 773,40 778,35 773,30 763,30 763,40 " id="clusterblast-1_q24_1_17"  />
</g>
<g class="clusterblast-cluster" description="Arthrobotrys oligospora ATCC 24927 contig00780, whole ge..." label="ADOT01000134.1_c1"  >
<text class="clusterblast-acc" y="60" x="5"  >
ADOT01000134.1_c1</text>
<text class="clusterblast-desc" y="60" x="460.8"  >
Arthrobotrys oligospora ATCC 24927 contig00780, whole ge...</text>
<line y1="85" x2="778.0" style="stroke:grey; stroke-width:1; " x1="10" y2="85"  />
<polygon style="stroke:black; stroke-width:1; fill:#FFFFFF; " description="hypothetical_protein[br]Location: 457589 - 458618" locus_tag="AOL_s00078g390" id="clusterblast-1_h24_1_0" points="227,85 232,80 235,80 235,90 232,90 227,85 " class="clusterblast-orf"  />
<polygon style="stroke:black; stroke-width:1; fill:#FFFFFF; " description="hypothetical_protein[br]Location: 451879 - 454281" locus_tag="AOL_s00078g389" id="clusterblast-1_h24_1_1" points="261,85 266,80 280,80 280,90 266,90 261,85 " class="clusterblast-orf"  />
<polygon style="stroke:black; stroke-width:1; fill:#FFFFFF; " description="hypothetical_protein[br]Location: 447887 - 450129" locus_tag="AOL_s00078g388" id="clusterblast-1_h24_1_2" points="294,90 307,90 312,85 307,80 294,80 294,90 " class="clusterblast-orf"  />
<polygon style="stroke:black; stroke-width:1; fill:rgb(63,63,63); " description="hypothetical_protein[br]Location: 443448 - 445346&lt;br&gt;&lt;br&gt;&lt;b&gt;BlastP hit with CHAFR746836_0091060.1&lt;/b&gt;&lt;br&gt;Percentage identity: 58%&lt;br&gt;Percentage coverage: 100%&lt;br&gt;BLAST bit score: 550&lt;br&gt;E-value: 0.0" locus_tag="AOL_s00078g387" id="clusterblast-1_h24_1_3" points="332,90 342,90 347,85 342,80 332,80 332,90 " class="clusterblast-orf"  />
<polygon style="stroke:black; stroke-width:1; fill:rgb(63,190,190); " description="hypothetical_protein[br]Location: 441803 - 442606&lt;br&gt;&lt;br&gt;&lt;b&gt;BlastP hit with CHAFR746836_0091050.1&lt;/b&gt;&lt;br&gt;Percentage identity: 33%&lt;br&gt;Percentage coverage: 98%&lt;br&gt;BLAST bit score: 110&lt;br&gt;E-value: 1e-27" locus_tag="AOL_s00078g386" id="clusterblast-1_h24_1_4" points="354,85 359,80 360,80 360,90 359,90 354,85 " class="clusterblast-orf"  />
<polygon style="stroke:black; stroke-width:1; fill:#FFFFFF; " description="hypothetical_protein[br]Location: 440855 - 441378" locus_tag="AOL_s00078g385" id="clusterblast-1_h24_1_5" points="363,90 363,90 368,85 363,80 363,80 363,90 " class="clusterblast-orf"  />
<polygon style="stroke:black; stroke-width:1; fill:rgb(63,63,190); " description="hypothetical_protein[br]Location: 439255 - 440530&lt;br&gt;&lt;br&gt;&lt;b&gt;BlastP hit with CHAFR746836_0090930.1&lt;/b&gt;&lt;br&gt;Percentage identity: 65%&lt;br&gt;Percentage coverage: 76%&lt;br&gt;BLAST bit score: 358&lt;br&gt;E-value: 8e-121" locus_tag="AOL_s00078g384" id="clusterblast-1_h24_1_6" points="370,85 375,80 380,80 380,90 375,90 370,85 " class="clusterblast-orf"  />
<polygon style="stroke:black; stroke-width:1; fill:#FFFFFF; " description="hypothetical_protein[br]Location: 436245 - 437978" locus_tag="AOL_s00078g383" id="clusterblast-1_h24_1_7" points="390,85 395,80 404,80 404,90 395,90 390,85 " class="clusterblast-orf"  />
<polygon style="stroke:black; stroke-width:1; fill:#FFFFFF; " description="hypothetical_protein[br]Location: 429833 - 432202" locus_tag="AOL_s00078g382" id="clusterblast-1_h24_1_8" points="436,90 450,90 455,85 450,80 436,80 436,90 " class="clusterblast-orf"  />
<polygon style="stroke:black; stroke-width:1; fill:#FFFFFF; " description="hypothetical_protein[br]Location: 427550 - 428446" locus_tag="AOL_s00078g381" id="clusterblast-1_h24_1_9" points="466,90 468,90 473,85 468,80 466,80 466,90 " class="clusterblast-orf"  />
<polygon style="stroke:black; stroke-width:1; fill:#FFFFFF; " description="hypothetical_protein[br]Location: 425587 - 427399" locus_tag="AOL_s00078g380" id="clusterblast-1_h24_1_10" points="474,85 479,80 489,80 489,90 479,90 474,85 " class="clusterblast-orf"  />
<polygon style="stroke:black; stroke-width:1; fill:#FFFFFF; " description="hypothetical_protein[br]Location: 422857 - 424556" locus_tag="AOL_s00078g379" id="clusterblast-1_h24_1_11" points="497,90 506,90 511,85 506,80 497,80 497,90 " class="clusterblast-orf"  />
<polygon style="stroke:black; stroke-width:1; fill:rgb(63,190,63); " description="hypothetical_protein[br]Location: 419041 - 420738&lt;br&gt;&lt;br&gt;&lt;b&gt;BlastP hit with CHAFR746836_0091000.1&lt;/b&gt;&lt;br&gt;Percentage identity: 39%&lt;br&gt;Percentage coverage: 75%&lt;br&gt;BLAST bit score: 271&lt;br&gt;E-value: 1e-82" locus_tag="AOL_s00078g378" id="clusterblast-1_h24_1_12" points="527,90 536,90 541,85 536,80 527,80 527,90 " class="clusterblast-orf"  />
<polygon style="stroke:black; stroke-width:1; fill:#FFFFFF; " description="hypothetical_protein[br]Location: 416671 - 417453" locus_tag="AOL_s00078g377" id="clusterblast-1_h24_1_13" points="553,85 558,80 560,80 560,90 558,90 553,85 " class="clusterblast-orf"  />
</g>
</svg>
