<svg xmlns="http://www.w3.org/2000/svg" height="230" width="800" version="1.1" y="0" x="0" preserveAspectRatio="none" xmlns:xlink="http://www.w3.org/1999/xlink" viewBox="0 0 800 230"  >
<g class="clusterblast-cluster" label="Query sequence"  >
<text class="clusterblast-acc" y="10" x="5"  >
Query sequence</text>
<line y1="35" x2="778.0" style="stroke:grey; stroke-width:1; " x1="10" y2="35"  />
<polygon style="stroke:black; stroke-width:1; fill:red; " description="unannotated orf[br]Location: 68134 - 70502" locus_tag="CHAFR746836_0071420.1" class="clusterblast-orf" points="10,35 15,30 20,30 20,40 15,40 10,35 " id="clusterblast-1_q9_2_0"  />
<polygon style="stroke:black; stroke-width:1; fill:#FFFFFF; " description="unannotated orf[br]Location: 72327 - 73788" locus_tag="CHAFR746836_0071430.1" class="clusterblast-orf" points="28,35 33,30 35,30 35,40 33,40 28,35 " id="clusterblast-1_q9_2_1"  />
<polygon style="stroke:black; stroke-width:1; fill:#FFFFFF; " description="unannotated orf[br]Location: 76531 - 77863" locus_tag="CHAFR746836_0071440.1" class="clusterblast-orf" points="47,35 52,30 53,30 53,40 52,40 47,35 " id="clusterblast-1_q9_2_2"  />
<polygon style="stroke:black; stroke-width:1; fill:#FFFFFF; " description="unannotated orf[br]Location: 80274 - 82068" locus_tag="CHAFR746836_0071450.1" class="clusterblast-orf" points="64,40 67,40 72,35 67,30 64,30 64,40 " id="clusterblast-1_q9_2_3"  />
<polygon style="stroke:black; stroke-width:1; fill:green; " description="unannotated orf[br]Location: 84469 - 85881" locus_tag="CHAFR746836_0071460.1" class="clusterblast-orf" points="83,35 88,30 89,30 89,40 88,40 83,35 " id="clusterblast-1_q9_2_4"  />
<polygon style="stroke:black; stroke-width:1; fill:blue; " description="unannotated orf[br]Location: 86196 - 88112" locus_tag="CHAFR746836_0071470.1" class="clusterblast-orf" points="91,40 94,40 99,35 94,30 91,30 91,40 " id="clusterblast-1_q9_2_5"  />
<polygon style="stroke:black; stroke-width:1; fill:#FFFFFF; " description="unannotated orf[br]Location: 90971 - 93131" locus_tag="CHAFR746836_0071480.1" class="clusterblast-orf" points="112,35 117,30 122,30 122,40 117,40 112,35 " id="clusterblast-1_q9_2_6"  />
<polygon style="stroke:black; stroke-width:1; fill:#FFFFFF; " description="unannotated orf[br]Location: 94508 - 96197" locus_tag="CHAFR746836_0071490.1" class="clusterblast-orf" points="128,40 130,40 135,35 130,30 128,30 128,40 " id="clusterblast-1_q9_2_7"  />
<polygon style="stroke:black; stroke-width:1; fill:#FFFFFF; " description="unannotated orf[br]Location: 97454 - 99476" locus_tag="CHAFR746836_0071500.1" class="clusterblast-orf" points="141,40 145,40 150,35 145,30 141,30 141,40 " id="clusterblast-1_q9_2_8"  />
<polygon style="stroke:black; stroke-width:1; fill:#FFFFFF; " description="unannotated orf[br]Location: 100761 - 101297" locus_tag="CHAFR746836_0071510.1" class="clusterblast-orf" points="156,40 158,35 156,30 156,40 " id="clusterblast-1_q9_2_9"  />
<polygon style="stroke:black; stroke-width:1; fill:#FFFFFF; " description="unannotated orf[br]Location: 104385 - 104721" locus_tag="CHAFR746836_0071520.1" class="clusterblast-orf" points="172,40 174,35 172,30 172,40 " id="clusterblast-1_q9_2_10"  />
<polygon style="stroke:black; stroke-width:1; fill:#FFFFFF; " description="unannotated orf[br]Location: 107563 - 110227" locus_tag="CHAFR746836_0071530.1" class="clusterblast-orf" points="186,35 191,30 198,30 198,40 191,40 186,35 " id="clusterblast-1_q9_2_11"  />
<polygon style="stroke:black; stroke-width:1; fill:#FFFFFF; " description="unannotated orf[br]Location: 114742 - 115039" locus_tag="CHAFR746836_0071540.1" class="clusterblast-orf" points="219,40 220,35 219,30 219,40 " id="clusterblast-1_q9_2_12"  />
<polygon style="stroke:black; stroke-width:1; fill:#FFFFFF; " description="unannotated orf[br]Location: 123259 - 127108" locus_tag="CHAFR746836_0071550.1" class="clusterblast-orf" points="257,35 262,30 274,30 274,40 262,40 257,35 " id="clusterblast-1_q9_2_13"  />
<polygon style="stroke:black; stroke-width:1; fill:#FFFFFF; " description="unannotated orf[br]Location: 144812 - 146250" locus_tag="CHAFR746836_0071560.1" class="clusterblast-orf" points="354,35 359,30 360,30 360,40 359,40 354,35 " id="clusterblast-1_q9_2_14"  />
<polygon style="stroke:black; stroke-width:1; fill:#FFFFFF; " description="unannotated orf[br]Location: 152743 - 154459" locus_tag="CHAFR746836_0071570.1" class="clusterblast-orf" points="389,35 394,30 397,30 397,40 394,40 389,35 " id="clusterblast-1_q9_2_15"  />
<polygon style="stroke:black; stroke-width:1; fill:#FFFFFF; " description="unannotated orf[br]Location: 156531 - 157389" locus_tag="CHAFR746836_0071580.1" class="clusterblast-orf" points="406,35 410,30 410,40 406,35 " id="clusterblast-1_q9_2_16"  />
<polygon style="stroke:black; stroke-width:1; fill:#FFFFFF; " description="unannotated orf[br]Location: 164785 - 166669" locus_tag="CHAFR746836_0071590.1" class="clusterblast-orf" points="443,40 447,40 452,35 447,30 443,30 443,40 " id="clusterblast-1_q9_2_17"  />
<polygon style="stroke:black; stroke-width:1; fill:#FFFFFF; " description="unannotated orf[br]Location: 201968 - 203433" locus_tag="CHAFR746836_0071600.1" class="clusterblast-orf" points="610,40 612,40 617,35 612,30 610,30 610,40 " id="clusterblast-1_q9_2_18"  />
<polygon style="stroke:black; stroke-width:1; fill:#FFFFFF; " description="unannotated orf[br]Location: 204836 - 205972" locus_tag="CHAFR746836_0071610.1" class="clusterblast-orf" points="623,40 623,40 628,35 623,30 623,30 623,40 " id="clusterblast-1_q9_2_19"  />
<polygon style="stroke:black; stroke-width:1; fill:#FFFFFF; " description="unannotated orf[br]Location: 207637 - 210779" locus_tag="CHAFR746836_0071620.1" class="clusterblast-orf" points="636,35 641,30 650,30 650,40 641,40 636,35 " id="clusterblast-1_q9_2_20"  />
<polygon style="stroke:black; stroke-width:1; fill:#FFFFFF; " description="unannotated orf[br]Location: 211916 - 213325" locus_tag="CHAFR746836_0071630.1" class="clusterblast-orf" points="655,35 660,30 661,30 661,40 660,40 655,35 " id="clusterblast-1_q9_2_21"  />
<polygon style="stroke:black; stroke-width:1; fill:yellow; " description="unannotated orf[br]Location: 215213 - 216863" locus_tag="CHAFR746836_0071640.1" class="clusterblast-orf" points="670,35 675,30 677,30 677,40 675,40 670,35 " id="clusterblast-1_q9_2_22"  />
<polygon style="stroke:black; stroke-width:1; fill:#FFFFFF; " description="unannotated orf[br]Location: 224691 - 226010" locus_tag="CHAFR746836_0071650.1" class="clusterblast-orf" points="712,40 713,40 718,35 713,30 712,30 712,40 " id="clusterblast-1_q9_2_23"  />
<polygon style="stroke:black; stroke-width:1; fill:#FFFFFF; " description="unannotated orf[br]Location: 230972 - 232109" locus_tag="CHAFR746836_0071660.1" class="clusterblast-orf" points="740,40 740,40 745,35 740,30 740,30 740,40 " id="clusterblast-1_q9_2_24"  />
<polygon style="stroke:black; stroke-width:1; fill:#FFFFFF; " description="unannotated orf[br]Location: 233318 - 234463" locus_tag="CHAFR746836_0071670.1" class="clusterblast-orf" points="751,35 756,30 756,30 756,40 756,40 751,35 " id="clusterblast-1_q9_2_25"  />
<polygon style="stroke:black; stroke-width:1; fill:#FFFFFF; " description="unannotated orf[br]Location: 234897 - 236194" locus_tag="CHAFR746836_0071680.1" class="clusterblast-orf" points="758,40 759,40 764,35 759,30 758,30 758,40 " id="clusterblast-1_q9_2_26"  />
<polygon style="stroke:black; stroke-width:1; fill:#FFFFFF; " description="unannotated orf[br]Location: 236494 - 237888" locus_tag="CHAFR746836_0071690.1" class="clusterblast-orf" points="765,35 770,30 771,30 771,40 770,40 765,35 " id="clusterblast-1_q9_2_27"  />
<polygon style="stroke:black; stroke-width:1; fill:#FFFFFF; " description="unannotated orf[br]Location: 238790 - 239245" locus_tag="CHAFR746836_0071700.1" class="clusterblast-orf" points="775,40 778,35 775,30 775,40 " id="clusterblast-1_q9_2_28"  />
</g>
<g class="clusterblast-cluster" description="Azospirillum lipoferum 4B plasmid AZO p1, complete sequence." label="NC_016585.1_c1"  >
<text class="clusterblast-acc" y="60" x="5"  >
NC_016585.1_c1</text>
<text class="clusterblast-desc" y="60" x="460.8"  >
Azospirillum lipoferum 4B plasmid AZO p1, complete sequence.</text>
<line y1="85" x2="778.0" style="stroke:grey; stroke-width:1; " x1="10" y2="85"  />
<polygon style="stroke:black; stroke-width:1; fill:#FFFFFF; " description="hypothetical_protein[br]Location: 1125 - 1418" locus_tag="AZOLI_p10003" id="clusterblast-1_h9_2_0" points="322,85 323,80 323,90 322,85 " class="clusterblast-orf"  />
<polygon style="stroke:black; stroke-width:1; fill:#FFFFFF; " description="Putative_GntR_family_transcriptional_regulator[br]Location: 3768 - 4517" locus_tag="AZOLI_p10010" id="clusterblast-1_h9_2_1" points="333,90 337,85 333,80 333,90 " class="clusterblast-orf"  />
<polygon style="stroke:black; stroke-width:1; fill:#FFFFFF; " description="putative_transketolase[br]Location: 4537 - 6948" locus_tag="AZOLI_p10011" id="clusterblast-1_h9_2_2" points="337,85 342,80 348,80 348,90 342,90 337,85 " class="clusterblast-orf"  />
<polygon style="stroke:black; stroke-width:1; fill:#FFFFFF; " description="AsnC_family_transcriptional_regulator[br]Location: 7081 - 7560" locus_tag="AZOLI_p10012" id="clusterblast-1_h9_2_3" points="348,90 350,85 348,80 348,90 " class="clusterblast-orf"  />
<polygon style="stroke:black; stroke-width:1; fill:#FFFFFF; " description="putative_non-ribosomal_peptide_synthetase[br]Location: 8104 - 12216" locus_tag="AZOLI_p10013" id="clusterblast-1_h9_2_4" points="353,90 366,90 371,85 366,80 353,80 353,90 " class="clusterblast-orf"  />
<polygon style="stroke:black; stroke-width:1; fill:#FFFFFF; " description="fumarase_A_(fumarate_hydratase_class_I)[br]Location: 12557 - 14182" locus_tag="AZOLI_p10015" id="clusterblast-1_h9_2_5" points="373,90 375,90 380,85 375,80 373,80 373,90 " class="clusterblast-orf"  />
<polygon style="stroke:black; stroke-width:1; fill:#FFFFFF; " description="hypothetical_protein[br]Location: 14310 - 14552" locus_tag="AZOLI_p10016" id="clusterblast-1_h9_2_6" points="381,90 382,85 381,80 381,90 " class="clusterblast-orf"  />
<polygon style="stroke:black; stroke-width:1; fill:#FFFFFF; " description="hypothetical_protein[br]Location: 14549 - 14866" locus_tag="AZOLI_p10017" id="clusterblast-1_h9_2_7" points="382,90 383,85 382,80 382,90 " class="clusterblast-orf"  />
<polygon style="stroke:black; stroke-width:1; fill:#FFFFFF; " description="Pseudouridine_synthase[br]Location: 14874 - 15554" locus_tag="AZOLI_p10018" id="clusterblast-1_h9_2_8" points="383,90 386,85 383,80 383,90 " class="clusterblast-orf"  />
<polygon style="stroke:black; stroke-width:1; fill:#FFFFFF; " description="signal_transduction_histidine_kinase[br]Location: 15652 - 17100" locus_tag="AZOLI_p10019" id="clusterblast-1_h9_2_9" points="387,90 388,90 393,85 388,80 387,80 387,90 " class="clusterblast-orf"  />
<polygon style="stroke:black; stroke-width:1; fill:#FFFFFF; " description="hypothetical_protein[br]Location: 17220 - 17918" locus_tag="AZOLI_p10020" id="clusterblast-1_h9_2_10" points="394,90 397,85 394,80 394,90 " class="clusterblast-orf"  />
<polygon style="stroke:black; stroke-width:1; fill:#FFFFFF; " description="phosphotyrosine_phosphatase[br]Location: 18150 - 18680" locus_tag="AZOLI_p10021" id="clusterblast-1_h9_2_11" points="398,90 400,85 398,80 398,90 " class="clusterblast-orf"  />
<polygon style="stroke:black; stroke-width:1; fill:#FFFFFF; " description="hypothetical_protein[br]Location: 18689 - 19711" locus_tag="AZOLI_p10022" id="clusterblast-1_h9_2_12" points="400,85 405,80 405,80 405,90 405,90 400,85 " class="clusterblast-orf"  />
<polygon style="stroke:black; stroke-width:1; fill:#FFFFFF; " description="hypothetical_protein[br]Location: 19708 - 21102" locus_tag="AZOLI_p10023" id="clusterblast-1_h9_2_13" points="405,85 410,80 411,80 411,90 410,90 405,85 " class="clusterblast-orf"  />
<polygon style="stroke:black; stroke-width:1; fill:#FFFFFF; " description="hydroxymethylglutaryl-CoA_lyase[br]Location: 21250 - 22149" locus_tag="AZOLI_p10024" id="clusterblast-1_h9_2_14" points="412,85 416,80 416,90 412,85 " class="clusterblast-orf"  />
<polygon style="stroke:black; stroke-width:1; fill:red; " description="Acetyl/propionyl-CoA_carboxylase,_alpha_chain[br]Location: 22153 - 24156&lt;br&gt;&lt;br&gt;&lt;b&gt;BlastP hit with CHAFR746836_0071420.1&lt;/b&gt;&lt;br&gt;Percentage identity: 42%&lt;br&gt;Percentage coverage: 95%&lt;br&gt;BLAST bit score: 492&lt;br&gt;E-value: 5e-163" locus_tag="AZOLI_p10025" id="clusterblast-1_h9_2_15" points="416,85 421,80 425,80 425,90 421,90 416,85 " class="clusterblast-orf"  />
<polygon style="stroke:black; stroke-width:1; fill:#FFFFFF; " description="Enoyl-CoA_hydratase[br]Location: 24162 - 24944" locus_tag="AZOLI_p10026" id="clusterblast-1_h9_2_16" points="425,85 428,80 428,90 425,85 " class="clusterblast-orf"  />
<polygon style="stroke:black; stroke-width:1; fill:blue; " description="Acetyl/propionyl-CoA_carboxylase,_beta_chain[br]Location: 24955 - 26562&lt;br&gt;&lt;br&gt;&lt;b&gt;BlastP hit with CHAFR746836_0071470.1&lt;/b&gt;&lt;br&gt;Percentage identity: 63%&lt;br&gt;Percentage coverage: 94%&lt;br&gt;BLAST bit score: 696&lt;br&gt;E-value: 0.0" locus_tag="AZOLI_p10027" id="clusterblast-1_h9_2_17" points="428,85 433,80 436,80 436,90 433,90 428,85 " class="clusterblast-orf"  />
<polygon style="stroke:black; stroke-width:1; fill:green; " description="acyl-CoA_dehydrogenase[br]Location: 26621 - 27754&lt;br&gt;&lt;br&gt;&lt;b&gt;BlastP hit with CHAFR746836_0071460.1&lt;/b&gt;&lt;br&gt;Percentage identity: 34%&lt;br&gt;Percentage coverage: 85%&lt;br&gt;BLAST bit score: 228&lt;br&gt;E-value: 1e-68" locus_tag="AZOLI_p10028" id="clusterblast-1_h9_2_18" points="436,85 441,80 441,80 441,90 441,90 436,85 " class="clusterblast-orf"  />
<polygon style="stroke:black; stroke-width:1; fill:#FFFFFF; " description="acetyl-CoA_acetyltransferase_with_thiolase[br]Location: 27923 - 29104" locus_tag="AZOLI_p10029" id="clusterblast-1_h9_2_19" points="442,85 447,80 447,80 447,90 447,90 442,85 " class="clusterblast-orf"  />
<polygon style="stroke:black; stroke-width:1; fill:green; " description="acyl-CoA_dehydrogenase[br]Location: 29160 - 30332&lt;br&gt;&lt;br&gt;&lt;b&gt;BlastP hit with CHAFR746836_0071460.1&lt;/b&gt;&lt;br&gt;Percentage identity: 59%&lt;br&gt;Percentage coverage: 91%&lt;br&gt;BLAST bit score: 482&lt;br&gt;E-value: 3e-167" locus_tag="AZOLI_p10030" id="clusterblast-1_h9_2_20" points="447,85 452,80 453,80 453,90 452,90 447,85 " class="clusterblast-orf"  />
<polygon style="stroke:black; stroke-width:1; fill:#FFFFFF; " description="putative_transporter,_bile_acid/Na+_symporter[br]Location: 30635 - 31630" locus_tag="AZOLI_p10031" id="clusterblast-1_h9_2_21" points="454,90 458,85 454,80 454,90 " class="clusterblast-orf"  />
<polygon style="stroke:black; stroke-width:1; fill:#FFFFFF; " description="hypothetical_protein[br]Location: 31694 - 33124" locus_tag="AZOLI_p10032" id="clusterblast-1_h9_2_22" points="459,85 464,80 465,80 465,90 464,90 459,85 " class="clusterblast-orf"  />
</g>
</svg>
