<svg xmlns="http://www.w3.org/2000/svg" height="230" width="800" version="1.1" y="0" x="0" preserveAspectRatio="none" xmlns:xlink="http://www.w3.org/1999/xlink" viewBox="0 0 800 230"  >
<g class="clusterblast-cluster" label="Query sequence"  >
<text class="clusterblast-acc" y="10" x="5"  >
Query sequence</text>
<line y1="35" x2="778.0" style="stroke:grey; stroke-width:1; " x1="10" y2="35"  />
<polygon style="stroke:black; stroke-width:1; fill:#FFFFFF; " description="unannotated orf[br]Location: 489 - 2721" locus_tag="CHAFR746836_0051070.1" class="clusterblast-orf" points="10,35 15,30 29,30 29,40 15,40 10,35 " id="clusterblast-1_q63_10_0"  />
<polygon style="stroke:black; stroke-width:1; fill:#FFFFFF; " description="unannotated orf[br]Location: 4200 - 5219" locus_tag="CHAFR746836_0051080.1" class="clusterblast-orf" points="41,35 46,30 50,30 50,40 46,40 41,35 " id="clusterblast-1_q63_10_1"  />
<polygon style="stroke:black; stroke-width:1; fill:#FFFFFF; " description="unannotated orf[br]Location: 6660 - 7800" locus_tag="CHAFR746836_0051090.1" class="clusterblast-orf" points="62,40 67,40 72,35 67,30 62,30 62,40 " id="clusterblast-1_q63_10_2"  />
<polygon style="stroke:black; stroke-width:1; fill:rgb(190,63,63); " description="unannotated orf[br]Location: 26765 - 27965" locus_tag="CHAFR746836_0051100.1" class="clusterblast-orf" points="233,40 239,40 244,35 239,30 233,30 233,40 " id="clusterblast-1_q63_10_3"  />
<polygon style="stroke:black; stroke-width:1; fill:rgb(63,63,190); " description="unannotated orf[br]Location: 28597 - 39479" locus_tag="CHAFR746836_0051110.1" class="clusterblast-orf" points="249,40 337,40 342,35 337,30 249,30 249,40 " id="clusterblast-1_q63_10_4"  />
<polygon style="stroke:black; stroke-width:1; fill:rgb(63,190,63); " description="unannotated orf[br]Location: 40061 - 41918" locus_tag="CHAFR746836_0051120.1" class="clusterblast-orf" points="347,40 358,40 363,35 358,30 347,30 347,40 " id="clusterblast-1_q63_10_5"  />
<polygon style="stroke:black; stroke-width:1; fill:rgb(190,63,190); " description="unannotated orf[br]Location: 43238 - 44908" locus_tag="CHAFR746836_0051130.1" class="clusterblast-orf" points="374,40 383,40 388,35 383,30 374,30 374,40 " id="clusterblast-1_q63_10_6"  />
<polygon style="stroke:black; stroke-width:1; fill:#FFFFFF; " description="unannotated orf[br]Location: 47854 - 53058" locus_tag="CHAFR746836_0051140.1" class="clusterblast-orf" points="413,35 418,30 458,30 458,40 418,40 413,35 " id="clusterblast-1_q63_10_7"  />
<polygon style="stroke:black; stroke-width:1; fill:rgb(190,190,63); " description="unannotated orf[br]Location: 53967 - 56732" locus_tag="CHAFR746836_0051150.1" class="clusterblast-orf" points="465,40 484,40 489,35 484,30 465,30 465,40 " id="clusterblast-1_q63_10_8"  />
<polygon style="stroke:black; stroke-width:1; fill:#FFFFFF; " description="unannotated orf[br]Location: 58548 - 59100" locus_tag="CHAFR746836_0051160.1" class="clusterblast-orf" points="504,35 509,30 509,30 509,40 509,40 504,35 " id="clusterblast-1_q63_10_9"  />
<polygon style="stroke:black; stroke-width:1; fill:#FFFFFF; " description="unannotated orf[br]Location: 60871 - 61857" locus_tag="CHAFR746836_0051170.1" class="clusterblast-orf" points="524,40 528,40 533,35 528,30 524,30 524,40 " id="clusterblast-1_q63_10_10"  />
<polygon style="stroke:black; stroke-width:1; fill:#FFFFFF; " description="unannotated orf[br]Location: 63105 - 64083" locus_tag="CHAFR746836_0051180.1" class="clusterblast-orf" points="543,35 548,30 552,30 552,40 548,40 543,35 " id="clusterblast-1_q63_10_11"  />
<polygon style="stroke:black; stroke-width:1; fill:#FFFFFF; " description="unannotated orf[br]Location: 67899 - 70038" locus_tag="CHAFR746836_0051190.1" class="clusterblast-orf" points="584,40 597,40 602,35 597,30 584,30 584,40 " id="clusterblast-1_q63_10_12"  />
<polygon style="stroke:black; stroke-width:1; fill:#FFFFFF; " description="unannotated orf[br]Location: 72649 - 74314" locus_tag="CHAFR746836_0051200.1" class="clusterblast-orf" points="625,35 630,30 639,30 639,40 630,40 625,35 " id="clusterblast-1_q63_10_13"  />
<polygon style="stroke:black; stroke-width:1; fill:#FFFFFF; " description="unannotated orf[br]Location: 77147 - 77748" locus_tag="CHAFR746836_0051210.1" class="clusterblast-orf" points="663,40 663,40 668,35 663,30 663,30 663,40 " id="clusterblast-1_q63_10_14"  />
<polygon style="stroke:black; stroke-width:1; fill:#FFFFFF; " description="unannotated orf[br]Location: 78975 - 79809" locus_tag="CHAFR746836_0051220.1" class="clusterblast-orf" points="679,40 681,40 686,35 681,30 679,30 679,40 " id="clusterblast-1_q63_10_15"  />
<polygon style="stroke:black; stroke-width:1; fill:#FFFFFF; " description="unannotated orf[br]Location: 85804 - 86841" locus_tag="CHAFR746836_0051230.1" class="clusterblast-orf" points="737,35 742,30 746,30 746,40 742,40 737,35 " id="clusterblast-1_q63_10_16"  />
<polygon style="stroke:black; stroke-width:1; fill:#FFFFFF; " description="unannotated orf[br]Location: 88142 - 90586" locus_tag="CHAFR746836_0051240.1" class="clusterblast-orf" points="757,35 762,30 778,30 778,40 762,40 757,35 " id="clusterblast-1_q63_10_17"  />
</g>
<g class="clusterblast-cluster" description="Aspergillus niger ATCC 1015, whole genome shotgun seque..." label="ACJE01000019.1_c5"  >
<text class="clusterblast-acc" y="60" x="5"  >
ACJE01000019.1_c5</text>
<text class="clusterblast-desc" y="60" x="460.8"  >
Aspergillus niger ATCC 1015, whole genome shotgun seque...</text>
<line y1="85" x2="778.0" style="stroke:grey; stroke-width:1; " x1="10" y2="85"  />
<polygon style="stroke:black; stroke-width:1; fill:#FFFFFF; " description="hypothetical_protein[br]Location: 1157641 - 1158198" locus_tag="ASPNIDRAFT_39033" id="clusterblast-1_h63_10_0" points="158,90 162,85 158,80 158,90 " class="clusterblast-orf"  />
<polygon style="stroke:black; stroke-width:1; fill:#FFFFFF; " description="hypothetical_protein[br]Location: 1154268 - 1155937" locus_tag="ASPNIDRAFT_208782" id="clusterblast-1_h63_10_1" points="177,90 186,90 191,85 186,80 177,80 177,90 " class="clusterblast-orf"  />
<polygon style="stroke:black; stroke-width:1; fill:#FFFFFF; " description="hypothetical_protein[br]Location: 1146256 - 1148934" locus_tag="ASPNIDRAFT_208780" id="clusterblast-1_h63_10_2" points="236,90 254,90 259,85 254,80 236,80 236,90 " class="clusterblast-orf"  />
<polygon style="stroke:black; stroke-width:1; fill:rgb(190,190,63); " description="hypothetical_protein[br]Location: 1142497 - 1144818&lt;br&gt;&lt;br&gt;&lt;b&gt;BlastP hit with CHAFR746836_0051150.1&lt;/b&gt;&lt;br&gt;Percentage identity: 34%&lt;br&gt;Percentage coverage: 10%&lt;br&gt;BLAST bit score: 53&lt;br&gt;E-value: 8e-06" locus_tag="ASPNIDRAFT_178568" id="clusterblast-1_h63_10_3" points="272,90 286,90 291,85 286,80 272,80 272,90 " class="clusterblast-orf"  />
<polygon style="stroke:black; stroke-width:1; fill:#FFFFFF; " description="hypothetical_protein[br]Location: 1139792 - 1141583" locus_tag="ASPNIDRAFT_39028" id="clusterblast-1_h63_10_4" points="299,85 304,80 314,80 314,90 304,90 299,85 " class="clusterblast-orf"  />
<polygon style="stroke:black; stroke-width:1; fill:#FFFFFF; " description="hypothetical_protein[br]Location: 1137866 - 1138887" locus_tag="ASPNIDRAFT_39027" id="clusterblast-1_h63_10_5" points="322,90 326,90 331,85 326,80 322,80 322,90 " class="clusterblast-orf"  />
<polygon style="stroke:black; stroke-width:1; fill:rgb(190,63,63); " description="hypothetical_protein[br]Location: 1130267 - 1137671&lt;br&gt;&lt;br&gt;&lt;b&gt;BlastP hit with CHAFR746836_0051100.1&lt;/b&gt;&lt;br&gt;Percentage identity: 45%&lt;br&gt;Percentage coverage: 95%&lt;br&gt;BLAST bit score: 284&lt;br&gt;E-value: 2e-84&lt;br&gt;&lt;br&gt;&lt;b&gt;BlastP hit with CHAFR746836_0051110.1&lt;/b&gt;&lt;br&gt;Percentage identity: 31%&lt;br&gt;Percentage coverage: 18%&lt;br&gt;BLAST bit score: 255&lt;br&gt;E-value: 3e-66" locus_tag="ASPNIDRAFT_39026" id="clusterblast-1_h63_10_6" points="332,85 337,80 396,80 396,90 337,90 332,85 " class="clusterblast-orf"  />
<polygon style="stroke:black; stroke-width:1; fill:#FFFFFF; " description="alcohol_dehydrogenase[br]Location: 1128529 - 1129700" locus_tag="ASPNIDRAFT_179816" id="clusterblast-1_h63_10_7" points="400,90 405,90 410,85 405,80 400,80 400,90 " class="clusterblast-orf"  />
<polygon style="stroke:black; stroke-width:1; fill:#FFFFFF; " description="hypothetical_protein[br]Location: 1126686 - 1127595" locus_tag="ASPNIDRAFT_39024" id="clusterblast-1_h63_10_8" points="418,90 421,90 426,85 421,80 418,80 418,90 " class="clusterblast-orf"  />
<polygon style="stroke:black; stroke-width:1; fill:#FFFFFF; " description="hypothetical_protein[br]Location: 1122965 - 1126156" locus_tag="ASPNIDRAFT_129526" id="clusterblast-1_h63_10_9" points="431,90 453,90 458,85 453,80 431,80 431,90 " class="clusterblast-orf"  />
<polygon style="stroke:black; stroke-width:1; fill:#FFFFFF; " description="hypothetical_protein[br]Location: 1120085 - 1121171" locus_tag="ASPNIDRAFT_39022" id="clusterblast-1_h63_10_10" points="473,85 478,80 482,80 482,90 478,90 473,85 " class="clusterblast-orf"  />
<polygon style="stroke:black; stroke-width:1; fill:#FFFFFF; " description="hypothetical_protein[br]Location: 1118494 - 1119003" locus_tag="ASPNIDRAFT_137356" id="clusterblast-1_h63_10_11" points="492,85 496,80 496,90 492,85 " class="clusterblast-orf"  />
<polygon style="stroke:black; stroke-width:1; fill:rgb(190,63,190); " description="hypothetical_protein[br]Location: 1115720 - 1117193&lt;br&gt;&lt;br&gt;&lt;b&gt;BlastP hit with CHAFR746836_0051130.1&lt;/b&gt;&lt;br&gt;Percentage identity: 41%&lt;br&gt;Percentage coverage: 86%&lt;br&gt;BLAST bit score: 320&lt;br&gt;E-value: 3e-102" locus_tag="ASPNIDRAFT_140405" id="clusterblast-1_h63_10_12" points="507,90 515,90 520,85 515,80 507,80 507,90 " class="clusterblast-orf"  />
<polygon style="stroke:black; stroke-width:1; fill:#FFFFFF; " description="hypothetical_protein[br]Location: 1110837 - 1114480" locus_tag="ASPNIDRAFT_52947" id="clusterblast-1_h63_10_13" points="530,90 556,90 561,85 556,80 530,80 530,90 " class="clusterblast-orf"  />
<polygon style="stroke:black; stroke-width:1; fill:#FFFFFF; " description="hypothetical_protein[br]Location: 1108894 - 1110247" locus_tag="ASPNIDRAFT_208771" id="clusterblast-1_h63_10_14" points="566,90 573,90 578,85 573,80 566,80 566,90 " class="clusterblast-orf"  />
<polygon style="stroke:black; stroke-width:1; fill:#FFFFFF; " description="hypothetical_protein[br]Location: 1107431 - 1108800" locus_tag="ASPNIDRAFT_179323" id="clusterblast-1_h63_10_15" points="579,90 585,90 590,85 585,80 579,80 579,90 " class="clusterblast-orf"  />
<polygon style="stroke:black; stroke-width:1; fill:#FFFFFF; " description="ER_chaperone_bipA[br]Location: 1103893 - 1106082" locus_tag="ASPNIDRAFT_52945" id="clusterblast-1_h63_10_16" points="602,90 615,90 620,85 615,80 602,80 602,90 " class="clusterblast-orf"  />
<polygon style="stroke:black; stroke-width:1; fill:#FFFFFF; " description="hypothetical_protein[br]Location: 1102892 - 1103590" locus_tag="ASPNIDRAFT_199253" id="clusterblast-1_h63_10_17" points="623,85 628,80 629,80 629,90 628,90 623,85 " class="clusterblast-orf"  />
</g>
</svg>
