<svg xmlns="http://www.w3.org/2000/svg" height="230" width="800" version="1.1" y="0" x="0" preserveAspectRatio="none" xmlns:xlink="http://www.w3.org/1999/xlink" viewBox="0 0 800 230"  >
<g class="clusterblast-cluster" label="Query sequence"  >
<text class="clusterblast-acc" y="10" x="5"  >
Query sequence</text>
<line y1="35" x2="778.0" style="stroke:grey; stroke-width:1; " x1="10" y2="35"  />
<polygon style="stroke:black; stroke-width:1; fill:#FFFFFF; " description="unannotated orf[br]Location: 4665 - 6373" locus_tag="CHAFR746836_0090420.1" class="clusterblast-orf" points="17,35 22,30 32,30 32,40 22,40 17,35 " id="clusterblast-1_q23_7_0"  />
<polygon style="stroke:black; stroke-width:1; fill:rgb(190,63,63); " description="unannotated orf[br]Location: 13107 - 14013" locus_tag="CHAFR746836_0090430.1" class="clusterblast-orf" points="91,35 96,30 99,30 99,40 96,40 91,35 " id="clusterblast-1_q23_7_1"  />
<polygon style="stroke:black; stroke-width:1; fill:rgb(63,63,190); " description="unannotated orf[br]Location: 15082 - 18583" locus_tag="CHAFR746836_0090440.1" class="clusterblast-orf" points="108,35 113,30 139,30 139,40 113,40 108,35 " id="clusterblast-1_q23_7_2"  />
<polygon style="stroke:black; stroke-width:1; fill:rgb(63,190,63); " description="unannotated orf[br]Location: 62601 - 69132" locus_tag="CHAFR746836_0090450.1" class="clusterblast-orf" points="526,35 531,30 584,30 584,40 531,40 526,35 " id="clusterblast-1_q23_7_3"  />
<polygon style="stroke:black; stroke-width:1; fill:rgb(190,63,190); " description="unannotated orf[br]Location: 70531 - 72251" locus_tag="CHAFR746836_0090460.1" class="clusterblast-orf" points="596,40 606,40 611,35 606,30 596,30 596,40 " id="clusterblast-1_q23_7_4"  />
<polygon style="stroke:black; stroke-width:1; fill:#FFFFFF; " description="unannotated orf[br]Location: 75015 - 76460" locus_tag="CHAFR746836_0090470.1" class="clusterblast-orf" points="635,35 640,30 648,30 648,40 640,40 635,35 " id="clusterblast-1_q23_7_5"  />
<polygon style="stroke:black; stroke-width:1; fill:rgb(190,190,63); " description="unannotated orf[br]Location: 79984 - 80954" locus_tag="CHAFR746836_0090480.1" class="clusterblast-orf" points="679,35 684,30 688,30 688,40 684,40 679,35 " id="clusterblast-1_q23_7_6"  />
<polygon style="stroke:black; stroke-width:1; fill:rgb(190,190,190); " description="unannotated orf[br]Location: 81993 - 83038" locus_tag="CHAFR746836_0090490.1" class="clusterblast-orf" points="697,40 701,40 706,35 701,30 697,30 697,40 " id="clusterblast-1_q23_7_7"  />
<polygon style="stroke:black; stroke-width:1; fill:#FFFFFF; " description="unannotated orf[br]Location: 86529 - 87580" locus_tag="CHAFR746836_0090500.1" class="clusterblast-orf" points="737,35 742,30 746,30 746,40 742,40 737,35 " id="clusterblast-1_q23_7_8"  />
<polygon style="stroke:black; stroke-width:1; fill:#FFFFFF; " description="unannotated orf[br]Location: 88454 - 90258" locus_tag="CHAFR746836_0090510.1" class="clusterblast-orf" points="754,40 764,40 769,35 764,30 754,30 754,40 " id="clusterblast-1_q23_7_9"  />
</g>
<g class="clusterblast-cluster" description="Saccharomonospora xinjiangensis XJ-54 genomic scaffold Sa..." label="NZ_JH636049.1_c4"  >
<text class="clusterblast-acc" y="60" x="5"  >
NZ_JH636049.1_c4</text>
<text class="clusterblast-desc" y="60" x="460.8"  >
Saccharomonospora xinjiangensis XJ-54 genomic scaffold Sa...</text>
<line y1="85" x2="778.0" style="stroke:grey; stroke-width:1; " x1="10" y2="85"  />
<polygon style="stroke:black; stroke-width:1; fill:#FFFFFF; " description="hypothetical_protein[br]Location: 623952 - 624359" locus_tag="SacxiDRAFT_0486" id="clusterblast-1_h23_7_0" points="10,90 13,85 10,80 10,90 " class="clusterblast-orf"  />
<polygon style="stroke:black; stroke-width:1; fill:#FFFFFF; " description="glutaredoxin_family_protein,_arsenate_reductase[br]Location: 624540 - 624896" locus_tag="SacxiDRAFT_0487" id="clusterblast-1_h23_7_1" points="15,85 18,80 18,90 15,85 " class="clusterblast-orf"  />
<polygon style="stroke:black; stroke-width:1; fill:#FFFFFF; " description="hypothetical_protein[br]Location: 625359 - 625616" locus_tag="SacxiDRAFT_0488" id="clusterblast-1_h23_7_2" points="22,90 24,85 22,80 22,90 " class="clusterblast-orf"  />
<polygon style="stroke:black; stroke-width:1; fill:#FFFFFF; " description="hypothetical_protein[br]Location: 625632 - 625904" locus_tag="SacxiDRAFT_0489" id="clusterblast-1_h23_7_3" points="24,90 27,85 24,80 24,90 " class="clusterblast-orf"  />
<polygon style="stroke:black; stroke-width:1; fill:#FFFFFF; " description="hypothetical_protein[br]Location: 626063 - 626224" locus_tag="SacxiDRAFT_0490" id="clusterblast-1_h23_7_4" points="28,85 29,80 29,90 28,85 " class="clusterblast-orf"  />
<polygon style="stroke:black; stroke-width:1; fill:#FFFFFF; " description="universal_stress_protein_UspA-like_protein[br]Location: 626221 - 627159" locus_tag="SacxiDRAFT_0491" id="clusterblast-1_h23_7_5" points="29,85 34,80 38,80 38,90 34,90 29,85 " class="clusterblast-orf"  />
<polygon style="stroke:black; stroke-width:1; fill:#FFFFFF; " description="universal_stress_protein_UspA-like_protein[br]Location: 627292 - 628200" locus_tag="SacxiDRAFT_0492" id="clusterblast-1_h23_7_6" points="39,85 44,80 47,80 47,90 44,90 39,85 " class="clusterblast-orf"  />
<polygon style="stroke:black; stroke-width:1; fill:#FFFFFF; " description="acyl-CoA_synthetase/AMP-acid_ligase[br]Location: 628404 - 630176" locus_tag="SacxiDRAFT_0493" id="clusterblast-1_h23_7_7" points="49,90 59,90 64,85 59,80 49,80 49,90 " class="clusterblast-orf"  />
<polygon style="stroke:black; stroke-width:1; fill:#FFFFFF; " description="pyruvate_dehydrogenase_E1_component,_alpha[br]Location: 630173 - 631138" locus_tag="SacxiDRAFT_0494" id="clusterblast-1_h23_7_8" points="64,90 68,90 73,85 68,80 64,80 64,90 " class="clusterblast-orf"  />
<polygon style="stroke:black; stroke-width:1; fill:#FFFFFF; " description="pyruvate/2-oxoglutarate_dehydrogenase_complex,[br]Location: 631135 - 632103" locus_tag="SacxiDRAFT_0495" id="clusterblast-1_h23_7_9" points="73,90 76,90 81,85 76,80 73,80 73,90 " class="clusterblast-orf"  />
<polygon style="stroke:black; stroke-width:1; fill:#FFFFFF; " description="pyruvate/2-oxoglutarate_dehydrogenase_complex,[br]Location: 632120 - 633625" locus_tag="SacxiDRAFT_0496" id="clusterblast-1_h23_7_10" points="81,90 90,90 95,85 90,80 81,80 81,90 " class="clusterblast-orf"  />
<polygon style="stroke:black; stroke-width:1; fill:#FFFFFF; " description="phosphopantetheine-containing_protein[br]Location: 633622 - 633906" locus_tag="SacxiDRAFT_0497" id="clusterblast-1_h23_7_11" points="95,90 97,85 95,80 95,90 " class="clusterblast-orf"  />
<polygon style="stroke:black; stroke-width:1; fill:#FFFFFF; " description="response_regulator_containing_a_CheY-like[br]Location: 633924 - 634586" locus_tag="SacxiDRAFT_0498" id="clusterblast-1_h23_7_12" points="97,85 102,80 103,80 103,90 102,90 97,85 " class="clusterblast-orf"  />
<polygon style="stroke:black; stroke-width:1; fill:#FFFFFF; " description="signal_transduction_histidine_kinase[br]Location: 634586 - 635869" locus_tag="SacxiDRAFT_0499" id="clusterblast-1_h23_7_13" points="103,85 108,80 114,80 114,90 108,90 103,85 " class="clusterblast-orf"  />
<polygon style="stroke:black; stroke-width:1; fill:#FFFFFF; " description="putative_O-methyltransferase[br]Location: 635960 - 636709" locus_tag="SacxiDRAFT_0500" id="clusterblast-1_h23_7_14" points="115,85 120,80 122,80 122,90 120,90 115,85 " class="clusterblast-orf"  />
<polygon style="stroke:black; stroke-width:1; fill:#FFFFFF; " description="putative_thioesterase_involved_in_non-ribosomal[br]Location: 636809 - 637462" locus_tag="SacxiDRAFT_0501" id="clusterblast-1_h23_7_15" points="123,85 128,80 128,80 128,90 128,90 123,85 " class="clusterblast-orf"  />
<polygon style="stroke:black; stroke-width:1; fill:#FFFFFF; " description="Zn-dependent_oxidoreductase,_NADPH:quinone[br]Location: 637758 - 638765" locus_tag="SacxiDRAFT_0502" id="clusterblast-1_h23_7_16" points="131,85 136,80 140,80 140,90 136,90 131,85 " class="clusterblast-orf"  />
<polygon style="stroke:black; stroke-width:1; fill:#FFFFFF; " description="3-hydroxyacyl-CoA_dehydrogenase[br]Location: 638771 - 639634" locus_tag="SacxiDRAFT_0503" id="clusterblast-1_h23_7_17" points="140,85 145,80 147,80 147,90 145,90 140,85 " class="clusterblast-orf"  />
<polygon style="stroke:black; stroke-width:1; fill:#FFFFFF; " description="3-oxoacyl-(acyl-carrier-protein)_synthase_III[br]Location: 639631 - 640635" locus_tag="SacxiDRAFT_0504" id="clusterblast-1_h23_7_18" points="147,85 152,80 156,80 156,90 152,90 147,85 " class="clusterblast-orf"  />
<polygon style="stroke:black; stroke-width:1; fill:#FFFFFF; " description="crotonyl-CoA_reductase[br]Location: 640632 - 641966" locus_tag="SacxiDRAFT_0505" id="clusterblast-1_h23_7_19" points="156,85 161,80 168,80 168,90 161,90 156,85 " class="clusterblast-orf"  />
<polygon style="stroke:black; stroke-width:1; fill:#FFFFFF; " description="Zn-dependent_oxidoreductase,_NADPH:quinone[br]Location: 641992 - 642942" locus_tag="SacxiDRAFT_0506" id="clusterblast-1_h23_7_20" points="168,85 173,80 177,80 177,90 173,90 168,85 " class="clusterblast-orf"  />
<polygon style="stroke:black; stroke-width:1; fill:#FFFFFF; " description="2-polyprenyl-6-methoxyphenol_hydroxylase-like[br]Location: 642942 - 644165" locus_tag="SacxiDRAFT_0507" id="clusterblast-1_h23_7_21" points="177,85 182,80 187,80 187,90 182,90 177,85 " class="clusterblast-orf"  />
<polygon style="stroke:black; stroke-width:1; fill:#FFFFFF; " description="polyketide_synthase_family_protein[br]Location: 644162 - 653239" locus_tag="SacxiDRAFT_0508" id="clusterblast-1_h23_7_22" points="187,85 192,80 267,80 267,90 192,90 187,85 " class="clusterblast-orf"  />
<polygon style="stroke:black; stroke-width:1; fill:#FFFFFF; " description="polyketide_synthase_family_protein[br]Location: 653266 - 659814" locus_tag="SacxiDRAFT_0509" id="clusterblast-1_h23_7_23" points="267,85 272,80 325,80 325,90 272,90 267,85 " class="clusterblast-orf"  />
<polygon style="stroke:black; stroke-width:1; fill:#FFFFFF; " description="polyketide_synthase_family_protein[br]Location: 659843 - 665143" locus_tag="SacxiDRAFT_0510" id="clusterblast-1_h23_7_24" points="325,85 330,80 372,80 372,90 330,90 325,85 " class="clusterblast-orf"  />
<polygon style="stroke:black; stroke-width:1; fill:#FFFFFF; " description="acyltransferase_family[br]Location: 665140 - 668457" locus_tag="SacxiDRAFT_0511" id="clusterblast-1_h23_7_25" points="372,85 377,80 401,80 401,90 377,90 372,85 " class="clusterblast-orf"  />
<polygon style="stroke:black; stroke-width:1; fill:#FFFFFF; " description="beta-ketoacyl_synthase/acyltransferase[br]Location: 668735 - 670696" locus_tag="SacxiDRAFT_0512" id="clusterblast-1_h23_7_26" points="403,85 408,80 421,80 421,90 408,90 403,85 " class="clusterblast-orf"  />
<polygon style="stroke:black; stroke-width:1; fill:rgb(63,190,63); " description="polyketide_synthase_family_protein[br]Location: 670708 - 688626&lt;br&gt;&lt;br&gt;&lt;b&gt;BlastP hit with CHAFR746836_0090450.1&lt;/b&gt;&lt;br&gt;Percentage identity: 31%&lt;br&gt;Percentage coverage: 44%&lt;br&gt;BLAST bit score: 403&lt;br&gt;E-value: 8e-112" locus_tag="SacxiDRAFT_0513" id="clusterblast-1_h23_7_27" points="421,85 426,80 578,80 578,90 426,90 421,85 " class="clusterblast-orf"  />
<polygon style="stroke:black; stroke-width:1; fill:#FFFFFF; " description="putative_naringenin-chalcone_synthase[br]Location: 689084 - 690214" locus_tag="SacxiDRAFT_0514" id="clusterblast-1_h23_7_28" points="582,90 587,90 592,85 587,80 582,80 582,90 " class="clusterblast-orf"  />
<polygon style="stroke:black; stroke-width:1; fill:#FFFFFF; " description="enoyl-CoA_hydratase/carnithine_racemase[br]Location: 690243 - 690980" locus_tag="SacxiDRAFT_0515" id="clusterblast-1_h23_7_29" points="593,90 594,90 599,85 594,80 593,80 593,90 " class="clusterblast-orf"  />
<polygon style="stroke:black; stroke-width:1; fill:rgb(190,190,190); " description="enoyl-CoA_hydratase/carnithine_racemase[br]Location: 690977 - 692293&lt;br&gt;&lt;br&gt;&lt;b&gt;BlastP hit with CHAFR746836_0090490.1&lt;/b&gt;&lt;br&gt;Percentage identity: 34%&lt;br&gt;Percentage coverage: 46%&lt;br&gt;BLAST bit score: 66&lt;br&gt;E-value: 4e-11" locus_tag="SacxiDRAFT_0516" id="clusterblast-1_h23_7_30" points="599,90 606,90 611,85 606,80 599,80 599,90 " class="clusterblast-orf"  />
<polygon style="stroke:black; stroke-width:1; fill:#FFFFFF; " description="NAD-dependent_aldehyde_dehydrogenase[br]Location: 692340 - 693821" locus_tag="SacxiDRAFT_0517" id="clusterblast-1_h23_7_31" points="611,90 619,90 624,85 619,80 611,80 611,90 " class="clusterblast-orf"  />
<polygon style="stroke:black; stroke-width:1; fill:rgb(190,190,63); " description="enoyl-CoA_hydratase/carnithine_racemase[br]Location: 693847 - 694650&lt;br&gt;&lt;br&gt;&lt;b&gt;BlastP hit with CHAFR746836_0090480.1&lt;/b&gt;&lt;br&gt;Percentage identity: 34%&lt;br&gt;Percentage coverage: 93%&lt;br&gt;BLAST bit score: 127&lt;br&gt;E-value: 4e-33&lt;br&gt;&lt;br&gt;&lt;b&gt;BlastP hit with CHAFR746836_0090490.1&lt;/b&gt;&lt;br&gt;Percentage identity: 32%&lt;br&gt;Percentage coverage: 92%&lt;br&gt;BLAST bit score: 121&lt;br&gt;E-value: 6e-31" locus_tag="SacxiDRAFT_0518" id="clusterblast-1_h23_7_32" points="624,90 626,90 631,85 626,80 624,80 624,90 " class="clusterblast-orf"  />
<polygon style="stroke:black; stroke-width:1; fill:#FFFFFF; " description="hypothetical_protein[br]Location: 694754 - 695635" locus_tag="SacxiDRAFT_0519" id="clusterblast-1_h23_7_33" points="632,85 637,80 640,80 640,90 637,90 632,85 " class="clusterblast-orf"  />
<polygon style="stroke:black; stroke-width:1; fill:#FFFFFF; " description="3-hydroxyacyl-CoA_dehydrogenase[br]Location: 695973 - 696836" locus_tag="SacxiDRAFT_0520" id="clusterblast-1_h23_7_34" points="643,90 646,90 651,85 646,80 643,80 643,90 " class="clusterblast-orf"  />
<polygon style="stroke:black; stroke-width:1; fill:#FFFFFF; " description="acyl_carrier_protein[br]Location: 696833 - 697117" locus_tag="SacxiDRAFT_0521" id="clusterblast-1_h23_7_35" points="651,90 653,85 651,80 651,90 " class="clusterblast-orf"  />
<polygon style="stroke:black; stroke-width:1; fill:#FFFFFF; " description="acyl-CoA_dehydrogenase[br]Location: 697110 - 698222" locus_tag="SacxiDRAFT_0522" id="clusterblast-1_h23_7_36" points="653,90 658,90 663,85 658,80 653,80 653,90 " class="clusterblast-orf"  />
<polygon style="stroke:black; stroke-width:1; fill:#FFFFFF; " description="subfamily_IIIC_HAD-superfamily_phosphatase[br]Location: 698241 - 699335" locus_tag="SacxiDRAFT_0523" id="clusterblast-1_h23_7_37" points="663,90 668,90 673,85 668,80 663,80 663,90 " class="clusterblast-orf"  />
<polygon style="stroke:black; stroke-width:1; fill:#FFFFFF; " description="putative_O-methyltransferase[br]Location: 699346 - 700014" locus_tag="SacxiDRAFT_0524" id="clusterblast-1_h23_7_38" points="673,85 678,80 679,80 679,90 678,90 673,85 " class="clusterblast-orf"  />
<polygon style="stroke:black; stroke-width:1; fill:#FFFFFF; " description="transcriptional_regulator,_luxR_family[br]Location: 700248 - 703181" locus_tag="SacxiDRAFT_0525" id="clusterblast-1_h23_7_39" points="681,90 701,90 706,85 701,80 681,80 681,90 " class="clusterblast-orf"  />
<polygon style="stroke:black; stroke-width:1; fill:#FFFFFF; " description="transcriptional_regulator[br]Location: 703330 - 704040" locus_tag="SacxiDRAFT_0526" id="clusterblast-1_h23_7_40" points="708,85 713,80 714,80 714,90 713,90 708,85 " class="clusterblast-orf"  />
<polygon style="stroke:black; stroke-width:1; fill:#FFFFFF; " description="methylase_involved_in_ubiquinone/menaquinone[br]Location: 704060 - 704716" locus_tag="SacxiDRAFT_0527" id="clusterblast-1_h23_7_41" points="714,90 715,90 720,85 715,80 714,80 714,90 " class="clusterblast-orf"  />
<polygon style="stroke:black; stroke-width:1; fill:#FFFFFF; " description="DNA-binding_transcriptional_activator_of_the[br]Location: 705159 - 708113" locus_tag="SacxiDRAFT_0529" id="clusterblast-1_h23_7_42" points="724,85 729,80 750,80 750,90 729,90 724,85 " class="clusterblast-orf"  />
<polygon style="stroke:black; stroke-width:1; fill:#FFFFFF; " description="hypothetical_protein[br]Location: 708444 - 709085" locus_tag="SacxiDRAFT_0530" id="clusterblast-1_h23_7_43" points="753,85 758,80 758,80 758,90 758,90 753,85 " class="clusterblast-orf"  />
<polygon style="stroke:black; stroke-width:1; fill:#FFFFFF; " description="theronine_dehydrogenase-like_Zn-dependent[br]Location: 710059 - 711258" locus_tag="SacxiDRAFT_0531" id="clusterblast-1_h23_7_44" points="767,90 773,90 778,85 773,80 767,80 767,90 " class="clusterblast-orf"  />
</g>
</svg>
