<svg xmlns="http://www.w3.org/2000/svg" height="230" width="800" version="1.1" y="0" x="0" preserveAspectRatio="none" xmlns:xlink="http://www.w3.org/1999/xlink" viewBox="0 0 800 230"  >
<g class="clusterblast-cluster" label="Query sequence"  >
<text class="clusterblast-acc" y="10" x="5"  >
Query sequence</text>
<line y1="35" x2="778.0" style="stroke:grey; stroke-width:1; " x1="10" y2="35"  />
<polygon style="stroke:black; stroke-width:1; fill:#FFFFFF; " description="unannotated orf[br]Location: 25768 - 28581" locus_tag="CHAFR746836_0026480.1" class="clusterblast-orf" points="10,35 15,30 36,30 36,40 15,40 10,35 " id="clusterblast-1_q39_2_0"  />
<polygon style="stroke:black; stroke-width:1; fill:#FFFFFF; " description="unannotated orf[br]Location: 29389 - 32410" locus_tag="CHAFR746836_0026490.1" class="clusterblast-orf" points="44,40 68,40 73,35 68,30 44,30 44,40 " id="clusterblast-1_q39_2_1"  />
<polygon style="stroke:black; stroke-width:1; fill:#FFFFFF; " description="unannotated orf[br]Location: 35419 - 37881" locus_tag="CHAFR746836_0026500.1" class="clusterblast-orf" points="102,35 107,30 125,30 125,40 107,40 102,35 " id="clusterblast-1_q39_2_2"  />
<polygon style="stroke:black; stroke-width:1; fill:#FFFFFF; " description="unannotated orf[br]Location: 39000 - 40527" locus_tag="CHAFR746836_0026510.1" class="clusterblast-orf" points="136,40 146,40 151,35 146,30 136,30 136,40 " id="clusterblast-1_q39_2_3"  />
<polygon style="stroke:black; stroke-width:1; fill:#FFFFFF; " description="unannotated orf[br]Location: 42530 - 44770" locus_tag="CHAFR746836_0026520.1" class="clusterblast-orf" points="170,40 186,40 191,35 186,30 170,30 170,40 " id="clusterblast-1_q39_2_4"  />
<polygon style="stroke:black; stroke-width:1; fill:rgb(190,63,63); " description="unannotated orf[br]Location: 45848 - 55198" locus_tag="CHAFR746836_0026530.1" class="clusterblast-orf" points="202,35 207,30 291,30 291,40 207,40 202,35 " id="clusterblast-1_q39_2_5"  />
<polygon style="stroke:black; stroke-width:1; fill:rgb(63,63,190); " description="unannotated orf[br]Location: 56792 - 57839" locus_tag="CHAFR746836_0026540.1" class="clusterblast-orf" points="306,40 311,40 316,35 311,30 306,30 306,40 " id="clusterblast-1_q39_2_6"  />
<polygon style="stroke:black; stroke-width:1; fill:rgb(63,190,63); " description="unannotated orf[br]Location: 62197 - 63622" locus_tag="CHAFR746836_0026550.1" class="clusterblast-orf" points="358,35 363,30 372,30 372,40 363,40 358,35 " id="clusterblast-1_q39_2_7"  />
<polygon style="stroke:black; stroke-width:1; fill:rgb(190,63,190); " description="unannotated orf[br]Location: 66838 - 68074" locus_tag="CHAFR746836_0026560.1" class="clusterblast-orf" points="402,40 409,40 414,35 409,30 402,30 402,40 " id="clusterblast-1_q39_2_8"  />
<polygon style="stroke:black; stroke-width:1; fill:rgb(190,190,63); " description="unannotated orf[br]Location: 68566 - 70348" locus_tag="CHAFR746836_0026570.1" class="clusterblast-orf" points="419,35 424,30 436,30 436,40 424,40 419,35 " id="clusterblast-1_q39_2_9"  />
<polygon style="stroke:black; stroke-width:1; fill:rgb(190,190,190); " description="unannotated orf[br]Location: 72585 - 73335" locus_tag="CHAFR746836_0026580.1" class="clusterblast-orf" points="457,40 460,40 465,35 460,30 457,30 457,40 " id="clusterblast-1_q39_2_10"  />
<polygon style="stroke:black; stroke-width:1; fill:#FFFFFF; " description="unannotated orf[br]Location: 81371 - 83366" locus_tag="CHAFR746836_0026590.1" class="clusterblast-orf" points="541,35 546,30 561,30 561,40 546,40 541,35 " id="clusterblast-1_q39_2_11"  />
<polygon style="stroke:black; stroke-width:1; fill:#FFFFFF; " description="unannotated orf[br]Location: 88456 - 90331" locus_tag="CHAFR746836_0026600.1" class="clusterblast-orf" points="609,40 622,40 627,35 622,30 609,30 609,40 " id="clusterblast-1_q39_2_12"  />
<polygon style="stroke:black; stroke-width:1; fill:#FFFFFF; " description="unannotated orf[br]Location: 94138 - 95689" locus_tag="CHAFR746836_0026610.1" class="clusterblast-orf" points="664,35 669,30 678,30 678,40 669,40 664,35 " id="clusterblast-1_q39_2_13"  />
<polygon style="stroke:black; stroke-width:1; fill:rgb(63,190,190); " description="unannotated orf[br]Location: 98792 - 99832" locus_tag="CHAFR746836_0026620.1" class="clusterblast-orf" points="708,35 713,30 718,30 718,40 713,40 708,35 " id="clusterblast-1_q39_2_14"  />
<polygon style="stroke:black; stroke-width:1; fill:#FFFFFF; " description="unannotated orf[br]Location: 100558 - 102743" locus_tag="CHAFR746836_0026630.1" class="clusterblast-orf" points="725,35 730,30 746,30 746,40 730,40 725,35 " id="clusterblast-1_q39_2_15"  />
<polygon style="stroke:black; stroke-width:1; fill:#FFFFFF; " description="unannotated orf[br]Location: 103839 - 106040" locus_tag="CHAFR746836_0026640.1" class="clusterblast-orf" points="756,40 773,40 778,35 773,30 756,30 756,40 " id="clusterblast-1_q39_2_16"  />
</g>
<g class="clusterblast-cluster" description="Alternaria solani alt1, alt2, alt3, alt4, alt5 genes for cyt..." label="AB120221.1_c1"  >
<text class="clusterblast-acc" y="60" x="5"  >
AB120221.1_c1</text>
<text class="clusterblast-desc" y="60" x="460.8"  >
Alternaria solani alt1, alt2, alt3, alt4, alt5 genes for cyt...</text>
<line y1="85" x2="778.0" style="stroke:grey; stroke-width:1; " x1="10" y2="85"  />
<polygon style="stroke:black; stroke-width:1; fill:rgb(190,190,63); " description="cytochrome_P-450[br]Location: 1893 - 3696&lt;br&gt;&lt;br&gt;&lt;b&gt;BlastP hit with CHAFR746836_0026570.1&lt;/b&gt;&lt;br&gt;Percentage identity: 31%&lt;br&gt;Percentage coverage: 97%&lt;br&gt;BLAST bit score: 220&lt;br&gt;E-value: 4e-63&lt;br&gt;&lt;br&gt;&lt;b&gt;BlastP hit with CHAFR746836_0026580.1&lt;/b&gt;&lt;br&gt;Percentage identity: 32%&lt;br&gt;Percentage coverage: 53%&lt;br&gt;BLAST bit score: 57&lt;br&gt;E-value: 3e-08" locus_tag="BAD83680.1" id="clusterblast-1_h39_2_0" points="311,85 316,80 328,80 328,90 316,90 311,85 " class="clusterblast-orf"  />
<polygon style="stroke:black; stroke-width:1; fill:rgb(190,190,190); " description="cytochrome_P-450[br]Location: 4088 - 5701&lt;br&gt;&lt;br&gt;&lt;b&gt;BlastP hit with CHAFR746836_0026580.1&lt;/b&gt;&lt;br&gt;Percentage identity: 31%&lt;br&gt;Percentage coverage: 91%&lt;br&gt;BLAST bit score: 93&lt;br&gt;E-value: 2e-20" locus_tag="BAD83681.1" id="clusterblast-1_h39_2_1" points="332,85 337,80 347,80 347,90 337,90 332,85 " class="clusterblast-orf"  />
<polygon style="stroke:black; stroke-width:1; fill:rgb(190,190,63); " description="cytochrome_P-450[br]Location: 6091 - 7740&lt;br&gt;&lt;br&gt;&lt;b&gt;BlastP hit with CHAFR746836_0026570.1&lt;/b&gt;&lt;br&gt;Percentage identity: 34%&lt;br&gt;Percentage coverage: 93%&lt;br&gt;BLAST bit score: 288&lt;br&gt;E-value: 8e-89&lt;br&gt;&lt;br&gt;&lt;b&gt;BlastP hit with CHAFR746836_0026580.1&lt;/b&gt;&lt;br&gt;Percentage identity: 34%&lt;br&gt;Percentage coverage: 75%&lt;br&gt;BLAST bit score: 115&lt;br&gt;E-value: 3e-28" locus_tag="BAD83682.1" id="clusterblast-1_h39_2_2" points="351,85 356,80 366,80 366,90 356,90 351,85 " class="clusterblast-orf"  />
<polygon style="stroke:black; stroke-width:1; fill:rgb(190,63,190); " description="FAD/FMN-dependent_oxygenase/oxidase[br]Location: 8580 - 10221&lt;br&gt;&lt;br&gt;&lt;b&gt;BlastP hit with CHAFR746836_0026560.1&lt;/b&gt;&lt;br&gt;Percentage identity: 31%&lt;br&gt;Percentage coverage: 25%&lt;br&gt;BLAST bit score: 56&lt;br&gt;E-value: 2e-07" locus_tag="BAD83683.1" id="clusterblast-1_h39_2_3" points="374,90 385,90 390,85 385,80 374,80 374,90 " class="clusterblast-orf"  />
<polygon style="stroke:black; stroke-width:1; fill:rgb(190,63,63); " description="PKSN_polyketide_synthase_for_alternapyrone[br]Location: 11261 - 19092&lt;br&gt;&lt;br&gt;&lt;b&gt;BlastP hit with CHAFR746836_0026530.1&lt;/b&gt;&lt;br&gt;Percentage identity: 32%&lt;br&gt;Percentage coverage: 44%&lt;br&gt;BLAST bit score: 601&lt;br&gt;E-value: 1e-173" locus_tag="BAD83684.1" id="clusterblast-1_h39_2_4" points="400,90 470,90 475,85 470,80 400,80 400,90 " class="clusterblast-orf"  />
</g>
</svg>
