<svg xmlns="http://www.w3.org/2000/svg" height="230" width="800" version="1.1" y="0" x="0" preserveAspectRatio="none" xmlns:xlink="http://www.w3.org/1999/xlink" viewBox="0 0 800 230"  >
<g class="clusterblast-cluster" label="Query sequence"  >
<text class="clusterblast-acc" y="10" x="5"  >
Query sequence</text>
<line y1="35" x2="778.0" style="stroke:grey; stroke-width:1; " x1="10" y2="35"  />
<polygon style="stroke:black; stroke-width:1; fill:red; " description="unannotated orf[br]Location: 68134 - 70502" locus_tag="CHAFR746836_0071420.1" class="clusterblast-orf" points="10,35 15,30 20,30 20,40 15,40 10,35 " id="clusterblast-1_q9_10_0"  />
<polygon style="stroke:black; stroke-width:1; fill:#FFFFFF; " description="unannotated orf[br]Location: 72327 - 73788" locus_tag="CHAFR746836_0071430.1" class="clusterblast-orf" points="28,35 33,30 35,30 35,40 33,40 28,35 " id="clusterblast-1_q9_10_1"  />
<polygon style="stroke:black; stroke-width:1; fill:#FFFFFF; " description="unannotated orf[br]Location: 76531 - 77863" locus_tag="CHAFR746836_0071440.1" class="clusterblast-orf" points="47,35 52,30 53,30 53,40 52,40 47,35 " id="clusterblast-1_q9_10_2"  />
<polygon style="stroke:black; stroke-width:1; fill:#FFFFFF; " description="unannotated orf[br]Location: 80274 - 82068" locus_tag="CHAFR746836_0071450.1" class="clusterblast-orf" points="64,40 67,40 72,35 67,30 64,30 64,40 " id="clusterblast-1_q9_10_3"  />
<polygon style="stroke:black; stroke-width:1; fill:green; " description="unannotated orf[br]Location: 84469 - 85881" locus_tag="CHAFR746836_0071460.1" class="clusterblast-orf" points="83,35 88,30 89,30 89,40 88,40 83,35 " id="clusterblast-1_q9_10_4"  />
<polygon style="stroke:black; stroke-width:1; fill:blue; " description="unannotated orf[br]Location: 86196 - 88112" locus_tag="CHAFR746836_0071470.1" class="clusterblast-orf" points="91,40 94,40 99,35 94,30 91,30 91,40 " id="clusterblast-1_q9_10_5"  />
<polygon style="stroke:black; stroke-width:1; fill:#FFFFFF; " description="unannotated orf[br]Location: 90971 - 93131" locus_tag="CHAFR746836_0071480.1" class="clusterblast-orf" points="112,35 117,30 122,30 122,40 117,40 112,35 " id="clusterblast-1_q9_10_6"  />
<polygon style="stroke:black; stroke-width:1; fill:#FFFFFF; " description="unannotated orf[br]Location: 94508 - 96197" locus_tag="CHAFR746836_0071490.1" class="clusterblast-orf" points="128,40 130,40 135,35 130,30 128,30 128,40 " id="clusterblast-1_q9_10_7"  />
<polygon style="stroke:black; stroke-width:1; fill:#FFFFFF; " description="unannotated orf[br]Location: 97454 - 99476" locus_tag="CHAFR746836_0071500.1" class="clusterblast-orf" points="141,40 145,40 150,35 145,30 141,30 141,40 " id="clusterblast-1_q9_10_8"  />
<polygon style="stroke:black; stroke-width:1; fill:#FFFFFF; " description="unannotated orf[br]Location: 100761 - 101297" locus_tag="CHAFR746836_0071510.1" class="clusterblast-orf" points="156,40 158,35 156,30 156,40 " id="clusterblast-1_q9_10_9"  />
<polygon style="stroke:black; stroke-width:1; fill:#FFFFFF; " description="unannotated orf[br]Location: 104385 - 104721" locus_tag="CHAFR746836_0071520.1" class="clusterblast-orf" points="172,40 174,35 172,30 172,40 " id="clusterblast-1_q9_10_10"  />
<polygon style="stroke:black; stroke-width:1; fill:#FFFFFF; " description="unannotated orf[br]Location: 107563 - 110227" locus_tag="CHAFR746836_0071530.1" class="clusterblast-orf" points="186,35 191,30 198,30 198,40 191,40 186,35 " id="clusterblast-1_q9_10_11"  />
<polygon style="stroke:black; stroke-width:1; fill:#FFFFFF; " description="unannotated orf[br]Location: 114742 - 115039" locus_tag="CHAFR746836_0071540.1" class="clusterblast-orf" points="219,40 220,35 219,30 219,40 " id="clusterblast-1_q9_10_12"  />
<polygon style="stroke:black; stroke-width:1; fill:#FFFFFF; " description="unannotated orf[br]Location: 123259 - 127108" locus_tag="CHAFR746836_0071550.1" class="clusterblast-orf" points="257,35 262,30 274,30 274,40 262,40 257,35 " id="clusterblast-1_q9_10_13"  />
<polygon style="stroke:black; stroke-width:1; fill:#FFFFFF; " description="unannotated orf[br]Location: 144812 - 146250" locus_tag="CHAFR746836_0071560.1" class="clusterblast-orf" points="354,35 359,30 360,30 360,40 359,40 354,35 " id="clusterblast-1_q9_10_14"  />
<polygon style="stroke:black; stroke-width:1; fill:#FFFFFF; " description="unannotated orf[br]Location: 152743 - 154459" locus_tag="CHAFR746836_0071570.1" class="clusterblast-orf" points="389,35 394,30 397,30 397,40 394,40 389,35 " id="clusterblast-1_q9_10_15"  />
<polygon style="stroke:black; stroke-width:1; fill:#FFFFFF; " description="unannotated orf[br]Location: 156531 - 157389" locus_tag="CHAFR746836_0071580.1" class="clusterblast-orf" points="406,35 410,30 410,40 406,35 " id="clusterblast-1_q9_10_16"  />
<polygon style="stroke:black; stroke-width:1; fill:#FFFFFF; " description="unannotated orf[br]Location: 164785 - 166669" locus_tag="CHAFR746836_0071590.1" class="clusterblast-orf" points="443,40 447,40 452,35 447,30 443,30 443,40 " id="clusterblast-1_q9_10_17"  />
<polygon style="stroke:black; stroke-width:1; fill:#FFFFFF; " description="unannotated orf[br]Location: 201968 - 203433" locus_tag="CHAFR746836_0071600.1" class="clusterblast-orf" points="610,40 612,40 617,35 612,30 610,30 610,40 " id="clusterblast-1_q9_10_18"  />
<polygon style="stroke:black; stroke-width:1; fill:#FFFFFF; " description="unannotated orf[br]Location: 204836 - 205972" locus_tag="CHAFR746836_0071610.1" class="clusterblast-orf" points="623,40 623,40 628,35 623,30 623,30 623,40 " id="clusterblast-1_q9_10_19"  />
<polygon style="stroke:black; stroke-width:1; fill:#FFFFFF; " description="unannotated orf[br]Location: 207637 - 210779" locus_tag="CHAFR746836_0071620.1" class="clusterblast-orf" points="636,35 641,30 650,30 650,40 641,40 636,35 " id="clusterblast-1_q9_10_20"  />
<polygon style="stroke:black; stroke-width:1; fill:#FFFFFF; " description="unannotated orf[br]Location: 211916 - 213325" locus_tag="CHAFR746836_0071630.1" class="clusterblast-orf" points="655,35 660,30 661,30 661,40 660,40 655,35 " id="clusterblast-1_q9_10_21"  />
<polygon style="stroke:black; stroke-width:1; fill:yellow; " description="unannotated orf[br]Location: 215213 - 216863" locus_tag="CHAFR746836_0071640.1" class="clusterblast-orf" points="670,35 675,30 677,30 677,40 675,40 670,35 " id="clusterblast-1_q9_10_22"  />
<polygon style="stroke:black; stroke-width:1; fill:#FFFFFF; " description="unannotated orf[br]Location: 224691 - 226010" locus_tag="CHAFR746836_0071650.1" class="clusterblast-orf" points="712,40 713,40 718,35 713,30 712,30 712,40 " id="clusterblast-1_q9_10_23"  />
<polygon style="stroke:black; stroke-width:1; fill:#FFFFFF; " description="unannotated orf[br]Location: 230972 - 232109" locus_tag="CHAFR746836_0071660.1" class="clusterblast-orf" points="740,40 740,40 745,35 740,30 740,30 740,40 " id="clusterblast-1_q9_10_24"  />
<polygon style="stroke:black; stroke-width:1; fill:#FFFFFF; " description="unannotated orf[br]Location: 233318 - 234463" locus_tag="CHAFR746836_0071670.1" class="clusterblast-orf" points="751,35 756,30 756,30 756,40 756,40 751,35 " id="clusterblast-1_q9_10_25"  />
<polygon style="stroke:black; stroke-width:1; fill:#FFFFFF; " description="unannotated orf[br]Location: 234897 - 236194" locus_tag="CHAFR746836_0071680.1" class="clusterblast-orf" points="758,40 759,40 764,35 759,30 758,30 758,40 " id="clusterblast-1_q9_10_26"  />
<polygon style="stroke:black; stroke-width:1; fill:#FFFFFF; " description="unannotated orf[br]Location: 236494 - 237888" locus_tag="CHAFR746836_0071690.1" class="clusterblast-orf" points="765,35 770,30 771,30 771,40 770,40 765,35 " id="clusterblast-1_q9_10_27"  />
<polygon style="stroke:black; stroke-width:1; fill:#FFFFFF; " description="unannotated orf[br]Location: 238790 - 239245" locus_tag="CHAFR746836_0071700.1" class="clusterblast-orf" points="775,40 778,35 775,30 775,40 " id="clusterblast-1_q9_10_28"  />
</g>
<g class="clusterblast-cluster" description="Stenotrophomonas maltophilia JV3 chromosome, complete geno..." label="NC_015947.1_c1"  >
<text class="clusterblast-acc" y="60" x="5"  >
NC_015947.1_c1</text>
<text class="clusterblast-desc" y="60" x="460.8"  >
Stenotrophomonas maltophilia JV3 chromosome, complete geno...</text>
<line y1="85" x2="778.0" style="stroke:grey; stroke-width:1; " x1="10" y2="85"  />
<polygon style="stroke:black; stroke-width:1; fill:#FFFFFF; " description="family_2_glycosyl_transferase[br]Location: 193395 - 194534" locus_tag="BurJV3_0170" id="clusterblast-1_h9_10_0" points="298,85 303,80 303,80 303,90 303,90 298,85 " class="clusterblast-orf"  />
<polygon style="stroke:black; stroke-width:1; fill:#FFFFFF; " description="LmbE_family_protein[br]Location: 194534 - 195145" locus_tag="BurJV3_0171" id="clusterblast-1_h9_10_1" points="303,85 305,80 305,90 303,85 " class="clusterblast-orf"  />
<polygon style="stroke:black; stroke-width:1; fill:#FFFFFF; " description="type_11_methyltransferase[br]Location: 195257 - 195898" locus_tag="BurJV3_0172" id="clusterblast-1_h9_10_2" points="306,90 309,85 306,80 306,90 " class="clusterblast-orf"  />
<polygon style="stroke:black; stroke-width:1; fill:#FFFFFF; " description="pseudouridine_synthase[br]Location: 195985 - 196728" locus_tag="BurJV3_0173" id="clusterblast-1_h9_10_3" points="309,90 312,85 309,80 309,90 " class="clusterblast-orf"  />
<polygon style="stroke:black; stroke-width:1; fill:#FFFFFF; " description="hypothetical_protein[br]Location: 196792 - 197319" locus_tag="BurJV3_0174" id="clusterblast-1_h9_10_4" points="313,85 315,80 315,90 313,85 " class="clusterblast-orf"  />
<polygon style="stroke:black; stroke-width:1; fill:#FFFFFF; " description="class_I_peptide_chain_release_factor[br]Location: 197454 - 197885" locus_tag="BurJV3_0175" id="clusterblast-1_h9_10_5" points="316,90 318,85 316,80 316,90 " class="clusterblast-orf"  />
<polygon style="stroke:black; stroke-width:1; fill:#FFFFFF; " description="phospholipid/glycerol_acyltransferase[br]Location: 197890 - 198492" locus_tag="BurJV3_0176" id="clusterblast-1_h9_10_6" points="318,90 320,85 318,80 318,90 " class="clusterblast-orf"  />
<polygon style="stroke:black; stroke-width:1; fill:#FFFFFF; " description="peptidyl-dipeptidase_Dcp[br]Location: 198604 - 200760" locus_tag="BurJV3_0177" id="clusterblast-1_h9_10_7" points="321,90 326,90 331,85 326,80 321,80 321,90 " class="clusterblast-orf"  />
<polygon style="stroke:black; stroke-width:1; fill:#FFFFFF; " description="3-dehydroquinate_dehydratase[br]Location: 200945 - 201391" locus_tag="BurJV3_0178" id="clusterblast-1_h9_10_8" points="331,85 333,80 333,90 331,85 " class="clusterblast-orf"  />
<polygon style="stroke:black; stroke-width:1; fill:#FFFFFF; " description="hypothetical_protein[br]Location: 201395 - 201796" locus_tag="BurJV3_0179" id="clusterblast-1_h9_10_9" points="333,85 335,80 335,90 333,85 " class="clusterblast-orf"  />
<polygon style="stroke:black; stroke-width:1; fill:#FFFFFF; " description="signal_peptidase_I[br]Location: 201979 - 202605" locus_tag="BurJV3_0180" id="clusterblast-1_h9_10_10" points="336,90 339,85 336,80 336,90 " class="clusterblast-orf"  />
<polygon style="stroke:black; stroke-width:1; fill:#FFFFFF; " description="major_facilitator_superfamily_protein[br]Location: 202730 - 203986" locus_tag="BurJV3_0181" id="clusterblast-1_h9_10_11" points="339,90 340,90 345,85 340,80 339,80 339,90 " class="clusterblast-orf"  />
<polygon style="stroke:black; stroke-width:1; fill:#FFFFFF; " description="LysR_family_transcriptional_regulator[br]Location: 204079 - 204987" locus_tag="BurJV3_0182" id="clusterblast-1_h9_10_12" points="345,85 350,80 350,80 350,90 350,90 345,85 " class="clusterblast-orf"  />
<polygon style="stroke:black; stroke-width:1; fill:#FFFFFF; " description="LysR_family_transcriptional_regulator[br]Location: 205316 - 206284" locus_tag="BurJV3_0183" id="clusterblast-1_h9_10_13" points="351,85 355,80 355,90 351,85 " class="clusterblast-orf"  />
<polygon style="stroke:black; stroke-width:1; fill:#FFFFFF; " description="malate_synthase_A[br]Location: 206395 - 208017" locus_tag="BurJV3_0184" id="clusterblast-1_h9_10_14" points="356,90 358,90 363,85 358,80 356,80 356,90 " class="clusterblast-orf"  />
<polygon style="stroke:black; stroke-width:1; fill:#FFFFFF; " description="isocitrate_lyase[br]Location: 208082 - 209383" locus_tag="BurJV3_0185" id="clusterblast-1_h9_10_15" points="363,90 364,90 369,85 364,80 363,80 363,90 " class="clusterblast-orf"  />
<polygon style="stroke:black; stroke-width:1; fill:#FFFFFF; " description="diguanylate_cyclase[br]Location: 209803 - 210843" locus_tag="BurJV3_0186" id="clusterblast-1_h9_10_16" points="371,90 371,90 376,85 371,80 371,80 371,90 " class="clusterblast-orf"  />
<polygon style="stroke:black; stroke-width:1; fill:#FFFFFF; " description="hypothetical_protein[br]Location: 210857 - 213349" locus_tag="BurJV3_0187" id="clusterblast-1_h9_10_17" points="376,90 382,90 387,85 382,80 376,80 376,90 " class="clusterblast-orf"  />
<polygon style="stroke:black; stroke-width:1; fill:#FFFFFF; " description="hypothetical_protein[br]Location: 213357 - 213653" locus_tag="BurJV3_0188" id="clusterblast-1_h9_10_18" points="387,85 388,80 388,90 387,85 " class="clusterblast-orf"  />
<polygon style="stroke:black; stroke-width:1; fill:#FFFFFF; " description="SagB-type_dehydrogenase_domain-containing[br]Location: 213792 - 214958" locus_tag="BurJV3_0189" id="clusterblast-1_h9_10_19" points="389,90 389,90 394,85 389,80 389,80 389,90 " class="clusterblast-orf"  />
<polygon style="stroke:black; stroke-width:1; fill:red; " description="methylcrotonoyl-CoA_carboxylase[br]Location: 214978 - 216960&lt;br&gt;&lt;br&gt;&lt;b&gt;BlastP hit with CHAFR746836_0071420.1&lt;/b&gt;&lt;br&gt;Percentage identity: 40%&lt;br&gt;Percentage coverage: 96%&lt;br&gt;BLAST bit score: 464&lt;br&gt;E-value: 4e-152" locus_tag="BurJV3_0190" id="clusterblast-1_h9_10_20" points="394,85 399,80 403,80 403,90 399,90 394,85 " class="clusterblast-orf"  />
<polygon style="stroke:black; stroke-width:1; fill:blue; " description="methylcrotonoyl-CoA_carboxylase[br]Location: 216987 - 218597&lt;br&gt;&lt;br&gt;&lt;b&gt;BlastP hit with CHAFR746836_0071470.1&lt;/b&gt;&lt;br&gt;Percentage identity: 59%&lt;br&gt;Percentage coverage: 94%&lt;br&gt;BLAST bit score: 645&lt;br&gt;E-value: 0.0" locus_tag="BurJV3_0191" id="clusterblast-1_h9_10_21" points="403,85 408,80 411,80 411,90 408,90 403,85 " class="clusterblast-orf"  />
<polygon style="stroke:black; stroke-width:1; fill:green; " description="isovaleryl-CoA_dehydrogenase[br]Location: 218608 - 219771&lt;br&gt;&lt;br&gt;&lt;b&gt;BlastP hit with CHAFR746836_0071460.1&lt;/b&gt;&lt;br&gt;Percentage identity: 61%&lt;br&gt;Percentage coverage: 86%&lt;br&gt;BLAST bit score: 445&lt;br&gt;E-value: 7e-153" locus_tag="BurJV3_0192" id="clusterblast-1_h9_10_22" points="411,85 416,80 416,80 416,90 416,90 411,85 " class="clusterblast-orf"  />
<polygon style="stroke:black; stroke-width:1; fill:#FFFFFF; " description="TetR_family_transcriptional_regulator[br]Location: 219931 - 220545" locus_tag="BurJV3_0193" id="clusterblast-1_h9_10_23" points="417,90 419,85 417,80 417,90 " class="clusterblast-orf"  />
<polygon style="stroke:black; stroke-width:1; fill:#FFFFFF; " description="cytochrome_c_class_I[br]Location: 220733 - 221251" locus_tag="BurJV3_0194" id="clusterblast-1_h9_10_24" points="420,90 423,85 420,80 420,90 " class="clusterblast-orf"  />
<polygon style="stroke:black; stroke-width:1; fill:#FFFFFF; " description="endonuclease/exonuclease/phosphatase[br]Location: 221437 - 222882" locus_tag="BurJV3_0195" id="clusterblast-1_h9_10_25" points="423,90 425,90 430,85 425,80 423,80 423,90 " class="clusterblast-orf"  />
<polygon style="stroke:black; stroke-width:1; fill:#FFFFFF; " description="hypothetical_protein[br]Location: 222947 - 223144" locus_tag="BurJV3_0196" id="clusterblast-1_h9_10_26" points="430,85 431,80 431,90 430,85 " class="clusterblast-orf"  />
<polygon style="stroke:black; stroke-width:1; fill:#FFFFFF; " description="hypothetical_protein[br]Location: 223184 - 224041" locus_tag="BurJV3_0197" id="clusterblast-1_h9_10_27" points="431,85 435,80 435,90 431,85 " class="clusterblast-orf"  />
<polygon style="stroke:black; stroke-width:1; fill:#FFFFFF; " description="hypothetical_protein[br]Location: 224085 - 224756" locus_tag="BurJV3_0198" id="clusterblast-1_h9_10_28" points="435,90 438,85 435,80 435,90 " class="clusterblast-orf"  />
<polygon style="stroke:black; stroke-width:1; fill:#FFFFFF; " description="AFG1_family_ATPase[br]Location: 224753 - 225853" locus_tag="BurJV3_0199" id="clusterblast-1_h9_10_29" points="438,90 438,90 443,85 438,80 438,80 438,90 " class="clusterblast-orf"  />
<polygon style="stroke:black; stroke-width:1; fill:#FFFFFF; " description="hypothetical_protein[br]Location: 225947 - 226783" locus_tag="BurJV3_0200" id="clusterblast-1_h9_10_30" points="444,85 447,80 447,90 444,85 " class="clusterblast-orf"  />
<polygon style="stroke:black; stroke-width:1; fill:#FFFFFF; " description="ribonucleoside-diphosphate_reductase_subunit[br]Location: 227335 - 229737" locus_tag="BurJV3_0201" id="clusterblast-1_h9_10_31" points="450,90 456,90 461,85 456,80 450,80 450,90 " class="clusterblast-orf"  />
<polygon style="stroke:black; stroke-width:1; fill:#FFFFFF; " description="ribonucleoside-diphosphate_reductase[br]Location: 229856 - 230875" locus_tag="BurJV3_0202" id="clusterblast-1_h9_10_32" points="461,90 461,90 466,85 461,80 461,80 461,90 " class="clusterblast-orf"  />
<polygon style="stroke:black; stroke-width:1; fill:#FFFFFF; " description="lysine_exporter_protein_LysE/YggA[br]Location: 231035 - 231670" locus_tag="BurJV3_0203" id="clusterblast-1_h9_10_33" points="466,85 469,80 469,90 466,85 " class="clusterblast-orf"  />
<polygon style="stroke:black; stroke-width:1; fill:#FFFFFF; " description="thioesterase_superfamily_protein[br]Location: 231761 - 232162" locus_tag="BurJV3_0204" id="clusterblast-1_h9_10_34" points="470,90 471,85 470,80 470,90 " class="clusterblast-orf"  />
<polygon style="stroke:black; stroke-width:1; fill:#FFFFFF; " description="hypothetical_protein[br]Location: 232314 - 233273" locus_tag="BurJV3_0206" id="clusterblast-1_h9_10_35" points="472,85 476,80 476,90 472,85 " class="clusterblast-orf"  />
<polygon style="stroke:black; stroke-width:1; fill:#FFFFFF; " description="hypothetical_protein[br]Location: 233273 - 234613" locus_tag="BurJV3_0207" id="clusterblast-1_h9_10_36" points="476,85 481,80 482,80 482,90 481,90 476,85 " class="clusterblast-orf"  />
<polygon style="stroke:black; stroke-width:1; fill:#FFFFFF; " description="DNA-cytosine_methyltransferase[br]Location: 234664 - 235848" locus_tag="BurJV3_0208" id="clusterblast-1_h9_10_37" points="483,85 488,80 488,80 488,90 488,90 483,85 " class="clusterblast-orf"  />
</g>
</svg>
