<svg xmlns="http://www.w3.org/2000/svg" height="230" width="800" version="1.1" y="0" x="0" preserveAspectRatio="none" xmlns:xlink="http://www.w3.org/1999/xlink" viewBox="0 0 800 230"  >
<g class="clusterblast-cluster" label="Query sequence"  >
<text class="clusterblast-acc" y="10" x="5"  >
Query sequence</text>
<line y1="35" x2="778.0" style="stroke:grey; stroke-width:1; " x1="10" y2="35"  />
<polygon style="stroke:black; stroke-width:1; fill:#FFFFFF; " description="unannotated orf[br]Location: 1512 - 2448" locus_tag="CHAFR746836_0050080.1" class="clusterblast-orf" points="134,35 139,30 148,30 148,40 139,40 134,35 " id="clusterblast-1_q62_3_0"  />
<polygon style="stroke:black; stroke-width:1; fill:red; " description="unannotated orf[br]Location: 2882 - 4133" locus_tag="CHAFR746836_0050090.1" class="clusterblast-orf" points="155,35 160,30 175,30 175,40 160,40 155,35 " id="clusterblast-1_q62_3_1"  />
<polygon style="stroke:black; stroke-width:1; fill:#FFFFFF; " description="unannotated orf[br]Location: 5123 - 5570" locus_tag="CHAFR746836_0050100.1" class="clusterblast-orf" points="190,35 195,30 197,30 197,40 195,40 190,35 " id="clusterblast-1_q62_3_2"  />
<polygon style="stroke:black; stroke-width:1; fill:#FFFFFF; " description="unannotated orf[br]Location: 8355 - 9336" locus_tag="CHAFR746836_0050110.1" class="clusterblast-orf" points="241,35 246,30 257,30 257,40 246,40 241,35 " id="clusterblast-1_q62_3_3"  />
<polygon style="stroke:black; stroke-width:1; fill:#FFFFFF; " description="unannotated orf[br]Location: 12324 - 14874" locus_tag="CHAFR746836_0050120.1" class="clusterblast-orf" points="304,35 309,30 344,30 344,40 309,40 304,35 " id="clusterblast-1_q62_3_4"  />
<polygon style="stroke:black; stroke-width:1; fill:green; " description="unannotated orf[br]Location: 15980 - 17688" locus_tag="CHAFR746836_0050130.1" class="clusterblast-orf" points="361,35 366,30 388,30 388,40 366,40 361,35 " id="clusterblast-1_q62_3_5"  />
<polygon style="stroke:black; stroke-width:1; fill:blue; " description="unannotated orf[br]Location: 19826 - 23199" locus_tag="CHAFR746836_0050140.1" class="clusterblast-orf" points="421,40 470,40 475,35 470,30 421,30 421,40 " id="clusterblast-1_q62_3_6"  />
<polygon style="stroke:black; stroke-width:1; fill:yellow; " description="unannotated orf[br]Location: 28885 - 30583" locus_tag="CHAFR746836_0050150.1" class="clusterblast-orf" points="564,40 586,40 591,35 586,30 564,30 564,40 " id="clusterblast-1_q62_3_7"  />
<polygon style="stroke:black; stroke-width:1; fill:#FFFFFF; " description="unannotated orf[br]Location: 33511 - 34482" locus_tag="CHAFR746836_0050160.1" class="clusterblast-orf" points="637,40 647,40 652,35 647,30 637,30 637,40 " id="clusterblast-1_q62_3_8"  />
</g>
<g class="clusterblast-cluster" description="Botryotinia fuckeliana isolate T4 SuperContig 277 1 genomic ..." label="FQ790293.1_c2"  >
<text class="clusterblast-acc" y="60" x="5"  >
FQ790293.1_c2</text>
<text class="clusterblast-desc" y="60" x="460.8"  >
Botryotinia fuckeliana isolate T4 SuperContig 277 1 genomic ...</text>
<line y1="85" x2="778.0" style="stroke:grey; stroke-width:1; " x1="10" y2="85"  />
<polygon style="stroke:black; stroke-width:1; fill:#FFFFFF; " description="predicted_protein[br]Location: 765821 - 766000" locus_tag="CCD48590.1" id="clusterblast-1_h62_3_0" points="10,90 12,85 10,80 10,90 " class="clusterblast-orf"  />
<polygon style="stroke:black; stroke-width:1; fill:red; " description="similar_to_oxidoreductase_domain_containing[br]Location: 766398 - 767655&lt;br&gt;&lt;br&gt;&lt;b&gt;BlastP hit with CHAFR746836_0050090.1&lt;/b&gt;&lt;br&gt;Percentage identity: 61%&lt;br&gt;Percentage coverage: 101%&lt;br&gt;BLAST bit score: 466&lt;br&gt;E-value: 4e-161" locus_tag="CCD48591.1" id="clusterblast-1_h62_3_1" points="19,90 33,90 38,85 33,80 19,80 19,90 " class="clusterblast-orf"  />
<polygon style="stroke:black; stroke-width:1; fill:#FFFFFF; " description="predicted_protein[br]Location: 770587 - 770850" locus_tag="CCD48592.1" id="clusterblast-1_h62_3_2" points="84,90 84,90 89,85 84,80 84,80 84,90 " class="clusterblast-orf"  />
<polygon style="stroke:black; stroke-width:1; fill:#FFFFFF; " description="hypothetical_protein[br]Location: 771405 - 771857" locus_tag="CCD48593.1" id="clusterblast-1_h62_3_3" points="97,85 102,80 104,80 104,90 102,90 97,85 " class="clusterblast-orf"  />
<polygon style="stroke:black; stroke-width:1; fill:yellow; " description="hypothetical_protein[br]Location: 772663 - 774344&lt;br&gt;&lt;br&gt;&lt;b&gt;BlastP hit with CHAFR746836_0050150.1&lt;/b&gt;&lt;br&gt;Percentage identity: 50%&lt;br&gt;Percentage coverage: 99%&lt;br&gt;BLAST bit score: 419&lt;br&gt;E-value: 2e-139" locus_tag="CCD48594.1" id="clusterblast-1_h62_3_4" points="117,90 139,90 144,85 139,80 117,80 117,90 " class="clusterblast-orf"  />
<polygon style="stroke:black; stroke-width:1; fill:#FFFFFF; " description="hypothetical_protein[br]Location: 775288 - 775727" locus_tag="CCD48595.1" id="clusterblast-1_h62_3_5" points="158,85 163,80 165,80 165,90 163,90 158,85 " class="clusterblast-orf"  />
<polygon style="stroke:black; stroke-width:1; fill:#FFFFFF; " description="similar_to_50S_ribosomal_protein_L27[br]Location: 776178 - 777069" locus_tag="CCD48596.1" id="clusterblast-1_h62_3_6" points="172,90 181,90 186,85 181,80 172,80 172,90 " class="clusterblast-orf"  />
<polygon style="stroke:black; stroke-width:1; fill:#FFFFFF; " description="similar_to_SH3_domain-containing_protein[br]Location: 778016 - 781943" locus_tag="CCD48597.1" id="clusterblast-1_h62_3_7" points="201,85 206,80 263,80 263,90 206,90 201,85 " class="clusterblast-orf"  />
<polygon style="stroke:black; stroke-width:1; fill:#FFFFFF; " description="similar_to_mst3-like_protein_kinase[br]Location: 782456 - 784430" locus_tag="CCD48598.1" id="clusterblast-1_h62_3_8" points="271,90 297,90 302,85 297,80 271,80 271,90 " class="clusterblast-orf"  />
<polygon style="stroke:black; stroke-width:1; fill:#FFFFFF; " description="predicted_protein[br]Location: 784863 - 785075" locus_tag="CCD48599.1" id="clusterblast-1_h62_3_9" points="309,85 312,80 312,90 309,85 " class="clusterblast-orf"  />
<polygon style="stroke:black; stroke-width:1; fill:#FFFFFF; " description="BcNRPS4,_nonribosomal_peptide_synthetase,[br]Location: 785710 - 792395" locus_tag="CCD48600.1" id="clusterblast-1_h62_3_10" points="322,85 327,80 427,80 427,90 327,90 322,85 " class="clusterblast-orf"  />
<polygon style="stroke:black; stroke-width:1; fill:#FFFFFF; " description="BcNRPS4,_nonribosomal_peptide_synthetase,[br]Location: 792452 - 794440" locus_tag="CCD48601.1" id="clusterblast-1_h62_3_11" points="428,85 433,80 460,80 460,90 433,90 428,85 " class="clusterblast-orf"  />
<polygon style="stroke:black; stroke-width:1; fill:#FFFFFF; " description="predicted_protein[br]Location: 795175 - 795687" locus_tag="CCD48602.1" id="clusterblast-1_h62_3_12" points="471,85 476,80 479,80 479,90 476,90 471,85 " class="clusterblast-orf"  />
<polygon style="stroke:black; stroke-width:1; fill:#FFFFFF; " description="hypothetical_protein[br]Location: 796417 - 798328" locus_tag="CCD48603.1" id="clusterblast-1_h62_3_13" points="491,90 516,90 521,85 516,80 491,80 491,90 " class="clusterblast-orf"  />
<polygon style="stroke:black; stroke-width:1; fill:#FFFFFF; " description="hypothetical_protein[br]Location: 798648 - 800295" locus_tag="CCD48604.1" id="clusterblast-1_h62_3_14" points="526,90 547,90 552,85 547,80 526,80 526,90 " class="clusterblast-orf"  />
<polygon style="stroke:black; stroke-width:1; fill:#FFFFFF; " description="hypothetical_protein[br]Location: 801626 - 802855" locus_tag="CCD48605.1" id="clusterblast-1_h62_3_15" points="573,85 578,80 592,80 592,90 578,90 573,85 " class="clusterblast-orf"  />
<polygon style="stroke:black; stroke-width:1; fill:#FFFFFF; " description="predicted_protein[br]Location: 804830 - 805210" locus_tag="CCD48606.1" id="clusterblast-1_h62_3_16" points="623,85 628,80 629,80 629,90 628,90 623,85 " class="clusterblast-orf"  />
<polygon style="stroke:black; stroke-width:1; fill:#FFFFFF; " description="similar_to_carnitine_acetyl_transferase[br]Location: 810634 - 813366" locus_tag="CCD48607.1" id="clusterblast-1_h62_3_17" points="714,85 719,80 757,80 757,90 719,90 714,85 " class="clusterblast-orf"  />
<polygon style="stroke:black; stroke-width:1; fill:#FFFFFF; " description="hypothetical_protein[br]Location: 813792 - 814070" locus_tag="CCD48608.1" id="clusterblast-1_h62_3_18" points="764,90 768,85 764,80 764,90 " class="clusterblast-orf"  />
<polygon style="stroke:black; stroke-width:1; fill:#FFFFFF; " description="hypothetical_protein[br]Location: 814423 - 814662" locus_tag="CCD48609.1" id="clusterblast-1_h62_3_19" points="774,90 778,85 774,80 774,90 " class="clusterblast-orf"  />
</g>
</svg>
