<svg xmlns="http://www.w3.org/2000/svg" height="230" width="800" version="1.1" y="0" x="0" preserveAspectRatio="none" xmlns:xlink="http://www.w3.org/1999/xlink" viewBox="0 0 800 230"  >
<g class="clusterblast-cluster" label="Query sequence"  >
<text class="clusterblast-acc" y="10" x="5"  >
Query sequence</text>
<line y1="35" x2="778.0" style="stroke:grey; stroke-width:1; " x1="10" y2="35"  />
<polygon style="stroke:black; stroke-width:1; fill:#FFFFFF; " description="unannotated orf[br]Location: 489 - 2721" locus_tag="CHAFR746836_0051070.1" class="clusterblast-orf" points="10,35 15,30 29,30 29,40 15,40 10,35 " id="clusterblast-1_q63_1_0"  />
<polygon style="stroke:black; stroke-width:1; fill:#FFFFFF; " description="unannotated orf[br]Location: 4200 - 5219" locus_tag="CHAFR746836_0051080.1" class="clusterblast-orf" points="41,35 46,30 50,30 50,40 46,40 41,35 " id="clusterblast-1_q63_1_1"  />
<polygon style="stroke:black; stroke-width:1; fill:#FFFFFF; " description="unannotated orf[br]Location: 6660 - 7800" locus_tag="CHAFR746836_0051090.1" class="clusterblast-orf" points="62,40 67,40 72,35 67,30 62,30 62,40 " id="clusterblast-1_q63_1_2"  />
<polygon style="stroke:black; stroke-width:1; fill:rgb(190,63,63); " description="unannotated orf[br]Location: 26765 - 27965" locus_tag="CHAFR746836_0051100.1" class="clusterblast-orf" points="233,40 239,40 244,35 239,30 233,30 233,40 " id="clusterblast-1_q63_1_3"  />
<polygon style="stroke:black; stroke-width:1; fill:rgb(63,63,190); " description="unannotated orf[br]Location: 28597 - 39479" locus_tag="CHAFR746836_0051110.1" class="clusterblast-orf" points="249,40 337,40 342,35 337,30 249,30 249,40 " id="clusterblast-1_q63_1_4"  />
<polygon style="stroke:black; stroke-width:1; fill:rgb(63,190,63); " description="unannotated orf[br]Location: 40061 - 41918" locus_tag="CHAFR746836_0051120.1" class="clusterblast-orf" points="347,40 358,40 363,35 358,30 347,30 347,40 " id="clusterblast-1_q63_1_5"  />
<polygon style="stroke:black; stroke-width:1; fill:rgb(190,63,190); " description="unannotated orf[br]Location: 43238 - 44908" locus_tag="CHAFR746836_0051130.1" class="clusterblast-orf" points="374,40 383,40 388,35 383,30 374,30 374,40 " id="clusterblast-1_q63_1_6"  />
<polygon style="stroke:black; stroke-width:1; fill:#FFFFFF; " description="unannotated orf[br]Location: 47854 - 53058" locus_tag="CHAFR746836_0051140.1" class="clusterblast-orf" points="413,35 418,30 458,30 458,40 418,40 413,35 " id="clusterblast-1_q63_1_7"  />
<polygon style="stroke:black; stroke-width:1; fill:rgb(190,190,63); " description="unannotated orf[br]Location: 53967 - 56732" locus_tag="CHAFR746836_0051150.1" class="clusterblast-orf" points="465,40 484,40 489,35 484,30 465,30 465,40 " id="clusterblast-1_q63_1_8"  />
<polygon style="stroke:black; stroke-width:1; fill:#FFFFFF; " description="unannotated orf[br]Location: 58548 - 59100" locus_tag="CHAFR746836_0051160.1" class="clusterblast-orf" points="504,35 509,30 509,30 509,40 509,40 504,35 " id="clusterblast-1_q63_1_9"  />
<polygon style="stroke:black; stroke-width:1; fill:#FFFFFF; " description="unannotated orf[br]Location: 60871 - 61857" locus_tag="CHAFR746836_0051170.1" class="clusterblast-orf" points="524,40 528,40 533,35 528,30 524,30 524,40 " id="clusterblast-1_q63_1_10"  />
<polygon style="stroke:black; stroke-width:1; fill:#FFFFFF; " description="unannotated orf[br]Location: 63105 - 64083" locus_tag="CHAFR746836_0051180.1" class="clusterblast-orf" points="543,35 548,30 552,30 552,40 548,40 543,35 " id="clusterblast-1_q63_1_11"  />
<polygon style="stroke:black; stroke-width:1; fill:#FFFFFF; " description="unannotated orf[br]Location: 67899 - 70038" locus_tag="CHAFR746836_0051190.1" class="clusterblast-orf" points="584,40 597,40 602,35 597,30 584,30 584,40 " id="clusterblast-1_q63_1_12"  />
<polygon style="stroke:black; stroke-width:1; fill:#FFFFFF; " description="unannotated orf[br]Location: 72649 - 74314" locus_tag="CHAFR746836_0051200.1" class="clusterblast-orf" points="625,35 630,30 639,30 639,40 630,40 625,35 " id="clusterblast-1_q63_1_13"  />
<polygon style="stroke:black; stroke-width:1; fill:#FFFFFF; " description="unannotated orf[br]Location: 77147 - 77748" locus_tag="CHAFR746836_0051210.1" class="clusterblast-orf" points="663,40 663,40 668,35 663,30 663,30 663,40 " id="clusterblast-1_q63_1_14"  />
<polygon style="stroke:black; stroke-width:1; fill:#FFFFFF; " description="unannotated orf[br]Location: 78975 - 79809" locus_tag="CHAFR746836_0051220.1" class="clusterblast-orf" points="679,40 681,40 686,35 681,30 679,30 679,40 " id="clusterblast-1_q63_1_15"  />
<polygon style="stroke:black; stroke-width:1; fill:#FFFFFF; " description="unannotated orf[br]Location: 85804 - 86841" locus_tag="CHAFR746836_0051230.1" class="clusterblast-orf" points="737,35 742,30 746,30 746,40 742,40 737,35 " id="clusterblast-1_q63_1_16"  />
<polygon style="stroke:black; stroke-width:1; fill:#FFFFFF; " description="unannotated orf[br]Location: 88142 - 90586" locus_tag="CHAFR746836_0051240.1" class="clusterblast-orf" points="757,35 762,30 778,30 778,40 762,40 757,35 " id="clusterblast-1_q63_1_17"  />
</g>
<g class="clusterblast-cluster" description="Glomerella graminicola M1.001 genomic scaffold supercont1.53..." label="GG697383.1_c1"  >
<text class="clusterblast-acc" y="60" x="5"  >
GG697383.1_c1</text>
<text class="clusterblast-desc" y="60" x="460.8"  >
Glomerella graminicola M1.001 genomic scaffold supercont1.53...</text>
<line y1="85" x2="778.0" style="stroke:grey; stroke-width:1; " x1="10" y2="85"  />
<polygon style="stroke:black; stroke-width:1; fill:#FFFFFF; " description="ion_transporter[br]Location: 66738 - 69089" locus_tag="GLRG_09848" id="clusterblast-1_h63_1_0" points="159,85 164,80 179,80 179,90 164,90 159,85 " class="clusterblast-orf"  />
<polygon style="stroke:black; stroke-width:1; fill:#FFFFFF; " description="hypothetical_protein[br]Location: 61251 - 62687" locus_tag="GLRG_09847" id="clusterblast-1_h63_1_1" points="213,90 220,90 225,85 220,80 213,80 213,90 " class="clusterblast-orf"  />
<polygon style="stroke:black; stroke-width:1; fill:#FFFFFF; " description="cyclopropane-fatty-acyl-phospholipid_synthase[br]Location: 55105 - 56861" locus_tag="GLRG_09846" id="clusterblast-1_h63_1_2" points="263,90 273,90 278,85 273,80 263,80 263,90 " class="clusterblast-orf"  />
<polygon style="stroke:black; stroke-width:1; fill:#FFFFFF; " description="hypothetical_protein[br]Location: 52167 - 53509" locus_tag="GLRG_09845" id="clusterblast-1_h63_1_3" points="291,90 298,90 303,85 298,80 291,80 291,90 " class="clusterblast-orf"  />
<polygon style="stroke:black; stroke-width:1; fill:#FFFFFF; " description="hypothetical_protein[br]Location: 51140 - 51364" locus_tag="GLRG_09844" id="clusterblast-1_h63_1_4" points="310,90 311,85 310,80 310,90 " class="clusterblast-orf"  />
<polygon style="stroke:black; stroke-width:1; fill:#FFFFFF; " description="cytochrome_P450[br]Location: 48691 - 50392" locus_tag="GLRG_09843" id="clusterblast-1_h63_1_5" points="318,90 327,90 332,85 327,80 318,80 318,90 " class="clusterblast-orf"  />
<polygon style="stroke:black; stroke-width:1; fill:rgb(63,63,190); " description="AMP-binding_enzyme[br]Location: 35339 - 47481&lt;br&gt;&lt;br&gt;&lt;b&gt;BlastP hit with CHAFR746836_0051100.1&lt;/b&gt;&lt;br&gt;Percentage identity: 61%&lt;br&gt;Percentage coverage: 96%&lt;br&gt;BLAST bit score: 401&lt;br&gt;E-value: 2e-124&lt;br&gt;&lt;br&gt;&lt;b&gt;BlastP hit with CHAFR746836_0051110.1&lt;/b&gt;&lt;br&gt;Percentage identity: 35%&lt;br&gt;Percentage coverage: 101%&lt;br&gt;BLAST bit score: 2006&lt;br&gt;E-value: 0.0" locus_tag="GLRG_09842" id="clusterblast-1_h63_1_6" points="343,85 348,80 446,80 446,90 348,90 343,85 " class="clusterblast-orf"  />
<polygon style="stroke:black; stroke-width:1; fill:#FFFFFF; " description="cytochrome_P450[br]Location: 31516 - 33177" locus_tag="GLRG_09841" id="clusterblast-1_h63_1_7" points="465,90 474,90 479,85 474,80 465,80 465,90 " class="clusterblast-orf"  />
<polygon style="stroke:black; stroke-width:1; fill:rgb(63,190,63); " description="major_facilitator_superfamily_transporter[br]Location: 28656 - 30476&lt;br&gt;&lt;br&gt;&lt;b&gt;BlastP hit with CHAFR746836_0051120.1&lt;/b&gt;&lt;br&gt;Percentage identity: 41%&lt;br&gt;Percentage coverage: 97%&lt;br&gt;BLAST bit score: 460&lt;br&gt;E-value: 2e-153" locus_tag="GLRG_09840" id="clusterblast-1_h63_1_8" points="488,90 498,90 503,85 498,80 488,80 488,90 " class="clusterblast-orf"  />
<polygon style="stroke:black; stroke-width:1; fill:rgb(190,63,190); " description="cytochrome_P450[br]Location: 26349 - 27980&lt;br&gt;&lt;br&gt;&lt;b&gt;BlastP hit with CHAFR746836_0051130.1&lt;/b&gt;&lt;br&gt;Percentage identity: 45%&lt;br&gt;Percentage coverage: 101%&lt;br&gt;BLAST bit score: 424&lt;br&gt;E-value: 2e-141" locus_tag="GLRG_09839" id="clusterblast-1_h63_1_9" points="509,90 518,90 523,85 518,80 509,80 509,90 " class="clusterblast-orf"  />
<polygon style="stroke:black; stroke-width:1; fill:#FFFFFF; " description="hypothetical_protein[br]Location: 24873 - 25371" locus_tag="GLRG_09838" id="clusterblast-1_h63_1_10" points="531,85 535,80 535,90 531,85 " class="clusterblast-orf"  />
<polygon style="stroke:black; stroke-width:1; fill:#FFFFFF; " description="hypothetical_protein[br]Location: 19463 - 21389" locus_tag="GLRG_09837" id="clusterblast-1_h63_1_11" points="565,90 577,90 582,85 577,80 565,80 565,90 " class="clusterblast-orf"  />
<polygon style="stroke:black; stroke-width:1; fill:#FFFFFF; " description="hypothetical_protein[br]Location: 17362 - 18708" locus_tag="GLRG_09836" id="clusterblast-1_h63_1_12" points="588,90 594,90 599,85 594,80 588,80 588,90 " class="clusterblast-orf"  />
<polygon style="stroke:black; stroke-width:1; fill:#FFFFFF; " description="hypothetical_protein[br]Location: 16505 - 17081" locus_tag="GLRG_09835" id="clusterblast-1_h63_1_13" points="602,85 607,80 607,80 607,90 607,90 602,85 " class="clusterblast-orf"  />
<polygon style="stroke:black; stroke-width:1; fill:#FFFFFF; " description="cytochrome_P450[br]Location: 14027 - 15949" locus_tag="GLRG_09834" id="clusterblast-1_h63_1_14" points="611,85 616,80 628,80 628,90 616,90 611,85 " class="clusterblast-orf"  />
</g>
</svg>
