<svg xmlns="http://www.w3.org/2000/svg" height="230" width="800" version="1.1" y="0" x="0" preserveAspectRatio="none" xmlns:xlink="http://www.w3.org/1999/xlink" viewBox="0 0 800 230"  >
<g class="clusterblast-cluster" label="Query sequence"  >
<text class="clusterblast-acc" y="10" x="5"  >
Query sequence</text>
<line y1="35" x2="778.0" style="stroke:grey; stroke-width:1; " x1="10" y2="35"  />
<polygon style="stroke:black; stroke-width:1; fill:#FFFFFF; " description="unannotated orf[br]Location: 7918 - 9403" locus_tag="CHAFR746836_0043710.1" class="clusterblast-orf" points="141,40 159,40 164,35 159,30 141,30 141,40 " id="clusterblast-1_q54_2_0"  />
<polygon style="stroke:black; stroke-width:1; fill:rgb(169,42,42); " description="unannotated orf[br]Location: 10656 - 11541" locus_tag="CHAFR746836_0043720.1" class="clusterblast-orf" points="183,35 188,30 197,30 197,40 188,40 183,35 " id="clusterblast-1_q54_2_1"  />
<polygon style="stroke:black; stroke-width:1; fill:rgb(42,169,42); " description="unannotated orf[br]Location: 13140 - 14726" locus_tag="CHAFR746836_0043730.1" class="clusterblast-orf" points="222,40 241,40 246,35 241,30 222,30 222,40 " id="clusterblast-1_q54_2_2"  />
<polygon style="stroke:black; stroke-width:1; fill:#FFFFFF; " description="unannotated orf[br]Location: 14976 - 15545" locus_tag="CHAFR746836_0043740.1" class="clusterblast-orf" points="250,35 255,30 259,30 259,40 255,40 250,35 " id="clusterblast-1_q54_2_3"  />
<polygon style="stroke:black; stroke-width:1; fill:rgb(42,169,212); " description="unannotated orf[br]Location: 16433 - 17294" locus_tag="CHAFR746836_0043750.1" class="clusterblast-orf" points="273,40 281,40 286,35 281,30 273,30 273,40 " id="clusterblast-1_q54_2_4"  />
<polygon style="stroke:black; stroke-width:1; fill:rgb(169,169,42); " description="unannotated orf[br]Location: 17728 - 18694" locus_tag="CHAFR746836_0043760.1" class="clusterblast-orf" points="293,40 303,40 308,35 303,30 293,30 293,40 " id="clusterblast-1_q54_2_5"  />
<polygon style="stroke:black; stroke-width:1; fill:#FFFFFF; " description="unannotated orf[br]Location: 19149 - 19718" locus_tag="CHAFR746836_0043770.1" class="clusterblast-orf" points="315,35 320,30 324,30 324,40 320,40 315,35 " id="clusterblast-1_q54_2_6"  />
<polygon style="stroke:black; stroke-width:1; fill:rgb(169,42,127); " description="unannotated orf[br]Location: 20132 - 21930" locus_tag="CHAFR746836_0043780.1" class="clusterblast-orf" points="330,40 353,40 358,35 353,30 330,30 330,40 " id="clusterblast-1_q54_2_7"  />
<polygon style="stroke:black; stroke-width:1; fill:#FFFFFF; " description="unannotated orf[br]Location: 22653 - 24219" locus_tag="CHAFR746836_0043790.1" class="clusterblast-orf" points="369,35 374,30 393,30 393,40 374,40 369,35 " id="clusterblast-1_q54_2_8"  />
<polygon style="stroke:black; stroke-width:1; fill:rgb(42,42,212); " description="unannotated orf[br]Location: 25134 - 26929" locus_tag="CHAFR746836_0043800.1" class="clusterblast-orf" points="408,40 430,40 435,35 430,30 408,30 408,40 " id="clusterblast-1_q54_2_9"  />
<polygon style="stroke:black; stroke-width:1; fill:rgb(169,169,212); " description="unannotated orf[br]Location: 28053 - 29459" locus_tag="CHAFR746836_0043810.1" class="clusterblast-orf" points="453,40 470,40 475,35 470,30 453,30 453,40 " id="clusterblast-1_q54_2_10"  />
<polygon style="stroke:black; stroke-width:1; fill:#FFFFFF; " description="unannotated orf[br]Location: 30463 - 31516" locus_tag="CHAFR746836_0043820.1" class="clusterblast-orf" points="490,35 495,30 507,30 507,40 495,40 490,35 " id="clusterblast-1_q54_2_11"  />
<polygon style="stroke:black; stroke-width:1; fill:rgb(42,169,127); " description="unannotated orf[br]Location: 32618 - 34109" locus_tag="CHAFR746836_0043830.1" class="clusterblast-orf" points="524,35 529,30 547,30 547,40 529,40 524,35 " id="clusterblast-1_q54_2_12"  />
<polygon style="stroke:black; stroke-width:1; fill:rgb(169,42,212); " description="unannotated orf[br]Location: 37073 - 38965" locus_tag="CHAFR746836_0043840.1" class="clusterblast-orf" points="593,35 598,30 622,30 622,40 598,40 593,35 " id="clusterblast-1_q54_2_13"  />
<polygon style="stroke:black; stroke-width:1; fill:#FFFFFF; " description="unannotated orf[br]Location: 39447 - 40529" locus_tag="CHAFR746836_0043850.1" class="clusterblast-orf" points="630,40 641,40 646,35 641,30 630,30 630,40 " id="clusterblast-1_q54_2_14"  />
</g>
<g class="clusterblast-cluster" description="Grosmannia clavigera kw1407 unplaced genomic scaffold GCSC 1..." label="GL629769.1_c1"  >
<text class="clusterblast-acc" y="60" x="5"  >
GL629769.1_c1</text>
<text class="clusterblast-desc" y="60" x="460.8"  >
Grosmannia clavigera kw1407 unplaced genomic scaffold GCSC 1...</text>
<line y1="85" x2="778.0" style="stroke:grey; stroke-width:1; " x1="10" y2="85"  />
<polygon style="stroke:black; stroke-width:1; fill:#FFFFFF; " description="GPI_anchored_cell_wall_protein[br]Location: 767815 - 768444" locus_tag="CMQ_3243" id="clusterblast-1_h54_2_0" points="10,90 14,90 19,85 14,80 10,80 10,90 " class="clusterblast-orf"  />
<polygon style="stroke:black; stroke-width:1; fill:#FFFFFF; " description="major_facilitator_superfamily_transporter_toxin[br]Location: 763038 - 767468" locus_tag="CMQ_2880" id="clusterblast-1_h54_2_1" points="25,85 30,80 93,80 93,90 30,90 25,85 " class="clusterblast-orf"  />
<polygon style="stroke:black; stroke-width:1; fill:#FFFFFF; " description="hypothetical_protein[br]Location: 760802 - 761602" locus_tag="CMQ_3195" id="clusterblast-1_h54_2_2" points="116,90 123,90 128,85 123,80 116,80 116,90 " class="clusterblast-orf"  />
<polygon style="stroke:black; stroke-width:1; fill:#FFFFFF; " description="hypothetical_protein[br]Location: 760227 - 760640" locus_tag="CMQ_3067" id="clusterblast-1_h54_2_3" points="131,90 132,90 137,85 132,80 131,80 131,90 " class="clusterblast-orf"  />
<polygon style="stroke:black; stroke-width:1; fill:#FFFFFF; " description="benzoate_4-monooxygenase_cytochrome_p450[br]Location: 757710 - 759607" locus_tag="CMQ_2972" id="clusterblast-1_h54_2_4" points="147,90 171,90 176,85 171,80 147,80 147,90 " class="clusterblast-orf"  />
<polygon style="stroke:black; stroke-width:1; fill:#FFFFFF; " description="hypothetical_protein[br]Location: 751323 - 753631" locus_tag="CMQ_2704" id="clusterblast-1_h54_2_5" points="239,90 270,90 275,85 270,80 239,80 239,90 " class="clusterblast-orf"  />
<polygon style="stroke:black; stroke-width:1; fill:rgb(169,42,42); " description="short_chain_dehydrogenase_reductase[br]Location: 749994 - 750954&lt;br&gt;&lt;br&gt;&lt;b&gt;BlastP hit with CHAFR746836_0043720.1&lt;/b&gt;&lt;br&gt;Percentage identity: 46%&lt;br&gt;Percentage coverage: 101%&lt;br&gt;BLAST bit score: 226&lt;br&gt;E-value: 1e-71" locus_tag="CMQ_2798" id="clusterblast-1_h54_2_6" points="281,85 286,80 296,80 296,90 286,90 281,85 " class="clusterblast-orf"  />
<polygon style="stroke:black; stroke-width:1; fill:#FFFFFF; " description="umta_methyltransferase_family_protein[br]Location: 748130 - 748989" locus_tag="CMQ_2779" id="clusterblast-1_h54_2_7" points="311,90 320,90 325,85 320,80 311,80 311,90 " class="clusterblast-orf"  />
<polygon style="stroke:black; stroke-width:1; fill:#FFFFFF; " description="polyketide_synthase[br]Location: 739551 - 747824" locus_tag="CMQ_2687" id="clusterblast-1_h54_2_8" points="329,85 334,80 458,80 458,90 334,90 329,85 " class="clusterblast-orf"  />
<polygon style="stroke:black; stroke-width:1; fill:#FFFFFF; " description="O-methyltransferase[br]Location: 737854 - 739187" locus_tag="CMQ_2816" id="clusterblast-1_h54_2_9" points="463,90 479,90 484,85 479,80 463,80 463,90 " class="clusterblast-orf"  />
<polygon style="stroke:black; stroke-width:1; fill:#FFFFFF; " description="short_chain_dehydrogenase_reductase[br]Location: 736548 - 737421" locus_tag="CMQ_2521" id="clusterblast-1_h54_2_10" points="491,90 499,90 504,85 499,80 491,80 491,90 " class="clusterblast-orf"  />
<polygon style="stroke:black; stroke-width:1; fill:rgb(169,42,127); " description="cytochrome_p450_monooxygenase[br]Location: 734604 - 736410&lt;br&gt;&lt;br&gt;&lt;b&gt;BlastP hit with CHAFR746836_0043780.1&lt;/b&gt;&lt;br&gt;Percentage identity: 37%&lt;br&gt;Percentage coverage: 100%&lt;br&gt;BLAST bit score: 404&lt;br&gt;E-value: 8e-132" locus_tag="CMQ_2872" id="clusterblast-1_h54_2_11" points="507,85 512,80 535,80 535,90 512,90 507,85 " class="clusterblast-orf"  />
<polygon style="stroke:black; stroke-width:1; fill:rgb(42,169,42); " description="FAD-binding_domain_containing_protein[br]Location: 732323 - 733698&lt;br&gt;&lt;br&gt;&lt;b&gt;BlastP hit with CHAFR746836_0043730.1&lt;/b&gt;&lt;br&gt;Percentage identity: 53%&lt;br&gt;Percentage coverage: 94%&lt;br&gt;BLAST bit score: 416&lt;br&gt;E-value: 1e-140" locus_tag="CMQ_2636" id="clusterblast-1_h54_2_12" points="549,90 565,90 570,85 565,80 549,80 549,90 " class="clusterblast-orf"  />
<polygon style="stroke:black; stroke-width:1; fill:#FFFFFF; " description="hypothetical_protein[br]Location: 729084 - 731057" locus_tag="CMQ_2562" id="clusterblast-1_h54_2_13" points="590,90 615,90 620,85 615,80 590,80 590,90 " class="clusterblast-orf"  />
<polygon style="stroke:black; stroke-width:1; fill:#FFFFFF; " description="tpr_domain_containing_protein[br]Location: 726509 - 728830" locus_tag="CMQ_2596" id="clusterblast-1_h54_2_14" points="624,85 629,80 660,80 660,90 629,90 624,85 " class="clusterblast-orf"  />
<polygon style="stroke:black; stroke-width:1; fill:#FFFFFF; " description="hypothetical_protein[br]Location: 725168 - 726184" locus_tag="CMQ_2830" id="clusterblast-1_h54_2_15" points="665,90 676,90 681,85 676,80 665,80 665,90 " class="clusterblast-orf"  />
<polygon style="stroke:black; stroke-width:1; fill:#FFFFFF; " description="serum_paraoxonase_arylesterase_family_protein[br]Location: 723341 - 724748" locus_tag="CMQ_2889" id="clusterblast-1_h54_2_16" points="687,90 704,90 709,85 704,80 687,80 687,90 " class="clusterblast-orf"  />
<polygon style="stroke:black; stroke-width:1; fill:#FFFFFF; " description="cytochrome_p450_monooxygenase[br]Location: 721052 - 722991" locus_tag="CMQ_2658" id="clusterblast-1_h54_2_17" points="715,85 720,80 745,80 745,90 720,90 715,85 " class="clusterblast-orf"  />
<polygon style="stroke:black; stroke-width:1; fill:#FFFFFF; " description="hypothetical_protein[br]Location: 720173 - 720751" locus_tag="CMQ_3157" id="clusterblast-1_h54_2_18" points="749,85 754,80 758,80 758,90 754,90 749,85 " class="clusterblast-orf"  />
<polygon style="stroke:black; stroke-width:1; fill:#FFFFFF; " description="hypothetical_protein[br]Location: 718945 - 719848" locus_tag="CMQ_3244" id="clusterblast-1_h54_2_19" points="763,85 768,80 778,80 778,90 768,90 763,85 " class="clusterblast-orf"  />
</g>
</svg>
