<svg xmlns="http://www.w3.org/2000/svg" height="230" width="800" version="1.1" y="0" x="0" preserveAspectRatio="none" xmlns:xlink="http://www.w3.org/1999/xlink" viewBox="0 0 800 230"  >
<g class="clusterblast-cluster" label="Query sequence"  >
<text class="clusterblast-acc" y="10" x="5"  >
Query sequence</text>
<line y1="35" x2="778.0" style="stroke:grey; stroke-width:1; " x1="10" y2="35"  />
<polygon style="stroke:black; stroke-width:1; fill:rgb(190,63,63); " description="unannotated orf[br]Location: 74290 - 75458" locus_tag="CHAFR746836_0084510.1" class="clusterblast-orf" points="257,40 271,40 276,35 271,30 257,30 257,40 " id="clusterblast-1_q15_5_0"  />
<polygon style="stroke:black; stroke-width:1; fill:#FFFFFF; " description="unannotated orf[br]Location: 75669 - 76875" locus_tag="CHAFR746836_0084520.1" class="clusterblast-orf" points="279,35 284,30 299,30 299,40 284,40 279,35 " id="clusterblast-1_q15_5_1"  />
<polygon style="stroke:black; stroke-width:1; fill:rgb(63,63,190); " description="unannotated orf[br]Location: 78561 - 80604" locus_tag="CHAFR746836_0084530.1" class="clusterblast-orf" points="327,35 332,30 361,30 361,40 332,40 327,35 " id="clusterblast-1_q15_5_2"  />
<polygon style="stroke:black; stroke-width:1; fill:rgb(63,190,63); " description="unannotated orf[br]Location: 81404 - 83288" locus_tag="CHAFR746836_0084540.1" class="clusterblast-orf" points="374,40 401,40 406,35 401,30 374,30 374,40 " id="clusterblast-1_q15_5_3"  />
<polygon style="stroke:black; stroke-width:1; fill:rgb(190,63,190); " description="unannotated orf[br]Location: 83676 - 85677" locus_tag="CHAFR746836_0084550.1" class="clusterblast-orf" points="412,40 440,40 445,35 440,30 412,30 412,40 " id="clusterblast-1_q15_5_4"  />
<polygon style="stroke:black; stroke-width:1; fill:rgb(190,190,63); " description="unannotated orf[br]Location: 86720 - 88095" locus_tag="CHAFR746836_0084560.1" class="clusterblast-orf" points="463,40 480,40 485,35 480,30 463,30 463,40 " id="clusterblast-1_q15_5_5"  />
<polygon style="stroke:black; stroke-width:1; fill:#FFFFFF; " description="unannotated orf[br]Location: 88452 - 90694" locus_tag="CHAFR746836_0084570.1" class="clusterblast-orf" points="491,35 496,30 529,30 529,40 496,40 491,35 " id="clusterblast-1_q15_5_6"  />
</g>
<g class="clusterblast-cluster" description="Stereum hirsutum FP-91666 SS1 unplaced genomic scaffold STEH..." label="JH687387.1_c1"  >
<text class="clusterblast-acc" y="60" x="5"  >
JH687387.1_c1</text>
<text class="clusterblast-desc" y="60" x="460.8"  >
Stereum hirsutum FP-91666 SS1 unplaced genomic scaffold STEH...</text>
<line y1="85" x2="778.0" style="stroke:grey; stroke-width:1; " x1="10" y2="85"  />
<polygon style="stroke:black; stroke-width:1; fill:#FFFFFF; " description="hypothetical_protein[br]Location: 1649401 - 1653699" locus_tag="STEHIDRAFT_148000" id="clusterblast-1_h15_5_0" points="10,85 15,80 81,80 81,90 15,90 10,85 " class="clusterblast-orf"  />
<polygon style="stroke:black; stroke-width:1; fill:#FFFFFF; " description="glycoside_hydrolase/deacetylase[br]Location: 1647589 - 1649206" locus_tag="STEHIDRAFT_132204" id="clusterblast-1_h15_5_1" points="84,90 106,90 111,85 106,80 84,80 84,90 " class="clusterblast-orf"  />
<polygon style="stroke:black; stroke-width:1; fill:#FFFFFF; " description="amino_acid_transporter[br]Location: 1645183 - 1647434" locus_tag="STEHIDRAFT_59884" id="clusterblast-1_h15_5_2" points="113,85 118,80 151,80 151,90 118,90 113,85 " class="clusterblast-orf"  />
<polygon style="stroke:black; stroke-width:1; fill:#FFFFFF; " description="hypothetical_protein[br]Location: 1641507 - 1642105" locus_tag="STEHIDRAFT_30295" id="clusterblast-1_h15_5_3" points="202,85 207,80 212,80 212,90 207,90 202,85 " class="clusterblast-orf"  />
<polygon style="stroke:black; stroke-width:1; fill:#FFFFFF; " description="G10_protein[br]Location: 1640531 - 1641205" locus_tag="STEHIDRAFT_99357" id="clusterblast-1_h15_5_4" points="217,90 223,90 228,85 223,80 217,80 217,90 " class="clusterblast-orf"  />
<polygon style="stroke:black; stroke-width:1; fill:#FFFFFF; " description="cation/H+_exchanger[br]Location: 1636489 - 1639934" locus_tag="STEHIDRAFT_147996" id="clusterblast-1_h15_5_5" points="238,90 290,90 295,85 290,80 238,80 238,90 " class="clusterblast-orf"  />
<polygon style="stroke:black; stroke-width:1; fill:rgb(63,63,190); " description="carotenoid_oxygenase[br]Location: 1633939 - 1636129&lt;br&gt;&lt;br&gt;&lt;b&gt;BlastP hit with CHAFR746836_0084530.1&lt;/b&gt;&lt;br&gt;Percentage identity: 46%&lt;br&gt;Percentage coverage: 104%&lt;br&gt;BLAST bit score: 548&lt;br&gt;E-value: 0.0" locus_tag="STEHIDRAFT_59928" id="clusterblast-1_h15_5_6" points="301,85 306,80 337,80 337,90 306,90 301,85 " class="clusterblast-orf"  />
<polygon style="stroke:black; stroke-width:1; fill:rgb(63,190,63); " description="terpenoid_synthase[br]Location: 1628306 - 1630712&lt;br&gt;&lt;br&gt;&lt;b&gt;BlastP hit with CHAFR746836_0084540.1&lt;/b&gt;&lt;br&gt;Percentage identity: 43%&lt;br&gt;Percentage coverage: 100%&lt;br&gt;BLAST bit score: 442&lt;br&gt;E-value: 1e-145" locus_tag="STEHIDRAFT_99351" id="clusterblast-1_h15_5_7" points="391,85 396,80 431,80 431,90 396,90 391,85 " class="clusterblast-orf"  />
<polygon style="stroke:black; stroke-width:1; fill:rgb(190,63,190); " description="phytoene_desaturase[br]Location: 1625477 - 1627757&lt;br&gt;&lt;br&gt;&lt;b&gt;BlastP hit with CHAFR746836_0084550.1&lt;/b&gt;&lt;br&gt;Percentage identity: 57%&lt;br&gt;Percentage coverage: 96%&lt;br&gt;BLAST bit score: 652&lt;br&gt;E-value: 0.0" locus_tag="STEHIDRAFT_99350" id="clusterblast-1_h15_5_8" points="440,90 473,90 478,85 473,80 440,80 440,90 " class="clusterblast-orf"  />
<polygon style="stroke:black; stroke-width:1; fill:#FFFFFF; " description="hypothetical_protein[br]Location: 1623700 - 1625300" locus_tag="STEHIDRAFT_112190" id="clusterblast-1_h15_5_9" points="480,85 485,80 507,80 507,90 485,90 480,85 " class="clusterblast-orf"  />
<polygon style="stroke:black; stroke-width:1; fill:#FFFFFF; " description="hypothetical_protein[br]Location: 1620853 - 1623157" locus_tag="STEHIDRAFT_122608" id="clusterblast-1_h15_5_10" points="516,90 549,90 554,85 549,80 516,80 516,90 " class="clusterblast-orf"  />
<polygon style="stroke:black; stroke-width:1; fill:#FFFFFF; " description="glycoside_hydrolase/deacetylase[br]Location: 1618720 - 1620286" locus_tag="STEHIDRAFT_122606" id="clusterblast-1_h15_5_11" points="564,85 569,80 590,80 590,90 569,90 564,85 " class="clusterblast-orf"  />
<polygon style="stroke:black; stroke-width:1; fill:#FFFFFF; " description="Clavaminate_synthase-like_protein[br]Location: 1615873 - 1617499" locus_tag="STEHIDRAFT_99342" id="clusterblast-1_h15_5_12" points="610,90 632,90 637,85 632,80 610,80 610,90 " class="clusterblast-orf"  />
<polygon style="stroke:black; stroke-width:1; fill:#FFFFFF; " description="glycoside_hydrolase/deacetylase[br]Location: 1613547 - 1615267" locus_tag="STEHIDRAFT_169535" id="clusterblast-1_h15_5_13" points="647,85 652,80 675,80 675,90 652,90 647,85 " class="clusterblast-orf"  />
<polygon style="stroke:black; stroke-width:1; fill:#FFFFFF; " description="glycoside_hydrolase/deacetylase[br]Location: 1610357 - 1612218" locus_tag="STEHIDRAFT_99341" id="clusterblast-1_h15_5_14" points="697,85 702,80 728,80 728,90 702,90 697,85 " class="clusterblast-orf"  />
<polygon style="stroke:black; stroke-width:1; fill:#FFFFFF; " description="MFS_general_substrate_transporter[br]Location: 1607392 - 1609496" locus_tag="STEHIDRAFT_147989" id="clusterblast-1_h15_5_15" points="743,85 748,80 778,80 778,90 748,90 743,85 " class="clusterblast-orf"  />
</g>
</svg>
