<svg xmlns="http://www.w3.org/2000/svg" height="230" width="800" version="1.1" y="0" x="0" preserveAspectRatio="none" xmlns:xlink="http://www.w3.org/1999/xlink" viewBox="0 0 800 230"  >
<g class="clusterblast-cluster" label="Query sequence"  >
<text class="clusterblast-acc" y="10" x="5"  >
Query sequence</text>
<line y1="35" x2="778.0" style="stroke:grey; stroke-width:1; " x1="10" y2="35"  />
<polygon style="stroke:black; stroke-width:1; fill:#FFFFFF; " description="unannotated orf[br]Location: 1502 - 2717" locus_tag="CHAFR746836_0018730.1" class="clusterblast-orf" points="156,40 171,40 176,35 171,30 156,30 156,40 " id="clusterblast-1_q38_2_0"  />
<polygon style="stroke:black; stroke-width:1; fill:#FFFFFF; " description="unannotated orf[br]Location: 5434 - 6658" locus_tag="CHAFR746836_0018740.1" class="clusterblast-orf" points="221,40 236,40 241,35 236,30 221,30 221,40 " id="clusterblast-1_q38_2_1"  />
<polygon style="stroke:black; stroke-width:1; fill:rgb(190,63,63); " description="unannotated orf[br]Location: 8194 - 15527" locus_tag="CHAFR746836_0018750.1" class="clusterblast-orf" points="266,35 271,30 388,30 388,40 271,40 266,35 " id="clusterblast-1_q38_2_2"  />
<polygon style="stroke:black; stroke-width:1; fill:rgb(63,63,190); " description="unannotated orf[br]Location: 16107 - 17386" locus_tag="CHAFR746836_0018760.1" class="clusterblast-orf" points="397,40 413,40 418,35 413,30 397,30 397,40 " id="clusterblast-1_q38_2_3"  />
<polygon style="stroke:black; stroke-width:1; fill:rgb(63,190,63); " description="unannotated orf[br]Location: 18113 - 19107" locus_tag="CHAFR746836_0018770.1" class="clusterblast-orf" points="430,40 442,40 447,35 442,30 430,30 430,40 " id="clusterblast-1_q38_2_4"  />
<polygon style="stroke:black; stroke-width:1; fill:#FFFFFF; " description="unannotated orf[br]Location: 21941 - 23810" locus_tag="CHAFR746836_0018780.1" class="clusterblast-orf" points="494,40 520,40 525,35 520,30 494,30 494,40 " id="clusterblast-1_q38_2_5"  />
<polygon style="stroke:black; stroke-width:1; fill:rgb(190,63,190); " description="unannotated orf[br]Location: 25428 - 26120" locus_tag="CHAFR746836_0018790.1" class="clusterblast-orf" points="551,40 558,40 563,35 558,30 551,30 551,40 " id="clusterblast-1_q38_2_6"  />
<polygon style="stroke:black; stroke-width:1; fill:rgb(190,190,63); " description="unannotated orf[br]Location: 28320 - 30189" locus_tag="CHAFR746836_0018800.1" class="clusterblast-orf" points="599,35 604,30 630,30 630,40 604,40 599,35 " id="clusterblast-1_q38_2_7"  />
</g>
<g class="clusterblast-cluster" description="Trichoderma reesei QM6a unplaced genomic scaffold TRIREscaff..." label="GL985070.1_c2"  >
<text class="clusterblast-acc" y="60" x="5"  >
GL985070.1_c2</text>
<text class="clusterblast-desc" y="60" x="460.8"  >
Trichoderma reesei QM6a unplaced genomic scaffold TRIREscaff...</text>
<line y1="85" x2="778.0" style="stroke:grey; stroke-width:1; " x1="10" y2="85"  />
<polygon style="stroke:black; stroke-width:1; fill:#FFFFFF; " description="predicted_protein[br]Location: 552637 - 554943" locus_tag="TRIREDRAFT_109345" id="clusterblast-1_h38_2_0" points="10,90 43,90 48,85 43,80 10,80 10,90 " class="clusterblast-orf"  />
<polygon style="stroke:black; stroke-width:1; fill:#FFFFFF; " description="predicted_protein[br]Location: 560790 - 561288" locus_tag="TRIREDRAFT_109346" id="clusterblast-1_h38_2_1" points="144,90 148,90 153,85 148,80 144,80 144,90 " class="clusterblast-orf"  />
<polygon style="stroke:black; stroke-width:1; fill:rgb(190,63,63); " description="polyketide_synthase[br]Location: 571323 - 578930&lt;br&gt;&lt;br&gt;&lt;b&gt;BlastP hit with CHAFR746836_0018750.1&lt;/b&gt;&lt;br&gt;Percentage identity: 44%&lt;br&gt;Percentage coverage: 102%&lt;br&gt;BLAST bit score: 1912&lt;br&gt;E-value: 0.0" locus_tag="TRIREDRAFT_65116" id="clusterblast-1_h38_2_2" points="319,85 324,80 445,80 445,90 324,90 319,85 " class="clusterblast-orf"  />
<polygon style="stroke:black; stroke-width:1; fill:rgb(63,190,63); " description="predicted_protein[br]Location: 580526 - 582693&lt;br&gt;&lt;br&gt;&lt;b&gt;BlastP hit with CHAFR746836_0018770.1&lt;/b&gt;&lt;br&gt;Percentage identity: 49%&lt;br&gt;Percentage coverage: 94%&lt;br&gt;BLAST bit score: 238&lt;br&gt;E-value: 8e-74&lt;br&gt;&lt;br&gt;&lt;b&gt;BlastP hit with CHAFR746836_0018790.1&lt;/b&gt;&lt;br&gt;Percentage identity: 50%&lt;br&gt;Percentage coverage: 86%&lt;br&gt;BLAST bit score: 173&lt;br&gt;E-value: 4e-50" locus_tag="TRIREDRAFT_65095" id="clusterblast-1_h38_2_3" points="471,90 502,90 507,85 502,80 471,80 471,90 " class="clusterblast-orf"  />
<polygon style="stroke:black; stroke-width:1; fill:rgb(63,63,190); " description="hypothetical_protein[br]Location: 583198 - 584600&lt;br&gt;&lt;br&gt;&lt;b&gt;BlastP hit with CHAFR746836_0018760.1&lt;/b&gt;&lt;br&gt;Percentage identity: 54%&lt;br&gt;Percentage coverage: 99%&lt;br&gt;BLAST bit score: 312&lt;br&gt;E-value: 3e-104" locus_tag="TRIREDRAFT_109349" id="clusterblast-1_h38_2_4" points="515,85 520,80 538,80 538,90 520,90 515,85 " class="clusterblast-orf"  />
<polygon style="stroke:black; stroke-width:1; fill:#FFFFFF; " description="predicted_protein[br]Location: 585508 - 587482" locus_tag="TRIREDRAFT_65040" id="clusterblast-1_h38_2_5" points="554,90 581,90 586,85 581,80 554,80 554,90 " class="clusterblast-orf"  />
<polygon style="stroke:black; stroke-width:1; fill:#FFFFFF; " description="predicted_protein[br]Location: 587791 - 589642" locus_tag="TRIREDRAFT_109351" id="clusterblast-1_h38_2_6" points="591,85 596,80 622,80 622,90 596,90 591,85 " class="clusterblast-orf"  />
<polygon style="stroke:black; stroke-width:1; fill:#FFFFFF; " description="predicted_protein[br]Location: 591090 - 592127" locus_tag="TRIREDRAFT_40808" id="clusterblast-1_h38_2_7" points="646,90 658,90 663,85 658,80 646,80 646,90 " class="clusterblast-orf"  />
<polygon style="stroke:black; stroke-width:1; fill:#FFFFFF; " description="predicted_protein[br]Location: 592295 - 593169" locus_tag="TRIREDRAFT_109353" id="clusterblast-1_h38_2_8" points="666,85 671,80 680,80 680,90 671,90 666,85 " class="clusterblast-orf"  />
<polygon style="stroke:black; stroke-width:1; fill:#FFFFFF; " description="Hypothetical_protein[br]Location: 594205 - 595990" locus_tag="TRIREDRAFT_65098" id="clusterblast-1_h38_2_9" points="697,90 722,90 727,85 722,80 697,80 697,90 " class="clusterblast-orf"  />
<polygon style="stroke:black; stroke-width:1; fill:#FFFFFF; " description="hypothetical_protein[br]Location: 596828 - 599043" locus_tag="TRIREDRAFT_22804" id="clusterblast-1_h38_2_10" points="741,90 773,90 778,85 773,80 741,80 741,90 " class="clusterblast-orf"  />
</g>
</svg>
