<svg xmlns="http://www.w3.org/2000/svg" height="230" width="800" version="1.1" y="0" x="0" preserveAspectRatio="none" xmlns:xlink="http://www.w3.org/1999/xlink" viewBox="0 0 800 230"  >
<g class="clusterblast-cluster" label="Query sequence"  >
<text class="clusterblast-acc" y="10" x="5"  >
Query sequence</text>
<line y1="35" x2="778.0" style="stroke:grey; stroke-width:1; " x1="10" y2="35"  />
<polygon style="stroke:black; stroke-width:1; fill:#FFFFFF; " description="unannotated orf[br]Location: 4665 - 6373" locus_tag="CHAFR746836_0090420.1" class="clusterblast-orf" points="96,35 101,30 107,30 107,40 101,40 96,35 " id="clusterblast-1_q23_6_0"  />
<polygon style="stroke:black; stroke-width:1; fill:rgb(190,63,63); " description="unannotated orf[br]Location: 13107 - 14013" locus_tag="CHAFR746836_0090430.1" class="clusterblast-orf" points="154,35 159,30 160,30 160,40 159,40 154,35 " id="clusterblast-1_q23_6_1"  />
<polygon style="stroke:black; stroke-width:1; fill:rgb(63,63,190); " description="unannotated orf[br]Location: 15082 - 18583" locus_tag="CHAFR746836_0090440.1" class="clusterblast-orf" points="168,35 173,30 192,30 192,40 173,40 168,35 " id="clusterblast-1_q23_6_2"  />
<polygon style="stroke:black; stroke-width:1; fill:rgb(63,190,63); " description="unannotated orf[br]Location: 62601 - 69132" locus_tag="CHAFR746836_0090450.1" class="clusterblast-orf" points="498,35 503,30 543,30 543,40 503,40 498,35 " id="clusterblast-1_q23_6_3"  />
<polygon style="stroke:black; stroke-width:1; fill:rgb(190,63,190); " description="unannotated orf[br]Location: 70531 - 72251" locus_tag="CHAFR746836_0090460.1" class="clusterblast-orf" points="553,40 560,40 565,35 560,30 553,30 553,40 " id="clusterblast-1_q23_6_4"  />
<polygon style="stroke:black; stroke-width:1; fill:#FFFFFF; " description="unannotated orf[br]Location: 75015 - 76460" locus_tag="CHAFR746836_0090470.1" class="clusterblast-orf" points="584,35 589,30 594,30 594,40 589,40 584,35 " id="clusterblast-1_q23_6_5"  />
<polygon style="stroke:black; stroke-width:1; fill:rgb(190,190,63); " description="unannotated orf[br]Location: 79984 - 80954" locus_tag="CHAFR746836_0090480.1" class="clusterblast-orf" points="618,35 623,30 625,30 625,40 623,40 618,35 " id="clusterblast-1_q23_6_6"  />
<polygon style="stroke:black; stroke-width:1; fill:rgb(190,190,190); " description="unannotated orf[br]Location: 81993 - 83038" locus_tag="CHAFR746836_0090490.1" class="clusterblast-orf" points="632,40 635,40 640,35 635,30 632,30 632,40 " id="clusterblast-1_q23_6_7"  />
<polygon style="stroke:black; stroke-width:1; fill:#FFFFFF; " description="unannotated orf[br]Location: 86529 - 87580" locus_tag="CHAFR746836_0090500.1" class="clusterblast-orf" points="664,35 669,30 671,30 671,40 669,40 664,35 " id="clusterblast-1_q23_6_8"  />
<polygon style="stroke:black; stroke-width:1; fill:#FFFFFF; " description="unannotated orf[br]Location: 88454 - 90258" locus_tag="CHAFR746836_0090510.1" class="clusterblast-orf" points="677,40 685,40 690,35 685,30 677,30 677,40 " id="clusterblast-1_q23_6_9"  />
</g>
<g class="clusterblast-cluster" description="Frankia sp. EuI1c chromosome, complete genome." label="NC_014666.1_c13"  >
<text class="clusterblast-acc" y="60" x="5"  >
NC_014666.1_c13</text>
<text class="clusterblast-desc" y="60" x="460.8"  >
Frankia sp. EuI1c chromosome, complete genome.</text>
<line y1="85" x2="778.0" style="stroke:grey; stroke-width:1; " x1="10" y2="85"  />
<polygon style="stroke:black; stroke-width:1; fill:#FFFFFF; " description="Rieske_(2Fe-2S)_iron-sulfur_domain_protein[br]Location: 5230955 - 5231950" locus_tag="FraEuI1c_4270" id="clusterblast-1_h23_6_0" points="10,85 15,80 16,80 16,90 15,90 10,85 " class="clusterblast-orf"  />
<polygon style="stroke:black; stroke-width:1; fill:#FFFFFF; " description="acyl-CoA_dehydrogenase_domain-containing[br]Location: 5228403 - 5230691" locus_tag="FraEuI1c_4269" id="clusterblast-1_h23_6_1" points="18,90 29,90 34,85 29,80 18,80 18,90 " class="clusterblast-orf"  />
<polygon style="stroke:black; stroke-width:1; fill:rgb(190,190,190); " description="enoyl-CoA_hydratase/isomerase[br]Location: 5227507 - 5228268&lt;br&gt;&lt;br&gt;&lt;b&gt;BlastP hit with CHAFR746836_0090480.1&lt;/b&gt;&lt;br&gt;Percentage identity: 35%&lt;br&gt;Percentage coverage: 90%&lt;br&gt;BLAST bit score: 126&lt;br&gt;E-value: 4e-33&lt;br&gt;&lt;br&gt;&lt;b&gt;BlastP hit with CHAFR746836_0090490.1&lt;/b&gt;&lt;br&gt;Percentage identity: 34%&lt;br&gt;Percentage coverage: 91%&lt;br&gt;BLAST bit score: 134&lt;br&gt;E-value: 4e-36" locus_tag="FraEuI1c_4268" id="clusterblast-1_h23_6_2" points="35,90 35,90 40,85 35,80 35,80 35,90 " class="clusterblast-orf"  />
<polygon style="stroke:black; stroke-width:1; fill:#FFFFFF; " description="hypothetical_protein[br]Location: 5226788 - 5227147" locus_tag="FraEuI1c_4267" id="clusterblast-1_h23_6_3" points="43,90 45,85 43,80 43,90 " class="clusterblast-orf"  />
<polygon style="stroke:black; stroke-width:1; fill:#FFFFFF; " description="TetR_family_transcriptional_regulator[br]Location: 5226108 - 5226692" locus_tag="FraEuI1c_4266" id="clusterblast-1_h23_6_4" points="46,85 50,80 50,90 46,85 " class="clusterblast-orf"  />
<polygon style="stroke:black; stroke-width:1; fill:#FFFFFF; " description="hypothetical_protein[br]Location: 5225556 - 5225987" locus_tag="FraEuI1c_4265" id="clusterblast-1_h23_6_5" points="51,90 54,85 51,80 51,90 " class="clusterblast-orf"  />
<polygon style="stroke:black; stroke-width:1; fill:#FFFFFF; " description="hypothetical_protein[br]Location: 5224869 - 5225441" locus_tag="FraEuI1c_4264" id="clusterblast-1_h23_6_6" points="55,85 59,80 59,90 55,85 " class="clusterblast-orf"  />
<polygon style="stroke:black; stroke-width:1; fill:#FFFFFF; " description="LuxR_family_transcriptional_regulator[br]Location: 5221211 - 5224168" locus_tag="FraEuI1c_4263" id="clusterblast-1_h23_6_7" points="64,90 79,90 84,85 79,80 64,80 64,90 " class="clusterblast-orf"  />
<polygon style="stroke:black; stroke-width:1; fill:#FFFFFF; " description="acyl_transferase[br]Location: 5220219 - 5221148" locus_tag="FraEuI1c_4262" id="clusterblast-1_h23_6_8" points="85,85 90,80 91,80 91,90 90,90 85,85 " class="clusterblast-orf"  />
<polygon style="stroke:black; stroke-width:1; fill:#FFFFFF; " description="SARP_family_transcriptional_regulator[br]Location: 5219360 - 5220208" locus_tag="FraEuI1c_4261" id="clusterblast-1_h23_6_9" points="91,85 96,80 97,80 97,90 96,90 91,85 " class="clusterblast-orf"  />
<polygon style="stroke:black; stroke-width:1; fill:#FFFFFF; " description="oleoyl-(acyl-carrier-protein)_hydrolase[br]Location: 5218392 - 5219174" locus_tag="FraEuI1c_4260" id="clusterblast-1_h23_6_10" points="98,90 99,90 104,85 99,80 98,80 98,90 " class="clusterblast-orf"  />
<polygon style="stroke:black; stroke-width:1; fill:#FFFFFF; " description="daunorubicin_ABC_transporter_ATPase[br]Location: 5217274 - 5218230" locus_tag="FraEuI1c_4259" id="clusterblast-1_h23_6_11" points="105,90 106,90 111,85 106,80 105,80 105,90 " class="clusterblast-orf"  />
<polygon style="stroke:black; stroke-width:1; fill:#FFFFFF; " description="ABC_transporter_permease[br]Location: 5216463 - 5217224" locus_tag="FraEuI1c_4258" id="clusterblast-1_h23_6_12" points="112,90 112,90 117,85 112,80 112,80 112,90 " class="clusterblast-orf"  />
<polygon style="stroke:black; stroke-width:1; fill:#FFFFFF; " description="cytochrome_P450[br]Location: 5215127 - 5216293" locus_tag="FraEuI1c_4257" id="clusterblast-1_h23_6_13" points="118,85 123,80 126,80 126,90 123,90 118,85 " class="clusterblast-orf"  />
<polygon style="stroke:black; stroke-width:1; fill:#FFFFFF; " description="methyltransferase_type_11[br]Location: 5213974 - 5214828" locus_tag="FraEuI1c_4256" id="clusterblast-1_h23_6_14" points="128,85 133,80 134,80 134,90 133,90 128,85 " class="clusterblast-orf"  />
<polygon style="stroke:black; stroke-width:1; fill:#FFFFFF; " description="Beta-ketoacyl-acyl-carrier-protein_synthase_I[br]Location: 5212801 - 5213838" locus_tag="FraEuI1c_4255" id="clusterblast-1_h23_6_15" points="135,85 140,80 142,80 142,90 140,90 135,85 " class="clusterblast-orf"  />
<polygon style="stroke:black; stroke-width:1; fill:#FFFFFF; " description="monooxygenase_FAD-binding_protein[br]Location: 5211287 - 5212804" locus_tag="FraEuI1c_4254" id="clusterblast-1_h23_6_16" points="142,85 147,80 153,80 153,90 147,90 142,85 " class="clusterblast-orf"  />
<polygon style="stroke:black; stroke-width:1; fill:rgb(63,190,63); " description="acyl_transferase[br]Location: 5188212 - 5211251&lt;br&gt;&lt;br&gt;&lt;b&gt;BlastP hit with CHAFR746836_0090450.1&lt;/b&gt;&lt;br&gt;Percentage identity: 31%&lt;br&gt;Percentage coverage: 44%&lt;br&gt;BLAST bit score: 395&lt;br&gt;E-value: 3e-109" locus_tag="FraEuI1c_4253" id="clusterblast-1_h23_6_17" points="153,85 158,80 313,80 313,90 158,90 153,85 " class="clusterblast-orf"  />
<polygon style="stroke:black; stroke-width:1; fill:#FFFFFF; " description="Beta-ketoacyl_synthase[br]Location: 5167793 - 5188165" locus_tag="FraEuI1c_4252" id="clusterblast-1_h23_6_18" points="314,85 319,80 455,80 455,90 319,90 314,85 " class="clusterblast-orf"  />
<polygon style="stroke:black; stroke-width:1; fill:#FFFFFF; " description="hypothetical_protein[br]Location: 5166558 - 5167598" locus_tag="FraEuI1c_4251" id="clusterblast-1_h23_6_19" points="456,85 461,80 464,80 464,90 461,90 456,85 " class="clusterblast-orf"  />
<polygon style="stroke:black; stroke-width:1; fill:#FFFFFF; " description="catalytic_domain-containing_protein_of[br]Location: 5165713 - 5166561" locus_tag="FraEuI1c_4250" id="clusterblast-1_h23_6_20" points="464,85 469,80 469,80 469,90 469,90 464,85 " class="clusterblast-orf"  />
<polygon style="stroke:black; stroke-width:1; fill:#FFFFFF; " description="hypothetical_protein[br]Location: 5165456 - 5165716" locus_tag="FraEuI1c_4249" id="clusterblast-1_h23_6_21" points="469,85 471,80 471,90 469,85 " class="clusterblast-orf"  />
<polygon style="stroke:black; stroke-width:1; fill:#FFFFFF; " description="FkbH_like_protein[br]Location: 5163405 - 5165459" locus_tag="FraEuI1c_4248" id="clusterblast-1_h23_6_22" points="471,85 476,80 485,80 485,90 476,90 471,85 " class="clusterblast-orf"  />
<polygon style="stroke:black; stroke-width:1; fill:#FFFFFF; " description="acyl_transferase[br]Location: 5154398 - 5163436" locus_tag="FraEuI1c_4247" id="clusterblast-1_h23_6_23" points="485,85 490,80 548,80 548,90 490,90 485,85 " class="clusterblast-orf"  />
<polygon style="stroke:black; stroke-width:1; fill:#FFFFFF; " description="KR_domain_protein[br]Location: 5148303 - 5154395" locus_tag="FraEuI1c_4246" id="clusterblast-1_h23_6_24" points="548,85 553,80 590,80 590,90 553,90 548,85 " class="clusterblast-orf"  />
<polygon style="stroke:black; stroke-width:1; fill:rgb(63,190,63); " description="acyl_transferase[br]Location: 5142247 - 5148273&lt;br&gt;&lt;br&gt;&lt;b&gt;BlastP hit with CHAFR746836_0090450.1&lt;/b&gt;&lt;br&gt;Percentage identity: 33%&lt;br&gt;Percentage coverage: 20%&lt;br&gt;BLAST bit score: 226&lt;br&gt;E-value: 7e-58" locus_tag="FraEuI1c_4245" id="clusterblast-1_h23_6_25" points="591,85 596,80 632,80 632,90 596,90 591,85 " class="clusterblast-orf"  />
<polygon style="stroke:black; stroke-width:1; fill:#FFFFFF; " description="TetR_family_transcriptional_regulator[br]Location: 5141251 - 5141892" locus_tag="FraEuI1c_4244" id="clusterblast-1_h23_6_26" points="635,90 639,85 635,80 635,90 " class="clusterblast-orf"  />
<polygon style="stroke:black; stroke-width:1; fill:#FFFFFF; " description="hypothetical_protein[br]Location: 5140830 - 5141288" locus_tag="FraEuI1c_4243" id="clusterblast-1_h23_6_27" points="639,85 642,80 642,90 639,85 " class="clusterblast-orf"  />
<polygon style="stroke:black; stroke-width:1; fill:#FFFFFF; " description="polyketide_cyclase/dehydrase[br]Location: 5140290 - 5140718" locus_tag="FraEuI1c_4242" id="clusterblast-1_h23_6_28" points="643,85 646,80 646,90 643,85 " class="clusterblast-orf"  />
<polygon style="stroke:black; stroke-width:1; fill:#FFFFFF; " description="hypothetical_protein[br]Location: 5139612 - 5140064" locus_tag="FraEuI1c_4241" id="clusterblast-1_h23_6_29" points="648,90 651,85 648,80 648,90 " class="clusterblast-orf"  />
<polygon style="stroke:black; stroke-width:1; fill:#FFFFFF; " description="3-hydroxyacyl-CoA_dehydrogenase_NAD-binding[br]Location: 5137713 - 5139533" locus_tag="FraEuI1c_4240" id="clusterblast-1_h23_6_30" points="651,90 659,90 664,85 659,80 651,80 651,90 " class="clusterblast-orf"  />
<polygon style="stroke:black; stroke-width:1; fill:#FFFFFF; " description="4'-phosphopantetheinyl_transferase[br]Location: 5137010 - 5137735" locus_tag="FraEuI1c_4239" id="clusterblast-1_h23_6_31" points="664,85 669,80 669,80 669,90 669,90 664,85 " class="clusterblast-orf"  />
<polygon style="stroke:black; stroke-width:1; fill:#FFFFFF; " description="SARP_family_transcriptional_regulator[br]Location: 5136237 - 5137013" locus_tag="FraEuI1c_4238" id="clusterblast-1_h23_6_32" points="669,85 674,80 674,80 674,90 674,90 669,85 " class="clusterblast-orf"  />
<polygon style="stroke:black; stroke-width:1; fill:#FFFFFF; " description="AraC_family_transcriptional_regulator[br]Location: 5134971 - 5135927" locus_tag="FraEuI1c_4237" id="clusterblast-1_h23_6_33" points="676,85 681,80 683,80 683,90 681,90 676,85 " class="clusterblast-orf"  />
<polygon style="stroke:black; stroke-width:1; fill:#FFFFFF; " description="hypothetical_protein[br]Location: 5133886 - 5134380" locus_tag="FraEuI1c_4236" id="clusterblast-1_h23_6_34" points="687,85 690,80 690,90 687,85 " class="clusterblast-orf"  />
<polygon style="stroke:black; stroke-width:1; fill:#FFFFFF; " description="TetR_family_transcriptional_regulator[br]Location: 5132984 - 5133727" locus_tag="FraEuI1c_4235" id="clusterblast-1_h23_6_35" points="692,90 692,90 697,85 692,80 692,80 692,90 " class="clusterblast-orf"  />
<polygon style="stroke:black; stroke-width:1; fill:#FFFFFF; " description="hypothetical_protein[br]Location: 5132448 - 5132810" locus_tag="FraEuI1c_4234" id="clusterblast-1_h23_6_36" points="698,85 700,80 700,90 698,85 " class="clusterblast-orf"  />
<polygon style="stroke:black; stroke-width:1; fill:#FFFFFF; " description="DeoR_family_transcriptional_regulator[br]Location: 5131649 - 5132398" locus_tag="FraEuI1c_4233" id="clusterblast-1_h23_6_37" points="701,90 701,90 706,85 701,80 701,80 701,90 " class="clusterblast-orf"  />
<polygon style="stroke:black; stroke-width:1; fill:#FFFFFF; " description="2-nitropropane_dioxygenase_NPD[br]Location: 5130571 - 5131446" locus_tag="FraEuI1c_4232" id="clusterblast-1_h23_6_38" points="707,90 708,90 713,85 708,80 707,80 707,90 " class="clusterblast-orf"  />
<polygon style="stroke:black; stroke-width:1; fill:#FFFFFF; " description="AMP-dependent_synthetase_and_ligase[br]Location: 5128983 - 5130557" locus_tag="FraEuI1c_4231" id="clusterblast-1_h23_6_39" points="714,90 719,90 724,85 719,80 714,80 714,90 " class="clusterblast-orf"  />
<polygon style="stroke:black; stroke-width:1; fill:#FFFFFF; " description="taurine_dioxygenase[br]Location: 5127866 - 5128894" locus_tag="FraEuI1c_4230" id="clusterblast-1_h23_6_40" points="725,85 730,80 732,80 732,90 730,90 725,85 " class="clusterblast-orf"  />
<polygon style="stroke:black; stroke-width:1; fill:#FFFFFF; " description="hypothetical_protein[br]Location: 5126495 - 5127574" locus_tag="FraEuI1c_4229" id="clusterblast-1_h23_6_41" points="734,90 737,90 742,85 737,80 734,80 734,90 " class="clusterblast-orf"  />
<polygon style="stroke:black; stroke-width:1; fill:#FFFFFF; " description="ABC_transporter[br]Location: 5125692 - 5126498" locus_tag="FraEuI1c_4228" id="clusterblast-1_h23_6_42" points="742,90 742,90 747,85 742,80 742,80 742,90 " class="clusterblast-orf"  />
<polygon style="stroke:black; stroke-width:1; fill:#FFFFFF; " description="binding-protein-dependent_transport_systems[br]Location: 5124797 - 5125702" locus_tag="FraEuI1c_4227" id="clusterblast-1_h23_6_43" points="747,90 749,90 754,85 749,80 747,80 747,90 " class="clusterblast-orf"  />
<polygon style="stroke:black; stroke-width:1; fill:#FFFFFF; " description="alkanesulfonate_monooxygenase[br]Location: 5123613 - 5124749" locus_tag="FraEuI1c_4226" id="clusterblast-1_h23_6_44" points="754,90 757,90 762,85 757,80 754,80 754,90 " class="clusterblast-orf"  />
<polygon style="stroke:black; stroke-width:1; fill:#FFFFFF; " description="hypothetical_protein[br]Location: 5122887 - 5123378" locus_tag="FraEuI1c_4225" id="clusterblast-1_h23_6_45" points="763,90 767,85 763,80 763,90 " class="clusterblast-orf"  />
<polygon style="stroke:black; stroke-width:1; fill:#FFFFFF; " description="hypothetical_protein[br]Location: 5122420 - 5122896" locus_tag="FraEuI1c_4224" id="clusterblast-1_h23_6_46" points="767,90 770,85 767,80 767,90 " class="clusterblast-orf"  />
<polygon style="stroke:black; stroke-width:1; fill:#FFFFFF; " description="luciferase[br]Location: 5121347 - 5122423" locus_tag="FraEuI1c_4223" id="clusterblast-1_h23_6_47" points="770,90 773,90 778,85 773,80 770,80 770,90 " class="clusterblast-orf"  />
</g>
</svg>
