<svg xmlns="http://www.w3.org/2000/svg" height="230" width="800" version="1.1" y="0" x="0" preserveAspectRatio="none" xmlns:xlink="http://www.w3.org/1999/xlink" viewBox="0 0 800 230"  >
<g class="clusterblast-cluster" label="Query sequence"  >
<text class="clusterblast-acc" y="10" x="5"  >
Query sequence</text>
<line y1="35" x2="778.0" style="stroke:grey; stroke-width:1; " x1="10" y2="35"  />
<polygon style="stroke:black; stroke-width:1; fill:#FFFFFF; " description="unannotated orf[br]Location: 6136 - 7367" locus_tag="CHAFR746836_0085100.1" class="clusterblast-orf" points="10,35 15,30 22,30 22,40 15,40 10,35 " id="clusterblast-1_q17_8_0"  />
<polygon style="stroke:black; stroke-width:1; fill:rgb(190,63,63); " description="unannotated orf[br]Location: 11222 - 12640" locus_tag="CHAFR746836_0085110.1" class="clusterblast-orf" points="59,35 64,30 73,30 73,40 64,40 59,35 " id="clusterblast-1_q17_8_1"  />
<polygon style="stroke:black; stroke-width:1; fill:#FFFFFF; " description="unannotated orf[br]Location: 13318 - 14845" locus_tag="CHAFR746836_0085120.1" class="clusterblast-orf" points="80,40 90,40 95,35 90,30 80,30 80,40 " id="clusterblast-1_q17_8_2"  />
<polygon style="stroke:black; stroke-width:1; fill:rgb(63,63,190); " description="unannotated orf[br]Location: 45129 - 47273" locus_tag="CHAFR746836_0085130.1" class="clusterblast-orf" points="392,35 397,30 413,30 413,40 397,40 392,35 " id="clusterblast-1_q17_8_3"  />
<polygon style="stroke:black; stroke-width:1; fill:#FFFFFF; " description="unannotated orf[br]Location: 49048 - 50295" locus_tag="CHAFR746836_0085140.1" class="clusterblast-orf" points="430,40 437,40 442,35 437,30 430,30 430,40 " id="clusterblast-1_q17_8_4"  />
<polygon style="stroke:black; stroke-width:1; fill:#FFFFFF; " description="unannotated orf[br]Location: 50632 - 52244" locus_tag="CHAFR746836_0085150.1" class="clusterblast-orf" points="446,35 451,30 461,30 461,40 451,40 446,35 " id="clusterblast-1_q17_8_5"  />
<polygon style="stroke:black; stroke-width:1; fill:rgb(63,190,63); " description="unannotated orf[br]Location: 54334 - 65855" locus_tag="CHAFR746836_0085160.1" class="clusterblast-orf" points="482,40 590,40 595,35 590,30 482,30 482,40 " id="clusterblast-1_q17_8_6"  />
<polygon style="stroke:black; stroke-width:1; fill:rgb(190,63,190); " description="unannotated orf[br]Location: 67816 - 68591" locus_tag="CHAFR746836_0085170.1" class="clusterblast-orf" points="614,35 619,30 622,30 622,40 619,40 614,35 " id="clusterblast-1_q17_8_7"  />
<polygon style="stroke:black; stroke-width:1; fill:rgb(190,190,63); " description="unannotated orf[br]Location: 74280 - 75627" locus_tag="CHAFR746836_0085180.1" class="clusterblast-orf" points="678,40 686,40 691,35 686,30 678,30 678,40 " id="clusterblast-1_q17_8_8"  />
<polygon style="stroke:black; stroke-width:1; fill:#FFFFFF; " description="unannotated orf[br]Location: 77113 - 77652" locus_tag="CHAFR746836_0085190.1" class="clusterblast-orf" points="705,35 710,30 711,30 711,40 710,40 705,35 " id="clusterblast-1_q17_8_9"  />
<polygon style="stroke:black; stroke-width:1; fill:rgb(190,190,190); " description="unannotated orf[br]Location: 78175 - 79191" locus_tag="CHAFR746836_0085200.1" class="clusterblast-orf" points="716,40 721,40 726,35 721,30 716,30 716,40 " id="clusterblast-1_q17_8_10"  />
<polygon style="stroke:black; stroke-width:1; fill:#FFFFFF; " description="unannotated orf[br]Location: 83575 - 84480" locus_tag="CHAFR746836_0085210.1" class="clusterblast-orf" points="769,40 773,40 778,35 773,30 769,30 769,40 " id="clusterblast-1_q17_8_11"  />
</g>
<g class="clusterblast-cluster" description="Streptomyces violaceoruber kendomycin biosynthetic gene clus..." label="AM992894.1_c1"  >
<text class="clusterblast-acc" y="60" x="5"  >
AM992894.1_c1</text>
<text class="clusterblast-desc" y="60" x="460.8"  >
Streptomyces violaceoruber kendomycin biosynthetic gene clus...</text>
<line y1="85" x2="778.0" style="stroke:grey; stroke-width:1; " x1="10" y2="85"  />
<polygon style="stroke:black; stroke-width:1; fill:#FFFFFF; " description="transcriptional_regulator[br]Location: 177 - 617" locus_tag="CAQ52612.1" id="clusterblast-1_h17_8_0" points="69,85 73,80 73,90 69,85 " class="clusterblast-orf"  />
<polygon style="stroke:black; stroke-width:1; fill:#FFFFFF; " description="PQQ-dependent_enzyme[br]Location: 746 - 2377" locus_tag="CAQ52613.1" id="clusterblast-1_h17_8_1" points="74,85 79,80 90,80 90,90 79,90 74,85 " class="clusterblast-orf"  />
<polygon style="stroke:black; stroke-width:1; fill:#FFFFFF; " description="methyl_transferase[br]Location: 2374 - 3933" locus_tag="CAQ52614.1" id="clusterblast-1_h17_8_2" points="90,85 95,80 105,80 105,90 95,90 90,85 " class="clusterblast-orf"  />
<polygon style="stroke:black; stroke-width:1; fill:#FFFFFF; " description="enoyl-CoA_hydratase/isomerase[br]Location: 4327 - 5124" locus_tag="CAQ52615.1" id="clusterblast-1_h17_8_3" points="109,85 114,80 117,80 117,90 114,90 109,85 " class="clusterblast-orf"  />
<polygon style="stroke:black; stroke-width:1; fill:#FFFFFF; " description="benzaldehyde_dehydrogenase[br]Location: 5121 - 6590" locus_tag="CAQ52616.1" id="clusterblast-1_h17_8_4" points="117,85 122,80 131,80 131,90 122,90 117,85 " class="clusterblast-orf"  />
<polygon style="stroke:black; stroke-width:1; fill:#FFFFFF; " description="benzoylformate_decarboxylase[br]Location: 6587 - 8278" locus_tag="CAQ52617.1" id="clusterblast-1_h17_8_5" points="131,85 136,80 148,80 148,90 136,90 131,85 " class="clusterblast-orf"  />
<polygon style="stroke:black; stroke-width:1; fill:rgb(190,190,190); " description="dioxygenase[br]Location: 8275 - 9651&lt;br&gt;&lt;br&gt;&lt;b&gt;BlastP hit with CHAFR746836_0085200.1&lt;/b&gt;&lt;br&gt;Percentage identity: 37%&lt;br&gt;Percentage coverage: 27%&lt;br&gt;BLAST bit score: 50&lt;br&gt;E-value: 6e-06" locus_tag="CAQ52618.1" id="clusterblast-1_h17_8_6" points="148,85 153,80 161,80 161,90 153,90 148,85 " class="clusterblast-orf"  />
<polygon style="stroke:black; stroke-width:1; fill:#FFFFFF; " description="enoyl-CoA_hydratase/isomerase[br]Location: 9713 - 10429" locus_tag="CAQ52619.1" id="clusterblast-1_h17_8_7" points="162,85 167,80 169,80 169,90 167,90 162,85 " class="clusterblast-orf"  />
<polygon style="stroke:black; stroke-width:1; fill:#FFFFFF; " description="type_III_polyketide_synthase[br]Location: 10557 - 11657" locus_tag="CAQ52620.1" id="clusterblast-1_h17_8_8" points="170,85 175,80 181,80 181,90 175,90 170,85 " class="clusterblast-orf"  />
<polygon style="stroke:black; stroke-width:1; fill:#FFFFFF; " description="type_II_thioesterase[br]Location: 11711 - 12562" locus_tag="CAQ52621.1" id="clusterblast-1_h17_8_9" points="182,85 187,80 190,80 190,90 187,90 182,85 " class="clusterblast-orf"  />
<polygon style="stroke:black; stroke-width:1; fill:rgb(63,190,63); " description="type_I_polyketide_synthase,_modules_4-5[br]Location: 12831 - 24752&lt;br&gt;&lt;br&gt;&lt;b&gt;BlastP hit with CHAFR746836_0085160.1&lt;/b&gt;&lt;br&gt;Percentage identity: 31%&lt;br&gt;Percentage coverage: 24%&lt;br&gt;BLAST bit score: 404&lt;br&gt;E-value: 3e-111" locus_tag="CAQ52622.1" id="clusterblast-1_h17_8_10" points="193,90 304,90 309,85 304,80 193,80 193,90 " class="clusterblast-orf"  />
<polygon style="stroke:black; stroke-width:1; fill:rgb(63,190,63); " description="type_I_polyketide_synthase,_module_6[br]Location: 24785 - 31303&lt;br&gt;&lt;br&gt;&lt;b&gt;BlastP hit with CHAFR746836_0085160.1&lt;/b&gt;&lt;br&gt;Percentage identity: 31%&lt;br&gt;Percentage coverage: 24%&lt;br&gt;BLAST bit score: 420&lt;br&gt;E-value: 8e-117&lt;br&gt;&lt;br&gt;&lt;b&gt;BlastP hit with CHAFR746836_0085180.1&lt;/b&gt;&lt;br&gt;Percentage identity: 40%&lt;br&gt;Percentage coverage: 47%&lt;br&gt;BLAST bit score: 125&lt;br&gt;E-value: 1e-29" locus_tag="CAQ52623.1" id="clusterblast-1_h17_8_11" points="310,90 369,90 374,85 369,80 310,80 310,90 " class="clusterblast-orf"  />
<polygon style="stroke:black; stroke-width:1; fill:rgb(63,190,63); " description="type_I_polyketide_synthase,_modules_7-8[br]Location: 31342 - 41685&lt;br&gt;&lt;br&gt;&lt;b&gt;BlastP hit with CHAFR746836_0085160.1&lt;/b&gt;&lt;br&gt;Percentage identity: 31%&lt;br&gt;Percentage coverage: 24%&lt;br&gt;BLAST bit score: 411&lt;br&gt;E-value: 1e-113" locus_tag="CAQ52624.1" id="clusterblast-1_h17_8_12" points="374,90 470,90 475,85 470,80 374,80 374,90 " class="clusterblast-orf"  />
<polygon style="stroke:black; stroke-width:1; fill:#FFFFFF; " description="FAD-dependent_monooxygenase[br]Location: 41682 - 42869" locus_tag="CAQ52625.1" id="clusterblast-1_h17_8_13" points="475,90 482,90 487,85 482,80 475,80 475,90 " class="clusterblast-orf"  />
<polygon style="stroke:black; stroke-width:1; fill:rgb(63,190,63); " description="type_I_polyketide_synthase,_loading_module_and[br]Location: 42937 - 61329&lt;br&gt;&lt;br&gt;&lt;b&gt;BlastP hit with CHAFR746836_0085160.1&lt;/b&gt;&lt;br&gt;Percentage identity: 31%&lt;br&gt;Percentage coverage: 23%&lt;br&gt;BLAST bit score: 392&lt;br&gt;E-value: 1e-107&lt;br&gt;&lt;br&gt;&lt;b&gt;BlastP hit with CHAFR746836_0085180.1&lt;/b&gt;&lt;br&gt;Percentage identity: 31%&lt;br&gt;Percentage coverage: 110%&lt;br&gt;BLAST bit score: 152&lt;br&gt;E-value: 1e-38" locus_tag="CAQ52626.1" id="clusterblast-1_h17_8_14" points="488,90 663,90 668,85 663,80 488,80 488,90 " class="clusterblast-orf"  />
<polygon style="stroke:black; stroke-width:1; fill:#FFFFFF; " description="putative_lipase[br]Location: 61490 - 62833" locus_tag="CAQ52627.1" id="clusterblast-1_h17_8_15" points="670,90 678,90 683,85 678,80 670,80 670,90 " class="clusterblast-orf"  />
<polygon style="stroke:black; stroke-width:1; fill:#FFFFFF; " description="hypothetical_protein[br]Location: 62863 - 63318" locus_tag="CAQ52628.1" id="clusterblast-1_h17_8_16" points="683,90 687,85 683,80 683,90 " class="clusterblast-orf"  />
<polygon style="stroke:black; stroke-width:1; fill:#FFFFFF; " description="FAD-dependent_oxidoreductase[br]Location: 63315 - 64868" locus_tag="CAQ52629.1" id="clusterblast-1_h17_8_17" points="687,90 698,90 703,85 698,80 687,80 687,90 " class="clusterblast-orf"  />
<polygon style="stroke:black; stroke-width:1; fill:#FFFFFF; " description="putative_integral_membrane_protein[br]Location: 64876 - 65466" locus_tag="CAQ52630.1" id="clusterblast-1_h17_8_18" points="703,90 704,90 709,85 704,80 703,80 703,90 " class="clusterblast-orf"  />
<polygon style="stroke:black; stroke-width:1; fill:#FFFFFF; " description="transcriptional_regulator[br]Location: 65944 - 66387" locus_tag="CAQ52631.1" id="clusterblast-1_h17_8_19" points="713,85 718,80 718,80 718,90 718,90 713,85 " class="clusterblast-orf"  />
</g>
</svg>
