<svg xmlns="http://www.w3.org/2000/svg" height="230" width="800" version="1.1" y="0" x="0" preserveAspectRatio="none" xmlns:xlink="http://www.w3.org/1999/xlink" viewBox="0 0 800 230"  >
<g class="clusterblast-cluster" label="Query sequence"  >
<text class="clusterblast-acc" y="10" x="5"  >
Query sequence</text>
<line y1="35" x2="778.0" style="stroke:grey; stroke-width:1; " x1="10" y2="35"  />
<polygon style="stroke:black; stroke-width:1; fill:red; " description="unannotated orf[br]Location: 41959 - 43540" locus_tag="CHAFR746836_0014170.1" class="clusterblast-orf" points="209,35 214,30 231,30 231,40 214,40 209,35 " id="clusterblast-1_q31_10_0"  />
<polygon style="stroke:black; stroke-width:1; fill:green; " description="unannotated orf[br]Location: 53187 - 67692" locus_tag="CHAFR746836_0014180.1" class="clusterblast-orf" points="369,40 572,40 577,35 572,30 369,30 369,40 " id="clusterblast-1_q31_10_1"  />
</g>
<g class="clusterblast-cluster" description="Trichophyton tonsurans CBS 112818 genomic scaffold supercon..." label="GG698484.1_c1"  >
<text class="clusterblast-acc" y="60" x="5"  >
GG698484.1_c1</text>
<text class="clusterblast-desc" y="60" x="460.8"  >
Trichophyton tonsurans CBS 112818 genomic scaffold supercon...</text>
<line y1="85" x2="778.0" style="stroke:grey; stroke-width:1; " x1="10" y2="85"  />
<polygon style="stroke:black; stroke-width:1; fill:#FFFFFF; " description="hypothetical_protein[br]Location: 307033 - 310904" locus_tag="TESG_02226" id="clusterblast-1_h31_10_0" points="10,90 60,90 65,85 60,80 10,80 10,90 " class="clusterblast-orf"  />
<polygon style="stroke:black; stroke-width:1; fill:#FFFFFF; " description="hypothetical_protein[br]Location: 305704 - 306297" locus_tag="TESG_02225" id="clusterblast-1_h31_10_1" points="75,85 80,80 84,80 84,90 80,90 75,85 " class="clusterblast-orf"  />
<polygon style="stroke:black; stroke-width:1; fill:#FFFFFF; " description="cytochrome_b5[br]Location: 304698 - 305019" locus_tag="TESG_02224" id="clusterblast-1_h31_10_2" points="94,85 98,80 98,90 94,85 " class="clusterblast-orf"  />
<polygon style="stroke:black; stroke-width:1; fill:#FFFFFF; " description="mRNA_splicing_factor_RNA_helicase[br]Location: 302322 - 304121" locus_tag="TESG_02223" id="clusterblast-1_h31_10_3" points="107,85 112,80 132,80 132,90 112,90 107,85 " class="clusterblast-orf"  />
<polygon style="stroke:black; stroke-width:1; fill:#FFFFFF; " description="mRNA_splicing_factor_RNA_helicase_(Cdc28)[br]Location: 300735 - 301784" locus_tag="TESG_02222" id="clusterblast-1_h31_10_4" points="140,85 145,80 155,80 155,90 145,90 140,85 " class="clusterblast-orf"  />
<polygon style="stroke:black; stroke-width:1; fill:#FFFFFF; " description="palmitoyltransferase[br]Location: 297392 - 299792" locus_tag="TESG_02221" id="clusterblast-1_h31_10_5" points="169,90 198,90 203,85 198,80 169,80 169,90 " class="clusterblast-orf"  />
<polygon style="stroke:black; stroke-width:1; fill:#FFFFFF; " description="hypothetical_protein[br]Location: 296689 - 297157" locus_tag="TESG_02220" id="clusterblast-1_h31_10_6" points="206,85 211,80 213,80 213,90 211,90 206,85 " class="clusterblast-orf"  />
<polygon style="stroke:black; stroke-width:1; fill:red; " description="L-ornithine_5-monooxygenase[br]Location: 294581 - 296170&lt;br&gt;&lt;br&gt;&lt;b&gt;BlastP hit with CHAFR746836_0014170.1&lt;/b&gt;&lt;br&gt;Percentage identity: 45%&lt;br&gt;Percentage coverage: 96%&lt;br&gt;BLAST bit score: 402&lt;br&gt;E-value: 2e-133" locus_tag="TESG_02219" id="clusterblast-1_h31_10_7" points="220,85 225,80 243,80 243,90 225,90 220,85 " class="clusterblast-orf"  />
<polygon style="stroke:black; stroke-width:1; fill:green; " description="hypothetical_protein[br]Location: 277001 - 292803&lt;br&gt;&lt;br&gt;&lt;b&gt;BlastP hit with CHAFR746836_0014180.1&lt;/b&gt;&lt;br&gt;Percentage identity: 39%&lt;br&gt;Percentage coverage: 82%&lt;br&gt;BLAST bit score: 2737&lt;br&gt;E-value: 0.0" locus_tag="TESG_08341" id="clusterblast-1_h31_10_8" points="269,90 490,90 495,85 490,80 269,80 269,90 " class="clusterblast-orf"  />
<polygon style="stroke:black; stroke-width:1; fill:#FFFFFF; " description="WEE_protein_kinase[br]Location: 272365 - 275714" locus_tag="TESG_08340" id="clusterblast-1_h31_10_9" points="513,90 556,90 561,85 556,80 513,80 513,90 " class="clusterblast-orf"  />
<polygon style="stroke:black; stroke-width:1; fill:#FFFFFF; " description="glutamate_5-kinase[br]Location: 268986 - 270575" locus_tag="TESG_02214" id="clusterblast-1_h31_10_10" points="587,90 604,90 609,85 604,80 587,80 587,90 " class="clusterblast-orf"  />
<polygon style="stroke:black; stroke-width:1; fill:#FFFFFF; " description="hypothetical_protein[br]Location: 267238 - 268399" locus_tag="TESG_02213" id="clusterblast-1_h31_10_11" points="618,85 623,80 634,80 634,90 623,90 618,85 " class="clusterblast-orf"  />
<polygon style="stroke:black; stroke-width:1; fill:#FFFFFF; " description="hypothetical_protein[br]Location: 265735 - 267012" locus_tag="TESG_02212" id="clusterblast-1_h31_10_12" points="638,90 651,90 656,85 651,80 638,80 638,90 " class="clusterblast-orf"  />
<polygon style="stroke:black; stroke-width:1; fill:#FFFFFF; " description="cystathionine_beta-synthase[br]Location: 263376 - 265178" locus_tag="TESG_02211" id="clusterblast-1_h31_10_13" points="664,85 669,80 690,80 690,90 669,90 664,85 " class="clusterblast-orf"  />
<polygon style="stroke:black; stroke-width:1; fill:#FFFFFF; " description="mitochondrial_inner_membrane_protease_atp23[br]Location: 261887 - 262734" locus_tag="TESG_02210" id="clusterblast-1_h31_10_14" points="699,90 706,90 711,85 706,80 699,80 699,90 " class="clusterblast-orf"  />
<polygon style="stroke:black; stroke-width:1; fill:#FFFFFF; " description="AUR_protein_kinase[br]Location: 260526 - 261763" locus_tag="TESG_02209" id="clusterblast-1_h31_10_15" points="713,85 718,80 730,80 730,90 718,90 713,85 " class="clusterblast-orf"  />
<polygon style="stroke:black; stroke-width:1; fill:#FFFFFF; " description="hypothetical_protein[br]Location: 259140 - 260090" locus_tag="TESG_02208" id="clusterblast-1_h31_10_16" points="737,90 745,90 750,85 745,80 737,80 737,90 " class="clusterblast-orf"  />
<polygon style="stroke:black; stroke-width:1; fill:#FFFFFF; " description="hypothetical_protein[br]Location: 257237 - 258826" locus_tag="TESG_02207" id="clusterblast-1_h31_10_17" points="755,90 773,90 778,85 773,80 755,80 755,90 " class="clusterblast-orf"  />
</g>
</svg>
