<svg xmlns="http://www.w3.org/2000/svg" height="230" width="800" version="1.1" y="0" x="0" preserveAspectRatio="none" xmlns:xlink="http://www.w3.org/1999/xlink" viewBox="0 0 800 230"  >
<g class="clusterblast-cluster" label="Query sequence"  >
<text class="clusterblast-acc" y="10" x="5"  >
Query sequence</text>
<line y1="35" x2="778.0" style="stroke:grey; stroke-width:1; " x1="10" y2="35"  />
<polygon style="stroke:black; stroke-width:1; fill:#FFFFFF; " description="unannotated orf[br]Location: 2196 - 4302" locus_tag="CHAFR746836_0090270.1" class="clusterblast-orf" points="177,35 182,30 198,30 198,40 182,40 177,35 " id="clusterblast-1_q22_1_0"  />
<polygon style="stroke:black; stroke-width:1; fill:red; " description="unannotated orf[br]Location: 6729 - 7721" locus_tag="CHAFR746836_0090280.1" class="clusterblast-orf" points="224,35 229,30 234,30 234,40 229,40 224,35 " id="clusterblast-1_q22_1_1"  />
<polygon style="stroke:black; stroke-width:1; fill:green; " description="unannotated orf[br]Location: 11209 - 12209" locus_tag="CHAFR746836_0090290.1" class="clusterblast-orf" points="270,35 275,30 281,30 281,40 275,40 270,35 " id="clusterblast-1_q22_1_2"  />
<polygon style="stroke:black; stroke-width:1; fill:#FFFFFF; " description="unannotated orf[br]Location: 16783 - 17785" locus_tag="CHAFR746836_0090300.1" class="clusterblast-orf" points="329,40 334,40 339,35 334,30 329,30 329,40 " id="clusterblast-1_q22_1_3"  />
<polygon style="stroke:black; stroke-width:1; fill:#FFFFFF; " description="unannotated orf[br]Location: 18710 - 19905" locus_tag="CHAFR746836_0090310.1" class="clusterblast-orf" points="349,35 354,30 361,30 361,40 354,40 349,35 " id="clusterblast-1_q22_1_4"  />
<polygon style="stroke:black; stroke-width:1; fill:#FFFFFF; " description="unannotated orf[br]Location: 21175 - 22270" locus_tag="CHAFR746836_0090320.1" class="clusterblast-orf" points="374,35 379,30 386,30 386,40 379,40 374,35 " id="clusterblast-1_q22_1_5"  />
<polygon style="stroke:black; stroke-width:1; fill:#FFFFFF; " description="unannotated orf[br]Location: 24122 - 25277" locus_tag="CHAFR746836_0090330.1" class="clusterblast-orf" points="405,35 410,30 417,30 417,40 410,40 405,35 " id="clusterblast-1_q22_1_6"  />
<polygon style="stroke:black; stroke-width:1; fill:#FFFFFF; " description="unannotated orf[br]Location: 25820 - 27214" locus_tag="CHAFR746836_0090340.1" class="clusterblast-orf" points="423,40 432,40 437,35 432,30 423,30 423,40 " id="clusterblast-1_q22_1_7"  />
<polygon style="stroke:black; stroke-width:1; fill:#FFFFFF; " description="unannotated orf[br]Location: 29104 - 30035" locus_tag="CHAFR746836_0090350.1" class="clusterblast-orf" points="457,35 462,30 467,30 467,40 462,40 457,35 " id="clusterblast-1_q22_1_8"  />
<polygon style="stroke:black; stroke-width:1; fill:#FFFFFF; " description="unannotated orf[br]Location: 31646 - 32546" locus_tag="CHAFR746836_0090360.1" class="clusterblast-orf" points="483,35 488,30 493,30 493,40 488,40 483,35 " id="clusterblast-1_q22_1_9"  />
<polygon style="stroke:black; stroke-width:1; fill:#FFFFFF; " description="unannotated orf[br]Location: 33566 - 35498" locus_tag="CHAFR746836_0090370.1" class="clusterblast-orf" points="503,35 508,30 524,30 524,40 508,40 503,35 " id="clusterblast-1_q22_1_10"  />
<polygon style="stroke:black; stroke-width:1; fill:blue; " description="unannotated orf[br]Location: 42188 - 43711" locus_tag="CHAFR746836_0090380.1" class="clusterblast-orf" points="593,40 604,40 609,35 604,30 593,30 593,40 " id="clusterblast-1_q22_1_11"  />
</g>
<g class="clusterblast-cluster" description="Streptomyces scabiei 87.22, complete genome." label="NC_013929.1_c21"  >
<text class="clusterblast-acc" y="60" x="5"  >
NC_013929.1_c21</text>
<text class="clusterblast-desc" y="60" x="460.8"  >
Streptomyces scabiei 87.22, complete genome.</text>
<line y1="85" x2="778.0" style="stroke:grey; stroke-width:1; " x1="10" y2="85"  />
<polygon style="stroke:black; stroke-width:1; fill:#FFFFFF; " description="putative_solute_binding_protein[br]Location: 8699596 - 8700588" locus_tag="SCAB_78791" id="clusterblast-1_h22_1_0" points="10,90 15,90 20,85 15,80 10,80 10,90 " class="clusterblast-orf"  />
<polygon style="stroke:black; stroke-width:1; fill:#FFFFFF; " description="hypothetical_protein[br]Location: 8700909 - 8703338" locus_tag="SCAB_78801" id="clusterblast-1_h22_1_1" points="23,90 44,90 49,85 44,80 23,80 23,90 " class="clusterblast-orf"  />
<polygon style="stroke:black; stroke-width:1; fill:#FFFFFF; " description="hypothetical_protein[br]Location: 8703385 - 8703813" locus_tag="SCAB_78811" id="clusterblast-1_h22_1_2" points="49,90 53,85 49,80 49,90 " class="clusterblast-orf"  />
<polygon style="stroke:black; stroke-width:1; fill:#FFFFFF; " description="hypothetical_protein[br]Location: 8703815 - 8704171" locus_tag="SCAB_78821" id="clusterblast-1_h22_1_3" points="53,90 57,85 53,80 53,90 " class="clusterblast-orf"  />
<polygon style="stroke:black; stroke-width:1; fill:#FFFFFF; " description="hypothetical_protein[br]Location: 8704200 - 8704733" locus_tag="SCAB_78831" id="clusterblast-1_h22_1_4" points="57,90 58,90 63,85 58,80 57,80 57,90 " class="clusterblast-orf"  />
<polygon style="stroke:black; stroke-width:1; fill:#FFFFFF; " description="putative_regulator[br]Location: 8704745 - 8705350" locus_tag="SCAB_78841" id="clusterblast-1_h22_1_5" points="63,85 68,80 69,80 69,90 68,90 63,85 " class="clusterblast-orf"  />
<polygon style="stroke:black; stroke-width:1; fill:#FFFFFF; " description="hypothetical_protein[br]Location: 8705379 - 8707439" locus_tag="SCAB_78851" id="clusterblast-1_h22_1_6" points="70,85 75,80 91,80 91,90 75,90 70,85 " class="clusterblast-orf"  />
<polygon style="stroke:black; stroke-width:1; fill:#FFFFFF; " description="hypothetical_protein[br]Location: 8707948 - 8708325" locus_tag="SCAB_78861" id="clusterblast-1_h22_1_7" points="97,85 100,80 100,90 97,85 " class="clusterblast-orf"  />
<polygon style="stroke:black; stroke-width:1; fill:#FFFFFF; " description="putative_DNA-binding_protein[br]Location: 8708444 - 8708905" locus_tag="SCAB_78871" id="clusterblast-1_h22_1_8" points="102,90 102,90 107,85 102,80 102,80 102,90 " class="clusterblast-orf"  />
<polygon style="stroke:black; stroke-width:1; fill:#FFFFFF; " description="putative_glycosylhydrolase[br]Location: 8709354 - 8711024" locus_tag="SCAB_78881" id="clusterblast-1_h22_1_9" points="111,90 124,90 129,85 124,80 111,80 111,90 " class="clusterblast-orf"  />
<polygon style="stroke:black; stroke-width:1; fill:#FFFFFF; " description="hypothetical_protein[br]Location: 8711098 - 8714247" locus_tag="SCAB_78891" id="clusterblast-1_h22_1_10" points="129,85 134,80 162,80 162,90 134,90 129,85 " class="clusterblast-orf"  />
<polygon style="stroke:black; stroke-width:1; fill:#FFFFFF; " description="hypothetical_protein[br]Location: 8714667 - 8715269" locus_tag="SCAB_78911" id="clusterblast-1_h22_1_11" points="167,90 168,90 173,85 168,80 167,80 167,90 " class="clusterblast-orf"  />
<polygon style="stroke:black; stroke-width:1; fill:#FFFFFF; " description="hypothetical_protein[br]Location: 8715381 - 8717111" locus_tag="SCAB_78921" id="clusterblast-1_h22_1_12" points="174,90 187,90 192,85 187,80 174,80 174,90 " class="clusterblast-orf"  />
<polygon style="stroke:black; stroke-width:1; fill:#FFFFFF; " description="putative_esterase[br]Location: 8717205 - 8717846" locus_tag="SCAB_78931" id="clusterblast-1_h22_1_13" points="193,85 198,80 200,80 200,90 198,90 193,85 " class="clusterblast-orf"  />
<polygon style="stroke:black; stroke-width:1; fill:#FFFFFF; " description="hypothetical_protein[br]Location: 8718100 - 8719449" locus_tag="SCAB_78941" id="clusterblast-1_h22_1_14" points="202,85 207,80 216,80 216,90 207,90 202,85 " class="clusterblast-orf"  />
<polygon style="stroke:black; stroke-width:1; fill:#FFFFFF; " description="putative_sugar/fatty_acid_transferase[br]Location: 8719455 - 8720489" locus_tag="SCAB_78951" id="clusterblast-1_h22_1_15" points="216,85 221,80 227,80 227,90 221,90 216,85 " class="clusterblast-orf"  />
<polygon style="stroke:black; stroke-width:1; fill:#FFFFFF; " description="putative_polyketide_synthase[br]Location: 8720511 - 8724596" locus_tag="SCAB_78961" id="clusterblast-1_h22_1_16" points="227,85 232,80 270,80 270,90 232,90 227,85 " class="clusterblast-orf"  />
<polygon style="stroke:black; stroke-width:1; fill:#FFFFFF; " description="putative_FadD26-like_fatty_acid_adenylation[br]Location: 8724593 - 8726311" locus_tag="SCAB_78971" id="clusterblast-1_h22_1_17" points="270,85 275,80 288,80 288,90 275,90 270,85 " class="clusterblast-orf"  />
<polygon style="stroke:black; stroke-width:1; fill:#FFFFFF; " description="putative_propionyl-CoA_carboxylase_complex_B[br]Location: 8726455 - 8728053" locus_tag="SCAB_78981" id="clusterblast-1_h22_1_18" points="289,85 294,80 306,80 306,90 294,90 289,85 " class="clusterblast-orf"  />
<polygon style="stroke:black; stroke-width:1; fill:#FFFFFF; " description="hypothetical_protein[br]Location: 8728231 - 8728794" locus_tag="SCAB_78991" id="clusterblast-1_h22_1_19" points="308,85 313,80 314,80 314,90 313,90 308,85 " class="clusterblast-orf"  />
<polygon style="stroke:black; stroke-width:1; fill:#FFFFFF; " description="hypothetical_protein[br]Location: 8728923 - 8729546" locus_tag="SCAB_79001" id="clusterblast-1_h22_1_20" points="315,90 317,90 322,85 317,80 315,80 315,90 " class="clusterblast-orf"  />
<polygon style="stroke:black; stroke-width:1; fill:#FFFFFF; " description="hypothetical_protein[br]Location: 8729576 - 8730712" locus_tag="SCAB_79011" id="clusterblast-1_h22_1_21" points="322,85 327,80 334,80 334,90 327,90 322,85 " class="clusterblast-orf"  />
<polygon style="stroke:black; stroke-width:1; fill:#FFFFFF; " description="hypothetical_protein[br]Location: 8730935 - 8732113" locus_tag="SCAB_79031" id="clusterblast-1_h22_1_22" points="336,85 341,80 348,80 348,90 341,90 336,85 " class="clusterblast-orf"  />
<polygon style="stroke:black; stroke-width:1; fill:#FFFFFF; " description="putative_integral_membrane_protein[br]Location: 8732380 - 8733039" locus_tag="SCAB_79041" id="clusterblast-1_h22_1_23" points="351,90 353,90 358,85 353,80 351,80 351,90 " class="clusterblast-orf"  />
<polygon style="stroke:black; stroke-width:1; fill:#FFFFFF; " description="putative_TetR_family_transcriptional_regulator[br]Location: 8733141 - 8733719" locus_tag="SCAB_79051" id="clusterblast-1_h22_1_24" points="359,85 364,80 365,80 365,90 364,90 359,85 " class="clusterblast-orf"  />
<polygon style="stroke:black; stroke-width:1; fill:#FFFFFF; " description="hypothetical_protein[br]Location: 8733811 - 8734257" locus_tag="SCAB_79061" id="clusterblast-1_h22_1_25" points="366,90 366,90 371,85 366,80 366,80 366,90 " class="clusterblast-orf"  />
<polygon style="stroke:black; stroke-width:1; fill:#FFFFFF; " description="putative_MarR_family_transcriptional_regulator[br]Location: 8734376 - 8734909" locus_tag="SCAB_79071" id="clusterblast-1_h22_1_26" points="372,90 373,90 378,85 373,80 372,80 372,90 " class="clusterblast-orf"  />
<polygon style="stroke:black; stroke-width:1; fill:#FFFFFF; " description="hypothetical_protein[br]Location: 8734952 - 8735725" locus_tag="SCAB_79081" id="clusterblast-1_h22_1_27" points="378,85 383,80 386,80 386,90 383,90 378,85 " class="clusterblast-orf"  />
<polygon style="stroke:black; stroke-width:1; fill:#FFFFFF; " description="hypothetical_protein[br]Location: 8736172 - 8739147" locus_tag="SCAB_79091" id="clusterblast-1_h22_1_28" points="391,90 417,90 422,85 417,80 391,80 391,90 " class="clusterblast-orf"  />
<polygon style="stroke:black; stroke-width:1; fill:#FFFFFF; " description="putative_ABC_transporter_ATP-binding_protein[br]Location: 8739263 - 8740831" locus_tag="SCAB_79101" id="clusterblast-1_h22_1_29" points="423,90 434,90 439,85 434,80 423,80 423,90 " class="clusterblast-orf"  />
<polygon style="stroke:black; stroke-width:1; fill:#FFFFFF; " description="putative_ABC_transporter_transmembrane[br]Location: 8740828 - 8741916" locus_tag="SCAB_79111" id="clusterblast-1_h22_1_30" points="439,90 446,90 451,85 446,80 439,80 439,90 " class="clusterblast-orf"  />
<polygon style="stroke:black; stroke-width:1; fill:#FFFFFF; " description="hypothetical_protein[br]Location: 8741970 - 8743154" locus_tag="SCAB_79121" id="clusterblast-1_h22_1_31" points="451,90 458,90 463,85 458,80 451,80 451,90 " class="clusterblast-orf"  />
<polygon style="stroke:black; stroke-width:1; fill:#FFFFFF; " description="hypothetical_protein[br]Location: 8743201 - 8744544" locus_tag="SCAB_79131" id="clusterblast-1_h22_1_32" points="464,85 469,80 478,80 478,90 469,90 464,85 " class="clusterblast-orf"  />
<polygon style="stroke:black; stroke-width:1; fill:#FFFFFF; " description="putative_oxidoreductase[br]Location: 8744690 - 8746186" locus_tag="SCAB_79151" id="clusterblast-1_h22_1_33" points="479,85 484,80 495,80 495,90 484,90 479,85 " class="clusterblast-orf"  />
<polygon style="stroke:black; stroke-width:1; fill:#FFFFFF; " description="hypothetical_protein[br]Location: 8746758 - 8747960" locus_tag="SCAB_79171" id="clusterblast-1_h22_1_34" points="501,90 509,90 514,85 509,80 501,80 501,90 " class="clusterblast-orf"  />
<polygon style="stroke:black; stroke-width:1; fill:#FFFFFF; " description="hypothetical_protein[br]Location: 8747978 - 8748355" locus_tag="SCAB_79181" id="clusterblast-1_h22_1_35" points="514,90 518,85 514,80 514,90 " class="clusterblast-orf"  />
<polygon style="stroke:black; stroke-width:1; fill:#FFFFFF; " description="hypothetical_protein[br]Location: 8748352 - 8748732" locus_tag="SCAB_79191" id="clusterblast-1_h22_1_36" points="518,90 522,85 518,80 518,90 " class="clusterblast-orf"  />
<polygon style="stroke:black; stroke-width:1; fill:#FFFFFF; " description="hypothetical_protein[br]Location: 8748707 - 8749300" locus_tag="SCAB_79201" id="clusterblast-1_h22_1_37" points="521,90 523,90 528,85 523,80 521,80 521,90 " class="clusterblast-orf"  />
<polygon style="stroke:black; stroke-width:1; fill:#FFFFFF; " description="hypothetical_protein[br]Location: 8749314 - 8750651" locus_tag="SCAB_79211" id="clusterblast-1_h22_1_38" points="528,90 537,90 542,85 537,80 528,80 528,90 " class="clusterblast-orf"  />
<polygon style="stroke:black; stroke-width:1; fill:#FFFFFF; " description="putative_lyase[br]Location: 8751002 - 8753617" locus_tag="SCAB_79221" id="clusterblast-1_h22_1_39" points="545,90 568,90 573,85 568,80 545,80 545,90 " class="clusterblast-orf"  />
<polygon style="stroke:black; stroke-width:1; fill:#FFFFFF; " description="putative_cytidine_deaminase[br]Location: 8753769 - 8754182" locus_tag="SCAB_79231" id="clusterblast-1_h22_1_40" points="574,90 578,85 574,80 574,90 " class="clusterblast-orf"  />
<polygon style="stroke:black; stroke-width:1; fill:#FFFFFF; " description="putative_arabinofuranosidase[br]Location: 8754206 - 8755684" locus_tag="SCAB_79241" id="clusterblast-1_h22_1_41" points="579,85 584,80 594,80 594,90 584,90 579,85 " class="clusterblast-orf"  />
<polygon style="stroke:black; stroke-width:1; fill:#FFFFFF; " description="xylanase_A[br]Location: 8756249 - 8757706" locus_tag="SCAB_79251" id="clusterblast-1_h22_1_42" points="600,90 610,90 615,85 610,80 600,80 600,90 " class="clusterblast-orf"  />
<polygon style="stroke:black; stroke-width:1; fill:red; " description="putative_glycosyl_hydrolase[br]Location: 8757738 - 8759111&lt;br&gt;&lt;br&gt;&lt;b&gt;BlastP hit with CHAFR746836_0090280.1&lt;/b&gt;&lt;br&gt;Percentage identity: 51%&lt;br&gt;Percentage coverage: 86%&lt;br&gt;BLAST bit score: 288&lt;br&gt;E-value: 2e-92" locus_tag="SCAB_79261" id="clusterblast-1_h22_1_43" points="615,90 625,90 630,85 625,80 615,80 615,90 " class="clusterblast-orf"  />
<polygon style="stroke:black; stroke-width:1; fill:#FFFFFF; " description="putative_membrane-associated_phosphoesterase[br]Location: 8759207 - 8760352" locus_tag="SCAB_79271" id="clusterblast-1_h22_1_44" points="631,85 636,80 643,80 643,90 636,90 631,85 " class="clusterblast-orf"  />
<polygon style="stroke:black; stroke-width:1; fill:#FFFFFF; " description="hypothetical_protein[br]Location: 8760715 - 8760924" locus_tag="SCAB_79291" id="clusterblast-1_h22_1_45" points="647,90 649,85 647,80 647,90 " class="clusterblast-orf"  />
<polygon style="stroke:black; stroke-width:1; fill:#FFFFFF; " description="putative_regulatory_protein[br]Location: 8761076 - 8762701" locus_tag="SCAB_79301" id="clusterblast-1_h22_1_46" points="650,85 655,80 667,80 667,90 655,90 650,85 " class="clusterblast-orf"  />
<polygon style="stroke:black; stroke-width:1; fill:blue; " description="hypothetical_protein[br]Location: 8762954 - 8764222&lt;br&gt;&lt;br&gt;&lt;b&gt;BlastP hit with CHAFR746836_0090380.1&lt;/b&gt;&lt;br&gt;Percentage identity: 31%&lt;br&gt;Percentage coverage: 85%&lt;br&gt;BLAST bit score: 194&lt;br&gt;E-value: 1e-54" locus_tag="SCAB_79311" id="clusterblast-1_h22_1_47" points="670,90 678,90 683,85 678,80 670,80 670,90 " class="clusterblast-orf"  />
<polygon style="stroke:black; stroke-width:1; fill:#FFFFFF; " description="putative_oxidoreductase[br]Location: 8764219 - 8767113" locus_tag="SCAB_79321" id="clusterblast-1_h22_1_48" points="683,90 708,90 713,85 708,80 683,80 683,90 " class="clusterblast-orf"  />
<polygon style="stroke:black; stroke-width:1; fill:#FFFFFF; " description="succinate-semialdehyde_dehydrogenase[br]Location: 8767110 - 8768549" locus_tag="SCAB_79331" id="clusterblast-1_h22_1_49" points="713,90 723,90 728,85 723,80 713,80 713,90 " class="clusterblast-orf"  />
<polygon style="stroke:black; stroke-width:1; fill:#FFFFFF; " description="hypothetical_protein[br]Location: 8768558 - 8769004" locus_tag="SCAB_79341" id="clusterblast-1_h22_1_50" points="728,90 728,90 733,85 728,80 728,80 728,90 " class="clusterblast-orf"  />
<polygon style="stroke:black; stroke-width:1; fill:#FFFFFF; " description="putative_dehydrogenase[br]Location: 8769734 - 8770657" locus_tag="SCAB_79351" id="clusterblast-1_h22_1_51" points="741,90 745,90 750,85 745,80 741,80 741,90 " class="clusterblast-orf"  />
<polygon style="stroke:black; stroke-width:1; fill:#FFFFFF; " description="bifunctional_salicyl-AMP_ligase/salicyl-S-ArCP[br]Location: 8770715 - 8772364" locus_tag="SCAB_79361" id="clusterblast-1_h22_1_52" points="751,90 763,90 768,85 763,80 751,80 751,90 " class="clusterblast-orf"  />
<polygon style="stroke:black; stroke-width:1; fill:#FFFFFF; " description="putative_methyltransferase[br]Location: 8772472 - 8773284" locus_tag="SCAB_79371" id="clusterblast-1_h22_1_53" points="769,85 774,80 778,80 778,90 774,90 769,85 " class="clusterblast-orf"  />
</g>
</svg>
