<svg xmlns="http://www.w3.org/2000/svg" height="230" width="800" version="1.1" y="0" x="0" preserveAspectRatio="none" xmlns:xlink="http://www.w3.org/1999/xlink" viewBox="0 0 800 230"  >
<g class="clusterblast-cluster" label="Query sequence"  >
<text class="clusterblast-acc" y="10" x="5"  >
Query sequence</text>
<line y1="35" x2="778.0" style="stroke:grey; stroke-width:1; " x1="10" y2="35"  />
<polygon style="stroke:black; stroke-width:1; fill:#FFFFFF; " description="unannotated orf[br]Location: 1013 - 2670" locus_tag="CHAFR746836_0031900.1" class="clusterblast-orf" points="10,35 15,30 19,30 19,40 15,40 10,35 " id="clusterblast-1_q44_1_0"  />
<polygon style="stroke:black; stroke-width:1; fill:#FFFFFF; " description="unannotated orf[br]Location: 5806 - 8080" locus_tag="CHAFR746836_0031910.1" class="clusterblast-orf" points="38,40 47,40 52,35 47,30 38,30 38,40 " id="clusterblast-1_q44_1_1"  />
<polygon style="stroke:black; stroke-width:1; fill:rgb(190,63,63); " description="unannotated orf[br]Location: 14959 - 16522" locus_tag="CHAFR746836_0031920.1" class="clusterblast-orf" points="93,35 98,30 102,30 102,40 98,40 93,35 " id="clusterblast-1_q44_1_2"  />
<polygon style="stroke:black; stroke-width:1; fill:rgb(63,63,190); " description="unannotated orf[br]Location: 18634 - 27051" locus_tag="CHAFR746836_0031930.1" class="clusterblast-orf" points="115,35 120,30 165,30 165,40 120,40 115,35 " id="clusterblast-1_q44_1_3"  />
<polygon style="stroke:black; stroke-width:1; fill:rgb(63,190,63); " description="unannotated orf[br]Location: 28690 - 31017" locus_tag="CHAFR746836_0031940.1" class="clusterblast-orf" points="174,35 179,30 188,30 188,40 179,40 174,35 " id="clusterblast-1_q44_1_4"  />
<polygon style="stroke:black; stroke-width:1; fill:rgb(190,63,190); " description="unannotated orf[br]Location: 31821 - 32686" locus_tag="CHAFR746836_0031950.1" class="clusterblast-orf" points="193,40 193,40 198,35 193,30 193,30 193,40 " id="clusterblast-1_q44_1_5"  />
<polygon style="stroke:black; stroke-width:1; fill:#FFFFFF; " description="unannotated orf[br]Location: 33127 - 34136" locus_tag="CHAFR746836_0031960.1" class="clusterblast-orf" points="201,35 206,30 207,30 207,40 206,40 201,35 " id="clusterblast-1_q44_1_6"  />
<polygon style="stroke:black; stroke-width:1; fill:#FFFFFF; " description="unannotated orf[br]Location: 34492 - 36671" locus_tag="CHAFR746836_0031970.1" class="clusterblast-orf" points="209,40 217,40 222,35 217,30 209,30 209,40 " id="clusterblast-1_q44_1_7"  />
<polygon style="stroke:black; stroke-width:1; fill:#FFFFFF; " description="unannotated orf[br]Location: 90516 - 91329" locus_tag="CHAFR746836_0031980.1" class="clusterblast-orf" points="543,40 543,40 548,35 543,30 543,30 543,40 " id="clusterblast-1_q44_1_8"  />
<polygon style="stroke:black; stroke-width:1; fill:#FFFFFF; " description="unannotated orf[br]Location: 95107 - 95607" locus_tag="CHAFR746836_0031990.1" class="clusterblast-orf" points="570,35 573,30 573,40 570,35 " id="clusterblast-1_q44_1_9"  />
<polygon style="stroke:black; stroke-width:1; fill:#FFFFFF; " description="unannotated orf[br]Location: 98154 - 98987" locus_tag="CHAFR746836_0032000.1" class="clusterblast-orf" points="589,40 593,35 589,30 589,40 " id="clusterblast-1_q44_1_10"  />
<polygon style="stroke:black; stroke-width:1; fill:#FFFFFF; " description="unannotated orf[br]Location: 110556 - 112350" locus_tag="CHAFR746836_0032010.1" class="clusterblast-orf" points="662,35 667,30 673,30 673,40 667,40 662,35 " id="clusterblast-1_q44_1_11"  />
<polygon style="stroke:black; stroke-width:1; fill:rgb(190,190,63); " description="unannotated orf[br]Location: 112800 - 115534" locus_tag="CHAFR746836_0032020.1" class="clusterblast-orf" points="676,40 687,40 692,35 687,30 676,30 676,40 " id="clusterblast-1_q44_1_12"  />
<polygon style="stroke:black; stroke-width:1; fill:rgb(190,190,190); " description="unannotated orf[br]Location: 116249 - 122294" locus_tag="CHAFR746836_0032030.1" class="clusterblast-orf" points="696,40 727,40 732,35 727,30 696,30 696,40 " id="clusterblast-1_q44_1_13"  />
<polygon style="stroke:black; stroke-width:1; fill:rgb(63,190,190); " description="unannotated orf[br]Location: 126098 - 127042" locus_tag="CHAFR746836_0032040.1" class="clusterblast-orf" points="755,35 760,30 761,30 761,40 760,40 755,35 " id="clusterblast-1_q44_1_14"  />
<polygon style="stroke:black; stroke-width:1; fill:rgb(63,63,63); " description="unannotated orf[br]Location: 128617 - 129857" locus_tag="CHAFR746836_0032050.1" class="clusterblast-orf" points="770,40 773,40 778,35 773,30 770,30 770,40 " id="clusterblast-1_q44_1_15"  />
</g>
<g class="clusterblast-cluster" description="Aspergillus kawachii IFO 4308 DNA, contig: scaffold00005, wh..." label="DF126451.1_c1"  >
<text class="clusterblast-acc" y="60" x="5"  >
DF126451.1_c1</text>
<text class="clusterblast-desc" y="60" x="460.8"  >
Aspergillus kawachii IFO 4308 DNA, contig: scaffold00005, wh...</text>
<line y1="85" x2="778.0" style="stroke:grey; stroke-width:1; " x1="10" y2="85"  />
<polygon style="stroke:black; stroke-width:1; fill:#FFFFFF; " description="mitochondrial_DNA_replication_protein[br]Location: 896003 - 897149" locus_tag="AKAW_02589" id="clusterblast-1_h44_1_0" points="194,85 199,80 200,80 200,90 199,90 194,85 " class="clusterblast-orf"  />
<polygon style="stroke:black; stroke-width:1; fill:#FFFFFF; " description="hypothetical_protein[br]Location: 897452 - 898520" locus_tag="AKAW_02590" id="clusterblast-1_h44_1_1" points="202,90 204,90 209,85 204,80 202,80 202,90 " class="clusterblast-orf"  />
<polygon style="stroke:black; stroke-width:1; fill:#FFFFFF; " description="hypothetical_protein[br]Location: 899020 - 900843" locus_tag="AKAW_02591" id="clusterblast-1_h44_1_2" points="211,90 217,90 222,85 217,80 211,80 211,90 " class="clusterblast-orf"  />
<polygon style="stroke:black; stroke-width:1; fill:#FFFFFF; " description="DUF453_domain_protein[br]Location: 901402 - 902547" locus_tag="AKAW_02592" id="clusterblast-1_h44_1_3" points="226,90 228,90 233,85 228,80 226,80 226,90 " class="clusterblast-orf"  />
<polygon style="stroke:black; stroke-width:1; fill:#FFFFFF; " description="aconitase[br]Location: 903289 - 907560" locus_tag="AKAW_02593" id="clusterblast-1_h44_1_4" points="237,90 257,90 262,85 257,80 237,80 237,90 " class="clusterblast-orf"  />
<polygon style="stroke:black; stroke-width:1; fill:#FFFFFF; " description="aminotransferase[br]Location: 907617 - 908921" locus_tag="AKAW_02594" id="clusterblast-1_h44_1_5" points="263,85 268,80 271,80 271,90 268,90 263,85 " class="clusterblast-orf"  />
<polygon style="stroke:black; stroke-width:1; fill:#FFFFFF; " description="hypothetical_protein[br]Location: 910431 - 911678" locus_tag="AKAW_02595" id="clusterblast-1_h44_1_6" points="280,85 285,80 287,80 287,90 285,90 280,85 " class="clusterblast-orf"  />
<polygon style="stroke:black; stroke-width:1; fill:#FFFFFF; " description="hypothetical_protein[br]Location: 913942 - 915075" locus_tag="AKAW_02596" id="clusterblast-1_h44_1_7" points="300,85 305,80 307,80 307,90 305,90 300,85 " class="clusterblast-orf"  />
<polygon style="stroke:black; stroke-width:1; fill:#FFFFFF; " description="squalene_synthetase[br]Location: 915713 - 916881" locus_tag="AKAW_02597" id="clusterblast-1_h44_1_8" points="311,85 316,80 318,80 318,90 316,90 311,85 " class="clusterblast-orf"  />
<polygon style="stroke:black; stroke-width:1; fill:#FFFFFF; " description="hypothetical_protein[br]Location: 918488 - 919397" locus_tag="AKAW_02598" id="clusterblast-1_h44_1_9" points="328,90 328,90 333,85 328,80 328,80 328,90 " class="clusterblast-orf"  />
<polygon style="stroke:black; stroke-width:1; fill:#FFFFFF; " description="similar_to_glutathione_S-transferase[br]Location: 919513 - 920361" locus_tag="AKAW_02599" id="clusterblast-1_h44_1_10" points="334,85 339,80 339,80 339,90 339,90 334,85 " class="clusterblast-orf"  />
<polygon style="stroke:black; stroke-width:1; fill:#FFFFFF; " description="short-chain_dehydrogenase/reductase_family[br]Location: 921089 - 922170" locus_tag="AKAW_02600" id="clusterblast-1_h44_1_11" points="343,85 348,80 349,80 349,90 348,90 343,85 " class="clusterblast-orf"  />
<polygon style="stroke:black; stroke-width:1; fill:#FFFFFF; " description="similar_to_An02g10960[br]Location: 922644 - 923996" locus_tag="AKAW_02601" id="clusterblast-1_h44_1_12" points="352,85 357,80 360,80 360,90 357,90 352,85 " class="clusterblast-orf"  />
<polygon style="stroke:black; stroke-width:1; fill:#FFFFFF; " description="cytochrome_P450[br]Location: 925279 - 927064" locus_tag="AKAW_02602" id="clusterblast-1_h44_1_13" points="368,90 374,90 379,85 374,80 368,80 368,90 " class="clusterblast-orf"  />
<polygon style="stroke:black; stroke-width:1; fill:#FFFFFF; " description="NADH_oxidase[br]Location: 927644 - 928891" locus_tag="AKAW_02603" id="clusterblast-1_h44_1_14" points="382,90 385,90 390,85 385,80 382,80 382,90 " class="clusterblast-orf"  />
<polygon style="stroke:black; stroke-width:1; fill:#FFFFFF; " description="amine_oxidase[br]Location: 929069 - 931252" locus_tag="AKAW_02604" id="clusterblast-1_h44_1_15" points="391,85 396,80 404,80 404,90 396,90 391,85 " class="clusterblast-orf"  />
<polygon style="stroke:black; stroke-width:1; fill:rgb(63,63,190); " description="polyketide_synthase[br]Location: 934962 - 944162&lt;br&gt;&lt;br&gt;&lt;b&gt;BlastP hit with CHAFR746836_0031930.1&lt;/b&gt;&lt;br&gt;Percentage identity: 47%&lt;br&gt;Percentage coverage: 101%&lt;br&gt;BLAST bit score: 2303&lt;br&gt;E-value: 0.0" locus_tag="AKAW_02605" id="clusterblast-1_h44_1_16" points="426,90 476,90 481,85 476,80 426,80 426,90 " class="clusterblast-orf"  />
<polygon style="stroke:black; stroke-width:1; fill:#FFFFFF; " description="carboxylesterase[br]Location: 945938 - 947646" locus_tag="AKAW_02606" id="clusterblast-1_h44_1_17" points="491,85 496,80 501,80 501,90 496,90 491,85 " class="clusterblast-orf"  />
<polygon style="stroke:black; stroke-width:1; fill:rgb(63,190,63); " description="hypothetical_protein[br]Location: 949996 - 951282&lt;br&gt;&lt;br&gt;&lt;b&gt;BlastP hit with CHAFR746836_0031940.1&lt;/b&gt;&lt;br&gt;Percentage identity: 40%&lt;br&gt;Percentage coverage: 54%&lt;br&gt;BLAST bit score: 200&lt;br&gt;E-value: 8e-57" locus_tag="AKAW_02607" id="clusterblast-1_h44_1_18" points="515,90 518,90 523,85 518,80 515,80 515,90 " class="clusterblast-orf"  />
<polygon style="stroke:black; stroke-width:1; fill:rgb(190,63,190); " description="hypothetical_protein[br]Location: 951853 - 952662&lt;br&gt;&lt;br&gt;&lt;b&gt;BlastP hit with CHAFR746836_0031950.1&lt;/b&gt;&lt;br&gt;Percentage identity: 50%&lt;br&gt;Percentage coverage: 100%&lt;br&gt;BLAST bit score: 267&lt;br&gt;E-value: 3e-87" locus_tag="AKAW_02608" id="clusterblast-1_h44_1_19" points="526,90 526,90 531,85 526,80 526,80 526,90 " class="clusterblast-orf"  />
<polygon style="stroke:black; stroke-width:1; fill:#FFFFFF; " description="similar_to_An02g10860[br]Location: 954141 - 954701" locus_tag="AKAW_02609" id="clusterblast-1_h44_1_20" points="540,85 543,80 543,90 540,85 " class="clusterblast-orf"  />
<polygon style="stroke:black; stroke-width:1; fill:#FFFFFF; " description="hypothetical_protein[br]Location: 957584 - 958925" locus_tag="AKAW_02610" id="clusterblast-1_h44_1_21" points="561,90 564,90 569,85 564,80 561,80 561,90 " class="clusterblast-orf"  />
<polygon style="stroke:black; stroke-width:1; fill:rgb(190,63,63); " description="benzoate_4-monooxygenase_cytochrome_P450[br]Location: 959010 - 960680&lt;br&gt;&lt;br&gt;&lt;b&gt;BlastP hit with CHAFR746836_0031920.1&lt;/b&gt;&lt;br&gt;Percentage identity: 32%&lt;br&gt;Percentage coverage: 39%&lt;br&gt;BLAST bit score: 80&lt;br&gt;E-value: 2e-15" locus_tag="AKAW_02611" id="clusterblast-1_h44_1_22" points="569,85 574,80 579,80 579,90 574,90 569,85 " class="clusterblast-orf"  />
<polygon style="stroke:black; stroke-width:1; fill:#FFFFFF; " description="major_facilitator_superfamily_transporter[br]Location: 961204 - 962803" locus_tag="AKAW_02612" id="clusterblast-1_h44_1_23" points="582,85 587,80 592,80 592,90 587,90 582,85 " class="clusterblast-orf"  />
</g>
</svg>
