<svg xmlns="http://www.w3.org/2000/svg" height="230" width="800" version="1.1" y="0" x="0" preserveAspectRatio="none" xmlns:xlink="http://www.w3.org/1999/xlink" viewBox="0 0 800 230"  >
<g class="clusterblast-cluster" label="Query sequence"  >
<text class="clusterblast-acc" y="10" x="5"  >
Query sequence</text>
<line y1="35" x2="778.0" style="stroke:grey; stroke-width:1; " x1="10" y2="35"  />
<polygon style="stroke:black; stroke-width:1; fill:#FFFFFF; " description="unannotated orf[br]Location: 489 - 2721" locus_tag="CHAFR746836_0051070.1" class="clusterblast-orf" points="88,35 93,30 103,30 103,40 93,40 88,35 " id="clusterblast-1_q63_6_0"  />
<polygon style="stroke:black; stroke-width:1; fill:#FFFFFF; " description="unannotated orf[br]Location: 4200 - 5219" locus_tag="CHAFR746836_0051080.1" class="clusterblast-orf" points="113,35 118,30 120,30 120,40 118,40 113,35 " id="clusterblast-1_q63_6_1"  />
<polygon style="stroke:black; stroke-width:1; fill:#FFFFFF; " description="unannotated orf[br]Location: 6660 - 7800" locus_tag="CHAFR746836_0051090.1" class="clusterblast-orf" points="129,40 132,40 137,35 132,30 129,30 129,40 " id="clusterblast-1_q63_6_2"  />
<polygon style="stroke:black; stroke-width:1; fill:rgb(190,63,63); " description="unannotated orf[br]Location: 26765 - 27965" locus_tag="CHAFR746836_0051100.1" class="clusterblast-orf" points="265,40 269,40 274,35 269,30 265,30 265,40 " id="clusterblast-1_q63_6_3"  />
<polygon style="stroke:black; stroke-width:1; fill:rgb(63,63,190); " description="unannotated orf[br]Location: 28597 - 39479" locus_tag="CHAFR746836_0051110.1" class="clusterblast-orf" points="278,40 347,40 352,35 347,30 278,30 278,40 " id="clusterblast-1_q63_6_4"  />
<polygon style="stroke:black; stroke-width:1; fill:rgb(63,190,63); " description="unannotated orf[br]Location: 40061 - 41918" locus_tag="CHAFR746836_0051120.1" class="clusterblast-orf" points="356,40 363,40 368,35 363,30 356,30 356,40 " id="clusterblast-1_q63_6_5"  />
<polygon style="stroke:black; stroke-width:1; fill:rgb(190,63,190); " description="unannotated orf[br]Location: 43238 - 44908" locus_tag="CHAFR746836_0051130.1" class="clusterblast-orf" points="377,40 383,40 388,35 383,30 377,30 377,40 " id="clusterblast-1_q63_6_6"  />
<polygon style="stroke:black; stroke-width:1; fill:#FFFFFF; " description="unannotated orf[br]Location: 47854 - 53058" locus_tag="CHAFR746836_0051140.1" class="clusterblast-orf" points="408,35 413,30 444,30 444,40 413,40 408,35 " id="clusterblast-1_q63_6_7"  />
<polygon style="stroke:black; stroke-width:1; fill:rgb(190,190,63); " description="unannotated orf[br]Location: 53967 - 56732" locus_tag="CHAFR746836_0051150.1" class="clusterblast-orf" points="450,40 463,40 468,35 463,30 450,30 450,40 " id="clusterblast-1_q63_6_8"  />
<polygon style="stroke:black; stroke-width:1; fill:#FFFFFF; " description="unannotated orf[br]Location: 58548 - 59100" locus_tag="CHAFR746836_0051160.1" class="clusterblast-orf" points="481,35 485,30 485,40 481,35 " id="clusterblast-1_q63_6_9"  />
<polygon style="stroke:black; stroke-width:1; fill:#FFFFFF; " description="unannotated orf[br]Location: 60871 - 61857" locus_tag="CHAFR746836_0051170.1" class="clusterblast-orf" points="497,40 498,40 503,35 498,30 497,30 497,40 " id="clusterblast-1_q63_6_10"  />
<polygon style="stroke:black; stroke-width:1; fill:#FFFFFF; " description="unannotated orf[br]Location: 63105 - 64083" locus_tag="CHAFR746836_0051180.1" class="clusterblast-orf" points="512,35 517,30 518,30 518,40 517,40 512,35 " id="clusterblast-1_q63_6_11"  />
<polygon style="stroke:black; stroke-width:1; fill:#FFFFFF; " description="unannotated orf[br]Location: 67899 - 70038" locus_tag="CHAFR746836_0051190.1" class="clusterblast-orf" points="544,40 554,40 559,35 554,30 544,30 544,40 " id="clusterblast-1_q63_6_12"  />
<polygon style="stroke:black; stroke-width:1; fill:#FFFFFF; " description="unannotated orf[br]Location: 72649 - 74314" locus_tag="CHAFR746836_0051200.1" class="clusterblast-orf" points="576,35 581,30 588,30 588,40 581,40 576,35 " id="clusterblast-1_q63_6_13"  />
<polygon style="stroke:black; stroke-width:1; fill:#FFFFFF; " description="unannotated orf[br]Location: 77147 - 77748" locus_tag="CHAFR746836_0051210.1" class="clusterblast-orf" points="607,40 611,35 607,30 607,40 " id="clusterblast-1_q63_6_14"  />
<polygon style="stroke:black; stroke-width:1; fill:#FFFFFF; " description="unannotated orf[br]Location: 78975 - 79809" locus_tag="CHAFR746836_0051220.1" class="clusterblast-orf" points="619,40 620,40 625,35 620,30 619,30 619,40 " id="clusterblast-1_q63_6_15"  />
<polygon style="stroke:black; stroke-width:1; fill:#FFFFFF; " description="unannotated orf[br]Location: 85804 - 86841" locus_tag="CHAFR746836_0051230.1" class="clusterblast-orf" points="665,35 670,30 672,30 672,40 670,40 665,35 " id="clusterblast-1_q63_6_16"  />
<polygon style="stroke:black; stroke-width:1; fill:#FFFFFF; " description="unannotated orf[br]Location: 88142 - 90586" locus_tag="CHAFR746836_0051240.1" class="clusterblast-orf" points="681,35 686,30 698,30 698,40 686,40 681,35 " id="clusterblast-1_q63_6_17"  />
</g>
<g class="clusterblast-cluster" description="Trichoderma virens Gv29-8 TRIVIscaffold 6, whole genome ..." label="ABDF02000006.1_c3"  >
<text class="clusterblast-acc" y="60" x="5"  >
ABDF02000006.1_c3</text>
<text class="clusterblast-desc" y="60" x="460.8"  >
Trichoderma virens Gv29-8 TRIVIscaffold 6, whole genome ...</text>
<line y1="85" x2="778.0" style="stroke:grey; stroke-width:1; " x1="10" y2="85"  />
<polygon style="stroke:black; stroke-width:1; fill:#FFFFFF; " description="hypothetical_protein[br]Location: 2926922 - 2928616" locus_tag="TRIVIDRAFT_222254" id="clusterblast-1_h63_6_0" points="10,90 16,90 21,85 16,80 10,80 10,90 " class="clusterblast-orf"  />
<polygon style="stroke:black; stroke-width:1; fill:#FFFFFF; " description="hypothetical_protein[br]Location: 2929805 - 2930775" locus_tag="TRIVIDRAFT_60187" id="clusterblast-1_h63_6_1" points="29,90 31,90 36,85 31,80 29,80 29,90 " class="clusterblast-orf"  />
<polygon style="stroke:black; stroke-width:1; fill:#FFFFFF; " description="hypothetical_protein[br]Location: 2933885 - 2934826" locus_tag="TRIVIDRAFT_216126" id="clusterblast-1_h63_6_2" points="57,90 58,90 63,85 58,80 57,80 57,90 " class="clusterblast-orf"  />
<polygon style="stroke:black; stroke-width:1; fill:#FFFFFF; " description="hypothetical_protein[br]Location: 2939827 - 2941069" locus_tag="TRIVIDRAFT_230724" id="clusterblast-1_h63_6_3" points="97,85 102,80 105,80 105,90 102,90 97,85 " class="clusterblast-orf"  />
<polygon style="stroke:black; stroke-width:1; fill:#FFFFFF; " description="hypothetical_protein[br]Location: 2942513 - 2943802" locus_tag="TRIVIDRAFT_53844" id="clusterblast-1_h63_6_4" points="115,90 119,90 124,85 119,80 115,80 115,90 " class="clusterblast-orf"  />
<polygon style="stroke:black; stroke-width:1; fill:#FFFFFF; " description="hypothetical_protein[br]Location: 2943939 - 2945402" locus_tag="TRIVIDRAFT_201263" id="clusterblast-1_h63_6_5" points="125,85 130,80 135,80 135,90 130,90 125,85 " class="clusterblast-orf"  />
<polygon style="stroke:black; stroke-width:1; fill:rgb(190,63,63); " description="putative_polyketide_synthase[br]Location: 2947633 - 2954310&lt;br&gt;&lt;br&gt;&lt;b&gt;BlastP hit with CHAFR746836_0051100.1&lt;/b&gt;&lt;br&gt;Percentage identity: 39%&lt;br&gt;Percentage coverage: 95%&lt;br&gt;BLAST bit score: 208&lt;br&gt;E-value: 6e-58" locus_tag="TRIVIDRAFT_222260" id="clusterblast-1_h63_6_6" points="150,90 190,90 195,85 190,80 150,80 150,90 " class="clusterblast-orf"  />
<polygon style="stroke:black; stroke-width:1; fill:#FFFFFF; " description="hypothetical_protein[br]Location: 2955018 - 2958290" locus_tag="TRIVIDRAFT_60181" id="clusterblast-1_h63_6_7" points="200,85 205,80 222,80 222,90 205,90 200,85 " class="clusterblast-orf"  />
<polygon style="stroke:black; stroke-width:1; fill:#FFFFFF; " description="hypothetical_protein[br]Location: 2958935 - 2960932" locus_tag="TRIVIDRAFT_60180" id="clusterblast-1_h63_6_8" points="226,85 231,80 240,80 240,90 231,90 226,85 " class="clusterblast-orf"  />
<polygon style="stroke:black; stroke-width:1; fill:#FFFFFF; " description="hypothetical_protein[br]Location: 2961143 - 2962970" locus_tag="TRIVIDRAFT_180162" id="clusterblast-1_h63_6_9" points="241,85 246,80 254,80 254,90 246,90 241,85 " class="clusterblast-orf"  />
<polygon style="stroke:black; stroke-width:1; fill:rgb(63,190,63); " description="hypothetical_protein[br]Location: 2963804 - 2965501&lt;br&gt;&lt;br&gt;&lt;b&gt;BlastP hit with CHAFR746836_0051120.1&lt;/b&gt;&lt;br&gt;Percentage identity: 44%&lt;br&gt;Percentage coverage: 86%&lt;br&gt;BLAST bit score: 435&lt;br&gt;E-value: 4e-144" locus_tag="TRIVIDRAFT_191595" id="clusterblast-1_h63_6_10" points="259,90 266,90 271,85 266,80 259,80 259,90 " class="clusterblast-orf"  />
<polygon style="stroke:black; stroke-width:1; fill:#FFFFFF; " description="hypothetical_protein[br]Location: 2966522 - 2967746" locus_tag="TRIVIDRAFT_29580" id="clusterblast-1_h63_6_11" points="278,85 283,80 286,80 286,90 283,90 278,85 " class="clusterblast-orf"  />
<polygon style="stroke:black; stroke-width:1; fill:#FFFFFF; " description="hypothetical_protein[br]Location: 2968309 - 2970608" locus_tag="TRIVIDRAFT_53838" id="clusterblast-1_h63_6_12" points="290,85 295,80 305,80 305,90 295,90 290,85 " class="clusterblast-orf"  />
<polygon style="stroke:black; stroke-width:1; fill:rgb(63,63,190); " description="putative_PKS-NRPS_protein[br]Location: 2971004 - 2982836&lt;br&gt;&lt;br&gt;&lt;b&gt;BlastP hit with CHAFR746836_0051100.1&lt;/b&gt;&lt;br&gt;Percentage identity: 63%&lt;br&gt;Percentage coverage: 95%&lt;br&gt;BLAST bit score: 431&lt;br&gt;E-value: 5e-135&lt;br&gt;&lt;br&gt;&lt;b&gt;BlastP hit with CHAFR746836_0051110.1&lt;/b&gt;&lt;br&gt;Percentage identity: 34%&lt;br&gt;Percentage coverage: 60%&lt;br&gt;BLAST bit score: 1174&lt;br&gt;E-value: 0.0" locus_tag="TRIVIDRAFT_28610" id="clusterblast-1_h63_6_13" points="308,90 383,90 388,85 383,80 308,80 308,90 " class="clusterblast-orf"  />
<polygon style="stroke:black; stroke-width:1; fill:#FFFFFF; " description="hypothetical_protein[br]Location: 2983409 - 2984659" locus_tag="TRIVIDRAFT_53837" id="clusterblast-1_h63_6_14" points="392,90 396,90 401,85 396,80 392,80 392,90 " class="clusterblast-orf"  />
<polygon style="stroke:black; stroke-width:1; fill:#FFFFFF; " description="hypothetical_protein[br]Location: 2985129 - 2986998" locus_tag="TRIVIDRAFT_60172" id="clusterblast-1_h63_6_15" points="404,85 409,80 416,80 416,90 409,90 404,85 " class="clusterblast-orf"  />
<polygon style="stroke:black; stroke-width:1; fill:#FFFFFF; " description="hypothetical_protein[br]Location: 2987924 - 2988892" locus_tag="TRIVIDRAFT_28484" id="clusterblast-1_h63_6_16" points="423,90 424,90 429,85 424,80 423,80 423,90 " class="clusterblast-orf"  />
<polygon style="stroke:black; stroke-width:1; fill:#FFFFFF; " description="hypothetical_protein[br]Location: 2990843 - 2992046" locus_tag="TRIVIDRAFT_28177" id="clusterblast-1_h63_6_17" points="442,85 447,80 451,80 451,90 447,90 442,85 " class="clusterblast-orf"  />
<polygon style="stroke:black; stroke-width:1; fill:#FFFFFF; " description="hypothetical_protein[br]Location: 2994448 - 2995716" locus_tag="TRIVIDRAFT_191602" id="clusterblast-1_h63_6_18" points="467,90 470,90 475,85 470,80 467,80 467,90 " class="clusterblast-orf"  />
<polygon style="stroke:black; stroke-width:1; fill:#FFFFFF; " description="hypothetical_protein[br]Location: 2996154 - 2997169" locus_tag="TRIVIDRAFT_60168" id="clusterblast-1_h63_6_19" points="478,85 483,80 485,80 485,90 483,90 478,85 " class="clusterblast-orf"  />
<polygon style="stroke:black; stroke-width:1; fill:#FFFFFF; " description="hypothetical_protein[br]Location: 2998532 - 3000465" locus_tag="TRIVIDRAFT_28724" id="clusterblast-1_h63_6_20" points="495,85 500,80 508,80 508,90 500,90 495,85 " class="clusterblast-orf"  />
<polygon style="stroke:black; stroke-width:1; fill:#FFFFFF; " description="hypothetical_protein[br]Location: 3001842 - 3003639" locus_tag="TRIVIDRAFT_28823" id="clusterblast-1_h63_6_21" points="517,90 524,90 529,85 524,80 517,80 517,90 " class="clusterblast-orf"  />
<polygon style="stroke:black; stroke-width:1; fill:#FFFFFF; " description="hypothetical_protein[br]Location: 3004139 - 3005743" locus_tag="TRIVIDRAFT_230726" id="clusterblast-1_h63_6_22" points="533,85 538,80 543,80 543,90 538,90 533,85 " class="clusterblast-orf"  />
<polygon style="stroke:black; stroke-width:1; fill:#FFFFFF; " description="hypothetical_protein[br]Location: 3006439 - 3007737" locus_tag="TRIVIDRAFT_201282" id="clusterblast-1_h63_6_23" points="548,90 552,90 557,85 552,80 548,80 548,90 " class="clusterblast-orf"  />
<polygon style="stroke:black; stroke-width:1; fill:rgb(63,63,190); " description="putative_PKS-NRPS_protein[br]Location: 3007775 - 3020453&lt;br&gt;&lt;br&gt;&lt;b&gt;BlastP hit with CHAFR746836_0051100.1&lt;/b&gt;&lt;br&gt;Percentage identity: 60%&lt;br&gt;Percentage coverage: 95%&lt;br&gt;BLAST bit score: 400&lt;br&gt;E-value: 2e-124&lt;br&gt;&lt;br&gt;&lt;b&gt;BlastP hit with CHAFR746836_0051110.1&lt;/b&gt;&lt;br&gt;Percentage identity: 32%&lt;br&gt;Percentage coverage: 102%&lt;br&gt;BLAST bit score: 1777&lt;br&gt;E-value: 0.0" locus_tag="TRIVIDRAFT_191605" id="clusterblast-1_h63_6_24" points="557,85 562,80 643,80 643,90 562,90 557,85 " class="clusterblast-orf"  />
<polygon style="stroke:black; stroke-width:1; fill:rgb(190,63,190); " description="hypothetical_protein[br]Location: 3021136 - 3021459&lt;br&gt;&lt;br&gt;&lt;b&gt;BlastP hit with CHAFR746836_0051130.1&lt;/b&gt;&lt;br&gt;Percentage identity: 39%&lt;br&gt;Percentage coverage: 20%&lt;br&gt;BLAST bit score: 94&lt;br&gt;E-value: 2e-21" locus_tag="TRIVIDRAFT_29262" id="clusterblast-1_h63_6_25" points="648,90 650,85 648,80 648,90 " class="clusterblast-orf"  />
<polygon style="stroke:black; stroke-width:1; fill:#FFFFFF; " description="hypothetical_protein[br]Location: 3022332 - 3023453" locus_tag="TRIVIDRAFT_60161" id="clusterblast-1_h63_6_26" points="656,85 661,80 663,80 663,90 661,90 656,85 " class="clusterblast-orf"  />
<polygon style="stroke:black; stroke-width:1; fill:#FFFFFF; " description="hypothetical_protein[br]Location: 3024226 - 3025360" locus_tag="TRIVIDRAFT_149423" id="clusterblast-1_h63_6_27" points="669,90 671,90 676,85 671,80 669,80 669,90 " class="clusterblast-orf"  />
<polygon style="stroke:black; stroke-width:1; fill:#FFFFFF; " description="hypothetical_protein[br]Location: 3026224 - 3027276" locus_tag="TRIVIDRAFT_60159" id="clusterblast-1_h63_6_28" points="682,90 684,90 689,85 684,80 682,80 682,90 " class="clusterblast-orf"  />
<polygon style="stroke:black; stroke-width:1; fill:#FFFFFF; " description="hypothetical_protein[br]Location: 3028992 - 3031155" locus_tag="TRIVIDRAFT_28132" id="clusterblast-1_h63_6_29" points="701,90 711,90 716,85 711,80 701,80 701,90 " class="clusterblast-orf"  />
<polygon style="stroke:black; stroke-width:1; fill:#FFFFFF; " description="hypothetical_protein[br]Location: 3032060 - 3032848" locus_tag="TRIVIDRAFT_29068" id="clusterblast-1_h63_6_30" points="722,90 722,90 727,85 722,80 722,80 722,90 " class="clusterblast-orf"  />
<polygon style="stroke:black; stroke-width:1; fill:#FFFFFF; " description="hypothetical_protein[br]Location: 3034647 - 3034955" locus_tag="TRIVIDRAFT_28184" id="clusterblast-1_h63_6_31" points="739,90 741,85 739,80 739,90 " class="clusterblast-orf"  />
<polygon style="stroke:black; stroke-width:1; fill:#FFFFFF; " description="hypothetical_protein[br]Location: 3035843 - 3036837" locus_tag="TRIVIDRAFT_209304" id="clusterblast-1_h63_6_32" points="747,85 752,80 754,80 754,90 752,90 747,85 " class="clusterblast-orf"  />
<polygon style="stroke:black; stroke-width:1; fill:#FFFFFF; " description="hypothetical_protein[br]Location: 3037498 - 3038835" locus_tag="TRIVIDRAFT_29230" id="clusterblast-1_h63_6_33" points="758,90 763,90 768,85 763,80 758,80 758,90 " class="clusterblast-orf"  />
<polygon style="stroke:black; stroke-width:1; fill:#FFFFFF; " description="hypothetical_protein[br]Location: 3039146 - 3040304" locus_tag="TRIVIDRAFT_28826" id="clusterblast-1_h63_6_34" points="770,85 775,80 778,80 778,90 775,90 770,85 " class="clusterblast-orf"  />
</g>
</svg>
