<svg xmlns="http://www.w3.org/2000/svg" height="230" width="800" version="1.1" y="0" x="0" preserveAspectRatio="none" xmlns:xlink="http://www.w3.org/1999/xlink" viewBox="0 0 800 230"  >
<g class="clusterblast-cluster" label="Query sequence"  >
<text class="clusterblast-acc" y="10" x="5"  >
Query sequence</text>
<line y1="35" x2="778.0" style="stroke:grey; stroke-width:1; " x1="10" y2="35"  />
<polygon style="stroke:black; stroke-width:1; fill:#FFFFFF; " description="unannotated orf[br]Location: 1013 - 2670" locus_tag="CHAFR746836_0031900.1" class="clusterblast-orf" points="10,35 15,30 19,30 19,40 15,40 10,35 " id="clusterblast-2_q45_1_0"  />
<polygon style="stroke:black; stroke-width:1; fill:#FFFFFF; " description="unannotated orf[br]Location: 5806 - 8080" locus_tag="CHAFR746836_0031910.1" class="clusterblast-orf" points="36,40 44,40 49,35 44,30 36,30 36,40 " id="clusterblast-2_q45_1_1"  />
<polygon style="stroke:black; stroke-width:1; fill:rgb(190,63,63); " description="unannotated orf[br]Location: 14959 - 16522" locus_tag="CHAFR746836_0031920.1" class="clusterblast-orf" points="87,35 92,30 96,30 96,40 92,40 87,35 " id="clusterblast-2_q45_1_2"  />
<polygon style="stroke:black; stroke-width:1; fill:rgb(63,63,190); " description="unannotated orf[br]Location: 18634 - 27051" locus_tag="CHAFR746836_0031930.1" class="clusterblast-orf" points="108,35 113,30 155,30 155,40 113,40 108,35 " id="clusterblast-2_q45_1_3"  />
<polygon style="stroke:black; stroke-width:1; fill:rgb(63,190,63); " description="unannotated orf[br]Location: 28690 - 31017" locus_tag="CHAFR746836_0031940.1" class="clusterblast-orf" points="164,35 169,30 177,30 177,40 169,40 164,35 " id="clusterblast-2_q45_1_4"  />
<polygon style="stroke:black; stroke-width:1; fill:rgb(190,63,190); " description="unannotated orf[br]Location: 31821 - 32686" locus_tag="CHAFR746836_0031950.1" class="clusterblast-orf" points="182,40 186,35 182,30 182,40 " id="clusterblast-2_q45_1_5"  />
<polygon style="stroke:black; stroke-width:1; fill:#FFFFFF; " description="unannotated orf[br]Location: 33127 - 34136" locus_tag="CHAFR746836_0031960.1" class="clusterblast-orf" points="189,35 194,30 195,30 195,40 194,40 189,35 " id="clusterblast-2_q45_1_6"  />
<polygon style="stroke:black; stroke-width:1; fill:#FFFFFF; " description="unannotated orf[br]Location: 34492 - 36671" locus_tag="CHAFR746836_0031970.1" class="clusterblast-orf" points="197,40 204,40 209,35 204,30 197,30 197,40 " id="clusterblast-2_q45_1_7"  />
<polygon style="stroke:black; stroke-width:1; fill:#FFFFFF; " description="unannotated orf[br]Location: 90516 - 91329" locus_tag="CHAFR746836_0031980.1" class="clusterblast-orf" points="510,40 514,35 510,30 510,40 " id="clusterblast-2_q45_1_8"  />
<polygon style="stroke:black; stroke-width:1; fill:#FFFFFF; " description="unannotated orf[br]Location: 95107 - 95607" locus_tag="CHAFR746836_0031990.1" class="clusterblast-orf" points="535,35 538,30 538,40 535,35 " id="clusterblast-2_q45_1_9"  />
<polygon style="stroke:black; stroke-width:1; fill:#FFFFFF; " description="unannotated orf[br]Location: 98154 - 98987" locus_tag="CHAFR746836_0032000.1" class="clusterblast-orf" points="552,40 552,40 557,35 552,30 552,30 552,40 " id="clusterblast-2_q45_1_10"  />
<polygon style="stroke:black; stroke-width:1; fill:#FFFFFF; " description="unannotated orf[br]Location: 110556 - 112350" locus_tag="CHAFR746836_0032010.1" class="clusterblast-orf" points="622,35 627,30 632,30 632,40 627,40 622,35 " id="clusterblast-2_q45_1_11"  />
<polygon style="stroke:black; stroke-width:1; fill:rgb(190,190,63); " description="unannotated orf[br]Location: 112800 - 115534" locus_tag="CHAFR746836_0032020.1" class="clusterblast-orf" points="634,40 644,40 649,35 644,30 634,30 634,40 " id="clusterblast-2_q45_1_12"  />
<polygon style="stroke:black; stroke-width:1; fill:rgb(190,190,190); " description="unannotated orf[br]Location: 116249 - 122294" locus_tag="CHAFR746836_0032030.1" class="clusterblast-orf" points="653,40 682,40 687,35 682,30 653,30 653,40 " id="clusterblast-2_q45_1_13"  />
<polygon style="stroke:black; stroke-width:1; fill:rgb(63,190,190); " description="unannotated orf[br]Location: 126098 - 127042" locus_tag="CHAFR746836_0032040.1" class="clusterblast-orf" points="708,35 713,30 714,30 714,40 713,40 708,35 " id="clusterblast-2_q45_1_14"  />
<polygon style="stroke:black; stroke-width:1; fill:rgb(63,63,63); " description="unannotated orf[br]Location: 128617 - 129857" locus_tag="CHAFR746836_0032050.1" class="clusterblast-orf" points="723,40 724,40 729,35 724,30 723,30 723,40 " id="clusterblast-2_q45_1_15"  />
<polygon style="stroke:black; stroke-width:1; fill:#FFFFFF; " description="unannotated orf[br]Location: 132905 - 135667" locus_tag="CHAFR746836_0032060.1" class="clusterblast-orf" points="746,40 757,40 762,35 757,30 746,30 746,40 " id="clusterblast-2_q45_1_16"  />
<polygon style="stroke:black; stroke-width:1; fill:#FFFFFF; " description="unannotated orf[br]Location: 137047 - 138460" locus_tag="CHAFR746836_0032070.1" class="clusterblast-orf" points="770,35 775,30 778,30 778,40 775,40 770,35 " id="clusterblast-2_q45_1_17"  />
</g>
<g class="clusterblast-cluster" description="Aspergillus kawachii IFO 4308 DNA, contig: scaffold00005, wh..." label="DF126451.1_c1"  >
<text class="clusterblast-acc" y="60" x="5"  >
DF126451.1_c1</text>
<text class="clusterblast-desc" y="60" x="460.8"  >
Aspergillus kawachii IFO 4308 DNA, contig: scaffold00005, wh...</text>
<line y1="85" x2="778.0" style="stroke:grey; stroke-width:1; " x1="10" y2="85"  />
<polygon style="stroke:black; stroke-width:1; fill:#FFFFFF; " description="mitochondrial_DNA_replication_protein[br]Location: 896003 - 897149" locus_tag="AKAW_02589" id="clusterblast-2_h45_1_0" points="207,85 212,80 213,80 213,90 212,90 207,85 " class="clusterblast-orf"  />
<polygon style="stroke:black; stroke-width:1; fill:#FFFFFF; " description="hypothetical_protein[br]Location: 897452 - 898520" locus_tag="AKAW_02590" id="clusterblast-2_h45_1_1" points="215,90 216,90 221,85 216,80 215,80 215,90 " class="clusterblast-orf"  />
<polygon style="stroke:black; stroke-width:1; fill:#FFFFFF; " description="hypothetical_protein[br]Location: 899020 - 900843" locus_tag="AKAW_02591" id="clusterblast-2_h45_1_2" points="223,90 229,90 234,85 229,80 223,80 223,90 " class="clusterblast-orf"  />
<polygon style="stroke:black; stroke-width:1; fill:#FFFFFF; " description="DUF453_domain_protein[br]Location: 901402 - 902547" locus_tag="AKAW_02592" id="clusterblast-2_h45_1_3" points="237,90 238,90 243,85 238,80 237,80 237,90 " class="clusterblast-orf"  />
<polygon style="stroke:black; stroke-width:1; fill:#FFFFFF; " description="aconitase[br]Location: 903289 - 907560" locus_tag="AKAW_02593" id="clusterblast-2_h45_1_4" points="247,90 266,90 271,85 266,80 247,80 247,90 " class="clusterblast-orf"  />
<polygon style="stroke:black; stroke-width:1; fill:#FFFFFF; " description="aminotransferase[br]Location: 907617 - 908921" locus_tag="AKAW_02594" id="clusterblast-2_h45_1_5" points="271,85 276,80 279,80 279,90 276,90 271,85 " class="clusterblast-orf"  />
<polygon style="stroke:black; stroke-width:1; fill:#FFFFFF; " description="hypothetical_protein[br]Location: 910431 - 911678" locus_tag="AKAW_02595" id="clusterblast-2_h45_1_6" points="287,85 292,80 294,80 294,90 292,90 287,85 " class="clusterblast-orf"  />
<polygon style="stroke:black; stroke-width:1; fill:#FFFFFF; " description="hypothetical_protein[br]Location: 913942 - 915075" locus_tag="AKAW_02596" id="clusterblast-2_h45_1_7" points="307,85 312,80 313,80 313,90 312,90 307,85 " class="clusterblast-orf"  />
<polygon style="stroke:black; stroke-width:1; fill:#FFFFFF; " description="squalene_synthetase[br]Location: 915713 - 916881" locus_tag="AKAW_02597" id="clusterblast-2_h45_1_8" points="317,85 322,80 323,80 323,90 322,90 317,85 " class="clusterblast-orf"  />
<polygon style="stroke:black; stroke-width:1; fill:#FFFFFF; " description="hypothetical_protein[br]Location: 918488 - 919397" locus_tag="AKAW_02598" id="clusterblast-2_h45_1_9" points="332,90 332,90 337,85 332,80 332,80 332,90 " class="clusterblast-orf"  />
<polygon style="stroke:black; stroke-width:1; fill:#FFFFFF; " description="similar_to_glutathione_S-transferase[br]Location: 919513 - 920361" locus_tag="AKAW_02599" id="clusterblast-2_h45_1_10" points="338,85 343,80 343,80 343,90 343,90 338,85 " class="clusterblast-orf"  />
<polygon style="stroke:black; stroke-width:1; fill:#FFFFFF; " description="short-chain_dehydrogenase/reductase_family[br]Location: 921089 - 922170" locus_tag="AKAW_02600" id="clusterblast-2_h45_1_11" points="347,85 352,80 353,80 353,90 352,90 347,85 " class="clusterblast-orf"  />
<polygon style="stroke:black; stroke-width:1; fill:#FFFFFF; " description="similar_to_An02g10960[br]Location: 922644 - 923996" locus_tag="AKAW_02601" id="clusterblast-2_h45_1_12" points="355,85 360,80 363,80 363,90 360,90 355,85 " class="clusterblast-orf"  />
<polygon style="stroke:black; stroke-width:1; fill:#FFFFFF; " description="cytochrome_P450[br]Location: 925279 - 927064" locus_tag="AKAW_02602" id="clusterblast-2_h45_1_13" points="370,90 375,90 380,85 375,80 370,80 370,90 " class="clusterblast-orf"  />
<polygon style="stroke:black; stroke-width:1; fill:#FFFFFF; " description="NADH_oxidase[br]Location: 927644 - 928891" locus_tag="AKAW_02603" id="clusterblast-2_h45_1_14" points="383,90 385,90 390,85 385,80 383,80 383,90 " class="clusterblast-orf"  />
<polygon style="stroke:black; stroke-width:1; fill:#FFFFFF; " description="amine_oxidase[br]Location: 929069 - 931252" locus_tag="AKAW_02604" id="clusterblast-2_h45_1_15" points="391,85 396,80 403,80 403,90 396,90 391,85 " class="clusterblast-orf"  />
<polygon style="stroke:black; stroke-width:1; fill:rgb(63,63,190); " description="polyketide_synthase[br]Location: 934962 - 944162&lt;br&gt;&lt;br&gt;&lt;b&gt;BlastP hit with CHAFR746836_0031930.1&lt;/b&gt;&lt;br&gt;Percentage identity: 47%&lt;br&gt;Percentage coverage: 101%&lt;br&gt;BLAST bit score: 2303&lt;br&gt;E-value: 0.0" locus_tag="AKAW_02605" id="clusterblast-2_h45_1_16" points="424,90 471,90 476,85 471,80 424,80 424,90 " class="clusterblast-orf"  />
<polygon style="stroke:black; stroke-width:1; fill:#FFFFFF; " description="carboxylesterase[br]Location: 945938 - 947646" locus_tag="AKAW_02606" id="clusterblast-2_h45_1_17" points="486,85 491,80 495,80 495,90 491,90 486,85 " class="clusterblast-orf"  />
<polygon style="stroke:black; stroke-width:1; fill:rgb(63,190,63); " description="hypothetical_protein[br]Location: 949996 - 951282&lt;br&gt;&lt;br&gt;&lt;b&gt;BlastP hit with CHAFR746836_0031940.1&lt;/b&gt;&lt;br&gt;Percentage identity: 40%&lt;br&gt;Percentage coverage: 54%&lt;br&gt;BLAST bit score: 200&lt;br&gt;E-value: 8e-57" locus_tag="AKAW_02607" id="clusterblast-2_h45_1_18" points="508,90 510,90 515,85 510,80 508,80 508,90 " class="clusterblast-orf"  />
<polygon style="stroke:black; stroke-width:1; fill:rgb(190,63,190); " description="hypothetical_protein[br]Location: 951853 - 952662&lt;br&gt;&lt;br&gt;&lt;b&gt;BlastP hit with CHAFR746836_0031950.1&lt;/b&gt;&lt;br&gt;Percentage identity: 50%&lt;br&gt;Percentage coverage: 100%&lt;br&gt;BLAST bit score: 267&lt;br&gt;E-value: 3e-87" locus_tag="AKAW_02608" id="clusterblast-2_h45_1_19" points="519,90 523,85 519,80 519,90 " class="clusterblast-orf"  />
<polygon style="stroke:black; stroke-width:1; fill:#FFFFFF; " description="similar_to_An02g10860[br]Location: 954141 - 954701" locus_tag="AKAW_02609" id="clusterblast-2_h45_1_20" points="531,85 534,80 534,90 531,85 " class="clusterblast-orf"  />
<polygon style="stroke:black; stroke-width:1; fill:#FFFFFF; " description="hypothetical_protein[br]Location: 957584 - 958925" locus_tag="AKAW_02610" id="clusterblast-2_h45_1_21" points="551,90 553,90 558,85 553,80 551,80 551,90 " class="clusterblast-orf"  />
<polygon style="stroke:black; stroke-width:1; fill:rgb(190,63,63); " description="benzoate_4-monooxygenase_cytochrome_P450[br]Location: 959010 - 960680&lt;br&gt;&lt;br&gt;&lt;b&gt;BlastP hit with CHAFR746836_0031920.1&lt;/b&gt;&lt;br&gt;Percentage identity: 32%&lt;br&gt;Percentage coverage: 39%&lt;br&gt;BLAST bit score: 80&lt;br&gt;E-value: 2e-15" locus_tag="AKAW_02611" id="clusterblast-2_h45_1_22" points="559,85 564,80 568,80 568,90 564,90 559,85 " class="clusterblast-orf"  />
<polygon style="stroke:black; stroke-width:1; fill:#FFFFFF; " description="major_facilitator_superfamily_transporter[br]Location: 961204 - 962803" locus_tag="AKAW_02612" id="clusterblast-2_h45_1_23" points="571,85 576,80 580,80 580,90 576,90 571,85 " class="clusterblast-orf"  />
</g>
</svg>
