<svg xmlns="http://www.w3.org/2000/svg" height="230" width="800" version="1.1" y="0" x="0" preserveAspectRatio="none" xmlns:xlink="http://www.w3.org/1999/xlink" viewBox="0 0 800 230"  >
<g class="clusterblast-cluster" label="Query sequence"  >
<text class="clusterblast-acc" y="10" x="5"  >
Query sequence</text>
<line y1="35" x2="778.0" style="stroke:grey; stroke-width:1; " x1="10" y2="35"  />
<polygon style="stroke:black; stroke-width:1; fill:#FFFFFF; " description="unannotated orf[br]Location: 215284 - 216006" locus_tag="CHAFR746836_0067220.1" class="clusterblast-orf" points="213,40 215,40 220,35 215,30 213,30 213,40 " id="clusterblast-1_q7_4_0"  />
<polygon style="stroke:black; stroke-width:1; fill:#FFFFFF; " description="unannotated orf[br]Location: 224693 - 224914" locus_tag="CHAFR746836_0067230.1" class="clusterblast-orf" points="313,35 315,30 315,40 313,35 " id="clusterblast-1_q7_4_1"  />
<polygon style="stroke:black; stroke-width:1; fill:red; " description="unannotated orf[br]Location: 228611 - 236326" locus_tag="CHAFR746836_0067240.1" class="clusterblast-orf" points="355,35 360,30 437,30 437,40 360,40 355,35 " id="clusterblast-1_q7_4_2"  />
<polygon style="stroke:black; stroke-width:1; fill:green; " description="unannotated orf[br]Location: 237740 - 238731" locus_tag="CHAFR746836_0067250.1" class="clusterblast-orf" points="452,40 458,40 463,35 458,30 452,30 452,40 " id="clusterblast-1_q7_4_3"  />
<polygon style="stroke:black; stroke-width:1; fill:blue; " description="unannotated orf[br]Location: 238911 - 240394" locus_tag="CHAFR746836_0067260.1" class="clusterblast-orf" points="465,35 470,30 481,30 481,40 470,40 465,35 " id="clusterblast-1_q7_4_4"  />
<polygon style="stroke:black; stroke-width:1; fill:yellow; " description="unannotated orf[br]Location: 240782 - 242473" locus_tag="CHAFR746836_0067270.1" class="clusterblast-orf" points="485,35 490,30 503,30 503,40 490,40 485,35 " id="clusterblast-1_q7_4_5"  />
<polygon style="stroke:black; stroke-width:1; fill:#FFFFFF; " description="unannotated orf[br]Location: 242970 - 243933" locus_tag="CHAFR746836_0067280.1" class="clusterblast-orf" points="508,40 513,40 518,35 513,30 508,30 508,40 " id="clusterblast-1_q7_4_6"  />
<polygon style="stroke:black; stroke-width:1; fill:#FFFFFF; " description="unannotated orf[br]Location: 244594 - 245945" locus_tag="CHAFR746836_0067290.1" class="clusterblast-orf" points="526,40 535,40 540,35 535,30 526,30 526,40 " id="clusterblast-1_q7_4_7"  />
<polygon style="stroke:black; stroke-width:1; fill:#FFFFFF; " description="unannotated orf[br]Location: 246456 - 248994" locus_tag="CHAFR746836_0067300.1" class="clusterblast-orf" points="545,40 568,40 573,35 568,30 545,30 545,40 " id="clusterblast-1_q7_4_8"  />
</g>
<g class="clusterblast-cluster" description="Aspergillus niger ATCC 1015, whole genome shotgun sequen..." label="ACJE01000019.1_c6"  >
<text class="clusterblast-acc" y="60" x="5"  >
ACJE01000019.1_c6</text>
<text class="clusterblast-desc" y="60" x="460.8"  >
Aspergillus niger ATCC 1015, whole genome shotgun sequen...</text>
<line y1="85" x2="778.0" style="stroke:grey; stroke-width:1; " x1="10" y2="85"  />
<polygon style="stroke:black; stroke-width:1; fill:#FFFFFF; " description="hypothetical_protein[br]Location: 1398443 - 1401256" locus_tag="ASPNIDRAFT_39106" id="clusterblast-1_h7_4_0" points="10,85 15,80 40,80 40,90 15,90 10,85 " class="clusterblast-orf"  />
<polygon style="stroke:black; stroke-width:1; fill:#FFFFFF; " description="hypothetical_protein[br]Location: 1403391 - 1404659" locus_tag="ASPNIDRAFT_39107" id="clusterblast-1_h7_4_1" points="62,90 71,90 76,85 71,80 62,80 62,90 " class="clusterblast-orf"  />
<polygon style="stroke:black; stroke-width:1; fill:#FFFFFF; " description="hypothetical_protein[br]Location: 1405210 - 1405833" locus_tag="ASPNIDRAFT_39108" id="clusterblast-1_h7_4_2" points="82,85 87,80 88,80 88,90 87,90 82,85 " class="clusterblast-orf"  />
<polygon style="stroke:black; stroke-width:1; fill:#FFFFFF; " description="hypothetical_protein[br]Location: 1407304 - 1409294" locus_tag="ASPNIDRAFT_39109" id="clusterblast-1_h7_4_3" points="104,90 120,90 125,85 120,80 104,80 104,90 " class="clusterblast-orf"  />
<polygon style="stroke:black; stroke-width:1; fill:#FFFFFF; " description="hypothetical_protein[br]Location: 1409713 - 1410889" locus_tag="ASPNIDRAFT_199345" id="clusterblast-1_h7_4_4" points="130,90 137,90 142,85 137,80 130,80 130,90 " class="clusterblast-orf"  />
<polygon style="stroke:black; stroke-width:1; fill:#FFFFFF; " description="hypothetical_protein[br]Location: 1411162 - 1411965" locus_tag="ASPNIDRAFT_47986" id="clusterblast-1_h7_4_5" points="145,90 149,90 154,85 149,80 145,80 145,90 " class="clusterblast-orf"  />
<polygon style="stroke:black; stroke-width:1; fill:#FFFFFF; " description="hypothetical_protein[br]Location: 1412079 - 1414125" locus_tag="ASPNIDRAFT_179660" id="clusterblast-1_h7_4_6" points="155,85 160,80 177,80 177,90 160,90 155,85 " class="clusterblast-orf"  />
<polygon style="stroke:black; stroke-width:1; fill:#FFFFFF; " description="hypothetical_protein[br]Location: 1414375 - 1415615" locus_tag="ASPNIDRAFT_47987" id="clusterblast-1_h7_4_7" points="180,85 185,80 193,80 193,90 185,90 180,85 " class="clusterblast-orf"  />
<polygon style="stroke:black; stroke-width:1; fill:#FFFFFF; " description="hypothetical_protein[br]Location: 1416026 - 1416467" locus_tag="ASPNIDRAFT_39113" id="clusterblast-1_h7_4_8" points="197,85 202,80 202,80 202,90 202,90 197,85 " class="clusterblast-orf"  />
<polygon style="stroke:black; stroke-width:1; fill:#FFFFFF; " description="non-ribosomal_peptide_synthetase[br]Location: 1418556 - 1421801" locus_tag="ASPNIDRAFT_39114" id="clusterblast-1_h7_4_9" points="224,90 254,90 259,85 254,80 224,80 224,90 " class="clusterblast-orf"  />
<polygon style="stroke:black; stroke-width:1; fill:#FFFFFF; " description="hypothetical_protein[br]Location: 1423040 - 1428156" locus_tag="ASPNIDRAFT_128905" id="clusterblast-1_h7_4_10" points="272,90 322,90 327,85 322,80 272,80 272,90 " class="clusterblast-orf"  />
<polygon style="stroke:black; stroke-width:1; fill:#FFFFFF; " description="hypothetical_protein[br]Location: 1429458 - 1432963" locus_tag="ASPNIDRAFT_39117" id="clusterblast-1_h7_4_11" points="341,85 346,80 378,80 378,90 346,90 341,85 " class="clusterblast-orf"  />
<polygon style="stroke:black; stroke-width:1; fill:#FFFFFF; " description="hypothetical_protein[br]Location: 1434870 - 1437372" locus_tag="ASPNIDRAFT_178964" id="clusterblast-1_h7_4_12" points="399,85 404,80 425,80 425,90 404,90 399,85 " class="clusterblast-orf"  />
<polygon style="stroke:black; stroke-width:1; fill:yellow; " description="hypothetical_protein[br]Location: 1437818 - 1439425&lt;br&gt;&lt;br&gt;&lt;b&gt;BlastP hit with CHAFR746836_0067270.1&lt;/b&gt;&lt;br&gt;Percentage identity: 48%&lt;br&gt;Percentage coverage: 97%&lt;br&gt;BLAST bit score: 520&lt;br&gt;E-value: 3e-178" locus_tag="ASPNIDRAFT_179508" id="clusterblast-1_h7_4_13" points="430,85 435,80 447,80 447,90 435,90 430,85 " class="clusterblast-orf"  />
<polygon style="stroke:black; stroke-width:1; fill:blue; " description="hypothetical_protein[br]Location: 1439861 - 1441213&lt;br&gt;&lt;br&gt;&lt;b&gt;BlastP hit with CHAFR746836_0067260.1&lt;/b&gt;&lt;br&gt;Percentage identity: 49%&lt;br&gt;Percentage coverage: 91%&lt;br&gt;BLAST bit score: 437&lt;br&gt;E-value: 6e-149" locus_tag="ASPNIDRAFT_179151" id="clusterblast-1_h7_4_14" points="452,85 457,80 466,80 466,90 457,90 452,85 " class="clusterblast-orf"  />
<polygon style="stroke:black; stroke-width:1; fill:red; " description="hypothetical_protein[br]Location: 1442359 - 1449970&lt;br&gt;&lt;br&gt;&lt;b&gt;BlastP hit with CHAFR746836_0067240.1&lt;/b&gt;&lt;br&gt;Percentage identity: 46%&lt;br&gt;Percentage coverage: 99%&lt;br&gt;BLAST bit score: 2135&lt;br&gt;E-value: 0.0" locus_tag="ASPNIDRAFT_47991" id="clusterblast-1_h7_4_15" points="479,90 555,90 560,85 555,80 479,80 479,90 " class="clusterblast-orf"  />
<polygon style="stroke:black; stroke-width:1; fill:#FFFFFF; " description="glucose_oxidase[br]Location: 1451341 - 1453234" locus_tag="ASPNIDRAFT_179579" id="clusterblast-1_h7_4_16" points="574,85 579,80 595,80 595,90 579,90 574,85 " class="clusterblast-orf"  />
<polygon style="stroke:black; stroke-width:1; fill:#FFFFFF; " description="hypothetical_protein[br]Location: 1454560 - 1456221" locus_tag="ASPNIDRAFT_208861" id="clusterblast-1_h7_4_17" points="609,85 614,80 627,80 627,90 614,90 609,85 " class="clusterblast-orf"  />
<polygon style="stroke:black; stroke-width:1; fill:#FFFFFF; " description="hypothetical_protein[br]Location: 1457276 - 1457871" locus_tag="ASPNIDRAFT_135884" id="clusterblast-1_h7_4_18" points="638,90 639,90 644,85 639,80 638,80 638,90 " class="clusterblast-orf"  />
<polygon style="stroke:black; stroke-width:1; fill:#FFFFFF; " description="hypothetical_protein[br]Location: 1458127 - 1459029" locus_tag="ASPNIDRAFT_39124" id="clusterblast-1_h7_4_19" points="647,85 652,80 657,80 657,90 652,90 647,85 " class="clusterblast-orf"  />
<polygon style="stroke:black; stroke-width:1; fill:#FFFFFF; " description="hypothetical_protein[br]Location: 1459247 - 1460404" locus_tag="ASPNIDRAFT_124897" id="clusterblast-1_h7_4_20" points="659,90 666,90 671,85 666,80 659,80 659,90 " class="clusterblast-orf"  />
<polygon style="stroke:black; stroke-width:1; fill:#FFFFFF; " description="hypothetical_protein[br]Location: 1462122 - 1463108" locus_tag="ASPNIDRAFT_143109" id="clusterblast-1_h7_4_21" points="690,85 695,80 700,80 700,90 695,90 690,85 " class="clusterblast-orf"  />
<polygon style="stroke:black; stroke-width:1; fill:#FFFFFF; " description="hypothetical_protein[br]Location: 1468630 - 1470353" locus_tag="ASPNIDRAFT_39128" id="clusterblast-1_h7_4_22" points="759,90 773,90 778,85 773,80 759,80 759,90 " class="clusterblast-orf"  />
</g>
</svg>
