<svg xmlns="http://www.w3.org/2000/svg" height="230" width="800" version="1.1" y="0" x="0" preserveAspectRatio="none" xmlns:xlink="http://www.w3.org/1999/xlink" viewBox="0 0 800 230"  >
<g class="clusterblast-cluster" label="Query sequence"  >
<text class="clusterblast-acc" y="10" x="5"  >
Query sequence</text>
<line y1="35" x2="778.0" style="stroke:grey; stroke-width:1; " x1="10" y2="35"  />
<polygon style="stroke:black; stroke-width:1; fill:#FFFFFF; " description="unannotated orf[br]Location: 0 - 322" locus_tag="CHAFR746836_0040870.1" class="clusterblast-orf" points="239,35 240,30 240,40 239,35 " id="clusterblast-1_q53_9_0"  />
<polygon style="stroke:black; stroke-width:1; fill:#FFFFFF; " description="unannotated orf[br]Location: 690 - 1609" locus_tag="CHAFR746836_0040880.1" class="clusterblast-orf" points="241,40 245,35 241,30 241,40 " id="clusterblast-1_q53_9_1"  />
<polygon style="stroke:black; stroke-width:1; fill:#FFFFFF; " description="unannotated orf[br]Location: 1917 - 2487" locus_tag="CHAFR746836_0040890.1" class="clusterblast-orf" points="246,35 248,30 248,40 246,35 " id="clusterblast-1_q53_9_2"  />
<polygon style="stroke:black; stroke-width:1; fill:#FFFFFF; " description="unannotated orf[br]Location: 2829 - 4095" locus_tag="CHAFR746836_0040900.1" class="clusterblast-orf" points="250,40 250,40 255,35 250,30 250,30 250,40 " id="clusterblast-1_q53_9_3"  />
<polygon style="stroke:black; stroke-width:1; fill:red; " description="unannotated orf[br]Location: 4748 - 6053" locus_tag="CHAFR746836_0040910.1" class="clusterblast-orf" points="257,40 257,40 262,35 257,30 257,30 257,40 " id="clusterblast-1_q53_9_4"  />
<polygon style="stroke:black; stroke-width:1; fill:green; " description="unannotated orf[br]Location: 5316 - 6053" locus_tag="CHAFR746836_0040910.2" class="clusterblast-orf" points="259,40 262,35 259,30 259,40 " id="clusterblast-1_q53_9_5"  />
<polygon style="stroke:black; stroke-width:1; fill:#FFFFFF; " description="unannotated orf[br]Location: 19247 - 21227" locus_tag="CHAFR746836_0040920.1" class="clusterblast-orf" points="314,35 319,30 322,30 322,40 319,40 314,35 " id="clusterblast-1_q53_9_6"  />
<polygon style="stroke:black; stroke-width:1; fill:#FFFFFF; " description="unannotated orf[br]Location: 22480 - 23723" locus_tag="CHAFR746836_0040930.1" class="clusterblast-orf" points="327,35 332,30 332,30 332,40 332,40 327,35 " id="clusterblast-1_q53_9_7"  />
<polygon style="stroke:black; stroke-width:1; fill:#FFFFFF; " description="unannotated orf[br]Location: 24447 - 25229" locus_tag="CHAFR746836_0040940.1" class="clusterblast-orf" points="335,40 338,35 335,30 335,40 " id="clusterblast-1_q53_9_8"  />
<polygon style="stroke:black; stroke-width:1; fill:blue; " description="unannotated orf[br]Location: 26989 - 36831" locus_tag="CHAFR746836_0040950.1" class="clusterblast-orf" points="345,40 378,40 383,35 378,30 345,30 345,40 " id="clusterblast-1_q53_9_9"  />
<polygon style="stroke:black; stroke-width:1; fill:#FFFFFF; " description="unannotated orf[br]Location: 37202 - 38681" locus_tag="CHAFR746836_0040960.1" class="clusterblast-orf" points="385,35 390,30 391,30 391,40 390,40 385,35 " id="clusterblast-1_q53_9_10"  />
<polygon style="stroke:black; stroke-width:1; fill:#FFFFFF; " description="unannotated orf[br]Location: 39268 - 43358" locus_tag="CHAFR746836_0040970.1" class="clusterblast-orf" points="393,35 398,30 409,30 409,40 398,40 393,35 " id="clusterblast-1_q53_9_11"  />
<polygon style="stroke:black; stroke-width:1; fill:#FFFFFF; " description="unannotated orf[br]Location: 44144 - 49961" locus_tag="CHAFR746836_0040980.1" class="clusterblast-orf" points="412,40 430,40 435,35 430,30 412,30 412,40 " id="clusterblast-1_q53_9_12"  />
<polygon style="stroke:black; stroke-width:1; fill:#FFFFFF; " description="unannotated orf[br]Location: 60900 - 62027" locus_tag="CHAFR746836_0040990.1" class="clusterblast-orf" points="478,40 478,40 483,35 478,30 478,30 478,40 " id="clusterblast-1_q53_9_13"  />
<polygon style="stroke:black; stroke-width:1; fill:#FFFFFF; " description="unannotated orf[br]Location: 67062 - 68025" locus_tag="CHAFR746836_0041000.1" class="clusterblast-orf" points="502,40 506,35 502,30 502,40 " id="clusterblast-1_q53_9_14"  />
<polygon style="stroke:black; stroke-width:1; fill:#FFFFFF; " description="unannotated orf[br]Location: 70299 - 71348" locus_tag="CHAFR746836_0041010.1" class="clusterblast-orf" points="515,40 519,35 515,30 515,40 " id="clusterblast-1_q53_9_15"  />
<polygon style="stroke:black; stroke-width:1; fill:#FFFFFF; " description="unannotated orf[br]Location: 73436 - 77093" locus_tag="CHAFR746836_0041020.1" class="clusterblast-orf" points="527,35 532,30 542,30 542,40 532,40 527,35 " id="clusterblast-1_q53_9_16"  />
<polygon style="stroke:black; stroke-width:1; fill:yellow; " description="unannotated orf[br]Location: 77315 - 78384" locus_tag="CHAFR746836_0041030.1" class="clusterblast-orf" points="543,40 547,35 543,30 543,40 " id="clusterblast-1_q53_9_17"  />
</g>
<g class="clusterblast-cluster" description="Streptomyces rochei 7434AN4 plasmid pSLA2-L, complete seque..." label="NC_004808.2_c1"  >
<text class="clusterblast-acc" y="60" x="5"  >
NC_004808.2_c1</text>
<text class="clusterblast-desc" y="60" x="460.8"  >
Streptomyces rochei 7434AN4 plasmid pSLA2-L, complete seque...</text>
<line y1="85" x2="778.0" style="stroke:grey; stroke-width:1; " x1="10" y2="85"  />
<polygon style="stroke:black; stroke-width:1; fill:#FFFFFF; " description="hypothetical_protein[br]Location: 194051 - 195889" locus_tag="pSLA2-L_p130" id="clusterblast-1_h53_9_0" points="10,90 12,90 17,85 12,80 10,80 10,90 " class="clusterblast-orf"  />
<polygon style="stroke:black; stroke-width:1; fill:#FFFFFF; " description="hypothetical_protein[br]Location: 193450 - 193995" locus_tag="pSLA2-L_p129" id="clusterblast-1_h53_9_1" points="17,90 19,85 17,80 17,90 " class="clusterblast-orf"  />
<polygon style="stroke:black; stroke-width:1; fill:#FFFFFF; " description="transposase[br]Location: 192288 - 193091" locus_tag="pSLA2-L_p128" id="clusterblast-1_h53_9_2" points="21,85 24,80 24,90 21,85 " class="clusterblast-orf"  />
<polygon style="stroke:black; stroke-width:1; fill:#FFFFFF; " description="hypothetical_protein[br]Location: 192048 - 192137" locus_tag="pSLA2-L_p127" id="clusterblast-1_h53_9_3" points="24,85 25,80 25,90 24,85 " class="clusterblast-orf"  />
<polygon style="stroke:black; stroke-width:1; fill:#FFFFFF; " description="hypothetical_protein[br]Location: 191218 - 192039" locus_tag="pSLA2-L_p126" id="clusterblast-1_h53_9_4" points="25,85 28,80 28,90 25,85 " class="clusterblast-orf"  />
<polygon style="stroke:black; stroke-width:1; fill:#FFFFFF; " description="TetR_family_receptor_protein[br]Location: 190444 - 191049" locus_tag="pSLA2-L_p125" id="clusterblast-1_h53_9_5" points="29,90 31,85 29,80 29,90 " class="clusterblast-orf"  />
<polygon style="stroke:black; stroke-width:1; fill:#FFFFFF; " description="hypothetical_protein[br]Location: 189871 - 190041" locus_tag="pSLA2-L_p124" id="clusterblast-1_h53_9_6" points="33,85 33,80 33,90 33,85 " class="clusterblast-orf"  />
<polygon style="stroke:black; stroke-width:1; fill:#FFFFFF; " description="hypothetical_protein[br]Location: 189525 - 189746" locus_tag="pSLA2-L_p123" id="clusterblast-1_h53_9_7" points="34,85 35,80 35,90 34,85 " class="clusterblast-orf"  />
<polygon style="stroke:black; stroke-width:1; fill:#FFFFFF; " description="hypothetical_protein[br]Location: 188515 - 189528" locus_tag="pSLA2-L_p122" id="clusterblast-1_h53_9_8" points="35,85 39,80 39,90 35,85 " class="clusterblast-orf"  />
<polygon style="stroke:black; stroke-width:1; fill:#FFFFFF; " description="hypothetical_protein[br]Location: 188085 - 188429" locus_tag="pSLA2-L_p121" id="clusterblast-1_h53_9_9" points="39,90 40,85 39,80 39,90 " class="clusterblast-orf"  />
<polygon style="stroke:black; stroke-width:1; fill:#FFFFFF; " description="Ku70/Ku80_protein[br]Location: 187118 - 188056" locus_tag="pSLA2-L_p120" id="clusterblast-1_h53_9_10" points="40,85 44,80 44,90 40,85 " class="clusterblast-orf"  />
<polygon style="stroke:black; stroke-width:1; fill:#FFFFFF; " description="hypothetical_protein[br]Location: 185587 - 186282" locus_tag="pSLA2-L_p119" id="clusterblast-1_h53_9_11" points="47,85 50,80 50,90 47,85 " class="clusterblast-orf"  />
<polygon style="stroke:black; stroke-width:1; fill:#FFFFFF; " description="secreted_hydrolase[br]Location: 184458 - 185465" locus_tag="pSLA2-L_p118" id="clusterblast-1_h53_9_12" points="51,85 54,80 54,90 51,85 " class="clusterblast-orf"  />
<polygon style="stroke:black; stroke-width:1; fill:#FFFFFF; " description="transposase[br]Location: 183211 - 184401" locus_tag="pSLA2-L_p117" id="clusterblast-1_h53_9_13" points="55,90 59,85 55,80 55,90 " class="clusterblast-orf"  />
<polygon style="stroke:black; stroke-width:1; fill:#FFFFFF; " description="lipase/esterase[br]Location: 182293 - 183234" locus_tag="pSLA2-L_p116" id="clusterblast-1_h53_9_14" points="59,85 63,80 63,90 59,85 " class="clusterblast-orf"  />
<polygon style="stroke:black; stroke-width:1; fill:#FFFFFF; " description="AraC_family_transcription_regulator[br]Location: 181176 - 182162" locus_tag="pSLA2-L_p115" id="clusterblast-1_h53_9_15" points="64,90 67,85 64,80 64,90 " class="clusterblast-orf"  />
<polygon style="stroke:black; stroke-width:1; fill:red; " description="glucose_dehydrogenase[br]Location: 179107 - 179856&lt;br&gt;&lt;br&gt;&lt;b&gt;BlastP hit with CHAFR746836_0040910.1&lt;/b&gt;&lt;br&gt;Percentage identity: 32%&lt;br&gt;Percentage coverage: 98%&lt;br&gt;BLAST bit score: 76&lt;br&gt;E-value: 2e-15&lt;br&gt;&lt;br&gt;&lt;b&gt;BlastP hit with CHAFR746836_0040910.2&lt;/b&gt;&lt;br&gt;Percentage identity: 38%&lt;br&gt;Percentage coverage: 74%&lt;br&gt;BLAST bit score: 52&lt;br&gt;E-value: 9e-08" locus_tag="pSLA2-L_p114" id="clusterblast-1_h53_9_16" points="73,85 76,80 76,90 73,85 " class="clusterblast-orf"  />
<polygon style="stroke:black; stroke-width:1; fill:#FFFFFF; " description="hypothetical_protein[br]Location: 178540 - 178971" locus_tag="pSLA2-L_p113" id="clusterblast-1_h53_9_17" points="76,85 78,80 78,90 76,85 " class="clusterblast-orf"  />
<polygon style="stroke:black; stroke-width:1; fill:#FFFFFF; " description="hypothetical_protein[br]Location: 177742 - 178398" locus_tag="pSLA2-L_p112" id="clusterblast-1_h53_9_18" points="78,85 81,80 81,90 78,85 " class="clusterblast-orf"  />
<polygon style="stroke:black; stroke-width:1; fill:#FFFFFF; " description="hypothetical_protein[br]Location: 177444 - 177581" locus_tag="pSLA2-L_p111" id="clusterblast-1_h53_9_19" points="82,90 82,85 82,80 82,90 " class="clusterblast-orf"  />
<polygon style="stroke:black; stroke-width:1; fill:#FFFFFF; " description="putative_dehydrogenase[br]Location: 175768 - 177315" locus_tag="pSLA2-L_p110" id="clusterblast-1_h53_9_20" points="83,85 88,80 89,80 89,90 88,90 83,85 " class="clusterblast-orf"  />
<polygon style="stroke:black; stroke-width:1; fill:#FFFFFF; " description="hypothetical_protein[br]Location: 175583 - 175771" locus_tag="pSLA2-L_p109" id="clusterblast-1_h53_9_21" points="89,85 89,80 89,90 89,85 " class="clusterblast-orf"  />
<polygon style="stroke:black; stroke-width:1; fill:#FFFFFF; " description="putative_lycopene_cyclase[br]Location: 174351 - 175586" locus_tag="pSLA2-L_p108" id="clusterblast-1_h53_9_22" points="89,85 94,80 94,80 94,90 94,90 89,85 " class="clusterblast-orf"  />
<polygon style="stroke:black; stroke-width:1; fill:#FFFFFF; " description="putative_geranylgeranyl_pyrophosphate_synthase[br]Location: 172697 - 174016" locus_tag="pSLA2-L_p107" id="clusterblast-1_h53_9_23" points="96,90 96,90 101,85 96,80 96,80 96,90 " class="clusterblast-orf"  />
<polygon style="stroke:black; stroke-width:1; fill:#FFFFFF; " description="putative_phytoene_dehydrogenase[br]Location: 170934 - 172700" locus_tag="pSLA2-L_p106" id="clusterblast-1_h53_9_24" points="101,90 103,90 108,85 103,80 101,80 101,90 " class="clusterblast-orf"  />
<polygon style="stroke:black; stroke-width:1; fill:#FFFFFF; " description="putative_phytoene_synthase[br]Location: 169900 - 170937" locus_tag="pSLA2-L_p105" id="clusterblast-1_h53_9_25" points="108,90 112,85 108,80 108,90 " class="clusterblast-orf"  />
<polygon style="stroke:black; stroke-width:1; fill:#FFFFFF; " description="putative_methytransferase[br]Location: 168895 - 169812" locus_tag="pSLA2-L_p104" id="clusterblast-1_h53_9_26" points="112,90 116,85 112,80 112,90 " class="clusterblast-orf"  />
<polygon style="stroke:black; stroke-width:1; fill:#FFFFFF; " description="hypothetical_protein[br]Location: 167977 - 168603" locus_tag="pSLA2-L_p103" id="clusterblast-1_h53_9_27" points="117,90 119,85 117,80 117,90 " class="clusterblast-orf"  />
<polygon style="stroke:black; stroke-width:1; fill:#FFFFFF; " description="terminal_protein,_TpgR1[br]Location: 167409 - 167966" locus_tag="pSLA2-L_p102" id="clusterblast-1_h53_9_28" points="119,85 122,80 122,90 119,85 " class="clusterblast-orf"  />
<polygon style="stroke:black; stroke-width:1; fill:#FFFFFF; " description="putative_transcriptional_regulatory_protein[br]Location: 165189 - 167405" locus_tag="pSLA2-L_p101" id="clusterblast-1_h53_9_29" points="122,85 127,80 130,80 130,90 127,90 122,85 " class="clusterblast-orf"  />
<polygon style="stroke:black; stroke-width:1; fill:#FFFFFF; " description="hypothetical_protein[br]Location: 164591 - 164971" locus_tag="pSLA2-L_p100" id="clusterblast-1_h53_9_30" points="131,85 133,80 133,90 131,85 " class="clusterblast-orf"  />
<polygon style="stroke:black; stroke-width:1; fill:#FFFFFF; " description="TetR_family_receptor_protein[br]Location: 163961 - 164629" locus_tag="pSLA2-L_p099" id="clusterblast-1_h53_9_31" points="132,90 135,85 132,80 132,90 " class="clusterblast-orf"  />
<polygon style="stroke:black; stroke-width:1; fill:#FFFFFF; " description="putative_plasmid_partitioning_protein_ParA[br]Location: 162372 - 163631" locus_tag="pSLA2-L_p098" id="clusterblast-1_h53_9_32" points="136,90 136,90 141,85 136,80 136,80 136,90 " class="clusterblast-orf"  />
<polygon style="stroke:black; stroke-width:1; fill:#FFFFFF; " description="plasmid_partitioning_protein,_ParB[br]Location: 161146 - 162375" locus_tag="pSLA2-L_p097" id="clusterblast-1_h53_9_33" points="141,90 141,90 146,85 141,80 141,80 141,90 " class="clusterblast-orf"  />
<polygon style="stroke:black; stroke-width:1; fill:#FFFFFF; " description="replication_initiation_protein,_RepL2[br]Location: 160691 - 161005" locus_tag="pSLA2-L_p096" id="clusterblast-1_h53_9_34" points="147,85 148,80 148,90 147,85 " class="clusterblast-orf"  />
<polygon style="stroke:black; stroke-width:1; fill:#FFFFFF; " description="replication_initiation_protein,_RepL1[br]Location: 160242 - 160694" locus_tag="pSLA2-L_p095" id="clusterblast-1_h53_9_35" points="148,85 150,80 150,90 148,85 " class="clusterblast-orf"  />
<polygon style="stroke:black; stroke-width:1; fill:#FFFFFF; " description="putative_DNA_primase/helicase[br]Location: 156768 - 158225" locus_tag="pSLA2-L_p094" id="clusterblast-1_h53_9_36" points="158,90 158,90 163,85 158,80 158,80 158,90 " class="clusterblast-orf"  />
<polygon style="stroke:black; stroke-width:1; fill:#FFFFFF; " description="replication_initiation_protein[br]Location: 156251 - 156637" locus_tag="pSLA2-L_p093" id="clusterblast-1_h53_9_37" points="164,90 165,85 164,80 164,90 " class="clusterblast-orf"  />
<polygon style="stroke:black; stroke-width:1; fill:#FFFFFF; " description="TetR_family_receptor_protein[br]Location: 155035 - 155820" locus_tag="pSLA2-L_p092" id="clusterblast-1_h53_9_38" points="167,85 170,80 170,90 167,85 " class="clusterblast-orf"  />
<polygon style="stroke:black; stroke-width:1; fill:#FFFFFF; " description="efflux_transporter_protein[br]Location: 153606 - 155000" locus_tag="pSLA2-L_p091" id="clusterblast-1_h53_9_39" points="170,85 175,80 176,80 176,90 175,90 170,85 " class="clusterblast-orf"  />
<polygon style="stroke:black; stroke-width:1; fill:#FFFFFF; " description="acyltransferase[br]Location: 152403 - 153566" locus_tag="pSLA2-L_p090" id="clusterblast-1_h53_9_40" points="176,85 181,80 181,80 181,90 181,90 176,85 " class="clusterblast-orf"  />
<polygon style="stroke:black; stroke-width:1; fill:#FFFFFF; " description="putative_DNA_primase/helicase[br]Location: 149979 - 151394" locus_tag="pSLA2-L_p089" id="clusterblast-1_h53_9_41" points="185,90 185,90 190,85 185,80 185,80 185,90 " class="clusterblast-orf"  />
<polygon style="stroke:black; stroke-width:1; fill:#FFFFFF; " description="hypothetical_protein[br]Location: 148921 - 150021" locus_tag="pSLA2-L_p088" id="clusterblast-1_h53_9_42" points="190,85 194,80 194,90 190,85 " class="clusterblast-orf"  />
<polygon style="stroke:black; stroke-width:1; fill:#FFFFFF; " description="replication_initiation_protein[br]Location: 148013 - 148414" locus_tag="pSLA2-L_p087" id="clusterblast-1_h53_9_43" points="196,90 198,85 196,80 196,90 " class="clusterblast-orf"  />
<polygon style="stroke:black; stroke-width:1; fill:#FFFFFF; " description="thioesterase[br]Location: 146876 - 147673" locus_tag="pSLA2-L_p086" id="clusterblast-1_h53_9_44" points="199,90 202,85 199,80 199,90 " class="clusterblast-orf"  />
<polygon style="stroke:black; stroke-width:1; fill:#FFFFFF; " description="A-factor_biosynthesis_protein_AfsA-like_protein[br]Location: 145598 - 146593" locus_tag="pSLA2-L_p085" id="clusterblast-1_h53_9_45" points="203,85 207,80 207,90 203,85 " class="clusterblast-orf"  />
<polygon style="stroke:black; stroke-width:1; fill:#FFFFFF; " description="P450-like_hydroxylase[br]Location: 144081 - 145325" locus_tag="pSLA2-L_p084" id="clusterblast-1_h53_9_46" points="208,90 208,90 213,85 208,80 208,80 208,90 " class="clusterblast-orf"  />
<polygon style="stroke:black; stroke-width:1; fill:#FFFFFF; " description="hypothetical_protein[br]Location: 143344 - 144084" locus_tag="pSLA2-L_p083" id="clusterblast-1_h53_9_47" points="213,90 216,85 213,80 213,90 " class="clusterblast-orf"  />
<polygon style="stroke:black; stroke-width:1; fill:#FFFFFF; " description="TetR_family_receptor_protein[br]Location: 142456 - 143124" locus_tag="pSLA2-L_p082" id="clusterblast-1_h53_9_48" points="217,90 220,85 217,80 217,90 " class="clusterblast-orf"  />
<polygon style="stroke:black; stroke-width:1; fill:green; " description="ketoreductase[br]Location: 141562 - 142326&lt;br&gt;&lt;br&gt;&lt;b&gt;BlastP hit with CHAFR746836_0040910.2&lt;/b&gt;&lt;br&gt;Percentage identity: 32%&lt;br&gt;Percentage coverage: 86%&lt;br&gt;BLAST bit score: 57&lt;br&gt;E-value: 1e-09" locus_tag="pSLA2-L_p081" id="clusterblast-1_h53_9_49" points="220,85 223,80 223,90 220,85 " class="clusterblast-orf"  />
<polygon style="stroke:black; stroke-width:1; fill:#FFFFFF; " description="hypothetical_protein[br]Location: 141191 - 141457" locus_tag="pSLA2-L_p080" id="clusterblast-1_h53_9_50" points="224,90 225,85 224,80 224,90 " class="clusterblast-orf"  />
<polygon style="stroke:black; stroke-width:1; fill:#FFFFFF; " description="TetR_family_receptor_protein[br]Location: 140071 - 140757" locus_tag="pSLA2-L_p079" id="clusterblast-1_h53_9_51" points="226,90 229,85 226,80 226,90 " class="clusterblast-orf"  />
<polygon style="stroke:black; stroke-width:1; fill:#FFFFFF; " description="pyruvate_dehydrogenase_alpha-subunit[br]Location: 139080 - 140060" locus_tag="pSLA2-L_p078" id="clusterblast-1_h53_9_52" points="229,90 233,85 229,80 229,90 " class="clusterblast-orf"  />
<polygon style="stroke:black; stroke-width:1; fill:#FFFFFF; " description="pyruvate_dehydrogenase_beta-subunit[br]Location: 138014 - 139048" locus_tag="pSLA2-L_p077" id="clusterblast-1_h53_9_53" points="233,90 237,85 233,80 233,90 " class="clusterblast-orf"  />
<polygon style="stroke:black; stroke-width:1; fill:#FFFFFF; " description="peptide_synthetase[br]Location: 134536 - 137841" locus_tag="pSLA2-L_p076" id="clusterblast-1_h53_9_54" points="238,90 246,90 251,85 246,80 238,80 238,90 " class="clusterblast-orf"  />
<polygon style="stroke:black; stroke-width:1; fill:#FFFFFF; " description="pathway_specific_regulatory_protein[br]Location: 133442 - 134272" locus_tag="pSLA2-L_p075" id="clusterblast-1_h53_9_55" points="252,90 255,85 252,80 252,90 " class="clusterblast-orf"  />
<polygon style="stroke:black; stroke-width:1; fill:#FFFFFF; " description="TetR_family_receptor_protein[br]Location: 132730 - 133371" locus_tag="pSLA2-L_p074" id="clusterblast-1_h53_9_56" points="255,90 258,85 255,80 255,90 " class="clusterblast-orf"  />
<polygon style="stroke:black; stroke-width:1; fill:#FFFFFF; " description="acyl_carrier_protein[br]Location: 131894 - 132637" locus_tag="pSLA2-L_p073" id="clusterblast-1_h53_9_57" points="258,90 261,85 258,80 258,90 " class="clusterblast-orf"  />
<polygon style="stroke:black; stroke-width:1; fill:#FFFFFF; " description="4'-phosphopantetheinyl_transferase[br]Location: 130978 - 131811" locus_tag="pSLA2-L_p072" id="clusterblast-1_h53_9_58" points="262,90 265,85 262,80 262,90 " class="clusterblast-orf"  />
<polygon style="stroke:black; stroke-width:1; fill:#FFFFFF; " description="SARP_family_pathway_specific_regulatory_protein[br]Location: 129701 - 130522" locus_tag="pSLA2-L_p071" id="clusterblast-1_h53_9_59" points="267,90 270,85 267,80 267,90 " class="clusterblast-orf"  />
<polygon style="stroke:black; stroke-width:1; fill:#FFFFFF; " description="thioesterase[br]Location: 128769 - 129581" locus_tag="pSLA2-L_p070" id="clusterblast-1_h53_9_60" points="270,90 274,85 270,80 270,90 " class="clusterblast-orf"  />
<polygon style="stroke:black; stroke-width:1; fill:#FFFFFF; " description="beta-ketoacyl_synthase_alpha-subunit[br]Location: 127507 - 128772" locus_tag="pSLA2-L_p069" id="clusterblast-1_h53_9_61" points="274,90 274,90 279,85 274,80 274,80 274,90 " class="clusterblast-orf"  />
<polygon style="stroke:black; stroke-width:1; fill:#FFFFFF; " description="beta-ketoacyl_synthase_beta-subunit_(chain[br]Location: 126260 - 127510" locus_tag="pSLA2-L_p068" id="clusterblast-1_h53_9_62" points="279,90 283,85 279,80 279,90 " class="clusterblast-orf"  />
<polygon style="stroke:black; stroke-width:1; fill:#FFFFFF; " description="acyl_carrier_protein[br]Location: 125941 - 126204" locus_tag="pSLA2-L_p067" id="clusterblast-1_h53_9_63" points="284,90 285,85 284,80 284,90 " class="clusterblast-orf"  />
<polygon style="stroke:black; stroke-width:1; fill:#FFFFFF; " description="cyclase[br]Location: 124941 - 125900" locus_tag="pSLA2-L_p066" id="clusterblast-1_h53_9_64" points="285,90 289,85 285,80 285,90 " class="clusterblast-orf"  />
<polygon style="stroke:black; stroke-width:1; fill:#FFFFFF; " description="acyl-CoA_ligase[br]Location: 123016 - 124626" locus_tag="pSLA2-L_p065" id="clusterblast-1_h53_9_65" points="290,90 291,90 296,85 291,80 290,80 290,90 " class="clusterblast-orf"  />
<polygon style="stroke:black; stroke-width:1; fill:#FFFFFF; " description="oxygenase[br]Location: 121215 - 122966" locus_tag="pSLA2-L_p064" id="clusterblast-1_h53_9_66" points="296,90 298,90 303,85 298,80 296,80 296,90 " class="clusterblast-orf"  />
<polygon style="stroke:black; stroke-width:1; fill:red; " description="ketoreductase[br]Location: 120431 - 121213&lt;br&gt;&lt;br&gt;&lt;b&gt;BlastP hit with CHAFR746836_0040910.1&lt;/b&gt;&lt;br&gt;Percentage identity: 32%&lt;br&gt;Percentage coverage: 103%&lt;br&gt;BLAST bit score: 84&lt;br&gt;E-value: 4e-18&lt;br&gt;&lt;br&gt;&lt;b&gt;BlastP hit with CHAFR746836_0040910.2&lt;/b&gt;&lt;br&gt;Percentage identity: 34%&lt;br&gt;Percentage coverage: 93%&lt;br&gt;BLAST bit score: 57&lt;br&gt;E-value: 1e-09" locus_tag="pSLA2-L_p063" id="clusterblast-1_h53_9_67" points="303,90 306,85 303,80 303,90 " class="clusterblast-orf"  />
<polygon style="stroke:black; stroke-width:1; fill:#FFFFFF; " description="cyclase/aromatase[br]Location: 119440 - 120405" locus_tag="pSLA2-L_p062" id="clusterblast-1_h53_9_68" points="306,90 310,85 306,80 306,90 " class="clusterblast-orf"  />
<polygon style="stroke:black; stroke-width:1; fill:#FFFFFF; " description="putative_acyl_carrier_protein[br]Location: 118834 - 119340" locus_tag="pSLA2-L_p061" id="clusterblast-1_h53_9_69" points="311,90 313,85 311,80 311,90 " class="clusterblast-orf"  />
<polygon style="stroke:black; stroke-width:1; fill:#FFFFFF; " description="type_I_polyketide_synthase[br]Location: 116781 - 118844" locus_tag="pSLA2-L_p060" id="clusterblast-1_h53_9_70" points="313,90 316,90 321,85 316,80 313,80 313,90 " class="clusterblast-orf"  />
<polygon style="stroke:black; stroke-width:1; fill:#FFFFFF; " description="type_I_polyketide_synthase[br]Location: 115534 - 116784" locus_tag="pSLA2-L_p059" id="clusterblast-1_h53_9_71" points="321,90 321,90 326,85 321,80 321,80 321,90 " class="clusterblast-orf"  />
<polygon style="stroke:black; stroke-width:1; fill:#FFFFFF; " description="hypothetical_protein[br]Location: 115276 - 115458" locus_tag="pSLA2-L_p058" id="clusterblast-1_h53_9_72" points="326,90 327,85 326,80 326,90 " class="clusterblast-orf"  />
<polygon style="stroke:black; stroke-width:1; fill:#FFFFFF; " description="acyl-CoA_dehydrogenase[br]Location: 113251 - 115179" locus_tag="pSLA2-L_p057" id="clusterblast-1_h53_9_73" points="327,90 330,90 335,85 330,80 327,80 327,90 " class="clusterblast-orf"  />
<polygon style="stroke:black; stroke-width:1; fill:#FFFFFF; " description="putative_4'-phosphopantetheinyl_transferase[br]Location: 112389 - 113219" locus_tag="pSLA2-L_p056" id="clusterblast-1_h53_9_74" points="335,90 338,85 335,80 335,90 " class="clusterblast-orf"  />
<polygon style="stroke:black; stroke-width:1; fill:#FFFFFF; " description="SARP_family_pathway_specific_regulatory_protein[br]Location: 111359 - 112228" locus_tag="pSLA2-L_p055" id="clusterblast-1_h53_9_75" points="339,90 342,85 339,80 339,90 " class="clusterblast-orf"  />
<polygon style="stroke:black; stroke-width:1; fill:#FFFFFF; " description="hypothetical_protein[br]Location: 111187 - 111339" locus_tag="pSLA2-L_p054" id="clusterblast-1_h53_9_76" points="342,85 343,80 343,90 342,85 " class="clusterblast-orf"  />
<polygon style="stroke:black; stroke-width:1; fill:#FFFFFF; " description="putative_NDP-4-keto-6-deoxyhexose[br]Location: 109701 - 111152" locus_tag="pSLA2-L_p053" id="clusterblast-1_h53_9_77" points="343,85 348,80 349,80 349,90 348,90 343,85 " class="clusterblast-orf"  />
<polygon style="stroke:black; stroke-width:1; fill:#FFFFFF; " description="putative_NDP-glucose_synthase[br]Location: 108557 - 109621" locus_tag="pSLA2-L_p052" id="clusterblast-1_h53_9_78" points="349,90 353,85 349,80 349,90 " class="clusterblast-orf"  />
<polygon style="stroke:black; stroke-width:1; fill:#FFFFFF; " description="S-adenosylmethionine_synthetase[br]Location: 107035 - 108255" locus_tag="pSLA2-L_p051" id="clusterblast-1_h53_9_79" points="354,90 354,90 359,85 354,80 354,80 354,90 " class="clusterblast-orf"  />
<polygon style="stroke:black; stroke-width:1; fill:#FFFFFF; " description="putative_glucose_kinase[br]Location: 105935 - 106945" locus_tag="pSLA2-L_p050" id="clusterblast-1_h53_9_80" points="359,90 363,85 359,80 359,90 " class="clusterblast-orf"  />
<polygon style="stroke:black; stroke-width:1; fill:#FFFFFF; " description="5-methyltetrahydrofolate-homocysteine[br]Location: 102489 - 105896" locus_tag="pSLA2-L_p049" id="clusterblast-1_h53_9_81" points="364,90 372,90 377,85 372,80 364,80 364,90 " class="clusterblast-orf"  />
<polygon style="stroke:black; stroke-width:1; fill:#FFFFFF; " description="5,10-methylenetetrahydrofolate_reductase[br]Location: 101632 - 102492" locus_tag="pSLA2-L_p048" id="clusterblast-1_h53_9_82" points="377,90 380,85 377,80 377,90 " class="clusterblast-orf"  />
<polygon style="stroke:black; stroke-width:1; fill:#FFFFFF; " description="S-adenosyl-L-homocysteine_hydrolase[br]Location: 100212 - 101642" locus_tag="pSLA2-L_p047" id="clusterblast-1_h53_9_83" points="380,90 381,90 386,85 381,80 380,80 380,90 " class="clusterblast-orf"  />
<polygon style="stroke:black; stroke-width:1; fill:#FFFFFF; " description="putative_NDP-4-keto-6-deoxyhexose_3,5-epimerase[br]Location: 99510 - 100139" locus_tag="pSLA2-L_p046" id="clusterblast-1_h53_9_84" points="386,85 389,80 389,90 386,85 " class="clusterblast-orf"  />
<polygon style="stroke:black; stroke-width:1; fill:#FFFFFF; " description="putative_NDP-hexose_3-O-methyltransferase[br]Location: 98593 - 99489" locus_tag="pSLA2-L_p045" id="clusterblast-1_h53_9_85" points="389,85 392,80 392,90 389,85 " class="clusterblast-orf"  />
<polygon style="stroke:black; stroke-width:1; fill:#FFFFFF; " description="putative_ABC_transporter_protein[br]Location: 96823 - 98523" locus_tag="pSLA2-L_p044" id="clusterblast-1_h53_9_86" points="393,85 398,80 399,80 399,90 398,90 393,85 " class="clusterblast-orf"  />
<polygon style="stroke:black; stroke-width:1; fill:#FFFFFF; " description="putative_glycosyltransferase[br]Location: 95226 - 96395" locus_tag="pSLA2-L_p043" id="clusterblast-1_h53_9_87" points="401,90 401,90 406,85 401,80 401,80 401,90 " class="clusterblast-orf"  />
<polygon style="stroke:black; stroke-width:1; fill:#FFFFFF; " description="putative_NDP-3-keto-6-deoxyhexose[br]Location: 94099 - 95139" locus_tag="pSLA2-L_p042" id="clusterblast-1_h53_9_88" points="406,90 410,85 406,80 406,90 " class="clusterblast-orf"  />
<polygon style="stroke:black; stroke-width:1; fill:#FFFFFF; " description="putative_NDP-3-methyl-4-keto-2,6-dideoxyhexose[br]Location: 93108 - 94085" locus_tag="pSLA2-L_p041" id="clusterblast-1_h53_9_89" points="410,85 414,80 414,90 410,85 " class="clusterblast-orf"  />
<polygon style="stroke:black; stroke-width:1; fill:#FFFFFF; " description="putative_glycosyltransferase[br]Location: 91673 - 92950" locus_tag="pSLA2-L_p040" id="clusterblast-1_h53_9_90" points="414,90 415,90 420,85 415,80 414,80 414,90 " class="clusterblast-orf"  />
<polygon style="stroke:black; stroke-width:1; fill:#FFFFFF; " description="putative_NDP-4,6-dideoxyhexose_3,4-enoyl[br]Location: 90186 - 91658" locus_tag="pSLA2-L_p039" id="clusterblast-1_h53_9_91" points="420,85 425,80 425,80 425,90 425,90 420,85 " class="clusterblast-orf"  />
<polygon style="stroke:black; stroke-width:1; fill:#FFFFFF; " description="putative_NDP-6-deoxyhexose_3,4-dehydratase[br]Location: 88944 - 90143" locus_tag="pSLA2-L_p038" id="clusterblast-1_h53_9_92" points="426,85 430,80 430,90 426,85 " class="clusterblast-orf"  />
<polygon style="stroke:black; stroke-width:1; fill:#FFFFFF; " description="P450-like_hydroxylase[br]Location: 87725 - 88939" locus_tag="pSLA2-L_p037" id="clusterblast-1_h53_9_93" points="430,85 435,80 435,80 435,90 435,90 430,85 " class="clusterblast-orf"  />
<polygon style="stroke:black; stroke-width:1; fill:#FFFFFF; " description="putative_O-acyltransferase[br]Location: 86496 - 87728" locus_tag="pSLA2-L_p036" id="clusterblast-1_h53_9_94" points="435,85 440,80 440,80 440,90 440,90 435,85 " class="clusterblast-orf"  />
<polygon style="stroke:black; stroke-width:1; fill:blue; " description="lankamycin_synthase,_starter_module_and_modules[br]Location: 75113 - 86068&lt;br&gt;&lt;br&gt;&lt;b&gt;BlastP hit with CHAFR746836_0040950.1&lt;/b&gt;&lt;br&gt;Percentage identity: 32%&lt;br&gt;Percentage coverage: 29%&lt;br&gt;BLAST bit score: 380&lt;br&gt;E-value: 4e-104" locus_tag="pSLA2-L_p035" id="clusterblast-1_h53_9_95" points="442,90 480,90 485,85 480,80 442,80 442,90 " class="clusterblast-orf"  />
<polygon style="stroke:black; stroke-width:1; fill:#FFFFFF; " description="lankamycin_synthase,_modules_3_and_4[br]Location: 64130 - 75100" locus_tag="pSLA2-L_p034" id="clusterblast-1_h53_9_96" points="485,90 523,90 528,85 523,80 485,80 485,90 " class="clusterblast-orf"  />
<polygon style="stroke:black; stroke-width:1; fill:blue; " description="lankamycin_synthase,_modules_5_and_6[br]Location: 54246 - 64133&lt;br&gt;&lt;br&gt;&lt;b&gt;BlastP hit with CHAFR746836_0040950.1&lt;/b&gt;&lt;br&gt;Percentage identity: 31%&lt;br&gt;Percentage coverage: 30%&lt;br&gt;BLAST bit score: 400&lt;br&gt;E-value: 2e-110" locus_tag="pSLA2-L_p033" id="clusterblast-1_h53_9_97" points="528,90 562,90 567,85 562,80 528,80 528,90 " class="clusterblast-orf"  />
<polygon style="stroke:black; stroke-width:1; fill:#FFFFFF; " description="putative_NDP-4-keto-6-deoxyhexose_3,4-isomerase[br]Location: 53164 - 54249" locus_tag="pSLA2-L_p032" id="clusterblast-1_h53_9_98" points="567,90 571,85 567,80 567,90 " class="clusterblast-orf"  />
<polygon style="stroke:black; stroke-width:1; fill:#FFFFFF; " description="putative_glycosyltransferase[br]Location: 51875 - 53152" locus_tag="pSLA2-L_p031" id="clusterblast-1_h53_9_99" points="571,90 571,90 576,85 571,80 571,80 571,90 " class="clusterblast-orf"  />
<polygon style="stroke:black; stroke-width:1; fill:#FFFFFF; " description="putative_beta-glycosidase[br]Location: 49268 - 51709" locus_tag="pSLA2-L_p030" id="clusterblast-1_h53_9_100" points="577,90 581,90 586,85 581,80 577,80 577,90 " class="clusterblast-orf"  />
<polygon style="stroke:black; stroke-width:1; fill:#FFFFFF; " description="putative_NDP-4-keto-2,6-dideoxyhexose_2,3-enoyl[br]Location: 48216 - 49223" locus_tag="pSLA2-L_p029" id="clusterblast-1_h53_9_101" points="587,90 590,85 587,80 587,90 " class="clusterblast-orf"  />
<polygon style="stroke:black; stroke-width:1; fill:#FFFFFF; " description="putative_NDP-hexose_3-O-methyltransferase[br]Location: 47351 - 48163" locus_tag="pSLA2-L_p028" id="clusterblast-1_h53_9_102" points="591,90 594,85 591,80 591,90 " class="clusterblast-orf"  />
<polygon style="stroke:black; stroke-width:1; fill:#FFFFFF; " description="putative_NDP-4-keto-2,6-dideoxyhexose[br]Location: 46101 - 47354" locus_tag="pSLA2-L_p027" id="clusterblast-1_h53_9_103" points="594,90 594,90 599,85 594,80 594,80 594,90 " class="clusterblast-orf"  />
<polygon style="stroke:black; stroke-width:1; fill:#FFFFFF; " description="P450-like_hydroxylase[br]Location: 44847 - 46067" locus_tag="pSLA2-L_p026" id="clusterblast-1_h53_9_104" points="599,90 599,90 604,85 599,80 599,80 599,90 " class="clusterblast-orf"  />
<polygon style="stroke:black; stroke-width:1; fill:#FFFFFF; " description="putative_thioesterase[br]Location: 44059 - 44850" locus_tag="pSLA2-L_p025" id="clusterblast-1_h53_9_105" points="604,90 607,85 604,80 604,90 " class="clusterblast-orf"  />
<polygon style="stroke:black; stroke-width:1; fill:#FFFFFF; " description="putative_NDP-hexose_4,6-dehydratase[br]Location: 43059 - 44045" locus_tag="pSLA2-L_p024" id="clusterblast-1_h53_9_106" points="607,90 611,85 607,80 607,90 " class="clusterblast-orf"  />
<polygon style="stroke:black; stroke-width:1; fill:#FFFFFF; " description="polyvinylalcohol_dehydrogenase[br]Location: 41354 - 42985" locus_tag="pSLA2-L_p023" id="clusterblast-1_h53_9_107" points="611,85 616,80 617,80 617,90 616,90 611,85 " class="clusterblast-orf"  />
<polygon style="stroke:black; stroke-width:1; fill:#FFFFFF; " description="modular_polyketide_synthase[br]Location: 39641 - 41194" locus_tag="pSLA2-L_p022" id="clusterblast-1_h53_9_108" points="618,85 623,80 624,80 624,90 623,90 618,85 " class="clusterblast-orf"  />
<polygon style="stroke:black; stroke-width:1; fill:#FFFFFF; " description="peptidyl_carrier_protein[br]Location: 39321 - 39575" locus_tag="pSLA2-L_p021" id="clusterblast-1_h53_9_109" points="624,85 625,80 625,90 624,85 " class="clusterblast-orf"  />
<polygon style="stroke:black; stroke-width:1; fill:#FFFFFF; " description="putative_efflux_transporter_protein[br]Location: 37712 - 38992" locus_tag="pSLA2-L_p020" id="clusterblast-1_h53_9_110" points="627,90 627,90 632,85 627,80 627,80 627,90 " class="clusterblast-orf"  />
<polygon style="stroke:black; stroke-width:1; fill:#FFFFFF; " description="dehydratase/dehydrogenase[br]Location: 36143 - 37642" locus_tag="pSLA2-L_p019" id="clusterblast-1_h53_9_111" points="632,85 637,80 638,80 638,90 637,90 632,85 " class="clusterblast-orf"  />
<polygon style="stroke:black; stroke-width:1; fill:blue; " description="multifunctional_polyketide-peptide_synthase[br]Location: 31013 - 35881&lt;br&gt;&lt;br&gt;&lt;b&gt;BlastP hit with CHAFR746836_0040950.1&lt;/b&gt;&lt;br&gt;Percentage identity: 31%&lt;br&gt;Percentage coverage: 16%&lt;br&gt;BLAST bit score: 235&lt;br&gt;E-value: 1e-60" locus_tag="pSLA2-L_p018" id="clusterblast-1_h53_9_112" points="639,90 653,90 658,85 653,80 639,80 639,90 " class="clusterblast-orf"  />
<polygon style="stroke:black; stroke-width:1; fill:#FFFFFF; " description="dehydratase[br]Location: 30186 - 31016" locus_tag="pSLA2-L_p017" id="clusterblast-1_h53_9_113" points="658,90 661,85 658,80 658,90 " class="clusterblast-orf"  />
<polygon style="stroke:black; stroke-width:1; fill:blue; " description="type_I_polyketide_synthase[br]Location: 24568 - 30156&lt;br&gt;&lt;br&gt;&lt;b&gt;BlastP hit with CHAFR746836_0040950.1&lt;/b&gt;&lt;br&gt;Percentage identity: 32%&lt;br&gt;Percentage coverage: 16%&lt;br&gt;BLAST bit score: 239&lt;br&gt;E-value: 1e-61" locus_tag="pSLA2-L_p016" id="clusterblast-1_h53_9_114" points="662,90 679,90 684,85 679,80 662,80 662,90 " class="clusterblast-orf"  />
<polygon style="stroke:black; stroke-width:1; fill:#FFFFFF; " description="acyltransferase[br]Location: 23675 - 24556" locus_tag="pSLA2-L_p015" id="clusterblast-1_h53_9_115" points="684,90 687,85 684,80 684,90 " class="clusterblast-orf"  />
<polygon style="stroke:black; stroke-width:1; fill:#FFFFFF; " description="putative_amino_oxidase[br]Location: 22359 - 23675" locus_tag="pSLA2-L_p014" id="clusterblast-1_h53_9_116" points="687,90 687,90 692,85 687,80 687,80 687,90 " class="clusterblast-orf"  />
<polygon style="stroke:black; stroke-width:1; fill:blue; " description="type_I_polyketide_synthase[br]Location: 15266 - 22306&lt;br&gt;&lt;br&gt;&lt;b&gt;BlastP hit with CHAFR746836_0040950.1&lt;/b&gt;&lt;br&gt;Percentage identity: 34%&lt;br&gt;Percentage coverage: 17%&lt;br&gt;BLAST bit score: 264&lt;br&gt;E-value: 5e-69" locus_tag="pSLA2-L_p013" id="clusterblast-1_h53_9_117" points="692,90 715,90 720,85 715,80 692,80 692,90 " class="clusterblast-orf"  />
<polygon style="stroke:black; stroke-width:1; fill:#FFFFFF; " description="type_I_polyketide_synthase[br]Location: 12434 - 15214" locus_tag="pSLA2-L_p012" id="clusterblast-1_h53_9_118" points="720,90 726,90 731,85 726,80 720,80 720,90 " class="clusterblast-orf"  />
<polygon style="stroke:black; stroke-width:1; fill:#FFFFFF; " description="isochorismatase[br]Location: 11815 - 12369" locus_tag="pSLA2-L_p011" id="clusterblast-1_h53_9_119" points="732,90 734,85 732,80 732,90 " class="clusterblast-orf"  />
<polygon style="stroke:black; stroke-width:1; fill:#FFFFFF; " description="putative_ABC_transporter_protein[br]Location: 10050 - 11759" locus_tag="pSLA2-L_p010" id="clusterblast-1_h53_9_120" points="734,85 739,80 741,80 741,90 739,90 734,85 " class="clusterblast-orf"  />
<polygon style="stroke:black; stroke-width:1; fill:#FFFFFF; " description="putative_ABC_transporter_protein[br]Location: 8420 - 10057" locus_tag="pSLA2-L_p009" id="clusterblast-1_h53_9_121" points="741,85 746,80 747,80 747,90 746,90 741,85 " class="clusterblast-orf"  />
<polygon style="stroke:black; stroke-width:1; fill:#FFFFFF; " description="pyrroloquinoline_quinone_biosynthesis_protein_A[br]Location: 7926 - 8030" locus_tag="pSLA2-L_p008" id="clusterblast-1_h53_9_122" points="749,90 749,85 749,80 749,90 " class="clusterblast-orf"  />
<polygon style="stroke:black; stroke-width:1; fill:#FFFFFF; " description="pyrroloquinoline_quinone_biosynthesis_protein[br]Location: 7171 - 7899" locus_tag="pSLA2-L_p007" id="clusterblast-1_h53_9_123" points="749,90 752,85 749,80 749,90 " class="clusterblast-orf"  />
<polygon style="stroke:black; stroke-width:1; fill:#FFFFFF; " description="pyrroloquinoline_quinone_biosynthesis_protein_D[br]Location: 6902 - 7174" locus_tag="pSLA2-L_p006" id="clusterblast-1_h53_9_124" points="752,90 753,85 752,80 752,90 " class="clusterblast-orf"  />
<polygon style="stroke:black; stroke-width:1; fill:#FFFFFF; " description="pyrroloquinoline_quinone_biosynthesis_protein[br]Location: 5815 - 6909" locus_tag="pSLA2-L_p005" id="clusterblast-1_h53_9_125" points="753,90 757,85 753,80 753,90 " class="clusterblast-orf"  />
<polygon style="stroke:black; stroke-width:1; fill:#FFFFFF; " description="pyrroloquinoline_quinone_biosynthesis_protein[br]Location: 4922 - 5812" locus_tag="pSLA2-L_p004" id="clusterblast-1_h53_9_126" points="757,90 761,85 757,80 757,90 " class="clusterblast-orf"  />
<polygon style="stroke:black; stroke-width:1; fill:#FFFFFF; " description="StrR-like_regulatory_protein[br]Location: 3659 - 4645" locus_tag="pSLA2-L_p003" id="clusterblast-1_h53_9_127" points="762,90 766,85 762,80 762,90 " class="clusterblast-orf"  />
<polygon style="stroke:black; stroke-width:1; fill:#FFFFFF; " description="putative_secreted_protein[br]Location: 2315 - 3595" locus_tag="pSLA2-L_p002" id="clusterblast-1_h53_9_128" points="766,90 766,90 771,85 766,80 766,80 766,90 " class="clusterblast-orf"  />
<polygon style="stroke:black; stroke-width:1; fill:#FFFFFF; " description="putative_helicase[br]Location: 683 - 2188" locus_tag="pSLA2-L_p001" id="clusterblast-1_h53_9_129" points="772,85 777,80 778,80 778,90 777,90 772,85 " class="clusterblast-orf"  />
</g>
</svg>
