<svg xmlns="http://www.w3.org/2000/svg" height="230" width="800" version="1.1" y="0" x="0" preserveAspectRatio="none" xmlns:xlink="http://www.w3.org/1999/xlink" viewBox="0 0 800 230"  >
<g class="clusterblast-cluster" label="Query sequence"  >
<text class="clusterblast-acc" y="10" x="5"  >
Query sequence</text>
<line y1="35" x2="778.0" style="stroke:grey; stroke-width:1; " x1="10" y2="35"  />
<polygon style="stroke:black; stroke-width:1; fill:#FFFFFF; " description="unannotated orf[br]Location: 1495 - 3001" locus_tag="CHAFR746836_0081150.1" class="clusterblast-orf" points="10,40 15,40 20,35 15,30 10,30 10,40 " id="clusterblast-1_q13_2_0"  />
<polygon style="stroke:black; stroke-width:1; fill:#FFFFFF; " description="unannotated orf[br]Location: 21967 - 22906" locus_tag="CHAFR746836_0081160.1" class="clusterblast-orf" points="158,40 159,40 164,35 159,30 158,30 158,40 " id="clusterblast-1_q13_2_1"  />
<polygon style="stroke:black; stroke-width:1; fill:rgb(190,63,63); " description="unannotated orf[br]Location: 24204 - 25838" locus_tag="CHAFR746836_0081170.1" class="clusterblast-orf" points="174,40 181,40 186,35 181,30 174,30 174,40 " id="clusterblast-1_q13_2_2"  />
<polygon style="stroke:black; stroke-width:1; fill:rgb(63,63,190); " description="unannotated orf[br]Location: 26476 - 34147" locus_tag="CHAFR746836_0081180.1" class="clusterblast-orf" points="190,35 195,30 246,30 246,40 195,40 190,35 " id="clusterblast-1_q13_2_3"  />
<polygon style="stroke:black; stroke-width:1; fill:rgb(63,190,63); " description="unannotated orf[br]Location: 36803 - 37711" locus_tag="CHAFR746836_0081190.1" class="clusterblast-orf" points="265,40 267,40 272,35 267,30 265,30 265,40 " id="clusterblast-1_q13_2_4"  />
<polygon style="stroke:black; stroke-width:1; fill:#FFFFFF; " description="unannotated orf[br]Location: 39559 - 39909" locus_tag="CHAFR746836_0081200.1" class="clusterblast-orf" points="285,35 288,30 288,40 285,35 " id="clusterblast-1_q13_2_5"  />
<polygon style="stroke:black; stroke-width:1; fill:rgb(190,63,190); " description="unannotated orf[br]Location: 40364 - 42098" locus_tag="CHAFR746836_0081210.1" class="clusterblast-orf" points="291,40 298,40 303,35 298,30 291,30 291,40 " id="clusterblast-1_q13_2_6"  />
<polygon style="stroke:black; stroke-width:1; fill:#FFFFFF; " description="unannotated orf[br]Location: 65220 - 66075" locus_tag="CHAFR746836_0081220.1" class="clusterblast-orf" points="471,35 476,30 477,30 477,40 476,40 471,35 " id="clusterblast-1_q13_2_7"  />
<polygon style="stroke:black; stroke-width:1; fill:rgb(190,190,63); " description="unannotated orf[br]Location: 67588 - 77792" locus_tag="CHAFR746836_0081230.1" class="clusterblast-orf" points="488,40 557,40 562,35 557,30 488,30 488,40 " id="clusterblast-1_q13_2_8"  />
<polygon style="stroke:black; stroke-width:1; fill:#FFFFFF; " description="unannotated orf[br]Location: 80581 - 81578" locus_tag="CHAFR746836_0081240.1" class="clusterblast-orf" points="582,40 584,40 589,35 584,30 582,30 582,40 " id="clusterblast-1_q13_2_9"  />
<polygon style="stroke:black; stroke-width:1; fill:#FFFFFF; " description="unannotated orf[br]Location: 105554 - 107591" locus_tag="CHAFR746836_0081250.1" class="clusterblast-orf" points="763,35 768,30 778,30 778,40 768,40 763,35 " id="clusterblast-1_q13_2_10"  />
</g>
<g class="clusterblast-cluster" description="Cordyceps militaris CM01 unplaced genomic scaffold CCM S0000..." label="JH126404.1_c3"  >
<text class="clusterblast-acc" y="60" x="5"  >
JH126404.1_c3</text>
<text class="clusterblast-desc" y="60" x="460.8"  >
Cordyceps militaris CM01 unplaced genomic scaffold CCM S0000...</text>
<line y1="85" x2="778.0" style="stroke:grey; stroke-width:1; " x1="10" y2="85"  />
<polygon style="stroke:black; stroke-width:1; fill:#FFFFFF; " description="Zinc_finger_domain-containing_protein,[br]Location: 2394455 - 2398012" locus_tag="CCM_08024" id="clusterblast-1_h13_2_0" points="152,85 157,80 177,80 177,90 157,90 152,85 " class="clusterblast-orf"  />
<polygon style="stroke:black; stroke-width:1; fill:#FFFFFF; " description="extracellular_SCP_domain_protein_Pry1,_putative[br]Location: 2387318 - 2388714" locus_tag="CCM_08023" id="clusterblast-1_h13_2_1" points="219,90 224,90 229,85 224,80 219,80 219,90 " class="clusterblast-orf"  />
<polygon style="stroke:black; stroke-width:1; fill:#FFFFFF; " description="hypothetical_protein[br]Location: 2382890 - 2387182" locus_tag="CCM_08022" id="clusterblast-1_h13_2_2" points="230,85 235,80 261,80 261,90 235,90 230,85 " class="clusterblast-orf"  />
<polygon style="stroke:black; stroke-width:1; fill:#FFFFFF; " description="late_sexual_development_protein[br]Location: 2379445 - 2380617" locus_tag="CCM_08021" id="clusterblast-1_h13_2_3" points="277,90 281,90 286,85 281,80 277,80 277,90 " class="clusterblast-orf"  />
<polygon style="stroke:black; stroke-width:1; fill:#FFFFFF; " description="chitinase[br]Location: 2377547 - 2378494" locus_tag="CCM_08020" id="clusterblast-1_h13_2_4" points="293,90 295,90 300,85 295,80 293,80 293,90 " class="clusterblast-orf"  />
<polygon style="stroke:black; stroke-width:1; fill:#FFFFFF; " description="citrinin_biosynthesis_oxydoreductase_CtnB[br]Location: 2376362 - 2377069" locus_tag="CCM_08019" id="clusterblast-1_h13_2_5" points="303,85 308,80 308,80 308,90 308,90 303,85 " class="clusterblast-orf"  />
<polygon style="stroke:black; stroke-width:1; fill:rgb(63,63,190); " description="polyketide_synthase,_putative[br]Location: 2363658 - 2375136&lt;br&gt;&lt;br&gt;&lt;b&gt;BlastP hit with CHAFR746836_0081180.1&lt;/b&gt;&lt;br&gt;Percentage identity: 38%&lt;br&gt;Percentage coverage: 48%&lt;br&gt;BLAST bit score: 721&lt;br&gt;E-value: 0.0" locus_tag="CCM_08018" id="clusterblast-1_h13_2_6" points="317,90 395,90 400,85 395,80 317,80 317,90 " class="clusterblast-orf"  />
<polygon style="stroke:black; stroke-width:1; fill:#FFFFFF; " description="Peptidase_S1/S6[br]Location: 2359463 - 2360738" locus_tag="CCM_08017" id="clusterblast-1_h13_2_7" points="421,90 426,90 431,85 426,80 421,80 421,90 " class="clusterblast-orf"  />
<polygon style="stroke:black; stroke-width:1; fill:rgb(63,63,190); " description="polyketide_synthase,_putative[br]Location: 2351316 - 2358953&lt;br&gt;&lt;br&gt;&lt;b&gt;BlastP hit with CHAFR746836_0081180.1&lt;/b&gt;&lt;br&gt;Percentage identity: 36%&lt;br&gt;Percentage coverage: 40%&lt;br&gt;BLAST bit score: 558&lt;br&gt;E-value: 7e-161" locus_tag="CCM_08016" id="clusterblast-1_h13_2_8" points="434,85 439,80 490,80 490,90 439,90 434,85 " class="clusterblast-orf"  />
<polygon style="stroke:black; stroke-width:1; fill:rgb(63,190,63); " description="DltD_N-terminal_domain_protein[br]Location: 2349370 - 2350691&lt;br&gt;&lt;br&gt;&lt;b&gt;BlastP hit with CHAFR746836_0081190.1&lt;/b&gt;&lt;br&gt;Percentage identity: 37%&lt;br&gt;Percentage coverage: 95%&lt;br&gt;BLAST bit score: 169&lt;br&gt;E-value: 2e-48" locus_tag="CCM_08015" id="clusterblast-1_h13_2_9" points="494,90 499,90 504,85 499,80 494,80 494,90 " class="clusterblast-orf"  />
<polygon style="stroke:black; stroke-width:1; fill:#FFFFFF; " description="Short-chain_dehydrogenase/reductase_SDR[br]Location: 2347660 - 2348556" locus_tag="CCM_08014" id="clusterblast-1_h13_2_10" points="509,90 511,90 516,85 511,80 509,80 509,90 " class="clusterblast-orf"  />
<polygon style="stroke:black; stroke-width:1; fill:#FFFFFF; " description="FAD-binding,_type_2[br]Location: 2345643 - 2347385" locus_tag="CCM_08013" id="clusterblast-1_h13_2_11" points="518,85 523,80 531,80 531,90 523,90 518,85 " class="clusterblast-orf"  />
<polygon style="stroke:black; stroke-width:1; fill:#FFFFFF; " description="Cytochrome_P450[br]Location: 2342959 - 2344994" locus_tag="CCM_08012" id="clusterblast-1_h13_2_12" points="535,90 545,90 550,85 545,80 535,80 535,90 " class="clusterblast-orf"  />
<polygon style="stroke:black; stroke-width:1; fill:#FFFFFF; " description="MFS_multidrug_transporter[br]Location: 2340555 - 2342607" locus_tag="CCM_08011" id="clusterblast-1_h13_2_13" points="553,85 558,80 567,80 567,90 558,90 553,85 " class="clusterblast-orf"  />
<polygon style="stroke:black; stroke-width:1; fill:#FFFFFF; " description="ankyrin_repeat_protein[br]Location: 2338164 - 2339437" locus_tag="CCM_08010" id="clusterblast-1_h13_2_14" points="576,85 581,80 585,80 585,90 581,90 576,85 " class="clusterblast-orf"  />
<polygon style="stroke:black; stroke-width:1; fill:#FFFFFF; " description="NUDIX_hydrolase_domain-like_protein[br]Location: 2334378 - 2334965" locus_tag="CCM_08009" id="clusterblast-1_h13_2_15" points="608,90 612,85 608,80 608,90 " class="clusterblast-orf"  />
<polygon style="stroke:black; stroke-width:1; fill:#FFFFFF; " description="beta-lactamase,_putative[br]Location: 2331184 - 2332500" locus_tag="CCM_08008" id="clusterblast-1_h13_2_16" points="626,85 631,80 635,80 635,90 631,90 626,85 " class="clusterblast-orf"  />
</g>
</svg>
