<svg xmlns="http://www.w3.org/2000/svg" height="230" width="800" version="1.1" y="0" x="0" preserveAspectRatio="none" xmlns:xlink="http://www.w3.org/1999/xlink" viewBox="0 0 800 230"  >
<g class="clusterblast-cluster" label="Query sequence"  >
<text class="clusterblast-acc" y="10" x="5"  >
Query sequence</text>
<line y1="35" x2="778.0" style="stroke:grey; stroke-width:1; " x1="10" y2="35"  />
<polygon style="stroke:black; stroke-width:1; fill:red; " description="unannotated orf[br]Location: 18826 - 24323" locus_tag="CHAFR746836_0048040.1" class="clusterblast-orf" points="250,35 255,30 331,30 331,40 255,40 250,35 " id="clusterblast-1_q57_1_0"  />
<polygon style="stroke:black; stroke-width:1; fill:#FFFFFF; " description="unannotated orf[br]Location: 27327 - 29289" locus_tag="CHAFR746836_0048050.1" class="clusterblast-orf" points="375,35 380,30 404,30 404,40 380,40 375,35 " id="clusterblast-1_q57_1_1"  />
<polygon style="stroke:black; stroke-width:1; fill:green; " description="unannotated orf[br]Location: 31909 - 32971" locus_tag="CHAFR746836_0048060.1" class="clusterblast-orf" points="443,40 453,40 458,35 453,30 443,30 443,40 " id="clusterblast-1_q57_1_2"  />
<polygon style="stroke:black; stroke-width:1; fill:blue; " description="unannotated orf[br]Location: 33755 - 35353" locus_tag="CHAFR746836_0048070.1" class="clusterblast-orf" points="470,35 475,30 494,30 494,40 475,40 470,35 " id="clusterblast-1_q57_1_3"  />
<polygon style="stroke:black; stroke-width:1; fill:yellow; " description="unannotated orf[br]Location: 36309 - 38321" locus_tag="CHAFR746836_0048080.1" class="clusterblast-orf" points="508,40 532,40 537,35 532,30 508,30 508,40 " id="clusterblast-1_q57_1_4"  />
</g>
<g class="clusterblast-cluster" description="Fusarium oxysporum Fo5176 contig00183, whole genome shot..." label="AFQF01000176.1_c1"  >
<text class="clusterblast-acc" y="60" x="5"  >
AFQF01000176.1_c1</text>
<text class="clusterblast-desc" y="60" x="460.8"  >
Fusarium oxysporum Fo5176 contig00183, whole genome shot...</text>
<line y1="85" x2="778.0" style="stroke:grey; stroke-width:1; " x1="10" y2="85"  />
<polygon style="stroke:black; stroke-width:1; fill:#FFFFFF; " description="hypothetical_protein[br]Location: 4665 - 6794" locus_tag="FOXB_00601" id="clusterblast-1_h57_1_0" points="10,90 36,90 41,85 36,80 10,80 10,90 " class="clusterblast-orf"  />
<polygon style="stroke:black; stroke-width:1; fill:#FFFFFF; " description="hypothetical_protein[br]Location: 7202 - 9488" locus_tag="FOXB_00602" id="clusterblast-1_h57_1_1" points="47,90 76,90 81,85 76,80 47,80 47,90 " class="clusterblast-orf"  />
<polygon style="stroke:black; stroke-width:1; fill:#FFFFFF; " description="hypothetical_protein[br]Location: 10016 - 11746" locus_tag="FOXB_00603" id="clusterblast-1_h57_1_2" points="89,85 94,80 114,80 114,90 94,90 89,85 " class="clusterblast-orf"  />
<polygon style="stroke:black; stroke-width:1; fill:#FFFFFF; " description="hypothetical_protein[br]Location: 14578 - 15306" locus_tag="FOXB_00604" id="clusterblast-1_h57_1_3" points="156,85 161,80 167,80 167,90 161,90 156,85 " class="clusterblast-orf"  />
<polygon style="stroke:black; stroke-width:1; fill:#FFFFFF; " description="hypothetical_protein[br]Location: 15948 - 17836" locus_tag="FOXB_00605" id="clusterblast-1_h57_1_4" points="176,85 181,80 204,80 204,90 181,90 176,85 " class="clusterblast-orf"  />
<polygon style="stroke:black; stroke-width:1; fill:#FFFFFF; " description="hypothetical_protein[br]Location: 18658 - 20393" locus_tag="FOXB_00606" id="clusterblast-1_h57_1_5" points="216,90 237,90 242,85 237,80 216,80 216,90 " class="clusterblast-orf"  />
<polygon style="stroke:black; stroke-width:1; fill:#FFFFFF; " description="hypothetical_protein[br]Location: 20803 - 22017" locus_tag="FOXB_00607" id="clusterblast-1_h57_1_6" points="248,90 261,90 266,85 261,80 248,80 248,90 " class="clusterblast-orf"  />
<polygon style="stroke:black; stroke-width:1; fill:#FFFFFF; " description="hypothetical_protein[br]Location: 23160 - 23544" locus_tag="FOXB_00608" id="clusterblast-1_h57_1_7" points="283,90 283,90 288,85 283,80 283,80 283,90 " class="clusterblast-orf"  />
<polygon style="stroke:black; stroke-width:1; fill:red; " description="hypothetical_protein[br]Location: 23974 - 36235&lt;br&gt;&lt;br&gt;&lt;b&gt;BlastP hit with CHAFR746836_0048040.1&lt;/b&gt;&lt;br&gt;Percentage identity: 63%&lt;br&gt;Percentage coverage: 99%&lt;br&gt;BLAST bit score: 2318&lt;br&gt;E-value: 0.0&lt;br&gt;&lt;br&gt;&lt;b&gt;BlastP hit with CHAFR746836_0048050.1&lt;/b&gt;&lt;br&gt;Percentage identity: 77%&lt;br&gt;Percentage coverage: 95%&lt;br&gt;BLAST bit score: 875&lt;br&gt;E-value: 0.0" locus_tag="FOXB_00609" id="clusterblast-1_h57_1_8" points="295,85 300,80 476,80 476,90 300,90 295,85 " class="clusterblast-orf"  />
<polygon style="stroke:black; stroke-width:1; fill:#FFFFFF; " description="hypothetical_protein[br]Location: 36802 - 37923" locus_tag="FOXB_00610" id="clusterblast-1_h57_1_9" points="484,90 496,90 501,85 496,80 484,80 484,90 " class="clusterblast-orf"  />
<polygon style="stroke:black; stroke-width:1; fill:green; " description="hypothetical_protein[br]Location: 38600 - 39667&lt;br&gt;&lt;br&gt;&lt;b&gt;BlastP hit with CHAFR746836_0048060.1&lt;/b&gt;&lt;br&gt;Percentage identity: 70%&lt;br&gt;Percentage coverage: 98%&lt;br&gt;BLAST bit score: 536&lt;br&gt;E-value: 0.0" locus_tag="FOXB_00611" id="clusterblast-1_h57_1_10" points="511,90 521,90 526,85 521,80 511,80 511,90 " class="clusterblast-orf"  />
<polygon style="stroke:black; stroke-width:1; fill:#FFFFFF; " description="hypothetical_protein[br]Location: 40863 - 42239" locus_tag="FOXB_00612" id="clusterblast-1_h57_1_11" points="544,85 549,80 564,80 564,90 549,90 544,85 " class="clusterblast-orf"  />
<polygon style="stroke:black; stroke-width:1; fill:yellow; " description="hypothetical_protein[br]Location: 43458 - 46732&lt;br&gt;&lt;br&gt;&lt;b&gt;BlastP hit with CHAFR746836_0048080.1&lt;/b&gt;&lt;br&gt;Percentage identity: 55%&lt;br&gt;Percentage coverage: 103%&lt;br&gt;BLAST bit score: 638&lt;br&gt;E-value: 0.0" locus_tag="FOXB_00613" id="clusterblast-1_h57_1_12" points="582,85 587,80 631,80 631,90 587,90 582,85 " class="clusterblast-orf"  />
<polygon style="stroke:black; stroke-width:1; fill:blue; " description="hypothetical_protein[br]Location: 47268 - 48951&lt;br&gt;&lt;br&gt;&lt;b&gt;BlastP hit with CHAFR746836_0048070.1&lt;/b&gt;&lt;br&gt;Percentage identity: 68%&lt;br&gt;Percentage coverage: 100%&lt;br&gt;BLAST bit score: 636&lt;br&gt;E-value: 0.0" locus_tag="FOXB_00614" id="clusterblast-1_h57_1_13" points="639,90 658,90 663,85 658,80 639,80 639,90 " class="clusterblast-orf"  />
<polygon style="stroke:black; stroke-width:1; fill:#FFFFFF; " description="hypothetical_protein[br]Location: 50710 - 51094" locus_tag="FOXB_00615" id="clusterblast-1_h57_1_14" points="689,90 690,90 695,85 690,80 689,80 689,90 " class="clusterblast-orf"  />
<polygon style="stroke:black; stroke-width:1; fill:#FFFFFF; " description="hypothetical_protein[br]Location: 51649 - 53892" locus_tag="FOXB_00616" id="clusterblast-1_h57_1_15" points="703,85 708,80 736,80 736,90 708,90 703,85 " class="clusterblast-orf"  />
<polygon style="stroke:black; stroke-width:1; fill:#FFFFFF; " description="hypothetical_protein[br]Location: 54545 - 56673" locus_tag="FOXB_00617" id="clusterblast-1_h57_1_16" points="746,90 773,90 778,85 773,80 746,80 746,90 " class="clusterblast-orf"  />
</g>
</svg>
