<svg xmlns="http://www.w3.org/2000/svg" height="230" width="800" version="1.1" y="0" x="0" preserveAspectRatio="none" xmlns:xlink="http://www.w3.org/1999/xlink" viewBox="0 0 800 230"  >
<g class="clusterblast-cluster" label="Query sequence"  >
<text class="clusterblast-acc" y="10" x="5"  >
Query sequence</text>
<line y1="35" x2="778.0" style="stroke:grey; stroke-width:1; " x1="10" y2="35"  />
<polygon style="stroke:black; stroke-width:1; fill:#FFFFFF; " description="unannotated orf[br]Location: 0 - 322" locus_tag="CHAFR746836_0040870.1" class="clusterblast-orf" points="50,35 52,30 52,40 50,35 " id="clusterblast-1_q53_4_0"  />
<polygon style="stroke:black; stroke-width:1; fill:#FFFFFF; " description="unannotated orf[br]Location: 690 - 1609" locus_tag="CHAFR746836_0040880.1" class="clusterblast-orf" points="56,40 59,40 64,35 59,30 56,30 56,40 " id="clusterblast-1_q53_4_1"  />
<polygon style="stroke:black; stroke-width:1; fill:#FFFFFF; " description="unannotated orf[br]Location: 1917 - 2487" locus_tag="CHAFR746836_0040890.1" class="clusterblast-orf" points="66,35 71,30 71,30 71,40 71,40 66,35 " id="clusterblast-1_q53_4_2"  />
<polygon style="stroke:black; stroke-width:1; fill:#FFFFFF; " description="unannotated orf[br]Location: 2829 - 4095" locus_tag="CHAFR746836_0040900.1" class="clusterblast-orf" points="74,40 80,40 85,35 80,30 74,30 74,40 " id="clusterblast-1_q53_4_3"  />
<polygon style="stroke:black; stroke-width:1; fill:red; " description="unannotated orf[br]Location: 4748 - 6053" locus_tag="CHAFR746836_0040910.1" class="clusterblast-orf" points="91,40 98,40 103,35 98,30 91,30 91,40 " id="clusterblast-1_q53_4_4"  />
<polygon style="stroke:black; stroke-width:1; fill:green; " description="unannotated orf[br]Location: 5316 - 6053" locus_tag="CHAFR746836_0040910.2" class="clusterblast-orf" points="96,40 98,40 103,35 98,30 96,30 96,40 " id="clusterblast-1_q53_4_5"  />
<polygon style="stroke:black; stroke-width:1; fill:#FFFFFF; " description="unannotated orf[br]Location: 19247 - 21227" locus_tag="CHAFR746836_0040920.1" class="clusterblast-orf" points="218,35 223,30 235,30 235,40 223,40 218,35 " id="clusterblast-1_q53_4_6"  />
<polygon style="stroke:black; stroke-width:1; fill:#FFFFFF; " description="unannotated orf[br]Location: 22480 - 23723" locus_tag="CHAFR746836_0040930.1" class="clusterblast-orf" points="246,35 251,30 257,30 257,40 251,40 246,35 " id="clusterblast-1_q53_4_7"  />
<polygon style="stroke:black; stroke-width:1; fill:#FFFFFF; " description="unannotated orf[br]Location: 24447 - 25229" locus_tag="CHAFR746836_0040940.1" class="clusterblast-orf" points="264,40 266,40 271,35 266,30 264,30 264,40 " id="clusterblast-1_q53_4_8"  />
<polygon style="stroke:black; stroke-width:1; fill:blue; " description="unannotated orf[br]Location: 26989 - 36831" locus_tag="CHAFR746836_0040950.1" class="clusterblast-orf" points="286,40 367,40 372,35 367,30 286,30 286,40 " id="clusterblast-1_q53_4_9"  />
<polygon style="stroke:black; stroke-width:1; fill:#FFFFFF; " description="unannotated orf[br]Location: 37202 - 38681" locus_tag="CHAFR746836_0040960.1" class="clusterblast-orf" points="375,35 380,30 388,30 388,40 380,40 375,35 " id="clusterblast-1_q53_4_10"  />
<polygon style="stroke:black; stroke-width:1; fill:#FFFFFF; " description="unannotated orf[br]Location: 39268 - 43358" locus_tag="CHAFR746836_0040970.1" class="clusterblast-orf" points="393,35 398,30 429,30 429,40 398,40 393,35 " id="clusterblast-1_q53_4_11"  />
<polygon style="stroke:black; stroke-width:1; fill:#FFFFFF; " description="unannotated orf[br]Location: 44144 - 49961" locus_tag="CHAFR746836_0040980.1" class="clusterblast-orf" points="436,40 482,40 487,35 482,30 436,30 436,40 " id="clusterblast-1_q53_4_12"  />
<polygon style="stroke:black; stroke-width:1; fill:#FFFFFF; " description="unannotated orf[br]Location: 60900 - 62027" locus_tag="CHAFR746836_0040990.1" class="clusterblast-orf" points="583,40 588,40 593,35 588,30 583,30 583,40 " id="clusterblast-1_q53_4_13"  />
<polygon style="stroke:black; stroke-width:1; fill:#FFFFFF; " description="unannotated orf[br]Location: 67062 - 68025" locus_tag="CHAFR746836_0041000.1" class="clusterblast-orf" points="637,40 640,40 645,35 640,30 637,30 637,40 " id="clusterblast-1_q53_4_14"  />
<polygon style="stroke:black; stroke-width:1; fill:#FFFFFF; " description="unannotated orf[br]Location: 70299 - 71348" locus_tag="CHAFR746836_0041010.1" class="clusterblast-orf" points="665,40 670,40 675,35 670,30 665,30 665,40 " id="clusterblast-1_q53_4_15"  />
<polygon style="stroke:black; stroke-width:1; fill:#FFFFFF; " description="unannotated orf[br]Location: 73436 - 77093" locus_tag="CHAFR746836_0041020.1" class="clusterblast-orf" points="693,35 698,30 725,30 725,40 698,40 693,35 " id="clusterblast-1_q53_4_16"  />
<polygon style="stroke:black; stroke-width:1; fill:yellow; " description="unannotated orf[br]Location: 77315 - 78384" locus_tag="CHAFR746836_0041030.1" class="clusterblast-orf" points="727,40 731,40 736,35 731,30 727,30 727,40 " id="clusterblast-1_q53_4_17"  />
</g>
<g class="clusterblast-cluster" description="Amycolatopsis mediterranei S699 chromosome, complete genome." label="NC_017186.1_c4"  >
<text class="clusterblast-acc" y="60" x="5"  >
NC_017186.1_c4</text>
<text class="clusterblast-desc" y="60" x="460.8"  >
Amycolatopsis mediterranei S699 chromosome, complete genome.</text>
<line y1="85" x2="778.0" style="stroke:grey; stroke-width:1; " x1="10" y2="85"  />
<polygon style="stroke:black; stroke-width:1; fill:#FFFFFF; " description="zeta-phytoene_desaturase[br]Location: 4475033 - 4476544" locus_tag="RAM_20785" id="clusterblast-1_h53_4_0" points="10,85 15,80 23,80 23,90 15,90 10,85 " class="clusterblast-orf"  />
<polygon style="stroke:black; stroke-width:1; fill:#FFFFFF; " description="glycosyl_transferase_family_protein[br]Location: 4473936 - 4475036" locus_tag="RAM_20780" id="clusterblast-1_h53_4_1" points="23,85 28,80 32,80 32,90 28,90 23,85 " class="clusterblast-orf"  />
<polygon style="stroke:black; stroke-width:1; fill:#FFFFFF; " description="hypothetical_protein[br]Location: 4473139 - 4473957" locus_tag="RAM_20775" id="clusterblast-1_h53_4_2" points="32,85 37,80 39,80 39,90 37,90 32,85 " class="clusterblast-orf"  />
<polygon style="stroke:black; stroke-width:1; fill:#FFFFFF; " description="polyprenyl_synthetase[br]Location: 4471665 - 4472768" locus_tag="RAM_20770" id="clusterblast-1_h53_4_3" points="43,90 47,90 52,85 47,80 43,80 43,90 " class="clusterblast-orf"  />
<polygon style="stroke:black; stroke-width:1; fill:#FFFFFF; " description="phytoene_dehydrogenase-related_protein[br]Location: 4470193 - 4471668" locus_tag="RAM_20765" id="clusterblast-1_h53_4_4" points="52,90 60,90 65,85 60,80 52,80 52,90 " class="clusterblast-orf"  />
<polygon style="stroke:black; stroke-width:1; fill:#FFFFFF; " description="phytoene_synthase[br]Location: 4469234 - 4470196" locus_tag="RAM_20760" id="clusterblast-1_h53_4_5" points="65,90 69,90 74,85 69,80 65,80 65,90 " class="clusterblast-orf"  />
<polygon style="stroke:black; stroke-width:1; fill:#FFFFFF; " description="lycopene_cyclase[br]Location: 4468892 - 4469233" locus_tag="RAM_20755" id="clusterblast-1_h53_4_6" points="74,90 77,85 74,80 74,90 " class="clusterblast-orf"  />
<polygon style="stroke:black; stroke-width:1; fill:#FFFFFF; " description="lycopene_cyclase[br]Location: 4468575 - 4468895" locus_tag="RAM_20750" id="clusterblast-1_h53_4_7" points="77,90 79,85 77,80 77,90 " class="clusterblast-orf"  />
<polygon style="stroke:black; stroke-width:1; fill:#FFFFFF; " description="ubiquinone/menaquinone_biosynthesis[br]Location: 4467847 - 4468578" locus_tag="RAM_20745" id="clusterblast-1_h53_4_8" points="79,90 81,90 86,85 81,80 79,80 79,90 " class="clusterblast-orf"  />
<polygon style="stroke:black; stroke-width:1; fill:#FFFFFF; " description="isorenieratene_synthase[br]Location: 4466309 - 4467850" locus_tag="RAM_20740" id="clusterblast-1_h53_4_9" points="86,90 94,90 99,85 94,80 86,80 86,90 " class="clusterblast-orf"  />
<polygon style="stroke:black; stroke-width:1; fill:#FFFFFF; " description="oxidoreductase[br]Location: 4465065 - 4466312" locus_tag="RAM_20735" id="clusterblast-1_h53_4_10" points="99,90 105,90 110,85 105,80 99,80 99,90 " class="clusterblast-orf"  />
<polygon style="stroke:black; stroke-width:1; fill:#FFFFFF; " description="hyalin[br]Location: 4462882 - 4464741" locus_tag="RAM_20730" id="clusterblast-1_h53_4_11" points="113,90 124,90 129,85 124,80 113,80 113,90 " class="clusterblast-orf"  />
<polygon style="stroke:black; stroke-width:1; fill:#FFFFFF; " description="3-oxoacyl-ACP_synthase[br]Location: 4461851 - 4462837" locus_tag="RAM_20725" id="clusterblast-1_h53_4_12" points="130,85 135,80 138,80 138,90 135,90 130,85 " class="clusterblast-orf"  />
<polygon style="stroke:black; stroke-width:1; fill:blue; " description="non-ribosomal_peptide_synthetase/polyketide[br]Location: 4456458 - 4461854&lt;br&gt;&lt;br&gt;&lt;b&gt;BlastP hit with CHAFR746836_0040950.1&lt;/b&gt;&lt;br&gt;Percentage identity: 35%&lt;br&gt;Percentage coverage: 13%&lt;br&gt;BLAST bit score: 215&lt;br&gt;E-value: 2e-54" locus_tag="RAM_20720" id="clusterblast-1_h53_4_13" points="138,85 143,80 185,80 185,90 143,90 138,85 " class="clusterblast-orf"  />
<polygon style="stroke:black; stroke-width:1; fill:#FFFFFF; " description="non-ribosomal_peptide_synthase[br]Location: 4448756 - 4456444" locus_tag="RAM_20715" id="clusterblast-1_h53_4_14" points="186,85 191,80 253,80 253,90 191,90 186,85 " class="clusterblast-orf"  />
<polygon style="stroke:black; stroke-width:1; fill:#FFFFFF; " description="hypothetical_protein[br]Location: 4448186 - 4448452" locus_tag="RAM_20710" id="clusterblast-1_h53_4_15" points="256,90 258,85 256,80 256,90 " class="clusterblast-orf"  />
<polygon style="stroke:black; stroke-width:1; fill:#FFFFFF; " description="acyl-CoA_dehydrogenase[br]Location: 4447086 - 4448180" locus_tag="RAM_20705" id="clusterblast-1_h53_4_16" points="258,90 263,90 268,85 263,80 258,80 258,90 " class="clusterblast-orf"  />
<polygon style="stroke:black; stroke-width:1; fill:#FFFFFF; " description="FkbH-like_protein[br]Location: 4446067 - 4447098" locus_tag="RAM_20700" id="clusterblast-1_h53_4_17" points="267,90 271,90 276,85 271,80 267,80 267,90 " class="clusterblast-orf"  />
<polygon style="stroke:black; stroke-width:1; fill:yellow; " description="3-hydroxybutyryl-CoA_dehydrogenase[br]Location: 4445231 - 4446070&lt;br&gt;&lt;br&gt;&lt;b&gt;BlastP hit with CHAFR746836_0041030.1&lt;/b&gt;&lt;br&gt;Percentage identity: 36%&lt;br&gt;Percentage coverage: 89%&lt;br&gt;BLAST bit score: 177&lt;br&gt;E-value: 2e-51" locus_tag="RAM_20695" id="clusterblast-1_h53_4_18" points="276,90 279,90 284,85 279,80 276,80 276,90 " class="clusterblast-orf"  />
<polygon style="stroke:black; stroke-width:1; fill:#FFFFFF; " description="PaaX_family_transcriptional_regulator[br]Location: 4444458 - 4445246" locus_tag="RAM_20690" id="clusterblast-1_h53_4_19" points="284,85 289,80 291,80 291,90 289,90 284,85 " class="clusterblast-orf"  />
<polygon style="stroke:black; stroke-width:1; fill:#FFFFFF; " description="major_facilitator_superfamily_transporter[br]Location: 4442957 - 4444270" locus_tag="RAM_20685" id="clusterblast-1_h53_4_20" points="292,90 299,90 304,85 299,80 292,80 292,90 " class="clusterblast-orf"  />
<polygon style="stroke:black; stroke-width:1; fill:#FFFFFF; " description="hypothetical_protein[br]Location: 4441614 - 4442960" locus_tag="RAM_20680" id="clusterblast-1_h53_4_21" points="304,90 310,90 315,85 310,80 304,80 304,90 " class="clusterblast-orf"  />
<polygon style="stroke:black; stroke-width:1; fill:#FFFFFF; " description="hypothetical_protein[br]Location: 4440887 - 4441504" locus_tag="RAM_20675" id="clusterblast-1_h53_4_22" points="316,90 317,90 322,85 317,80 316,80 316,90 " class="clusterblast-orf"  />
<polygon style="stroke:black; stroke-width:1; fill:#FFFFFF; " description="LysR_family_transcriptional_regulator[br]Location: 4439965 - 4440864" locus_tag="RAM_20670" id="clusterblast-1_h53_4_23" points="322,85 327,80 330,80 330,90 327,90 322,85 " class="clusterblast-orf"  />
<polygon style="stroke:black; stroke-width:1; fill:#FFFFFF; " description="myo-inositol-1(or_4)-monophosphatase[br]Location: 4439151 - 4439930" locus_tag="RAM_20665" id="clusterblast-1_h53_4_24" points="330,90 332,90 337,85 332,80 330,80 330,90 " class="clusterblast-orf"  />
<polygon style="stroke:black; stroke-width:1; fill:#FFFFFF; " description="beta-lactamase_class_C[br]Location: 4437971 - 4439140" locus_tag="RAM_20660" id="clusterblast-1_h53_4_25" points="337,85 342,80 347,80 347,90 342,90 337,85 " class="clusterblast-orf"  />
<polygon style="stroke:black; stroke-width:1; fill:#FFFFFF; " description="two-component_system_response_regulator[br]Location: 4437227 - 4437883" locus_tag="RAM_20655" id="clusterblast-1_h53_4_26" points="348,90 349,90 354,85 349,80 348,80 348,90 " class="clusterblast-orf"  />
<polygon style="stroke:black; stroke-width:1; fill:#FFFFFF; " description="two-component_system_histidine_kinase[br]Location: 4436121 - 4437230" locus_tag="RAM_20650" id="clusterblast-1_h53_4_27" points="354,90 359,90 364,85 359,80 354,80 354,90 " class="clusterblast-orf"  />
<polygon style="stroke:black; stroke-width:1; fill:#FFFFFF; " description="PHB_depolymerase_family_esterase[br]Location: 4435129 - 4436064" locus_tag="RAM_20645" id="clusterblast-1_h53_4_28" points="364,85 369,80 372,80 372,90 369,90 364,85 " class="clusterblast-orf"  />
<polygon style="stroke:black; stroke-width:1; fill:#FFFFFF; " description="PaaX_family_transcriptional_regulator[br]Location: 4434096 - 4434668" locus_tag="RAM_20640" id="clusterblast-1_h53_4_29" points="376,90 376,90 381,85 376,80 376,80 376,90 " class="clusterblast-orf"  />
<polygon style="stroke:black; stroke-width:1; fill:#FFFFFF; " description="hypothetical_protein[br]Location: 4432517 - 4434019" locus_tag="RAM_20635" id="clusterblast-1_h53_4_30" points="382,90 390,90 395,85 390,80 382,80 382,90 " class="clusterblast-orf"  />
<polygon style="stroke:black; stroke-width:1; fill:#FFFFFF; " description="hypothetical_protein[br]Location: 4431981 - 4432520" locus_tag="RAM_20630" id="clusterblast-1_h53_4_31" points="395,85 400,80 400,80 400,90 400,90 395,85 " class="clusterblast-orf"  />
<polygon style="stroke:black; stroke-width:1; fill:#FFFFFF; " description="F-type_H+-transporting_ATPase_subunit_c[br]Location: 4431648 - 4431893" locus_tag="RAM_20625" id="clusterblast-1_h53_4_32" points="401,85 403,80 403,90 401,85 " class="clusterblast-orf"  />
<polygon style="stroke:black; stroke-width:1; fill:#FFFFFF; " description="SARP_family_transcriptional_regulator[br]Location: 4429751 - 4430437" locus_tag="RAM_20620" id="clusterblast-1_h53_4_33" points="413,90 414,90 419,85 414,80 413,80 413,90 " class="clusterblast-orf"  />
<polygon style="stroke:black; stroke-width:1; fill:#FFFFFF; " description="acyl_carrier_protein[br]Location: 4429237 - 4429476" locus_tag="RAM_20615" id="clusterblast-1_h53_4_34" points="422,90 424,85 422,80 422,90 " class="clusterblast-orf"  />
<polygon style="stroke:black; stroke-width:1; fill:#FFFFFF; " description="3-oxoacyl-ACP_synthase[br]Location: 4427916 - 4429112" locus_tag="RAM_20610" id="clusterblast-1_h53_4_35" points="425,90 430,90 435,85 430,80 425,80 425,90 " class="clusterblast-orf"  />
<polygon style="stroke:black; stroke-width:1; fill:#FFFFFF; " description="3-oxoacyl-ACP_synthase[br]Location: 4426810 - 4427919" locus_tag="RAM_20605" id="clusterblast-1_h53_4_36" points="435,90 440,90 445,85 440,80 435,80 435,90 " class="clusterblast-orf"  />
<polygon style="stroke:black; stroke-width:1; fill:red; " description="3-oxoacyl-ACP_reductase[br]Location: 4425996 - 4426736&lt;br&gt;&lt;br&gt;&lt;b&gt;BlastP hit with CHAFR746836_0040910.1&lt;/b&gt;&lt;br&gt;Percentage identity: 32%&lt;br&gt;Percentage coverage: 98%&lt;br&gt;BLAST bit score: 97&lt;br&gt;E-value: 2e-22&lt;br&gt;&lt;br&gt;&lt;b&gt;BlastP hit with CHAFR746836_0040910.2&lt;/b&gt;&lt;br&gt;Percentage identity: 38%&lt;br&gt;Percentage coverage: 93%&lt;br&gt;BLAST bit score: 73&lt;br&gt;E-value: 2e-15" locus_tag="RAM_20600" id="clusterblast-1_h53_4_37" points="446,90 447,90 452,85 447,80 446,80 446,90 " class="clusterblast-orf"  />
<polygon style="stroke:black; stroke-width:1; fill:#FFFFFF; " description="hypothetical_protein[br]Location: 4424599 - 4425981" locus_tag="RAM_20595" id="clusterblast-1_h53_4_38" points="452,90 460,90 465,85 460,80 452,80 452,90 " class="clusterblast-orf"  />
<polygon style="stroke:black; stroke-width:1; fill:#FFFFFF; " description="ornithine_cyclodeaminase[br]Location: 4423529 - 4424566" locus_tag="RAM_20590" id="clusterblast-1_h53_4_39" points="465,90 469,90 474,85 469,80 465,80 465,90 " class="clusterblast-orf"  />
<polygon style="stroke:black; stroke-width:1; fill:#FFFFFF; " description="cysteine_synthase[br]Location: 4422526 - 4423515" locus_tag="RAM_20585" id="clusterblast-1_h53_4_40" points="474,90 478,90 483,85 478,80 474,80 474,90 " class="clusterblast-orf"  />
<polygon style="stroke:black; stroke-width:1; fill:#FFFFFF; " description="hypothetical_protein[br]Location: 4421064 - 4422365" locus_tag="RAM_20580" id="clusterblast-1_h53_4_41" points="484,90 491,90 496,85 491,80 484,80 484,90 " class="clusterblast-orf"  />
<polygon style="stroke:black; stroke-width:1; fill:#FFFFFF; " description="multidrug_ABC_transporter_ATPase[br]Location: 4420106 - 4421071" locus_tag="RAM_20575" id="clusterblast-1_h53_4_42" points="495,85 500,80 504,80 504,90 500,90 495,85 " class="clusterblast-orf"  />
<polygon style="stroke:black; stroke-width:1; fill:#FFFFFF; " description="MbtH_protein[br]Location: 4419903 - 4420106" locus_tag="RAM_20570" id="clusterblast-1_h53_4_43" points="504,85 506,80 506,90 504,85 " class="clusterblast-orf"  />
<polygon style="stroke:black; stroke-width:1; fill:#FFFFFF; " description="ABC_transporter[br]Location: 4418892 - 4419698" locus_tag="RAM_20565" id="clusterblast-1_h53_4_44" points="507,85 512,80 515,80 515,90 512,90 507,85 " class="clusterblast-orf"  />
<polygon style="stroke:black; stroke-width:1; fill:#FFFFFF; " description="non-ribosomal_peptide_synthetase[br]Location: 4408873 - 4418889" locus_tag="RAM_20560" id="clusterblast-1_h53_4_45" points="515,85 520,80 602,80 602,90 520,90 515,85 " class="clusterblast-orf"  />
<polygon style="stroke:black; stroke-width:1; fill:#FFFFFF; " description="cysteine_synthase[br]Location: 4407896 - 4408873" locus_tag="RAM_20555" id="clusterblast-1_h53_4_46" points="602,85 607,80 611,80 611,90 607,90 602,85 " class="clusterblast-orf"  />
<polygon style="stroke:black; stroke-width:1; fill:#FFFFFF; " description="acyl-CoA_dehydrogenase[br]Location: 4406682 - 4407905" locus_tag="RAM_20550" id="clusterblast-1_h53_4_47" points="611,85 616,80 621,80 621,90 616,90 611,85 " class="clusterblast-orf"  />
<polygon style="stroke:black; stroke-width:1; fill:#FFFFFF; " description="hypothetical_protein[br]Location: 4406068 - 4406685" locus_tag="RAM_20545" id="clusterblast-1_h53_4_48" points="621,85 626,80 627,80 627,90 626,90 621,85 " class="clusterblast-orf"  />
<polygon style="stroke:black; stroke-width:1; fill:#FFFFFF; " description="acyl_carrier_protein[br]Location: 4405777 - 4406064" locus_tag="RAM_20540" id="clusterblast-1_h53_4_49" points="627,85 629,80 629,90 627,85 " class="clusterblast-orf"  />
<polygon style="stroke:black; stroke-width:1; fill:#FFFFFF; " description="phytoene_dehydrogenase-related_protein[br]Location: 4404014 - 4405696" locus_tag="RAM_20535" id="clusterblast-1_h53_4_50" points="630,85 635,80 645,80 645,90 635,90 630,85 " class="clusterblast-orf"  />
<polygon style="stroke:black; stroke-width:1; fill:#FFFFFF; " description="ABC_transporter_permease[br]Location: 4401336 - 4403906" locus_tag="RAM_20530" id="clusterblast-1_h53_4_51" points="646,85 651,80 668,80 668,90 651,90 646,85 " class="clusterblast-orf"  />
<polygon style="stroke:black; stroke-width:1; fill:#FFFFFF; " description="peptide_ABC_transporter_ATPase[br]Location: 4400542 - 4401336" locus_tag="RAM_20525" id="clusterblast-1_h53_4_52" points="668,85 673,80 675,80 675,90 673,90 668,85 " class="clusterblast-orf"  />
<polygon style="stroke:black; stroke-width:1; fill:#FFFFFF; " description="two-component_system_histidine_kinase[br]Location: 4399111 - 4400361" locus_tag="RAM_20520" id="clusterblast-1_h53_4_53" points="677,90 683,90 688,85 683,80 677,80 677,90 " class="clusterblast-orf"  />
<polygon style="stroke:black; stroke-width:1; fill:#FFFFFF; " description="two-component_system_response_regulator[br]Location: 4398460 - 4399104" locus_tag="RAM_20515" id="clusterblast-1_h53_4_54" points="688,85 693,80 694,80 694,90 693,90 688,85 " class="clusterblast-orf"  />
<polygon style="stroke:black; stroke-width:1; fill:#FFFFFF; " description="hypothetical_protein[br]Location: 4397595 - 4398404" locus_tag="RAM_20510" id="clusterblast-1_h53_4_55" points="694,85 699,80 701,80 701,90 699,90 694,85 " class="clusterblast-orf"  />
<polygon style="stroke:black; stroke-width:1; fill:#FFFFFF; " description="diaminopimelate_decarboxylase[br]Location: 4396296 - 4397591" locus_tag="RAM_20505" id="clusterblast-1_h53_4_56" points="701,85 706,80 712,80 712,90 706,90 701,85 " class="clusterblast-orf"  />
<polygon style="stroke:black; stroke-width:1; fill:#FFFFFF; " description="3-oxoacyl-ACP_synthase[br]Location: 4395359 - 4396285" locus_tag="RAM_20500" id="clusterblast-1_h53_4_57" points="713,85 718,80 721,80 721,90 718,90 713,85 " class="clusterblast-orf"  />
<polygon style="stroke:black; stroke-width:1; fill:#FFFFFF; " description="SARP_family_transcriptional_regulator_fused_with[br]Location: 4392110 - 4395214" locus_tag="RAM_20495" id="clusterblast-1_h53_4_58" points="722,85 727,80 749,80 749,90 727,90 722,85 " class="clusterblast-orf"  />
<polygon style="stroke:black; stroke-width:1; fill:#FFFFFF; " description="MarR_family_transcriptional_regulator[br]Location: 4391514 - 4391975" locus_tag="RAM_20490" id="clusterblast-1_h53_4_59" points="750,85 754,80 754,90 750,85 " class="clusterblast-orf"  />
<polygon style="stroke:black; stroke-width:1; fill:#FFFFFF; " description="short-chain_dehydrogenase/reductase_SDR[br]Location: 4390722 - 4391462" locus_tag="RAM_20485" id="clusterblast-1_h53_4_60" points="755,90 756,90 761,85 756,80 755,80 755,90 " class="clusterblast-orf"  />
<polygon style="stroke:black; stroke-width:1; fill:#FFFFFF; " description="hypothetical_protein[br]Location: 4390592 - 4390753" locus_tag="RAM_20480" id="clusterblast-1_h53_4_61" points="761,85 762,80 762,90 761,85 " class="clusterblast-orf"  />
<polygon style="stroke:black; stroke-width:1; fill:#FFFFFF; " description="3-oxoacyl-ACP_reductase[br]Location: 4389677 - 4390471" locus_tag="RAM_20475" id="clusterblast-1_h53_4_62" points="763,85 768,80 770,80 770,90 768,90 763,85 " class="clusterblast-orf"  />
<polygon style="stroke:black; stroke-width:1; fill:#FFFFFF; " description="hypothetical_protein[br]Location: 4388872 - 4389672" locus_tag="RAM_20470" id="clusterblast-1_h53_4_63" points="770,85 775,80 778,80 778,90 775,90 770,85 " class="clusterblast-orf"  />
</g>
</svg>
