<svg xmlns="http://www.w3.org/2000/svg" height="230" width="800" version="1.1" y="0" x="0" preserveAspectRatio="none" xmlns:xlink="http://www.w3.org/1999/xlink" viewBox="0 0 800 230"  >
<g class="clusterblast-cluster" label="Query sequence"  >
<text class="clusterblast-acc" y="10" x="5"  >
Query sequence</text>
<line y1="35" x2="778.0" style="stroke:grey; stroke-width:1; " x1="10" y2="35"  />
<polygon style="stroke:black; stroke-width:1; fill:rgb(169,42,42); " description="unannotated orf[br]Location: 42361 - 45359" locus_tag="CHAFR746836_0094690.1" class="clusterblast-orf" points="10,35 15,30 30,30 30,40 15,40 10,35 " id="clusterblast-1_q27_8_0"  />
<polygon style="stroke:black; stroke-width:1; fill:#FFFFFF; " description="unannotated orf[br]Location: 45759 - 47601" locus_tag="CHAFR746836_0094700.1" class="clusterblast-orf" points="32,40 40,40 45,35 40,30 32,30 32,40 " id="clusterblast-1_q27_8_1"  />
<polygon style="stroke:black; stroke-width:1; fill:#FFFFFF; " description="unannotated orf[br]Location: 49113 - 50656" locus_tag="CHAFR746836_0094710.1" class="clusterblast-orf" points="55,35 60,30 65,30 65,40 60,40 55,35 " id="clusterblast-1_q27_8_2"  />
<polygon style="stroke:black; stroke-width:1; fill:#FFFFFF; " description="unannotated orf[br]Location: 51961 - 53519" locus_tag="CHAFR746836_0094720.1" class="clusterblast-orf" points="74,35 79,30 84,30 84,40 79,40 74,35 " id="clusterblast-1_q27_8_3"  />
<polygon style="stroke:black; stroke-width:1; fill:rgb(42,169,42); " description="unannotated orf[br]Location: 61574 - 67323" locus_tag="CHAFR746836_0094730.1" class="clusterblast-orf" points="138,35 143,30 177,30 177,40 143,40 138,35 " id="clusterblast-1_q27_8_4"  />
<polygon style="stroke:black; stroke-width:1; fill:rgb(42,169,212); " description="unannotated orf[br]Location: 70255 - 75654" locus_tag="CHAFR746836_0094740.1" class="clusterblast-orf" points="196,40 228,40 233,35 228,30 196,30 196,40 " id="clusterblast-1_q27_8_5"  />
<polygon style="stroke:black; stroke-width:1; fill:rgb(169,169,42); " description="unannotated orf[br]Location: 88624 - 90116" locus_tag="CHAFR746836_0094750.1" class="clusterblast-orf" points="320,35 325,30 330,30 330,40 325,40 320,35 " id="clusterblast-1_q27_8_6"  />
<polygon style="stroke:black; stroke-width:1; fill:#FFFFFF; " description="unannotated orf[br]Location: 91304 - 92309" locus_tag="CHAFR746836_0094760.1" class="clusterblast-orf" points="338,40 339,40 344,35 339,30 338,30 338,40 " id="clusterblast-1_q27_8_7"  />
<polygon style="stroke:black; stroke-width:1; fill:#FFFFFF; " description="unannotated orf[br]Location: 92407 - 93918" locus_tag="CHAFR746836_0094770.1" class="clusterblast-orf" points="345,35 350,30 355,30 355,40 350,40 345,35 " id="clusterblast-1_q27_8_8"  />
<polygon style="stroke:black; stroke-width:1; fill:rgb(169,42,127); " description="unannotated orf[br]Location: 94558 - 96160" locus_tag="CHAFR746836_0094780.1" class="clusterblast-orf" points="359,40 365,40 370,35 365,30 359,30 359,40 " id="clusterblast-1_q27_8_9"  />
<polygon style="stroke:black; stroke-width:1; fill:#FFFFFF; " description="unannotated orf[br]Location: 96488 - 97143" locus_tag="CHAFR746836_0094790.1" class="clusterblast-orf" points="372,35 377,30 377,30 377,40 377,40 372,35 " id="clusterblast-1_q27_8_10"  />
<polygon style="stroke:black; stroke-width:1; fill:#FFFFFF; " description="unannotated orf[br]Location: 99047 - 101039" locus_tag="CHAFR746836_0094800.1" class="clusterblast-orf" points="389,40 398,40 403,35 398,30 389,30 389,40 " id="clusterblast-1_q27_8_11"  />
<polygon style="stroke:black; stroke-width:1; fill:#FFFFFF; " description="unannotated orf[br]Location: 105913 - 106563" locus_tag="CHAFR746836_0094810.1" class="clusterblast-orf" points="435,35 440,30 440,30 440,40 440,40 435,35 " id="clusterblast-1_q27_8_12"  />
<polygon style="stroke:black; stroke-width:1; fill:#FFFFFF; " description="unannotated orf[br]Location: 108528 - 112083" locus_tag="CHAFR746836_0094820.1" class="clusterblast-orf" points="453,40 472,40 477,35 472,30 453,30 453,40 " id="clusterblast-1_q27_8_13"  />
<polygon style="stroke:black; stroke-width:1; fill:rgb(42,42,212); " description="unannotated orf[br]Location: 112908 - 114711" locus_tag="CHAFR746836_0094830.1" class="clusterblast-orf" points="482,35 487,30 494,30 494,40 487,40 482,35 " id="clusterblast-1_q27_8_14"  />
<polygon style="stroke:black; stroke-width:1; fill:rgb(169,169,212); " description="unannotated orf[br]Location: 115507 - 115979" locus_tag="CHAFR746836_0094840.1" class="clusterblast-orf" points="500,40 503,35 500,30 500,40 " id="clusterblast-1_q27_8_15"  />
<polygon style="stroke:black; stroke-width:1; fill:rgb(42,169,127); " description="unannotated orf[br]Location: 116099 - 117436" locus_tag="CHAFR746836_0094850.1" class="clusterblast-orf" points="504,35 509,30 513,30 513,40 509,40 504,35 " id="clusterblast-1_q27_8_16"  />
<polygon style="stroke:black; stroke-width:1; fill:#FFFFFF; " description="unannotated orf[br]Location: 117682 - 118147" locus_tag="CHAFR746836_0094860.1" class="clusterblast-orf" points="514,40 518,35 514,30 514,40 " id="clusterblast-1_q27_8_17"  />
<polygon style="stroke:black; stroke-width:1; fill:#FFFFFF; " description="unannotated orf[br]Location: 119597 - 120815" locus_tag="CHAFR746836_0094870.1" class="clusterblast-orf" points="527,35 532,30 535,30 535,40 532,40 527,35 " id="clusterblast-1_q27_8_18"  />
<polygon style="stroke:black; stroke-width:1; fill:#FFFFFF; " description="unannotated orf[br]Location: 121630 - 122020" locus_tag="CHAFR746836_0094880.1" class="clusterblast-orf" points="541,40 543,35 541,30 541,40 " id="clusterblast-1_q27_8_19"  />
<polygon style="stroke:black; stroke-width:1; fill:#FFFFFF; " description="unannotated orf[br]Location: 122290 - 123684" locus_tag="CHAFR746836_0094890.1" class="clusterblast-orf" points="545,40 550,40 555,35 550,30 545,30 545,40 " id="clusterblast-1_q27_8_20"  />
<polygon style="stroke:black; stroke-width:1; fill:#FFFFFF; " description="unannotated orf[br]Location: 124088 - 124999" locus_tag="CHAFR746836_0094900.1" class="clusterblast-orf" points="557,35 562,30 563,30 563,40 562,40 557,35 " id="clusterblast-1_q27_8_21"  />
<polygon style="stroke:black; stroke-width:1; fill:#FFFFFF; " description="unannotated orf[br]Location: 125439 - 126681" locus_tag="CHAFR746836_0094910.1" class="clusterblast-orf" points="566,40 570,40 575,35 570,30 566,30 566,40 " id="clusterblast-1_q27_8_22"  />
<polygon style="stroke:black; stroke-width:1; fill:#FFFFFF; " description="unannotated orf[br]Location: 127006 - 130058" locus_tag="CHAFR746836_0094920.1" class="clusterblast-orf" points="577,35 582,30 597,30 597,40 582,40 577,35 " id="clusterblast-1_q27_8_23"  />
<polygon style="stroke:black; stroke-width:1; fill:#FFFFFF; " description="unannotated orf[br]Location: 132463 - 134428" locus_tag="CHAFR746836_0094930.1" class="clusterblast-orf" points="613,35 618,30 627,30 627,40 618,40 613,35 " id="clusterblast-1_q27_8_24"  />
<polygon style="stroke:black; stroke-width:1; fill:rgb(169,42,212); " description="unannotated orf[br]Location: 137446 - 138588" locus_tag="CHAFR746836_0094940.2" class="clusterblast-orf" points="647,35 652,30 655,30 655,40 652,40 647,35 " id="clusterblast-1_q27_8_25"  />
<polygon style="stroke:black; stroke-width:1; fill:rgb(42,42,127); " description="unannotated orf[br]Location: 137501 - 138588" locus_tag="CHAFR746836_0094940.1" class="clusterblast-orf" points="647,35 652,30 655,30 655,40 652,40 647,35 " id="clusterblast-1_q27_8_26"  />
<polygon style="stroke:black; stroke-width:1; fill:#FFFFFF; " description="unannotated orf[br]Location: 154744 - 156934" locus_tag="CHAFR746836_0094950.1" class="clusterblast-orf" points="763,40 773,40 778,35 773,30 763,30 763,40 " id="clusterblast-1_q27_8_27"  />
</g>
<g class="clusterblast-cluster" description="Leptospirillum ferrooxidans C2-3, complete genome." label="NC_017094.1_c1"  >
<text class="clusterblast-acc" y="60" x="5"  >
NC_017094.1_c1</text>
<text class="clusterblast-desc" y="60" x="460.8"  >
Leptospirillum ferrooxidans C2-3, complete genome.</text>
<line y1="85" x2="778.0" style="stroke:grey; stroke-width:1; " x1="10" y2="85"  />
<polygon style="stroke:black; stroke-width:1; fill:#FFFFFF; " description="putative[br]Location: 1155617 - 1156330" locus_tag="LFE_1143" id="clusterblast-1_h27_8_0" points="250,90 254,85 250,80 250,90 " class="clusterblast-orf"  />
<polygon style="stroke:black; stroke-width:1; fill:#FFFFFF; " description="putative_phosphoribosylformylglycinamidine[br]Location: 1156323 - 1156631" locus_tag="LFE_1144" id="clusterblast-1_h27_8_1" points="254,90 256,85 254,80 254,90 " class="clusterblast-orf"  />
<polygon style="stroke:black; stroke-width:1; fill:#FFFFFF; " description="hypothetical_protein[br]Location: 1156632 - 1158002" locus_tag="LFE_1145" id="clusterblast-1_h27_8_2" points="256,90 260,90 265,85 260,80 256,80 256,90 " class="clusterblast-orf"  />
<polygon style="stroke:black; stroke-width:1; fill:#FFFFFF; " description="putative_asparaginase[br]Location: 1157999 - 1158916" locus_tag="LFE_1146" id="clusterblast-1_h27_8_3" points="265,90 267,90 272,85 267,80 265,80 265,90 " class="clusterblast-orf"  />
<polygon style="stroke:black; stroke-width:1; fill:#FFFFFF; " description="hypothetical_protein[br]Location: 1159140 - 1159388" locus_tag="LFE_1147" id="clusterblast-1_h27_8_4" points="273,90 275,85 273,80 273,90 " class="clusterblast-orf"  />
<polygon style="stroke:black; stroke-width:1; fill:#FFFFFF; " description="putative_nucleotidyltransferase_superfamily[br]Location: 1159375 - 1159674" locus_tag="LFE_1148" id="clusterblast-1_h27_8_5" points="275,90 277,85 275,80 275,90 " class="clusterblast-orf"  />
<polygon style="stroke:black; stroke-width:1; fill:#FFFFFF; " description="hypothetical_protein[br]Location: 1159671 - 1160150" locus_tag="LFE_1149" id="clusterblast-1_h27_8_6" points="277,90 280,85 277,80 277,90 " class="clusterblast-orf"  />
<polygon style="stroke:black; stroke-width:1; fill:#FFFFFF; " description="hypothetical_protein[br]Location: 1160173 - 1161183" locus_tag="LFE_1150" id="clusterblast-1_h27_8_7" points="280,85 285,80 287,80 287,90 285,90 280,85 " class="clusterblast-orf"  />
<polygon style="stroke:black; stroke-width:1; fill:#FFFFFF; " description="putative_ketopantoate_reductase[br]Location: 1161384 - 1162307" locus_tag="LFE_1151" id="clusterblast-1_h27_8_8" points="288,90 289,90 294,85 289,80 288,80 288,90 " class="clusterblast-orf"  />
<polygon style="stroke:black; stroke-width:1; fill:#FFFFFF; " description="cobalamin_B12-binding/Radical_SAM_family[br]Location: 1162404 - 1163948" locus_tag="LFE_1152" id="clusterblast-1_h27_8_9" points="295,85 300,80 305,80 305,90 300,90 295,85 " class="clusterblast-orf"  />
<polygon style="stroke:black; stroke-width:1; fill:#FFFFFF; " description="hypothetical_protein[br]Location: 1164223 - 1164843" locus_tag="LFE_1153" id="clusterblast-1_h27_8_10" points="307,90 311,85 307,80 307,90 " class="clusterblast-orf"  />
<polygon style="stroke:black; stroke-width:1; fill:#FFFFFF; " description="glycogen/starch/alphaglucan_phosphorylase[br]Location: 1164976 - 1167438" locus_tag="LFE_1154" id="clusterblast-1_h27_8_11" points="312,90 324,90 329,85 324,80 312,80 312,90 " class="clusterblast-orf"  />
<polygon style="stroke:black; stroke-width:1; fill:rgb(42,42,127); " description="putative_3-oxoacyl-[acyl-carrier_protein][br]Location: 1167473 - 1168177&lt;br&gt;&lt;br&gt;&lt;b&gt;BlastP hit with CHAFR746836_0094940.2&lt;/b&gt;&lt;br&gt;Percentage identity: 32%&lt;br&gt;Percentage coverage: 71%&lt;br&gt;BLAST bit score: 88&lt;br&gt;E-value: 1e-19&lt;br&gt;&lt;br&gt;&lt;b&gt;BlastP hit with CHAFR746836_0094940.1&lt;/b&gt;&lt;br&gt;Percentage identity: 32%&lt;br&gt;Percentage coverage: 72%&lt;br&gt;BLAST bit score: 89&lt;br&gt;E-value: 1e-19" locus_tag="LFE_1155" id="clusterblast-1_h27_8_12" points="329,90 329,90 334,85 329,80 329,80 329,90 " class="clusterblast-orf"  />
<polygon style="stroke:black; stroke-width:1; fill:#FFFFFF; " description="putative_acetyltransferase[br]Location: 1168192 - 1168659" locus_tag="LFE_1156" id="clusterblast-1_h27_8_13" points="334,90 337,85 334,80 334,90 " class="clusterblast-orf"  />
<polygon style="stroke:black; stroke-width:1; fill:#FFFFFF; " description="putative_PAS/PAC_sensor-containing_diguanylate[br]Location: 1168782 - 1170314" locus_tag="LFE_1157" id="clusterblast-1_h27_8_14" points="338,90 343,90 348,85 343,80 338,80 338,90 " class="clusterblast-orf"  />
<polygon style="stroke:black; stroke-width:1; fill:rgb(42,42,127); " description="putative_serine_3-dehydrogenase[br]Location: 1170351 - 1171094&lt;br&gt;&lt;br&gt;&lt;b&gt;BlastP hit with CHAFR746836_0094940.2&lt;/b&gt;&lt;br&gt;Percentage identity: 42%&lt;br&gt;Percentage coverage: 92%&lt;br&gt;BLAST bit score: 185&lt;br&gt;E-value: 2e-55&lt;br&gt;&lt;br&gt;&lt;b&gt;BlastP hit with CHAFR746836_0094940.1&lt;/b&gt;&lt;br&gt;Percentage identity: 42%&lt;br&gt;Percentage coverage: 95%&lt;br&gt;BLAST bit score: 186&lt;br&gt;E-value: 5e-56" locus_tag="LFE_1158" id="clusterblast-1_h27_8_15" points="348,85 353,80 353,80 353,90 353,90 348,85 " class="clusterblast-orf"  />
<polygon style="stroke:black; stroke-width:1; fill:#FFFFFF; " description="hypothetical_protein[br]Location: 1171893 - 1172678" locus_tag="LFE_1159" id="clusterblast-1_h27_8_16" points="359,85 364,80 364,80 364,90 364,90 359,85 " class="clusterblast-orf"  />
<polygon style="stroke:black; stroke-width:1; fill:#FFFFFF; " description="putative_nodulation_efficiency_protein_D[br]Location: 1172666 - 1173928" locus_tag="LFE_1160" id="clusterblast-1_h27_8_17" points="364,85 369,80 372,80 372,90 369,90 364,85 " class="clusterblast-orf"  />
<polygon style="stroke:black; stroke-width:1; fill:#FFFFFF; " description="hypothetical_protein[br]Location: 1173927 - 1174112" locus_tag="LFE_1161" id="clusterblast-1_h27_8_18" points="372,90 373,85 372,80 372,90 " class="clusterblast-orf"  />
<polygon style="stroke:black; stroke-width:1; fill:#FFFFFF; " description="putative_modD_protein[br]Location: 1174221 - 1175087" locus_tag="LFE_1162" id="clusterblast-1_h27_8_19" points="374,85 379,80 380,80 380,90 379,90 374,85 " class="clusterblast-orf"  />
<polygon style="stroke:black; stroke-width:1; fill:#FFFFFF; " description="TOBE_domain-containing_protein[br]Location: 1175216 - 1175422" locus_tag="LFE_1163" id="clusterblast-1_h27_8_20" points="381,85 382,80 382,90 381,85 " class="clusterblast-orf"  />
<polygon style="stroke:black; stroke-width:1; fill:#FFFFFF; " description="hypothetical_protein[br]Location: 1175493 - 1175879" locus_tag="LFE_1164" id="clusterblast-1_h27_8_21" points="383,90 385,85 383,80 383,90 " class="clusterblast-orf"  />
<polygon style="stroke:black; stroke-width:1; fill:#FFFFFF; " description="hypothetical_protein[br]Location: 1175876 - 1176124" locus_tag="LFE_1165" id="clusterblast-1_h27_8_22" points="385,90 387,85 385,80 385,90 " class="clusterblast-orf"  />
<polygon style="stroke:black; stroke-width:1; fill:#FFFFFF; " description="hypothetical_protein[br]Location: 1176116 - 1177726" locus_tag="LFE_1166" id="clusterblast-1_h27_8_23" points="387,85 392,80 398,80 398,90 392,90 387,85 " class="clusterblast-orf"  />
<polygon style="stroke:black; stroke-width:1; fill:#FFFFFF; " description="putative_nitrogenase_associated_protein[br]Location: 1177832 - 1178236" locus_tag="LFE_1167" id="clusterblast-1_h27_8_24" points="398,85 401,80 401,90 398,85 " class="clusterblast-orf"  />
<polygon style="stroke:black; stroke-width:1; fill:#FFFFFF; " description="hypothetical_protein[br]Location: 1178270 - 1178788" locus_tag="LFE_1168" id="clusterblast-1_h27_8_25" points="401,85 405,80 405,90 401,85 " class="clusterblast-orf"  />
<polygon style="stroke:black; stroke-width:1; fill:#FFFFFF; " description="putative_iron-sulfur_cofactor_synthesis_protein[br]Location: 1178889 - 1179131" locus_tag="LFE_1169" id="clusterblast-1_h27_8_26" points="405,85 407,80 407,90 405,85 " class="clusterblast-orf"  />
<polygon style="stroke:black; stroke-width:1; fill:#FFFFFF; " description="diguanylate_cyclase[br]Location: 1179952 - 1182972" locus_tag="LFE_1170" id="clusterblast-1_h27_8_27" points="413,90 428,90 433,85 428,80 413,80 413,90 " class="clusterblast-orf"  />
<polygon style="stroke:black; stroke-width:1; fill:#FFFFFF; " description="putative_radical_SAM_domain_protein[br]Location: 1183008 - 1184078" locus_tag="LFE_1171" id="clusterblast-1_h27_8_28" points="433,85 438,80 440,80 440,90 438,90 433,85 " class="clusterblast-orf"  />
<polygon style="stroke:black; stroke-width:1; fill:#FFFFFF; " description="putative_two_component_transcriptional[br]Location: 1184104 - 1184742" locus_tag="LFE_1172" id="clusterblast-1_h27_8_29" points="440,85 445,80 445,80 445,90 445,90 440,85 " class="clusterblast-orf"  />
<polygon style="stroke:black; stroke-width:1; fill:#FFFFFF; " description="putative_periplasmic_sensor_signal_transduction[br]Location: 1184739 - 1186334" locus_tag="LFE_1173" id="clusterblast-1_h27_8_30" points="445,85 450,80 455,80 455,90 450,90 445,85 " class="clusterblast-orf"  />
<polygon style="stroke:black; stroke-width:1; fill:#FFFFFF; " description="amino_acid_permease[br]Location: 1186324 - 1188279" locus_tag="LFE_1174" id="clusterblast-1_h27_8_31" points="455,85 460,80 468,80 468,90 460,90 455,85 " class="clusterblast-orf"  />
<polygon style="stroke:black; stroke-width:1; fill:#FFFFFF; " description="hypothetical_protein[br]Location: 1188380 - 1189831" locus_tag="LFE_1175" id="clusterblast-1_h27_8_32" points="469,85 474,80 479,80 479,90 474,90 469,85 " class="clusterblast-orf"  />
<polygon style="stroke:black; stroke-width:1; fill:#FFFFFF; " description="putative_potassium-transporting_ATPase,_C[br]Location: 1189864 - 1190481" locus_tag="LFE_1176" id="clusterblast-1_h27_8_33" points="479,85 483,80 483,90 479,85 " class="clusterblast-orf"  />
<polygon style="stroke:black; stroke-width:1; fill:#FFFFFF; " description="potassiumtransporting_ATPase,_A_subunit[br]Location: 1190557 - 1192263" locus_tag="LFE_1177" id="clusterblast-1_h27_8_34" points="484,85 489,80 495,80 495,90 489,90 484,85 " class="clusterblast-orf"  />
<polygon style="stroke:black; stroke-width:1; fill:#FFFFFF; " description="potassiumtranslocating_Ptype_ATPase,_B_subunit[br]Location: 1192480 - 1194489" locus_tag="LFE_1178" id="clusterblast-1_h27_8_35" points="497,85 502,80 510,80 510,90 502,90 497,85 " class="clusterblast-orf"  />
<polygon style="stroke:black; stroke-width:1; fill:#FFFFFF; " description="putative_osmosensitive_K+_channel_signal[br]Location: 1195435 - 1197657" locus_tag="LFE_1179" id="clusterblast-1_h27_8_36" points="516,90 526,90 531,85 526,80 516,80 516,90 " class="clusterblast-orf"  />
<polygon style="stroke:black; stroke-width:1; fill:#FFFFFF; " description="putative_metallophosphoesterase[br]Location: 1197709 - 1198482" locus_tag="LFE_1180" id="clusterblast-1_h27_8_37" points="532,90 532,90 537,85 532,80 532,80 532,90 " class="clusterblast-orf"  />
</g>
</svg>
