<svg xmlns="http://www.w3.org/2000/svg" height="230" width="800" version="1.1" y="0" x="0" preserveAspectRatio="none" xmlns:xlink="http://www.w3.org/1999/xlink" viewBox="0 0 800 230"  >
<g class="clusterblast-cluster" label="Query sequence"  >
<text class="clusterblast-acc" y="10" x="5"  >
Query sequence</text>
<line y1="35" x2="778.0" style="stroke:grey; stroke-width:1; " x1="10" y2="35"  />
<polygon style="stroke:black; stroke-width:1; fill:#FFFFFF; " description="unannotated orf[br]Location: 215284 - 216006" locus_tag="CHAFR746836_0067220.1" class="clusterblast-orf" points="10,40 21,40 26,35 21,30 10,30 10,40 " id="clusterblast-1_q7_5_0"  />
<polygon style="stroke:black; stroke-width:1; fill:#FFFFFF; " description="unannotated orf[br]Location: 224693 - 224914" locus_tag="CHAFR746836_0067230.1" class="clusterblast-orf" points="224,35 229,30 229,30 229,40 229,40 224,35 " id="clusterblast-1_q7_5_1"  />
<polygon style="stroke:black; stroke-width:1; fill:red; " description="unannotated orf[br]Location: 228611 - 236326" locus_tag="CHAFR746836_0067240.1" class="clusterblast-orf" points="313,35 318,30 489,30 489,40 318,40 313,35 " id="clusterblast-1_q7_5_2"  />
<polygon style="stroke:black; stroke-width:1; fill:green; " description="unannotated orf[br]Location: 237740 - 238731" locus_tag="CHAFR746836_0067250.1" class="clusterblast-orf" points="521,40 539,40 544,35 539,30 521,30 521,40 " id="clusterblast-1_q7_5_3"  />
<polygon style="stroke:black; stroke-width:1; fill:blue; " description="unannotated orf[br]Location: 238911 - 240394" locus_tag="CHAFR746836_0067260.1" class="clusterblast-orf" points="548,35 553,30 582,30 582,40 553,40 548,35 " id="clusterblast-1_q7_5_4"  />
<polygon style="stroke:black; stroke-width:1; fill:yellow; " description="unannotated orf[br]Location: 240782 - 242473" locus_tag="CHAFR746836_0067270.1" class="clusterblast-orf" points="590,35 595,30 629,30 629,40 595,40 590,35 " id="clusterblast-1_q7_5_5"  />
<polygon style="stroke:black; stroke-width:1; fill:#FFFFFF; " description="unannotated orf[br]Location: 242970 - 243933" locus_tag="CHAFR746836_0067280.1" class="clusterblast-orf" points="640,40 657,40 662,35 657,30 640,30 640,40 " id="clusterblast-1_q7_5_6"  />
<polygon style="stroke:black; stroke-width:1; fill:#FFFFFF; " description="unannotated orf[br]Location: 244594 - 245945" locus_tag="CHAFR746836_0067290.1" class="clusterblast-orf" points="677,40 703,40 708,35 703,30 677,30 677,40 " id="clusterblast-1_q7_5_7"  />
<polygon style="stroke:black; stroke-width:1; fill:#FFFFFF; " description="unannotated orf[br]Location: 246456 - 248994" locus_tag="CHAFR746836_0067300.1" class="clusterblast-orf" points="720,40 773,40 778,35 773,30 720,30 720,40 " id="clusterblast-1_q7_5_8"  />
</g>
<g class="clusterblast-cluster" description="Aspergillus kawachii IFO 4308 DNA, contig: scaffold00054, wh..." label="DF126500.1_c1"  >
<text class="clusterblast-acc" y="60" x="5"  >
DF126500.1_c1</text>
<text class="clusterblast-desc" y="60" x="460.8"  >
Aspergillus kawachii IFO 4308 DNA, contig: scaffold00054, wh...</text>
<line y1="85" x2="778.0" style="stroke:grey; stroke-width:1; " x1="10" y2="85"  />
<polygon style="stroke:black; stroke-width:1; fill:#FFFFFF; " description="similar_to_An03g00520[br]Location: 28457 - 30378" locus_tag="AKAW_10783" id="clusterblast-1_h7_5_0" points="88,90 126,90 131,85 126,80 88,80 88,90 " class="clusterblast-orf"  />
<polygon style="stroke:black; stroke-width:1; fill:#FFFFFF; " description="hypothetical_protein[br]Location: 26066 - 27541" locus_tag="AKAW_10782" id="clusterblast-1_h7_5_1" points="152,85 157,80 186,80 186,90 157,90 152,85 " class="clusterblast-orf"  />
<polygon style="stroke:black; stroke-width:1; fill:#FFFFFF; " description="hypothetical_protein[br]Location: 24204 - 24830" locus_tag="AKAW_10781" id="clusterblast-1_h7_5_2" points="214,90 223,90 228,85 223,80 214,80 214,90 " class="clusterblast-orf"  />
<polygon style="stroke:black; stroke-width:1; fill:#FFFFFF; " description="transcription_factor_Rba50[br]Location: 22881 - 23528" locus_tag="AKAW_10780" id="clusterblast-1_h7_5_3" points="244,90 253,90 258,85 253,80 244,80 244,90 " class="clusterblast-orf"  />
<polygon style="stroke:black; stroke-width:1; fill:#FFFFFF; " description="hypothetical_protein[br]Location: 19739 - 20395" locus_tag="AKAW_10779" id="clusterblast-1_h7_5_4" points="315,85 320,80 330,80 330,90 320,90 315,85 " class="clusterblast-orf"  />
<polygon style="stroke:black; stroke-width:1; fill:yellow; " description="efflux_pump_antibiotic_resistance_protein[br]Location: 14354 - 18839&lt;br&gt;&lt;br&gt;&lt;b&gt;BlastP hit with CHAFR746836_0067270.1&lt;/b&gt;&lt;br&gt;Percentage identity: 49%&lt;br&gt;Percentage coverage: 96%&lt;br&gt;BLAST bit score: 502&lt;br&gt;E-value: 6e-163" locus_tag="AKAW_10778" id="clusterblast-1_h7_5_5" points="350,85 355,80 453,80 453,90 355,90 350,85 " class="clusterblast-orf"  />
<polygon style="stroke:black; stroke-width:1; fill:blue; " description="aminotransferase_class_I_and_II[br]Location: 12506 - 13974&lt;br&gt;&lt;br&gt;&lt;b&gt;BlastP hit with CHAFR746836_0067260.1&lt;/b&gt;&lt;br&gt;Percentage identity: 47%&lt;br&gt;Percentage coverage: 100%&lt;br&gt;BLAST bit score: 442&lt;br&gt;E-value: 7e-151" locus_tag="AKAW_10777" id="clusterblast-1_h7_5_6" points="461,85 466,80 495,80 495,90 466,90 461,85 " class="clusterblast-orf"  />
<polygon style="stroke:black; stroke-width:1; fill:red; " description="polyketide_synthase[br]Location: 3547 - 11258&lt;br&gt;&lt;br&gt;&lt;b&gt;BlastP hit with CHAFR746836_0067240.1&lt;/b&gt;&lt;br&gt;Percentage identity: 45%&lt;br&gt;Percentage coverage: 99%&lt;br&gt;BLAST bit score: 2103&lt;br&gt;E-value: 0.0" locus_tag="AKAW_10776" id="clusterblast-1_h7_5_7" points="523,90 694,90 699,85 694,80 523,80 523,90 " class="clusterblast-orf"  />
</g>
</svg>
