<svg xmlns="http://www.w3.org/2000/svg" height="230" width="800" version="1.1" y="0" x="0" preserveAspectRatio="none" xmlns:xlink="http://www.w3.org/1999/xlink" viewBox="0 0 800 230"  >
<g class="clusterblast-cluster" label="Query sequence"  >
<text class="clusterblast-acc" y="10" x="5"  >
Query sequence</text>
<line y1="35" x2="778.0" style="stroke:grey; stroke-width:1; " x1="10" y2="35"  />
<polygon style="stroke:black; stroke-width:1; fill:#FFFFFF; " description="unannotated orf[br]Location: 25768 - 28581" locus_tag="CHAFR746836_0026480.1" class="clusterblast-orf" points="10,35 15,30 36,30 36,40 15,40 10,35 " id="clusterblast-1_q39_9_0"  />
<polygon style="stroke:black; stroke-width:1; fill:#FFFFFF; " description="unannotated orf[br]Location: 29389 - 32410" locus_tag="CHAFR746836_0026490.1" class="clusterblast-orf" points="44,40 68,40 73,35 68,30 44,30 44,40 " id="clusterblast-1_q39_9_1"  />
<polygon style="stroke:black; stroke-width:1; fill:#FFFFFF; " description="unannotated orf[br]Location: 35419 - 37881" locus_tag="CHAFR746836_0026500.1" class="clusterblast-orf" points="102,35 107,30 125,30 125,40 107,40 102,35 " id="clusterblast-1_q39_9_2"  />
<polygon style="stroke:black; stroke-width:1; fill:#FFFFFF; " description="unannotated orf[br]Location: 39000 - 40527" locus_tag="CHAFR746836_0026510.1" class="clusterblast-orf" points="136,40 146,40 151,35 146,30 136,30 136,40 " id="clusterblast-1_q39_9_3"  />
<polygon style="stroke:black; stroke-width:1; fill:#FFFFFF; " description="unannotated orf[br]Location: 42530 - 44770" locus_tag="CHAFR746836_0026520.1" class="clusterblast-orf" points="170,40 186,40 191,35 186,30 170,30 170,40 " id="clusterblast-1_q39_9_4"  />
<polygon style="stroke:black; stroke-width:1; fill:rgb(190,63,63); " description="unannotated orf[br]Location: 45848 - 55198" locus_tag="CHAFR746836_0026530.1" class="clusterblast-orf" points="202,35 207,30 291,30 291,40 207,40 202,35 " id="clusterblast-1_q39_9_5"  />
<polygon style="stroke:black; stroke-width:1; fill:rgb(63,63,190); " description="unannotated orf[br]Location: 56792 - 57839" locus_tag="CHAFR746836_0026540.1" class="clusterblast-orf" points="306,40 311,40 316,35 311,30 306,30 306,40 " id="clusterblast-1_q39_9_6"  />
<polygon style="stroke:black; stroke-width:1; fill:rgb(63,190,63); " description="unannotated orf[br]Location: 62197 - 63622" locus_tag="CHAFR746836_0026550.1" class="clusterblast-orf" points="358,35 363,30 372,30 372,40 363,40 358,35 " id="clusterblast-1_q39_9_7"  />
<polygon style="stroke:black; stroke-width:1; fill:rgb(190,63,190); " description="unannotated orf[br]Location: 66838 - 68074" locus_tag="CHAFR746836_0026560.1" class="clusterblast-orf" points="402,40 409,40 414,35 409,30 402,30 402,40 " id="clusterblast-1_q39_9_8"  />
<polygon style="stroke:black; stroke-width:1; fill:rgb(190,190,63); " description="unannotated orf[br]Location: 68566 - 70348" locus_tag="CHAFR746836_0026570.1" class="clusterblast-orf" points="419,35 424,30 436,30 436,40 424,40 419,35 " id="clusterblast-1_q39_9_9"  />
<polygon style="stroke:black; stroke-width:1; fill:rgb(190,190,190); " description="unannotated orf[br]Location: 72585 - 73335" locus_tag="CHAFR746836_0026580.1" class="clusterblast-orf" points="457,40 460,40 465,35 460,30 457,30 457,40 " id="clusterblast-1_q39_9_10"  />
<polygon style="stroke:black; stroke-width:1; fill:#FFFFFF; " description="unannotated orf[br]Location: 81371 - 83366" locus_tag="CHAFR746836_0026590.1" class="clusterblast-orf" points="541,35 546,30 561,30 561,40 546,40 541,35 " id="clusterblast-1_q39_9_11"  />
<polygon style="stroke:black; stroke-width:1; fill:#FFFFFF; " description="unannotated orf[br]Location: 88456 - 90331" locus_tag="CHAFR746836_0026600.1" class="clusterblast-orf" points="609,40 622,40 627,35 622,30 609,30 609,40 " id="clusterblast-1_q39_9_12"  />
<polygon style="stroke:black; stroke-width:1; fill:#FFFFFF; " description="unannotated orf[br]Location: 94138 - 95689" locus_tag="CHAFR746836_0026610.1" class="clusterblast-orf" points="664,35 669,30 678,30 678,40 669,40 664,35 " id="clusterblast-1_q39_9_13"  />
<polygon style="stroke:black; stroke-width:1; fill:rgb(63,190,190); " description="unannotated orf[br]Location: 98792 - 99832" locus_tag="CHAFR746836_0026620.1" class="clusterblast-orf" points="708,35 713,30 718,30 718,40 713,40 708,35 " id="clusterblast-1_q39_9_14"  />
<polygon style="stroke:black; stroke-width:1; fill:#FFFFFF; " description="unannotated orf[br]Location: 100558 - 102743" locus_tag="CHAFR746836_0026630.1" class="clusterblast-orf" points="725,35 730,30 746,30 746,40 730,40 725,35 " id="clusterblast-1_q39_9_15"  />
<polygon style="stroke:black; stroke-width:1; fill:#FFFFFF; " description="unannotated orf[br]Location: 103839 - 106040" locus_tag="CHAFR746836_0026640.1" class="clusterblast-orf" points="756,40 773,40 778,35 773,30 756,30 756,40 " id="clusterblast-1_q39_9_16"  />
</g>
<g class="clusterblast-cluster" description="Aspergillus niger ATCC 1015, whole genome shotgun sequen..." label="ACJE01000020.1_c2"  >
<text class="clusterblast-acc" y="60" x="5"  >
ACJE01000020.1_c2</text>
<text class="clusterblast-desc" y="60" x="460.8"  >
Aspergillus niger ATCC 1015, whole genome shotgun sequen...</text>
<line y1="85" x2="778.0" style="stroke:grey; stroke-width:1; " x1="10" y2="85"  />
<polygon style="stroke:black; stroke-width:1; fill:#FFFFFF; " description="hypothetical_protein[br]Location: 555067 - 559892" locus_tag="ASPNIDRAFT_128952" id="clusterblast-1_h39_9_0" points="148,90 189,90 194,85 189,80 148,80 148,90 " class="clusterblast-orf"  />
<polygon style="stroke:black; stroke-width:1; fill:#FFFFFF; " description="hypothetical_protein[br]Location: 562580 - 564181" locus_tag="ASPNIDRAFT_202333" id="clusterblast-1_h39_9_1" points="219,90 230,90 235,85 230,80 219,80 219,90 " class="clusterblast-orf"  />
<polygon style="stroke:black; stroke-width:1; fill:#FFFFFF; " description="hypothetical_protein[br]Location: 565856 - 566757" locus_tag="ASPNIDRAFT_42743" id="clusterblast-1_h39_9_2" points="251,85 256,80 259,80 259,90 256,90 251,85 " class="clusterblast-orf"  />
<polygon style="stroke:black; stroke-width:1; fill:#FFFFFF; " description="hypothetical_protein[br]Location: 569047 - 570445" locus_tag="ASPNIDRAFT_123782" id="clusterblast-1_h39_9_3" points="281,90 290,90 295,85 290,80 281,80 281,90 " class="clusterblast-orf"  />
<polygon style="stroke:black; stroke-width:1; fill:#FFFFFF; " description="hypothetical_protein[br]Location: 571779 - 573126" locus_tag="ASPNIDRAFT_211875" id="clusterblast-1_h39_9_4" points="307,85 312,80 320,80 320,90 312,90 307,85 " class="clusterblast-orf"  />
<polygon style="stroke:black; stroke-width:1; fill:#FFFFFF; " description="hypothetical_protein[br]Location: 573350 - 575107" locus_tag="ASPNIDRAFT_211877" id="clusterblast-1_h39_9_5" points="322,85 327,80 339,80 339,90 327,90 322,85 " class="clusterblast-orf"  />
<polygon style="stroke:black; stroke-width:1; fill:#FFFFFF; " description="hypothetical_protein[br]Location: 575674 - 576816" locus_tag="ASPNIDRAFT_124807" id="clusterblast-1_h39_9_6" points="345,85 350,80 356,80 356,90 350,90 345,85 " class="clusterblast-orf"  />
<polygon style="stroke:black; stroke-width:1; fill:rgb(190,63,63); " description="hypothetical_protein[br]Location: 577415 - 585387&lt;br&gt;&lt;br&gt;&lt;b&gt;BlastP hit with CHAFR746836_0026530.1&lt;/b&gt;&lt;br&gt;Percentage identity: 37%&lt;br&gt;Percentage coverage: 87%&lt;br&gt;BLAST bit score: 1501&lt;br&gt;E-value: 0.0" locus_tag="ASPNIDRAFT_211885" id="clusterblast-1_h39_9_7" points="361,90 433,90 438,85 433,80 361,80 361,90 " class="clusterblast-orf"  />
<polygon style="stroke:black; stroke-width:1; fill:rgb(190,190,63); " description="hypothetical_protein[br]Location: 587923 - 589347&lt;br&gt;&lt;br&gt;&lt;b&gt;BlastP hit with CHAFR746836_0026570.1&lt;/b&gt;&lt;br&gt;Percentage identity: 33%&lt;br&gt;Percentage coverage: 93%&lt;br&gt;BLAST bit score: 268&lt;br&gt;E-value: 2e-81&lt;br&gt;&lt;br&gt;&lt;b&gt;BlastP hit with CHAFR746836_0026580.1&lt;/b&gt;&lt;br&gt;Percentage identity: 31%&lt;br&gt;Percentage coverage: 76%&lt;br&gt;BLAST bit score: 77&lt;br&gt;E-value: 3e-15" locus_tag="ASPNIDRAFT_140623" id="clusterblast-1_h39_9_8" points="462,85 467,80 475,80 475,90 467,90 462,85 " class="clusterblast-orf"  />
<polygon style="stroke:black; stroke-width:1; fill:#FFFFFF; " description="hypothetical_protein[br]Location: 590287 - 592063" locus_tag="ASPNIDRAFT_131352" id="clusterblast-1_h39_9_9" points="484,85 489,80 501,80 501,90 489,90 484,85 " class="clusterblast-orf"  />
<polygon style="stroke:black; stroke-width:1; fill:#FFFFFF; " description="hypothetical_protein[br]Location: 592842 - 594547" locus_tag="ASPNIDRAFT_188056" id="clusterblast-1_h39_9_10" points="509,85 514,80 525,80 525,90 514,90 509,85 " class="clusterblast-orf"  />
<polygon style="stroke:black; stroke-width:1; fill:#FFFFFF; " description="hypothetical_protein[br]Location: 595787 - 598669" locus_tag="ASPNIDRAFT_54123" id="clusterblast-1_h39_9_11" points="537,90 560,90 565,85 560,80 537,80 537,90 " class="clusterblast-orf"  />
<polygon style="stroke:black; stroke-width:1; fill:#FFFFFF; " description="hypothetical_protein[br]Location: 599487 - 600416" locus_tag="ASPNIDRAFT_54124" id="clusterblast-1_h39_9_12" points="572,90 576,90 581,85 576,80 572,80 572,90 " class="clusterblast-orf"  />
<polygon style="stroke:black; stroke-width:1; fill:#FFFFFF; " description="hypothetical_protein[br]Location: 602088 - 603410" locus_tag="ASPNIDRAFT_54125" id="clusterblast-1_h39_9_13" points="597,85 602,80 610,80 610,90 602,90 597,85 " class="clusterblast-orf"  />
<polygon style="stroke:black; stroke-width:1; fill:#FFFFFF; " description="hypothetical_protein[br]Location: 604491 - 606360" locus_tag="ASPNIDRAFT_54126" id="clusterblast-1_h39_9_14" points="620,90 633,90 638,85 633,80 620,80 620,90 " class="clusterblast-orf"  />
</g>
</svg>
