<svg xmlns="http://www.w3.org/2000/svg" height="230" width="800" version="1.1" y="0" x="0" preserveAspectRatio="none" xmlns:xlink="http://www.w3.org/1999/xlink" viewBox="0 0 800 230"  >
<g class="clusterblast-cluster" label="Query sequence"  >
<text class="clusterblast-acc" y="10" x="5"  >
Query sequence</text>
<line y1="35" x2="778.0" style="stroke:grey; stroke-width:1; " x1="10" y2="35"  />
<polygon style="stroke:black; stroke-width:1; fill:#FFFFFF; " description="unannotated orf[br]Location: 2196 - 4302" locus_tag="CHAFR746836_0090270.1" class="clusterblast-orf" points="66,35 71,30 99,30 99,40 71,40 66,35 " id="clusterblast-1_q22_3_0"  />
<polygon style="stroke:black; stroke-width:1; fill:red; " description="unannotated orf[br]Location: 6729 - 7721" locus_tag="CHAFR746836_0090280.1" class="clusterblast-orf" points="137,35 142,30 153,30 153,40 142,40 137,35 " id="clusterblast-1_q22_3_1"  />
<polygon style="stroke:black; stroke-width:1; fill:green; " description="unannotated orf[br]Location: 11209 - 12209" locus_tag="CHAFR746836_0090290.1" class="clusterblast-orf" points="208,35 213,30 223,30 223,40 213,40 208,35 " id="clusterblast-1_q22_3_2"  />
<polygon style="stroke:black; stroke-width:1; fill:#FFFFFF; " description="unannotated orf[br]Location: 16783 - 17785" locus_tag="CHAFR746836_0090300.1" class="clusterblast-orf" points="295,40 306,40 311,35 306,30 295,30 295,40 " id="clusterblast-1_q22_3_3"  />
<polygon style="stroke:black; stroke-width:1; fill:#FFFFFF; " description="unannotated orf[br]Location: 18710 - 19905" locus_tag="CHAFR746836_0090310.1" class="clusterblast-orf" points="326,35 331,30 345,30 345,40 331,40 326,35 " id="clusterblast-1_q22_3_4"  />
<polygon style="stroke:black; stroke-width:1; fill:#FFFFFF; " description="unannotated orf[br]Location: 21175 - 22270" locus_tag="CHAFR746836_0090320.1" class="clusterblast-orf" points="365,35 370,30 382,30 382,40 370,40 365,35 " id="clusterblast-1_q22_3_5"  />
<polygon style="stroke:black; stroke-width:1; fill:#FFFFFF; " description="unannotated orf[br]Location: 24122 - 25277" locus_tag="CHAFR746836_0090330.1" class="clusterblast-orf" points="411,35 416,30 429,30 429,40 416,40 411,35 " id="clusterblast-1_q22_3_6"  />
<polygon style="stroke:black; stroke-width:1; fill:#FFFFFF; " description="unannotated orf[br]Location: 25820 - 27214" locus_tag="CHAFR746836_0090340.1" class="clusterblast-orf" points="438,40 455,40 460,35 455,30 438,30 438,40 " id="clusterblast-1_q22_3_7"  />
<polygon style="stroke:black; stroke-width:1; fill:#FFFFFF; " description="unannotated orf[br]Location: 29104 - 30035" locus_tag="CHAFR746836_0090350.1" class="clusterblast-orf" points="490,35 495,30 504,30 504,40 495,40 490,35 " id="clusterblast-1_q22_3_8"  />
<polygon style="stroke:black; stroke-width:1; fill:#FFFFFF; " description="unannotated orf[br]Location: 31646 - 32546" locus_tag="CHAFR746836_0090360.1" class="clusterblast-orf" points="530,35 535,30 544,30 544,40 535,40 530,35 " id="clusterblast-1_q22_3_9"  />
<polygon style="stroke:black; stroke-width:1; fill:#FFFFFF; " description="unannotated orf[br]Location: 33566 - 35498" locus_tag="CHAFR746836_0090370.1" class="clusterblast-orf" points="560,35 565,30 590,30 590,40 565,40 560,35 " id="clusterblast-1_q22_3_10"  />
<polygon style="stroke:black; stroke-width:1; fill:blue; " description="unannotated orf[br]Location: 42188 - 43711" locus_tag="CHAFR746836_0090380.1" class="clusterblast-orf" points="696,40 715,40 720,35 715,30 696,30 696,40 " id="clusterblast-1_q22_3_11"  />
</g>
<g class="clusterblast-cluster" description="Paenibacillus mucilaginosus KNP414 chromosome, complete ge..." label="NC_015690.1_c14"  >
<text class="clusterblast-acc" y="60" x="5"  >
NC_015690.1_c14</text>
<text class="clusterblast-desc" y="60" x="460.8"  >
Paenibacillus mucilaginosus KNP414 chromosome, complete ge...</text>
<line y1="85" x2="778.0" style="stroke:grey; stroke-width:1; " x1="10" y2="85"  />
<polygon style="stroke:black; stroke-width:1; fill:#FFFFFF; " description="RocG2[br]Location: 6866691 - 6867974" locus_tag="KNP414_06240" id="clusterblast-1_h22_3_0" points="10,85 15,80 30,80 30,90 15,90 10,85 " class="clusterblast-orf"  />
<polygon style="stroke:black; stroke-width:1; fill:blue; " description="RocD[br]Location: 6868311 - 6869531&lt;br&gt;&lt;br&gt;&lt;b&gt;BlastP hit with CHAFR746836_0090380.1&lt;/b&gt;&lt;br&gt;Percentage identity: 32%&lt;br&gt;Percentage coverage: 83%&lt;br&gt;BLAST bit score: 194&lt;br&gt;E-value: 9e-55" locus_tag="KNP414_06241" id="clusterblast-1_h22_3_1" points="35,85 40,80 54,80 54,90 40,90 35,85 " class="clusterblast-orf"  />
<polygon style="stroke:black; stroke-width:1; fill:#FFFFFF; " description="hypothetical_protein[br]Location: 6869580 - 6869717" locus_tag="KNP414_06242" id="clusterblast-1_h22_3_2" points="55,90 57,85 55,80 55,90 " class="clusterblast-orf"  />
<polygon style="stroke:black; stroke-width:1; fill:#FFFFFF; " description="RocR[br]Location: 6869808 - 6871073" locus_tag="KNP414_06243" id="clusterblast-1_h22_3_3" points="59,90 74,90 79,85 74,80 59,80 59,90 " class="clusterblast-orf"  />
<polygon style="stroke:black; stroke-width:1; fill:#FFFFFF; " description="hypothetical_protein[br]Location: 6871265 - 6871402" locus_tag="KNP414_06244" id="clusterblast-1_h22_3_4" points="82,90 84,85 82,80 82,90 " class="clusterblast-orf"  />
<polygon style="stroke:black; stroke-width:1; fill:#FFFFFF; " description="hypothetical_protein[br]Location: 6871445 - 6871564" locus_tag="KNP414_06245" id="clusterblast-1_h22_3_5" points="84,90 86,85 84,80 84,90 " class="clusterblast-orf"  />
<polygon style="stroke:black; stroke-width:1; fill:#FFFFFF; " description="hypothetical_protein[br]Location: 6871965 - 6872537" locus_tag="KNP414_06246" id="clusterblast-1_h22_3_6" points="93,90 97,90 102,85 97,80 93,80 93,90 " class="clusterblast-orf"  />
<polygon style="stroke:black; stroke-width:1; fill:#FFFFFF; " description="YtcD2[br]Location: 6872591 - 6872953" locus_tag="KNP414_06247" id="clusterblast-1_h22_3_7" points="102,85 107,80 108,80 108,90 107,90 102,85 " class="clusterblast-orf"  />
<polygon style="stroke:black; stroke-width:1; fill:#FFFFFF; " description="hypothetical_protein[br]Location: 6873008 - 6873130" locus_tag="KNP414_06248" id="clusterblast-1_h22_3_8" points="109,85 111,80 111,90 109,85 " class="clusterblast-orf"  />
<polygon style="stroke:black; stroke-width:1; fill:#FFFFFF; " description="YesN19[br]Location: 6873444 - 6875057" locus_tag="KNP414_06249" id="clusterblast-1_h22_3_9" points="116,85 121,80 141,80 141,90 121,90 116,85 " class="clusterblast-orf"  />
<polygon style="stroke:black; stroke-width:1; fill:#FFFFFF; " description="putative_HAMP_domain-containing_sensor[br]Location: 6875042 - 6876931" locus_tag="KNP414_06250" id="clusterblast-1_h22_3_10" points="141,85 146,80 171,80 171,90 146,90 141,85 " class="clusterblast-orf"  />
<polygon style="stroke:black; stroke-width:1; fill:#FFFFFF; " description="family_1_extracellular_solute-binding_protein[br]Location: 6877039 - 6878628" locus_tag="KNP414_06251" id="clusterblast-1_h22_3_11" points="173,85 178,80 198,80 198,90 178,90 173,85 " class="clusterblast-orf"  />
<polygon style="stroke:black; stroke-width:1; fill:#FFFFFF; " description="binding-protein-dependent_transport_systems[br]Location: 6878709 - 6879587" locus_tag="KNP414_06252" id="clusterblast-1_h22_3_12" points="199,85 204,80 213,80 213,90 204,90 199,85 " class="clusterblast-orf"  />
<polygon style="stroke:black; stroke-width:1; fill:#FFFFFF; " description="binding-protein-dependent_transport_systems[br]Location: 6879603 - 6880502" locus_tag="KNP414_06253" id="clusterblast-1_h22_3_13" points="213,85 218,80 227,80 227,90 218,90 213,85 " class="clusterblast-orf"  />
<polygon style="stroke:black; stroke-width:1; fill:#FFFFFF; " description="binding-protein-dependent_transport_systems[br]Location: 6880786 - 6881610" locus_tag="KNP414_06254" id="clusterblast-1_h22_3_14" points="232,85 237,80 245,80 245,90 237,90 232,85 " class="clusterblast-orf"  />
<polygon style="stroke:black; stroke-width:1; fill:#FFFFFF; " description="binding-protein-dependent_transport_systems[br]Location: 6881603 - 6882532" locus_tag="KNP414_06255" id="clusterblast-1_h22_3_15" points="244,85 249,80 259,80 259,90 249,90 244,85 " class="clusterblast-orf"  />
<polygon style="stroke:black; stroke-width:1; fill:#FFFFFF; " description="family_1_extracellular_solute-binding_protein[br]Location: 6882633 - 6883940" locus_tag="KNP414_06256" id="clusterblast-1_h22_3_16" points="261,85 266,80 281,80 281,90 266,90 261,85 " class="clusterblast-orf"  />
<polygon style="stroke:black; stroke-width:1; fill:#FFFFFF; " description="putative_HAMP_domain-containing_sensor[br]Location: 6884121 - 6885905" locus_tag="KNP414_06257" id="clusterblast-1_h22_3_17" points="284,85 289,80 312,80 312,90 289,90 284,85 " class="clusterblast-orf"  />
<polygon style="stroke:black; stroke-width:1; fill:#FFFFFF; " description="two_component_AraC_family_transcriptional[br]Location: 6885927 - 6887471" locus_tag="KNP414_06258" id="clusterblast-1_h22_3_18" points="313,85 318,80 337,80 337,90 318,90 313,85 " class="clusterblast-orf"  />
<polygon style="stroke:black; stroke-width:1; fill:#FFFFFF; " description="hypothetical_protein[br]Location: 6887731 - 6889299" locus_tag="KNP414_06259" id="clusterblast-1_h22_3_19" points="341,85 346,80 366,80 366,90 346,90 341,85 " class="clusterblast-orf"  />
<polygon style="stroke:black; stroke-width:1; fill:#FFFFFF; " description="hypothetical_protein[br]Location: 6889350 - 6890963" locus_tag="KNP414_06260" id="clusterblast-1_h22_3_20" points="367,85 372,80 392,80 392,90 372,90 367,85 " class="clusterblast-orf"  />
<polygon style="stroke:black; stroke-width:1; fill:#FFFFFF; " description="hypothetical_protein[br]Location: 6891290 - 6893218" locus_tag="KNP414_06261" id="clusterblast-1_h22_3_21" points="397,85 402,80 428,80 428,90 402,90 397,85 " class="clusterblast-orf"  />
<polygon style="stroke:black; stroke-width:1; fill:#FFFFFF; " description="hypothetical_protein[br]Location: 6893317 - 6893604" locus_tag="KNP414_06262" id="clusterblast-1_h22_3_22" points="429,85 434,80 434,80 434,90 434,90 429,85 " class="clusterblast-orf"  />
<polygon style="stroke:black; stroke-width:1; fill:#FFFFFF; " description="YkkA[br]Location: 6894124 - 6894654" locus_tag="KNP414_06263" id="clusterblast-1_h22_3_23" points="442,85 447,80 450,80 450,90 447,90 442,85 " class="clusterblast-orf"  />
<polygon style="stroke:black; stroke-width:1; fill:green; " description="putative_Short-chain_dehydrogenase/reductase[br]Location: 6894881 - 6895624&lt;br&gt;&lt;br&gt;&lt;b&gt;BlastP hit with CHAFR746836_0090290.1&lt;/b&gt;&lt;br&gt;Percentage identity: 32%&lt;br&gt;Percentage coverage: 100%&lt;br&gt;BLAST bit score: 112&lt;br&gt;E-value: 5e-28" locus_tag="KNP414_06264" id="clusterblast-1_h22_3_24" points="454,85 459,80 465,80 465,90 459,90 454,85 " class="clusterblast-orf"  />
<polygon style="stroke:black; stroke-width:1; fill:#FFFFFF; " description="4-oxalocrotonate_tautomerase_YusQ[br]Location: 6895621 - 6896031" locus_tag="KNP414_06265" id="clusterblast-1_h22_3_25" points="465,85 470,80 472,80 472,90 470,90 465,85 " class="clusterblast-orf"  />
<polygon style="stroke:black; stroke-width:1; fill:#FFFFFF; " description="hypothetical_protein[br]Location: 6896052 - 6896168" locus_tag="KNP414_06266" id="clusterblast-1_h22_3_26" points="472,85 474,80 474,90 472,85 " class="clusterblast-orf"  />
<polygon style="stroke:black; stroke-width:1; fill:#FFFFFF; " description="transcription_regulatory_protein_YtlI[br]Location: 6896194 - 6897105" locus_tag="KNP414_06267" id="clusterblast-1_h22_3_27" points="474,90 484,90 489,85 484,80 474,80 474,90 " class="clusterblast-orf"  />
<polygon style="stroke:black; stroke-width:1; fill:#FFFFFF; " description="histidine_kinase[br]Location: 6897230 - 6898999" locus_tag="KNP414_06268" id="clusterblast-1_h22_3_28" points="491,85 496,80 519,80 519,90 496,90 491,85 " class="clusterblast-orf"  />
<polygon style="stroke:black; stroke-width:1; fill:#FFFFFF; " description="two_component_AraC_family_transcriptional[br]Location: 6899004 - 6900584" locus_tag="KNP414_06269" id="clusterblast-1_h22_3_29" points="519,85 524,80 544,80 544,90 524,90 519,85 " class="clusterblast-orf"  />
<polygon style="stroke:black; stroke-width:1; fill:#FFFFFF; " description="hypothetical_protein[br]Location: 6900583 - 6900702" locus_tag="KNP414_06270" id="clusterblast-1_h22_3_30" points="544,90 545,85 544,80 544,90 " class="clusterblast-orf"  />
<polygon style="stroke:black; stroke-width:1; fill:#FFFFFF; " description="family_1_extracellular_solute-binding_protein[br]Location: 6900834 - 6902531" locus_tag="KNP414_06271" id="clusterblast-1_h22_3_31" points="548,85 553,80 574,80 574,90 553,90 548,85 " class="clusterblast-orf"  />
<polygon style="stroke:black; stroke-width:1; fill:#FFFFFF; " description="binding-protein-dependent_transport_systems[br]Location: 6902587 - 6903474" locus_tag="KNP414_06272" id="clusterblast-1_h22_3_32" points="575,85 580,80 589,80 589,90 580,90 575,85 " class="clusterblast-orf"  />
<polygon style="stroke:black; stroke-width:1; fill:#FFFFFF; " description="binding-protein-dependent_transport_systems[br]Location: 6903557 - 6904510" locus_tag="KNP414_06273" id="clusterblast-1_h22_3_33" points="590,85 595,80 605,80 605,90 595,90 590,85 " class="clusterblast-orf"  />
<polygon style="stroke:black; stroke-width:1; fill:#FFFFFF; " description="Eng1[br]Location: 6904761 - 6908411" locus_tag="KNP414_06274" id="clusterblast-1_h22_3_34" points="609,85 614,80 667,80 667,90 614,90 609,85 " class="clusterblast-orf"  />
<polygon style="stroke:black; stroke-width:1; fill:#FFFFFF; " description="hypothetical_protein[br]Location: 6908567 - 6908701" locus_tag="KNP414_06275" id="clusterblast-1_h22_3_35" points="669,85 672,80 672,90 669,85 " class="clusterblast-orf"  />
<polygon style="stroke:black; stroke-width:1; fill:#FFFFFF; " description="hypothetical_protein[br]Location: 6908738 - 6909415" locus_tag="KNP414_06276" id="clusterblast-1_h22_3_36" points="672,90 678,90 683,85 678,80 672,80 672,90 " class="clusterblast-orf"  />
<polygon style="stroke:black; stroke-width:1; fill:#FFFFFF; " description="periplasmic_binding_protein/LacI_transcriptional[br]Location: 6909552 - 6910619" locus_tag="KNP414_06277" id="clusterblast-1_h22_3_37" points="685,85 690,80 702,80 702,90 690,90 685,85 " class="clusterblast-orf"  />
<polygon style="stroke:black; stroke-width:1; fill:#FFFFFF; " description="hypothetical_protein[br]Location: 6910840 - 6911325" locus_tag="KNP414_06278" id="clusterblast-1_h22_3_38" points="705,90 708,90 713,85 708,80 705,80 705,90 " class="clusterblast-orf"  />
<polygon style="stroke:black; stroke-width:1; fill:#FFFFFF; " description="Glb1[br]Location: 6912566 - 6915427" locus_tag="KNP414_06280" id="clusterblast-1_h22_3_39" points="732,85 737,80 778,80 778,90 737,90 732,85 " class="clusterblast-orf"  />
</g>
</svg>
