<svg xmlns="http://www.w3.org/2000/svg" height="230" width="800" version="1.1" y="0" x="0" preserveAspectRatio="none" xmlns:xlink="http://www.w3.org/1999/xlink" viewBox="0 0 800 230"  >
<g class="clusterblast-cluster" label="Query sequence"  >
<text class="clusterblast-acc" y="10" x="5"  >
Query sequence</text>
<line y1="35" x2="778.0" style="stroke:grey; stroke-width:1; " x1="10" y2="35"  />
<polygon style="stroke:black; stroke-width:1; fill:#FFFFFF; " description="unannotated orf[br]Location: 215284 - 216006" locus_tag="CHAFR746836_0067220.1" class="clusterblast-orf" points="96,40 103,40 108,35 103,30 96,30 96,40 " id="clusterblast-1_q7_2_0"  />
<polygon style="stroke:black; stroke-width:1; fill:#FFFFFF; " description="unannotated orf[br]Location: 224693 - 224914" locus_tag="CHAFR746836_0067230.1" class="clusterblast-orf" points="262,35 266,30 266,40 262,35 " id="clusterblast-1_q7_2_1"  />
<polygon style="stroke:black; stroke-width:1; fill:red; " description="unannotated orf[br]Location: 228611 - 236326" locus_tag="CHAFR746836_0067240.1" class="clusterblast-orf" points="331,35 336,30 467,30 467,40 336,40 331,35 " id="clusterblast-1_q7_2_2"  />
<polygon style="stroke:black; stroke-width:1; fill:green; " description="unannotated orf[br]Location: 237740 - 238731" locus_tag="CHAFR746836_0067250.1" class="clusterblast-orf" points="492,40 505,40 510,35 505,30 492,30 492,40 " id="clusterblast-1_q7_2_3"  />
<polygon style="stroke:black; stroke-width:1; fill:blue; " description="unannotated orf[br]Location: 238911 - 240394" locus_tag="CHAFR746836_0067260.1" class="clusterblast-orf" points="513,35 518,30 539,30 539,40 518,40 513,35 " id="clusterblast-1_q7_2_4"  />
<polygon style="stroke:black; stroke-width:1; fill:yellow; " description="unannotated orf[br]Location: 240782 - 242473" locus_tag="CHAFR746836_0067270.1" class="clusterblast-orf" points="546,35 551,30 576,30 576,40 551,40 546,35 " id="clusterblast-1_q7_2_5"  />
<polygon style="stroke:black; stroke-width:1; fill:#FFFFFF; " description="unannotated orf[br]Location: 242970 - 243933" locus_tag="CHAFR746836_0067280.1" class="clusterblast-orf" points="585,40 597,40 602,35 597,30 585,30 585,40 " id="clusterblast-1_q7_2_6"  />
<polygon style="stroke:black; stroke-width:1; fill:#FFFFFF; " description="unannotated orf[br]Location: 244594 - 245945" locus_tag="CHAFR746836_0067290.1" class="clusterblast-orf" points="613,40 632,40 637,35 632,30 613,30 613,40 " id="clusterblast-1_q7_2_7"  />
<polygon style="stroke:black; stroke-width:1; fill:#FFFFFF; " description="unannotated orf[br]Location: 246456 - 248994" locus_tag="CHAFR746836_0067300.1" class="clusterblast-orf" points="646,40 686,40 691,35 686,30 646,30 646,40 " id="clusterblast-1_q7_2_8"  />
</g>
<g class="clusterblast-cluster" description="Metarhizium anisopliae ARSEF 23 unplaced genomic scaffold Sc..." label="GL698736.1_c2"  >
<text class="clusterblast-acc" y="60" x="5"  >
GL698736.1_c2</text>
<text class="clusterblast-desc" y="60" x="460.8"  >
Metarhizium anisopliae ARSEF 23 unplaced genomic scaffold Sc...</text>
<line y1="85" x2="778.0" style="stroke:grey; stroke-width:1; " x1="10" y2="85"  />
<polygon style="stroke:black; stroke-width:1; fill:#FFFFFF; " description="Heat-labile_enterotoxin_IIA,_A_chain[br]Location: 220216 - 221271" locus_tag="MAA_08693" id="clusterblast-1_h7_2_0" points="10,90 23,90 28,85 23,80 10,80 10,90 " class="clusterblast-orf"  />
<polygon style="stroke:black; stroke-width:1; fill:#FFFFFF; " description="fungal_specific_transcription_factor,_putative[br]Location: 226514 - 227945" locus_tag="MAA_08694" id="clusterblast-1_h7_2_1" points="121,90 141,90 146,85 141,80 121,80 121,90 " class="clusterblast-orf"  />
<polygon style="stroke:black; stroke-width:1; fill:blue; " description="aminotransferase,_putative[br]Location: 229024 - 230593&lt;br&gt;&lt;br&gt;&lt;b&gt;BlastP hit with CHAFR746836_0067260.1&lt;/b&gt;&lt;br&gt;Percentage identity: 52%&lt;br&gt;Percentage coverage: 103%&lt;br&gt;BLAST bit score: 501&lt;br&gt;E-value: 9e-173" locus_tag="MAA_08695" id="clusterblast-1_h7_2_2" points="165,85 170,80 193,80 193,90 170,90 165,85 " class="clusterblast-orf"  />
<polygon style="stroke:black; stroke-width:1; fill:green; " description="short_chain_dehydrogenase/reductase_family[br]Location: 231344 - 232247&lt;br&gt;&lt;br&gt;&lt;b&gt;BlastP hit with CHAFR746836_0067250.1&lt;/b&gt;&lt;br&gt;Percentage identity: 42%&lt;br&gt;Percentage coverage: 84%&lt;br&gt;BLAST bit score: 209&lt;br&gt;E-value: 5e-65" locus_tag="MAA_08696" id="clusterblast-1_h7_2_3" points="206,90 217,90 222,85 217,80 206,80 206,90 " class="clusterblast-orf"  />
<polygon style="stroke:black; stroke-width:1; fill:#FFFFFF; " description="Phytanoyl-CoA_dioxygenase[br]Location: 232744 - 233721" locus_tag="MAA_08697" id="clusterblast-1_h7_2_4" points="231,85 236,80 248,80 248,90 236,90 231,85 " class="clusterblast-orf"  />
<polygon style="stroke:black; stroke-width:1; fill:yellow; " description="MFS_transporter,_putative[br]Location: 234509 - 236254&lt;br&gt;&lt;br&gt;&lt;b&gt;BlastP hit with CHAFR746836_0067270.1&lt;/b&gt;&lt;br&gt;Percentage identity: 43%&lt;br&gt;Percentage coverage: 97%&lt;br&gt;BLAST bit score: 440&lt;br&gt;E-value: 1e-146" locus_tag="MAA_08698" id="clusterblast-1_h7_2_5" points="262,85 267,80 293,80 293,90 267,90 262,85 " class="clusterblast-orf"  />
<polygon style="stroke:black; stroke-width:1; fill:red; " description="polyketide_synthase,_putative[br]Location: 237175 - 245041&lt;br&gt;&lt;br&gt;&lt;b&gt;BlastP hit with CHAFR746836_0067240.1&lt;/b&gt;&lt;br&gt;Percentage identity: 48%&lt;br&gt;Percentage coverage: 101%&lt;br&gt;BLAST bit score: 2370&lt;br&gt;E-value: 0.0" locus_tag="MAA_08699" id="clusterblast-1_h7_2_6" points="309,90 443,90 448,85 443,80 309,80 309,90 " class="clusterblast-orf"  />
<polygon style="stroke:black; stroke-width:1; fill:#FFFFFF; " description="LysM_domain-containing_protein[br]Location: 247528 - 248037" locus_tag="MAA_08700" id="clusterblast-1_h7_2_7" points="492,85 497,80 501,80 501,90 497,90 492,85 " class="clusterblast-orf"  />
<polygon style="stroke:black; stroke-width:1; fill:#FFFFFF; " description="subtilisin-like_protease_PR1I[br]Location: 249871 - 251217" locus_tag="MAA_08701" id="clusterblast-1_h7_2_8" points="534,85 539,80 557,80 557,90 539,90 534,85 " class="clusterblast-orf"  />
<polygon style="stroke:black; stroke-width:1; fill:#FFFFFF; " description="hypothetical_protein[br]Location: 254319 - 256325" locus_tag="MAA_08702" id="clusterblast-1_h7_2_9" points="612,85 617,80 648,80 648,90 617,90 612,85 " class="clusterblast-orf"  />
<polygon style="stroke:black; stroke-width:1; fill:#FFFFFF; " description="hypothetical_protein[br]Location: 261901 - 263677" locus_tag="MAA_08703" id="clusterblast-1_h7_2_10" points="746,85 751,80 778,80 778,90 751,90 746,85 " class="clusterblast-orf"  />
</g>
</svg>
