<svg xmlns="http://www.w3.org/2000/svg" height="230" width="800" version="1.1" y="0" x="0" preserveAspectRatio="none" xmlns:xlink="http://www.w3.org/1999/xlink" viewBox="0 0 800 230"  >
<g class="clusterblast-cluster" label="Query sequence"  >
<text class="clusterblast-acc" y="10" x="5"  >
Query sequence</text>
<line y1="35" x2="778.0" style="stroke:grey; stroke-width:1; " x1="10" y2="35"  />
<polygon style="stroke:black; stroke-width:1; fill:red; " description="unannotated orf[br]Location: 12682 - 14106" locus_tag="CHAFR746836_0048090.1" class="clusterblast-orf" points="267,35 272,30 289,30 289,40 272,40 267,35 " id="clusterblast-1_q58_4_0"  />
<polygon style="stroke:black; stroke-width:1; fill:green; " description="unannotated orf[br]Location: 15778 - 17791" locus_tag="CHAFR746836_0048100.1" class="clusterblast-orf" points="315,40 342,40 347,35 342,30 315,30 315,40 " id="clusterblast-1_q58_4_1"  />
<polygon style="stroke:black; stroke-width:1; fill:blue; " description="unannotated orf[br]Location: 18075 - 18962" locus_tag="CHAFR746836_0048110.1" class="clusterblast-orf" points="352,35 357,30 366,30 366,40 357,40 352,35 " id="clusterblast-1_q58_4_2"  />
<polygon style="stroke:black; stroke-width:1; fill:yellow; " description="unannotated orf[br]Location: 20277 - 28682" locus_tag="CHAFR746836_0048120.1" class="clusterblast-orf" points="387,40 514,40 519,35 514,30 387,30 387,40 " id="clusterblast-1_q58_4_3"  />
</g>
<g class="clusterblast-cluster" description="Aspergillus niger contig An04c0370, genomic contig." label="AM270097.1_c1"  >
<text class="clusterblast-acc" y="60" x="5"  >
AM270097.1_c1</text>
<text class="clusterblast-desc" y="60" x="460.8"  >
Aspergillus niger contig An04c0370, genomic contig.</text>
<line y1="85" x2="778.0" style="stroke:grey; stroke-width:1; " x1="10" y2="85"  />
<polygon style="stroke:black; stroke-width:1; fill:#FFFFFF; " description="[br]Location: 32838 - 34607" locus_tag="An04g09900" id="clusterblast-1_h58_4_0" points="10,90 32,90 37,85 32,80 10,80 10,90 " class="clusterblast-orf"  />
<polygon style="stroke:black; stroke-width:1; fill:#FFFFFF; " description="[br]Location: 35015 - 36293" locus_tag="An04g09910" id="clusterblast-1_h58_4_1" points="44,85 49,80 64,80 64,90 49,90 44,85 " class="clusterblast-orf"  />
<polygon style="stroke:black; stroke-width:1; fill:#FFFFFF; " description="unnamed[br]Location: 36989 - 38220" locus_tag="An04g09920" id="clusterblast-1_h58_4_2" points="75,90 90,90 95,85 90,80 75,80 75,90 " class="clusterblast-orf"  />
<polygon style="stroke:black; stroke-width:1; fill:#FFFFFF; " description="hypothetical_protein[br]Location: 39209 - 40618" locus_tag="An04g09930" id="clusterblast-1_h58_4_3" points="110,85 115,80 132,80 132,90 115,90 110,85 " class="clusterblast-orf"  />
<polygon style="stroke:black; stroke-width:1; fill:#FFFFFF; " description="unnamed[br]Location: 40823 - 41497" locus_tag="An04g09940" id="clusterblast-1_h58_4_4" points="136,90 141,90 146,85 141,80 136,80 136,90 " class="clusterblast-orf"  />
<polygon style="stroke:black; stroke-width:1; fill:#FFFFFF; " description="hypothetical_protein[br]Location: 41739 - 42839" locus_tag="An04g09950" id="clusterblast-1_h58_4_5" points="150,90 163,90 168,85 163,80 150,80 150,90 " class="clusterblast-orf"  />
<polygon style="stroke:black; stroke-width:1; fill:#FFFFFF; " description="[br]Location: 43018 - 45125" locus_tag="An04g09960" id="clusterblast-1_h58_4_6" points="170,90 199,90 204,85 199,80 170,80 170,90 " class="clusterblast-orf"  />
<polygon style="stroke:black; stroke-width:1; fill:#FFFFFF; " description="hypothetical_protein[br]Location: 45281 - 45681" locus_tag="An04g09970" id="clusterblast-1_h58_4_7" points="206,85 211,80 212,80 212,90 211,90 206,85 " class="clusterblast-orf"  />
<polygon style="stroke:black; stroke-width:1; fill:#FFFFFF; " description="[br]Location: 45806 - 46423" locus_tag="An04g09980" id="clusterblast-1_h58_4_8" points="214,90 219,90 224,85 219,80 214,80 214,90 " class="clusterblast-orf"  />
<polygon style="stroke:black; stroke-width:1; fill:#FFFFFF; " description="unnamed[br]Location: 46653 - 47589" locus_tag="An04g09990" id="clusterblast-1_h58_4_9" points="228,85 233,80 243,80 243,90 233,90 228,85 " class="clusterblast-orf"  />
<polygon style="stroke:black; stroke-width:1; fill:green; " description="[br]Location: 48162 - 49942&lt;br&gt;&lt;br&gt;&lt;b&gt;BlastP hit with CHAFR746836_0048100.1&lt;/b&gt;&lt;br&gt;Percentage identity: 43%&lt;br&gt;Percentage coverage: 43%&lt;br&gt;BLAST bit score: 213&lt;br&gt;E-value: 2e-60" locus_tag="An04g10000" id="clusterblast-1_h58_4_10" points="252,85 257,80 280,80 280,90 257,90 252,85 " class="clusterblast-orf"  />
<polygon style="stroke:black; stroke-width:1; fill:#FFFFFF; " description="unnamed[br]Location: 50624 - 51902" locus_tag="An04g10010" id="clusterblast-1_h58_4_11" points="291,90 306,90 311,85 306,80 291,80 291,90 " class="clusterblast-orf"  />
<polygon style="stroke:black; stroke-width:1; fill:blue; " description="[br]Location: 52755 - 53759&lt;br&gt;&lt;br&gt;&lt;b&gt;BlastP hit with CHAFR746836_0048110.1&lt;/b&gt;&lt;br&gt;Percentage identity: 34%&lt;br&gt;Percentage coverage: 111%&lt;br&gt;BLAST bit score: 134&lt;br&gt;E-value: 2e-36" locus_tag="An04g10020" id="clusterblast-1_h58_4_12" points="324,85 329,80 340,80 340,90 329,90 324,85 " class="clusterblast-orf"  />
<polygon style="stroke:black; stroke-width:1; fill:yellow; " description="[br]Location: 54438 - 62930&lt;br&gt;&lt;br&gt;&lt;b&gt;BlastP hit with CHAFR746836_0048120.1&lt;/b&gt;&lt;br&gt;Percentage identity: 39%&lt;br&gt;Percentage coverage: 105%&lt;br&gt;BLAST bit score: 1752&lt;br&gt;E-value: 0.0" locus_tag="An04g10030" id="clusterblast-1_h58_4_13" points="351,90 480,90 485,85 480,80 351,80 351,90 " class="clusterblast-orf"  />
<polygon style="stroke:black; stroke-width:1; fill:#FFFFFF; " description="unnamed[br]Location: 63704 - 65037" locus_tag="An04g10040" id="clusterblast-1_h58_4_14" points="497,90 513,90 518,85 513,80 497,80 497,90 " class="clusterblast-orf"  />
<polygon style="stroke:black; stroke-width:1; fill:#FFFFFF; " description="[br]Location: 65646 - 69071" locus_tag="An04g10050" id="clusterblast-1_h58_4_15" points="528,85 533,80 582,80 582,90 533,90 528,85 " class="clusterblast-orf"  />
<polygon style="stroke:black; stroke-width:1; fill:#FFFFFF; " description="[br]Location: 69397 - 71443" locus_tag="An04g10060" id="clusterblast-1_h58_4_16" points="587,90 615,90 620,85 615,80 587,80 587,90 " class="clusterblast-orf"  />
<polygon style="stroke:black; stroke-width:1; fill:#FFFFFF; " description="[br]Location: 72112 - 73418" locus_tag="An04g10070" id="clusterblast-1_h58_4_17" points="630,85 635,80 651,80 651,90 635,90 630,85 " class="clusterblast-orf"  />
<polygon style="stroke:black; stroke-width:1; fill:#FFFFFF; " description="[br]Location: 74347 - 75689" locus_tag="An04g10080" id="clusterblast-1_h58_4_18" points="666,85 671,80 687,80 687,90 671,90 666,85 " class="clusterblast-orf"  />
<polygon style="stroke:black; stroke-width:1; fill:#FFFFFF; " description="[br]Location: 76901 - 78570" locus_tag="An04g10090" id="clusterblast-1_h58_4_19" points="706,90 727,90 732,85 727,80 706,80 706,90 " class="clusterblast-orf"  />
<polygon style="stroke:black; stroke-width:1; fill:#FFFFFF; " description="[br]Location: 80168 - 81430" locus_tag="An04g10100" id="clusterblast-1_h58_4_20" points="758,85 763,80 778,80 778,90 763,90 758,85 " class="clusterblast-orf"  />
</g>
</svg>
