<svg xmlns="http://www.w3.org/2000/svg" height="230" width="800" version="1.1" y="0" x="0" preserveAspectRatio="none" xmlns:xlink="http://www.w3.org/1999/xlink" viewBox="0 0 800 230"  >
<g class="clusterblast-cluster" label="Query sequence"  >
<text class="clusterblast-acc" y="10" x="5"  >
Query sequence</text>
<line y1="35" x2="778.0" style="stroke:grey; stroke-width:1; " x1="10" y2="35"  />
<polygon style="stroke:black; stroke-width:1; fill:#FFFFFF; " description="unannotated orf[br]Location: 26332 - 27454" locus_tag="CHAFR746836_0031510.1" class="clusterblast-orf" points="10,35 15,30 23,30 23,40 15,40 10,35 " id="clusterblast-1_q43_7_0"  />
<polygon style="stroke:black; stroke-width:1; fill:#FFFFFF; " description="unannotated orf[br]Location: 28016 - 30730" locus_tag="CHAFR746836_0031520.1" class="clusterblast-orf" points="30,35 35,30 62,30 62,40 35,40 30,35 " id="clusterblast-1_q43_7_1"  />
<polygon style="stroke:black; stroke-width:1; fill:rgb(190,63,63); " description="unannotated orf[br]Location: 32876 - 35300" locus_tag="CHAFR746836_0031530.1" class="clusterblast-orf" points="88,35 93,30 117,30 117,40 93,40 88,35 " id="clusterblast-1_q43_7_2"  />
<polygon style="stroke:black; stroke-width:1; fill:#FFFFFF; " description="unannotated orf[br]Location: 36022 - 38283" locus_tag="CHAFR746836_0031540.1" class="clusterblast-orf" points="126,35 131,30 153,30 153,40 131,40 126,35 " id="clusterblast-1_q43_7_3"  />
<polygon style="stroke:black; stroke-width:1; fill:#FFFFFF; " description="unannotated orf[br]Location: 39348 - 40508" locus_tag="CHAFR746836_0031550.1" class="clusterblast-orf" points="165,35 170,30 179,30 179,40 170,40 165,35 " id="clusterblast-1_q43_7_4"  />
<polygon style="stroke:black; stroke-width:1; fill:rgb(63,63,190); " description="unannotated orf[br]Location: 41047 - 43006" locus_tag="CHAFR746836_0031560.1" class="clusterblast-orf" points="186,40 204,40 209,35 204,30 186,30 186,40 " id="clusterblast-1_q43_7_5"  />
<polygon style="stroke:black; stroke-width:1; fill:rgb(63,190,63); " description="unannotated orf[br]Location: 43610 - 45501" locus_tag="CHAFR746836_0031570.1" class="clusterblast-orf" points="217,35 222,30 239,30 239,40 222,40 217,35 " id="clusterblast-1_q43_7_6"  />
<polygon style="stroke:black; stroke-width:1; fill:#FFFFFF; " description="unannotated orf[br]Location: 45774 - 47650" locus_tag="CHAFR746836_0031580.1" class="clusterblast-orf" points="242,40 260,40 265,35 260,30 242,30 242,40 " id="clusterblast-1_q43_7_7"  />
<polygon style="stroke:black; stroke-width:1; fill:#FFFFFF; " description="unannotated orf[br]Location: 50384 - 51212" locus_tag="CHAFR746836_0031590.1" class="clusterblast-orf" points="298,40 303,40 308,35 303,30 298,30 298,40 " id="clusterblast-1_q43_7_8"  />
<polygon style="stroke:black; stroke-width:1; fill:#FFFFFF; " description="unannotated orf[br]Location: 51638 - 52722" locus_tag="CHAFR746836_0031600.1" class="clusterblast-orf" points="313,35 318,30 326,30 326,40 318,40 313,35 " id="clusterblast-1_q43_7_9"  />
<polygon style="stroke:black; stroke-width:1; fill:rgb(190,63,190); " description="unannotated orf[br]Location: 53244 - 55045" locus_tag="CHAFR746836_0031610.1" class="clusterblast-orf" points="332,40 349,40 354,35 349,30 332,30 332,40 " id="clusterblast-1_q43_7_10"  />
<polygon style="stroke:black; stroke-width:1; fill:#FFFFFF; " description="unannotated orf[br]Location: 55388 - 56607" locus_tag="CHAFR746836_0031620.1" class="clusterblast-orf" points="358,35 363,30 372,30 372,40 363,40 358,35 " id="clusterblast-1_q43_7_11"  />
<polygon style="stroke:black; stroke-width:1; fill:rgb(190,190,63); " description="unannotated orf[br]Location: 57102 - 59186" locus_tag="CHAFR746836_0031630.1" class="clusterblast-orf" points="378,40 398,40 403,35 398,30 378,30 378,40 " id="clusterblast-1_q43_7_12"  />
<polygon style="stroke:black; stroke-width:1; fill:#FFFFFF; " description="unannotated orf[br]Location: 62747 - 63923" locus_tag="CHAFR746836_0031640.1" class="clusterblast-orf" points="446,35 451,30 460,30 460,40 451,40 446,35 " id="clusterblast-1_q43_7_13"  />
<polygon style="stroke:black; stroke-width:1; fill:rgb(190,190,190); " description="unannotated orf[br]Location: 89457 - 90423" locus_tag="CHAFR746836_0031650.1" class="clusterblast-orf" points="766,35 771,30 778,30 778,40 771,40 766,35 " id="clusterblast-1_q43_7_14"  />
</g>
<g class="clusterblast-cluster" description="Aspergillus niger ATCC 1015, whole genome shotgun sequen..." label="ACJE01000012.1_c1"  >
<text class="clusterblast-acc" y="60" x="5"  >
ACJE01000012.1_c1</text>
<text class="clusterblast-desc" y="60" x="460.8"  >
Aspergillus niger ATCC 1015, whole genome shotgun sequen...</text>
<line y1="85" x2="778.0" style="stroke:grey; stroke-width:1; " x1="10" y2="85"  />
<polygon style="stroke:black; stroke-width:1; fill:#FFFFFF; " description="hypothetical_protein[br]Location: 15365 - 16394" locus_tag="ASPNIDRAFT_50936" id="clusterblast-1_h43_7_0" points="128,85 133,80 140,80 140,90 133,90 128,85 " class="clusterblast-orf"  />
<polygon style="stroke:black; stroke-width:1; fill:rgb(63,190,63); " description="hypothetical_protein[br]Location: 17308 - 18810&lt;br&gt;&lt;br&gt;&lt;b&gt;BlastP hit with CHAFR746836_0031570.1&lt;/b&gt;&lt;br&gt;Percentage identity: 32%&lt;br&gt;Percentage coverage: 89%&lt;br&gt;BLAST bit score: 187&lt;br&gt;E-value: 5e-51" locus_tag="ASPNIDRAFT_44958" id="clusterblast-1_h43_7_1" points="151,90 164,90 169,85 164,80 151,80 151,90 " class="clusterblast-orf"  />
<polygon style="stroke:black; stroke-width:1; fill:#FFFFFF; " description="hypothetical_protein[br]Location: 19593 - 20423" locus_tag="ASPNIDRAFT_44959" id="clusterblast-1_h43_7_2" points="178,90 183,90 188,85 183,80 178,80 178,90 " class="clusterblast-orf"  />
<polygon style="stroke:black; stroke-width:1; fill:#FFFFFF; " description="hypothetical_protein[br]Location: 22826 - 23362" locus_tag="ASPNIDRAFT_44960" id="clusterblast-1_h43_7_3" points="217,90 218,90 223,85 218,80 217,80 217,90 " class="clusterblast-orf"  />
<polygon style="stroke:black; stroke-width:1; fill:#FFFFFF; " description="hypothetical_protein[br]Location: 25033 - 27843" locus_tag="ASPNIDRAFT_44961" id="clusterblast-1_h43_7_4" points="243,90 272,90 277,85 272,80 243,80 243,90 " class="clusterblast-orf"  />
<polygon style="stroke:black; stroke-width:1; fill:#FFFFFF; " description="hypothetical_protein[br]Location: 28698 - 30456" locus_tag="ASPNIDRAFT_54844" id="clusterblast-1_h43_7_5" points="287,85 292,80 308,80 308,90 292,90 287,85 " class="clusterblast-orf"  />
<polygon style="stroke:black; stroke-width:1; fill:#FFFFFF; " description="amidohydrolase_2[br]Location: 30760 - 31927" locus_tag="ASPNIDRAFT_44963" id="clusterblast-1_h43_7_6" points="312,85 317,80 326,80 326,90 317,90 312,85 " class="clusterblast-orf"  />
<polygon style="stroke:black; stroke-width:1; fill:#FFFFFF; " description="prenyltransferase[br]Location: 32397 - 33414" locus_tag="ASPNIDRAFT_44964" id="clusterblast-1_h43_7_7" points="332,85 337,80 344,80 344,90 337,90 332,85 " class="clusterblast-orf"  />
<polygon style="stroke:black; stroke-width:1; fill:#FFFFFF; " description="polyketide_synthase[br]Location: 33804 - 39143" locus_tag="ASPNIDRAFT_44965" id="clusterblast-1_h43_7_8" points="348,90 407,90 412,85 407,80 348,80 348,90 " class="clusterblast-orf"  />
<polygon style="stroke:black; stroke-width:1; fill:#FFFFFF; " description="hypothetical_protein[br]Location: 39871 - 41762" locus_tag="ASPNIDRAFT_193092" id="clusterblast-1_h43_7_9" points="421,85 426,80 444,80 444,90 426,90 421,85 " class="clusterblast-orf"  />
<polygon style="stroke:black; stroke-width:1; fill:#FFFFFF; " description="hypothetical_protein[br]Location: 41983 - 43329" locus_tag="ASPNIDRAFT_44967" id="clusterblast-1_h43_7_10" points="446,90 458,90 463,85 458,80 446,80 446,90 " class="clusterblast-orf"  />
<polygon style="stroke:black; stroke-width:1; fill:rgb(190,190,190); " description="hypothetical_protein[br]Location: 44035 - 44472&lt;br&gt;&lt;br&gt;&lt;b&gt;BlastP hit with CHAFR746836_0031650.1&lt;/b&gt;&lt;br&gt;Percentage identity: 33%&lt;br&gt;Percentage coverage: 42%&lt;br&gt;BLAST bit score: 50&lt;br&gt;E-value: 2e-06" locus_tag="ASPNIDRAFT_127904" id="clusterblast-1_h43_7_11" points="471,85 476,80 476,80 476,90 476,90 471,85 " class="clusterblast-orf"  />
<polygon style="stroke:black; stroke-width:1; fill:#FFFFFF; " description="hypothetical_protein[br]Location: 45654 - 46319" locus_tag="ASPNIDRAFT_192604" id="clusterblast-1_h43_7_12" points="490,90 493,90 498,85 493,80 490,80 490,90 " class="clusterblast-orf"  />
<polygon style="stroke:black; stroke-width:1; fill:#FFFFFF; " description="FAD/FMN-containing_dehydrogenase[br]Location: 46937 - 49030" locus_tag="ASPNIDRAFT_44970" id="clusterblast-1_h43_7_13" points="506,90 526,90 531,85 526,80 506,80 506,90 " class="clusterblast-orf"  />
<polygon style="stroke:black; stroke-width:1; fill:#FFFFFF; " description="hypothetical_protein[br]Location: 50222 - 50618" locus_tag="ASPNIDRAFT_44971" id="clusterblast-1_h43_7_14" points="545,85 550,80 550,80 550,90 550,90 545,85 " class="clusterblast-orf"  />
<polygon style="stroke:black; stroke-width:1; fill:#FFFFFF; " description="hypothetical_protein[br]Location: 52080 - 52618" locus_tag="ASPNIDRAFT_44972" id="clusterblast-1_h43_7_15" points="567,85 572,80 574,80 574,90 572,90 567,85 " class="clusterblast-orf"  />
<polygon style="stroke:black; stroke-width:1; fill:#FFFFFF; " description="hypothetical_protein[br]Location: 54273 - 54797" locus_tag="ASPNIDRAFT_44973" id="clusterblast-1_h43_7_16" points="594,85 599,80 600,80 600,90 599,90 594,85 " class="clusterblast-orf"  />
<polygon style="stroke:black; stroke-width:1; fill:#FFFFFF; " description="hypothetical_protein[br]Location: 56067 - 57277" locus_tag="ASPNIDRAFT_192862" id="clusterblast-1_h43_7_17" points="615,85 620,80 630,80 630,90 620,90 615,85 " class="clusterblast-orf"  />
<polygon style="stroke:black; stroke-width:1; fill:#FFFFFF; " description="hypothetical_protein[br]Location: 57981 - 59690" locus_tag="ASPNIDRAFT_44975" id="clusterblast-1_h43_7_18" points="638,90 654,90 659,85 654,80 638,80 638,90 " class="clusterblast-orf"  />
</g>
</svg>
