<svg xmlns="http://www.w3.org/2000/svg" height="230" width="800" version="1.1" y="0" x="0" preserveAspectRatio="none" xmlns:xlink="http://www.w3.org/1999/xlink" viewBox="0 0 800 230"  >
<g class="clusterblast-cluster" label="Query sequence"  >
<text class="clusterblast-acc" y="10" x="5"  >
Query sequence</text>
<line y1="35" x2="778.0" style="stroke:grey; stroke-width:1; " x1="10" y2="35"  />
<polygon style="stroke:black; stroke-width:1; fill:rgb(190,63,63); " description="unannotated orf[br]Location: 207 - 1204" locus_tag="CHAFR746836_0060940.1" class="clusterblast-orf" points="10,35 15,30 19,30 19,40 15,40 10,35 " id="clusterblast-1_q4_4_0"  />
<polygon style="stroke:black; stroke-width:1; fill:rgb(63,63,190); " description="unannotated orf[br]Location: 2322 - 6530" locus_tag="CHAFR746836_0060950.1" class="clusterblast-orf" points="29,40 64,40 69,35 64,30 29,30 29,40 " id="clusterblast-1_q4_4_1"  />
<polygon style="stroke:black; stroke-width:1; fill:rgb(63,190,63); " description="unannotated orf[br]Location: 10116 - 15324" locus_tag="CHAFR746836_0060960.1" class="clusterblast-orf" points="103,40 147,40 152,35 147,30 103,30 103,40 " id="clusterblast-1_q4_4_2"  />
<polygon style="stroke:black; stroke-width:1; fill:#FFFFFF; " description="unannotated orf[br]Location: 16383 - 17532" locus_tag="CHAFR746836_0060970.1" class="clusterblast-orf" points="162,35 167,30 173,30 173,40 167,40 162,35 " id="clusterblast-1_q4_4_3"  />
<polygon style="stroke:black; stroke-width:1; fill:#FFFFFF; " description="unannotated orf[br]Location: 21187 - 23857" locus_tag="CHAFR746836_0060980.1" class="clusterblast-orf" points="207,35 212,30 232,30 232,40 212,40 207,35 " id="clusterblast-1_q4_4_4"  />
<polygon style="stroke:black; stroke-width:1; fill:#FFFFFF; " description="unannotated orf[br]Location: 25860 - 27618" locus_tag="CHAFR746836_0060990.1" class="clusterblast-orf" points="251,35 256,30 268,30 268,40 256,40 251,35 " id="clusterblast-1_q4_4_5"  />
<polygon style="stroke:black; stroke-width:1; fill:#FFFFFF; " description="unannotated orf[br]Location: 28662 - 29973" locus_tag="CHAFR746836_0061000.1" class="clusterblast-orf" points="277,35 282,30 290,30 290,40 282,40 277,35 " id="clusterblast-1_q4_4_6"  />
<polygon style="stroke:black; stroke-width:1; fill:#FFFFFF; " description="unannotated orf[br]Location: 31849 - 32962" locus_tag="CHAFR746836_0061010.1" class="clusterblast-orf" points="307,35 312,30 318,30 318,40 312,40 307,35 " id="clusterblast-1_q4_4_7"  />
<polygon style="stroke:black; stroke-width:1; fill:#FFFFFF; " description="unannotated orf[br]Location: 35346 - 36469" locus_tag="CHAFR746836_0061020.1" class="clusterblast-orf" points="340,40 346,40 351,35 346,30 340,30 340,40 " id="clusterblast-1_q4_4_8"  />
<polygon style="stroke:black; stroke-width:1; fill:rgb(190,63,190); " description="unannotated orf[br]Location: 38122 - 39903" locus_tag="CHAFR746836_0061030.1" class="clusterblast-orf" points="366,40 378,40 383,35 378,30 366,30 366,40 " id="clusterblast-1_q4_4_9"  />
<polygon style="stroke:black; stroke-width:1; fill:#FFFFFF; " description="unannotated orf[br]Location: 40585 - 42854" locus_tag="CHAFR746836_0061040.1" class="clusterblast-orf" points="390,35 395,30 411,30 411,40 395,40 390,35 " id="clusterblast-1_q4_4_10"  />
<polygon style="stroke:black; stroke-width:1; fill:rgb(190,190,63); " description="unannotated orf[br]Location: 52799 - 56938" locus_tag="CHAFR746836_0061050.1" class="clusterblast-orf" points="505,35 510,30 544,30 544,40 510,40 505,35 " id="clusterblast-1_q4_4_11"  />
<polygon style="stroke:black; stroke-width:1; fill:#FFFFFF; " description="unannotated orf[br]Location: 58138 - 58734" locus_tag="CHAFR746836_0061060.1" class="clusterblast-orf" points="555,40 555,40 560,35 555,30 555,30 555,40 " id="clusterblast-1_q4_4_12"  />
<polygon style="stroke:black; stroke-width:1; fill:#FFFFFF; " description="unannotated orf[br]Location: 74060 - 75703" locus_tag="CHAFR746836_0061070.1" class="clusterblast-orf" points="705,40 715,40 720,35 715,30 705,30 705,40 " id="clusterblast-1_q4_4_13"  />
<polygon style="stroke:black; stroke-width:1; fill:rgb(190,190,190); " description="unannotated orf[br]Location: 80197 - 81757" locus_tag="CHAFR746836_0061080.2" class="clusterblast-orf" points="762,40 772,40 777,35 772,30 762,30 762,40 " id="clusterblast-1_q4_4_14"  />
<polygon style="stroke:black; stroke-width:1; fill:rgb(63,190,190); " description="unannotated orf[br]Location: 80197 - 81797" locus_tag="CHAFR746836_0061080.1" class="clusterblast-orf" points="762,40 773,40 778,35 773,30 762,30 762,40 " id="clusterblast-1_q4_4_15"  />
</g>
<g class="clusterblast-cluster" description="Ajellomyces capsulatus H88 supercont1.1 genomic scaffold, wh..." label="DS990636.1_c1"  >
<text class="clusterblast-acc" y="60" x="5"  >
DS990636.1_c1</text>
<text class="clusterblast-desc" y="60" x="460.8"  >
Ajellomyces capsulatus H88 supercont1.1 genomic scaffold, wh...</text>
<line y1="85" x2="778.0" style="stroke:grey; stroke-width:1; " x1="10" y2="85"  />
<polygon style="stroke:black; stroke-width:1; fill:#FFFFFF; " description="predicted_protein[br]Location: 236919 - 237320" locus_tag="HCEG_00076" id="clusterblast-1_h4_4_0" points="183,90 186,85 183,80 183,90 " class="clusterblast-orf"  />
<polygon style="stroke:black; stroke-width:1; fill:#FFFFFF; " description="acetylase[br]Location: 233106 - 234553" locus_tag="HCEG_00075" id="clusterblast-1_h4_4_1" points="209,90 217,90 222,85 217,80 209,80 209,90 " class="clusterblast-orf"  />
<polygon style="stroke:black; stroke-width:1; fill:#FFFFFF; " description="long-chain-fatty-acid-CoA_ligase[br]Location: 230991 - 232888" locus_tag="HCEG_00074" id="clusterblast-1_h4_4_2" points="224,85 229,80 242,80 242,90 229,90 224,85 " class="clusterblast-orf"  />
<polygon style="stroke:black; stroke-width:1; fill:#FFFFFF; " description="L-ornithine_5-monooxygenase[br]Location: 228386 - 229954" locus_tag="HCEG_00073" id="clusterblast-1_h4_4_3" points="252,90 262,90 267,85 262,80 252,80 252,90 " class="clusterblast-orf"  />
<polygon style="stroke:black; stroke-width:1; fill:#FFFFFF; " description="peroxisomal_dehydratase[br]Location: 226706 - 228002" locus_tag="HCEG_00072" id="clusterblast-1_h4_4_4" points="270,85 275,80 282,80 282,90 275,90 270,85 " class="clusterblast-orf"  />
<polygon style="stroke:black; stroke-width:1; fill:rgb(190,63,63); " description="conserved_hypothetical_protein[br]Location: 225081 - 225622&lt;br&gt;&lt;br&gt;&lt;b&gt;BlastP hit with CHAFR746836_0060940.1&lt;/b&gt;&lt;br&gt;Percentage identity: 35%&lt;br&gt;Percentage coverage: 50%&lt;br&gt;BLAST bit score: 93&lt;br&gt;E-value: 7e-22" locus_tag="HCEG_00071" id="clusterblast-1_h4_4_5" points="293,85 298,80 298,80 298,90 298,90 293,85 " class="clusterblast-orf"  />
<polygon style="stroke:black; stroke-width:1; fill:#FFFFFF; " description="siderophore_iron_transporter[br]Location: 222411 - 224309" locus_tag="HCEG_00070" id="clusterblast-1_h4_4_6" points="305,85 310,80 323,80 323,90 310,90 305,85 " class="clusterblast-orf"  />
<polygon style="stroke:black; stroke-width:1; fill:#FFFFFF; " description="RTA1_domain-containing_protein[br]Location: 219292 - 220506" locus_tag="HCEG_00069" id="clusterblast-1_h4_4_7" points="341,90 347,90 352,85 347,80 341,80 341,90 " class="clusterblast-orf"  />
<polygon style="stroke:black; stroke-width:1; fill:rgb(63,190,63); " description="nonribosomal_peptide_synthetase[br]Location: 212768 - 218693&lt;br&gt;&lt;br&gt;&lt;b&gt;BlastP hit with CHAFR746836_0060960.1&lt;/b&gt;&lt;br&gt;Percentage identity: 62%&lt;br&gt;Percentage coverage: 100%&lt;br&gt;BLAST bit score: 2239&lt;br&gt;E-value: 0.0&lt;br&gt;&lt;br&gt;&lt;b&gt;BlastP hit with CHAFR746836_0061050.1&lt;/b&gt;&lt;br&gt;Percentage identity: 34%&lt;br&gt;Percentage coverage: 44%&lt;br&gt;BLAST bit score: 328&lt;br&gt;E-value: 7e-91" locus_tag="HCEG_00068" id="clusterblast-1_h4_4_8" points="358,85 363,80 414,80 414,90 363,90 358,85 " class="clusterblast-orf"  />
<polygon style="stroke:black; stroke-width:1; fill:rgb(63,63,190); " description="ABC_multidrug_transporter[br]Location: 207494 - 211580&lt;br&gt;&lt;br&gt;&lt;b&gt;BlastP hit with CHAFR746836_0060950.1&lt;/b&gt;&lt;br&gt;Percentage identity: 53%&lt;br&gt;Percentage coverage: 99%&lt;br&gt;BLAST bit score: 1432&lt;br&gt;E-value: 0.0" locus_tag="HCEG_00067" id="clusterblast-1_h4_4_9" points="425,90 458,90 463,85 458,80 425,80 425,90 " class="clusterblast-orf"  />
<polygon style="stroke:black; stroke-width:1; fill:#FFFFFF; " description="conserved_hypothetical_protein[br]Location: 205411 - 207096" locus_tag="HCEG_00066" id="clusterblast-1_h4_4_10" points="467,85 472,80 483,80 483,90 472,90 467,85 " class="clusterblast-orf"  />
<polygon style="stroke:black; stroke-width:1; fill:#FFFFFF; " description="predicted_protein[br]Location: 202760 - 203158" locus_tag="HCEG_00065" id="clusterblast-1_h4_4_11" points="504,85 508,80 508,90 504,85 " class="clusterblast-orf"  />
<polygon style="stroke:black; stroke-width:1; fill:#FFFFFF; " description="type_I_phosphodiesterase/nucleotide[br]Location: 199960 - 202233" locus_tag="HCEG_00064" id="clusterblast-1_h4_4_12" points="513,85 518,80 534,80 534,90 518,90 513,85 " class="clusterblast-orf"  />
<polygon style="stroke:black; stroke-width:1; fill:#FFFFFF; " description="ubiquitin_carboxyl-terminal_hydrolase[br]Location: 195941 - 198961" locus_tag="HCEG_00063" id="clusterblast-1_h4_4_13" points="544,90 567,90 572,85 567,80 544,80 544,90 " class="clusterblast-orf"  />
<polygon style="stroke:black; stroke-width:1; fill:#FFFFFF; " description="excitatory_amino_acid_transporter[br]Location: 193937 - 195657" locus_tag="HCEG_00062" id="clusterblast-1_h4_4_14" points="575,85 580,80 591,80 591,90 580,90 575,85 " class="clusterblast-orf"  />
<polygon style="stroke:black; stroke-width:1; fill:#FFFFFF; " description="predicted_protein[br]Location: 192654 - 193728" locus_tag="HCEG_00061" id="clusterblast-1_h4_4_15" points="593,90 598,90 603,85 598,80 593,80 593,90 " class="clusterblast-orf"  />
</g>
</svg>
