<svg xmlns="http://www.w3.org/2000/svg" height="230" width="800" version="1.1" y="0" x="0" preserveAspectRatio="none" xmlns:xlink="http://www.w3.org/1999/xlink" viewBox="0 0 800 230"  >
<g class="clusterblast-cluster" label="Query sequence"  >
<text class="clusterblast-acc" y="10" x="5"  >
Query sequence</text>
<line y1="35" x2="778.0" style="stroke:grey; stroke-width:1; " x1="10" y2="35"  />
<polygon style="stroke:black; stroke-width:1; fill:rgb(190,63,63); " description="unannotated orf[br]Location: 1171 - 2581" locus_tag="CHAFR746836_0090890.1" class="clusterblast-orf" points="10,35 15,30 21,30 21,40 15,40 10,35 " id="clusterblast-1_q24_2_0"  />
<polygon style="stroke:black; stroke-width:1; fill:#FFFFFF; " description="unannotated orf[br]Location: 3903 - 4681" locus_tag="CHAFR746836_0090900.1" class="clusterblast-orf" points="31,35 36,30 37,30 37,40 36,40 31,35 " id="clusterblast-1_q24_2_1"  />
<polygon style="stroke:black; stroke-width:1; fill:#FFFFFF; " description="unannotated orf[br]Location: 5272 - 5519" locus_tag="CHAFR746836_0090910.1" class="clusterblast-orf" points="42,40 44,35 42,30 42,40 " id="clusterblast-1_q24_2_2"  />
<polygon style="stroke:black; stroke-width:1; fill:#FFFFFF; " description="unannotated orf[br]Location: 14494 - 15565" locus_tag="CHAFR746836_0090920.1" class="clusterblast-orf" points="115,35 120,30 124,30 124,40 120,40 115,35 " id="clusterblast-1_q24_2_3"  />
<polygon style="stroke:black; stroke-width:1; fill:rgb(63,63,190); " description="unannotated orf[br]Location: 17145 - 18525" locus_tag="CHAFR746836_0090930.1" class="clusterblast-orf" points="136,40 142,40 147,35 142,30 136,30 136,40 " id="clusterblast-1_q24_2_4"  />
<polygon style="stroke:black; stroke-width:1; fill:#FFFFFF; " description="unannotated orf[br]Location: 28799 - 30524" locus_tag="CHAFR746836_0090940.1" class="clusterblast-orf" points="229,40 238,40 243,35 238,30 229,30 229,40 " id="clusterblast-1_q24_2_5"  />
<polygon style="stroke:black; stroke-width:1; fill:#FFFFFF; " description="unannotated orf[br]Location: 41424 - 43262" locus_tag="CHAFR746836_0090950.1" class="clusterblast-orf" points="329,35 334,30 344,30 344,40 334,40 329,35 " id="clusterblast-1_q24_2_6"  />
<polygon style="stroke:black; stroke-width:1; fill:#FFFFFF; " description="unannotated orf[br]Location: 43541 - 44533" locus_tag="CHAFR746836_0090960.1" class="clusterblast-orf" points="346,40 349,40 354,35 349,30 346,30 346,40 " id="clusterblast-1_q24_2_7"  />
<polygon style="stroke:black; stroke-width:1; fill:#FFFFFF; " description="unannotated orf[br]Location: 44819 - 46174" locus_tag="CHAFR746836_0090970.1" class="clusterblast-orf" points="356,35 361,30 367,30 367,40 361,40 356,35 " id="clusterblast-1_q24_2_8"  />
<polygon style="stroke:black; stroke-width:1; fill:#FFFFFF; " description="unannotated orf[br]Location: 46942 - 48495" locus_tag="CHAFR746836_0090980.1" class="clusterblast-orf" points="373,40 380,40 385,35 380,30 373,30 373,40 " id="clusterblast-1_q24_2_9"  />
<polygon style="stroke:black; stroke-width:1; fill:#FFFFFF; " description="unannotated orf[br]Location: 49208 - 50194" locus_tag="CHAFR746836_0090990.1" class="clusterblast-orf" points="391,40 394,40 399,35 394,30 391,30 391,40 " id="clusterblast-1_q24_2_10"  />
<polygon style="stroke:black; stroke-width:1; fill:rgb(63,190,63); " description="unannotated orf[br]Location: 51690 - 53335" locus_tag="CHAFR746836_0091000.1" class="clusterblast-orf" points="411,40 419,40 424,35 419,30 411,30 411,40 " id="clusterblast-1_q24_2_11"  />
<polygon style="stroke:black; stroke-width:1; fill:rgb(190,63,190); " description="unannotated orf[br]Location: 57952 - 59410" locus_tag="CHAFR746836_0091010.1" class="clusterblast-orf" points="460,40 467,40 472,35 467,30 460,30 460,40 " id="clusterblast-1_q24_2_12"  />
<polygon style="stroke:black; stroke-width:1; fill:rgb(190,190,63); " description="unannotated orf[br]Location: 62569 - 63924" locus_tag="CHAFR746836_0091020.1" class="clusterblast-orf" points="497,40 503,40 508,35 503,30 497,30 497,40 " id="clusterblast-1_q24_2_13"  />
<polygon style="stroke:black; stroke-width:1; fill:rgb(190,190,190); " description="unannotated orf[br]Location: 66784 - 68224" locus_tag="CHAFR746836_0091030.1" class="clusterblast-orf" points="531,40 537,40 542,35 537,30 531,30 531,40 " id="clusterblast-1_q24_2_14"  />
<polygon style="stroke:black; stroke-width:1; fill:#FFFFFF; " description="unannotated orf[br]Location: 88555 - 89706" locus_tag="CHAFR746836_0091040.1" class="clusterblast-orf" points="704,35 709,30 713,30 713,40 709,40 704,35 " id="clusterblast-1_q24_2_15"  />
<polygon style="stroke:black; stroke-width:1; fill:rgb(63,190,190); " description="unannotated orf[br]Location: 94755 - 95427" locus_tag="CHAFR746836_0091050.1" class="clusterblast-orf" points="753,35 758,30 758,30 758,40 758,40 753,35 " id="clusterblast-1_q24_2_16"  />
<polygon style="stroke:black; stroke-width:1; fill:rgb(63,63,63); " description="unannotated orf[br]Location: 95982 - 97863" locus_tag="CHAFR746836_0091060.1" class="clusterblast-orf" points="763,40 773,40 778,35 773,30 763,30 763,40 " id="clusterblast-1_q24_2_17"  />
</g>
<g class="clusterblast-cluster" description="Glarea lozoyensis 74030 Seq41, whole genome shotgun sequ..." label="AGUE01000041.1_c1"  >
<text class="clusterblast-acc" y="60" x="5"  >
AGUE01000041.1_c1</text>
<text class="clusterblast-desc" y="60" x="460.8"  >
Glarea lozoyensis 74030 Seq41, whole genome shotgun sequ...</text>
<line y1="85" x2="778.0" style="stroke:grey; stroke-width:1; " x1="10" y2="85"  />
<polygon style="stroke:black; stroke-width:1; fill:#FFFFFF; " description="putative_HC-toxin_efflux_carrier_TOXA[br]Location: 14520 - 15214" locus_tag="M7I_2053" id="clusterblast-1_h24_2_0" points="249,85 254,80 254,80 254,90 254,90 249,85 " class="clusterblast-orf"  />
<polygon style="stroke:black; stroke-width:1; fill:#FFFFFF; " description="putative_Trichodiene_oxygenase[br]Location: 17129 - 18142" locus_tag="M7I_2054" id="clusterblast-1_h24_2_1" points="269,90 272,90 277,85 272,80 269,80 269,90 " class="clusterblast-orf"  />
<polygon style="stroke:black; stroke-width:1; fill:rgb(190,63,63); " description="putative_Sterigmatocystin_8-O-methyltransferase[br]Location: 20810 - 24323&lt;br&gt;&lt;br&gt;&lt;b&gt;BlastP hit with CHAFR746836_0090890.1&lt;/b&gt;&lt;br&gt;Percentage identity: 37%&lt;br&gt;Percentage coverage: 97%&lt;br&gt;BLAST bit score: 273&lt;br&gt;E-value: 6e-83" locus_tag="M7I_2055" id="clusterblast-1_h24_2_2" points="298,90 321,90 326,85 321,80 298,80 298,90 " class="clusterblast-orf"  />
<polygon style="stroke:black; stroke-width:1; fill:#FFFFFF; " description="putative_NmrA-like_family_domain-containing[br]Location: 25361 - 26860" locus_tag="M7I_2056" id="clusterblast-1_h24_2_3" points="335,90 342,90 347,85 342,80 335,80 335,90 " class="clusterblast-orf"  />
<polygon style="stroke:black; stroke-width:1; fill:#FFFFFF; " description="putative_Ent-kaurene_oxidase[br]Location: 27287 - 28465" locus_tag="M7I_2057" id="clusterblast-1_h24_2_4" points="350,85 355,80 359,80 359,90 355,90 350,85 " class="clusterblast-orf"  />
<polygon style="stroke:black; stroke-width:1; fill:rgb(190,190,63); " description="putative_Sterigmatocystin_8-O-methyltransferase[br]Location: 29740 - 30822&lt;br&gt;&lt;br&gt;&lt;b&gt;BlastP hit with CHAFR746836_0091020.1&lt;/b&gt;&lt;br&gt;Percentage identity: 37%&lt;br&gt;Percentage coverage: 43%&lt;br&gt;BLAST bit score: 112&lt;br&gt;E-value: 1e-27" locus_tag="M7I_2058" id="clusterblast-1_h24_2_5" points="369,90 373,90 378,85 373,80 369,80 369,90 " class="clusterblast-orf"  />
<polygon style="stroke:black; stroke-width:1; fill:rgb(190,63,63); " description="putative_Sterigmatocystin_8-O-methyltransferase[br]Location: 31150 - 32798&lt;br&gt;&lt;br&gt;&lt;b&gt;BlastP hit with CHAFR746836_0090890.1&lt;/b&gt;&lt;br&gt;Percentage identity: 38%&lt;br&gt;Percentage coverage: 94%&lt;br&gt;BLAST bit score: 298&lt;br&gt;E-value: 1e-95" locus_tag="M7I_2059" id="clusterblast-1_h24_2_6" points="381,85 386,80 394,80 394,90 386,90 381,85 " class="clusterblast-orf"  />
<polygon style="stroke:black; stroke-width:1; fill:#FFFFFF; " description="hypothetical_protein[br]Location: 33414 - 33572" locus_tag="M7I_2060" id="clusterblast-1_h24_2_7" points="399,90 400,85 399,80 399,90 " class="clusterblast-orf"  />
<polygon style="stroke:black; stroke-width:1; fill:#FFFFFF; " description="putative_Dimodular_nonribosomal_peptide[br]Location: 34014 - 36932" locus_tag="M7I_2061" id="clusterblast-1_h24_2_8" points="403,90 422,90 427,85 422,80 403,80 403,90 " class="clusterblast-orf"  />
<polygon style="stroke:black; stroke-width:1; fill:#FFFFFF; " description="putative_Tyrosyl-tRNA_synthetase,_cytoplasmic[br]Location: 49756 - 50955" locus_tag="M7I_2062" id="clusterblast-1_h24_2_9" points="528,85 533,80 538,80 538,90 533,90 528,85 " class="clusterblast-orf"  />
</g>
</svg>
