<svg xmlns="http://www.w3.org/2000/svg" height="230" width="800" version="1.1" y="0" x="0" preserveAspectRatio="none" xmlns:xlink="http://www.w3.org/1999/xlink" viewBox="0 0 800 230"  >
<g class="clusterblast-cluster" label="Query sequence"  >
<text class="clusterblast-acc" y="10" x="5"  >
Query sequence</text>
<line y1="35" x2="778.0" style="stroke:grey; stroke-width:1; " x1="10" y2="35"  />
<polygon style="stroke:black; stroke-width:1; fill:#FFFFFF; " description="unannotated orf[br]Location: 4665 - 6373" locus_tag="CHAFR746836_0090420.1" class="clusterblast-orf" points="15,35 20,30 30,30 30,40 20,40 15,35 " id="clusterblast-1_q23_9_0"  />
<polygon style="stroke:black; stroke-width:1; fill:rgb(190,63,63); " description="unannotated orf[br]Location: 13107 - 14013" locus_tag="CHAFR746836_0090430.1" class="clusterblast-orf" points="89,35 94,30 97,30 97,40 94,40 89,35 " id="clusterblast-1_q23_9_1"  />
<polygon style="stroke:black; stroke-width:1; fill:rgb(63,63,190); " description="unannotated orf[br]Location: 15082 - 18583" locus_tag="CHAFR746836_0090440.1" class="clusterblast-orf" points="107,35 112,30 138,30 138,40 112,40 107,35 " id="clusterblast-1_q23_9_2"  />
<polygon style="stroke:black; stroke-width:1; fill:rgb(63,190,63); " description="unannotated orf[br]Location: 62601 - 69132" locus_tag="CHAFR746836_0090450.1" class="clusterblast-orf" points="527,35 532,30 585,30 585,40 532,40 527,35 " id="clusterblast-1_q23_9_3"  />
<polygon style="stroke:black; stroke-width:1; fill:rgb(190,63,190); " description="unannotated orf[br]Location: 70531 - 72251" locus_tag="CHAFR746836_0090460.1" class="clusterblast-orf" points="598,40 608,40 613,35 608,30 598,30 598,40 " id="clusterblast-1_q23_9_4"  />
<polygon style="stroke:black; stroke-width:1; fill:#FFFFFF; " description="unannotated orf[br]Location: 75015 - 76460" locus_tag="CHAFR746836_0090470.1" class="clusterblast-orf" points="637,35 642,30 650,30 650,40 642,40 637,35 " id="clusterblast-1_q23_9_5"  />
<polygon style="stroke:black; stroke-width:1; fill:rgb(190,190,63); " description="unannotated orf[br]Location: 79984 - 80954" locus_tag="CHAFR746836_0090480.1" class="clusterblast-orf" points="681,35 686,30 690,30 690,40 686,40 681,35 " id="clusterblast-1_q23_9_6"  />
<polygon style="stroke:black; stroke-width:1; fill:rgb(190,190,190); " description="unannotated orf[br]Location: 81993 - 83038" locus_tag="CHAFR746836_0090490.1" class="clusterblast-orf" points="699,40 703,40 708,35 703,30 699,30 699,40 " id="clusterblast-1_q23_9_7"  />
<polygon style="stroke:black; stroke-width:1; fill:#FFFFFF; " description="unannotated orf[br]Location: 86529 - 87580" locus_tag="CHAFR746836_0090500.1" class="clusterblast-orf" points="739,35 744,30 749,30 749,40 744,40 739,35 " id="clusterblast-1_q23_9_8"  />
<polygon style="stroke:black; stroke-width:1; fill:#FFFFFF; " description="unannotated orf[br]Location: 88454 - 90258" locus_tag="CHAFR746836_0090510.1" class="clusterblast-orf" points="756,40 767,40 772,35 767,30 756,30 756,40 " id="clusterblast-1_q23_9_9"  />
</g>
<g class="clusterblast-cluster" description="Streptomyces sp. W007 contig00280, whole genome shotg..." label="NZ_AGSW01000262.1_c1"  >
<text class="clusterblast-acc" y="60" x="5"  >
NZ_AGSW01000262.1_c1</text>
<text class="clusterblast-desc" y="60" x="460.8"  >
Streptomyces sp. W007 contig00280, whole genome shotg...</text>
<line y1="85" x2="778.0" style="stroke:grey; stroke-width:1; " x1="10" y2="85"  />
<polygon style="stroke:black; stroke-width:1; fill:#FFFFFF; " description="(NiFe)_hydrogenase_maturation_protein_HypF[br]Location: 2085 - 4427" locus_tag="SPW_7511" id="clusterblast-1_h23_9_0" points="10,85 15,80 30,80 30,90 15,90 10,85 " class="clusterblast-orf"  />
<polygon style="stroke:black; stroke-width:1; fill:#FFFFFF; " description="hydrogenase[br]Location: 4421 - 5434" locus_tag="SPW_7512" id="clusterblast-1_h23_9_1" points="30,85 35,80 39,80 39,90 35,90 30,85 " class="clusterblast-orf"  />
<polygon style="stroke:black; stroke-width:1; fill:#FFFFFF; " description="isochorismatase[br]Location: 5450 - 6025" locus_tag="SPW_7513" id="clusterblast-1_h23_9_2" points="39,85 44,80 44,80 44,90 44,90 39,85 " class="clusterblast-orf"  />
<polygon style="stroke:black; stroke-width:1; fill:#FFFFFF; " description="putative_cyclase[br]Location: 6125 - 6607" locus_tag="SPW_7514" id="clusterblast-1_h23_9_3" points="45,85 50,80 50,80 50,90 50,90 45,85 " class="clusterblast-orf"  />
<polygon style="stroke:black; stroke-width:1; fill:#FFFFFF; " description="L-ectoine_synthase[br]Location: 6838 - 7212" locus_tag="SPW_7515" id="clusterblast-1_h23_9_4" points="52,85 55,80 55,90 52,85 " class="clusterblast-orf"  />
<polygon style="stroke:black; stroke-width:1; fill:#FFFFFF; " description="MbtH_domain-containing_protein[br]Location: 7234 - 7467" locus_tag="SPW_7516" id="clusterblast-1_h23_9_5" points="55,85 57,80 57,90 55,85 " class="clusterblast-orf"  />
<polygon style="stroke:black; stroke-width:1; fill:#FFFFFF; " description="putative_aminotransferase_protein[br]Location: 7557 - 8861" locus_tag="SPW_7517" id="clusterblast-1_h23_9_6" points="58,85 63,80 69,80 69,90 63,90 58,85 " class="clusterblast-orf"  />
<polygon style="stroke:black; stroke-width:1; fill:#FFFFFF; " description="enoyl-CoA_hydratase/isomerase[br]Location: 8918 - 10276" locus_tag="SPW_7518" id="clusterblast-1_h23_9_7" points="70,85 75,80 82,80 82,90 75,90 70,85 " class="clusterblast-orf"  />
<polygon style="stroke:black; stroke-width:1; fill:#FFFFFF; " description="enoyl-CoA_hydratase/isomerase[br]Location: 10273 - 11007" locus_tag="SPW_7519" id="clusterblast-1_h23_9_8" points="82,85 87,80 89,80 89,90 87,90 82,85 " class="clusterblast-orf"  />
<polygon style="stroke:black; stroke-width:1; fill:#FFFFFF; " description="chalcone_and_stilbene_synthases-like_protein[br]Location: 11020 - 12102" locus_tag="SPW_7520" id="clusterblast-1_h23_9_9" points="89,85 94,80 98,80 98,90 94,90 89,85 " class="clusterblast-orf"  />
<polygon style="stroke:black; stroke-width:1; fill:rgb(190,190,63); " description="putative_enoyl-CoA_hydratase/isomerase[br]Location: 12287 - 13006&lt;br&gt;&lt;br&gt;&lt;b&gt;BlastP hit with CHAFR746836_0090480.1&lt;/b&gt;&lt;br&gt;Percentage identity: 38%&lt;br&gt;Percentage coverage: 87%&lt;br&gt;BLAST bit score: 124&lt;br&gt;E-value: 2e-32&lt;br&gt;&lt;br&gt;&lt;b&gt;BlastP hit with CHAFR746836_0090490.1&lt;/b&gt;&lt;br&gt;Percentage identity: 37%&lt;br&gt;Percentage coverage: 56%&lt;br&gt;BLAST bit score: 103&lt;br&gt;E-value: 1e-24" locus_tag="SPW_7521" id="clusterblast-1_h23_9_10" points="100,90 101,90 106,85 101,80 100,80 100,90 " class="clusterblast-orf"  />
<polygon style="stroke:black; stroke-width:1; fill:#FFFFFF; " description="cyclic_nucleotide-binding_protein[br]Location: 13056 - 14543" locus_tag="SPW_7522" id="clusterblast-1_h23_9_11" points="107,85 112,80 120,80 120,90 112,90 107,85 " class="clusterblast-orf"  />
<polygon style="stroke:black; stroke-width:1; fill:#FFFFFF; " description="peptide_synthetase[br]Location: 14757 - 17228" locus_tag="SPW_7523" id="clusterblast-1_h23_9_12" points="122,85 127,80 144,80 144,90 127,90 122,85 " class="clusterblast-orf"  />
<polygon style="stroke:black; stroke-width:1; fill:#FFFFFF; " description="putative_transcriptional_regulator[br]Location: 17562 - 18836" locus_tag="SPW_7524" id="clusterblast-1_h23_9_13" points="147,85 152,80 158,80 158,90 152,90 147,85 " class="clusterblast-orf"  />
<polygon style="stroke:black; stroke-width:1; fill:#FFFFFF; " description="putative_lipoprotein[br]Location: 19398 - 21266" locus_tag="SPW_7525" id="clusterblast-1_h23_9_14" points="163,85 168,80 179,80 179,90 168,90 163,85 " class="clusterblast-orf"  />
<polygon style="stroke:black; stroke-width:1; fill:#FFFFFF; " description="beta-lactamase_domain-containing_protein[br]Location: 21307 - 22227" locus_tag="SPW_7526" id="clusterblast-1_h23_9_15" points="180,85 185,80 188,80 188,90 185,90 180,85 " class="clusterblast-orf"  />
<polygon style="stroke:black; stroke-width:1; fill:#FFFFFF; " description="ornithine_cyclodeaminase[br]Location: 22224 - 23228" locus_tag="SPW_7527" id="clusterblast-1_h23_9_16" points="188,85 193,80 197,80 197,90 193,90 188,85 " class="clusterblast-orf"  />
<polygon style="stroke:black; stroke-width:1; fill:#FFFFFF; " description="thioesterase[br]Location: 23242 - 24024" locus_tag="SPW_7528" id="clusterblast-1_h23_9_17" points="197,85 202,80 204,80 204,90 202,90 197,85 " class="clusterblast-orf"  />
<polygon style="stroke:black; stroke-width:1; fill:#FFFFFF; " description="non-ribosomal_peptide_synthetase[br]Location: 24025 - 24783" locus_tag="SPW_7529" id="clusterblast-1_h23_9_18" points="204,85 209,80 210,80 210,90 209,90 204,85 " class="clusterblast-orf"  />
<polygon style="stroke:black; stroke-width:1; fill:#FFFFFF; " description="non-ribosomal_peptide_synthetase[br]Location: 25074 - 27785" locus_tag="SPW_7530" id="clusterblast-1_h23_9_19" points="213,90 232,90 237,85 232,80 213,80 213,90 " class="clusterblast-orf"  />
<polygon style="stroke:black; stroke-width:1; fill:#FFFFFF; " description="hypothetical_protein[br]Location: 27946 - 29268" locus_tag="SPW_7531" id="clusterblast-1_h23_9_20" points="238,85 243,80 250,80 250,90 243,90 238,85 " class="clusterblast-orf"  />
<polygon style="stroke:black; stroke-width:1; fill:#FFFFFF; " description="putative_F-420_dependent_reductase[br]Location: 29300 - 30184" locus_tag="SPW_7532" id="clusterblast-1_h23_9_21" points="250,85 255,80 258,80 258,90 255,90 250,85 " class="clusterblast-orf"  />
<polygon style="stroke:black; stroke-width:1; fill:#FFFFFF; " description="putative_tyrosine_hydroxylase[br]Location: 30200 - 31174" locus_tag="SPW_7533" id="clusterblast-1_h23_9_22" points="258,85 263,80 267,80 267,90 263,90 258,85 " class="clusterblast-orf"  />
<polygon style="stroke:black; stroke-width:1; fill:#FFFFFF; " description="putative_L-DOPA-2,3-dioxygenase[br]Location: 31171 - 31641" locus_tag="SPW_7534" id="clusterblast-1_h23_9_23" points="267,85 271,80 271,90 267,85 " class="clusterblast-orf"  />
<polygon style="stroke:black; stroke-width:1; fill:#FFFFFF; " description="aspartyl/asparaginyl_beta-hydroxylase[br]Location: 31800 - 32651" locus_tag="SPW_7535" id="clusterblast-1_h23_9_24" points="273,85 278,80 280,80 280,90 278,90 273,85 " class="clusterblast-orf"  />
<polygon style="stroke:black; stroke-width:1; fill:#FFFFFF; " description="ornithine_cyclodeaminase/mu-crystallin[br]Location: 32924 - 33988" locus_tag="SPW_7536" id="clusterblast-1_h23_9_25" points="283,85 288,80 292,80 292,90 288,90 283,85 " class="clusterblast-orf"  />
<polygon style="stroke:black; stroke-width:1; fill:#FFFFFF; " description="cyclic_nucleotide-binding_protein[br]Location: 34056 - 37787" locus_tag="SPW_7537" id="clusterblast-1_h23_9_26" points="293,85 298,80 326,80 326,90 298,90 293,85 " class="clusterblast-orf"  />
<polygon style="stroke:black; stroke-width:1; fill:#FFFFFF; " description="XRE_family_transcriptional_regulator[br]Location: 38205 - 38552" locus_tag="SPW_7538" id="clusterblast-1_h23_9_27" points="329,85 332,80 332,90 329,85 " class="clusterblast-orf"  />
<polygon style="stroke:black; stroke-width:1; fill:#FFFFFF; " description="putative_PAS/PAC_sensor_protein[br]Location: 38748 - 40397" locus_tag="SPW_7539" id="clusterblast-1_h23_9_28" points="334,90 344,90 349,85 344,80 334,80 334,90 " class="clusterblast-orf"  />
<polygon style="stroke:black; stroke-width:1; fill:#FFFFFF; " description="hypothetical_protein[br]Location: 40545 - 41294" locus_tag="SPW_7540" id="clusterblast-1_h23_9_29" points="350,90 352,90 357,85 352,80 350,80 350,90 " class="clusterblast-orf"  />
<polygon style="stroke:black; stroke-width:1; fill:#FFFFFF; " description="hypothetical_protein[br]Location: 41415 - 41780" locus_tag="SPW_7541" id="clusterblast-1_h23_9_30" points="358,85 361,80 361,90 358,85 " class="clusterblast-orf"  />
<polygon style="stroke:black; stroke-width:1; fill:#FFFFFF; " description="hypothetical_protein[br]Location: 41822 - 41944" locus_tag="SPW_7542" id="clusterblast-1_h23_9_31" points="361,85 362,80 362,90 361,85 " class="clusterblast-orf"  />
<polygon style="stroke:black; stroke-width:1; fill:#FFFFFF; " description="aminoglycoside_phosphotransferase[br]Location: 42169 - 43077" locus_tag="SPW_7543" id="clusterblast-1_h23_9_32" points="364,85 369,80 372,80 372,90 369,90 364,85 " class="clusterblast-orf"  />
<polygon style="stroke:black; stroke-width:1; fill:#FFFFFF; " description="hypothetical_protein[br]Location: 43464 - 43631" locus_tag="SPW_7544" id="clusterblast-1_h23_9_33" points="376,90 377,85 376,80 376,90 " class="clusterblast-orf"  />
<polygon style="stroke:black; stroke-width:1; fill:#FFFFFF; " description="hypothetical_protein[br]Location: 43687 - 43896" locus_tag="SPW_7545" id="clusterblast-1_h23_9_34" points="378,90 380,85 378,80 378,90 " class="clusterblast-orf"  />
<polygon style="stroke:black; stroke-width:1; fill:#FFFFFF; " description="hypothetical_protein[br]Location: 44031 - 44633" locus_tag="SPW_7546" id="clusterblast-1_h23_9_35" points="381,90 381,90 386,85 381,80 381,80 381,90 " class="clusterblast-orf"  />
<polygon style="stroke:black; stroke-width:1; fill:#FFFFFF; " description="putative_transposase[br]Location: 44590 - 44997" locus_tag="SPW_7547" id="clusterblast-1_h23_9_36" points="386,90 389,85 386,80 386,90 " class="clusterblast-orf"  />
<polygon style="stroke:black; stroke-width:1; fill:#FFFFFF; " description="ABC-type_multidrug_transport_system,_permease[br]Location: 45248 - 46048" locus_tag="SPW_7548" id="clusterblast-1_h23_9_37" points="392,85 397,80 399,80 399,90 397,90 392,85 " class="clusterblast-orf"  />
<polygon style="stroke:black; stroke-width:1; fill:#FFFFFF; " description="ABC-type_multidrug_transport_system,_ATPase[br]Location: 46041 - 47021" locus_tag="SPW_7549" id="clusterblast-1_h23_9_38" points="399,85 404,80 407,80 407,90 404,90 399,85 " class="clusterblast-orf"  />
<polygon style="stroke:black; stroke-width:1; fill:#FFFFFF; " description="methylase_of_polypeptide_chain_release[br]Location: 47154 - 47924" locus_tag="SPW_7550" id="clusterblast-1_h23_9_39" points="409,85 414,80 415,80 415,90 414,90 409,85 " class="clusterblast-orf"  />
<polygon style="stroke:black; stroke-width:1; fill:#FFFFFF; " description="thioesterase[br]Location: 47921 - 48676" locus_tag="SPW_7551" id="clusterblast-1_h23_9_40" points="415,85 420,80 422,80 422,90 420,90 415,85 " class="clusterblast-orf"  />
<polygon style="stroke:black; stroke-width:1; fill:#FFFFFF; " description="beta-ketoacyl_synthase[br]Location: 48777 - 54731" locus_tag="SPW_7552" id="clusterblast-1_h23_9_41" points="423,85 428,80 476,80 476,90 428,90 423,85 " class="clusterblast-orf"  />
<polygon style="stroke:black; stroke-width:1; fill:#FFFFFF; " description="SrfAB[br]Location: 54721 - 57960" locus_tag="SPW_7553" id="clusterblast-1_h23_9_42" points="476,85 481,80 504,80 504,90 481,90 476,85 " class="clusterblast-orf"  />
<polygon style="stroke:black; stroke-width:1; fill:#FFFFFF; " description="putative_linear_pentadecapeptide_gramicidin[br]Location: 58083 - 64856" locus_tag="SPW_7554" id="clusterblast-1_h23_9_43" points="505,85 510,80 565,80 565,90 510,90 505,85 " class="clusterblast-orf"  />
<polygon style="stroke:black; stroke-width:1; fill:rgb(63,190,63); " description="amino_acid_adenylation_domain_protein[br]Location: 64853 - 69517&lt;br&gt;&lt;br&gt;&lt;b&gt;BlastP hit with CHAFR746836_0090450.1&lt;/b&gt;&lt;br&gt;Percentage identity: 31%&lt;br&gt;Percentage coverage: 24%&lt;br&gt;BLAST bit score: 234&lt;br&gt;E-value: 1e-60" locus_tag="SPW_7555" id="clusterblast-1_h23_9_44" points="565,85 570,80 607,80 607,90 570,90 565,85 " class="clusterblast-orf"  />
<polygon style="stroke:black; stroke-width:1; fill:#FFFFFF; " description="hypothetical_protein[br]Location: 69554 - 74119" locus_tag="SPW_7556" id="clusterblast-1_h23_9_45" points="607,85 612,80 647,80 647,90 612,90 607,85 " class="clusterblast-orf"  />
<polygon style="stroke:black; stroke-width:1; fill:#FFFFFF; " description="PKS_acyltransferase_domain-containing_protein[br]Location: 74116 - 75363" locus_tag="SPW_7557" id="clusterblast-1_h23_9_46" points="647,85 652,80 658,80 658,90 652,90 647,85 " class="clusterblast-orf"  />
<polygon style="stroke:black; stroke-width:1; fill:#FFFFFF; " description="amino_acid_adenylation[br]Location: 75360 - 85433" locus_tag="SPW_7558" id="clusterblast-1_h23_9_47" points="658,85 663,80 748,80 748,90 663,90 658,85 " class="clusterblast-orf"  />
<polygon style="stroke:black; stroke-width:1; fill:#FFFFFF; " description="acyl-CoA_dehydrogenase_(NADP(+))[br]Location: 85488 - 86624" locus_tag="SPW_7559" id="clusterblast-1_h23_9_48" points="748,85 753,80 758,80 758,90 753,90 748,85 " class="clusterblast-orf"  />
<polygon style="stroke:black; stroke-width:1; fill:#FFFFFF; " description="hypothetical_protein[br]Location: 86617 - 86886" locus_tag="SPW_7560" id="clusterblast-1_h23_9_49" points="758,85 760,80 760,90 758,85 " class="clusterblast-orf"  />
<polygon style="stroke:black; stroke-width:1; fill:#FFFFFF; " description="FkbH_like_protein[br]Location: 86900 - 87904" locus_tag="SPW_7561" id="clusterblast-1_h23_9_50" points="760,85 765,80 769,80 769,90 765,90 760,85 " class="clusterblast-orf"  />
<polygon style="stroke:black; stroke-width:1; fill:#FFFFFF; " description="3-hydroxyacyl-CoA_dehydrogenase_NAD-binding[br]Location: 87972 - 88820" locus_tag="SPW_7562" id="clusterblast-1_h23_9_51" points="770,85 775,80 778,80 778,90 775,90 770,85 " class="clusterblast-orf"  />
</g>
</svg>
