<svg xmlns="http://www.w3.org/2000/svg" height="230" width="800" version="1.1" y="0" x="0" preserveAspectRatio="none" xmlns:xlink="http://www.w3.org/1999/xlink" viewBox="0 0 800 230"  >
<g class="clusterblast-cluster" label="Query sequence"  >
<text class="clusterblast-acc" y="10" x="5"  >
Query sequence</text>
<line y1="35" x2="778.0" style="stroke:grey; stroke-width:1; " x1="10" y2="35"  />
<polygon style="stroke:black; stroke-width:1; fill:#FFFFFF; " description="unannotated orf[br]Location: 6136 - 7367" locus_tag="CHAFR746836_0085100.1" class="clusterblast-orf" points="10,35 15,30 22,30 22,40 15,40 10,35 " id="clusterblast-1_q17_3_0"  />
<polygon style="stroke:black; stroke-width:1; fill:rgb(190,63,63); " description="unannotated orf[br]Location: 11222 - 12640" locus_tag="CHAFR746836_0085110.1" class="clusterblast-orf" points="59,35 64,30 73,30 73,40 64,40 59,35 " id="clusterblast-1_q17_3_1"  />
<polygon style="stroke:black; stroke-width:1; fill:#FFFFFF; " description="unannotated orf[br]Location: 13318 - 14845" locus_tag="CHAFR746836_0085120.1" class="clusterblast-orf" points="80,40 90,40 95,35 90,30 80,30 80,40 " id="clusterblast-1_q17_3_2"  />
<polygon style="stroke:black; stroke-width:1; fill:rgb(63,63,190); " description="unannotated orf[br]Location: 45129 - 47273" locus_tag="CHAFR746836_0085130.1" class="clusterblast-orf" points="392,35 397,30 413,30 413,40 397,40 392,35 " id="clusterblast-1_q17_3_3"  />
<polygon style="stroke:black; stroke-width:1; fill:#FFFFFF; " description="unannotated orf[br]Location: 49048 - 50295" locus_tag="CHAFR746836_0085140.1" class="clusterblast-orf" points="430,40 437,40 442,35 437,30 430,30 430,40 " id="clusterblast-1_q17_3_4"  />
<polygon style="stroke:black; stroke-width:1; fill:#FFFFFF; " description="unannotated orf[br]Location: 50632 - 52244" locus_tag="CHAFR746836_0085150.1" class="clusterblast-orf" points="446,35 451,30 461,30 461,40 451,40 446,35 " id="clusterblast-1_q17_3_5"  />
<polygon style="stroke:black; stroke-width:1; fill:rgb(63,190,63); " description="unannotated orf[br]Location: 54334 - 65855" locus_tag="CHAFR746836_0085160.1" class="clusterblast-orf" points="482,40 590,40 595,35 590,30 482,30 482,40 " id="clusterblast-1_q17_3_6"  />
<polygon style="stroke:black; stroke-width:1; fill:rgb(190,63,190); " description="unannotated orf[br]Location: 67816 - 68591" locus_tag="CHAFR746836_0085170.1" class="clusterblast-orf" points="614,35 619,30 622,30 622,40 619,40 614,35 " id="clusterblast-1_q17_3_7"  />
<polygon style="stroke:black; stroke-width:1; fill:rgb(190,190,63); " description="unannotated orf[br]Location: 74280 - 75627" locus_tag="CHAFR746836_0085180.1" class="clusterblast-orf" points="678,40 686,40 691,35 686,30 678,30 678,40 " id="clusterblast-1_q17_3_8"  />
<polygon style="stroke:black; stroke-width:1; fill:#FFFFFF; " description="unannotated orf[br]Location: 77113 - 77652" locus_tag="CHAFR746836_0085190.1" class="clusterblast-orf" points="705,35 710,30 711,30 711,40 710,40 705,35 " id="clusterblast-1_q17_3_9"  />
<polygon style="stroke:black; stroke-width:1; fill:rgb(190,190,190); " description="unannotated orf[br]Location: 78175 - 79191" locus_tag="CHAFR746836_0085200.1" class="clusterblast-orf" points="716,40 721,40 726,35 721,30 716,30 716,40 " id="clusterblast-1_q17_3_10"  />
<polygon style="stroke:black; stroke-width:1; fill:#FFFFFF; " description="unannotated orf[br]Location: 83575 - 84480" locus_tag="CHAFR746836_0085210.1" class="clusterblast-orf" points="769,40 773,40 778,35 773,30 769,30 769,40 " id="clusterblast-1_q17_3_11"  />
</g>
<g class="clusterblast-cluster" description="Streptomyces ghanaensis ATCC 14672 supercont1.1 genomic ..." label="NZ_DS999641.1_c10"  >
<text class="clusterblast-acc" y="60" x="5"  >
NZ_DS999641.1_c10</text>
<text class="clusterblast-desc" y="60" x="460.8"  >
Streptomyces ghanaensis ATCC 14672 supercont1.1 genomic ...</text>
<line y1="85" x2="778.0" style="stroke:grey; stroke-width:1; " x1="10" y2="85"  />
<polygon style="stroke:black; stroke-width:1; fill:#FFFFFF; " description="conserved_hypothetical_protein[br]Location: 1827341 - 1828867" locus_tag="SSFG_01674" id="clusterblast-1_h17_3_0" points="140,85 145,80 154,80 154,90 145,90 140,85 " class="clusterblast-orf"  />
<polygon style="stroke:black; stroke-width:1; fill:#FFFFFF; " description="uroporphyrinogen_decarboxylase[br]Location: 1828940 - 1830010" locus_tag="SSFG_01675" id="clusterblast-1_h17_3_1" points="155,85 160,80 166,80 166,90 160,90 155,85 " class="clusterblast-orf"  />
<polygon style="stroke:black; stroke-width:1; fill:#FFFFFF; " description="conserved_hypothetical_protein[br]Location: 1830172 - 1830846" locus_tag="SSFG_01676" id="clusterblast-1_h17_3_2" points="167,90 169,90 174,85 169,80 167,80 167,90 " class="clusterblast-orf"  />
<polygon style="stroke:black; stroke-width:1; fill:#FFFFFF; " description="two-component_response_regulator[br]Location: 1831126 - 1831788" locus_tag="SSFG_01677" id="clusterblast-1_h17_3_3" points="177,90 178,90 183,85 178,80 177,80 177,90 " class="clusterblast-orf"  />
<polygon style="stroke:black; stroke-width:1; fill:#FFFFFF; " description="ribonuclease_D[br]Location: 1832011 - 1833309" locus_tag="SSFG_01678" id="clusterblast-1_h17_3_4" points="185,90 193,90 198,85 193,80 185,80 185,90 " class="clusterblast-orf"  />
<polygon style="stroke:black; stroke-width:1; fill:#FFFFFF; " description="potassium_uptake_protein_TrkA[br]Location: 1833616 - 1834995" locus_tag="SSFG_01679" id="clusterblast-1_h17_3_5" points="201,90 210,90 215,85 210,80 201,80 201,90 " class="clusterblast-orf"  />
<polygon style="stroke:black; stroke-width:1; fill:#FFFFFF; " description="cation_transporter[br]Location: 1834992 - 1836539" locus_tag="SSFG_01680" id="clusterblast-1_h17_3_6" points="215,90 225,90 230,85 225,80 215,80 215,90 " class="clusterblast-orf"  />
<polygon style="stroke:black; stroke-width:1; fill:#FFFFFF; " description="sugar_transport_system_permease_protein[br]Location: 1836579 - 1837454" locus_tag="SSFG_01681" id="clusterblast-1_h17_3_7" points="230,85 235,80 239,80 239,90 235,90 230,85 " class="clusterblast-orf"  />
<polygon style="stroke:black; stroke-width:1; fill:#FFFFFF; " description="sugar_transport_system_permease_protein[br]Location: 1837406 - 1838356" locus_tag="SSFG_01682" id="clusterblast-1_h17_3_8" points="238,85 243,80 247,80 247,90 243,90 238,85 " class="clusterblast-orf"  />
<polygon style="stroke:black; stroke-width:1; fill:#FFFFFF; " description="conserved_hypothetical_protein[br]Location: 1838356 - 1839678" locus_tag="SSFG_01683" id="clusterblast-1_h17_3_9" points="247,85 252,80 260,80 260,90 252,90 247,85 " class="clusterblast-orf"  />
<polygon style="stroke:black; stroke-width:1; fill:#FFFFFF; " description="beta-mannosidase[br]Location: 1839817 - 1842246" locus_tag="SSFG_01684" id="clusterblast-1_h17_3_10" points="262,90 281,90 286,85 281,80 262,80 262,90 " class="clusterblast-orf"  />
<polygon style="stroke:black; stroke-width:1; fill:#FFFFFF; " description="transcriptional_regulator[br]Location: 1842245 - 1843282" locus_tag="SSFG_01685" id="clusterblast-1_h17_3_11" points="286,90 291,90 296,85 291,80 286,80 286,90 " class="clusterblast-orf"  />
<polygon style="stroke:black; stroke-width:1; fill:#FFFFFF; " description="acetyl-CoA_acetyltransferase[br]Location: 1843401 - 1844618" locus_tag="SSFG_01686" id="clusterblast-1_h17_3_12" points="297,90 304,90 309,85 304,80 297,80 297,90 " class="clusterblast-orf"  />
<polygon style="stroke:black; stroke-width:1; fill:rgb(190,190,190); " description="fatty_acid_oxidation_complex_alpha-subunit[br]Location: 1844615 - 1846744&lt;br&gt;&lt;br&gt;&lt;b&gt;BlastP hit with CHAFR746836_0085200.1&lt;/b&gt;&lt;br&gt;Percentage identity: 35%&lt;br&gt;Percentage coverage: 41%&lt;br&gt;BLAST bit score: 68&lt;br&gt;E-value: 1e-11" locus_tag="SSFG_01687" id="clusterblast-1_h17_3_13" points="309,90 325,90 330,85 325,80 309,80 309,90 " class="clusterblast-orf"  />
<polygon style="stroke:black; stroke-width:1; fill:rgb(63,190,63); " description="type_I_polyketide_synthase[br]Location: 1847364 - 1855244&lt;br&gt;&lt;br&gt;&lt;b&gt;BlastP hit with CHAFR746836_0085160.1&lt;/b&gt;&lt;br&gt;Percentage identity: 33%&lt;br&gt;Percentage coverage: 22%&lt;br&gt;BLAST bit score: 405&lt;br&gt;E-value: 5e-112&lt;br&gt;&lt;br&gt;&lt;b&gt;BlastP hit with CHAFR746836_0085180.1&lt;/b&gt;&lt;br&gt;Percentage identity: 31%&lt;br&gt;Percentage coverage: 107%&lt;br&gt;BLAST bit score: 153&lt;br&gt;E-value: 4e-39" locus_tag="SSFG_01688" id="clusterblast-1_h17_3_14" points="336,85 341,80 413,80 413,90 341,90 336,85 " class="clusterblast-orf"  />
<polygon style="stroke:black; stroke-width:1; fill:#FFFFFF; " description="conserved_hypothetical_protein[br]Location: 1847437 - 1847808" locus_tag="SSFG_01689" id="clusterblast-1_h17_3_15" points="336,90 340,85 336,80 336,90 " class="clusterblast-orf"  />
<polygon style="stroke:black; stroke-width:1; fill:#FFFFFF; " description="3-oxoacyl-(acyl-carrier-protein)_synthase[br]Location: 1855406 - 1856428" locus_tag="SSFG_01690" id="clusterblast-1_h17_3_16" points="415,90 420,90 425,85 420,80 415,80 415,90 " class="clusterblast-orf"  />
<polygon style="stroke:black; stroke-width:1; fill:#FFFFFF; " description="haloalkane_dehalogenase[br]Location: 1856422 - 1857366" locus_tag="SSFG_01691" id="clusterblast-1_h17_3_17" points="425,90 429,90 434,85 429,80 425,80 425,90 " class="clusterblast-orf"  />
<polygon style="stroke:black; stroke-width:1; fill:#FFFFFF; " description="AMP-ligase[br]Location: 1857363 - 1858934" locus_tag="SSFG_01692" id="clusterblast-1_h17_3_18" points="434,90 444,90 449,85 444,80 434,80 434,90 " class="clusterblast-orf"  />
<polygon style="stroke:black; stroke-width:1; fill:#FFFFFF; " description="NAD(P)H_steroid_dehydrogenase[br]Location: 1858898 - 1859932" locus_tag="SSFG_01693" id="clusterblast-1_h17_3_19" points="449,90 454,90 459,85 454,80 449,80 449,90 " class="clusterblast-orf"  />
<polygon style="stroke:black; stroke-width:1; fill:#FFFFFF; " description="predicted_protein[br]Location: 1859941 - 1860201" locus_tag="SSFG_01694" id="clusterblast-1_h17_3_20" points="459,90 462,85 459,80 459,90 " class="clusterblast-orf"  />
<polygon style="stroke:black; stroke-width:1; fill:#FFFFFF; " description="3-oxoacyl-ACP_synthase_II[br]Location: 1860969 - 1861397" locus_tag="SSFG_01695" id="clusterblast-1_h17_3_21" points="469,90 473,85 469,80 469,90 " class="clusterblast-orf"  />
<polygon style="stroke:black; stroke-width:1; fill:#FFFFFF; " description="cationic_amino_acid_transporter[br]Location: 1861476 - 1862999" locus_tag="SSFG_01696" id="clusterblast-1_h17_3_22" points="474,85 479,80 489,80 489,90 479,90 474,85 " class="clusterblast-orf"  />
<polygon style="stroke:black; stroke-width:1; fill:#FFFFFF; " description="1-deoxy-D-xylulose-5-phosphate_synthase_2[br]Location: 1863147 - 1865114" locus_tag="SSFG_01697" id="clusterblast-1_h17_3_23" points="491,85 496,80 510,80 510,90 496,90 491,85 " class="clusterblast-orf"  />
<polygon style="stroke:black; stroke-width:1; fill:#FFFFFF; " description="predicted_protein[br]Location: 1865190 - 1865525" locus_tag="SSFG_01698" id="clusterblast-1_h17_3_24" points="511,90 514,85 511,80 511,90 " class="clusterblast-orf"  />
<polygon style="stroke:black; stroke-width:1; fill:#FFFFFF; " description="DoxX_family_protein[br]Location: 1865606 - 1866151" locus_tag="SSFG_01699" id="clusterblast-1_h17_3_25" points="515,90 515,90 520,85 515,80 515,80 515,90 " class="clusterblast-orf"  />
<polygon style="stroke:black; stroke-width:1; fill:#FFFFFF; " description="ABC_transporter_permease_protein[br]Location: 1866490 - 1867782" locus_tag="SSFG_01700" id="clusterblast-1_h17_3_26" points="523,85 528,80 536,80 536,90 528,90 523,85 " class="clusterblast-orf"  />
<polygon style="stroke:black; stroke-width:1; fill:#FFFFFF; " description="ABC_transporter_ATP-binding_protein[br]Location: 1867779 - 1868561" locus_tag="SSFG_01701" id="clusterblast-1_h17_3_27" points="536,85 541,80 544,80 544,90 541,90 536,85 " class="clusterblast-orf"  />
<polygon style="stroke:black; stroke-width:1; fill:#FFFFFF; " description="ABC_transporter_solute-binding_protein[br]Location: 1868752 - 1869870" locus_tag="SSFG_01702" id="clusterblast-1_h17_3_28" points="545,85 550,80 556,80 556,90 550,90 545,85 " class="clusterblast-orf"  />
<polygon style="stroke:black; stroke-width:1; fill:#FFFFFF; " description="ROK-family_transcriptional_regulator[br]Location: 1869993 - 1871204" locus_tag="SSFG_01703" id="clusterblast-1_h17_3_29" points="558,85 563,80 569,80 569,90 563,90 558,85 " class="clusterblast-orf"  />
<polygon style="stroke:black; stroke-width:1; fill:#FFFFFF; " description="transmembrane_protein[br]Location: 1871398 - 1872321" locus_tag="SSFG_01704" id="clusterblast-1_h17_3_30" points="571,85 576,80 580,80 580,90 576,90 571,85 " class="clusterblast-orf"  />
<polygon style="stroke:black; stroke-width:1; fill:#FFFFFF; " description="transmembrane_protein[br]Location: 1872325 - 1873251" locus_tag="SSFG_01705" id="clusterblast-1_h17_3_31" points="580,85 585,80 590,80 590,90 585,90 580,85 " class="clusterblast-orf"  />
<polygon style="stroke:black; stroke-width:1; fill:#FFFFFF; " description="NgcE_binding_protein[br]Location: 1873334 - 1874800" locus_tag="SSFG_01706" id="clusterblast-1_h17_3_32" points="590,85 595,80 605,80 605,90 595,90 590,85 " class="clusterblast-orf"  />
<polygon style="stroke:black; stroke-width:1; fill:#FFFFFF; " description="secreted_ATP/GTP_binding_protein[br]Location: 1875240 - 1879043" locus_tag="SSFG_01707" id="clusterblast-1_h17_3_33" points="609,90 641,90 646,85 641,80 609,80 609,90 " class="clusterblast-orf"  />
</g>
</svg>
