<svg xmlns="http://www.w3.org/2000/svg" height="230" width="800" version="1.1" y="0" x="0" preserveAspectRatio="none" xmlns:xlink="http://www.w3.org/1999/xlink" viewBox="0 0 800 230"  >
<g class="clusterblast-cluster" label="Query sequence"  >
<text class="clusterblast-acc" y="10" x="5"  >
Query sequence</text>
<line y1="35" x2="778.0" style="stroke:grey; stroke-width:1; " x1="10" y2="35"  />
<polygon style="stroke:black; stroke-width:1; fill:#FFFFFF; " description="unannotated orf[br]Location: 1013 - 2670" locus_tag="CHAFR746836_0031900.1" class="clusterblast-orf" points="10,35 15,30 19,30 19,40 15,40 10,35 " id="clusterblast-2_q45_3_0"  />
<polygon style="stroke:black; stroke-width:1; fill:#FFFFFF; " description="unannotated orf[br]Location: 5806 - 8080" locus_tag="CHAFR746836_0031910.1" class="clusterblast-orf" points="36,40 44,40 49,35 44,30 36,30 36,40 " id="clusterblast-2_q45_3_1"  />
<polygon style="stroke:black; stroke-width:1; fill:rgb(190,63,63); " description="unannotated orf[br]Location: 14959 - 16522" locus_tag="CHAFR746836_0031920.1" class="clusterblast-orf" points="87,35 92,30 96,30 96,40 92,40 87,35 " id="clusterblast-2_q45_3_2"  />
<polygon style="stroke:black; stroke-width:1; fill:rgb(63,63,190); " description="unannotated orf[br]Location: 18634 - 27051" locus_tag="CHAFR746836_0031930.1" class="clusterblast-orf" points="108,35 113,30 155,30 155,40 113,40 108,35 " id="clusterblast-2_q45_3_3"  />
<polygon style="stroke:black; stroke-width:1; fill:rgb(63,190,63); " description="unannotated orf[br]Location: 28690 - 31017" locus_tag="CHAFR746836_0031940.1" class="clusterblast-orf" points="164,35 169,30 177,30 177,40 169,40 164,35 " id="clusterblast-2_q45_3_4"  />
<polygon style="stroke:black; stroke-width:1; fill:rgb(190,63,190); " description="unannotated orf[br]Location: 31821 - 32686" locus_tag="CHAFR746836_0031950.1" class="clusterblast-orf" points="182,40 186,35 182,30 182,40 " id="clusterblast-2_q45_3_5"  />
<polygon style="stroke:black; stroke-width:1; fill:#FFFFFF; " description="unannotated orf[br]Location: 33127 - 34136" locus_tag="CHAFR746836_0031960.1" class="clusterblast-orf" points="189,35 194,30 195,30 195,40 194,40 189,35 " id="clusterblast-2_q45_3_6"  />
<polygon style="stroke:black; stroke-width:1; fill:#FFFFFF; " description="unannotated orf[br]Location: 34492 - 36671" locus_tag="CHAFR746836_0031970.1" class="clusterblast-orf" points="197,40 204,40 209,35 204,30 197,30 197,40 " id="clusterblast-2_q45_3_7"  />
<polygon style="stroke:black; stroke-width:1; fill:#FFFFFF; " description="unannotated orf[br]Location: 90516 - 91329" locus_tag="CHAFR746836_0031980.1" class="clusterblast-orf" points="510,40 514,35 510,30 510,40 " id="clusterblast-2_q45_3_8"  />
<polygon style="stroke:black; stroke-width:1; fill:#FFFFFF; " description="unannotated orf[br]Location: 95107 - 95607" locus_tag="CHAFR746836_0031990.1" class="clusterblast-orf" points="535,35 538,30 538,40 535,35 " id="clusterblast-2_q45_3_9"  />
<polygon style="stroke:black; stroke-width:1; fill:#FFFFFF; " description="unannotated orf[br]Location: 98154 - 98987" locus_tag="CHAFR746836_0032000.1" class="clusterblast-orf" points="552,40 552,40 557,35 552,30 552,30 552,40 " id="clusterblast-2_q45_3_10"  />
<polygon style="stroke:black; stroke-width:1; fill:#FFFFFF; " description="unannotated orf[br]Location: 110556 - 112350" locus_tag="CHAFR746836_0032010.1" class="clusterblast-orf" points="622,35 627,30 632,30 632,40 627,40 622,35 " id="clusterblast-2_q45_3_11"  />
<polygon style="stroke:black; stroke-width:1; fill:rgb(190,190,63); " description="unannotated orf[br]Location: 112800 - 115534" locus_tag="CHAFR746836_0032020.1" class="clusterblast-orf" points="634,40 644,40 649,35 644,30 634,30 634,40 " id="clusterblast-2_q45_3_12"  />
<polygon style="stroke:black; stroke-width:1; fill:rgb(190,190,190); " description="unannotated orf[br]Location: 116249 - 122294" locus_tag="CHAFR746836_0032030.1" class="clusterblast-orf" points="653,40 682,40 687,35 682,30 653,30 653,40 " id="clusterblast-2_q45_3_13"  />
<polygon style="stroke:black; stroke-width:1; fill:rgb(63,190,190); " description="unannotated orf[br]Location: 126098 - 127042" locus_tag="CHAFR746836_0032040.1" class="clusterblast-orf" points="708,35 713,30 714,30 714,40 713,40 708,35 " id="clusterblast-2_q45_3_14"  />
<polygon style="stroke:black; stroke-width:1; fill:rgb(63,63,63); " description="unannotated orf[br]Location: 128617 - 129857" locus_tag="CHAFR746836_0032050.1" class="clusterblast-orf" points="723,40 724,40 729,35 724,30 723,30 723,40 " id="clusterblast-2_q45_3_15"  />
<polygon style="stroke:black; stroke-width:1; fill:#FFFFFF; " description="unannotated orf[br]Location: 132905 - 135667" locus_tag="CHAFR746836_0032060.1" class="clusterblast-orf" points="746,40 757,40 762,35 757,30 746,30 746,40 " id="clusterblast-2_q45_3_16"  />
<polygon style="stroke:black; stroke-width:1; fill:#FFFFFF; " description="unannotated orf[br]Location: 137047 - 138460" locus_tag="CHAFR746836_0032070.1" class="clusterblast-orf" points="770,35 775,30 778,30 778,40 775,40 770,35 " id="clusterblast-2_q45_3_17"  />
</g>
<g class="clusterblast-cluster" description="Exophiala dermatitidis NIH/UT8656 unplaced genomic scaffold ..." label="JH226138.1_c1"  >
<text class="clusterblast-acc" y="60" x="5"  >
JH226138.1_c1</text>
<text class="clusterblast-desc" y="60" x="460.8"  >
Exophiala dermatitidis NIH/UT8656 unplaced genomic scaffold ...</text>
<line y1="85" x2="778.0" style="stroke:grey; stroke-width:1; " x1="10" y2="85"  />
<polygon style="stroke:black; stroke-width:1; fill:#FFFFFF; " description="hypothetical_protein[br]Location: 92519 - 98063" locus_tag="HMPREF1120_09207" id="clusterblast-2_h45_3_0" points="262,85 267,80 292,80 292,90 267,90 262,85 " class="clusterblast-orf"  />
<polygon style="stroke:black; stroke-width:1; fill:#FFFFFF; " description="anthranilate_synthase_component_2[br]Location: 89895 - 92213" locus_tag="HMPREF1120_09206" id="clusterblast-2_h45_3_1" points="294,90 302,90 307,85 302,80 294,80 294,90 " class="clusterblast-orf"  />
<polygon style="stroke:black; stroke-width:1; fill:#FFFFFF; " description="hypothetical_protein[br]Location: 87179 - 89328" locus_tag="HMPREF1120_09205" id="clusterblast-2_h45_3_2" points="310,90 317,90 322,85 317,80 310,80 310,90 " class="clusterblast-orf"  />
<polygon style="stroke:black; stroke-width:1; fill:#FFFFFF; " description="brix-domain_ribosomal_biogenesis_protein[br]Location: 86053 - 86943" locus_tag="HMPREF1120_09204" id="clusterblast-2_h45_3_3" points="324,85 329,80 329,80 329,90 329,90 324,85 " class="clusterblast-orf"  />
<polygon style="stroke:black; stroke-width:1; fill:#FFFFFF; " description="regulator-nonsense_transcripts_1[br]Location: 82136 - 85424" locus_tag="HMPREF1120_09203" id="clusterblast-2_h45_3_4" points="332,90 345,90 350,85 345,80 332,80 332,90 " class="clusterblast-orf"  />
<polygon style="stroke:black; stroke-width:1; fill:#FFFFFF; " description="hypothetical_protein[br]Location: 79316 - 81124" locus_tag="HMPREF1120_09202" id="clusterblast-2_h45_3_5" points="356,85 361,80 366,80 366,90 361,90 356,85 " class="clusterblast-orf"  />
<polygon style="stroke:black; stroke-width:1; fill:#FFFFFF; " description="hypothetical_protein[br]Location: 77514 - 78494" locus_tag="HMPREF1120_09200" id="clusterblast-2_h45_3_6" points="371,90 371,90 376,85 371,80 371,80 371,90 " class="clusterblast-orf"  />
<polygon style="stroke:black; stroke-width:1; fill:#FFFFFF; " description="cyclopropane-fatty-acyl-phospholipid_synthase[br]Location: 76722 - 77480" locus_tag="HMPREF1120_09201" id="clusterblast-2_h45_3_7" points="377,85 381,80 381,90 377,85 " class="clusterblast-orf"  />
<polygon style="stroke:black; stroke-width:1; fill:rgb(63,190,190); " description="hypothetical_protein[br]Location: 75007 - 75947&lt;br&gt;&lt;br&gt;&lt;b&gt;BlastP hit with CHAFR746836_0032040.1&lt;/b&gt;&lt;br&gt;Percentage identity: 56%&lt;br&gt;Percentage coverage: 98%&lt;br&gt;BLAST bit score: 308&lt;br&gt;E-value: 1e-102" locus_tag="HMPREF1120_09199" id="clusterblast-2_h45_3_8" points="385,85 390,80 390,80 390,90 390,90 385,85 " class="clusterblast-orf"  />
<polygon style="stroke:black; stroke-width:1; fill:rgb(63,63,63); " description="geranylgeranyl_pyrophosphate_synthetase_AtmG[br]Location: 72912 - 74084&lt;br&gt;&lt;br&gt;&lt;b&gt;BlastP hit with CHAFR746836_0032050.1&lt;/b&gt;&lt;br&gt;Percentage identity: 58%&lt;br&gt;Percentage coverage: 101%&lt;br&gt;BLAST bit score: 432&lt;br&gt;E-value: 5e-148" locus_tag="HMPREF1120_09198" id="clusterblast-2_h45_3_9" points="395,90 397,90 402,85 397,80 395,80 395,90 " class="clusterblast-orf"  />
<polygon style="stroke:black; stroke-width:1; fill:#FFFFFF; " description="cytochrome_P450[br]Location: 70055 - 71741" locus_tag="HMPREF1120_09197" id="clusterblast-2_h45_3_10" points="409,90 413,90 418,85 413,80 409,80 409,90 " class="clusterblast-orf"  />
<polygon style="stroke:black; stroke-width:1; fill:#FFFFFF; " description="cytochrome_P450_oxidoreductase[br]Location: 69064 - 69860" locus_tag="HMPREF1120_09196" id="clusterblast-2_h45_3_11" points="419,85 424,80 424,80 424,90 424,90 419,85 " class="clusterblast-orf"  />
<polygon style="stroke:black; stroke-width:1; fill:#FFFFFF; " description="cytochrome_P450_oxidoreductase[br]Location: 68059 - 68955" locus_tag="HMPREF1120_09195" id="clusterblast-2_h45_3_12" points="424,85 429,80 429,80 429,90 429,90 424,85 " class="clusterblast-orf"  />
<polygon style="stroke:black; stroke-width:1; fill:#FFFFFF; " description="microsomal_epoxide_hydrolase[br]Location: 66766 - 67724" locus_tag="HMPREF1120_09194" id="clusterblast-2_h45_3_13" points="431,85 436,80 436,80 436,90 436,90 431,85 " class="clusterblast-orf"  />
<polygon style="stroke:black; stroke-width:1; fill:#FFFFFF; " description="cytochrome_P450[br]Location: 64116 - 65843" locus_tag="HMPREF1120_09193" id="clusterblast-2_h45_3_14" points="442,90 446,90 451,85 446,80 442,80 442,90 " class="clusterblast-orf"  />
<polygon style="stroke:black; stroke-width:1; fill:#FFFFFF; " description="aryl-alcohol_dehydrogenase[br]Location: 62411 - 63738" locus_tag="HMPREF1120_09192" id="clusterblast-2_h45_3_15" points="453,90 456,90 461,85 456,80 453,80 453,90 " class="clusterblast-orf"  />
<polygon style="stroke:black; stroke-width:1; fill:#FFFFFF; " description="hypothetical_protein[br]Location: 59988 - 62042" locus_tag="HMPREF1120_09191" id="clusterblast-2_h45_3_16" points="463,90 469,90 474,85 469,80 463,80 463,90 " class="clusterblast-orf"  />
<polygon style="stroke:black; stroke-width:1; fill:#FFFFFF; " description="MFS_transporter,_ACS_family,_allantoate[br]Location: 57287 - 59191" locus_tag="HMPREF1120_09190" id="clusterblast-2_h45_3_17" points="479,85 484,80 489,80 489,90 484,90 479,85 " class="clusterblast-orf"  />
<polygon style="stroke:black; stroke-width:1; fill:rgb(190,190,190); " description="hypothetical_protein[br]Location: 53429 - 56649&lt;br&gt;&lt;br&gt;&lt;b&gt;BlastP hit with CHAFR746836_0032030.1&lt;/b&gt;&lt;br&gt;Percentage identity: 36%&lt;br&gt;Percentage coverage: 60%&lt;br&gt;BLAST bit score: 564&lt;br&gt;E-value: 9e-178" locus_tag="HMPREF1120_09189" id="clusterblast-2_h45_3_18" points="493,90 506,90 511,85 506,80 493,80 493,90 " class="clusterblast-orf"  />
<polygon style="stroke:black; stroke-width:1; fill:#FFFFFF; " description="hypothetical_protein[br]Location: 50867 - 53160" locus_tag="HMPREF1120_09188" id="clusterblast-2_h45_3_19" points="512,90 520,90 525,85 520,80 512,80 512,90 " class="clusterblast-orf"  />
</g>
</svg>
