<svg xmlns="http://www.w3.org/2000/svg" height="230" width="800" version="1.1" y="0" x="0" preserveAspectRatio="none" xmlns:xlink="http://www.w3.org/1999/xlink" viewBox="0 0 800 230"  >
<g class="clusterblast-cluster" label="Query sequence"  >
<text class="clusterblast-acc" y="10" x="5"  >
Query sequence</text>
<line y1="35" x2="778.0" style="stroke:grey; stroke-width:1; " x1="10" y2="35"  />
<polygon style="stroke:black; stroke-width:1; fill:#FFFFFF; " description="unannotated orf[br]Location: 6136 - 7367" locus_tag="CHAFR746836_0085100.1" class="clusterblast-orf" points="10,35 15,30 22,30 22,40 15,40 10,35 " id="clusterblast-1_q17_2_0"  />
<polygon style="stroke:black; stroke-width:1; fill:rgb(190,63,63); " description="unannotated orf[br]Location: 11222 - 12640" locus_tag="CHAFR746836_0085110.1" class="clusterblast-orf" points="59,35 64,30 73,30 73,40 64,40 59,35 " id="clusterblast-1_q17_2_1"  />
<polygon style="stroke:black; stroke-width:1; fill:#FFFFFF; " description="unannotated orf[br]Location: 13318 - 14845" locus_tag="CHAFR746836_0085120.1" class="clusterblast-orf" points="80,40 90,40 95,35 90,30 80,30 80,40 " id="clusterblast-1_q17_2_2"  />
<polygon style="stroke:black; stroke-width:1; fill:rgb(63,63,190); " description="unannotated orf[br]Location: 45129 - 47273" locus_tag="CHAFR746836_0085130.1" class="clusterblast-orf" points="392,35 397,30 413,30 413,40 397,40 392,35 " id="clusterblast-1_q17_2_3"  />
<polygon style="stroke:black; stroke-width:1; fill:#FFFFFF; " description="unannotated orf[br]Location: 49048 - 50295" locus_tag="CHAFR746836_0085140.1" class="clusterblast-orf" points="430,40 437,40 442,35 437,30 430,30 430,40 " id="clusterblast-1_q17_2_4"  />
<polygon style="stroke:black; stroke-width:1; fill:#FFFFFF; " description="unannotated orf[br]Location: 50632 - 52244" locus_tag="CHAFR746836_0085150.1" class="clusterblast-orf" points="446,35 451,30 461,30 461,40 451,40 446,35 " id="clusterblast-1_q17_2_5"  />
<polygon style="stroke:black; stroke-width:1; fill:rgb(63,190,63); " description="unannotated orf[br]Location: 54334 - 65855" locus_tag="CHAFR746836_0085160.1" class="clusterblast-orf" points="482,40 590,40 595,35 590,30 482,30 482,40 " id="clusterblast-1_q17_2_6"  />
<polygon style="stroke:black; stroke-width:1; fill:rgb(190,63,190); " description="unannotated orf[br]Location: 67816 - 68591" locus_tag="CHAFR746836_0085170.1" class="clusterblast-orf" points="614,35 619,30 622,30 622,40 619,40 614,35 " id="clusterblast-1_q17_2_7"  />
<polygon style="stroke:black; stroke-width:1; fill:rgb(190,190,63); " description="unannotated orf[br]Location: 74280 - 75627" locus_tag="CHAFR746836_0085180.1" class="clusterblast-orf" points="678,40 686,40 691,35 686,30 678,30 678,40 " id="clusterblast-1_q17_2_8"  />
<polygon style="stroke:black; stroke-width:1; fill:#FFFFFF; " description="unannotated orf[br]Location: 77113 - 77652" locus_tag="CHAFR746836_0085190.1" class="clusterblast-orf" points="705,35 710,30 711,30 711,40 710,40 705,35 " id="clusterblast-1_q17_2_9"  />
<polygon style="stroke:black; stroke-width:1; fill:rgb(190,190,190); " description="unannotated orf[br]Location: 78175 - 79191" locus_tag="CHAFR746836_0085200.1" class="clusterblast-orf" points="716,40 721,40 726,35 721,30 716,30 716,40 " id="clusterblast-1_q17_2_10"  />
<polygon style="stroke:black; stroke-width:1; fill:#FFFFFF; " description="unannotated orf[br]Location: 83575 - 84480" locus_tag="CHAFR746836_0085210.1" class="clusterblast-orf" points="769,40 773,40 778,35 773,30 769,30 769,40 " id="clusterblast-1_q17_2_11"  />
</g>
<g class="clusterblast-cluster" description="Hypomyces subiculosus strain DSM11931 hypothemycin gene clus..." label="EU520417.1_c1"  >
<text class="clusterblast-acc" y="60" x="5"  >
EU520417.1_c1</text>
<text class="clusterblast-desc" y="60" x="460.8"  >
Hypomyces subiculosus strain DSM11931 hypothemycin gene clus...</text>
<line y1="85" x2="778.0" style="stroke:grey; stroke-width:1; " x1="10" y2="85"  />
<polygon style="stroke:black; stroke-width:1; fill:#FFFFFF; " description="alcohol_oxidase[br]Location: 34182 - 36147" locus_tag="ACD39759.1" id="clusterblast-1_h17_2_0" points="217,85 222,80 236,80 236,90 222,90 217,85 " class="clusterblast-orf"  />
<polygon style="stroke:black; stroke-width:1; fill:rgb(63,190,63); " description="reducing_polyketide_synthase[br]Location: 25697 - 33204&lt;br&gt;&lt;br&gt;&lt;b&gt;BlastP hit with CHAFR746836_0085160.1&lt;/b&gt;&lt;br&gt;Percentage identity: 37%&lt;br&gt;Percentage coverage: 25%&lt;br&gt;BLAST bit score: 582&lt;br&gt;E-value: 4e-167&lt;br&gt;&lt;br&gt;&lt;b&gt;BlastP hit with CHAFR746836_0085180.1&lt;/b&gt;&lt;br&gt;Percentage identity: 34%&lt;br&gt;Percentage coverage: 47%&lt;br&gt;BLAST bit score: 85&lt;br&gt;E-value: 1e-16" locus_tag="ACD39758.1" id="clusterblast-1_h17_2_1" points="245,85 250,80 319,80 319,90 250,90 245,85 " class="clusterblast-orf"  />
<polygon style="stroke:black; stroke-width:1; fill:#FFFFFF; " description="flavin-dependent_monooxygenase[br]Location: 22079 - 24035" locus_tag="ACD39757.1" id="clusterblast-1_h17_2_2" points="335,85 340,80 354,80 354,90 340,90 335,85 " class="clusterblast-orf"  />
<polygon style="stroke:black; stroke-width:1; fill:rgb(63,63,190); " description="major_facilitator_superfamily_transporter[br]Location: 17948 - 19711&lt;br&gt;&lt;br&gt;&lt;b&gt;BlastP hit with CHAFR746836_0085130.1&lt;/b&gt;&lt;br&gt;Percentage identity: 32%&lt;br&gt;Percentage coverage: 83%&lt;br&gt;BLAST bit score: 204&lt;br&gt;E-value: 9e-57" locus_tag="ACD39756.1" id="clusterblast-1_h17_2_3" points="378,85 383,80 395,80 395,90 383,90 378,85 " class="clusterblast-orf"  />
<polygon style="stroke:black; stroke-width:1; fill:#FFFFFF; " description="O-methyltransferase[br]Location: 15238 - 16789" locus_tag="ACD39755.1" id="clusterblast-1_h17_2_4" points="406,85 411,80 421,80 421,90 411,90 406,85 " class="clusterblast-orf"  />
<polygon style="stroke:black; stroke-width:1; fill:#FFFFFF; " description="hypothetical_protein[br]Location: 11933 - 13537" locus_tag="ACD39754.1" id="clusterblast-1_h17_2_5" points="438,85 443,80 454,80 454,90 443,90 438,85 " class="clusterblast-orf"  />
<polygon style="stroke:black; stroke-width:1; fill:rgb(190,190,63); " description="non-reducing_polyketide_synthase[br]Location: 4283 - 10793&lt;br&gt;&lt;br&gt;&lt;b&gt;BlastP hit with CHAFR746836_0085180.1&lt;/b&gt;&lt;br&gt;Percentage identity: 59%&lt;br&gt;Percentage coverage: 117%&lt;br&gt;BLAST bit score: 470&lt;br&gt;E-value: 6e-150" locus_tag="ACD39753.1" id="clusterblast-1_h17_2_6" points="465,90 524,90 529,85 524,80 465,80 465,90 " class="clusterblast-orf"  />
<polygon style="stroke:black; stroke-width:1; fill:rgb(190,63,190); " description="glutathione-S-transferase[br]Location: 3004 - 3793&lt;br&gt;&lt;br&gt;&lt;b&gt;BlastP hit with CHAFR746836_0085170.1&lt;/b&gt;&lt;br&gt;Percentage identity: 70%&lt;br&gt;Percentage coverage: 98%&lt;br&gt;BLAST bit score: 311&lt;br&gt;E-value: 2e-106" locus_tag="ACD39752.1" id="clusterblast-1_h17_2_7" points="534,85 539,80 541,80 541,90 539,90 534,85 " class="clusterblast-orf"  />
<polygon style="stroke:black; stroke-width:1; fill:#FFFFFF; " description="cytochrome_P450[br]Location: 149 - 1980" locus_tag="ACD39751.1" id="clusterblast-1_h17_2_8" points="551,90 564,90 569,85 564,80 551,80 551,90 " class="clusterblast-orf"  />
</g>
</svg>
