<svg xmlns="http://www.w3.org/2000/svg" height="230" width="800" version="1.1" y="0" x="0" preserveAspectRatio="none" xmlns:xlink="http://www.w3.org/1999/xlink" viewBox="0 0 800 230"  >
<g class="clusterblast-cluster" label="Query sequence"  >
<text class="clusterblast-acc" y="10" x="5"  >
Query sequence</text>
<line y1="35" x2="778.0" style="stroke:grey; stroke-width:1; " x1="10" y2="35"  />
<polygon style="stroke:black; stroke-width:1; fill:rgb(190,63,63); " description="unannotated orf[br]Location: 0 - 4473" locus_tag="CHAFR746836_0033810.1" class="clusterblast-orf" points="23,35 28,30 96,30 96,40 28,40 23,35 " id="clusterblast-1_q47_8_0"  />
<polygon style="stroke:black; stroke-width:1; fill:rgb(63,63,190); " description="unannotated orf[br]Location: 8908 - 16258" locus_tag="CHAFR746836_0033820.1" class="clusterblast-orf" points="169,35 174,30 291,30 291,40 174,40 169,35 " id="clusterblast-1_q47_8_1"  />
<polygon style="stroke:black; stroke-width:1; fill:rgb(63,190,63); " description="unannotated orf[br]Location: 17051 - 17982" locus_tag="CHAFR746836_0033830.1" class="clusterblast-orf" points="304,40 314,40 319,35 314,30 304,30 304,40 " id="clusterblast-1_q47_8_2"  />
<polygon style="stroke:black; stroke-width:1; fill:rgb(190,63,190); " description="unannotated orf[br]Location: 20014 - 21694" locus_tag="CHAFR746836_0033840.1" class="clusterblast-orf" points="353,40 375,40 380,35 375,30 353,30 353,40 " id="clusterblast-1_q47_8_3"  />
<polygon style="stroke:black; stroke-width:1; fill:rgb(190,190,63); " description="unannotated orf[br]Location: 21817 - 22799" locus_tag="CHAFR746836_0033850.1" class="clusterblast-orf" points="382,35 387,30 398,30 398,40 387,40 382,35 " id="clusterblast-1_q47_8_4"  />
<polygon style="stroke:black; stroke-width:1; fill:rgb(190,190,190); " description="unannotated orf[br]Location: 23459 - 25108" locus_tag="CHAFR746836_0033860.1" class="clusterblast-orf" points="409,40 431,40 436,35 431,30 409,30 409,40 " id="clusterblast-1_q47_8_5"  />
<polygon style="stroke:black; stroke-width:1; fill:#FFFFFF; " description="unannotated orf[br]Location: 25635 - 26766" locus_tag="CHAFR746836_0033870.1" class="clusterblast-orf" points="445,40 459,40 464,35 459,30 445,30 445,40 " id="clusterblast-1_q47_8_6"  />
<polygon style="stroke:black; stroke-width:1; fill:#FFFFFF; " description="unannotated orf[br]Location: 33731 - 34287" locus_tag="CHAFR746836_0033880.1" class="clusterblast-orf" points="579,35 584,30 588,30 588,40 584,40 579,35 " id="clusterblast-1_q47_8_7"  />
<polygon style="stroke:black; stroke-width:1; fill:#FFFFFF; " description="unannotated orf[br]Location: 40637 - 41931" locus_tag="CHAFR746836_0033890.1" class="clusterblast-orf" points="693,35 698,30 714,30 714,40 698,40 693,35 " id="clusterblast-1_q47_8_8"  />
<polygon style="stroke:black; stroke-width:1; fill:#FFFFFF; " description="unannotated orf[br]Location: 43999 - 44934" locus_tag="CHAFR746836_0033900.1" class="clusterblast-orf" points="748,35 753,30 763,30 763,40 753,40 748,35 " id="clusterblast-1_q47_8_9"  />
</g>
<g class="clusterblast-cluster" description="Mycosphaerella graminicola IPO323 chromosome 7, whole genome..." label="CM001202.1_c1"  >
<text class="clusterblast-acc" y="60" x="5"  >
CM001202.1_c1</text>
<text class="clusterblast-desc" y="60" x="460.8"  >
Mycosphaerella graminicola IPO323 chromosome 7, whole genome...</text>
<line y1="85" x2="778.0" style="stroke:grey; stroke-width:1; " x1="10" y2="85"  />
<polygon style="stroke:black; stroke-width:1; fill:#FFFFFF; " description="hypothetical_protein[br]Location: 2561490 - 2562458" locus_tag="MYCGRDRAFT_110300" id="clusterblast-1_h47_8_0" points="10,85 15,80 25,80 25,90 15,90 10,85 " class="clusterblast-orf"  />
<polygon style="stroke:black; stroke-width:1; fill:#FFFFFF; " description="hypothetical_protein[br]Location: 2566511 - 2567380" locus_tag="MYCGRDRAFT_110301" id="clusterblast-1_h47_8_1" points="92,90 102,90 107,85 102,80 92,80 92,90 " class="clusterblast-orf"  />
<polygon style="stroke:black; stroke-width:1; fill:#FFFFFF; " description="hypothetical_protein[br]Location: 2571494 - 2574930" locus_tag="MYCGRDRAFT_100850" id="clusterblast-1_h47_8_2" points="174,90 226,90 231,85 226,80 174,80 174,90 " class="clusterblast-orf"  />
<polygon style="stroke:black; stroke-width:1; fill:#FFFFFF; " description="hypothetical_protein[br]Location: 2575718 - 2576723" locus_tag="MYCGRDRAFT_16430" id="clusterblast-1_h47_8_3" points="244,90 256,90 261,85 256,80 244,80 244,90 " class="clusterblast-orf"  />
<polygon style="stroke:black; stroke-width:1; fill:#FFFFFF; " description="hypothetical_protein[br]Location: 2577096 - 2579147" locus_tag="MYCGRDRAFT_45489" id="clusterblast-1_h47_8_4" points="267,85 272,80 301,80 301,90 272,90 267,85 " class="clusterblast-orf"  />
<polygon style="stroke:black; stroke-width:1; fill:rgb(63,63,190); " description="polyketide_synthase[br]Location: 2581920 - 2589469&lt;br&gt;&lt;br&gt;&lt;b&gt;BlastP hit with CHAFR746836_0033820.1&lt;/b&gt;&lt;br&gt;Percentage identity: 39%&lt;br&gt;Percentage coverage: 103%&lt;br&gt;BLAST bit score: 1714&lt;br&gt;E-value: 0.0" locus_tag="MYCGRDRAFT_45348" id="clusterblast-1_h47_8_5" points="346,85 351,80 471,80 471,90 351,90 346,85 " class="clusterblast-orf"  />
<polygon style="stroke:black; stroke-width:1; fill:#FFFFFF; " description="hypothetical_protein[br]Location: 2590017 - 2591228" locus_tag="MYCGRDRAFT_45256" id="clusterblast-1_h47_8_6" points="480,90 495,90 500,85 495,80 480,80 480,90 " class="clusterblast-orf"  />
<polygon style="stroke:black; stroke-width:1; fill:#FFFFFF; " description="hypothetical_protein[br]Location: 2591337 - 2592281" locus_tag="MYCGRDRAFT_45561" id="clusterblast-1_h47_8_7" points="502,85 507,80 517,80 517,90 507,90 502,85 " class="clusterblast-orf"  />
<polygon style="stroke:black; stroke-width:1; fill:#FFFFFF; " description="hypothetical_protein[br]Location: 2592693 - 2594087" locus_tag="MYCGRDRAFT_45185" id="clusterblast-1_h47_8_8" points="524,85 529,80 547,80 547,90 529,90 524,85 " class="clusterblast-orf"  />
<polygon style="stroke:black; stroke-width:1; fill:#FFFFFF; " description="ABC_transporter[br]Location: 2597608 - 2601755" locus_tag="MYCGRDRAFT_100851" id="clusterblast-1_h47_8_9" points="605,90 668,90 673,85 668,80 605,80 605,90 " class="clusterblast-orf"  />
<polygon style="stroke:black; stroke-width:1; fill:rgb(190,190,190); " description="putative_P450_monooxygenase[br]Location: 2603448 - 2605040&lt;br&gt;&lt;br&gt;&lt;b&gt;BlastP hit with CHAFR746836_0033860.1&lt;/b&gt;&lt;br&gt;Percentage identity: 34%&lt;br&gt;Percentage coverage: 93%&lt;br&gt;BLAST bit score: 300&lt;br&gt;E-value: 5e-94" locus_tag="MYCGRDRAFT_45271" id="clusterblast-1_h47_8_10" points="701,90 723,90 728,85 723,80 701,80 701,90 " class="clusterblast-orf"  />
<polygon style="stroke:black; stroke-width:1; fill:#FFFFFF; " description="hypothetical_protein[br]Location: 2605773 - 2606813" locus_tag="MYCGRDRAFT_44943" id="clusterblast-1_h47_8_11" points="740,85 745,80 757,80 757,90 745,90 740,85 " class="clusterblast-orf"  />
<polygon style="stroke:black; stroke-width:1; fill:rgb(63,190,63); " description="hypothetical_protein[br]Location: 2607080 - 2608068&lt;br&gt;&lt;br&gt;&lt;b&gt;BlastP hit with CHAFR746836_0033830.1&lt;/b&gt;&lt;br&gt;Percentage identity: 43%&lt;br&gt;Percentage coverage: 99%&lt;br&gt;BLAST bit score: 247&lt;br&gt;E-value: 2e-78" locus_tag="MYCGRDRAFT_44980" id="clusterblast-1_h47_8_12" points="761,85 766,80 778,80 778,90 766,90 761,85 " class="clusterblast-orf"  />
</g>
</svg>
