<svg xmlns="http://www.w3.org/2000/svg" height="230" width="800" version="1.1" y="0" x="0" preserveAspectRatio="none" xmlns:xlink="http://www.w3.org/1999/xlink" viewBox="0 0 800 230"  >
<g class="clusterblast-cluster" label="Query sequence"  >
<text class="clusterblast-acc" y="10" x="5"  >
Query sequence</text>
<line y1="35" x2="778.0" style="stroke:grey; stroke-width:1; " x1="10" y2="35"  />
<polygon style="stroke:black; stroke-width:1; fill:#FFFFFF; " description="unannotated orf[br]Location: 3489 - 4914" locus_tag="CHAFR746836_0101380.1" class="clusterblast-orf" points="45,35 50,30 60,30 60,40 50,40 45,35 " id="clusterblast-1_q29_6_0"  />
<polygon style="stroke:black; stroke-width:1; fill:#FFFFFF; " description="unannotated orf[br]Location: 5456 - 6575" locus_tag="CHAFR746836_0101390.1" class="clusterblast-orf" points="66,35 71,30 78,30 78,40 71,40 66,35 " id="clusterblast-1_q29_6_1"  />
<polygon style="stroke:black; stroke-width:1; fill:#FFFFFF; " description="unannotated orf[br]Location: 10922 - 11634" locus_tag="CHAFR746836_0101400.1" class="clusterblast-orf" points="125,40 128,40 133,35 128,30 125,30 125,40 " id="clusterblast-1_q29_6_2"  />
<polygon style="stroke:black; stroke-width:1; fill:#FFFFFF; " description="unannotated orf[br]Location: 19756 - 21668" locus_tag="CHAFR746836_0101410.1" class="clusterblast-orf" points="222,35 227,30 243,30 243,40 227,40 222,35 " id="clusterblast-1_q29_6_3"  />
<polygon style="stroke:black; stroke-width:1; fill:#FFFFFF; " description="unannotated orf[br]Location: 22408 - 23374" locus_tag="CHAFR746836_0101420.1" class="clusterblast-orf" points="251,40 256,40 261,35 256,30 251,30 251,40 " id="clusterblast-1_q29_6_4"  />
<polygon style="stroke:black; stroke-width:1; fill:rgb(190,63,63); " description="unannotated orf[br]Location: 23890 - 24643" locus_tag="CHAFR746836_0101430.1" class="clusterblast-orf" points="267,35 272,30 275,30 275,40 272,40 267,35 " id="clusterblast-1_q29_6_5"  />
<polygon style="stroke:black; stroke-width:1; fill:rgb(63,63,190); " description="unannotated orf[br]Location: 25525 - 33031" locus_tag="CHAFR746836_0101440.1" class="clusterblast-orf" points="285,35 290,30 366,30 366,40 290,40 285,35 " id="clusterblast-1_q29_6_6"  />
<polygon style="stroke:black; stroke-width:1; fill:rgb(63,190,63); " description="unannotated orf[br]Location: 34425 - 35697" locus_tag="CHAFR746836_0101450.1" class="clusterblast-orf" points="381,40 390,40 395,35 390,30 381,30 381,40 " id="clusterblast-1_q29_6_7"  />
<polygon style="stroke:black; stroke-width:1; fill:#FFFFFF; " description="unannotated orf[br]Location: 38970 - 40379" locus_tag="CHAFR746836_0101460.1" class="clusterblast-orf" points="431,40 441,40 446,35 441,30 431,30 431,40 " id="clusterblast-1_q29_6_8"  />
<polygon style="stroke:black; stroke-width:1; fill:rgb(190,63,190); " description="unannotated orf[br]Location: 43420 - 44310" locus_tag="CHAFR746836_0101470.1" class="clusterblast-orf" points="479,40 484,40 489,35 484,30 479,30 479,40 " id="clusterblast-1_q29_6_9"  />
<polygon style="stroke:black; stroke-width:1; fill:rgb(190,190,63); " description="unannotated orf[br]Location: 45003 - 45808" locus_tag="CHAFR746836_0101480.1" class="clusterblast-orf" points="497,40 500,40 505,35 500,30 497,30 497,40 " id="clusterblast-1_q29_6_10"  />
<polygon style="stroke:black; stroke-width:1; fill:rgb(190,190,190); " description="unannotated orf[br]Location: 46298 - 48111" locus_tag="CHAFR746836_0101490.1" class="clusterblast-orf" points="511,35 516,30 531,30 531,40 516,40 511,35 " id="clusterblast-1_q29_6_11"  />
<polygon style="stroke:black; stroke-width:1; fill:#FFFFFF; " description="unannotated orf[br]Location: 48769 - 49804" locus_tag="CHAFR746836_0101500.1" class="clusterblast-orf" points="538,35 543,30 549,30 549,40 543,40 538,35 " id="clusterblast-1_q29_6_12"  />
<polygon style="stroke:black; stroke-width:1; fill:#FFFFFF; " description="unannotated orf[br]Location: 50970 - 51894" locus_tag="CHAFR746836_0101510.1" class="clusterblast-orf" points="562,40 567,40 572,35 567,30 562,30 562,40 " id="clusterblast-1_q29_6_13"  />
<polygon style="stroke:black; stroke-width:1; fill:#FFFFFF; " description="unannotated orf[br]Location: 52569 - 55191" locus_tag="CHAFR746836_0101520.1" class="clusterblast-orf" points="579,40 603,40 608,35 603,30 579,30 579,40 " id="clusterblast-1_q29_6_14"  />
<polygon style="stroke:black; stroke-width:1; fill:#FFFFFF; " description="unannotated orf[br]Location: 55978 - 57046" locus_tag="CHAFR746836_0101530.1" class="clusterblast-orf" points="616,40 623,40 628,35 623,30 616,30 616,40 " id="clusterblast-1_q29_6_15"  />
<polygon style="stroke:black; stroke-width:1; fill:#FFFFFF; " description="unannotated orf[br]Location: 58243 - 59708" locus_tag="CHAFR746836_0101540.1" class="clusterblast-orf" points="641,40 652,40 657,35 652,30 641,30 641,40 " id="clusterblast-1_q29_6_16"  />
<polygon style="stroke:black; stroke-width:1; fill:#FFFFFF; " description="unannotated orf[br]Location: 60927 - 61452" locus_tag="CHAFR746836_0101550.1" class="clusterblast-orf" points="670,35 675,30 676,30 676,40 675,40 670,35 " id="clusterblast-1_q29_6_17"  />
<polygon style="stroke:black; stroke-width:1; fill:#FFFFFF; " description="unannotated orf[br]Location: 63620 - 67540" locus_tag="CHAFR746836_0101560.1" class="clusterblast-orf" points="699,40 737,40 742,35 737,30 699,30 699,40 " id="clusterblast-1_q29_6_18"  />
</g>
<g class="clusterblast-cluster" description="Streptomyces violaceusniger Tu 4113 chromosome, complete g..." label="NC_015957.1_c16"  >
<text class="clusterblast-acc" y="60" x="5"  >
NC_015957.1_c16</text>
<text class="clusterblast-desc" y="60" x="460.8"  >
Streptomyces violaceusniger Tu 4113 chromosome, complete g...</text>
<line y1="85" x2="778.0" style="stroke:grey; stroke-width:1; " x1="10" y2="85"  />
<polygon style="stroke:black; stroke-width:1; fill:#FFFFFF; " description="hypothetical_protein[br]Location: 5311767 - 5314559" locus_tag="Strvi_4772" id="clusterblast-1_h29_6_0" points="10,85 15,80 40,80 40,90 15,90 10,85 " class="clusterblast-orf"  />
<polygon style="stroke:black; stroke-width:1; fill:#FFFFFF; " description="cytosine/purines_uracil_thiamine_allantoin[br]Location: 5310137 - 5311708" locus_tag="Strvi_4771" id="clusterblast-1_h29_6_1" points="41,85 46,80 58,80 58,90 46,90 41,85 " class="clusterblast-orf"  />
<polygon style="stroke:black; stroke-width:1; fill:#FFFFFF; " description="hypothetical_protein[br]Location: 5309713 - 5309958" locus_tag="Strvi_4770" id="clusterblast-1_h29_6_2" points="60,85 62,80 62,90 60,85 " class="clusterblast-orf"  />
<polygon style="stroke:black; stroke-width:1; fill:#FFFFFF; " description="LacI_family_transcriptional_regulator[br]Location: 5308584 - 5309555" locus_tag="Strvi_4769" id="clusterblast-1_h29_6_3" points="64,90 70,90 75,85 70,80 64,80 64,90 " class="clusterblast-orf"  />
<polygon style="stroke:black; stroke-width:1; fill:#FFFFFF; " description="hypothetical_protein[br]Location: 5307022 - 5308053" locus_tag="Strvi_4768" id="clusterblast-1_h29_6_4" points="80,90 87,90 92,85 87,80 80,80 80,90 " class="clusterblast-orf"  />
<polygon style="stroke:black; stroke-width:1; fill:#FFFFFF; " description="fumarate_reductase/succinate_dehydrogenase[br]Location: 5305680 - 5306948" locus_tag="Strvi_4767" id="clusterblast-1_h29_6_5" points="92,90 101,90 106,85 101,80 92,80 92,90 " class="clusterblast-orf"  />
<polygon style="stroke:black; stroke-width:1; fill:#FFFFFF; " description="major_facilitator_superfamily_protein[br]Location: 5304167 - 5305564" locus_tag="Strvi_4766" id="clusterblast-1_h29_6_6" points="107,90 118,90 123,85 118,80 107,80 107,90 " class="clusterblast-orf"  />
<polygon style="stroke:black; stroke-width:1; fill:#FFFFFF; " description="FAD-binding_molybdopterin_dehydrogenase[br]Location: 5303255 - 5304103" locus_tag="Strvi_4765" id="clusterblast-1_h29_6_7" points="123,90 128,90 133,85 128,80 123,80 123,90 " class="clusterblast-orf"  />
<polygon style="stroke:black; stroke-width:1; fill:#FFFFFF; " description="aldehyde_oxidase[br]Location: 5300886 - 5303258" locus_tag="Strvi_4764" id="clusterblast-1_h29_6_8" points="133,90 153,90 158,85 153,80 133,80 133,90 " class="clusterblast-orf"  />
<polygon style="stroke:black; stroke-width:1; fill:#FFFFFF; " description="(2Fe-2S)-binding_protein[br]Location: 5300356 - 5300889" locus_tag="Strvi_4763" id="clusterblast-1_h29_6_9" points="158,90 159,90 164,85 159,80 158,80 158,90 " class="clusterblast-orf"  />
<polygon style="stroke:black; stroke-width:1; fill:#FFFFFF; " description="carbon_monoxide_dehydrogenase_subunit_G[br]Location: 5299645 - 5300352" locus_tag="Strvi_4762" id="clusterblast-1_h29_6_10" points="164,90 167,90 172,85 167,80 164,80 164,90 " class="clusterblast-orf"  />
<polygon style="stroke:black; stroke-width:1; fill:#FFFFFF; " description="isochorismatase_hydrolase[br]Location: 5298986 - 5299648" locus_tag="Strvi_4761" id="clusterblast-1_h29_6_11" points="172,90 174,90 179,85 174,80 172,80 172,90 " class="clusterblast-orf"  />
<polygon style="stroke:black; stroke-width:1; fill:#FFFFFF; " description="alpha/beta_hydrolase[br]Location: 5298088 - 5298948" locus_tag="Strvi_4760" id="clusterblast-1_h29_6_12" points="180,90 184,90 189,85 184,80 180,80 180,90 " class="clusterblast-orf"  />
<polygon style="stroke:black; stroke-width:1; fill:#FFFFFF; " description="MarR_family_transcriptional_regulator[br]Location: 5297531 - 5298013" locus_tag="Strvi_4759" id="clusterblast-1_h29_6_13" points="190,90 190,90 195,85 190,80 190,80 190,90 " class="clusterblast-orf"  />
<polygon style="stroke:black; stroke-width:1; fill:#FFFFFF; " description="Asp/Glu/hydantoin_racemase[br]Location: 5296671 - 5297450" locus_tag="Strvi_4758" id="clusterblast-1_h29_6_14" points="196,90 199,90 204,85 199,80 196,80 196,90 " class="clusterblast-orf"  />
<polygon style="stroke:black; stroke-width:1; fill:#FFFFFF; " description="polyketide_cyclase/dehydrase[br]Location: 5296060 - 5296569" locus_tag="Strvi_4757" id="clusterblast-1_h29_6_15" points="205,85 210,80 211,80 211,90 210,90 205,85 " class="clusterblast-orf"  />
<polygon style="stroke:black; stroke-width:1; fill:#FFFFFF; " description="helix-turn-helix_domain-containing_protein[br]Location: 5295009 - 5295920" locus_tag="Strvi_4756" id="clusterblast-1_h29_6_16" points="213,90 217,90 222,85 217,80 213,80 213,90 " class="clusterblast-orf"  />
<polygon style="stroke:black; stroke-width:1; fill:#FFFFFF; " description="hypothetical_protein[br]Location: 5293852 - 5294817" locus_tag="Strvi_4755" id="clusterblast-1_h29_6_17" points="225,90 230,90 235,85 230,80 225,80 225,90 " class="clusterblast-orf"  />
<polygon style="stroke:black; stroke-width:1; fill:#FFFFFF; " description="carbamoyl-phosphate_synthase_L_chain_ATP-binding[br]Location: 5292352 - 5293656" locus_tag="Strvi_4754" id="clusterblast-1_h29_6_18" points="237,85 242,80 251,80 251,90 242,90 237,85 " class="clusterblast-orf"  />
<polygon style="stroke:black; stroke-width:1; fill:#FFFFFF; " description="beta-ketoacyl_synthase[br]Location: 5281142 - 5292355" locus_tag="Strvi_4753" id="clusterblast-1_h29_6_19" points="251,85 256,80 373,80 373,90 256,90 251,85 " class="clusterblast-orf"  />
<polygon style="stroke:black; stroke-width:1; fill:rgb(63,63,190); " description="beta-ketoacyl_synthase[br]Location: 5274894 - 5281109&lt;br&gt;&lt;br&gt;&lt;b&gt;BlastP hit with CHAFR746836_0101440.1&lt;/b&gt;&lt;br&gt;Percentage identity: 32%&lt;br&gt;Percentage coverage: 39%&lt;br&gt;BLAST bit score: 430&lt;br&gt;E-value: 1e-120" locus_tag="Strvi_4752" id="clusterblast-1_h29_6_20" points="374,85 379,80 442,80 442,90 379,90 374,85 " class="clusterblast-orf"  />
<polygon style="stroke:black; stroke-width:1; fill:#FFFFFF; " description="TetR_family_transcriptional_regulator[br]Location: 5273557 - 5274168" locus_tag="Strvi_4750" id="clusterblast-1_h29_6_21" points="449,85 454,80 456,80 456,90 454,90 449,85 " class="clusterblast-orf"  />
<polygon style="stroke:black; stroke-width:1; fill:#FFFFFF; " description="alkyl_hydroperoxide_reductase[br]Location: 5272778 - 5273446" locus_tag="Strvi_4749" id="clusterblast-1_h29_6_22" points="457,90 460,90 465,85 460,80 457,80 457,90 " class="clusterblast-orf"  />
<polygon style="stroke:black; stroke-width:1; fill:#FFFFFF; " description="amino_acid_adenylation_protein[br]Location: 5264455 - 5271696" locus_tag="Strvi_4748" id="clusterblast-1_h29_6_23" points="476,90 550,90 555,85 550,80 476,80 476,90 " class="clusterblast-orf"  />
<polygon style="stroke:black; stroke-width:1; fill:#FFFFFF; " description="condensation_domain-containing_protein[br]Location: 5263247 - 5264497" locus_tag="Strvi_4747" id="clusterblast-1_h29_6_24" points="555,90 563,90 568,85 563,80 555,80 555,90 " class="clusterblast-orf"  />
<polygon style="stroke:black; stroke-width:1; fill:#FFFFFF; " description="hypothetical_protein[br]Location: 5262686 - 5262970" locus_tag="Strvi_4746" id="clusterblast-1_h29_6_25" points="571,85 574,80 574,90 571,85 " class="clusterblast-orf"  />
<polygon style="stroke:black; stroke-width:1; fill:#FFFFFF; " description="DNA_repair_protein[br]Location: 5261706 - 5262599" locus_tag="Strvi_4745" id="clusterblast-1_h29_6_26" points="575,85 580,80 585,80 585,90 580,90 575,85 " class="clusterblast-orf"  />
<polygon style="stroke:black; stroke-width:1; fill:#FFFFFF; " description="hypothetical_protein[br]Location: 5261133 - 5261552" locus_tag="Strvi_4744" id="clusterblast-1_h29_6_27" points="587,90 591,85 587,80 587,90 " class="clusterblast-orf"  />
<polygon style="stroke:black; stroke-width:1; fill:#FFFFFF; " description="UDP-N-acetylmuramoyl-L-alanyl-D-glutamate--2,[br]Location: 5257720 - 5259198" locus_tag="Strvi_4740" id="clusterblast-1_h29_6_28" points="612,90 624,90 629,85 624,80 612,80 612,90 " class="clusterblast-orf"  />
<polygon style="stroke:black; stroke-width:1; fill:#FFFFFF; " description="peptidase_alpha-lytic_pro_domain-containing[br]Location: 5255345 - 5256469" locus_tag="Strvi_4738" id="clusterblast-1_h29_6_29" points="642,90 649,90 654,85 649,80 642,80 642,90 " class="clusterblast-orf"  />
<polygon style="stroke:black; stroke-width:1; fill:#FFFFFF; " description="transposase[br]Location: 5254262 - 5255296" locus_tag="Strvi_4737" id="clusterblast-1_h29_6_30" points="655,90 661,90 666,85 661,80 655,80 655,90 " class="clusterblast-orf"  />
<polygon style="stroke:black; stroke-width:1; fill:#FFFFFF; " description="MarR_family_transcriptional_regulator[br]Location: 5253452 - 5253997" locus_tag="Strvi_4736" id="clusterblast-1_h29_6_31" points="669,90 670,90 675,85 670,80 669,80 669,90 " class="clusterblast-orf"  />
<polygon style="stroke:black; stroke-width:1; fill:#FFFFFF; " description="short-chain_dehydrogenase/reductase_SDR[br]Location: 5252545 - 5253426" locus_tag="Strvi_4735" id="clusterblast-1_h29_6_32" points="675,90 680,90 685,85 680,80 675,80 675,90 " class="clusterblast-orf"  />
<polygon style="stroke:black; stroke-width:1; fill:rgb(190,63,63); " description="short-chain_dehydrogenase/reductase_SDR[br]Location: 5249938 - 5250783&lt;br&gt;&lt;br&gt;&lt;b&gt;BlastP hit with CHAFR746836_0101430.1&lt;/b&gt;&lt;br&gt;Percentage identity: 31%&lt;br&gt;Percentage coverage: 81%&lt;br&gt;BLAST bit score: 73&lt;br&gt;E-value: 2e-14&lt;br&gt;&lt;br&gt;&lt;b&gt;BlastP hit with CHAFR746836_0101450.1&lt;/b&gt;&lt;br&gt;Percentage identity: 36%&lt;br&gt;Percentage coverage: 50%&lt;br&gt;BLAST bit score: 58&lt;br&gt;E-value: 2e-09" locus_tag="Strvi_4732" id="clusterblast-1_h29_6_33" points="704,85 709,80 713,80 713,90 709,90 704,85 " class="clusterblast-orf"  />
<polygon style="stroke:black; stroke-width:1; fill:#FFFFFF; " description="LysR_family_transcriptional_regulator[br]Location: 5248916 - 5249830" locus_tag="Strvi_4731" id="clusterblast-1_h29_6_34" points="715,90 719,90 724,85 719,80 715,80 715,90 " class="clusterblast-orf"  />
<polygon style="stroke:black; stroke-width:1; fill:#FFFFFF; " description="hypothetical_protein[br]Location: 5248162 - 5248902" locus_tag="Strvi_4730" id="clusterblast-1_h29_6_35" points="725,90 728,90 733,85 728,80 725,80 725,90 " class="clusterblast-orf"  />
<polygon style="stroke:black; stroke-width:1; fill:#FFFFFF; " description="transposase_IS200-family_protein[br]Location: 5247737 - 5248153" locus_tag="Strvi_4729" id="clusterblast-1_h29_6_36" points="733,85 737,80 737,90 733,85 " class="clusterblast-orf"  />
<polygon style="stroke:black; stroke-width:1; fill:#FFFFFF; " description="transposase,_IS605_OrfB_family[br]Location: 5246359 - 5247708" locus_tag="Strvi_4728" id="clusterblast-1_h29_6_37" points="738,90 747,90 752,85 747,80 738,80 738,90 " class="clusterblast-orf"  />
<polygon style="stroke:black; stroke-width:1; fill:rgb(190,190,190); " description="amino_acid_adenylation_protein[br]Location: 5244048 - 5246384&lt;br&gt;&lt;br&gt;&lt;b&gt;BlastP hit with CHAFR746836_0101490.1&lt;/b&gt;&lt;br&gt;Percentage identity: 31%&lt;br&gt;Percentage coverage: 24%&lt;br&gt;BLAST bit score: 61&lt;br&gt;E-value: 2e-08" locus_tag="Strvi_4727" id="clusterblast-1_h29_6_38" points="752,90 773,90 778,85 773,80 752,80 752,90 " class="clusterblast-orf"  />
</g>
</svg>
