<svg xmlns="http://www.w3.org/2000/svg" height="230" width="800" version="1.1" y="0" x="0" preserveAspectRatio="none" xmlns:xlink="http://www.w3.org/1999/xlink" viewBox="0 0 800 230"  >
<g class="clusterblast-cluster" label="Query sequence"  >
<text class="clusterblast-acc" y="10" x="5"  >
Query sequence</text>
<line y1="35" x2="778.0" style="stroke:grey; stroke-width:1; " x1="10" y2="35"  />
<polygon style="stroke:black; stroke-width:1; fill:#FFFFFF; " description="unannotated orf[br]Location: 690 - 1709" locus_tag="CHAFR746836_0063040.1" class="clusterblast-orf" points="177,35 182,30 188,30 188,40 182,40 177,35 " id="clusterblast-1_q6_3_0"  />
<polygon style="stroke:black; stroke-width:1; fill:red; " description="unannotated orf[br]Location: 3270 - 4522" locus_tag="CHAFR746836_0063050.1" class="clusterblast-orf" points="205,35 210,30 219,30 219,40 210,40 205,35 " id="clusterblast-1_q6_3_1"  />
<polygon style="stroke:black; stroke-width:1; fill:green; " description="unannotated orf[br]Location: 3270 - 4522" locus_tag="CHAFR746836_0063050.2" class="clusterblast-orf" points="205,35 210,30 219,30 219,40 210,40 205,35 " id="clusterblast-1_q6_3_2"  />
<polygon style="stroke:black; stroke-width:1; fill:#FFFFFF; " description="unannotated orf[br]Location: 14176 - 16017" locus_tag="CHAFR746836_0063060.1" class="clusterblast-orf" points="324,40 340,40 345,35 340,30 324,30 324,40 " id="clusterblast-1_q6_3_3"  />
<polygon style="stroke:black; stroke-width:1; fill:#FFFFFF; " description="unannotated orf[br]Location: 20821 - 21679" locus_tag="CHAFR746836_0063070.1" class="clusterblast-orf" points="397,35 402,30 407,30 407,40 402,40 397,35 " id="clusterblast-1_q6_3_4"  />
<polygon style="stroke:black; stroke-width:1; fill:blue; " description="unannotated orf[br]Location: 23739 - 34194" locus_tag="CHAFR746836_0063080.1" class="clusterblast-orf" points="429,35 434,30 544,30 544,40 434,40 429,35 " id="clusterblast-1_q6_3_5"  />
<polygon style="stroke:black; stroke-width:1; fill:yellow; " description="unannotated orf[br]Location: 38501 - 40231" locus_tag="CHAFR746836_0063090.1" class="clusterblast-orf" points="591,40 605,40 610,35 605,30 591,30 591,40 " id="clusterblast-1_q6_3_6"  />
</g>
<g class="clusterblast-cluster" description="Amycolatopsis mediterranei U32 chromosome, complete genome." label="NC_014318.1_c22"  >
<text class="clusterblast-acc" y="60" x="5"  >
NC_014318.1_c22</text>
<text class="clusterblast-desc" y="60" x="460.8"  >
Amycolatopsis mediterranei U32 chromosome, complete genome.</text>
<line y1="85" x2="778.0" style="stroke:grey; stroke-width:1; " x1="10" y2="85"  />
<polygon style="stroke:black; stroke-width:1; fill:#FFFFFF; " description="IclR_family_transcriptional_regulator[br]Location: 6865711 - 6866526" locus_tag="AMED_6211" id="clusterblast-1_h6_3_0" points="10,90 13,90 18,85 13,80 10,80 10,90 " class="clusterblast-orf"  />
<polygon style="stroke:black; stroke-width:1; fill:#FFFFFF; " description="microsomal_epoxide_hydrolase[br]Location: 6866577 - 6867698" locus_tag="AMED_6212" id="clusterblast-1_h6_3_1" points="19,90 26,90 31,85 26,80 19,80 19,90 " class="clusterblast-orf"  />
<polygon style="stroke:black; stroke-width:1; fill:#FFFFFF; " description="XRE_family_transcriptional_regulator[br]Location: 6867723 - 6868517" locus_tag="AMED_6213" id="clusterblast-1_h6_3_2" points="32,85 37,80 40,80 40,90 37,90 32,85 " class="clusterblast-orf"  />
<polygon style="stroke:black; stroke-width:1; fill:#FFFFFF; " description="hypothetical_protein[br]Location: 6868510 - 6869079" locus_tag="AMED_6214" id="clusterblast-1_h6_3_3" points="40,85 45,80 46,80 46,90 45,90 40,85 " class="clusterblast-orf"  />
<polygon style="stroke:black; stroke-width:1; fill:#FFFFFF; " description="hypothetical_protein[br]Location: 6869174 - 6869869" locus_tag="AMED_6215" id="clusterblast-1_h6_3_4" points="47,85 52,80 55,80 55,90 52,90 47,85 " class="clusterblast-orf"  />
<polygon style="stroke:black; stroke-width:1; fill:#FFFFFF; " description="AraC_family_transcriptional_regulator[br]Location: 6869948 - 6870883" locus_tag="AMED_6216" id="clusterblast-1_h6_3_5" points="56,85 61,80 66,80 66,90 61,90 56,85 " class="clusterblast-orf"  />
<polygon style="stroke:black; stroke-width:1; fill:#FFFFFF; " description="epocide_hydrolase_domain-containing_protein[br]Location: 6870937 - 6872052" locus_tag="AMED_6217" id="clusterblast-1_h6_3_6" points="67,85 72,80 79,80 79,90 72,90 67,85 " class="clusterblast-orf"  />
<polygon style="stroke:black; stroke-width:1; fill:#FFFFFF; " description="TetR_family_transcriptional_regulator[br]Location: 6872057 - 6872680" locus_tag="AMED_6218" id="clusterblast-1_h6_3_7" points="79,85 84,80 86,80 86,90 84,90 79,85 " class="clusterblast-orf"  />
<polygon style="stroke:black; stroke-width:1; fill:red; " description="short-chain_dehydrogenase/reductase[br]Location: 6872625 - 6873581&lt;br&gt;&lt;br&gt;&lt;b&gt;BlastP hit with CHAFR746836_0063050.1&lt;/b&gt;&lt;br&gt;Percentage identity: 34%&lt;br&gt;Percentage coverage: 41%&lt;br&gt;BLAST bit score: 60&lt;br&gt;E-value: 4e-09&lt;br&gt;&lt;br&gt;&lt;b&gt;BlastP hit with CHAFR746836_0063050.2&lt;/b&gt;&lt;br&gt;Percentage identity: 34%&lt;br&gt;Percentage coverage: 46%&lt;br&gt;BLAST bit score: 60&lt;br&gt;E-value: 3e-09" locus_tag="AMED_6219" id="clusterblast-1_h6_3_8" points="85,85 90,80 96,80 96,90 90,90 85,85 " class="clusterblast-orf"  />
<polygon style="stroke:black; stroke-width:1; fill:#FFFFFF; " description="XRE_family_transcriptional_regulator[br]Location: 6873682 - 6874542" locus_tag="AMED_6220" id="clusterblast-1_h6_3_9" points="97,90 101,90 106,85 101,80 97,80 97,90 " class="clusterblast-orf"  />
<polygon style="stroke:black; stroke-width:1; fill:#FFFFFF; " description="hypothetical_protein[br]Location: 6874886 - 6875083" locus_tag="AMED_6221" id="clusterblast-1_h6_3_10" points="110,90 112,85 110,80 110,90 " class="clusterblast-orf"  />
<polygon style="stroke:black; stroke-width:1; fill:#FFFFFF; " description="hypothetical_protein[br]Location: 6875271 - 6876056" locus_tag="AMED_6222" id="clusterblast-1_h6_3_11" points="114,90 118,90 123,85 118,80 114,80 114,90 " class="clusterblast-orf"  />
<polygon style="stroke:black; stroke-width:1; fill:#FFFFFF; " description="RNA_polymerase_sigma_factor[br]Location: 6876145 - 6876966" locus_tag="AMED_6223" id="clusterblast-1_h6_3_12" points="124,90 128,90 133,85 128,80 124,80 124,90 " class="clusterblast-orf"  />
<polygon style="stroke:black; stroke-width:1; fill:#FFFFFF; " description="two-component_system_histidine_kinase[br]Location: 6877069 - 6877497" locus_tag="AMED_6224" id="clusterblast-1_h6_3_13" points="134,90 134,90 139,85 134,80 134,80 134,90 " class="clusterblast-orf"  />
<polygon style="stroke:black; stroke-width:1; fill:#FFFFFF; " description="aminopeptidase[br]Location: 6877525 - 6879885" locus_tag="AMED_6225" id="clusterblast-1_h6_3_14" points="139,85 144,80 165,80 165,90 144,90 139,85 " class="clusterblast-orf"  />
<polygon style="stroke:black; stroke-width:1; fill:#FFFFFF; " description="ornithine_cyclodeaminase[br]Location: 6879905 - 6880945" locus_tag="AMED_6226" id="clusterblast-1_h6_3_15" points="165,85 170,80 177,80 177,90 170,90 165,85 " class="clusterblast-orf"  />
<polygon style="stroke:black; stroke-width:1; fill:#FFFFFF; " description="cysteine_synthase[br]Location: 6880942 - 6881934" locus_tag="AMED_6227" id="clusterblast-1_h6_3_16" points="177,85 182,80 187,80 187,90 182,90 177,85 " class="clusterblast-orf"  />
<polygon style="stroke:black; stroke-width:1; fill:#FFFFFF; " description="condensation_domain-containing_protein_involved[br]Location: 6881931 - 6883322" locus_tag="AMED_6228" id="clusterblast-1_h6_3_17" points="187,85 192,80 203,80 203,90 192,90 187,85 " class="clusterblast-orf"  />
<polygon style="stroke:black; stroke-width:1; fill:#FFFFFF; " description="thioesterase_involved_in_non-ribosomal_peptide[br]Location: 6883326 - 6884087" locus_tag="AMED_6229" id="clusterblast-1_h6_3_18" points="203,85 208,80 211,80 211,90 208,90 203,85 " class="clusterblast-orf"  />
<polygon style="stroke:black; stroke-width:1; fill:#FFFFFF; " description="condensation_domain-containing_protein_involved[br]Location: 6884084 - 6885751" locus_tag="AMED_6230" id="clusterblast-1_h6_3_19" points="211,85 216,80 229,80 229,90 216,90 211,85 " class="clusterblast-orf"  />
<polygon style="stroke:black; stroke-width:1; fill:#FFFFFF; " description="condensation_domain-containing_protein_involved[br]Location: 6885748 - 6890061" locus_tag="AMED_6231" id="clusterblast-1_h6_3_20" points="229,85 234,80 277,80 277,90 234,90 229,85 " class="clusterblast-orf"  />
<polygon style="stroke:black; stroke-width:1; fill:blue; " description="amino_acid_adenylation_domain-containing[br]Location: 6890390 - 6891916&lt;br&gt;&lt;br&gt;&lt;b&gt;BlastP hit with CHAFR746836_0063080.1&lt;/b&gt;&lt;br&gt;Percentage identity: 32%&lt;br&gt;Percentage coverage: 13%&lt;br&gt;BLAST bit score: 190&lt;br&gt;E-value: 6e-49" locus_tag="AMED_6232" id="clusterblast-1_h6_3_21" points="280,90 292,90 297,85 292,80 280,80 280,90 " class="clusterblast-orf"  />
<polygon style="stroke:black; stroke-width:1; fill:#FFFFFF; " description="major_facilitator_transporter[br]Location: 6891913 - 6893136" locus_tag="AMED_6233" id="clusterblast-1_h6_3_22" points="297,90 305,90 310,85 305,80 297,80 297,90 " class="clusterblast-orf"  />
<polygon style="stroke:black; stroke-width:1; fill:blue; " description="amino_acid_adenylation_and_condensation[br]Location: 6893215 - 6896304&lt;br&gt;&lt;br&gt;&lt;b&gt;BlastP hit with CHAFR746836_0063080.1&lt;/b&gt;&lt;br&gt;Percentage identity: 31%&lt;br&gt;Percentage coverage: 13%&lt;br&gt;BLAST bit score: 157&lt;br&gt;E-value: 4e-37" locus_tag="AMED_6234" id="clusterblast-1_h6_3_23" points="311,90 340,90 345,85 340,80 311,80 311,90 " class="clusterblast-orf"  />
<polygon style="stroke:black; stroke-width:1; fill:#FFFFFF; " description="hypothetical_protein[br]Location: 6896309 - 6897703" locus_tag="AMED_6235" id="clusterblast-1_h6_3_24" points="345,85 350,80 360,80 360,90 350,90 345,85 " class="clusterblast-orf"  />
<polygon style="stroke:black; stroke-width:1; fill:#FFFFFF; " description="MbtH_protein[br]Location: 6897700 - 6897918" locus_tag="AMED_6236" id="clusterblast-1_h6_3_25" points="360,85 363,80 363,90 360,85 " class="clusterblast-orf"  />
<polygon style="stroke:black; stroke-width:1; fill:#FFFFFF; " description="non-ribosomal_peptide_synthetase[br]Location: 6897911 - 6903007" locus_tag="AMED_6237" id="clusterblast-1_h6_3_26" points="363,85 368,80 419,80 419,90 368,90 363,85 " class="clusterblast-orf"  />
<polygon style="stroke:black; stroke-width:1; fill:#FFFFFF; " description="cytochrome_P450[br]Location: 6903004 - 6904260" locus_tag="AMED_6238" id="clusterblast-1_h6_3_27" points="419,85 424,80 432,80 432,90 424,90 419,85 " class="clusterblast-orf"  />
<polygon style="stroke:black; stroke-width:1; fill:#FFFFFF; " description="hypothetical_protein[br]Location: 6904395 - 6905138" locus_tag="AMED_6239" id="clusterblast-1_h6_3_28" points="434,85 439,80 442,80 442,90 439,90 434,85 " class="clusterblast-orf"  />
<polygon style="stroke:black; stroke-width:1; fill:#FFFFFF; " description="glycine_amidinotransferase[br]Location: 6905245 - 6906375" locus_tag="AMED_6240" id="clusterblast-1_h6_3_29" points="443,90 451,90 456,85 451,80 443,80 443,90 " class="clusterblast-orf"  />
<polygon style="stroke:black; stroke-width:1; fill:blue; " description="amino_acid_adenylation_and_esterase[br]Location: 6906431 - 6909466&lt;br&gt;&lt;br&gt;&lt;b&gt;BlastP hit with CHAFR746836_0063080.1&lt;/b&gt;&lt;br&gt;Percentage identity: 33%&lt;br&gt;Percentage coverage: 14%&lt;br&gt;BLAST bit score: 206&lt;br&gt;E-value: 2e-52" locus_tag="AMED_6241" id="clusterblast-1_h6_3_30" points="456,85 461,80 489,80 489,90 461,90 456,85 " class="clusterblast-orf"  />
<polygon style="stroke:black; stroke-width:1; fill:#FFFFFF; " description="non-ribosomal_peptide_synthetase[br]Location: 6909463 - 6912813" locus_tag="AMED_6242" id="clusterblast-1_h6_3_31" points="489,85 494,80 526,80 526,90 494,90 489,85 " class="clusterblast-orf"  />
<polygon style="stroke:black; stroke-width:1; fill:blue; " description="amino_acid_adenylation_domain-containing[br]Location: 6913031 - 6915358&lt;br&gt;&lt;br&gt;&lt;b&gt;BlastP hit with CHAFR746836_0063080.1&lt;/b&gt;&lt;br&gt;Percentage identity: 31%&lt;br&gt;Percentage coverage: 16%&lt;br&gt;BLAST bit score: 189&lt;br&gt;E-value: 2e-47" locus_tag="AMED_6243" id="clusterblast-1_h6_3_32" points="529,90 549,90 554,85 549,80 529,80 529,90 " class="clusterblast-orf"  />
<polygon style="stroke:black; stroke-width:1; fill:#FFFFFF; " description="LuxR_family_transcriptional_regulator_fused_with[br]Location: 6915537 - 6917852" locus_tag="AMED_6244" id="clusterblast-1_h6_3_33" points="556,90 576,90 581,85 576,80 556,80 556,90 " class="clusterblast-orf"  />
<polygon style="stroke:black; stroke-width:1; fill:#FFFFFF; " description="LysR_family_transcriptional_regulator[br]Location: 6917857 - 6918753" locus_tag="AMED_6245" id="clusterblast-1_h6_3_34" points="582,85 587,80 591,80 591,90 587,90 582,85 " class="clusterblast-orf"  />
<polygon style="stroke:black; stroke-width:1; fill:#FFFFFF; " description="hypothetical_protein[br]Location: 6918799 - 6919335" locus_tag="AMED_6246" id="clusterblast-1_h6_3_35" points="592,85 597,80 598,80 598,90 597,90 592,85 " class="clusterblast-orf"  />
<polygon style="stroke:black; stroke-width:1; fill:#FFFFFF; " description="major_facilitator_transporter[br]Location: 6919414 - 6920583" locus_tag="AMED_6247" id="clusterblast-1_h6_3_36" points="599,90 606,90 611,85 606,80 599,80 599,90 " class="clusterblast-orf"  />
<polygon style="stroke:black; stroke-width:1; fill:#FFFFFF; " description="nucleotide-diphosphate-sugar_epimerase/NmrA[br]Location: 6920580 - 6921410" locus_tag="AMED_6248" id="clusterblast-1_h6_3_37" points="611,85 616,80 620,80 620,90 616,90 611,85 " class="clusterblast-orf"  />
<polygon style="stroke:black; stroke-width:1; fill:#FFFFFF; " description="cell_division_protein_FtsQ[br]Location: 6921488 - 6922327" locus_tag="AMED_6249" id="clusterblast-1_h6_3_38" points="621,85 626,80 631,80 631,90 626,90 621,85 " class="clusterblast-orf"  />
<polygon style="stroke:black; stroke-width:1; fill:#FFFFFF; " description="UDP-N-acetylmuramate--alanine_ligase[br]Location: 6922332 - 6923729" locus_tag="AMED_6250" id="clusterblast-1_h6_3_39" points="631,85 636,80 646,80 646,90 636,90 631,85 " class="clusterblast-orf"  />
<polygon style="stroke:black; stroke-width:1; fill:#FFFFFF; " description="UDP-N-acetylglucosamine--N-acetylmuramyl-[br]Location: 6923722 - 6924846" locus_tag="AMED_6251" id="clusterblast-1_h6_3_40" points="646,85 651,80 658,80 658,90 651,90 646,85 " class="clusterblast-orf"  />
<polygon style="stroke:black; stroke-width:1; fill:#FFFFFF; " description="cell_division_protein_FtsW[br]Location: 6924843 - 6926354" locus_tag="AMED_6252" id="clusterblast-1_h6_3_41" points="658,85 663,80 675,80 675,90 663,90 658,85 " class="clusterblast-orf"  />
<polygon style="stroke:black; stroke-width:1; fill:#FFFFFF; " description="UDP-N-acetylmuramoylalanine--D-glutamate_ligase[br]Location: 6926341 - 6927750" locus_tag="AMED_6253" id="clusterblast-1_h6_3_42" points="675,85 680,80 690,80 690,90 680,90 675,85 " class="clusterblast-orf"  />
<polygon style="stroke:black; stroke-width:1; fill:#FFFFFF; " description="phospho-N-acetylmuramoyl-pentapeptide-[br]Location: 6927752 - 6928834" locus_tag="AMED_6254" id="clusterblast-1_h6_3_43" points="690,85 695,80 702,80 702,90 695,90 690,85 " class="clusterblast-orf"  />
<polygon style="stroke:black; stroke-width:1; fill:#FFFFFF; " description="UDP-N-acetylmuramoylalanyl-D-glutamyl-2,[br]Location: 6928831 - 6930333" locus_tag="AMED_6255" id="clusterblast-1_h6_3_44" points="702,85 707,80 718,80 718,90 707,90 702,85 " class="clusterblast-orf"  />
<polygon style="stroke:black; stroke-width:1; fill:#FFFFFF; " description="UDP-N-acetylmuramoylalanyl-D-glutamate--2,[br]Location: 6930330 - 6931874" locus_tag="AMED_6256" id="clusterblast-1_h6_3_45" points="718,85 723,80 735,80 735,90 723,90 718,85 " class="clusterblast-orf"  />
<polygon style="stroke:black; stroke-width:1; fill:#FFFFFF; " description="cell_division_protein_FtsI[br]Location: 6932117 - 6934045" locus_tag="AMED_6258" id="clusterblast-1_h6_3_46" points="738,85 743,80 759,80 759,90 743,90 738,85 " class="clusterblast-orf"  />
<polygon style="stroke:black; stroke-width:1; fill:#FFFFFF; " description="hypothetical_protein[br]Location: 6934042 - 6934773" locus_tag="AMED_6259" id="clusterblast-1_h6_3_47" points="759,85 764,80 767,80 767,90 764,90 759,85 " class="clusterblast-orf"  />
<polygon style="stroke:black; stroke-width:1; fill:#FFFFFF; " description="S-adenosyl-methyltransferase[br]Location: 6934770 - 6935723" locus_tag="AMED_6260" id="clusterblast-1_h6_3_48" points="767,85 772,80 778,80 778,90 772,90 767,85 " class="clusterblast-orf"  />
</g>
</svg>
