<svg xmlns="http://www.w3.org/2000/svg" height="230" width="800" version="1.1" y="0" x="0" preserveAspectRatio="none" xmlns:xlink="http://www.w3.org/1999/xlink" viewBox="0 0 800 230"  >
<g class="clusterblast-cluster" label="Query sequence"  >
<text class="clusterblast-acc" y="10" x="5"  >
Query sequence</text>
<line y1="35" x2="778.0" style="stroke:grey; stroke-width:1; " x1="10" y2="35"  />
<polygon style="stroke:black; stroke-width:1; fill:rgb(190,63,63); " description="unannotated orf[br]Location: 1171 - 2581" locus_tag="CHAFR746836_0090890.1" class="clusterblast-orf" points="10,35 15,30 21,30 21,40 15,40 10,35 " id="clusterblast-1_q24_3_0"  />
<polygon style="stroke:black; stroke-width:1; fill:#FFFFFF; " description="unannotated orf[br]Location: 3903 - 4681" locus_tag="CHAFR746836_0090900.1" class="clusterblast-orf" points="31,35 36,30 37,30 37,40 36,40 31,35 " id="clusterblast-1_q24_3_1"  />
<polygon style="stroke:black; stroke-width:1; fill:#FFFFFF; " description="unannotated orf[br]Location: 5272 - 5519" locus_tag="CHAFR746836_0090910.1" class="clusterblast-orf" points="42,40 44,35 42,30 42,40 " id="clusterblast-1_q24_3_2"  />
<polygon style="stroke:black; stroke-width:1; fill:#FFFFFF; " description="unannotated orf[br]Location: 14494 - 15565" locus_tag="CHAFR746836_0090920.1" class="clusterblast-orf" points="115,35 120,30 124,30 124,40 120,40 115,35 " id="clusterblast-1_q24_3_3"  />
<polygon style="stroke:black; stroke-width:1; fill:rgb(63,63,190); " description="unannotated orf[br]Location: 17145 - 18525" locus_tag="CHAFR746836_0090930.1" class="clusterblast-orf" points="136,40 142,40 147,35 142,30 136,30 136,40 " id="clusterblast-1_q24_3_4"  />
<polygon style="stroke:black; stroke-width:1; fill:#FFFFFF; " description="unannotated orf[br]Location: 28799 - 30524" locus_tag="CHAFR746836_0090940.1" class="clusterblast-orf" points="229,40 238,40 243,35 238,30 229,30 229,40 " id="clusterblast-1_q24_3_5"  />
<polygon style="stroke:black; stroke-width:1; fill:#FFFFFF; " description="unannotated orf[br]Location: 41424 - 43262" locus_tag="CHAFR746836_0090950.1" class="clusterblast-orf" points="329,35 334,30 344,30 344,40 334,40 329,35 " id="clusterblast-1_q24_3_6"  />
<polygon style="stroke:black; stroke-width:1; fill:#FFFFFF; " description="unannotated orf[br]Location: 43541 - 44533" locus_tag="CHAFR746836_0090960.1" class="clusterblast-orf" points="346,40 349,40 354,35 349,30 346,30 346,40 " id="clusterblast-1_q24_3_7"  />
<polygon style="stroke:black; stroke-width:1; fill:#FFFFFF; " description="unannotated orf[br]Location: 44819 - 46174" locus_tag="CHAFR746836_0090970.1" class="clusterblast-orf" points="356,35 361,30 367,30 367,40 361,40 356,35 " id="clusterblast-1_q24_3_8"  />
<polygon style="stroke:black; stroke-width:1; fill:#FFFFFF; " description="unannotated orf[br]Location: 46942 - 48495" locus_tag="CHAFR746836_0090980.1" class="clusterblast-orf" points="373,40 380,40 385,35 380,30 373,30 373,40 " id="clusterblast-1_q24_3_9"  />
<polygon style="stroke:black; stroke-width:1; fill:#FFFFFF; " description="unannotated orf[br]Location: 49208 - 50194" locus_tag="CHAFR746836_0090990.1" class="clusterblast-orf" points="391,40 394,40 399,35 394,30 391,30 391,40 " id="clusterblast-1_q24_3_10"  />
<polygon style="stroke:black; stroke-width:1; fill:rgb(63,190,63); " description="unannotated orf[br]Location: 51690 - 53335" locus_tag="CHAFR746836_0091000.1" class="clusterblast-orf" points="411,40 419,40 424,35 419,30 411,30 411,40 " id="clusterblast-1_q24_3_11"  />
<polygon style="stroke:black; stroke-width:1; fill:rgb(190,63,190); " description="unannotated orf[br]Location: 57952 - 59410" locus_tag="CHAFR746836_0091010.1" class="clusterblast-orf" points="460,40 467,40 472,35 467,30 460,30 460,40 " id="clusterblast-1_q24_3_12"  />
<polygon style="stroke:black; stroke-width:1; fill:rgb(190,190,63); " description="unannotated orf[br]Location: 62569 - 63924" locus_tag="CHAFR746836_0091020.1" class="clusterblast-orf" points="497,40 503,40 508,35 503,30 497,30 497,40 " id="clusterblast-1_q24_3_13"  />
<polygon style="stroke:black; stroke-width:1; fill:rgb(190,190,190); " description="unannotated orf[br]Location: 66784 - 68224" locus_tag="CHAFR746836_0091030.1" class="clusterblast-orf" points="531,40 537,40 542,35 537,30 531,30 531,40 " id="clusterblast-1_q24_3_14"  />
<polygon style="stroke:black; stroke-width:1; fill:#FFFFFF; " description="unannotated orf[br]Location: 88555 - 89706" locus_tag="CHAFR746836_0091040.1" class="clusterblast-orf" points="704,35 709,30 713,30 713,40 709,40 704,35 " id="clusterblast-1_q24_3_15"  />
<polygon style="stroke:black; stroke-width:1; fill:rgb(63,190,190); " description="unannotated orf[br]Location: 94755 - 95427" locus_tag="CHAFR746836_0091050.1" class="clusterblast-orf" points="753,35 758,30 758,30 758,40 758,40 753,35 " id="clusterblast-1_q24_3_16"  />
<polygon style="stroke:black; stroke-width:1; fill:rgb(63,63,63); " description="unannotated orf[br]Location: 95982 - 97863" locus_tag="CHAFR746836_0091060.1" class="clusterblast-orf" points="763,40 773,40 778,35 773,30 763,30 763,40 " id="clusterblast-1_q24_3_17"  />
</g>
<g class="clusterblast-cluster" description="Trichophyton tonsurans CBS 112818 genomic scaffold supercont..." label="GG698491.1_c1"  >
<text class="clusterblast-acc" y="60" x="5"  >
GG698491.1_c1</text>
<text class="clusterblast-desc" y="60" x="460.8"  >
Trichophyton tonsurans CBS 112818 genomic scaffold supercont...</text>
<line y1="85" x2="778.0" style="stroke:grey; stroke-width:1; " x1="10" y2="85"  />
<polygon style="stroke:black; stroke-width:1; fill:#FFFFFF; " description="hypothetical_protein[br]Location: 303065 - 304482" locus_tag="TESG_03459" id="clusterblast-1_h24_3_0" points="222,85 227,80 233,80 233,90 227,90 222,85 " class="clusterblast-orf"  />
<polygon style="stroke:black; stroke-width:1; fill:#FFFFFF; " description="hypothetical_protein[br]Location: 300785 - 301827" locus_tag="TESG_03458" id="clusterblast-1_h24_3_1" points="243,90 246,90 251,85 246,80 243,80 243,90 " class="clusterblast-orf"  />
<polygon style="stroke:black; stroke-width:1; fill:#FFFFFF; " description="valyl-tRNA_synthetase[br]Location: 297209 - 300600" locus_tag="TESG_03457" id="clusterblast-1_h24_3_2" points="252,85 257,80 279,80 279,90 257,90 252,85 " class="clusterblast-orf"  />
<polygon style="stroke:black; stroke-width:1; fill:#FFFFFF; " description="hypothetical_protein[br]Location: 295993 - 296743" locus_tag="TESG_03456" id="clusterblast-1_h24_3_3" points="283,85 288,80 289,80 289,90 288,90 283,85 " class="clusterblast-orf"  />
<polygon style="stroke:black; stroke-width:1; fill:#FFFFFF; " description="hypothetical_protein[br]Location: 292898 - 295390" locus_tag="TESG_03455" id="clusterblast-1_h24_3_4" points="294,90 309,90 314,85 309,80 294,80 294,90 " class="clusterblast-orf"  />
<polygon style="stroke:black; stroke-width:1; fill:#FFFFFF; " description="hypothetical_protein[br]Location: 290863 - 291224" locus_tag="TESG_03454" id="clusterblast-1_h24_3_5" points="327,90 330,85 327,80 327,90 " class="clusterblast-orf"  />
<polygon style="stroke:black; stroke-width:1; fill:#FFFFFF; " description="serine/threonine_protein_kinase[br]Location: 289573 - 290613" locus_tag="TESG_03453" id="clusterblast-1_h24_3_6" points="332,85 337,80 340,80 340,90 337,90 332,85 " class="clusterblast-orf"  />
<polygon style="stroke:black; stroke-width:1; fill:#FFFFFF; " description="CMGC/CK2_protein_kinase[br]Location: 287284 - 288497" locus_tag="TESG_03452" id="clusterblast-1_h24_3_7" points="348,85 353,80 358,80 358,90 353,90 348,85 " class="clusterblast-orf"  />
<polygon style="stroke:black; stroke-width:1; fill:rgb(190,63,63); " description="hypothetical_protein[br]Location: 285250 - 286752&lt;br&gt;&lt;br&gt;&lt;b&gt;BlastP hit with CHAFR746836_0090890.1&lt;/b&gt;&lt;br&gt;Percentage identity: 35%&lt;br&gt;Percentage coverage: 98%&lt;br&gt;BLAST bit score: 251&lt;br&gt;E-value: 5e-77" locus_tag="TESG_03451" id="clusterblast-1_h24_3_8" points="362,85 367,80 374,80 374,90 367,90 362,85 " class="clusterblast-orf"  />
<polygon style="stroke:black; stroke-width:1; fill:#FFFFFF; " description="hypothetical_protein[br]Location: 281501 - 284473" locus_tag="TESG_03450" id="clusterblast-1_h24_3_9" points="380,90 399,90 404,85 399,80 380,80 380,90 " class="clusterblast-orf"  />
<polygon style="stroke:black; stroke-width:1; fill:rgb(190,190,63); " description="hypothetical_protein[br]Location: 279261 - 280676&lt;br&gt;&lt;br&gt;&lt;b&gt;BlastP hit with CHAFR746836_0091020.1&lt;/b&gt;&lt;br&gt;Percentage identity: 33%&lt;br&gt;Percentage coverage: 88%&lt;br&gt;BLAST bit score: 191&lt;br&gt;E-value: 8e-55" locus_tag="TESG_03449" id="clusterblast-1_h24_3_10" points="411,90 417,90 422,85 417,80 411,80 411,90 " class="clusterblast-orf"  />
<polygon style="stroke:black; stroke-width:1; fill:#FFFFFF; " description="hypothetical_protein[br]Location: 277002 - 278750" locus_tag="TESG_03448" id="clusterblast-1_h24_3_11" points="426,90 435,90 440,85 435,80 426,80 426,90 " class="clusterblast-orf"  />
<polygon style="stroke:black; stroke-width:1; fill:#FFFFFF; " description="hypothetical_protein[br]Location: 275019 - 276254" locus_tag="TESG_03447" id="clusterblast-1_h24_3_12" points="446,90 451,90 456,85 451,80 446,80 446,90 " class="clusterblast-orf"  />
<polygon style="stroke:black; stroke-width:1; fill:#FFFFFF; " description="hypothetical_protein[br]Location: 272578 - 274566" locus_tag="TESG_03446" id="clusterblast-1_h24_3_13" points="459,85 464,80 475,80 475,90 464,90 459,85 " class="clusterblast-orf"  />
<polygon style="stroke:black; stroke-width:1; fill:#FFFFFF; " description="hypothetical_protein[br]Location: 270893 - 271624" locus_tag="TESG_03445" id="clusterblast-1_h24_3_14" points="482,90 483,90 488,85 483,80 482,80 482,90 " class="clusterblast-orf"  />
<polygon style="stroke:black; stroke-width:1; fill:#FFFFFF; " description="hypothetical_protein[br]Location: 269142 - 270587" locus_tag="TESG_03444" id="clusterblast-1_h24_3_15" points="491,85 496,80 502,80 502,90 496,90 491,85 " class="clusterblast-orf"  />
<polygon style="stroke:black; stroke-width:1; fill:#FFFFFF; " description="ribonuclease_P_complex_subunit_Pop2[br]Location: 267278 - 268301" locus_tag="TESG_03443" id="clusterblast-1_h24_3_16" points="509,90 512,90 517,85 512,80 509,80 509,90 " class="clusterblast-orf"  />
<polygon style="stroke:black; stroke-width:1; fill:#FFFFFF; " description="hypothetical_protein[br]Location: 261334 - 266310" locus_tag="TESG_03442" id="clusterblast-1_h24_3_17" points="525,90 559,90 564,85 559,80 525,80 525,90 " class="clusterblast-orf"  />
</g>
</svg>
