<svg xmlns="http://www.w3.org/2000/svg" height="230" width="800" version="1.1" y="0" x="0" preserveAspectRatio="none" xmlns:xlink="http://www.w3.org/1999/xlink" viewBox="0 0 800 230"  >
<g class="clusterblast-cluster" label="Query sequence"  >
<text class="clusterblast-acc" y="10" x="5"  >
Query sequence</text>
<line y1="35" x2="778.0" style="stroke:grey; stroke-width:1; " x1="10" y2="35"  />
<polygon style="stroke:black; stroke-width:1; fill:#FFFFFF; " description="unannotated orf[br]Location: 978 - 3290" locus_tag="CHAFR746836_0087330.1" class="clusterblast-orf" points="10,40 16,40 21,35 16,30 10,30 10,40 " id="clusterblast-1_q19_2_0"  />
<polygon style="stroke:black; stroke-width:1; fill:#FFFFFF; " description="unannotated orf[br]Location: 11313 - 13260" locus_tag="CHAFR746836_0087340.1" class="clusterblast-orf" points="60,35 65,30 70,30 70,40 65,40 60,35 " id="clusterblast-1_q19_2_1"  />
<polygon style="stroke:black; stroke-width:1; fill:#FFFFFF; " description="unannotated orf[br]Location: 25150 - 25735" locus_tag="CHAFR746836_0087350.1" class="clusterblast-orf" points="128,35 131,30 131,40 128,35 " id="clusterblast-1_q19_2_2"  />
<polygon style="stroke:black; stroke-width:1; fill:#FFFFFF; " description="unannotated orf[br]Location: 26529 - 27424" locus_tag="CHAFR746836_0087360.1" class="clusterblast-orf" points="135,35 139,30 139,40 135,35 " id="clusterblast-1_q19_2_3"  />
<polygon style="stroke:black; stroke-width:1; fill:#FFFFFF; " description="unannotated orf[br]Location: 27971 - 29946" locus_tag="CHAFR746836_0087370.1" class="clusterblast-orf" points="142,40 147,40 152,35 147,30 142,30 142,40 " id="clusterblast-1_q19_2_4"  />
<polygon style="stroke:black; stroke-width:1; fill:rgb(169,42,42); " description="unannotated orf[br]Location: 31388 - 33149" locus_tag="CHAFR746836_0087380.1" class="clusterblast-orf" points="159,40 163,40 168,35 163,30 159,30 159,40 " id="clusterblast-1_q19_2_5"  />
<polygon style="stroke:black; stroke-width:1; fill:#FFFFFF; " description="unannotated orf[br]Location: 34560 - 35171" locus_tag="CHAFR746836_0087390.1" class="clusterblast-orf" points="175,40 178,35 175,30 175,40 " id="clusterblast-1_q19_2_6"  />
<polygon style="stroke:black; stroke-width:1; fill:#FFFFFF; " description="unannotated orf[br]Location: 36170 - 38717" locus_tag="CHAFR746836_0087400.1" class="clusterblast-orf" points="182,35 187,30 195,30 195,40 187,40 182,35 " id="clusterblast-1_q19_2_7"  />
<polygon style="stroke:black; stroke-width:1; fill:rgb(42,212,42); " description="unannotated orf[br]Location: 39938 - 40576" locus_tag="CHAFR746836_0087410.1" class="clusterblast-orf" points="201,35 204,30 204,40 201,35 " id="clusterblast-1_q19_2_8"  />
<polygon style="stroke:black; stroke-width:1; fill:#FFFFFF; " description="unannotated orf[br]Location: 41148 - 42949" locus_tag="CHAFR746836_0087420.1" class="clusterblast-orf" points="207,40 211,40 216,35 211,30 207,30 207,40 " id="clusterblast-1_q19_2_9"  />
<polygon style="stroke:black; stroke-width:1; fill:#FFFFFF; " description="unannotated orf[br]Location: 45079 - 46829" locus_tag="CHAFR746836_0087430.1" class="clusterblast-orf" points="226,40 230,40 235,35 230,30 226,30 226,40 " id="clusterblast-1_q19_2_10"  />
<polygon style="stroke:black; stroke-width:1; fill:#FFFFFF; " description="unannotated orf[br]Location: 47651 - 49501" locus_tag="CHAFR746836_0087440.1" class="clusterblast-orf" points="239,40 243,40 248,35 243,30 239,30 239,40 " id="clusterblast-1_q19_2_11"  />
<polygon style="stroke:black; stroke-width:1; fill:#FFFFFF; " description="unannotated orf[br]Location: 50578 - 52077" locus_tag="CHAFR746836_0087450.1" class="clusterblast-orf" points="253,35 258,30 261,30 261,40 258,40 253,35 " id="clusterblast-1_q19_2_12"  />
<polygon style="stroke:black; stroke-width:1; fill:#FFFFFF; " description="unannotated orf[br]Location: 57587 - 59108" locus_tag="CHAFR746836_0087460.1" class="clusterblast-orf" points="288,40 290,40 295,35 290,30 288,30 288,40 " id="clusterblast-1_q19_2_13"  />
<polygon style="stroke:black; stroke-width:1; fill:#FFFFFF; " description="unannotated orf[br]Location: 61987 - 64097" locus_tag="CHAFR746836_0087470.1" class="clusterblast-orf" points="309,40 315,40 320,35 315,30 309,30 309,40 " id="clusterblast-1_q19_2_14"  />
<polygon style="stroke:black; stroke-width:1; fill:#FFFFFF; " description="unannotated orf[br]Location: 69799 - 72236" locus_tag="CHAFR746836_0087480.1" class="clusterblast-orf" points="348,40 355,40 360,35 355,30 348,30 348,40 " id="clusterblast-1_q19_2_15"  />
<polygon style="stroke:black; stroke-width:1; fill:#FFFFFF; " description="unannotated orf[br]Location: 75226 - 76087" locus_tag="CHAFR746836_0087490.1" class="clusterblast-orf" points="374,35 379,30 379,30 379,40 379,40 374,35 " id="clusterblast-1_q19_2_16"  />
<polygon style="stroke:black; stroke-width:1; fill:rgb(42,42,212); " description="unannotated orf[br]Location: 83518 - 84938" locus_tag="CHAFR746836_0087500.1" class="clusterblast-orf" points="415,35 420,30 422,30 422,40 420,40 415,35 " id="clusterblast-1_q19_2_17"  />
<polygon style="stroke:black; stroke-width:1; fill:rgb(169,127,212); " description="unannotated orf[br]Location: 87633 - 89495" locus_tag="CHAFR746836_0087510.1" class="clusterblast-orf" points="435,35 440,30 445,30 445,40 440,40 435,35 " id="clusterblast-1_q19_2_18"  />
<polygon style="stroke:black; stroke-width:1; fill:rgb(169,212,42); " description="unannotated orf[br]Location: 89752 - 90556" locus_tag="CHAFR746836_0087520.1" class="clusterblast-orf" points="446,40 450,35 446,30 446,40 " id="clusterblast-1_q19_2_19"  />
<polygon style="stroke:black; stroke-width:1; fill:#FFFFFF; " description="unannotated orf[br]Location: 104976 - 106006" locus_tag="CHAFR746836_0087530.1" class="clusterblast-orf" points="521,35 526,30 526,30 526,40 526,40 521,35 " id="clusterblast-1_q19_2_20"  />
<polygon style="stroke:black; stroke-width:1; fill:rgb(42,212,212); " description="unannotated orf[br]Location: 127251 - 128425" locus_tag="CHAFR746836_0087540.1" class="clusterblast-orf" points="630,35 635,30 636,30 636,40 635,40 630,35 " id="clusterblast-1_q19_2_21"  />
<polygon style="stroke:black; stroke-width:1; fill:rgb(169,127,42); " description="unannotated orf[br]Location: 129252 - 129711" locus_tag="CHAFR746836_0087550.1" class="clusterblast-orf" points="640,40 642,35 640,30 640,40 " id="clusterblast-1_q19_2_22"  />
<polygon style="stroke:black; stroke-width:1; fill:rgb(169,42,127); " description="unannotated orf[br]Location: 133926 - 135028" locus_tag="CHAFR746836_0087560.1" class="clusterblast-orf" points="663,35 668,30 668,30 668,40 668,40 663,35 " id="clusterblast-1_q19_2_23"  />
<polygon style="stroke:black; stroke-width:1; fill:rgb(42,127,42); " description="unannotated orf[br]Location: 135294 - 136000" locus_tag="CHAFR746836_0087570.1" class="clusterblast-orf" points="670,40 673,35 670,30 670,40 " id="clusterblast-1_q19_2_24"  />
<polygon style="stroke:black; stroke-width:1; fill:#FFFFFF; " description="unannotated orf[br]Location: 137264 - 139678" locus_tag="CHAFR746836_0087580.1" class="clusterblast-orf" points="679,40 686,40 691,35 686,30 679,30 679,40 " id="clusterblast-1_q19_2_25"  />
<polygon style="stroke:black; stroke-width:1; fill:#FFFFFF; " description="unannotated orf[br]Location: 140410 - 140889" locus_tag="CHAFR746836_0087590.1" class="clusterblast-orf" points="695,40 697,35 695,30 695,40 " id="clusterblast-1_q19_2_26"  />
<polygon style="stroke:black; stroke-width:1; fill:#FFFFFF; " description="unannotated orf[br]Location: 145698 - 146640" locus_tag="CHAFR746836_0087600.1" class="clusterblast-orf" points="721,35 725,30 725,40 721,35 " id="clusterblast-1_q19_2_27"  />
<polygon style="stroke:black; stroke-width:1; fill:rgb(42,127,212); " description="unannotated orf[br]Location: 149111 - 149530" locus_tag="CHAFR746836_0087610.1" class="clusterblast-orf" points="738,40 740,35 738,30 738,40 " id="clusterblast-1_q19_2_28"  />
<polygon style="stroke:black; stroke-width:1; fill:rgb(42,212,127); " description="unannotated orf[br]Location: 150467 - 151609" locus_tag="CHAFR746836_0087620.1" class="clusterblast-orf" points="744,40 745,40 750,35 745,30 744,30 744,40 " id="clusterblast-1_q19_2_29"  />
<polygon style="stroke:black; stroke-width:1; fill:rgb(169,42,212); " description="unannotated orf[br]Location: 150467 - 154023" locus_tag="CHAFR746836_0087620.3" class="clusterblast-orf" points="744,40 757,40 762,35 757,30 744,30 744,40 " id="clusterblast-1_q19_2_30"  />
<polygon style="stroke:black; stroke-width:1; fill:#FFFFFF; " description="unannotated orf[br]Location: 152274 - 154023" locus_tag="CHAFR746836_0087620.2" class="clusterblast-orf" points="753,40 757,40 762,35 757,30 753,30 753,40 " id="clusterblast-1_q19_2_31"  />
<polygon style="stroke:black; stroke-width:1; fill:rgb(42,127,127); " description="unannotated orf[br]Location: 155579 - 157240" locus_tag="CHAFR746836_0087630.1" class="clusterblast-orf" points="769,40 773,40 778,35 773,30 769,30 769,40 " id="clusterblast-1_q19_2_32"  />
</g>
<g class="clusterblast-cluster" description="Trichoderma reesei QM6a unplaced genomic scaffold TRIREscaff..." label="GL985086.1_c1"  >
<text class="clusterblast-acc" y="60" x="5"  >
GL985086.1_c1</text>
<text class="clusterblast-desc" y="60" x="460.8"  >
Trichoderma reesei QM6a unplaced genomic scaffold TRIREscaff...</text>
<line y1="85" x2="778.0" style="stroke:grey; stroke-width:1; " x1="10" y2="85"  />
<polygon style="stroke:black; stroke-width:1; fill:#FFFFFF; " description="amidase[br]Location: 18435 - 20427" locus_tag="TRIREDRAFT_69863" id="clusterblast-1_h19_2_0" points="256,90 260,90 265,85 260,80 256,80 256,90 " class="clusterblast-orf"  />
<polygon style="stroke:black; stroke-width:1; fill:#FFFFFF; " description="predicted_protein[br]Location: 20718 - 21695" locus_tag="TRIREDRAFT_111966" id="clusterblast-1_h19_2_1" points="267,85 272,80 272,80 272,90 272,90 267,85 " class="clusterblast-orf"  />
<polygon style="stroke:black; stroke-width:1; fill:#FFFFFF; " description="predicted_protein[br]Location: 22647 - 23648" locus_tag="TRIREDRAFT_69920" id="clusterblast-1_h19_2_2" points="276,90 276,90 281,85 276,80 276,80 276,90 " class="clusterblast-orf"  />
<polygon style="stroke:black; stroke-width:1; fill:#FFFFFF; " description="predicted_protein[br]Location: 23848 - 26061" locus_tag="TRIREDRAFT_111968" id="clusterblast-1_h19_2_3" points="282,85 287,80 293,80 293,90 287,90 282,85 " class="clusterblast-orf"  />
<polygon style="stroke:black; stroke-width:1; fill:#FFFFFF; " description="predicted_protein[br]Location: 27356 - 28093" locus_tag="TRIREDRAFT_69963" id="clusterblast-1_h19_2_4" points="299,90 303,85 299,80 299,90 " class="clusterblast-orf"  />
<polygon style="stroke:black; stroke-width:1; fill:#FFFFFF; " description="alcohol_dehydrogenase[br]Location: 29688 - 30794" locus_tag="TRIREDRAFT_69956" id="clusterblast-1_h19_2_5" points="311,90 311,90 316,85 311,80 311,80 311,90 " class="clusterblast-orf"  />
<polygon style="stroke:black; stroke-width:1; fill:rgb(42,212,127); " description="predicted_protein[br]Location: 32775 - 33824&lt;br&gt;&lt;br&gt;&lt;b&gt;BlastP hit with CHAFR746836_0087620.1&lt;/b&gt;&lt;br&gt;Percentage identity: 33%&lt;br&gt;Percentage coverage: 100%&lt;br&gt;BLAST bit score: 177&lt;br&gt;E-value: 1e-50&lt;br&gt;&lt;br&gt;&lt;b&gt;BlastP hit with CHAFR746836_0087620.3&lt;/b&gt;&lt;br&gt;Percentage identity: 33%&lt;br&gt;Percentage coverage: 42%&lt;br&gt;BLAST bit score: 170&lt;br&gt;E-value: 2e-45" locus_tag="TRIREDRAFT_69950" id="clusterblast-1_h19_2_6" points="326,90 326,90 331,85 326,80 326,80 326,90 " class="clusterblast-orf"  />
<polygon style="stroke:black; stroke-width:1; fill:rgb(42,127,127); " description="predicted_protein[br]Location: 33994 - 35520&lt;br&gt;&lt;br&gt;&lt;b&gt;BlastP hit with CHAFR746836_0087630.1&lt;/b&gt;&lt;br&gt;Percentage identity: 31%&lt;br&gt;Percentage coverage: 100%&lt;br&gt;BLAST bit score: 240&lt;br&gt;E-value: 6e-71" locus_tag="TRIREDRAFT_52375" id="clusterblast-1_h19_2_7" points="332,85 337,80 339,80 339,90 337,90 332,85 " class="clusterblast-orf"  />
<polygon style="stroke:black; stroke-width:1; fill:#FFFFFF; " description="choline_oxidase[br]Location: 37963 - 39594" locus_tag="TRIREDRAFT_23367" id="clusterblast-1_h19_2_8" points="351,90 354,90 359,85 354,80 351,80 351,90 " class="clusterblast-orf"  />
<polygon style="stroke:black; stroke-width:1; fill:#FFFFFF; " description="non-ribosomal_peptide_synthetase,_siderophore[br]Location: 39879 - 54649" locus_tag="TRIREDRAFT_69946" id="clusterblast-1_h19_2_9" points="361,85 366,80 433,80 433,90 366,90 361,85 " class="clusterblast-orf"  />
<polygon style="stroke:black; stroke-width:1; fill:#FFFFFF; " description="ornithine_monooxygenase[br]Location: 57593 - 59345" locus_tag="TRIREDRAFT_23368" id="clusterblast-1_h19_2_10" points="448,90 452,90 457,85 452,80 448,80 448,90 " class="clusterblast-orf"  />
<polygon style="stroke:black; stroke-width:1; fill:#FFFFFF; " description="N-terminal_binuclear_Zn_cluster-containing/DNA[br]Location: 62613 - 64529" locus_tag="TRIREDRAFT_69972" id="clusterblast-1_h19_2_11" points="473,90 477,90 482,85 477,80 473,80 473,90 " class="clusterblast-orf"  />
<polygon style="stroke:black; stroke-width:1; fill:#FFFFFF; " description="Hypothetical_protein[br]Location: 66063 - 67694" locus_tag="TRIREDRAFT_69885" id="clusterblast-1_h19_2_12" points="490,90 493,90 498,85 493,80 490,80 490,90 " class="clusterblast-orf"  />
<polygon style="stroke:black; stroke-width:1; fill:#FFFFFF; " description="predicted_protein[br]Location: 67820 - 69550" locus_tag="TRIREDRAFT_111981" id="clusterblast-1_h19_2_13" points="498,85 503,80 507,80 507,90 503,90 498,85 " class="clusterblast-orf"  />
<polygon style="stroke:black; stroke-width:1; fill:#FFFFFF; " description="predicted_protein[br]Location: 70077 - 71345" locus_tag="TRIREDRAFT_5844" id="clusterblast-1_h19_2_14" points="509,85 514,80 516,80 516,90 514,90 509,85 " class="clusterblast-orf"  />
<polygon style="stroke:black; stroke-width:1; fill:#FFFFFF; " description="predicted_protein[br]Location: 71851 - 72771" locus_tag="TRIREDRAFT_124030" id="clusterblast-1_h19_2_15" points="518,90 518,90 523,85 518,80 518,80 518,90 " class="clusterblast-orf"  />
<polygon style="stroke:black; stroke-width:1; fill:#FFFFFF; " description="hypothetical_protein[br]Location: 73449 - 74449" locus_tag="TRIREDRAFT_69858" id="clusterblast-1_h19_2_16" points="526,90 526,90 531,85 526,80 526,80 526,90 " class="clusterblast-orf"  />
</g>
</svg>
