<svg xmlns="http://www.w3.org/2000/svg" height="230" width="800" version="1.1" y="0" x="0" preserveAspectRatio="none" xmlns:xlink="http://www.w3.org/1999/xlink" viewBox="0 0 800 230"  >
<g class="clusterblast-cluster" label="Query sequence"  >
<text class="clusterblast-acc" y="10" x="5"  >
Query sequence</text>
<line y1="35" x2="778.0" style="stroke:grey; stroke-width:1; " x1="10" y2="35"  />
<polygon style="stroke:black; stroke-width:1; fill:#FFFFFF; " description="unannotated orf[br]Location: 1013 - 2670" locus_tag="CHAFR746836_0031900.1" class="clusterblast-orf" points="10,35 15,30 19,30 19,40 15,40 10,35 " id="clusterblast-2_q45_4_0"  />
<polygon style="stroke:black; stroke-width:1; fill:#FFFFFF; " description="unannotated orf[br]Location: 5806 - 8080" locus_tag="CHAFR746836_0031910.1" class="clusterblast-orf" points="36,40 44,40 49,35 44,30 36,30 36,40 " id="clusterblast-2_q45_4_1"  />
<polygon style="stroke:black; stroke-width:1; fill:rgb(190,63,63); " description="unannotated orf[br]Location: 14959 - 16522" locus_tag="CHAFR746836_0031920.1" class="clusterblast-orf" points="87,35 92,30 96,30 96,40 92,40 87,35 " id="clusterblast-2_q45_4_2"  />
<polygon style="stroke:black; stroke-width:1; fill:rgb(63,63,190); " description="unannotated orf[br]Location: 18634 - 27051" locus_tag="CHAFR746836_0031930.1" class="clusterblast-orf" points="108,35 113,30 155,30 155,40 113,40 108,35 " id="clusterblast-2_q45_4_3"  />
<polygon style="stroke:black; stroke-width:1; fill:rgb(63,190,63); " description="unannotated orf[br]Location: 28690 - 31017" locus_tag="CHAFR746836_0031940.1" class="clusterblast-orf" points="164,35 169,30 177,30 177,40 169,40 164,35 " id="clusterblast-2_q45_4_4"  />
<polygon style="stroke:black; stroke-width:1; fill:rgb(190,63,190); " description="unannotated orf[br]Location: 31821 - 32686" locus_tag="CHAFR746836_0031950.1" class="clusterblast-orf" points="182,40 186,35 182,30 182,40 " id="clusterblast-2_q45_4_5"  />
<polygon style="stroke:black; stroke-width:1; fill:#FFFFFF; " description="unannotated orf[br]Location: 33127 - 34136" locus_tag="CHAFR746836_0031960.1" class="clusterblast-orf" points="189,35 194,30 195,30 195,40 194,40 189,35 " id="clusterblast-2_q45_4_6"  />
<polygon style="stroke:black; stroke-width:1; fill:#FFFFFF; " description="unannotated orf[br]Location: 34492 - 36671" locus_tag="CHAFR746836_0031970.1" class="clusterblast-orf" points="197,40 204,40 209,35 204,30 197,30 197,40 " id="clusterblast-2_q45_4_7"  />
<polygon style="stroke:black; stroke-width:1; fill:#FFFFFF; " description="unannotated orf[br]Location: 90516 - 91329" locus_tag="CHAFR746836_0031980.1" class="clusterblast-orf" points="510,40 514,35 510,30 510,40 " id="clusterblast-2_q45_4_8"  />
<polygon style="stroke:black; stroke-width:1; fill:#FFFFFF; " description="unannotated orf[br]Location: 95107 - 95607" locus_tag="CHAFR746836_0031990.1" class="clusterblast-orf" points="535,35 538,30 538,40 535,35 " id="clusterblast-2_q45_4_9"  />
<polygon style="stroke:black; stroke-width:1; fill:#FFFFFF; " description="unannotated orf[br]Location: 98154 - 98987" locus_tag="CHAFR746836_0032000.1" class="clusterblast-orf" points="552,40 552,40 557,35 552,30 552,30 552,40 " id="clusterblast-2_q45_4_10"  />
<polygon style="stroke:black; stroke-width:1; fill:#FFFFFF; " description="unannotated orf[br]Location: 110556 - 112350" locus_tag="CHAFR746836_0032010.1" class="clusterblast-orf" points="622,35 627,30 632,30 632,40 627,40 622,35 " id="clusterblast-2_q45_4_11"  />
<polygon style="stroke:black; stroke-width:1; fill:rgb(190,190,63); " description="unannotated orf[br]Location: 112800 - 115534" locus_tag="CHAFR746836_0032020.1" class="clusterblast-orf" points="634,40 644,40 649,35 644,30 634,30 634,40 " id="clusterblast-2_q45_4_12"  />
<polygon style="stroke:black; stroke-width:1; fill:rgb(190,190,190); " description="unannotated orf[br]Location: 116249 - 122294" locus_tag="CHAFR746836_0032030.1" class="clusterblast-orf" points="653,40 682,40 687,35 682,30 653,30 653,40 " id="clusterblast-2_q45_4_13"  />
<polygon style="stroke:black; stroke-width:1; fill:rgb(63,190,190); " description="unannotated orf[br]Location: 126098 - 127042" locus_tag="CHAFR746836_0032040.1" class="clusterblast-orf" points="708,35 713,30 714,30 714,40 713,40 708,35 " id="clusterblast-2_q45_4_14"  />
<polygon style="stroke:black; stroke-width:1; fill:rgb(63,63,63); " description="unannotated orf[br]Location: 128617 - 129857" locus_tag="CHAFR746836_0032050.1" class="clusterblast-orf" points="723,40 724,40 729,35 724,30 723,30 723,40 " id="clusterblast-2_q45_4_15"  />
<polygon style="stroke:black; stroke-width:1; fill:#FFFFFF; " description="unannotated orf[br]Location: 132905 - 135667" locus_tag="CHAFR746836_0032060.1" class="clusterblast-orf" points="746,40 757,40 762,35 757,30 746,30 746,40 " id="clusterblast-2_q45_4_16"  />
<polygon style="stroke:black; stroke-width:1; fill:#FFFFFF; " description="unannotated orf[br]Location: 137047 - 138460" locus_tag="CHAFR746836_0032070.1" class="clusterblast-orf" points="770,35 775,30 778,30 778,40 775,40 770,35 " id="clusterblast-2_q45_4_17"  />
</g>
<g class="clusterblast-cluster" description="Aspergillus kawachii IFO 4308 DNA, contig: scaffold00013, wh..." label="DF126459.1_c2"  >
<text class="clusterblast-acc" y="60" x="5"  >
DF126459.1_c2</text>
<text class="clusterblast-desc" y="60" x="460.8"  >
Aspergillus kawachii IFO 4308 DNA, contig: scaffold00013, wh...</text>
<line y1="85" x2="778.0" style="stroke:grey; stroke-width:1; " x1="10" y2="85"  />
<polygon style="stroke:black; stroke-width:1; fill:#FFFFFF; " description="hypothetical_protein[br]Location: 104667 - 105001" locus_tag="AKAW_05424" id="clusterblast-2_h45_4_0" points="239,90 240,85 239,80 239,90 " class="clusterblast-orf"  />
<polygon style="stroke:black; stroke-width:1; fill:#FFFFFF; " description="hypothetical_protein[br]Location: 106065 - 106706" locus_tag="AKAW_05425" id="clusterblast-2_h45_4_1" points="246,90 250,85 246,80 246,90 " class="clusterblast-orf"  />
<polygon style="stroke:black; stroke-width:1; fill:#FFFFFF; " description="Zn(II)2Cys6_transcription_factor[br]Location: 106786 - 108743" locus_tag="AKAW_05426" id="clusterblast-2_h45_4_2" points="250,85 255,80 261,80 261,90 255,90 250,85 " class="clusterblast-orf"  />
<polygon style="stroke:black; stroke-width:1; fill:#FFFFFF; " description="amidohydrolase[br]Location: 109432 - 110907" locus_tag="AKAW_05427" id="clusterblast-2_h45_4_3" points="265,85 270,80 273,80 273,90 270,90 265,85 " class="clusterblast-orf"  />
<polygon style="stroke:black; stroke-width:1; fill:#FFFFFF; " description="pantothenate_transporter[br]Location: 111992 - 113842" locus_tag="AKAW_05428" id="clusterblast-2_h45_4_4" points="279,90 285,90 290,85 285,80 279,80 279,90 " class="clusterblast-orf"  />
<polygon style="stroke:black; stroke-width:1; fill:#FFFFFF; " description="similar_to_An01g11590[br]Location: 114134 - 115490" locus_tag="AKAW_05429" id="clusterblast-2_h45_4_5" points="291,85 296,80 299,80 299,90 296,90 291,85 " class="clusterblast-orf"  />
<polygon style="stroke:black; stroke-width:1; fill:#FFFFFF; " description="feruloyl_esterase_B_precursor[br]Location: 119092 - 120654" locus_tag="AKAW_05430" id="clusterblast-2_h45_4_6" points="319,90 323,90 328,85 323,80 319,80 319,90 " class="clusterblast-orf"  />
<polygon style="stroke:black; stroke-width:1; fill:#FFFFFF; " description="flavin-containing_amine_oxidasedehydrogenase[br]Location: 121019 - 122527" locus_tag="AKAW_05431" id="clusterblast-2_h45_4_7" points="330,90 333,90 338,85 333,80 330,80 330,90 " class="clusterblast-orf"  />
<polygon style="stroke:black; stroke-width:1; fill:rgb(63,63,190); " description="polyketide_synthase[br]Location: 123689 - 131921&lt;br&gt;&lt;br&gt;&lt;b&gt;BlastP hit with CHAFR746836_0031930.1&lt;/b&gt;&lt;br&gt;Percentage identity: 36%&lt;br&gt;Percentage coverage: 101%&lt;br&gt;BLAST bit score: 1625&lt;br&gt;E-value: 0.0" locus_tag="AKAW_05432" id="clusterblast-2_h45_4_8" points="345,85 350,80 391,80 391,90 350,90 345,85 " class="clusterblast-orf"  />
<polygon style="stroke:black; stroke-width:1; fill:rgb(63,190,63); " description="hypothetical_protein[br]Location: 132780 - 133536&lt;br&gt;&lt;br&gt;&lt;b&gt;BlastP hit with CHAFR746836_0031940.1&lt;/b&gt;&lt;br&gt;Percentage identity: 35%&lt;br&gt;Percentage coverage: 35%&lt;br&gt;BLAST bit score: 104&lt;br&gt;E-value: 7e-24" locus_tag="AKAW_05433" id="clusterblast-2_h45_4_9" points="396,85 400,80 400,90 396,85 " class="clusterblast-orf"  />
<polygon style="stroke:black; stroke-width:1; fill:#FFFFFF; " description="integral_membrane_protein[br]Location: 134189 - 135368" locus_tag="AKAW_05434" id="clusterblast-2_h45_4_10" points="403,90 405,90 410,85 405,80 403,80 403,90 " class="clusterblast-orf"  />
<polygon style="stroke:black; stroke-width:1; fill:#FFFFFF; " description="NRPS-like_enzyme[br]Location: 136163 - 139535" locus_tag="AKAW_05435" id="clusterblast-2_h45_4_11" points="414,90 428,90 433,85 428,80 414,80 414,90 " class="clusterblast-orf"  />
<polygon style="stroke:black; stroke-width:1; fill:#FFFFFF; " description="polygalacturonase_(PgaI)[br]Location: 143299 - 144521" locus_tag="AKAW_05436" id="clusterblast-2_h45_4_12" points="454,85 459,80 461,80 461,90 459,90 454,85 " class="clusterblast-orf"  />
<polygon style="stroke:black; stroke-width:1; fill:#FFFFFF; " description="arylsulfatase_A[br]Location: 147303 - 148841" locus_tag="AKAW_05437" id="clusterblast-2_h45_4_13" points="477,85 482,80 485,80 485,90 482,90 477,85 " class="clusterblast-orf"  />
<polygon style="stroke:black; stroke-width:1; fill:#FFFFFF; " description="FAD_binding_domain_protein[br]Location: 150234 - 152309" locus_tag="AKAW_05438" id="clusterblast-2_h45_4_14" points="493,85 498,80 505,80 505,90 498,90 493,85 " class="clusterblast-orf"  />
<polygon style="stroke:black; stroke-width:1; fill:#FFFFFF; " description="allantoate_permease[br]Location: 153457 - 155604" locus_tag="AKAW_05439" id="clusterblast-2_h45_4_15" points="511,85 516,80 523,80 523,90 516,90 511,85 " class="clusterblast-orf"  />
<polygon style="stroke:black; stroke-width:1; fill:#FFFFFF; " description="UDP-galactose_4-epimerase[br]Location: 156363 - 157199" locus_tag="AKAW_05440" id="clusterblast-2_h45_4_16" points="527,85 532,80 532,80 532,90 532,90 527,85 " class="clusterblast-orf"  />
<polygon style="stroke:black; stroke-width:1; fill:#FFFFFF; " description="hypothetical_protein[br]Location: 158299 - 159876" locus_tag="AKAW_05441" id="clusterblast-2_h45_4_17" points="538,85 543,80 547,80 547,90 543,90 538,85 " class="clusterblast-orf"  />
</g>
</svg>
