<svg xmlns="http://www.w3.org/2000/svg" height="230" width="800" version="1.1" y="0" x="0" preserveAspectRatio="none" xmlns:xlink="http://www.w3.org/1999/xlink" viewBox="0 0 800 230"  >
<g class="clusterblast-cluster" label="Query sequence"  >
<text class="clusterblast-acc" y="10" x="5"  >
Query sequence</text>
<line y1="35" x2="778.0" style="stroke:grey; stroke-width:1; " x1="10" y2="35"  />
<polygon style="stroke:black; stroke-width:1; fill:rgb(190,63,63); " description="unannotated orf[br]Location: 30881 - 32561" locus_tag="CHAFR746836_0027740.1" class="clusterblast-orf" points="10,35 15,30 35,30 35,40 15,40 10,35 " id="clusterblast-1_q41_3_0"  />
<polygon style="stroke:black; stroke-width:1; fill:#FFFFFF; " description="unannotated orf[br]Location: 34136 - 35442" locus_tag="CHAFR746836_0027750.1" class="clusterblast-orf" points="59,35 64,30 79,30 79,40 64,40 59,35 " id="clusterblast-1_q41_3_1"  />
<polygon style="stroke:black; stroke-width:1; fill:#FFFFFF; " description="unannotated orf[br]Location: 37053 - 38397" locus_tag="CHAFR746836_0027760.1" class="clusterblast-orf" points="104,40 119,40 124,35 119,30 104,30 104,40 " id="clusterblast-1_q41_3_2"  />
<polygon style="stroke:black; stroke-width:1; fill:#FFFFFF; " description="unannotated orf[br]Location: 40290 - 42003" locus_tag="CHAFR746836_0027770.1" class="clusterblast-orf" points="153,40 175,40 180,35 175,30 153,30 153,40 " id="clusterblast-1_q41_3_3"  />
<polygon style="stroke:black; stroke-width:1; fill:rgb(63,63,190); " description="unannotated orf[br]Location: 43155 - 44512" locus_tag="CHAFR746836_0027780.1" class="clusterblast-orf" points="197,35 202,30 218,30 218,40 202,40 197,35 " id="clusterblast-1_q41_3_4"  />
<polygon style="stroke:black; stroke-width:1; fill:rgb(63,190,63); " description="unannotated orf[br]Location: 46073 - 47620" locus_tag="CHAFR746836_0027790.1" class="clusterblast-orf" points="242,35 247,30 265,30 265,40 247,40 242,35 " id="clusterblast-1_q41_3_5"  />
<polygon style="stroke:black; stroke-width:1; fill:rgb(190,63,190); " description="unannotated orf[br]Location: 52322 - 58590" locus_tag="CHAFR746836_0027800.1" class="clusterblast-orf" points="337,40 428,40 433,35 428,30 337,30 337,40 " id="clusterblast-1_q41_3_6"  />
<polygon style="stroke:black; stroke-width:1; fill:rgb(190,190,63); " description="unannotated orf[br]Location: 60356 - 65267" locus_tag="CHAFR746836_0027810.1" class="clusterblast-orf" points="460,40 530,40 535,35 530,30 460,30 460,40 " id="clusterblast-1_q41_3_7"  />
<polygon style="stroke:black; stroke-width:1; fill:#FFFFFF; " description="unannotated orf[br]Location: 65402 - 66046" locus_tag="CHAFR746836_0027820.1" class="clusterblast-orf" points="537,35 542,30 547,30 547,40 542,40 537,35 " id="clusterblast-1_q41_3_8"  />
<polygon style="stroke:black; stroke-width:1; fill:rgb(190,190,190); " description="unannotated orf[br]Location: 66248 - 81117" locus_tag="CHAFR746836_0027830.1" class="clusterblast-orf" points="550,40 773,40 778,35 773,30 550,30 550,40 " id="clusterblast-1_q41_3_9"  />
</g>
<g class="clusterblast-cluster" description="Trichophyton equinum CBS 127.97 supercont1.23 genomic scaffo..." label="DS995740.1_c1"  >
<text class="clusterblast-acc" y="60" x="5"  >
DS995740.1_c1</text>
<text class="clusterblast-desc" y="60" x="460.8"  >
Trichophyton equinum CBS 127.97 supercont1.23 genomic scaffo...</text>
<line y1="85" x2="778.0" style="stroke:grey; stroke-width:1; " x1="10" y2="85"  />
<polygon style="stroke:black; stroke-width:1; fill:#FFFFFF; " description="CMGC/CDK/CDC2_protein_kinase[br]Location: 6214 - 7498" locus_tag="TEQG_04475" id="clusterblast-1_h41_3_0" points="27,85 32,80 46,80 46,90 32,90 27,85 " class="clusterblast-orf"  />
<polygon style="stroke:black; stroke-width:1; fill:#FFFFFF; " description="oxidoreductase[br]Location: 8300 - 9439" locus_tag="TEQG_04476" id="clusterblast-1_h41_3_1" points="58,90 71,90 76,85 71,80 58,80 58,90 " class="clusterblast-orf"  />
<polygon style="stroke:black; stroke-width:1; fill:#FFFFFF; " description="hypothetical_protein[br]Location: 10483 - 11099" locus_tag="TEQG_04477" id="clusterblast-1_h41_3_2" points="92,90 96,90 101,85 96,80 92,80 92,90 " class="clusterblast-orf"  />
<polygon style="stroke:black; stroke-width:1; fill:#FFFFFF; " description="hypothetical_protein[br]Location: 11998 - 14016" locus_tag="TEQG_04478" id="clusterblast-1_h41_3_3" points="115,90 141,90 146,85 141,80 115,80 115,90 " class="clusterblast-orf"  />
<polygon style="stroke:black; stroke-width:1; fill:#FFFFFF; " description="FAD_binding_domain_containing_protein[br]Location: 15651 - 17027" locus_tag="TEQG_04479" id="clusterblast-1_h41_3_4" points="171,85 176,80 192,80 192,90 176,90 171,85 " class="clusterblast-orf"  />
<polygon style="stroke:black; stroke-width:1; fill:#FFFFFF; " description="hypothetical_protein[br]Location: 17678 - 18799" locus_tag="TEQG_04480" id="clusterblast-1_h41_3_5" points="202,85 207,80 219,80 219,90 207,90 202,85 " class="clusterblast-orf"  />
<polygon style="stroke:black; stroke-width:1; fill:rgb(190,63,190); " description="fluconazole_resistance_protein_1[br]Location: 20338 - 22048&lt;br&gt;&lt;br&gt;&lt;b&gt;BlastP hit with CHAFR746836_0027800.1&lt;/b&gt;&lt;br&gt;Percentage identity: 34%&lt;br&gt;Percentage coverage: 25%&lt;br&gt;BLAST bit score: 259&lt;br&gt;E-value: 3e-73" locus_tag="TEQG_04481" id="clusterblast-1_h41_3_6" points="242,85 247,80 269,80 269,90 247,90 242,85 " class="clusterblast-orf"  />
<polygon style="stroke:black; stroke-width:1; fill:#FFFFFF; " description="hypothetical_protein[br]Location: 22315 - 22708" locus_tag="TEQG_04482" id="clusterblast-1_h41_3_7" points="273,90 274,90 279,85 274,80 273,80 273,90 " class="clusterblast-orf"  />
<polygon style="stroke:black; stroke-width:1; fill:#FFFFFF; " description="fungal_specific_transcription_factor[br]Location: 23258 - 25896" locus_tag="TEQG_04483" id="clusterblast-1_h41_3_8" points="287,90 322,90 327,85 322,80 287,80 287,90 " class="clusterblast-orf"  />
<polygon style="stroke:black; stroke-width:1; fill:#FFFFFF; " description="equisetin_synthetase[br]Location: 27284 - 35154" locus_tag="TEQG_04484" id="clusterblast-1_h41_3_9" points="349,90 464,90 469,85 464,80 349,80 349,90 " class="clusterblast-orf"  />
<polygon style="stroke:black; stroke-width:1; fill:rgb(63,190,63); " description="amino_acid_permease[br]Location: 35545 - 37527&lt;br&gt;&lt;br&gt;&lt;b&gt;BlastP hit with CHAFR746836_0027790.1&lt;/b&gt;&lt;br&gt;Percentage identity: 37%&lt;br&gt;Percentage coverage: 98%&lt;br&gt;BLAST bit score: 323&lt;br&gt;E-value: 5e-103" locus_tag="TEQG_04485" id="clusterblast-1_h41_3_10" points="475,85 480,80 505,80 505,90 480,90 475,85 " class="clusterblast-orf"  />
<polygon style="stroke:black; stroke-width:1; fill:#FFFFFF; " description="hypothetical_protein[br]Location: 40153 - 41658" locus_tag="TEQG_04486" id="clusterblast-1_h41_3_11" points="545,90 563,90 568,85 563,80 545,80 545,90 " class="clusterblast-orf"  />
<polygon style="stroke:black; stroke-width:1; fill:#FFFFFF; " description="hypothetical_protein[br]Location: 41928 - 42380" locus_tag="TEQG_04487" id="clusterblast-1_h41_3_12" points="572,85 577,80 579,80 579,90 577,90 572,85 " class="clusterblast-orf"  />
<polygon style="stroke:black; stroke-width:1; fill:#FFFFFF; " description="dienelactone_hydrolase[br]Location: 43539 - 44470" locus_tag="TEQG_04488" id="clusterblast-1_h41_3_13" points="597,90 606,90 611,85 606,80 597,80 597,90 " class="clusterblast-orf"  />
<polygon style="stroke:black; stroke-width:1; fill:#FFFFFF; " description="laccase-1[br]Location: 44759 - 46633" locus_tag="TEQG_04489" id="clusterblast-1_h41_3_14" points="616,85 621,80 644,80 644,90 621,90 616,85 " class="clusterblast-orf"  />
<polygon style="stroke:black; stroke-width:1; fill:#FFFFFF; " description="hypothetical_protein[br]Location: 47277 - 48371" locus_tag="TEQG_04490" id="clusterblast-1_h41_3_15" points="654,90 666,90 671,85 666,80 654,80 654,90 " class="clusterblast-orf"  />
<polygon style="stroke:black; stroke-width:1; fill:#FFFFFF; " description="LysM_domain-containing_protein[br]Location: 48547 - 49441" locus_tag="TEQG_04491" id="clusterblast-1_h41_3_16" points="674,85 679,80 687,80 687,90 679,90 674,85 " class="clusterblast-orf"  />
<polygon style="stroke:black; stroke-width:1; fill:#FFFFFF; " description="monocarboxylate_permease[br]Location: 50456 - 51997" locus_tag="TEQG_04492" id="clusterblast-1_h41_3_17" points="703,90 721,90 726,85 721,80 703,80 703,90 " class="clusterblast-orf"  />
<polygon style="stroke:black; stroke-width:1; fill:#FFFFFF; " description="acetylxylan_esterase[br]Location: 53223 - 54166" locus_tag="TEQG_04493" id="clusterblast-1_h41_3_18" points="745,85 750,80 760,80 760,90 750,90 745,85 " class="clusterblast-orf"  />
</g>
</svg>
