<svg xmlns="http://www.w3.org/2000/svg" height="230" width="800" version="1.1" y="0" x="0" preserveAspectRatio="none" xmlns:xlink="http://www.w3.org/1999/xlink" viewBox="0 0 800 230"  >
<g class="clusterblast-cluster" label="Query sequence"  >
<text class="clusterblast-acc" y="10" x="5"  >
Query sequence</text>
<line y1="35" x2="778.0" style="stroke:grey; stroke-width:1; " x1="10" y2="35"  />
<polygon style="stroke:black; stroke-width:1; fill:rgb(190,63,63); " description="unannotated orf[br]Location: 207 - 1204" locus_tag="CHAFR746836_0060940.1" class="clusterblast-orf" points="10,35 15,30 19,30 19,40 15,40 10,35 " id="clusterblast-2_q5_3_0"  />
<polygon style="stroke:black; stroke-width:1; fill:rgb(63,63,190); " description="unannotated orf[br]Location: 2322 - 6530" locus_tag="CHAFR746836_0060950.1" class="clusterblast-orf" points="29,40 64,40 69,35 64,30 29,30 29,40 " id="clusterblast-2_q5_3_1"  />
<polygon style="stroke:black; stroke-width:1; fill:rgb(63,190,63); " description="unannotated orf[br]Location: 10116 - 15324" locus_tag="CHAFR746836_0060960.1" class="clusterblast-orf" points="103,40 147,40 152,35 147,30 103,30 103,40 " id="clusterblast-2_q5_3_2"  />
<polygon style="stroke:black; stroke-width:1; fill:#FFFFFF; " description="unannotated orf[br]Location: 16383 - 17532" locus_tag="CHAFR746836_0060970.1" class="clusterblast-orf" points="162,35 167,30 173,30 173,40 167,40 162,35 " id="clusterblast-2_q5_3_3"  />
<polygon style="stroke:black; stroke-width:1; fill:#FFFFFF; " description="unannotated orf[br]Location: 21187 - 23857" locus_tag="CHAFR746836_0060980.1" class="clusterblast-orf" points="207,35 212,30 232,30 232,40 212,40 207,35 " id="clusterblast-2_q5_3_4"  />
<polygon style="stroke:black; stroke-width:1; fill:#FFFFFF; " description="unannotated orf[br]Location: 25860 - 27618" locus_tag="CHAFR746836_0060990.1" class="clusterblast-orf" points="251,35 256,30 268,30 268,40 256,40 251,35 " id="clusterblast-2_q5_3_5"  />
<polygon style="stroke:black; stroke-width:1; fill:#FFFFFF; " description="unannotated orf[br]Location: 28662 - 29973" locus_tag="CHAFR746836_0061000.1" class="clusterblast-orf" points="277,35 282,30 290,30 290,40 282,40 277,35 " id="clusterblast-2_q5_3_6"  />
<polygon style="stroke:black; stroke-width:1; fill:#FFFFFF; " description="unannotated orf[br]Location: 31849 - 32962" locus_tag="CHAFR746836_0061010.1" class="clusterblast-orf" points="307,35 312,30 318,30 318,40 312,40 307,35 " id="clusterblast-2_q5_3_7"  />
<polygon style="stroke:black; stroke-width:1; fill:#FFFFFF; " description="unannotated orf[br]Location: 35346 - 36469" locus_tag="CHAFR746836_0061020.1" class="clusterblast-orf" points="340,40 346,40 351,35 346,30 340,30 340,40 " id="clusterblast-2_q5_3_8"  />
<polygon style="stroke:black; stroke-width:1; fill:rgb(190,63,190); " description="unannotated orf[br]Location: 38122 - 39903" locus_tag="CHAFR746836_0061030.1" class="clusterblast-orf" points="366,40 378,40 383,35 378,30 366,30 366,40 " id="clusterblast-2_q5_3_9"  />
<polygon style="stroke:black; stroke-width:1; fill:#FFFFFF; " description="unannotated orf[br]Location: 40585 - 42854" locus_tag="CHAFR746836_0061040.1" class="clusterblast-orf" points="390,35 395,30 411,30 411,40 395,40 390,35 " id="clusterblast-2_q5_3_10"  />
<polygon style="stroke:black; stroke-width:1; fill:rgb(190,190,63); " description="unannotated orf[br]Location: 52799 - 56938" locus_tag="CHAFR746836_0061050.1" class="clusterblast-orf" points="505,35 510,30 544,30 544,40 510,40 505,35 " id="clusterblast-2_q5_3_11"  />
<polygon style="stroke:black; stroke-width:1; fill:#FFFFFF; " description="unannotated orf[br]Location: 58138 - 58734" locus_tag="CHAFR746836_0061060.1" class="clusterblast-orf" points="555,40 555,40 560,35 555,30 555,30 555,40 " id="clusterblast-2_q5_3_12"  />
<polygon style="stroke:black; stroke-width:1; fill:#FFFFFF; " description="unannotated orf[br]Location: 74060 - 75703" locus_tag="CHAFR746836_0061070.1" class="clusterblast-orf" points="705,40 715,40 720,35 715,30 705,30 705,40 " id="clusterblast-2_q5_3_13"  />
<polygon style="stroke:black; stroke-width:1; fill:rgb(190,190,190); " description="unannotated orf[br]Location: 80197 - 81757" locus_tag="CHAFR746836_0061080.2" class="clusterblast-orf" points="762,40 772,40 777,35 772,30 762,30 762,40 " id="clusterblast-2_q5_3_14"  />
<polygon style="stroke:black; stroke-width:1; fill:rgb(63,190,190); " description="unannotated orf[br]Location: 80197 - 81797" locus_tag="CHAFR746836_0061080.1" class="clusterblast-orf" points="762,40 773,40 778,35 773,30 762,30 762,40 " id="clusterblast-2_q5_3_15"  />
</g>
<g class="clusterblast-cluster" description="Ajellomyces dermatitidis ER-3 genomic scaffold supercont1.11..." label="EQ999983.1_c2"  >
<text class="clusterblast-acc" y="60" x="5"  >
EQ999983.1_c2</text>
<text class="clusterblast-desc" y="60" x="460.8"  >
Ajellomyces dermatitidis ER-3 genomic scaffold supercont1.11...</text>
<line y1="85" x2="778.0" style="stroke:grey; stroke-width:1; " x1="10" y2="85"  />
<polygon style="stroke:black; stroke-width:1; fill:#FFFFFF; " description="predicted_protein[br]Location: 1978192 - 1979068" locus_tag="BDCG_08625" id="clusterblast-2_h5_3_0" points="183,85 188,80 191,80 191,90 188,90 183,85 " class="clusterblast-orf"  />
<polygon style="stroke:black; stroke-width:1; fill:#FFFFFF; " description="siderophore_biosynthesis_acetylase_AceI[br]Location: 1980997 - 1982471" locus_tag="BDCG_08626" id="clusterblast-2_h5_3_1" points="209,90 218,90 223,85 218,80 209,80 209,90 " class="clusterblast-orf"  />
<polygon style="stroke:black; stroke-width:1; fill:#FFFFFF; " description="long-chain-fatty-acid-CoA_ligase[br]Location: 1982768 - 1984673" locus_tag="BDCG_08627" id="clusterblast-2_h5_3_2" points="226,85 231,80 244,80 244,90 231,90 226,85 " class="clusterblast-orf"  />
<polygon style="stroke:black; stroke-width:1; fill:#FFFFFF; " description="L-ornithine_5-monooxygenase[br]Location: 1985606 - 1987195" locus_tag="BDCG_08628" id="clusterblast-2_h5_3_3" points="252,90 262,90 267,85 262,80 252,80 252,90 " class="clusterblast-orf"  />
<polygon style="stroke:black; stroke-width:1; fill:#FFFFFF; " description="peroxisomal_dehydratase[br]Location: 1987603 - 1988995" locus_tag="BDCG_08629" id="clusterblast-2_h5_3_4" points="271,85 276,80 284,80 284,90 276,90 271,85 " class="clusterblast-orf"  />
<polygon style="stroke:black; stroke-width:1; fill:rgb(190,63,63); " description="conserved_hypothetical_protein[br]Location: 1989962 - 1990742&lt;br&gt;&lt;br&gt;&lt;b&gt;BlastP hit with CHAFR746836_0060940.1&lt;/b&gt;&lt;br&gt;Percentage identity: 44%&lt;br&gt;Percentage coverage: 80%&lt;br&gt;BLAST bit score: 203&lt;br&gt;E-value: 1e-62" locus_tag="BDCG_08630" id="clusterblast-2_h5_3_5" points="293,85 298,80 301,80 301,90 298,90 293,85 " class="clusterblast-orf"  />
<polygon style="stroke:black; stroke-width:1; fill:#FFFFFF; " description="siderophore_iron_transporter[br]Location: 1991359 - 1993303" locus_tag="BDCG_08631" id="clusterblast-2_h5_3_6" points="306,85 311,80 325,80 325,90 311,90 306,85 " class="clusterblast-orf"  />
<polygon style="stroke:black; stroke-width:1; fill:#FFFFFF; " description="conserved_hypothetical_protein[br]Location: 1995304 - 1996536" locus_tag="BDCG_08632" id="clusterblast-2_h5_3_7" points="344,90 350,90 355,85 350,80 344,80 344,90 " class="clusterblast-orf"  />
<polygon style="stroke:black; stroke-width:1; fill:rgb(63,190,63); " description="peptide_synthetase[br]Location: 1997194 - 2002479&lt;br&gt;&lt;br&gt;&lt;b&gt;BlastP hit with CHAFR746836_0060960.1&lt;/b&gt;&lt;br&gt;Percentage identity: 62%&lt;br&gt;Percentage coverage: 100%&lt;br&gt;BLAST bit score: 2271&lt;br&gt;E-value: 0.0&lt;br&gt;&lt;br&gt;&lt;b&gt;BlastP hit with CHAFR746836_0061050.1&lt;/b&gt;&lt;br&gt;Percentage identity: 34%&lt;br&gt;Percentage coverage: 44%&lt;br&gt;BLAST bit score: 318&lt;br&gt;E-value: 6e-88" locus_tag="BDCG_08633" id="clusterblast-2_h5_3_8" points="361,85 366,80 411,80 411,90 366,90 361,85 " class="clusterblast-orf"  />
<polygon style="stroke:black; stroke-width:1; fill:rgb(63,63,190); " description="AtrH[br]Location: 2004278 - 2008403&lt;br&gt;&lt;br&gt;&lt;b&gt;BlastP hit with CHAFR746836_0060950.1&lt;/b&gt;&lt;br&gt;Percentage identity: 54%&lt;br&gt;Percentage coverage: 99%&lt;br&gt;BLAST bit score: 1421&lt;br&gt;E-value: 0.0" locus_tag="BDCG_08634" id="clusterblast-2_h5_3_9" points="428,90 462,90 467,85 462,80 428,80 428,90 " class="clusterblast-orf"  />
<polygon style="stroke:black; stroke-width:1; fill:#FFFFFF; " description="conserved_hypothetical_protein[br]Location: 2008846 - 2010444" locus_tag="BDCG_08635" id="clusterblast-2_h5_3_10" points="471,85 476,80 486,80 486,90 476,90 471,85 " class="clusterblast-orf"  />
<polygon style="stroke:black; stroke-width:1; fill:#FFFFFF; " description="predicted_protein[br]Location: 2012251 - 2013050" locus_tag="BDCG_08636" id="clusterblast-2_h5_3_11" points="503,90 506,90 511,85 506,80 503,80 503,90 " class="clusterblast-orf"  />
<polygon style="stroke:black; stroke-width:1; fill:#FFFFFF; " description="type_I_phosphodiesterase/nucleotide[br]Location: 2014722 - 2017024" locus_tag="BDCG_08637" id="clusterblast-2_h5_3_12" points="526,85 531,80 548,80 548,90 531,90 526,85 " class="clusterblast-orf"  />
<polygon style="stroke:black; stroke-width:1; fill:#FFFFFF; " description="conserved_hypothetical_protein[br]Location: 2017506 - 2018491" locus_tag="BDCG_08638" id="clusterblast-2_h5_3_13" points="553,90 557,90 562,85 557,80 553,80 553,90 " class="clusterblast-orf"  />
<polygon style="stroke:black; stroke-width:1; fill:#FFFFFF; " description="ubiquitin_C-terminal_hydrolase[br]Location: 2020122 - 2022903" locus_tag="BDCG_08639" id="clusterblast-2_h5_3_14" points="577,90 598,90 603,85 598,80 577,80 577,90 " class="clusterblast-orf"  />
</g>
</svg>
