<svg xmlns="http://www.w3.org/2000/svg" height="230" width="800" version="1.1" y="0" x="0" preserveAspectRatio="none" xmlns:xlink="http://www.w3.org/1999/xlink" viewBox="0 0 800 230"  >
<g class="clusterblast-cluster" label="Query sequence"  >
<text class="clusterblast-acc" y="10" x="5"  >
Query sequence</text>
<line y1="35" x2="778.0" style="stroke:grey; stroke-width:1; " x1="10" y2="35"  />
<polygon style="stroke:black; stroke-width:1; fill:#FFFFFF; " description="unannotated orf[br]Location: 526 - 1764" locus_tag="CHAFR746836_0049830.1" class="clusterblast-orf" points="10,35 15,30 30,30 30,40 15,40 10,35 " id="clusterblast-1_q61_10_0"  />
<polygon style="stroke:black; stroke-width:1; fill:#FFFFFF; " description="unannotated orf[br]Location: 2667 - 6069" locus_tag="CHAFR746836_0049840.1" class="clusterblast-orf" points="44,40 95,40 100,35 95,30 44,30 44,40 " id="clusterblast-1_q61_10_1"  />
<polygon style="stroke:black; stroke-width:1; fill:#FFFFFF; " description="unannotated orf[br]Location: 8378 - 11086" locus_tag="CHAFR746836_0049850.1" class="clusterblast-orf" points="138,35 143,30 182,30 182,40 143,40 138,35 " id="clusterblast-1_q61_10_2"  />
<polygon style="stroke:black; stroke-width:1; fill:red; " description="unannotated orf[br]Location: 12115 - 13475" locus_tag="CHAFR746836_0049860.1" class="clusterblast-orf" points="198,40 216,40 221,35 216,30 198,30 198,40 " id="clusterblast-1_q61_10_3"  />
<polygon style="stroke:black; stroke-width:1; fill:#FFFFFF; " description="unannotated orf[br]Location: 17223 - 18472" locus_tag="CHAFR746836_0049870.1" class="clusterblast-orf" points="282,40 297,40 302,35 297,30 282,30 282,40 " id="clusterblast-1_q61_10_4"  />
<polygon style="stroke:black; stroke-width:1; fill:#FFFFFF; " description="unannotated orf[br]Location: 19776 - 20599" locus_tag="CHAFR746836_0049880.1" class="clusterblast-orf" points="323,35 328,30 337,30 337,40 328,40 323,35 " id="clusterblast-1_q61_10_5"  />
<polygon style="stroke:black; stroke-width:1; fill:green; " description="unannotated orf[br]Location: 21414 - 28833" locus_tag="CHAFR746836_0049890.1" class="clusterblast-orf" points="350,35 355,30 471,30 471,40 355,40 350,35 " id="clusterblast-1_q61_10_6"  />
<polygon style="stroke:black; stroke-width:1; fill:blue; " description="unannotated orf[br]Location: 33502 - 34522" locus_tag="CHAFR746836_0049900.1" class="clusterblast-orf" points="547,40 559,40 564,35 559,30 547,30 547,40 " id="clusterblast-1_q61_10_7"  />
<polygon style="stroke:black; stroke-width:1; fill:#FFFFFF; " description="unannotated orf[br]Location: 35396 - 36560" locus_tag="CHAFR746836_0049910.1" class="clusterblast-orf" points="578,35 583,30 597,30 597,40 583,40 578,35 " id="clusterblast-1_q61_10_8"  />
<polygon style="stroke:black; stroke-width:1; fill:#FFFFFF; " description="unannotated orf[br]Location: 43480 - 44101" locus_tag="CHAFR746836_0049920.1" class="clusterblast-orf" points="710,35 715,30 720,30 720,40 715,40 710,35 " id="clusterblast-1_q61_10_9"  />
<polygon style="stroke:black; stroke-width:1; fill:#FFFFFF; " description="unannotated orf[br]Location: 46657 - 47620" locus_tag="CHAFR746836_0049930.1" class="clusterblast-orf" points="762,35 767,30 778,30 778,40 767,40 762,35 " id="clusterblast-1_q61_10_10"  />
</g>
<g class="clusterblast-cluster" description="Verticillium dahliae VdLs.17 supercont1.5 genomic scaffold,..." label="DS572699.1_c2"  >
<text class="clusterblast-acc" y="60" x="5"  >
DS572699.1_c2</text>
<text class="clusterblast-desc" y="60" x="460.8"  >
Verticillium dahliae VdLs.17 supercont1.5 genomic scaffold,...</text>
<line y1="85" x2="778.0" style="stroke:grey; stroke-width:1; " x1="10" y2="85"  />
<polygon style="stroke:black; stroke-width:1; fill:#FFFFFF; " description="hypothetical_protein[br]Location: 1500448 - 1501474" locus_tag="VDAG_03457" id="clusterblast-1_h61_10_0" points="33,85 38,80 49,80 49,90 38,90 33,85 " class="clusterblast-orf"  />
<polygon style="stroke:black; stroke-width:1; fill:#FFFFFF; " description="hypothetical_protein[br]Location: 1501949 - 1502650" locus_tag="VDAG_03458" id="clusterblast-1_h61_10_1" points="57,90 63,90 68,85 63,80 57,80 57,90 " class="clusterblast-orf"  />
<polygon style="stroke:black; stroke-width:1; fill:#FFFFFF; " description="mitochondrial_inner_membrane_translocase_subunit[br]Location: 1503228 - 1504912" locus_tag="VDAG_03459" id="clusterblast-1_h61_10_2" points="78,85 83,80 105,80 105,90 83,90 78,85 " class="clusterblast-orf"  />
<polygon style="stroke:black; stroke-width:1; fill:#FFFFFF; " description="mitochondrial_ribosomal_protein_S18[br]Location: 1505384 - 1506130" locus_tag="VDAG_03460" id="clusterblast-1_h61_10_3" points="113,90 120,90 125,85 120,80 113,80 113,90 " class="clusterblast-orf"  />
<polygon style="stroke:black; stroke-width:1; fill:#FFFFFF; " description="hag1[br]Location: 1506436 - 1507278" locus_tag="VDAG_03461" id="clusterblast-1_h61_10_4" points="130,85 135,80 144,80 144,90 135,90 130,85 " class="clusterblast-orf"  />
<polygon style="stroke:black; stroke-width:1; fill:#FFFFFF; " description="GTP-dependent_nucleic_acid-binding_protein_engD[br]Location: 1508332 - 1509968" locus_tag="VDAG_03462" id="clusterblast-1_h61_10_5" points="161,90 183,90 188,85 183,80 161,80 161,90 " class="clusterblast-orf"  />
<polygon style="stroke:black; stroke-width:1; fill:#FFFFFF; " description="exopolygalacturonase[br]Location: 1510190 - 1512025" locus_tag="VDAG_03463" id="clusterblast-1_h61_10_6" points="191,85 196,80 221,80 221,90 196,90 191,85 " class="clusterblast-orf"  />
<polygon style="stroke:black; stroke-width:1; fill:#FFFFFF; " description="thioredoxin[br]Location: 1512752 - 1513198" locus_tag="VDAG_03464" id="clusterblast-1_h61_10_7" points="233,85 238,80 240,80 240,90 238,90 233,85 " class="clusterblast-orf"  />
<polygon style="stroke:black; stroke-width:1; fill:#FFFFFF; " description="drug_resistance_protein[br]Location: 1514042 - 1515821" locus_tag="VDAG_03465" id="clusterblast-1_h61_10_8" points="254,90 278,90 283,85 278,80 254,80 254,90 " class="clusterblast-orf"  />
<polygon style="stroke:black; stroke-width:1; fill:green; " description="fatty_acid_synthase_S-acetyltransferase[br]Location: 1516713 - 1523486&lt;br&gt;&lt;br&gt;&lt;b&gt;BlastP hit with CHAFR746836_0049890.1&lt;/b&gt;&lt;br&gt;Percentage identity: 46%&lt;br&gt;Percentage coverage: 89%&lt;br&gt;BLAST bit score: 1808&lt;br&gt;E-value: 0.0" locus_tag="VDAG_03466" id="clusterblast-1_h61_10_9" points="298,85 303,80 408,80 408,90 303,90 298,85 " class="clusterblast-orf"  />
<polygon style="stroke:black; stroke-width:1; fill:blue; " description="hypothetical_protein[br]Location: 1524238 - 1525299&lt;br&gt;&lt;br&gt;&lt;b&gt;BlastP hit with CHAFR746836_0049900.1&lt;/b&gt;&lt;br&gt;Percentage identity: 41%&lt;br&gt;Percentage coverage: 96%&lt;br&gt;BLAST bit score: 193&lt;br&gt;E-value: 2e-58" locus_tag="VDAG_03467" id="clusterblast-1_h61_10_10" points="420,90 433,90 438,85 433,80 420,80 420,90 " class="clusterblast-orf"  />
<polygon style="stroke:black; stroke-width:1; fill:#FFFFFF; " description="3-hydroxyisobutyrate_dehydrogenase[br]Location: 1525907 - 1529426" locus_tag="VDAG_03468" id="clusterblast-1_h61_10_11" points="448,85 453,80 505,80 505,90 453,90 448,85 " class="clusterblast-orf"  />
<polygon style="stroke:black; stroke-width:1; fill:#FFFFFF; " description="hypothetical_protein[br]Location: 1530013 - 1532403" locus_tag="VDAG_03469" id="clusterblast-1_h61_10_12" points="515,90 549,90 554,85 549,80 515,80 515,90 " class="clusterblast-orf"  />
<polygon style="stroke:black; stroke-width:1; fill:#FFFFFF; " description="phthalate_transporter[br]Location: 1533491 - 1535100" locus_tag="VDAG_03470" id="clusterblast-1_h61_10_13" points="571,90 593,90 598,85 593,80 571,80 571,90 " class="clusterblast-orf"  />
<polygon style="stroke:black; stroke-width:1; fill:#FFFFFF; " description="hypothetical_protein[br]Location: 1535841 - 1536458" locus_tag="VDAG_03471" id="clusterblast-1_h61_10_14" points="610,90 615,90 620,85 615,80 610,80 610,90 " class="clusterblast-orf"  />
<polygon style="stroke:black; stroke-width:1; fill:#FFFFFF; " description="hypothetical_protein[br]Location: 1537220 - 1538028" locus_tag="VDAG_03472" id="clusterblast-1_h61_10_15" points="632,85 637,80 645,80 645,90 637,90 632,85 " class="clusterblast-orf"  />
<polygon style="stroke:black; stroke-width:1; fill:#FFFFFF; " description="cutinase-2[br]Location: 1539140 - 1539869" locus_tag="VDAG_03473" id="clusterblast-1_h61_10_16" points="663,85 668,80 675,80 675,90 668,90 663,85 " class="clusterblast-orf"  />
<polygon style="stroke:black; stroke-width:1; fill:#FFFFFF; " description="vacuolar_protein_sorting-associated_protein[br]Location: 1542234 - 1544693" locus_tag="VDAG_03474" id="clusterblast-1_h61_10_17" points="714,90 749,90 754,85 749,80 714,80 714,90 " class="clusterblast-orf"  />
</g>
</svg>
