<svg xmlns="http://www.w3.org/2000/svg" height="230" width="800" version="1.1" y="0" x="0" preserveAspectRatio="none" xmlns:xlink="http://www.w3.org/1999/xlink" viewBox="0 0 800 230"  >
<g class="clusterblast-cluster" label="Query sequence"  >
<text class="clusterblast-acc" y="10" x="5"  >
Query sequence</text>
<line y1="35" x2="778.0" style="stroke:grey; stroke-width:1; " x1="10" y2="35"  />
<polygon style="stroke:black; stroke-width:1; fill:rgb(190,63,63); " description="unannotated orf[br]Location: 30881 - 32561" locus_tag="CHAFR746836_0027740.1" class="clusterblast-orf" points="105,35 110,30 124,30 124,40 110,40 105,35 " id="clusterblast-1_q41_1_0"  />
<polygon style="stroke:black; stroke-width:1; fill:#FFFFFF; " description="unannotated orf[br]Location: 34136 - 35442" locus_tag="CHAFR746836_0027750.1" class="clusterblast-orf" points="142,35 147,30 157,30 157,40 147,40 142,35 " id="clusterblast-1_q41_1_1"  />
<polygon style="stroke:black; stroke-width:1; fill:#FFFFFF; " description="unannotated orf[br]Location: 37053 - 38397" locus_tag="CHAFR746836_0027760.1" class="clusterblast-orf" points="175,40 186,40 191,35 186,30 175,30 175,40 " id="clusterblast-1_q41_1_2"  />
<polygon style="stroke:black; stroke-width:1; fill:#FFFFFF; " description="unannotated orf[br]Location: 40290 - 42003" locus_tag="CHAFR746836_0027770.1" class="clusterblast-orf" points="213,40 227,40 232,35 227,30 213,30 213,40 " id="clusterblast-1_q41_1_3"  />
<polygon style="stroke:black; stroke-width:1; fill:rgb(63,63,190); " description="unannotated orf[br]Location: 43155 - 44512" locus_tag="CHAFR746836_0027780.1" class="clusterblast-orf" points="246,35 251,30 261,30 261,40 251,40 246,35 " id="clusterblast-1_q41_1_4"  />
<polygon style="stroke:black; stroke-width:1; fill:rgb(63,190,63); " description="unannotated orf[br]Location: 46073 - 47620" locus_tag="CHAFR746836_0027790.1" class="clusterblast-orf" points="279,35 284,30 297,30 297,40 284,40 279,35 " id="clusterblast-1_q41_1_5"  />
<polygon style="stroke:black; stroke-width:1; fill:rgb(190,63,190); " description="unannotated orf[br]Location: 52322 - 58590" locus_tag="CHAFR746836_0027800.1" class="clusterblast-orf" points="351,40 418,40 423,35 418,30 351,30 351,40 " id="clusterblast-1_q41_1_6"  />
<polygon style="stroke:black; stroke-width:1; fill:rgb(190,190,63); " description="unannotated orf[br]Location: 60356 - 65267" locus_tag="CHAFR746836_0027810.1" class="clusterblast-orf" points="443,40 495,40 500,35 495,30 443,30 443,40 " id="clusterblast-1_q41_1_7"  />
<polygon style="stroke:black; stroke-width:1; fill:#FFFFFF; " description="unannotated orf[br]Location: 65402 - 66046" locus_tag="CHAFR746836_0027820.1" class="clusterblast-orf" points="501,35 506,30 509,30 509,40 506,40 501,35 " id="clusterblast-1_q41_1_8"  />
<polygon style="stroke:black; stroke-width:1; fill:rgb(190,190,190); " description="unannotated orf[br]Location: 66248 - 81117" locus_tag="CHAFR746836_0027830.1" class="clusterblast-orf" points="511,40 677,40 682,35 677,30 511,30 511,40 " id="clusterblast-1_q41_1_9"  />
</g>
<g class="clusterblast-cluster" description="Aspergillus fumigatus A1163 scf 000004 genomic scaffold, who..." label="DS499597.1_c2"  >
<text class="clusterblast-acc" y="60" x="5"  >
DS499597.1_c2</text>
<text class="clusterblast-desc" y="60" x="460.8"  >
Aspergillus fumigatus A1163 scf 000004 genomic scaffold, who...</text>
<line y1="85" x2="778.0" style="stroke:grey; stroke-width:1; " x1="10" y2="85"  />
<polygon style="stroke:black; stroke-width:1; fill:#FFFFFF; " description="dihydroxyacetone_kinase_(DakA),_putative[br]Location: 3203125 - 3205141" locus_tag="AFUB_060350" id="clusterblast-1_h41_1_0" points="10,90 28,90 33,85 28,80 10,80 10,90 " class="clusterblast-orf"  />
<polygon style="stroke:black; stroke-width:1; fill:#FFFFFF; " description="conserved_hypothetical_protein[br]Location: 3206468 - 3206767" locus_tag="AFUB_060360" id="clusterblast-1_h41_1_1" points="48,90 51,85 48,80 48,90 " class="clusterblast-orf"  />
<polygon style="stroke:black; stroke-width:1; fill:rgb(190,190,63); " description="TPR_domain_protein[br]Location: 3208511 - 3210858&lt;br&gt;&lt;br&gt;&lt;b&gt;BlastP hit with CHAFR746836_0027810.1&lt;/b&gt;&lt;br&gt;Percentage identity: 36%&lt;br&gt;Percentage coverage: 54%&lt;br&gt;BLAST bit score: 465&lt;br&gt;E-value: 8e-145" locus_tag="AFUB_060370" id="clusterblast-1_h41_1_2" points="71,90 93,90 98,85 93,80 71,80 71,90 " class="clusterblast-orf"  />
<polygon style="stroke:black; stroke-width:1; fill:#FFFFFF; " description="hypothetical_protein[br]Location: 3211822 - 3212947" locus_tag="AFUB_060380" id="clusterblast-1_h41_1_3" points="110,85 115,80 122,80 122,90 115,90 110,85 " class="clusterblast-orf"  />
<polygon style="stroke:black; stroke-width:1; fill:#FFFFFF; " description="ABC_multidrug_transporter,_putative[br]Location: 3213295 - 3215291" locus_tag="AFUB_060390" id="clusterblast-1_h41_1_4" points="126,85 131,80 149,80 149,90 131,90 126,85 " class="clusterblast-orf"  />
<polygon style="stroke:black; stroke-width:1; fill:rgb(190,63,190); " description="nonribosomal_peptide_synthase,_putative[br]Location: 3224060 - 3249608&lt;br&gt;&lt;br&gt;&lt;b&gt;BlastP hit with CHAFR746836_0027800.1&lt;/b&gt;&lt;br&gt;Percentage identity: 31%&lt;br&gt;Percentage coverage: 61%&lt;br&gt;BLAST bit score: 397&lt;br&gt;E-value: 9e-111" locus_tag="AFUB_060400" id="clusterblast-1_h41_1_5" points="250,90 539,90 544,85 539,80 250,80 250,90 " class="clusterblast-orf"  />
<polygon style="stroke:black; stroke-width:1; fill:#FFFFFF; " description="MFS_multidrug_transporter,_putative[br]Location: 3250761 - 3252316" locus_tag="AFUB_060410" id="clusterblast-1_h41_1_6" points="557,90 570,90 575,85 570,80 557,80 557,90 " class="clusterblast-orf"  />
<polygon style="stroke:black; stroke-width:1; fill:#FFFFFF; " description="hypothetical_protein[br]Location: 3253856 - 3255456" locus_tag="AFUB_060420" id="clusterblast-1_h41_1_7" points="593,85 598,80 611,80 611,90 598,90 593,85 " class="clusterblast-orf"  />
<polygon style="stroke:black; stroke-width:1; fill:#FFFFFF; " description="CCCH_zinc_finger_DNA_binding_protein[br]Location: 3256424 - 3257960" locus_tag="AFUB_060430" id="clusterblast-1_h41_1_8" points="622,85 627,80 640,80 640,90 627,90 622,85 " class="clusterblast-orf"  />
<polygon style="stroke:black; stroke-width:1; fill:#FFFFFF; " description="metallo-beta-lactamase_family_protein[br]Location: 3258635 - 3259663" locus_tag="AFUB_060440" id="clusterblast-1_h41_1_9" points="648,85 653,80 660,80 660,90 653,90 648,85 " class="clusterblast-orf"  />
<polygon style="stroke:black; stroke-width:1; fill:#FFFFFF; " description="Kelch_repeat_protein[br]Location: 3261597 - 3262651" locus_tag="AFUB_060450" id="clusterblast-1_h41_1_10" points="682,90 689,90 694,85 689,80 682,80 682,90 " class="clusterblast-orf"  />
<polygon style="stroke:black; stroke-width:1; fill:#FFFFFF; " description="mitochondrial_3-hydroxyisobutyryl-CoA_hydrolase,[br]Location: 3262836 - 3264689" locus_tag="AFUB_060460" id="clusterblast-1_h41_1_11" points="696,85 701,80 717,80 717,90 701,90 696,85 " class="clusterblast-orf"  />
<polygon style="stroke:black; stroke-width:1; fill:#FFFFFF; " description="50S_ribosomal_protein_L4[br]Location: 3264919 - 3265677" locus_tag="AFUB_060470" id="clusterblast-1_h41_1_12" points="720,85 725,80 729,80 729,90 725,90 720,85 " class="clusterblast-orf"  />
<polygon style="stroke:black; stroke-width:1; fill:#FFFFFF; " description="mitochondrial_large_ribosomal_subunit_YmL35,[br]Location: 3266082 - 3267417" locus_tag="AFUB_060480" id="clusterblast-1_h41_1_13" points="733,90 744,90 749,85 744,80 733,80 733,90 " class="clusterblast-orf"  />
<polygon style="stroke:black; stroke-width:1; fill:#FFFFFF; " description="mitochondrial_inner_membrane_protease_subunit_1,[br]Location: 3267596 - 3268199" locus_tag="AFUB_060490" id="clusterblast-1_h41_1_14" points="751,85 756,80 758,80 758,90 756,90 751,85 " class="clusterblast-orf"  />
<polygon style="stroke:black; stroke-width:1; fill:#FFFFFF; " description="DUF1264_domain_protein[br]Location: 3269087 - 3269909" locus_tag="AFUB_060500" id="clusterblast-1_h41_1_15" points="768,85 773,80 778,80 778,90 773,90 768,85 " class="clusterblast-orf"  />
</g>
</svg>
