<svg xmlns="http://www.w3.org/2000/svg" height="230" width="800" version="1.1" y="0" x="0" preserveAspectRatio="none" xmlns:xlink="http://www.w3.org/1999/xlink" viewBox="0 0 800 230"  >
<g class="clusterblast-cluster" label="Query sequence"  >
<text class="clusterblast-acc" y="10" x="5"  >
Query sequence</text>
<line y1="35" x2="778.0" style="stroke:grey; stroke-width:1; " x1="10" y2="35"  />
<polygon style="stroke:black; stroke-width:1; fill:rgb(190,63,63); " description="unannotated orf[br]Location: 74290 - 75458" locus_tag="CHAFR746836_0084510.1" class="clusterblast-orf" points="225,40 243,40 248,35 243,30 225,30 225,40 " id="clusterblast-1_q15_8_0"  />
<polygon style="stroke:black; stroke-width:1; fill:#FFFFFF; " description="unannotated orf[br]Location: 75669 - 76875" locus_tag="CHAFR746836_0084520.1" class="clusterblast-orf" points="253,35 258,30 278,30 278,40 258,40 253,35 " id="clusterblast-1_q15_8_1"  />
<polygon style="stroke:black; stroke-width:1; fill:rgb(63,63,190); " description="unannotated orf[br]Location: 78561 - 80604" locus_tag="CHAFR746836_0084530.1" class="clusterblast-orf" points="312,35 317,30 354,30 354,40 317,40 312,35 " id="clusterblast-1_q15_8_2"  />
<polygon style="stroke:black; stroke-width:1; fill:rgb(63,190,63); " description="unannotated orf[br]Location: 81404 - 83288" locus_tag="CHAFR746836_0084540.1" class="clusterblast-orf" points="371,40 404,40 409,35 404,30 371,30 371,40 " id="clusterblast-1_q15_8_3"  />
<polygon style="stroke:black; stroke-width:1; fill:rgb(190,63,190); " description="unannotated orf[br]Location: 83676 - 85677" locus_tag="CHAFR746836_0084550.1" class="clusterblast-orf" points="417,40 453,40 458,35 453,30 417,30 417,40 " id="clusterblast-1_q15_8_4"  />
<polygon style="stroke:black; stroke-width:1; fill:rgb(190,190,63); " description="unannotated orf[br]Location: 86720 - 88095" locus_tag="CHAFR746836_0084560.1" class="clusterblast-orf" points="480,40 503,40 508,35 503,30 480,30 480,40 " id="clusterblast-1_q15_8_5"  />
<polygon style="stroke:black; stroke-width:1; fill:#FFFFFF; " description="unannotated orf[br]Location: 88452 - 90694" locus_tag="CHAFR746836_0084570.1" class="clusterblast-orf" points="515,35 520,30 562,30 562,40 520,40 515,35 " id="clusterblast-1_q15_8_6"  />
</g>
<g class="clusterblast-cluster" description="Verticillium dahliae VdLs.17 supercont1.1 genomic scaffold, ..." label="DS572695.1_c2"  >
<text class="clusterblast-acc" y="60" x="5"  >
DS572695.1_c2</text>
<text class="clusterblast-desc" y="60" x="460.8"  >
Verticillium dahliae VdLs.17 supercont1.1 genomic scaffold, ...</text>
<line y1="85" x2="778.0" style="stroke:grey; stroke-width:1; " x1="10" y2="85"  />
<polygon style="stroke:black; stroke-width:1; fill:#FFFFFF; " description="hypothetical_protein[br]Location: 1029113 - 1030954" locus_tag="VDAG_00313" id="clusterblast-1_h15_8_0" points="10,90 42,90 47,85 42,80 10,80 10,90 " class="clusterblast-orf"  />
<polygon style="stroke:black; stroke-width:1; fill:#FFFFFF; " description="chaperone_protein_dnaK[br]Location: 1031364 - 1033179" locus_tag="VDAG_00314" id="clusterblast-1_h15_8_1" points="56,85 61,80 93,80 93,90 61,90 56,85 " class="clusterblast-orf"  />
<polygon style="stroke:black; stroke-width:1; fill:#FFFFFF; " description="exosome_complex_exonuclease_RRP40[br]Location: 1033660 - 1034475" locus_tag="VDAG_00315" id="clusterblast-1_h15_8_2" points="103,90 115,90 120,85 115,80 103,80 103,90 " class="clusterblast-orf"  />
<polygon style="stroke:black; stroke-width:1; fill:#FFFFFF; " description="hypothetical_protein[br]Location: 1034945 - 1037116" locus_tag="VDAG_00316" id="clusterblast-1_h15_8_3" points="129,85 134,80 174,80 174,90 134,90 129,85 " class="clusterblast-orf"  />
<polygon style="stroke:black; stroke-width:1; fill:#FFFFFF; " description="cryptochrome_DASH[br]Location: 1043160 - 1045315" locus_tag="VDAG_00317" id="clusterblast-1_h15_8_4" points="298,90 337,90 342,85 337,80 298,80 298,90 " class="clusterblast-orf"  />
<polygon style="stroke:black; stroke-width:1; fill:#FFFFFF; " description="hypothetical_protein[br]Location: 1045588 - 1047070" locus_tag="VDAG_00318" id="clusterblast-1_h15_8_5" points="348,85 353,80 378,80 378,90 353,90 348,85 " class="clusterblast-orf"  />
<polygon style="stroke:black; stroke-width:1; fill:rgb(63,190,63); " description="phytoene_synthase[br]Location: 1047954 - 1049998&lt;br&gt;&lt;br&gt;&lt;b&gt;BlastP hit with CHAFR746836_0084540.1&lt;/b&gt;&lt;br&gt;Percentage identity: 45%&lt;br&gt;Percentage coverage: 110%&lt;br&gt;BLAST bit score: 506&lt;br&gt;E-value: 1e-170" locus_tag="VDAG_00319" id="clusterblast-1_h15_8_6" points="397,85 402,80 439,80 439,90 402,90 397,85 " class="clusterblast-orf"  />
<polygon style="stroke:black; stroke-width:1; fill:rgb(190,63,190); " description="phytoene_dehydrogenase[br]Location: 1052003 - 1053826&lt;br&gt;&lt;br&gt;&lt;b&gt;BlastP hit with CHAFR746836_0084550.1&lt;/b&gt;&lt;br&gt;Percentage identity: 61%&lt;br&gt;Percentage coverage: 93%&lt;br&gt;BLAST bit score: 698&lt;br&gt;E-value: 0.0" locus_tag="VDAG_00320" id="clusterblast-1_h15_8_7" points="480,90 512,90 517,85 512,80 480,80 480,90 " class="clusterblast-orf"  />
<polygon style="stroke:black; stroke-width:1; fill:#FFFFFF; " description="hypothetical_protein[br]Location: 1055179 - 1055442" locus_tag="VDAG_00321" id="clusterblast-1_h15_8_8" points="545,90 545,90 550,85 545,80 545,80 545,90 " class="clusterblast-orf"  />
<polygon style="stroke:black; stroke-width:1; fill:rgb(190,63,63); " description="chitinase[br]Location: 1057424 - 1059235&lt;br&gt;&lt;br&gt;&lt;b&gt;BlastP hit with CHAFR746836_0084510.1&lt;/b&gt;&lt;br&gt;Percentage identity: 33%&lt;br&gt;Percentage coverage: 91%&lt;br&gt;BLAST bit score: 138&lt;br&gt;E-value: 2e-35" locus_tag="VDAG_00322" id="clusterblast-1_h15_8_9" points="591,90 623,90 628,85 623,80 591,80 591,90 " class="clusterblast-orf"  />
<polygon style="stroke:black; stroke-width:1; fill:#FFFFFF; " description="oxysterol-binding_protein[br]Location: 1060419 - 1064337" locus_tag="VDAG_00323" id="clusterblast-1_h15_8_10" points="653,90 728,90 733,85 728,80 653,80 653,90 " class="clusterblast-orf"  />
<polygon style="stroke:black; stroke-width:1; fill:#FFFFFF; " description="hypothetical_protein[br]Location: 1065199 - 1066495" locus_tag="VDAG_00324" id="clusterblast-1_h15_8_11" points="751,90 773,90 778,85 773,80 751,80 751,90 " class="clusterblast-orf"  />
</g>
</svg>
