<svg xmlns="http://www.w3.org/2000/svg" height="230" width="800" version="1.1" y="0" x="0" preserveAspectRatio="none" xmlns:xlink="http://www.w3.org/1999/xlink" viewBox="0 0 800 230"  >
<g class="clusterblast-cluster" label="Query sequence"  >
<text class="clusterblast-acc" y="10" x="5"  >
Query sequence</text>
<line y1="35" x2="778.0" style="stroke:grey; stroke-width:1; " x1="10" y2="35"  />
<polygon style="stroke:black; stroke-width:1; fill:red; " description="unannotated orf[br]Location: 68134 - 70502" locus_tag="CHAFR746836_0071420.1" class="clusterblast-orf" points="10,35 15,30 20,30 20,40 15,40 10,35 " id="clusterblast-1_q9_8_0"  />
<polygon style="stroke:black; stroke-width:1; fill:#FFFFFF; " description="unannotated orf[br]Location: 72327 - 73788" locus_tag="CHAFR746836_0071430.1" class="clusterblast-orf" points="28,35 33,30 35,30 35,40 33,40 28,35 " id="clusterblast-1_q9_8_1"  />
<polygon style="stroke:black; stroke-width:1; fill:#FFFFFF; " description="unannotated orf[br]Location: 76531 - 77863" locus_tag="CHAFR746836_0071440.1" class="clusterblast-orf" points="47,35 52,30 53,30 53,40 52,40 47,35 " id="clusterblast-1_q9_8_2"  />
<polygon style="stroke:black; stroke-width:1; fill:#FFFFFF; " description="unannotated orf[br]Location: 80274 - 82068" locus_tag="CHAFR746836_0071450.1" class="clusterblast-orf" points="64,40 67,40 72,35 67,30 64,30 64,40 " id="clusterblast-1_q9_8_3"  />
<polygon style="stroke:black; stroke-width:1; fill:green; " description="unannotated orf[br]Location: 84469 - 85881" locus_tag="CHAFR746836_0071460.1" class="clusterblast-orf" points="83,35 88,30 89,30 89,40 88,40 83,35 " id="clusterblast-1_q9_8_4"  />
<polygon style="stroke:black; stroke-width:1; fill:blue; " description="unannotated orf[br]Location: 86196 - 88112" locus_tag="CHAFR746836_0071470.1" class="clusterblast-orf" points="91,40 94,40 99,35 94,30 91,30 91,40 " id="clusterblast-1_q9_8_5"  />
<polygon style="stroke:black; stroke-width:1; fill:#FFFFFF; " description="unannotated orf[br]Location: 90971 - 93131" locus_tag="CHAFR746836_0071480.1" class="clusterblast-orf" points="112,35 117,30 122,30 122,40 117,40 112,35 " id="clusterblast-1_q9_8_6"  />
<polygon style="stroke:black; stroke-width:1; fill:#FFFFFF; " description="unannotated orf[br]Location: 94508 - 96197" locus_tag="CHAFR746836_0071490.1" class="clusterblast-orf" points="128,40 130,40 135,35 130,30 128,30 128,40 " id="clusterblast-1_q9_8_7"  />
<polygon style="stroke:black; stroke-width:1; fill:#FFFFFF; " description="unannotated orf[br]Location: 97454 - 99476" locus_tag="CHAFR746836_0071500.1" class="clusterblast-orf" points="141,40 145,40 150,35 145,30 141,30 141,40 " id="clusterblast-1_q9_8_8"  />
<polygon style="stroke:black; stroke-width:1; fill:#FFFFFF; " description="unannotated orf[br]Location: 100761 - 101297" locus_tag="CHAFR746836_0071510.1" class="clusterblast-orf" points="156,40 158,35 156,30 156,40 " id="clusterblast-1_q9_8_9"  />
<polygon style="stroke:black; stroke-width:1; fill:#FFFFFF; " description="unannotated orf[br]Location: 104385 - 104721" locus_tag="CHAFR746836_0071520.1" class="clusterblast-orf" points="172,40 174,35 172,30 172,40 " id="clusterblast-1_q9_8_10"  />
<polygon style="stroke:black; stroke-width:1; fill:#FFFFFF; " description="unannotated orf[br]Location: 107563 - 110227" locus_tag="CHAFR746836_0071530.1" class="clusterblast-orf" points="186,35 191,30 198,30 198,40 191,40 186,35 " id="clusterblast-1_q9_8_11"  />
<polygon style="stroke:black; stroke-width:1; fill:#FFFFFF; " description="unannotated orf[br]Location: 114742 - 115039" locus_tag="CHAFR746836_0071540.1" class="clusterblast-orf" points="219,40 220,35 219,30 219,40 " id="clusterblast-1_q9_8_12"  />
<polygon style="stroke:black; stroke-width:1; fill:#FFFFFF; " description="unannotated orf[br]Location: 123259 - 127108" locus_tag="CHAFR746836_0071550.1" class="clusterblast-orf" points="257,35 262,30 274,30 274,40 262,40 257,35 " id="clusterblast-1_q9_8_13"  />
<polygon style="stroke:black; stroke-width:1; fill:#FFFFFF; " description="unannotated orf[br]Location: 144812 - 146250" locus_tag="CHAFR746836_0071560.1" class="clusterblast-orf" points="354,35 359,30 360,30 360,40 359,40 354,35 " id="clusterblast-1_q9_8_14"  />
<polygon style="stroke:black; stroke-width:1; fill:#FFFFFF; " description="unannotated orf[br]Location: 152743 - 154459" locus_tag="CHAFR746836_0071570.1" class="clusterblast-orf" points="389,35 394,30 397,30 397,40 394,40 389,35 " id="clusterblast-1_q9_8_15"  />
<polygon style="stroke:black; stroke-width:1; fill:#FFFFFF; " description="unannotated orf[br]Location: 156531 - 157389" locus_tag="CHAFR746836_0071580.1" class="clusterblast-orf" points="406,35 410,30 410,40 406,35 " id="clusterblast-1_q9_8_16"  />
<polygon style="stroke:black; stroke-width:1; fill:#FFFFFF; " description="unannotated orf[br]Location: 164785 - 166669" locus_tag="CHAFR746836_0071590.1" class="clusterblast-orf" points="443,40 447,40 452,35 447,30 443,30 443,40 " id="clusterblast-1_q9_8_17"  />
<polygon style="stroke:black; stroke-width:1; fill:#FFFFFF; " description="unannotated orf[br]Location: 201968 - 203433" locus_tag="CHAFR746836_0071600.1" class="clusterblast-orf" points="610,40 612,40 617,35 612,30 610,30 610,40 " id="clusterblast-1_q9_8_18"  />
<polygon style="stroke:black; stroke-width:1; fill:#FFFFFF; " description="unannotated orf[br]Location: 204836 - 205972" locus_tag="CHAFR746836_0071610.1" class="clusterblast-orf" points="623,40 623,40 628,35 623,30 623,30 623,40 " id="clusterblast-1_q9_8_19"  />
<polygon style="stroke:black; stroke-width:1; fill:#FFFFFF; " description="unannotated orf[br]Location: 207637 - 210779" locus_tag="CHAFR746836_0071620.1" class="clusterblast-orf" points="636,35 641,30 650,30 650,40 641,40 636,35 " id="clusterblast-1_q9_8_20"  />
<polygon style="stroke:black; stroke-width:1; fill:#FFFFFF; " description="unannotated orf[br]Location: 211916 - 213325" locus_tag="CHAFR746836_0071630.1" class="clusterblast-orf" points="655,35 660,30 661,30 661,40 660,40 655,35 " id="clusterblast-1_q9_8_21"  />
<polygon style="stroke:black; stroke-width:1; fill:yellow; " description="unannotated orf[br]Location: 215213 - 216863" locus_tag="CHAFR746836_0071640.1" class="clusterblast-orf" points="670,35 675,30 677,30 677,40 675,40 670,35 " id="clusterblast-1_q9_8_22"  />
<polygon style="stroke:black; stroke-width:1; fill:#FFFFFF; " description="unannotated orf[br]Location: 224691 - 226010" locus_tag="CHAFR746836_0071650.1" class="clusterblast-orf" points="712,40 713,40 718,35 713,30 712,30 712,40 " id="clusterblast-1_q9_8_23"  />
<polygon style="stroke:black; stroke-width:1; fill:#FFFFFF; " description="unannotated orf[br]Location: 230972 - 232109" locus_tag="CHAFR746836_0071660.1" class="clusterblast-orf" points="740,40 740,40 745,35 740,30 740,30 740,40 " id="clusterblast-1_q9_8_24"  />
<polygon style="stroke:black; stroke-width:1; fill:#FFFFFF; " description="unannotated orf[br]Location: 233318 - 234463" locus_tag="CHAFR746836_0071670.1" class="clusterblast-orf" points="751,35 756,30 756,30 756,40 756,40 751,35 " id="clusterblast-1_q9_8_25"  />
<polygon style="stroke:black; stroke-width:1; fill:#FFFFFF; " description="unannotated orf[br]Location: 234897 - 236194" locus_tag="CHAFR746836_0071680.1" class="clusterblast-orf" points="758,40 759,40 764,35 759,30 758,30 758,40 " id="clusterblast-1_q9_8_26"  />
<polygon style="stroke:black; stroke-width:1; fill:#FFFFFF; " description="unannotated orf[br]Location: 236494 - 237888" locus_tag="CHAFR746836_0071690.1" class="clusterblast-orf" points="765,35 770,30 771,30 771,40 770,40 765,35 " id="clusterblast-1_q9_8_27"  />
<polygon style="stroke:black; stroke-width:1; fill:#FFFFFF; " description="unannotated orf[br]Location: 238790 - 239245" locus_tag="CHAFR746836_0071700.1" class="clusterblast-orf" points="775,40 778,35 775,30 775,40 " id="clusterblast-1_q9_8_28"  />
</g>
<g class="clusterblast-cluster" description="Rhodococcus equi 103S, complete genome." label="NC_014659.1_c12"  >
<text class="clusterblast-acc" y="60" x="5"  >
NC_014659.1_c12</text>
<text class="clusterblast-desc" y="60" x="460.8"  >
Rhodococcus equi 103S, complete genome.</text>
<line y1="85" x2="778.0" style="stroke:grey; stroke-width:1; " x1="10" y2="85"  />
<polygon style="stroke:black; stroke-width:1; fill:#FFFFFF; " description="30S_ribosomal_protein_s13_rpsm[br]Location: 3779937 - 3780305" locus_tag="REQ_35600" id="clusterblast-1_h9_8_0" points="204,85 205,80 205,90 204,85 " class="clusterblast-orf"  />
<polygon style="stroke:black; stroke-width:1; fill:#FFFFFF; " description="50S_ribosomal_protein_l36_rpmj[br]Location: 3780516 - 3780629" locus_tag="REQ_35610" id="clusterblast-1_h9_8_1" points="206,85 207,80 207,90 206,85 " class="clusterblast-orf"  />
<polygon style="stroke:black; stroke-width:1; fill:#FFFFFF; " description="translation_initiation_factor_1a_infa[br]Location: 3780707 - 3780928" locus_tag="REQ_35620" id="clusterblast-1_h9_8_2" points="207,85 208,80 208,90 207,85 " class="clusterblast-orf"  />
<polygon style="stroke:black; stroke-width:1; fill:#FFFFFF; " description="d-amino_acid_deacylase[br]Location: 3781158 - 3781595" locus_tag="REQ_35630" id="clusterblast-1_h9_8_3" points="209,90 211,85 209,80 209,90 " class="clusterblast-orf"  />
<polygon style="stroke:black; stroke-width:1; fill:#FFFFFF; " description="metallopeptidase[br]Location: 3781682 - 3782485" locus_tag="REQ_35640" id="clusterblast-1_h9_8_4" points="211,85 215,80 215,90 211,85 " class="clusterblast-orf"  />
<polygon style="stroke:black; stroke-width:1; fill:#FFFFFF; " description="adenylate_kinase[br]Location: 3782485 - 3783030" locus_tag="REQ_35650" id="clusterblast-1_h9_8_5" points="215,85 217,80 217,90 215,85 " class="clusterblast-orf"  />
<polygon style="stroke:black; stroke-width:1; fill:#FFFFFF; " description="preprotein_translocase_secy[br]Location: 3783027 - 3784349" locus_tag="REQ_35660" id="clusterblast-1_h9_8_6" points="217,85 222,80 223,80 223,90 222,90 217,85 " class="clusterblast-orf"  />
<polygon style="stroke:black; stroke-width:1; fill:#FFFFFF; " description="50S_ribosomal_protein_l15_rplo[br]Location: 3784572 - 3785012" locus_tag="REQ_35670" id="clusterblast-1_h9_8_7" points="224,85 226,80 226,90 224,85 " class="clusterblast-orf"  />
<polygon style="stroke:black; stroke-width:1; fill:#FFFFFF; " description="50S_ribosomal_protein_l30_rpmd[br]Location: 3785015 - 3785194" locus_tag="REQ_35680" id="clusterblast-1_h9_8_8" points="226,85 227,80 227,90 226,85 " class="clusterblast-orf"  />
<polygon style="stroke:black; stroke-width:1; fill:#FFFFFF; " description="30S_ribosomal_protein_s5_rpse[br]Location: 3785194 - 3785835" locus_tag="REQ_35690" id="clusterblast-1_h9_8_9" points="227,85 230,80 230,90 227,85 " class="clusterblast-orf"  />
<polygon style="stroke:black; stroke-width:1; fill:#FFFFFF; " description="50S_ribosomal_protein_l18_rplr[br]Location: 3785867 - 3786274" locus_tag="REQ_35700" id="clusterblast-1_h9_8_10" points="230,85 232,80 232,90 230,85 " class="clusterblast-orf"  />
<polygon style="stroke:black; stroke-width:1; fill:#FFFFFF; " description="50S_ribosomal_protein_l6_rplf[br]Location: 3786276 - 3786815" locus_tag="REQ_35710" id="clusterblast-1_h9_8_11" points="232,85 234,80 234,90 232,85 " class="clusterblast-orf"  />
<polygon style="stroke:black; stroke-width:1; fill:#FFFFFF; " description="30S_ribosomal_protein_s8_rpsh[br]Location: 3786830 - 3787228" locus_tag="REQ_35720" id="clusterblast-1_h9_8_12" points="234,85 236,80 236,90 234,85 " class="clusterblast-orf"  />
<polygon style="stroke:black; stroke-width:1; fill:#FFFFFF; " description="30S_ribosomal_protein_s14_rpsn1[br]Location: 3787399 - 3787584" locus_tag="REQ_35730" id="clusterblast-1_h9_8_13" points="237,85 238,80 238,90 237,85 " class="clusterblast-orf"  />
<polygon style="stroke:black; stroke-width:1; fill:#FFFFFF; " description="50S_ribosomal_protein_l5_rple[br]Location: 3787589 - 3788155" locus_tag="REQ_35740" id="clusterblast-1_h9_8_14" points="238,85 240,80 240,90 238,85 " class="clusterblast-orf"  />
<polygon style="stroke:black; stroke-width:1; fill:#FFFFFF; " description="50S_ribosomal_protein_l24_rplx[br]Location: 3788157 - 3788477" locus_tag="REQ_35750" id="clusterblast-1_h9_8_15" points="240,85 242,80 242,90 240,85 " class="clusterblast-orf"  />
<polygon style="stroke:black; stroke-width:1; fill:#FFFFFF; " description="50S_ribosomal_protein_l14_rpln[br]Location: 3788474 - 3788842" locus_tag="REQ_35760" id="clusterblast-1_h9_8_16" points="242,85 243,80 243,90 242,85 " class="clusterblast-orf"  />
<polygon style="stroke:black; stroke-width:1; fill:#FFFFFF; " description="30S_ribosomal_protein_s17_rpsq[br]Location: 3789013 - 3789303" locus_tag="REQ_35770" id="clusterblast-1_h9_8_17" points="244,85 246,80 246,90 244,85 " class="clusterblast-orf"  />
<polygon style="stroke:black; stroke-width:1; fill:#FFFFFF; " description="50S_ribosomal_protein_l29_rpmc[br]Location: 3789300 - 3789536" locus_tag="REQ_35780" id="clusterblast-1_h9_8_18" points="246,85 247,80 247,90 246,85 " class="clusterblast-orf"  />
<polygon style="stroke:black; stroke-width:1; fill:#FFFFFF; " description="50S_ribosomal_protein_l16_rplp[br]Location: 3789536 - 3789952" locus_tag="REQ_35790" id="clusterblast-1_h9_8_19" points="247,85 248,80 248,90 247,85 " class="clusterblast-orf"  />
<polygon style="stroke:black; stroke-width:1; fill:#FFFFFF; " description="30S_ribosomal_protein_s3_rpsc[br]Location: 3789956 - 3790753" locus_tag="REQ_35800" id="clusterblast-1_h9_8_20" points="248,85 252,80 252,90 248,85 " class="clusterblast-orf"  />
<polygon style="stroke:black; stroke-width:1; fill:#FFFFFF; " description="50S_ribosomal_protein_l22_rplv[br]Location: 3790753 - 3791094" locus_tag="REQ_35810" id="clusterblast-1_h9_8_21" points="252,85 254,80 254,90 252,85 " class="clusterblast-orf"  />
<polygon style="stroke:black; stroke-width:1; fill:#FFFFFF; " description="30S_ribosomal_protein_s19_rpss[br]Location: 3791154 - 3791435" locus_tag="REQ_35820" id="clusterblast-1_h9_8_22" points="254,85 255,80 255,90 254,85 " class="clusterblast-orf"  />
<polygon style="stroke:black; stroke-width:1; fill:#FFFFFF; " description="50S_ribosomal_protein_l2_rplb[br]Location: 3791454 - 3792287" locus_tag="REQ_35830" id="clusterblast-1_h9_8_23" points="255,85 259,80 259,90 255,85 " class="clusterblast-orf"  />
<polygon style="stroke:black; stroke-width:1; fill:#FFFFFF; " description="50S_ribosomal_protein_l23_rplw[br]Location: 3792328 - 3792633" locus_tag="REQ_35840" id="clusterblast-1_h9_8_24" points="259,85 260,80 260,90 259,85 " class="clusterblast-orf"  />
<polygon style="stroke:black; stroke-width:1; fill:#FFFFFF; " description="50S_ribosomal_protein_l4_rpld[br]Location: 3792630 - 3793295" locus_tag="REQ_35850" id="clusterblast-1_h9_8_25" points="260,85 263,80 263,90 260,85 " class="clusterblast-orf"  />
<polygon style="stroke:black; stroke-width:1; fill:#FFFFFF; " description="50S_ribosomal_protein_l3_rplc[br]Location: 3793292 - 3793945" locus_tag="REQ_35860" id="clusterblast-1_h9_8_26" points="263,85 266,80 266,90 263,85 " class="clusterblast-orf"  />
<polygon style="stroke:black; stroke-width:1; fill:#FFFFFF; " description="30S_ribosomal_protein_s10_rpsj[br]Location: 3793974 - 3794279" locus_tag="REQ_35870" id="clusterblast-1_h9_8_27" points="267,85 268,80 268,90 267,85 " class="clusterblast-orf"  />
<polygon style="stroke:black; stroke-width:1; fill:#FFFFFF; " description="hypothetical_protein[br]Location: 3794765 - 3795244" locus_tag="REQ_35880" id="clusterblast-1_h9_8_28" points="270,90 272,85 270,80 270,90 " class="clusterblast-orf"  />
<polygon style="stroke:black; stroke-width:1; fill:#FFFFFF; " description="GntR_family_transcriptional_regulator[br]Location: 3795393 - 3796079" locus_tag="REQ_35890" id="clusterblast-1_h9_8_29" points="273,90 276,85 273,80 273,90 " class="clusterblast-orf"  />
<polygon style="stroke:black; stroke-width:1; fill:#FFFFFF; " description="ABC_transporter_ATPase[br]Location: 3796277 - 3797248" locus_tag="REQ_35900" id="clusterblast-1_h9_8_30" points="277,90 281,85 277,80 277,90 " class="clusterblast-orf"  />
<polygon style="stroke:black; stroke-width:1; fill:#FFFFFF; " description="ABC_transporter_transmembrane_protein[br]Location: 3797245 - 3798108" locus_tag="REQ_35910" id="clusterblast-1_h9_8_31" points="281,90 285,85 281,80 281,90 " class="clusterblast-orf"  />
<polygon style="stroke:black; stroke-width:1; fill:#FFFFFF; " description="ABC_transporter_transmembrane_protein[br]Location: 3798105 - 3798977" locus_tag="REQ_35920" id="clusterblast-1_h9_8_32" points="285,90 289,85 285,80 285,90 " class="clusterblast-orf"  />
<polygon style="stroke:black; stroke-width:1; fill:#FFFFFF; " description="lipase[br]Location: 3799149 - 3800081" locus_tag="REQ_35930" id="clusterblast-1_h9_8_33" points="290,90 294,85 290,80 290,90 " class="clusterblast-orf"  />
<polygon style="stroke:black; stroke-width:1; fill:#FFFFFF; " description="non-ribosomal_peptide_synthetase[br]Location: 3800161 - 3812352" locus_tag="REQ_35940" id="clusterblast-1_h9_8_34" points="294,85 299,80 349,80 349,90 299,90 294,85 " class="clusterblast-orf"  />
<polygon style="stroke:black; stroke-width:1; fill:#FFFFFF; " description="non-ribosomal_peptide_synthetase[br]Location: 3812455 - 3822999" locus_tag="REQ_35950" id="clusterblast-1_h9_8_35" points="349,85 354,80 397,80 397,90 354,90 349,85 " class="clusterblast-orf"  />
<polygon style="stroke:black; stroke-width:1; fill:#FFFFFF; " description="non-ribosomal_peptide_synthetase[br]Location: 3823252 - 3844011" locus_tag="REQ_35960" id="clusterblast-1_h9_8_36" points="398,85 403,80 491,80 491,90 403,90 398,85 " class="clusterblast-orf"  />
<polygon style="stroke:black; stroke-width:1; fill:#FFFFFF; " description="pyridoxal_5'-phosphate_synthase[br]Location: 3844365 - 3844781" locus_tag="REQ_35970" id="clusterblast-1_h9_8_37" points="493,85 495,80 495,90 493,85 " class="clusterblast-orf"  />
<polygon style="stroke:black; stroke-width:1; fill:#FFFFFF; " description="GntR_family_transcriptional_regulator[br]Location: 3844847 - 3845602" locus_tag="REQ_35980" id="clusterblast-1_h9_8_38" points="495,85 498,80 498,90 495,85 " class="clusterblast-orf"  />
<polygon style="stroke:black; stroke-width:1; fill:#FFFFFF; " description="acetoacetate-CoA_ligase[br]Location: 3845764 - 3847725" locus_tag="REQ_35990" id="clusterblast-1_h9_8_39" points="499,85 504,80 508,80 508,90 504,90 499,85 " class="clusterblast-orf"  />
<polygon style="stroke:black; stroke-width:1; fill:#FFFFFF; " description="citrate_lyase_beta_subunit[br]Location: 3847729 - 3848586" locus_tag="REQ_36000" id="clusterblast-1_h9_8_40" points="508,85 512,80 512,90 508,85 " class="clusterblast-orf"  />
<polygon style="stroke:black; stroke-width:1; fill:#FFFFFF; " description="dehydrogenase[br]Location: 3848583 - 3849056" locus_tag="REQ_36010" id="clusterblast-1_h9_8_41" points="512,85 514,80 514,90 512,85 " class="clusterblast-orf"  />
<polygon style="stroke:black; stroke-width:1; fill:green; " description="acyl-CoA_dehydrogenase/2-methylacyl-CoA[br]Location: 3849060 - 3850223&lt;br&gt;&lt;br&gt;&lt;b&gt;BlastP hit with CHAFR746836_0071460.1&lt;/b&gt;&lt;br&gt;Percentage identity: 34%&lt;br&gt;Percentage coverage: 88%&lt;br&gt;BLAST bit score: 209&lt;br&gt;E-value: 5e-61" locus_tag="REQ_36020" id="clusterblast-1_h9_8_42" points="514,85 519,80 519,80 519,90 519,90 514,85 " class="clusterblast-orf"  />
<polygon style="stroke:black; stroke-width:1; fill:red; " description="acetyl-CoA_carboxylase_alpha_subunit_acca[br]Location: 3850220 - 3852244&lt;br&gt;&lt;br&gt;&lt;b&gt;BlastP hit with CHAFR746836_0071420.1&lt;/b&gt;&lt;br&gt;Percentage identity: 37%&lt;br&gt;Percentage coverage: 94%&lt;br&gt;BLAST bit score: 412&lt;br&gt;E-value: 4e-132" locus_tag="REQ_36030" id="clusterblast-1_h9_8_43" points="519,85 524,80 528,80 528,90 524,90 519,85 " class="clusterblast-orf"  />
<polygon style="stroke:black; stroke-width:1; fill:blue; " description="biotin_dependent_carboxylase[br]Location: 3852253 - 3853755&lt;br&gt;&lt;br&gt;&lt;b&gt;BlastP hit with CHAFR746836_0071470.1&lt;/b&gt;&lt;br&gt;Percentage identity: 61%&lt;br&gt;Percentage coverage: 86%&lt;br&gt;BLAST bit score: 611&lt;br&gt;E-value: 0.0" locus_tag="REQ_36040" id="clusterblast-1_h9_8_44" points="528,85 533,80 535,80 535,90 533,90 528,85 " class="clusterblast-orf"  />
<polygon style="stroke:black; stroke-width:1; fill:#FFFFFF; " description="tetr_family_transcriptional_regulator[br]Location: 3853930 - 3854559" locus_tag="REQ_36050" id="clusterblast-1_h9_8_45" points="536,90 538,85 536,80 536,90 " class="clusterblast-orf"  />
<polygon style="stroke:black; stroke-width:1; fill:#FFFFFF; " description="integral_membrane_protein[br]Location: 3854565 - 3854828" locus_tag="REQ_36060" id="clusterblast-1_h9_8_46" points="538,85 540,80 540,90 538,85 " class="clusterblast-orf"  />
<polygon style="stroke:black; stroke-width:1; fill:#FFFFFF; " description="zinc_binding_alcohol_dehydrogenase[br]Location: 3854948 - 3856060" locus_tag="REQ_36070" id="clusterblast-1_h9_8_47" points="540,85 545,80 545,80 545,90 545,90 540,85 " class="clusterblast-orf"  />
<polygon style="stroke:black; stroke-width:1; fill:yellow; " description="aldehyde_dehydrogenase[br]Location: 3856099 - 3857592&lt;br&gt;&lt;br&gt;&lt;b&gt;BlastP hit with CHAFR746836_0071640.1&lt;/b&gt;&lt;br&gt;Percentage identity: 42%&lt;br&gt;Percentage coverage: 99%&lt;br&gt;BLAST bit score: 329&lt;br&gt;E-value: 4e-105" locus_tag="REQ_36080" id="clusterblast-1_h9_8_48" points="545,85 550,80 552,80 552,90 550,90 545,85 " class="clusterblast-orf"  />
<polygon style="stroke:black; stroke-width:1; fill:#FFFFFF; " description="fis_family_transcriptional_regulator[br]Location: 3857699 - 3859342" locus_tag="REQ_36090" id="clusterblast-1_h9_8_49" points="553,85 558,80 560,80 560,90 558,90 553,85 " class="clusterblast-orf"  />
<polygon style="stroke:black; stroke-width:1; fill:#FFFFFF; " description="acyl-CoA_ligase/synthetase[br]Location: 3859355 - 3861007" locus_tag="REQ_36100" id="clusterblast-1_h9_8_50" points="560,85 565,80 567,80 567,90 565,90 560,85 " class="clusterblast-orf"  />
<polygon style="stroke:black; stroke-width:1; fill:#FFFFFF; " description="mfs_transporter[br]Location: 3861179 - 3862495" locus_tag="REQ_36110" id="clusterblast-1_h9_8_51" points="568,85 573,80 574,80 574,90 573,90 568,85 " class="clusterblast-orf"  />
<polygon style="stroke:black; stroke-width:1; fill:#FFFFFF; " description="integral_membrane_protein[br]Location: 3862611 - 3863267" locus_tag="REQ_36120" id="clusterblast-1_h9_8_52" points="575,85 578,80 578,90 575,85 " class="clusterblast-orf"  />
<polygon style="stroke:black; stroke-width:1; fill:#FFFFFF; " description="hypothetical_protein[br]Location: 3863329 - 3863889" locus_tag="REQ_36130" id="clusterblast-1_h9_8_53" points="578,85 580,80 580,90 578,85 " class="clusterblast-orf"  />
<polygon style="stroke:black; stroke-width:1; fill:#FFFFFF; " description="hypothetical_protein[br]Location: 3863954 - 3864484" locus_tag="REQ_36140" id="clusterblast-1_h9_8_54" points="581,85 583,80 583,90 581,85 " class="clusterblast-orf"  />
</g>
</svg>
