<svg xmlns="http://www.w3.org/2000/svg" height="230" width="800" version="1.1" y="0" x="0" preserveAspectRatio="none" xmlns:xlink="http://www.w3.org/1999/xlink" viewBox="0 0 800 230"  >
<g class="clusterblast-cluster" label="Query sequence"  >
<text class="clusterblast-acc" y="10" x="5"  >
Query sequence</text>
<line y1="35" x2="778.0" style="stroke:grey; stroke-width:1; " x1="10" y2="35"  />
<polygon style="stroke:black; stroke-width:1; fill:#FFFFFF; " description="unannotated orf[br]Location: 26281 - 31608" locus_tag="CHAFR746836_0084640.1" class="clusterblast-orf" points="137,40 189,40 194,35 189,30 137,30 137,40 " id="clusterblast-1_q16_1_0"  />
<polygon style="stroke:black; stroke-width:1; fill:#FFFFFF; " description="unannotated orf[br]Location: 38353 - 39581" locus_tag="CHAFR746836_0084650.1" class="clusterblast-orf" points="266,40 274,40 279,35 274,30 266,30 266,40 " id="clusterblast-1_q16_1_1"  />
<polygon style="stroke:black; stroke-width:1; fill:#FFFFFF; " description="unannotated orf[br]Location: 44228 - 48651" locus_tag="CHAFR746836_0084660.1" class="clusterblast-orf" points="329,35 334,30 376,30 376,40 334,40 329,35 " id="clusterblast-1_q16_1_2"  />
<polygon style="stroke:black; stroke-width:1; fill:red; " description="unannotated orf[br]Location: 50656 - 54036" locus_tag="CHAFR746836_0084670.1" class="clusterblast-orf" points="397,40 429,40 434,35 429,30 397,30 397,40 " id="clusterblast-1_q16_1_3"  />
<polygon style="stroke:black; stroke-width:1; fill:green; " description="unannotated orf[br]Location: 70727 - 72035" locus_tag="CHAFR746836_0084680.1" class="clusterblast-orf" points="612,35 617,30 626,30 626,40 617,40 612,35 " id="clusterblast-1_q16_1_4"  />
<polygon style="stroke:black; stroke-width:1; fill:#FFFFFF; " description="unannotated orf[br]Location: 72765 - 74194" locus_tag="CHAFR746836_0084690.1" class="clusterblast-orf" points="634,40 644,40 649,35 644,30 634,30 634,40 " id="clusterblast-1_q16_1_5"  />
</g>
<g class="clusterblast-cluster" description="Streptomyces clavuligerus ATCC 27064 plasmid pSCL4, whol..." label="NZ_CM000914.1_c10"  >
<text class="clusterblast-acc" y="60" x="5"  >
NZ_CM000914.1_c10</text>
<text class="clusterblast-desc" y="60" x="460.8"  >
Streptomyces clavuligerus ATCC 27064 plasmid pSCL4, whol...</text>
<line y1="85" x2="778.0" style="stroke:grey; stroke-width:1; " x1="10" y2="85"  />
<polygon style="stroke:black; stroke-width:1; fill:#FFFFFF; " description="Integrin_alpha2_domain-containing_protein[br]Location: 1660065 - 1661027" locus_tag="SCLAV_p1443" id="clusterblast-1_h16_1_0" points="10,85 15,80 20,80 20,90 15,90 10,85 " class="clusterblast-orf"  />
<polygon style="stroke:black; stroke-width:1; fill:#FFFFFF; " description="Hypothetical_protein[br]Location: 1658718 - 1659416" locus_tag="SCLAV_p1442" id="clusterblast-1_h16_1_1" points="27,90 29,90 34,85 29,80 27,80 27,90 " class="clusterblast-orf"  />
<polygon style="stroke:black; stroke-width:1; fill:#FFFFFF; " description="ABC-transporter[br]Location: 1657946 - 1658632" locus_tag="SCLAV_p1441" id="clusterblast-1_h16_1_2" points="35,85 40,80 42,80 42,90 40,90 35,85 " class="clusterblast-orf"  />
<polygon style="stroke:black; stroke-width:1; fill:#FFFFFF; " description="Permease,_putative[br]Location: 1656481 - 1657941" locus_tag="SCLAV_p1440" id="clusterblast-1_h16_1_3" points="43,85 48,80 58,80 58,90 48,90 43,85 " class="clusterblast-orf"  />
<polygon style="stroke:black; stroke-width:1; fill:#FFFFFF; " description="Response_regulator_receiver[br]Location: 1655623 - 1656252" locus_tag="SCLAV_p1439" id="clusterblast-1_h16_1_4" points="61,90 62,90 67,85 62,80 61,80 61,90 " class="clusterblast-orf"  />
<polygon style="stroke:black; stroke-width:1; fill:#FFFFFF; " description="Sensor_protein[br]Location: 1654385 - 1655626" locus_tag="SCLAV_p1438" id="clusterblast-1_h16_1_5" points="67,90 76,90 81,85 76,80 67,80 67,90 " class="clusterblast-orf"  />
<polygon style="stroke:black; stroke-width:1; fill:#FFFFFF; " description="Hypothetical_protein[br]Location: 1653871 - 1654266" locus_tag="SCLAV_p1437" id="clusterblast-1_h16_1_6" points="82,85 86,80 86,90 82,85 " class="clusterblast-orf"  />
<polygon style="stroke:black; stroke-width:1; fill:#FFFFFF; " description="Putative_integral_membrane_protein[br]Location: 1653141 - 1653659" locus_tag="SCLAV_p1436" id="clusterblast-1_h16_1_7" points="88,90 89,90 94,85 89,80 88,80 88,90 " class="clusterblast-orf"  />
<polygon style="stroke:black; stroke-width:1; fill:#FFFFFF; " description="integral_membrane_protein[br]Location: 1652574 - 1652987" locus_tag="SCLAV_p1435" id="clusterblast-1_h16_1_8" points="96,90 100,85 96,80 96,90 " class="clusterblast-orf"  />
<polygon style="stroke:black; stroke-width:1; fill:#FFFFFF; " description="Hypothetical_protein[br]Location: 1651807 - 1652463" locus_tag="SCLAV_p1434" id="clusterblast-1_h16_1_9" points="101,85 106,80 108,80 108,90 106,90 101,85 " class="clusterblast-orf"  />
<polygon style="stroke:black; stroke-width:1; fill:#FFFFFF; " description="Putative_membrane_protein[br]Location: 1645778 - 1651477" locus_tag="SCLAV_p1433" id="clusterblast-1_h16_1_10" points="112,85 117,80 173,80 173,90 117,90 112,85 " class="clusterblast-orf"  />
<polygon style="stroke:black; stroke-width:1; fill:#FFFFFF; " description="Hypothetical_protein[br]Location: 1645466 - 1645642" locus_tag="SCLAV_p1432" id="clusterblast-1_h16_1_11" points="174,90 176,85 174,80 174,90 " class="clusterblast-orf"  />
<polygon style="stroke:black; stroke-width:1; fill:#FFFFFF; " description="Putative_surface_layer_protein[br]Location: 1643838 - 1645346" locus_tag="SCLAV_p1431" id="clusterblast-1_h16_1_12" points="177,90 189,90 194,85 189,80 177,80 177,90 " class="clusterblast-orf"  />
<polygon style="stroke:black; stroke-width:1; fill:#FFFFFF; " description="Hypothetical_protein[br]Location: 1643526 - 1643720" locus_tag="SCLAV_p1430" id="clusterblast-1_h16_1_13" points="195,85 197,80 197,90 195,85 " class="clusterblast-orf"  />
<polygon style="stroke:black; stroke-width:1; fill:#FFFFFF; " description="Terpene_synthase,_metal-binding_protein[br]Location: 1642465 - 1643457" locus_tag="SCLAV_p1429" id="clusterblast-1_h16_1_14" points="198,90 203,90 208,85 203,80 198,80 198,90 " class="clusterblast-orf"  />
<polygon style="stroke:black; stroke-width:1; fill:#FFFFFF; " description="prenyltransferase/squalene_oxidase[br]Location: 1640913 - 1642478" locus_tag="SCLAV_p1428" id="clusterblast-1_h16_1_15" points="208,90 220,90 225,85 220,80 208,80 208,90 " class="clusterblast-orf"  />
<polygon style="stroke:black; stroke-width:1; fill:red; " description="Non-ribosomal_peptide_synthetase[br]Location: 1635461 - 1640443&lt;br&gt;&lt;br&gt;&lt;b&gt;BlastP hit with CHAFR746836_0084670.1&lt;/b&gt;&lt;br&gt;Percentage identity: 33%&lt;br&gt;Percentage coverage: 12%&lt;br&gt;BLAST bit score: 66&lt;br&gt;E-value: 1e-09" locus_tag="SCLAV_p1427" id="clusterblast-1_h16_1_16" points="230,90 278,90 283,85 278,80 230,80 230,90 " class="clusterblast-orf"  />
<polygon style="stroke:black; stroke-width:1; fill:#FFFFFF; " description="Putative_non-ribosomal_synthetase[br]Location: 1633980 - 1635464" locus_tag="SCLAV_p1426" id="clusterblast-1_h16_1_17" points="283,90 294,90 299,85 294,80 283,80 283,90 " class="clusterblast-orf"  />
<polygon style="stroke:black; stroke-width:1; fill:#FFFFFF; " description="Hypothetical_protein[br]Location: 1633171 - 1633722" locus_tag="SCLAV_p1425" id="clusterblast-1_h16_1_18" points="302,85 307,80 308,80 308,90 307,90 302,85 " class="clusterblast-orf"  />
<polygon style="stroke:black; stroke-width:1; fill:#FFFFFF; " description="Hypothetical_protein[br]Location: 1632188 - 1632865" locus_tag="SCLAV_p1424" id="clusterblast-1_h16_1_19" points="311,85 316,80 318,80 318,90 316,90 311,85 " class="clusterblast-orf"  />
<polygon style="stroke:black; stroke-width:1; fill:#FFFFFF; " description="putative_sulfatase[br]Location: 1629932 - 1631353" locus_tag="SCLAV_p1423" id="clusterblast-1_h16_1_20" points="327,90 337,90 342,85 337,80 327,80 327,90 " class="clusterblast-orf"  />
<polygon style="stroke:black; stroke-width:1; fill:#FFFFFF; " description="Putative_secreted_serine_protease[br]Location: 1628531 - 1629778" locus_tag="SCLAV_p1422" id="clusterblast-1_h16_1_21" points="344,90 352,90 357,85 352,80 344,80 344,90 " class="clusterblast-orf"  />
<polygon style="stroke:black; stroke-width:1; fill:#FFFFFF; " description="Hypothetical_protein[br]Location: 1624545 - 1628207" locus_tag="SCLAV_p1421" id="clusterblast-1_h16_1_22" points="361,90 395,90 400,85 395,80 361,80 361,90 " class="clusterblast-orf"  />
<polygon style="stroke:black; stroke-width:1; fill:green; " description="short-chain_dehydrogenase/reductase_SDR[br]Location: 1623588 - 1624445&lt;br&gt;&lt;br&gt;&lt;b&gt;BlastP hit with CHAFR746836_0084680.1&lt;/b&gt;&lt;br&gt;Percentage identity: 34%&lt;br&gt;Percentage coverage: 43%&lt;br&gt;BLAST bit score: 88&lt;br&gt;E-value: 1e-18" locus_tag="SCLAV_p1420" id="clusterblast-1_h16_1_23" points="401,85 406,80 410,80 410,90 406,90 401,85 " class="clusterblast-orf"  />
<polygon style="stroke:black; stroke-width:1; fill:#FFFFFF; " description="putative_MarR_family_transcriptional_regulator[br]Location: 1623055 - 1623540" locus_tag="SCLAV_p1419" id="clusterblast-1_h16_1_24" points="411,90 411,90 416,85 411,80 411,80 411,90 " class="clusterblast-orf"  />
<polygon style="stroke:black; stroke-width:1; fill:#FFFFFF; " description="Putative_glucan_synthasis_protein[br]Location: 1622216 - 1622905" locus_tag="SCLAV_p1418" id="clusterblast-1_h16_1_25" points="418,85 423,80 425,80 425,90 423,90 418,85 " class="clusterblast-orf"  />
<polygon style="stroke:black; stroke-width:1; fill:#FFFFFF; " description="Hypothetical_protein[br]Location: 1621223 - 1621918" locus_tag="SCLAV_p1417" id="clusterblast-1_h16_1_26" points="428,90 431,90 436,85 431,80 428,80 428,90 " class="clusterblast-orf"  />
<polygon style="stroke:black; stroke-width:1; fill:#FFFFFF; " description="Hypothetical_protein[br]Location: 1620055 - 1620954" locus_tag="SCLAV_p1416" id="clusterblast-1_h16_1_27" points="439,85 444,80 448,80 448,90 444,90 439,85 " class="clusterblast-orf"  />
<polygon style="stroke:black; stroke-width:1; fill:#FFFFFF; " description="putative_hydrolase[br]Location: 1618118 - 1619692" locus_tag="SCLAV_p1415" id="clusterblast-1_h16_1_28" points="452,90 464,90 469,85 464,80 452,80 452,90 " class="clusterblast-orf"  />
<polygon style="stroke:black; stroke-width:1; fill:#FFFFFF; " description="Hypothetical_protein[br]Location: 1616426 - 1617613" locus_tag="SCLAV_p1414" id="clusterblast-1_h16_1_29" points="474,85 479,80 487,80 487,90 479,90 474,85 " class="clusterblast-orf"  />
<polygon style="stroke:black; stroke-width:1; fill:#FFFFFF; " description="Hypothetical_protein[br]Location: 1615723 - 1616211" locus_tag="SCLAV_p1413" id="clusterblast-1_h16_1_30" points="489,85 494,80 495,80 495,90 494,90 489,85 " class="clusterblast-orf"  />
<polygon style="stroke:black; stroke-width:1; fill:#FFFFFF; " description="Putative_membrane_protein[br]Location: 1614223 - 1615353" locus_tag="SCLAV_p1412" id="clusterblast-1_h16_1_31" points="499,90 506,90 511,85 506,80 499,80 499,90 " class="clusterblast-orf"  />
<polygon style="stroke:black; stroke-width:1; fill:#FFFFFF; " description="Hypothetical_protein[br]Location: 1612761 - 1614086" locus_tag="SCLAV_p1411" id="clusterblast-1_h16_1_32" points="512,90 521,90 526,85 521,80 512,80 512,90 " class="clusterblast-orf"  />
<polygon style="stroke:black; stroke-width:1; fill:#FFFFFF; " description="DUF397_domain-containing_protein[br]Location: 1612404 - 1612601" locus_tag="SCLAV_p1410" id="clusterblast-1_h16_1_33" points="528,85 530,80 530,90 528,85 " class="clusterblast-orf"  />
<polygon style="stroke:black; stroke-width:1; fill:#FFFFFF; " description="cytochrome_P450[br]Location: 1610959 - 1612146" locus_tag="SCLAV_p1409" id="clusterblast-1_h16_1_34" points="533,90 541,90 546,85 541,80 533,80 533,90 " class="clusterblast-orf"  />
<polygon style="stroke:black; stroke-width:1; fill:#FFFFFF; " description="V8-like_Glu-specific_endopeptidase[br]Location: 1609810 - 1610859" locus_tag="SCLAV_p1408" id="clusterblast-1_h16_1_35" points="547,85 552,80 558,80 558,90 552,90 547,85 " class="clusterblast-orf"  />
<polygon style="stroke:black; stroke-width:1; fill:#FFFFFF; " description="Pentalenene_synthase[br]Location: 1608584 - 1609687" locus_tag="SCLAV_p1407" id="clusterblast-1_h16_1_36" points="559,90 566,90 571,85 566,80 559,80 559,90 " class="clusterblast-orf"  />
<polygon style="stroke:black; stroke-width:1; fill:#FFFFFF; " description="V8-like_Glu-specific_endopeptidase[br]Location: 1607370 - 1608503" locus_tag="SCLAV_p1406" id="clusterblast-1_h16_1_37" points="572,85 577,80 584,80 584,90 577,90 572,85 " class="clusterblast-orf"  />
<polygon style="stroke:black; stroke-width:1; fill:#FFFFFF; " description="integrin-like_protein[br]Location: 1605533 - 1607005" locus_tag="SCLAV_p1405" id="clusterblast-1_h16_1_38" points="588,85 593,80 604,80 604,90 593,90 588,85 " class="clusterblast-orf"  />
<polygon style="stroke:black; stroke-width:1; fill:#FFFFFF; " description="Multicopper_oxidase,_type_2[br]Location: 1603111 - 1604877" locus_tag="SCLAV_p1404" id="clusterblast-1_h16_1_39" points="611,90 625,90 630,85 625,80 611,80 611,90 " class="clusterblast-orf"  />
<polygon style="stroke:black; stroke-width:1; fill:#FFFFFF; " description="DNA-binding_protein[br]Location: 1602212 - 1603051" locus_tag="SCLAV_p1403" id="clusterblast-1_h16_1_40" points="630,85 635,80 639,80 639,90 635,90 630,85 " class="clusterblast-orf"  />
<polygon style="stroke:black; stroke-width:1; fill:#FFFFFF; " description="Actinohivin[br]Location: 1601467 - 1602042" locus_tag="SCLAV_p1402" id="clusterblast-1_h16_1_41" points="641,90 642,90 647,85 642,80 641,80 641,90 " class="clusterblast-orf"  />
<polygon style="stroke:black; stroke-width:1; fill:#FFFFFF; " description="Hypothetical_protein[br]Location: 1600974 - 1601390" locus_tag="SCLAV_p1401" id="clusterblast-1_h16_1_42" points="648,85 652,80 652,90 648,85 " class="clusterblast-orf"  />
<polygon style="stroke:black; stroke-width:1; fill:#FFFFFF; " description="AraC_family_transcription_regulator[br]Location: 1599775 - 1600800" locus_tag="SCLAV_p1400" id="clusterblast-1_h16_1_43" points="654,85 659,80 665,80 665,90 659,90 654,85 " class="clusterblast-orf"  />
<polygon style="stroke:black; stroke-width:1; fill:#FFFFFF; " description="Hypothetical_protein[br]Location: 1597392 - 1599719" locus_tag="SCLAV_p1399" id="clusterblast-1_h16_1_44" points="666,85 671,80 691,80 691,90 671,90 666,85 " class="clusterblast-orf"  />
<polygon style="stroke:black; stroke-width:1; fill:#FFFFFF; " description="sulfatase[br]Location: 1595597 - 1597411" locus_tag="SCLAV_p1398" id="clusterblast-1_h16_1_45" points="691,85 696,80 710,80 710,90 696,90 691,85 " class="clusterblast-orf"  />
<polygon style="stroke:black; stroke-width:1; fill:#FFFFFF; " description="lipoprotein[br]Location: 1594494 - 1595600" locus_tag="SCLAV_p1397" id="clusterblast-1_h16_1_46" points="710,85 715,80 722,80 722,90 715,90 710,85 " class="clusterblast-orf"  />
<polygon style="stroke:black; stroke-width:1; fill:#FFFFFF; " description="ABC_transporter_related_protein[br]Location: 1593578 - 1594384" locus_tag="SCLAV_p1396" id="clusterblast-1_h16_1_47" points="723,85 728,80 732,80 732,90 728,90 723,85 " class="clusterblast-orf"  />
<polygon style="stroke:black; stroke-width:1; fill:#FFFFFF; " description="ABC_transporter_related_protein[br]Location: 1592712 - 1593581" locus_tag="SCLAV_p1395" id="clusterblast-1_h16_1_48" points="732,85 737,80 741,80 741,90 737,90 732,85 " class="clusterblast-orf"  />
<polygon style="stroke:black; stroke-width:1; fill:#FFFFFF; " description="CRP_family_transcriptional_regulator[br]Location: 1591185 - 1592360" locus_tag="SCLAV_p1394" id="clusterblast-1_h16_1_49" points="745,85 750,80 757,80 757,90 750,90 745,85 " class="clusterblast-orf"  />
<polygon style="stroke:black; stroke-width:1; fill:#FFFFFF; " description="GCN5-related_N-acetyltransferase[br]Location: 1590494 - 1591039" locus_tag="SCLAV_p1393" id="clusterblast-1_h16_1_50" points="759,90 760,90 765,85 760,80 759,80 759,90 " class="clusterblast-orf"  />
<polygon style="stroke:black; stroke-width:1; fill:#FFFFFF; " description="putative_O-methyltransferase[br]Location: 1589296 - 1590474" locus_tag="SCLAV_p1392" id="clusterblast-1_h16_1_51" points="765,85 770,80 778,80 778,90 770,90 765,85 " class="clusterblast-orf"  />
</g>
</svg>
