<svg xmlns="http://www.w3.org/2000/svg" height="230" width="800" version="1.1" y="0" x="0" preserveAspectRatio="none" xmlns:xlink="http://www.w3.org/1999/xlink" viewBox="0 0 800 230"  >
<g class="clusterblast-cluster" label="Query sequence"  >
<text class="clusterblast-acc" y="10" x="5"  >
Query sequence</text>
<line y1="35" x2="778.0" style="stroke:grey; stroke-width:1; " x1="10" y2="35"  />
<polygon style="stroke:black; stroke-width:1; fill:#FFFFFF; " description="unannotated orf[br]Location: 1013 - 2670" locus_tag="CHAFR746836_0031900.1" class="clusterblast-orf" points="10,35 15,30 19,30 19,40 15,40 10,35 " id="clusterblast-1_q44_6_0"  />
<polygon style="stroke:black; stroke-width:1; fill:#FFFFFF; " description="unannotated orf[br]Location: 5806 - 8080" locus_tag="CHAFR746836_0031910.1" class="clusterblast-orf" points="38,40 47,40 52,35 47,30 38,30 38,40 " id="clusterblast-1_q44_6_1"  />
<polygon style="stroke:black; stroke-width:1; fill:rgb(190,63,63); " description="unannotated orf[br]Location: 14959 - 16522" locus_tag="CHAFR746836_0031920.1" class="clusterblast-orf" points="93,35 98,30 102,30 102,40 98,40 93,35 " id="clusterblast-1_q44_6_2"  />
<polygon style="stroke:black; stroke-width:1; fill:rgb(63,63,190); " description="unannotated orf[br]Location: 18634 - 27051" locus_tag="CHAFR746836_0031930.1" class="clusterblast-orf" points="115,35 120,30 165,30 165,40 120,40 115,35 " id="clusterblast-1_q44_6_3"  />
<polygon style="stroke:black; stroke-width:1; fill:rgb(63,190,63); " description="unannotated orf[br]Location: 28690 - 31017" locus_tag="CHAFR746836_0031940.1" class="clusterblast-orf" points="174,35 179,30 188,30 188,40 179,40 174,35 " id="clusterblast-1_q44_6_4"  />
<polygon style="stroke:black; stroke-width:1; fill:rgb(190,63,190); " description="unannotated orf[br]Location: 31821 - 32686" locus_tag="CHAFR746836_0031950.1" class="clusterblast-orf" points="193,40 193,40 198,35 193,30 193,30 193,40 " id="clusterblast-1_q44_6_5"  />
<polygon style="stroke:black; stroke-width:1; fill:#FFFFFF; " description="unannotated orf[br]Location: 33127 - 34136" locus_tag="CHAFR746836_0031960.1" class="clusterblast-orf" points="201,35 206,30 207,30 207,40 206,40 201,35 " id="clusterblast-1_q44_6_6"  />
<polygon style="stroke:black; stroke-width:1; fill:#FFFFFF; " description="unannotated orf[br]Location: 34492 - 36671" locus_tag="CHAFR746836_0031970.1" class="clusterblast-orf" points="209,40 217,40 222,35 217,30 209,30 209,40 " id="clusterblast-1_q44_6_7"  />
<polygon style="stroke:black; stroke-width:1; fill:#FFFFFF; " description="unannotated orf[br]Location: 90516 - 91329" locus_tag="CHAFR746836_0031980.1" class="clusterblast-orf" points="543,40 543,40 548,35 543,30 543,30 543,40 " id="clusterblast-1_q44_6_8"  />
<polygon style="stroke:black; stroke-width:1; fill:#FFFFFF; " description="unannotated orf[br]Location: 95107 - 95607" locus_tag="CHAFR746836_0031990.1" class="clusterblast-orf" points="570,35 573,30 573,40 570,35 " id="clusterblast-1_q44_6_9"  />
<polygon style="stroke:black; stroke-width:1; fill:#FFFFFF; " description="unannotated orf[br]Location: 98154 - 98987" locus_tag="CHAFR746836_0032000.1" class="clusterblast-orf" points="589,40 593,35 589,30 589,40 " id="clusterblast-1_q44_6_10"  />
<polygon style="stroke:black; stroke-width:1; fill:#FFFFFF; " description="unannotated orf[br]Location: 110556 - 112350" locus_tag="CHAFR746836_0032010.1" class="clusterblast-orf" points="662,35 667,30 673,30 673,40 667,40 662,35 " id="clusterblast-1_q44_6_11"  />
<polygon style="stroke:black; stroke-width:1; fill:rgb(190,190,63); " description="unannotated orf[br]Location: 112800 - 115534" locus_tag="CHAFR746836_0032020.1" class="clusterblast-orf" points="676,40 687,40 692,35 687,30 676,30 676,40 " id="clusterblast-1_q44_6_12"  />
<polygon style="stroke:black; stroke-width:1; fill:rgb(190,190,190); " description="unannotated orf[br]Location: 116249 - 122294" locus_tag="CHAFR746836_0032030.1" class="clusterblast-orf" points="696,40 727,40 732,35 727,30 696,30 696,40 " id="clusterblast-1_q44_6_13"  />
<polygon style="stroke:black; stroke-width:1; fill:rgb(63,190,190); " description="unannotated orf[br]Location: 126098 - 127042" locus_tag="CHAFR746836_0032040.1" class="clusterblast-orf" points="755,35 760,30 761,30 761,40 760,40 755,35 " id="clusterblast-1_q44_6_14"  />
<polygon style="stroke:black; stroke-width:1; fill:rgb(63,63,63); " description="unannotated orf[br]Location: 128617 - 129857" locus_tag="CHAFR746836_0032050.1" class="clusterblast-orf" points="770,40 773,40 778,35 773,30 770,30 770,40 " id="clusterblast-1_q44_6_15"  />
</g>
<g class="clusterblast-cluster" description="Aspergillus kawachii IFO 4308 DNA, contig: scaffold00007, wh..." label="DF126453.1_c1"  >
<text class="clusterblast-acc" y="60" x="5"  >
DF126453.1_c1</text>
<text class="clusterblast-desc" y="60" x="460.8"  >
Aspergillus kawachii IFO 4308 DNA, contig: scaffold00007, wh...</text>
<line y1="85" x2="778.0" style="stroke:grey; stroke-width:1; " x1="10" y2="85"  />
<polygon style="stroke:black; stroke-width:1; fill:#FFFFFF; " description="oxidoreductase,_2OG-Fe(II)_oxygenase_family[br]Location: 448932 - 450515" locus_tag="AKAW_03450" id="clusterblast-1_h44_6_0" points="243,85 248,80 252,80 252,90 248,90 243,85 " class="clusterblast-orf"  />
<polygon style="stroke:black; stroke-width:1; fill:#FFFFFF; " description="nuclear_condensin_complex_subunit_Smc4[br]Location: 451182 - 455775" locus_tag="AKAW_03451" id="clusterblast-1_h44_6_1" points="256,85 261,80 283,80 283,90 261,90 256,85 " class="clusterblast-orf"  />
<polygon style="stroke:black; stroke-width:1; fill:#FFFFFF; " description="hypothetical_protein[br]Location: 455922 - 456995" locus_tag="AKAW_03452" id="clusterblast-1_h44_6_2" points="284,90 286,90 291,85 286,80 284,80 284,90 " class="clusterblast-orf"  />
<polygon style="stroke:black; stroke-width:1; fill:#FFFFFF; " description="CCCH_zinc_finger_domain_protein[br]Location: 457586 - 459603" locus_tag="AKAW_03453" id="clusterblast-1_h44_6_3" points="294,90 301,90 306,85 301,80 294,80 294,90 " class="clusterblast-orf"  />
<polygon style="stroke:black; stroke-width:1; fill:#FFFFFF; " description="40S_ribosomal_protein_S10a[br]Location: 459970 - 460559" locus_tag="AKAW_03454" id="clusterblast-1_h44_6_4" points="308,85 312,80 312,90 308,85 " class="clusterblast-orf"  />
<polygon style="stroke:black; stroke-width:1; fill:#FFFFFF; " description="fatty_acid_desaturase[br]Location: 461661 - 463408" locus_tag="AKAW_03455" id="clusterblast-1_h44_6_5" points="318,85 323,80 329,80 329,90 323,90 318,85 " class="clusterblast-orf"  />
<polygon style="stroke:black; stroke-width:1; fill:#FFFFFF; " description="phosphoglucomutase[br]Location: 464045 - 466539" locus_tag="AKAW_03456" id="clusterblast-1_h44_6_6" points="333,90 342,90 347,85 342,80 333,80 333,90 " class="clusterblast-orf"  />
<polygon style="stroke:black; stroke-width:1; fill:#FFFFFF; " description="monoxygenase[br]Location: 467124 - 468370" locus_tag="AKAW_03457" id="clusterblast-1_h44_6_7" points="351,85 356,80 358,80 358,90 356,90 351,85 " class="clusterblast-orf"  />
<polygon style="stroke:black; stroke-width:1; fill:#FFFFFF; " description="hypothetical_protein[br]Location: 468815 - 469514" locus_tag="AKAW_03458" id="clusterblast-1_h44_6_8" points="361,90 365,85 361,80 361,90 " class="clusterblast-orf"  />
<polygon style="stroke:black; stroke-width:1; fill:rgb(63,63,190); " description="polyketide_synthase[br]Location: 469720 - 477881&lt;br&gt;&lt;br&gt;&lt;b&gt;BlastP hit with CHAFR746836_0031930.1&lt;/b&gt;&lt;br&gt;Percentage identity: 33%&lt;br&gt;Percentage coverage: 105%&lt;br&gt;BLAST bit score: 1336&lt;br&gt;E-value: 0.0" locus_tag="AKAW_03459" id="clusterblast-1_h44_6_9" points="366,85 371,80 415,80 415,90 371,90 366,85 " class="clusterblast-orf"  />
<polygon style="stroke:black; stroke-width:1; fill:rgb(63,190,63); " description="hypothetical_protein[br]Location: 478233 - 479240&lt;br&gt;&lt;br&gt;&lt;b&gt;BlastP hit with CHAFR746836_0031940.1&lt;/b&gt;&lt;br&gt;Percentage identity: 31%&lt;br&gt;Percentage coverage: 40%&lt;br&gt;BLAST bit score: 93&lt;br&gt;E-value: 5e-20" locus_tag="AKAW_03460" id="clusterblast-1_h44_6_10" points="417,90 418,90 423,85 418,80 417,80 417,90 " class="clusterblast-orf"  />
<polygon style="stroke:black; stroke-width:1; fill:#FFFFFF; " description="hypothetical_protein[br]Location: 480139 - 480603" locus_tag="AKAW_03461" id="clusterblast-1_h44_6_11" points="429,90 431,85 429,80 429,90 " class="clusterblast-orf"  />
<polygon style="stroke:black; stroke-width:1; fill:#FFFFFF; " description="efflux_pump_antibiotic_resistance_protein[br]Location: 481857 - 483530" locus_tag="AKAW_03462" id="clusterblast-1_h44_6_12" points="439,90 444,90 449,85 444,80 439,80 439,90 " class="clusterblast-orf"  />
<polygon style="stroke:black; stroke-width:1; fill:#FFFFFF; " description="oxidoreductase,_short-chain[br]Location: 484955 - 486031" locus_tag="AKAW_03463" id="clusterblast-1_h44_6_13" points="457,90 459,90 464,85 459,80 457,80 457,90 " class="clusterblast-orf"  />
<polygon style="stroke:black; stroke-width:1; fill:#FFFFFF; " description="dihydrolipoamide_dehydrogenase[br]Location: 486888 - 488680" locus_tag="AKAW_03464" id="clusterblast-1_h44_6_14" points="469,85 474,80 479,80 479,90 474,90 469,85 " class="clusterblast-orf"  />
<polygon style="stroke:black; stroke-width:1; fill:#FFFFFF; " description="hypothetical_protein[br]Location: 491285 - 491566" locus_tag="AKAW_03465" id="clusterblast-1_h44_6_15" points="495,90 497,85 495,80 495,90 " class="clusterblast-orf"  />
<polygon style="stroke:black; stroke-width:1; fill:#FFFFFF; " description="MFS_monosaccharide_transporter[br]Location: 492040 - 493955" locus_tag="AKAW_03466" id="clusterblast-1_h44_6_16" points="499,90 506,90 511,85 506,80 499,80 499,90 " class="clusterblast-orf"  />
<polygon style="stroke:black; stroke-width:1; fill:#FFFFFF; " description="WD_domain-containing_protein[br]Location: 496743 - 499367" locus_tag="AKAW_03467" id="clusterblast-1_h44_6_17" points="527,85 532,80 543,80 543,90 532,90 527,85 " class="clusterblast-orf"  />
</g>
</svg>
