<svg xmlns="http://www.w3.org/2000/svg" height="230" width="800" version="1.1" y="0" x="0" preserveAspectRatio="none" xmlns:xlink="http://www.w3.org/1999/xlink" viewBox="0 0 800 230"  >
<g class="clusterblast-cluster" label="Query sequence"  >
<text class="clusterblast-acc" y="10" x="5"  >
Query sequence</text>
<line y1="35" x2="778.0" style="stroke:grey; stroke-width:1; " x1="10" y2="35"  />
<polygon style="stroke:black; stroke-width:1; fill:#FFFFFF; " description="unannotated orf[br]Location: 215284 - 216006" locus_tag="CHAFR746836_0067220.1" class="clusterblast-orf" points="126,40 132,40 137,35 132,30 126,30 126,40 " id="clusterblast-1_q7_10_0"  />
<polygon style="stroke:black; stroke-width:1; fill:#FFFFFF; " description="unannotated orf[br]Location: 224693 - 224914" locus_tag="CHAFR746836_0067230.1" class="clusterblast-orf" points="275,35 279,30 279,40 275,35 " id="clusterblast-1_q7_10_1"  />
<polygon style="stroke:black; stroke-width:1; fill:red; " description="unannotated orf[br]Location: 228611 - 236326" locus_tag="CHAFR746836_0067240.1" class="clusterblast-orf" points="337,35 342,30 460,30 460,40 342,40 337,35 " id="clusterblast-1_q7_10_2"  />
<polygon style="stroke:black; stroke-width:1; fill:green; " description="unannotated orf[br]Location: 237740 - 238731" locus_tag="CHAFR746836_0067250.1" class="clusterblast-orf" points="482,40 493,40 498,35 493,30 482,30 482,40 " id="clusterblast-1_q7_10_3"  />
<polygon style="stroke:black; stroke-width:1; fill:blue; " description="unannotated orf[br]Location: 238911 - 240394" locus_tag="CHAFR746836_0067260.1" class="clusterblast-orf" points="501,35 506,30 525,30 525,40 506,40 501,35 " id="clusterblast-1_q7_10_4"  />
<polygon style="stroke:black; stroke-width:1; fill:yellow; " description="unannotated orf[br]Location: 240782 - 242473" locus_tag="CHAFR746836_0067270.1" class="clusterblast-orf" points="531,35 536,30 558,30 558,40 536,40 531,35 " id="clusterblast-1_q7_10_5"  />
<polygon style="stroke:black; stroke-width:1; fill:#FFFFFF; " description="unannotated orf[br]Location: 242970 - 243933" locus_tag="CHAFR746836_0067280.1" class="clusterblast-orf" points="566,40 576,40 581,35 576,30 566,30 566,40 " id="clusterblast-1_q7_10_6"  />
<polygon style="stroke:black; stroke-width:1; fill:#FFFFFF; " description="unannotated orf[br]Location: 244594 - 245945" locus_tag="CHAFR746836_0067290.1" class="clusterblast-orf" points="591,40 608,40 613,35 608,30 591,30 591,40 " id="clusterblast-1_q7_10_7"  />
<polygon style="stroke:black; stroke-width:1; fill:#FFFFFF; " description="unannotated orf[br]Location: 246456 - 248994" locus_tag="CHAFR746836_0067300.1" class="clusterblast-orf" points="621,40 656,40 661,35 656,30 621,30 621,40 " id="clusterblast-1_q7_10_8"  />
</g>
<g class="clusterblast-cluster" description="Ajellomyces capsulatus H88 supercont1.3 genomic scaffold, w..." label="DS990638.1_c2"  >
<text class="clusterblast-acc" y="60" x="5"  >
DS990638.1_c2</text>
<text class="clusterblast-desc" y="60" x="460.8"  >
Ajellomyces capsulatus H88 supercont1.3 genomic scaffold, w...</text>
<line y1="85" x2="778.0" style="stroke:grey; stroke-width:1; " x1="10" y2="85"  />
<polygon style="stroke:black; stroke-width:1; fill:#FFFFFF; " description="oxidoreductase[br]Location: 1611520 - 1612655" locus_tag="HCEG_03704" id="clusterblast-1_h7_10_0" points="10,90 23,90 28,85 23,80 10,80 10,90 " class="clusterblast-orf"  />
<polygon style="stroke:black; stroke-width:1; fill:#FFFFFF; " description="conserved_hypothetical_protein[br]Location: 1610208 - 1610630" locus_tag="HCEG_03703" id="clusterblast-1_h7_10_1" points="42,90 43,90 48,85 43,80 42,80 42,90 " class="clusterblast-orf"  />
<polygon style="stroke:black; stroke-width:1; fill:#FFFFFF; " description="conserved_hypothetical_protein[br]Location: 1607448 - 1608615" locus_tag="HCEG_03702" id="clusterblast-1_h7_10_2" points="74,85 79,80 92,80 92,90 79,90 74,85 " class="clusterblast-orf"  />
<polygon style="stroke:black; stroke-width:1; fill:#FFFFFF; " description="conserved_hypothetical_protein[br]Location: 1604451 - 1607155" locus_tag="HCEG_03701" id="clusterblast-1_h7_10_3" points="97,90 135,90 140,85 135,80 97,80 97,90 " class="clusterblast-orf"  />
<polygon style="stroke:black; stroke-width:1; fill:#FFFFFF; " description="ABC_transporter[br]Location: 1599207 - 1604199" locus_tag="HCEG_03700" id="clusterblast-1_h7_10_4" points="144,85 149,80 223,80 223,90 149,90 144,85 " class="clusterblast-orf"  />
<polygon style="stroke:black; stroke-width:1; fill:blue; " description="class_II_aminotransferase/8-amino-7-oxononanoate[br]Location: 1596743 - 1597651&lt;br&gt;&lt;br&gt;&lt;b&gt;BlastP hit with CHAFR746836_0067260.1&lt;/b&gt;&lt;br&gt;Percentage identity: 45%&lt;br&gt;Percentage coverage: 57%&lt;br&gt;BLAST bit score: 257&lt;br&gt;E-value: 6e-81" locus_tag="HCEG_03699" id="clusterblast-1_h7_10_5" points="248,85 253,80 262,80 262,90 253,90 248,85 " class="clusterblast-orf"  />
<polygon style="stroke:black; stroke-width:1; fill:blue; " description="conserved_hypothetical_protein[br]Location: 1596096 - 1596512&lt;br&gt;&lt;br&gt;&lt;b&gt;BlastP hit with CHAFR746836_0067260.1&lt;/b&gt;&lt;br&gt;Percentage identity: 37%&lt;br&gt;Percentage coverage: 18%&lt;br&gt;BLAST bit score: 63&lt;br&gt;E-value: 1e-10" locus_tag="HCEG_03698" id="clusterblast-1_h7_10_6" points="266,85 271,80 273,80 273,90 271,90 266,85 " class="clusterblast-orf"  />
<polygon style="stroke:black; stroke-width:1; fill:#FFFFFF; " description="predicted_protein[br]Location: 1593781 - 1594468" locus_tag="HCEG_03697" id="clusterblast-1_h7_10_7" points="299,90 305,90 310,85 305,80 299,80 299,90 " class="clusterblast-orf"  />
<polygon style="stroke:black; stroke-width:1; fill:red; " description="polyketide_synthase[br]Location: 1584950 - 1592906&lt;br&gt;&lt;br&gt;&lt;b&gt;BlastP hit with CHAFR746836_0067240.1&lt;/b&gt;&lt;br&gt;Percentage identity: 44%&lt;br&gt;Percentage coverage: 99%&lt;br&gt;BLAST bit score: 1996&lt;br&gt;E-value: 0.0" locus_tag="HCEG_03696" id="clusterblast-1_h7_10_8" points="323,90 445,90 450,85 445,80 323,80 323,90 " class="clusterblast-orf"  />
<polygon style="stroke:black; stroke-width:1; fill:#FFFFFF; " description="pyruvate_decarboxylase_dehydrogenase_E1[br]Location: 1580277 - 1582512" locus_tag="HCEG_03695" id="clusterblast-1_h7_10_9" points="489,90 519,90 524,85 519,80 489,80 489,90 " class="clusterblast-orf"  />
<polygon style="stroke:black; stroke-width:1; fill:#FFFFFF; " description="predicted_protein[br]Location: 1577990 - 1578413" locus_tag="HCEG_03694" id="clusterblast-1_h7_10_10" points="554,90 556,90 561,85 556,80 554,80 554,90 " class="clusterblast-orf"  />
<polygon style="stroke:black; stroke-width:1; fill:#FFFFFF; " description="hypothetical_protein[br]Location: 1577188 - 1577770" locus_tag="HCEG_03693" id="clusterblast-1_h7_10_11" points="564,90 568,90 573,85 568,80 564,80 564,90 " class="clusterblast-orf"  />
<polygon style="stroke:black; stroke-width:1; fill:#FFFFFF; " description="cytochrome_P450[br]Location: 1574572 - 1576615" locus_tag="HCEG_03692" id="clusterblast-1_h7_10_12" points="582,90 610,90 615,85 610,80 582,80 582,90 " class="clusterblast-orf"  />
<polygon style="stroke:black; stroke-width:1; fill:#FFFFFF; " description="caffeine_resistance_protein[br]Location: 1571141 - 1573601" locus_tag="HCEG_03691" id="clusterblast-1_h7_10_13" points="630,85 635,80 669,80 669,90 635,90 630,85 " class="clusterblast-orf"  />
<polygon style="stroke:black; stroke-width:1; fill:#FFFFFF; " description="conserved_hypothetical_protein[br]Location: 1569422 - 1570300" locus_tag="HCEG_03690" id="clusterblast-1_h7_10_14" points="683,90 692,90 697,85 692,80 683,80 683,90 " class="clusterblast-orf"  />
<polygon style="stroke:black; stroke-width:1; fill:#FFFFFF; " description="arrestin[br]Location: 1565702 - 1567345" locus_tag="HCEG_03689" id="clusterblast-1_h7_10_15" points="730,85 735,80 756,80 756,90 735,90 730,85 " class="clusterblast-orf"  />
<polygon style="stroke:black; stroke-width:1; fill:#FFFFFF; " description="predicted_protein[br]Location: 1564339 - 1565115" locus_tag="HCEG_03688" id="clusterblast-1_h7_10_16" points="765,90 773,90 778,85 773,80 765,80 765,90 " class="clusterblast-orf"  />
</g>
</svg>
