<svg xmlns="http://www.w3.org/2000/svg" height="230" width="800" version="1.1" y="0" x="0" preserveAspectRatio="none" xmlns:xlink="http://www.w3.org/1999/xlink" viewBox="0 0 800 230"  >
<g class="clusterblast-cluster" label="Query sequence"  >
<text class="clusterblast-acc" y="10" x="5"  >
Query sequence</text>
<line y1="35" x2="778.0" style="stroke:grey; stroke-width:1; " x1="10" y2="35"  />
<polygon style="stroke:black; stroke-width:1; fill:#FFFFFF; " description="unannotated orf[br]Location: 690 - 1709" locus_tag="CHAFR746836_0063040.1" class="clusterblast-orf" points="294,35 299,30 299,30 299,40 299,40 294,35 " id="clusterblast-1_q6_7_0"  />
<polygon style="stroke:black; stroke-width:1; fill:red; " description="unannotated orf[br]Location: 3270 - 4522" locus_tag="CHAFR746836_0063050.1" class="clusterblast-orf" points="306,35 311,30 313,30 313,40 311,40 306,35 " id="clusterblast-1_q6_7_1"  />
<polygon style="stroke:black; stroke-width:1; fill:green; " description="unannotated orf[br]Location: 3270 - 4522" locus_tag="CHAFR746836_0063050.2" class="clusterblast-orf" points="306,35 311,30 313,30 313,40 311,40 306,35 " id="clusterblast-1_q6_7_2"  />
<polygon style="stroke:black; stroke-width:1; fill:#FFFFFF; " description="unannotated orf[br]Location: 14176 - 16017" locus_tag="CHAFR746836_0063060.1" class="clusterblast-orf" points="361,40 365,40 370,35 365,30 361,30 361,40 " id="clusterblast-1_q6_7_3"  />
<polygon style="stroke:black; stroke-width:1; fill:#FFFFFF; " description="unannotated orf[br]Location: 20821 - 21679" locus_tag="CHAFR746836_0063070.1" class="clusterblast-orf" points="395,35 399,30 399,40 395,35 " id="clusterblast-1_q6_7_4"  />
<polygon style="stroke:black; stroke-width:1; fill:blue; " description="unannotated orf[br]Location: 23739 - 34194" locus_tag="CHAFR746836_0063080.1" class="clusterblast-orf" points="409,35 414,30 462,30 462,40 414,40 409,35 " id="clusterblast-1_q6_7_5"  />
<polygon style="stroke:black; stroke-width:1; fill:yellow; " description="unannotated orf[br]Location: 38501 - 40231" locus_tag="CHAFR746836_0063090.1" class="clusterblast-orf" points="483,40 487,40 492,35 487,30 483,30 483,40 " id="clusterblast-1_q6_7_6"  />
</g>
<g class="clusterblast-cluster" description="Streptomyces griseus subsp. griseus NBRC 13350, complete ge..." label="NC_010572.1_c5"  >
<text class="clusterblast-acc" y="60" x="5"  >
NC_010572.1_c5</text>
<text class="clusterblast-desc" y="60" x="460.8"  >
Streptomyces griseus subsp. griseus NBRC 13350, complete ge...</text>
<line y1="85" x2="778.0" style="stroke:grey; stroke-width:1; " x1="10" y2="85"  />
<polygon style="stroke:black; stroke-width:1; fill:#FFFFFF; " description="major_facilitator_superfamily_permease[br]Location: 639935 - 641143" locus_tag="SGR_556" id="clusterblast-1_h6_7_0" points="10,85 15,80 16,80 16,90 15,90 10,85 " class="clusterblast-orf"  />
<polygon style="stroke:black; stroke-width:1; fill:#FFFFFF; " description="hypothetical_protein[br]Location: 641140 - 641589" locus_tag="SGR_557" id="clusterblast-1_h6_7_1" points="16,85 18,80 18,90 16,85 " class="clusterblast-orf"  />
<polygon style="stroke:black; stroke-width:1; fill:#FFFFFF; " description="hypothetical_protein[br]Location: 641702 - 642256" locus_tag="SGR_558" id="clusterblast-1_h6_7_2" points="18,85 21,80 21,90 18,85 " class="clusterblast-orf"  />
<polygon style="stroke:black; stroke-width:1; fill:#FFFFFF; " description="hypothetical_protein[br]Location: 642342 - 643700" locus_tag="SGR_559" id="clusterblast-1_h6_7_3" points="22,85 27,80 28,80 28,90 27,90 22,85 " class="clusterblast-orf"  />
<polygon style="stroke:black; stroke-width:1; fill:#FFFFFF; " description="putative_ornithine_cyclodeaminase[br]Location: 643687 - 644712" locus_tag="SGR_560" id="clusterblast-1_h6_7_4" points="28,85 33,80 33,80 33,90 33,90 28,85 " class="clusterblast-orf"  />
<polygon style="stroke:black; stroke-width:1; fill:#FFFFFF; " description="putative_lyase[br]Location: 644709 - 645578" locus_tag="SGR_561" id="clusterblast-1_h6_7_5" points="33,85 38,80 38,80 38,90 38,90 33,85 " class="clusterblast-orf"  />
<polygon style="stroke:black; stroke-width:1; fill:#FFFFFF; " description="hypothetical_protein[br]Location: 645575 - 646828" locus_tag="SGR_562" id="clusterblast-1_h6_7_6" points="38,85 43,80 44,80 44,90 43,90 38,85 " class="clusterblast-orf"  />
<polygon style="stroke:black; stroke-width:1; fill:#FFFFFF; " description="hypothetical_protein[br]Location: 646825 - 647727" locus_tag="SGR_563" id="clusterblast-1_h6_7_7" points="44,85 49,80 49,80 49,90 49,90 44,85 " class="clusterblast-orf"  />
<polygon style="stroke:black; stroke-width:1; fill:#FFFFFF; " description="4-hydroxy-2-ketovalerate_aldolase[br]Location: 647724 - 648746" locus_tag="SGR_564" id="clusterblast-1_h6_7_8" points="49,85 54,80 54,80 54,90 54,90 49,85 " class="clusterblast-orf"  />
<polygon style="stroke:black; stroke-width:1; fill:#FFFFFF; " description="acetaldehyde_dehydrogenase[br]Location: 648743 - 649669" locus_tag="SGR_565" id="clusterblast-1_h6_7_9" points="54,85 58,80 58,90 54,85 " class="clusterblast-orf"  />
<polygon style="stroke:black; stroke-width:1; fill:#FFFFFF; " description="major_facilitator_superfamily_permease[br]Location: 650463 - 651728" locus_tag="SGR_566" id="clusterblast-1_h6_7_10" points="62,90 64,90 69,85 64,80 62,80 62,90 " class="clusterblast-orf"  />
<polygon style="stroke:black; stroke-width:1; fill:#FFFFFF; " description="hypothetical_protein[br]Location: 651869 - 653260" locus_tag="SGR_567" id="clusterblast-1_h6_7_11" points="69,90 71,90 76,85 71,80 69,80 69,90 " class="clusterblast-orf"  />
<polygon style="stroke:black; stroke-width:1; fill:#FFFFFF; " description="hypothetical_protein[br]Location: 653445 - 653609" locus_tag="SGR_568" id="clusterblast-1_h6_7_12" points="77,85 78,80 78,90 77,85 " class="clusterblast-orf"  />
<polygon style="stroke:black; stroke-width:1; fill:#FFFFFF; " description="hypothetical_protein[br]Location: 653858 - 654250" locus_tag="SGR_569" id="clusterblast-1_h6_7_13" points="79,90 81,85 79,80 79,90 " class="clusterblast-orf"  />
<polygon style="stroke:black; stroke-width:1; fill:#FFFFFF; " description="putative_methyltransferase[br]Location: 654305 - 655135" locus_tag="SGR_570" id="clusterblast-1_h6_7_14" points="82,85 86,80 86,90 82,85 " class="clusterblast-orf"  />
<polygon style="stroke:black; stroke-width:1; fill:#FFFFFF; " description="putative_Fe-S_oxidoreductase[br]Location: 655132 - 657000" locus_tag="SGR_571" id="clusterblast-1_h6_7_15" points="86,85 91,80 95,80 95,90 91,90 86,85 " class="clusterblast-orf"  />
<polygon style="stroke:black; stroke-width:1; fill:#FFFFFF; " description="hypothetical_protein[br]Location: 656997 - 657815" locus_tag="SGR_572" id="clusterblast-1_h6_7_16" points="95,85 99,80 99,90 95,85 " class="clusterblast-orf"  />
<polygon style="stroke:black; stroke-width:1; fill:#FFFFFF; " description="putative_Fe-S_oxidoreductase[br]Location: 658020 - 659468" locus_tag="SGR_573" id="clusterblast-1_h6_7_17" points="100,85 105,80 108,80 108,90 105,90 100,85 " class="clusterblast-orf"  />
<polygon style="stroke:black; stroke-width:1; fill:#FFFFFF; " description="major_facilitator_superfamily_permease[br]Location: 659688 - 660962" locus_tag="SGR_574" id="clusterblast-1_h6_7_18" points="109,90 110,90 115,85 110,80 109,80 109,90 " class="clusterblast-orf"  />
<polygon style="stroke:black; stroke-width:1; fill:#FFFFFF; " description="putative_NRPS[br]Location: 660959 - 664270" locus_tag="SGR_575" id="clusterblast-1_h6_7_19" points="115,90 127,90 132,85 127,80 115,80 115,90 " class="clusterblast-orf"  />
<polygon style="stroke:black; stroke-width:1; fill:#FFFFFF; " description="putative_MbtH-like_protein[br]Location: 664267 - 664491" locus_tag="SGR_576" id="clusterblast-1_h6_7_20" points="132,90 133,85 132,80 132,90 " class="clusterblast-orf"  />
<polygon style="stroke:black; stroke-width:1; fill:#FFFFFF; " description="hypothetical_protein[br]Location: 664488 - 664733" locus_tag="SGR_577" id="clusterblast-1_h6_7_21" points="133,90 134,85 133,80 133,90 " class="clusterblast-orf"  />
<polygon style="stroke:black; stroke-width:1; fill:#FFFFFF; " description="putative_SyrP-like_protein[br]Location: 664739 - 665674" locus_tag="SGR_578" id="clusterblast-1_h6_7_22" points="134,90 134,90 139,85 134,80 134,80 134,90 " class="clusterblast-orf"  />
<polygon style="stroke:black; stroke-width:1; fill:#FFFFFF; " description="putative_NRPS[br]Location: 665671 - 667599" locus_tag="SGR_579" id="clusterblast-1_h6_7_23" points="139,90 143,90 148,85 143,80 139,80 139,90 " class="clusterblast-orf"  />
<polygon style="stroke:black; stroke-width:1; fill:#FFFFFF; " description="putative_NRPS[br]Location: 667592 - 673558" locus_tag="SGR_580" id="clusterblast-1_h6_7_24" points="148,90 173,90 178,85 173,80 148,80 148,90 " class="clusterblast-orf"  />
<polygon style="stroke:black; stroke-width:1; fill:#FFFFFF; " description="putative_NRPS[br]Location: 673591 - 675162" locus_tag="SGR_581" id="clusterblast-1_h6_7_25" points="179,90 181,90 186,85 181,80 179,80 179,90 " class="clusterblast-orf"  />
<polygon style="stroke:black; stroke-width:1; fill:#FFFFFF; " description="putative_cytochrome_P450[br]Location: 675159 - 676421" locus_tag="SGR_582" id="clusterblast-1_h6_7_26" points="186,90 188,90 193,85 188,80 186,80 186,90 " class="clusterblast-orf"  />
<polygon style="stroke:black; stroke-width:1; fill:#FFFFFF; " description="putative_NRPS[br]Location: 676418 - 677524" locus_tag="SGR_583" id="clusterblast-1_h6_7_27" points="193,90 193,90 198,85 193,80 193,80 193,90 " class="clusterblast-orf"  />
<polygon style="stroke:black; stroke-width:1; fill:#FFFFFF; " description="putative_NRPS[br]Location: 677521 - 679344" locus_tag="SGR_584" id="clusterblast-1_h6_7_28" points="198,90 202,90 207,85 202,80 198,80 198,90 " class="clusterblast-orf"  />
<polygon style="stroke:black; stroke-width:1; fill:#FFFFFF; " description="putative_methyltransferase[br]Location: 679341 - 681104" locus_tag="SGR_585" id="clusterblast-1_h6_7_29" points="207,90 211,90 216,85 211,80 207,80 207,90 " class="clusterblast-orf"  />
<polygon style="stroke:black; stroke-width:1; fill:blue; " description="putative_NRPS[br]Location: 681088 - 682902&lt;br&gt;&lt;br&gt;&lt;b&gt;BlastP hit with CHAFR746836_0063080.1&lt;/b&gt;&lt;br&gt;Percentage identity: 31%&lt;br&gt;Percentage coverage: 13%&lt;br&gt;BLAST bit score: 176&lt;br&gt;E-value: 8e-44" locus_tag="SGR_586" id="clusterblast-1_h6_7_30" points="216,85 221,80 225,80 225,90 221,90 216,85 " class="clusterblast-orf"  />
<polygon style="stroke:black; stroke-width:1; fill:#FFFFFF; " description="putative_glycosyl_transferase[br]Location: 683099 - 684148" locus_tag="SGR_587" id="clusterblast-1_h6_7_31" points="226,85 231,80 232,80 232,90 231,90 226,85 " class="clusterblast-orf"  />
<polygon style="stroke:black; stroke-width:1; fill:#FFFFFF; " description="hypothetical_protein[br]Location: 684163 - 685278" locus_tag="SGR_588" id="clusterblast-1_h6_7_32" points="232,85 237,80 237,80 237,90 237,90 232,85 " class="clusterblast-orf"  />
<polygon style="stroke:black; stroke-width:1; fill:#FFFFFF; " description="putative_ABC_transporter_ATPase_and_permease[br]Location: 685275 - 687041" locus_tag="SGR_589" id="clusterblast-1_h6_7_33" points="237,85 242,80 246,80 246,90 242,90 237,85 " class="clusterblast-orf"  />
<polygon style="stroke:black; stroke-width:1; fill:#FFFFFF; " description="hypothetical_protein[br]Location: 687038 - 687763" locus_tag="SGR_590" id="clusterblast-1_h6_7_34" points="246,85 250,80 250,90 246,85 " class="clusterblast-orf"  />
<polygon style="stroke:black; stroke-width:1; fill:#FFFFFF; " description="hypothetical_protein[br]Location: 687760 - 689412" locus_tag="SGR_591" id="clusterblast-1_h6_7_35" points="250,85 255,80 258,80 258,90 255,90 250,85 " class="clusterblast-orf"  />
<polygon style="stroke:black; stroke-width:1; fill:#FFFFFF; " description="hypothetical_protein[br]Location: 689453 - 690049" locus_tag="SGR_592" id="clusterblast-1_h6_7_36" points="258,85 261,80 261,90 258,85 " class="clusterblast-orf"  />
<polygon style="stroke:black; stroke-width:1; fill:#FFFFFF; " description="hypothetical_protein[br]Location: 690160 - 691515" locus_tag="SGR_593" id="clusterblast-1_h6_7_37" points="262,85 267,80 269,80 269,90 267,90 262,85 " class="clusterblast-orf"  />
<polygon style="stroke:black; stroke-width:1; fill:#FFFFFF; " description="putative_pyridoxamine_5'-phosphate[br]Location: 692263 - 692799" locus_tag="SGR_594" id="clusterblast-1_h6_7_38" points="272,85 275,80 275,90 272,85 " class="clusterblast-orf"  />
<polygon style="stroke:black; stroke-width:1; fill:#FFFFFF; " description="hypothetical_protein[br]Location: 692809 - 693135" locus_tag="SGR_595" id="clusterblast-1_h6_7_39" points="275,85 277,80 277,90 275,85 " class="clusterblast-orf"  />
<polygon style="stroke:black; stroke-width:1; fill:#FFFFFF; " description="hypothetical_protein[br]Location: 693187 - 694356" locus_tag="SGR_596" id="clusterblast-1_h6_7_40" points="277,85 282,80 283,80 283,90 282,90 277,85 " class="clusterblast-orf"  />
<polygon style="stroke:black; stroke-width:1; fill:#FFFFFF; " description="hypothetical_protein[br]Location: 694414 - 696315" locus_tag="SGR_597" id="clusterblast-1_h6_7_41" points="283,85 288,80 293,80 293,90 288,90 283,85 " class="clusterblast-orf"  />
<polygon style="stroke:black; stroke-width:1; fill:#FFFFFF; " description="hypothetical_protein[br]Location: 696451 - 696999" locus_tag="SGR_598" id="clusterblast-1_h6_7_42" points="293,85 296,80 296,90 293,85 " class="clusterblast-orf"  />
<polygon style="stroke:black; stroke-width:1; fill:#FFFFFF; " description="hypothetical_protein[br]Location: 697799 - 698602" locus_tag="SGR_599" id="clusterblast-1_h6_7_43" points="300,90 304,85 300,80 300,90 " class="clusterblast-orf"  />
<polygon style="stroke:black; stroke-width:1; fill:#FFFFFF; " description="putative_oxidoreductase[br]Location: 699204 - 700859" locus_tag="SGR_600" id="clusterblast-1_h6_7_44" points="307,85 312,80 316,80 316,90 312,90 307,85 " class="clusterblast-orf"  />
<polygon style="stroke:black; stroke-width:1; fill:#FFFFFF; " description="hypothetical_protein[br]Location: 700856 - 701341" locus_tag="SGR_601" id="clusterblast-1_h6_7_45" points="316,85 318,80 318,90 316,85 " class="clusterblast-orf"  />
<polygon style="stroke:black; stroke-width:1; fill:#FFFFFF; " description="AraC_family_transcriptional_regulator[br]Location: 701778 - 702536" locus_tag="SGR_602" id="clusterblast-1_h6_7_46" points="320,90 324,85 320,80 320,90 " class="clusterblast-orf"  />
<polygon style="stroke:black; stroke-width:1; fill:#FFFFFF; " description="hypothetical_protein[br]Location: 703017 - 703445" locus_tag="SGR_603" id="clusterblast-1_h6_7_47" points="326,85 329,80 329,90 326,85 " class="clusterblast-orf"  />
<polygon style="stroke:black; stroke-width:1; fill:#FFFFFF; " description="putative_enediyne_biosynthesis_protein[br]Location: 704021 - 704488" locus_tag="SGR_604" id="clusterblast-1_h6_7_48" points="331,90 334,85 331,80 331,90 " class="clusterblast-orf"  />
<polygon style="stroke:black; stroke-width:1; fill:#FFFFFF; " description="putative_enediyne_biosynthesis_protein[br]Location: 704642 - 705625" locus_tag="SGR_605" id="clusterblast-1_h6_7_49" points="335,90 339,85 335,80 335,90 " class="clusterblast-orf"  />
<polygon style="stroke:black; stroke-width:1; fill:#FFFFFF; " description="putative_enediyne_biosynthesis_protein[br]Location: 705717 - 706685" locus_tag="SGR_606" id="clusterblast-1_h6_7_50" points="340,90 340,90 345,85 340,80 340,80 340,90 " class="clusterblast-orf"  />
<polygon style="stroke:black; stroke-width:1; fill:#FFFFFF; " description="putative_enediyne_biosynthesis_protein[br]Location: 706698 - 708629" locus_tag="SGR_607" id="clusterblast-1_h6_7_51" points="345,90 350,90 355,85 350,80 345,80 345,90 " class="clusterblast-orf"  />
<polygon style="stroke:black; stroke-width:1; fill:#FFFFFF; " description="putative_enediyne_biosynthesis_protein[br]Location: 708626 - 709780" locus_tag="SGR_608" id="clusterblast-1_h6_7_52" points="355,90 355,90 360,85 355,80 355,80 355,90 " class="clusterblast-orf"  />
<polygon style="stroke:black; stroke-width:1; fill:#FFFFFF; " description="putative_iterative_type-I_PKS_for_enediyne[br]Location: 709777 - 715617" locus_tag="SGR_609" id="clusterblast-1_h6_7_53" points="360,90 385,90 390,85 385,80 360,80 360,90 " class="clusterblast-orf"  />
<polygon style="stroke:black; stroke-width:1; fill:#FFFFFF; " description="putative_oxidoreductase[br]Location: 715614 - 716162" locus_tag="SGR_610" id="clusterblast-1_h6_7_54" points="390,90 392,85 390,80 390,90 " class="clusterblast-orf"  />
<polygon style="stroke:black; stroke-width:1; fill:#FFFFFF; " description="putative_cytochrome_P450[br]Location: 716159 - 717508" locus_tag="SGR_611" id="clusterblast-1_h6_7_55" points="392,90 394,90 399,85 394,80 392,80 392,90 " class="clusterblast-orf"  />
<polygon style="stroke:black; stroke-width:1; fill:#FFFFFF; " description="hypothetical_protein[br]Location: 717867 - 718904" locus_tag="SGR_612" id="clusterblast-1_h6_7_56" points="401,90 401,90 406,85 401,80 401,80 401,90 " class="clusterblast-orf"  />
<polygon style="stroke:black; stroke-width:1; fill:red; " description="putative_oxidoreductase[br]Location: 718936 - 719856&lt;br&gt;&lt;br&gt;&lt;b&gt;BlastP hit with CHAFR746836_0063050.1&lt;/b&gt;&lt;br&gt;Percentage identity: 32%&lt;br&gt;Percentage coverage: 100%&lt;br&gt;BLAST bit score: 108&lt;br&gt;E-value: 4e-26&lt;br&gt;&lt;br&gt;&lt;b&gt;BlastP hit with CHAFR746836_0063050.2&lt;/b&gt;&lt;br&gt;Percentage identity: 37%&lt;br&gt;Percentage coverage: 75%&lt;br&gt;BLAST bit score: 106&lt;br&gt;E-value: 1e-25" locus_tag="SGR_613" id="clusterblast-1_h6_7_57" points="406,85 411,80 411,80 411,90 411,90 406,85 " class="clusterblast-orf"  />
<polygon style="stroke:black; stroke-width:1; fill:#FFFFFF; " description="hypothetical_protein[br]Location: 719883 - 720434" locus_tag="SGR_614" id="clusterblast-1_h6_7_58" points="411,85 414,80 414,90 411,85 " class="clusterblast-orf"  />
<polygon style="stroke:black; stroke-width:1; fill:#FFFFFF; " description="hypothetical_protein[br]Location: 720836 - 721399" locus_tag="SGR_615" id="clusterblast-1_h6_7_59" points="416,90 419,85 416,80 416,90 " class="clusterblast-orf"  />
<polygon style="stroke:black; stroke-width:1; fill:#FFFFFF; " description="hypothetical_protein[br]Location: 721404 - 721880" locus_tag="SGR_616" id="clusterblast-1_h6_7_60" points="419,90 421,85 419,80 419,90 " class="clusterblast-orf"  />
<polygon style="stroke:black; stroke-width:1; fill:#FFFFFF; " description="hypothetical_protein[br]Location: 721936 - 723279" locus_tag="SGR_617" id="clusterblast-1_h6_7_61" points="421,85 426,80 428,80 428,90 426,90 421,85 " class="clusterblast-orf"  />
<polygon style="stroke:black; stroke-width:1; fill:#FFFFFF; " description="hypothetical_protein[br]Location: 723442 - 724134" locus_tag="SGR_618" id="clusterblast-1_h6_7_62" points="429,85 432,80 432,90 429,85 " class="clusterblast-orf"  />
<polygon style="stroke:black; stroke-width:1; fill:#FFFFFF; " description="major_facilitator_superfamily_permease[br]Location: 724259 - 725845" locus_tag="SGR_619" id="clusterblast-1_h6_7_63" points="433,85 438,80 441,80 441,90 438,90 433,85 " class="clusterblast-orf"  />
<polygon style="stroke:black; stroke-width:1; fill:#FFFFFF; " description="hypothetical_protein[br]Location: 726123 - 726464" locus_tag="SGR_620" id="clusterblast-1_h6_7_64" points="442,90 444,85 442,80 442,90 " class="clusterblast-orf"  />
<polygon style="stroke:black; stroke-width:1; fill:#FFFFFF; " description="putative_alcohol_dehydrogenase[br]Location: 726529 - 727545" locus_tag="SGR_621" id="clusterblast-1_h6_7_65" points="444,85 449,80 450,80 450,90 449,90 444,85 " class="clusterblast-orf"  />
<polygon style="stroke:black; stroke-width:1; fill:#FFFFFF; " description="putative_cytochrome_P450[br]Location: 727542 - 728786" locus_tag="SGR_622" id="clusterblast-1_h6_7_66" points="450,85 455,80 456,80 456,90 455,90 450,85 " class="clusterblast-orf"  />
<polygon style="stroke:black; stroke-width:1; fill:#FFFFFF; " description="hypothetical_protein[br]Location: 728872 - 729594" locus_tag="SGR_623" id="clusterblast-1_h6_7_67" points="456,85 460,80 460,90 456,85 " class="clusterblast-orf"  />
<polygon style="stroke:black; stroke-width:1; fill:#FFFFFF; " description="hypothetical_protein[br]Location: 729842 - 731227" locus_tag="SGR_624" id="clusterblast-1_h6_7_68" points="461,90 463,90 468,85 463,80 461,80 461,90 " class="clusterblast-orf"  />
<polygon style="stroke:black; stroke-width:1; fill:#FFFFFF; " description="putative_epoxide_hydrolase[br]Location: 731262 - 732419" locus_tag="SGR_625" id="clusterblast-1_h6_7_69" points="468,90 469,90 474,85 469,80 468,80 468,90 " class="clusterblast-orf"  />
<polygon style="stroke:black; stroke-width:1; fill:#FFFFFF; " description="putative_oxidoreductase[br]Location: 732496 - 734115" locus_tag="SGR_626" id="clusterblast-1_h6_7_70" points="474,90 478,90 483,85 478,80 474,80 474,90 " class="clusterblast-orf"  />
<polygon style="stroke:black; stroke-width:1; fill:#FFFFFF; " description="hypothetical_protein[br]Location: 734354 - 735544" locus_tag="SGR_627" id="clusterblast-1_h6_7_71" points="484,90 485,90 490,85 485,80 484,80 484,90 " class="clusterblast-orf"  />
<polygon style="stroke:black; stroke-width:1; fill:#FFFFFF; " description="RNA_polymerase_ECF-subfamily_sigma_factor[br]Location: 735664 - 736911" locus_tag="SGR_628" id="clusterblast-1_h6_7_72" points="490,85 495,80 497,80 497,90 495,90 490,85 " class="clusterblast-orf"  />
<polygon style="stroke:black; stroke-width:1; fill:#FFFFFF; " description="putative_epimerase[br]Location: 737158 - 737772" locus_tag="SGR_629" id="clusterblast-1_h6_7_73" points="498,85 501,80 501,90 498,85 " class="clusterblast-orf"  />
<polygon style="stroke:black; stroke-width:1; fill:#FFFFFF; " description="putative_methyltransferase[br]Location: 737834 - 739075" locus_tag="SGR_630" id="clusterblast-1_h6_7_74" points="501,85 506,80 507,80 507,90 506,90 501,85 " class="clusterblast-orf"  />
<polygon style="stroke:black; stroke-width:1; fill:#FFFFFF; " description="putative_NDP-deoxyhexose_3-aminotransferase[br]Location: 739137 - 740258" locus_tag="SGR_631" id="clusterblast-1_h6_7_75" points="508,85 513,80 513,80 513,90 513,90 508,85 " class="clusterblast-orf"  />
<polygon style="stroke:black; stroke-width:1; fill:#FFFFFF; " description="putative_acyl-CoA_dehydrogenase[br]Location: 740278 - 741534" locus_tag="SGR_632" id="clusterblast-1_h6_7_76" points="514,85 519,80 520,80 520,90 519,90 514,85 " class="clusterblast-orf"  />
<polygon style="stroke:black; stroke-width:1; fill:#FFFFFF; " description="putative_NDP-deoxyglucose-2,3-dehydratase[br]Location: 741705 - 743024" locus_tag="SGR_633" id="clusterblast-1_h6_7_77" points="521,85 526,80 527,80 527,90 526,90 521,85 " class="clusterblast-orf"  />
<polygon style="stroke:black; stroke-width:1; fill:#FFFFFF; " description="putative_StrG-like_protein[br]Location: 743059 - 743703" locus_tag="SGR_634" id="clusterblast-1_h6_7_78" points="527,85 531,80 531,90 527,85 " class="clusterblast-orf"  />
<polygon style="stroke:black; stroke-width:1; fill:#FFFFFF; " description="hypothetical_protein[br]Location: 744017 - 744991" locus_tag="SGR_635" id="clusterblast-1_h6_7_79" points="532,90 532,90 537,85 532,80 532,80 532,90 " class="clusterblast-orf"  />
<polygon style="stroke:black; stroke-width:1; fill:#FFFFFF; " description="putative_deoxyhexose_reductase[br]Location: 744988 - 745995" locus_tag="SGR_636" id="clusterblast-1_h6_7_80" points="537,90 537,90 542,85 537,80 537,80 537,90 " class="clusterblast-orf"  />
<polygon style="stroke:black; stroke-width:1; fill:#FFFFFF; " description="putative_glucose-1-phosphate[br]Location: 746428 - 747297" locus_tag="SGR_637" id="clusterblast-1_h6_7_81" points="544,90 544,90 549,85 544,80 544,80 544,90 " class="clusterblast-orf"  />
<polygon style="stroke:black; stroke-width:1; fill:#FFFFFF; " description="putative_NDP-glucose-4,6-dehydratase[br]Location: 747449 - 748423" locus_tag="SGR_638" id="clusterblast-1_h6_7_82" points="550,90 554,85 550,80 550,90 " class="clusterblast-orf"  />
<polygon style="stroke:black; stroke-width:1; fill:#FFFFFF; " description="S41_family_peptidase[br]Location: 748974 - 750422" locus_tag="SGR_639" id="clusterblast-1_h6_7_83" points="557,85 562,80 564,80 564,90 562,90 557,85 " class="clusterblast-orf"  />
<polygon style="stroke:black; stroke-width:1; fill:#FFFFFF; " description="hypothetical_protein[br]Location: 750494 - 750640" locus_tag="SGR_640" id="clusterblast-1_h6_7_84" points="565,90 566,85 565,80 565,90 " class="clusterblast-orf"  />
<polygon style="stroke:black; stroke-width:1; fill:#FFFFFF; " description="hypothetical_protein[br]Location: 750846 - 751199" locus_tag="SGR_641" id="clusterblast-1_h6_7_85" points="567,90 568,85 567,80 567,90 " class="clusterblast-orf"  />
<polygon style="stroke:black; stroke-width:1; fill:#FFFFFF; " description="hypothetical_protein[br]Location: 751281 - 751496" locus_tag="SGR_642" id="clusterblast-1_h6_7_86" points="569,85 570,80 570,90 569,85 " class="clusterblast-orf"  />
<polygon style="stroke:black; stroke-width:1; fill:#FFFFFF; " description="hypothetical_protein[br]Location: 751779 - 752369" locus_tag="SGR_643" id="clusterblast-1_h6_7_87" points="571,90 574,85 571,80 571,90 " class="clusterblast-orf"  />
<polygon style="stroke:black; stroke-width:1; fill:#FFFFFF; " description="hypothetical_protein[br]Location: 752538 - 752891" locus_tag="SGR_644" id="clusterblast-1_h6_7_88" points="575,90 577,85 575,80 575,90 " class="clusterblast-orf"  />
<polygon style="stroke:black; stroke-width:1; fill:#FFFFFF; " description="hypothetical_protein[br]Location: 752958 - 753398" locus_tag="SGR_645" id="clusterblast-1_h6_7_89" points="577,90 579,85 577,80 577,90 " class="clusterblast-orf"  />
<polygon style="stroke:black; stroke-width:1; fill:#FFFFFF; " description="putative_IS_element_ATP-binding_protein[br]Location: 753350 - 753676" locus_tag="SGR_646" id="clusterblast-1_h6_7_90" points="579,85 581,80 581,90 579,85 " class="clusterblast-orf"  />
<polygon style="stroke:black; stroke-width:1; fill:#FFFFFF; " description="hypothetical_protein[br]Location: 753989 - 754306" locus_tag="SGR_647" id="clusterblast-1_h6_7_91" points="582,90 584,85 582,80 582,90 " class="clusterblast-orf"  />
<polygon style="stroke:black; stroke-width:1; fill:#FFFFFF; " description="hypothetical_protein[br]Location: 754341 - 755021" locus_tag="SGR_648" id="clusterblast-1_h6_7_92" points="584,85 588,80 588,90 584,85 " class="clusterblast-orf"  />
<polygon style="stroke:black; stroke-width:1; fill:#FFFFFF; " description="hypothetical_protein[br]Location: 755775 - 757376" locus_tag="SGR_649" id="clusterblast-1_h6_7_93" points="591,90 594,90 599,85 594,80 591,80 591,90 " class="clusterblast-orf"  />
<polygon style="stroke:black; stroke-width:1; fill:#FFFFFF; " description="hypothetical_protein[br]Location: 757475 - 758824" locus_tag="SGR_650" id="clusterblast-1_h6_7_94" points="600,90 602,90 607,85 602,80 600,80 600,90 " class="clusterblast-orf"  />
<polygon style="stroke:black; stroke-width:1; fill:#FFFFFF; " description="hypothetical_protein[br]Location: 758821 - 760491" locus_tag="SGR_651" id="clusterblast-1_h6_7_95" points="607,90 610,90 615,85 610,80 607,80 607,90 " class="clusterblast-orf"  />
<polygon style="stroke:black; stroke-width:1; fill:#FFFFFF; " description="hypothetical_protein[br]Location: 761077 - 761724" locus_tag="SGR_652" id="clusterblast-1_h6_7_96" points="618,90 621,85 618,80 618,90 " class="clusterblast-orf"  />
<polygon style="stroke:black; stroke-width:1; fill:#FFFFFF; " description="putative_NRPS[br]Location: 762595 - 773028" locus_tag="SGR_653" id="clusterblast-1_h6_7_97" points="626,90 673,90 678,85 673,80 626,80 626,90 " class="clusterblast-orf"  />
<polygon style="stroke:black; stroke-width:1; fill:#FFFFFF; " description="putative_MbtH-like_protein[br]Location: 773025 - 773231" locus_tag="SGR_654" id="clusterblast-1_h6_7_98" points="678,90 679,85 678,80 678,90 " class="clusterblast-orf"  />
<polygon style="stroke:black; stroke-width:1; fill:#FFFFFF; " description="putative_ABC_transporter_ATP-binding_protein[br]Location: 773299 - 774309" locus_tag="SGR_655" id="clusterblast-1_h6_7_99" points="679,90 679,90 684,85 679,80 679,80 679,90 " class="clusterblast-orf"  />
<polygon style="stroke:black; stroke-width:1; fill:#FFFFFF; " description="putative_ABC_transporter_permease_protein[br]Location: 774306 - 775106" locus_tag="SGR_656" id="clusterblast-1_h6_7_100" points="684,90 688,85 684,80 684,90 " class="clusterblast-orf"  />
<polygon style="stroke:black; stroke-width:1; fill:#FFFFFF; " description="putative_pirin-like_protein[br]Location: 775515 - 776480" locus_tag="SGR_657" id="clusterblast-1_h6_7_101" points="691,85 695,80 695,90 691,85 " class="clusterblast-orf"  />
<polygon style="stroke:black; stroke-width:1; fill:#FFFFFF; " description="hypothetical_protein[br]Location: 776630 - 776995" locus_tag="SGR_658" id="clusterblast-1_h6_7_102" points="696,90 698,85 696,80 696,90 " class="clusterblast-orf"  />
<polygon style="stroke:black; stroke-width:1; fill:#FFFFFF; " description="hypothetical_protein[br]Location: 777108 - 777770" locus_tag="SGR_659" id="clusterblast-1_h6_7_103" points="699,90 702,85 699,80 699,90 " class="clusterblast-orf"  />
<polygon style="stroke:black; stroke-width:1; fill:#FFFFFF; " description="TetR_family_transcriptional_regulator[br]Location: 777935 - 778639" locus_tag="SGR_660" id="clusterblast-1_h6_7_104" points="703,85 706,80 706,90 703,85 " class="clusterblast-orf"  />
<polygon style="stroke:black; stroke-width:1; fill:#FFFFFF; " description="putative_short_chain_dehydrogenase[br]Location: 778673 - 779389" locus_tag="SGR_661" id="clusterblast-1_h6_7_105" points="706,85 710,80 710,90 706,85 " class="clusterblast-orf"  />
<polygon style="stroke:black; stroke-width:1; fill:#FFFFFF; " description="hypothetical_protein[br]Location: 779715 - 780470" locus_tag="SGR_662" id="clusterblast-1_h6_7_106" points="712,85 715,80 715,90 712,85 " class="clusterblast-orf"  />
<polygon style="stroke:black; stroke-width:1; fill:#FFFFFF; " description="hypothetical_protein[br]Location: 780534 - 780749" locus_tag="SGR_663" id="clusterblast-1_h6_7_107" points="716,85 717,80 717,90 716,85 " class="clusterblast-orf"  />
<polygon style="stroke:black; stroke-width:1; fill:#FFFFFF; " description="hypothetical_protein[br]Location: 781014 - 781604" locus_tag="SGR_664" id="clusterblast-1_h6_7_108" points="718,90 721,85 718,80 718,90 " class="clusterblast-orf"  />
<polygon style="stroke:black; stroke-width:1; fill:#FFFFFF; " description="putative_phosphopantetheinyl_transferase[br]Location: 781779 - 782504" locus_tag="SGR_665" id="clusterblast-1_h6_7_109" points="722,85 726,80 726,90 722,85 " class="clusterblast-orf"  />
<polygon style="stroke:black; stroke-width:1; fill:#FFFFFF; " description="putative_phosphoesterase[br]Location: 782501 - 783481" locus_tag="SGR_666" id="clusterblast-1_h6_7_110" points="726,85 731,80 731,80 731,90 731,90 726,85 " class="clusterblast-orf"  />
<polygon style="stroke:black; stroke-width:1; fill:#FFFFFF; " description="hypothetical_protein[br]Location: 783636 - 785855" locus_tag="SGR_667" id="clusterblast-1_h6_7_111" points="731,85 736,80 742,80 742,90 736,90 731,85 " class="clusterblast-orf"  />
<polygon style="stroke:black; stroke-width:1; fill:#FFFFFF; " description="putative_glucosyltransferase[br]Location: 785951 - 786838" locus_tag="SGR_668" id="clusterblast-1_h6_7_112" points="743,90 747,85 743,80 743,90 " class="clusterblast-orf"  />
<polygon style="stroke:black; stroke-width:1; fill:#FFFFFF; " description="putative_glycosyl_transferase[br]Location: 786855 - 788051" locus_tag="SGR_669" id="clusterblast-1_h6_7_113" points="747,85 752,80 753,80 753,90 752,90 747,85 " class="clusterblast-orf"  />
<polygon style="stroke:black; stroke-width:1; fill:#FFFFFF; " description="putative_amidohydrolase[br]Location: 788766 - 790343" locus_tag="SGR_670" id="clusterblast-1_h6_7_114" points="757,85 762,80 765,80 765,90 762,90 757,85 " class="clusterblast-orf"  />
<polygon style="stroke:black; stroke-width:1; fill:#FFFFFF; " description="hypothetical_protein[br]Location: 790674 - 790919" locus_tag="SGR_671" id="clusterblast-1_h6_7_115" points="767,90 768,85 767,80 767,90 " class="clusterblast-orf"  />
<polygon style="stroke:black; stroke-width:1; fill:#FFFFFF; " description="putative_amidinotransferase[br]Location: 790937 - 791749" locus_tag="SGR_672" id="clusterblast-1_h6_7_116" points="768,90 772,85 768,80 768,90 " class="clusterblast-orf"  />
<polygon style="stroke:black; stroke-width:1; fill:#FFFFFF; " description="putative_integral_membrane_protein[br]Location: 791859 - 792830" locus_tag="SGR_673" id="clusterblast-1_h6_7_117" points="773,85 778,80 778,80 778,90 778,90 773,85 " class="clusterblast-orf"  />
</g>
</svg>
