<svg xmlns="http://www.w3.org/2000/svg" height="230" width="800" version="1.1" y="0" x="0" preserveAspectRatio="none" xmlns:xlink="http://www.w3.org/1999/xlink" viewBox="0 0 800 230"  >
<g class="clusterblast-cluster" label="Query sequence"  >
<text class="clusterblast-acc" y="10" x="5"  >
Query sequence</text>
<line y1="35" x2="778.0" style="stroke:grey; stroke-width:1; " x1="10" y2="35"  />
<polygon style="stroke:black; stroke-width:1; fill:rgb(190,63,63); " description="unannotated orf[br]Location: 0 - 4473" locus_tag="CHAFR746836_0033810.1" class="clusterblast-orf" points="29,35 34,30 101,30 101,40 34,40 29,35 " id="clusterblast-1_q47_9_0"  />
<polygon style="stroke:black; stroke-width:1; fill:rgb(63,63,190); " description="unannotated orf[br]Location: 8908 - 16258" locus_tag="CHAFR746836_0033820.1" class="clusterblast-orf" points="173,35 178,30 292,30 292,40 178,40 173,35 " id="clusterblast-1_q47_9_1"  />
<polygon style="stroke:black; stroke-width:1; fill:rgb(63,190,63); " description="unannotated orf[br]Location: 17051 - 17982" locus_tag="CHAFR746836_0033830.1" class="clusterblast-orf" points="305,40 315,40 320,35 315,30 305,30 305,40 " id="clusterblast-1_q47_9_2"  />
<polygon style="stroke:black; stroke-width:1; fill:rgb(190,63,190); " description="unannotated orf[br]Location: 20014 - 21694" locus_tag="CHAFR746836_0033840.1" class="clusterblast-orf" points="353,40 375,40 380,35 375,30 353,30 353,40 " id="clusterblast-1_q47_9_3"  />
<polygon style="stroke:black; stroke-width:1; fill:rgb(190,190,63); " description="unannotated orf[br]Location: 21817 - 22799" locus_tag="CHAFR746836_0033850.1" class="clusterblast-orf" points="382,35 387,30 398,30 398,40 387,40 382,35 " id="clusterblast-1_q47_9_4"  />
<polygon style="stroke:black; stroke-width:1; fill:rgb(190,190,190); " description="unannotated orf[br]Location: 23459 - 25108" locus_tag="CHAFR746836_0033860.1" class="clusterblast-orf" points="409,40 431,40 436,35 431,30 409,30 409,40 " id="clusterblast-1_q47_9_5"  />
<polygon style="stroke:black; stroke-width:1; fill:#FFFFFF; " description="unannotated orf[br]Location: 25635 - 26766" locus_tag="CHAFR746836_0033870.1" class="clusterblast-orf" points="444,40 458,40 463,35 458,30 444,30 444,40 " id="clusterblast-1_q47_9_6"  />
<polygon style="stroke:black; stroke-width:1; fill:#FFFFFF; " description="unannotated orf[br]Location: 33731 - 34287" locus_tag="CHAFR746836_0033880.1" class="clusterblast-orf" points="575,35 580,30 584,30 584,40 580,40 575,35 " id="clusterblast-1_q47_9_7"  />
<polygon style="stroke:black; stroke-width:1; fill:#FFFFFF; " description="unannotated orf[br]Location: 40637 - 41931" locus_tag="CHAFR746836_0033890.1" class="clusterblast-orf" points="687,35 692,30 708,30 708,40 692,40 687,35 " id="clusterblast-1_q47_9_8"  />
<polygon style="stroke:black; stroke-width:1; fill:#FFFFFF; " description="unannotated orf[br]Location: 43999 - 44934" locus_tag="CHAFR746836_0033900.1" class="clusterblast-orf" points="742,35 747,30 757,30 757,40 747,40 742,35 " id="clusterblast-1_q47_9_9"  />
</g>
<g class="clusterblast-cluster" description="Verticillium dahliae VdLs.17 supercont1.26 genomic scaffold,..." label="DS572720.1_c1"  >
<text class="clusterblast-acc" y="60" x="5"  >
DS572720.1_c1</text>
<text class="clusterblast-desc" y="60" x="460.8"  >
Verticillium dahliae VdLs.17 supercont1.26 genomic scaffold,...</text>
<line y1="85" x2="778.0" style="stroke:grey; stroke-width:1; " x1="10" y2="85"  />
<polygon style="stroke:black; stroke-width:1; fill:rgb(190,63,63); " description="hypothetical_protein[br]Location: 404313 - 408914&lt;br&gt;&lt;br&gt;&lt;b&gt;BlastP hit with CHAFR746836_0033810.1&lt;/b&gt;&lt;br&gt;Percentage identity: 54%&lt;br&gt;Percentage coverage: 102%&lt;br&gt;BLAST bit score: 1453&lt;br&gt;E-value: 0.0" locus_tag="VDAG_09540" id="clusterblast-1_h47_9_0" points="10,85 15,80 84,80 84,90 15,90 10,85 " class="clusterblast-orf"  />
<polygon style="stroke:black; stroke-width:1; fill:#FFFFFF; " description="WD_repeat-containing_protein[br]Location: 400849 - 402627" locus_tag="VDAG_09539" id="clusterblast-1_h47_9_1" points="111,85 116,80 140,80 140,90 116,90 111,85 " class="clusterblast-orf"  />
<polygon style="stroke:black; stroke-width:1; fill:#FFFFFF; " description="hypothetical_protein[br]Location: 399265 - 400476" locus_tag="VDAG_09538" id="clusterblast-1_h47_9_2" points="146,90 161,90 166,85 161,80 146,80 146,90 " class="clusterblast-orf"  />
<polygon style="stroke:black; stroke-width:1; fill:#FFFFFF; " description="hypothetical_protein[br]Location: 398209 - 399206" locus_tag="VDAG_09537" id="clusterblast-1_h47_9_3" points="167,85 172,80 183,80 183,90 172,90 167,85 " class="clusterblast-orf"  />
<polygon style="stroke:black; stroke-width:1; fill:#FFFFFF; " description="pectate_lyase[br]Location: 394868 - 395720" locus_tag="VDAG_09536" id="clusterblast-1_h47_9_4" points="223,85 228,80 237,80 237,90 228,90 223,85 " class="clusterblast-orf"  />
<polygon style="stroke:black; stroke-width:1; fill:#FFFFFF; " description="vacuolar_basic_amino_acid_transporter_2[br]Location: 388840 - 390786" locus_tag="VDAG_09535" id="clusterblast-1_h47_9_5" points="303,85 308,80 335,80 335,90 308,90 303,85 " class="clusterblast-orf"  />
<polygon style="stroke:black; stroke-width:1; fill:rgb(63,63,190); " description="aflatoxin_biosynthesis_polyketide_synthase[br]Location: 381656 - 388070&lt;br&gt;&lt;br&gt;&lt;b&gt;BlastP hit with CHAFR746836_0033820.1&lt;/b&gt;&lt;br&gt;Percentage identity: 39%&lt;br&gt;Percentage coverage: 17%&lt;br&gt;BLAST bit score: 243&lt;br&gt;E-value: 3e-63" locus_tag="VDAG_09534" id="clusterblast-1_h47_9_6" points="348,85 353,80 452,80 452,90 353,90 348,85 " class="clusterblast-orf"  />
<polygon style="stroke:black; stroke-width:1; fill:#FFFFFF; " description="hypothetical_protein[br]Location: 377078 - 379978" locus_tag="VDAG_09533" id="clusterblast-1_h47_9_7" points="479,90 521,90 526,85 521,80 479,80 479,90 " class="clusterblast-orf"  />
<polygon style="stroke:black; stroke-width:1; fill:#FFFFFF; " description="serine_3-dehydrogenase[br]Location: 375711 - 376562" locus_tag="VDAG_09532" id="clusterblast-1_h47_9_8" points="534,85 539,80 548,80 548,90 539,90 534,85 " class="clusterblast-orf"  />
<polygon style="stroke:black; stroke-width:1; fill:#FFFFFF; " description="hypothetical_protein[br]Location: 374037 - 374660" locus_tag="VDAG_09531" id="clusterblast-1_h47_9_9" points="565,85 570,80 575,80 575,90 570,90 565,85 " class="clusterblast-orf"  />
<polygon style="stroke:black; stroke-width:1; fill:#FFFFFF; " description="hypothetical_protein[br]Location: 372813 - 373086" locus_tag="VDAG_09530" id="clusterblast-1_h47_9_10" points="590,85 595,80 595,80 595,90 595,90 590,85 " class="clusterblast-orf"  />
<polygon style="stroke:black; stroke-width:1; fill:#FFFFFF; " description="hypothetical_protein[br]Location: 369374 - 371697" locus_tag="VDAG_09529" id="clusterblast-1_h47_9_11" points="613,85 618,80 651,80 651,90 618,90 613,85 " class="clusterblast-orf"  />
<polygon style="stroke:black; stroke-width:1; fill:#FFFFFF; " description="hypothetical_protein[br]Location: 366006 - 368812" locus_tag="VDAG_09528" id="clusterblast-1_h47_9_12" points="660,90 700,90 705,85 700,80 660,80 660,90 " class="clusterblast-orf"  />
<polygon style="stroke:black; stroke-width:1; fill:#FFFFFF; " description="hydrolase[br]Location: 363892 - 365192" locus_tag="VDAG_09527" id="clusterblast-1_h47_9_13" points="718,85 723,80 740,80 740,90 723,90 718,85 " class="clusterblast-orf"  />
<polygon style="stroke:black; stroke-width:1; fill:rgb(190,63,190); " description="FAD_binding_domain-containing_protein[br]Location: 361553 - 363452&lt;br&gt;&lt;br&gt;&lt;b&gt;BlastP hit with CHAFR746836_0033840.1&lt;/b&gt;&lt;br&gt;Percentage identity: 35%&lt;br&gt;Percentage coverage: 18%&lt;br&gt;BLAST bit score: 51&lt;br&gt;E-value: 9e-06" locus_tag="VDAG_09526" id="clusterblast-1_h47_9_14" points="747,90 773,90 778,85 773,80 747,80 747,90 " class="clusterblast-orf"  />
</g>
</svg>
