<svg xmlns="http://www.w3.org/2000/svg" height="230" width="800" version="1.1" y="0" x="0" preserveAspectRatio="none" xmlns:xlink="http://www.w3.org/1999/xlink" viewBox="0 0 800 230"  >
<g class="clusterblast-cluster" label="Query sequence"  >
<text class="clusterblast-acc" y="10" x="5"  >
Query sequence</text>
<line y1="35" x2="778.0" style="stroke:grey; stroke-width:1; " x1="10" y2="35"  />
<polygon style="stroke:black; stroke-width:1; fill:rgb(169,42,42); " description="unannotated orf[br]Location: 42361 - 45359" locus_tag="CHAFR746836_0094690.1" class="clusterblast-orf" points="10,35 15,30 30,30 30,40 15,40 10,35 " id="clusterblast-1_q27_6_0"  />
<polygon style="stroke:black; stroke-width:1; fill:#FFFFFF; " description="unannotated orf[br]Location: 45759 - 47601" locus_tag="CHAFR746836_0094700.1" class="clusterblast-orf" points="32,40 40,40 45,35 40,30 32,30 32,40 " id="clusterblast-1_q27_6_1"  />
<polygon style="stroke:black; stroke-width:1; fill:#FFFFFF; " description="unannotated orf[br]Location: 49113 - 50656" locus_tag="CHAFR746836_0094710.1" class="clusterblast-orf" points="55,35 60,30 65,30 65,40 60,40 55,35 " id="clusterblast-1_q27_6_2"  />
<polygon style="stroke:black; stroke-width:1; fill:#FFFFFF; " description="unannotated orf[br]Location: 51961 - 53519" locus_tag="CHAFR746836_0094720.1" class="clusterblast-orf" points="74,35 79,30 84,30 84,40 79,40 74,35 " id="clusterblast-1_q27_6_3"  />
<polygon style="stroke:black; stroke-width:1; fill:rgb(42,169,42); " description="unannotated orf[br]Location: 61574 - 67323" locus_tag="CHAFR746836_0094730.1" class="clusterblast-orf" points="138,35 143,30 177,30 177,40 143,40 138,35 " id="clusterblast-1_q27_6_4"  />
<polygon style="stroke:black; stroke-width:1; fill:rgb(42,169,212); " description="unannotated orf[br]Location: 70255 - 75654" locus_tag="CHAFR746836_0094740.1" class="clusterblast-orf" points="196,40 228,40 233,35 228,30 196,30 196,40 " id="clusterblast-1_q27_6_5"  />
<polygon style="stroke:black; stroke-width:1; fill:rgb(169,169,42); " description="unannotated orf[br]Location: 88624 - 90116" locus_tag="CHAFR746836_0094750.1" class="clusterblast-orf" points="320,35 325,30 330,30 330,40 325,40 320,35 " id="clusterblast-1_q27_6_6"  />
<polygon style="stroke:black; stroke-width:1; fill:#FFFFFF; " description="unannotated orf[br]Location: 91304 - 92309" locus_tag="CHAFR746836_0094760.1" class="clusterblast-orf" points="338,40 339,40 344,35 339,30 338,30 338,40 " id="clusterblast-1_q27_6_7"  />
<polygon style="stroke:black; stroke-width:1; fill:#FFFFFF; " description="unannotated orf[br]Location: 92407 - 93918" locus_tag="CHAFR746836_0094770.1" class="clusterblast-orf" points="345,35 350,30 355,30 355,40 350,40 345,35 " id="clusterblast-1_q27_6_8"  />
<polygon style="stroke:black; stroke-width:1; fill:rgb(169,42,127); " description="unannotated orf[br]Location: 94558 - 96160" locus_tag="CHAFR746836_0094780.1" class="clusterblast-orf" points="359,40 365,40 370,35 365,30 359,30 359,40 " id="clusterblast-1_q27_6_9"  />
<polygon style="stroke:black; stroke-width:1; fill:#FFFFFF; " description="unannotated orf[br]Location: 96488 - 97143" locus_tag="CHAFR746836_0094790.1" class="clusterblast-orf" points="372,35 377,30 377,30 377,40 377,40 372,35 " id="clusterblast-1_q27_6_10"  />
<polygon style="stroke:black; stroke-width:1; fill:#FFFFFF; " description="unannotated orf[br]Location: 99047 - 101039" locus_tag="CHAFR746836_0094800.1" class="clusterblast-orf" points="389,40 398,40 403,35 398,30 389,30 389,40 " id="clusterblast-1_q27_6_11"  />
<polygon style="stroke:black; stroke-width:1; fill:#FFFFFF; " description="unannotated orf[br]Location: 105913 - 106563" locus_tag="CHAFR746836_0094810.1" class="clusterblast-orf" points="435,35 440,30 440,30 440,40 440,40 435,35 " id="clusterblast-1_q27_6_12"  />
<polygon style="stroke:black; stroke-width:1; fill:#FFFFFF; " description="unannotated orf[br]Location: 108528 - 112083" locus_tag="CHAFR746836_0094820.1" class="clusterblast-orf" points="453,40 472,40 477,35 472,30 453,30 453,40 " id="clusterblast-1_q27_6_13"  />
<polygon style="stroke:black; stroke-width:1; fill:rgb(42,42,212); " description="unannotated orf[br]Location: 112908 - 114711" locus_tag="CHAFR746836_0094830.1" class="clusterblast-orf" points="482,35 487,30 494,30 494,40 487,40 482,35 " id="clusterblast-1_q27_6_14"  />
<polygon style="stroke:black; stroke-width:1; fill:rgb(169,169,212); " description="unannotated orf[br]Location: 115507 - 115979" locus_tag="CHAFR746836_0094840.1" class="clusterblast-orf" points="500,40 503,35 500,30 500,40 " id="clusterblast-1_q27_6_15"  />
<polygon style="stroke:black; stroke-width:1; fill:rgb(42,169,127); " description="unannotated orf[br]Location: 116099 - 117436" locus_tag="CHAFR746836_0094850.1" class="clusterblast-orf" points="504,35 509,30 513,30 513,40 509,40 504,35 " id="clusterblast-1_q27_6_16"  />
<polygon style="stroke:black; stroke-width:1; fill:#FFFFFF; " description="unannotated orf[br]Location: 117682 - 118147" locus_tag="CHAFR746836_0094860.1" class="clusterblast-orf" points="514,40 518,35 514,30 514,40 " id="clusterblast-1_q27_6_17"  />
<polygon style="stroke:black; stroke-width:1; fill:#FFFFFF; " description="unannotated orf[br]Location: 119597 - 120815" locus_tag="CHAFR746836_0094870.1" class="clusterblast-orf" points="527,35 532,30 535,30 535,40 532,40 527,35 " id="clusterblast-1_q27_6_18"  />
<polygon style="stroke:black; stroke-width:1; fill:#FFFFFF; " description="unannotated orf[br]Location: 121630 - 122020" locus_tag="CHAFR746836_0094880.1" class="clusterblast-orf" points="541,40 543,35 541,30 541,40 " id="clusterblast-1_q27_6_19"  />
<polygon style="stroke:black; stroke-width:1; fill:#FFFFFF; " description="unannotated orf[br]Location: 122290 - 123684" locus_tag="CHAFR746836_0094890.1" class="clusterblast-orf" points="545,40 550,40 555,35 550,30 545,30 545,40 " id="clusterblast-1_q27_6_20"  />
<polygon style="stroke:black; stroke-width:1; fill:#FFFFFF; " description="unannotated orf[br]Location: 124088 - 124999" locus_tag="CHAFR746836_0094900.1" class="clusterblast-orf" points="557,35 562,30 563,30 563,40 562,40 557,35 " id="clusterblast-1_q27_6_21"  />
<polygon style="stroke:black; stroke-width:1; fill:#FFFFFF; " description="unannotated orf[br]Location: 125439 - 126681" locus_tag="CHAFR746836_0094910.1" class="clusterblast-orf" points="566,40 570,40 575,35 570,30 566,30 566,40 " id="clusterblast-1_q27_6_22"  />
<polygon style="stroke:black; stroke-width:1; fill:#FFFFFF; " description="unannotated orf[br]Location: 127006 - 130058" locus_tag="CHAFR746836_0094920.1" class="clusterblast-orf" points="577,35 582,30 597,30 597,40 582,40 577,35 " id="clusterblast-1_q27_6_23"  />
<polygon style="stroke:black; stroke-width:1; fill:#FFFFFF; " description="unannotated orf[br]Location: 132463 - 134428" locus_tag="CHAFR746836_0094930.1" class="clusterblast-orf" points="613,35 618,30 627,30 627,40 618,40 613,35 " id="clusterblast-1_q27_6_24"  />
<polygon style="stroke:black; stroke-width:1; fill:rgb(169,42,212); " description="unannotated orf[br]Location: 137446 - 138588" locus_tag="CHAFR746836_0094940.2" class="clusterblast-orf" points="647,35 652,30 655,30 655,40 652,40 647,35 " id="clusterblast-1_q27_6_25"  />
<polygon style="stroke:black; stroke-width:1; fill:rgb(42,42,127); " description="unannotated orf[br]Location: 137501 - 138588" locus_tag="CHAFR746836_0094940.1" class="clusterblast-orf" points="647,35 652,30 655,30 655,40 652,40 647,35 " id="clusterblast-1_q27_6_26"  />
<polygon style="stroke:black; stroke-width:1; fill:#FFFFFF; " description="unannotated orf[br]Location: 154744 - 156934" locus_tag="CHAFR746836_0094950.1" class="clusterblast-orf" points="763,40 773,40 778,35 773,30 763,30 763,40 " id="clusterblast-1_q27_6_27"  />
</g>
<g class="clusterblast-cluster" description="Aspergillus kawachii IFO 4308 DNA, contig: scaffold00001, wh..." label="DF126447.1_c3"  >
<text class="clusterblast-acc" y="60" x="5"  >
DF126447.1_c3</text>
<text class="clusterblast-desc" y="60" x="460.8"  >
Aspergillus kawachii IFO 4308 DNA, contig: scaffold00001, wh...</text>
<line y1="85" x2="778.0" style="stroke:grey; stroke-width:1; " x1="10" y2="85"  />
<polygon style="stroke:black; stroke-width:1; fill:#FFFFFF; " description="dynactin[br]Location: 1744254 - 1748512" locus_tag="AKAW_00533" id="clusterblast-1_h27_6_0" points="186,90 209,90 214,85 209,80 186,80 186,90 " class="clusterblast-orf"  />
<polygon style="stroke:black; stroke-width:1; fill:rgb(42,169,42); " description="chitin_synthase_ChsE[br]Location: 1749377 - 1755112&lt;br&gt;&lt;br&gt;&lt;b&gt;BlastP hit with CHAFR746836_0094730.1&lt;/b&gt;&lt;br&gt;Percentage identity: 67%&lt;br&gt;Percentage coverage: 100%&lt;br&gt;BLAST bit score: 2601&lt;br&gt;E-value: 0.0&lt;br&gt;&lt;br&gt;&lt;b&gt;BlastP hit with CHAFR746836_0094740.1&lt;/b&gt;&lt;br&gt;Percentage identity: 42%&lt;br&gt;Percentage coverage: 60%&lt;br&gt;BLAST bit score: 837&lt;br&gt;E-value: 0.0" locus_tag="AKAW_00534" id="clusterblast-1_h27_6_1" points="220,85 225,80 258,80 258,90 225,90 220,85 " class="clusterblast-orf"  />
<polygon style="stroke:black; stroke-width:1; fill:rgb(42,169,212); " description="chitin_synthase[br]Location: 1759239 - 1764667&lt;br&gt;&lt;br&gt;&lt;b&gt;BlastP hit with CHAFR746836_0094730.1&lt;/b&gt;&lt;br&gt;Percentage identity: 41%&lt;br&gt;Percentage coverage: 57%&lt;br&gt;BLAST bit score: 808&lt;br&gt;E-value: 0.0&lt;br&gt;&lt;br&gt;&lt;b&gt;BlastP hit with CHAFR746836_0094740.1&lt;/b&gt;&lt;br&gt;Percentage identity: 62%&lt;br&gt;Percentage coverage: 101%&lt;br&gt;BLAST bit score: 2162&lt;br&gt;E-value: 0.0" locus_tag="AKAW_00535" id="clusterblast-1_h27_6_2" points="286,90 317,90 322,85 317,80 286,80 286,90 " class="clusterblast-orf"  />
<polygon style="stroke:black; stroke-width:1; fill:#FFFFFF; " description="similar_to_An02g02310[br]Location: 1765177 - 1765725" locus_tag="AKAW_00536" id="clusterblast-1_h27_6_3" points="326,90 329,85 326,80 326,90 " class="clusterblast-orf"  />
<polygon style="stroke:black; stroke-width:1; fill:#FFFFFF; " description="nonribosomal_peptide_synthetase[br]Location: 1766590 - 1784212" locus_tag="AKAW_00537" id="clusterblast-1_h27_6_4" points="335,85 340,80 453,80 453,90 340,90 335,85 " class="clusterblast-orf"  />
<polygon style="stroke:black; stroke-width:1; fill:#FFFFFF; " description="delta-1-pyrroline-5-carboxylate_dehydrogenase,[br]Location: 1785419 - 1787224" locus_tag="AKAW_00538" id="clusterblast-1_h27_6_5" points="461,85 466,80 474,80 474,90 466,90 461,85 " class="clusterblast-orf"  />
<polygon style="stroke:black; stroke-width:1; fill:#FFFFFF; " description="DNA_mismatch_repair_protein[br]Location: 1787801 - 1791084" locus_tag="AKAW_00539" id="clusterblast-1_h27_6_6" points="477,85 482,80 499,80 499,90 482,90 477,85 " class="clusterblast-orf"  />
<polygon style="stroke:black; stroke-width:1; fill:#FFFFFF; " description="membrane_protein_TMS1[br]Location: 1791453 - 1793087" locus_tag="AKAW_00540" id="clusterblast-1_h27_6_7" points="502,85 507,80 513,80 513,90 507,90 502,85 " class="clusterblast-orf"  />
<polygon style="stroke:black; stroke-width:1; fill:#FFFFFF; " description="MFS_transporter[br]Location: 1794154 - 1796188" locus_tag="AKAW_00541" id="clusterblast-1_h27_6_8" points="520,90 529,90 534,85 529,80 520,80 520,90 " class="clusterblast-orf"  />
<polygon style="stroke:black; stroke-width:1; fill:#FFFFFF; " description="hypothetical_protein[br]Location: 1796598 - 1798283" locus_tag="AKAW_00542" id="clusterblast-1_h27_6_9" points="536,85 541,80 548,80 548,90 541,90 536,85 " class="clusterblast-orf"  />
<polygon style="stroke:black; stroke-width:1; fill:#FFFFFF; " description="GATA_transcription_factor[br]Location: 1799706 - 1800748" locus_tag="AKAW_00543" id="clusterblast-1_h27_6_10" points="557,85 562,80 564,80 564,90 562,90 557,85 " class="clusterblast-orf"  />
<polygon style="stroke:black; stroke-width:1; fill:#FFFFFF; " description="phosphatidylinositol_4-kinase_type_II_subunit[br]Location: 1803758 - 1806178" locus_tag="AKAW_00544" id="clusterblast-1_h27_6_11" points="584,90 596,90 601,85 596,80 584,80 584,90 " class="clusterblast-orf"  />
</g>
</svg>
