<svg xmlns="http://www.w3.org/2000/svg" height="230" width="800" version="1.1" y="0" x="0" preserveAspectRatio="none" xmlns:xlink="http://www.w3.org/1999/xlink" viewBox="0 0 800 230"  >
<g class="clusterblast-cluster" label="Query sequence"  >
<text class="clusterblast-acc" y="10" x="5"  >
Query sequence</text>
<line y1="35" x2="778.0" style="stroke:grey; stroke-width:1; " x1="10" y2="35"  />
<polygon style="stroke:black; stroke-width:1; fill:red; " description="unannotated orf[br]Location: 1639 - 3862" locus_tag="CHAFR746836_0009390.1" class="clusterblast-orf" points="154,40 180,40 185,35 180,30 154,30 154,40 " id="clusterblast-1_q30_2_0"  />
<polygon style="stroke:black; stroke-width:1; fill:#FFFFFF; " description="unannotated orf[br]Location: 4351 - 6763" locus_tag="CHAFR746836_0009400.1" class="clusterblast-orf" points="192,40 221,40 226,35 221,30 192,30 192,40 " id="clusterblast-1_q30_2_1"  />
<polygon style="stroke:black; stroke-width:1; fill:#FFFFFF; " description="unannotated orf[br]Location: 8433 - 9813" locus_tag="CHAFR746836_0009410.1" class="clusterblast-orf" points="250,40 265,40 270,35 265,30 250,30 250,40 " id="clusterblast-1_q30_2_2"  />
<polygon style="stroke:black; stroke-width:1; fill:#FFFFFF; " description="unannotated orf[br]Location: 10159 - 11305" locus_tag="CHAFR746836_0009420.1" class="clusterblast-orf" points="275,35 280,30 291,30 291,40 280,40 275,35 " id="clusterblast-1_q30_2_3"  />
<polygon style="stroke:black; stroke-width:1; fill:green; " description="unannotated orf[br]Location: 12094 - 15169" locus_tag="CHAFR746836_0009430.1" class="clusterblast-orf" points="302,35 307,30 346,30 346,40 307,40 302,35 " id="clusterblast-1_q30_2_4"  />
<polygon style="stroke:black; stroke-width:1; fill:blue; " description="unannotated orf[br]Location: 18460 - 19626" locus_tag="CHAFR746836_0009440.1" class="clusterblast-orf" points="393,35 398,30 410,30 410,40 398,40 393,35 " id="clusterblast-1_q30_2_5"  />
<polygon style="stroke:black; stroke-width:1; fill:yellow; " description="unannotated orf[br]Location: 21127 - 22798" locus_tag="CHAFR746836_0009450.1" class="clusterblast-orf" points="431,35 436,30 455,30 455,40 436,40 431,35 " id="clusterblast-1_q30_2_6"  />
<polygon style="stroke:black; stroke-width:1; fill:#FFFFFF; " description="unannotated orf[br]Location: 24451 - 25288" locus_tag="CHAFR746836_0009460.1" class="clusterblast-orf" points="478,35 483,30 490,30 490,40 483,40 478,35 " id="clusterblast-1_q30_2_7"  />
<polygon style="stroke:black; stroke-width:1; fill:#FFFFFF; " description="unannotated orf[br]Location: 26586 - 27329" locus_tag="CHAFR746836_0009470.1" class="clusterblast-orf" points="509,35 514,30 519,30 519,40 514,40 509,35 " id="clusterblast-1_q30_2_8"  />
<polygon style="stroke:black; stroke-width:1; fill:#FFFFFF; " description="unannotated orf[br]Location: 27584 - 28762" locus_tag="CHAFR746836_0009480.1" class="clusterblast-orf" points="523,40 535,40 540,35 535,30 523,30 523,40 " id="clusterblast-1_q30_2_9"  />
<polygon style="stroke:black; stroke-width:1; fill:#FFFFFF; " description="unannotated orf[br]Location: 28842 - 30026" locus_tag="CHAFR746836_0009490.1" class="clusterblast-orf" points="541,35 546,30 558,30 558,40 546,40 541,35 " id="clusterblast-1_q30_2_10"  />
<polygon style="stroke:black; stroke-width:1; fill:#FFFFFF; " description="unannotated orf[br]Location: 30391 - 33688" locus_tag="CHAFR746836_0009500.1" class="clusterblast-orf" points="563,40 605,40 610,35 605,30 563,30 563,40 " id="clusterblast-1_q30_2_11"  />
<polygon style="stroke:black; stroke-width:1; fill:#FFFFFF; " description="unannotated orf[br]Location: 34235 - 35268" locus_tag="CHAFR746836_0009510.1" class="clusterblast-orf" points="618,35 623,30 633,30 633,40 623,40 618,35 " id="clusterblast-1_q30_2_12"  />
</g>
<g class="clusterblast-cluster" description="Trichophyton tonsurans CBS 112818 genomic scaffold supercont..." label="GG698483.1_c1"  >
<text class="clusterblast-acc" y="60" x="5"  >
GG698483.1_c1</text>
<text class="clusterblast-desc" y="60" x="460.8"  >
Trichophyton tonsurans CBS 112818 genomic scaffold supercont...</text>
<line y1="85" x2="778.0" style="stroke:grey; stroke-width:1; " x1="10" y2="85"  />
<polygon style="stroke:black; stroke-width:1; fill:#FFFFFF; " description="hypothetical_protein[br]Location: 389424 - 392684" locus_tag="TESG_02006" id="clusterblast-1_h30_2_0" points="10,85 15,80 56,80 56,90 15,90 10,85 " class="clusterblast-orf"  />
<polygon style="stroke:black; stroke-width:1; fill:#FFFFFF; " description="cystathionine_gamma-synthase[br]Location: 393713 - 395519" locus_tag="TESG_02007" id="clusterblast-1_h30_2_1" points="71,90 91,90 96,85 91,80 71,80 71,90 " class="clusterblast-orf"  />
<polygon style="stroke:black; stroke-width:1; fill:#FFFFFF; " description="hypothetical_protein[br]Location: 396108 - 397358" locus_tag="TESG_02008" id="clusterblast-1_h30_2_2" points="105,85 110,80 123,80 123,90 110,90 105,85 " class="clusterblast-orf"  />
<polygon style="stroke:black; stroke-width:1; fill:#FFFFFF; " description="60S_ribosomal_protein_L20[br]Location: 398058 - 398648" locus_tag="TESG_02009" id="clusterblast-1_h30_2_3" points="132,90 136,90 141,85 136,80 132,80 132,90 " class="clusterblast-orf"  />
<polygon style="stroke:black; stroke-width:1; fill:#FFFFFF; " description="hypothetical_protein[br]Location: 398977 - 401268" locus_tag="TESG_02010" id="clusterblast-1_h30_2_4" points="146,85 151,80 178,80 178,90 151,90 146,85 " class="clusterblast-orf"  />
<polygon style="stroke:black; stroke-width:1; fill:#FFFFFF; " description="hypothetical_protein[br]Location: 401666 - 402240" locus_tag="TESG_02011" id="clusterblast-1_h30_2_5" points="184,85 189,80 192,80 192,90 189,90 184,85 " class="clusterblast-orf"  />
<polygon style="stroke:black; stroke-width:1; fill:#FFFFFF; " description="glutamate_carboxypeptidase[br]Location: 402579 - 404271" locus_tag="TESG_02012" id="clusterblast-1_h30_2_6" points="197,90 216,90 221,85 216,80 197,80 197,90 " class="clusterblast-orf"  />
<polygon style="stroke:black; stroke-width:1; fill:#FFFFFF; " description="hypothetical_protein[br]Location: 405143 - 406162" locus_tag="TESG_02013" id="clusterblast-1_h30_2_7" points="233,90 243,90 248,85 243,80 233,80 233,90 " class="clusterblast-orf"  />
<polygon style="stroke:black; stroke-width:1; fill:#FFFFFF; " description="hypothetical_protein[br]Location: 407575 - 408468" locus_tag="TESG_02014" id="clusterblast-1_h30_2_8" points="268,85 273,80 281,80 281,90 273,90 268,85 " class="clusterblast-orf"  />
<polygon style="stroke:black; stroke-width:1; fill:#FFFFFF; " description="hypothetical_protein[br]Location: 409303 - 410411" locus_tag="TESG_02015" id="clusterblast-1_h30_2_9" points="293,85 298,80 308,80 308,90 298,90 293,85 " class="clusterblast-orf"  />
<polygon style="stroke:black; stroke-width:1; fill:#FFFFFF; " description="nonribosomal_peptide_synthase[br]Location: 410826 - 414533" locus_tag="TESG_02016" id="clusterblast-1_h30_2_10" points="314,90 362,90 367,85 362,80 314,80 314,90 " class="clusterblast-orf"  />
<polygon style="stroke:black; stroke-width:1; fill:yellow; " description="hypothetical_protein[br]Location: 415178 - 416875&lt;br&gt;&lt;br&gt;&lt;b&gt;BlastP hit with CHAFR746836_0009450.1&lt;/b&gt;&lt;br&gt;Percentage identity: 45%&lt;br&gt;Percentage coverage: 98%&lt;br&gt;BLAST bit score: 463&lt;br&gt;E-value: 3e-157" locus_tag="TESG_02017" id="clusterblast-1_h30_2_11" points="376,85 381,80 401,80 401,90 381,90 376,85 " class="clusterblast-orf"  />
<polygon style="stroke:black; stroke-width:1; fill:blue; " description="hypothetical_protein[br]Location: 417270 - 418373&lt;br&gt;&lt;br&gt;&lt;b&gt;BlastP hit with CHAFR746836_0009440.1&lt;/b&gt;&lt;br&gt;Percentage identity: 54%&lt;br&gt;Percentage coverage: 97%&lt;br&gt;BLAST bit score: 383&lt;br&gt;E-value: 9e-131" locus_tag="TESG_02018" id="clusterblast-1_h30_2_12" points="406,85 411,80 422,80 422,90 411,90 406,85 " class="clusterblast-orf"  />
<polygon style="stroke:black; stroke-width:1; fill:green; " description="hypothetical_protein[br]Location: 419317 - 422379&lt;br&gt;&lt;br&gt;&lt;b&gt;BlastP hit with CHAFR746836_0009430.1&lt;/b&gt;&lt;br&gt;Percentage identity: 54%&lt;br&gt;Percentage coverage: 101%&lt;br&gt;BLAST bit score: 1129&lt;br&gt;E-value: 0.0" locus_tag="TESG_02019" id="clusterblast-1_h30_2_13" points="435,90 474,90 479,85 474,80 435,80 435,90 " class="clusterblast-orf"  />
<polygon style="stroke:black; stroke-width:1; fill:#FFFFFF; " description="hypothetical_protein[br]Location: 422686 - 424080" locus_tag="TESG_02020" id="clusterblast-1_h30_2_14" points="483,85 488,80 503,80 503,90 488,90 483,85 " class="clusterblast-orf"  />
<polygon style="stroke:black; stroke-width:1; fill:#FFFFFF; " description="hypothetical_protein[br]Location: 424332 - 425246" locus_tag="TESG_02021" id="clusterblast-1_h30_2_15" points="507,85 512,80 520,80 520,90 512,90 507,85 " class="clusterblast-orf"  />
<polygon style="stroke:black; stroke-width:1; fill:#FFFFFF; " description="hypothetical_protein[br]Location: 425812 - 427582" locus_tag="TESG_02022" id="clusterblast-1_h30_2_16" points="528,85 533,80 553,80 553,90 533,90 528,85 " class="clusterblast-orf"  />
<polygon style="stroke:black; stroke-width:1; fill:#FFFFFF; " description="hypothetical_protein[br]Location: 428601 - 430340" locus_tag="TESG_02023" id="clusterblast-1_h30_2_17" points="568,90 587,90 592,85 587,80 568,80 568,90 " class="clusterblast-orf"  />
<polygon style="stroke:black; stroke-width:1; fill:#FFFFFF; " description="hypothetical_protein[br]Location: 431139 - 431948" locus_tag="TESG_02024" id="clusterblast-1_h30_2_18" points="604,90 610,90 615,85 610,80 604,80 604,90 " class="clusterblast-orf"  />
<polygon style="stroke:black; stroke-width:1; fill:#FFFFFF; " description="hypothetical_protein[br]Location: 432499 - 433343" locus_tag="TESG_02025" id="clusterblast-1_h30_2_19" points="623,85 628,80 635,80 635,90 628,90 623,85 " class="clusterblast-orf"  />
<polygon style="stroke:black; stroke-width:1; fill:#FFFFFF; " description="CAMK/CAMKL/AMPK_protein_kinase[br]Location: 434390 - 436953" locus_tag="TESG_02026" id="clusterblast-1_h30_2_20" points="650,90 682,90 687,85 682,80 650,80 650,90 " class="clusterblast-orf"  />
<polygon style="stroke:black; stroke-width:1; fill:#FFFFFF; " description="hypothetical_protein[br]Location: 437451 - 438119" locus_tag="TESG_02027" id="clusterblast-1_h30_2_21" points="694,90 698,90 703,85 698,80 694,80 694,90 " class="clusterblast-orf"  />
<polygon style="stroke:black; stroke-width:1; fill:#FFFFFF; " description="hypothetical_protein[br]Location: 439581 - 440713" locus_tag="TESG_02028" id="clusterblast-1_h30_2_22" points="724,85 729,80 740,80 740,90 729,90 724,85 " class="clusterblast-orf"  />
<polygon style="stroke:black; stroke-width:1; fill:#FFFFFF; " description="hypothetical_protein[br]Location: 440971 - 441497" locus_tag="TESG_02029" id="clusterblast-1_h30_2_23" points="744,85 749,80 751,80 751,90 749,90 744,85 " class="clusterblast-orf"  />
<polygon style="stroke:black; stroke-width:1; fill:#FFFFFF; " description="hypothetical_protein[br]Location: 441596 - 443338" locus_tag="TESG_02030" id="clusterblast-1_h30_2_24" points="753,85 758,80 778,80 778,90 758,90 753,85 " class="clusterblast-orf"  />
</g>
</svg>
