<svg xmlns="http://www.w3.org/2000/svg" height="230" width="800" version="1.1" y="0" x="0" preserveAspectRatio="none" xmlns:xlink="http://www.w3.org/1999/xlink" viewBox="0 0 800 230"  >
<g class="clusterblast-cluster" label="Query sequence"  >
<text class="clusterblast-acc" y="10" x="5"  >
Query sequence</text>
<line y1="35" x2="778.0" style="stroke:grey; stroke-width:1; " x1="10" y2="35"  />
<polygon style="stroke:black; stroke-width:1; fill:red; " description="unannotated orf[br]Location: 18826 - 24323" locus_tag="CHAFR746836_0048040.1" class="clusterblast-orf" points="237,35 242,30 325,30 325,40 242,40 237,35 " id="clusterblast-1_q57_5_0"  />
<polygon style="stroke:black; stroke-width:1; fill:#FFFFFF; " description="unannotated orf[br]Location: 27327 - 29289" locus_tag="CHAFR746836_0048050.1" class="clusterblast-orf" points="373,35 378,30 404,30 404,40 378,40 373,35 " id="clusterblast-1_q57_5_1"  />
<polygon style="stroke:black; stroke-width:1; fill:green; " description="unannotated orf[br]Location: 31909 - 32971" locus_tag="CHAFR746836_0048060.1" class="clusterblast-orf" points="446,40 458,40 463,35 458,30 446,30 446,40 " id="clusterblast-1_q57_5_2"  />
<polygon style="stroke:black; stroke-width:1; fill:blue; " description="unannotated orf[br]Location: 33755 - 35353" locus_tag="CHAFR746836_0048070.1" class="clusterblast-orf" points="476,35 481,30 501,30 501,40 481,40 476,35 " id="clusterblast-1_q57_5_3"  />
<polygon style="stroke:black; stroke-width:1; fill:yellow; " description="unannotated orf[br]Location: 36309 - 38321" locus_tag="CHAFR746836_0048080.1" class="clusterblast-orf" points="517,40 544,40 549,35 544,30 517,30 517,40 " id="clusterblast-1_q57_5_4"  />
</g>
<g class="clusterblast-cluster" description="Trichophyton equinum CBS 127.97 supercont1.23 genomic scaffo..." label="DS995740.1_c1"  >
<text class="clusterblast-acc" y="60" x="5"  >
DS995740.1_c1</text>
<text class="clusterblast-desc" y="60" x="460.8"  >
Trichophyton equinum CBS 127.97 supercont1.23 genomic scaffo...</text>
<line y1="85" x2="778.0" style="stroke:grey; stroke-width:1; " x1="10" y2="85"  />
<polygon style="stroke:black; stroke-width:1; fill:#FFFFFF; " description="CMGC/CDK/CDC2_protein_kinase[br]Location: 6214 - 7498" locus_tag="TEQG_04475" id="clusterblast-1_h57_5_0" points="10,85 15,80 30,80 30,90 15,90 10,85 " class="clusterblast-orf"  />
<polygon style="stroke:black; stroke-width:1; fill:#FFFFFF; " description="oxidoreductase[br]Location: 8300 - 9439" locus_tag="TEQG_04476" id="clusterblast-1_h57_5_1" points="43,90 56,90 61,85 56,80 43,80 43,90 " class="clusterblast-orf"  />
<polygon style="stroke:black; stroke-width:1; fill:#FFFFFF; " description="hypothetical_protein[br]Location: 10483 - 11099" locus_tag="TEQG_04477" id="clusterblast-1_h57_5_2" points="78,90 83,90 88,85 83,80 78,80 78,90 " class="clusterblast-orf"  />
<polygon style="stroke:black; stroke-width:1; fill:#FFFFFF; " description="hypothetical_protein[br]Location: 11998 - 14016" locus_tag="TEQG_04478" id="clusterblast-1_h57_5_3" points="102,90 129,90 134,85 129,80 102,80 102,90 " class="clusterblast-orf"  />
<polygon style="stroke:black; stroke-width:1; fill:#FFFFFF; " description="FAD_binding_domain_containing_protein[br]Location: 15651 - 17027" locus_tag="TEQG_04479" id="clusterblast-1_h57_5_4" points="161,85 166,80 183,80 183,90 166,90 161,85 " class="clusterblast-orf"  />
<polygon style="stroke:black; stroke-width:1; fill:#FFFFFF; " description="hypothetical_protein[br]Location: 17678 - 18799" locus_tag="TEQG_04480" id="clusterblast-1_h57_5_5" points="193,85 198,80 211,80 211,90 198,90 193,85 " class="clusterblast-orf"  />
<polygon style="stroke:black; stroke-width:1; fill:blue; " description="fluconazole_resistance_protein_1[br]Location: 20338 - 22048&lt;br&gt;&lt;br&gt;&lt;b&gt;BlastP hit with CHAFR746836_0048070.1&lt;/b&gt;&lt;br&gt;Percentage identity: 46%&lt;br&gt;Percentage coverage: 101%&lt;br&gt;BLAST bit score: 446&lt;br&gt;E-value: 8e-151" locus_tag="TEQG_04481" id="clusterblast-1_h57_5_6" points="236,85 241,80 263,80 263,90 241,90 236,85 " class="clusterblast-orf"  />
<polygon style="stroke:black; stroke-width:1; fill:#FFFFFF; " description="hypothetical_protein[br]Location: 22315 - 22708" locus_tag="TEQG_04482" id="clusterblast-1_h57_5_7" points="267,90 269,90 274,85 269,80 267,80 267,90 " class="clusterblast-orf"  />
<polygon style="stroke:black; stroke-width:1; fill:yellow; " description="fungal_specific_transcription_factor[br]Location: 23258 - 25896&lt;br&gt;&lt;br&gt;&lt;b&gt;BlastP hit with CHAFR746836_0048080.1&lt;/b&gt;&lt;br&gt;Percentage identity: 39%&lt;br&gt;Percentage coverage: 95%&lt;br&gt;BLAST bit score: 393&lt;br&gt;E-value: 5e-125" locus_tag="TEQG_04483" id="clusterblast-1_h57_5_8" points="282,90 320,90 325,85 320,80 282,80 282,90 " class="clusterblast-orf"  />
<polygon style="stroke:black; stroke-width:1; fill:red; " description="equisetin_synthetase[br]Location: 27284 - 35154&lt;br&gt;&lt;br&gt;&lt;b&gt;BlastP hit with CHAFR746836_0048040.1&lt;/b&gt;&lt;br&gt;Percentage identity: 42%&lt;br&gt;Percentage coverage: 101%&lt;br&gt;BLAST bit score: 1412&lt;br&gt;E-value: 0.0&lt;br&gt;&lt;br&gt;&lt;b&gt;BlastP hit with CHAFR746836_0048050.1&lt;/b&gt;&lt;br&gt;Percentage identity: 61%&lt;br&gt;Percentage coverage: 98%&lt;br&gt;BLAST bit score: 700&lt;br&gt;E-value: 0.0" locus_tag="TEQG_04484" id="clusterblast-1_h57_5_9" points="347,90 468,90 473,85 468,80 347,80 347,90 " class="clusterblast-orf"  />
<polygon style="stroke:black; stroke-width:1; fill:#FFFFFF; " description="amino_acid_permease[br]Location: 35545 - 37527" locus_tag="TEQG_04485" id="clusterblast-1_h57_5_10" points="479,85 484,80 511,80 511,90 484,90 479,85 " class="clusterblast-orf"  />
<polygon style="stroke:black; stroke-width:1; fill:#FFFFFF; " description="hypothetical_protein[br]Location: 40153 - 41658" locus_tag="TEQG_04486" id="clusterblast-1_h57_5_11" points="553,90 572,90 577,85 572,80 553,80 553,90 " class="clusterblast-orf"  />
<polygon style="stroke:black; stroke-width:1; fill:#FFFFFF; " description="hypothetical_protein[br]Location: 41928 - 42380" locus_tag="TEQG_04487" id="clusterblast-1_h57_5_12" points="581,85 586,80 589,80 589,90 586,90 581,85 " class="clusterblast-orf"  />
<polygon style="stroke:black; stroke-width:1; fill:#FFFFFF; " description="dienelactone_hydrolase[br]Location: 43539 - 44470" locus_tag="TEQG_04488" id="clusterblast-1_h57_5_13" points="607,90 617,90 622,85 617,80 607,80 607,90 " class="clusterblast-orf"  />
<polygon style="stroke:black; stroke-width:1; fill:#FFFFFF; " description="laccase-1[br]Location: 44759 - 46633" locus_tag="TEQG_04489" id="clusterblast-1_h57_5_14" points="627,85 632,80 657,80 657,90 632,90 627,85 " class="clusterblast-orf"  />
<polygon style="stroke:black; stroke-width:1; fill:#FFFFFF; " description="hypothetical_protein[br]Location: 47277 - 48371" locus_tag="TEQG_04490" id="clusterblast-1_h57_5_15" points="667,90 680,90 685,85 680,80 667,80 667,90 " class="clusterblast-orf"  />
<polygon style="stroke:black; stroke-width:1; fill:#FFFFFF; " description="LysM_domain-containing_protein[br]Location: 48547 - 49441" locus_tag="TEQG_04491" id="clusterblast-1_h57_5_16" points="688,85 693,80 702,80 702,90 693,90 688,85 " class="clusterblast-orf"  />
<polygon style="stroke:black; stroke-width:1; fill:#FFFFFF; " description="monocarboxylate_permease[br]Location: 50456 - 51997" locus_tag="TEQG_04492" id="clusterblast-1_h57_5_17" points="718,90 738,90 743,85 738,80 718,80 718,90 " class="clusterblast-orf"  />
<polygon style="stroke:black; stroke-width:1; fill:#FFFFFF; " description="acetylxylan_esterase[br]Location: 53223 - 54166" locus_tag="TEQG_04493" id="clusterblast-1_h57_5_18" points="762,85 767,80 778,80 778,90 767,90 762,85 " class="clusterblast-orf"  />
</g>
</svg>
