<svg xmlns="http://www.w3.org/2000/svg" height="230" width="800" version="1.1" y="0" x="0" preserveAspectRatio="none" xmlns:xlink="http://www.w3.org/1999/xlink" viewBox="0 0 800 230"  >
<g class="clusterblast-cluster" label="Query sequence"  >
<text class="clusterblast-acc" y="10" x="5"  >
Query sequence</text>
<line y1="35" x2="778.0" style="stroke:grey; stroke-width:1; " x1="10" y2="35"  />
<polygon style="stroke:black; stroke-width:1; fill:#FFFFFF; " description="unannotated orf[br]Location: 1495 - 3001" locus_tag="CHAFR746836_0081150.1" class="clusterblast-orf" points="10,40 15,40 20,35 15,30 10,30 10,40 " id="clusterblast-1_q13_1_0"  />
<polygon style="stroke:black; stroke-width:1; fill:#FFFFFF; " description="unannotated orf[br]Location: 21967 - 22906" locus_tag="CHAFR746836_0081160.1" class="clusterblast-orf" points="158,40 159,40 164,35 159,30 158,30 158,40 " id="clusterblast-1_q13_1_1"  />
<polygon style="stroke:black; stroke-width:1; fill:rgb(190,63,63); " description="unannotated orf[br]Location: 24204 - 25838" locus_tag="CHAFR746836_0081170.1" class="clusterblast-orf" points="174,40 181,40 186,35 181,30 174,30 174,40 " id="clusterblast-1_q13_1_2"  />
<polygon style="stroke:black; stroke-width:1; fill:rgb(63,63,190); " description="unannotated orf[br]Location: 26476 - 34147" locus_tag="CHAFR746836_0081180.1" class="clusterblast-orf" points="190,35 195,30 246,30 246,40 195,40 190,35 " id="clusterblast-1_q13_1_3"  />
<polygon style="stroke:black; stroke-width:1; fill:rgb(63,190,63); " description="unannotated orf[br]Location: 36803 - 37711" locus_tag="CHAFR746836_0081190.1" class="clusterblast-orf" points="265,40 267,40 272,35 267,30 265,30 265,40 " id="clusterblast-1_q13_1_4"  />
<polygon style="stroke:black; stroke-width:1; fill:#FFFFFF; " description="unannotated orf[br]Location: 39559 - 39909" locus_tag="CHAFR746836_0081200.1" class="clusterblast-orf" points="285,35 288,30 288,40 285,35 " id="clusterblast-1_q13_1_5"  />
<polygon style="stroke:black; stroke-width:1; fill:rgb(190,63,190); " description="unannotated orf[br]Location: 40364 - 42098" locus_tag="CHAFR746836_0081210.1" class="clusterblast-orf" points="291,40 298,40 303,35 298,30 291,30 291,40 " id="clusterblast-1_q13_1_6"  />
<polygon style="stroke:black; stroke-width:1; fill:#FFFFFF; " description="unannotated orf[br]Location: 65220 - 66075" locus_tag="CHAFR746836_0081220.1" class="clusterblast-orf" points="471,35 476,30 477,30 477,40 476,40 471,35 " id="clusterblast-1_q13_1_7"  />
<polygon style="stroke:black; stroke-width:1; fill:rgb(190,190,63); " description="unannotated orf[br]Location: 67588 - 77792" locus_tag="CHAFR746836_0081230.1" class="clusterblast-orf" points="488,40 557,40 562,35 557,30 488,30 488,40 " id="clusterblast-1_q13_1_8"  />
<polygon style="stroke:black; stroke-width:1; fill:#FFFFFF; " description="unannotated orf[br]Location: 80581 - 81578" locus_tag="CHAFR746836_0081240.1" class="clusterblast-orf" points="582,40 584,40 589,35 584,30 582,30 582,40 " id="clusterblast-1_q13_1_9"  />
<polygon style="stroke:black; stroke-width:1; fill:#FFFFFF; " description="unannotated orf[br]Location: 105554 - 107591" locus_tag="CHAFR746836_0081250.1" class="clusterblast-orf" points="763,35 768,30 778,30 778,40 768,40 763,35 " id="clusterblast-1_q13_1_10"  />
</g>
<g class="clusterblast-cluster" description="Exophiala dermatitidis NIH/UT8656 unplaced genomic scaffold ..." label="JH226134.1_c2"  >
<text class="clusterblast-acc" y="60" x="5"  >
JH226134.1_c2</text>
<text class="clusterblast-desc" y="60" x="460.8"  >
Exophiala dermatitidis NIH/UT8656 unplaced genomic scaffold ...</text>
<line y1="85" x2="778.0" style="stroke:grey; stroke-width:1; " x1="10" y2="85"  />
<polygon style="stroke:black; stroke-width:1; fill:#FFFFFF; " description="hypothetical_protein[br]Location: 2774211 - 2776618" locus_tag="HMPREF1120_06559" id="clusterblast-1_h13_1_0" points="172,85 177,80 189,80 189,90 177,90 172,85 " class="clusterblast-orf"  />
<polygon style="stroke:black; stroke-width:1; fill:#FFFFFF; " description="hypothetical_protein[br]Location: 2777957 - 2780647" locus_tag="HMPREF1120_06560" id="clusterblast-1_h13_1_1" points="199,90 213,90 218,85 213,80 199,80 199,90 " class="clusterblast-orf"  />
<polygon style="stroke:black; stroke-width:1; fill:#FFFFFF; " description="MFS_transporter,_DHA1_family,_multidrug[br]Location: 2781349 - 2783935" locus_tag="HMPREF1120_06561" id="clusterblast-1_h13_1_2" points="223,85 228,80 242,80 242,90 228,90 223,85 " class="clusterblast-orf"  />
<polygon style="stroke:black; stroke-width:1; fill:#FFFFFF; " description="hypothetical_protein[br]Location: 2784967 - 2786464" locus_tag="HMPREF1120_06562" id="clusterblast-1_h13_1_3" points="249,85 254,80 260,80 260,90 254,90 249,85 " class="clusterblast-orf"  />
<polygon style="stroke:black; stroke-width:1; fill:#FFFFFF; " description="eukaryotic_translation_initiation_factor_3[br]Location: 2787530 - 2788449" locus_tag="HMPREF1120_06563" id="clusterblast-1_h13_1_4" points="268,85 273,80 275,80 275,90 273,90 268,85 " class="clusterblast-orf"  />
<polygon style="stroke:black; stroke-width:1; fill:#FFFFFF; " description="cyclin_H[br]Location: 2789145 - 2790218" locus_tag="HMPREF1120_06564" id="clusterblast-1_h13_1_5" points="280,85 285,80 287,80 287,90 285,90 280,85 " class="clusterblast-orf"  />
<polygon style="stroke:black; stroke-width:1; fill:#FFFFFF; " description="hypothetical_protein[br]Location: 2790300 - 2790642" locus_tag="HMPREF1120_06565" id="clusterblast-1_h13_1_6" points="288,85 290,80 290,90 288,85 " class="clusterblast-orf"  />
<polygon style="stroke:black; stroke-width:1; fill:#FFFFFF; " description="hypothetical_protein[br]Location: 2791768 - 2792793" locus_tag="HMPREF1120_06566" id="clusterblast-1_h13_1_7" points="299,90 301,90 306,85 301,80 299,80 299,90 " class="clusterblast-orf"  />
<polygon style="stroke:black; stroke-width:1; fill:#FFFFFF; " description="histone-lysine_N-methyltransferase_ASH1L[br]Location: 2793043 - 2795871" locus_tag="HMPREF1120_06567" id="clusterblast-1_h13_1_8" points="308,85 313,80 328,80 328,90 313,90 308,85 " class="clusterblast-orf"  />
<polygon style="stroke:black; stroke-width:1; fill:rgb(63,63,190); " description="polyketide_synthase[br]Location: 2796473 - 2804899&lt;br&gt;&lt;br&gt;&lt;b&gt;BlastP hit with CHAFR746836_0081180.1&lt;/b&gt;&lt;br&gt;Percentage identity: 32%&lt;br&gt;Percentage coverage: 51%&lt;br&gt;BLAST bit score: 589&lt;br&gt;E-value: 4e-170" locus_tag="HMPREF1120_06568" id="clusterblast-1_h13_1_9" points="333,85 338,80 394,80 394,90 338,90 333,85 " class="clusterblast-orf"  />
<polygon style="stroke:black; stroke-width:1; fill:rgb(63,190,63); " description="hypothetical_protein[br]Location: 2806159 - 2807264&lt;br&gt;&lt;br&gt;&lt;b&gt;BlastP hit with CHAFR746836_0081190.1&lt;/b&gt;&lt;br&gt;Percentage identity: 31%&lt;br&gt;Percentage coverage: 108%&lt;br&gt;BLAST bit score: 116&lt;br&gt;E-value: 7e-29" locus_tag="HMPREF1120_06569" id="clusterblast-1_h13_1_10" points="403,90 406,90 411,85 406,80 403,80 403,90 " class="clusterblast-orf"  />
<polygon style="stroke:black; stroke-width:1; fill:rgb(63,63,190); " description="polyketide_synthase[br]Location: 2808192 - 2815795&lt;br&gt;&lt;br&gt;&lt;b&gt;BlastP hit with CHAFR746836_0081180.1&lt;/b&gt;&lt;br&gt;Percentage identity: 32%&lt;br&gt;Percentage coverage: 75%&lt;br&gt;BLAST bit score: 772&lt;br&gt;E-value: 0.0" locus_tag="HMPREF1120_06570" id="clusterblast-1_h13_1_11" points="417,90 468,90 473,85 468,80 417,80 417,90 " class="clusterblast-orf"  />
<polygon style="stroke:black; stroke-width:1; fill:#FFFFFF; " description="hypothetical_protein[br]Location: 2816209 - 2821522" locus_tag="HMPREF1120_06571" id="clusterblast-1_h13_1_12" points="476,85 481,80 514,80 514,90 481,90 476,85 " class="clusterblast-orf"  />
<polygon style="stroke:black; stroke-width:1; fill:#FFFFFF; " description="hypothetical_protein[br]Location: 2825245 - 2827072" locus_tag="HMPREF1120_06572" id="clusterblast-1_h13_1_13" points="541,90 549,90 554,85 549,80 541,80 541,90 " class="clusterblast-orf"  />
<polygon style="stroke:black; stroke-width:1; fill:#FFFFFF; " description="hypothetical_protein[br]Location: 2828048 - 2829148" locus_tag="HMPREF1120_06573" id="clusterblast-1_h13_1_14" points="561,90 564,90 569,85 564,80 561,80 561,90 " class="clusterblast-orf"  />
<polygon style="stroke:black; stroke-width:1; fill:#FFFFFF; " description="carboxylesterase[br]Location: 2830187 - 2831371" locus_tag="HMPREF1120_06574" id="clusterblast-1_h13_1_15" points="577,90 580,90 585,85 580,80 577,80 577,90 " class="clusterblast-orf"  />
<polygon style="stroke:black; stroke-width:1; fill:#FFFFFF; " description="hypothetical_protein[br]Location: 2832005 - 2834400" locus_tag="HMPREF1120_06575" id="clusterblast-1_h13_1_16" points="590,90 602,90 607,85 602,80 590,80 590,90 " class="clusterblast-orf"  />
<polygon style="stroke:black; stroke-width:1; fill:#FFFFFF; " description="peroxiredoxin[br]Location: 2834700 - 2835479" locus_tag="HMPREF1120_06576" id="clusterblast-1_h13_1_17" points="609,85 614,80 615,80 615,90 614,90 609,85 " class="clusterblast-orf"  />
</g>
</svg>
