<svg xmlns="http://www.w3.org/2000/svg" height="230" width="800" version="1.1" y="0" x="0" preserveAspectRatio="none" xmlns:xlink="http://www.w3.org/1999/xlink" viewBox="0 0 800 230"  >
<g class="clusterblast-cluster" label="Query sequence"  >
<text class="clusterblast-acc" y="10" x="5"  >
Query sequence</text>
<line y1="35" x2="778.0" style="stroke:grey; stroke-width:1; " x1="10" y2="35"  />
<polygon style="stroke:black; stroke-width:1; fill:red; " description="unannotated orf[br]Location: 21692 - 23171" locus_tag="CHAFR746836_0031020.1" class="clusterblast-orf" points="58,35 63,30 71,30 71,40 63,40 58,35 " id="clusterblast-1_q42_1_0"  />
<polygon style="stroke:black; stroke-width:1; fill:green; " description="unannotated orf[br]Location: 24117 - 25593" locus_tag="CHAFR746836_0031030.1" class="clusterblast-orf" points="80,35 85,30 93,30 93,40 85,40 80,35 " id="clusterblast-1_q42_1_1"  />
<polygon style="stroke:black; stroke-width:1; fill:blue; " description="unannotated orf[br]Location: 26212 - 40332" locus_tag="CHAFR746836_0031040.1" class="clusterblast-orf" points="99,40 222,40 227,35 222,30 99,30 99,40 " id="clusterblast-1_q42_1_2"  />
<polygon style="stroke:black; stroke-width:1; fill:#FFFFFF; " description="unannotated orf[br]Location: 45285 - 47271" locus_tag="CHAFR746836_0031050.1" class="clusterblast-orf" points="272,40 285,40 290,35 285,30 272,30 272,40 " id="clusterblast-1_q42_1_3"  />
<polygon style="stroke:black; stroke-width:1; fill:#FFFFFF; " description="unannotated orf[br]Location: 49060 - 49584" locus_tag="CHAFR746836_0031060.1" class="clusterblast-orf" points="306,40 306,40 311,35 306,30 306,30 306,40 " id="clusterblast-1_q42_1_4"  />
<polygon style="stroke:black; stroke-width:1; fill:#FFFFFF; " description="unannotated orf[br]Location: 51570 - 54053" locus_tag="CHAFR746836_0031070.1" class="clusterblast-orf" points="329,40 346,40 351,35 346,30 329,30 329,40 " id="clusterblast-1_q42_1_5"  />
<polygon style="stroke:black; stroke-width:1; fill:#FFFFFF; " description="unannotated orf[br]Location: 83506 - 87093" locus_tag="CHAFR746836_0031080.1" class="clusterblast-orf" points="619,40 646,40 651,35 646,30 619,30 619,40 " id="clusterblast-1_q42_1_6"  />
<polygon style="stroke:black; stroke-width:1; fill:#FFFFFF; " description="unannotated orf[br]Location: 93748 - 95553" locus_tag="CHAFR746836_0031090.1" class="clusterblast-orf" points="712,40 723,40 728,35 723,30 712,30 712,40 " id="clusterblast-1_q42_1_7"  />
</g>
<g class="clusterblast-cluster" description="Trichoderma atroviride IMI 206040 TRIATcontig 15, whole ..." label="ABDG02000015.1_c1"  >
<text class="clusterblast-acc" y="60" x="5"  >
ABDG02000015.1_c1</text>
<text class="clusterblast-desc" y="60" x="460.8"  >
Trichoderma atroviride IMI 206040 TRIATcontig 15, whole ...</text>
<line y1="85" x2="778.0" style="stroke:grey; stroke-width:1; " x1="10" y2="85"  />
<polygon style="stroke:black; stroke-width:1; fill:#FFFFFF; " description="hypothetical_protein[br]Location: 192489 - 193780" locus_tag="TRIATDRAFT_157321" id="clusterblast-1_h42_1_0" points="10,90 16,90 21,85 16,80 10,80 10,90 " class="clusterblast-orf"  />
<polygon style="stroke:black; stroke-width:1; fill:#FFFFFF; " description="hypothetical_protein[br]Location: 194170 - 194708" locus_tag="TRIATDRAFT_254585" id="clusterblast-1_h42_1_1" points="25,85 30,80 30,80 30,90 30,90 25,85 " class="clusterblast-orf"  />
<polygon style="stroke:black; stroke-width:1; fill:#FFFFFF; " description="hypothetical_protein[br]Location: 197048 - 197375" locus_tag="TRIATDRAFT_314699" id="clusterblast-1_h42_1_2" points="51,85 54,80 54,90 51,85 " class="clusterblast-orf"  />
<polygon style="stroke:black; stroke-width:1; fill:#FFFFFF; " description="hypothetical_protein[br]Location: 199236 - 200666" locus_tag="TRIATDRAFT_297265" id="clusterblast-1_h42_1_3" points="71,85 76,80 84,80 84,90 76,90 71,85 " class="clusterblast-orf"  />
<polygon style="stroke:black; stroke-width:1; fill:#FFFFFF; " description="hypothetical_protein[br]Location: 201555 - 202075" locus_tag="TRIATDRAFT_170523" id="clusterblast-1_h42_1_4" points="92,85 97,80 97,80 97,90 97,90 92,85 " class="clusterblast-orf"  />
<polygon style="stroke:black; stroke-width:1; fill:#FFFFFF; " description="hypothetical_protein[br]Location: 203125 - 204282" locus_tag="TRIATDRAFT_157314" id="clusterblast-1_h42_1_5" points="106,85 111,80 117,80 117,90 111,90 106,85 " class="clusterblast-orf"  />
<polygon style="stroke:black; stroke-width:1; fill:#FFFFFF; " description="hypothetical_protein[br]Location: 205758 - 207921" locus_tag="TRIATDRAFT_212098" id="clusterblast-1_h42_1_6" points="130,90 145,90 150,85 145,80 130,80 130,90 " class="clusterblast-orf"  />
<polygon style="stroke:black; stroke-width:1; fill:#FFFFFF; " description="hypothetical_protein[br]Location: 208652 - 209629" locus_tag="TRIATDRAFT_314703" id="clusterblast-1_h42_1_7" points="156,90 160,90 165,85 160,80 156,80 156,90 " class="clusterblast-orf"  />
<polygon style="stroke:black; stroke-width:1; fill:green; " description="Hypothetical_protein[br]Location: 210736 - 211898&lt;br&gt;&lt;br&gt;&lt;b&gt;BlastP hit with CHAFR746836_0031030.1&lt;/b&gt;&lt;br&gt;Percentage identity: 37%&lt;br&gt;Percentage coverage: 94%&lt;br&gt;BLAST bit score: 229&lt;br&gt;E-value: 1e-69" locus_tag="TRIATDRAFT_51786" id="clusterblast-1_h42_1_8" points="175,85 180,80 186,80 186,90 180,90 175,85 " class="clusterblast-orf"  />
<polygon style="stroke:black; stroke-width:1; fill:blue; " description="polyketide_synthase[br]Location: 212509 - 224600&lt;br&gt;&lt;br&gt;&lt;b&gt;BlastP hit with CHAFR746836_0031040.1&lt;/b&gt;&lt;br&gt;Percentage identity: 44%&lt;br&gt;Percentage coverage: 42%&lt;br&gt;BLAST bit score: 1476&lt;br&gt;E-value: 0.0" locus_tag="TRIATDRAFT_212102" id="clusterblast-1_h42_1_9" points="191,90 296,90 301,85 296,80 191,80 191,90 " class="clusterblast-orf"  />
<polygon style="stroke:black; stroke-width:1; fill:red; " description="hypothetical_protein[br]Location: 224868 - 226644&lt;br&gt;&lt;br&gt;&lt;b&gt;BlastP hit with CHAFR746836_0031020.1&lt;/b&gt;&lt;br&gt;Percentage identity: 31%&lt;br&gt;Percentage coverage: 97%&lt;br&gt;BLAST bit score: 180&lt;br&gt;E-value: 1e-49" locus_tag="TRIATDRAFT_304119" id="clusterblast-1_h42_1_10" points="303,85 308,80 320,80 320,90 308,90 303,85 " class="clusterblast-orf"  />
<polygon style="stroke:black; stroke-width:1; fill:#FFFFFF; " description="hypothetical_protein[br]Location: 227191 - 228891" locus_tag="TRIATDRAFT_51176" id="clusterblast-1_h42_1_11" points="325,85 330,80 340,80 340,90 330,90 325,85 " class="clusterblast-orf"  />
<polygon style="stroke:black; stroke-width:1; fill:#FFFFFF; " description="hypothetical_protein[br]Location: 230627 - 232045" locus_tag="TRIATDRAFT_83147" id="clusterblast-1_h42_1_12" points="356,90 364,90 369,85 364,80 356,80 356,90 " class="clusterblast-orf"  />
<polygon style="stroke:black; stroke-width:1; fill:#FFFFFF; " description="hypothetical_protein[br]Location: 232645 - 233850" locus_tag="TRIATDRAFT_51737" id="clusterblast-1_h42_1_13" points="374,90 380,90 385,85 380,80 374,80 374,90 " class="clusterblast-orf"  />
<polygon style="stroke:black; stroke-width:1; fill:#FFFFFF; " description="hypothetical_protein[br]Location: 234060 - 234566" locus_tag="TRIATDRAFT_51549" id="clusterblast-1_h42_1_14" points="387,85 392,80 392,80 392,90 392,90 387,85 " class="clusterblast-orf"  />
<polygon style="stroke:black; stroke-width:1; fill:blue; " description="polyketide_synthase[br]Location: 235021 - 244664&lt;br&gt;&lt;br&gt;&lt;b&gt;BlastP hit with CHAFR746836_0031040.1&lt;/b&gt;&lt;br&gt;Percentage identity: 34%&lt;br&gt;Percentage coverage: 29%&lt;br&gt;BLAST bit score: 646&lt;br&gt;E-value: 0.0" locus_tag="TRIATDRAFT_289254" id="clusterblast-1_h42_1_15" points="396,85 401,80 483,80 483,90 401,90 396,85 " class="clusterblast-orf"  />
<polygon style="stroke:black; stroke-width:1; fill:#FFFFFF; " description="hypothetical_protein[br]Location: 246449 - 248299" locus_tag="TRIATDRAFT_51470" id="clusterblast-1_h42_1_16" points="499,85 504,80 516,80 516,90 504,90 499,85 " class="clusterblast-orf"  />
<polygon style="stroke:black; stroke-width:1; fill:#FFFFFF; " description="polyketide_synthase[br]Location: 250440 - 257011" locus_tag="TRIATDRAFT_188840" id="clusterblast-1_h42_1_17" points="536,90 590,90 595,85 590,80 536,80 536,90 " class="clusterblast-orf"  />
<polygon style="stroke:black; stroke-width:1; fill:#FFFFFF; " description="hypothetical_protein[br]Location: 257558 - 258296" locus_tag="TRIATDRAFT_83144" id="clusterblast-1_h42_1_18" points="600,90 602,90 607,85 602,80 600,80 600,90 " class="clusterblast-orf"  />
<polygon style="stroke:black; stroke-width:1; fill:#FFFFFF; " description="hypothetical_protein[br]Location: 258637 - 259286" locus_tag="TRIATDRAFT_51231" id="clusterblast-1_h42_1_19" points="610,90 611,90 616,85 611,80 610,80 610,90 " class="clusterblast-orf"  />
<polygon style="stroke:black; stroke-width:1; fill:#FFFFFF; " description="hypothetical_protein[br]Location: 260037 - 260393" locus_tag="TRIATDRAFT_304127" id="clusterblast-1_h42_1_20" points="623,90 626,85 623,80 623,90 " class="clusterblast-orf"  />
<polygon style="stroke:black; stroke-width:1; fill:#FFFFFF; " description="glycoside_hydrolase_family_27_protein[br]Location: 260954 - 262568" locus_tag="TRIATDRAFT_51401" id="clusterblast-1_h42_1_21" points="631,90 641,90 646,85 641,80 631,80 631,90 " class="clusterblast-orf"  />
<polygon style="stroke:black; stroke-width:1; fill:#FFFFFF; " description="hypothetical_protein[br]Location: 263333 - 267023" locus_tag="TRIATDRAFT_280383" id="clusterblast-1_h42_1_22" points="653,90 681,90 686,85 681,80 653,80 653,90 " class="clusterblast-orf"  />
<polygon style="stroke:black; stroke-width:1; fill:#FFFFFF; " description="hypothetical_protein[br]Location: 267208 - 272239" locus_tag="TRIATDRAFT_234113" id="clusterblast-1_h42_1_23" points="688,85 693,80 734,80 734,90 693,90 688,85 " class="clusterblast-orf"  />
<polygon style="stroke:black; stroke-width:1; fill:#FFFFFF; " description="hypothetical_protein[br]Location: 272626 - 273855" locus_tag="TRIATDRAFT_289259" id="clusterblast-1_h42_1_24" points="737,90 743,90 748,85 743,80 737,80 737,90 " class="clusterblast-orf"  />
<polygon style="stroke:black; stroke-width:1; fill:#FFFFFF; " description="hypothetical_protein[br]Location: 274153 - 277078" locus_tag="TRIATDRAFT_212122" id="clusterblast-1_h42_1_25" points="751,85 756,80 778,80 778,90 756,90 751,85 " class="clusterblast-orf"  />
</g>
</svg>
