<svg xmlns="http://www.w3.org/2000/svg" height="230" width="800" version="1.1" y="0" x="0" preserveAspectRatio="none" xmlns:xlink="http://www.w3.org/1999/xlink" viewBox="0 0 800 230"  >
<g class="clusterblast-cluster" label="Query sequence"  >
<text class="clusterblast-acc" y="10" x="5"  >
Query sequence</text>
<line y1="35" x2="778.0" style="stroke:grey; stroke-width:1; " x1="10" y2="35"  />
<polygon style="stroke:black; stroke-width:1; fill:rgb(190,63,63); " description="unannotated orf[br]Location: 121516 - 123190" locus_tag="CHAFR746836_0094200.1" class="clusterblast-orf" points="59,40 71,40 76,35 71,30 59,30 59,40 " id="clusterblast-1_q26_5_0"  />
<polygon style="stroke:black; stroke-width:1; fill:#FFFFFF; " description="unannotated orf[br]Location: 131375 - 131963" locus_tag="CHAFR746836_0094210.1" class="clusterblast-orf" points="162,35 167,30 168,30 168,40 167,40 162,35 " id="clusterblast-1_q26_5_1"  />
<polygon style="stroke:black; stroke-width:1; fill:#FFFFFF; " description="unannotated orf[br]Location: 132355 - 132981" locus_tag="CHAFR746836_0094220.1" class="clusterblast-orf" points="173,35 178,30 179,30 179,40 178,40 173,35 " id="clusterblast-1_q26_5_2"  />
<polygon style="stroke:black; stroke-width:1; fill:rgb(63,63,190); " description="unannotated orf[br]Location: 139202 - 140282" locus_tag="CHAFR746836_0094230.1" class="clusterblast-orf" points="245,35 250,30 256,30 256,40 250,40 245,35 " id="clusterblast-1_q26_5_3"  />
<polygon style="stroke:black; stroke-width:1; fill:rgb(63,190,63); " description="unannotated orf[br]Location: 142899 - 147562" locus_tag="CHAFR746836_0094240.1" class="clusterblast-orf" points="284,35 289,30 333,30 333,40 289,40 284,35 " id="clusterblast-1_q26_5_4"  />
<polygon style="stroke:black; stroke-width:1; fill:rgb(190,63,190); " description="unannotated orf[br]Location: 149403 - 151141" locus_tag="CHAFR746836_0094250.1" class="clusterblast-orf" points="352,40 365,40 370,35 365,30 352,30 352,40 " id="clusterblast-1_q26_5_5"  />
<polygon style="stroke:black; stroke-width:1; fill:rgb(190,190,63); " description="unannotated orf[br]Location: 153173 - 156458" locus_tag="CHAFR746836_0094260.1" class="clusterblast-orf" points="392,35 397,30 426,30 426,40 397,40 392,35 " id="clusterblast-1_q26_5_6"  />
<polygon style="stroke:black; stroke-width:1; fill:#FFFFFF; " description="unannotated orf[br]Location: 158921 - 161095" locus_tag="CHAFR746836_0094270.1" class="clusterblast-orf" points="452,40 470,40 475,35 470,30 452,30 452,40 " id="clusterblast-1_q26_5_7"  />
<polygon style="stroke:black; stroke-width:1; fill:#FFFFFF; " description="unannotated orf[br]Location: 163204 - 166182" locus_tag="CHAFR746836_0094280.1" class="clusterblast-orf" points="497,35 502,30 529,30 529,40 502,40 497,35 " id="clusterblast-1_q26_5_8"  />
<polygon style="stroke:black; stroke-width:1; fill:rgb(190,190,190); " description="unannotated orf[br]Location: 167736 - 168967" locus_tag="CHAFR746836_0094290.1" class="clusterblast-orf" points="545,40 553,40 558,35 553,30 545,30 545,40 " id="clusterblast-1_q26_5_9"  />
<polygon style="stroke:black; stroke-width:1; fill:rgb(63,190,190); " description="unannotated orf[br]Location: 169074 - 170389" locus_tag="CHAFR746836_0094300.1" class="clusterblast-orf" points="559,35 564,30 573,30 573,40 564,40 559,35 " id="clusterblast-1_q26_5_10"  />
<polygon style="stroke:black; stroke-width:1; fill:#FFFFFF; " description="unannotated orf[br]Location: 171033 - 171342" locus_tag="CHAFR746836_0094310.1" class="clusterblast-orf" points="580,35 583,30 583,40 580,35 " id="clusterblast-1_q26_5_11"  />
<polygon style="stroke:black; stroke-width:1; fill:#FFFFFF; " description="unannotated orf[br]Location: 175775 - 177555" locus_tag="CHAFR746836_0094320.1" class="clusterblast-orf" points="630,35 635,30 648,30 648,40 635,40 630,35 " id="clusterblast-1_q26_5_12"  />
<polygon style="stroke:black; stroke-width:1; fill:#FFFFFF; " description="unannotated orf[br]Location: 180145 - 180857" locus_tag="CHAFR746836_0094330.1" class="clusterblast-orf" points="676,40 678,40 683,35 678,30 676,30 676,40 " id="clusterblast-1_q26_5_13"  />
<polygon style="stroke:black; stroke-width:1; fill:#FFFFFF; " description="unannotated orf[br]Location: 181484 - 185078" locus_tag="CHAFR746836_0094340.1" class="clusterblast-orf" points="690,40 723,40 728,35 723,30 690,30 690,40 " id="clusterblast-1_q26_5_14"  />
</g>
<g class="clusterblast-cluster" description="Gloeobacter violaceus PCC 7421, complete genome." label="NC_005125.1_c4"  >
<text class="clusterblast-acc" y="60" x="5"  >
NC_005125.1_c4</text>
<text class="clusterblast-desc" y="60" x="460.8"  >
Gloeobacter violaceus PCC 7421, complete genome.</text>
<line y1="85" x2="778.0" style="stroke:grey; stroke-width:1; " x1="10" y2="85"  />
<polygon style="stroke:black; stroke-width:1; fill:#FFFFFF; " description="elongation_factor_G[br]Location: 2990743 - 2992755" locus_tag="gvip388" id="clusterblast-1_h26_5_0" points="10,90 26,90 31,85 26,80 10,80 10,90 " class="clusterblast-orf"  />
<polygon style="stroke:black; stroke-width:1; fill:#FFFFFF; " description="protease[br]Location: 2992921 - 2993472" locus_tag="glr2813" id="clusterblast-1_h26_5_1" points="32,90 33,90 38,85 33,80 32,80 32,90 " class="clusterblast-orf"  />
<polygon style="stroke:black; stroke-width:1; fill:#FFFFFF; " description="hypothetical_protein[br]Location: 2993959 - 2994378" locus_tag="glr2814" id="clusterblast-1_h26_5_2" points="43,90 43,90 48,85 43,80 43,80 43,90 " class="clusterblast-orf"  />
<polygon style="stroke:black; stroke-width:1; fill:#FFFFFF; " description="hypothetical_protein[br]Location: 2994671 - 2994913" locus_tag="gsr2815" id="clusterblast-1_h26_5_3" points="51,90 53,85 51,80 51,90 " class="clusterblast-orf"  />
<polygon style="stroke:black; stroke-width:1; fill:#FFFFFF; " description="O-methyltransferase[br]Location: 2995015 - 2995695" locus_tag="glr2816" id="clusterblast-1_h26_5_4" points="54,90 57,90 62,85 57,80 54,80 54,90 " class="clusterblast-orf"  />
<polygon style="stroke:black; stroke-width:1; fill:#FFFFFF; " description="hydroxylase[br]Location: 2996055 - 2996612" locus_tag="glr2817" id="clusterblast-1_h26_5_5" points="65,90 66,90 71,85 66,80 65,80 65,90 " class="clusterblast-orf"  />
<polygon style="stroke:black; stroke-width:1; fill:#FFFFFF; " description="gluconokinase[br]Location: 2996646 - 2997146" locus_tag="gll2818" id="clusterblast-1_h26_5_6" points="72,85 77,80 77,80 77,90 77,90 72,85 " class="clusterblast-orf"  />
<polygon style="stroke:black; stroke-width:1; fill:#FFFFFF; " description="hypothetical_protein[br]Location: 2997200 - 2997745" locus_tag="gll2819" id="clusterblast-1_h26_5_7" points="77,85 82,80 83,80 83,90 82,90 77,85 " class="clusterblast-orf"  />
<polygon style="stroke:black; stroke-width:1; fill:rgb(190,190,190); " description="UDP-glucose_4-epimerase[br]Location: 2997833 - 2998837&lt;br&gt;&lt;br&gt;&lt;b&gt;BlastP hit with CHAFR746836_0094290.1&lt;/b&gt;&lt;br&gt;Percentage identity: 38%&lt;br&gt;Percentage coverage: 92%&lt;br&gt;BLAST bit score: 206&lt;br&gt;E-value: 3e-61" locus_tag="glr2820" id="clusterblast-1_h26_5_8" points="84,90 90,90 95,85 90,80 84,80 84,90 " class="clusterblast-orf"  />
<polygon style="stroke:black; stroke-width:1; fill:#FFFFFF; " description="WD_repeat-containing_protein[br]Location: 2999221 - 3002802" locus_tag="glr2821" id="clusterblast-1_h26_5_9" points="99,90 131,90 136,85 131,80 99,80 99,90 " class="clusterblast-orf"  />
<polygon style="stroke:black; stroke-width:1; fill:#FFFFFF; " description="hypothetical_protein[br]Location: 3002869 - 3004458" locus_tag="gll2822" id="clusterblast-1_h26_5_10" points="137,85 142,80 154,80 154,90 142,90 137,85 " class="clusterblast-orf"  />
<polygon style="stroke:black; stroke-width:1; fill:#FFFFFF; " description="hypothetical_protein[br]Location: 3004501 - 3005502" locus_tag="gll2823" id="clusterblast-1_h26_5_11" points="154,85 159,80 165,80 165,90 159,90 154,85 " class="clusterblast-orf"  />
<polygon style="stroke:black; stroke-width:1; fill:#FFFFFF; " description="cholesterol_oxidase[br]Location: 3005543 - 3007081" locus_tag="gll2824" id="clusterblast-1_h26_5_12" points="165,85 170,80 181,80 181,90 170,90 165,85 " class="clusterblast-orf"  />
<polygon style="stroke:black; stroke-width:1; fill:rgb(63,190,190); " description="quinone_oxidoreductase[br]Location: 3007113 - 3008102&lt;br&gt;&lt;br&gt;&lt;b&gt;BlastP hit with CHAFR746836_0094300.1&lt;/b&gt;&lt;br&gt;Percentage identity: 31%&lt;br&gt;Percentage coverage: 101%&lt;br&gt;BLAST bit score: 124&lt;br&gt;E-value: 4e-31" locus_tag="gll2825" id="clusterblast-1_h26_5_13" points="182,85 187,80 192,80 192,90 187,90 182,85 " class="clusterblast-orf"  />
<polygon style="stroke:black; stroke-width:1; fill:#FFFFFF; " description="hypothetical_protein[br]Location: 3008150 - 3009055" locus_tag="gll2826" id="clusterblast-1_h26_5_14" points="193,85 198,80 202,80 202,90 198,90 193,85 " class="clusterblast-orf"  />
<polygon style="stroke:black; stroke-width:1; fill:#FFFFFF; " description="hypothetical_protein[br]Location: 3009060 - 3010334" locus_tag="gll2827" id="clusterblast-1_h26_5_15" points="202,85 207,80 216,80 216,90 207,90 202,85 " class="clusterblast-orf"  />
<polygon style="stroke:black; stroke-width:1; fill:#FFFFFF; " description="hypothetical_protein[br]Location: 3010360 - 3011031" locus_tag="gll2828" id="clusterblast-1_h26_5_16" points="216,85 221,80 223,80 223,90 221,90 216,85 " class="clusterblast-orf"  />
<polygon style="stroke:black; stroke-width:1; fill:#FFFFFF; " description="polyketide_synthase[br]Location: 3011066 - 3014665" locus_tag="gll2829" id="clusterblast-1_h26_5_17" points="223,85 228,80 261,80 261,90 228,90 223,85 " class="clusterblast-orf"  />
<polygon style="stroke:black; stroke-width:1; fill:#FFFFFF; " description="polyketide_synthase[br]Location: 3014653 - 3014979" locus_tag="gll2830" id="clusterblast-1_h26_5_18" points="261,85 265,80 265,90 261,85 " class="clusterblast-orf"  />
<polygon style="stroke:black; stroke-width:1; fill:#FFFFFF; " description="hypothetical_protein[br]Location: 3014976 - 3016643" locus_tag="gll2831" id="clusterblast-1_h26_5_19" points="265,85 270,80 282,80 282,90 270,90 265,85 " class="clusterblast-orf"  />
<polygon style="stroke:black; stroke-width:1; fill:#FFFFFF; " description="hypothetical_protein[br]Location: 3016690 - 3019299" locus_tag="gll2832" id="clusterblast-1_h26_5_20" points="283,85 288,80 310,80 310,90 288,90 283,85 " class="clusterblast-orf"  />
<polygon style="stroke:black; stroke-width:1; fill:#FFFFFF; " description="oxidoreductase[br]Location: 3019311 - 3020066" locus_tag="gll2833" id="clusterblast-1_h26_5_21" points="310,85 315,80 318,80 318,90 315,90 310,85 " class="clusterblast-orf"  />
<polygon style="stroke:black; stroke-width:1; fill:#FFFFFF; " description="alpha-acetolactate_decarboxylase[br]Location: 3020114 - 3020998" locus_tag="gll2834" id="clusterblast-1_h26_5_22" points="319,85 324,80 328,80 328,90 324,90 319,85 " class="clusterblast-orf"  />
<polygon style="stroke:black; stroke-width:1; fill:#FFFFFF; " description="decarboxylase[br]Location: 3021141 - 3021965" locus_tag="gll2835" id="clusterblast-1_h26_5_23" points="329,85 334,80 338,80 338,90 334,90 329,85 " class="clusterblast-orf"  />
<polygon style="stroke:black; stroke-width:1; fill:#FFFFFF; " description="alcohol_dehydrogenase[br]Location: 3022041 - 3023033" locus_tag="gll2836" id="clusterblast-1_h26_5_24" points="339,85 344,80 349,80 349,90 344,90 339,85 " class="clusterblast-orf"  />
<polygon style="stroke:black; stroke-width:1; fill:#FFFFFF; " description="hypothetical_protein[br]Location: 3023073 - 3023309" locus_tag="gsl2837" id="clusterblast-1_h26_5_25" points="350,85 352,80 352,90 350,85 " class="clusterblast-orf"  />
<polygon style="stroke:black; stroke-width:1; fill:#FFFFFF; " description="short_chain_dehydrogenase[br]Location: 3023392 - 3024141" locus_tag="gll2838" id="clusterblast-1_h26_5_26" points="353,85 358,80 361,80 361,90 358,90 353,85 " class="clusterblast-orf"  />
<polygon style="stroke:black; stroke-width:1; fill:#FFFFFF; " description="RND_multidrug_efflux_transporter[br]Location: 3024193 - 3027372" locus_tag="gll2839" id="clusterblast-1_h26_5_27" points="362,85 367,80 395,80 395,90 367,90 362,85 " class="clusterblast-orf"  />
<polygon style="stroke:black; stroke-width:1; fill:#FFFFFF; " description="hypothetical_protein[br]Location: 3027409 - 3028641" locus_tag="gll2840" id="clusterblast-1_h26_5_28" points="395,85 400,80 408,80 408,90 400,90 395,85 " class="clusterblast-orf"  />
<polygon style="stroke:black; stroke-width:1; fill:#FFFFFF; " description="oxidoreductase[br]Location: 3028663 - 3029646" locus_tag="gll2841" id="clusterblast-1_h26_5_29" points="409,85 414,80 419,80 419,90 414,90 409,85 " class="clusterblast-orf"  />
<polygon style="stroke:black; stroke-width:1; fill:#FFFFFF; " description="hypothetical_protein[br]Location: 3030417 - 3030845" locus_tag="glr2842" id="clusterblast-1_h26_5_30" points="427,90 427,90 432,85 427,80 427,80 427,90 " class="clusterblast-orf"  />
<polygon style="stroke:black; stroke-width:1; fill:#FFFFFF; " description="hypothetical_protein[br]Location: 3030846 - 3031037" locus_tag="gsr2843" id="clusterblast-1_h26_5_31" points="432,90 434,85 432,80 432,90 " class="clusterblast-orf"  />
<polygon style="stroke:black; stroke-width:1; fill:#FFFFFF; " description="pyruvate_dehydrogenase_E1_alpha-subunit[br]Location: 3031051 - 3032046" locus_tag="glr2844" id="clusterblast-1_h26_5_32" points="434,90 439,90 444,85 439,80 434,80 434,90 " class="clusterblast-orf"  />
<polygon style="stroke:black; stroke-width:1; fill:#FFFFFF; " description="aspartate_alpha-decarboxylase[br]Location: 3032099 - 3032455" locus_tag="glr2845" id="clusterblast-1_h26_5_33" points="445,90 449,85 445,80 445,90 " class="clusterblast-orf"  />
<polygon style="stroke:black; stroke-width:1; fill:#FFFFFF; " description="pyruvate_dehydrogenase_E1_beta-subunit[br]Location: 3032535 - 3033518" locus_tag="glr2846" id="clusterblast-1_h26_5_34" points="449,90 455,90 460,85 455,80 449,80 449,90 " class="clusterblast-orf"  />
<polygon style="stroke:black; stroke-width:1; fill:#FFFFFF; " description="hypothetical_protein[br]Location: 3033519 - 3033779" locus_tag="gsr2847" id="clusterblast-1_h26_5_35" points="460,90 463,85 460,80 460,90 " class="clusterblast-orf"  />
<polygon style="stroke:black; stroke-width:1; fill:#FFFFFF; " description="glycolipid_synthase[br]Location: 3033832 - 3037839" locus_tag="glr2848" id="clusterblast-1_h26_5_36" points="463,90 500,90 505,85 500,80 463,80 463,90 " class="clusterblast-orf"  />
<polygon style="stroke:black; stroke-width:1; fill:#FFFFFF; " description="hypothetical_protein[br]Location: 3037935 - 3040349" locus_tag="glr2849" id="clusterblast-1_h26_5_37" points="506,90 527,90 532,85 527,80 506,80 506,90 " class="clusterblast-orf"  />
<polygon style="stroke:black; stroke-width:1; fill:#FFFFFF; " description="thioesterase[br]Location: 3040687 - 3041460" locus_tag="glr2850" id="clusterblast-1_h26_5_38" points="535,90 538,90 543,85 538,80 535,80 535,90 " class="clusterblast-orf"  />
<polygon style="stroke:black; stroke-width:1; fill:#FFFFFF; " description="hypothetical_protein[br]Location: 3041447 - 3042253" locus_tag="glr2851" id="clusterblast-1_h26_5_39" points="543,90 547,90 552,85 547,80 543,80 543,90 " class="clusterblast-orf"  />
<polygon style="stroke:black; stroke-width:1; fill:#FFFFFF; " description="beta-ketoacyl_synthase[br]Location: 3042296 - 3043468" locus_tag="gll2852" id="clusterblast-1_h26_5_40" points="552,85 557,80 565,80 565,90 557,90 552,85 " class="clusterblast-orf"  />
<polygon style="stroke:black; stroke-width:1; fill:#FFFFFF; " description="beta-ketoacyl_synthase[br]Location: 3043489 - 3044889" locus_tag="gll2853" id="clusterblast-1_h26_5_41" points="565,85 570,80 579,80 579,90 570,90 565,85 " class="clusterblast-orf"  />
<polygon style="stroke:black; stroke-width:1; fill:#FFFFFF; " description="acyl_carrier_protein[br]Location: 3044938 - 3045201" locus_tag="gsl2854" id="clusterblast-1_h26_5_42" points="580,85 583,80 583,90 580,85 " class="clusterblast-orf"  />
<polygon style="stroke:black; stroke-width:1; fill:#FFFFFF; " description="MarR_family_transcriptional_regulator[br]Location: 3045309 - 3045779" locus_tag="gll2855" id="clusterblast-1_h26_5_43" points="584,85 589,80 589,80 589,90 589,90 584,85 " class="clusterblast-orf"  />
<polygon style="stroke:black; stroke-width:1; fill:#FFFFFF; " description="LysR_family_transcriptional_regulator[br]Location: 3045772 - 3046677" locus_tag="gll2856" id="clusterblast-1_h26_5_44" points="589,85 594,80 598,80 598,90 594,90 589,85 " class="clusterblast-orf"  />
<polygon style="stroke:black; stroke-width:1; fill:#FFFFFF; " description="hypothetical_protein[br]Location: 3047009 - 3047305" locus_tag="gsl2857" id="clusterblast-1_h26_5_45" points="602,85 605,80 605,90 602,85 " class="clusterblast-orf"  />
<polygon style="stroke:black; stroke-width:1; fill:#FFFFFF; " description="oxidoreductase[br]Location: 3047343 - 3048149" locus_tag="gll2858" id="clusterblast-1_h26_5_46" points="605,85 610,80 614,80 614,90 610,90 605,85 " class="clusterblast-orf"  />
<polygon style="stroke:black; stroke-width:1; fill:#FFFFFF; " description="oxidoreductase[br]Location: 3048442 - 3049443" locus_tag="glr2859" id="clusterblast-1_h26_5_47" points="617,90 622,90 627,85 622,80 617,80 617,90 " class="clusterblast-orf"  />
<polygon style="stroke:black; stroke-width:1; fill:#FFFFFF; " description="LysR_family_transcriptional_regulator[br]Location: 3049469 - 3050434" locus_tag="gll2860" id="clusterblast-1_h26_5_48" points="628,85 633,80 638,80 638,90 633,90 628,85 " class="clusterblast-orf"  />
<polygon style="stroke:black; stroke-width:1; fill:#FFFFFF; " description="hypothetical_protein[br]Location: 3050703 - 3051389" locus_tag="gll2861" id="clusterblast-1_h26_5_49" points="641,85 646,80 648,80 648,90 646,90 641,85 " class="clusterblast-orf"  />
<polygon style="stroke:black; stroke-width:1; fill:#FFFFFF; " description="hypothetical_protein[br]Location: 3051586 - 3054594" locus_tag="glr2862" id="clusterblast-1_h26_5_50" points="650,90 677,90 682,85 677,80 650,80 650,90 " class="clusterblast-orf"  />
<polygon style="stroke:black; stroke-width:1; fill:#FFFFFF; " description="hypothetical_protein[br]Location: 3054669 - 3055064" locus_tag="glr2863" id="clusterblast-1_h26_5_51" points="682,90 682,90 687,85 682,80 682,80 682,90 " class="clusterblast-orf"  />
<polygon style="stroke:black; stroke-width:1; fill:#FFFFFF; " description="acetyl-CoA_carboxylase_carboxyltransferase[br]Location: 3055116 - 3056096" locus_tag="gvip389" id="clusterblast-1_h26_5_52" points="687,85 692,80 697,80 697,90 692,90 687,85 " class="clusterblast-orf"  />
<polygon style="stroke:black; stroke-width:1; fill:#FFFFFF; " description="glycosyltransferase[br]Location: 3056204 - 3057385" locus_tag="glr2865" id="clusterblast-1_h26_5_53" points="699,90 706,90 711,85 706,80 699,80 699,90 " class="clusterblast-orf"  />
<polygon style="stroke:black; stroke-width:1; fill:#FFFFFF; " description="delta_9_acyl-lipid_desaturase[br]Location: 3057506 - 3058357" locus_tag="gvip390" id="clusterblast-1_h26_5_54" points="712,85 717,80 721,80 721,90 717,90 712,85 " class="clusterblast-orf"  />
<polygon style="stroke:black; stroke-width:1; fill:#FFFFFF; " description="hypothetical_protein[br]Location: 3058545 - 3059708" locus_tag="gll2867" id="clusterblast-1_h26_5_55" points="723,85 728,80 735,80 735,90 728,90 723,85 " class="clusterblast-orf"  />
<polygon style="stroke:black; stroke-width:1; fill:#FFFFFF; " description="HlyB/MsbA_family_ABC_transporter[br]Location: 3061025 - 3062791" locus_tag="gll2868" id="clusterblast-1_h26_5_56" points="749,85 754,80 768,80 768,90 754,90 749,85 " class="clusterblast-orf"  />
<polygon style="stroke:black; stroke-width:1; fill:#FFFFFF; " description="hypothetical_protein[br]Location: 3062802 - 3063701" locus_tag="gll2869" id="clusterblast-1_h26_5_57" points="768,85 773,80 778,80 778,90 773,90 768,85 " class="clusterblast-orf"  />
</g>
</svg>
