<svg xmlns="http://www.w3.org/2000/svg" height="230" width="800" version="1.1" y="0" x="0" preserveAspectRatio="none" xmlns:xlink="http://www.w3.org/1999/xlink" viewBox="0 0 800 230"  >
<g class="clusterblast-cluster" label="Query sequence"  >
<text class="clusterblast-acc" y="10" x="5"  >
Query sequence</text>
<line y1="35" x2="778.0" style="stroke:grey; stroke-width:1; " x1="10" y2="35"  />
<polygon style="stroke:black; stroke-width:1; fill:rgb(190,63,63); " description="unannotated orf[br]Location: 0 - 4473" locus_tag="CHAFR746836_0033810.1" class="clusterblast-orf" points="112,35 117,30 168,30 168,40 117,40 112,35 " id="clusterblast-1_q47_6_0"  />
<polygon style="stroke:black; stroke-width:1; fill:rgb(63,63,190); " description="unannotated orf[br]Location: 8908 - 16258" locus_tag="CHAFR746836_0033820.1" class="clusterblast-orf" points="223,35 228,30 315,30 315,40 228,40 223,35 " id="clusterblast-1_q47_6_1"  />
<polygon style="stroke:black; stroke-width:1; fill:rgb(63,190,63); " description="unannotated orf[br]Location: 17051 - 17982" locus_tag="CHAFR746836_0033830.1" class="clusterblast-orf" points="325,40 332,40 337,35 332,30 325,30 325,40 " id="clusterblast-1_q47_6_2"  />
<polygon style="stroke:black; stroke-width:1; fill:rgb(190,63,190); " description="unannotated orf[br]Location: 20014 - 21694" locus_tag="CHAFR746836_0033840.1" class="clusterblast-orf" points="362,40 378,40 383,35 378,30 362,30 362,40 " id="clusterblast-1_q47_6_3"  />
<polygon style="stroke:black; stroke-width:1; fill:rgb(190,190,63); " description="unannotated orf[br]Location: 21817 - 22799" locus_tag="CHAFR746836_0033850.1" class="clusterblast-orf" points="385,35 390,30 397,30 397,40 390,40 385,35 " id="clusterblast-1_q47_6_4"  />
<polygon style="stroke:black; stroke-width:1; fill:rgb(190,190,190); " description="unannotated orf[br]Location: 23459 - 25108" locus_tag="CHAFR746836_0033860.1" class="clusterblast-orf" points="406,40 421,40 426,35 421,30 406,30 406,40 " id="clusterblast-1_q47_6_5"  />
<polygon style="stroke:black; stroke-width:1; fill:#FFFFFF; " description="unannotated orf[br]Location: 25635 - 26766" locus_tag="CHAFR746836_0033870.1" class="clusterblast-orf" points="433,40 442,40 447,35 442,30 433,30 433,40 " id="clusterblast-1_q47_6_6"  />
<polygon style="stroke:black; stroke-width:1; fill:#FFFFFF; " description="unannotated orf[br]Location: 33731 - 34287" locus_tag="CHAFR746836_0033880.1" class="clusterblast-orf" points="534,35 539,30 541,30 541,40 539,40 534,35 " id="clusterblast-1_q47_6_7"  />
<polygon style="stroke:black; stroke-width:1; fill:#FFFFFF; " description="unannotated orf[br]Location: 40637 - 41931" locus_tag="CHAFR746836_0033890.1" class="clusterblast-orf" points="621,35 626,30 637,30 637,40 626,40 621,35 " id="clusterblast-1_q47_6_8"  />
<polygon style="stroke:black; stroke-width:1; fill:#FFFFFF; " description="unannotated orf[br]Location: 43999 - 44934" locus_tag="CHAFR746836_0033900.1" class="clusterblast-orf" points="663,35 668,30 675,30 675,40 668,40 663,35 " id="clusterblast-1_q47_6_9"  />
</g>
<g class="clusterblast-cluster" description="Exophiala dermatitidis NIH/UT8656 unplaced genomic scaffold ..." label="JH226134.1_c2"  >
<text class="clusterblast-acc" y="60" x="5"  >
JH226134.1_c2</text>
<text class="clusterblast-desc" y="60" x="460.8"  >
Exophiala dermatitidis NIH/UT8656 unplaced genomic scaffold ...</text>
<line y1="85" x2="778.0" style="stroke:grey; stroke-width:1; " x1="10" y2="85"  />
<polygon style="stroke:black; stroke-width:1; fill:#FFFFFF; " description="hypothetical_protein[br]Location: 2774211 - 2776618" locus_tag="HMPREF1120_06559" id="clusterblast-1_h47_6_0" points="10,85 15,80 40,80 40,90 15,90 10,85 " class="clusterblast-orf"  />
<polygon style="stroke:black; stroke-width:1; fill:#FFFFFF; " description="hypothetical_protein[br]Location: 2777957 - 2780647" locus_tag="HMPREF1120_06560" id="clusterblast-1_h47_6_1" points="56,90 85,90 90,85 85,80 56,80 56,90 " class="clusterblast-orf"  />
<polygon style="stroke:black; stroke-width:1; fill:#FFFFFF; " description="MFS_transporter,_DHA1_family,_multidrug[br]Location: 2781349 - 2783935" locus_tag="HMPREF1120_06561" id="clusterblast-1_h47_6_2" points="99,85 104,80 131,80 131,90 104,90 99,85 " class="clusterblast-orf"  />
<polygon style="stroke:black; stroke-width:1; fill:#FFFFFF; " description="hypothetical_protein[br]Location: 2784967 - 2786464" locus_tag="HMPREF1120_06562" id="clusterblast-1_h47_6_3" points="144,85 149,80 163,80 163,90 149,90 144,85 " class="clusterblast-orf"  />
<polygon style="stroke:black; stroke-width:1; fill:#FFFFFF; " description="eukaryotic_translation_initiation_factor_3[br]Location: 2787530 - 2788449" locus_tag="HMPREF1120_06563" id="clusterblast-1_h47_6_4" points="176,85 181,80 188,80 188,90 181,90 176,85 " class="clusterblast-orf"  />
<polygon style="stroke:black; stroke-width:1; fill:#FFFFFF; " description="cyclin_H[br]Location: 2789145 - 2790218" locus_tag="HMPREF1120_06564" id="clusterblast-1_h47_6_5" points="197,85 202,80 210,80 210,90 202,90 197,85 " class="clusterblast-orf"  />
<polygon style="stroke:black; stroke-width:1; fill:#FFFFFF; " description="hypothetical_protein[br]Location: 2790300 - 2790642" locus_tag="HMPREF1120_06565" id="clusterblast-1_h47_6_6" points="211,85 215,80 215,90 211,85 " class="clusterblast-orf"  />
<polygon style="stroke:black; stroke-width:1; fill:#FFFFFF; " description="hypothetical_protein[br]Location: 2791768 - 2792793" locus_tag="HMPREF1120_06566" id="clusterblast-1_h47_6_7" points="230,90 237,90 242,85 237,80 230,80 230,90 " class="clusterblast-orf"  />
<polygon style="stroke:black; stroke-width:1; fill:#FFFFFF; " description="histone-lysine_N-methyltransferase_ASH1L[br]Location: 2793043 - 2795871" locus_tag="HMPREF1120_06567" id="clusterblast-1_h47_6_8" points="246,85 251,80 281,80 281,90 251,90 246,85 " class="clusterblast-orf"  />
<polygon style="stroke:black; stroke-width:1; fill:rgb(63,63,190); " description="polyketide_synthase[br]Location: 2796473 - 2804899&lt;br&gt;&lt;br&gt;&lt;b&gt;BlastP hit with CHAFR746836_0033820.1&lt;/b&gt;&lt;br&gt;Percentage identity: 31%&lt;br&gt;Percentage coverage: 51%&lt;br&gt;BLAST bit score: 560&lt;br&gt;E-value: 4e-161" locus_tag="HMPREF1120_06568" id="clusterblast-1_h47_6_9" points="289,85 294,80 394,80 394,90 294,90 289,85 " class="clusterblast-orf"  />
<polygon style="stroke:black; stroke-width:1; fill:rgb(63,190,63); " description="hypothetical_protein[br]Location: 2806159 - 2807264&lt;br&gt;&lt;br&gt;&lt;b&gt;BlastP hit with CHAFR746836_0033830.1&lt;/b&gt;&lt;br&gt;Percentage identity: 35%&lt;br&gt;Percentage coverage: 105%&lt;br&gt;BLAST bit score: 174&lt;br&gt;E-value: 8e-50" locus_tag="HMPREF1120_06569" id="clusterblast-1_h47_6_10" points="410,90 419,90 424,85 419,80 410,80 410,90 " class="clusterblast-orf"  />
<polygon style="stroke:black; stroke-width:1; fill:rgb(63,63,190); " description="polyketide_synthase[br]Location: 2808192 - 2815795&lt;br&gt;&lt;br&gt;&lt;b&gt;BlastP hit with CHAFR746836_0033820.1&lt;/b&gt;&lt;br&gt;Percentage identity: 34%&lt;br&gt;Percentage coverage: 53%&lt;br&gt;BLAST bit score: 667&lt;br&gt;E-value: 0.0" locus_tag="HMPREF1120_06570" id="clusterblast-1_h47_6_11" points="435,90 526,90 531,85 526,80 435,80 435,90 " class="clusterblast-orf"  />
<polygon style="stroke:black; stroke-width:1; fill:#FFFFFF; " description="hypothetical_protein[br]Location: 2816209 - 2821522" locus_tag="HMPREF1120_06571" id="clusterblast-1_h47_6_12" points="536,85 541,80 603,80 603,90 541,90 536,85 " class="clusterblast-orf"  />
<polygon style="stroke:black; stroke-width:1; fill:#FFFFFF; " description="hypothetical_protein[br]Location: 2825245 - 2827072" locus_tag="HMPREF1120_06572" id="clusterblast-1_h47_6_13" points="649,90 667,90 672,85 667,80 649,80 649,90 " class="clusterblast-orf"  />
<polygon style="stroke:black; stroke-width:1; fill:#FFFFFF; " description="hypothetical_protein[br]Location: 2828048 - 2829148" locus_tag="HMPREF1120_06573" id="clusterblast-1_h47_6_14" points="684,90 693,90 698,85 693,80 684,80 684,90 " class="clusterblast-orf"  />
<polygon style="stroke:black; stroke-width:1; fill:#FFFFFF; " description="carboxylesterase[br]Location: 2830187 - 2831371" locus_tag="HMPREF1120_06574" id="clusterblast-1_h47_6_15" points="711,90 721,90 726,85 721,80 711,80 711,90 " class="clusterblast-orf"  />
<polygon style="stroke:black; stroke-width:1; fill:#FFFFFF; " description="hypothetical_protein[br]Location: 2832005 - 2834400" locus_tag="HMPREF1120_06575" id="clusterblast-1_h47_6_16" points="734,90 759,90 764,85 759,80 734,80 734,90 " class="clusterblast-orf"  />
<polygon style="stroke:black; stroke-width:1; fill:#FFFFFF; " description="peroxiredoxin[br]Location: 2834700 - 2835479" locus_tag="HMPREF1120_06576" id="clusterblast-1_h47_6_17" points="768,85 773,80 778,80 778,90 773,90 768,85 " class="clusterblast-orf"  />
</g>
</svg>
