<svg xmlns="http://www.w3.org/2000/svg" height="230" width="800" version="1.1" y="0" x="0" preserveAspectRatio="none" xmlns:xlink="http://www.w3.org/1999/xlink" viewBox="0 0 800 230"  >
<g class="clusterblast-cluster" label="Query sequence"  >
<text class="clusterblast-acc" y="10" x="5"  >
Query sequence</text>
<line y1="35" x2="778.0" style="stroke:grey; stroke-width:1; " x1="10" y2="35"  />
<polygon style="stroke:black; stroke-width:1; fill:#FFFFFF; " description="unannotated orf[br]Location: 1013 - 2670" locus_tag="CHAFR746836_0031900.1" class="clusterblast-orf" points="40,35 45,30 48,30 48,40 45,40 40,35 " id="clusterblast-2_q45_7_0"  />
<polygon style="stroke:black; stroke-width:1; fill:#FFFFFF; " description="unannotated orf[br]Location: 5806 - 8080" locus_tag="CHAFR746836_0031910.1" class="clusterblast-orf" points="64,40 71,40 76,35 71,30 64,30 64,40 " id="clusterblast-2_q45_7_1"  />
<polygon style="stroke:black; stroke-width:1; fill:rgb(190,63,63); " description="unannotated orf[br]Location: 14959 - 16522" locus_tag="CHAFR746836_0031920.1" class="clusterblast-orf" points="111,35 116,30 119,30 119,40 116,40 111,35 " id="clusterblast-2_q45_7_2"  />
<polygon style="stroke:black; stroke-width:1; fill:rgb(63,63,190); " description="unannotated orf[br]Location: 18634 - 27051" locus_tag="CHAFR746836_0031930.1" class="clusterblast-orf" points="130,35 135,30 173,30 173,40 135,40 130,35 " id="clusterblast-2_q45_7_3"  />
<polygon style="stroke:black; stroke-width:1; fill:rgb(63,190,63); " description="unannotated orf[br]Location: 28690 - 31017" locus_tag="CHAFR746836_0031940.1" class="clusterblast-orf" points="182,35 187,30 194,30 194,40 187,40 182,35 " id="clusterblast-2_q45_7_4"  />
<polygon style="stroke:black; stroke-width:1; fill:rgb(190,63,190); " description="unannotated orf[br]Location: 31821 - 32686" locus_tag="CHAFR746836_0031950.1" class="clusterblast-orf" points="198,40 202,35 198,30 198,40 " id="clusterblast-2_q45_7_5"  />
<polygon style="stroke:black; stroke-width:1; fill:#FFFFFF; " description="unannotated orf[br]Location: 33127 - 34136" locus_tag="CHAFR746836_0031960.1" class="clusterblast-orf" points="204,35 209,30 210,30 210,40 209,40 204,35 " id="clusterblast-2_q45_7_6"  />
<polygon style="stroke:black; stroke-width:1; fill:#FFFFFF; " description="unannotated orf[br]Location: 34492 - 36671" locus_tag="CHAFR746836_0031970.1" class="clusterblast-orf" points="212,40 218,40 223,35 218,30 212,30 212,40 " id="clusterblast-2_q45_7_7"  />
<polygon style="stroke:black; stroke-width:1; fill:#FFFFFF; " description="unannotated orf[br]Location: 90516 - 91329" locus_tag="CHAFR746836_0031980.1" class="clusterblast-orf" points="499,40 499,40 504,35 499,30 499,30 499,40 " id="clusterblast-2_q45_7_8"  />
<polygon style="stroke:black; stroke-width:1; fill:#FFFFFF; " description="unannotated orf[br]Location: 95107 - 95607" locus_tag="CHAFR746836_0031990.1" class="clusterblast-orf" points="523,35 525,30 525,40 523,35 " id="clusterblast-2_q45_7_9"  />
<polygon style="stroke:black; stroke-width:1; fill:#FFFFFF; " description="unannotated orf[br]Location: 98154 - 98987" locus_tag="CHAFR746836_0032000.1" class="clusterblast-orf" points="539,40 543,35 539,30 539,40 " id="clusterblast-2_q45_7_10"  />
<polygon style="stroke:black; stroke-width:1; fill:#FFFFFF; " description="unannotated orf[br]Location: 110556 - 112350" locus_tag="CHAFR746836_0032010.1" class="clusterblast-orf" points="602,35 607,30 612,30 612,40 607,40 602,35 " id="clusterblast-2_q45_7_11"  />
<polygon style="stroke:black; stroke-width:1; fill:rgb(190,190,63); " description="unannotated orf[br]Location: 112800 - 115534" locus_tag="CHAFR746836_0032020.1" class="clusterblast-orf" points="614,40 623,40 628,35 623,30 614,30 614,40 " id="clusterblast-2_q45_7_12"  />
<polygon style="stroke:black; stroke-width:1; fill:rgb(190,190,190); " description="unannotated orf[br]Location: 116249 - 122294" locus_tag="CHAFR746836_0032030.1" class="clusterblast-orf" points="632,40 658,40 663,35 658,30 632,30 632,40 " id="clusterblast-2_q45_7_13"  />
<polygon style="stroke:black; stroke-width:1; fill:rgb(63,190,190); " description="unannotated orf[br]Location: 126098 - 127042" locus_tag="CHAFR746836_0032040.1" class="clusterblast-orf" points="682,35 687,30 687,30 687,40 687,40 682,35 " id="clusterblast-2_q45_7_14"  />
<polygon style="stroke:black; stroke-width:1; fill:rgb(63,63,63); " description="unannotated orf[br]Location: 128617 - 129857" locus_tag="CHAFR746836_0032050.1" class="clusterblast-orf" points="695,40 696,40 701,35 696,30 695,30 695,40 " id="clusterblast-2_q45_7_15"  />
<polygon style="stroke:black; stroke-width:1; fill:#FFFFFF; " description="unannotated orf[br]Location: 132905 - 135667" locus_tag="CHAFR746836_0032060.1" class="clusterblast-orf" points="717,40 726,40 731,35 726,30 717,30 717,40 " id="clusterblast-2_q45_7_16"  />
<polygon style="stroke:black; stroke-width:1; fill:#FFFFFF; " description="unannotated orf[br]Location: 137047 - 138460" locus_tag="CHAFR746836_0032070.1" class="clusterblast-orf" points="738,35 743,30 746,30 746,40 743,40 738,35 " id="clusterblast-2_q45_7_17"  />
</g>
<g class="clusterblast-cluster" description="Haliangium ochraceum DSM 14365, complete genome." label="NC_013440.1_c14"  >
<text class="clusterblast-acc" y="60" x="5"  >
NC_013440.1_c14</text>
<text class="clusterblast-desc" y="60" x="460.8"  >
Haliangium ochraceum DSM 14365, complete genome.</text>
<line y1="85" x2="778.0" style="stroke:grey; stroke-width:1; " x1="10" y2="85"  />
<polygon style="stroke:black; stroke-width:1; fill:#FFFFFF; " description="L-lactate_permease[br]Location: 4146183 - 4147829" locus_tag="Hoch_2994" id="clusterblast-2_h45_7_0" points="10,90 13,90 18,85 13,80 10,80 10,90 " class="clusterblast-orf"  />
<polygon style="stroke:black; stroke-width:1; fill:#FFFFFF; " description="NmrA_family_protein[br]Location: 4145266 - 4146186" locus_tag="Hoch_2993" id="clusterblast-2_h45_7_1" points="18,90 18,90 23,85 18,80 18,80 18,90 " class="clusterblast-orf"  />
<polygon style="stroke:black; stroke-width:1; fill:#FFFFFF; " description="sodium/calcium_exchanger_membrane_region[br]Location: 4144331 - 4145155" locus_tag="Hoch_2992" id="clusterblast-2_h45_7_2" points="23,85 27,80 27,90 23,85 " class="clusterblast-orf"  />
<polygon style="stroke:black; stroke-width:1; fill:#FFFFFF; " description="transcriptional_regulator,_LysR_family[br]Location: 4143072 - 4143974" locus_tag="Hoch_2991" id="clusterblast-2_h45_7_3" points="29,90 29,90 34,85 29,80 29,80 29,90 " class="clusterblast-orf"  />
<polygon style="stroke:black; stroke-width:1; fill:#FFFFFF; " description="hypothetical_protein[br]Location: 4142744 - 4143130" locus_tag="Hoch_2990" id="clusterblast-2_h45_7_4" points="34,85 36,80 36,90 34,85 " class="clusterblast-orf"  />
<polygon style="stroke:black; stroke-width:1; fill:#FFFFFF; " description="carbonic_anhydrase[br]Location: 4141179 - 4141982" locus_tag="Hoch_2989" id="clusterblast-2_h45_7_5" points="40,90 44,85 40,80 40,90 " class="clusterblast-orf"  />
<polygon style="stroke:black; stroke-width:1; fill:#FFFFFF; " description="hypothetical_protein[br]Location: 4140725 - 4141069" locus_tag="Hoch_2988" id="clusterblast-2_h45_7_6" points="44,85 46,80 46,90 44,85 " class="clusterblast-orf"  />
<polygon style="stroke:black; stroke-width:1; fill:#FFFFFF; " description="hypothetical_protein[br]Location: 4140168 - 4140371" locus_tag="Hoch_2987" id="clusterblast-2_h45_7_7" points="48,85 49,80 49,90 48,85 " class="clusterblast-orf"  />
<polygon style="stroke:black; stroke-width:1; fill:#FFFFFF; " description="hypothetical_protein[br]Location: 4139211 - 4139501" locus_tag="Hoch_2985" id="clusterblast-2_h45_7_8" points="52,85 54,80 54,90 52,85 " class="clusterblast-orf"  />
<polygon style="stroke:black; stroke-width:1; fill:#FFFFFF; " description="NmrA_family_protein[br]Location: 4138003 - 4138878" locus_tag="Hoch_2984" id="clusterblast-2_h45_7_9" points="55,85 60,80 60,80 60,90 60,90 55,85 " class="clusterblast-orf"  />
<polygon style="stroke:black; stroke-width:1; fill:#FFFFFF; " description="phenazine_biosynthesis_protein[br]Location: 4137611 - 4138006" locus_tag="Hoch_2983" id="clusterblast-2_h45_7_10" points="60,85 62,80 62,90 60,85 " class="clusterblast-orf"  />
<polygon style="stroke:black; stroke-width:1; fill:#FFFFFF; " description="transcriptional_regulator,_AraC_family[br]Location: 4136572 - 4137513" locus_tag="Hoch_2982" id="clusterblast-2_h45_7_11" points="63,90 67,85 63,80 63,90 " class="clusterblast-orf"  />
<polygon style="stroke:black; stroke-width:1; fill:#FFFFFF; " description="fatty_acid_desaturase[br]Location: 4133247 - 4134347" locus_tag="Hoch_2979" id="clusterblast-2_h45_7_12" points="79,90 79,90 84,85 79,80 79,80 79,90 " class="clusterblast-orf"  />
<polygon style="stroke:black; stroke-width:1; fill:#FFFFFF; " description="hypothetical_protein[br]Location: 4131494 - 4133038" locus_tag="Hoch_2978" id="clusterblast-2_h45_7_13" points="85,90 88,90 93,85 88,80 85,80 85,90 " class="clusterblast-orf"  />
<polygon style="stroke:black; stroke-width:1; fill:#FFFFFF; " description="hypothetical_protein[br]Location: 4131175 - 4131411" locus_tag="Hoch_2977" id="clusterblast-2_h45_7_14" points="94,90 95,85 94,80 94,90 " class="clusterblast-orf"  />
<polygon style="stroke:black; stroke-width:1; fill:#FFFFFF; " description="monooxygenase_FAD-binding_protein[br]Location: 4128717 - 4130237" locus_tag="Hoch_2975" id="clusterblast-2_h45_7_15" points="100,85 105,80 108,80 108,90 105,90 100,85 " class="clusterblast-orf"  />
<polygon style="stroke:black; stroke-width:1; fill:rgb(63,63,190); " description="6-deoxyerythronolide-B_synthase.,_(Acyl-carrier-[br]Location: 4120552 - 4128711&lt;br&gt;&lt;br&gt;&lt;b&gt;BlastP hit with CHAFR746836_0031930.1&lt;/b&gt;&lt;br&gt;Percentage identity: 40%&lt;br&gt;Percentage coverage: 16%&lt;br&gt;BLAST bit score: 283&lt;br&gt;E-value: 4e-75" locus_tag="Hoch_2974" id="clusterblast-2_h45_7_16" points="108,85 113,80 150,80 150,90 113,90 108,85 " class="clusterblast-orf"  />
<polygon style="stroke:black; stroke-width:1; fill:rgb(190,63,63); " description="cytochrome_P450[br]Location: 4119152 - 4120555&lt;br&gt;&lt;br&gt;&lt;b&gt;BlastP hit with CHAFR746836_0031920.1&lt;/b&gt;&lt;br&gt;Percentage identity: 34%&lt;br&gt;Percentage coverage: 38%&lt;br&gt;BLAST bit score: 65&lt;br&gt;E-value: 2e-10" locus_tag="Hoch_2973" id="clusterblast-2_h45_7_17" points="150,85 155,80 157,80 157,90 155,90 150,85 " class="clusterblast-orf"  />
<polygon style="stroke:black; stroke-width:1; fill:rgb(63,63,190); " description="6-deoxyerythronolide-B_synthase[br]Location: 4112758 - 4119168&lt;br&gt;&lt;br&gt;&lt;b&gt;BlastP hit with CHAFR746836_0031930.1&lt;/b&gt;&lt;br&gt;Percentage identity: 31%&lt;br&gt;Percentage coverage: 39%&lt;br&gt;BLAST bit score: 439&lt;br&gt;E-value: 4e-123" locus_tag="Hoch_2972" id="clusterblast-2_h45_7_18" points="157,85 162,80 190,80 190,90 162,90 157,85 " class="clusterblast-orf"  />
<polygon style="stroke:black; stroke-width:1; fill:#FFFFFF; " description="3-oxoacyl-(acyl-carrier-protein)_reductase.,_6-[br]Location: 4102462 - 4112736" locus_tag="Hoch_2971" id="clusterblast-2_h45_7_19" points="190,85 195,80 243,80 243,90 195,90 190,85 " class="clusterblast-orf"  />
<polygon style="stroke:black; stroke-width:1; fill:rgb(63,63,190); " description="Beta-ketoacyl_synthase[br]Location: 4096860 - 4102385&lt;br&gt;&lt;br&gt;&lt;b&gt;BlastP hit with CHAFR746836_0031930.1&lt;/b&gt;&lt;br&gt;Percentage identity: 31%&lt;br&gt;Percentage coverage: 26%&lt;br&gt;BLAST bit score: 294&lt;br&gt;E-value: 1e-78" locus_tag="Hoch_2970" id="clusterblast-2_h45_7_20" points="243,85 248,80 271,80 271,90 248,90 243,85 " class="clusterblast-orf"  />
<polygon style="stroke:black; stroke-width:1; fill:#FFFFFF; " description="Acyl_transferase[br]Location: 4086184 - 4096467" locus_tag="Hoch_2969" id="clusterblast-2_h45_7_21" points="273,90 321,90 326,85 321,80 273,80 273,90 " class="clusterblast-orf"  />
<polygon style="stroke:black; stroke-width:1; fill:rgb(63,63,190); " description="6-deoxyerythronolide-B_synthase[br]Location: 4080451 - 4086180&lt;br&gt;&lt;br&gt;&lt;b&gt;BlastP hit with CHAFR746836_0031930.1&lt;/b&gt;&lt;br&gt;Percentage identity: 39%&lt;br&gt;Percentage coverage: 16%&lt;br&gt;BLAST bit score: 301&lt;br&gt;E-value: 1e-80" locus_tag="Hoch_2968" id="clusterblast-2_h45_7_22" points="326,90 351,90 356,85 351,80 326,80 326,90 " class="clusterblast-orf"  />
<polygon style="stroke:black; stroke-width:1; fill:#FFFFFF; " description="cytochrome_P450[br]Location: 4079133 - 4080437" locus_tag="Hoch_2967" id="clusterblast-2_h45_7_23" points="356,85 361,80 362,80 362,90 361,90 356,85 " class="clusterblast-orf"  />
<polygon style="stroke:black; stroke-width:1; fill:#FFFFFF; " description="cytochrome_P450[br]Location: 4077615 - 4079042" locus_tag="Hoch_2966" id="clusterblast-2_h45_7_24" points="363,85 368,80 370,80 370,90 368,90 363,85 " class="clusterblast-orf"  />
<polygon style="stroke:black; stroke-width:1; fill:#FFFFFF; " description="transposase_IS3/IS911_family_protein[br]Location: 4077124 - 4077444" locus_tag="Hoch_2965" id="clusterblast-2_h45_7_25" points="371,90 373,85 371,80 371,90 " class="clusterblast-orf"  />
<polygon style="stroke:black; stroke-width:1; fill:#FFFFFF; " description="hypothetical_protein[br]Location: 4074780 - 4075976" locus_tag="Hoch_2963" id="clusterblast-2_h45_7_26" points="379,90 380,90 385,85 380,80 379,80 379,90 " class="clusterblast-orf"  />
<polygon style="stroke:black; stroke-width:1; fill:#FFFFFF; " description="Alpha-tubulin_suppressor_and_related_RCC1[br]Location: 4073606 - 4074586" locus_tag="Hoch_2961" id="clusterblast-2_h45_7_27" points="386,90 386,90 391,85 386,80 386,80 386,90 " class="clusterblast-orf"  />
<polygon style="stroke:black; stroke-width:1; fill:#FFFFFF; " description="putative_transposase[br]Location: 4072548 - 4073537" locus_tag="Hoch_2960" id="clusterblast-2_h45_7_28" points="391,90 391,90 396,85 391,80 391,80 391,90 " class="clusterblast-orf"  />
<polygon style="stroke:black; stroke-width:1; fill:#FFFFFF; " description="hypothetical_protein[br]Location: 4071155 - 4072222" locus_tag="Hoch_2959" id="clusterblast-2_h45_7_29" points="398,90 398,90 403,85 398,80 398,80 398,90 " class="clusterblast-orf"  />
<polygon style="stroke:black; stroke-width:1; fill:#FFFFFF; " description="hypothetical_protein[br]Location: 4070340 - 4071104" locus_tag="Hoch_2958" id="clusterblast-2_h45_7_30" points="404,85 408,80 408,90 404,85 " class="clusterblast-orf"  />
<polygon style="stroke:black; stroke-width:1; fill:#FFFFFF; " description="amino_acid_adenylation_domain_protein[br]Location: 4055634 - 4070282" locus_tag="Hoch_2957" id="clusterblast-2_h45_7_31" points="408,90 478,90 483,85 478,80 408,80 408,90 " class="clusterblast-orf"  />
<polygon style="stroke:black; stroke-width:1; fill:#FFFFFF; " description="KR_domain_protein[br]Location: 4043794 - 4055586" locus_tag="Hoch_2956" id="clusterblast-2_h45_7_32" points="483,90 539,90 544,85 539,80 483,80 483,90 " class="clusterblast-orf"  />
<polygon style="stroke:black; stroke-width:1; fill:#FFFFFF; " description="6-deoxyerythronolide-B_synthase[br]Location: 4038201 - 4043804" locus_tag="Hoch_2955" id="clusterblast-2_h45_7_33" points="544,90 568,90 573,85 568,80 544,80 544,90 " class="clusterblast-orf"  />
<polygon style="stroke:black; stroke-width:1; fill:#FFFFFF; " description="Acyl_transferase[br]Location: 4027855 - 4038204" locus_tag="Hoch_2954" id="clusterblast-2_h45_7_34" points="573,90 621,90 626,85 621,80 573,80 573,90 " class="clusterblast-orf"  />
<polygon style="stroke:black; stroke-width:1; fill:#FFFFFF; " description="Acyl_transferase[br]Location: 4024524 - 4027868" locus_tag="Hoch_2953" id="clusterblast-2_h45_7_35" points="626,90 638,90 643,85 638,80 626,80 626,90 " class="clusterblast-orf"  />
<polygon style="stroke:black; stroke-width:1; fill:#FFFFFF; " description="amino_acid_adenylation_domain_protein[br]Location: 4018547 - 4024585" locus_tag="Hoch_2952" id="clusterblast-2_h45_7_36" points="643,90 669,90 674,85 669,80 643,80 643,90 " class="clusterblast-orf"  />
<polygon style="stroke:black; stroke-width:1; fill:#FFFFFF; " description="methyltransferase_FkbM_family[br]Location: 4016046 - 4018535" locus_tag="Hoch_2951" id="clusterblast-2_h45_7_37" points="674,90 682,90 687,85 682,80 674,80 674,90 " class="clusterblast-orf"  />
<polygon style="stroke:black; stroke-width:1; fill:#FFFFFF; " description="3-hydroxybutyryl-CoA_dehydrogenase[br]Location: 4015171 - 4016043" locus_tag="Hoch_2950" id="clusterblast-2_h45_7_38" points="687,90 691,85 687,80 687,90 " class="clusterblast-orf"  />
<polygon style="stroke:black; stroke-width:1; fill:#FFFFFF; " description="hypothetical_protein[br]Location: 4014903 - 4015133" locus_tag="Hoch_2949" id="clusterblast-2_h45_7_39" points="691,90 692,85 691,80 691,90 " class="clusterblast-orf"  />
<polygon style="stroke:black; stroke-width:1; fill:#FFFFFF; " description="acyl-CoA_dehydrogenase_domain_protein[br]Location: 4013724 - 4014899" locus_tag="Hoch_2948" id="clusterblast-2_h45_7_40" points="692,90 693,90 698,85 693,80 692,80 692,90 " class="clusterblast-orf"  />
<polygon style="stroke:black; stroke-width:1; fill:#FFFFFF; " description="FkbH_like_protein[br]Location: 4012546 - 4013727" locus_tag="Hoch_2947" id="clusterblast-2_h45_7_41" points="698,90 700,90 705,85 700,80 698,80 698,90 " class="clusterblast-orf"  />
<polygon style="stroke:black; stroke-width:1; fill:#FFFFFF; " description="Beta-ketoacyl-acyl-carrier-protein_synthase_III[br]Location: 4011567 - 4012553" locus_tag="Hoch_2946" id="clusterblast-2_h45_7_42" points="705,90 705,90 710,85 705,80 705,80 705,90 " class="clusterblast-orf"  />
<polygon style="stroke:black; stroke-width:1; fill:#FFFFFF; " description="phosphopantetheine-binding_protein[br]Location: 4011306 - 4011542" locus_tag="Hoch_2945" id="clusterblast-2_h45_7_43" points="710,90 711,85 710,80 710,90 " class="clusterblast-orf"  />
<polygon style="stroke:black; stroke-width:1; fill:#FFFFFF; " description="hypothetical_protein[br]Location: 4010185 - 4011309" locus_tag="Hoch_2944" id="clusterblast-2_h45_7_44" points="711,90 712,90 717,85 712,80 711,80 711,90 " class="clusterblast-orf"  />
<polygon style="stroke:black; stroke-width:1; fill:#FFFFFF; " description="hypothetical_protein[br]Location: 4007122 - 4007469" locus_tag="Hoch_2940" id="clusterblast-2_h45_7_45" points="731,90 732,85 731,80 731,90 " class="clusterblast-orf"  />
<polygon style="stroke:black; stroke-width:1; fill:#FFFFFF; " description="Integrase_catalytic_region[br]Location: 4005617 - 4007125" locus_tag="Hoch_2939" id="clusterblast-2_h45_7_46" points="732,90 735,90 740,85 735,80 732,80 732,90 " class="clusterblast-orf"  />
<polygon style="stroke:black; stroke-width:1; fill:#FFFFFF; " description="IstB_domain_protein_ATP-binding_protein[br]Location: 4004857 - 4005645" locus_tag="Hoch_2938" id="clusterblast-2_h45_7_47" points="740,90 744,85 740,80 740,90 " class="clusterblast-orf"  />
<polygon style="stroke:black; stroke-width:1; fill:#FFFFFF; " description="Annexin_repeat_protein[br]Location: 4002239 - 4005007" locus_tag="Hoch_2937" id="clusterblast-2_h45_7_48" points="743,85 748,80 757,80 757,90 748,90 743,85 " class="clusterblast-orf"  />
<polygon style="stroke:black; stroke-width:1; fill:#FFFFFF; " description="glycosyl_transferase_family_2[br]Location: 3999475 - 4001754" locus_tag="Hoch_2936" id="clusterblast-2_h45_7_49" points="760,85 765,80 772,80 772,90 765,90 760,85 " class="clusterblast-orf"  />
<polygon style="stroke:black; stroke-width:1; fill:#FFFFFF; " description="hypothetical_protein[br]Location: 3998345 - 3999478" locus_tag="Hoch_2935" id="clusterblast-2_h45_7_50" points="772,85 777,80 778,80 778,90 777,90 772,85 " class="clusterblast-orf"  />
</g>
</svg>
