<svg xmlns="http://www.w3.org/2000/svg" height="230" width="800" version="1.1" y="0" x="0" preserveAspectRatio="none" xmlns:xlink="http://www.w3.org/1999/xlink" viewBox="0 0 800 230"  >
<g class="clusterblast-cluster" label="Query sequence"  >
<text class="clusterblast-acc" y="10" x="5"  >
Query sequence</text>
<line y1="35" x2="778.0" style="stroke:grey; stroke-width:1; " x1="10" y2="35"  />
<polygon style="stroke:black; stroke-width:1; fill:#FFFFFF; " description="unannotated orf[br]Location: 26332 - 27454" locus_tag="CHAFR746836_0031510.1" class="clusterblast-orf" points="10,35 15,30 23,30 23,40 15,40 10,35 " id="clusterblast-1_q43_6_0"  />
<polygon style="stroke:black; stroke-width:1; fill:#FFFFFF; " description="unannotated orf[br]Location: 28016 - 30730" locus_tag="CHAFR746836_0031520.1" class="clusterblast-orf" points="30,35 35,30 62,30 62,40 35,40 30,35 " id="clusterblast-1_q43_6_1"  />
<polygon style="stroke:black; stroke-width:1; fill:rgb(190,63,63); " description="unannotated orf[br]Location: 32876 - 35300" locus_tag="CHAFR746836_0031530.1" class="clusterblast-orf" points="88,35 93,30 117,30 117,40 93,40 88,35 " id="clusterblast-1_q43_6_2"  />
<polygon style="stroke:black; stroke-width:1; fill:#FFFFFF; " description="unannotated orf[br]Location: 36022 - 38283" locus_tag="CHAFR746836_0031540.1" class="clusterblast-orf" points="126,35 131,30 153,30 153,40 131,40 126,35 " id="clusterblast-1_q43_6_3"  />
<polygon style="stroke:black; stroke-width:1; fill:#FFFFFF; " description="unannotated orf[br]Location: 39348 - 40508" locus_tag="CHAFR746836_0031550.1" class="clusterblast-orf" points="165,35 170,30 179,30 179,40 170,40 165,35 " id="clusterblast-1_q43_6_4"  />
<polygon style="stroke:black; stroke-width:1; fill:rgb(63,63,190); " description="unannotated orf[br]Location: 41047 - 43006" locus_tag="CHAFR746836_0031560.1" class="clusterblast-orf" points="186,40 204,40 209,35 204,30 186,30 186,40 " id="clusterblast-1_q43_6_5"  />
<polygon style="stroke:black; stroke-width:1; fill:rgb(63,190,63); " description="unannotated orf[br]Location: 43610 - 45501" locus_tag="CHAFR746836_0031570.1" class="clusterblast-orf" points="217,35 222,30 239,30 239,40 222,40 217,35 " id="clusterblast-1_q43_6_6"  />
<polygon style="stroke:black; stroke-width:1; fill:#FFFFFF; " description="unannotated orf[br]Location: 45774 - 47650" locus_tag="CHAFR746836_0031580.1" class="clusterblast-orf" points="242,40 260,40 265,35 260,30 242,30 242,40 " id="clusterblast-1_q43_6_7"  />
<polygon style="stroke:black; stroke-width:1; fill:#FFFFFF; " description="unannotated orf[br]Location: 50384 - 51212" locus_tag="CHAFR746836_0031590.1" class="clusterblast-orf" points="298,40 303,40 308,35 303,30 298,30 298,40 " id="clusterblast-1_q43_6_8"  />
<polygon style="stroke:black; stroke-width:1; fill:#FFFFFF; " description="unannotated orf[br]Location: 51638 - 52722" locus_tag="CHAFR746836_0031600.1" class="clusterblast-orf" points="313,35 318,30 326,30 326,40 318,40 313,35 " id="clusterblast-1_q43_6_9"  />
<polygon style="stroke:black; stroke-width:1; fill:rgb(190,63,190); " description="unannotated orf[br]Location: 53244 - 55045" locus_tag="CHAFR746836_0031610.1" class="clusterblast-orf" points="332,40 349,40 354,35 349,30 332,30 332,40 " id="clusterblast-1_q43_6_10"  />
<polygon style="stroke:black; stroke-width:1; fill:#FFFFFF; " description="unannotated orf[br]Location: 55388 - 56607" locus_tag="CHAFR746836_0031620.1" class="clusterblast-orf" points="358,35 363,30 372,30 372,40 363,40 358,35 " id="clusterblast-1_q43_6_11"  />
<polygon style="stroke:black; stroke-width:1; fill:rgb(190,190,63); " description="unannotated orf[br]Location: 57102 - 59186" locus_tag="CHAFR746836_0031630.1" class="clusterblast-orf" points="378,40 398,40 403,35 398,30 378,30 378,40 " id="clusterblast-1_q43_6_12"  />
<polygon style="stroke:black; stroke-width:1; fill:#FFFFFF; " description="unannotated orf[br]Location: 62747 - 63923" locus_tag="CHAFR746836_0031640.1" class="clusterblast-orf" points="446,35 451,30 460,30 460,40 451,40 446,35 " id="clusterblast-1_q43_6_13"  />
<polygon style="stroke:black; stroke-width:1; fill:rgb(190,190,190); " description="unannotated orf[br]Location: 89457 - 90423" locus_tag="CHAFR746836_0031650.1" class="clusterblast-orf" points="766,35 771,30 778,30 778,40 771,40 766,35 " id="clusterblast-1_q43_6_14"  />
</g>
<g class="clusterblast-cluster" description="Aspergillus niger contig An10c0020, genomic contig." label="AM270213.1_c1"  >
<text class="clusterblast-acc" y="60" x="5"  >
AM270213.1_c1</text>
<text class="clusterblast-desc" y="60" x="460.8"  >
Aspergillus niger contig An10c0020, genomic contig.</text>
<line y1="85" x2="778.0" style="stroke:grey; stroke-width:1; " x1="10" y2="85"  />
<polygon style="stroke:black; stroke-width:1; fill:rgb(63,190,63); " description="[br]Location: 1045 - 3006&lt;br&gt;&lt;br&gt;&lt;b&gt;BlastP hit with CHAFR746836_0031570.1&lt;/b&gt;&lt;br&gt;Percentage identity: 31%&lt;br&gt;Percentage coverage: 82%&lt;br&gt;BLAST bit score: 197&lt;br&gt;E-value: 7e-55" locus_tag="An10g00050" id="clusterblast-1_h43_6_0" points="128,90 146,90 151,85 146,80 128,80 128,90 " class="clusterblast-orf"  />
<polygon style="stroke:black; stroke-width:1; fill:#FFFFFF; " description="[br]Location: 3801 - 5044" locus_tag="An10g00060" id="clusterblast-1_h43_6_1" points="161,90 170,90 175,85 170,80 161,80 161,90 " class="clusterblast-orf"  />
<polygon style="stroke:black; stroke-width:1; fill:#FFFFFF; " description="[br]Location: 5531 - 6707" locus_tag="An10g00070" id="clusterblast-1_h43_6_2" points="181,90 190,90 195,85 190,80 181,80 181,90 " class="clusterblast-orf"  />
<polygon style="stroke:black; stroke-width:1; fill:#FFFFFF; " description="hypothetical_protein[br]Location: 7821 - 8873" locus_tag="An10g00080" id="clusterblast-1_h43_6_3" points="209,90 216,90 221,85 216,80 209,80 209,90 " class="clusterblast-orf"  />
<polygon style="stroke:black; stroke-width:1; fill:#FFFFFF; " description="[br]Location: 9898 - 10601" locus_tag="An10g00090" id="clusterblast-1_h43_6_4" points="234,90 237,90 242,85 237,80 234,80 234,90 " class="clusterblast-orf"  />
<polygon style="stroke:black; stroke-width:1; fill:#FFFFFF; " description="[br]Location: 12102 - 14911" locus_tag="An10g00100" id="clusterblast-1_h43_6_5" points="260,90 289,90 294,85 289,80 260,80 260,90 " class="clusterblast-orf"  />
<polygon style="stroke:black; stroke-width:1; fill:#FFFFFF; " description="unnamed[br]Location: 15756 - 17514" locus_tag="An10g00110" id="clusterblast-1_h43_6_6" points="304,85 309,80 325,80 325,90 309,90 304,85 " class="clusterblast-orf"  />
<polygon style="stroke:black; stroke-width:1; fill:#FFFFFF; " description="[br]Location: 17809 - 18976" locus_tag="An10g00120" id="clusterblast-1_h43_6_7" points="328,85 333,80 342,80 342,90 333,90 328,85 " class="clusterblast-orf"  />
<polygon style="stroke:black; stroke-width:1; fill:#FFFFFF; " description="[br]Location: 19443 - 20460" locus_tag="An10g00130" id="clusterblast-1_h43_6_8" points="348,85 353,80 360,80 360,90 353,90 348,85 " class="clusterblast-orf"  />
<polygon style="stroke:black; stroke-width:1; fill:#FFFFFF; " description="[br]Location: 20849 - 26188" locus_tag="An10g00140" id="clusterblast-1_h43_6_9" points="365,90 424,90 429,85 424,80 365,80 365,90 " class="clusterblast-orf"  />
<polygon style="stroke:black; stroke-width:1; fill:#FFFFFF; " description="unnamed[br]Location: 27416 - 29306" locus_tag="An10g00150" id="clusterblast-1_h43_6_10" points="444,85 449,80 466,80 466,90 449,90 444,85 " class="clusterblast-orf"  />
<polygon style="stroke:black; stroke-width:1; fill:#FFFFFF; " description="hypothetical_protein[br]Location: 29513 - 30630" locus_tag="An10g00160" id="clusterblast-1_h43_6_11" points="469,90 477,90 482,85 477,80 469,80 469,90 " class="clusterblast-orf"  />
<polygon style="stroke:black; stroke-width:1; fill:rgb(190,190,190); " description="[br]Location: 31204 - 32256&lt;br&gt;&lt;br&gt;&lt;b&gt;BlastP hit with CHAFR746836_0031650.1&lt;/b&gt;&lt;br&gt;Percentage identity: 31%&lt;br&gt;Percentage coverage: 71%&lt;br&gt;BLAST bit score: 81&lt;br&gt;E-value: 3e-16" locus_tag="An10g00170" id="clusterblast-1_h43_6_12" points="489,85 494,80 502,80 502,90 494,90 489,85 " class="clusterblast-orf"  />
<polygon style="stroke:black; stroke-width:1; fill:#FFFFFF; " description="[br]Location: 33058 - 33914" locus_tag="An10g00180" id="clusterblast-1_h43_6_13" points="511,90 516,90 521,85 516,80 511,80 511,90 " class="clusterblast-orf"  />
<polygon style="stroke:black; stroke-width:1; fill:#FFFFFF; " description="unnamed[br]Location: 34789 - 36782" locus_tag="An10g00190" id="clusterblast-1_h43_6_14" points="532,90 551,90 556,85 551,80 532,80 532,90 " class="clusterblast-orf"  />
<polygon style="stroke:black; stroke-width:1; fill:#FFFFFF; " description="hypothetical_protein[br]Location: 37752 - 38148" locus_tag="An10g00210" id="clusterblast-1_h43_6_15" points="567,85 572,80 572,80 572,90 572,90 567,85 " class="clusterblast-orf"  />
<polygon style="stroke:black; stroke-width:1; fill:#FFFFFF; " description="[br]Location: 39498 - 40708" locus_tag="An10g00220" id="clusterblast-1_h43_6_16" points="588,85 593,80 603,80 603,90 593,90 588,85 " class="clusterblast-orf"  />
<polygon style="stroke:black; stroke-width:1; fill:#FFFFFF; " description="[br]Location: 41422 - 43135" locus_tag="An10g00230" id="clusterblast-1_h43_6_17" points="611,90 627,90 632,85 627,80 611,80 611,90 " class="clusterblast-orf"  />
<polygon style="stroke:black; stroke-width:1; fill:#FFFFFF; " description="[br]Location: 43966 - 45435" locus_tag="An10g00240" id="clusterblast-1_h43_6_18" points="642,85 647,80 659,80 659,90 647,90 642,85 " class="clusterblast-orf"  />
</g>
</svg>
