<svg xmlns="http://www.w3.org/2000/svg" height="230" width="800" version="1.1" y="0" x="0" preserveAspectRatio="none" xmlns:xlink="http://www.w3.org/1999/xlink" viewBox="0 0 800 230"  >
<g class="clusterblast-cluster" label="Query sequence"  >
<text class="clusterblast-acc" y="10" x="5"  >
Query sequence</text>
<line y1="35" x2="778.0" style="stroke:grey; stroke-width:1; " x1="10" y2="35"  />
<polygon style="stroke:black; stroke-width:1; fill:red; " description="unannotated orf[br]Location: 78016 - 79242" locus_tag="CHAFR746836_0016770.1" class="clusterblast-orf" points="250,35 255,30 272,30 272,40 255,40 250,35 " id="clusterblast-1_q36_5_0"  />
<polygon style="stroke:black; stroke-width:1; fill:green; " description="unannotated orf[br]Location: 81171 - 82179" locus_tag="CHAFR746836_0016780.1" class="clusterblast-orf" points="307,40 321,40 326,35 321,30 307,30 307,40 " id="clusterblast-1_q36_5_1"  />
<polygon style="stroke:black; stroke-width:1; fill:blue; " description="unannotated orf[br]Location: 82820 - 84436" locus_tag="CHAFR746836_0016790.1" class="clusterblast-orf" points="337,40 362,40 367,35 362,30 337,30 337,40 " id="clusterblast-1_q36_5_2"  />
<polygon style="stroke:black; stroke-width:1; fill:#FFFFFF; " description="unannotated orf[br]Location: 86969 - 88192" locus_tag="CHAFR746836_0016800.1" class="clusterblast-orf" points="413,35 418,30 436,30 436,40 418,40 413,35 " id="clusterblast-1_q36_5_3"  />
<polygon style="stroke:black; stroke-width:1; fill:yellow; " description="unannotated orf[br]Location: 89104 - 90705" locus_tag="CHAFR746836_0016810.1" class="clusterblast-orf" points="453,40 477,40 482,35 477,30 453,30 453,40 " id="clusterblast-1_q36_5_4"  />
<polygon style="stroke:black; stroke-width:1; fill:#FFFFFF; " description="unannotated orf[br]Location: 92624 - 93697" locus_tag="CHAFR746836_0016820.1" class="clusterblast-orf" points="517,35 522,30 537,30 537,40 522,40 517,35 " id="clusterblast-1_q36_5_5"  />
</g>
<g class="clusterblast-cluster" description="Grosmannia clavigera kw1407 unplaced genomic scaffold GCSC 1..." label="GL629782.1_c2"  >
<text class="clusterblast-acc" y="60" x="5"  >
GL629782.1_c2</text>
<text class="clusterblast-desc" y="60" x="460.8"  >
Grosmannia clavigera kw1407 unplaced genomic scaffold GCSC 1...</text>
<line y1="85" x2="778.0" style="stroke:grey; stroke-width:1; " x1="10" y2="85"  />
<polygon style="stroke:black; stroke-width:1; fill:#FFFFFF; " description="alpha_beta_hydrolase_fold_protein[br]Location: 865935 - 868702" locus_tag="CMQ_2390" id="clusterblast-1_h36_5_0" points="10,85 15,80 60,80 60,90 15,90 10,85 " class="clusterblast-orf"  />
<polygon style="stroke:black; stroke-width:1; fill:#FFFFFF; " description="duf757_domain_containing_protein[br]Location: 864045 - 864837" locus_tag="CMQ_2194" id="clusterblast-1_h36_5_1" points="80,90 90,90 95,85 90,80 80,80 80,90 " class="clusterblast-orf"  />
<polygon style="stroke:black; stroke-width:1; fill:#FFFFFF; " description="ABC_a-pheromone_efflux_pump[br]Location: 858925 - 863339" locus_tag="CMQ_2287" id="clusterblast-1_h36_5_2" points="108,90 184,90 189,85 184,80 108,80 108,90 " class="clusterblast-orf"  />
<polygon style="stroke:black; stroke-width:1; fill:#FFFFFF; " description="translin-associated_factor[br]Location: 857418 - 858417" locus_tag="CMQ_2318" id="clusterblast-1_h36_5_3" points="198,85 203,80 216,80 216,90 203,90 198,85 " class="clusterblast-orf"  />
<polygon style="stroke:black; stroke-width:1; fill:#FFFFFF; " description="mannosyltransferase[br]Location: 855601 - 857092" locus_tag="CMQ_2247" id="clusterblast-1_h36_5_4" points="222,90 244,90 249,85 244,80 222,80 222,90 " class="clusterblast-orf"  />
<polygon style="stroke:black; stroke-width:1; fill:#FFFFFF; " description="hypothetical_protein[br]Location: 853368 - 855345" locus_tag="CMQ_2473" id="clusterblast-1_h36_5_5" points="254,85 259,80 290,80 290,90 259,90 254,85 " class="clusterblast-orf"  />
<polygon style="stroke:black; stroke-width:1; fill:#FFFFFF; " description="subtilisin-like_protease[br]Location: 850253 - 851557" locus_tag="CMQ_2351" id="clusterblast-1_h36_5_6" points="323,90 342,90 347,85 342,80 323,80 323,90 " class="clusterblast-orf"  />
<polygon style="stroke:black; stroke-width:1; fill:yellow; " description="squalene_synthetase[br]Location: 847880 - 849454&lt;br&gt;&lt;br&gt;&lt;b&gt;BlastP hit with CHAFR746836_0016810.1&lt;/b&gt;&lt;br&gt;Percentage identity: 65%&lt;br&gt;Percentage coverage: 98%&lt;br&gt;BLAST bit score: 612&lt;br&gt;E-value: 0.0" locus_tag="CMQ_2253" id="clusterblast-1_h36_5_7" points="362,85 367,80 391,80 391,90 367,90 362,85 " class="clusterblast-orf"  />
<polygon style="stroke:black; stroke-width:1; fill:green; " description="NAD_dependent_epimerase[br]Location: 845266 - 846159&lt;br&gt;&lt;br&gt;&lt;b&gt;BlastP hit with CHAFR746836_0016780.1&lt;/b&gt;&lt;br&gt;Percentage identity: 80%&lt;br&gt;Percentage coverage: 98%&lt;br&gt;BLAST bit score: 493&lt;br&gt;E-value: 3e-175" locus_tag="CMQ_2313" id="clusterblast-1_h36_5_8" points="422,90 434,90 439,85 434,80 422,80 422,90 " class="clusterblast-orf"  />
<polygon style="stroke:black; stroke-width:1; fill:blue; " description="heat_shock_protein_DNAj[br]Location: 842805 - 844609&lt;br&gt;&lt;br&gt;&lt;b&gt;BlastP hit with CHAFR746836_0016790.1&lt;/b&gt;&lt;br&gt;Percentage identity: 61%&lt;br&gt;Percentage coverage: 110%&lt;br&gt;BLAST bit score: 604&lt;br&gt;E-value: 0.0" locus_tag="CMQ_2198" id="clusterblast-1_h36_5_9" points="451,90 479,90 484,85 479,80 451,80 451,90 " class="clusterblast-orf"  />
<polygon style="stroke:black; stroke-width:1; fill:#FFFFFF; " description="hypothetical_protein[br]Location: 838681 - 841725" locus_tag="CMQ_2199" id="clusterblast-1_h36_5_10" points="504,85 509,80 559,80 559,90 509,90 504,85 " class="clusterblast-orf"  />
<polygon style="stroke:black; stroke-width:1; fill:#FFFFFF; " description="heme_steroid-binding_domain_protein[br]Location: 836886 - 837935" locus_tag="CMQ_2190" id="clusterblast-1_h36_5_11" points="573,90 587,90 592,85 587,80 573,80 573,90 " class="clusterblast-orf"  />
<polygon style="stroke:black; stroke-width:1; fill:#FFFFFF; " description="DNA_damage_response_protein[br]Location: 834143 - 836835" locus_tag="CMQ_2475" id="clusterblast-1_h36_5_12" points="593,85 598,80 642,80 642,90 598,90 593,85 " class="clusterblast-orf"  />
<polygon style="stroke:black; stroke-width:1; fill:#FFFFFF; " description="acid_phosphatase[br]Location: 830224 - 833482" locus_tag="CMQ_2321" id="clusterblast-1_h36_5_13" points="655,90 709,90 714,85 709,80 655,80 655,90 " class="clusterblast-orf"  />
<polygon style="stroke:black; stroke-width:1; fill:#FFFFFF; " description="lipid_acyl_hydrolase[br]Location: 826767 - 830062" locus_tag="CMQ_2361" id="clusterblast-1_h36_5_14" points="717,85 722,80 778,80 778,90 722,90 717,85 " class="clusterblast-orf"  />
</g>
</svg>
