<svg xmlns="http://www.w3.org/2000/svg" height="680" width="800" version="1.1" y="0" x="0" preserveAspectRatio="none" xmlns:xlink="http://www.w3.org/1999/xlink" viewBox="0 0 800 680"  >
<g class="clusterblast-cluster" label="Query sequence"  >
<text class="clusterblast-acc" y="10" x="5"  >
Query sequence</text>
<line y1="35" x2="778.0" style="stroke:grey; stroke-width:1; " x1="10" y2="35"  />
<polygon style="stroke:black; stroke-width:1; fill:red; " description="unannotated orf[br]Location: 7069 - 8172" locus_tag="CHAFR746836_0067810.1" class="clusterblast-orf" points="291,40 299,40 304,35 299,30 291,30 291,40 " id="clusterblast-1_all_8_0_0"  />
<polygon style="stroke:black; stroke-width:1; fill:green; " description="unannotated orf[br]Location: 9727 - 13318" locus_tag="CHAFR746836_0067820.1" class="clusterblast-orf" points="322,35 327,30 365,30 365,40 327,40 322,35 " id="clusterblast-1_all_8_0_1"  />
<polygon style="stroke:black; stroke-width:1; fill:blue; " description="unannotated orf[br]Location: 14449 - 16282" locus_tag="CHAFR746836_0067830.1" class="clusterblast-orf" points="379,40 396,40 401,35 396,30 379,30 379,40 " id="clusterblast-1_all_8_0_2"  />
<polygon style="stroke:black; stroke-width:1; fill:yellow; " description="unannotated orf[br]Location: 18109 - 19056" locus_tag="CHAFR746836_0067840.1" class="clusterblast-orf" points="423,35 428,30 434,30 434,40 428,40 423,35 " id="clusterblast-1_all_8_0_3"  />
<polygon style="stroke:black; stroke-width:1; fill:#FFFFFF; " description="unannotated orf[br]Location: 20406 - 24215" locus_tag="CHAFR746836_0067850.1" class="clusterblast-orf" points="450,35 455,30 496,30 496,40 455,40 450,35 " id="clusterblast-1_all_8_0_4"  />
</g>
<g class="clusterblast-cluster" description="Glomerella graminicola M1.001 genomic scaffold supercont1.26..." label="GG697356.1_c2"  >
<text class="clusterblast-acc" y="60" x="5"  >
GG697356.1_c2</text>
<text class="clusterblast-desc" y="60" x="460.8"  >
Glomerella graminicola M1.001 genomic scaffold supercont1.26...</text>
<line y1="85" x2="778.0" style="stroke:grey; stroke-width:1; " x1="10" y2="85"  />
<polygon style="stroke:black; stroke-width:1; fill:#FFFFFF; " description="amine_oxidase[br]Location: 521455 - 523149" locus_tag="GLRG_06952" id="clusterblast-1_all_8_1_0" points="636,85 641,80 656,80 656,90 641,90 636,85 " class="clusterblast-orf"  />
<polygon style="stroke:black; stroke-width:1; fill:#FFFFFF; " description="cytochrome_c_oxidase_assembly_protein[br]Location: 523552 - 524556" locus_tag="GLRG_06953" id="clusterblast-1_all_8_1_1" points="620,85 625,80 632,80 632,90 625,90 620,85 " class="clusterblast-orf"  />
<polygon style="stroke:black; stroke-width:1; fill:#FFFFFF; " description="ribosomal_protein_L24[br]Location: 525942 - 526519" locus_tag="GLRG_06954" id="clusterblast-1_all_8_1_2" points="596,85 601,80 603,80 603,90 601,90 596,85 " class="clusterblast-orf"  />
<polygon style="stroke:black; stroke-width:1; fill:#FFFFFF; " description="hypothetical_protein[br]Location: 527694 - 530399" locus_tag="GLRG_06955" id="clusterblast-1_all_8_1_3" points="550,90 577,90 582,85 577,80 550,80 550,90 " class="clusterblast-orf"  />
<polygon style="stroke:black; stroke-width:1; fill:yellow; " description="hypothetical_protein[br]Location: 536554 - 537530&lt;br&gt;&lt;br&gt;&lt;b&gt;BlastP hit with CHAFR746836_0067840.1&lt;/b&gt;&lt;br&gt;Percentage identity: 53%&lt;br&gt;Percentage coverage: 104%&lt;br&gt;BLAST bit score: 286&lt;br&gt;E-value: 1e-94" locus_tag="GLRG_06956" id="clusterblast-1_all_8_1_4" points="464,85 469,80 476,80 476,90 469,90 464,85 " class="clusterblast-orf"  />
<polygon style="stroke:black; stroke-width:1; fill:blue; " description="hypothetical_protein[br]Location: 538798 - 540675&lt;br&gt;&lt;br&gt;&lt;b&gt;BlastP hit with CHAFR746836_0067830.1&lt;/b&gt;&lt;br&gt;Percentage identity: 58%&lt;br&gt;Percentage coverage: 100%&lt;br&gt;BLAST bit score: 677&lt;br&gt;E-value: 0.0" locus_tag="GLRG_06957" id="clusterblast-1_all_8_1_5" points="427,90 444,90 449,85 444,80 427,80 427,90 " class="clusterblast-orf"  />
<polygon style="stroke:black; stroke-width:1; fill:green; " description="L-aminoadipate-semialdehyde_dehydrogenase[br]Location: 542932 - 546821&lt;br&gt;&lt;br&gt;&lt;b&gt;BlastP hit with CHAFR746836_0067820.1&lt;/b&gt;&lt;br&gt;Percentage identity: 71%&lt;br&gt;Percentage coverage: 100%&lt;br&gt;BLAST bit score: 1749&lt;br&gt;E-value: 0.0" locus_tag="GLRG_06958" id="clusterblast-1_all_8_1_6" points="353,85 358,80 400,80 400,90 358,90 353,85 " class="clusterblast-orf"  />
<polygon style="stroke:black; stroke-width:1; fill:#FFFFFF; " description="YggS_family_pyridoxal_phosphate_enzyme[br]Location: 547391 - 548399" locus_tag="GLRG_06959" id="clusterblast-1_all_8_1_7" points="334,85 339,80 346,80 346,90 339,90 334,85 " class="clusterblast-orf"  />
<polygon style="stroke:black; stroke-width:1; fill:#FFFFFF; " description="hypothetical_protein[br]Location: 549979 - 551526" locus_tag="GLRG_06960" id="clusterblast-1_all_8_1_8" points="297,90 310,90 315,85 310,80 297,80 297,90 " class="clusterblast-orf"  />
<polygon style="stroke:black; stroke-width:1; fill:#FFFFFF; " description="hypothetical_protein[br]Location: 555803 - 556979" locus_tag="GLRG_06961" id="clusterblast-1_all_8_1_9" points="232,85 237,80 246,80 246,90 237,90 232,85 " class="clusterblast-orf"  />
<polygon style="stroke:black; stroke-width:1; fill:#FFFFFF; " description="V-type_ATPase[br]Location: 557508 - 559365" locus_tag="GLRG_06962" id="clusterblast-1_all_8_1_10" points="203,85 208,80 225,80 225,90 208,90 203,85 " class="clusterblast-orf"  />
<polygon style="stroke:black; stroke-width:1; fill:#FFFFFF; " description="ARP2/3_complex_16_kDa_subunit[br]Location: 560014 - 560724" locus_tag="GLRG_06963" id="clusterblast-1_all_8_1_11" points="187,85 192,80 195,80 195,90 192,90 187,85 " class="clusterblast-orf"  />
<polygon style="stroke:black; stroke-width:1; fill:#FFFFFF; " description="methyltransferase_domain-containing_protein[br]Location: 560972 - 562184" locus_tag="GLRG_06964" id="clusterblast-1_all_8_1_12" points="169,90 179,90 184,85 179,80 169,80 169,90 " class="clusterblast-orf"  />
<polygon style="stroke:black; stroke-width:1; fill:#FFFFFF; " description="hypothetical_protein[br]Location: 563664 - 566963" locus_tag="GLRG_06965" id="clusterblast-1_all_8_1_13" points="112,85 117,80 152,80 152,90 117,90 112,85 " class="clusterblast-orf"  />
</g>
<g class="clusterblast-cluster" description="Colletotrichum higginsianum IMI 349063 WGS project CACQ0..." label="CACQ02005913.1_c1"  >
<text class="clusterblast-acc" y="110" x="5"  >
CACQ02005913.1_c1</text>
<text class="clusterblast-desc" y="110" x="460.8"  >
Colletotrichum higginsianum IMI 349063 WGS project CACQ0...</text>
<line y1="135" x2="778.0" style="stroke:grey; stroke-width:1; " x1="10" y2="135"  />
<polygon style="stroke:black; stroke-width:1; fill:yellow; " description="hypothetical_protein[br]Location: 99 - 578&lt;br&gt;&lt;br&gt;&lt;b&gt;BlastP hit with CHAFR746836_0067840.1&lt;/b&gt;&lt;br&gt;Percentage identity: 42%&lt;br&gt;Percentage coverage: 59%&lt;br&gt;BLAST bit score: 121&lt;br&gt;E-value: 2e-32" locus_tag="CH063_03014" id="clusterblast-1_all_8_2_0" points="457,135 462,130 462,130 462,140 462,140 457,135 " class="clusterblast-orf"  />
<polygon style="stroke:black; stroke-width:1; fill:blue; " description="hypothetical_protein[br]Location: 1289 - 3160&lt;br&gt;&lt;br&gt;&lt;b&gt;BlastP hit with CHAFR746836_0067830.1&lt;/b&gt;&lt;br&gt;Percentage identity: 57%&lt;br&gt;Percentage coverage: 100%&lt;br&gt;BLAST bit score: 706&lt;br&gt;E-value: 0.0" locus_tag="CH063_03015" id="clusterblast-1_all_8_2_1" points="427,140 444,140 449,135 444,130 427,130 427,140 " class="clusterblast-orf"  />
<polygon style="stroke:black; stroke-width:1; fill:green; " description="L-aminoadipate-semialdehyde_dehydrogenase_large[br]Location: 6018 - 9875&lt;br&gt;&lt;br&gt;&lt;b&gt;BlastP hit with CHAFR746836_0067820.1&lt;/b&gt;&lt;br&gt;Percentage identity: 72%&lt;br&gt;Percentage coverage: 100%&lt;br&gt;BLAST bit score: 1765&lt;br&gt;E-value: 0.0" locus_tag="CH063_03016" id="clusterblast-1_all_8_2_2" points="346,135 351,130 392,130 392,140 351,140 346,135 " class="clusterblast-orf"  />
<polygon style="stroke:black; stroke-width:1; fill:#FFFFFF; " description="YggS_family_pyridoxal_phosphate_enzyme[br]Location: 10265 - 11198" locus_tag="CH063_03017" id="clusterblast-1_all_8_2_3" points="330,135 335,130 342,130 342,140 335,140 330,135 " class="clusterblast-orf"  />
<polygon style="stroke:black; stroke-width:1; fill:#FFFFFF; " description="hypothetical_protein[br]Location: 11209 - 11567" locus_tag="CH063_03018" id="clusterblast-1_all_8_2_4" points="326,135 330,130 330,140 326,135 " class="clusterblast-orf"  />
</g>
<g class="clusterblast-cluster" description="Glarea lozoyensis 74030 Seq158, whole genome shotgun seq..." label="AGUE01000158.1_c1"  >
<text class="clusterblast-acc" y="160" x="5"  >
AGUE01000158.1_c1</text>
<text class="clusterblast-desc" y="160" x="460.8"  >
Glarea lozoyensis 74030 Seq158, whole genome shotgun seq...</text>
<line y1="185" x2="778.0" style="stroke:grey; stroke-width:1; " x1="10" y2="185"  />
<polygon style="stroke:black; stroke-width:1; fill:#FFFFFF; " description="hypothetical_protein[br]Location: 199951 - 200817" locus_tag="M7I_5912" id="clusterblast-1_all_8_3_0" points="498,185 503,180 508,180 508,190 503,190 498,185 " class="clusterblast-orf"  />
<polygon style="stroke:black; stroke-width:1; fill:#FFFFFF; " description="putative_Zinc_finger_protein_GLI2[br]Location: 202106 - 203020" locus_tag="M7I_5913" id="clusterblast-1_all_8_3_1" points="472,185 477,180 483,180 483,190 477,190 472,185 " class="clusterblast-orf"  />
<polygon style="stroke:black; stroke-width:1; fill:#FFFFFF; " description="putative_Uncharacterized_transporter_C1B3.15C[br]Location: 203995 - 205828" locus_tag="M7I_5914" id="clusterblast-1_all_8_3_2" points="439,185 444,180 460,180 460,190 444,190 439,185 " class="clusterblast-orf"  />
<polygon style="stroke:black; stroke-width:1; fill:yellow; " description="hypothetical_protein[br]Location: 214166 - 214546&lt;br&gt;&lt;br&gt;&lt;b&gt;BlastP hit with CHAFR746836_0067840.1&lt;/b&gt;&lt;br&gt;Percentage identity: 45%&lt;br&gt;Percentage coverage: 49%&lt;br&gt;BLAST bit score: 60&lt;br&gt;E-value: 2e-10" locus_tag="M7I_5915" id="clusterblast-1_all_8_3_3" points="334,185 339,180 339,180 339,190 339,190 334,185 " class="clusterblast-orf"  />
<polygon style="stroke:black; stroke-width:1; fill:blue; " description="hypothetical_protein[br]Location: 215033 - 215719&lt;br&gt;&lt;br&gt;&lt;b&gt;BlastP hit with CHAFR746836_0067830.1&lt;/b&gt;&lt;br&gt;Percentage identity: 77%&lt;br&gt;Percentage coverage: 35%&lt;br&gt;BLAST bit score: 358&lt;br&gt;E-value: 2e-118" locus_tag="M7I_5916" id="clusterblast-1_all_8_3_4" points="320,190 323,190 328,185 323,180 320,180 320,190 " class="clusterblast-orf"  />
<polygon style="stroke:black; stroke-width:1; fill:green; " description="putative_L-aminoadipate-semialdehyde[br]Location: 218290 - 221584&lt;br&gt;&lt;br&gt;&lt;b&gt;BlastP hit with CHAFR746836_0067820.1&lt;/b&gt;&lt;br&gt;Percentage identity: 79%&lt;br&gt;Percentage coverage: 93%&lt;br&gt;BLAST bit score: 1768&lt;br&gt;E-value: 0.0" locus_tag="M7I_5917" id="clusterblast-1_all_8_3_5" points="250,185 255,180 289,180 289,190 255,190 250,185 " class="clusterblast-orf"  />
</g>
<g class="clusterblast-cluster" description="Botryotinia fuckeliana isolate T4 SuperContig 219 1 genomic ..." label="FQ790303.1_c1"  >
<text class="clusterblast-acc" y="210" x="5"  >
FQ790303.1_c1</text>
<text class="clusterblast-desc" y="210" x="460.8"  >
Botryotinia fuckeliana isolate T4 SuperContig 219 1 genomic ...</text>
<line y1="235" x2="778.0" style="stroke:grey; stroke-width:1; " x1="10" y2="235"  />
<polygon style="stroke:black; stroke-width:1; fill:#FFFFFF; " description="similar_to_50S_ribosomal_protein_L24[br]Location: 36605 - 37306" locus_tag="CCD34129.1" id="clusterblast-1_all_8_4_0" points="128,235 133,230 136,230 136,240 133,240 128,235 " class="clusterblast-orf"  />
<polygon style="stroke:black; stroke-width:1; fill:#FFFFFF; " description="hypothetical_protein[br]Location: 38006 - 38734" locus_tag="CCD34130.1" id="clusterblast-1_all_8_4_1" points="144,235 149,230 153,230 153,240 149,240 144,235 " class="clusterblast-orf"  />
<polygon style="stroke:black; stroke-width:1; fill:#FFFFFF; " description="hypothetical_protein[br]Location: 39203 - 39937" locus_tag="CCD34131.1" id="clusterblast-1_all_8_4_2" points="159,240 162,240 167,235 162,230 159,230 159,240 " class="clusterblast-orf"  />
<polygon style="stroke:black; stroke-width:1; fill:#FFFFFF; " description="similar_to_vacuolar_morphogenesis_protein_AvaB[br]Location: 41231 - 44482" locus_tag="CCD34132.1" id="clusterblast-1_all_8_4_3" points="183,240 217,240 222,235 217,230 183,230 183,240 " class="clusterblast-orf"  />
<polygon style="stroke:black; stroke-width:1; fill:#FFFFFF; " description="hypothetical_protein[br]Location: 44586 - 44939" locus_tag="CCD34133.1" id="clusterblast-1_all_8_4_4" points="223,235 227,230 227,240 223,235 " class="clusterblast-orf"  />
<polygon style="stroke:black; stroke-width:1; fill:#FFFFFF; " description="hypothetical_protein[br]Location: 45516 - 48279" locus_tag="CCD34134.1" id="clusterblast-1_all_8_4_5" points="234,240 262,240 267,235 262,230 234,230 234,240 " class="clusterblast-orf"  />
<polygon style="stroke:black; stroke-width:1; fill:#FFFFFF; " description="hypothetical_protein[br]Location: 51139 - 53754" locus_tag="CCD34135.1" id="clusterblast-1_all_8_4_6" points="301,235 306,230 333,230 333,240 306,240 301,235 " class="clusterblast-orf"  />
<polygon style="stroke:black; stroke-width:1; fill:#FFFFFF; " description="hypothetical_protein[br]Location: 55631 - 56034" locus_tag="CCD34136.1" id="clusterblast-1_all_8_4_7" points="355,240 355,240 360,235 355,230 355,230 355,240 " class="clusterblast-orf"  />
<polygon style="stroke:black; stroke-width:1; fill:green; " description="similar_to_L-aminoadipate-semialdehyde[br]Location: 56868 - 60689&lt;br&gt;&lt;br&gt;&lt;b&gt;BlastP hit with CHAFR746836_0067820.1&lt;/b&gt;&lt;br&gt;Percentage identity: 82%&lt;br&gt;Percentage coverage: 99%&lt;br&gt;BLAST bit score: 2001&lt;br&gt;E-value: 0.0" locus_tag="CCD34137.1" id="clusterblast-1_all_8_4_8" points="370,235 375,230 416,230 416,240 375,240 370,235 " class="clusterblast-orf"  />
<polygon style="stroke:black; stroke-width:1; fill:blue; " description="hypothetical_protein[br]Location: 61860 - 63710&lt;br&gt;&lt;br&gt;&lt;b&gt;BlastP hit with CHAFR746836_0067830.1&lt;/b&gt;&lt;br&gt;Percentage identity: 68%&lt;br&gt;Percentage coverage: 100%&lt;br&gt;BLAST bit score: 873&lt;br&gt;E-value: 0.0" locus_tag="CCD34138.1" id="clusterblast-1_all_8_4_9" points="430,240 447,240 452,235 447,230 430,230 430,240 " class="clusterblast-orf"  />
<polygon style="stroke:black; stroke-width:1; fill:#FFFFFF; " description="hypothetical_protein[br]Location: 64266 - 64964" locus_tag="CCD34139.1" id="clusterblast-1_all_8_4_10" points="458,235 463,230 467,230 467,240 463,240 458,235 " class="clusterblast-orf"  />
<polygon style="stroke:black; stroke-width:1; fill:#FFFFFF; " description="predicted_protein[br]Location: 66164 - 66436" locus_tag="CCD34140.1" id="clusterblast-1_all_8_4_11" points="481,240 484,235 481,230 481,240 " class="clusterblast-orf"  />
<polygon style="stroke:black; stroke-width:1; fill:#FFFFFF; " description="similar_to_short-chain_dehydrogenase/reductase[br]Location: 66722 - 67852" locus_tag="CCD34141.1" id="clusterblast-1_all_8_4_12" points="488,240 496,240 501,235 496,230 488,230 488,240 " class="clusterblast-orf"  />
<polygon style="stroke:black; stroke-width:1; fill:#FFFFFF; " description="predicted_protein[br]Location: 69544 - 70094" locus_tag="CCD34142.1" id="clusterblast-1_all_8_4_13" points="522,235 527,230 528,230 528,240 527,240 522,235 " class="clusterblast-orf"  />
<polygon style="stroke:black; stroke-width:1; fill:#FFFFFF; " description="predicted_protein[br]Location: 70140 - 70404" locus_tag="CCD34143.1" id="clusterblast-1_all_8_4_14" points="529,240 532,235 529,230 529,240 " class="clusterblast-orf"  />
<polygon style="stroke:black; stroke-width:1; fill:yellow; " description="hypothetical_protein[br]Location: 71020 - 71823&lt;br&gt;&lt;br&gt;&lt;b&gt;BlastP hit with CHAFR746836_0067840.1&lt;/b&gt;&lt;br&gt;Percentage identity: 54%&lt;br&gt;Percentage coverage: 100%&lt;br&gt;BLAST bit score: 269&lt;br&gt;E-value: 7e-89" locus_tag="CCD34144.1" id="clusterblast-1_all_8_4_15" points="539,240 544,240 549,235 544,230 539,230 539,240 " class="clusterblast-orf"  />
<polygon style="stroke:black; stroke-width:1; fill:#FFFFFF; " description="hypothetical_protein[br]Location: 72548 - 74599" locus_tag="CCD34145.1" id="clusterblast-1_all_8_4_16" points="558,235 563,230 582,230 582,240 563,240 558,235 " class="clusterblast-orf"  />
<polygon style="stroke:black; stroke-width:1; fill:#FFFFFF; " description="predicted_protein[br]Location: 76057 - 76441" locus_tag="CCD34146.1" id="clusterblast-1_all_8_4_17" points="600,235 604,230 604,240 600,235 " class="clusterblast-orf"  />
<polygon style="stroke:black; stroke-width:1; fill:#FFFFFF; " description="hypothetical_protein[br]Location: 78438 - 78815" locus_tag="CCD34147.1" id="clusterblast-1_all_8_4_18" points="628,240 628,240 633,235 628,230 628,230 628,240 " class="clusterblast-orf"  />
<polygon style="stroke:black; stroke-width:1; fill:#FFFFFF; " description="similar_to_delta-aminolevulinic_acid[br]Location: 79685 - 80916" locus_tag="CCD34148.1" id="clusterblast-1_all_8_4_19" points="643,240 653,240 658,235 653,230 643,230 643,240 " class="clusterblast-orf"  />
</g>
<g class="clusterblast-cluster" description="Aspergillus kawachii IFO 4308 DNA, contig: scaffold00002, wh..." label="DF126448.1_c2"  >
<text class="clusterblast-acc" y="260" x="5"  >
DF126448.1_c2</text>
<text class="clusterblast-desc" y="260" x="460.8"  >
Aspergillus kawachii IFO 4308 DNA, contig: scaffold00002, wh...</text>
<line y1="285" x2="778.0" style="stroke:grey; stroke-width:1; " x1="10" y2="285"  />
<polygon style="stroke:black; stroke-width:1; fill:#FFFFFF; " description="proteasome_activator_subunit_4[br]Location: 1318636 - 1324652" locus_tag="AKAW_01054" id="clusterblast-1_all_8_5_0" points="129,285 134,280 200,280 200,290 134,290 129,285 " class="clusterblast-orf"  />
<polygon style="stroke:black; stroke-width:1; fill:#FFFFFF; " description="DUF409_domain_protein[br]Location: 1325492 - 1327023" locus_tag="AKAW_01055" id="clusterblast-1_all_8_5_1" points="211,285 216,280 229,280 229,290 216,290 211,285 " class="clusterblast-orf"  />
<polygon style="stroke:black; stroke-width:1; fill:#FFFFFF; " description="similar_to_An04g05360[br]Location: 1331205 - 1332965" locus_tag="AKAW_01056" id="clusterblast-1_all_8_5_2" points="279,290 295,290 300,285 295,280 279,280 279,290 " class="clusterblast-orf"  />
<polygon style="stroke:black; stroke-width:1; fill:#FFFFFF; " description="aldo-keto_reductase[br]Location: 1333885 - 1335087" locus_tag="AKAW_01057" id="clusterblast-1_all_8_5_3" points="311,285 316,280 325,280 325,290 316,290 311,285 " class="clusterblast-orf"  />
<polygon style="stroke:black; stroke-width:1; fill:#FFFFFF; " description="similar_to_An04g05410[br]Location: 1337718 - 1338414" locus_tag="AKAW_01058" id="clusterblast-1_all_8_5_4" points="357,290 360,290 365,285 360,280 357,280 357,290 " class="clusterblast-orf"  />
<polygon style="stroke:black; stroke-width:1; fill:green; " description="L-aminoadipate-semialdehyde_dehydrogenase_large[br]Location: 1339174 - 1343637&lt;br&gt;&lt;br&gt;&lt;b&gt;BlastP hit with CHAFR746836_0067820.1&lt;/b&gt;&lt;br&gt;Percentage identity: 66%&lt;br&gt;Percentage coverage: 101%&lt;br&gt;BLAST bit score: 1619&lt;br&gt;E-value: 0.0" locus_tag="AKAW_01059" id="clusterblast-1_all_8_5_5" points="374,285 379,280 428,280 428,290 379,290 374,285 " class="clusterblast-orf"  />
<polygon style="stroke:black; stroke-width:1; fill:blue; " description="similar_to_An04g05430[br]Location: 1344507 - 1346399&lt;br&gt;&lt;br&gt;&lt;b&gt;BlastP hit with CHAFR746836_0067830.1&lt;/b&gt;&lt;br&gt;Percentage identity: 42%&lt;br&gt;Percentage coverage: 97%&lt;br&gt;BLAST bit score: 438&lt;br&gt;E-value: 2e-144" locus_tag="AKAW_01060" id="clusterblast-1_all_8_5_6" points="438,290 456,290 461,285 456,280 438,280 438,290 " class="clusterblast-orf"  />
<polygon style="stroke:black; stroke-width:1; fill:#FFFFFF; " description="xanthine_dehydrogenase[br]Location: 1347089 - 1351316" locus_tag="AKAW_01061" id="clusterblast-1_all_8_5_7" points="469,290 515,290 520,285 515,280 469,280 469,290 " class="clusterblast-orf"  />
<polygon style="stroke:black; stroke-width:1; fill:#FFFFFF; " description="plasma_membrane_fusion_protein_Prm1[br]Location: 1351637 - 1353856" locus_tag="AKAW_01062" id="clusterblast-1_all_8_5_8" points="523,285 528,280 550,280 550,290 528,290 523,285 " class="clusterblast-orf"  />
<polygon style="stroke:black; stroke-width:1; fill:#FFFFFF; " description="similar_to_An04g05480[br]Location: 1355954 - 1358183" locus_tag="AKAW_01063" id="clusterblast-1_all_8_5_9" points="575,290 597,290 602,285 597,280 575,280 575,290 " class="clusterblast-orf"  />
<polygon style="stroke:black; stroke-width:1; fill:#FFFFFF; " description="kynurenine_aminotransferase[br]Location: 1358677 - 1360515" locus_tag="AKAW_01064" id="clusterblast-1_all_8_5_10" points="608,285 613,280 630,280 630,290 613,290 608,285 " class="clusterblast-orf"  />
<polygon style="stroke:black; stroke-width:1; fill:#FFFFFF; " description="AAA_family_ATPase[br]Location: 1361256 - 1362851" locus_tag="AKAW_01065" id="clusterblast-1_all_8_5_11" points="638,290 653,290 658,285 653,280 638,280 638,290 " class="clusterblast-orf"  />
</g>
<g class="clusterblast-cluster" description="Aspergillus niger contig An04c0170, genomic contig." label="AM270078.1_c1"  >
<text class="clusterblast-acc" y="310" x="5"  >
AM270078.1_c1</text>
<text class="clusterblast-desc" y="310" x="460.8"  >
Aspergillus niger contig An04c0170, genomic contig.</text>
<line y1="335" x2="778.0" style="stroke:grey; stroke-width:1; " x1="10" y2="335"  />
<polygon style="stroke:black; stroke-width:1; fill:#FFFFFF; " description="[br]Location: 76361 - 82377" locus_tag="An04g05320" id="clusterblast-1_all_8_6_0" points="10,335 15,330 81,330 81,340 15,340 10,335 " class="clusterblast-orf"  />
<polygon style="stroke:black; stroke-width:1; fill:#FFFFFF; " description="[br]Location: 83220 - 84752" locus_tag="An04g05330" id="clusterblast-1_all_8_6_1" points="92,335 97,330 110,330 110,340 97,340 92,335 " class="clusterblast-orf"  />
<polygon style="stroke:black; stroke-width:1; fill:#FFFFFF; " description="hypothetical_protein[br]Location: 86014 - 87056" locus_tag="An04g05340" id="clusterblast-1_all_8_6_2" points="125,335 130,330 137,330 137,340 130,340 125,335 " class="clusterblast-orf"  />
<polygon style="stroke:black; stroke-width:1; fill:#FFFFFF; " description="hypothetical_protein[br]Location: 87642 - 88761" locus_tag="An04g05350" id="clusterblast-1_all_8_6_3" points="144,335 149,330 158,330 158,340 149,340 144,335 " class="clusterblast-orf"  />
<polygon style="stroke:black; stroke-width:1; fill:#FFFFFF; " description="[br]Location: 88849 - 90612" locus_tag="An04g05360" id="clusterblast-1_all_8_6_4" points="159,340 175,340 180,335 175,330 159,330 159,340 " class="clusterblast-orf"  />
<polygon style="stroke:black; stroke-width:1; fill:#FFFFFF; " description="[br]Location: 90998 - 91175" locus_tag="An04g05370" id="clusterblast-1_all_8_6_5" points="185,335 187,330 187,340 185,335 " class="clusterblast-orf"  />
<polygon style="stroke:black; stroke-width:1; fill:#FFFFFF; " description="[br]Location: 91511 - 92734" locus_tag="An04g05380" id="clusterblast-1_all_8_6_6" points="191,335 196,330 205,330 205,340 196,340 191,335 " class="clusterblast-orf"  />
<polygon style="stroke:black; stroke-width:1; fill:#FFFFFF; " description="[br]Location: 93017 - 93445" locus_tag="An04g05390" id="clusterblast-1_all_8_6_7" points="209,340 209,340 214,335 209,330 209,330 209,340 " class="clusterblast-orf"  />
<polygon style="stroke:black; stroke-width:1; fill:#FFFFFF; " description="hypothetical_protein[br]Location: 93497 - 95042" locus_tag="An04g05400" id="clusterblast-1_all_8_6_8" points="215,335 220,330 233,330 233,340 220,340 215,335 " class="clusterblast-orf"  />
<polygon style="stroke:black; stroke-width:1; fill:#FFFFFF; " description="hypothetical_protein[br]Location: 95351 - 96049" locus_tag="An04g05410" id="clusterblast-1_all_8_6_9" points="237,340 240,340 245,335 240,330 237,330 237,340 " class="clusterblast-orf"  />
<polygon style="stroke:black; stroke-width:1; fill:green; " description="[br]Location: 96767 - 101252&lt;br&gt;&lt;br&gt;&lt;b&gt;BlastP hit with CHAFR746836_0067820.1&lt;/b&gt;&lt;br&gt;Percentage identity: 65%&lt;br&gt;Percentage coverage: 101%&lt;br&gt;BLAST bit score: 1603&lt;br&gt;E-value: 0.0" locus_tag="An04g05420" id="clusterblast-1_all_8_6_10" points="254,335 259,330 307,330 307,340 259,340 254,335 " class="clusterblast-orf"  />
<polygon style="stroke:black; stroke-width:1; fill:blue; " description="[br]Location: 102128 - 103932&lt;br&gt;&lt;br&gt;&lt;b&gt;BlastP hit with CHAFR746836_0067830.1&lt;/b&gt;&lt;br&gt;Percentage identity: 42%&lt;br&gt;Percentage coverage: 96%&lt;br&gt;BLAST bit score: 440&lt;br&gt;E-value: 3e-145" locus_tag="An04g05430" id="clusterblast-1_all_8_6_11" points="318,340 334,340 339,335 334,330 318,330 318,340 " class="clusterblast-orf"  />
<polygon style="stroke:black; stroke-width:1; fill:#FFFFFF; " description="[br]Location: 104717 - 108946" locus_tag="An04g05440" id="clusterblast-1_all_8_6_12" points="349,340 394,340 399,335 394,330 349,330 349,340 " class="clusterblast-orf"  />
<polygon style="stroke:black; stroke-width:1; fill:#FFFFFF; " description="[br]Location: 109738 - 111803" locus_tag="An04g05450" id="clusterblast-1_all_8_6_13" points="409,335 414,330 434,330 434,340 414,340 409,335 " class="clusterblast-orf"  />
<polygon style="stroke:black; stroke-width:1; fill:#FFFFFF; " description="[br]Location: 112163 - 114382" locus_tag="An04g05460" id="clusterblast-1_all_8_6_14" points="438,335 443,330 464,330 464,340 443,340 438,335 " class="clusterblast-orf"  />
<polygon style="stroke:black; stroke-width:1; fill:#FFFFFF; " description="hypothetical_protein[br]Location: 114728 - 115779" locus_tag="An04g05470" id="clusterblast-1_all_8_6_15" points="469,340 476,340 481,335 476,330 469,330 469,340 " class="clusterblast-orf"  />
<polygon style="stroke:black; stroke-width:1; fill:#FFFFFF; " description="[br]Location: 116020 - 118746" locus_tag="An04g05480" id="clusterblast-1_all_8_6_16" points="484,340 512,340 517,335 512,330 484,330 484,340 " class="clusterblast-orf"  />
<polygon style="stroke:black; stroke-width:1; fill:#FFFFFF; " description="[br]Location: 119239 - 121083" locus_tag="An04g05490" id="clusterblast-1_all_8_6_17" points="523,335 528,330 545,330 545,340 528,340 523,335 " class="clusterblast-orf"  />
<polygon style="stroke:black; stroke-width:1; fill:#FFFFFF; " description="[br]Location: 121813 - 123408" locus_tag="An04g05500" id="clusterblast-1_all_8_6_18" points="553,340 567,340 572,335 567,330 553,330 553,340 " class="clusterblast-orf"  />
<polygon style="stroke:black; stroke-width:1; fill:#FFFFFF; " description="[br]Location: 124206 - 125086" locus_tag="An04g05510" id="clusterblast-1_all_8_6_19" points="582,340 587,340 592,335 587,330 582,330 582,340 " class="clusterblast-orf"  />
<polygon style="stroke:black; stroke-width:1; fill:#FFFFFF; " description="[br]Location: 125439 - 125681" locus_tag="An04g05520" id="clusterblast-1_all_8_6_20" points="597,340 600,335 597,330 597,340 " class="clusterblast-orf"  />
<polygon style="stroke:black; stroke-width:1; fill:#FFFFFF; " description="unnamed[br]Location: 125791 - 128219" locus_tag="An04g05530" id="clusterblast-1_all_8_6_21" points="601,335 606,330 630,330 630,340 606,340 601,335 " class="clusterblast-orf"  />
<polygon style="stroke:black; stroke-width:1; fill:#FFFFFF; " description="[br]Location: 129141 - 131629" locus_tag="An04g05540" id="clusterblast-1_all_8_6_22" points="641,335 646,330 671,330 671,340 646,340 641,335 " class="clusterblast-orf"  />
<polygon style="stroke:black; stroke-width:1; fill:#FFFFFF; " description="unnamed[br]Location: 132865 - 134049" locus_tag="An04g05550" id="clusterblast-1_all_8_6_23" points="686,340 695,340 700,335 695,330 686,330 686,340 " class="clusterblast-orf"  />
<polygon style="stroke:black; stroke-width:1; fill:#FFFFFF; " description="[br]Location: 134641 - 136193" locus_tag="An04g05560" id="clusterblast-1_all_8_6_24" points="707,335 712,330 725,330 725,340 712,340 707,335 " class="clusterblast-orf"  />
<polygon style="stroke:black; stroke-width:1; fill:#FFFFFF; " description="[br]Location: 136750 - 138893" locus_tag="An04g05570" id="clusterblast-1_all_8_6_25" points="732,340 753,340 758,335 753,330 732,330 732,340 " class="clusterblast-orf"  />
<polygon style="stroke:black; stroke-width:1; fill:#FFFFFF; " description="[br]Location: 139246 - 140550" locus_tag="An04g05580" id="clusterblast-1_all_8_6_26" points="762,335 767,330 778,330 778,340 767,340 762,335 " class="clusterblast-orf"  />
</g>
<g class="clusterblast-cluster" description="Aspergillus oryzae RIB40 DNA, SC003." label="AP007155.1_c2"  >
<text class="clusterblast-acc" y="360" x="5"  >
AP007155.1_c2</text>
<text class="clusterblast-desc" y="360" x="460.8"  >
Aspergillus oryzae RIB40 DNA, SC003.</text>
<line y1="385" x2="778.0" style="stroke:grey; stroke-width:1; " x1="10" y2="385"  />
<polygon style="stroke:black; stroke-width:1; fill:#FFFFFF; " description="[br]Location: 2959561 - 2962331" locus_tag="AO090003001090" id="clusterblast-1_all_8_7_0" points="108,385 113,380 141,380 141,390 113,390 108,385 " class="clusterblast-orf"  />
<polygon style="stroke:black; stroke-width:1; fill:#FFFFFF; " description="[br]Location: 2962896 - 2968905" locus_tag="AO090003001091" id="clusterblast-1_all_8_7_1" points="147,385 152,380 219,380 219,390 152,390 147,385 " class="clusterblast-orf"  />
<polygon style="stroke:black; stroke-width:1; fill:#FFFFFF; " description="[br]Location: 2969638 - 2971105" locus_tag="AO090003001092" id="clusterblast-1_all_8_7_2" points="228,385 233,380 246,380 246,390 233,390 228,385 " class="clusterblast-orf"  />
<polygon style="stroke:black; stroke-width:1; fill:#FFFFFF; " description="[br]Location: 2974639 - 2976191" locus_tag="AO090003001094" id="clusterblast-1_all_8_7_3" points="288,390 301,390 306,385 301,380 288,380 288,390 " class="clusterblast-orf"  />
<polygon style="stroke:black; stroke-width:1; fill:#FFFFFF; " description="[br]Location: 2976739 - 2979771" locus_tag="AO090003001095" id="clusterblast-1_all_8_7_4" points="313,385 318,380 349,380 349,390 318,390 313,385 " class="clusterblast-orf"  />
<polygon style="stroke:black; stroke-width:1; fill:#FFFFFF; " description="[br]Location: 2980303 - 2981553" locus_tag="AO090003001096" id="clusterblast-1_all_8_7_5" points="356,385 361,380 371,380 371,390 361,390 356,385 " class="clusterblast-orf"  />
<polygon style="stroke:black; stroke-width:1; fill:green; " description="[br]Location: 2982186 - 2986637&lt;br&gt;&lt;br&gt;&lt;b&gt;BlastP hit with CHAFR746836_0067820.1&lt;/b&gt;&lt;br&gt;Percentage identity: 65%&lt;br&gt;Percentage coverage: 101%&lt;br&gt;BLAST bit score: 1592&lt;br&gt;E-value: 0.0" locus_tag="AO090003001097" id="clusterblast-1_all_8_7_6" points="378,385 383,380 431,380 431,390 383,390 378,385 " class="clusterblast-orf"  />
<polygon style="stroke:black; stroke-width:1; fill:blue; " description="[br]Location: 2987334 - 2989208&lt;br&gt;&lt;br&gt;&lt;b&gt;BlastP hit with CHAFR746836_0067830.1&lt;/b&gt;&lt;br&gt;Percentage identity: 41%&lt;br&gt;Percentage coverage: 99%&lt;br&gt;BLAST bit score: 445&lt;br&gt;E-value: 3e-147" locus_tag="AO090003001098" id="clusterblast-1_all_8_7_7" points="440,390 457,390 462,385 457,380 440,380 440,390 " class="clusterblast-orf"  />
<polygon style="stroke:black; stroke-width:1; fill:#FFFFFF; " description="[br]Location: 2989828 - 2994081" locus_tag="AO090003001099" id="clusterblast-1_all_8_7_8" points="470,390 516,390 521,385 516,380 470,380 470,390 " class="clusterblast-orf"  />
<polygon style="stroke:black; stroke-width:1; fill:#FFFFFF; " description="[br]Location: 2994530 - 2996698" locus_tag="AO090003001100" id="clusterblast-1_all_8_7_9" points="526,385 531,380 552,380 552,390 531,390 526,385 " class="clusterblast-orf"  />
<polygon style="stroke:black; stroke-width:1; fill:#FFFFFF; " description="[br]Location: 2998625 - 2999157" locus_tag="AO090003001101" id="clusterblast-1_all_8_7_10" points="575,390 576,390 581,385 576,380 575,380 575,390 " class="clusterblast-orf"  />
<polygon style="stroke:black; stroke-width:1; fill:#FFFFFF; " description="[br]Location: 2999256 - 3001394" locus_tag="AO090003001102" id="clusterblast-1_all_8_7_11" points="582,390 603,390 608,385 603,380 582,380 582,390 " class="clusterblast-orf"  />
<polygon style="stroke:black; stroke-width:1; fill:#FFFFFF; " description="[br]Location: 3001774 - 3003523" locus_tag="AO090003001103" id="clusterblast-1_all_8_7_12" points="613,385 618,380 633,380 633,390 618,390 613,385 " class="clusterblast-orf"  />
<polygon style="stroke:black; stroke-width:1; fill:#FFFFFF; " description="[br]Location: 3004004 - 3005587" locus_tag="AO090003001104" id="clusterblast-1_all_8_7_13" points="639,390 653,390 658,385 653,380 639,380 639,390 " class="clusterblast-orf"  />
<polygon style="stroke:black; stroke-width:1; fill:#FFFFFF; " description="[br]Location: 3006430 - 3007269" locus_tag="AO090003001106" id="clusterblast-1_all_8_7_14" points="668,390 673,390 678,385 673,380 668,380 668,390 " class="clusterblast-orf"  />
</g>
<g class="clusterblast-cluster" description="Leptosphaeria maculans v23.1.3 lm SuperContig 4 v2 genomic s..." label="FP929105.1_c1"  >
<text class="clusterblast-acc" y="410" x="5"  >
FP929105.1_c1</text>
<text class="clusterblast-desc" y="410" x="460.8"  >
Leptosphaeria maculans v23.1.3 lm SuperContig 4 v2 genomic s...</text>
<line y1="435" x2="778.0" style="stroke:grey; stroke-width:1; " x1="10" y2="435"  />
<polygon style="stroke:black; stroke-width:1; fill:#FFFFFF; " description="predicted_protein[br]Location: 406590 - 407891" locus_tag="CBX93058.1" id="clusterblast-1_all_8_8_0" points="145,435 150,430 160,430 160,440 150,440 145,435 " class="clusterblast-orf"  />
<polygon style="stroke:black; stroke-width:1; fill:#FFFFFF; " description="predicted_protein[br]Location: 408227 - 408469" locus_tag="CBX93059.1" id="clusterblast-1_all_8_8_1" points="164,435 167,430 167,440 164,435 " class="clusterblast-orf"  />
<polygon style="stroke:black; stroke-width:1; fill:#FFFFFF; " description="hypothetical_protein[br]Location: 409511 - 410901" locus_tag="CBX93060.1" id="clusterblast-1_all_8_8_2" points="179,435 184,430 196,430 196,440 184,440 179,435 " class="clusterblast-orf"  />
<polygon style="stroke:black; stroke-width:1; fill:#FFFFFF; " description="predicted_protein[br]Location: 412823 - 412996" locus_tag="CBX93061.1" id="clusterblast-1_all_8_8_3" points="219,440 221,435 219,430 219,440 " class="clusterblast-orf"  />
<polygon style="stroke:black; stroke-width:1; fill:#FFFFFF; " description="predicted_protein[br]Location: 413070 - 413958" locus_tag="CBX93062.1" id="clusterblast-1_all_8_8_4" points="222,435 227,430 233,430 233,440 227,440 222,435 " class="clusterblast-orf"  />
<polygon style="stroke:black; stroke-width:1; fill:#FFFFFF; " description="predicted_protein[br]Location: 415446 - 415777" locus_tag="CBX93063.1" id="clusterblast-1_all_8_8_5" points="250,440 254,435 250,430 250,440 " class="clusterblast-orf"  />
<polygon style="stroke:black; stroke-width:1; fill:#FFFFFF; " description="predicted_protein[br]Location: 416183 - 416559" locus_tag="CBX93064.1" id="clusterblast-1_all_8_8_6" points="259,440 259,440 264,435 259,430 259,430 259,440 " class="clusterblast-orf"  />
<polygon style="stroke:black; stroke-width:1; fill:#FFFFFF; " description="predicted_protein[br]Location: 416784 - 416936" locus_tag="CBX93065.1" id="clusterblast-1_all_8_8_7" points="266,435 268,430 268,440 266,435 " class="clusterblast-orf"  />
<polygon style="stroke:black; stroke-width:1; fill:#FFFFFF; " description="hypothetical_protein[br]Location: 419616 - 422536" locus_tag="CBX93066.1" id="clusterblast-1_all_8_8_8" points="300,435 305,430 335,430 335,440 305,440 300,435 " class="clusterblast-orf"  />
<polygon style="stroke:black; stroke-width:1; fill:#FFFFFF; " description="similar_to_DUF207_domain-containing_protein[br]Location: 422762 - 423760" locus_tag="CBX93067.1" id="clusterblast-1_all_8_8_9" points="338,440 345,440 350,435 345,430 338,430 338,440 " class="clusterblast-orf"  />
<polygon style="stroke:black; stroke-width:1; fill:green; " description="similar_to_L-aminoadipate-semialdehyde[br]Location: 424735 - 428379&lt;br&gt;&lt;br&gt;&lt;b&gt;BlastP hit with CHAFR746836_0067820.1&lt;/b&gt;&lt;br&gt;Percentage identity: 62%&lt;br&gt;Percentage coverage: 100%&lt;br&gt;BLAST bit score: 1486&lt;br&gt;E-value: 0.0" locus_tag="CBX93068.1" id="clusterblast-1_all_8_8_10" points="362,435 367,430 405,430 405,440 367,440 362,435 " class="clusterblast-orf"  />
<polygon style="stroke:black; stroke-width:1; fill:blue; " description="hypothetical_protein[br]Location: 429087 - 431087&lt;br&gt;&lt;br&gt;&lt;b&gt;BlastP hit with CHAFR746836_0067830.1&lt;/b&gt;&lt;br&gt;Percentage identity: 39%&lt;br&gt;Percentage coverage: 108%&lt;br&gt;BLAST bit score: 459&lt;br&gt;E-value: 1e-151" locus_tag="CBX93069.1" id="clusterblast-1_all_8_8_11" points="414,440 433,440 438,435 433,430 414,430 414,440 " class="clusterblast-orf"  />
<polygon style="stroke:black; stroke-width:1; fill:#FFFFFF; " description="hypothetical_protein[br]Location: 431588 - 432741" locus_tag="CBX93070.1" id="clusterblast-1_all_8_8_12" points="444,440 452,440 457,435 452,430 444,430 444,440 " class="clusterblast-orf"  />
<polygon style="stroke:black; stroke-width:1; fill:#FFFFFF; " description="predicted_protein[br]Location: 433750 - 434148" locus_tag="CBX93071.1" id="clusterblast-1_all_8_8_13" points="469,440 469,440 474,435 469,430 469,430 469,440 " class="clusterblast-orf"  />
<polygon style="stroke:black; stroke-width:1; fill:#FFFFFF; " description="hypothetical_protein[br]Location: 434327 - 435687" locus_tag="CBX93072.1" id="clusterblast-1_all_8_8_14" points="476,440 488,440 493,435 488,430 476,430 476,440 " class="clusterblast-orf"  />
<polygon style="stroke:black; stroke-width:1; fill:#FFFFFF; " description="predicted_protein[br]Location: 436273 - 436533" locus_tag="CBX93073.1" id="clusterblast-1_all_8_8_15" points="500,440 503,435 500,430 500,440 " class="clusterblast-orf"  />
<polygon style="stroke:black; stroke-width:1; fill:#FFFFFF; " description="predicted_protein[br]Location: 437336 - 437560" locus_tag="CBX93074.1" id="clusterblast-1_all_8_8_16" points="512,435 515,430 515,440 512,435 " class="clusterblast-orf"  />
<polygon style="stroke:black; stroke-width:1; fill:#FFFFFF; " description="predicted_protein[br]Location: 437848 - 439921" locus_tag="CBX93075.1" id="clusterblast-1_all_8_8_17" points="518,435 523,430 543,430 543,440 523,440 518,435 " class="clusterblast-orf"  />
<polygon style="stroke:black; stroke-width:1; fill:#FFFFFF; " description="predicted_protein[br]Location: 441322 - 441918" locus_tag="CBX93076.1" id="clusterblast-1_all_8_8_18" points="560,440 562,440 567,435 562,430 560,430 560,440 " class="clusterblast-orf"  />
<polygon style="stroke:black; stroke-width:1; fill:#FFFFFF; " description="similar_to_phospholipid-translocating_P-type[br]Location: 443273 - 448169" locus_tag="CBX93077.1" id="clusterblast-1_all_8_8_19" points="583,435 588,430 642,430 642,440 588,440 583,435 " class="clusterblast-orf"  />
</g>
<g class="clusterblast-cluster" description="Exophiala dermatitidis NIH/UT8656 unplaced genomic scaffold ..." label="JH226134.1_c1"  >
<text class="clusterblast-acc" y="460" x="5"  >
JH226134.1_c1</text>
<text class="clusterblast-desc" y="460" x="460.8"  >
Exophiala dermatitidis NIH/UT8656 unplaced genomic scaffold ...</text>
<line y1="485" x2="778.0" style="stroke:grey; stroke-width:1; " x1="10" y2="485"  />
<polygon style="stroke:black; stroke-width:1; fill:#FFFFFF; " description="cytochrome_P450_alkane_hydroxylase[br]Location: 1230450 - 1231950" locus_tag="HMPREF1120_06036" id="clusterblast-1_all_8_9_0" points="108,490 120,490 125,485 120,480 108,480 108,490 " class="clusterblast-orf"  />
<polygon style="stroke:black; stroke-width:1; fill:#FFFFFF; " description="hypothetical_protein[br]Location: 1232615 - 1236676" locus_tag="HMPREF1120_06037" id="clusterblast-1_all_8_9_1" points="133,490 177,490 182,485 177,480 133,480 133,490 " class="clusterblast-orf"  />
<polygon style="stroke:black; stroke-width:1; fill:#FFFFFF; " description="ATP-dependent_RNA_helicase[br]Location: 1237251 - 1239947" locus_tag="HMPREF1120_06038" id="clusterblast-1_all_8_9_2" points="189,490 216,490 221,485 216,480 189,480 189,490 " class="clusterblast-orf"  />
<polygon style="stroke:black; stroke-width:1; fill:#FFFFFF; " description="4-coumarate-CoA_ligase[br]Location: 1240508 - 1242346" locus_tag="HMPREF1120_06039" id="clusterblast-1_all_8_9_3" points="228,485 233,480 250,480 250,490 233,490 228,485 " class="clusterblast-orf"  />
<polygon style="stroke:black; stroke-width:1; fill:#FFFFFF; " description="hypothetical_protein[br]Location: 1243234 - 1244079" locus_tag="HMPREF1120_06040" id="clusterblast-1_all_8_9_4" points="260,490 266,490 271,485 266,480 260,480 260,490 " class="clusterblast-orf"  />
<polygon style="stroke:black; stroke-width:1; fill:#FFFFFF; " description="phosphoenolpyruvate_carboxykinase_[ATP][br]Location: 1245161 - 1247444" locus_tag="HMPREF1120_06041" id="clusterblast-1_all_8_9_5" points="284,490 306,490 311,485 306,480 284,480 284,490 " class="clusterblast-orf"  />
<polygon style="stroke:black; stroke-width:1; fill:#FFFFFF; " description="hypothetical_protein[br]Location: 1249418 - 1250692" locus_tag="HMPREF1120_06042" id="clusterblast-1_all_8_9_6" points="334,490 345,490 350,485 345,480 334,480 334,490 " class="clusterblast-orf"  />
<polygon style="stroke:black; stroke-width:1; fill:green; " description="L-aminoadipate-semialdehyde_dehydrogenase[br]Location: 1251748 - 1256238&lt;br&gt;&lt;br&gt;&lt;b&gt;BlastP hit with CHAFR746836_0067820.1&lt;/b&gt;&lt;br&gt;Percentage identity: 59%&lt;br&gt;Percentage coverage: 105%&lt;br&gt;BLAST bit score: 1451&lt;br&gt;E-value: 0.0" locus_tag="HMPREF1120_06043" id="clusterblast-1_all_8_9_7" points="362,485 367,480 416,480 416,490 367,490 362,485 " class="clusterblast-orf"  />
<polygon style="stroke:black; stroke-width:1; fill:blue; " description="hypothetical_protein[br]Location: 1256768 - 1258669&lt;br&gt;&lt;br&gt;&lt;b&gt;BlastP hit with CHAFR746836_0067830.1&lt;/b&gt;&lt;br&gt;Percentage identity: 41%&lt;br&gt;Percentage coverage: 101%&lt;br&gt;BLAST bit score: 491&lt;br&gt;E-value: 2e-164" locus_tag="HMPREF1120_06044" id="clusterblast-1_all_8_9_8" points="422,490 440,490 445,485 440,480 422,480 422,490 " class="clusterblast-orf"  />
<polygon style="stroke:black; stroke-width:1; fill:#FFFFFF; " description="hypothetical_protein[br]Location: 1258721 - 1260169" locus_tag="HMPREF1120_06045" id="clusterblast-1_all_8_9_9" points="446,485 451,480 463,480 463,490 451,490 446,485 " class="clusterblast-orf"  />
<polygon style="stroke:black; stroke-width:1; fill:#FFFFFF; " description="hypothetical_protein[br]Location: 1261906 - 1264300" locus_tag="HMPREF1120_06046" id="clusterblast-1_all_8_9_10" points="484,490 508,490 513,485 508,480 484,480 484,490 " class="clusterblast-orf"  />
<polygon style="stroke:black; stroke-width:1; fill:#FFFFFF; " description="hypothetical_protein[br]Location: 1266499 - 1266864" locus_tag="HMPREF1120_06047" id="clusterblast-1_all_8_9_11" points="539,485 543,480 543,490 539,485 " class="clusterblast-orf"  />
<polygon style="stroke:black; stroke-width:1; fill:#FFFFFF; " description="transposase[br]Location: 1268583 - 1269515" locus_tag="HMPREF1120_06048" id="clusterblast-1_all_8_9_12" points="564,490 570,490 575,485 570,480 564,480 564,490 " class="clusterblast-orf"  />
<polygon style="stroke:black; stroke-width:1; fill:#FFFFFF; " description="Ca2+:H+_antiporter[br]Location: 1270136 - 1272050" locus_tag="HMPREF1120_06049" id="clusterblast-1_all_8_9_13" points="582,490 600,490 605,485 600,480 582,480 582,490 " class="clusterblast-orf"  />
<polygon style="stroke:black; stroke-width:1; fill:#FFFFFF; " description="chromate_transporter[br]Location: 1272754 - 1274622" locus_tag="HMPREF1120_06050" id="clusterblast-1_all_8_9_14" points="614,490 631,490 636,485 631,480 614,480 614,490 " class="clusterblast-orf"  />
<polygon style="stroke:black; stroke-width:1; fill:#FFFFFF; " description="hypothetical_protein[br]Location: 1275142 - 1278207" locus_tag="HMPREF1120_06051" id="clusterblast-1_all_8_9_15" points="642,490 674,490 679,485 674,480 642,480 642,490 " class="clusterblast-orf"  />
</g>
<g class="clusterblast-cluster" description="Arthrobotrys oligospora ATCC 24927 contig00797, whole g..." label="ADOT01000147.1_c1"  >
<text class="clusterblast-acc" y="510" x="5"  >
ADOT01000147.1_c1</text>
<text class="clusterblast-desc" y="510" x="460.8"  >
Arthrobotrys oligospora ATCC 24927 contig00797, whole g...</text>
<line y1="535" x2="778.0" style="stroke:grey; stroke-width:1; " x1="10" y2="535"  />
<polygon style="stroke:black; stroke-width:1; fill:#FFFFFF; " description="hypothetical_protein[br]Location: 94827 - 97514" locus_tag="AOL_s00081g214" id="clusterblast-1_all_8_10_0" points="639,540 666,540 671,535 666,530 639,530 639,540 " class="clusterblast-orf"  />
<polygon style="stroke:black; stroke-width:1; fill:#FFFFFF; " description="hypothetical_protein[br]Location: 97995 - 99203" locus_tag="AOL_s00081g215" id="clusterblast-1_all_8_10_1" points="619,535 624,530 634,530 634,540 624,540 619,535 " class="clusterblast-orf"  />
<polygon style="stroke:black; stroke-width:1; fill:#FFFFFF; " description="hypothetical_protein[br]Location: 104744 - 107540" locus_tag="AOL_s00081g216" id="clusterblast-1_all_8_10_2" points="520,535 525,530 553,530 553,540 525,540 520,535 " class="clusterblast-orf"  />
<polygon style="stroke:black; stroke-width:1; fill:#FFFFFF; " description="hypothetical_protein[br]Location: 109247 - 110330" locus_tag="AOL_s00081g217" id="clusterblast-1_all_8_10_3" points="486,540 494,540 499,535 494,530 486,530 486,540 " class="clusterblast-orf"  />
<polygon style="stroke:black; stroke-width:1; fill:#FFFFFF; " description="hypothetical_protein[br]Location: 112124 - 112852" locus_tag="AOL_s00081g218" id="clusterblast-1_all_8_10_4" points="456,540 460,540 465,535 460,530 456,530 456,540 " class="clusterblast-orf"  />
<polygon style="stroke:black; stroke-width:1; fill:green; " description="hypothetical_protein[br]Location: 115892 - 120329&lt;br&gt;&lt;br&gt;&lt;b&gt;BlastP hit with CHAFR746836_0067820.1&lt;/b&gt;&lt;br&gt;Percentage identity: 57%&lt;br&gt;Percentage coverage: 103%&lt;br&gt;BLAST bit score: 1342&lt;br&gt;E-value: 0.0" locus_tag="AOL_s00081g219" id="clusterblast-1_all_8_10_5" points="367,535 372,530 420,530 420,540 372,540 367,535 " class="clusterblast-orf"  />
<polygon style="stroke:black; stroke-width:1; fill:#FFFFFF; " description="hypothetical_protein[br]Location: 120892 - 123687" locus_tag="AOL_s00081g220" id="clusterblast-1_all_8_10_6" points="326,540 355,540 360,535 355,530 326,530 326,540 " class="clusterblast-orf"  />
<polygon style="stroke:black; stroke-width:1; fill:#FFFFFF; " description="hypothetical_protein[br]Location: 125193 - 125949" locus_tag="AOL_s00081g221" id="clusterblast-1_all_8_10_7" points="299,540 303,540 308,535 303,530 299,530 299,540 " class="clusterblast-orf"  />
<polygon style="stroke:black; stroke-width:1; fill:#FFFFFF; " description="hypothetical_protein[br]Location: 126991 - 128101" locus_tag="AOL_s00081g222" id="clusterblast-1_all_8_10_8" points="274,540 282,540 287,535 282,530 274,530 274,540 " class="clusterblast-orf"  />
<polygon style="stroke:black; stroke-width:1; fill:#FFFFFF; " description="hypothetical_protein[br]Location: 130522 - 131637" locus_tag="AOL_s00081g223" id="clusterblast-1_all_8_10_9" points="231,535 236,530 245,530 245,540 236,540 231,535 " class="clusterblast-orf"  />
<polygon style="stroke:black; stroke-width:1; fill:blue; " description="hypothetical_protein[br]Location: 132427 - 134221&lt;br&gt;&lt;br&gt;&lt;b&gt;BlastP hit with CHAFR746836_0067830.1&lt;/b&gt;&lt;br&gt;Percentage identity: 31%&lt;br&gt;Percentage coverage: 100%&lt;br&gt;BLAST bit score: 270&lt;br&gt;E-value: 3e-80" locus_tag="AOL_s00081g224" id="clusterblast-1_all_8_10_10" points="200,540 217,540 222,535 217,530 200,530 200,540 " class="clusterblast-orf"  />
<polygon style="stroke:black; stroke-width:1; fill:#FFFFFF; " description="hypothetical_protein[br]Location: 135773 - 136458" locus_tag="AOL_s00081g225" id="clusterblast-1_all_8_10_11" points="174,540 177,540 182,535 177,530 174,530 174,540 " class="clusterblast-orf"  />
<polygon style="stroke:black; stroke-width:1; fill:#FFFFFF; " description="hypothetical_protein[br]Location: 136765 - 137687" locus_tag="AOL_s00081g226" id="clusterblast-1_all_8_10_12" points="159,535 164,530 170,530 170,540 164,540 159,535 " class="clusterblast-orf"  />
<polygon style="stroke:black; stroke-width:1; fill:red; " description="hypothetical_protein[br]Location: 138633 - 140512&lt;br&gt;&lt;br&gt;&lt;b&gt;BlastP hit with CHAFR746836_0067810.1&lt;/b&gt;&lt;br&gt;Percentage identity: 36%&lt;br&gt;Percentage coverage: 100%&lt;br&gt;BLAST bit score: 214&lt;br&gt;E-value: 3e-62" locus_tag="AOL_s00081g227" id="clusterblast-1_all_8_10_13" points="125,540 143,540 148,535 143,530 125,530 125,540 " class="clusterblast-orf"  />
</g>
</svg>
