<svg xmlns="http://www.w3.org/2000/svg" height="230" width="800" version="1.1" y="0" x="0" preserveAspectRatio="none" xmlns:xlink="http://www.w3.org/1999/xlink" viewBox="0 0 800 230"  >
<g class="clusterblast-cluster" label="Query sequence"  >
<text class="clusterblast-acc" y="10" x="5"  >
Query sequence</text>
<line y1="35" x2="778.0" style="stroke:grey; stroke-width:1; " x1="10" y2="35"  />
<polygon style="stroke:black; stroke-width:1; fill:#FFFFFF; " description="unannotated orf[br]Location: 0 - 322" locus_tag="CHAFR746836_0040870.1" class="clusterblast-orf" points="10,35 13,30 13,40 10,35 " id="clusterblast-1_q53_8_0"  />
<polygon style="stroke:black; stroke-width:1; fill:#FFFFFF; " description="unannotated orf[br]Location: 690 - 1609" locus_tag="CHAFR746836_0040880.1" class="clusterblast-orf" points="16,40 20,40 25,35 20,30 16,30 16,40 " id="clusterblast-1_q53_8_1"  />
<polygon style="stroke:black; stroke-width:1; fill:#FFFFFF; " description="unannotated orf[br]Location: 1917 - 2487" locus_tag="CHAFR746836_0040890.1" class="clusterblast-orf" points="28,35 33,30 34,30 34,40 33,40 28,35 " id="clusterblast-1_q53_8_2"  />
<polygon style="stroke:black; stroke-width:1; fill:#FFFFFF; " description="unannotated orf[br]Location: 2829 - 4095" locus_tag="CHAFR746836_0040900.1" class="clusterblast-orf" points="37,40 45,40 50,35 45,30 37,30 37,40 " id="clusterblast-1_q53_8_3"  />
<polygon style="stroke:black; stroke-width:1; fill:red; " description="unannotated orf[br]Location: 4748 - 6053" locus_tag="CHAFR746836_0040910.1" class="clusterblast-orf" points="56,40 64,40 69,35 64,30 56,30 56,40 " id="clusterblast-1_q53_8_4"  />
<polygon style="stroke:black; stroke-width:1; fill:green; " description="unannotated orf[br]Location: 5316 - 6053" locus_tag="CHAFR746836_0040910.2" class="clusterblast-orf" points="62,40 64,40 69,35 64,30 62,30 62,40 " id="clusterblast-1_q53_8_5"  />
<polygon style="stroke:black; stroke-width:1; fill:#FFFFFF; " description="unannotated orf[br]Location: 19247 - 21227" locus_tag="CHAFR746836_0040920.1" class="clusterblast-orf" points="198,35 203,30 217,30 217,40 203,40 198,35 " id="clusterblast-1_q53_8_6"  />
<polygon style="stroke:black; stroke-width:1; fill:#FFFFFF; " description="unannotated orf[br]Location: 22480 - 23723" locus_tag="CHAFR746836_0040930.1" class="clusterblast-orf" points="230,35 235,30 242,30 242,40 235,40 230,35 " id="clusterblast-1_q53_8_7"  />
<polygon style="stroke:black; stroke-width:1; fill:#FFFFFF; " description="unannotated orf[br]Location: 24447 - 25229" locus_tag="CHAFR746836_0040940.1" class="clusterblast-orf" points="249,40 252,40 257,35 252,30 249,30 249,40 " id="clusterblast-1_q53_8_8"  />
<polygon style="stroke:black; stroke-width:1; fill:blue; " description="unannotated orf[br]Location: 26989 - 36831" locus_tag="CHAFR746836_0040950.1" class="clusterblast-orf" points="274,40 365,40 370,35 365,30 274,30 274,40 " id="clusterblast-1_q53_8_9"  />
<polygon style="stroke:black; stroke-width:1; fill:#FFFFFF; " description="unannotated orf[br]Location: 37202 - 38681" locus_tag="CHAFR746836_0040960.1" class="clusterblast-orf" points="374,35 379,30 388,30 388,40 379,40 374,35 " id="clusterblast-1_q53_8_10"  />
<polygon style="stroke:black; stroke-width:1; fill:#FFFFFF; " description="unannotated orf[br]Location: 39268 - 43358" locus_tag="CHAFR746836_0040970.1" class="clusterblast-orf" points="394,35 399,30 434,30 434,40 399,40 394,35 " id="clusterblast-1_q53_8_11"  />
<polygon style="stroke:black; stroke-width:1; fill:#FFFFFF; " description="unannotated orf[br]Location: 44144 - 49961" locus_tag="CHAFR746836_0040980.1" class="clusterblast-orf" points="442,40 494,40 499,35 494,30 442,30 442,40 " id="clusterblast-1_q53_8_12"  />
<polygon style="stroke:black; stroke-width:1; fill:#FFFFFF; " description="unannotated orf[br]Location: 60900 - 62027" locus_tag="CHAFR746836_0040990.1" class="clusterblast-orf" points="606,40 612,40 617,35 612,30 606,30 606,40 " id="clusterblast-1_q53_8_13"  />
<polygon style="stroke:black; stroke-width:1; fill:#FFFFFF; " description="unannotated orf[br]Location: 67062 - 68025" locus_tag="CHAFR746836_0041000.1" class="clusterblast-orf" points="667,40 671,40 676,35 671,30 667,30 667,40 " id="clusterblast-1_q53_8_14"  />
<polygon style="stroke:black; stroke-width:1; fill:#FFFFFF; " description="unannotated orf[br]Location: 70299 - 71348" locus_tag="CHAFR746836_0041010.1" class="clusterblast-orf" points="698,40 704,40 709,35 704,30 698,30 698,40 " id="clusterblast-1_q53_8_15"  />
<polygon style="stroke:black; stroke-width:1; fill:#FFFFFF; " description="unannotated orf[br]Location: 73436 - 77093" locus_tag="CHAFR746836_0041020.1" class="clusterblast-orf" points="729,35 734,30 765,30 765,40 734,40 729,35 " id="clusterblast-1_q53_8_16"  />
<polygon style="stroke:black; stroke-width:1; fill:yellow; " description="unannotated orf[br]Location: 77315 - 78384" locus_tag="CHAFR746836_0041030.1" class="clusterblast-orf" points="767,40 773,40 778,35 773,30 767,30 767,40 " id="clusterblast-1_q53_8_17"  />
</g>
<g class="clusterblast-cluster" description="Leptosphaeria maculans v23.1.3 lm SuperContig 8 v2 genomic s..." label="FP929065.1_c1"  >
<text class="clusterblast-acc" y="60" x="5"  >
FP929065.1_c1</text>
<text class="clusterblast-desc" y="60" x="460.8"  >
Leptosphaeria maculans v23.1.3 lm SuperContig 8 v2 genomic s...</text>
<line y1="85" x2="778.0" style="stroke:grey; stroke-width:1; " x1="10" y2="85"  />
<polygon style="stroke:black; stroke-width:1; fill:#FFFFFF; " description="predicted_protein[br]Location: 404007 - 404360" locus_tag="CBX90726.1" id="clusterblast-1_h53_8_0" points="86,85 89,80 89,90 86,85 " class="clusterblast-orf"  />
<polygon style="stroke:black; stroke-width:1; fill:#FFFFFF; " description="similar_to_multifunctional_beta-oxidation[br]Location: 405643 - 408618" locus_tag="CBX90727.1" id="clusterblast-1_h53_8_1" points="102,90 126,90 131,85 126,80 102,80 102,90 " class="clusterblast-orf"  />
<polygon style="stroke:black; stroke-width:1; fill:#FFFFFF; " description="similar_to_ABC_bile_acid_transporter[br]Location: 409311 - 413634" locus_tag="CBX90728.1" id="clusterblast-1_h53_8_2" points="137,85 142,80 180,80 180,90 142,90 137,85 " class="clusterblast-orf"  />
<polygon style="stroke:black; stroke-width:1; fill:#FFFFFF; " description="similar_to_3-hydroxyacyl-CoA_dehydrogenase[br]Location: 415041 - 417028" locus_tag="CBX90729.1" id="clusterblast-1_h53_8_3" points="194,85 199,80 213,80 213,90 199,90 194,85 " class="clusterblast-orf"  />
<polygon style="stroke:black; stroke-width:1; fill:#FFFFFF; " description="predicted_protein[br]Location: 417608 - 417826" locus_tag="CBX90730.1" id="clusterblast-1_h53_8_4" points="219,90 221,85 219,80 219,90 " class="clusterblast-orf"  />
<polygon style="stroke:black; stroke-width:1; fill:blue; " description="similar_to_polyketide_synthase[br]Location: 418920 - 425535&lt;br&gt;&lt;br&gt;&lt;b&gt;BlastP hit with CHAFR746836_0040950.1&lt;/b&gt;&lt;br&gt;Percentage identity: 32%&lt;br&gt;Percentage coverage: 38%&lt;br&gt;BLAST bit score: 593&lt;br&gt;E-value: 5e-172" locus_tag="CBX90731.1" id="clusterblast-1_h53_8_5" points="232,90 291,90 296,85 291,80 232,80 232,90 " class="clusterblast-orf"  />
<polygon style="stroke:black; stroke-width:1; fill:#FFFFFF; " description="similar_to_short_chain_dehydrogenase/reductase[br]Location: 426042 - 427218" locus_tag="CBX90732.1" id="clusterblast-1_h53_8_6" points="301,90 308,90 313,85 308,80 301,80 301,90 " class="clusterblast-orf"  />
<polygon style="stroke:black; stroke-width:1; fill:red; " description="similar_to_short-chain_dehydrogenase/reductase[br]Location: 427899 - 428738&lt;br&gt;&lt;br&gt;&lt;b&gt;BlastP hit with CHAFR746836_0040910.1&lt;/b&gt;&lt;br&gt;Percentage identity: 32%&lt;br&gt;Percentage coverage: 100%&lt;br&gt;BLAST bit score: 98&lt;br&gt;E-value: 6e-23&lt;br&gt;&lt;br&gt;&lt;b&gt;BlastP hit with CHAFR746836_0040910.2&lt;/b&gt;&lt;br&gt;Percentage identity: 33%&lt;br&gt;Percentage coverage: 92%&lt;br&gt;BLAST bit score: 53&lt;br&gt;E-value: 5e-08" locus_tag="CBX90733.1" id="clusterblast-1_h53_8_7" points="320,90 323,90 328,85 323,80 320,80 320,90 " class="clusterblast-orf"  />
<polygon style="stroke:black; stroke-width:1; fill:#FFFFFF; " description="similar_to_EF-hand_calcium-binding_domain[br]Location: 428857 - 429737" locus_tag="CBX90734.1" id="clusterblast-1_h53_8_8" points="329,85 334,80 338,80 338,90 334,90 329,85 " class="clusterblast-orf"  />
<polygon style="stroke:black; stroke-width:1; fill:#FFFFFF; " description="similar_to_multidrug_resistance_protein_1[br]Location: 430247 - 434132" locus_tag="CBX90735.1" id="clusterblast-1_h53_8_9" points="343,90 376,90 381,85 376,80 343,80 343,90 " class="clusterblast-orf"  />
<polygon style="stroke:black; stroke-width:1; fill:#FFFFFF; " description="hypothetical_protein[br]Location: 434487 - 435716" locus_tag="CBX90736.1" id="clusterblast-1_h53_8_10" points="384,85 389,80 396,80 396,90 389,90 384,85 " class="clusterblast-orf"  />
<polygon style="stroke:black; stroke-width:1; fill:#FFFFFF; " description="predicted_protein[br]Location: 436712 - 438685" locus_tag="CBX90737.1" id="clusterblast-1_h53_8_11" points="406,90 420,90 425,85 420,80 406,80 406,90 " class="clusterblast-orf"  />
<polygon style="stroke:black; stroke-width:1; fill:blue; " description="hypothetical_protein[br]Location: 438914 - 446981&lt;br&gt;&lt;br&gt;&lt;b&gt;BlastP hit with CHAFR746836_0040950.1&lt;/b&gt;&lt;br&gt;Percentage identity: 32%&lt;br&gt;Percentage coverage: 84%&lt;br&gt;BLAST bit score: 1272&lt;br&gt;E-value: 0.0" locus_tag="CBX90738.1" id="clusterblast-1_h53_8_12" points="428,85 433,80 507,80 507,90 433,90 428,85 " class="clusterblast-orf"  />
<polygon style="stroke:black; stroke-width:1; fill:#FFFFFF; " description="similar_to_acetoacetate_decarboxylase[br]Location: 447653 - 448414" locus_tag="CBX90739.1" id="clusterblast-1_h53_8_13" points="513,90 516,90 521,85 516,80 513,80 513,90 " class="clusterblast-orf"  />
<polygon style="stroke:black; stroke-width:1; fill:#FFFFFF; " description="similar_to_oxidoreductase[br]Location: 448527 - 449533" locus_tag="CBX90740.1" id="clusterblast-1_h53_8_14" points="522,85 527,80 532,80 532,90 527,90 522,85 " class="clusterblast-orf"  />
<polygon style="stroke:black; stroke-width:1; fill:#FFFFFF; " description="predicted_protein[br]Location: 450984 - 451774" locus_tag="CBX90741.1" id="clusterblast-1_h53_8_15" points="546,85 551,80 554,80 554,90 551,90 546,85 " class="clusterblast-orf"  />
<polygon style="stroke:black; stroke-width:1; fill:#FFFFFF; " description="hypothetical_protein[br]Location: 452054 - 454032" locus_tag="CBX90742.1" id="clusterblast-1_h53_8_16" points="556,85 561,80 576,80 576,90 561,90 556,85 " class="clusterblast-orf"  />
<polygon style="stroke:black; stroke-width:1; fill:#FFFFFF; " description="similar_to_palmitoyltransferase_akr1[br]Location: 454444 - 456877" locus_tag="CBX90743.1" id="clusterblast-1_h53_8_17" points="580,85 585,80 604,80 604,90 585,90 580,85 " class="clusterblast-orf"  />
<polygon style="stroke:black; stroke-width:1; fill:#FFFFFF; " description="hypothetical_protein[br]Location: 458034 - 458932" locus_tag="CBX90744.1" id="clusterblast-1_h53_8_18" points="615,85 620,80 624,80 624,90 620,90 615,85 " class="clusterblast-orf"  />
<polygon style="stroke:black; stroke-width:1; fill:#FFFFFF; " description="similar_to_Cdc25_family_phosphatase_Ibp1[br]Location: 459388 - 459894" locus_tag="CBX90745.1" id="clusterblast-1_h53_8_19" points="628,85 633,80 633,80 633,90 633,90 628,85 " class="clusterblast-orf"  />
<polygon style="stroke:black; stroke-width:1; fill:#FFFFFF; " description="similar_to_disulfide_isomerase[br]Location: 460401 - 462962" locus_tag="CBX90746.1" id="clusterblast-1_h53_8_20" points="638,85 643,80 663,80 663,90 643,90 638,85 " class="clusterblast-orf"  />
<polygon style="stroke:black; stroke-width:1; fill:#FFFFFF; " description="similar_to_NADH-ubiquinone_oxidoreductase_299[br]Location: 463104 - 463951" locus_tag="CBX90747.1" id="clusterblast-1_h53_8_21" points="665,90 668,90 673,85 668,80 665,80 665,90 " class="clusterblast-orf"  />
<polygon style="stroke:black; stroke-width:1; fill:#FFFFFF; " description="predicted_protein[br]Location: 464545 - 464940" locus_tag="CBX90748.1" id="clusterblast-1_h53_8_22" points="679,85 683,80 683,90 679,85 " class="clusterblast-orf"  />
<polygon style="stroke:black; stroke-width:1; fill:#FFFFFF; " description="predicted_protein[br]Location: 465800 - 466839" locus_tag="CBX90749.1" id="clusterblast-1_h53_8_23" points="691,90 696,90 701,85 696,80 691,80 691,90 " class="clusterblast-orf"  />
</g>
</svg>
