<svg xmlns="http://www.w3.org/2000/svg" height="230" width="800" version="1.1" y="0" x="0" preserveAspectRatio="none" xmlns:xlink="http://www.w3.org/1999/xlink" viewBox="0 0 800 230"  >
<g class="clusterblast-cluster" label="Query sequence"  >
<text class="clusterblast-acc" y="10" x="5"  >
Query sequence</text>
<line y1="35" x2="778.0" style="stroke:grey; stroke-width:1; " x1="10" y2="35"  />
<polygon style="stroke:black; stroke-width:1; fill:rgb(190,63,63); " description="unannotated orf[br]Location: 0 - 4473" locus_tag="CHAFR746836_0033810.1" class="clusterblast-orf" points="135,35 140,30 186,30 186,40 140,40 135,35 " id="clusterblast-1_q47_1_0"  />
<polygon style="stroke:black; stroke-width:1; fill:rgb(63,63,190); " description="unannotated orf[br]Location: 8908 - 16258" locus_tag="CHAFR746836_0033820.1" class="clusterblast-orf" points="237,35 242,30 321,30 321,40 242,40 237,35 " id="clusterblast-1_q47_1_1"  />
<polygon style="stroke:black; stroke-width:1; fill:rgb(63,190,63); " description="unannotated orf[br]Location: 17051 - 17982" locus_tag="CHAFR746836_0033830.1" class="clusterblast-orf" points="330,40 336,40 341,35 336,30 330,30 330,40 " id="clusterblast-1_q47_1_2"  />
<polygon style="stroke:black; stroke-width:1; fill:rgb(190,63,190); " description="unannotated orf[br]Location: 20014 - 21694" locus_tag="CHAFR746836_0033840.1" class="clusterblast-orf" points="365,40 379,40 384,35 379,30 365,30 365,40 " id="clusterblast-1_q47_1_3"  />
<polygon style="stroke:black; stroke-width:1; fill:rgb(190,190,63); " description="unannotated orf[br]Location: 21817 - 22799" locus_tag="CHAFR746836_0033850.1" class="clusterblast-orf" points="385,35 390,30 397,30 397,40 390,40 385,35 " id="clusterblast-1_q47_1_4"  />
<polygon style="stroke:black; stroke-width:1; fill:rgb(190,190,190); " description="unannotated orf[br]Location: 23459 - 25108" locus_tag="CHAFR746836_0033860.1" class="clusterblast-orf" points="404,40 418,40 423,35 418,30 404,30 404,40 " id="clusterblast-1_q47_1_5"  />
<polygon style="stroke:black; stroke-width:1; fill:#FFFFFF; " description="unannotated orf[br]Location: 25635 - 26766" locus_tag="CHAFR746836_0033870.1" class="clusterblast-orf" points="429,40 437,40 442,35 437,30 429,30 429,40 " id="clusterblast-1_q47_1_6"  />
<polygon style="stroke:black; stroke-width:1; fill:#FFFFFF; " description="unannotated orf[br]Location: 33731 - 34287" locus_tag="CHAFR746836_0033880.1" class="clusterblast-orf" points="522,35 527,30 529,30 529,40 527,40 522,35 " id="clusterblast-1_q47_1_7"  />
<polygon style="stroke:black; stroke-width:1; fill:#FFFFFF; " description="unannotated orf[br]Location: 40637 - 41931" locus_tag="CHAFR746836_0033890.1" class="clusterblast-orf" points="602,35 607,30 616,30 616,40 607,40 602,35 " id="clusterblast-1_q47_1_8"  />
<polygon style="stroke:black; stroke-width:1; fill:#FFFFFF; " description="unannotated orf[br]Location: 43999 - 44934" locus_tag="CHAFR746836_0033900.1" class="clusterblast-orf" points="640,35 645,30 651,30 651,40 645,40 640,35 " id="clusterblast-1_q47_1_9"  />
</g>
<g class="clusterblast-cluster" description="Cordyceps militaris CM01 unplaced genomic scaffold CCM S0000..." label="JH126404.1_c3"  >
<text class="clusterblast-acc" y="60" x="5"  >
JH126404.1_c3</text>
<text class="clusterblast-desc" y="60" x="460.8"  >
Cordyceps militaris CM01 unplaced genomic scaffold CCM S0000...</text>
<line y1="85" x2="778.0" style="stroke:grey; stroke-width:1; " x1="10" y2="85"  />
<polygon style="stroke:black; stroke-width:1; fill:#FFFFFF; " description="beta-lactamase,_putative[br]Location: 2331184 - 2332500" locus_tag="CCM_08008" id="clusterblast-1_h47_1_0" points="10,90 20,90 25,85 20,80 10,80 10,90 " class="clusterblast-orf"  />
<polygon style="stroke:black; stroke-width:1; fill:#FFFFFF; " description="NUDIX_hydrolase_domain-like_protein[br]Location: 2334378 - 2334965" locus_tag="CCM_08009" id="clusterblast-1_h47_1_1" points="46,85 51,80 53,80 53,90 51,90 46,85 " class="clusterblast-orf"  />
<polygon style="stroke:black; stroke-width:1; fill:#FFFFFF; " description="ankyrin_repeat_protein[br]Location: 2338164 - 2339437" locus_tag="CCM_08010" id="clusterblast-1_h47_1_2" points="90,90 99,90 104,85 99,80 90,80 90,90 " class="clusterblast-orf"  />
<polygon style="stroke:black; stroke-width:1; fill:#FFFFFF; " description="MFS_multidrug_transporter[br]Location: 2340555 - 2342607" locus_tag="CCM_08011" id="clusterblast-1_h47_1_3" points="117,90 136,90 141,85 136,80 117,80 117,90 " class="clusterblast-orf"  />
<polygon style="stroke:black; stroke-width:1; fill:rgb(190,190,190); " description="Cytochrome_P450[br]Location: 2342959 - 2344994&lt;br&gt;&lt;br&gt;&lt;b&gt;BlastP hit with CHAFR746836_0033860.1&lt;/b&gt;&lt;br&gt;Percentage identity: 32%&lt;br&gt;Percentage coverage: 95%&lt;br&gt;BLAST bit score: 257&lt;br&gt;E-value: 6e-77" locus_tag="CCM_08012" id="clusterblast-1_h47_1_4" points="145,85 150,80 168,80 168,90 150,90 145,85 " class="clusterblast-orf"  />
<polygon style="stroke:black; stroke-width:1; fill:rgb(190,63,190); " description="FAD-binding,_type_2[br]Location: 2345643 - 2347385&lt;br&gt;&lt;br&gt;&lt;b&gt;BlastP hit with CHAFR746836_0033840.1&lt;/b&gt;&lt;br&gt;Percentage identity: 38%&lt;br&gt;Percentage coverage: 102%&lt;br&gt;BLAST bit score: 349&lt;br&gt;E-value: 2e-111" locus_tag="CCM_08013" id="clusterblast-1_h47_1_5" points="176,90 191,90 196,85 191,80 176,80 176,90 " class="clusterblast-orf"  />
<polygon style="stroke:black; stroke-width:1; fill:rgb(190,190,63); " description="Short-chain_dehydrogenase/reductase_SDR[br]Location: 2347660 - 2348556&lt;br&gt;&lt;br&gt;&lt;b&gt;BlastP hit with CHAFR746836_0033850.1&lt;/b&gt;&lt;br&gt;Percentage identity: 31%&lt;br&gt;Percentage coverage: 108%&lt;br&gt;BLAST bit score: 136&lt;br&gt;E-value: 7e-37" locus_tag="CCM_08014" id="clusterblast-1_h47_1_6" points="199,85 204,80 209,80 209,90 204,90 199,85 " class="clusterblast-orf"  />
<polygon style="stroke:black; stroke-width:1; fill:rgb(63,190,63); " description="DltD_N-terminal_domain_protein[br]Location: 2349370 - 2350691&lt;br&gt;&lt;br&gt;&lt;b&gt;BlastP hit with CHAFR746836_0033830.1&lt;/b&gt;&lt;br&gt;Percentage identity: 36%&lt;br&gt;Percentage coverage: 100%&lt;br&gt;BLAST bit score: 206&lt;br&gt;E-value: 4e-62" locus_tag="CCM_08015" id="clusterblast-1_h47_1_7" points="218,85 223,80 234,80 234,90 223,90 218,85 " class="clusterblast-orf"  />
<polygon style="stroke:black; stroke-width:1; fill:rgb(63,63,190); " description="polyketide_synthase,_putative[br]Location: 2351316 - 2358953&lt;br&gt;&lt;br&gt;&lt;b&gt;BlastP hit with CHAFR746836_0033820.1&lt;/b&gt;&lt;br&gt;Percentage identity: 45%&lt;br&gt;Percentage coverage: 60%&lt;br&gt;BLAST bit score: 1210&lt;br&gt;E-value: 0.0" locus_tag="CCM_08016" id="clusterblast-1_h47_1_8" points="241,90 324,90 329,85 324,80 241,80 241,90 " class="clusterblast-orf"  />
<polygon style="stroke:black; stroke-width:1; fill:#FFFFFF; " description="Peptidase_S1/S6[br]Location: 2359463 - 2360738" locus_tag="CCM_08017" id="clusterblast-1_h47_1_9" points="334,85 339,80 349,80 349,90 339,90 334,85 " class="clusterblast-orf"  />
<polygon style="stroke:black; stroke-width:1; fill:rgb(63,63,190); " description="polyketide_synthase,_putative[br]Location: 2363658 - 2375136&lt;br&gt;&lt;br&gt;&lt;b&gt;BlastP hit with CHAFR746836_0033820.1&lt;/b&gt;&lt;br&gt;Percentage identity: 32%&lt;br&gt;Percentage coverage: 57%&lt;br&gt;BLAST bit score: 619&lt;br&gt;E-value: 5e-179" locus_tag="CCM_08018" id="clusterblast-1_h47_1_10" points="383,85 388,80 515,80 515,90 388,90 383,85 " class="clusterblast-orf"  />
<polygon style="stroke:black; stroke-width:1; fill:#FFFFFF; " description="citrinin_biosynthesis_oxydoreductase_CtnB[br]Location: 2376362 - 2377069" locus_tag="CCM_08019" id="clusterblast-1_h47_1_11" points="529,90 532,90 537,85 532,80 529,80 529,90 " class="clusterblast-orf"  />
<polygon style="stroke:black; stroke-width:1; fill:#FFFFFF; " description="chitinase[br]Location: 2377547 - 2378494" locus_tag="CCM_08020" id="clusterblast-1_h47_1_12" points="542,85 547,80 553,80 553,90 547,90 542,85 " class="clusterblast-orf"  />
<polygon style="stroke:black; stroke-width:1; fill:#FFFFFF; " description="late_sexual_development_protein[br]Location: 2379445 - 2380617" locus_tag="CCM_08021" id="clusterblast-1_h47_1_13" points="564,85 569,80 578,80 578,90 569,90 564,85 " class="clusterblast-orf"  />
<polygon style="stroke:black; stroke-width:1; fill:#FFFFFF; " description="hypothetical_protein[br]Location: 2382890 - 2387182" locus_tag="CCM_08022" id="clusterblast-1_h47_1_14" points="604,90 648,90 653,85 648,80 604,80 604,90 " class="clusterblast-orf"  />
<polygon style="stroke:black; stroke-width:1; fill:#FFFFFF; " description="extracellular_SCP_domain_protein_Pry1,_putative[br]Location: 2387318 - 2388714" locus_tag="CCM_08023" id="clusterblast-1_h47_1_15" points="655,85 660,80 671,80 671,90 660,90 655,85 " class="clusterblast-orf"  />
<polygon style="stroke:black; stroke-width:1; fill:#FFFFFF; " description="Zinc_finger_domain-containing_protein,[br]Location: 2394455 - 2398012" locus_tag="CCM_08024" id="clusterblast-1_h47_1_16" points="737,90 773,90 778,85 773,80 737,80 737,90 " class="clusterblast-orf"  />
</g>
</svg>
