<svg xmlns="http://www.w3.org/2000/svg" height="230" width="800" version="1.1" y="0" x="0" preserveAspectRatio="none" xmlns:xlink="http://www.w3.org/1999/xlink" viewBox="0 0 800 230"  >
<g class="clusterblast-cluster" label="Query sequence"  >
<text class="clusterblast-acc" y="10" x="5"  >
Query sequence</text>
<line y1="35" x2="778.0" style="stroke:grey; stroke-width:1; " x1="10" y2="35"  />
<polygon style="stroke:black; stroke-width:1; fill:rgb(169,42,42); " description="unannotated orf[br]Location: 42361 - 45359" locus_tag="CHAFR746836_0094690.1" class="clusterblast-orf" points="10,35 15,30 30,30 30,40 15,40 10,35 " id="clusterblast-1_q27_2_0"  />
<polygon style="stroke:black; stroke-width:1; fill:#FFFFFF; " description="unannotated orf[br]Location: 45759 - 47601" locus_tag="CHAFR746836_0094700.1" class="clusterblast-orf" points="32,40 40,40 45,35 40,30 32,30 32,40 " id="clusterblast-1_q27_2_1"  />
<polygon style="stroke:black; stroke-width:1; fill:#FFFFFF; " description="unannotated orf[br]Location: 49113 - 50656" locus_tag="CHAFR746836_0094710.1" class="clusterblast-orf" points="55,35 60,30 65,30 65,40 60,40 55,35 " id="clusterblast-1_q27_2_2"  />
<polygon style="stroke:black; stroke-width:1; fill:#FFFFFF; " description="unannotated orf[br]Location: 51961 - 53519" locus_tag="CHAFR746836_0094720.1" class="clusterblast-orf" points="74,35 79,30 84,30 84,40 79,40 74,35 " id="clusterblast-1_q27_2_3"  />
<polygon style="stroke:black; stroke-width:1; fill:rgb(42,169,42); " description="unannotated orf[br]Location: 61574 - 67323" locus_tag="CHAFR746836_0094730.1" class="clusterblast-orf" points="138,35 143,30 177,30 177,40 143,40 138,35 " id="clusterblast-1_q27_2_4"  />
<polygon style="stroke:black; stroke-width:1; fill:rgb(42,169,212); " description="unannotated orf[br]Location: 70255 - 75654" locus_tag="CHAFR746836_0094740.1" class="clusterblast-orf" points="196,40 228,40 233,35 228,30 196,30 196,40 " id="clusterblast-1_q27_2_5"  />
<polygon style="stroke:black; stroke-width:1; fill:rgb(169,169,42); " description="unannotated orf[br]Location: 88624 - 90116" locus_tag="CHAFR746836_0094750.1" class="clusterblast-orf" points="320,35 325,30 330,30 330,40 325,40 320,35 " id="clusterblast-1_q27_2_6"  />
<polygon style="stroke:black; stroke-width:1; fill:#FFFFFF; " description="unannotated orf[br]Location: 91304 - 92309" locus_tag="CHAFR746836_0094760.1" class="clusterblast-orf" points="338,40 339,40 344,35 339,30 338,30 338,40 " id="clusterblast-1_q27_2_7"  />
<polygon style="stroke:black; stroke-width:1; fill:#FFFFFF; " description="unannotated orf[br]Location: 92407 - 93918" locus_tag="CHAFR746836_0094770.1" class="clusterblast-orf" points="345,35 350,30 355,30 355,40 350,40 345,35 " id="clusterblast-1_q27_2_8"  />
<polygon style="stroke:black; stroke-width:1; fill:rgb(169,42,127); " description="unannotated orf[br]Location: 94558 - 96160" locus_tag="CHAFR746836_0094780.1" class="clusterblast-orf" points="359,40 365,40 370,35 365,30 359,30 359,40 " id="clusterblast-1_q27_2_9"  />
<polygon style="stroke:black; stroke-width:1; fill:#FFFFFF; " description="unannotated orf[br]Location: 96488 - 97143" locus_tag="CHAFR746836_0094790.1" class="clusterblast-orf" points="372,35 377,30 377,30 377,40 377,40 372,35 " id="clusterblast-1_q27_2_10"  />
<polygon style="stroke:black; stroke-width:1; fill:#FFFFFF; " description="unannotated orf[br]Location: 99047 - 101039" locus_tag="CHAFR746836_0094800.1" class="clusterblast-orf" points="389,40 398,40 403,35 398,30 389,30 389,40 " id="clusterblast-1_q27_2_11"  />
<polygon style="stroke:black; stroke-width:1; fill:#FFFFFF; " description="unannotated orf[br]Location: 105913 - 106563" locus_tag="CHAFR746836_0094810.1" class="clusterblast-orf" points="435,35 440,30 440,30 440,40 440,40 435,35 " id="clusterblast-1_q27_2_12"  />
<polygon style="stroke:black; stroke-width:1; fill:#FFFFFF; " description="unannotated orf[br]Location: 108528 - 112083" locus_tag="CHAFR746836_0094820.1" class="clusterblast-orf" points="453,40 472,40 477,35 472,30 453,30 453,40 " id="clusterblast-1_q27_2_13"  />
<polygon style="stroke:black; stroke-width:1; fill:rgb(42,42,212); " description="unannotated orf[br]Location: 112908 - 114711" locus_tag="CHAFR746836_0094830.1" class="clusterblast-orf" points="482,35 487,30 494,30 494,40 487,40 482,35 " id="clusterblast-1_q27_2_14"  />
<polygon style="stroke:black; stroke-width:1; fill:rgb(169,169,212); " description="unannotated orf[br]Location: 115507 - 115979" locus_tag="CHAFR746836_0094840.1" class="clusterblast-orf" points="500,40 503,35 500,30 500,40 " id="clusterblast-1_q27_2_15"  />
<polygon style="stroke:black; stroke-width:1; fill:rgb(42,169,127); " description="unannotated orf[br]Location: 116099 - 117436" locus_tag="CHAFR746836_0094850.1" class="clusterblast-orf" points="504,35 509,30 513,30 513,40 509,40 504,35 " id="clusterblast-1_q27_2_16"  />
<polygon style="stroke:black; stroke-width:1; fill:#FFFFFF; " description="unannotated orf[br]Location: 117682 - 118147" locus_tag="CHAFR746836_0094860.1" class="clusterblast-orf" points="514,40 518,35 514,30 514,40 " id="clusterblast-1_q27_2_17"  />
<polygon style="stroke:black; stroke-width:1; fill:#FFFFFF; " description="unannotated orf[br]Location: 119597 - 120815" locus_tag="CHAFR746836_0094870.1" class="clusterblast-orf" points="527,35 532,30 535,30 535,40 532,40 527,35 " id="clusterblast-1_q27_2_18"  />
<polygon style="stroke:black; stroke-width:1; fill:#FFFFFF; " description="unannotated orf[br]Location: 121630 - 122020" locus_tag="CHAFR746836_0094880.1" class="clusterblast-orf" points="541,40 543,35 541,30 541,40 " id="clusterblast-1_q27_2_19"  />
<polygon style="stroke:black; stroke-width:1; fill:#FFFFFF; " description="unannotated orf[br]Location: 122290 - 123684" locus_tag="CHAFR746836_0094890.1" class="clusterblast-orf" points="545,40 550,40 555,35 550,30 545,30 545,40 " id="clusterblast-1_q27_2_20"  />
<polygon style="stroke:black; stroke-width:1; fill:#FFFFFF; " description="unannotated orf[br]Location: 124088 - 124999" locus_tag="CHAFR746836_0094900.1" class="clusterblast-orf" points="557,35 562,30 563,30 563,40 562,40 557,35 " id="clusterblast-1_q27_2_21"  />
<polygon style="stroke:black; stroke-width:1; fill:#FFFFFF; " description="unannotated orf[br]Location: 125439 - 126681" locus_tag="CHAFR746836_0094910.1" class="clusterblast-orf" points="566,40 570,40 575,35 570,30 566,30 566,40 " id="clusterblast-1_q27_2_22"  />
<polygon style="stroke:black; stroke-width:1; fill:#FFFFFF; " description="unannotated orf[br]Location: 127006 - 130058" locus_tag="CHAFR746836_0094920.1" class="clusterblast-orf" points="577,35 582,30 597,30 597,40 582,40 577,35 " id="clusterblast-1_q27_2_23"  />
<polygon style="stroke:black; stroke-width:1; fill:#FFFFFF; " description="unannotated orf[br]Location: 132463 - 134428" locus_tag="CHAFR746836_0094930.1" class="clusterblast-orf" points="613,35 618,30 627,30 627,40 618,40 613,35 " id="clusterblast-1_q27_2_24"  />
<polygon style="stroke:black; stroke-width:1; fill:rgb(169,42,212); " description="unannotated orf[br]Location: 137446 - 138588" locus_tag="CHAFR746836_0094940.2" class="clusterblast-orf" points="647,35 652,30 655,30 655,40 652,40 647,35 " id="clusterblast-1_q27_2_25"  />
<polygon style="stroke:black; stroke-width:1; fill:rgb(42,42,127); " description="unannotated orf[br]Location: 137501 - 138588" locus_tag="CHAFR746836_0094940.1" class="clusterblast-orf" points="647,35 652,30 655,30 655,40 652,40 647,35 " id="clusterblast-1_q27_2_26"  />
<polygon style="stroke:black; stroke-width:1; fill:#FFFFFF; " description="unannotated orf[br]Location: 154744 - 156934" locus_tag="CHAFR746836_0094950.1" class="clusterblast-orf" points="763,40 773,40 778,35 773,30 763,30 763,40 " id="clusterblast-1_q27_2_27"  />
</g>
<g class="clusterblast-cluster" description="Achromobacter xylosoxidans A8 chromosome, complete genome." label="NC_014640.1_c2"  >
<text class="clusterblast-acc" y="60" x="5"  >
NC_014640.1_c2</text>
<text class="clusterblast-desc" y="60" x="460.8"  >
Achromobacter xylosoxidans A8 chromosome, complete genome.</text>
<line y1="85" x2="778.0" style="stroke:grey; stroke-width:1; " x1="10" y2="85"  />
<polygon style="stroke:black; stroke-width:1; fill:#FFFFFF; " description="hypothetical_protein[br]Location: 1971922 - 1972302" locus_tag="AXYL_01852" id="clusterblast-1_h27_2_0" points="242,90 244,85 242,80 242,90 " class="clusterblast-orf"  />
<polygon style="stroke:black; stroke-width:1; fill:#FFFFFF; " description="hypothetical_protein[br]Location: 1972650 - 1972994" locus_tag="AXYL_01854" id="clusterblast-1_h27_2_1" points="246,90 249,85 246,80 246,90 " class="clusterblast-orf"  />
<polygon style="stroke:black; stroke-width:1; fill:#FFFFFF; " description="pyridine_nucleotide-disulfide_oxidoreductase[br]Location: 1973281 - 1974552" locus_tag="AXYL_01855" id="clusterblast-1_h27_2_2" points="251,90 254,90 259,85 254,80 251,80 251,90 " class="clusterblast-orf"  />
<polygon style="stroke:black; stroke-width:1; fill:#FFFFFF; " description="hypothetical_protein[br]Location: 1974565 - 1974972" locus_tag="AXYL_01856" id="clusterblast-1_h27_2_3" points="259,85 262,80 262,90 259,85 " class="clusterblast-orf"  />
<polygon style="stroke:black; stroke-width:1; fill:#FFFFFF; " description="hypothetical_protein[br]Location: 1975039 - 1975398" locus_tag="AXYL_01857" id="clusterblast-1_h27_2_4" points="262,85 265,80 265,90 262,85 " class="clusterblast-orf"  />
<polygon style="stroke:black; stroke-width:1; fill:#FFFFFF; " description="entericidin[br]Location: 1975579 - 1975710" locus_tag="AXYL_01858" id="clusterblast-1_h27_2_5" points="266,90 267,85 266,80 266,90 " class="clusterblast-orf"  />
<polygon style="stroke:black; stroke-width:1; fill:#FFFFFF; " description="hypothetical_protein[br]Location: 1975853 - 1976284" locus_tag="AXYL_01859" id="clusterblast-1_h27_2_6" points="268,90 271,85 268,80 268,90 " class="clusterblast-orf"  />
<polygon style="stroke:black; stroke-width:1; fill:#FFFFFF; " description="hypothetical_protein[br]Location: 1976288 - 1976701" locus_tag="AXYL_01860" id="clusterblast-1_h27_2_7" points="271,90 274,85 271,80 271,90 " class="clusterblast-orf"  />
<polygon style="stroke:black; stroke-width:1; fill:#FFFFFF; " description="aspartate_carbamoyltransferase_2[br]Location: 1976799 - 1978091" locus_tag="AXYL_01861" id="clusterblast-1_h27_2_8" points="274,90 278,90 283,85 278,80 274,80 274,90 " class="clusterblast-orf"  />
<polygon style="stroke:black; stroke-width:1; fill:#FFFFFF; " description="diguanylate_cyclase[br]Location: 1978234 - 1979670" locus_tag="AXYL_01862" id="clusterblast-1_h27_2_9" points="284,90 288,90 293,85 288,80 284,80 284,90 " class="clusterblast-orf"  />
<polygon style="stroke:black; stroke-width:1; fill:#FFFFFF; " description="exonuclease,_RdgC_family_protein_1[br]Location: 1979746 - 1980645" locus_tag="AXYL_01863" id="clusterblast-1_h27_2_10" points="294,85 299,80 300,80 300,90 299,90 294,85 " class="clusterblast-orf"  />
<polygon style="stroke:black; stroke-width:1; fill:#FFFFFF; " description="hypothetical_protein[br]Location: 1980794 - 1981003" locus_tag="AXYL_01864" id="clusterblast-1_h27_2_11" points="301,90 302,85 301,80 301,90 " class="clusterblast-orf"  />
<polygon style="stroke:black; stroke-width:1; fill:#FFFFFF; " description="sugar_transporter_family_protein_7[br]Location: 1981430 - 1983106" locus_tag="AXYL_01865" id="clusterblast-1_h27_2_12" points="305,85 310,80 316,80 316,90 310,90 305,85 " class="clusterblast-orf"  />
<polygon style="stroke:black; stroke-width:1; fill:#FFFFFF; " description="HAMP_domain-containing_protein_7[br]Location: 1983288 - 1984805" locus_tag="AXYL_01866" id="clusterblast-1_h27_2_13" points="318,85 323,80 328,80 328,90 323,90 318,85 " class="clusterblast-orf"  />
<polygon style="stroke:black; stroke-width:1; fill:#FFFFFF; " description="transcriptional_regulator_TctD_3[br]Location: 1984783 - 1985472" locus_tag="AXYL_01867" id="clusterblast-1_h27_2_14" points="328,85 332,80 332,90 328,85 " class="clusterblast-orf"  />
<polygon style="stroke:black; stroke-width:1; fill:#FFFFFF; " description="protein_RecA[br]Location: 1985704 - 1986768" locus_tag="AXYL_01868" id="clusterblast-1_h27_2_15" points="334,90 336,90 341,85 336,80 334,80 334,90 " class="clusterblast-orf"  />
<polygon style="stroke:black; stroke-width:1; fill:#FFFFFF; " description="regulatory_protein_RecX[br]Location: 1986900 - 1987583" locus_tag="AXYL_01869" id="clusterblast-1_h27_2_16" points="342,90 346,85 342,80 342,90 " class="clusterblast-orf"  />
<polygon style="stroke:black; stroke-width:1; fill:#FFFFFF; " description="lipoprotein_4[br]Location: 1987670 - 1988344" locus_tag="AXYL_01870" id="clusterblast-1_h27_2_17" points="347,85 352,80 352,80 352,90 352,90 347,85 " class="clusterblast-orf"  />
<polygon style="stroke:black; stroke-width:1; fill:#FFFFFF; " description="transcriptional_regulator[br]Location: 1988456 - 1989373" locus_tag="AXYL_01871" id="clusterblast-1_h27_2_18" points="352,85 357,80 358,80 358,90 357,90 352,85 " class="clusterblast-orf"  />
<polygon style="stroke:black; stroke-width:1; fill:#FFFFFF; " description="methyltransferase[br]Location: 1989516 - 1991813" locus_tag="AXYL_01872" id="clusterblast-1_h27_2_19" points="359,90 370,90 375,85 370,80 359,80 359,90 " class="clusterblast-orf"  />
<polygon style="stroke:black; stroke-width:1; fill:#FFFFFF; " description="amino_acid_adenylation_domain-containing_protein[br]Location: 1992041 - 1996024" locus_tag="AXYL_01873" id="clusterblast-1_h27_2_20" points="376,90 398,90 403,85 398,80 376,80 376,90 " class="clusterblast-orf"  />
<polygon style="stroke:black; stroke-width:1; fill:#FFFFFF; " description="hypothetical_protein[br]Location: 1996021 - 1996587" locus_tag="AXYL_01874" id="clusterblast-1_h27_2_21" points="403,90 407,85 403,80 403,90 " class="clusterblast-orf"  />
<polygon style="stroke:black; stroke-width:1; fill:#FFFFFF; " description="hypothetical_protein[br]Location: 1996668 - 1997270" locus_tag="AXYL_01875" id="clusterblast-1_h27_2_22" points="407,90 411,85 407,80 407,90 " class="clusterblast-orf"  />
<polygon style="stroke:black; stroke-width:1; fill:#FFFFFF; " description="succinyl-CoA_synthetase_beta_chain[br]Location: 1997281 - 1998441" locus_tag="AXYL_01876" id="clusterblast-1_h27_2_23" points="411,90 414,90 419,85 414,80 411,80 411,90 " class="clusterblast-orf"  />
<polygon style="stroke:black; stroke-width:1; fill:rgb(169,42,42); " description="succinyl-CoA_ligase[br]Location: 1998464 - 1999345&lt;br&gt;&lt;br&gt;&lt;b&gt;BlastP hit with CHAFR746836_0094690.1&lt;/b&gt;&lt;br&gt;Percentage identity: 57%&lt;br&gt;Percentage coverage: 39%&lt;br&gt;BLAST bit score: 323&lt;br&gt;E-value: 8e-103" locus_tag="AXYL_01877" id="clusterblast-1_h27_2_24" points="419,90 420,90 425,85 420,80 419,80 419,90 " class="clusterblast-orf"  />
<polygon style="stroke:black; stroke-width:1; fill:#FFFFFF; " description="integral_membrane_protein_TerC_family_protein_2[br]Location: 1999699 - 2000397" locus_tag="AXYL_01878" id="clusterblast-1_h27_2_25" points="428,90 432,85 428,80 428,90 " class="clusterblast-orf"  />
<polygon style="stroke:black; stroke-width:1; fill:#FFFFFF; " description="integral_membrane_protein_TerC_family_protein_3[br]Location: 2000510 - 2001229" locus_tag="AXYL_01879" id="clusterblast-1_h27_2_26" points="433,90 433,90 438,85 433,80 433,80 433,90 " class="clusterblast-orf"  />
<polygon style="stroke:black; stroke-width:1; fill:#FFFFFF; " description="hypothetical_protein[br]Location: 2001216 - 2001338" locus_tag="AXYL_01880" id="clusterblast-1_h27_2_27" points="438,90 439,85 438,80 438,90 " class="clusterblast-orf"  />
<polygon style="stroke:black; stroke-width:1; fill:#FFFFFF; " description="porphobilinogen_deaminase[br]Location: 2001348 - 2002295" locus_tag="AXYL_01881" id="clusterblast-1_h27_2_28" points="439,90 440,90 445,85 440,80 439,80 439,90 " class="clusterblast-orf"  />
<polygon style="stroke:black; stroke-width:1; fill:#FFFFFF; " description="uroporphyrinogen-III_synthase[br]Location: 2002295 - 2003113" locus_tag="AXYL_01882" id="clusterblast-1_h27_2_29" points="445,90 446,90 451,85 446,80 445,80 445,90 " class="clusterblast-orf"  />
<polygon style="stroke:black; stroke-width:1; fill:#FFFFFF; " description="HemX_family_protein[br]Location: 2003151 - 2004344" locus_tag="AXYL_01883" id="clusterblast-1_h27_2_30" points="451,90 454,90 459,85 454,80 451,80 451,90 " class="clusterblast-orf"  />
<polygon style="stroke:black; stroke-width:1; fill:#FFFFFF; " description="HemY,_N-terminal_domain-containing_protein[br]Location: 2004350 - 2005972" locus_tag="AXYL_01884" id="clusterblast-1_h27_2_31" points="459,90 465,90 470,85 465,80 459,80 459,90 " class="clusterblast-orf"  />
<polygon style="stroke:black; stroke-width:1; fill:#FFFFFF; " description="inorganic_pyrophosphatase[br]Location: 2006005 - 2006535" locus_tag="AXYL_01885" id="clusterblast-1_h27_2_32" points="470,90 474,85 470,80 470,90 " class="clusterblast-orf"  />
<polygon style="stroke:black; stroke-width:1; fill:#FFFFFF; " description="DeoR-like_helix-turn-helix_domain-containing[br]Location: 2006536 - 2007357" locus_tag="AXYL_01886" id="clusterblast-1_h27_2_33" points="474,85 479,80 479,80 479,90 479,90 474,85 " class="clusterblast-orf"  />
<polygon style="stroke:black; stroke-width:1; fill:rgb(169,42,212); " description="3-oxoacyl-[acyl-carrier-protein]_reductase[br]Location: 2007391 - 2008152&lt;br&gt;&lt;br&gt;&lt;b&gt;BlastP hit with CHAFR746836_0094940.2&lt;/b&gt;&lt;br&gt;Percentage identity: 32%&lt;br&gt;Percentage coverage: 65%&lt;br&gt;BLAST bit score: 66&lt;br&gt;E-value: 9e-12&lt;br&gt;&lt;br&gt;&lt;b&gt;BlastP hit with CHAFR746836_0094940.1&lt;/b&gt;&lt;br&gt;Percentage identity: 32%&lt;br&gt;Percentage coverage: 65%&lt;br&gt;BLAST bit score: 66&lt;br&gt;E-value: 1e-11" locus_tag="AXYL_01887" id="clusterblast-1_h27_2_34" points="479,85 484,80 484,80 484,90 484,90 479,85 " class="clusterblast-orf"  />
<polygon style="stroke:black; stroke-width:1; fill:#FFFFFF; " description="extracellular_ligand-binding_receptor[br]Location: 2008152 - 2009363" locus_tag="AXYL_01888" id="clusterblast-1_h27_2_35" points="484,85 489,80 492,80 492,90 489,90 484,85 " class="clusterblast-orf"  />
<polygon style="stroke:black; stroke-width:1; fill:#FFFFFF; " description="anti-sigma_factor,_ChrR[br]Location: 2009441 - 2009839" locus_tag="AXYL_01889" id="clusterblast-1_h27_2_36" points="493,85 496,80 496,90 493,85 " class="clusterblast-orf"  />
<polygon style="stroke:black; stroke-width:1; fill:#FFFFFF; " description="gluconate_5-dehydrogenase_2[br]Location: 2010014 - 2010793" locus_tag="AXYL_01890" id="clusterblast-1_h27_2_37" points="497,90 497,90 502,85 497,80 497,80 497,90 " class="clusterblast-orf"  />
<polygon style="stroke:black; stroke-width:1; fill:#FFFFFF; " description="ABC_transporter[br]Location: 2010804 - 2011565" locus_tag="AXYL_01891" id="clusterblast-1_h27_2_38" points="502,90 502,90 507,85 502,80 502,80 502,90 " class="clusterblast-orf"  />
<polygon style="stroke:black; stroke-width:1; fill:#FFFFFF; " description="ABC_transporter[br]Location: 2011567 - 2012259" locus_tag="AXYL_01892" id="clusterblast-1_h27_2_39" points="507,90 507,90 512,85 507,80 507,80 507,90 " class="clusterblast-orf"  />
<polygon style="stroke:black; stroke-width:1; fill:#FFFFFF; " description="inner-membrane_translocator[br]Location: 2012273 - 2014150" locus_tag="AXYL_01893" id="clusterblast-1_h27_2_40" points="512,90 520,90 525,85 520,80 512,80 512,90 " class="clusterblast-orf"  />
<polygon style="stroke:black; stroke-width:1; fill:#FFFFFF; " description="stress_responsive_A/B_barrel_domain-containing[br]Location: 2014150 - 2014452" locus_tag="AXYL_01894" id="clusterblast-1_h27_2_41" points="525,90 527,85 525,80 525,90 " class="clusterblast-orf"  />
<polygon style="stroke:black; stroke-width:1; fill:#FFFFFF; " description="fumarylacetoacetate_hydrolase[br]Location: 2014619 - 2015314" locus_tag="AXYL_01895" id="clusterblast-1_h27_2_42" points="528,90 532,85 528,80 528,90 " class="clusterblast-orf"  />
<polygon style="stroke:black; stroke-width:1; fill:#FFFFFF; " description="entericidin[br]Location: 2015357 - 2015488" locus_tag="AXYL_01896" id="clusterblast-1_h27_2_43" points="533,90 534,85 533,80 533,90 " class="clusterblast-orf"  />
<polygon style="stroke:black; stroke-width:1; fill:#FFFFFF; " description="PhoH-like_family_protein_1[br]Location: 2015556 - 2017256" locus_tag="AXYL_01897" id="clusterblast-1_h27_2_44" points="534,85 539,80 545,80 545,90 539,90 534,85 " class="clusterblast-orf"  />
</g>
</svg>
