<svg xmlns="http://www.w3.org/2000/svg" height="230" width="800" version="1.1" y="0" x="0" preserveAspectRatio="none" xmlns:xlink="http://www.w3.org/1999/xlink" viewBox="0 0 800 230"  >
<g class="clusterblast-cluster" label="Query sequence"  >
<text class="clusterblast-acc" y="10" x="5"  >
Query sequence</text>
<line y1="35" x2="778.0" style="stroke:grey; stroke-width:1; " x1="10" y2="35"  />
<polygon style="stroke:black; stroke-width:1; fill:#FFFFFF; " description="unannotated orf[br]Location: 26332 - 27454" locus_tag="CHAFR746836_0031510.1" class="clusterblast-orf" points="10,35 15,30 23,30 23,40 15,40 10,35 " id="clusterblast-1_q43_2_0"  />
<polygon style="stroke:black; stroke-width:1; fill:#FFFFFF; " description="unannotated orf[br]Location: 28016 - 30730" locus_tag="CHAFR746836_0031520.1" class="clusterblast-orf" points="30,35 35,30 62,30 62,40 35,40 30,35 " id="clusterblast-1_q43_2_1"  />
<polygon style="stroke:black; stroke-width:1; fill:rgb(190,63,63); " description="unannotated orf[br]Location: 32876 - 35300" locus_tag="CHAFR746836_0031530.1" class="clusterblast-orf" points="88,35 93,30 117,30 117,40 93,40 88,35 " id="clusterblast-1_q43_2_2"  />
<polygon style="stroke:black; stroke-width:1; fill:#FFFFFF; " description="unannotated orf[br]Location: 36022 - 38283" locus_tag="CHAFR746836_0031540.1" class="clusterblast-orf" points="126,35 131,30 153,30 153,40 131,40 126,35 " id="clusterblast-1_q43_2_3"  />
<polygon style="stroke:black; stroke-width:1; fill:#FFFFFF; " description="unannotated orf[br]Location: 39348 - 40508" locus_tag="CHAFR746836_0031550.1" class="clusterblast-orf" points="165,35 170,30 179,30 179,40 170,40 165,35 " id="clusterblast-1_q43_2_4"  />
<polygon style="stroke:black; stroke-width:1; fill:rgb(63,63,190); " description="unannotated orf[br]Location: 41047 - 43006" locus_tag="CHAFR746836_0031560.1" class="clusterblast-orf" points="186,40 204,40 209,35 204,30 186,30 186,40 " id="clusterblast-1_q43_2_5"  />
<polygon style="stroke:black; stroke-width:1; fill:rgb(63,190,63); " description="unannotated orf[br]Location: 43610 - 45501" locus_tag="CHAFR746836_0031570.1" class="clusterblast-orf" points="217,35 222,30 239,30 239,40 222,40 217,35 " id="clusterblast-1_q43_2_6"  />
<polygon style="stroke:black; stroke-width:1; fill:#FFFFFF; " description="unannotated orf[br]Location: 45774 - 47650" locus_tag="CHAFR746836_0031580.1" class="clusterblast-orf" points="242,40 260,40 265,35 260,30 242,30 242,40 " id="clusterblast-1_q43_2_7"  />
<polygon style="stroke:black; stroke-width:1; fill:#FFFFFF; " description="unannotated orf[br]Location: 50384 - 51212" locus_tag="CHAFR746836_0031590.1" class="clusterblast-orf" points="298,40 303,40 308,35 303,30 298,30 298,40 " id="clusterblast-1_q43_2_8"  />
<polygon style="stroke:black; stroke-width:1; fill:#FFFFFF; " description="unannotated orf[br]Location: 51638 - 52722" locus_tag="CHAFR746836_0031600.1" class="clusterblast-orf" points="313,35 318,30 326,30 326,40 318,40 313,35 " id="clusterblast-1_q43_2_9"  />
<polygon style="stroke:black; stroke-width:1; fill:rgb(190,63,190); " description="unannotated orf[br]Location: 53244 - 55045" locus_tag="CHAFR746836_0031610.1" class="clusterblast-orf" points="332,40 349,40 354,35 349,30 332,30 332,40 " id="clusterblast-1_q43_2_10"  />
<polygon style="stroke:black; stroke-width:1; fill:#FFFFFF; " description="unannotated orf[br]Location: 55388 - 56607" locus_tag="CHAFR746836_0031620.1" class="clusterblast-orf" points="358,35 363,30 372,30 372,40 363,40 358,35 " id="clusterblast-1_q43_2_11"  />
<polygon style="stroke:black; stroke-width:1; fill:rgb(190,190,63); " description="unannotated orf[br]Location: 57102 - 59186" locus_tag="CHAFR746836_0031630.1" class="clusterblast-orf" points="378,40 398,40 403,35 398,30 378,30 378,40 " id="clusterblast-1_q43_2_12"  />
<polygon style="stroke:black; stroke-width:1; fill:#FFFFFF; " description="unannotated orf[br]Location: 62747 - 63923" locus_tag="CHAFR746836_0031640.1" class="clusterblast-orf" points="446,35 451,30 460,30 460,40 451,40 446,35 " id="clusterblast-1_q43_2_13"  />
<polygon style="stroke:black; stroke-width:1; fill:rgb(190,190,190); " description="unannotated orf[br]Location: 89457 - 90423" locus_tag="CHAFR746836_0031650.1" class="clusterblast-orf" points="766,35 771,30 778,30 778,40 771,40 766,35 " id="clusterblast-1_q43_2_14"  />
</g>
<g class="clusterblast-cluster" description="Rhodococcus jostii RHA1, complete genome." label="NC_008268.1_c12"  >
<text class="clusterblast-acc" y="60" x="5"  >
NC_008268.1_c12</text>
<text class="clusterblast-desc" y="60" x="460.8"  >
Rhodococcus jostii RHA1, complete genome.</text>
<line y1="85" x2="778.0" style="stroke:grey; stroke-width:1; " x1="10" y2="85"  />
<polygon style="stroke:black; stroke-width:1; fill:#FFFFFF; " description="acyl-CoA_dehydrogenase[br]Location: 4474462 - 4476099" locus_tag="RHA1_ro04250" id="clusterblast-1_h43_2_0" points="82,90 96,90 101,85 96,80 82,80 82,90 " class="clusterblast-orf"  />
<polygon style="stroke:black; stroke-width:1; fill:#FFFFFF; " description="enoyl-CoA_hydratase[br]Location: 4473434 - 4474465" locus_tag="RHA1_ro04249" id="clusterblast-1_h43_2_1" points="101,90 108,90 113,85 108,80 101,80 101,90 " class="clusterblast-orf"  />
<polygon style="stroke:black; stroke-width:1; fill:#FFFFFF; " description="hypothetical_protein[br]Location: 4472433 - 4473467" locus_tag="RHA1_ro04248" id="clusterblast-1_h43_2_2" points="113,85 118,80 125,80 125,90 118,90 113,85 " class="clusterblast-orf"  />
<polygon style="stroke:black; stroke-width:1; fill:#FFFFFF; " description="sigma_factor,_includes_region_2[br]Location: 4471171 - 4472391" locus_tag="RHA1_ro04247" id="clusterblast-1_h43_2_3" points="126,85 131,80 141,80 141,90 131,90 126,85 " class="clusterblast-orf"  />
<polygon style="stroke:black; stroke-width:1; fill:#FFFFFF; " description="hypothetical_protein[br]Location: 4470689 - 4471129" locus_tag="RHA1_ro04246" id="clusterblast-1_h43_2_4" points="141,85 146,80 146,80 146,90 146,90 141,85 " class="clusterblast-orf"  />
<polygon style="stroke:black; stroke-width:1; fill:#FFFFFF; " description="transposase[br]Location: 4468844 - 4470508" locus_tag="RHA1_ro04245" id="clusterblast-1_h43_2_5" points="148,90 163,90 168,85 163,80 148,80 148,90 " class="clusterblast-orf"  />
<polygon style="stroke:black; stroke-width:1; fill:rgb(190,190,63); " description="flavin_binding_monooxygenase[br]Location: 4466825 - 4468648&lt;br&gt;&lt;br&gt;&lt;b&gt;BlastP hit with CHAFR746836_0031630.1&lt;/b&gt;&lt;br&gt;Percentage identity: 37%&lt;br&gt;Percentage coverage: 96%&lt;br&gt;BLAST bit score: 359&lt;br&gt;E-value: 1e-113" locus_tag="RHA1_ro04244" id="clusterblast-1_h43_2_6" points="171,90 188,90 193,85 188,80 171,80 171,90 " class="clusterblast-orf"  />
<polygon style="stroke:black; stroke-width:1; fill:#FFFFFF; " description="hypothetical_protein[br]Location: 4466325 - 4466759" locus_tag="RHA1_ro04243" id="clusterblast-1_h43_2_7" points="193,85 198,80 199,80 199,90 198,90 193,85 " class="clusterblast-orf"  />
<polygon style="stroke:black; stroke-width:1; fill:#FFFFFF; " description="hypothetical_protein[br]Location: 4466016 - 4466315" locus_tag="RHA1_ro04242" id="clusterblast-1_h43_2_8" points="199,85 202,80 202,90 199,85 " class="clusterblast-orf"  />
<polygon style="stroke:black; stroke-width:1; fill:#FFFFFF; " description="ABC_Fe(3+)-siderophore_binding_lipoprotein[br]Location: 4464547 - 4465563" locus_tag="RHA1_ro04241" id="clusterblast-1_h43_2_9" points="208,90 215,90 220,85 215,80 208,80 208,90 " class="clusterblast-orf"  />
<polygon style="stroke:black; stroke-width:1; fill:#FFFFFF; " description="glutamate--cysteine_ligase,_GCS2_family/[br]Location: 4462157 - 4464538" locus_tag="RHA1_ro04240" id="clusterblast-1_h43_2_10" points="220,85 225,80 249,80 249,90 225,90 220,85 " class="clusterblast-orf"  />
<polygon style="stroke:black; stroke-width:1; fill:#FFFFFF; " description="hypothetical_protein[br]Location: 4461945 - 4462136" locus_tag="RHA1_ro04239" id="clusterblast-1_h43_2_11" points="249,85 251,80 251,90 249,85 " class="clusterblast-orf"  />
<polygon style="stroke:black; stroke-width:1; fill:#FFFFFF; " description="monooxygenase[br]Location: 4460821 - 4461831" locus_tag="RHA1_ro04238" id="clusterblast-1_h43_2_12" points="252,90 260,90 265,85 260,80 252,80 252,90 " class="clusterblast-orf"  />
<polygon style="stroke:black; stroke-width:1; fill:#FFFFFF; " description="gamma-glutamyltransferase[br]Location: 4458831 - 4460801" locus_tag="RHA1_ro04237" id="clusterblast-1_h43_2_13" points="265,85 270,80 288,80 288,90 270,90 265,85 " class="clusterblast-orf"  />
<polygon style="stroke:black; stroke-width:1; fill:#FFFFFF; " description="hypothetical_protein[br]Location: 4457228 - 4458793" locus_tag="RHA1_ro04236" id="clusterblast-1_h43_2_14" points="289,85 294,80 308,80 308,90 294,90 289,85 " class="clusterblast-orf"  />
<polygon style="stroke:black; stroke-width:1; fill:#FFFFFF; " description="hypothetical_protein[br]Location: 4456666 - 4457103" locus_tag="RHA1_ro04235" id="clusterblast-1_h43_2_15" points="309,85 314,80 314,80 314,90 314,90 309,85 " class="clusterblast-orf"  />
<polygon style="stroke:black; stroke-width:1; fill:#FFFFFF; " description="transcriptional_regulator[br]Location: 4455894 - 4456580" locus_tag="RHA1_ro04234" id="clusterblast-1_h43_2_16" points="315,90 319,90 324,85 319,80 315,80 315,90 " class="clusterblast-orf"  />
<polygon style="stroke:black; stroke-width:1; fill:#FFFFFF; " description="site-specific_DNA-methyltransferase[br]Location: 4455077 - 4455865" locus_tag="RHA1_ro04233" id="clusterblast-1_h43_2_17" points="324,85 329,80 333,80 333,90 329,90 324,85 " class="clusterblast-orf"  />
<polygon style="stroke:black; stroke-width:1; fill:#FFFFFF; " description="hypothetical_protein[br]Location: 4454758 - 4455033" locus_tag="RHA1_ro04232" id="clusterblast-1_h43_2_18" points="334,85 337,80 337,90 334,85 " class="clusterblast-orf"  />
<polygon style="stroke:black; stroke-width:1; fill:#FFFFFF; " description="type_I_polyketide_synthase[br]Location: 4444144 - 4454727" locus_tag="RHA1_ro04231" id="clusterblast-1_h43_2_19" points="338,90 459,90 464,85 459,80 338,80 338,90 " class="clusterblast-orf"  />
<polygon style="stroke:black; stroke-width:1; fill:#FFFFFF; " description="hypothetical_protein[br]Location: 4443639 - 4444049" locus_tag="RHA1_ro04230" id="clusterblast-1_h43_2_20" points="466,90 470,85 466,80 466,90 " class="clusterblast-orf"  />
<polygon style="stroke:black; stroke-width:1; fill:#FFFFFF; " description="transposase[br]Location: 4442257 - 4443348" locus_tag="RHA1_ro04229" id="clusterblast-1_h43_2_21" points="474,85 479,80 487,80 487,90 479,90 474,85 " class="clusterblast-orf"  />
<polygon style="stroke:black; stroke-width:1; fill:#FFFFFF; " description="pirin-like_protein[br]Location: 4440820 - 4441785" locus_tag="RHA1_ro04228" id="clusterblast-1_h43_2_22" points="493,90 499,90 504,85 499,80 493,80 493,90 " class="clusterblast-orf"  />
<polygon style="stroke:black; stroke-width:1; fill:#FFFFFF; " description="hypothetical_protein[br]Location: 4440383 - 4440733" locus_tag="RHA1_ro04227" id="clusterblast-1_h43_2_23" points="505,85 509,80 509,90 505,85 " class="clusterblast-orf"  />
<polygon style="stroke:black; stroke-width:1; fill:#FFFFFF; " description="hypothetical_protein[br]Location: 4439350 - 4440381" locus_tag="RHA1_ro04226" id="clusterblast-1_h43_2_24" points="510,85 515,80 522,80 522,90 515,90 510,85 " class="clusterblast-orf"  />
<polygon style="stroke:black; stroke-width:1; fill:rgb(63,63,190); " description="2-isopropylmalate_synthase[br]Location: 4437338 - 4439146&lt;br&gt;&lt;br&gt;&lt;b&gt;BlastP hit with CHAFR746836_0031560.1&lt;/b&gt;&lt;br&gt;Percentage identity: 44%&lt;br&gt;Percentage coverage: 86%&lt;br&gt;BLAST bit score: 446&lt;br&gt;E-value: 1e-147" locus_tag="RHA1_ro04225" id="clusterblast-1_h43_2_25" points="524,90 541,90 546,85 541,80 524,80 524,90 " class="clusterblast-orf"  />
<polygon style="stroke:black; stroke-width:1; fill:#FFFFFF; " description="cytochrome-c_oxidase_subunit_I[br]Location: 4435440 - 4437179" locus_tag="RHA1_ro04224" id="clusterblast-1_h43_2_26" points="548,90 564,90 569,85 564,80 548,80 548,90 " class="clusterblast-orf"  />
<polygon style="stroke:black; stroke-width:1; fill:#FFFFFF; " description="hypothetical_protein[br]Location: 4435073 - 4435318" locus_tag="RHA1_ro04223" id="clusterblast-1_h43_2_27" points="570,85 573,80 573,90 570,85 " class="clusterblast-orf"  />
<polygon style="stroke:black; stroke-width:1; fill:#FFFFFF; " description="acetyl/propionyl-CoA_carboxylase_alpha_subunit[br]Location: 4429537 - 4435023" locus_tag="RHA1_ro04222" id="clusterblast-1_h43_2_28" points="574,90 634,90 639,85 634,80 574,80 574,90 " class="clusterblast-orf"  />
<polygon style="stroke:black; stroke-width:1; fill:#FFFFFF; " description="hypothetical_protein[br]Location: 4428985 - 4429365" locus_tag="RHA1_ro04221" id="clusterblast-1_h43_2_29" points="642,90 646,85 642,80 642,90 " class="clusterblast-orf"  />
<polygon style="stroke:black; stroke-width:1; fill:#FFFFFF; " description="LysR_family_transcriptional_regulator[br]Location: 4428032 - 4428925" locus_tag="RHA1_ro04220" id="clusterblast-1_h43_2_30" points="647,85 652,80 657,80 657,90 652,90 647,85 " class="clusterblast-orf"  />
<polygon style="stroke:black; stroke-width:1; fill:#FFFFFF; " description="amino_acid_ABC_transporter[br]Location: 4427042 - 4427959" locus_tag="RHA1_ro04219" id="clusterblast-1_h43_2_31" points="658,90 664,90 669,85 664,80 658,80 658,90 " class="clusterblast-orf"  />
<polygon style="stroke:black; stroke-width:1; fill:#FFFFFF; " description="UDP-N-acetylmuramoylalanine--D-glutamate_ligase[br]Location: 4425763 - 4427016" locus_tag="RHA1_ro04218" id="clusterblast-1_h43_2_32" points="670,90 680,90 685,85 680,80 670,80 670,90 " class="clusterblast-orf"  />
<polygon style="stroke:black; stroke-width:1; fill:#FFFFFF; " description="cobyric_acid_synthase[br]Location: 4425060 - 4425770" locus_tag="RHA1_ro04217" id="clusterblast-1_h43_2_33" points="685,90 688,90 693,85 688,80 685,80 685,90 " class="clusterblast-orf"  />
<polygon style="stroke:black; stroke-width:1; fill:#FFFFFF; " description="hypothetical_protein[br]Location: 4424759 - 4425037" locus_tag="RHA1_ro04216" id="clusterblast-1_h43_2_34" points="693,85 697,80 697,90 693,85 " class="clusterblast-orf"  />
<polygon style="stroke:black; stroke-width:1; fill:#FFFFFF; " description="hypothetical_protein[br]Location: 4424092 - 4424538" locus_tag="RHA1_ro04215" id="clusterblast-1_h43_2_35" points="699,90 700,90 705,85 700,80 699,80 699,90 " class="clusterblast-orf"  />
</g>
</svg>
