<svg xmlns="http://www.w3.org/2000/svg" height="230" width="800" version="1.1" y="0" x="0" preserveAspectRatio="none" xmlns:xlink="http://www.w3.org/1999/xlink" viewBox="0 0 800 230"  >
<g class="clusterblast-cluster" label="Query sequence"  >
<text class="clusterblast-acc" y="10" x="5"  >
Query sequence</text>
<line y1="35" x2="778.0" style="stroke:grey; stroke-width:1; " x1="10" y2="35"  />
<polygon style="stroke:black; stroke-width:1; fill:#FFFFFF; " description="unannotated orf[br]Location: 690 - 1709" locus_tag="CHAFR746836_0063040.1" class="clusterblast-orf" points="10,35 15,30 29,30 29,40 15,40 10,35 " id="clusterblast-1_q6_10_0"  />
<polygon style="stroke:black; stroke-width:1; fill:red; " description="unannotated orf[br]Location: 3270 - 4522" locus_tag="CHAFR746836_0063050.1" class="clusterblast-orf" points="60,35 65,30 84,30 84,40 65,40 60,35 " id="clusterblast-1_q6_10_1"  />
<polygon style="stroke:black; stroke-width:1; fill:green; " description="unannotated orf[br]Location: 3270 - 4522" locus_tag="CHAFR746836_0063050.2" class="clusterblast-orf" points="60,35 65,30 84,30 84,40 65,40 60,35 " id="clusterblast-1_q6_10_2"  />
<polygon style="stroke:black; stroke-width:1; fill:#FFFFFF; " description="unannotated orf[br]Location: 14176 - 16017" locus_tag="CHAFR746836_0063060.1" class="clusterblast-orf" points="271,40 302,40 307,35 302,30 271,30 271,40 " id="clusterblast-1_q6_10_3"  />
<polygon style="stroke:black; stroke-width:1; fill:#FFFFFF; " description="unannotated orf[br]Location: 20821 - 21679" locus_tag="CHAFR746836_0063070.1" class="clusterblast-orf" points="401,35 406,30 417,30 417,40 406,40 401,35 " id="clusterblast-1_q6_10_4"  />
<polygon style="stroke:black; stroke-width:1; fill:blue; " description="unannotated orf[br]Location: 23739 - 34194" locus_tag="CHAFR746836_0063080.1" class="clusterblast-orf" points="457,35 462,30 660,30 660,40 462,40 457,35 " id="clusterblast-1_q6_10_5"  />
<polygon style="stroke:black; stroke-width:1; fill:yellow; " description="unannotated orf[br]Location: 38501 - 40231" locus_tag="CHAFR746836_0063090.1" class="clusterblast-orf" points="744,40 773,40 778,35 773,30 744,30 744,40 " id="clusterblast-1_q6_10_6"  />
</g>
<g class="clusterblast-cluster" description="Fusarium oxysporum Fo5176 contig05715, whole genome sho..." label="AFQF01005327.1_c1"  >
<text class="clusterblast-acc" y="60" x="5"  >
AFQF01005327.1_c1</text>
<text class="clusterblast-desc" y="60" x="460.8"  >
Fusarium oxysporum Fo5176 contig05715, whole genome sho...</text>
<line y1="85" x2="778.0" style="stroke:grey; stroke-width:1; " x1="10" y2="85"  />
<polygon style="stroke:black; stroke-width:1; fill:blue; " description="hypothetical_protein[br]Location: 66 - 10265&lt;br&gt;&lt;br&gt;&lt;b&gt;BlastP hit with CHAFR746836_0063080.1&lt;/b&gt;&lt;br&gt;Percentage identity: 58%&lt;br&gt;Percentage coverage: 96%&lt;br&gt;BLAST bit score: 4009&lt;br&gt;E-value: 0.0" locus_tag="FOXB_16587" id="clusterblast-1_h6_10_0" points="226,85 231,80 424,80 424,90 231,90 226,85 " class="clusterblast-orf"  />
<polygon style="stroke:black; stroke-width:1; fill:#FFFFFF; " description="hypothetical_protein[br]Location: 11311 - 13150" locus_tag="FOXB_16588" id="clusterblast-1_h6_10_1" points="444,90 475,90 480,85 475,80 444,80 444,90 " class="clusterblast-orf"  />
<polygon style="stroke:black; stroke-width:1; fill:#FFFFFF; " description="hypothetical_protein[br]Location: 13700 - 14812" locus_tag="FOXB_16589" id="clusterblast-1_h6_10_2" points="490,85 495,80 512,80 512,90 495,90 490,85 " class="clusterblast-orf"  />
<polygon style="stroke:black; stroke-width:1; fill:yellow; " description="hypothetical_protein[br]Location: 15596 - 17327&lt;br&gt;&lt;br&gt;&lt;b&gt;BlastP hit with CHAFR746836_0063090.1&lt;/b&gt;&lt;br&gt;Percentage identity: 63%&lt;br&gt;Percentage coverage: 100%&lt;br&gt;BLAST bit score: 723&lt;br&gt;E-value: 0.0" locus_tag="FOXB_16590" id="clusterblast-1_h6_10_3" points="527,90 556,90 561,85 556,80 527,80 527,90 " class="clusterblast-orf"  />
</g>
</svg>
