<svg xmlns="http://www.w3.org/2000/svg" height="230" width="800" version="1.1" y="0" x="0" preserveAspectRatio="none" xmlns:xlink="http://www.w3.org/1999/xlink" viewBox="0 0 800 230"  >
<g class="clusterblast-cluster" label="Query sequence"  >
<text class="clusterblast-acc" y="10" x="5"  >
Query sequence</text>
<line y1="35" x2="778.0" style="stroke:grey; stroke-width:1; " x1="10" y2="35"  />
<polygon style="stroke:black; stroke-width:1; fill:#FFFFFF; " description="unannotated orf[br]Location: 1495 - 3001" locus_tag="CHAFR746836_0081150.1" class="clusterblast-orf" points="10,40 15,40 20,35 15,30 10,30 10,40 " id="clusterblast-1_q13_5_0"  />
<polygon style="stroke:black; stroke-width:1; fill:#FFFFFF; " description="unannotated orf[br]Location: 21967 - 22906" locus_tag="CHAFR746836_0081160.1" class="clusterblast-orf" points="158,40 159,40 164,35 159,30 158,30 158,40 " id="clusterblast-1_q13_5_1"  />
<polygon style="stroke:black; stroke-width:1; fill:rgb(190,63,63); " description="unannotated orf[br]Location: 24204 - 25838" locus_tag="CHAFR746836_0081170.1" class="clusterblast-orf" points="174,40 181,40 186,35 181,30 174,30 174,40 " id="clusterblast-1_q13_5_2"  />
<polygon style="stroke:black; stroke-width:1; fill:rgb(63,63,190); " description="unannotated orf[br]Location: 26476 - 34147" locus_tag="CHAFR746836_0081180.1" class="clusterblast-orf" points="190,35 195,30 246,30 246,40 195,40 190,35 " id="clusterblast-1_q13_5_3"  />
<polygon style="stroke:black; stroke-width:1; fill:rgb(63,190,63); " description="unannotated orf[br]Location: 36803 - 37711" locus_tag="CHAFR746836_0081190.1" class="clusterblast-orf" points="265,40 267,40 272,35 267,30 265,30 265,40 " id="clusterblast-1_q13_5_4"  />
<polygon style="stroke:black; stroke-width:1; fill:#FFFFFF; " description="unannotated orf[br]Location: 39559 - 39909" locus_tag="CHAFR746836_0081200.1" class="clusterblast-orf" points="285,35 288,30 288,40 285,35 " id="clusterblast-1_q13_5_5"  />
<polygon style="stroke:black; stroke-width:1; fill:rgb(190,63,190); " description="unannotated orf[br]Location: 40364 - 42098" locus_tag="CHAFR746836_0081210.1" class="clusterblast-orf" points="291,40 298,40 303,35 298,30 291,30 291,40 " id="clusterblast-1_q13_5_6"  />
<polygon style="stroke:black; stroke-width:1; fill:#FFFFFF; " description="unannotated orf[br]Location: 65220 - 66075" locus_tag="CHAFR746836_0081220.1" class="clusterblast-orf" points="471,35 476,30 477,30 477,40 476,40 471,35 " id="clusterblast-1_q13_5_7"  />
<polygon style="stroke:black; stroke-width:1; fill:rgb(190,190,63); " description="unannotated orf[br]Location: 67588 - 77792" locus_tag="CHAFR746836_0081230.1" class="clusterblast-orf" points="488,40 557,40 562,35 557,30 488,30 488,40 " id="clusterblast-1_q13_5_8"  />
<polygon style="stroke:black; stroke-width:1; fill:#FFFFFF; " description="unannotated orf[br]Location: 80581 - 81578" locus_tag="CHAFR746836_0081240.1" class="clusterblast-orf" points="582,40 584,40 589,35 584,30 582,30 582,40 " id="clusterblast-1_q13_5_9"  />
<polygon style="stroke:black; stroke-width:1; fill:#FFFFFF; " description="unannotated orf[br]Location: 105554 - 107591" locus_tag="CHAFR746836_0081250.1" class="clusterblast-orf" points="763,35 768,30 778,30 778,40 768,40 763,35 " id="clusterblast-1_q13_5_10"  />
</g>
<g class="clusterblast-cluster" description="Trichoderma virens Gv29-8 TRIVIscaffold 58, whole genome..." label="ABDF02000058.1_c1"  >
<text class="clusterblast-acc" y="60" x="5"  >
ABDF02000058.1_c1</text>
<text class="clusterblast-desc" y="60" x="460.8"  >
Trichoderma virens Gv29-8 TRIVIscaffold 58, whole genome...</text>
<line y1="85" x2="778.0" style="stroke:grey; stroke-width:1; " x1="10" y2="85"  />
<polygon style="stroke:black; stroke-width:1; fill:#FFFFFF; " description="hypothetical_protein[br]Location: 33175 - 34928" locus_tag="TRIVIDRAFT_191861" id="clusterblast-1_h13_5_0" points="276,85 281,80 288,80 288,90 281,90 276,85 " class="clusterblast-orf"  />
<polygon style="stroke:black; stroke-width:1; fill:#FFFFFF; " description="hypothetical_protein[br]Location: 30801 - 32565" locus_tag="TRIVIDRAFT_151632" id="clusterblast-1_h13_5_1" points="293,85 298,80 305,80 305,90 298,90 293,85 " class="clusterblast-orf"  />
<polygon style="stroke:black; stroke-width:1; fill:#FFFFFF; " description="hypothetical_protein[br]Location: 27295 - 29323" locus_tag="TRIVIDRAFT_123194" id="clusterblast-1_h13_5_2" points="316,90 326,90 331,85 326,80 316,80 316,90 " class="clusterblast-orf"  />
<polygon style="stroke:black; stroke-width:1; fill:#FFFFFF; " description="hypothetical_protein[br]Location: 24668 - 26806" locus_tag="TRIVIDRAFT_53332" id="clusterblast-1_h13_5_3" points="334,85 339,80 350,80 350,90 339,90 334,85 " class="clusterblast-orf"  />
<polygon style="stroke:black; stroke-width:1; fill:#FFFFFF; " description="hypothetical_protein[br]Location: 22276 - 23884" locus_tag="TRIVIDRAFT_151596" id="clusterblast-1_h13_5_4" points="355,90 362,90 367,85 362,80 355,80 355,90 " class="clusterblast-orf"  />
<polygon style="stroke:black; stroke-width:1; fill:#FFFFFF; " description="glycoside_hydrolase_family_78_protein[br]Location: 19370 - 22165" locus_tag="TRIVIDRAFT_53342" id="clusterblast-1_h13_5_5" points="368,85 373,80 388,80 388,90 373,90 368,85 " class="clusterblast-orf"  />
<polygon style="stroke:black; stroke-width:1; fill:#FFFFFF; " description="hypothetical_protein[br]Location: 17014 - 18288" locus_tag="TRIVIDRAFT_53363" id="clusterblast-1_h13_5_6" points="396,90 400,90 405,85 400,80 396,80 396,90 " class="clusterblast-orf"  />
<polygon style="stroke:black; stroke-width:1; fill:#FFFFFF; " description="hypothetical_protein[br]Location: 16013 - 16788" locus_tag="TRIVIDRAFT_70875" id="clusterblast-1_h13_5_7" points="407,85 412,80 412,80 412,90 412,90 407,85 " class="clusterblast-orf"  />
<polygon style="stroke:black; stroke-width:1; fill:rgb(63,63,190); " description="putative_polyketide_synthase[br]Location: 6998 - 14348&lt;br&gt;&lt;br&gt;&lt;b&gt;BlastP hit with CHAFR746836_0081180.1&lt;/b&gt;&lt;br&gt;Percentage identity: 31%&lt;br&gt;Percentage coverage: 56%&lt;br&gt;BLAST bit score: 581&lt;br&gt;E-value: 5e-168" locus_tag="TRIVIDRAFT_151590" id="clusterblast-1_h13_5_8" points="424,85 429,80 478,80 478,90 429,90 424,85 " class="clusterblast-orf"  />
<polygon style="stroke:black; stroke-width:1; fill:rgb(63,190,63); " description="hypothetical_protein[br]Location: 2492 - 3577&lt;br&gt;&lt;br&gt;&lt;b&gt;BlastP hit with CHAFR746836_0081190.1&lt;/b&gt;&lt;br&gt;Percentage identity: 34%&lt;br&gt;Percentage coverage: 101%&lt;br&gt;BLAST bit score: 160&lt;br&gt;E-value: 8e-46" locus_tag="TRIVIDRAFT_53350" id="clusterblast-1_h13_5_9" points="502,90 505,90 510,85 505,80 502,80 502,90 " class="clusterblast-orf"  />
</g>
</svg>
