<svg xmlns="http://www.w3.org/2000/svg" height="230" width="800" version="1.1" y="0" x="0" preserveAspectRatio="none" xmlns:xlink="http://www.w3.org/1999/xlink" viewBox="0 0 800 230"  >
<g class="clusterblast-cluster" label="Query sequence"  >
<text class="clusterblast-acc" y="10" x="5"  >
Query sequence</text>
<line y1="35" x2="778.0" style="stroke:grey; stroke-width:1; " x1="10" y2="35"  />
<polygon style="stroke:black; stroke-width:1; fill:#FFFFFF; " description="unannotated orf[br]Location: 690 - 1709" locus_tag="CHAFR746836_0063040.1" class="clusterblast-orf" points="291,35 296,30 296,30 296,40 296,40 291,35 " id="clusterblast-1_q6_2_0"  />
<polygon style="stroke:black; stroke-width:1; fill:red; " description="unannotated orf[br]Location: 3270 - 4522" locus_tag="CHAFR746836_0063050.1" class="clusterblast-orf" points="304,35 309,30 310,30 310,40 309,40 304,35 " id="clusterblast-1_q6_2_1"  />
<polygon style="stroke:black; stroke-width:1; fill:green; " description="unannotated orf[br]Location: 3270 - 4522" locus_tag="CHAFR746836_0063050.2" class="clusterblast-orf" points="304,35 309,30 310,30 310,40 309,40 304,35 " id="clusterblast-1_q6_2_2"  />
<polygon style="stroke:black; stroke-width:1; fill:#FFFFFF; " description="unannotated orf[br]Location: 14176 - 16017" locus_tag="CHAFR746836_0063060.1" class="clusterblast-orf" points="361,40 365,40 370,35 365,30 361,30 361,40 " id="clusterblast-1_q6_2_3"  />
<polygon style="stroke:black; stroke-width:1; fill:#FFFFFF; " description="unannotated orf[br]Location: 20821 - 21679" locus_tag="CHAFR746836_0063070.1" class="clusterblast-orf" points="395,35 399,30 399,40 395,35 " id="clusterblast-1_q6_2_4"  />
<polygon style="stroke:black; stroke-width:1; fill:blue; " description="unannotated orf[br]Location: 23739 - 34194" locus_tag="CHAFR746836_0063080.1" class="clusterblast-orf" points="410,35 415,30 464,30 464,40 415,40 410,35 " id="clusterblast-1_q6_2_5"  />
<polygon style="stroke:black; stroke-width:1; fill:yellow; " description="unannotated orf[br]Location: 38501 - 40231" locus_tag="CHAFR746836_0063090.1" class="clusterblast-orf" points="487,40 491,40 496,35 491,30 487,30 487,40 " id="clusterblast-1_q6_2_6"  />
</g>
<g class="clusterblast-cluster" description="Aspergillus fumigatus A1163 scf 000007 genomic scaffold, who..." label="DS499600.1_c3"  >
<text class="clusterblast-acc" y="60" x="5"  >
DS499600.1_c3</text>
<text class="clusterblast-desc" y="60" x="460.8"  >
Aspergillus fumigatus A1163 scf 000007 genomic scaffold, who...</text>
<line y1="85" x2="778.0" style="stroke:grey; stroke-width:1; " x1="10" y2="85"  />
<polygon style="stroke:black; stroke-width:1; fill:#FFFFFF; " description="amino_acid_transporter,_putative[br]Location: 1779515 - 1781250" locus_tag="AFUB_085850" id="clusterblast-1_h6_2_0" points="10,90 14,90 19,85 14,80 10,80 10,90 " class="clusterblast-orf"  />
<polygon style="stroke:black; stroke-width:1; fill:#FFFFFF; " description="secreted_antimicrobial_peptide,_putative[br]Location: 1781493 - 1781798" locus_tag="AFUB_085860" id="clusterblast-1_h6_2_1" points="20,85 21,80 21,90 20,85 " class="clusterblast-orf"  />
<polygon style="stroke:black; stroke-width:1; fill:#FFFFFF; " description="class_III_chitinase_ChiA2[br]Location: 1782781 - 1783785" locus_tag="AFUB_085870" id="clusterblast-1_h6_2_2" points="26,85 31,80 32,80 32,90 31,90 26,85 " class="clusterblast-orf"  />
<polygon style="stroke:black; stroke-width:1; fill:#FFFFFF; " description="hypothetical_protein[br]Location: 1783798 - 1784077" locus_tag="AFUB_085880" id="clusterblast-1_h6_2_3" points="32,90 33,85 32,80 32,90 " class="clusterblast-orf"  />
<polygon style="stroke:black; stroke-width:1; fill:#FFFFFF; " description="glycosyl_transferase,_putative[br]Location: 1785494 - 1787476" locus_tag="AFUB_085890" id="clusterblast-1_h6_2_4" points="41,90 46,90 51,85 46,80 41,80 41,90 " class="clusterblast-orf"  />
<polygon style="stroke:black; stroke-width:1; fill:#FFFFFF; " description="integral_membrane_protein[br]Location: 1787747 - 1788959" locus_tag="AFUB_085900" id="clusterblast-1_h6_2_5" points="52,85 57,80 59,80 59,90 57,90 52,85 " class="clusterblast-orf"  />
<polygon style="stroke:black; stroke-width:1; fill:#FFFFFF; " description="solute_transporter,_putative[br]Location: 1789593 - 1791012" locus_tag="AFUB_085910" id="clusterblast-1_h6_2_6" points="62,90 64,90 69,85 64,80 62,80 62,90 " class="clusterblast-orf"  />
<polygon style="stroke:black; stroke-width:1; fill:#FFFFFF; " description="LPS_glycosyltransferase,_putative[br]Location: 1791454 - 1792797" locus_tag="AFUB_085920" id="clusterblast-1_h6_2_7" points="71,85 76,80 78,80 78,90 76,90 71,85 " class="clusterblast-orf"  />
<polygon style="stroke:black; stroke-width:1; fill:#FFFFFF; " description="glycosyl_transferase,_putative[br]Location: 1794356 - 1795474" locus_tag="AFUB_085930" id="clusterblast-1_h6_2_8" points="87,85 92,80 92,80 92,90 92,90 87,85 " class="clusterblast-orf"  />
<polygon style="stroke:black; stroke-width:1; fill:#FFFFFF; " description="conserved_hypothetical_protein[br]Location: 1797415 - 1798458" locus_tag="AFUB_085940" id="clusterblast-1_h6_2_9" points="102,90 103,90 108,85 103,80 102,80 102,90 " class="clusterblast-orf"  />
<polygon style="stroke:black; stroke-width:1; fill:#FFFFFF; " description="dimethylallyl_tryptophan_synthase,_putative[br]Location: 1799466 - 1800854" locus_tag="AFUB_085950" id="clusterblast-1_h6_2_10" points="113,85 118,80 120,80 120,90 118,90 113,85 " class="clusterblast-orf"  />
<polygon style="stroke:black; stroke-width:1; fill:#FFFFFF; " description="cell_surface_protein_Mas1,_putative[br]Location: 1804392 - 1805542" locus_tag="AFUB_085960" id="clusterblast-1_h6_2_11" points="139,90 140,90 145,85 140,80 139,80 139,90 " class="clusterblast-orf"  />
<polygon style="stroke:black; stroke-width:1; fill:#FFFFFF; " description="NAD_dependent_epimerase/dehydratase_family[br]Location: 1805770 - 1807074" locus_tag="AFUB_085970" id="clusterblast-1_h6_2_12" points="146,85 151,80 153,80 153,90 151,90 146,85 " class="clusterblast-orf"  />
<polygon style="stroke:black; stroke-width:1; fill:#FFFFFF; " description="Ham1_family_pyrophosphatase,_putative[br]Location: 1807615 - 1808154" locus_tag="AFUB_085979" id="clusterblast-1_h6_2_13" points="155,85 158,80 158,90 155,85 " class="clusterblast-orf"  />
<polygon style="stroke:black; stroke-width:1; fill:#FFFFFF; " description="fatty_acid_desaturase,_putative[br]Location: 1809343 - 1811025" locus_tag="AFUB_085980" id="clusterblast-1_h6_2_14" points="164,85 169,80 173,80 173,90 169,90 164,85 " class="clusterblast-orf"  />
<polygon style="stroke:black; stroke-width:1; fill:#FFFFFF; " description="translation_elongation_factor_eEF-1,_gamma[br]Location: 1813051 - 1813873" locus_tag="AFUB_085990" id="clusterblast-1_h6_2_15" points="184,90 188,85 184,80 184,90 " class="clusterblast-orf"  />
<polygon style="stroke:black; stroke-width:1; fill:#FFFFFF; " description="alpha/beta_hydrolase,_putative[br]Location: 1814698 - 1815911" locus_tag="AFUB_086000" id="clusterblast-1_h6_2_16" points="192,90 193,90 198,85 193,80 192,80 192,90 " class="clusterblast-orf"  />
<polygon style="stroke:black; stroke-width:1; fill:#FFFFFF; " description="cytochrome_P450_oxidoreductase,_putative[br]Location: 1816000 - 1817870" locus_tag="AFUB_086010" id="clusterblast-1_h6_2_17" points="199,85 204,80 209,80 209,90 204,90 199,85 " class="clusterblast-orf"  />
<polygon style="stroke:black; stroke-width:1; fill:#FFFFFF; " description="methyltransferase_SirN-like,_putative[br]Location: 1818287 - 1819156" locus_tag="AFUB_086020" id="clusterblast-1_h6_2_18" points="211,90 215,85 211,80 211,90 " class="clusterblast-orf"  />
<polygon style="stroke:black; stroke-width:1; fill:#FFFFFF; " description="hybrid_NRPS/PKS_enzyme,_putative[br]Location: 1819391 - 1831696" locus_tag="AFUB_086030" id="clusterblast-1_h6_2_19" points="217,85 222,80 280,80 280,90 222,90 217,85 " class="clusterblast-orf"  />
<polygon style="stroke:black; stroke-width:1; fill:#FFFFFF; " description="alpha/beta_hydrolase,_putative[br]Location: 1832157 - 1833494" locus_tag="AFUB_086040" id="clusterblast-1_h6_2_20" points="283,90 285,90 290,85 285,80 283,80 283,90 " class="clusterblast-orf"  />
<polygon style="stroke:black; stroke-width:1; fill:#FFFFFF; " description="integral_membrane_protein[br]Location: 1834274 - 1834968" locus_tag="AFUB_086050" id="clusterblast-1_h6_2_21" points="294,85 297,80 297,90 294,85 " class="clusterblast-orf"  />
<polygon style="stroke:black; stroke-width:1; fill:#FFFFFF; " description="cytochrome_P450_oxidoreductase_OrdA-like,[br]Location: 1836116 - 1837780" locus_tag="AFUB_086060" id="clusterblast-1_h6_2_22" points="303,90 307,90 312,85 307,80 303,80 303,90 " class="clusterblast-orf"  />
<polygon style="stroke:black; stroke-width:1; fill:#FFFFFF; " description="acetate-CoA_ligase,_putative[br]Location: 1838189 - 1840415" locus_tag="AFUB_086070" id="clusterblast-1_h6_2_23" points="314,90 321,90 326,85 321,80 314,80 314,90 " class="clusterblast-orf"  />
<polygon style="stroke:black; stroke-width:1; fill:#FFFFFF; " description="PKS-like_enzyme,_putative[br]Location: 1840463 - 1843617" locus_tag="AFUB_086080" id="clusterblast-1_h6_2_24" points="326,85 331,80 342,80 342,90 331,90 326,85 " class="clusterblast-orf"  />
<polygon style="stroke:black; stroke-width:1; fill:#FFFFFF; " description="phytanoyl-CoA_dioxygenase_family_protein[br]Location: 1843671 - 1844947" locus_tag="AFUB_086090" id="clusterblast-1_h6_2_25" points="343,85 348,80 349,80 349,90 348,90 343,85 " class="clusterblast-orf"  />
<polygon style="stroke:black; stroke-width:1; fill:#FFFFFF; " description="conserved_hypothetical_protein[br]Location: 1845344 - 1846238" locus_tag="AFUB_086100" id="clusterblast-1_h6_2_26" points="351,90 351,90 356,85 351,80 351,80 351,90 " class="clusterblast-orf"  />
<polygon style="stroke:black; stroke-width:1; fill:#FFFFFF; " description="methionine_aminopeptidase,_type_I,_putative[br]Location: 1846371 - 1847795" locus_tag="AFUB_086110" id="clusterblast-1_h6_2_27" points="357,85 362,80 364,80 364,90 362,90 357,85 " class="clusterblast-orf"  />
<polygon style="stroke:black; stroke-width:1; fill:#FFFFFF; " description="hypothetical_protein[br]Location: 1848309 - 1849108" locus_tag="AFUB_086120" id="clusterblast-1_h6_2_28" points="367,85 371,80 371,90 367,85 " class="clusterblast-orf"  />
<polygon style="stroke:black; stroke-width:1; fill:#FFFFFF; " description="steroid_monooxygenase,_putative[br]Location: 1849743 - 1852460" locus_tag="AFUB_086130" id="clusterblast-1_h6_2_29" points="374,90 383,90 388,85 383,80 374,80 374,90 " class="clusterblast-orf"  />
<polygon style="stroke:black; stroke-width:1; fill:#FFFFFF; " description="conserved_hypothetical_protein[br]Location: 1852905 - 1853435" locus_tag="AFUB_086140" id="clusterblast-1_h6_2_30" points="391,90 393,85 391,80 391,90 " class="clusterblast-orf"  />
<polygon style="stroke:black; stroke-width:1; fill:#FFFFFF; " description="C6_finger_transcription_factor,_putative[br]Location: 1853611 - 1855599" locus_tag="AFUB_086150" id="clusterblast-1_h6_2_31" points="394,85 399,80 405,80 405,90 399,90 394,85 " class="clusterblast-orf"  />
<polygon style="stroke:black; stroke-width:1; fill:#FFFFFF; " description="methionine_aminopeptidase,_type_II,_putative[br]Location: 1856478 - 1858414" locus_tag="AFUB_086160" id="clusterblast-1_h6_2_32" points="409,90 414,90 419,85 414,80 409,80 409,90 " class="clusterblast-orf"  />
<polygon style="stroke:black; stroke-width:1; fill:#FFFFFF; " description="conserved_hypothetical_protein[br]Location: 1858843 - 1859330" locus_tag="AFUB_086170" id="clusterblast-1_h6_2_33" points="421,90 424,85 421,80 421,90 " class="clusterblast-orf"  />
<polygon style="stroke:black; stroke-width:1; fill:#FFFFFF; " description="O-methyltransferase,_putative[br]Location: 1859417 - 1860221" locus_tag="AFUB_086180" id="clusterblast-1_h6_2_34" points="424,90 424,90 429,85 424,80 424,80 424,90 " class="clusterblast-orf"  />
<polygon style="stroke:black; stroke-width:1; fill:#FFFFFF; " description="DltD_N-terminal_domain_protein[br]Location: 1860418 - 1861343" locus_tag="AFUB_086190" id="clusterblast-1_h6_2_35" points="430,85 434,80 434,90 430,85 " class="clusterblast-orf"  />
<polygon style="stroke:black; stroke-width:1; fill:#FFFFFF; " description="polyketide_synthase,_putative[br]Location: 1861826 - 1869428" locus_tag="AFUB_086200" id="clusterblast-1_h6_2_36" points="437,90 471,90 476,85 471,80 437,80 437,90 " class="clusterblast-orf"  />
<polygon style="stroke:black; stroke-width:1; fill:#FFFFFF; " description="NlpC/P60-like_cell-wall_peptidase,_putative[br]Location: 1869710 - 1870602" locus_tag="AFUB_086210" id="clusterblast-1_h6_2_37" points="478,85 482,80 482,90 478,85 " class="clusterblast-orf"  />
<polygon style="stroke:black; stroke-width:1; fill:#FFFFFF; " description="conserved_hypothetical_protein[br]Location: 1871323 - 1874587" locus_tag="AFUB_086220" id="clusterblast-1_h6_2_38" points="486,85 491,80 503,80 503,90 491,90 486,85 " class="clusterblast-orf"  />
<polygon style="stroke:black; stroke-width:1; fill:#FFFFFF; " description="conserved_hypothetical_protein[br]Location: 1877304 - 1878323" locus_tag="AFUB_086230" id="clusterblast-1_h6_2_39" points="517,85 522,80 523,80 523,90 522,90 517,85 " class="clusterblast-orf"  />
<polygon style="stroke:black; stroke-width:1; fill:#FFFFFF; " description="conserved_hypothetical_protein[br]Location: 1879564 - 1881469" locus_tag="AFUB_086240" id="clusterblast-1_h6_2_40" points="529,90 534,90 539,85 534,80 529,80 529,90 " class="clusterblast-orf"  />
<polygon style="stroke:black; stroke-width:1; fill:#FFFFFF; " description="conserved_hypothetical_protein[br]Location: 1881586 - 1883637" locus_tag="AFUB_086250" id="clusterblast-1_h6_2_41" points="539,90 545,90 550,85 545,80 539,80 539,90 " class="clusterblast-orf"  />
<polygon style="stroke:black; stroke-width:1; fill:red; " description="short-chain_dehydrogenase,_putative[br]Location: 1883787 - 1884938&lt;br&gt;&lt;br&gt;&lt;b&gt;BlastP hit with CHAFR746836_0063050.1&lt;/b&gt;&lt;br&gt;Percentage identity: 34%&lt;br&gt;Percentage coverage: 100%&lt;br&gt;BLAST bit score: 164&lt;br&gt;E-value: 1e-46&lt;br&gt;&lt;br&gt;&lt;b&gt;BlastP hit with CHAFR746836_0063050.2&lt;/b&gt;&lt;br&gt;Percentage identity: 31%&lt;br&gt;Percentage coverage: 111%&lt;br&gt;BLAST bit score: 143&lt;br&gt;E-value: 8e-39" locus_tag="AFUB_086260" id="clusterblast-1_h6_2_42" points="551,85 556,80 557,80 557,90 556,90 551,85 " class="clusterblast-orf"  />
<polygon style="stroke:black; stroke-width:1; fill:#FFFFFF; " description="polyketide_synthase,_putative[br]Location: 1884958 - 1886526" locus_tag="AFUB_086270" id="clusterblast-1_h6_2_43" points="557,90 560,90 565,85 560,80 557,80 557,90 " class="clusterblast-orf"  />
<polygon style="stroke:black; stroke-width:1; fill:#FFFFFF; " description="F-box_domain_and_ankyrin_repeat_protein[br]Location: 1887315 - 1889357" locus_tag="AFUB_086280" id="clusterblast-1_h6_2_44" points="569,90 575,90 580,85 575,80 569,80 569,90 " class="clusterblast-orf"  />
<polygon style="stroke:black; stroke-width:1; fill:#FFFFFF; " description="dimethylallyl_tryptophan_synthase,_putative[br]Location: 1889674 - 1891022" locus_tag="AFUB_086290" id="clusterblast-1_h6_2_45" points="581,85 586,80 588,80 588,90 586,90 581,85 " class="clusterblast-orf"  />
<polygon style="stroke:black; stroke-width:1; fill:#FFFFFF; " description="cytochrome_P450_monooxygenase,_putative[br]Location: 1891750 - 1893562" locus_tag="AFUB_086300" id="clusterblast-1_h6_2_46" points="592,90 597,90 602,85 597,80 592,80 592,90 " class="clusterblast-orf"  />
<polygon style="stroke:black; stroke-width:1; fill:#FFFFFF; " description="phytanoyl-CoA_dioxygenase_family_protein[br]Location: 1894657 - 1895532" locus_tag="AFUB_086310" id="clusterblast-1_h6_2_47" points="607,90 607,90 612,85 607,80 607,80 607,90 " class="clusterblast-orf"  />
<polygon style="stroke:black; stroke-width:1; fill:#FFFFFF; " description="cytochrome_P450,_putative[br]Location: 1896409 - 1897989" locus_tag="AFUB_086320" id="clusterblast-1_h6_2_48" points="616,90 620,90 625,85 620,80 616,80 616,90 " class="clusterblast-orf"  />
<polygon style="stroke:black; stroke-width:1; fill:#FFFFFF; " description="prenyltransferase_FtmPT1[br]Location: 1898170 - 1899633" locus_tag="AFUB_086330" id="clusterblast-1_h6_2_49" points="626,85 631,80 633,80 633,90 631,90 626,85 " class="clusterblast-orf"  />
<polygon style="stroke:black; stroke-width:1; fill:#FFFFFF; " description="O-methyltransferase,_putative[br]Location: 1900353 - 1901740" locus_tag="AFUB_086340" id="clusterblast-1_h6_2_50" points="637,85 642,80 644,80 644,90 642,90 637,85 " class="clusterblast-orf"  />
<polygon style="stroke:black; stroke-width:1; fill:#FFFFFF; " description="cytochrome_P450_monooxygenase,_putative[br]Location: 1902218 - 1904172" locus_tag="AFUB_086350" id="clusterblast-1_h6_2_51" points="647,90 652,90 657,85 652,80 647,80 647,90 " class="clusterblast-orf"  />
<polygon style="stroke:black; stroke-width:1; fill:blue; " description="nonribosomal_peptide_synthase,_putative[br]Location: 1905716 - 1912351&lt;br&gt;&lt;br&gt;&lt;b&gt;BlastP hit with CHAFR746836_0063080.1&lt;/b&gt;&lt;br&gt;Percentage identity: 34%&lt;br&gt;Percentage coverage: 29%&lt;br&gt;BLAST bit score: 575&lt;br&gt;E-value: 3e-165" locus_tag="AFUB_086360" id="clusterblast-1_h6_2_52" points="665,90 694,90 699,85 694,80 665,80 665,90 " class="clusterblast-orf"  />
<polygon style="stroke:black; stroke-width:1; fill:#FFFFFF; " description="conserved_hypothetical_protein[br]Location: 1915400 - 1916116" locus_tag="AFUB_086370" id="clusterblast-1_h6_2_53" points="715,90 719,85 715,80 715,90 " class="clusterblast-orf"  />
<polygon style="stroke:black; stroke-width:1; fill:#FFFFFF; " description="conserved_hypothetical_protein[br]Location: 1916198 - 1918546" locus_tag="AFUB_086380" id="clusterblast-1_h6_2_54" points="719,85 724,80 731,80 731,90 724,90 719,85 " class="clusterblast-orf"  />
<polygon style="stroke:black; stroke-width:1; fill:#FFFFFF; " description="MFS_transporter,_putative[br]Location: 1920034 - 1921486" locus_tag="AFUB_086390" id="clusterblast-1_h6_2_55" points="739,85 744,80 747,80 747,90 744,90 739,85 " class="clusterblast-orf"  />
<polygon style="stroke:black; stroke-width:1; fill:#FFFFFF; " description="hypothetical_protein[br]Location: 1922134 - 1923640" locus_tag="AFUB_086400" id="clusterblast-1_h6_2_56" points="750,85 755,80 758,80 758,90 755,90 750,85 " class="clusterblast-orf"  />
<polygon style="stroke:black; stroke-width:1; fill:#FFFFFF; " description="hypothetical_protein[br]Location: 1924011 - 1925591" locus_tag="AFUB_086410" id="clusterblast-1_h6_2_57" points="760,90 763,90 768,85 763,80 760,80 760,90 " class="clusterblast-orf"  />
<polygon style="stroke:black; stroke-width:1; fill:#FFFFFF; " description="oxidoreductase,_2OG-Fe(II)_oxygenase_family,[br]Location: 1926560 - 1927435" locus_tag="AFUB_086420" id="clusterblast-1_h6_2_58" points="773,90 773,90 778,85 773,80 773,80 773,90 " class="clusterblast-orf"  />
</g>
</svg>
