<svg xmlns="http://www.w3.org/2000/svg" height="230" width="800" version="1.1" y="0" x="0" preserveAspectRatio="none" xmlns:xlink="http://www.w3.org/1999/xlink" viewBox="0 0 800 230"  >
<g class="clusterblast-cluster" label="Query sequence"  >
<text class="clusterblast-acc" y="10" x="5"  >
Query sequence</text>
<line y1="35" x2="778.0" style="stroke:grey; stroke-width:1; " x1="10" y2="35"  />
<polygon style="stroke:black; stroke-width:1; fill:rgb(190,63,63); " description="unannotated orf[br]Location: 25203 - 26345" locus_tag="CHAFR746836_0077540.1" class="clusterblast-orf" points="10,40 14,40 19,35 14,30 10,30 10,40 " id="clusterblast-1_q10_6_0"  />
<polygon style="stroke:black; stroke-width:1; fill:rgb(63,63,190); " description="unannotated orf[br]Location: 33656 - 34656" locus_tag="CHAFR746836_0077550.1" class="clusterblast-orf" points="80,35 85,30 88,30 88,40 85,40 80,35 " id="clusterblast-1_q10_6_1"  />
<polygon style="stroke:black; stroke-width:1; fill:#FFFFFF; " description="unannotated orf[br]Location: 40941 - 41922" locus_tag="CHAFR746836_0077560.1" class="clusterblast-orf" points="141,40 144,40 149,35 144,30 141,30 141,40 " id="clusterblast-1_q10_6_2"  />
<polygon style="stroke:black; stroke-width:1; fill:#FFFFFF; " description="unannotated orf[br]Location: 42481 - 43285" locus_tag="CHAFR746836_0077570.1" class="clusterblast-orf" points="153,35 158,30 160,30 160,40 158,40 153,35 " id="clusterblast-1_q10_6_3"  />
<polygon style="stroke:black; stroke-width:1; fill:#FFFFFF; " description="unannotated orf[br]Location: 45175 - 46813" locus_tag="CHAFR746836_0077580.1" class="clusterblast-orf" points="176,40 184,40 189,35 184,30 176,30 176,40 " id="clusterblast-1_q10_6_4"  />
<polygon style="stroke:black; stroke-width:1; fill:#FFFFFF; " description="unannotated orf[br]Location: 52915 - 54699" locus_tag="CHAFR746836_0077590.1" class="clusterblast-orf" points="240,40 250,40 255,35 250,30 240,30 240,40 " id="clusterblast-1_q10_6_5"  />
<polygon style="stroke:black; stroke-width:1; fill:rgb(63,190,63); " description="unannotated orf[br]Location: 56890 - 57476" locus_tag="CHAFR746836_0077600.1" class="clusterblast-orf" points="273,40 273,40 278,35 273,30 273,30 273,40 " id="clusterblast-1_q10_6_6"  />
<polygon style="stroke:black; stroke-width:1; fill:rgb(190,63,190); " description="unannotated orf[br]Location: 58827 - 59758" locus_tag="CHAFR746836_0077610.1" class="clusterblast-orf" points="290,40 292,40 297,35 292,30 290,30 290,40 " id="clusterblast-1_q10_6_7"  />
<polygon style="stroke:black; stroke-width:1; fill:#FFFFFF; " description="unannotated orf[br]Location: 60873 - 61266" locus_tag="CHAFR746836_0077620.1" class="clusterblast-orf" points="307,35 310,30 310,40 307,35 " id="clusterblast-1_q10_6_8"  />
<polygon style="stroke:black; stroke-width:1; fill:#FFFFFF; " description="unannotated orf[br]Location: 62590 - 64438" locus_tag="CHAFR746836_0077630.1" class="clusterblast-orf" points="321,35 326,30 336,30 336,40 326,40 321,35 " id="clusterblast-1_q10_6_9"  />
<polygon style="stroke:black; stroke-width:1; fill:rgb(190,190,63); " description="unannotated orf[br]Location: 67540 - 77132" locus_tag="CHAFR746836_0077640.1" class="clusterblast-orf" points="362,35 367,30 442,30 442,40 367,40 362,35 " id="clusterblast-1_q10_6_10"  />
<polygon style="stroke:black; stroke-width:1; fill:#FFFFFF; " description="unannotated orf[br]Location: 83720 - 84542" locus_tag="CHAFR746836_0077650.1" class="clusterblast-orf" points="497,40 499,40 504,35 499,30 497,30 497,40 " id="clusterblast-1_q10_6_11"  />
<polygon style="stroke:black; stroke-width:1; fill:#FFFFFF; " description="unannotated orf[br]Location: 85708 - 88797" locus_tag="CHAFR746836_0077660.1" class="clusterblast-orf" points="513,35 518,30 539,30 539,40 518,40 513,35 " id="clusterblast-1_q10_6_12"  />
<polygon style="stroke:black; stroke-width:1; fill:#FFFFFF; " description="unannotated orf[br]Location: 89609 - 90957" locus_tag="CHAFR746836_0077670.1" class="clusterblast-orf" points="546,35 551,30 557,30 557,40 551,40 546,35 " id="clusterblast-1_q10_6_13"  />
<polygon style="stroke:black; stroke-width:1; fill:#FFFFFF; " description="unannotated orf[br]Location: 91271 - 91979" locus_tag="CHAFR746836_0077680.1" class="clusterblast-orf" points="560,40 561,40 566,35 561,30 560,30 560,40 " id="clusterblast-1_q10_6_14"  />
<polygon style="stroke:black; stroke-width:1; fill:#FFFFFF; " description="unannotated orf[br]Location: 92728 - 93646" locus_tag="CHAFR746836_0077690.1" class="clusterblast-orf" points="572,35 577,30 579,30 579,40 577,40 572,35 " id="clusterblast-1_q10_6_15"  />
<polygon style="stroke:black; stroke-width:1; fill:#FFFFFF; " description="unannotated orf[br]Location: 94508 - 95510" locus_tag="CHAFR746836_0077700.1" class="clusterblast-orf" points="587,40 590,40 595,35 590,30 587,30 587,40 " id="clusterblast-1_q10_6_16"  />
<polygon style="stroke:black; stroke-width:1; fill:#FFFFFF; " description="unannotated orf[br]Location: 95897 - 96815" locus_tag="CHAFR746836_0077710.1" class="clusterblast-orf" points="598,35 603,30 606,30 606,40 603,40 598,35 " id="clusterblast-1_q10_6_17"  />
<polygon style="stroke:black; stroke-width:1; fill:rgb(190,190,190); " description="unannotated orf[br]Location: 99791 - 101108" locus_tag="CHAFR746836_0077720.1" class="clusterblast-orf" points="631,40 637,40 642,35 637,30 631,30 631,40 " id="clusterblast-1_q10_6_18"  />
<polygon style="stroke:black; stroke-width:1; fill:#FFFFFF; " description="unannotated orf[br]Location: 105182 - 105691" locus_tag="CHAFR746836_0077730.1" class="clusterblast-orf" points="676,40 680,35 676,30 676,40 " id="clusterblast-1_q10_6_19"  />
<polygon style="stroke:black; stroke-width:1; fill:#FFFFFF; " description="unannotated orf[br]Location: 116324 - 117422" locus_tag="CHAFR746836_0077740.1" class="clusterblast-orf" points="768,35 773,30 778,30 778,40 773,40 768,35 " id="clusterblast-1_q10_6_20"  />
</g>
<g class="clusterblast-cluster" description="Erwinia amylovora, complete genome." label="NC_013961.1_c1"  >
<text class="clusterblast-acc" y="60" x="5"  >
NC_013961.1_c1</text>
<text class="clusterblast-desc" y="60" x="460.8"  >
Erwinia amylovora, complete genome.</text>
<line y1="85" x2="778.0" style="stroke:grey; stroke-width:1; " x1="10" y2="85"  />
<polygon style="stroke:black; stroke-width:1; fill:#FFFFFF; " description="glutamate-ammonia-ligase_adenylyltransferase[br]Location: 491204 - 494038" locus_tag="EAMY_0425" id="clusterblast-1_h10_6_0" points="140,90 158,90 163,85 158,80 140,80 140,90 " class="clusterblast-orf"  />
<polygon style="stroke:black; stroke-width:1; fill:#FFFFFF; " description="ADP-heptose_synthase[br]Location: 494127 - 495563" locus_tag="EAMY_0426" id="clusterblast-1_h10_6_1" points="164,90 171,90 176,85 171,80 164,80 164,90 " class="clusterblast-orf"  />
<polygon style="stroke:black; stroke-width:1; fill:#FFFFFF; " description="Uncharacterized_protein_yqiC[br]Location: 495608 - 495892" locus_tag="EAMY_0427" id="clusterblast-1_h10_6_2" points="176,85 179,80 179,90 176,85 " class="clusterblast-orf"  />
<polygon style="stroke:black; stroke-width:1; fill:#FFFFFF; " description="hypothetical_protein[br]Location: 495999 - 496166" locus_tag="EAMY_0428" id="clusterblast-1_h10_6_3" points="179,90 181,85 179,80 179,90 " class="clusterblast-orf"  />
<polygon style="stroke:black; stroke-width:1; fill:#FFFFFF; " description="3,4-dihydroxy-2-butanone_4-phosphate_synthase[br]Location: 496297 - 496953" locus_tag="EAMY_0429" id="clusterblast-1_h10_6_4" points="182,90 182,90 187,85 182,80 182,80 182,90 " class="clusterblast-orf"  />
<polygon style="stroke:black; stroke-width:1; fill:rgb(63,63,190); " description="Uncharacterized_protein_ygiD[br]Location: 497150 - 497935&lt;br&gt;&lt;br&gt;&lt;b&gt;BlastP hit with CHAFR746836_0077550.1&lt;/b&gt;&lt;br&gt;Percentage identity: 43%&lt;br&gt;Percentage coverage: 50%&lt;br&gt;BLAST bit score: 120&lt;br&gt;E-value: 3e-30" locus_tag="EAMY_0430" id="clusterblast-1_h10_6_5" points="189,90 191,90 196,85 191,80 189,80 189,90 " class="clusterblast-orf"  />
<polygon style="stroke:black; stroke-width:1; fill:#FFFFFF; " description="Uncharacterized_protein_ygiC[br]Location: 498053 - 499213" locus_tag="EAMY_0431" id="clusterblast-1_h10_6_6" points="197,85 202,80 206,80 206,90 202,90 197,85 " class="clusterblast-orf"  />
<polygon style="stroke:black; stroke-width:1; fill:#FFFFFF; " description="UPF0441_protein_ygiB[br]Location: 499220 - 499891" locus_tag="EAMY_0432" id="clusterblast-1_h10_6_7" points="206,85 211,80 212,80 212,90 211,90 206,85 " class="clusterblast-orf"  />
<polygon style="stroke:black; stroke-width:1; fill:#FFFFFF; " description="Outer_membrane_protein_tolC_precursor[br]Location: 500057 - 501517" locus_tag="EAMY_0433" id="clusterblast-1_h10_6_8" points="213,85 218,80 225,80 225,90 218,90 213,85 " class="clusterblast-orf"  />
<polygon style="stroke:black; stroke-width:1; fill:#FFFFFF; " description="putative_resistance_protein[br]Location: 501727 - 502365" locus_tag="EAMY_0434" id="clusterblast-1_h10_6_9" points="227,90 227,90 232,85 227,80 227,80 227,90 " class="clusterblast-orf"  />
<polygon style="stroke:black; stroke-width:1; fill:#FFFFFF; " description="Uncharacterized_protein_yqiB[br]Location: 502362 - 502784" locus_tag="EAMY_0435" id="clusterblast-1_h10_6_10" points="232,90 236,85 232,80 232,90 " class="clusterblast-orf"  />
<polygon style="stroke:black; stroke-width:1; fill:#FFFFFF; " description="Uncharacterized_protein_syc0937_d[br]Location: 502886 - 503713" locus_tag="EAMY_0436" id="clusterblast-1_h10_6_11" points="237,90 239,90 244,85 239,80 237,80 237,90 " class="clusterblast-orf"  />
<polygon style="stroke:black; stroke-width:1; fill:#FFFFFF; " description="Esterase_yqiA[br]Location: 503717 - 504295" locus_tag="EAMY_0437" id="clusterblast-1_h10_6_12" points="244,90 244,90 249,85 244,80 244,80 244,90 " class="clusterblast-orf"  />
<polygon style="stroke:black; stroke-width:1; fill:#FFFFFF; " description="DNA_topoisomerase_IV,_B_subunit[br]Location: 504350 - 506245" locus_tag="EAMY_0438" id="clusterblast-1_h10_6_13" points="249,90 260,90 265,85 260,80 249,80 249,90 " class="clusterblast-orf"  />
<polygon style="stroke:black; stroke-width:1; fill:#FFFFFF; " description="S-acyl_fatty_acid_synthase_thioesterase,_medium[br]Location: 506460 - 507236" locus_tag="EAMY_0439" id="clusterblast-1_h10_6_14" points="267,85 272,80 273,80 273,90 272,90 267,85 " class="clusterblast-orf"  />
<polygon style="stroke:black; stroke-width:1; fill:#FFFFFF; " description="hypothetical_protein[br]Location: 507273 - 507905" locus_tag="EAMY_0440" id="clusterblast-1_h10_6_15" points="273,85 278,80 279,80 279,90 278,90 273,85 " class="clusterblast-orf"  />
<polygon style="stroke:black; stroke-width:1; fill:#FFFFFF; " description="creatininase[br]Location: 508022 - 508774" locus_tag="EAMY_0441" id="clusterblast-1_h10_6_16" points="280,85 285,80 286,80 286,90 285,90 280,85 " class="clusterblast-orf"  />
<polygon style="stroke:black; stroke-width:1; fill:#FFFFFF; " description="hypothetical_protein,_similar_to_dihydroorotate[br]Location: 508771 - 509655" locus_tag="EAMY_0442" id="clusterblast-1_h10_6_17" points="286,85 291,80 293,80 293,90 291,90 286,85 " class="clusterblast-orf"  />
<polygon style="stroke:black; stroke-width:1; fill:#FFFFFF; " description="hypothetical_protein[br]Location: 509714 - 510202" locus_tag="EAMY_0443" id="clusterblast-1_h10_6_18" points="294,85 298,80 298,90 294,85 " class="clusterblast-orf"  />
<polygon style="stroke:black; stroke-width:1; fill:#FFFFFF; " description="probable_peptide_synthetase_protein[br]Location: 510247 - 511926" locus_tag="EAMY_0444" id="clusterblast-1_h10_6_19" points="298,85 303,80 312,80 312,90 303,90 298,85 " class="clusterblast-orf"  />
<polygon style="stroke:black; stroke-width:1; fill:rgb(190,190,63); " description="thiotemplate_mechanism_natural_product[br]Location: 511958 - 513631&lt;br&gt;&lt;br&gt;&lt;b&gt;BlastP hit with CHAFR746836_0077640.1&lt;/b&gt;&lt;br&gt;Percentage identity: 31%&lt;br&gt;Percentage coverage: 15%&lt;br&gt;BLAST bit score: 202&lt;br&gt;E-value: 1e-52" locus_tag="EAMY_0445" id="clusterblast-1_h10_6_20" points="312,85 317,80 326,80 326,90 317,90 312,85 " class="clusterblast-orf"  />
<polygon style="stroke:black; stroke-width:1; fill:rgb(190,190,63); " description="polyketide_synthase_type_I[br]Location: 513645 - 517445&lt;br&gt;&lt;br&gt;&lt;b&gt;BlastP hit with CHAFR746836_0077640.1&lt;/b&gt;&lt;br&gt;Percentage identity: 33%&lt;br&gt;Percentage coverage: 16%&lt;br&gt;BLAST bit score: 206&lt;br&gt;E-value: 4e-52" locus_tag="EAMY_0446" id="clusterblast-1_h10_6_21" points="326,85 331,80 358,80 358,90 331,90 326,85 " class="clusterblast-orf"  />
<polygon style="stroke:black; stroke-width:1; fill:#FFFFFF; " description="Gramicidin_S_synthetase_2[br]Location: 517438 - 520722" locus_tag="EAMY_0447" id="clusterblast-1_h10_6_22" points="358,85 363,80 385,80 385,90 363,90 358,85 " class="clusterblast-orf"  />
<polygon style="stroke:black; stroke-width:1; fill:rgb(190,190,63); " description="polyketide_synthase[br]Location: 520763 - 525967&lt;br&gt;&lt;br&gt;&lt;b&gt;BlastP hit with CHAFR746836_0077640.1&lt;/b&gt;&lt;br&gt;Percentage identity: 33%&lt;br&gt;Percentage coverage: 32%&lt;br&gt;BLAST bit score: 426&lt;br&gt;E-value: 8e-120" locus_tag="EAMY_0448" id="clusterblast-1_h10_6_23" points="386,85 391,80 429,80 429,90 391,90 386,85 " class="clusterblast-orf"  />
<polygon style="stroke:black; stroke-width:1; fill:rgb(190,190,63); " description="probable_peptide_synthetase_protein[br]Location: 525983 - 531163&lt;br&gt;&lt;br&gt;&lt;b&gt;BlastP hit with CHAFR746836_0077640.1&lt;/b&gt;&lt;br&gt;Percentage identity: 37%&lt;br&gt;Percentage coverage: 15%&lt;br&gt;BLAST bit score: 294&lt;br&gt;E-value: 1e-78" locus_tag="EAMY_0449" id="clusterblast-1_h10_6_24" points="429,85 434,80 472,80 472,90 434,90 429,85 " class="clusterblast-orf"  />
<polygon style="stroke:black; stroke-width:1; fill:#FFFFFF; " description="Gramicidin_S_synthetase_1[br]Location: 531247 - 532515" locus_tag="EAMY_0450" id="clusterblast-1_h10_6_25" points="473,85 478,80 484,80 484,90 478,90 473,85 " class="clusterblast-orf"  />
<polygon style="stroke:black; stroke-width:1; fill:#FFFFFF; " description="putative_DHA2_family_MFS_transporter[br]Location: 532671 - 534167" locus_tag="EAMY_0451" id="clusterblast-1_h10_6_26" points="485,85 490,80 497,80 497,90 490,90 485,85 " class="clusterblast-orf"  />
<polygon style="stroke:black; stroke-width:1; fill:#FFFFFF; " description="hypothetical_protein[br]Location: 534250 - 534366" locus_tag="EAMY_0452" id="clusterblast-1_h10_6_27" points="498,85 499,80 499,90 498,85 " class="clusterblast-orf"  />
<polygon style="stroke:black; stroke-width:1; fill:#FFFFFF; " description="hypothetical_protein[br]Location: 534692 - 534802" locus_tag="EAMY_0453" id="clusterblast-1_h10_6_28" points="502,85 503,80 503,90 502,85 " class="clusterblast-orf"  />
<polygon style="stroke:black; stroke-width:1; fill:#FFFFFF; " description="hypothetical_protein[br]Location: 535339 - 535434" locus_tag="EAMY_0454" id="clusterblast-1_h10_6_29" points="507,85 508,80 508,90 507,85 " class="clusterblast-orf"  />
<polygon style="stroke:black; stroke-width:1; fill:#FFFFFF; " description="hypothetical_protein[br]Location: 535683 - 535922" locus_tag="EAMY_0455" id="clusterblast-1_h10_6_30" points="510,90 512,85 510,80 510,90 " class="clusterblast-orf"  />
<polygon style="stroke:black; stroke-width:1; fill:#FFFFFF; " description="Modulator_of_drug_activity_B[br]Location: 535701 - 535949" locus_tag="EAMY_0456" id="clusterblast-1_h10_6_31" points="510,85 512,80 512,90 510,85 " class="clusterblast-orf"  />
<polygon style="stroke:black; stroke-width:1; fill:#FFFFFF; " description="hypothetical_protein[br]Location: 536008 - 536346" locus_tag="EAMY_0457" id="clusterblast-1_h10_6_32" points="513,90 515,85 513,80 513,90 " class="clusterblast-orf"  />
<polygon style="stroke:black; stroke-width:1; fill:#FFFFFF; " description="cyclohexadienyl_dehydratase,_putative[br]Location: 536370 - 537194" locus_tag="EAMY_0458" id="clusterblast-1_h10_6_33" points="516,90 518,90 523,85 518,80 516,80 516,90 " class="clusterblast-orf"  />
<polygon style="stroke:black; stroke-width:1; fill:#FFFFFF; " description="topoisomerase_IV_subunit_A[br]Location: 537456 - 539732" locus_tag="EAMY_0459" id="clusterblast-1_h10_6_34" points="525,90 539,90 544,85 539,80 525,80 525,90 " class="clusterblast-orf"  />
<polygon style="stroke:black; stroke-width:1; fill:#FFFFFF; " description="1-acyl-sn-glycerol-3-phosphate_acyltransferase[br]Location: 539908 - 540645" locus_tag="EAMY_0460" id="clusterblast-1_h10_6_35" points="545,90 546,90 551,85 546,80 545,80 545,90 " class="clusterblast-orf"  />
<polygon style="stroke:black; stroke-width:1; fill:#FFFFFF; " description="hypothetical_protein[br]Location: 540657 - 540770" locus_tag="EAMY_0461" id="clusterblast-1_h10_6_36" points="551,85 552,80 552,90 551,85 " class="clusterblast-orf"  />
<polygon style="stroke:black; stroke-width:1; fill:#FFFFFF; " description="Protein_sufI_precursor[br]Location: 540741 - 542165" locus_tag="EAMY_0462" id="clusterblast-1_h10_6_37" points="552,90 559,90 564,85 559,80 552,80 552,90 " class="clusterblast-orf"  />
<polygon style="stroke:black; stroke-width:1; fill:#FFFFFF; " description="putative_2,5-diketo-D-gluconic_acid_reductase_A[br]Location: 542207 - 543031" locus_tag="EAMY_0463" id="clusterblast-1_h10_6_38" points="564,85 569,80 571,80 571,90 569,90 564,85 " class="clusterblast-orf"  />
<polygon style="stroke:black; stroke-width:1; fill:#FFFFFF; " description="Uncharacterized_HTH-type_transcriptional[br]Location: 543248 - 544165" locus_tag="EAMY_0464" id="clusterblast-1_h10_6_39" points="573,90 576,90 581,85 576,80 573,80 573,90 " class="clusterblast-orf"  />
<polygon style="stroke:black; stroke-width:1; fill:#FFFFFF; " description="diaminobutyrate-2-oxoglutarateaminotransferase[br]Location: 544371 - 545765" locus_tag="EAMY_0465" id="clusterblast-1_h10_6_40" points="582,90 589,90 594,85 589,80 582,80 582,90 " class="clusterblast-orf"  />
<polygon style="stroke:black; stroke-width:1; fill:#FFFFFF; " description="L-2,4-diaminobutyrate_decarboxylase[br]Location: 545770 - 547242" locus_tag="EAMY_0466" id="clusterblast-1_h10_6_41" points="594,90 601,90 606,85 601,80 594,80 594,90 " class="clusterblast-orf"  />
<polygon style="stroke:black; stroke-width:1; fill:#FFFFFF; " description="Protein_dedA_(Protein_DSG-1)[br]Location: 547352 - 548008" locus_tag="EAMY_0467" id="clusterblast-1_h10_6_42" points="607,85 612,80 613,80 613,90 612,90 607,85 " class="clusterblast-orf"  />
<polygon style="stroke:black; stroke-width:1; fill:#FFFFFF; " description="cystathionine_beta-lyase[br]Location: 548186 - 549379" locus_tag="EAMY_0468" id="clusterblast-1_h10_6_43" points="614,85 619,80 624,80 624,90 619,90 614,85 " class="clusterblast-orf"  />
<polygon style="stroke:black; stroke-width:1; fill:#FFFFFF; " description="Biopolymer_transport_exbB_protein[br]Location: 549639 - 550358" locus_tag="EAMY_0469" id="clusterblast-1_h10_6_44" points="626,90 627,90 632,85 627,80 626,80 626,90 " class="clusterblast-orf"  />
<polygon style="stroke:black; stroke-width:1; fill:#FFFFFF; " description="Biopolymer_transport_protein_exbD[br]Location: 550364 - 550786" locus_tag="EAMY_0470" id="clusterblast-1_h10_6_45" points="632,90 636,85 632,80 632,90 " class="clusterblast-orf"  />
<polygon style="stroke:black; stroke-width:1; fill:#FFFFFF; " description="putative_MFS_citrate_transporter_citA[br]Location: 550839 - 552161" locus_tag="EAMY_0471" id="clusterblast-1_h10_6_46" points="636,85 641,80 647,80 647,90 641,90 636,85 " class="clusterblast-orf"  />
</g>
</svg>
