<svg xmlns="http://www.w3.org/2000/svg" height="230" width="800" version="1.1" y="0" x="0" preserveAspectRatio="none" xmlns:xlink="http://www.w3.org/1999/xlink" viewBox="0 0 800 230"  >
<g class="clusterblast-cluster" label="Query sequence"  >
<text class="clusterblast-acc" y="10" x="5"  >
Query sequence</text>
<line y1="35" x2="778.0" style="stroke:grey; stroke-width:1; " x1="10" y2="35"  />
<polygon style="stroke:black; stroke-width:1; fill:red; " description="unannotated orf[br]Location: 1639 - 3862" locus_tag="CHAFR746836_0009390.1" class="clusterblast-orf" points="155,40 181,40 186,35 181,30 155,30 155,40 " id="clusterblast-1_q30_1_0"  />
<polygon style="stroke:black; stroke-width:1; fill:#FFFFFF; " description="unannotated orf[br]Location: 4351 - 6763" locus_tag="CHAFR746836_0009400.1" class="clusterblast-orf" points="193,40 222,40 227,35 222,30 193,30 193,40 " id="clusterblast-1_q30_1_1"  />
<polygon style="stroke:black; stroke-width:1; fill:#FFFFFF; " description="unannotated orf[br]Location: 8433 - 9813" locus_tag="CHAFR746836_0009410.1" class="clusterblast-orf" points="251,40 265,40 270,35 265,30 251,30 251,40 " id="clusterblast-1_q30_1_2"  />
<polygon style="stroke:black; stroke-width:1; fill:#FFFFFF; " description="unannotated orf[br]Location: 10159 - 11305" locus_tag="CHAFR746836_0009420.1" class="clusterblast-orf" points="275,35 280,30 291,30 291,40 280,40 275,35 " id="clusterblast-1_q30_1_3"  />
<polygon style="stroke:black; stroke-width:1; fill:green; " description="unannotated orf[br]Location: 12094 - 15169" locus_tag="CHAFR746836_0009430.1" class="clusterblast-orf" points="303,35 308,30 346,30 346,40 308,40 303,35 " id="clusterblast-1_q30_1_4"  />
<polygon style="stroke:black; stroke-width:1; fill:blue; " description="unannotated orf[br]Location: 18460 - 19626" locus_tag="CHAFR746836_0009440.1" class="clusterblast-orf" points="393,35 398,30 409,30 409,40 398,40 393,35 " id="clusterblast-1_q30_1_5"  />
<polygon style="stroke:black; stroke-width:1; fill:yellow; " description="unannotated orf[br]Location: 21127 - 22798" locus_tag="CHAFR746836_0009450.1" class="clusterblast-orf" points="430,35 435,30 454,30 454,40 435,40 430,35 " id="clusterblast-1_q30_1_6"  />
<polygon style="stroke:black; stroke-width:1; fill:#FFFFFF; " description="unannotated orf[br]Location: 24451 - 25288" locus_tag="CHAFR746836_0009460.1" class="clusterblast-orf" points="478,35 483,30 489,30 489,40 483,40 478,35 " id="clusterblast-1_q30_1_7"  />
<polygon style="stroke:black; stroke-width:1; fill:#FFFFFF; " description="unannotated orf[br]Location: 26586 - 27329" locus_tag="CHAFR746836_0009470.1" class="clusterblast-orf" points="508,35 513,30 518,30 518,40 513,40 508,35 " id="clusterblast-1_q30_1_8"  />
<polygon style="stroke:black; stroke-width:1; fill:#FFFFFF; " description="unannotated orf[br]Location: 27584 - 28762" locus_tag="CHAFR746836_0009480.1" class="clusterblast-orf" points="522,40 534,40 539,35 534,30 522,30 522,40 " id="clusterblast-1_q30_1_9"  />
<polygon style="stroke:black; stroke-width:1; fill:#FFFFFF; " description="unannotated orf[br]Location: 28842 - 30026" locus_tag="CHAFR746836_0009490.1" class="clusterblast-orf" points="540,35 545,30 556,30 556,40 545,40 540,35 " id="clusterblast-1_q30_1_10"  />
<polygon style="stroke:black; stroke-width:1; fill:#FFFFFF; " description="unannotated orf[br]Location: 30391 - 33688" locus_tag="CHAFR746836_0009500.1" class="clusterblast-orf" points="562,40 603,40 608,35 603,30 562,30 562,40 " id="clusterblast-1_q30_1_11"  />
<polygon style="stroke:black; stroke-width:1; fill:#FFFFFF; " description="unannotated orf[br]Location: 34235 - 35268" locus_tag="CHAFR746836_0009510.1" class="clusterblast-orf" points="616,35 621,30 631,30 631,40 621,40 616,35 " id="clusterblast-1_q30_1_12"  />
</g>
<g class="clusterblast-cluster" description="Trichophyton equinum CBS 127.97 supercont1.6 genomic scaffol..." label="DS995723.1_c1"  >
<text class="clusterblast-acc" y="60" x="5"  >
DS995723.1_c1</text>
<text class="clusterblast-desc" y="60" x="460.8"  >
Trichophyton equinum CBS 127.97 supercont1.6 genomic scaffol...</text>
<line y1="85" x2="778.0" style="stroke:grey; stroke-width:1; " x1="10" y2="85"  />
<polygon style="stroke:black; stroke-width:1; fill:#FFFFFF; " description="pre-rRNA_processing_protein_Utp22[br]Location: 385536 - 388796" locus_tag="TEQG_01710" id="clusterblast-1_h30_1_0" points="10,85 15,80 56,80 56,90 15,90 10,85 " class="clusterblast-orf"  />
<polygon style="stroke:black; stroke-width:1; fill:#FFFFFF; " description="cystathionine_gamma-synthase[br]Location: 389300 - 391445" locus_tag="TEQG_01711" id="clusterblast-1_h30_1_1" points="63,90 88,90 93,85 88,80 63,80 63,90 " class="clusterblast-orf"  />
<polygon style="stroke:black; stroke-width:1; fill:#FFFFFF; " description="hypothetical_protein[br]Location: 392029 - 393294" locus_tag="TEQG_01712" id="clusterblast-1_h30_1_2" points="101,85 106,80 119,80 119,90 106,90 101,85 " class="clusterblast-orf"  />
<polygon style="stroke:black; stroke-width:1; fill:#FFFFFF; " description="60S_ribosomal_protein_L20[br]Location: 393999 - 394589" locus_tag="TEQG_01713" id="clusterblast-1_h30_1_3" points="129,90 133,90 138,85 133,80 129,80 129,90 " class="clusterblast-orf"  />
<polygon style="stroke:black; stroke-width:1; fill:#FFFFFF; " description="hypothetical_protein[br]Location: 396806 - 397228" locus_tag="TEQG_01714" id="clusterblast-1_h30_1_4" points="169,85 174,80 175,80 175,90 174,90 169,85 " class="clusterblast-orf"  />
<polygon style="stroke:black; stroke-width:1; fill:#FFFFFF; " description="hypothetical_protein[br]Location: 397626 - 398200" locus_tag="TEQG_01715" id="clusterblast-1_h30_1_5" points="181,85 186,80 189,80 189,90 186,90 181,85 " class="clusterblast-orf"  />
<polygon style="stroke:black; stroke-width:1; fill:#FFFFFF; " description="glutamate_carboxypeptidase[br]Location: 398539 - 400231" locus_tag="TEQG_01716" id="clusterblast-1_h30_1_6" points="194,90 213,90 218,85 213,80 194,80 194,90 " class="clusterblast-orf"  />
<polygon style="stroke:black; stroke-width:1; fill:#FFFFFF; " description="hypothetical_protein[br]Location: 401104 - 402123" locus_tag="TEQG_01717" id="clusterblast-1_h30_1_7" points="230,90 239,90 244,85 239,80 230,80 230,90 " class="clusterblast-orf"  />
<polygon style="stroke:black; stroke-width:1; fill:#FFFFFF; " description="hypothetical_protein[br]Location: 403536 - 404429" locus_tag="TEQG_01718" id="clusterblast-1_h30_1_8" points="264,85 269,80 277,80 277,90 269,90 264,85 " class="clusterblast-orf"  />
<polygon style="stroke:black; stroke-width:1; fill:#FFFFFF; " description="hypothetical_protein[br]Location: 405265 - 406364" locus_tag="TEQG_01719" id="clusterblast-1_h30_1_9" points="289,85 294,80 304,80 304,90 294,90 289,85 " class="clusterblast-orf"  />
<polygon style="stroke:black; stroke-width:1; fill:#FFFFFF; " description="nonribosomal_peptide_synthetase[br]Location: 406779 - 410486" locus_tag="TEQG_01720" id="clusterblast-1_h30_1_10" points="310,90 358,90 363,85 358,80 310,80 310,90 " class="clusterblast-orf"  />
<polygon style="stroke:black; stroke-width:1; fill:yellow; " description="benzoate_4-monooxygenase_cytochrome_P450[br]Location: 411142 - 412839&lt;br&gt;&lt;br&gt;&lt;b&gt;BlastP hit with CHAFR746836_0009450.1&lt;/b&gt;&lt;br&gt;Percentage identity: 45%&lt;br&gt;Percentage coverage: 98%&lt;br&gt;BLAST bit score: 465&lt;br&gt;E-value: 5e-158" locus_tag="TEQG_01721" id="clusterblast-1_h30_1_11" points="372,85 377,80 396,80 396,90 377,90 372,85 " class="clusterblast-orf"  />
<polygon style="stroke:black; stroke-width:1; fill:blue; " description="NmrA_family_protein[br]Location: 413234 - 414337&lt;br&gt;&lt;br&gt;&lt;b&gt;BlastP hit with CHAFR746836_0009440.1&lt;/b&gt;&lt;br&gt;Percentage identity: 55%&lt;br&gt;Percentage coverage: 97%&lt;br&gt;BLAST bit score: 385&lt;br&gt;E-value: 2e-131" locus_tag="TEQG_01722" id="clusterblast-1_h30_1_12" points="402,85 407,80 417,80 417,90 407,90 402,85 " class="clusterblast-orf"  />
<polygon style="stroke:black; stroke-width:1; fill:green; " description="antibiotic_synthetase[br]Location: 415281 - 418343&lt;br&gt;&lt;br&gt;&lt;b&gt;BlastP hit with CHAFR746836_0009430.1&lt;/b&gt;&lt;br&gt;Percentage identity: 54%&lt;br&gt;Percentage coverage: 101%&lt;br&gt;BLAST bit score: 1130&lt;br&gt;E-value: 0.0" locus_tag="TEQG_01723" id="clusterblast-1_h30_1_13" points="431,90 469,90 474,85 469,80 431,80 431,90 " class="clusterblast-orf"  />
<polygon style="stroke:black; stroke-width:1; fill:#FFFFFF; " description="O-methyltransferase[br]Location: 418650 - 420044" locus_tag="TEQG_01724" id="clusterblast-1_h30_1_14" points="478,85 483,80 498,80 498,90 483,90 478,85 " class="clusterblast-orf"  />
<polygon style="stroke:black; stroke-width:1; fill:#FFFFFF; " description="hypothetical_protein[br]Location: 420296 - 421210" locus_tag="TEQG_01725" id="clusterblast-1_h30_1_15" points="502,85 507,80 515,80 515,90 507,90 502,85 " class="clusterblast-orf"  />
<polygon style="stroke:black; stroke-width:1; fill:#FFFFFF; " description="membrane_transporter[br]Location: 421776 - 423545" locus_tag="TEQG_01726" id="clusterblast-1_h30_1_16" points="523,85 528,80 548,80 548,90 528,90 523,85 " class="clusterblast-orf"  />
<polygon style="stroke:black; stroke-width:1; fill:#FFFFFF; " description="hypothetical_protein[br]Location: 424564 - 426581" locus_tag="TEQG_01727" id="clusterblast-1_h30_1_17" points="562,90 586,90 591,85 586,80 562,80 562,90 " class="clusterblast-orf"  />
<polygon style="stroke:black; stroke-width:1; fill:#FFFFFF; " description="MSF1_domain-containing_protein[br]Location: 427101 - 427910" locus_tag="TEQG_01728" id="clusterblast-1_h30_1_18" points="598,90 605,90 610,85 605,80 598,80 598,90 " class="clusterblast-orf"  />
<polygon style="stroke:black; stroke-width:1; fill:#FFFFFF; " description="phosphoglycerate_mutase[br]Location: 428434 - 429278" locus_tag="TEQG_01729" id="clusterblast-1_h30_1_19" points="617,85 622,80 629,80 629,90 622,90 617,85 " class="clusterblast-orf"  />
<polygon style="stroke:black; stroke-width:1; fill:#FFFFFF; " description="CAMK/CAMKL/AMPK_protein_kinase[br]Location: 430325 - 432976" locus_tag="TEQG_01730" id="clusterblast-1_h30_1_20" points="644,90 676,90 681,85 676,80 644,80 644,90 " class="clusterblast-orf"  />
<polygon style="stroke:black; stroke-width:1; fill:#FFFFFF; " description="hypothetical_protein[br]Location: 433542 - 434210" locus_tag="TEQG_01731" id="clusterblast-1_h30_1_21" points="689,90 694,90 699,85 694,80 689,80 689,90 " class="clusterblast-orf"  />
<polygon style="stroke:black; stroke-width:1; fill:#FFFFFF; " description="hypothetical_protein[br]Location: 435000 - 436129" locus_tag="TEQG_01732" id="clusterblast-1_h30_1_22" points="710,85 715,80 726,80 726,90 715,90 710,85 " class="clusterblast-orf"  />
<polygon style="stroke:black; stroke-width:1; fill:#FFFFFF; " description="hypothetical_protein[br]Location: 437450 - 439768" locus_tag="TEQG_01733" id="clusterblast-1_h30_1_23" points="745,85 750,80 778,80 778,90 750,90 745,85 " class="clusterblast-orf"  />
</g>
</svg>
