<svg xmlns="http://www.w3.org/2000/svg" height="230" width="800" version="1.1" y="0" x="0" preserveAspectRatio="none" xmlns:xlink="http://www.w3.org/1999/xlink" viewBox="0 0 800 230"  >
<g class="clusterblast-cluster" label="Query sequence"  >
<text class="clusterblast-acc" y="10" x="5"  >
Query sequence</text>
<line y1="35" x2="778.0" style="stroke:grey; stroke-width:1; " x1="10" y2="35"  />
<polygon style="stroke:black; stroke-width:1; fill:rgb(190,63,63); " description="unannotated orf[br]Location: 272 - 1577" locus_tag="CHAFR746836_0058790.1" class="clusterblast-orf" points="10,40 16,40 21,35 16,30 10,30 10,40 " id="clusterblast-1_q3_8_0"  />
<polygon style="stroke:black; stroke-width:1; fill:#FFFFFF; " description="unannotated orf[br]Location: 1879 - 3966" locus_tag="CHAFR746836_0058800.1" class="clusterblast-orf" points="23,35 28,30 41,30 41,40 28,40 23,35 " id="clusterblast-1_q3_8_1"  />
<polygon style="stroke:black; stroke-width:1; fill:rgb(63,63,190); " description="unannotated orf[br]Location: 20578 - 22096" locus_tag="CHAFR746836_0058810.1" class="clusterblast-orf" points="182,35 187,30 195,30 195,40 187,40 182,35 " id="clusterblast-1_q3_8_2"  />
<polygon style="stroke:black; stroke-width:1; fill:rgb(63,190,63); " description="unannotated orf[br]Location: 25478 - 26482" locus_tag="CHAFR746836_0058820.1" class="clusterblast-orf" points="224,40 227,40 232,35 227,30 224,30 224,40 " id="clusterblast-1_q3_8_3"  />
<polygon style="stroke:black; stroke-width:1; fill:#FFFFFF; " description="unannotated orf[br]Location: 45229 - 46910" locus_tag="CHAFR746836_0058830.1" class="clusterblast-orf" points="392,40 401,40 406,35 401,30 392,30 392,40 " id="clusterblast-1_q3_8_4"  />
<polygon style="stroke:black; stroke-width:1; fill:#FFFFFF; " description="unannotated orf[br]Location: 51364 - 52222" locus_tag="CHAFR746836_0058840.1" class="clusterblast-orf" points="444,35 449,30 451,30 451,40 449,40 444,35 " id="clusterblast-1_q3_8_5"  />
<polygon style="stroke:black; stroke-width:1; fill:#FFFFFF; " description="unannotated orf[br]Location: 53027 - 54066" locus_tag="CHAFR746836_0058850.1" class="clusterblast-orf" points="458,40 462,40 467,35 462,30 458,30 458,40 " id="clusterblast-1_q3_8_6"  />
<polygon style="stroke:black; stroke-width:1; fill:rgb(190,63,190); " description="unannotated orf[br]Location: 55805 - 57189" locus_tag="CHAFR746836_0058860.1" class="clusterblast-orf" points="482,35 487,30 494,30 494,40 487,40 482,35 " id="clusterblast-1_q3_8_7"  />
<polygon style="stroke:black; stroke-width:1; fill:rgb(190,190,63); " description="unannotated orf[br]Location: 62252 - 71057" locus_tag="CHAFR746836_0058870.1" class="clusterblast-orf" points="537,40 607,40 612,35 607,30 537,30 537,40 " id="clusterblast-1_q3_8_8"  />
<polygon style="stroke:black; stroke-width:1; fill:#FFFFFF; " description="unannotated orf[br]Location: 72245 - 73215" locus_tag="CHAFR746836_0058880.1" class="clusterblast-orf" points="622,35 627,30 630,30 630,40 627,40 622,35 " id="clusterblast-1_q3_8_9"  />
<polygon style="stroke:black; stroke-width:1; fill:#FFFFFF; " description="unannotated orf[br]Location: 78567 - 79753" locus_tag="CHAFR746836_0058890.1" class="clusterblast-orf" points="675,35 680,30 686,30 686,40 680,40 675,35 " id="clusterblast-1_q3_8_10"  />
<polygon style="stroke:black; stroke-width:1; fill:#FFFFFF; " description="unannotated orf[br]Location: 89948 - 90559" locus_tag="CHAFR746836_0058900.1" class="clusterblast-orf" points="772,40 773,40 778,35 773,30 772,30 772,40 " id="clusterblast-1_q3_8_11"  />
</g>
<g class="clusterblast-cluster" description="Mycosphaerella graminicola IPO323 chromosome 10, whole genom..." label="CM001205.1_c2"  >
<text class="clusterblast-acc" y="60" x="5"  >
CM001205.1_c2</text>
<text class="clusterblast-desc" y="60" x="460.8"  >
Mycosphaerella graminicola IPO323 chromosome 10, whole genom...</text>
<line y1="85" x2="778.0" style="stroke:grey; stroke-width:1; " x1="10" y2="85"  />
<polygon style="stroke:black; stroke-width:1; fill:#FFFFFF; " description="hypothetical_protein[br]Location: 1433970 - 1434464" locus_tag="MYCGRDRAFT_96389" id="clusterblast-1_h3_8_0" points="215,90 219,85 215,80 215,90 " class="clusterblast-orf"  />
<polygon style="stroke:black; stroke-width:1; fill:#FFFFFF; " description="hypothetical_protein[br]Location: 1435059 - 1435817" locus_tag="MYCGRDRAFT_76564" id="clusterblast-1_h3_8_1" points="224,85 229,80 230,80 230,90 229,90 224,85 " class="clusterblast-orf"  />
<polygon style="stroke:black; stroke-width:1; fill:#FFFFFF; " description="hypothetical_protein[br]Location: 1436178 - 1437155" locus_tag="MYCGRDRAFT_63387" id="clusterblast-1_h3_8_2" points="233,85 238,80 242,80 242,90 238,90 233,85 " class="clusterblast-orf"  />
<polygon style="stroke:black; stroke-width:1; fill:#FFFFFF; " description="putative_P450_monooxygenase[br]Location: 1437567 - 1439416" locus_tag="MYCGRDRAFT_48855" id="clusterblast-1_h3_8_3" points="245,85 250,80 261,80 261,90 250,90 245,85 " class="clusterblast-orf"  />
<polygon style="stroke:black; stroke-width:1; fill:rgb(190,63,63); " description="putative_major_facilitator_superfamily[br]Location: 1440011 - 1441659&lt;br&gt;&lt;br&gt;&lt;b&gt;BlastP hit with CHAFR746836_0058790.1&lt;/b&gt;&lt;br&gt;Percentage identity: 38%&lt;br&gt;Percentage coverage: 101%&lt;br&gt;BLAST bit score: 284&lt;br&gt;E-value: 4e-88" locus_tag="MYCGRDRAFT_76570" id="clusterblast-1_h3_8_4" points="266,90 275,90 280,85 275,80 266,80 266,90 " class="clusterblast-orf"  />
<polygon style="stroke:black; stroke-width:1; fill:rgb(63,63,190); " description="5-aminolevulinate_synthase[br]Location: 1442061 - 1443747&lt;br&gt;&lt;br&gt;&lt;b&gt;BlastP hit with CHAFR746836_0058810.1&lt;/b&gt;&lt;br&gt;Percentage identity: 48%&lt;br&gt;Percentage coverage: 98%&lt;br&gt;BLAST bit score: 468&lt;br&gt;E-value: 4e-160" locus_tag="MYCGRDRAFT_48965" id="clusterblast-1_h3_8_5" points="283,85 288,80 298,80 298,90 288,90 283,85 " class="clusterblast-orf"  />
<polygon style="stroke:black; stroke-width:1; fill:#FFFFFF; " description="hypothetical_protein[br]Location: 1444870 - 1445821" locus_tag="MYCGRDRAFT_48819" id="clusterblast-1_h3_8_6" points="307,90 310,90 315,85 310,80 307,80 307,90 " class="clusterblast-orf"  />
<polygon style="stroke:black; stroke-width:1; fill:#FFFFFF; " description="serine_palmitoyl_CoA_transferase_subunit_LcbA[br]Location: 1445965 - 1447668" locus_tag="MYCGRDRAFT_49166" id="clusterblast-1_h3_8_7" points="317,85 322,80 331,80 331,90 322,90 317,85 " class="clusterblast-orf"  />
<polygon style="stroke:black; stroke-width:1; fill:rgb(190,190,63); " description="polyketide_synthase[br]Location: 1448653 - 1456017&lt;br&gt;&lt;br&gt;&lt;b&gt;BlastP hit with CHAFR746836_0058870.1&lt;/b&gt;&lt;br&gt;Percentage identity: 41%&lt;br&gt;Percentage coverage: 100%&lt;br&gt;BLAST bit score: 1833&lt;br&gt;E-value: 0.0" locus_tag="MYCGRDRAFT_101493" id="clusterblast-1_h3_8_8" points="339,90 397,90 402,85 397,80 339,80 339,90 " class="clusterblast-orf"  />
<polygon style="stroke:black; stroke-width:1; fill:#FFFFFF; " description="putative_P450_monooxygenase[br]Location: 1460785 - 1462504" locus_tag="MYCGRDRAFT_48687" id="clusterblast-1_h3_8_9" points="443,85 448,80 457,80 457,90 448,90 443,85 " class="clusterblast-orf"  />
<polygon style="stroke:black; stroke-width:1; fill:#FFFFFF; " description="hypothetical_protein[br]Location: 1464720 - 1466107" locus_tag="MYCGRDRAFT_76577" id="clusterblast-1_h3_8_10" points="476,90 483,90 488,85 483,80 476,80 476,90 " class="clusterblast-orf"  />
<polygon style="stroke:black; stroke-width:1; fill:#FFFFFF; " description="putative_P450_monooxygenase[br]Location: 1466602 - 1468337" locus_tag="MYCGRDRAFT_76579" id="clusterblast-1_h3_8_11" points="492,90 502,90 507,85 502,80 492,80 492,90 " class="clusterblast-orf"  />
<polygon style="stroke:black; stroke-width:1; fill:#FFFFFF; " description="hypothetical_protein[br]Location: 1468719 - 1468967" locus_tag="MYCGRDRAFT_29567" id="clusterblast-1_h3_8_12" points="510,85 512,80 512,90 510,85 " class="clusterblast-orf"  />
<polygon style="stroke:black; stroke-width:1; fill:#FFFFFF; " description="hypothetical_protein[br]Location: 1469160 - 1469840" locus_tag="MYCGRDRAFT_49046" id="clusterblast-1_h3_8_13" points="514,90 515,90 520,85 515,80 514,80 514,90 " class="clusterblast-orf"  />
<polygon style="stroke:black; stroke-width:1; fill:#FFFFFF; " description="hypothetical_protein[br]Location: 1470884 - 1471129" locus_tag="MYCGRDRAFT_106026" id="clusterblast-1_h3_8_14" points="528,90 531,85 528,80 528,90 " class="clusterblast-orf"  />
<polygon style="stroke:black; stroke-width:1; fill:#FFFFFF; " description="hypothetical_protein[br]Location: 1473012 - 1474574" locus_tag="MYCGRDRAFT_96400" id="clusterblast-1_h3_8_15" points="547,85 552,80 560,80 560,90 552,90 547,85 " class="clusterblast-orf"  />
<polygon style="stroke:black; stroke-width:1; fill:#FFFFFF; " description="hypothetical_protein[br]Location: 1475101 - 1476009" locus_tag="MYCGRDRAFT_96401" id="clusterblast-1_h3_8_16" points="564,85 569,80 572,80 572,90 569,90 564,85 " class="clusterblast-orf"  />
</g>
</svg>
