<svg xmlns="http://www.w3.org/2000/svg" height="230" width="800" version="1.1" y="0" x="0" preserveAspectRatio="none" xmlns:xlink="http://www.w3.org/1999/xlink" viewBox="0 0 800 230"  >
<g class="clusterblast-cluster" label="Query sequence"  >
<text class="clusterblast-acc" y="10" x="5"  >
Query sequence</text>
<line y1="35" x2="778.0" style="stroke:grey; stroke-width:1; " x1="10" y2="35"  />
<polygon style="stroke:black; stroke-width:1; fill:#FFFFFF; " description="unannotated orf[br]Location: 1013 - 2670" locus_tag="CHAFR746836_0031900.1" class="clusterblast-orf" points="10,35 15,30 19,30 19,40 15,40 10,35 " id="clusterblast-1_q44_3_0"  />
<polygon style="stroke:black; stroke-width:1; fill:#FFFFFF; " description="unannotated orf[br]Location: 5806 - 8080" locus_tag="CHAFR746836_0031910.1" class="clusterblast-orf" points="38,40 47,40 52,35 47,30 38,30 38,40 " id="clusterblast-1_q44_3_1"  />
<polygon style="stroke:black; stroke-width:1; fill:rgb(190,63,63); " description="unannotated orf[br]Location: 14959 - 16522" locus_tag="CHAFR746836_0031920.1" class="clusterblast-orf" points="93,35 98,30 102,30 102,40 98,40 93,35 " id="clusterblast-1_q44_3_2"  />
<polygon style="stroke:black; stroke-width:1; fill:rgb(63,63,190); " description="unannotated orf[br]Location: 18634 - 27051" locus_tag="CHAFR746836_0031930.1" class="clusterblast-orf" points="115,35 120,30 165,30 165,40 120,40 115,35 " id="clusterblast-1_q44_3_3"  />
<polygon style="stroke:black; stroke-width:1; fill:rgb(63,190,63); " description="unannotated orf[br]Location: 28690 - 31017" locus_tag="CHAFR746836_0031940.1" class="clusterblast-orf" points="174,35 179,30 188,30 188,40 179,40 174,35 " id="clusterblast-1_q44_3_4"  />
<polygon style="stroke:black; stroke-width:1; fill:rgb(190,63,190); " description="unannotated orf[br]Location: 31821 - 32686" locus_tag="CHAFR746836_0031950.1" class="clusterblast-orf" points="193,40 193,40 198,35 193,30 193,30 193,40 " id="clusterblast-1_q44_3_5"  />
<polygon style="stroke:black; stroke-width:1; fill:#FFFFFF; " description="unannotated orf[br]Location: 33127 - 34136" locus_tag="CHAFR746836_0031960.1" class="clusterblast-orf" points="201,35 206,30 207,30 207,40 206,40 201,35 " id="clusterblast-1_q44_3_6"  />
<polygon style="stroke:black; stroke-width:1; fill:#FFFFFF; " description="unannotated orf[br]Location: 34492 - 36671" locus_tag="CHAFR746836_0031970.1" class="clusterblast-orf" points="209,40 217,40 222,35 217,30 209,30 209,40 " id="clusterblast-1_q44_3_7"  />
<polygon style="stroke:black; stroke-width:1; fill:#FFFFFF; " description="unannotated orf[br]Location: 90516 - 91329" locus_tag="CHAFR746836_0031980.1" class="clusterblast-orf" points="543,40 543,40 548,35 543,30 543,30 543,40 " id="clusterblast-1_q44_3_8"  />
<polygon style="stroke:black; stroke-width:1; fill:#FFFFFF; " description="unannotated orf[br]Location: 95107 - 95607" locus_tag="CHAFR746836_0031990.1" class="clusterblast-orf" points="570,35 573,30 573,40 570,35 " id="clusterblast-1_q44_3_9"  />
<polygon style="stroke:black; stroke-width:1; fill:#FFFFFF; " description="unannotated orf[br]Location: 98154 - 98987" locus_tag="CHAFR746836_0032000.1" class="clusterblast-orf" points="589,40 593,35 589,30 589,40 " id="clusterblast-1_q44_3_10"  />
<polygon style="stroke:black; stroke-width:1; fill:#FFFFFF; " description="unannotated orf[br]Location: 110556 - 112350" locus_tag="CHAFR746836_0032010.1" class="clusterblast-orf" points="662,35 667,30 673,30 673,40 667,40 662,35 " id="clusterblast-1_q44_3_11"  />
<polygon style="stroke:black; stroke-width:1; fill:rgb(190,190,63); " description="unannotated orf[br]Location: 112800 - 115534" locus_tag="CHAFR746836_0032020.1" class="clusterblast-orf" points="676,40 687,40 692,35 687,30 676,30 676,40 " id="clusterblast-1_q44_3_12"  />
<polygon style="stroke:black; stroke-width:1; fill:rgb(190,190,190); " description="unannotated orf[br]Location: 116249 - 122294" locus_tag="CHAFR746836_0032030.1" class="clusterblast-orf" points="696,40 727,40 732,35 727,30 696,30 696,40 " id="clusterblast-1_q44_3_13"  />
<polygon style="stroke:black; stroke-width:1; fill:rgb(63,190,190); " description="unannotated orf[br]Location: 126098 - 127042" locus_tag="CHAFR746836_0032040.1" class="clusterblast-orf" points="755,35 760,30 761,30 761,40 760,40 755,35 " id="clusterblast-1_q44_3_14"  />
<polygon style="stroke:black; stroke-width:1; fill:rgb(63,63,63); " description="unannotated orf[br]Location: 128617 - 129857" locus_tag="CHAFR746836_0032050.1" class="clusterblast-orf" points="770,40 773,40 778,35 773,30 770,30 770,40 " id="clusterblast-1_q44_3_15"  />
</g>
<g class="clusterblast-cluster" description="Exophiala dermatitidis NIH/UT8656 unplaced genomic scaffold ..." label="JH226138.1_c1"  >
<text class="clusterblast-acc" y="60" x="5"  >
JH226138.1_c1</text>
<text class="clusterblast-desc" y="60" x="460.8"  >
Exophiala dermatitidis NIH/UT8656 unplaced genomic scaffold ...</text>
<line y1="85" x2="778.0" style="stroke:grey; stroke-width:1; " x1="10" y2="85"  />
<polygon style="stroke:black; stroke-width:1; fill:#FFFFFF; " description="hypothetical_protein[br]Location: 92519 - 98063" locus_tag="HMPREF1120_09207" id="clusterblast-1_h44_3_0" points="253,85 258,80 286,80 286,90 258,90 253,85 " class="clusterblast-orf"  />
<polygon style="stroke:black; stroke-width:1; fill:#FFFFFF; " description="anthranilate_synthase_component_2[br]Location: 89895 - 92213" locus_tag="HMPREF1120_09206" id="clusterblast-1_h44_3_1" points="287,90 296,90 301,85 296,80 287,80 287,90 " class="clusterblast-orf"  />
<polygon style="stroke:black; stroke-width:1; fill:#FFFFFF; " description="hypothetical_protein[br]Location: 87179 - 89328" locus_tag="HMPREF1120_09205" id="clusterblast-1_h44_3_2" points="305,90 312,90 317,85 312,80 305,80 305,90 " class="clusterblast-orf"  />
<polygon style="stroke:black; stroke-width:1; fill:#FFFFFF; " description="brix-domain_ribosomal_biogenesis_protein[br]Location: 86053 - 86943" locus_tag="HMPREF1120_09204" id="clusterblast-1_h44_3_3" points="319,85 324,80 324,80 324,90 324,90 319,85 " class="clusterblast-orf"  />
<polygon style="stroke:black; stroke-width:1; fill:#FFFFFF; " description="regulator-nonsense_transcripts_1[br]Location: 82136 - 85424" locus_tag="HMPREF1120_09203" id="clusterblast-1_h44_3_4" points="328,90 342,90 347,85 342,80 328,80 328,90 " class="clusterblast-orf"  />
<polygon style="stroke:black; stroke-width:1; fill:#FFFFFF; " description="hypothetical_protein[br]Location: 79316 - 81124" locus_tag="HMPREF1120_09202" id="clusterblast-1_h44_3_5" points="353,85 358,80 364,80 364,90 358,90 353,85 " class="clusterblast-orf"  />
<polygon style="stroke:black; stroke-width:1; fill:#FFFFFF; " description="hypothetical_protein[br]Location: 77514 - 78494" locus_tag="HMPREF1120_09200" id="clusterblast-1_h44_3_6" points="369,90 370,90 375,85 370,80 369,80 369,90 " class="clusterblast-orf"  />
<polygon style="stroke:black; stroke-width:1; fill:#FFFFFF; " description="cyclopropane-fatty-acyl-phospholipid_synthase[br]Location: 76722 - 77480" locus_tag="HMPREF1120_09201" id="clusterblast-1_h44_3_7" points="375,85 380,80 380,80 380,90 380,90 375,85 " class="clusterblast-orf"  />
<polygon style="stroke:black; stroke-width:1; fill:rgb(63,190,190); " description="hypothetical_protein[br]Location: 75007 - 75947&lt;br&gt;&lt;br&gt;&lt;b&gt;BlastP hit with CHAFR746836_0032040.1&lt;/b&gt;&lt;br&gt;Percentage identity: 56%&lt;br&gt;Percentage coverage: 98%&lt;br&gt;BLAST bit score: 308&lt;br&gt;E-value: 1e-102" locus_tag="HMPREF1120_09199" id="clusterblast-1_h44_3_8" points="384,85 389,80 390,80 390,90 389,90 384,85 " class="clusterblast-orf"  />
<polygon style="stroke:black; stroke-width:1; fill:rgb(63,63,63); " description="geranylgeranyl_pyrophosphate_synthetase_AtmG[br]Location: 72912 - 74084&lt;br&gt;&lt;br&gt;&lt;b&gt;BlastP hit with CHAFR746836_0032050.1&lt;/b&gt;&lt;br&gt;Percentage identity: 58%&lt;br&gt;Percentage coverage: 101%&lt;br&gt;BLAST bit score: 432&lt;br&gt;E-value: 5e-148" locus_tag="HMPREF1120_09198" id="clusterblast-1_h44_3_9" points="395,90 397,90 402,85 397,80 395,80 395,90 " class="clusterblast-orf"  />
<polygon style="stroke:black; stroke-width:1; fill:#FFFFFF; " description="cytochrome_P450[br]Location: 70055 - 71741" locus_tag="HMPREF1120_09197" id="clusterblast-1_h44_3_10" points="409,90 414,90 419,85 414,80 409,80 409,90 " class="clusterblast-orf"  />
<polygon style="stroke:black; stroke-width:1; fill:#FFFFFF; " description="cytochrome_P450_oxidoreductase[br]Location: 69064 - 69860" locus_tag="HMPREF1120_09196" id="clusterblast-1_h44_3_11" points="421,85 425,80 425,90 421,85 " class="clusterblast-orf"  />
<polygon style="stroke:black; stroke-width:1; fill:#FFFFFF; " description="cytochrome_P450_oxidoreductase[br]Location: 68059 - 68955" locus_tag="HMPREF1120_09195" id="clusterblast-1_h44_3_12" points="426,85 431,80 431,80 431,90 431,90 426,85 " class="clusterblast-orf"  />
<polygon style="stroke:black; stroke-width:1; fill:#FFFFFF; " description="microsomal_epoxide_hydrolase[br]Location: 66766 - 67724" locus_tag="HMPREF1120_09194" id="clusterblast-1_h44_3_13" points="433,85 438,80 439,80 439,90 438,90 433,85 " class="clusterblast-orf"  />
<polygon style="stroke:black; stroke-width:1; fill:#FFFFFF; " description="cytochrome_P450[br]Location: 64116 - 65843" locus_tag="HMPREF1120_09193" id="clusterblast-1_h44_3_14" points="445,90 450,90 455,85 450,80 445,80 445,90 " class="clusterblast-orf"  />
<polygon style="stroke:black; stroke-width:1; fill:#FFFFFF; " description="aryl-alcohol_dehydrogenase[br]Location: 62411 - 63738" locus_tag="HMPREF1120_09192" id="clusterblast-1_h44_3_15" points="457,90 460,90 465,85 460,80 457,80 457,90 " class="clusterblast-orf"  />
<polygon style="stroke:black; stroke-width:1; fill:#FFFFFF; " description="hypothetical_protein[br]Location: 59988 - 62042" locus_tag="HMPREF1120_09191" id="clusterblast-1_h44_3_16" points="467,90 474,90 479,85 474,80 467,80 467,90 " class="clusterblast-orf"  />
<polygon style="stroke:black; stroke-width:1; fill:#FFFFFF; " description="MFS_transporter,_ACS_family,_allantoate[br]Location: 57287 - 59191" locus_tag="HMPREF1120_09190" id="clusterblast-1_h44_3_17" points="484,85 489,80 496,80 496,90 489,90 484,85 " class="clusterblast-orf"  />
<polygon style="stroke:black; stroke-width:1; fill:rgb(190,190,190); " description="hypothetical_protein[br]Location: 53429 - 56649&lt;br&gt;&lt;br&gt;&lt;b&gt;BlastP hit with CHAFR746836_0032030.1&lt;/b&gt;&lt;br&gt;Percentage identity: 36%&lt;br&gt;Percentage coverage: 60%&lt;br&gt;BLAST bit score: 564&lt;br&gt;E-value: 9e-178" locus_tag="HMPREF1120_09189" id="clusterblast-1_h44_3_18" points="499,90 514,90 519,85 514,80 499,80 499,90 " class="clusterblast-orf"  />
<polygon style="stroke:black; stroke-width:1; fill:#FFFFFF; " description="hypothetical_protein[br]Location: 50867 - 53160" locus_tag="HMPREF1120_09188" id="clusterblast-1_h44_3_19" points="520,90 529,90 534,85 529,80 520,80 520,90 " class="clusterblast-orf"  />
</g>
</svg>
