<svg xmlns="http://www.w3.org/2000/svg" height="230" width="800" version="1.1" y="0" x="0" preserveAspectRatio="none" xmlns:xlink="http://www.w3.org/1999/xlink" viewBox="0 0 800 230"  >
<g class="clusterblast-cluster" label="Query sequence"  >
<text class="clusterblast-acc" y="10" x="5"  >
Query sequence</text>
<line y1="35" x2="778.0" style="stroke:grey; stroke-width:1; " x1="10" y2="35"  />
<polygon style="stroke:black; stroke-width:1; fill:#FFFFFF; " description="unannotated orf[br]Location: 673 - 3787" locus_tag="CHAFR746836_0047790.1" class="clusterblast-orf" points="10,40 48,40 53,35 48,30 10,30 10,40 " id="clusterblast-1_q56_3_0"  />
<polygon style="stroke:black; stroke-width:1; fill:rgb(190,63,63); " description="unannotated orf[br]Location: 5163 - 6824" locus_tag="CHAFR746836_0047800.1" class="clusterblast-orf" points="73,35 78,30 96,30 96,40 78,40 73,35 " id="clusterblast-1_q56_3_1"  />
<polygon style="stroke:black; stroke-width:1; fill:rgb(63,63,190); " description="unannotated orf[br]Location: 7821 - 10682" locus_tag="CHAFR746836_0047810.1" class="clusterblast-orf" points="110,40 145,40 150,35 145,30 110,30 110,40 " id="clusterblast-1_q56_3_2"  />
<polygon style="stroke:black; stroke-width:1; fill:#FFFFFF; " description="unannotated orf[br]Location: 13855 - 14662" locus_tag="CHAFR746836_0047820.1" class="clusterblast-orf" points="195,40 201,40 206,35 201,30 195,30 195,40 " id="clusterblast-1_q56_3_3"  />
<polygon style="stroke:black; stroke-width:1; fill:rgb(63,190,63); " description="unannotated orf[br]Location: 16209 - 17379" locus_tag="CHAFR746836_0047830.1" class="clusterblast-orf" points="228,40 239,40 244,35 239,30 228,30 228,40 " id="clusterblast-1_q56_3_4"  />
<polygon style="stroke:black; stroke-width:1; fill:#FFFFFF; " description="unannotated orf[br]Location: 19067 - 19519" locus_tag="CHAFR746836_0047840.1" class="clusterblast-orf" points="268,40 269,40 274,35 269,30 268,30 268,40 " id="clusterblast-1_q56_3_5"  />
<polygon style="stroke:black; stroke-width:1; fill:#FFFFFF; " description="unannotated orf[br]Location: 25063 - 26142" locus_tag="CHAFR746836_0047850.1" class="clusterblast-orf" points="352,40 362,40 367,35 362,30 352,30 352,40 " id="clusterblast-1_q56_3_6"  />
<polygon style="stroke:black; stroke-width:1; fill:rgb(190,63,190); " description="unannotated orf[br]Location: 27072 - 33543" locus_tag="CHAFR746836_0047860.1" class="clusterblast-orf" points="380,35 385,30 471,30 471,40 385,40 380,35 " id="clusterblast-1_q56_3_7"  />
<polygon style="stroke:black; stroke-width:1; fill:rgb(190,190,63); " description="unannotated orf[br]Location: 35240 - 36153" locus_tag="CHAFR746836_0047870.1" class="clusterblast-orf" points="495,40 503,40 508,35 503,30 495,30 495,40 " id="clusterblast-1_q56_3_8"  />
<polygon style="stroke:black; stroke-width:1; fill:rgb(190,190,190); " description="unannotated orf[br]Location: 36833 - 38621" locus_tag="CHAFR746836_0047880.1" class="clusterblast-orf" points="517,35 522,30 542,30 542,40 522,40 517,35 " id="clusterblast-1_q56_3_9"  />
<polygon style="stroke:black; stroke-width:1; fill:#FFFFFF; " description="unannotated orf[br]Location: 39860 - 40772" locus_tag="CHAFR746836_0047890.1" class="clusterblast-orf" points="560,35 565,30 572,30 572,40 565,40 560,35 " id="clusterblast-1_q56_3_10"  />
<polygon style="stroke:black; stroke-width:1; fill:#FFFFFF; " description="unannotated orf[br]Location: 41162 - 41504" locus_tag="CHAFR746836_0047900.1" class="clusterblast-orf" points="578,40 578,40 583,35 578,30 578,30 578,40 " id="clusterblast-1_q56_3_11"  />
<polygon style="stroke:black; stroke-width:1; fill:#FFFFFF; " description="unannotated orf[br]Location: 47709 - 49836" locus_tag="CHAFR746836_0047910.1" class="clusterblast-orf" points="670,40 695,40 700,35 695,30 670,30 670,40 " id="clusterblast-1_q56_3_12"  />
<polygon style="stroke:black; stroke-width:1; fill:#FFFFFF; " description="unannotated orf[br]Location: 53801 - 55386" locus_tag="CHAFR746836_0047920.1" class="clusterblast-orf" points="755,35 760,30 778,30 778,40 760,40 755,35 " id="clusterblast-1_q56_3_13"  />
</g>
<g class="clusterblast-cluster" description="Aspergillus niger ATCC 1015, whole genome shotgun sequen..." label="ACJE01000016.1_c3"  >
<text class="clusterblast-acc" y="60" x="5"  >
ACJE01000016.1_c3</text>
<text class="clusterblast-desc" y="60" x="460.8"  >
Aspergillus niger ATCC 1015, whole genome shotgun sequen...</text>
<line y1="85" x2="778.0" style="stroke:grey; stroke-width:1; " x1="10" y2="85"  />
<polygon style="stroke:black; stroke-width:1; fill:#FFFFFF; " description="hypothetical_protein[br]Location: 1372283 - 1374523" locus_tag="ASPNIDRAFT_45401" id="clusterblast-1_h56_3_0" points="78,90 104,90 109,85 104,80 78,80 78,90 " class="clusterblast-orf"  />
<polygon style="stroke:black; stroke-width:1; fill:#FFFFFF; " description="hypothetical_protein[br]Location: 1375022 - 1376737" locus_tag="ASPNIDRAFT_133835" id="clusterblast-1_h56_3_1" points="116,85 121,80 140,80 140,90 121,90 116,85 " class="clusterblast-orf"  />
<polygon style="stroke:black; stroke-width:1; fill:#FFFFFF; " description="Hypothetical_protein[br]Location: 1377590 - 1379185" locus_tag="ASPNIDRAFT_193171" id="clusterblast-1_h56_3_2" points="152,90 169,90 174,85 169,80 152,80 152,90 " class="clusterblast-orf"  />
<polygon style="stroke:black; stroke-width:1; fill:rgb(190,190,63); " description="hypothetical_protein[br]Location: 1379983 - 1380866&lt;br&gt;&lt;br&gt;&lt;b&gt;BlastP hit with CHAFR746836_0047870.1&lt;/b&gt;&lt;br&gt;Percentage identity: 42%&lt;br&gt;Percentage coverage: 113%&lt;br&gt;BLAST bit score: 167&lt;br&gt;E-value: 5e-49" locus_tag="ASPNIDRAFT_193589" id="clusterblast-1_h56_3_3" points="186,90 193,90 198,85 193,80 186,80 186,90 " class="clusterblast-orf"  />
<polygon style="stroke:black; stroke-width:1; fill:#FFFFFF; " description="hypothetical_protein[br]Location: 1381796 - 1383999" locus_tag="ASPNIDRAFT_204783" id="clusterblast-1_h56_3_4" points="211,85 216,80 242,80 242,90 216,90 211,85 " class="clusterblast-orf"  />
<polygon style="stroke:black; stroke-width:1; fill:#FFFFFF; " description="hypothetical_protein[br]Location: 1384921 - 1386991" locus_tag="ASPNIDRAFT_51199" id="clusterblast-1_h56_3_5" points="255,85 260,80 284,80 284,90 260,90 255,85 " class="clusterblast-orf"  />
<polygon style="stroke:black; stroke-width:1; fill:#FFFFFF; " description="hypothetical_protein[br]Location: 1388645 - 1389829" locus_tag="ASPNIDRAFT_214353" id="clusterblast-1_h56_3_6" points="307,90 319,90 324,85 319,80 307,80 307,90 " class="clusterblast-orf"  />
<polygon style="stroke:black; stroke-width:1; fill:#FFFFFF; " description="hypothetical_protein[br]Location: 1390966 - 1391971" locus_tag="ASPNIDRAFT_45394" id="clusterblast-1_h56_3_7" points="340,85 345,80 354,80 354,90 345,90 340,85 " class="clusterblast-orf"  />
<polygon style="stroke:black; stroke-width:1; fill:#FFFFFF; " description="hypothetical_protein[br]Location: 1392840 - 1394604" locus_tag="ASPNIDRAFT_193539" id="clusterblast-1_h56_3_8" points="366,90 386,90 391,85 386,80 366,80 366,90 " class="clusterblast-orf"  />
<polygon style="stroke:black; stroke-width:1; fill:#FFFFFF; " description="Hypothetical_protein[br]Location: 1395024 - 1398964" locus_tag="ASPNIDRAFT_55013" id="clusterblast-1_h56_3_9" points="397,85 402,80 452,80 452,90 402,90 397,85 " class="clusterblast-orf"  />
<polygon style="stroke:black; stroke-width:1; fill:#FFFFFF; " description="hypothetical_protein[br]Location: 1401226 - 1402271" locus_tag="ASPNIDRAFT_45391" id="clusterblast-1_h56_3_10" points="484,90 493,90 498,85 493,80 484,80 484,90 " class="clusterblast-orf"  />
<polygon style="stroke:black; stroke-width:1; fill:#FFFFFF; " description="hypothetical_protein[br]Location: 1407011 - 1409325" locus_tag="ASPNIDRAFT_214348" id="clusterblast-1_h56_3_11" points="565,90 592,90 597,85 592,80 565,80 565,90 " class="clusterblast-orf"  />
<polygon style="stroke:black; stroke-width:1; fill:rgb(190,63,190); " description="hypothetical_protein[br]Location: 1410518 - 1417270&lt;br&gt;&lt;br&gt;&lt;b&gt;BlastP hit with CHAFR746836_0047860.1&lt;/b&gt;&lt;br&gt;Percentage identity: 37%&lt;br&gt;Percentage coverage: 83%&lt;br&gt;BLAST bit score: 813&lt;br&gt;E-value: 0.0" locus_tag="ASPNIDRAFT_45389" id="clusterblast-1_h56_3_12" points="614,90 704,90 709,85 704,80 614,80 614,90 " class="clusterblast-orf"  />
</g>
</svg>
