<svg xmlns="http://www.w3.org/2000/svg" height="230" width="800" version="1.1" y="0" x="0" preserveAspectRatio="none" xmlns:xlink="http://www.w3.org/1999/xlink" viewBox="0 0 800 230"  >
<g class="clusterblast-cluster" label="Query sequence"  >
<text class="clusterblast-acc" y="10" x="5"  >
Query sequence</text>
<line y1="35" x2="778.0" style="stroke:grey; stroke-width:1; " x1="10" y2="35"  />
<polygon style="stroke:black; stroke-width:1; fill:rgb(190,63,63); " description="unannotated orf[br]Location: 25203 - 26345" locus_tag="CHAFR746836_0077540.1" class="clusterblast-orf" points="171,40 171,40 176,35 171,30 171,30 171,40 " id="clusterblast-1_q10_4_0"  />
<polygon style="stroke:black; stroke-width:1; fill:rgb(63,63,190); " description="unannotated orf[br]Location: 33656 - 34656" locus_tag="CHAFR746836_0077550.1" class="clusterblast-orf" points="211,35 216,30 216,30 216,40 216,40 211,35 " id="clusterblast-1_q10_4_1"  />
<polygon style="stroke:black; stroke-width:1; fill:#FFFFFF; " description="unannotated orf[br]Location: 40941 - 41922" locus_tag="CHAFR746836_0077560.1" class="clusterblast-orf" points="246,40 246,40 251,35 246,30 246,30 246,40 " id="clusterblast-1_q10_4_2"  />
<polygon style="stroke:black; stroke-width:1; fill:#FFFFFF; " description="unannotated orf[br]Location: 42481 - 43285" locus_tag="CHAFR746836_0077570.1" class="clusterblast-orf" points="254,35 258,30 258,40 254,35 " id="clusterblast-1_q10_4_3"  />
<polygon style="stroke:black; stroke-width:1; fill:#FFFFFF; " description="unannotated orf[br]Location: 45175 - 46813" locus_tag="CHAFR746836_0077580.1" class="clusterblast-orf" points="267,40 270,40 275,35 270,30 267,30 267,40 " id="clusterblast-1_q10_4_4"  />
<polygon style="stroke:black; stroke-width:1; fill:#FFFFFF; " description="unannotated orf[br]Location: 52915 - 54699" locus_tag="CHAFR746836_0077590.1" class="clusterblast-orf" points="304,40 308,40 313,35 308,30 304,30 304,40 " id="clusterblast-1_q10_4_5"  />
<polygon style="stroke:black; stroke-width:1; fill:rgb(63,190,63); " description="unannotated orf[br]Location: 56890 - 57476" locus_tag="CHAFR746836_0077600.1" class="clusterblast-orf" points="323,40 326,35 323,30 323,40 " id="clusterblast-1_q10_4_6"  />
<polygon style="stroke:black; stroke-width:1; fill:rgb(190,63,190); " description="unannotated orf[br]Location: 58827 - 59758" locus_tag="CHAFR746836_0077610.1" class="clusterblast-orf" points="333,40 337,35 333,30 333,40 " id="clusterblast-1_q10_4_7"  />
<polygon style="stroke:black; stroke-width:1; fill:#FFFFFF; " description="unannotated orf[br]Location: 60873 - 61266" locus_tag="CHAFR746836_0077620.1" class="clusterblast-orf" points="343,35 345,30 345,40 343,35 " id="clusterblast-1_q10_4_8"  />
<polygon style="stroke:black; stroke-width:1; fill:#FFFFFF; " description="unannotated orf[br]Location: 62590 - 64438" locus_tag="CHAFR746836_0077630.1" class="clusterblast-orf" points="351,35 356,30 360,30 360,40 356,40 351,35 " id="clusterblast-1_q10_4_9"  />
<polygon style="stroke:black; stroke-width:1; fill:rgb(190,190,63); " description="unannotated orf[br]Location: 67540 - 77132" locus_tag="CHAFR746836_0077640.1" class="clusterblast-orf" points="375,35 380,30 421,30 421,40 380,40 375,35 " id="clusterblast-1_q10_4_10"  />
<polygon style="stroke:black; stroke-width:1; fill:#FFFFFF; " description="unannotated orf[br]Location: 83720 - 84542" locus_tag="CHAFR746836_0077650.1" class="clusterblast-orf" points="453,40 457,35 453,30 453,40 " id="clusterblast-1_q10_4_11"  />
<polygon style="stroke:black; stroke-width:1; fill:#FFFFFF; " description="unannotated orf[br]Location: 85708 - 88797" locus_tag="CHAFR746836_0077660.1" class="clusterblast-orf" points="463,35 468,30 478,30 478,40 468,40 463,35 " id="clusterblast-1_q10_4_12"  />
<polygon style="stroke:black; stroke-width:1; fill:#FFFFFF; " description="unannotated orf[br]Location: 89609 - 90957" locus_tag="CHAFR746836_0077670.1" class="clusterblast-orf" points="481,35 486,30 488,30 488,40 486,40 481,35 " id="clusterblast-1_q10_4_13"  />
<polygon style="stroke:black; stroke-width:1; fill:#FFFFFF; " description="unannotated orf[br]Location: 91271 - 91979" locus_tag="CHAFR746836_0077680.1" class="clusterblast-orf" points="489,40 493,35 489,30 489,40 " id="clusterblast-1_q10_4_14"  />
<polygon style="stroke:black; stroke-width:1; fill:#FFFFFF; " description="unannotated orf[br]Location: 92728 - 93646" locus_tag="CHAFR746836_0077690.1" class="clusterblast-orf" points="497,35 501,30 501,40 497,35 " id="clusterblast-1_q10_4_15"  />
<polygon style="stroke:black; stroke-width:1; fill:#FFFFFF; " description="unannotated orf[br]Location: 94508 - 95510" locus_tag="CHAFR746836_0077700.1" class="clusterblast-orf" points="505,40 505,40 510,35 505,30 505,30 505,40 " id="clusterblast-1_q10_4_16"  />
<polygon style="stroke:black; stroke-width:1; fill:#FFFFFF; " description="unannotated orf[br]Location: 95897 - 96815" locus_tag="CHAFR746836_0077710.1" class="clusterblast-orf" points="512,35 516,30 516,40 512,35 " id="clusterblast-1_q10_4_17"  />
<polygon style="stroke:black; stroke-width:1; fill:rgb(190,190,190); " description="unannotated orf[br]Location: 99791 - 101108" locus_tag="CHAFR746836_0077720.1" class="clusterblast-orf" points="531,40 532,40 537,35 532,30 531,30 531,40 " id="clusterblast-1_q10_4_18"  />
<polygon style="stroke:black; stroke-width:1; fill:#FFFFFF; " description="unannotated orf[br]Location: 105182 - 105691" locus_tag="CHAFR746836_0077730.1" class="clusterblast-orf" points="557,40 559,35 557,30 557,40 " id="clusterblast-1_q10_4_19"  />
<polygon style="stroke:black; stroke-width:1; fill:#FFFFFF; " description="unannotated orf[br]Location: 116324 - 117422" locus_tag="CHAFR746836_0077740.1" class="clusterblast-orf" points="610,35 615,30 616,30 616,40 615,40 610,35 " id="clusterblast-1_q10_4_20"  />
</g>
<g class="clusterblast-cluster" description="Salinispora tropica CNB-440, complete genome." label="NC_009380.1_c10"  >
<text class="clusterblast-acc" y="60" x="5"  >
NC_009380.1_c10</text>
<text class="clusterblast-desc" y="60" x="460.8"  >
Salinispora tropica CNB-440, complete genome.</text>
<line y1="85" x2="778.0" style="stroke:grey; stroke-width:1; " x1="10" y2="85"  />
<polygon style="stroke:black; stroke-width:1; fill:#FFFFFF; " description="hypothetical_protein[br]Location: 3098059 - 3098751" locus_tag="Strop_2750" id="clusterblast-1_h10_4_0" points="10,90 13,85 10,80 10,90 " class="clusterblast-orf"  />
<polygon style="stroke:black; stroke-width:1; fill:#FFFFFF; " description="transcriptional_regulator-like_protein[br]Location: 3098829 - 3098990" locus_tag="Strop_2751" id="clusterblast-1_h10_4_1" points="13,90 14,85 13,80 13,90 " class="clusterblast-orf"  />
<polygon style="stroke:black; stroke-width:1; fill:#FFFFFF; " description="transposase[br]Location: 3099667 - 3100563" locus_tag="Strop_2753" id="clusterblast-1_h10_4_2" points="17,90 17,90 22,85 17,80 17,80 17,90 " class="clusterblast-orf"  />
<polygon style="stroke:black; stroke-width:1; fill:#FFFFFF; " description="major_facilitator_transporter[br]Location: 3100609 - 3101862" locus_tag="Strop_2754" id="clusterblast-1_h10_4_3" points="22,85 27,80 28,80 28,90 27,90 22,85 " class="clusterblast-orf"  />
<polygon style="stroke:black; stroke-width:1; fill:#FFFFFF; " description="regulatory_protein,_ArsR[br]Location: 3101859 - 3102536" locus_tag="Strop_2755" id="clusterblast-1_h10_4_4" points="28,85 31,80 31,90 28,85 " class="clusterblast-orf"  />
<polygon style="stroke:black; stroke-width:1; fill:#FFFFFF; " description="hypothetical_protein[br]Location: 3102904 - 3103218" locus_tag="Strop_2756" id="clusterblast-1_h10_4_5" points="33,90 34,85 33,80 33,90 " class="clusterblast-orf"  />
<polygon style="stroke:black; stroke-width:1; fill:#FFFFFF; " description="histidine_kinase,_dimerisation_and[br]Location: 3103236 - 3104537" locus_tag="Strop_2757" id="clusterblast-1_h10_4_6" points="34,90 36,90 41,85 36,80 34,80 34,90 " class="clusterblast-orf"  />
<polygon style="stroke:black; stroke-width:1; fill:#FFFFFF; " description="response_regulator_receiver[br]Location: 3104501 - 3105163" locus_tag="Strop_2758" id="clusterblast-1_h10_4_7" points="41,90 44,85 41,80 41,90 " class="clusterblast-orf"  />
<polygon style="stroke:black; stroke-width:1; fill:#FFFFFF; " description="hypothetical_protein[br]Location: 3105244 - 3107808" locus_tag="Strop_2759" id="clusterblast-1_h10_4_8" points="44,85 49,80 57,80 57,90 49,90 44,85 " class="clusterblast-orf"  />
<polygon style="stroke:black; stroke-width:1; fill:#FFFFFF; " description="ABC_transporter_related[br]Location: 3107805 - 3108614" locus_tag="Strop_2760" id="clusterblast-1_h10_4_9" points="57,85 60,80 60,90 57,85 " class="clusterblast-orf"  />
<polygon style="stroke:black; stroke-width:1; fill:#FFFFFF; " description="regulatory_protein,_LuxR[br]Location: 3108746 - 3111577" locus_tag="Strop_2761" id="clusterblast-1_h10_4_10" points="61,85 66,80 75,80 75,90 66,90 61,85 " class="clusterblast-orf"  />
<polygon style="stroke:black; stroke-width:1; fill:#FFFFFF; " description="hypothetical_protein[br]Location: 3111964 - 3112296" locus_tag="Strop_2762" id="clusterblast-1_h10_4_11" points="77,90 78,85 77,80 77,90 " class="clusterblast-orf"  />
<polygon style="stroke:black; stroke-width:1; fill:#FFFFFF; " description="thioesterase[br]Location: 3112454 - 3113230" locus_tag="Strop_2763" id="clusterblast-1_h10_4_12" points="79,85 83,80 83,90 79,85 " class="clusterblast-orf"  />
<polygon style="stroke:black; stroke-width:1; fill:#FFFFFF; " description="propionyl-CoA_carboxylase[br]Location: 3113280 - 3114719" locus_tag="Strop_2764" id="clusterblast-1_h10_4_13" points="83,85 88,80 90,80 90,90 88,90 83,85 " class="clusterblast-orf"  />
<polygon style="stroke:black; stroke-width:1; fill:#FFFFFF; " description="major_facilitator_transporter[br]Location: 3114953 - 3116707" locus_tag="Strop_2765" id="clusterblast-1_h10_4_14" points="91,85 96,80 100,80 100,90 96,90 91,85 " class="clusterblast-orf"  />
<polygon style="stroke:black; stroke-width:1; fill:#FFFFFF; " description="regulatory_protein,_TetR[br]Location: 3116781 - 3117377" locus_tag="Strop_2766" id="clusterblast-1_h10_4_15" points="100,90 103,85 100,80 100,90 " class="clusterblast-orf"  />
<polygon style="stroke:black; stroke-width:1; fill:#FFFFFF; " description="hypothetical_protein[br]Location: 3117486 - 3117752" locus_tag="Strop_2767" id="clusterblast-1_h10_4_16" points="103,85 105,80 105,90 103,85 " class="clusterblast-orf"  />
<polygon style="stroke:black; stroke-width:1; fill:rgb(190,190,63); " description="beta-ketoacyl_synthase[br]Location: 3117970 - 3139602&lt;br&gt;&lt;br&gt;&lt;b&gt;BlastP hit with CHAFR746836_0077640.1&lt;/b&gt;&lt;br&gt;Percentage identity: 31%&lt;br&gt;Percentage coverage: 36%&lt;br&gt;BLAST bit score: 457&lt;br&gt;E-value: 1e-127" locus_tag="Strop_2768" id="clusterblast-1_h10_4_17" points="106,85 111,80 210,80 210,90 111,90 106,85 " class="clusterblast-orf"  />
<polygon style="stroke:black; stroke-width:1; fill:#FFFFFF; " description="hypothetical_protein[br]Location: 3139622 - 3139849" locus_tag="Strop_2769" id="clusterblast-1_h10_4_18" points="210,85 211,80 211,90 210,85 " class="clusterblast-orf"  />
<polygon style="stroke:black; stroke-width:1; fill:#FFFFFF; " description="cytochrome_P450[br]Location: 3139855 - 3141042" locus_tag="Strop_2770" id="clusterblast-1_h10_4_19" points="211,85 216,80 217,80 217,90 216,90 211,85 " class="clusterblast-orf"  />
<polygon style="stroke:black; stroke-width:1; fill:#FFFFFF; " description="hypothetical_protein[br]Location: 3141398 - 3142744" locus_tag="Strop_2771" id="clusterblast-1_h10_4_20" points="219,90 220,90 225,85 220,80 219,80 219,90 " class="clusterblast-orf"  />
<polygon style="stroke:black; stroke-width:1; fill:#FFFFFF; " description="aminotransferase,_class_I_and_II[br]Location: 3142772 - 3144028" locus_tag="Strop_2772" id="clusterblast-1_h10_4_21" points="225,90 226,90 231,85 226,80 225,80 225,90 " class="clusterblast-orf"  />
<polygon style="stroke:black; stroke-width:1; fill:#FFFFFF; " description="hypothetical_protein[br]Location: 3144025 - 3144972" locus_tag="Strop_2773" id="clusterblast-1_h10_4_22" points="231,90 231,90 236,85 231,80 231,80 231,90 " class="clusterblast-orf"  />
<polygon style="stroke:black; stroke-width:1; fill:#FFFFFF; " description="AMP-dependent_synthetase_and_ligase[br]Location: 3144999 - 3146543" locus_tag="Strop_2774" id="clusterblast-1_h10_4_23" points="236,90 239,90 244,85 239,80 236,80 236,90 " class="clusterblast-orf"  />
<polygon style="stroke:black; stroke-width:1; fill:#FFFFFF; " description="AMP-dependent_synthetase_and_ligase[br]Location: 3146609 - 3148246" locus_tag="Strop_2775" id="clusterblast-1_h10_4_24" points="244,85 249,80 252,80 252,90 249,90 244,85 " class="clusterblast-orf"  />
<polygon style="stroke:black; stroke-width:1; fill:#FFFFFF; " description="hypothetical_protein[br]Location: 3148363 - 3148611" locus_tag="Strop_2776" id="clusterblast-1_h10_4_25" points="252,90 254,85 252,80 252,90 " class="clusterblast-orf"  />
<polygon style="stroke:black; stroke-width:1; fill:#FFFFFF; " description="proline-specific_peptidase[br]Location: 3148774 - 3149694" locus_tag="Strop_2777" id="clusterblast-1_h10_4_26" points="254,85 259,80 259,80 259,90 259,90 254,85 " class="clusterblast-orf"  />
<polygon style="stroke:black; stroke-width:1; fill:#FFFFFF; " description="beta-ketoacyl_synthase[br]Location: 3149691 - 3160826" locus_tag="Strop_2778" id="clusterblast-1_h10_4_27" points="259,85 264,80 313,80 313,90 264,90 259,85 " class="clusterblast-orf"  />
<polygon style="stroke:black; stroke-width:1; fill:rgb(190,190,63); " description="acyl_transferase_domain-containing_protein[br]Location: 3160885 - 3165639&lt;br&gt;&lt;br&gt;&lt;b&gt;BlastP hit with CHAFR746836_0077640.1&lt;/b&gt;&lt;br&gt;Percentage identity: 32%&lt;br&gt;Percentage coverage: 34%&lt;br&gt;BLAST bit score: 436&lt;br&gt;E-value: 1e-123" locus_tag="Strop_2779" id="clusterblast-1_h10_4_28" points="313,85 318,80 336,80 336,90 318,90 313,85 " class="clusterblast-orf"  />
<polygon style="stroke:black; stroke-width:1; fill:rgb(190,190,63); " description="beta-ketoacyl_synthase[br]Location: 3165680 - 3174781&lt;br&gt;&lt;br&gt;&lt;b&gt;BlastP hit with CHAFR746836_0077640.1&lt;/b&gt;&lt;br&gt;Percentage identity: 32%&lt;br&gt;Percentage coverage: 34%&lt;br&gt;BLAST bit score: 432&lt;br&gt;E-value: 2e-120" locus_tag="Strop_2780" id="clusterblast-1_h10_4_29" points="336,85 341,80 380,80 380,90 341,90 336,85 " class="clusterblast-orf"  />
<polygon style="stroke:black; stroke-width:1; fill:#FFFFFF; " description="beta-ketoacyl_synthase[br]Location: 3174833 - 3185224" locus_tag="Strop_2781" id="clusterblast-1_h10_4_30" points="380,85 385,80 430,80 430,90 385,90 380,85 " class="clusterblast-orf"  />
<polygon style="stroke:black; stroke-width:1; fill:#FFFFFF; " description="hypothetical_protein[br]Location: 3185638 - 3186312" locus_tag="Strop_2782" id="clusterblast-1_h10_4_31" points="432,85 436,80 436,90 432,85 " class="clusterblast-orf"  />
<polygon style="stroke:black; stroke-width:1; fill:#FFFFFF; " description="hypothetical_protein[br]Location: 3186353 - 3186697" locus_tag="Strop_2783" id="clusterblast-1_h10_4_32" points="436,85 437,80 437,90 436,85 " class="clusterblast-orf"  />
<polygon style="stroke:black; stroke-width:1; fill:#FFFFFF; " description="hypothetical_protein[br]Location: 3187115 - 3187651" locus_tag="Strop_2785" id="clusterblast-1_h10_4_33" points="439,85 442,80 442,90 439,85 " class="clusterblast-orf"  />
<polygon style="stroke:black; stroke-width:1; fill:#FFFFFF; " description="cytochrome_P450[br]Location: 3187819 - 3189087" locus_tag="Strop_2786" id="clusterblast-1_h10_4_34" points="443,85 448,80 449,80 449,90 448,90 443,85 " class="clusterblast-orf"  />
<polygon style="stroke:black; stroke-width:1; fill:#FFFFFF; " description="AMP-dependent_synthetase_and_ligase[br]Location: 3189084 - 3190640" locus_tag="Strop_2787" id="clusterblast-1_h10_4_35" points="449,85 454,80 456,80 456,90 454,90 449,85 " class="clusterblast-orf"  />
<polygon style="stroke:black; stroke-width:1; fill:#FFFFFF; " description="hypothetical_protein[br]Location: 3190664 - 3191398" locus_tag="Strop_2788" id="clusterblast-1_h10_4_36" points="457,85 460,80 460,90 457,85 " class="clusterblast-orf"  />
<polygon style="stroke:black; stroke-width:1; fill:#FFFFFF; " description="DSBA_oxidoreductase[br]Location: 3191395 - 3192099" locus_tag="Strop_2789" id="clusterblast-1_h10_4_37" points="460,85 464,80 464,90 460,85 " class="clusterblast-orf"  />
<polygon style="stroke:black; stroke-width:1; fill:#FFFFFF; " description="hypothetical_protein[br]Location: 3192096 - 3193034" locus_tag="Strop_2790" id="clusterblast-1_h10_4_38" points="464,85 468,80 468,90 464,85 " class="clusterblast-orf"  />
<polygon style="stroke:black; stroke-width:1; fill:#FFFFFF; " description="alpha/beta_hydrolase_fold[br]Location: 3193050 - 3193838" locus_tag="Strop_2791" id="clusterblast-1_h10_4_39" points="468,85 472,80 472,90 468,85 " class="clusterblast-orf"  />
<polygon style="stroke:black; stroke-width:1; fill:#FFFFFF; " description="beta-ketoacyl_synthase[br]Location: 3193835 - 3194803" locus_tag="Strop_2792" id="clusterblast-1_h10_4_40" points="472,85 477,80 477,80 477,90 477,90 472,85 " class="clusterblast-orf"  />
<polygon style="stroke:black; stroke-width:1; fill:#FFFFFF; " description="beta-ketoacyl_synthase[br]Location: 3194800 - 3195915" locus_tag="Strop_2793" id="clusterblast-1_h10_4_41" points="477,85 482,80 482,80 482,90 482,90 477,85 " class="clusterblast-orf"  />
<polygon style="stroke:black; stroke-width:1; fill:#FFFFFF; " description="beta-ketoacyl_synthase[br]Location: 3195893 - 3197047" locus_tag="Strop_2794" id="clusterblast-1_h10_4_42" points="482,85 487,80 487,80 487,90 487,90 482,85 " class="clusterblast-orf"  />
<polygon style="stroke:black; stroke-width:1; fill:#FFFFFF; " description="beta-ketoacyl_synthase[br]Location: 3197044 - 3198249" locus_tag="Strop_2795" id="clusterblast-1_h10_4_43" points="487,85 492,80 493,80 493,90 492,90 487,85 " class="clusterblast-orf"  />
<polygon style="stroke:black; stroke-width:1; fill:#FFFFFF; " description="phosphopantetheine-binding[br]Location: 3198254 - 3198508" locus_tag="Strop_2796" id="clusterblast-1_h10_4_44" points="493,85 494,80 494,90 493,85 " class="clusterblast-orf"  />
<polygon style="stroke:black; stroke-width:1; fill:#FFFFFF; " description="Beta-hydroxyacyl-(acyl-carrier-protein)[br]Location: 3198505 - 3199095" locus_tag="Strop_2797" id="clusterblast-1_h10_4_45" points="494,85 497,80 497,90 494,85 " class="clusterblast-orf"  />
<polygon style="stroke:black; stroke-width:1; fill:#FFFFFF; " description="Beta-hydroxyacyl-(acyl-carrier-protein)[br]Location: 3199088 - 3199516" locus_tag="Strop_2798" id="clusterblast-1_h10_4_46" points="497,85 499,80 499,90 497,85 " class="clusterblast-orf"  />
<polygon style="stroke:black; stroke-width:1; fill:#FFFFFF; " description="3-oxoacyl-(acyl-carrier-protein)_reductase[br]Location: 3199513 - 3200253" locus_tag="Strop_2799" id="clusterblast-1_h10_4_47" points="499,85 503,80 503,90 499,85 " class="clusterblast-orf"  />
<polygon style="stroke:black; stroke-width:1; fill:#FFFFFF; " description="L-carnitine_dehydratase/bile_acid-inducible[br]Location: 3200337 - 3201602" locus_tag="Strop_2800" id="clusterblast-1_h10_4_48" points="503,85 508,80 509,80 509,90 508,90 503,85 " class="clusterblast-orf"  />
<polygon style="stroke:black; stroke-width:1; fill:#FFFFFF; " description="acetyl-CoA_acetyltransferase[br]Location: 3201608 - 3202759" locus_tag="Strop_2801" id="clusterblast-1_h10_4_49" points="509,85 514,80 515,80 515,90 514,90 509,85 " class="clusterblast-orf"  />
<polygon style="stroke:black; stroke-width:1; fill:#FFFFFF; " description="hypothetical_protein[br]Location: 3202764 - 3202961" locus_tag="Strop_2802" id="clusterblast-1_h10_4_50" points="515,85 516,80 516,90 515,85 " class="clusterblast-orf"  />
<polygon style="stroke:black; stroke-width:1; fill:#FFFFFF; " description="AMP-dependent_synthetase_and_ligase[br]Location: 3203139 - 3204737" locus_tag="Strop_2803" id="clusterblast-1_h10_4_51" points="517,90 520,90 525,85 520,80 517,80 517,90 " class="clusterblast-orf"  />
<polygon style="stroke:black; stroke-width:1; fill:#FFFFFF; " description="FAD_dependent_oxidoreductase[br]Location: 3204734 - 3206128" locus_tag="Strop_2804" id="clusterblast-1_h10_4_52" points="525,90 526,90 531,85 526,80 525,80 525,90 " class="clusterblast-orf"  />
<polygon style="stroke:black; stroke-width:1; fill:#FFFFFF; " description="phosphopantetheine-binding[br]Location: 3206159 - 3206389" locus_tag="Strop_2805" id="clusterblast-1_h10_4_53" points="531,90 533,85 531,80 531,90 " class="clusterblast-orf"  />
<polygon style="stroke:black; stroke-width:1; fill:#FFFFFF; " description="amino_acid_adenylation_domain-containing[br]Location: 3206444 - 3210397" locus_tag="Strop_2806" id="clusterblast-1_h10_4_54" points="533,90 547,90 552,85 547,80 533,80 533,90 " class="clusterblast-orf"  />
<polygon style="stroke:black; stroke-width:1; fill:#FFFFFF; " description="hypothetical_protein[br]Location: 3210483 - 3211484" locus_tag="Strop_2807" id="clusterblast-1_h10_4_55" points="552,85 557,80 557,80 557,90 557,90 552,85 " class="clusterblast-orf"  />
<polygon style="stroke:black; stroke-width:1; fill:#FFFFFF; " description="methyltransferase_type_11[br]Location: 3211652 - 3212479" locus_tag="Strop_2808" id="clusterblast-1_h10_4_56" points="558,90 562,85 558,80 558,90 " class="clusterblast-orf"  />
<polygon style="stroke:black; stroke-width:1; fill:#FFFFFF; " description="hypothetical_protein[br]Location: 3212541 - 3213548" locus_tag="Strop_2809" id="clusterblast-1_h10_4_57" points="562,90 562,90 567,85 562,80 562,80 562,90 " class="clusterblast-orf"  />
<polygon style="stroke:black; stroke-width:1; fill:#FFFFFF; " description="FAD_dependent_oxidoreductase[br]Location: 3213580 - 3215070" locus_tag="Strop_2810" id="clusterblast-1_h10_4_58" points="567,85 572,80 574,80 574,90 572,90 567,85 " class="clusterblast-orf"  />
<polygon style="stroke:black; stroke-width:1; fill:#FFFFFF; " description="glyoxalase/bleomycin_resistance[br]Location: 3215119 - 3215655" locus_tag="Strop_2811" id="clusterblast-1_h10_4_59" points="575,85 577,80 577,90 575,85 " class="clusterblast-orf"  />
<polygon style="stroke:black; stroke-width:1; fill:#FFFFFF; " description="hypothetical_protein[br]Location: 3215729 - 3217105" locus_tag="Strop_2812" id="clusterblast-1_h10_4_60" points="578,90 579,90 584,85 579,80 578,80 578,90 " class="clusterblast-orf"  />
<polygon style="stroke:black; stroke-width:1; fill:#FFFFFF; " description="acyl-CoA_dehydrogenase_domain-containing[br]Location: 3217110 - 3218252" locus_tag="Strop_2813" id="clusterblast-1_h10_4_61" points="584,90 585,90 590,85 585,80 584,80 584,90 " class="clusterblast-orf"  />
<polygon style="stroke:black; stroke-width:1; fill:#FFFFFF; " description="acyl-CoA_dehydrogenase_domain-containing[br]Location: 3218277 - 3219344" locus_tag="Strop_2814" id="clusterblast-1_h10_4_62" points="590,90 590,90 595,85 590,80 590,80 590,90 " class="clusterblast-orf"  />
<polygon style="stroke:black; stroke-width:1; fill:#FFFFFF; " description="O-methyltransferase_family_protein[br]Location: 3219365 - 3220390" locus_tag="Strop_2815" id="clusterblast-1_h10_4_63" points="595,90 595,90 600,85 595,80 595,80 595,90 " class="clusterblast-orf"  />
<polygon style="stroke:black; stroke-width:1; fill:#FFFFFF; " description="AMP-dependent_synthetase_and_ligase[br]Location: 3220387 - 3221997" locus_tag="Strop_2816" id="clusterblast-1_h10_4_64" points="600,90 603,90 608,85 603,80 600,80 600,90 " class="clusterblast-orf"  />
<polygon style="stroke:black; stroke-width:1; fill:#FFFFFF; " description="thioesterase[br]Location: 3222004 - 3222756" locus_tag="Strop_2817" id="clusterblast-1_h10_4_65" points="608,85 612,80 612,90 608,85 " class="clusterblast-orf"  />
<polygon style="stroke:black; stroke-width:1; fill:#FFFFFF; " description="thiazolinyl_imide_reductase[br]Location: 3222756 - 3223883" locus_tag="Strop_2818" id="clusterblast-1_h10_4_66" points="612,85 617,80 617,80 617,90 617,90 612,85 " class="clusterblast-orf"  />
<polygon style="stroke:black; stroke-width:1; fill:#FFFFFF; " description="saccharopine_dehydrogenase[br]Location: 3223880 - 3224956" locus_tag="Strop_2819" id="clusterblast-1_h10_4_67" points="617,85 622,80 622,80 622,90 622,90 617,85 " class="clusterblast-orf"  />
<polygon style="stroke:black; stroke-width:1; fill:#FFFFFF; " description="amino_acid_adenylation_domain-containing[br]Location: 3224953 - 3230157" locus_tag="Strop_2820" id="clusterblast-1_h10_4_68" points="622,85 627,80 647,80 647,90 627,90 622,85 " class="clusterblast-orf"  />
<polygon style="stroke:black; stroke-width:1; fill:#FFFFFF; " description="amino_acid_adenylation_domain-containing[br]Location: 3230154 - 3236678" locus_tag="Strop_2821" id="clusterblast-1_h10_4_69" points="647,85 652,80 679,80 679,90 652,90 647,85 " class="clusterblast-orf"  />
<polygon style="stroke:black; stroke-width:1; fill:#FFFFFF; " description="4'-phosphopantetheinyl_transferase[br]Location: 3236877 - 3237632" locus_tag="Strop_2822" id="clusterblast-1_h10_4_70" points="680,90 683,85 680,80 680,90 " class="clusterblast-orf"  />
<polygon style="stroke:black; stroke-width:1; fill:#FFFFFF; " description="EmrB/QacA_family_drug_resistance_transporter[br]Location: 3237729 - 3239423" locus_tag="Strop_2823" id="clusterblast-1_h10_4_71" points="684,90 687,90 692,85 687,80 684,80 684,90 " class="clusterblast-orf"  />
<polygon style="stroke:black; stroke-width:1; fill:#FFFFFF; " description="glyoxalase/bleomycin_resistance[br]Location: 3239497 - 3239919" locus_tag="Strop_2824" id="clusterblast-1_h10_4_72" points="692,85 694,80 694,90 692,85 " class="clusterblast-orf"  />
<polygon style="stroke:black; stroke-width:1; fill:#FFFFFF; " description="cytochrome_P450[br]Location: 3240153 - 3241445" locus_tag="Strop_2825" id="clusterblast-1_h10_4_73" points="696,85 701,80 702,80 702,90 701,90 696,85 " class="clusterblast-orf"  />
<polygon style="stroke:black; stroke-width:1; fill:#FFFFFF; " description="condensation_domain-containing_protein[br]Location: 3241519 - 3242769" locus_tag="Strop_2826" id="clusterblast-1_h10_4_74" points="702,90 703,90 708,85 703,80 702,80 702,90 " class="clusterblast-orf"  />
<polygon style="stroke:black; stroke-width:1; fill:#FFFFFF; " description="hypothetical_protein[br]Location: 3242818 - 3243177" locus_tag="Strop_2827" id="clusterblast-1_h10_4_75" points="708,90 710,85 708,80 708,90 " class="clusterblast-orf"  />
<polygon style="stroke:black; stroke-width:1; fill:#FFFFFF; " description="hypothetical_protein[br]Location: 3243578 - 3244018" locus_tag="Strop_2828" id="clusterblast-1_h10_4_76" points="712,90 714,85 712,80 712,90 " class="clusterblast-orf"  />
<polygon style="stroke:black; stroke-width:1; fill:#FFFFFF; " description="cytochrome_P450[br]Location: 3244612 - 3245814" locus_tag="Strop_2829" id="clusterblast-1_h10_4_77" points="717,90 718,90 723,85 718,80 717,80 717,90 " class="clusterblast-orf"  />
<polygon style="stroke:black; stroke-width:1; fill:#FFFFFF; " description="O-methyltransferase_family_protein[br]Location: 3245859 - 3246878" locus_tag="Strop_2830" id="clusterblast-1_h10_4_78" points="723,85 728,80 728,80 728,90 728,90 723,85 " class="clusterblast-orf"  />
<polygon style="stroke:black; stroke-width:1; fill:#FFFFFF; " description="hypothetical_protein[br]Location: 3246880 - 3247845" locus_tag="Strop_2831" id="clusterblast-1_h10_4_79" points="728,85 733,80 733,80 733,90 733,90 728,85 " class="clusterblast-orf"  />
<polygon style="stroke:black; stroke-width:1; fill:#FFFFFF; " description="condensation_domain-containing_protein[br]Location: 3247954 - 3249216" locus_tag="Strop_2832" id="clusterblast-1_h10_4_80" points="733,90 734,90 739,85 734,80 733,80 733,90 " class="clusterblast-orf"  />
<polygon style="stroke:black; stroke-width:1; fill:#FFFFFF; " description="alkanesulfonate_monooxygenase[br]Location: 3249424 - 3250527" locus_tag="Strop_2833" id="clusterblast-1_h10_4_81" points="740,90 741,90 746,85 741,80 740,80 740,90 " class="clusterblast-orf"  />
<polygon style="stroke:black; stroke-width:1; fill:#FFFFFF; " description="NADPH-dependent_FMN_reductase[br]Location: 3250524 - 3251177" locus_tag="Strop_2834" id="clusterblast-1_h10_4_82" points="746,90 749,85 746,80 746,90 " class="clusterblast-orf"  />
<polygon style="stroke:black; stroke-width:1; fill:#FFFFFF; " description="phosphopantetheine-binding[br]Location: 3251264 - 3251527" locus_tag="Strop_2835" id="clusterblast-1_h10_4_83" points="749,90 750,85 749,80 749,90 " class="clusterblast-orf"  />
<polygon style="stroke:black; stroke-width:1; fill:#FFFFFF; " description="methyltransferase_type_11[br]Location: 3251682 - 3252770" locus_tag="Strop_2836" id="clusterblast-1_h10_4_84" points="751,85 756,80 756,80 756,90 756,90 751,85 " class="clusterblast-orf"  />
<polygon style="stroke:black; stroke-width:1; fill:#FFFFFF; " description="acyl-CoA_dehydrogenase_type_2[br]Location: 3252839 - 3254038" locus_tag="Strop_2837" id="clusterblast-1_h10_4_85" points="757,90 758,90 763,85 758,80 757,80 757,90 " class="clusterblast-orf"  />
<polygon style="stroke:black; stroke-width:1; fill:rgb(190,63,190); " description="short-chain_dehydrogenase/reductase_SDR[br]Location: 3254276 - 3255085&lt;br&gt;&lt;br&gt;&lt;b&gt;BlastP hit with CHAFR746836_0077610.1&lt;/b&gt;&lt;br&gt;Percentage identity: 32%&lt;br&gt;Percentage coverage: 96%&lt;br&gt;BLAST bit score: 122&lt;br&gt;E-value: 3e-31" locus_tag="Strop_2838" id="clusterblast-1_h10_4_86" points="764,90 768,85 764,80 764,90 " class="clusterblast-orf"  />
<polygon style="stroke:black; stroke-width:1; fill:#FFFFFF; " description="glyoxalase/bleomycin_resistance[br]Location: 3255162 - 3255509" locus_tag="Strop_2839" id="clusterblast-1_h10_4_87" points="768,85 770,80 770,90 768,85 " class="clusterblast-orf"  />
<polygon style="stroke:black; stroke-width:1; fill:#FFFFFF; " description="aldehyde_dehydrogenase[br]Location: 3255659 - 3257125" locus_tag="Strop_2840" id="clusterblast-1_h10_4_88" points="770,90 773,90 778,85 773,80 770,80 770,90 " class="clusterblast-orf"  />
</g>
</svg>
