<svg xmlns="http://www.w3.org/2000/svg" height="230" width="800" version="1.1" y="0" x="0" preserveAspectRatio="none" xmlns:xlink="http://www.w3.org/1999/xlink" viewBox="0 0 800 230"  >
<g class="clusterblast-cluster" label="Query sequence"  >
<text class="clusterblast-acc" y="10" x="5"  >
Query sequence</text>
<line y1="35" x2="778.0" style="stroke:grey; stroke-width:1; " x1="10" y2="35"  />
<polygon style="stroke:black; stroke-width:1; fill:#FFFFFF; " description="unannotated orf[br]Location: 673 - 3787" locus_tag="CHAFR746836_0047790.1" class="clusterblast-orf" points="10,40 48,40 53,35 48,30 10,30 10,40 " id="clusterblast-1_q56_2_0"  />
<polygon style="stroke:black; stroke-width:1; fill:rgb(190,63,63); " description="unannotated orf[br]Location: 5163 - 6824" locus_tag="CHAFR746836_0047800.1" class="clusterblast-orf" points="73,35 78,30 96,30 96,40 78,40 73,35 " id="clusterblast-1_q56_2_1"  />
<polygon style="stroke:black; stroke-width:1; fill:rgb(63,63,190); " description="unannotated orf[br]Location: 7821 - 10682" locus_tag="CHAFR746836_0047810.1" class="clusterblast-orf" points="110,40 145,40 150,35 145,30 110,30 110,40 " id="clusterblast-1_q56_2_2"  />
<polygon style="stroke:black; stroke-width:1; fill:#FFFFFF; " description="unannotated orf[br]Location: 13855 - 14662" locus_tag="CHAFR746836_0047820.1" class="clusterblast-orf" points="195,40 201,40 206,35 201,30 195,30 195,40 " id="clusterblast-1_q56_2_3"  />
<polygon style="stroke:black; stroke-width:1; fill:rgb(63,190,63); " description="unannotated orf[br]Location: 16209 - 17379" locus_tag="CHAFR746836_0047830.1" class="clusterblast-orf" points="228,40 239,40 244,35 239,30 228,30 228,40 " id="clusterblast-1_q56_2_4"  />
<polygon style="stroke:black; stroke-width:1; fill:#FFFFFF; " description="unannotated orf[br]Location: 19067 - 19519" locus_tag="CHAFR746836_0047840.1" class="clusterblast-orf" points="268,40 269,40 274,35 269,30 268,30 268,40 " id="clusterblast-1_q56_2_5"  />
<polygon style="stroke:black; stroke-width:1; fill:#FFFFFF; " description="unannotated orf[br]Location: 25063 - 26142" locus_tag="CHAFR746836_0047850.1" class="clusterblast-orf" points="352,40 362,40 367,35 362,30 352,30 352,40 " id="clusterblast-1_q56_2_6"  />
<polygon style="stroke:black; stroke-width:1; fill:rgb(190,63,190); " description="unannotated orf[br]Location: 27072 - 33543" locus_tag="CHAFR746836_0047860.1" class="clusterblast-orf" points="380,35 385,30 471,30 471,40 385,40 380,35 " id="clusterblast-1_q56_2_7"  />
<polygon style="stroke:black; stroke-width:1; fill:rgb(190,190,63); " description="unannotated orf[br]Location: 35240 - 36153" locus_tag="CHAFR746836_0047870.1" class="clusterblast-orf" points="495,40 503,40 508,35 503,30 495,30 495,40 " id="clusterblast-1_q56_2_8"  />
<polygon style="stroke:black; stroke-width:1; fill:rgb(190,190,190); " description="unannotated orf[br]Location: 36833 - 38621" locus_tag="CHAFR746836_0047880.1" class="clusterblast-orf" points="517,35 522,30 542,30 542,40 522,40 517,35 " id="clusterblast-1_q56_2_9"  />
<polygon style="stroke:black; stroke-width:1; fill:#FFFFFF; " description="unannotated orf[br]Location: 39860 - 40772" locus_tag="CHAFR746836_0047890.1" class="clusterblast-orf" points="560,35 565,30 572,30 572,40 565,40 560,35 " id="clusterblast-1_q56_2_10"  />
<polygon style="stroke:black; stroke-width:1; fill:#FFFFFF; " description="unannotated orf[br]Location: 41162 - 41504" locus_tag="CHAFR746836_0047900.1" class="clusterblast-orf" points="578,40 578,40 583,35 578,30 578,30 578,40 " id="clusterblast-1_q56_2_11"  />
<polygon style="stroke:black; stroke-width:1; fill:#FFFFFF; " description="unannotated orf[br]Location: 47709 - 49836" locus_tag="CHAFR746836_0047910.1" class="clusterblast-orf" points="670,40 695,40 700,35 695,30 670,30 670,40 " id="clusterblast-1_q56_2_12"  />
<polygon style="stroke:black; stroke-width:1; fill:#FFFFFF; " description="unannotated orf[br]Location: 53801 - 55386" locus_tag="CHAFR746836_0047920.1" class="clusterblast-orf" points="755,35 760,30 778,30 778,40 760,40 755,35 " id="clusterblast-1_q56_2_13"  />
</g>
<g class="clusterblast-cluster" description="Grosmannia clavigera kw1407 unplaced genomic scaffold GCSC 1..." label="GL629765.1_c3"  >
<text class="clusterblast-acc" y="60" x="5"  >
GL629765.1_c3</text>
<text class="clusterblast-desc" y="60" x="460.8"  >
Grosmannia clavigera kw1407 unplaced genomic scaffold GCSC 1...</text>
<line y1="85" x2="778.0" style="stroke:grey; stroke-width:1; " x1="10" y2="85"  />
<polygon style="stroke:black; stroke-width:1; fill:#FFFFFF; " description="pab-dependent_poly-specific_ribonuclease[br]Location: 2349582 - 2353844" locus_tag="CMQ_419" id="clusterblast-1_h56_2_0" points="61,90 115,90 120,85 115,80 61,80 61,90 " class="clusterblast-orf"  />
<polygon style="stroke:black; stroke-width:1; fill:#FFFFFF; " description="hypothetical_protein[br]Location: 2342042 - 2348931" locus_tag="CMQ_1728" id="clusterblast-1_h56_2_1" points="129,90 221,90 226,85 221,80 129,80 129,90 " class="clusterblast-orf"  />
<polygon style="stroke:black; stroke-width:1; fill:#FFFFFF; " description="hypothetical_protein[br]Location: 2339681 - 2340884" locus_tag="CMQ_1588" id="clusterblast-1_h56_2_2" points="242,90 254,90 259,85 254,80 242,80 242,90 " class="clusterblast-orf"  />
<polygon style="stroke:black; stroke-width:1; fill:#FFFFFF; " description="nucleotide-binding_protein[br]Location: 2338058 - 2339260" locus_tag="CMQ_1394" id="clusterblast-1_h56_2_3" points="265,85 270,80 282,80 282,90 270,90 265,85 " class="clusterblast-orf"  />
<polygon style="stroke:black; stroke-width:1; fill:#FFFFFF; " description="hypercellular_protein[br]Location: 2336743 - 2337599" locus_tag="CMQ_961" id="clusterblast-1_h56_2_4" points="289,85 294,80 301,80 301,90 294,90 289,85 " class="clusterblast-orf"  />
<polygon style="stroke:black; stroke-width:1; fill:#FFFFFF; " description="vesicle-mediated_transport_protein[br]Location: 2335926 - 2337593" locus_tag="CMQ_954" id="clusterblast-1_h56_2_5" points="289,90 307,90 312,85 307,80 289,80 289,90 " class="clusterblast-orf"  />
<polygon style="stroke:black; stroke-width:1; fill:#FFFFFF; " description="hypothetical_protein[br]Location: 2335380 - 2335805" locus_tag="CMQ_983" id="clusterblast-1_h56_2_6" points="314,85 319,80 320,80 320,90 319,90 314,85 " class="clusterblast-orf"  />
<polygon style="stroke:black; stroke-width:1; fill:#FFFFFF; " description="er_hsp70_chaperone[br]Location: 2331726 - 2334467" locus_tag="CMQ_679" id="clusterblast-1_h56_2_7" points="332,90 366,90 371,85 366,80 332,80 332,90 " class="clusterblast-orf"  />
<polygon style="stroke:black; stroke-width:1; fill:#FFFFFF; " description="a_chain_crystal_structure_of_a_type_3_polyketide[br]Location: 2329372 - 2330773" locus_tag="CMQ_376" id="clusterblast-1_h56_2_8" points="384,90 399,90 404,85 399,80 384,80 384,90 " class="clusterblast-orf"  />
<polygon style="stroke:black; stroke-width:1; fill:#FFFFFF; " description="major_facilitator_superfamily_transporter[br]Location: 2327342 - 2329060" locus_tag="CMQ_1627" id="clusterblast-1_h56_2_9" points="408,85 413,80 433,80 433,90 413,90 408,85 " class="clusterblast-orf"  />
<polygon style="stroke:black; stroke-width:1; fill:#FFFFFF; " description="hypothetical_protein[br]Location: 2326255 - 2326784" locus_tag="CMQ_404" id="clusterblast-1_h56_2_10" points="440,85 445,80 448,80 448,90 445,90 440,85 " class="clusterblast-orf"  />
<polygon style="stroke:black; stroke-width:1; fill:#FFFFFF; " description="fructose-bisphosphatase[br]Location: 2323925 - 2325037" locus_tag="CMQ_1371" id="clusterblast-1_h56_2_11" points="465,85 470,80 480,80 480,90 470,90 465,85 " class="clusterblast-orf"  />
<polygon style="stroke:black; stroke-width:1; fill:#FFFFFF; " description="peroxisomal_biogenesis_factor[br]Location: 2321803 - 2322693" locus_tag="CMQ_1536" id="clusterblast-1_h56_2_12" points="498,90 505,90 510,85 505,80 498,80 498,90 " class="clusterblast-orf"  />
<polygon style="stroke:black; stroke-width:1; fill:rgb(190,63,190); " description="nucleoporin_nup189[br]Location: 2314528 - 2321331&lt;br&gt;&lt;br&gt;&lt;b&gt;BlastP hit with CHAFR746836_0047860.1&lt;/b&gt;&lt;br&gt;Percentage identity: 37%&lt;br&gt;Percentage coverage: 94%&lt;br&gt;BLAST bit score: 906&lt;br&gt;E-value: 0.0" locus_tag="CMQ_713" id="clusterblast-1_h56_2_13" points="517,85 522,80 612,80 612,90 522,90 517,85 " class="clusterblast-orf"  />
<polygon style="stroke:black; stroke-width:1; fill:rgb(190,190,190); " description="eh_domain_protein[br]Location: 2311165 - 2313062&lt;br&gt;&lt;br&gt;&lt;b&gt;BlastP hit with CHAFR746836_0047880.1&lt;/b&gt;&lt;br&gt;Percentage identity: 60%&lt;br&gt;Percentage coverage: 95%&lt;br&gt;BLAST bit score: 543&lt;br&gt;E-value: 0.0" locus_tag="CMQ_1478" id="clusterblast-1_h56_2_14" points="633,85 638,80 660,80 660,90 638,90 633,85 " class="clusterblast-orf"  />
<polygon style="stroke:black; stroke-width:1; fill:#FFFFFF; " description="histone_acetyltransferase_mst2[br]Location: 2306412 - 2310075" locus_tag="CMQ_1517" id="clusterblast-1_h56_2_15" points="675,85 680,80 726,80 726,90 680,90 675,85 " class="clusterblast-orf"  />
</g>
</svg>
