<svg xmlns="http://www.w3.org/2000/svg" height="230" width="800" version="1.1" y="0" x="0" preserveAspectRatio="none" xmlns:xlink="http://www.w3.org/1999/xlink" viewBox="0 0 800 230"  >
<g class="clusterblast-cluster" label="Query sequence"  >
<text class="clusterblast-acc" y="10" x="5"  >
Query sequence</text>
<line y1="35" x2="778.0" style="stroke:grey; stroke-width:1; " x1="10" y2="35"  />
<polygon style="stroke:black; stroke-width:1; fill:rgb(169,42,42); " description="unannotated orf[br]Location: 42361 - 45359" locus_tag="CHAFR746836_0094690.1" class="clusterblast-orf" points="10,35 15,30 30,30 30,40 15,40 10,35 " id="clusterblast-1_q27_4_0"  />
<polygon style="stroke:black; stroke-width:1; fill:#FFFFFF; " description="unannotated orf[br]Location: 45759 - 47601" locus_tag="CHAFR746836_0094700.1" class="clusterblast-orf" points="32,40 40,40 45,35 40,30 32,30 32,40 " id="clusterblast-1_q27_4_1"  />
<polygon style="stroke:black; stroke-width:1; fill:#FFFFFF; " description="unannotated orf[br]Location: 49113 - 50656" locus_tag="CHAFR746836_0094710.1" class="clusterblast-orf" points="55,35 60,30 65,30 65,40 60,40 55,35 " id="clusterblast-1_q27_4_2"  />
<polygon style="stroke:black; stroke-width:1; fill:#FFFFFF; " description="unannotated orf[br]Location: 51961 - 53519" locus_tag="CHAFR746836_0094720.1" class="clusterblast-orf" points="74,35 79,30 84,30 84,40 79,40 74,35 " id="clusterblast-1_q27_4_3"  />
<polygon style="stroke:black; stroke-width:1; fill:rgb(42,169,42); " description="unannotated orf[br]Location: 61574 - 67323" locus_tag="CHAFR746836_0094730.1" class="clusterblast-orf" points="138,35 143,30 177,30 177,40 143,40 138,35 " id="clusterblast-1_q27_4_4"  />
<polygon style="stroke:black; stroke-width:1; fill:rgb(42,169,212); " description="unannotated orf[br]Location: 70255 - 75654" locus_tag="CHAFR746836_0094740.1" class="clusterblast-orf" points="196,40 228,40 233,35 228,30 196,30 196,40 " id="clusterblast-1_q27_4_5"  />
<polygon style="stroke:black; stroke-width:1; fill:rgb(169,169,42); " description="unannotated orf[br]Location: 88624 - 90116" locus_tag="CHAFR746836_0094750.1" class="clusterblast-orf" points="320,35 325,30 330,30 330,40 325,40 320,35 " id="clusterblast-1_q27_4_6"  />
<polygon style="stroke:black; stroke-width:1; fill:#FFFFFF; " description="unannotated orf[br]Location: 91304 - 92309" locus_tag="CHAFR746836_0094760.1" class="clusterblast-orf" points="338,40 339,40 344,35 339,30 338,30 338,40 " id="clusterblast-1_q27_4_7"  />
<polygon style="stroke:black; stroke-width:1; fill:#FFFFFF; " description="unannotated orf[br]Location: 92407 - 93918" locus_tag="CHAFR746836_0094770.1" class="clusterblast-orf" points="345,35 350,30 355,30 355,40 350,40 345,35 " id="clusterblast-1_q27_4_8"  />
<polygon style="stroke:black; stroke-width:1; fill:rgb(169,42,127); " description="unannotated orf[br]Location: 94558 - 96160" locus_tag="CHAFR746836_0094780.1" class="clusterblast-orf" points="359,40 365,40 370,35 365,30 359,30 359,40 " id="clusterblast-1_q27_4_9"  />
<polygon style="stroke:black; stroke-width:1; fill:#FFFFFF; " description="unannotated orf[br]Location: 96488 - 97143" locus_tag="CHAFR746836_0094790.1" class="clusterblast-orf" points="372,35 377,30 377,30 377,40 377,40 372,35 " id="clusterblast-1_q27_4_10"  />
<polygon style="stroke:black; stroke-width:1; fill:#FFFFFF; " description="unannotated orf[br]Location: 99047 - 101039" locus_tag="CHAFR746836_0094800.1" class="clusterblast-orf" points="389,40 398,40 403,35 398,30 389,30 389,40 " id="clusterblast-1_q27_4_11"  />
<polygon style="stroke:black; stroke-width:1; fill:#FFFFFF; " description="unannotated orf[br]Location: 105913 - 106563" locus_tag="CHAFR746836_0094810.1" class="clusterblast-orf" points="435,35 440,30 440,30 440,40 440,40 435,35 " id="clusterblast-1_q27_4_12"  />
<polygon style="stroke:black; stroke-width:1; fill:#FFFFFF; " description="unannotated orf[br]Location: 108528 - 112083" locus_tag="CHAFR746836_0094820.1" class="clusterblast-orf" points="453,40 472,40 477,35 472,30 453,30 453,40 " id="clusterblast-1_q27_4_13"  />
<polygon style="stroke:black; stroke-width:1; fill:rgb(42,42,212); " description="unannotated orf[br]Location: 112908 - 114711" locus_tag="CHAFR746836_0094830.1" class="clusterblast-orf" points="482,35 487,30 494,30 494,40 487,40 482,35 " id="clusterblast-1_q27_4_14"  />
<polygon style="stroke:black; stroke-width:1; fill:rgb(169,169,212); " description="unannotated orf[br]Location: 115507 - 115979" locus_tag="CHAFR746836_0094840.1" class="clusterblast-orf" points="500,40 503,35 500,30 500,40 " id="clusterblast-1_q27_4_15"  />
<polygon style="stroke:black; stroke-width:1; fill:rgb(42,169,127); " description="unannotated orf[br]Location: 116099 - 117436" locus_tag="CHAFR746836_0094850.1" class="clusterblast-orf" points="504,35 509,30 513,30 513,40 509,40 504,35 " id="clusterblast-1_q27_4_16"  />
<polygon style="stroke:black; stroke-width:1; fill:#FFFFFF; " description="unannotated orf[br]Location: 117682 - 118147" locus_tag="CHAFR746836_0094860.1" class="clusterblast-orf" points="514,40 518,35 514,30 514,40 " id="clusterblast-1_q27_4_17"  />
<polygon style="stroke:black; stroke-width:1; fill:#FFFFFF; " description="unannotated orf[br]Location: 119597 - 120815" locus_tag="CHAFR746836_0094870.1" class="clusterblast-orf" points="527,35 532,30 535,30 535,40 532,40 527,35 " id="clusterblast-1_q27_4_18"  />
<polygon style="stroke:black; stroke-width:1; fill:#FFFFFF; " description="unannotated orf[br]Location: 121630 - 122020" locus_tag="CHAFR746836_0094880.1" class="clusterblast-orf" points="541,40 543,35 541,30 541,40 " id="clusterblast-1_q27_4_19"  />
<polygon style="stroke:black; stroke-width:1; fill:#FFFFFF; " description="unannotated orf[br]Location: 122290 - 123684" locus_tag="CHAFR746836_0094890.1" class="clusterblast-orf" points="545,40 550,40 555,35 550,30 545,30 545,40 " id="clusterblast-1_q27_4_20"  />
<polygon style="stroke:black; stroke-width:1; fill:#FFFFFF; " description="unannotated orf[br]Location: 124088 - 124999" locus_tag="CHAFR746836_0094900.1" class="clusterblast-orf" points="557,35 562,30 563,30 563,40 562,40 557,35 " id="clusterblast-1_q27_4_21"  />
<polygon style="stroke:black; stroke-width:1; fill:#FFFFFF; " description="unannotated orf[br]Location: 125439 - 126681" locus_tag="CHAFR746836_0094910.1" class="clusterblast-orf" points="566,40 570,40 575,35 570,30 566,30 566,40 " id="clusterblast-1_q27_4_22"  />
<polygon style="stroke:black; stroke-width:1; fill:#FFFFFF; " description="unannotated orf[br]Location: 127006 - 130058" locus_tag="CHAFR746836_0094920.1" class="clusterblast-orf" points="577,35 582,30 597,30 597,40 582,40 577,35 " id="clusterblast-1_q27_4_23"  />
<polygon style="stroke:black; stroke-width:1; fill:#FFFFFF; " description="unannotated orf[br]Location: 132463 - 134428" locus_tag="CHAFR746836_0094930.1" class="clusterblast-orf" points="613,35 618,30 627,30 627,40 618,40 613,35 " id="clusterblast-1_q27_4_24"  />
<polygon style="stroke:black; stroke-width:1; fill:rgb(169,42,212); " description="unannotated orf[br]Location: 137446 - 138588" locus_tag="CHAFR746836_0094940.2" class="clusterblast-orf" points="647,35 652,30 655,30 655,40 652,40 647,35 " id="clusterblast-1_q27_4_25"  />
<polygon style="stroke:black; stroke-width:1; fill:rgb(42,42,127); " description="unannotated orf[br]Location: 137501 - 138588" locus_tag="CHAFR746836_0094940.1" class="clusterblast-orf" points="647,35 652,30 655,30 655,40 652,40 647,35 " id="clusterblast-1_q27_4_26"  />
<polygon style="stroke:black; stroke-width:1; fill:#FFFFFF; " description="unannotated orf[br]Location: 154744 - 156934" locus_tag="CHAFR746836_0094950.1" class="clusterblast-orf" points="763,40 773,40 778,35 773,30 763,30 763,40 " id="clusterblast-1_q27_4_27"  />
</g>
<g class="clusterblast-cluster" description="Achromobacter xylosoxidans AXX-A contig00080, whole geno..." label="AFRQ01000070.1_c1"  >
<text class="clusterblast-acc" y="60" x="5"  >
AFRQ01000070.1_c1</text>
<text class="clusterblast-desc" y="60" x="460.8"  >
Achromobacter xylosoxidans AXX-A contig00080, whole geno...</text>
<line y1="85" x2="778.0" style="stroke:grey; stroke-width:1; " x1="10" y2="85"  />
<polygon style="stroke:black; stroke-width:1; fill:#FFFFFF; " description="hypothetical_protein[br]Location: 35857 - 36285" locus_tag="AXXA_18692" id="clusterblast-1_h27_4_0" points="244,85 246,80 246,90 244,85 " class="clusterblast-orf"  />
<polygon style="stroke:black; stroke-width:1; fill:#FFFFFF; " description="hypothetical_protein[br]Location: 36345 - 36680" locus_tag="AXXA_18697" id="clusterblast-1_h27_4_1" points="247,85 249,80 249,90 247,85 " class="clusterblast-orf"  />
<polygon style="stroke:black; stroke-width:1; fill:#FFFFFF; " description="hypothetical_protein[br]Location: 37001 - 37345" locus_tag="AXXA_18702" id="clusterblast-1_h27_4_2" points="251,90 253,85 251,80 251,90 " class="clusterblast-orf"  />
<polygon style="stroke:black; stroke-width:1; fill:#FFFFFF; " description="pyridine_nucleotide-disulfide_oxidoreductase[br]Location: 37564 - 38874" locus_tag="AXXA_18707" id="clusterblast-1_h27_4_3" points="255,90 259,90 264,85 259,80 255,80 255,90 " class="clusterblast-orf"  />
<polygon style="stroke:black; stroke-width:1; fill:#FFFFFF; " description="hypothetical_protein[br]Location: 38856 - 39257" locus_tag="AXXA_18712" id="clusterblast-1_h27_4_4" points="264,85 266,80 266,90 264,85 " class="clusterblast-orf"  />
<polygon style="stroke:black; stroke-width:1; fill:#FFFFFF; " description="hypothetical_protein[br]Location: 39318 - 39677" locus_tag="AXXA_18717" id="clusterblast-1_h27_4_5" points="267,85 269,80 269,90 267,85 " class="clusterblast-orf"  />
<polygon style="stroke:black; stroke-width:1; fill:#FFFFFF; " description="entericidin_EcnA/B_family_protein_2[br]Location: 39802 - 39933" locus_tag="AXXA_18722" id="clusterblast-1_h27_4_6" points="270,90 271,85 270,80 270,90 " class="clusterblast-orf"  />
<polygon style="stroke:black; stroke-width:1; fill:#FFFFFF; " description="hypothetical_protein[br]Location: 40065 - 40490" locus_tag="AXXA_18727" id="clusterblast-1_h27_4_7" points="272,90 275,85 272,80 272,90 " class="clusterblast-orf"  />
<polygon style="stroke:black; stroke-width:1; fill:#FFFFFF; " description="membrane_protein_18[br]Location: 40491 - 40904" locus_tag="AXXA_18732" id="clusterblast-1_h27_4_8" points="275,90 277,85 275,80 275,90 " class="clusterblast-orf"  />
<polygon style="stroke:black; stroke-width:1; fill:#FFFFFF; " description="aspartate_carbamoyltransferase[br]Location: 41005 - 42297" locus_tag="AXXA_18737" id="clusterblast-1_h27_4_9" points="278,90 282,90 287,85 282,80 278,80 278,90 " class="clusterblast-orf"  />
<polygon style="stroke:black; stroke-width:1; fill:#FFFFFF; " description="GGDEF_domain-containing_diguanylate_cyclase_4[br]Location: 42429 - 43841" locus_tag="AXXA_18742" id="clusterblast-1_h27_4_10" points="288,90 292,90 297,85 292,80 288,80 288,90 " class="clusterblast-orf"  />
<polygon style="stroke:black; stroke-width:1; fill:#FFFFFF; " description="recombination_associated_protein[br]Location: 43923 - 44822" locus_tag="AXXA_18747" id="clusterblast-1_h27_4_11" points="298,85 303,80 304,80 304,90 303,90 298,85 " class="clusterblast-orf"  />
<polygon style="stroke:black; stroke-width:1; fill:#FFFFFF; " description="membrane_protein_19[br]Location: 44974 - 45183" locus_tag="AXXA_18752" id="clusterblast-1_h27_4_12" points="305,90 306,85 305,80 305,90 " class="clusterblast-orf"  />
<polygon style="stroke:black; stroke-width:1; fill:#FFFFFF; " description="sugar_transporter_family_protein_7[br]Location: 45570 - 47231" locus_tag="AXXA_18757" id="clusterblast-1_h27_4_13" points="309,85 314,80 320,80 320,90 314,90 309,85 " class="clusterblast-orf"  />
<polygon style="stroke:black; stroke-width:1; fill:#FFFFFF; " description="two-component_system_histidine_kinase[br]Location: 47545 - 48993" locus_tag="AXXA_18762" id="clusterblast-1_h27_4_14" points="322,85 327,80 332,80 332,90 327,90 322,85 " class="clusterblast-orf"  />
<polygon style="stroke:black; stroke-width:1; fill:#FFFFFF; " description="transcriptional_regulator_TctD_3[br]Location: 49037 - 49726" locus_tag="AXXA_18767" id="clusterblast-1_h27_4_15" points="332,85 336,80 336,90 332,85 " class="clusterblast-orf"  />
<polygon style="stroke:black; stroke-width:1; fill:#FFFFFF; " description="recombinase_A[br]Location: 50099 - 51163" locus_tag="AXXA_18772" id="clusterblast-1_h27_4_16" points="339,90 341,90 346,85 341,80 339,80 339,90 " class="clusterblast-orf"  />
<polygon style="stroke:black; stroke-width:1; fill:#FFFFFF; " description="recombination_regulator_RecX[br]Location: 51263 - 52015" locus_tag="AXXA_18777" id="clusterblast-1_h27_4_17" points="347,90 347,90 352,85 347,80 347,80 347,90 " class="clusterblast-orf"  />
<polygon style="stroke:black; stroke-width:1; fill:#FFFFFF; " description="HTH-type_transcriptional_regulator_MetR_1[br]Location: 52099 - 53016" locus_tag="AXXA_18782" id="clusterblast-1_h27_4_18" points="352,85 357,80 359,80 359,90 357,90 352,85 " class="clusterblast-orf"  />
<polygon style="stroke:black; stroke-width:1; fill:#FFFFFF; " description="5-methyltetrahydropteroyltriglutamate--[br]Location: 53212 - 55509" locus_tag="AXXA_18787" id="clusterblast-1_h27_4_19" points="360,90 370,90 375,85 370,80 360,80 360,90 " class="clusterblast-orf"  />
<polygon style="stroke:black; stroke-width:1; fill:#FFFFFF; " description="amino_acid_adenylation_domain-containing_protein[br]Location: 55697 - 59668" locus_tag="AXXA_18792" id="clusterblast-1_h27_4_20" points="376,90 398,90 403,85 398,80 376,80 376,90 " class="clusterblast-orf"  />
<polygon style="stroke:black; stroke-width:1; fill:#FFFFFF; " description="hypothetical_protein[br]Location: 59868 - 60413" locus_tag="AXXA_18797" id="clusterblast-1_h27_4_21" points="404,90 408,85 404,80 404,90 " class="clusterblast-orf"  />
<polygon style="stroke:black; stroke-width:1; fill:#FFFFFF; " description="succinyl-CoA_synthetase_subunit_beta[br]Location: 60424 - 61584" locus_tag="AXXA_18802" id="clusterblast-1_h27_4_22" points="408,90 411,90 416,85 411,80 408,80 408,90 " class="clusterblast-orf"  />
<polygon style="stroke:black; stroke-width:1; fill:rgb(169,42,42); " description="succinyl-CoA_synthetase_subunit_alpha[br]Location: 61688 - 62569&lt;br&gt;&lt;br&gt;&lt;b&gt;BlastP hit with CHAFR746836_0094690.1&lt;/b&gt;&lt;br&gt;Percentage identity: 56%&lt;br&gt;Percentage coverage: 39%&lt;br&gt;BLAST bit score: 320&lt;br&gt;E-value: 1e-101" locus_tag="AXXA_18807" id="clusterblast-1_h27_4_23" points="417,90 418,90 423,85 418,80 417,80 417,90 " class="clusterblast-orf"  />
<polygon style="stroke:black; stroke-width:1; fill:#FFFFFF; " description="integral_membrane_protein_TerC_family_protein_2[br]Location: 62816 - 63514" locus_tag="AXXA_18812" id="clusterblast-1_h27_4_24" points="424,90 424,90 429,85 424,80 424,80 424,90 " class="clusterblast-orf"  />
<polygon style="stroke:black; stroke-width:1; fill:#FFFFFF; " description="integral_membrane_protein_TerC_family_protein_3[br]Location: 63630 - 64349" locus_tag="AXXA_18817" id="clusterblast-1_h27_4_25" points="430,90 434,85 430,80 430,90 " class="clusterblast-orf"  />
<polygon style="stroke:black; stroke-width:1; fill:#FFFFFF; " description="membrane_protein_20[br]Location: 64336 - 64461" locus_tag="AXXA_18822" id="clusterblast-1_h27_4_26" points="434,90 435,85 434,80 434,90 " class="clusterblast-orf"  />
<polygon style="stroke:black; stroke-width:1; fill:#FFFFFF; " description="porphobilinogen_deaminase[br]Location: 64486 - 65415" locus_tag="AXXA_18827" id="clusterblast-1_h27_4_27" points="435,90 437,90 442,85 437,80 435,80 435,90 " class="clusterblast-orf"  />
<polygon style="stroke:black; stroke-width:1; fill:#FFFFFF; " description="putative_uroporphyrinogen-III_synthase[br]Location: 65415 - 66227" locus_tag="AXXA_18832" id="clusterblast-1_h27_4_28" points="442,90 442,90 447,85 442,80 442,80 442,90 " class="clusterblast-orf"  />
<polygon style="stroke:black; stroke-width:1; fill:#FFFFFF; " description="uroporphyrin-III_C-methyltransferase[br]Location: 66265 - 67455" locus_tag="AXXA_18837" id="clusterblast-1_h27_4_29" points="447,90 450,90 455,85 450,80 447,80 447,90 " class="clusterblast-orf"  />
<polygon style="stroke:black; stroke-width:1; fill:#FFFFFF; " description="HemY_protein[br]Location: 67461 - 69068" locus_tag="AXXA_18842" id="clusterblast-1_h27_4_30" points="455,90 461,90 466,85 461,80 455,80 455,90 " class="clusterblast-orf"  />
<polygon style="stroke:black; stroke-width:1; fill:#FFFFFF; " description="hypothetical_protein[br]Location: 69081 - 69245" locus_tag="AXXA_18847" id="clusterblast-1_h27_4_31" points="466,85 467,80 467,90 466,85 " class="clusterblast-orf"  />
<polygon style="stroke:black; stroke-width:1; fill:#FFFFFF; " description="hypothetical_protein[br]Location: 69267 - 69584" locus_tag="AXXA_18852" id="clusterblast-1_h27_4_32" points="467,85 470,80 470,90 467,85 " class="clusterblast-orf"  />
<polygon style="stroke:black; stroke-width:1; fill:#FFFFFF; " description="DeoR-like_helix-turn-helix_domain-containing[br]Location: 69631 - 70449" locus_tag="AXXA_18857" id="clusterblast-1_h27_4_33" points="470,85 475,80 475,80 475,90 475,90 470,85 " class="clusterblast-orf"  />
<polygon style="stroke:black; stroke-width:1; fill:rgb(169,42,212); " description="3-oxoacyl-[acyl-carrier-protein]_reductase_4[br]Location: 70482 - 71222&lt;br&gt;&lt;br&gt;&lt;b&gt;BlastP hit with CHAFR746836_0094940.2&lt;/b&gt;&lt;br&gt;Percentage identity: 32%&lt;br&gt;Percentage coverage: 65%&lt;br&gt;BLAST bit score: 62&lt;br&gt;E-value: 2e-10&lt;br&gt;&lt;br&gt;&lt;b&gt;BlastP hit with CHAFR746836_0094940.1&lt;/b&gt;&lt;br&gt;Percentage identity: 32%&lt;br&gt;Percentage coverage: 66%&lt;br&gt;BLAST bit score: 62&lt;br&gt;E-value: 2e-10" locus_tag="AXXA_18862" id="clusterblast-1_h27_4_34" points="476,85 481,80 481,80 481,90 481,90 476,85 " class="clusterblast-orf"  />
<polygon style="stroke:black; stroke-width:1; fill:#FFFFFF; " description="extracellular_ligand-binding_receptor_2[br]Location: 71243 - 72454" locus_tag="AXXA_18867" id="clusterblast-1_h27_4_35" points="481,85 486,80 489,80 489,90 486,90 481,85 " class="clusterblast-orf"  />
<polygon style="stroke:black; stroke-width:1; fill:#FFFFFF; " description="anti-sigma_factor,_ChrR[br]Location: 72546 - 72944" locus_tag="AXXA_18872" id="clusterblast-1_h27_4_36" points="489,85 492,80 492,90 489,85 " class="clusterblast-orf"  />
<polygon style="stroke:black; stroke-width:1; fill:#FFFFFF; " description="gluconate_5-dehydrogenase_2[br]Location: 73163 - 73942" locus_tag="AXXA_18877" id="clusterblast-1_h27_4_37" points="494,90 494,90 499,85 494,80 494,80 494,90 " class="clusterblast-orf"  />
<polygon style="stroke:black; stroke-width:1; fill:#FFFFFF; " description="ABC_transporter_family_protein_29[br]Location: 73953 - 74714" locus_tag="AXXA_18882" id="clusterblast-1_h27_4_38" points="499,90 499,90 504,85 499,80 499,80 499,90 " class="clusterblast-orf"  />
<polygon style="stroke:black; stroke-width:1; fill:#FFFFFF; " description="ABC_transporter_family_protein_30[br]Location: 74714 - 75406" locus_tag="AXXA_18887" id="clusterblast-1_h27_4_39" points="504,90 504,90 509,85 504,80 504,80 504,90 " class="clusterblast-orf"  />
<polygon style="stroke:black; stroke-width:1; fill:#FFFFFF; " description="inner-membrane_translocator_24[br]Location: 75420 - 77297" locus_tag="AXXA_18892" id="clusterblast-1_h27_4_40" points="509,90 516,90 521,85 516,80 509,80 509,90 " class="clusterblast-orf"  />
<polygon style="stroke:black; stroke-width:1; fill:#FFFFFF; " description="stress_responsive_A/B_barrel_domain-containing[br]Location: 77297 - 77599" locus_tag="AXXA_18897" id="clusterblast-1_h27_4_41" points="521,90 523,85 521,80 521,90 " class="clusterblast-orf"  />
<polygon style="stroke:black; stroke-width:1; fill:#FFFFFF; " description="fumarylacetoacetate_(FAA)_hydrolase_family[br]Location: 77683 - 78378" locus_tag="AXXA_18902" id="clusterblast-1_h27_4_42" points="524,90 524,90 529,85 524,80 524,80 524,90 " class="clusterblast-orf"  />
<polygon style="stroke:black; stroke-width:1; fill:#FFFFFF; " description="entericidin_EcnA/B_family_protein_3[br]Location: 78421 - 78552" locus_tag="AXXA_18907" id="clusterblast-1_h27_4_43" points="529,90 530,85 529,80 529,90 " class="clusterblast-orf"  />
<polygon style="stroke:black; stroke-width:1; fill:#FFFFFF; " description="PhoH-like_family_protein_1[br]Location: 78629 - 80329" locus_tag="AXXA_18912" id="clusterblast-1_h27_4_44" points="530,85 535,80 542,80 542,90 535,90 530,85 " class="clusterblast-orf"  />
</g>
</svg>
