<svg xmlns="http://www.w3.org/2000/svg" height="230" width="800" version="1.1" y="0" x="0" preserveAspectRatio="none" xmlns:xlink="http://www.w3.org/1999/xlink" viewBox="0 0 800 230"  >
<g class="clusterblast-cluster" label="Query sequence"  >
<text class="clusterblast-acc" y="10" x="5"  >
Query sequence</text>
<line y1="35" x2="778.0" style="stroke:grey; stroke-width:1; " x1="10" y2="35"  />
<polygon style="stroke:black; stroke-width:1; fill:rgb(190,63,63); " description="unannotated orf[br]Location: 74290 - 75458" locus_tag="CHAFR746836_0084510.1" class="clusterblast-orf" points="245,40 261,40 266,35 261,30 245,30 245,40 " id="clusterblast-1_q15_9_0"  />
<polygon style="stroke:black; stroke-width:1; fill:#FFFFFF; " description="unannotated orf[br]Location: 75669 - 76875" locus_tag="CHAFR746836_0084520.1" class="clusterblast-orf" points="269,35 274,30 291,30 291,40 274,40 269,35 " id="clusterblast-1_q15_9_1"  />
<polygon style="stroke:black; stroke-width:1; fill:rgb(63,63,190); " description="unannotated orf[br]Location: 78561 - 80604" locus_tag="CHAFR746836_0084530.1" class="clusterblast-orf" points="322,35 327,30 359,30 359,40 327,40 322,35 " id="clusterblast-1_q15_9_2"  />
<polygon style="stroke:black; stroke-width:1; fill:rgb(63,190,63); " description="unannotated orf[br]Location: 81404 - 83288" locus_tag="CHAFR746836_0084540.1" class="clusterblast-orf" points="373,40 402,40 407,35 402,30 373,30 373,40 " id="clusterblast-1_q15_9_3"  />
<polygon style="stroke:black; stroke-width:1; fill:rgb(190,63,190); " description="unannotated orf[br]Location: 83676 - 85677" locus_tag="CHAFR746836_0084550.1" class="clusterblast-orf" points="415,40 446,40 451,35 446,30 415,30 415,40 " id="clusterblast-1_q15_9_4"  />
<polygon style="stroke:black; stroke-width:1; fill:rgb(190,190,63); " description="unannotated orf[br]Location: 86720 - 88095" locus_tag="CHAFR746836_0084560.1" class="clusterblast-orf" points="470,40 490,40 495,35 490,30 470,30 470,40 " id="clusterblast-1_q15_9_5"  />
<polygon style="stroke:black; stroke-width:1; fill:#FFFFFF; " description="unannotated orf[br]Location: 88452 - 90694" locus_tag="CHAFR746836_0084570.1" class="clusterblast-orf" points="501,35 506,30 542,30 542,40 506,40 501,35 " id="clusterblast-1_q15_9_6"  />
</g>
<g class="clusterblast-cluster" description="Arthrobotrys oligospora ATCC 24927 contig00015, whole ge..." label="ADOT01000006.1_c1"  >
<text class="clusterblast-acc" y="60" x="5"  >
ADOT01000006.1_c1</text>
<text class="clusterblast-desc" y="60" x="460.8"  >
Arthrobotrys oligospora ATCC 24927 contig00015, whole ge...</text>
<line y1="85" x2="778.0" style="stroke:grey; stroke-width:1; " x1="10" y2="85"  />
<polygon style="stroke:black; stroke-width:1; fill:#FFFFFF; " description="hypothetical_protein[br]Location: 704272 - 710487" locus_tag="AOL_s00004g592" id="clusterblast-1_h15_9_0" points="10,90 117,90 122,85 117,80 10,80 10,90 " class="clusterblast-orf"  />
<polygon style="stroke:black; stroke-width:1; fill:#FFFFFF; " description="hypothetical_protein[br]Location: 702292 - 703084" locus_tag="AOL_s00004g591" id="clusterblast-1_h15_9_1" points="144,90 153,90 158,85 153,80 144,80 144,90 " class="clusterblast-orf"  />
<polygon style="stroke:black; stroke-width:1; fill:#FFFFFF; " description="hypothetical_protein[br]Location: 701077 - 701664" locus_tag="AOL_s00004g590" id="clusterblast-1_h15_9_2" points="169,85 174,80 180,80 180,90 174,90 169,85 " class="clusterblast-orf"  />
<polygon style="stroke:black; stroke-width:1; fill:#FFFFFF; " description="hypothetical_protein[br]Location: 696492 - 696742" locus_tag="AOL_s00004g589" id="clusterblast-1_h15_9_3" points="258,85 263,80 263,80 263,90 263,90 258,85 " class="clusterblast-orf"  />
<polygon style="stroke:black; stroke-width:1; fill:#FFFFFF; " description="hypothetical_protein[br]Location: 694088 - 695502" locus_tag="AOL_s00004g588" id="clusterblast-1_h15_9_4" points="281,90 302,90 307,85 302,80 281,80 281,90 " class="clusterblast-orf"  />
<polygon style="stroke:black; stroke-width:1; fill:#FFFFFF; " description="hypothetical_protein[br]Location: 688681 - 690998" locus_tag="AOL_s00004g587" id="clusterblast-1_h15_9_5" points="362,85 367,80 404,80 404,90 367,90 362,85 " class="clusterblast-orf"  />
<polygon style="stroke:black; stroke-width:1; fill:rgb(63,190,63); " description="hypothetical_protein[br]Location: 685186 - 687415&lt;br&gt;&lt;br&gt;&lt;b&gt;BlastP hit with CHAFR746836_0084540.1&lt;/b&gt;&lt;br&gt;Percentage identity: 42%&lt;br&gt;Percentage coverage: 108%&lt;br&gt;BLAST bit score: 438&lt;br&gt;E-value: 7e-145" locus_tag="AOL_s00004g586" id="clusterblast-1_h15_9_6" points="427,90 463,90 468,85 463,80 427,80 427,90 " class="clusterblast-orf"  />
<polygon style="stroke:black; stroke-width:1; fill:rgb(190,63,190); " description="hypothetical_protein[br]Location: 681620 - 683779&lt;br&gt;&lt;br&gt;&lt;b&gt;BlastP hit with CHAFR746836_0084550.1&lt;/b&gt;&lt;br&gt;Percentage identity: 56%&lt;br&gt;Percentage coverage: 96%&lt;br&gt;BLAST bit score: 640&lt;br&gt;E-value: 0.0" locus_tag="AOL_s00004g585" id="clusterblast-1_h15_9_7" points="493,90 527,90 532,85 527,80 493,80 493,90 " class="clusterblast-orf"  />
<polygon style="stroke:black; stroke-width:1; fill:#FFFFFF; " description="hypothetical_protein[br]Location: 678304 - 680148" locus_tag="AOL_s00004g584" id="clusterblast-1_h15_9_8" points="559,90 587,90 592,85 587,80 559,80 559,90 " class="clusterblast-orf"  />
<polygon style="stroke:black; stroke-width:1; fill:#FFFFFF; " description="hypothetical_protein[br]Location: 674073 - 677540" locus_tag="AOL_s00004g583" id="clusterblast-1_h15_9_9" points="606,85 611,80 669,80 669,90 611,90 606,85 " class="clusterblast-orf"  />
<polygon style="stroke:black; stroke-width:1; fill:#FFFFFF; " description="hypothetical_protein[br]Location: 669120 - 671308" locus_tag="AOL_s00004g582" id="clusterblast-1_h15_9_10" points="719,85 724,80 759,80 759,90 724,90 719,85 " class="clusterblast-orf"  />
<polygon style="stroke:black; stroke-width:1; fill:#FFFFFF; " description="hypothetical_protein[br]Location: 668086 - 668365" locus_tag="AOL_s00004g581" id="clusterblast-1_h15_9_11" points="772,85 777,80 778,80 778,90 777,90 772,85 " class="clusterblast-orf"  />
</g>
</svg>
