<svg xmlns="http://www.w3.org/2000/svg" height="230" width="800" version="1.1" y="0" x="0" preserveAspectRatio="none" xmlns:xlink="http://www.w3.org/1999/xlink" viewBox="0 0 800 230"  >
<g class="clusterblast-cluster" label="Query sequence"  >
<text class="clusterblast-acc" y="10" x="5"  >
Query sequence</text>
<line y1="35" x2="778.0" style="stroke:grey; stroke-width:1; " x1="10" y2="35"  />
<polygon style="stroke:black; stroke-width:1; fill:rgb(190,63,63); " description="unannotated orf[br]Location: 272 - 1577" locus_tag="CHAFR746836_0058790.1" class="clusterblast-orf" points="10,40 16,40 21,35 16,30 10,30 10,40 " id="clusterblast-1_q3_2_0"  />
<polygon style="stroke:black; stroke-width:1; fill:#FFFFFF; " description="unannotated orf[br]Location: 1879 - 3966" locus_tag="CHAFR746836_0058800.1" class="clusterblast-orf" points="23,35 28,30 41,30 41,40 28,40 23,35 " id="clusterblast-1_q3_2_1"  />
<polygon style="stroke:black; stroke-width:1; fill:rgb(63,63,190); " description="unannotated orf[br]Location: 20578 - 22096" locus_tag="CHAFR746836_0058810.1" class="clusterblast-orf" points="182,35 187,30 195,30 195,40 187,40 182,35 " id="clusterblast-1_q3_2_2"  />
<polygon style="stroke:black; stroke-width:1; fill:rgb(63,190,63); " description="unannotated orf[br]Location: 25478 - 26482" locus_tag="CHAFR746836_0058820.1" class="clusterblast-orf" points="224,40 227,40 232,35 227,30 224,30 224,40 " id="clusterblast-1_q3_2_3"  />
<polygon style="stroke:black; stroke-width:1; fill:#FFFFFF; " description="unannotated orf[br]Location: 45229 - 46910" locus_tag="CHAFR746836_0058830.1" class="clusterblast-orf" points="392,40 401,40 406,35 401,30 392,30 392,40 " id="clusterblast-1_q3_2_4"  />
<polygon style="stroke:black; stroke-width:1; fill:#FFFFFF; " description="unannotated orf[br]Location: 51364 - 52222" locus_tag="CHAFR746836_0058840.1" class="clusterblast-orf" points="444,35 449,30 451,30 451,40 449,40 444,35 " id="clusterblast-1_q3_2_5"  />
<polygon style="stroke:black; stroke-width:1; fill:#FFFFFF; " description="unannotated orf[br]Location: 53027 - 54066" locus_tag="CHAFR746836_0058850.1" class="clusterblast-orf" points="458,40 462,40 467,35 462,30 458,30 458,40 " id="clusterblast-1_q3_2_6"  />
<polygon style="stroke:black; stroke-width:1; fill:rgb(190,63,190); " description="unannotated orf[br]Location: 55805 - 57189" locus_tag="CHAFR746836_0058860.1" class="clusterblast-orf" points="482,35 487,30 494,30 494,40 487,40 482,35 " id="clusterblast-1_q3_2_7"  />
<polygon style="stroke:black; stroke-width:1; fill:rgb(190,190,63); " description="unannotated orf[br]Location: 62252 - 71057" locus_tag="CHAFR746836_0058870.1" class="clusterblast-orf" points="537,40 607,40 612,35 607,30 537,30 537,40 " id="clusterblast-1_q3_2_8"  />
<polygon style="stroke:black; stroke-width:1; fill:#FFFFFF; " description="unannotated orf[br]Location: 72245 - 73215" locus_tag="CHAFR746836_0058880.1" class="clusterblast-orf" points="622,35 627,30 630,30 630,40 627,40 622,35 " id="clusterblast-1_q3_2_9"  />
<polygon style="stroke:black; stroke-width:1; fill:#FFFFFF; " description="unannotated orf[br]Location: 78567 - 79753" locus_tag="CHAFR746836_0058890.1" class="clusterblast-orf" points="675,35 680,30 686,30 686,40 680,40 675,35 " id="clusterblast-1_q3_2_10"  />
<polygon style="stroke:black; stroke-width:1; fill:#FFFFFF; " description="unannotated orf[br]Location: 89948 - 90559" locus_tag="CHAFR746836_0058900.1" class="clusterblast-orf" points="772,40 773,40 778,35 773,30 772,30 772,40 " id="clusterblast-1_q3_2_11"  />
</g>
<g class="clusterblast-cluster" description="Aspergillus niger contig An11c0220, genomic contig." label="AM270239.1_c1"  >
<text class="clusterblast-acc" y="60" x="5"  >
AM270239.1_c1</text>
<text class="clusterblast-desc" y="60" x="460.8"  >
Aspergillus niger contig An11c0220, genomic contig.</text>
<line y1="85" x2="778.0" style="stroke:grey; stroke-width:1; " x1="10" y2="85"  />
<polygon style="stroke:black; stroke-width:1; fill:#FFFFFF; " description="[br]Location: 10749 - 12346" locus_tag="An11g05510" id="clusterblast-1_h3_2_0" points="189,90 197,90 202,85 197,80 189,80 189,90 " class="clusterblast-orf"  />
<polygon style="stroke:black; stroke-width:1; fill:#FFFFFF; " description="[br]Location: 13347 - 16005" locus_tag="An11g05520" id="clusterblast-1_h3_2_1" points="211,90 228,90 233,85 228,80 211,80 211,90 " class="clusterblast-orf"  />
<polygon style="stroke:black; stroke-width:1; fill:#FFFFFF; " description="[br]Location: 17172 - 20681" locus_tag="An11g05530" id="clusterblast-1_h3_2_2" points="243,85 248,80 273,80 273,90 248,90 243,85 " class="clusterblast-orf"  />
<polygon style="stroke:black; stroke-width:1; fill:#FFFFFF; " description="hypothetical_protein[br]Location: 23514 - 24860" locus_tag="An11g05540" id="clusterblast-1_h3_2_3" points="297,90 304,90 309,85 304,80 297,80 297,90 " class="clusterblast-orf"  />
<polygon style="stroke:black; stroke-width:1; fill:rgb(190,63,63); " description="[br]Location: 25310 - 26965&lt;br&gt;&lt;br&gt;&lt;b&gt;BlastP hit with CHAFR746836_0058790.1&lt;/b&gt;&lt;br&gt;Percentage identity: 48%&lt;br&gt;Percentage coverage: 100%&lt;br&gt;BLAST bit score: 430&lt;br&gt;E-value: 2e-144" locus_tag="An11g05550" id="clusterblast-1_h3_2_4" points="312,85 317,80 326,80 326,90 317,90 312,85 " class="clusterblast-orf"  />
<polygon style="stroke:black; stroke-width:1; fill:rgb(63,63,190); " description="[br]Location: 27353 - 28807&lt;br&gt;&lt;br&gt;&lt;b&gt;BlastP hit with CHAFR746836_0058810.1&lt;/b&gt;&lt;br&gt;Percentage identity: 50%&lt;br&gt;Percentage coverage: 95%&lt;br&gt;BLAST bit score: 465&lt;br&gt;E-value: 7e-159" locus_tag="An11g05560" id="clusterblast-1_h3_2_5" points="330,85 335,80 342,80 342,90 335,90 330,85 " class="clusterblast-orf"  />
<polygon style="stroke:black; stroke-width:1; fill:rgb(190,190,63); " description="[br]Location: 29754 - 37463&lt;br&gt;&lt;br&gt;&lt;b&gt;BlastP hit with CHAFR746836_0058870.1&lt;/b&gt;&lt;br&gt;Percentage identity: 43%&lt;br&gt;Percentage coverage: 101%&lt;br&gt;BLAST bit score: 1954&lt;br&gt;E-value: 0.0" locus_tag="An11g05570" id="clusterblast-1_h3_2_6" points="350,90 411,90 416,85 411,80 350,80 350,90 " class="clusterblast-orf"  />
<polygon style="stroke:black; stroke-width:1; fill:#FFFFFF; " description="unnamed[br]Location: 38839 - 40732" locus_tag="An11g05580" id="clusterblast-1_h3_2_7" points="427,85 432,80 444,80 444,90 432,90 427,85 " class="clusterblast-orf"  />
<polygon style="stroke:black; stroke-width:1; fill:#FFFFFF; " description="hypothetical_protein[br]Location: 41210 - 41790" locus_tag="An11g05590" id="clusterblast-1_h3_2_8" points="448,90 448,90 453,85 448,80 448,80 448,90 " class="clusterblast-orf"  />
<polygon style="stroke:black; stroke-width:1; fill:#FFFFFF; " description="[br]Location: 42058 - 43719" locus_tag="An11g05600" id="clusterblast-1_h3_2_9" points="455,85 460,80 469,80 469,90 460,90 455,85 " class="clusterblast-orf"  />
<polygon style="stroke:black; stroke-width:1; fill:#FFFFFF; " description="hypothetical_protein[br]Location: 44127 - 44783" locus_tag="An11g05610" id="clusterblast-1_h3_2_10" points="472,90 473,90 478,85 473,80 472,80 472,90 " class="clusterblast-orf"  />
<polygon style="stroke:black; stroke-width:1; fill:#FFFFFF; " description="hypothetical_protein[br]Location: 45114 - 48570" locus_tag="An11g05620" id="clusterblast-1_h3_2_11" points="481,85 486,80 510,80 510,90 486,90 481,85 " class="clusterblast-orf"  />
<polygon style="stroke:black; stroke-width:1; fill:#FFFFFF; " description="[br]Location: 48580 - 50615" locus_tag="An11g05630" id="clusterblast-1_h3_2_12" points="510,90 523,90 528,85 523,80 510,80 510,90 " class="clusterblast-orf"  />
<polygon style="stroke:black; stroke-width:1; fill:#FFFFFF; " description="unnamed[br]Location: 51425 - 52404" locus_tag="An11g05640" id="clusterblast-1_h3_2_13" points="534,85 539,80 543,80 543,90 539,90 534,85 " class="clusterblast-orf"  />
<polygon style="stroke:black; stroke-width:1; fill:#FFFFFF; " description="[br]Location: 52542 - 53699" locus_tag="An11g05650" id="clusterblast-1_h3_2_14" points="544,90 549,90 554,85 549,80 544,80 544,90 " class="clusterblast-orf"  />
<polygon style="stroke:black; stroke-width:1; fill:#FFFFFF; " description="[br]Location: 55053 - 58817" locus_tag="An11g05660" id="clusterblast-1_h3_2_15" points="565,85 570,80 597,80 597,90 570,90 565,85 " class="clusterblast-orf"  />
</g>
</svg>
