<svg xmlns="http://www.w3.org/2000/svg" height="230" width="800" version="1.1" y="0" x="0" preserveAspectRatio="none" xmlns:xlink="http://www.w3.org/1999/xlink" viewBox="0 0 800 230"  >
<g class="clusterblast-cluster" label="Query sequence"  >
<text class="clusterblast-acc" y="10" x="5"  >
Query sequence</text>
<line y1="35" x2="778.0" style="stroke:grey; stroke-width:1; " x1="10" y2="35"  />
<polygon style="stroke:black; stroke-width:1; fill:rgb(169,42,42); " description="unannotated orf[br]Location: 42361 - 45359" locus_tag="CHAFR746836_0094690.1" class="clusterblast-orf" points="10,35 15,30 30,30 30,40 15,40 10,35 " id="clusterblast-1_q27_5_0"  />
<polygon style="stroke:black; stroke-width:1; fill:#FFFFFF; " description="unannotated orf[br]Location: 45759 - 47601" locus_tag="CHAFR746836_0094700.1" class="clusterblast-orf" points="32,40 40,40 45,35 40,30 32,30 32,40 " id="clusterblast-1_q27_5_1"  />
<polygon style="stroke:black; stroke-width:1; fill:#FFFFFF; " description="unannotated orf[br]Location: 49113 - 50656" locus_tag="CHAFR746836_0094710.1" class="clusterblast-orf" points="55,35 60,30 65,30 65,40 60,40 55,35 " id="clusterblast-1_q27_5_2"  />
<polygon style="stroke:black; stroke-width:1; fill:#FFFFFF; " description="unannotated orf[br]Location: 51961 - 53519" locus_tag="CHAFR746836_0094720.1" class="clusterblast-orf" points="74,35 79,30 84,30 84,40 79,40 74,35 " id="clusterblast-1_q27_5_3"  />
<polygon style="stroke:black; stroke-width:1; fill:rgb(42,169,42); " description="unannotated orf[br]Location: 61574 - 67323" locus_tag="CHAFR746836_0094730.1" class="clusterblast-orf" points="138,35 143,30 177,30 177,40 143,40 138,35 " id="clusterblast-1_q27_5_4"  />
<polygon style="stroke:black; stroke-width:1; fill:rgb(42,169,212); " description="unannotated orf[br]Location: 70255 - 75654" locus_tag="CHAFR746836_0094740.1" class="clusterblast-orf" points="196,40 228,40 233,35 228,30 196,30 196,40 " id="clusterblast-1_q27_5_5"  />
<polygon style="stroke:black; stroke-width:1; fill:rgb(169,169,42); " description="unannotated orf[br]Location: 88624 - 90116" locus_tag="CHAFR746836_0094750.1" class="clusterblast-orf" points="320,35 325,30 330,30 330,40 325,40 320,35 " id="clusterblast-1_q27_5_6"  />
<polygon style="stroke:black; stroke-width:1; fill:#FFFFFF; " description="unannotated orf[br]Location: 91304 - 92309" locus_tag="CHAFR746836_0094760.1" class="clusterblast-orf" points="338,40 339,40 344,35 339,30 338,30 338,40 " id="clusterblast-1_q27_5_7"  />
<polygon style="stroke:black; stroke-width:1; fill:#FFFFFF; " description="unannotated orf[br]Location: 92407 - 93918" locus_tag="CHAFR746836_0094770.1" class="clusterblast-orf" points="345,35 350,30 355,30 355,40 350,40 345,35 " id="clusterblast-1_q27_5_8"  />
<polygon style="stroke:black; stroke-width:1; fill:rgb(169,42,127); " description="unannotated orf[br]Location: 94558 - 96160" locus_tag="CHAFR746836_0094780.1" class="clusterblast-orf" points="359,40 365,40 370,35 365,30 359,30 359,40 " id="clusterblast-1_q27_5_9"  />
<polygon style="stroke:black; stroke-width:1; fill:#FFFFFF; " description="unannotated orf[br]Location: 96488 - 97143" locus_tag="CHAFR746836_0094790.1" class="clusterblast-orf" points="372,35 377,30 377,30 377,40 377,40 372,35 " id="clusterblast-1_q27_5_10"  />
<polygon style="stroke:black; stroke-width:1; fill:#FFFFFF; " description="unannotated orf[br]Location: 99047 - 101039" locus_tag="CHAFR746836_0094800.1" class="clusterblast-orf" points="389,40 398,40 403,35 398,30 389,30 389,40 " id="clusterblast-1_q27_5_11"  />
<polygon style="stroke:black; stroke-width:1; fill:#FFFFFF; " description="unannotated orf[br]Location: 105913 - 106563" locus_tag="CHAFR746836_0094810.1" class="clusterblast-orf" points="435,35 440,30 440,30 440,40 440,40 435,35 " id="clusterblast-1_q27_5_12"  />
<polygon style="stroke:black; stroke-width:1; fill:#FFFFFF; " description="unannotated orf[br]Location: 108528 - 112083" locus_tag="CHAFR746836_0094820.1" class="clusterblast-orf" points="453,40 472,40 477,35 472,30 453,30 453,40 " id="clusterblast-1_q27_5_13"  />
<polygon style="stroke:black; stroke-width:1; fill:rgb(42,42,212); " description="unannotated orf[br]Location: 112908 - 114711" locus_tag="CHAFR746836_0094830.1" class="clusterblast-orf" points="482,35 487,30 494,30 494,40 487,40 482,35 " id="clusterblast-1_q27_5_14"  />
<polygon style="stroke:black; stroke-width:1; fill:rgb(169,169,212); " description="unannotated orf[br]Location: 115507 - 115979" locus_tag="CHAFR746836_0094840.1" class="clusterblast-orf" points="500,40 503,35 500,30 500,40 " id="clusterblast-1_q27_5_15"  />
<polygon style="stroke:black; stroke-width:1; fill:rgb(42,169,127); " description="unannotated orf[br]Location: 116099 - 117436" locus_tag="CHAFR746836_0094850.1" class="clusterblast-orf" points="504,35 509,30 513,30 513,40 509,40 504,35 " id="clusterblast-1_q27_5_16"  />
<polygon style="stroke:black; stroke-width:1; fill:#FFFFFF; " description="unannotated orf[br]Location: 117682 - 118147" locus_tag="CHAFR746836_0094860.1" class="clusterblast-orf" points="514,40 518,35 514,30 514,40 " id="clusterblast-1_q27_5_17"  />
<polygon style="stroke:black; stroke-width:1; fill:#FFFFFF; " description="unannotated orf[br]Location: 119597 - 120815" locus_tag="CHAFR746836_0094870.1" class="clusterblast-orf" points="527,35 532,30 535,30 535,40 532,40 527,35 " id="clusterblast-1_q27_5_18"  />
<polygon style="stroke:black; stroke-width:1; fill:#FFFFFF; " description="unannotated orf[br]Location: 121630 - 122020" locus_tag="CHAFR746836_0094880.1" class="clusterblast-orf" points="541,40 543,35 541,30 541,40 " id="clusterblast-1_q27_5_19"  />
<polygon style="stroke:black; stroke-width:1; fill:#FFFFFF; " description="unannotated orf[br]Location: 122290 - 123684" locus_tag="CHAFR746836_0094890.1" class="clusterblast-orf" points="545,40 550,40 555,35 550,30 545,30 545,40 " id="clusterblast-1_q27_5_20"  />
<polygon style="stroke:black; stroke-width:1; fill:#FFFFFF; " description="unannotated orf[br]Location: 124088 - 124999" locus_tag="CHAFR746836_0094900.1" class="clusterblast-orf" points="557,35 562,30 563,30 563,40 562,40 557,35 " id="clusterblast-1_q27_5_21"  />
<polygon style="stroke:black; stroke-width:1; fill:#FFFFFF; " description="unannotated orf[br]Location: 125439 - 126681" locus_tag="CHAFR746836_0094910.1" class="clusterblast-orf" points="566,40 570,40 575,35 570,30 566,30 566,40 " id="clusterblast-1_q27_5_22"  />
<polygon style="stroke:black; stroke-width:1; fill:#FFFFFF; " description="unannotated orf[br]Location: 127006 - 130058" locus_tag="CHAFR746836_0094920.1" class="clusterblast-orf" points="577,35 582,30 597,30 597,40 582,40 577,35 " id="clusterblast-1_q27_5_23"  />
<polygon style="stroke:black; stroke-width:1; fill:#FFFFFF; " description="unannotated orf[br]Location: 132463 - 134428" locus_tag="CHAFR746836_0094930.1" class="clusterblast-orf" points="613,35 618,30 627,30 627,40 618,40 613,35 " id="clusterblast-1_q27_5_24"  />
<polygon style="stroke:black; stroke-width:1; fill:rgb(169,42,212); " description="unannotated orf[br]Location: 137446 - 138588" locus_tag="CHAFR746836_0094940.2" class="clusterblast-orf" points="647,35 652,30 655,30 655,40 652,40 647,35 " id="clusterblast-1_q27_5_25"  />
<polygon style="stroke:black; stroke-width:1; fill:rgb(42,42,127); " description="unannotated orf[br]Location: 137501 - 138588" locus_tag="CHAFR746836_0094940.1" class="clusterblast-orf" points="647,35 652,30 655,30 655,40 652,40 647,35 " id="clusterblast-1_q27_5_26"  />
<polygon style="stroke:black; stroke-width:1; fill:#FFFFFF; " description="unannotated orf[br]Location: 154744 - 156934" locus_tag="CHAFR746836_0094950.1" class="clusterblast-orf" points="763,40 773,40 778,35 773,30 763,30 763,40 " id="clusterblast-1_q27_5_27"  />
</g>
<g class="clusterblast-cluster" description="Wallemia sebi CBS 633.66 unplaced genomic scaffold WALSEscaf..." label="JH668227.1_c1"  >
<text class="clusterblast-acc" y="60" x="5"  >
JH668227.1_c1</text>
<text class="clusterblast-desc" y="60" x="460.8"  >
Wallemia sebi CBS 633.66 unplaced genomic scaffold WALSEscaf...</text>
<line y1="85" x2="778.0" style="stroke:grey; stroke-width:1; " x1="10" y2="85"  />
<polygon style="stroke:black; stroke-width:1; fill:#FFFFFF; " description="putative_purine_permease[br]Location: 19872 - 21589" locus_tag="WALSEDRAFT_59798" id="clusterblast-1_h27_5_0" points="323,90 329,90 334,85 329,80 323,80 323,90 " class="clusterblast-orf"  />
<polygon style="stroke:black; stroke-width:1; fill:#FFFFFF; " description="hypothetical_protein[br]Location: 15960 - 17183" locus_tag="WALSEDRAFT_56727" id="clusterblast-1_h27_5_1" points="352,90 355,90 360,85 355,80 352,80 352,90 " class="clusterblast-orf"  />
<polygon style="stroke:black; stroke-width:1; fill:#FFFFFF; " description="NAD(P)-binding_protein[br]Location: 14262 - 15262" locus_tag="WALSEDRAFT_67979" id="clusterblast-1_h27_5_2" points="365,90 367,90 372,85 367,80 365,80 365,90 " class="clusterblast-orf"  />
<polygon style="stroke:black; stroke-width:1; fill:#FFFFFF; " description="cytochrome_P450[br]Location: 9908 - 11975" locus_tag="WALSEDRAFT_63145" id="clusterblast-1_h27_5_3" points="387,85 392,80 401,80 401,90 392,90 387,85 " class="clusterblast-orf"  />
<polygon style="stroke:black; stroke-width:1; fill:#FFFFFF; " description="cytochrome_P450[br]Location: 7785 - 9781" locus_tag="WALSEDRAFT_16555" id="clusterblast-1_h27_5_4" points="402,90 410,90 415,85 410,80 402,80 402,90 " class="clusterblast-orf"  />
<polygon style="stroke:black; stroke-width:1; fill:#FFFFFF; " description="hypothetical_protein[br]Location: 6704 - 7543" locus_tag="WALSEDRAFT_63143" id="clusterblast-1_h27_5_5" points="417,90 417,90 422,85 417,80 417,80 417,90 " class="clusterblast-orf"  />
<polygon style="stroke:black; stroke-width:1; fill:#FFFFFF; " description="hypothetical_protein[br]Location: 5198 - 5841" locus_tag="WALSEDRAFT_59794" id="clusterblast-1_h27_5_6" points="428,85 432,80 432,90 428,85 " class="clusterblast-orf"  />
<polygon style="stroke:black; stroke-width:1; fill:rgb(169,42,127); " description="putative_MFS_transporter_Liz1/Seo1[br]Location: 3220 - 4888&lt;br&gt;&lt;br&gt;&lt;b&gt;BlastP hit with CHAFR746836_0094780.1&lt;/b&gt;&lt;br&gt;Percentage identity: 33%&lt;br&gt;Percentage coverage: 90%&lt;br&gt;BLAST bit score: 256&lt;br&gt;E-value: 2e-77" locus_tag="WALSEDRAFT_16436" id="clusterblast-1_h27_5_7" points="434,90 441,90 446,85 441,80 434,80 434,90 " class="clusterblast-orf"  />
<polygon style="stroke:black; stroke-width:1; fill:rgb(42,42,127); " description="NAD(P)-binding_protein[br]Location: 2162 - 3063&lt;br&gt;&lt;br&gt;&lt;b&gt;BlastP hit with CHAFR746836_0094940.2&lt;/b&gt;&lt;br&gt;Percentage identity: 34%&lt;br&gt;Percentage coverage: 74%&lt;br&gt;BLAST bit score: 88&lt;br&gt;E-value: 3e-19&lt;br&gt;&lt;br&gt;&lt;b&gt;BlastP hit with CHAFR746836_0094940.1&lt;/b&gt;&lt;br&gt;Percentage identity: 34%&lt;br&gt;Percentage coverage: 75%&lt;br&gt;BLAST bit score: 89&lt;br&gt;E-value: 2e-19" locus_tag="WALSEDRAFT_31742" id="clusterblast-1_h27_5_8" points="447,85 452,80 453,80 453,90 452,90 447,85 " class="clusterblast-orf"  />
<polygon style="stroke:black; stroke-width:1; fill:#FFFFFF; " description="terpenoid_synthase[br]Location: 493 - 1562" locus_tag="WALSEDRAFT_16539" id="clusterblast-1_h27_5_9" points="457,90 459,90 464,85 459,80 457,80 457,90 " class="clusterblast-orf"  />
</g>
</svg>
