<svg xmlns="http://www.w3.org/2000/svg" height="230" width="800" version="1.1" y="0" x="0" preserveAspectRatio="none" xmlns:xlink="http://www.w3.org/1999/xlink" viewBox="0 0 800 230"  >
<g class="clusterblast-cluster" label="Query sequence"  >
<text class="clusterblast-acc" y="10" x="5"  >
Query sequence</text>
<line y1="35" x2="778.0" style="stroke:grey; stroke-width:1; " x1="10" y2="35"  />
<polygon style="stroke:black; stroke-width:1; fill:#FFFFFF; " description="unannotated orf[br]Location: 978 - 3290" locus_tag="CHAFR746836_0087330.1" class="clusterblast-orf" points="10,40 16,40 21,35 16,30 10,30 10,40 " id="clusterblast-1_q19_8_0"  />
<polygon style="stroke:black; stroke-width:1; fill:#FFFFFF; " description="unannotated orf[br]Location: 11313 - 13260" locus_tag="CHAFR746836_0087340.1" class="clusterblast-orf" points="60,35 65,30 70,30 70,40 65,40 60,35 " id="clusterblast-1_q19_8_1"  />
<polygon style="stroke:black; stroke-width:1; fill:#FFFFFF; " description="unannotated orf[br]Location: 25150 - 25735" locus_tag="CHAFR746836_0087350.1" class="clusterblast-orf" points="128,35 131,30 131,40 128,35 " id="clusterblast-1_q19_8_2"  />
<polygon style="stroke:black; stroke-width:1; fill:#FFFFFF; " description="unannotated orf[br]Location: 26529 - 27424" locus_tag="CHAFR746836_0087360.1" class="clusterblast-orf" points="135,35 139,30 139,40 135,35 " id="clusterblast-1_q19_8_3"  />
<polygon style="stroke:black; stroke-width:1; fill:#FFFFFF; " description="unannotated orf[br]Location: 27971 - 29946" locus_tag="CHAFR746836_0087370.1" class="clusterblast-orf" points="142,40 147,40 152,35 147,30 142,30 142,40 " id="clusterblast-1_q19_8_4"  />
<polygon style="stroke:black; stroke-width:1; fill:rgb(169,42,42); " description="unannotated orf[br]Location: 31388 - 33149" locus_tag="CHAFR746836_0087380.1" class="clusterblast-orf" points="159,40 163,40 168,35 163,30 159,30 159,40 " id="clusterblast-1_q19_8_5"  />
<polygon style="stroke:black; stroke-width:1; fill:#FFFFFF; " description="unannotated orf[br]Location: 34560 - 35171" locus_tag="CHAFR746836_0087390.1" class="clusterblast-orf" points="175,40 178,35 175,30 175,40 " id="clusterblast-1_q19_8_6"  />
<polygon style="stroke:black; stroke-width:1; fill:#FFFFFF; " description="unannotated orf[br]Location: 36170 - 38717" locus_tag="CHAFR746836_0087400.1" class="clusterblast-orf" points="182,35 187,30 195,30 195,40 187,40 182,35 " id="clusterblast-1_q19_8_7"  />
<polygon style="stroke:black; stroke-width:1; fill:rgb(42,212,42); " description="unannotated orf[br]Location: 39938 - 40576" locus_tag="CHAFR746836_0087410.1" class="clusterblast-orf" points="201,35 204,30 204,40 201,35 " id="clusterblast-1_q19_8_8"  />
<polygon style="stroke:black; stroke-width:1; fill:#FFFFFF; " description="unannotated orf[br]Location: 41148 - 42949" locus_tag="CHAFR746836_0087420.1" class="clusterblast-orf" points="207,40 211,40 216,35 211,30 207,30 207,40 " id="clusterblast-1_q19_8_9"  />
<polygon style="stroke:black; stroke-width:1; fill:#FFFFFF; " description="unannotated orf[br]Location: 45079 - 46829" locus_tag="CHAFR746836_0087430.1" class="clusterblast-orf" points="226,40 230,40 235,35 230,30 226,30 226,40 " id="clusterblast-1_q19_8_10"  />
<polygon style="stroke:black; stroke-width:1; fill:#FFFFFF; " description="unannotated orf[br]Location: 47651 - 49501" locus_tag="CHAFR746836_0087440.1" class="clusterblast-orf" points="239,40 243,40 248,35 243,30 239,30 239,40 " id="clusterblast-1_q19_8_11"  />
<polygon style="stroke:black; stroke-width:1; fill:#FFFFFF; " description="unannotated orf[br]Location: 50578 - 52077" locus_tag="CHAFR746836_0087450.1" class="clusterblast-orf" points="253,35 258,30 261,30 261,40 258,40 253,35 " id="clusterblast-1_q19_8_12"  />
<polygon style="stroke:black; stroke-width:1; fill:#FFFFFF; " description="unannotated orf[br]Location: 57587 - 59108" locus_tag="CHAFR746836_0087460.1" class="clusterblast-orf" points="288,40 290,40 295,35 290,30 288,30 288,40 " id="clusterblast-1_q19_8_13"  />
<polygon style="stroke:black; stroke-width:1; fill:#FFFFFF; " description="unannotated orf[br]Location: 61987 - 64097" locus_tag="CHAFR746836_0087470.1" class="clusterblast-orf" points="309,40 315,40 320,35 315,30 309,30 309,40 " id="clusterblast-1_q19_8_14"  />
<polygon style="stroke:black; stroke-width:1; fill:#FFFFFF; " description="unannotated orf[br]Location: 69799 - 72236" locus_tag="CHAFR746836_0087480.1" class="clusterblast-orf" points="348,40 355,40 360,35 355,30 348,30 348,40 " id="clusterblast-1_q19_8_15"  />
<polygon style="stroke:black; stroke-width:1; fill:#FFFFFF; " description="unannotated orf[br]Location: 75226 - 76087" locus_tag="CHAFR746836_0087490.1" class="clusterblast-orf" points="374,35 379,30 379,30 379,40 379,40 374,35 " id="clusterblast-1_q19_8_16"  />
<polygon style="stroke:black; stroke-width:1; fill:rgb(42,42,212); " description="unannotated orf[br]Location: 83518 - 84938" locus_tag="CHAFR746836_0087500.1" class="clusterblast-orf" points="415,35 420,30 422,30 422,40 420,40 415,35 " id="clusterblast-1_q19_8_17"  />
<polygon style="stroke:black; stroke-width:1; fill:rgb(169,127,212); " description="unannotated orf[br]Location: 87633 - 89495" locus_tag="CHAFR746836_0087510.1" class="clusterblast-orf" points="435,35 440,30 445,30 445,40 440,40 435,35 " id="clusterblast-1_q19_8_18"  />
<polygon style="stroke:black; stroke-width:1; fill:rgb(169,212,42); " description="unannotated orf[br]Location: 89752 - 90556" locus_tag="CHAFR746836_0087520.1" class="clusterblast-orf" points="446,40 450,35 446,30 446,40 " id="clusterblast-1_q19_8_19"  />
<polygon style="stroke:black; stroke-width:1; fill:#FFFFFF; " description="unannotated orf[br]Location: 104976 - 106006" locus_tag="CHAFR746836_0087530.1" class="clusterblast-orf" points="521,35 526,30 526,30 526,40 526,40 521,35 " id="clusterblast-1_q19_8_20"  />
<polygon style="stroke:black; stroke-width:1; fill:rgb(42,212,212); " description="unannotated orf[br]Location: 127251 - 128425" locus_tag="CHAFR746836_0087540.1" class="clusterblast-orf" points="630,35 635,30 636,30 636,40 635,40 630,35 " id="clusterblast-1_q19_8_21"  />
<polygon style="stroke:black; stroke-width:1; fill:rgb(169,127,42); " description="unannotated orf[br]Location: 129252 - 129711" locus_tag="CHAFR746836_0087550.1" class="clusterblast-orf" points="640,40 642,35 640,30 640,40 " id="clusterblast-1_q19_8_22"  />
<polygon style="stroke:black; stroke-width:1; fill:rgb(169,42,127); " description="unannotated orf[br]Location: 133926 - 135028" locus_tag="CHAFR746836_0087560.1" class="clusterblast-orf" points="663,35 668,30 668,30 668,40 668,40 663,35 " id="clusterblast-1_q19_8_23"  />
<polygon style="stroke:black; stroke-width:1; fill:rgb(42,127,42); " description="unannotated orf[br]Location: 135294 - 136000" locus_tag="CHAFR746836_0087570.1" class="clusterblast-orf" points="670,40 673,35 670,30 670,40 " id="clusterblast-1_q19_8_24"  />
<polygon style="stroke:black; stroke-width:1; fill:#FFFFFF; " description="unannotated orf[br]Location: 137264 - 139678" locus_tag="CHAFR746836_0087580.1" class="clusterblast-orf" points="679,40 686,40 691,35 686,30 679,30 679,40 " id="clusterblast-1_q19_8_25"  />
<polygon style="stroke:black; stroke-width:1; fill:#FFFFFF; " description="unannotated orf[br]Location: 140410 - 140889" locus_tag="CHAFR746836_0087590.1" class="clusterblast-orf" points="695,40 697,35 695,30 695,40 " id="clusterblast-1_q19_8_26"  />
<polygon style="stroke:black; stroke-width:1; fill:#FFFFFF; " description="unannotated orf[br]Location: 145698 - 146640" locus_tag="CHAFR746836_0087600.1" class="clusterblast-orf" points="721,35 725,30 725,40 721,35 " id="clusterblast-1_q19_8_27"  />
<polygon style="stroke:black; stroke-width:1; fill:rgb(42,127,212); " description="unannotated orf[br]Location: 149111 - 149530" locus_tag="CHAFR746836_0087610.1" class="clusterblast-orf" points="738,40 740,35 738,30 738,40 " id="clusterblast-1_q19_8_28"  />
<polygon style="stroke:black; stroke-width:1; fill:rgb(42,212,127); " description="unannotated orf[br]Location: 150467 - 151609" locus_tag="CHAFR746836_0087620.1" class="clusterblast-orf" points="744,40 745,40 750,35 745,30 744,30 744,40 " id="clusterblast-1_q19_8_29"  />
<polygon style="stroke:black; stroke-width:1; fill:rgb(169,42,212); " description="unannotated orf[br]Location: 150467 - 154023" locus_tag="CHAFR746836_0087620.3" class="clusterblast-orf" points="744,40 757,40 762,35 757,30 744,30 744,40 " id="clusterblast-1_q19_8_30"  />
<polygon style="stroke:black; stroke-width:1; fill:#FFFFFF; " description="unannotated orf[br]Location: 152274 - 154023" locus_tag="CHAFR746836_0087620.2" class="clusterblast-orf" points="753,40 757,40 762,35 757,30 753,30 753,40 " id="clusterblast-1_q19_8_31"  />
<polygon style="stroke:black; stroke-width:1; fill:rgb(42,127,127); " description="unannotated orf[br]Location: 155579 - 157240" locus_tag="CHAFR746836_0087630.1" class="clusterblast-orf" points="769,40 773,40 778,35 773,30 769,30 769,40 " id="clusterblast-1_q19_8_32"  />
</g>
<g class="clusterblast-cluster" description="Mycosphaerella graminicola IPO323 chromosome 10, whole genom..." label="CM001205.1_c2"  >
<text class="clusterblast-acc" y="60" x="5"  >
CM001205.1_c2</text>
<text class="clusterblast-desc" y="60" x="460.8"  >
Mycosphaerella graminicola IPO323 chromosome 10, whole genom...</text>
<line y1="85" x2="778.0" style="stroke:grey; stroke-width:1; " x1="10" y2="85"  />
<polygon style="stroke:black; stroke-width:1; fill:#FFFFFF; " description="hypothetical_protein[br]Location: 1475101 - 1476009" locus_tag="MYCGRDRAFT_96401" id="clusterblast-1_h19_8_0" points="290,90 294,85 290,80 290,90 " class="clusterblast-orf"  />
<polygon style="stroke:black; stroke-width:1; fill:#FFFFFF; " description="hypothetical_protein[br]Location: 1473012 - 1474574" locus_tag="MYCGRDRAFT_96400" id="clusterblast-1_h19_8_1" points="297,90 299,90 304,85 299,80 297,80 297,90 " class="clusterblast-orf"  />
<polygon style="stroke:black; stroke-width:1; fill:#FFFFFF; " description="hypothetical_protein[br]Location: 1470884 - 1471129" locus_tag="MYCGRDRAFT_106026" id="clusterblast-1_h19_8_2" points="313,85 315,80 315,90 313,85 " class="clusterblast-orf"  />
<polygon style="stroke:black; stroke-width:1; fill:rgb(42,212,42); " description="hypothetical_protein[br]Location: 1469160 - 1469840&lt;br&gt;&lt;br&gt;&lt;b&gt;BlastP hit with CHAFR746836_0087410.1&lt;/b&gt;&lt;br&gt;Percentage identity: 48%&lt;br&gt;Percentage coverage: 101%&lt;br&gt;BLAST bit score: 166&lt;br&gt;E-value: 5e-50" locus_tag="MYCGRDRAFT_49046" id="clusterblast-1_h19_8_3" points="320,85 323,80 323,90 320,85 " class="clusterblast-orf"  />
<polygon style="stroke:black; stroke-width:1; fill:#FFFFFF; " description="hypothetical_protein[br]Location: 1468719 - 1468967" locus_tag="MYCGRDRAFT_29567" id="clusterblast-1_h19_8_4" points="324,90 325,85 324,80 324,90 " class="clusterblast-orf"  />
<polygon style="stroke:black; stroke-width:1; fill:#FFFFFF; " description="putative_P450_monooxygenase[br]Location: 1466602 - 1468337" locus_tag="MYCGRDRAFT_76579" id="clusterblast-1_h19_8_5" points="327,85 332,80 336,80 336,90 332,90 327,85 " class="clusterblast-orf"  />
<polygon style="stroke:black; stroke-width:1; fill:#FFFFFF; " description="hypothetical_protein[br]Location: 1464720 - 1466107" locus_tag="MYCGRDRAFT_76577" id="clusterblast-1_h19_8_6" points="338,85 343,80 345,80 345,90 343,90 338,85 " class="clusterblast-orf"  />
<polygon style="stroke:black; stroke-width:1; fill:#FFFFFF; " description="putative_P450_monooxygenase[br]Location: 1460785 - 1462504" locus_tag="MYCGRDRAFT_48687" id="clusterblast-1_h19_8_7" points="356,90 359,90 364,85 359,80 356,80 356,90 " class="clusterblast-orf"  />
<polygon style="stroke:black; stroke-width:1; fill:#FFFFFF; " description="polyketide_synthase[br]Location: 1448653 - 1456017" locus_tag="MYCGRDRAFT_101493" id="clusterblast-1_h19_8_8" points="388,85 393,80 424,80 424,90 393,90 388,85 " class="clusterblast-orf"  />
<polygon style="stroke:black; stroke-width:1; fill:#FFFFFF; " description="serine_palmitoyl_CoA_transferase_subunit_LcbA[br]Location: 1445965 - 1447668" locus_tag="MYCGRDRAFT_49166" id="clusterblast-1_h19_8_9" points="429,90 432,90 437,85 432,80 429,80 429,90 " class="clusterblast-orf"  />
<polygon style="stroke:black; stroke-width:1; fill:#FFFFFF; " description="hypothetical_protein[br]Location: 1444870 - 1445821" locus_tag="MYCGRDRAFT_48819" id="clusterblast-1_h19_8_10" points="438,85 443,80 443,80 443,90 443,90 438,85 " class="clusterblast-orf"  />
<polygon style="stroke:black; stroke-width:1; fill:#FFFFFF; " description="5-aminolevulinate_synthase[br]Location: 1442061 - 1443747" locus_tag="MYCGRDRAFT_48965" id="clusterblast-1_h19_8_11" points="448,90 451,90 456,85 451,80 448,80 448,90 " class="clusterblast-orf"  />
<polygon style="stroke:black; stroke-width:1; fill:#FFFFFF; " description="putative_major_facilitator_superfamily[br]Location: 1440011 - 1441659" locus_tag="MYCGRDRAFT_76570" id="clusterblast-1_h19_8_12" points="458,85 463,80 466,80 466,90 463,90 458,85 " class="clusterblast-orf"  />
<polygon style="stroke:black; stroke-width:1; fill:rgb(169,42,42); " description="putative_P450_monooxygenase[br]Location: 1437567 - 1439416&lt;br&gt;&lt;br&gt;&lt;b&gt;BlastP hit with CHAFR746836_0087380.1&lt;/b&gt;&lt;br&gt;Percentage identity: 32%&lt;br&gt;Percentage coverage: 38%&lt;br&gt;BLAST bit score: 103&lt;br&gt;E-value: 3e-22&lt;br&gt;&lt;br&gt;&lt;b&gt;BlastP hit with CHAFR746836_0087610.1&lt;/b&gt;&lt;br&gt;Percentage identity: 33%&lt;br&gt;Percentage coverage: 84%&lt;br&gt;BLAST bit score: 53&lt;br&gt;E-value: 6e-08" locus_tag="MYCGRDRAFT_48855" id="clusterblast-1_h19_8_13" points="469,90 473,90 478,85 473,80 469,80 469,90 " class="clusterblast-orf"  />
<polygon style="stroke:black; stroke-width:1; fill:#FFFFFF; " description="hypothetical_protein[br]Location: 1436178 - 1437155" locus_tag="MYCGRDRAFT_63387" id="clusterblast-1_h19_8_14" points="480,90 480,90 485,85 480,80 480,80 480,90 " class="clusterblast-orf"  />
<polygon style="stroke:black; stroke-width:1; fill:#FFFFFF; " description="hypothetical_protein[br]Location: 1435059 - 1435817" locus_tag="MYCGRDRAFT_76564" id="clusterblast-1_h19_8_15" points="487,90 491,85 487,80 487,90 " class="clusterblast-orf"  />
<polygon style="stroke:black; stroke-width:1; fill:#FFFFFF; " description="hypothetical_protein[br]Location: 1433970 - 1434464" locus_tag="MYCGRDRAFT_96389" id="clusterblast-1_h19_8_16" points="494,85 496,80 496,90 494,85 " class="clusterblast-orf"  />
</g>
</svg>
