<svg xmlns="http://www.w3.org/2000/svg" height="230" width="800" version="1.1" y="0" x="0" preserveAspectRatio="none" xmlns:xlink="http://www.w3.org/1999/xlink" viewBox="0 0 800 230"  >
<g class="clusterblast-cluster" label="Query sequence"  >
<text class="clusterblast-acc" y="10" x="5"  >
Query sequence</text>
<line y1="35" x2="778.0" style="stroke:grey; stroke-width:1; " x1="10" y2="35"  />
<polygon style="stroke:black; stroke-width:1; fill:#FFFFFF; " description="unannotated orf[br]Location: 25963 - 28663" locus_tag="CHAFR746836_0081060.1" class="clusterblast-orf" points="10,35 15,30 61,30 61,40 15,40 10,35 " id="clusterblast-1_q12_8_0"  />
<polygon style="stroke:black; stroke-width:1; fill:#FFFFFF; " description="unannotated orf[br]Location: 30819 - 31372" locus_tag="CHAFR746836_0081070.1" class="clusterblast-orf" points="103,35 108,30 113,30 113,40 108,40 103,35 " id="clusterblast-1_q12_8_1"  />
<polygon style="stroke:black; stroke-width:1; fill:#FFFFFF; " description="unannotated orf[br]Location: 32308 - 34099" locus_tag="CHAFR746836_0081080.1" class="clusterblast-orf" points="131,40 161,40 166,35 161,30 131,30 131,40 " id="clusterblast-1_q12_8_2"  />
<polygon style="stroke:black; stroke-width:1; fill:red; " description="unannotated orf[br]Location: 34732 - 35414" locus_tag="CHAFR746836_0081090.1" class="clusterblast-orf" points="178,35 183,30 191,30 191,40 183,40 178,35 " id="clusterblast-1_q12_8_3"  />
<polygon style="stroke:black; stroke-width:1; fill:#FFFFFF; " description="unannotated orf[br]Location: 35795 - 37570" locus_tag="CHAFR746836_0081100.1" class="clusterblast-orf" points="198,40 228,40 233,35 228,30 198,30 198,40 " id="clusterblast-1_q12_8_4"  />
<polygon style="stroke:black; stroke-width:1; fill:green; " description="unannotated orf[br]Location: 39190 - 39826" locus_tag="CHAFR746836_0081110.1" class="clusterblast-orf" points="264,35 269,30 276,30 276,40 269,40 264,35 " id="clusterblast-1_q12_8_5"  />
<polygon style="stroke:black; stroke-width:1; fill:#FFFFFF; " description="unannotated orf[br]Location: 40045 - 40878" locus_tag="CHAFR746836_0081120.1" class="clusterblast-orf" points="280,40 291,40 296,35 291,30 280,30 280,40 " id="clusterblast-1_q12_8_6"  />
<polygon style="stroke:black; stroke-width:1; fill:#FFFFFF; " description="unannotated orf[br]Location: 43039 - 45807" locus_tag="CHAFR746836_0081130.1" class="clusterblast-orf" points="338,35 343,30 391,30 391,40 343,40 338,35 " id="clusterblast-1_q12_8_7"  />
<polygon style="stroke:black; stroke-width:1; fill:#FFFFFF; " description="unannotated orf[br]Location: 63962 - 65930" locus_tag="CHAFR746836_0081140.1" class="clusterblast-orf" points="740,40 773,40 778,35 773,30 740,30 740,40 " id="clusterblast-1_q12_8_8"  />
<polygon style="stroke:black; stroke-width:1; fill:#FFFFFF; " description="unannotated orf[br]Location: 63962 - 65930" locus_tag="CHAFR746836_0081140.2" class="clusterblast-orf" points="740,40 773,40 778,35 773,30 740,30 740,40 " id="clusterblast-1_q12_8_9"  />
</g>
<g class="clusterblast-cluster" description="Bacillus sp. 1NLA3E ctg144, whole genome shotgun sequ..." label="NZ_AGJD01000021.1_c1"  >
<text class="clusterblast-acc" y="60" x="5"  >
NZ_AGJD01000021.1_c1</text>
<text class="clusterblast-desc" y="60" x="460.8"  >
Bacillus sp. 1NLA3E ctg144, whole genome shotgun sequ...</text>
<line y1="85" x2="778.0" style="stroke:grey; stroke-width:1; " x1="10" y2="85"  />
<polygon style="stroke:black; stroke-width:1; fill:#FFFFFF; " description="hypothetical_protein[br]Location: 64120 - 64350" locus_tag="B1NLA3EDRAFT_4449" id="clusterblast-1_h12_8_0" points="97,85 101,80 101,90 97,85 " class="clusterblast-orf"  />
<polygon style="stroke:black; stroke-width:1; fill:#FFFFFF; " description="polysaccharide_deacetylase_family_sporulation[br]Location: 63235 - 63987" locus_tag="B1NLA3EDRAFT_4448" id="clusterblast-1_h12_8_1" points="103,90 113,90 118,85 113,80 103,80 103,90 " class="clusterblast-orf"  />
<polygon style="stroke:black; stroke-width:1; fill:#FFFFFF; " description="integral_membrane_protein,_activator_of[br]Location: 62525 - 63154" locus_tag="B1NLA3EDRAFT_4447" id="clusterblast-1_h12_8_2" points="119,85 124,80 132,80 132,90 124,90 119,85 " class="clusterblast-orf"  />
<polygon style="stroke:black; stroke-width:1; fill:#FFFFFF; " description="spore_germination_protein_GerD[br]Location: 61729 - 62319" locus_tag="B1NLA3EDRAFT_4446" id="clusterblast-1_h12_8_3" points="136,90 142,90 147,85 142,80 136,80 136,90 " class="clusterblast-orf"  />
<polygon style="stroke:black; stroke-width:1; fill:#FFFFFF; " description="ATPase-like,_ParA/MinD[br]Location: 60604 - 61662" locus_tag="B1NLA3EDRAFT_4445" id="clusterblast-1_h12_8_4" points="148,85 153,80 168,80 168,90 153,90 148,85 " class="clusterblast-orf"  />
<polygon style="stroke:black; stroke-width:1; fill:#FFFFFF; " description="N-acetylmuramoyl-L-alanine_amidase_CwlD[br]Location: 59735 - 60454" locus_tag="B1NLA3EDRAFT_4444" id="clusterblast-1_h12_8_5" points="171,85 176,80 185,80 185,90 176,90 171,85 " class="clusterblast-orf"  />
<polygon style="stroke:black; stroke-width:1; fill:#FFFFFF; " description="Protein_of_unknown_function_DUF2521[br]Location: 59177 - 59620" locus_tag="B1NLA3EDRAFT_4443" id="clusterblast-1_h12_8_6" points="187,85 192,80 196,80 196,90 192,90 187,85 " class="clusterblast-orf"  />
<polygon style="stroke:black; stroke-width:1; fill:#FFFFFF; " description="SagB-type_dehydrogenase_domain_protein[br]Location: 57460 - 59043" locus_tag="B1NLA3EDRAFT_4442" id="clusterblast-1_h12_8_7" points="198,85 203,80 229,80 229,90 203,90 198,85 " class="clusterblast-orf"  />
<polygon style="stroke:black; stroke-width:1; fill:#FFFFFF; " description="protein_of_unknown_function_DUF181[br]Location: 55495 - 57435" locus_tag="B1NLA3EDRAFT_4441" id="clusterblast-1_h12_8_8" points="229,85 234,80 267,80 267,90 234,90 229,85 " class="clusterblast-orf"  />
<polygon style="stroke:black; stroke-width:1; fill:#FFFFFF; " description="group-specific_protein[br]Location: 53546 - 55495" locus_tag="B1NLA3EDRAFT_4440" id="clusterblast-1_h12_8_9" points="267,85 272,80 304,80 304,90 272,90 267,85 " class="clusterblast-orf"  />
<polygon style="stroke:black; stroke-width:1; fill:#FFFFFF; " description="hypothetical_protein[br]Location: 53281 - 53472" locus_tag="B1NLA3EDRAFT_4439" id="clusterblast-1_h12_8_10" points="306,85 309,80 309,90 306,85 " class="clusterblast-orf"  />
<polygon style="stroke:black; stroke-width:1; fill:#FFFFFF; " description="hypothetical_protein[br]Location: 52991 - 53194" locus_tag="B1NLA3EDRAFT_4438" id="clusterblast-1_h12_8_11" points="311,85 315,80 315,90 311,85 " class="clusterblast-orf"  />
<polygon style="stroke:black; stroke-width:1; fill:green; " description="ribosomal_protein_S9[br]Location: 52163 - 52555&lt;br&gt;&lt;br&gt;&lt;b&gt;BlastP hit with CHAFR746836_0081110.1&lt;/b&gt;&lt;br&gt;Percentage identity: 35%&lt;br&gt;Percentage coverage: 94%&lt;br&gt;BLAST bit score: 56&lt;br&gt;E-value: 9e-10" locus_tag="B1NLA3EDRAFT_4437" id="clusterblast-1_h12_8_12" points="323,85 328,80 331,80 331,90 328,90 323,85 " class="clusterblast-orf"  />
<polygon style="stroke:black; stroke-width:1; fill:#FFFFFF; " description="ribosomal_protein_L13[br]Location: 51704 - 52141" locus_tag="B1NLA3EDRAFT_4436" id="clusterblast-1_h12_8_13" points="331,85 336,80 340,80 340,90 336,90 331,85 " class="clusterblast-orf"  />
<polygon style="stroke:black; stroke-width:1; fill:#FFFFFF; " description="tRNA_pseudouridine_synthase_A[br]Location: 50776 - 51513" locus_tag="B1NLA3EDRAFT_4435" id="clusterblast-1_h12_8_14" points="343,85 348,80 357,80 357,90 348,90 343,85 " class="clusterblast-orf"  />
<polygon style="stroke:black; stroke-width:1; fill:#FFFFFF; " description="cobalt_transport_protein[br]Location: 49965 - 50762" locus_tag="B1NLA3EDRAFT_4434" id="clusterblast-1_h12_8_15" points="358,85 363,80 373,80 373,90 363,90 358,85 " class="clusterblast-orf"  />
<polygon style="stroke:black; stroke-width:1; fill:#FFFFFF; " description="ABC_transporter_related_protein[br]Location: 49099 - 49968" locus_tag="B1NLA3EDRAFT_4433" id="clusterblast-1_h12_8_16" points="373,85 378,80 390,80 390,90 378,90 373,85 " class="clusterblast-orf"  />
<polygon style="stroke:black; stroke-width:1; fill:#FFFFFF; " description="ABC_transporter_related_protein[br]Location: 48284 - 49123" locus_tag="B1NLA3EDRAFT_4432" id="clusterblast-1_h12_8_17" points="389,85 394,80 405,80 405,90 394,90 389,85 " class="clusterblast-orf"  />
<polygon style="stroke:black; stroke-width:1; fill:#FFFFFF; " description="ribosomal_protein_L17[br]Location: 47486 - 47848" locus_tag="B1NLA3EDRAFT_4431" id="clusterblast-1_h12_8_18" points="414,85 419,80 421,80 421,90 419,90 414,85 " class="clusterblast-orf"  />
<polygon style="stroke:black; stroke-width:1; fill:#FFFFFF; " description="DNA-directed_RNA_polymerase,_alpha_subunit[br]Location: 46461 - 47405" locus_tag="B1NLA3EDRAFT_4430" id="clusterblast-1_h12_8_19" points="422,85 427,80 440,80 440,90 427,90 422,85 " class="clusterblast-orf"  />
<polygon style="stroke:black; stroke-width:1; fill:red; " description="30S_ribosomal_protein_S11[br]Location: 45901 - 46290&lt;br&gt;&lt;br&gt;&lt;b&gt;BlastP hit with CHAFR746836_0081090.1&lt;/b&gt;&lt;br&gt;Percentage identity: 33%&lt;br&gt;Percentage coverage: 74%&lt;br&gt;BLAST bit score: 54&lt;br&gt;E-value: 5e-09" locus_tag="B1NLA3EDRAFT_4429" id="clusterblast-1_h12_8_20" points="444,85 449,80 451,80 451,90 449,90 444,85 " class="clusterblast-orf"  />
<polygon style="stroke:black; stroke-width:1; fill:#FFFFFF; " description="30S_ribosomal_protein_S13[br]Location: 45511 - 45876" locus_tag="B1NLA3EDRAFT_4428" id="clusterblast-1_h12_8_21" points="451,85 456,80 459,80 459,90 456,90 451,85 " class="clusterblast-orf"  />
<polygon style="stroke:black; stroke-width:1; fill:#FFFFFF; " description="translation_initiation_factor_IF-1[br]Location: 45118 - 45336" locus_tag="B1NLA3EDRAFT_4427" id="clusterblast-1_h12_8_22" points="462,85 466,80 466,90 462,85 " class="clusterblast-orf"  />
<polygon style="stroke:black; stroke-width:1; fill:#FFFFFF; " description="methionine_aminopeptidase,_type_I[br]Location: 44260 - 45006" locus_tag="B1NLA3EDRAFT_4426" id="clusterblast-1_h12_8_23" points="468,85 473,80 483,80 483,90 473,90 468,85 " class="clusterblast-orf"  />
<polygon style="stroke:black; stroke-width:1; fill:#FFFFFF; " description="adenylate_kinase[br]Location: 43613 - 44263" locus_tag="B1NLA3EDRAFT_4425" id="clusterblast-1_h12_8_24" points="482,85 487,80 495,80 495,90 487,90 482,85 " class="clusterblast-orf"  />
<polygon style="stroke:black; stroke-width:1; fill:#FFFFFF; " description="preprotein_translocase,_SecY_subunit[br]Location: 42265 - 43554" locus_tag="B1NLA3EDRAFT_4424" id="clusterblast-1_h12_8_25" points="496,85 501,80 521,80 521,90 501,90 496,85 " class="clusterblast-orf"  />
<polygon style="stroke:black; stroke-width:1; fill:#FFFFFF; " description="ribosomal_protein_L15[br]Location: 41825 - 42265" locus_tag="B1NLA3EDRAFT_4423" id="clusterblast-1_h12_8_26" points="521,85 526,80 529,80 529,90 526,90 521,85 " class="clusterblast-orf"  />
<polygon style="stroke:black; stroke-width:1; fill:#FFFFFF; " description="ribosomal_protein_L30[br]Location: 41612 - 41794" locus_tag="B1NLA3EDRAFT_4422" id="clusterblast-1_h12_8_27" points="530,85 533,80 533,90 530,85 " class="clusterblast-orf"  />
<polygon style="stroke:black; stroke-width:1; fill:#FFFFFF; " description="ribosomal_protein_S5[br]Location: 41098 - 41598" locus_tag="B1NLA3EDRAFT_4421" id="clusterblast-1_h12_8_28" points="534,85 539,80 543,80 543,90 539,90 534,85 " class="clusterblast-orf"  />
<polygon style="stroke:black; stroke-width:1; fill:#FFFFFF; " description="ribosomal_protein_L18[br]Location: 40711 - 41073" locus_tag="B1NLA3EDRAFT_4420" id="clusterblast-1_h12_8_29" points="544,85 549,80 551,80 551,90 549,90 544,85 " class="clusterblast-orf"  />
<polygon style="stroke:black; stroke-width:1; fill:#FFFFFF; " description="ribosomal_protein_L6[br]Location: 40142 - 40678" locus_tag="B1NLA3EDRAFT_4419" id="clusterblast-1_h12_8_30" points="551,85 556,80 562,80 562,90 556,90 551,85 " class="clusterblast-orf"  />
<polygon style="stroke:black; stroke-width:1; fill:#FFFFFF; " description="ribosomal_protein_S8[br]Location: 39712 - 40110" locus_tag="B1NLA3EDRAFT_4418" id="clusterblast-1_h12_8_31" points="562,85 567,80 570,80 570,90 567,90 562,85 " class="clusterblast-orf"  />
<polygon style="stroke:black; stroke-width:1; fill:#FFFFFF; " description="ribosomal_protein_S14[br]Location: 39496 - 39681" locus_tag="B1NLA3EDRAFT_4417" id="clusterblast-1_h12_8_32" points="571,85 574,80 574,90 571,85 " class="clusterblast-orf"  />
<polygon style="stroke:black; stroke-width:1; fill:#FFFFFF; " description="50S_ribosomal_protein_L5[br]Location: 38931 - 39470" locus_tag="B1NLA3EDRAFT_4416" id="clusterblast-1_h12_8_33" points="575,85 580,80 585,80 585,90 580,90 575,85 " class="clusterblast-orf"  />
<polygon style="stroke:black; stroke-width:1; fill:#FFFFFF; " description="ribosomal_protein_L24[br]Location: 38593 - 38904" locus_tag="B1NLA3EDRAFT_4415" id="clusterblast-1_h12_8_34" points="585,85 590,80 591,80 591,90 590,90 585,85 " class="clusterblast-orf"  />
<polygon style="stroke:black; stroke-width:1; fill:#FFFFFF; " description="ribosomal_protein_L14[br]Location: 38187 - 38555" locus_tag="B1NLA3EDRAFT_4414" id="clusterblast-1_h12_8_35" points="592,85 597,80 599,80 599,90 597,90 592,85 " class="clusterblast-orf"  />
<polygon style="stroke:black; stroke-width:1; fill:#FFFFFF; " description="30S_ribosomal_protein_S17[br]Location: 37883 - 38146" locus_tag="B1NLA3EDRAFT_4413" id="clusterblast-1_h12_8_36" points="600,85 605,80 605,80 605,90 605,90 600,85 " class="clusterblast-orf"  />
<polygon style="stroke:black; stroke-width:1; fill:#FFFFFF; " description="ribosomal_protein_L29[br]Location: 37659 - 37862" locus_tag="B1NLA3EDRAFT_4412" id="clusterblast-1_h12_8_37" points="605,85 609,80 609,90 605,85 " class="clusterblast-orf"  />
<polygon style="stroke:black; stroke-width:1; fill:#FFFFFF; " description="ribosomal_protein_L16[br]Location: 37235 - 37669" locus_tag="B1NLA3EDRAFT_4411" id="clusterblast-1_h12_8_38" points="609,85 614,80 618,80 618,90 614,90 609,85 " class="clusterblast-orf"  />
<polygon style="stroke:black; stroke-width:1; fill:#FFFFFF; " description="ribosomal_protein_S3[br]Location: 36577 - 37233" locus_tag="B1NLA3EDRAFT_4410" id="clusterblast-1_h12_8_39" points="618,85 623,80 630,80 630,90 623,90 618,85 " class="clusterblast-orf"  />
<polygon style="stroke:black; stroke-width:1; fill:#FFFFFF; " description="ribosomal_protein_L22[br]Location: 36232 - 36573" locus_tag="B1NLA3EDRAFT_4409" id="clusterblast-1_h12_8_40" points="630,85 635,80 637,80 637,90 635,90 630,85 " class="clusterblast-orf"  />
<polygon style="stroke:black; stroke-width:1; fill:#FFFFFF; " description="ribosomal_protein_S19[br]Location: 35935 - 36213" locus_tag="B1NLA3EDRAFT_4408" id="clusterblast-1_h12_8_41" points="637,85 642,80 643,80 643,90 642,90 637,85 " class="clusterblast-orf"  />
<polygon style="stroke:black; stroke-width:1; fill:#FFFFFF; " description="ribosomal_protein_L2[br]Location: 35044 - 35874" locus_tag="B1NLA3EDRAFT_4407" id="clusterblast-1_h12_8_42" points="644,85 649,80 660,80 660,90 649,90 644,85 " class="clusterblast-orf"  />
<polygon style="stroke:black; stroke-width:1; fill:#FFFFFF; " description="Ribosomal_protein_L25/L23[br]Location: 34730 - 35014" locus_tag="B1NLA3EDRAFT_4406" id="clusterblast-1_h12_8_43" points="660,85 665,80 666,80 666,90 665,90 660,85 " class="clusterblast-orf"  />
<polygon style="stroke:black; stroke-width:1; fill:#FFFFFF; " description="ribosomal_protein_L4/L1e[br]Location: 34107 - 34730" locus_tag="B1NLA3EDRAFT_4405" id="clusterblast-1_h12_8_44" points="666,85 671,80 678,80 678,90 671,90 666,85 " class="clusterblast-orf"  />
<polygon style="stroke:black; stroke-width:1; fill:#FFFFFF; " description="50S_ribosomal_protein_L3[br]Location: 33453 - 34079" locus_tag="B1NLA3EDRAFT_4404" id="clusterblast-1_h12_8_45" points="678,85 683,80 690,80 690,90 683,90 678,85 " class="clusterblast-orf"  />
</g>
</svg>
