<svg xmlns="http://www.w3.org/2000/svg" height="230" width="800" version="1.1" y="0" x="0" preserveAspectRatio="none" xmlns:xlink="http://www.w3.org/1999/xlink" viewBox="0 0 800 230"  >
<g class="clusterblast-cluster" label="Query sequence"  >
<text class="clusterblast-acc" y="10" x="5"  >
Query sequence</text>
<line y1="35" x2="778.0" style="stroke:grey; stroke-width:1; " x1="10" y2="35"  />
<polygon style="stroke:black; stroke-width:1; fill:#FFFFFF; " description="unannotated orf[br]Location: 0 - 322" locus_tag="CHAFR746836_0040870.1" class="clusterblast-orf" points="190,35 191,30 191,40 190,35 " id="clusterblast-1_q53_7_0"  />
<polygon style="stroke:black; stroke-width:1; fill:#FFFFFF; " description="unannotated orf[br]Location: 690 - 1609" locus_tag="CHAFR746836_0040880.1" class="clusterblast-orf" points="193,40 193,40 198,35 193,30 193,30 193,40 " id="clusterblast-1_q53_7_1"  />
<polygon style="stroke:black; stroke-width:1; fill:#FFFFFF; " description="unannotated orf[br]Location: 1917 - 2487" locus_tag="CHAFR746836_0040890.1" class="clusterblast-orf" points="199,35 202,30 202,40 199,35 " id="clusterblast-1_q53_7_2"  />
<polygon style="stroke:black; stroke-width:1; fill:#FFFFFF; " description="unannotated orf[br]Location: 2829 - 4095" locus_tag="CHAFR746836_0040900.1" class="clusterblast-orf" points="204,40 206,40 211,35 206,30 204,30 204,40 " id="clusterblast-1_q53_7_3"  />
<polygon style="stroke:black; stroke-width:1; fill:red; " description="unannotated orf[br]Location: 4748 - 6053" locus_tag="CHAFR746836_0040910.1" class="clusterblast-orf" points="214,40 216,40 221,35 216,30 214,30 214,40 " id="clusterblast-1_q53_7_4"  />
<polygon style="stroke:black; stroke-width:1; fill:green; " description="unannotated orf[br]Location: 5316 - 6053" locus_tag="CHAFR746836_0040910.2" class="clusterblast-orf" points="217,40 221,35 217,30 217,40 " id="clusterblast-1_q53_7_5"  />
<polygon style="stroke:black; stroke-width:1; fill:#FFFFFF; " description="unannotated orf[br]Location: 19247 - 21227" locus_tag="CHAFR746836_0040920.1" class="clusterblast-orf" points="289,35 294,30 300,30 300,40 294,40 289,35 " id="clusterblast-1_q53_7_6"  />
<polygon style="stroke:black; stroke-width:1; fill:#FFFFFF; " description="unannotated orf[br]Location: 22480 - 23723" locus_tag="CHAFR746836_0040930.1" class="clusterblast-orf" points="306,35 311,30 312,30 312,40 311,40 306,35 " id="clusterblast-1_q53_7_7"  />
<polygon style="stroke:black; stroke-width:1; fill:#FFFFFF; " description="unannotated orf[br]Location: 24447 - 25229" locus_tag="CHAFR746836_0040940.1" class="clusterblast-orf" points="316,40 320,35 316,30 316,40 " id="clusterblast-1_q53_7_8"  />
<polygon style="stroke:black; stroke-width:1; fill:blue; " description="unannotated orf[br]Location: 26989 - 36831" locus_tag="CHAFR746836_0040950.1" class="clusterblast-orf" points="329,40 375,40 380,35 375,30 329,30 329,40 " id="clusterblast-1_q53_7_9"  />
<polygon style="stroke:black; stroke-width:1; fill:#FFFFFF; " description="unannotated orf[br]Location: 37202 - 38681" locus_tag="CHAFR746836_0040960.1" class="clusterblast-orf" points="382,35 387,30 390,30 390,40 387,40 382,35 " id="clusterblast-1_q53_7_10"  />
<polygon style="stroke:black; stroke-width:1; fill:#FFFFFF; " description="unannotated orf[br]Location: 39268 - 43358" locus_tag="CHAFR746836_0040970.1" class="clusterblast-orf" points="393,35 398,30 414,30 414,40 398,40 393,35 " id="clusterblast-1_q53_7_11"  />
<polygon style="stroke:black; stroke-width:1; fill:#FFFFFF; " description="unannotated orf[br]Location: 44144 - 49961" locus_tag="CHAFR746836_0040980.1" class="clusterblast-orf" points="418,40 443,40 448,35 443,30 418,30 418,40 " id="clusterblast-1_q53_7_12"  />
<polygon style="stroke:black; stroke-width:1; fill:#FFFFFF; " description="unannotated orf[br]Location: 60900 - 62027" locus_tag="CHAFR746836_0040990.1" class="clusterblast-orf" points="505,40 506,40 511,35 506,30 505,30 505,40 " id="clusterblast-1_q53_7_13"  />
<polygon style="stroke:black; stroke-width:1; fill:#FFFFFF; " description="unannotated orf[br]Location: 67062 - 68025" locus_tag="CHAFR746836_0041000.1" class="clusterblast-orf" points="537,40 537,40 542,35 537,30 537,30 537,40 " id="clusterblast-1_q53_7_14"  />
<polygon style="stroke:black; stroke-width:1; fill:#FFFFFF; " description="unannotated orf[br]Location: 70299 - 71348" locus_tag="CHAFR746836_0041010.1" class="clusterblast-orf" points="554,40 554,40 559,35 554,30 554,30 554,40 " id="clusterblast-1_q53_7_15"  />
<polygon style="stroke:black; stroke-width:1; fill:#FFFFFF; " description="unannotated orf[br]Location: 73436 - 77093" locus_tag="CHAFR746836_0041020.1" class="clusterblast-orf" points="570,35 575,30 589,30 589,40 575,40 570,35 " id="clusterblast-1_q53_7_16"  />
<polygon style="stroke:black; stroke-width:1; fill:yellow; " description="unannotated orf[br]Location: 77315 - 78384" locus_tag="CHAFR746836_0041030.1" class="clusterblast-orf" points="590,40 591,40 596,35 591,30 590,30 590,40 " id="clusterblast-1_q53_7_17"  />
</g>
<g class="clusterblast-cluster" description="Streptomyces griseoflavus Tu4000 genomic scaffold superc..." label="NZ_GG657758.1_c20"  >
<text class="clusterblast-acc" y="60" x="5"  >
NZ_GG657758.1_c20</text>
<text class="clusterblast-desc" y="60" x="460.8"  >
Streptomyces griseoflavus Tu4000 genomic scaffold superc...</text>
<line y1="85" x2="778.0" style="stroke:grey; stroke-width:1; " x1="10" y2="85"  />
<polygon style="stroke:black; stroke-width:1; fill:#FFFFFF; " description="mandelate_racemase/muconate_lactonizing_enzyme[br]Location: 7874807 - 7876096" locus_tag="SSRG_06229" id="clusterblast-1_h53_7_0" points="10,90 11,90 16,85 11,80 10,80 10,90 " class="clusterblast-orf"  />
<polygon style="stroke:black; stroke-width:1; fill:#FFFFFF; " description="D-3-phosphoglycerate_dehydrogenase[br]Location: 7876104 - 7877087" locus_tag="SSRG_06230" id="clusterblast-1_h53_7_1" points="16,90 16,90 21,85 16,80 16,80 16,90 " class="clusterblast-orf"  />
<polygon style="stroke:black; stroke-width:1; fill:#FFFFFF; " description="5-dehydro-4-deoxyglucarate_dehydratase[br]Location: 7877133 - 7878044" locus_tag="SSRG_06231" id="clusterblast-1_h53_7_2" points="22,90 26,85 22,80 22,90 " class="clusterblast-orf"  />
<polygon style="stroke:black; stroke-width:1; fill:#FFFFFF; " description="transcriptional_regulator[br]Location: 7878188 - 7879105" locus_tag="SSRG_06232" id="clusterblast-1_h53_7_3" points="27,85 32,80 32,80 32,90 32,90 27,85 " class="clusterblast-orf"  />
<polygon style="stroke:black; stroke-width:1; fill:#FFFFFF; " description="conserved_hypothetical_protein[br]Location: 7879291 - 7879791" locus_tag="SSRG_06233" id="clusterblast-1_h53_7_4" points="33,85 35,80 35,90 33,85 " class="clusterblast-orf"  />
<polygon style="stroke:black; stroke-width:1; fill:#FFFFFF; " description="aldo/keto_reductase_family_oxidoreductase[br]Location: 7880451 - 7881440" locus_tag="SSRG_06234" id="clusterblast-1_h53_7_5" points="39,90 39,90 44,85 39,80 39,80 39,90 " class="clusterblast-orf"  />
<polygon style="stroke:black; stroke-width:1; fill:#FFFFFF; " description="hypothetical_protein[br]Location: 7881467 - 7882417" locus_tag="SSRG_06235" id="clusterblast-1_h53_7_6" points="44,90 44,90 49,85 44,80 44,80 44,90 " class="clusterblast-orf"  />
<polygon style="stroke:black; stroke-width:1; fill:#FFFFFF; " description="beta-lactamase[br]Location: 7882909 - 7884105" locus_tag="SSRG_06236" id="clusterblast-1_h53_7_7" points="51,90 53,90 58,85 53,80 51,80 51,90 " class="clusterblast-orf"  />
<polygon style="stroke:black; stroke-width:1; fill:#FFFFFF; " description="30S_ribosomal_protein_S18[br]Location: 7884448 - 7884684" locus_tag="SSRG_06237" id="clusterblast-1_h53_7_8" points="59,85 61,80 61,90 59,85 " class="clusterblast-orf"  />
<polygon style="stroke:black; stroke-width:1; fill:#FFFFFF; " description="CobW/P47K_domain-containing_protein[br]Location: 7884721 - 7885878" locus_tag="SSRG_06238" id="clusterblast-1_h53_7_9" points="61,85 66,80 67,80 67,90 66,90 61,85 " class="clusterblast-orf"  />
<polygon style="stroke:black; stroke-width:1; fill:#FFFFFF; " description="50S_ribosomal_protein_L31[br]Location: 7885875 - 7886129" locus_tag="SSRG_06239" id="clusterblast-1_h53_7_10" points="67,85 68,80 68,90 67,85 " class="clusterblast-orf"  />
<polygon style="stroke:black; stroke-width:1; fill:#FFFFFF; " description="50S_ribosomal_protein_L33[br]Location: 7886169 - 7886333" locus_tag="SSRG_06240" id="clusterblast-1_h53_7_11" points="68,85 69,80 69,90 68,85 " class="clusterblast-orf"  />
<polygon style="stroke:black; stroke-width:1; fill:#FFFFFF; " description="ribosomal_protein_L28[br]Location: 7886401 - 7886637" locus_tag="SSRG_06241" id="clusterblast-1_h53_7_12" points="70,90 71,85 70,80 70,90 " class="clusterblast-orf"  />
<polygon style="stroke:black; stroke-width:1; fill:#FFFFFF; " description="ribosomal_protein_S14[br]Location: 7886637 - 7886942" locus_tag="SSRG_06242" id="clusterblast-1_h53_7_13" points="71,90 72,85 71,80 71,90 " class="clusterblast-orf"  />
<polygon style="stroke:black; stroke-width:1; fill:#FFFFFF; " description="hypothetical_protein[br]Location: 7887031 - 7887324" locus_tag="SSRG_06243" id="clusterblast-1_h53_7_14" points="73,85 74,80 74,90 73,85 " class="clusterblast-orf"  />
<polygon style="stroke:black; stroke-width:1; fill:#FFFFFF; " description="ArsR_family_toxin-antitoxin_system,_antitoxin[br]Location: 7887695 - 7887988" locus_tag="SSRG_06244" id="clusterblast-1_h53_7_15" points="76,90 78,85 76,80 76,90 " class="clusterblast-orf"  />
<polygon style="stroke:black; stroke-width:1; fill:#FFFFFF; " description="glyoxalase[br]Location: 7887985 - 7888377" locus_tag="SSRG_06245" id="clusterblast-1_h53_7_16" points="78,90 80,85 78,80 78,90 " class="clusterblast-orf"  />
<polygon style="stroke:black; stroke-width:1; fill:#FFFFFF; " description="PhnB_protein[br]Location: 7888389 - 7888778" locus_tag="SSRG_06246" id="clusterblast-1_h53_7_17" points="80,90 82,85 80,80 80,90 " class="clusterblast-orf"  />
<polygon style="stroke:black; stroke-width:1; fill:#FFFFFF; " description="hypothetical_protein[br]Location: 7889142 - 7889282" locus_tag="SSRG_06247" id="clusterblast-1_h53_7_18" points="84,90 85,85 84,80 84,90 " class="clusterblast-orf"  />
<polygon style="stroke:black; stroke-width:1; fill:#FFFFFF; " description="6-O-methylguanine_DNA_methyltransferase,_DNA[br]Location: 7889551 - 7889835" locus_tag="SSRG_06248" id="clusterblast-1_h53_7_19" points="86,85 87,80 87,90 86,85 " class="clusterblast-orf"  />
<polygon style="stroke:black; stroke-width:1; fill:#FFFFFF; " description="HhH-GPD_domain-containing_protein[br]Location: 7889832 - 7890371" locus_tag="SSRG_06249" id="clusterblast-1_h53_7_20" points="87,85 90,80 90,90 87,85 " class="clusterblast-orf"  />
<polygon style="stroke:black; stroke-width:1; fill:#FFFFFF; " description="conserved_domain-containing_protein[br]Location: 7890377 - 7890586" locus_tag="SSRG_06250" id="clusterblast-1_h53_7_21" points="90,85 91,80 91,90 90,85 " class="clusterblast-orf"  />
<polygon style="stroke:black; stroke-width:1; fill:#FFFFFF; " description="conserved_hypothetical_protein[br]Location: 7890819 - 7891142" locus_tag="SSRG_06251" id="clusterblast-1_h53_7_22" points="92,90 94,85 92,80 92,90 " class="clusterblast-orf"  />
<polygon style="stroke:black; stroke-width:1; fill:#FFFFFF; " description="conserved_hypothetical_protein[br]Location: 7891448 - 7891639" locus_tag="SSRG_06252" id="clusterblast-1_h53_7_23" points="96,90 97,85 96,80 96,90 " class="clusterblast-orf"  />
<polygon style="stroke:black; stroke-width:1; fill:#FFFFFF; " description="conserved_hypothetical_protein[br]Location: 7891578 - 7892003" locus_tag="SSRG_06253" id="clusterblast-1_h53_7_24" points="96,90 99,85 96,80 96,90 " class="clusterblast-orf"  />
<polygon style="stroke:black; stroke-width:1; fill:#FFFFFF; " description="serine/arginine_repetitive_matrix_protein_1[br]Location: 7892153 - 7893262" locus_tag="SSRG_06254" id="clusterblast-1_h53_7_25" points="99,85 104,80 105,80 105,90 104,90 99,85 " class="clusterblast-orf"  />
<polygon style="stroke:black; stroke-width:1; fill:#FFFFFF; " description="integral_membrane_protein[br]Location: 7893374 - 7894306" locus_tag="SSRG_06255" id="clusterblast-1_h53_7_26" points="106,85 111,80 111,80 111,90 111,90 106,85 " class="clusterblast-orf"  />
<polygon style="stroke:black; stroke-width:1; fill:#FFFFFF; " description="TetR_family_transcriptional_regulator[br]Location: 7894376 - 7894984" locus_tag="SSRG_06256" id="clusterblast-1_h53_7_27" points="111,90 114,85 111,80 111,90 " class="clusterblast-orf"  />
<polygon style="stroke:black; stroke-width:1; fill:#FFFFFF; " description="conserved_hypothetical_protein[br]Location: 7894996 - 7896357" locus_tag="SSRG_06257" id="clusterblast-1_h53_7_28" points="114,85 119,80 121,80 121,90 119,90 114,85 " class="clusterblast-orf"  />
<polygon style="stroke:black; stroke-width:1; fill:#FFFFFF; " description="C_terminus_superfamily_lantibiotic_dehydratase[br]Location: 7896393 - 7899530" locus_tag="SSRG_06258" id="clusterblast-1_h53_7_29" points="121,85 126,80 138,80 138,90 126,90 121,85 " class="clusterblast-orf"  />
<polygon style="stroke:black; stroke-width:1; fill:#FFFFFF; " description="conserved_hypothetical_protein[br]Location: 7899614 - 7899775" locus_tag="SSRG_06259" id="clusterblast-1_h53_7_30" points="138,85 139,80 139,90 138,85 " class="clusterblast-orf"  />
<polygon style="stroke:black; stroke-width:1; fill:#FFFFFF; " description="methyltransferase[br]Location: 7900109 - 7900798" locus_tag="SSRG_06260" id="clusterblast-1_h53_7_31" points="141,90 144,85 141,80 141,90 " class="clusterblast-orf"  />
<polygon style="stroke:black; stroke-width:1; fill:#FFFFFF; " description="hypothetical_protein[br]Location: 7900895 - 7901518" locus_tag="SSRG_06261" id="clusterblast-1_h53_7_32" points="145,90 148,85 145,80 145,90 " class="clusterblast-orf"  />
<polygon style="stroke:black; stroke-width:1; fill:#FFFFFF; " description="acetyltransferase[br]Location: 7901543 - 7902181" locus_tag="SSRG_06262" id="clusterblast-1_h53_7_33" points="148,90 151,85 148,80 148,90 " class="clusterblast-orf"  />
<polygon style="stroke:black; stroke-width:1; fill:#FFFFFF; " description="conserved_hypothetical_protein[br]Location: 7902365 - 7902799" locus_tag="SSRG_06263" id="clusterblast-1_h53_7_34" points="152,85 155,80 155,90 152,85 " class="clusterblast-orf"  />
<polygon style="stroke:black; stroke-width:1; fill:#FFFFFF; " description="heat_shock_protein[br]Location: 7903031 - 7903462" locus_tag="SSRG_06264" id="clusterblast-1_h53_7_35" points="156,85 158,80 158,90 156,85 " class="clusterblast-orf"  />
<polygon style="stroke:black; stroke-width:1; fill:#FFFFFF; " description="hsp18-like_protein[br]Location: 7903584 - 7904267" locus_tag="SSRG_06265" id="clusterblast-1_h53_7_36" points="159,90 162,85 159,80 159,90 " class="clusterblast-orf"  />
<polygon style="stroke:black; stroke-width:1; fill:#FFFFFF; " description="beta-galactosidase[br]Location: 7904368 - 7905783" locus_tag="SSRG_06266" id="clusterblast-1_h53_7_37" points="163,85 168,80 170,80 170,90 168,90 163,85 " class="clusterblast-orf"  />
<polygon style="stroke:black; stroke-width:1; fill:#FFFFFF; " description="ABC_transporter_sugar_permease[br]Location: 7905845 - 7906750" locus_tag="SSRG_06267" id="clusterblast-1_h53_7_38" points="170,85 175,80 175,80 175,90 175,90 170,85 " class="clusterblast-orf"  />
<polygon style="stroke:black; stroke-width:1; fill:#FFFFFF; " description="ABC-type_sugar_transport_system,_permease[br]Location: 7906747 - 7907745" locus_tag="SSRG_06268" id="clusterblast-1_h53_7_39" points="175,85 180,80 180,80 180,90 180,90 175,85 " class="clusterblast-orf"  />
<polygon style="stroke:black; stroke-width:1; fill:#FFFFFF; " description="extracellular_sugar-binding_protein[br]Location: 7907841 - 7909145" locus_tag="SSRG_06269" id="clusterblast-1_h53_7_40" points="181,85 186,80 187,80 187,90 186,90 181,85 " class="clusterblast-orf"  />
<polygon style="stroke:black; stroke-width:1; fill:#FFFFFF; " description="LacI_family_transcriptional_regulator[br]Location: 7909479 - 7909793" locus_tag="SSRG_06270" id="clusterblast-1_h53_7_41" points="189,85 191,80 191,90 189,85 " class="clusterblast-orf"  />
<polygon style="stroke:black; stroke-width:1; fill:#FFFFFF; " description="LacI_family_transcriptional_regulator[br]Location: 7909921 - 7910547" locus_tag="SSRG_06271" id="clusterblast-1_h53_7_42" points="192,85 195,80 195,90 192,85 " class="clusterblast-orf"  />
<polygon style="stroke:black; stroke-width:1; fill:#FFFFFF; " description="glycosyl_hydrolase[br]Location: 7911526 - 7914396" locus_tag="SSRG_06272" id="clusterblast-1_h53_7_43" points="200,90 210,90 215,85 210,80 200,80 200,90 " class="clusterblast-orf"  />
<polygon style="stroke:black; stroke-width:1; fill:#FFFFFF; " description="aldo/keto_reductase_family_oxidoreductase[br]Location: 7914666 - 7915571" locus_tag="SSRG_06273" id="clusterblast-1_h53_7_44" points="216,90 216,90 221,85 216,80 216,80 216,90 " class="clusterblast-orf"  />
<polygon style="stroke:black; stroke-width:1; fill:#FFFFFF; " description="transcriptional_regulatory_protein[br]Location: 7915663 - 7917915" locus_tag="SSRG_06274" id="clusterblast-1_h53_7_45" points="221,90 228,90 233,85 228,80 221,80 221,90 " class="clusterblast-orf"  />
<polygon style="stroke:black; stroke-width:1; fill:#FFFFFF; " description="conserved_hypothetical_protein[br]Location: 7917928 - 7918485" locus_tag="SSRG_06275" id="clusterblast-1_h53_7_46" points="233,90 236,85 233,80 233,90 " class="clusterblast-orf"  />
<polygon style="stroke:black; stroke-width:1; fill:#FFFFFF; " description="hypothetical_protein[br]Location: 7918599 - 7919324" locus_tag="SSRG_06276" id="clusterblast-1_h53_7_47" points="236,90 240,85 236,80 236,90 " class="clusterblast-orf"  />
<polygon style="stroke:black; stroke-width:1; fill:#FFFFFF; " description="serine/threonine-protein_kinase_AfsK[br]Location: 7919470 - 7920675" locus_tag="SSRG_06277" id="clusterblast-1_h53_7_48" points="241,90 242,90 247,85 242,80 241,80 241,90 " class="clusterblast-orf"  />
<polygon style="stroke:black; stroke-width:1; fill:#FFFFFF; " description="GNAT_family_acetyltransferase[br]Location: 7920726 - 7921232" locus_tag="SSRG_06278" id="clusterblast-1_h53_7_49" points="248,90 250,85 248,80 248,90 " class="clusterblast-orf"  />
<polygon style="stroke:black; stroke-width:1; fill:#FFFFFF; " description="conserved_hypothetical_protein[br]Location: 7921329 - 7922132" locus_tag="SSRG_06279" id="clusterblast-1_h53_7_50" points="251,85 255,80 255,90 251,85 " class="clusterblast-orf"  />
<polygon style="stroke:black; stroke-width:1; fill:#FFFFFF; " description="integral_membrane_protein[br]Location: 7922260 - 7922937" locus_tag="SSRG_06280" id="clusterblast-1_h53_7_51" points="255,85 259,80 259,90 255,85 " class="clusterblast-orf"  />
<polygon style="stroke:black; stroke-width:1; fill:#FFFFFF; " description="lipoprotein[br]Location: 7922949 - 7924382" locus_tag="SSRG_06281" id="clusterblast-1_h53_7_52" points="259,85 264,80 266,80 266,90 264,90 259,85 " class="clusterblast-orf"  />
<polygon style="stroke:black; stroke-width:1; fill:#FFFFFF; " description="conserved_hypothetical_protein[br]Location: 7924489 - 7926111" locus_tag="SSRG_06282" id="clusterblast-1_h53_7_53" points="267,85 272,80 275,80 275,90 272,90 267,85 " class="clusterblast-orf"  />
<polygon style="stroke:black; stroke-width:1; fill:#FFFFFF; " description="hypothetical_protein[br]Location: 7926362 - 7926526" locus_tag="SSRG_06283" id="clusterblast-1_h53_7_54" points="277,90 278,85 277,80 277,90 " class="clusterblast-orf"  />
<polygon style="stroke:black; stroke-width:1; fill:#FFFFFF; " description="hypothetical_Cytosolic_protein[br]Location: 7927141 - 7927851" locus_tag="SSRG_06284" id="clusterblast-1_h53_7_55" points="281,90 284,85 281,80 281,90 " class="clusterblast-orf"  />
<polygon style="stroke:black; stroke-width:1; fill:#FFFFFF; " description="EntD_family_protein[br]Location: 7927920 - 7928630" locus_tag="SSRG_06285" id="clusterblast-1_h53_7_56" points="285,85 288,80 288,90 285,85 " class="clusterblast-orf"  />
<polygon style="stroke:black; stroke-width:1; fill:#FFFFFF; " description="cytochrome_P450_107B1[br]Location: 7928857 - 7930086" locus_tag="SSRG_06286" id="clusterblast-1_h53_7_57" points="290,85 295,80 296,80 296,90 295,90 290,85 " class="clusterblast-orf"  />
<polygon style="stroke:black; stroke-width:1; fill:#FFFFFF; " description="alpha/beta_hydrolase[br]Location: 7930770 - 7931153" locus_tag="SSRG_06287" id="clusterblast-1_h53_7_58" points="300,90 302,85 300,80 300,90 " class="clusterblast-orf"  />
<polygon style="stroke:black; stroke-width:1; fill:blue; " description="polyketide_synthase[br]Location: 7931612 - 7937177&lt;br&gt;&lt;br&gt;&lt;b&gt;BlastP hit with CHAFR746836_0040950.1&lt;/b&gt;&lt;br&gt;Percentage identity: 34%&lt;br&gt;Percentage coverage: 17%&lt;br&gt;BLAST bit score: 311&lt;br&gt;E-value: 1e-83" locus_tag="SSRG_06288" id="clusterblast-1_h53_7_59" points="304,90 328,90 333,85 328,80 304,80 304,90 " class="clusterblast-orf"  />
<polygon style="stroke:black; stroke-width:1; fill:blue; " description="polyketide_synthase[br]Location: 7937293 - 7955070&lt;br&gt;&lt;br&gt;&lt;b&gt;BlastP hit with CHAFR746836_0040950.1&lt;/b&gt;&lt;br&gt;Percentage identity: 34%&lt;br&gt;Percentage coverage: 16%&lt;br&gt;BLAST bit score: 256&lt;br&gt;E-value: 2e-66" locus_tag="SSRG_06289" id="clusterblast-1_h53_7_60" points="333,90 421,90 426,85 421,80 333,80 333,90 " class="clusterblast-orf"  />
<polygon style="stroke:black; stroke-width:1; fill:blue; " description="non-ribosomal_peptide_synthetase/polyketide[br]Location: 7956550 - 7957986&lt;br&gt;&lt;br&gt;&lt;b&gt;BlastP hit with CHAFR746836_0040950.1&lt;/b&gt;&lt;br&gt;Percentage identity: 42%&lt;br&gt;Percentage coverage: 10%&lt;br&gt;BLAST bit score: 225&lt;br&gt;E-value: 3e-61" locus_tag="SSRG_06290" id="clusterblast-1_h53_7_61" points="433,90 436,90 441,85 436,80 433,80 433,90 " class="clusterblast-orf"  />
<polygon style="stroke:black; stroke-width:1; fill:blue; " description="polyketide_synthase[br]Location: 7958401 - 7966965&lt;br&gt;&lt;br&gt;&lt;b&gt;BlastP hit with CHAFR746836_0040950.1&lt;/b&gt;&lt;br&gt;Percentage identity: 33%&lt;br&gt;Percentage coverage: 17%&lt;br&gt;BLAST bit score: 283&lt;br&gt;E-value: 6e-75" locus_tag="SSRG_06291" id="clusterblast-1_h53_7_62" points="443,90 482,90 487,85 482,80 443,80 443,90 " class="clusterblast-orf"  />
<polygon style="stroke:black; stroke-width:1; fill:blue; " description="non-ribosomal_peptide_synthetase/polyketide[br]Location: 7968384 - 7970843&lt;br&gt;&lt;br&gt;&lt;b&gt;BlastP hit with CHAFR746836_0040950.1&lt;/b&gt;&lt;br&gt;Percentage identity: 32%&lt;br&gt;Percentage coverage: 17%&lt;br&gt;BLAST bit score: 284&lt;br&gt;E-value: 5e-78" locus_tag="SSRG_06292" id="clusterblast-1_h53_7_63" points="495,90 502,90 507,85 502,80 495,80 495,90 " class="clusterblast-orf"  />
<polygon style="stroke:black; stroke-width:1; fill:blue; " description="mixed_type_I_polyketide_synthase[br]Location: 7971278 - 7974466&lt;br&gt;&lt;br&gt;&lt;b&gt;BlastP hit with CHAFR746836_0040950.1&lt;/b&gt;&lt;br&gt;Percentage identity: 37%&lt;br&gt;Percentage coverage: 11%&lt;br&gt;BLAST bit score: 215&lt;br&gt;E-value: 6e-55" locus_tag="SSRG_06293" id="clusterblast-1_h53_7_64" points="510,90 521,90 526,85 521,80 510,80 510,90 " class="clusterblast-orf"  />
<polygon style="stroke:black; stroke-width:1; fill:blue; " description="polyketide_synthase[br]Location: 7974567 - 7977194&lt;br&gt;&lt;br&gt;&lt;b&gt;BlastP hit with CHAFR746836_0040950.1&lt;/b&gt;&lt;br&gt;Percentage identity: 35%&lt;br&gt;Percentage coverage: 13%&lt;br&gt;BLAST bit score: 256&lt;br&gt;E-value: 1e-68" locus_tag="SSRG_06294" id="clusterblast-1_h53_7_65" points="527,90 535,90 540,85 535,80 527,80 527,90 " class="clusterblast-orf"  />
<polygon style="stroke:black; stroke-width:1; fill:blue; " description="polyketide_synthase[br]Location: 7977187 - 7986216&lt;br&gt;&lt;br&gt;&lt;b&gt;BlastP hit with CHAFR746836_0040950.1&lt;/b&gt;&lt;br&gt;Percentage identity: 33%&lt;br&gt;Percentage coverage: 17%&lt;br&gt;BLAST bit score: 301&lt;br&gt;E-value: 4e-80" locus_tag="SSRG_06295" id="clusterblast-1_h53_7_66" points="540,90 582,90 587,85 582,80 540,80 540,90 " class="clusterblast-orf"  />
<polygon style="stroke:black; stroke-width:1; fill:blue; " description="polyketide_synthase[br]Location: 7987931 - 7989899&lt;br&gt;&lt;br&gt;&lt;b&gt;BlastP hit with CHAFR746836_0040950.1&lt;/b&gt;&lt;br&gt;Percentage identity: 41%&lt;br&gt;Percentage coverage: 13%&lt;br&gt;BLAST bit score: 272&lt;br&gt;E-value: 2e-75" locus_tag="SSRG_06296" id="clusterblast-1_h53_7_67" points="596,90 601,90 606,85 601,80 596,80 596,90 " class="clusterblast-orf"  />
<polygon style="stroke:black; stroke-width:1; fill:#FFFFFF; " description="polyketide_synthase[br]Location: 7991115 - 7991645" locus_tag="SSRG_06297" id="clusterblast-1_h53_7_68" points="612,90 615,85 612,80 612,90 " class="clusterblast-orf"  />
<polygon style="stroke:black; stroke-width:1; fill:blue; " description="PfaD_family_protein[br]Location: 7992382 - 7996911&lt;br&gt;&lt;br&gt;&lt;b&gt;BlastP hit with CHAFR746836_0040950.1&lt;/b&gt;&lt;br&gt;Percentage identity: 32%&lt;br&gt;Percentage coverage: 17%&lt;br&gt;BLAST bit score: 249&lt;br&gt;E-value: 6e-65" locus_tag="SSRG_06298" id="clusterblast-1_h53_7_69" points="619,90 637,90 642,85 637,80 619,80 619,90 " class="clusterblast-orf"  />
<polygon style="stroke:black; stroke-width:1; fill:#FFFFFF; " description="malonyl_CoA-acyl_carrier_protein_transacylase[br]Location: 7996918 - 7998090" locus_tag="SSRG_06299" id="clusterblast-1_h53_7_70" points="642,90 644,90 649,85 644,80 642,80 642,90 " class="clusterblast-orf"  />
<polygon style="stroke:black; stroke-width:1; fill:#FFFFFF; " description="polyketide_TA_biosynthesis_protein_TaC[br]Location: 7998132 - 7999391" locus_tag="SSRG_06300" id="clusterblast-1_h53_7_71" points="649,90 650,90 655,85 650,80 649,80 649,90 " class="clusterblast-orf"  />
<polygon style="stroke:black; stroke-width:1; fill:#FFFFFF; " description="enoyl-CoA_hydratase/isomerase[br]Location: 7999379 - 8000164" locus_tag="SSRG_06301" id="clusterblast-1_h53_7_72" points="655,90 659,85 655,80 655,90 " class="clusterblast-orf"  />
<polygon style="stroke:black; stroke-width:1; fill:#FFFFFF; " description="enoyl-CoA_hydratase/isomerase[br]Location: 8000167 - 8000919" locus_tag="SSRG_06302" id="clusterblast-1_h53_7_73" points="659,90 663,85 659,80 659,90 " class="clusterblast-orf"  />
<polygon style="stroke:black; stroke-width:1; fill:#FFFFFF; " description="acyl_carrier_protein_AcpK[br]Location: 8000924 - 8001169" locus_tag="SSRG_06303" id="clusterblast-1_h53_7_74" points="663,90 664,85 663,80 663,90 " class="clusterblast-orf"  />
<polygon style="stroke:black; stroke-width:1; fill:#FFFFFF; " description="polyketide_synthase[br]Location: 8001150 - 8002397" locus_tag="SSRG_06304" id="clusterblast-1_h53_7_75" points="664,90 666,90 671,85 666,80 664,80 664,90 " class="clusterblast-orf"  />
<polygon style="stroke:black; stroke-width:1; fill:#FFFFFF; " description="involved_in_polyketide_synthesis[br]Location: 8002447 - 8003412" locus_tag="SSRG_06305" id="clusterblast-1_h53_7_76" points="671,90 671,90 676,85 671,80 671,80 671,90 " class="clusterblast-orf"  />
<polygon style="stroke:black; stroke-width:1; fill:red; " description="short_chain_dehydrogenase/reductase_family[br]Location: 8003447 - 8004310&lt;br&gt;&lt;br&gt;&lt;b&gt;BlastP hit with CHAFR746836_0040910.1&lt;/b&gt;&lt;br&gt;Percentage identity: 31%&lt;br&gt;Percentage coverage: 75%&lt;br&gt;BLAST bit score: 78&lt;br&gt;E-value: 8e-16&lt;br&gt;&lt;br&gt;&lt;b&gt;BlastP hit with CHAFR746836_0040910.2&lt;/b&gt;&lt;br&gt;Percentage identity: 38%&lt;br&gt;Percentage coverage: 46%&lt;br&gt;BLAST bit score: 48&lt;br&gt;E-value: 3e-06" locus_tag="SSRG_06306" id="clusterblast-1_h53_7_77" points="676,90 676,90 681,85 676,80 676,80 676,90 " class="clusterblast-orf"  />
<polygon style="stroke:black; stroke-width:1; fill:#FFFFFF; " description="polyketide_synthase_type_I[br]Location: 8004375 - 8008268" locus_tag="SSRG_06307" id="clusterblast-1_h53_7_78" points="681,90 696,90 701,85 696,80 681,80 681,90 " class="clusterblast-orf"  />
<polygon style="stroke:black; stroke-width:1; fill:#FFFFFF; " description="regulatory_protein_GntR,_HTH[br]Location: 8008276 - 8008863" locus_tag="SSRG_06308" id="clusterblast-1_h53_7_79" points="701,90 704,85 701,80 701,90 " class="clusterblast-orf"  />
<polygon style="stroke:black; stroke-width:1; fill:#FFFFFF; " description="formamidopyrimidine-DNA_glycosylase[br]Location: 8008963 - 8010246" locus_tag="SSRG_06309" id="clusterblast-1_h53_7_80" points="705,85 710,80 712,80 712,90 710,90 705,85 " class="clusterblast-orf"  />
<polygon style="stroke:black; stroke-width:1; fill:#FFFFFF; " description="hypothetical_protein[br]Location: 8010243 - 8010389" locus_tag="SSRG_06310" id="clusterblast-1_h53_7_81" points="712,85 712,80 712,90 712,85 " class="clusterblast-orf"  />
<polygon style="stroke:black; stroke-width:1; fill:#FFFFFF; " description="membrane_protein[br]Location: 8010437 - 8011180" locus_tag="SSRG_06311" id="clusterblast-1_h53_7_82" points="713,85 716,80 716,90 713,85 " class="clusterblast-orf"  />
<polygon style="stroke:black; stroke-width:1; fill:#FFFFFF; " description="rhodanese_sulfurtransferase[br]Location: 8011177 - 8011542" locus_tag="SSRG_06312" id="clusterblast-1_h53_7_83" points="716,85 718,80 718,90 716,85 " class="clusterblast-orf"  />
<polygon style="stroke:black; stroke-width:1; fill:#FFFFFF; " description="metallo-beta-lactamase_superfamily_protein[br]Location: 8011577 - 8012941" locus_tag="SSRG_06313" id="clusterblast-1_h53_7_84" points="718,85 723,80 726,80 726,90 723,90 718,85 " class="clusterblast-orf"  />
<polygon style="stroke:black; stroke-width:1; fill:#FFFFFF; " description="conserved_hypothetical_protein[br]Location: 8014173 - 8014709" locus_tag="SSRG_06314" id="clusterblast-1_h53_7_85" points="732,85 735,80 735,90 732,85 " class="clusterblast-orf"  />
<polygon style="stroke:black; stroke-width:1; fill:#FFFFFF; " description="conserved_hypothetical_protein[br]Location: 8014859 - 8015778" locus_tag="SSRG_06315" id="clusterblast-1_h53_7_86" points="735,85 740,80 740,80 740,90 740,90 735,85 " class="clusterblast-orf"  />
<polygon style="stroke:black; stroke-width:1; fill:#FFFFFF; " description="conserved_hypothetical_protein[br]Location: 8016002 - 8017207" locus_tag="SSRG_06316" id="clusterblast-1_h53_7_87" points="741,85 746,80 748,80 748,90 746,90 741,85 " class="clusterblast-orf"  />
<polygon style="stroke:black; stroke-width:1; fill:#FFFFFF; " description="membrane_protein[br]Location: 8017204 - 8018349" locus_tag="SSRG_06317" id="clusterblast-1_h53_7_88" points="748,85 753,80 754,80 754,90 753,90 748,85 " class="clusterblast-orf"  />
<polygon style="stroke:black; stroke-width:1; fill:#FFFFFF; " description="peptidase_M52,_hydrogen_uptake_protein[br]Location: 8019016 - 8019534" locus_tag="SSRG_06318" id="clusterblast-1_h53_7_89" points="757,90 760,85 757,80 757,90 " class="clusterblast-orf"  />
<polygon style="stroke:black; stroke-width:1; fill:#FFFFFF; " description="ABC_transporter,_permease[br]Location: 8019497 - 8020900" locus_tag="SSRG_06319" id="clusterblast-1_h53_7_90" points="760,90 762,90 767,85 762,80 760,80 760,90 " class="clusterblast-orf"  />
<polygon style="stroke:black; stroke-width:1; fill:#FFFFFF; " description="hydrogenase,_gamma_subunit[br]Location: 8021151 - 8022173" locus_tag="SSRG_06320" id="clusterblast-1_h53_7_91" points="768,90 768,90 773,85 768,80 768,80 768,90 " class="clusterblast-orf"  />
<polygon style="stroke:black; stroke-width:1; fill:#FFFFFF; " description="hydrogenase/sulfur_reductase,_delta_subunit[br]Location: 8022175 - 8022969" locus_tag="SSRG_06321" id="clusterblast-1_h53_7_92" points="773,90 773,90 778,85 773,80 773,80 773,90 " class="clusterblast-orf"  />
</g>
</svg>
