<svg xmlns="http://www.w3.org/2000/svg" height="230" width="800" version="1.1" y="0" x="0" preserveAspectRatio="none" xmlns:xlink="http://www.w3.org/1999/xlink" viewBox="0 0 800 230"  >
<g class="clusterblast-cluster" label="Query sequence"  >
<text class="clusterblast-acc" y="10" x="5"  >
Query sequence</text>
<line y1="35" x2="778.0" style="stroke:grey; stroke-width:1; " x1="10" y2="35"  />
<polygon style="stroke:black; stroke-width:1; fill:#FFFFFF; " description="unannotated orf[br]Location: 6136 - 7367" locus_tag="CHAFR746836_0085100.1" class="clusterblast-orf" points="121,35 126,30 129,30 129,40 126,40 121,35 " id="clusterblast-1_q17_10_0"  />
<polygon style="stroke:black; stroke-width:1; fill:rgb(190,63,63); " description="unannotated orf[br]Location: 11222 - 12640" locus_tag="CHAFR746836_0085110.1" class="clusterblast-orf" points="156,35 161,30 166,30 166,40 161,40 156,35 " id="clusterblast-1_q17_10_1"  />
<polygon style="stroke:black; stroke-width:1; fill:#FFFFFF; " description="unannotated orf[br]Location: 13318 - 14845" locus_tag="CHAFR746836_0085120.1" class="clusterblast-orf" points="170,40 176,40 181,35 176,30 170,30 170,40 " id="clusterblast-1_q17_10_2"  />
<polygon style="stroke:black; stroke-width:1; fill:rgb(63,63,190); " description="unannotated orf[br]Location: 45129 - 47273" locus_tag="CHAFR746836_0085130.1" class="clusterblast-orf" points="391,35 396,30 406,30 406,40 396,40 391,35 " id="clusterblast-1_q17_10_3"  />
<polygon style="stroke:black; stroke-width:1; fill:#FFFFFF; " description="unannotated orf[br]Location: 49048 - 50295" locus_tag="CHAFR746836_0085140.1" class="clusterblast-orf" points="418,40 422,40 427,35 422,30 418,30 418,40 " id="clusterblast-1_q17_10_4"  />
<polygon style="stroke:black; stroke-width:1; fill:#FFFFFF; " description="unannotated orf[br]Location: 50632 - 52244" locus_tag="CHAFR746836_0085150.1" class="clusterblast-orf" points="429,35 434,30 441,30 441,40 434,40 429,35 " id="clusterblast-1_q17_10_5"  />
<polygon style="stroke:black; stroke-width:1; fill:rgb(63,190,63); " description="unannotated orf[br]Location: 54334 - 65855" locus_tag="CHAFR746836_0085160.1" class="clusterblast-orf" points="455,40 530,40 535,35 530,30 455,30 455,40 " id="clusterblast-1_q17_10_6"  />
<polygon style="stroke:black; stroke-width:1; fill:rgb(190,63,190); " description="unannotated orf[br]Location: 67816 - 68591" locus_tag="CHAFR746836_0085170.1" class="clusterblast-orf" points="549,35 554,30 554,30 554,40 554,40 549,35 " id="clusterblast-1_q17_10_7"  />
<polygon style="stroke:black; stroke-width:1; fill:rgb(190,190,63); " description="unannotated orf[br]Location: 74280 - 75627" locus_tag="CHAFR746836_0085180.1" class="clusterblast-orf" points="594,40 598,40 603,35 598,30 594,30 594,40 " id="clusterblast-1_q17_10_8"  />
<polygon style="stroke:black; stroke-width:1; fill:#FFFFFF; " description="unannotated orf[br]Location: 77113 - 77652" locus_tag="CHAFR746836_0085190.1" class="clusterblast-orf" points="613,35 617,30 617,40 613,35 " id="clusterblast-1_q17_10_9"  />
<polygon style="stroke:black; stroke-width:1; fill:rgb(190,190,190); " description="unannotated orf[br]Location: 78175 - 79191" locus_tag="CHAFR746836_0085200.1" class="clusterblast-orf" points="621,40 623,40 628,35 623,30 621,30 621,40 " id="clusterblast-1_q17_10_10"  />
<polygon style="stroke:black; stroke-width:1; fill:#FFFFFF; " description="unannotated orf[br]Location: 83575 - 84480" locus_tag="CHAFR746836_0085210.1" class="clusterblast-orf" points="658,40 660,40 665,35 660,30 658,30 658,40 " id="clusterblast-1_q17_10_11"  />
</g>
<g class="clusterblast-cluster" description="Frankia sp. EuI1c chromosome, complete genome." label="NC_014666.1_c13"  >
<text class="clusterblast-acc" y="60" x="5"  >
NC_014666.1_c13</text>
<text class="clusterblast-desc" y="60" x="460.8"  >
Frankia sp. EuI1c chromosome, complete genome.</text>
<line y1="85" x2="778.0" style="stroke:grey; stroke-width:1; " x1="10" y2="85"  />
<polygon style="stroke:black; stroke-width:1; fill:#FFFFFF; " description="luciferase[br]Location: 5121347 - 5122423" locus_tag="FraEuI1c_4223" id="clusterblast-1_h17_10_0" points="10,85 15,80 17,80 17,90 15,90 10,85 " class="clusterblast-orf"  />
<polygon style="stroke:black; stroke-width:1; fill:#FFFFFF; " description="hypothetical_protein[br]Location: 5122420 - 5122896" locus_tag="FraEuI1c_4224" id="clusterblast-1_h17_10_1" points="17,85 20,80 20,90 17,85 " class="clusterblast-orf"  />
<polygon style="stroke:black; stroke-width:1; fill:#FFFFFF; " description="hypothetical_protein[br]Location: 5122887 - 5123378" locus_tag="FraEuI1c_4225" id="clusterblast-1_h17_10_2" points="20,85 24,80 24,90 20,85 " class="clusterblast-orf"  />
<polygon style="stroke:black; stroke-width:1; fill:#FFFFFF; " description="alkanesulfonate_monooxygenase[br]Location: 5123613 - 5124749" locus_tag="FraEuI1c_4226" id="clusterblast-1_h17_10_3" points="25,85 30,80 33,80 33,90 30,90 25,85 " class="clusterblast-orf"  />
<polygon style="stroke:black; stroke-width:1; fill:#FFFFFF; " description="binding-protein-dependent_transport_systems[br]Location: 5124797 - 5125702" locus_tag="FraEuI1c_4227" id="clusterblast-1_h17_10_4" points="33,85 38,80 40,80 40,90 38,90 33,85 " class="clusterblast-orf"  />
<polygon style="stroke:black; stroke-width:1; fill:#FFFFFF; " description="ABC_transporter[br]Location: 5125692 - 5126498" locus_tag="FraEuI1c_4228" id="clusterblast-1_h17_10_5" points="40,85 45,80 45,80 45,90 45,90 40,85 " class="clusterblast-orf"  />
<polygon style="stroke:black; stroke-width:1; fill:#FFFFFF; " description="hypothetical_protein[br]Location: 5126495 - 5127574" locus_tag="FraEuI1c_4229" id="clusterblast-1_h17_10_6" points="45,85 50,80 53,80 53,90 50,90 45,85 " class="clusterblast-orf"  />
<polygon style="stroke:black; stroke-width:1; fill:#FFFFFF; " description="taurine_dioxygenase[br]Location: 5127866 - 5128894" locus_tag="FraEuI1c_4230" id="clusterblast-1_h17_10_7" points="55,90 57,90 62,85 57,80 55,80 55,90 " class="clusterblast-orf"  />
<polygon style="stroke:black; stroke-width:1; fill:#FFFFFF; " description="AMP-dependent_synthetase_and_ligase[br]Location: 5128983 - 5130557" locus_tag="FraEuI1c_4231" id="clusterblast-1_h17_10_8" points="63,85 68,80 73,80 73,90 68,90 63,85 " class="clusterblast-orf"  />
<polygon style="stroke:black; stroke-width:1; fill:#FFFFFF; " description="2-nitropropane_dioxygenase_NPD[br]Location: 5130571 - 5131446" locus_tag="FraEuI1c_4232" id="clusterblast-1_h17_10_9" points="74,85 79,80 80,80 80,90 79,90 74,85 " class="clusterblast-orf"  />
<polygon style="stroke:black; stroke-width:1; fill:#FFFFFF; " description="DeoR_family_transcriptional_regulator[br]Location: 5131649 - 5132398" locus_tag="FraEuI1c_4233" id="clusterblast-1_h17_10_10" points="81,85 86,80 86,80 86,90 86,90 81,85 " class="clusterblast-orf"  />
<polygon style="stroke:black; stroke-width:1; fill:#FFFFFF; " description="hypothetical_protein[br]Location: 5132448 - 5132810" locus_tag="FraEuI1c_4234" id="clusterblast-1_h17_10_11" points="87,90 89,85 87,80 87,90 " class="clusterblast-orf"  />
<polygon style="stroke:black; stroke-width:1; fill:#FFFFFF; " description="TetR_family_transcriptional_regulator[br]Location: 5132984 - 5133727" locus_tag="FraEuI1c_4235" id="clusterblast-1_h17_10_12" points="90,85 95,80 95,80 95,90 95,90 90,85 " class="clusterblast-orf"  />
<polygon style="stroke:black; stroke-width:1; fill:#FFFFFF; " description="hypothetical_protein[br]Location: 5133886 - 5134380" locus_tag="FraEuI1c_4236" id="clusterblast-1_h17_10_13" points="97,90 100,85 97,80 97,90 " class="clusterblast-orf"  />
<polygon style="stroke:black; stroke-width:1; fill:#FFFFFF; " description="AraC_family_transcriptional_regulator[br]Location: 5134971 - 5135927" locus_tag="FraEuI1c_4237" id="clusterblast-1_h17_10_14" points="104,90 106,90 111,85 106,80 104,80 104,90 " class="clusterblast-orf"  />
<polygon style="stroke:black; stroke-width:1; fill:#FFFFFF; " description="SARP_family_transcriptional_regulator[br]Location: 5136237 - 5137013" locus_tag="FraEuI1c_4238" id="clusterblast-1_h17_10_15" points="113,90 113,90 118,85 113,80 113,80 113,90 " class="clusterblast-orf"  />
<polygon style="stroke:black; stroke-width:1; fill:#FFFFFF; " description="4'-phosphopantetheinyl_transferase[br]Location: 5137010 - 5137735" locus_tag="FraEuI1c_4239" id="clusterblast-1_h17_10_16" points="118,90 118,90 123,85 118,80 118,80 118,90 " class="clusterblast-orf"  />
<polygon style="stroke:black; stroke-width:1; fill:#FFFFFF; " description="3-hydroxyacyl-CoA_dehydrogenase_NAD-binding[br]Location: 5137713 - 5139533" locus_tag="FraEuI1c_4240" id="clusterblast-1_h17_10_17" points="123,85 128,80 136,80 136,90 128,90 123,85 " class="clusterblast-orf"  />
<polygon style="stroke:black; stroke-width:1; fill:#FFFFFF; " description="hypothetical_protein[br]Location: 5139612 - 5140064" locus_tag="FraEuI1c_4241" id="clusterblast-1_h17_10_18" points="136,85 139,80 139,90 136,85 " class="clusterblast-orf"  />
<polygon style="stroke:black; stroke-width:1; fill:#FFFFFF; " description="polyketide_cyclase/dehydrase[br]Location: 5140290 - 5140718" locus_tag="FraEuI1c_4242" id="clusterblast-1_h17_10_19" points="141,90 144,85 141,80 141,90 " class="clusterblast-orf"  />
<polygon style="stroke:black; stroke-width:1; fill:#FFFFFF; " description="hypothetical_protein[br]Location: 5140830 - 5141288" locus_tag="FraEuI1c_4243" id="clusterblast-1_h17_10_20" points="145,90 148,85 145,80 145,90 " class="clusterblast-orf"  />
<polygon style="stroke:black; stroke-width:1; fill:#FFFFFF; " description="TetR_family_transcriptional_regulator[br]Location: 5141251 - 5141892" locus_tag="FraEuI1c_4244" id="clusterblast-1_h17_10_21" points="148,85 152,80 152,90 148,85 " class="clusterblast-orf"  />
<polygon style="stroke:black; stroke-width:1; fill:#FFFFFF; " description="acyl_transferase[br]Location: 5142247 - 5148273" locus_tag="FraEuI1c_4245" id="clusterblast-1_h17_10_22" points="155,90 191,90 196,85 191,80 155,80 155,90 " class="clusterblast-orf"  />
<polygon style="stroke:black; stroke-width:1; fill:#FFFFFF; " description="KR_domain_protein[br]Location: 5148303 - 5154395" locus_tag="FraEuI1c_4246" id="clusterblast-1_h17_10_23" points="197,90 234,90 239,85 234,80 197,80 197,90 " class="clusterblast-orf"  />
<polygon style="stroke:black; stroke-width:1; fill:rgb(63,190,63); " description="acyl_transferase[br]Location: 5154398 - 5163436&lt;br&gt;&lt;br&gt;&lt;b&gt;BlastP hit with CHAFR746836_0085160.1&lt;/b&gt;&lt;br&gt;Percentage identity: 32%&lt;br&gt;Percentage coverage: 23%&lt;br&gt;BLAST bit score: 415&lt;br&gt;E-value: 8e-115&lt;br&gt;&lt;br&gt;&lt;b&gt;BlastP hit with CHAFR746836_0085180.1&lt;/b&gt;&lt;br&gt;Percentage identity: 40%&lt;br&gt;Percentage coverage: 47%&lt;br&gt;BLAST bit score: 122&lt;br&gt;E-value: 1e-28" locus_tag="FraEuI1c_4247" id="clusterblast-1_h17_10_24" points="239,90 297,90 302,85 297,80 239,80 239,90 " class="clusterblast-orf"  />
<polygon style="stroke:black; stroke-width:1; fill:#FFFFFF; " description="FkbH_like_protein[br]Location: 5163405 - 5165459" locus_tag="FraEuI1c_4248" id="clusterblast-1_h17_10_25" points="302,90 311,90 316,85 311,80 302,80 302,90 " class="clusterblast-orf"  />
<polygon style="stroke:black; stroke-width:1; fill:#FFFFFF; " description="hypothetical_protein[br]Location: 5165456 - 5165716" locus_tag="FraEuI1c_4249" id="clusterblast-1_h17_10_26" points="316,90 318,85 316,80 316,90 " class="clusterblast-orf"  />
<polygon style="stroke:black; stroke-width:1; fill:#FFFFFF; " description="catalytic_domain-containing_protein_of[br]Location: 5165713 - 5166561" locus_tag="FraEuI1c_4250" id="clusterblast-1_h17_10_27" points="318,90 318,90 323,85 318,80 318,80 318,90 " class="clusterblast-orf"  />
<polygon style="stroke:black; stroke-width:1; fill:#FFFFFF; " description="hypothetical_protein[br]Location: 5166558 - 5167598" locus_tag="FraEuI1c_4251" id="clusterblast-1_h17_10_28" points="323,90 326,90 331,85 326,80 323,80 323,90 " class="clusterblast-orf"  />
<polygon style="stroke:black; stroke-width:1; fill:rgb(63,190,63); " description="Beta-ketoacyl_synthase[br]Location: 5167793 - 5188165&lt;br&gt;&lt;br&gt;&lt;b&gt;BlastP hit with CHAFR746836_0085160.1&lt;/b&gt;&lt;br&gt;Percentage identity: 32%&lt;br&gt;Percentage coverage: 22%&lt;br&gt;BLAST bit score: 384&lt;br&gt;E-value: 6e-105&lt;br&gt;&lt;br&gt;&lt;b&gt;BlastP hit with CHAFR746836_0085180.1&lt;/b&gt;&lt;br&gt;Percentage identity: 31%&lt;br&gt;Percentage coverage: 108%&lt;br&gt;BLAST bit score: 157&lt;br&gt;E-value: 3e-40" locus_tag="FraEuI1c_4252" id="clusterblast-1_h17_10_29" points="332,90 468,90 473,85 468,80 332,80 332,90 " class="clusterblast-orf"  />
<polygon style="stroke:black; stroke-width:1; fill:rgb(63,190,63); " description="acyl_transferase[br]Location: 5188212 - 5211251&lt;br&gt;&lt;br&gt;&lt;b&gt;BlastP hit with CHAFR746836_0085160.1&lt;/b&gt;&lt;br&gt;Percentage identity: 31%&lt;br&gt;Percentage coverage: 22%&lt;br&gt;BLAST bit score: 390&lt;br&gt;E-value: 1e-106&lt;br&gt;&lt;br&gt;&lt;b&gt;BlastP hit with CHAFR746836_0085180.1&lt;/b&gt;&lt;br&gt;Percentage identity: 32%&lt;br&gt;Percentage coverage: 109%&lt;br&gt;BLAST bit score: 147&lt;br&gt;E-value: 7e-37" locus_tag="FraEuI1c_4253" id="clusterblast-1_h17_10_30" points="474,90 629,90 634,85 629,80 474,80 474,90 " class="clusterblast-orf"  />
<polygon style="stroke:black; stroke-width:1; fill:#FFFFFF; " description="monooxygenase_FAD-binding_protein[br]Location: 5211287 - 5212804" locus_tag="FraEuI1c_4254" id="clusterblast-1_h17_10_31" points="634,90 640,90 645,85 640,80 634,80 634,90 " class="clusterblast-orf"  />
<polygon style="stroke:black; stroke-width:1; fill:#FFFFFF; " description="Beta-ketoacyl-acyl-carrier-protein_synthase_I[br]Location: 5212801 - 5213838" locus_tag="FraEuI1c_4255" id="clusterblast-1_h17_10_32" points="645,90 647,90 652,85 647,80 645,80 645,90 " class="clusterblast-orf"  />
<polygon style="stroke:black; stroke-width:1; fill:#FFFFFF; " description="methyltransferase_type_11[br]Location: 5213974 - 5214828" locus_tag="FraEuI1c_4256" id="clusterblast-1_h17_10_33" points="653,90 654,90 659,85 654,80 653,80 653,90 " class="clusterblast-orf"  />
<polygon style="stroke:black; stroke-width:1; fill:#FFFFFF; " description="cytochrome_P450[br]Location: 5215127 - 5216293" locus_tag="FraEuI1c_4257" id="clusterblast-1_h17_10_34" points="661,90 664,90 669,85 664,80 661,80 661,90 " class="clusterblast-orf"  />
<polygon style="stroke:black; stroke-width:1; fill:#FFFFFF; " description="ABC_transporter_permease[br]Location: 5216463 - 5217224" locus_tag="FraEuI1c_4258" id="clusterblast-1_h17_10_35" points="670,85 675,80 675,80 675,90 675,90 670,85 " class="clusterblast-orf"  />
<polygon style="stroke:black; stroke-width:1; fill:#FFFFFF; " description="daunorubicin_ABC_transporter_ATPase[br]Location: 5217274 - 5218230" locus_tag="FraEuI1c_4259" id="clusterblast-1_h17_10_36" points="676,85 681,80 682,80 682,90 681,90 676,85 " class="clusterblast-orf"  />
<polygon style="stroke:black; stroke-width:1; fill:#FFFFFF; " description="oleoyl-(acyl-carrier-protein)_hydrolase[br]Location: 5218392 - 5219174" locus_tag="FraEuI1c_4260" id="clusterblast-1_h17_10_37" points="683,85 688,80 689,80 689,90 688,90 683,85 " class="clusterblast-orf"  />
<polygon style="stroke:black; stroke-width:1; fill:#FFFFFF; " description="SARP_family_transcriptional_regulator[br]Location: 5219360 - 5220208" locus_tag="FraEuI1c_4261" id="clusterblast-1_h17_10_38" points="690,90 691,90 696,85 691,80 690,80 690,90 " class="clusterblast-orf"  />
<polygon style="stroke:black; stroke-width:1; fill:#FFFFFF; " description="acyl_transferase[br]Location: 5220219 - 5221148" locus_tag="FraEuI1c_4262" id="clusterblast-1_h17_10_39" points="696,90 697,90 702,85 697,80 696,80 696,90 " class="clusterblast-orf"  />
<polygon style="stroke:black; stroke-width:1; fill:#FFFFFF; " description="LuxR_family_transcriptional_regulator[br]Location: 5221211 - 5224168" locus_tag="FraEuI1c_4263" id="clusterblast-1_h17_10_40" points="703,85 708,80 723,80 723,90 708,90 703,85 " class="clusterblast-orf"  />
<polygon style="stroke:black; stroke-width:1; fill:#FFFFFF; " description="hypothetical_protein[br]Location: 5224869 - 5225441" locus_tag="FraEuI1c_4264" id="clusterblast-1_h17_10_41" points="728,90 732,85 728,80 728,90 " class="clusterblast-orf"  />
<polygon style="stroke:black; stroke-width:1; fill:#FFFFFF; " description="hypothetical_protein[br]Location: 5225556 - 5225987" locus_tag="FraEuI1c_4265" id="clusterblast-1_h17_10_42" points="733,85 736,80 736,90 733,85 " class="clusterblast-orf"  />
<polygon style="stroke:black; stroke-width:1; fill:#FFFFFF; " description="TetR_family_transcriptional_regulator[br]Location: 5226108 - 5226692" locus_tag="FraEuI1c_4266" id="clusterblast-1_h17_10_43" points="737,90 741,85 737,80 737,90 " class="clusterblast-orf"  />
<polygon style="stroke:black; stroke-width:1; fill:#FFFFFF; " description="hypothetical_protein[br]Location: 5226788 - 5227147" locus_tag="FraEuI1c_4267" id="clusterblast-1_h17_10_44" points="742,85 744,80 744,90 742,85 " class="clusterblast-orf"  />
<polygon style="stroke:black; stroke-width:1; fill:rgb(190,190,190); " description="enoyl-CoA_hydratase/isomerase[br]Location: 5227507 - 5228268&lt;br&gt;&lt;br&gt;&lt;b&gt;BlastP hit with CHAFR746836_0085200.1&lt;/b&gt;&lt;br&gt;Percentage identity: 31%&lt;br&gt;Percentage coverage: 89%&lt;br&gt;BLAST bit score: 96&lt;br&gt;E-value: 7e-22" locus_tag="FraEuI1c_4268" id="clusterblast-1_h17_10_45" points="747,85 752,80 752,80 752,90 752,90 747,85 " class="clusterblast-orf"  />
<polygon style="stroke:black; stroke-width:1; fill:#FFFFFF; " description="acyl-CoA_dehydrogenase_domain-containing[br]Location: 5228403 - 5230691" locus_tag="FraEuI1c_4269" id="clusterblast-1_h17_10_46" points="753,85 758,80 769,80 769,90 758,90 753,85 " class="clusterblast-orf"  />
<polygon style="stroke:black; stroke-width:1; fill:#FFFFFF; " description="Rieske_(2Fe-2S)_iron-sulfur_domain_protein[br]Location: 5230955 - 5231950" locus_tag="FraEuI1c_4270" id="clusterblast-1_h17_10_47" points="771,90 773,90 778,85 773,80 771,80 771,90 " class="clusterblast-orf"  />
</g>
</svg>
