<svg xmlns="http://www.w3.org/2000/svg" height="230" width="800" version="1.1" y="0" x="0" preserveAspectRatio="none" xmlns:xlink="http://www.w3.org/1999/xlink" viewBox="0 0 800 230"  >
<g class="clusterblast-cluster" label="Query sequence"  >
<text class="clusterblast-acc" y="10" x="5"  >
Query sequence</text>
<line y1="35" x2="778.0" style="stroke:grey; stroke-width:1; " x1="10" y2="35"  />
<polygon style="stroke:black; stroke-width:1; fill:red; " description="unannotated orf[br]Location: 18826 - 24323" locus_tag="CHAFR746836_0048040.1" class="clusterblast-orf" points="242,35 247,30 327,30 327,40 247,40 242,35 " id="clusterblast-1_q57_6_0"  />
<polygon style="stroke:black; stroke-width:1; fill:#FFFFFF; " description="unannotated orf[br]Location: 27327 - 29289" locus_tag="CHAFR746836_0048050.1" class="clusterblast-orf" points="373,35 378,30 404,30 404,40 378,40 373,35 " id="clusterblast-1_q57_6_1"  />
<polygon style="stroke:black; stroke-width:1; fill:green; " description="unannotated orf[br]Location: 31909 - 32971" locus_tag="CHAFR746836_0048060.1" class="clusterblast-orf" points="444,40 456,40 461,35 456,30 444,30 444,40 " id="clusterblast-1_q57_6_2"  />
<polygon style="stroke:black; stroke-width:1; fill:blue; " description="unannotated orf[br]Location: 33755 - 35353" locus_tag="CHAFR746836_0048070.1" class="clusterblast-orf" points="473,35 478,30 498,30 498,40 478,40 473,35 " id="clusterblast-1_q57_6_3"  />
<polygon style="stroke:black; stroke-width:1; fill:yellow; " description="unannotated orf[br]Location: 36309 - 38321" locus_tag="CHAFR746836_0048080.1" class="clusterblast-orf" points="513,40 539,40 544,35 539,30 513,30 513,40 " id="clusterblast-1_q57_6_4"  />
</g>
<g class="clusterblast-cluster" description="Fusarium oxysporum Fo5176 contig02274, whole genome shot..." label="AFQF01002159.1_c1"  >
<text class="clusterblast-acc" y="60" x="5"  >
AFQF01002159.1_c1</text>
<text class="clusterblast-desc" y="60" x="460.8"  >
Fusarium oxysporum Fo5176 contig02274, whole genome shot...</text>
<line y1="85" x2="778.0" style="stroke:grey; stroke-width:1; " x1="10" y2="85"  />
<polygon style="stroke:black; stroke-width:1; fill:#FFFFFF; " description="hypothetical_protein[br]Location: 240 - 1448" locus_tag="FOXB_07096" id="clusterblast-1_h57_6_0" points="10,85 15,80 28,80 28,90 15,90 10,85 " class="clusterblast-orf"  />
<polygon style="stroke:black; stroke-width:1; fill:#FFFFFF; " description="hypothetical_protein[br]Location: 2886 - 3802" locus_tag="FOXB_07097" id="clusterblast-1_h57_6_1" points="51,90 60,90 65,85 60,80 51,80 51,90 " class="clusterblast-orf"  />
<polygon style="stroke:black; stroke-width:1; fill:#FFFFFF; " description="hypothetical_protein[br]Location: 4598 - 6905" locus_tag="FOXB_07098" id="clusterblast-1_h57_6_2" points="77,90 108,90 113,85 108,80 77,80 77,90 " class="clusterblast-orf"  />
<polygon style="stroke:black; stroke-width:1; fill:#FFFFFF; " description="hypothetical_protein[br]Location: 7361 - 8545" locus_tag="FOXB_07099" id="clusterblast-1_h57_6_3" points="120,85 125,80 138,80 138,90 125,90 120,85 " class="clusterblast-orf"  />
<polygon style="stroke:black; stroke-width:1; fill:#FFFFFF; " description="hypothetical_protein[br]Location: 8988 - 10072" locus_tag="FOXB_07100" id="clusterblast-1_h57_6_4" points="145,85 150,80 162,80 162,90 150,90 145,85 " class="clusterblast-orf"  />
<polygon style="stroke:black; stroke-width:1; fill:#FFFFFF; " description="hypothetical_protein[br]Location: 11045 - 12363" locus_tag="FOXB_07101" id="clusterblast-1_h57_6_5" points="177,90 193,90 198,85 193,80 177,80 177,90 " class="clusterblast-orf"  />
<polygon style="stroke:black; stroke-width:1; fill:#FFFFFF; " description="hypothetical_protein[br]Location: 13528 - 15390" locus_tag="FOXB_07102" id="clusterblast-1_h57_6_6" points="216,90 239,90 244,85 239,80 216,80 216,90 " class="clusterblast-orf"  />
<polygon style="stroke:black; stroke-width:1; fill:#FFFFFF; " description="hypothetical_protein[br]Location: 15857 - 16334" locus_tag="FOXB_07103" id="clusterblast-1_h57_6_7" points="252,90 254,90 259,85 254,80 252,80 252,90 " class="clusterblast-orf"  />
<polygon style="stroke:black; stroke-width:1; fill:#FFFFFF; " description="hypothetical_protein[br]Location: 18099 - 18794" locus_tag="FOXB_07104" id="clusterblast-1_h57_6_8" points="287,90 292,90 297,85 292,80 287,80 287,90 " class="clusterblast-orf"  />
<polygon style="stroke:black; stroke-width:1; fill:#FFFFFF; " description="hypothetical_protein[br]Location: 18903 - 21692" locus_tag="FOXB_07105" id="clusterblast-1_h57_6_9" points="299,85 304,80 342,80 342,90 304,90 299,85 " class="clusterblast-orf"  />
<polygon style="stroke:black; stroke-width:1; fill:#FFFFFF; " description="hypothetical_protein[br]Location: 23039 - 24466" locus_tag="FOXB_07106" id="clusterblast-1_h57_6_10" points="363,90 380,90 385,85 380,80 363,80 363,90 " class="clusterblast-orf"  />
<polygon style="stroke:black; stroke-width:1; fill:#FFFFFF; " description="hypothetical_protein[br]Location: 24850 - 26162" locus_tag="FOXB_07107" id="clusterblast-1_h57_6_11" points="391,85 396,80 412,80 412,90 396,90 391,85 " class="clusterblast-orf"  />
<polygon style="stroke:black; stroke-width:1; fill:#FFFFFF; " description="hypothetical_protein[br]Location: 27071 - 28748" locus_tag="FOXB_07108" id="clusterblast-1_h57_6_12" points="426,90 447,90 452,85 447,80 426,80 426,90 " class="clusterblast-orf"  />
<polygon style="stroke:black; stroke-width:1; fill:#FFFFFF; " description="hypothetical_protein[br]Location: 29829 - 31517" locus_tag="FOXB_07109" id="clusterblast-1_h57_6_13" points="468,85 473,80 495,80 495,90 473,90 468,85 " class="clusterblast-orf"  />
<polygon style="stroke:black; stroke-width:1; fill:red; " description="hypothetical_protein[br]Location: 32311 - 45037&lt;br&gt;&lt;br&gt;&lt;b&gt;BlastP hit with CHAFR746836_0048040.1&lt;/b&gt;&lt;br&gt;Percentage identity: 39%&lt;br&gt;Percentage coverage: 102%&lt;br&gt;BLAST bit score: 1232&lt;br&gt;E-value: 0.0&lt;br&gt;&lt;br&gt;&lt;b&gt;BlastP hit with CHAFR746836_0048050.1&lt;/b&gt;&lt;br&gt;Percentage identity: 54%&lt;br&gt;Percentage coverage: 102%&lt;br&gt;BLAST bit score: 617&lt;br&gt;E-value: 0.0" locus_tag="FOXB_07110" id="clusterblast-1_h57_6_14" points="507,85 512,80 704,80 704,90 512,90 507,85 " class="clusterblast-orf"  />
<polygon style="stroke:black; stroke-width:1; fill:green; " description="hypothetical_protein[br]Location: 46434 - 49752&lt;br&gt;&lt;br&gt;&lt;b&gt;BlastP hit with CHAFR746836_0048060.1&lt;/b&gt;&lt;br&gt;Percentage identity: 42%&lt;br&gt;Percentage coverage: 92%&lt;br&gt;BLAST bit score: 258&lt;br&gt;E-value: 3e-76" locus_tag="FOXB_07111" id="clusterblast-1_h57_6_15" points="726,90 773,90 778,85 773,80 726,80 726,90 " class="clusterblast-orf"  />
</g>
</svg>
