<svg xmlns="http://www.w3.org/2000/svg" height="230" width="800" version="1.1" y="0" x="0" preserveAspectRatio="none" xmlns:xlink="http://www.w3.org/1999/xlink" viewBox="0 0 800 230"  >
<g class="clusterblast-cluster" label="Query sequence"  >
<text class="clusterblast-acc" y="10" x="5"  >
Query sequence</text>
<line y1="35" x2="778.0" style="stroke:grey; stroke-width:1; " x1="10" y2="35"  />
<polygon style="stroke:black; stroke-width:1; fill:rgb(190,63,63); " description="unannotated orf[br]Location: 1171 - 2581" locus_tag="CHAFR746836_0090890.1" class="clusterblast-orf" points="10,35 15,30 21,30 21,40 15,40 10,35 " id="clusterblast-1_q24_10_0"  />
<polygon style="stroke:black; stroke-width:1; fill:#FFFFFF; " description="unannotated orf[br]Location: 3903 - 4681" locus_tag="CHAFR746836_0090900.1" class="clusterblast-orf" points="31,35 36,30 37,30 37,40 36,40 31,35 " id="clusterblast-1_q24_10_1"  />
<polygon style="stroke:black; stroke-width:1; fill:#FFFFFF; " description="unannotated orf[br]Location: 5272 - 5519" locus_tag="CHAFR746836_0090910.1" class="clusterblast-orf" points="42,40 44,35 42,30 42,40 " id="clusterblast-1_q24_10_2"  />
<polygon style="stroke:black; stroke-width:1; fill:#FFFFFF; " description="unannotated orf[br]Location: 14494 - 15565" locus_tag="CHAFR746836_0090920.1" class="clusterblast-orf" points="115,35 120,30 124,30 124,40 120,40 115,35 " id="clusterblast-1_q24_10_3"  />
<polygon style="stroke:black; stroke-width:1; fill:rgb(63,63,190); " description="unannotated orf[br]Location: 17145 - 18525" locus_tag="CHAFR746836_0090930.1" class="clusterblast-orf" points="136,40 142,40 147,35 142,30 136,30 136,40 " id="clusterblast-1_q24_10_4"  />
<polygon style="stroke:black; stroke-width:1; fill:#FFFFFF; " description="unannotated orf[br]Location: 28799 - 30524" locus_tag="CHAFR746836_0090940.1" class="clusterblast-orf" points="229,40 238,40 243,35 238,30 229,30 229,40 " id="clusterblast-1_q24_10_5"  />
<polygon style="stroke:black; stroke-width:1; fill:#FFFFFF; " description="unannotated orf[br]Location: 41424 - 43262" locus_tag="CHAFR746836_0090950.1" class="clusterblast-orf" points="329,35 334,30 344,30 344,40 334,40 329,35 " id="clusterblast-1_q24_10_6"  />
<polygon style="stroke:black; stroke-width:1; fill:#FFFFFF; " description="unannotated orf[br]Location: 43541 - 44533" locus_tag="CHAFR746836_0090960.1" class="clusterblast-orf" points="346,40 349,40 354,35 349,30 346,30 346,40 " id="clusterblast-1_q24_10_7"  />
<polygon style="stroke:black; stroke-width:1; fill:#FFFFFF; " description="unannotated orf[br]Location: 44819 - 46174" locus_tag="CHAFR746836_0090970.1" class="clusterblast-orf" points="356,35 361,30 367,30 367,40 361,40 356,35 " id="clusterblast-1_q24_10_8"  />
<polygon style="stroke:black; stroke-width:1; fill:#FFFFFF; " description="unannotated orf[br]Location: 46942 - 48495" locus_tag="CHAFR746836_0090980.1" class="clusterblast-orf" points="373,40 380,40 385,35 380,30 373,30 373,40 " id="clusterblast-1_q24_10_9"  />
<polygon style="stroke:black; stroke-width:1; fill:#FFFFFF; " description="unannotated orf[br]Location: 49208 - 50194" locus_tag="CHAFR746836_0090990.1" class="clusterblast-orf" points="391,40 394,40 399,35 394,30 391,30 391,40 " id="clusterblast-1_q24_10_10"  />
<polygon style="stroke:black; stroke-width:1; fill:rgb(63,190,63); " description="unannotated orf[br]Location: 51690 - 53335" locus_tag="CHAFR746836_0091000.1" class="clusterblast-orf" points="411,40 419,40 424,35 419,30 411,30 411,40 " id="clusterblast-1_q24_10_11"  />
<polygon style="stroke:black; stroke-width:1; fill:rgb(190,63,190); " description="unannotated orf[br]Location: 57952 - 59410" locus_tag="CHAFR746836_0091010.1" class="clusterblast-orf" points="460,40 467,40 472,35 467,30 460,30 460,40 " id="clusterblast-1_q24_10_12"  />
<polygon style="stroke:black; stroke-width:1; fill:rgb(190,190,63); " description="unannotated orf[br]Location: 62569 - 63924" locus_tag="CHAFR746836_0091020.1" class="clusterblast-orf" points="497,40 503,40 508,35 503,30 497,30 497,40 " id="clusterblast-1_q24_10_13"  />
<polygon style="stroke:black; stroke-width:1; fill:rgb(190,190,190); " description="unannotated orf[br]Location: 66784 - 68224" locus_tag="CHAFR746836_0091030.1" class="clusterblast-orf" points="531,40 537,40 542,35 537,30 531,30 531,40 " id="clusterblast-1_q24_10_14"  />
<polygon style="stroke:black; stroke-width:1; fill:#FFFFFF; " description="unannotated orf[br]Location: 88555 - 89706" locus_tag="CHAFR746836_0091040.1" class="clusterblast-orf" points="704,35 709,30 713,30 713,40 709,40 704,35 " id="clusterblast-1_q24_10_15"  />
<polygon style="stroke:black; stroke-width:1; fill:rgb(63,190,190); " description="unannotated orf[br]Location: 94755 - 95427" locus_tag="CHAFR746836_0091050.1" class="clusterblast-orf" points="753,35 758,30 758,30 758,40 758,40 753,35 " id="clusterblast-1_q24_10_16"  />
<polygon style="stroke:black; stroke-width:1; fill:rgb(63,63,63); " description="unannotated orf[br]Location: 95982 - 97863" locus_tag="CHAFR746836_0091060.1" class="clusterblast-orf" points="763,40 773,40 778,35 773,30 763,30 763,40 " id="clusterblast-1_q24_10_17"  />
</g>
<g class="clusterblast-cluster" description="Streptomyces sp. SirexAA-E chromosome, complete genome." label="NC_015953.1_c15"  >
<text class="clusterblast-acc" y="60" x="5"  >
NC_015953.1_c15</text>
<text class="clusterblast-desc" y="60" x="460.8"  >
Streptomyces sp. SirexAA-E chromosome, complete genome.</text>
<line y1="85" x2="778.0" style="stroke:grey; stroke-width:1; " x1="10" y2="85"  />
<polygon style="stroke:black; stroke-width:1; fill:#FFFFFF; " description="inositol_monophosphatase[br]Location: 5840915 - 5841727" locus_tag="SACTE_5185" id="clusterblast-1_h24_10_0" points="144,90 145,90 150,85 145,80 144,80 144,90 " class="clusterblast-orf"  />
<polygon style="stroke:black; stroke-width:1; fill:#FFFFFF; " description="NADP_oxidoreductase_coenzyme_F420-dependent[br]Location: 5841776 - 5842420" locus_tag="SACTE_5186" id="clusterblast-1_h24_10_1" points="150,90 150,90 155,85 150,80 150,80 150,90 " class="clusterblast-orf"  />
<polygon style="stroke:black; stroke-width:1; fill:#FFFFFF; " description="PfkB_domain-containing_protein[br]Location: 5842536 - 5843456" locus_tag="SACTE_5187" id="clusterblast-1_h24_10_2" points="156,85 161,80 164,80 164,90 161,90 156,85 " class="clusterblast-orf"  />
<polygon style="stroke:black; stroke-width:1; fill:#FFFFFF; " description="TPR_repeat-containing_protein[br]Location: 5843856 - 5846387" locus_tag="SACTE_5188" id="clusterblast-1_h24_10_3" points="167,85 172,80 187,80 187,90 172,90 167,85 " class="clusterblast-orf"  />
<polygon style="stroke:black; stroke-width:1; fill:#FFFFFF; " description="AsnC_family_transcriptional_regulator[br]Location: 5846944 - 5847933" locus_tag="SACTE_5189" id="clusterblast-1_h24_10_4" points="191,85 196,80 199,80 199,90 196,90 191,85 " class="clusterblast-orf"  />
<polygon style="stroke:black; stroke-width:1; fill:#FFFFFF; " description="major_facilitator_superfamily_protein[br]Location: 5848226 - 5849839" locus_tag="SACTE_5190" id="clusterblast-1_h24_10_5" points="202,90 209,90 214,85 209,80 202,80 202,90 " class="clusterblast-orf"  />
<polygon style="stroke:black; stroke-width:1; fill:#FFFFFF; " description="short-chain_dehydrogenase/reductase_SDR[br]Location: 5849917 - 5850654" locus_tag="SACTE_5191" id="clusterblast-1_h24_10_6" points="215,85 220,80 221,80 221,90 220,90 215,85 " class="clusterblast-orf"  />
<polygon style="stroke:black; stroke-width:1; fill:#FFFFFF; " description="Clp_domain-containing_protein[br]Location: 5851098 - 5851799" locus_tag="SACTE_5192" id="clusterblast-1_h24_10_7" points="224,85 229,80 230,80 230,90 229,90 224,85 " class="clusterblast-orf"  />
<polygon style="stroke:black; stroke-width:1; fill:#FFFFFF; " description="cytochrome_P450[br]Location: 5851935 - 5853140" locus_tag="SACTE_5193" id="clusterblast-1_h24_10_8" points="231,85 236,80 241,80 241,90 236,90 231,85 " class="clusterblast-orf"  />
<polygon style="stroke:black; stroke-width:1; fill:#FFFFFF; " description="polyketide_synthesis_cyclase[br]Location: 5853137 - 5853814" locus_tag="SACTE_5194" id="clusterblast-1_h24_10_9" points="241,85 246,80 246,80 246,90 246,90 241,85 " class="clusterblast-orf"  />
<polygon style="stroke:black; stroke-width:1; fill:#FFFFFF; " description="polyketide_cyclase/dehydrase[br]Location: 5854023 - 5854964" locus_tag="SACTE_5195" id="clusterblast-1_h24_10_10" points="248,90 250,90 255,85 250,80 248,80 248,90 " class="clusterblast-orf"  />
<polygon style="stroke:black; stroke-width:1; fill:rgb(190,63,63); " description="O-methyltransferase_family_2[br]Location: 5855110 - 5856114&lt;br&gt;&lt;br&gt;&lt;b&gt;BlastP hit with CHAFR746836_0090890.1&lt;/b&gt;&lt;br&gt;Percentage identity: 33%&lt;br&gt;Percentage coverage: 27%&lt;br&gt;BLAST bit score: 57&lt;br&gt;E-value: 6e-08" locus_tag="SACTE_5196" id="clusterblast-1_h24_10_11" points="256,90 259,90 264,85 259,80 256,80 256,90 " class="clusterblast-orf"  />
<polygon style="stroke:black; stroke-width:1; fill:#FFFFFF; " description="TetR_family_transcriptional_regulator[br]Location: 5856081 - 5856902" locus_tag="SACTE_5197" id="clusterblast-1_h24_10_12" points="264,85 269,80 270,80 270,90 269,90 264,85 " class="clusterblast-orf"  />
<polygon style="stroke:black; stroke-width:1; fill:#FFFFFF; " description="daunorubicin_resistance_ABC_transporter_ATPase[br]Location: 5856991 - 5857959" locus_tag="SACTE_5198" id="clusterblast-1_h24_10_13" points="271,90 274,90 279,85 274,80 271,80 271,90 " class="clusterblast-orf"  />
<polygon style="stroke:black; stroke-width:1; fill:#FFFFFF; " description="monooxygenase_FAD-binding_protein[br]Location: 5858433 - 5859887" locus_tag="SACTE_5200" id="clusterblast-1_h24_10_14" points="283,90 289,90 294,85 289,80 283,80 283,90 " class="clusterblast-orf"  />
<polygon style="stroke:black; stroke-width:1; fill:#FFFFFF; " description="cytochrome_P450[br]Location: 5860213 - 5861412" locus_tag="SACTE_5201" id="clusterblast-1_h24_10_15" points="297,90 301,90 306,85 301,80 297,80 297,90 " class="clusterblast-orf"  />
<polygon style="stroke:black; stroke-width:1; fill:#FFFFFF; " description="beta-ketoacyl_synthase[br]Location: 5861512 - 5862777" locus_tag="SACTE_5202" id="clusterblast-1_h24_10_16" points="307,90 312,90 317,85 312,80 307,80 307,90 " class="clusterblast-orf"  />
<polygon style="stroke:black; stroke-width:1; fill:#FFFFFF; " description="beta-ketoacyl_synthase[br]Location: 5862770 - 5864020" locus_tag="SACTE_5203" id="clusterblast-1_h24_10_17" points="317,90 322,90 327,85 322,80 317,80 317,90 " class="clusterblast-orf"  />
<polygon style="stroke:black; stroke-width:1; fill:#FFFFFF; " description="3-Oxoacyl-(acyl-carrier-protein_(ACP))_synthase[br]Location: 5864125 - 5865129" locus_tag="SACTE_5204" id="clusterblast-1_h24_10_18" points="328,85 333,80 336,80 336,90 333,90 328,85 " class="clusterblast-orf"  />
<polygon style="stroke:black; stroke-width:1; fill:#FFFFFF; " description="phosphopantetheine-binding_protein[br]Location: 5865380 - 5865640" locus_tag="SACTE_5205" id="clusterblast-1_h24_10_19" points="338,90 340,85 338,80 338,90 " class="clusterblast-orf"  />
<polygon style="stroke:black; stroke-width:1; fill:#FFFFFF; " description="type_11_methyltransferase[br]Location: 5865733 - 5866542" locus_tag="SACTE_5206" id="clusterblast-1_h24_10_20" points="341,90 342,90 347,85 342,80 341,80 341,90 " class="clusterblast-orf"  />
<polygon style="stroke:black; stroke-width:1; fill:#FFFFFF; " description="LuxR_family_two_component_transcriptional[br]Location: 5867132 - 5867788" locus_tag="SACTE_5207" id="clusterblast-1_h24_10_21" points="352,90 352,90 357,85 352,80 352,80 352,90 " class="clusterblast-orf"  />
<polygon style="stroke:black; stroke-width:1; fill:rgb(63,63,190); " description="short-chain_dehydrogenase/reductase_SDR[br]Location: 5867864 - 5868613&lt;br&gt;&lt;br&gt;&lt;b&gt;BlastP hit with CHAFR746836_0090930.1&lt;/b&gt;&lt;br&gt;Percentage identity: 32%&lt;br&gt;Percentage coverage: 73%&lt;br&gt;BLAST bit score: 100&lt;br&gt;E-value: 5e-23" locus_tag="SACTE_5208" id="clusterblast-1_h24_10_22" points="358,90 358,90 363,85 358,80 358,80 358,90 " class="clusterblast-orf"  />
<polygon style="stroke:black; stroke-width:1; fill:#FFFFFF; " description="SARP_family_transcriptional_regulator[br]Location: 5868761 - 5869573" locus_tag="SACTE_5209" id="clusterblast-1_h24_10_23" points="365,85 370,80 371,80 371,90 370,90 365,85 " class="clusterblast-orf"  />
<polygon style="stroke:black; stroke-width:1; fill:#FFFFFF; " description="beta-ketoacyl_synthase[br]Location: 5869794 - 5883128" locus_tag="SACTE_5210" id="clusterblast-1_h24_10_24" points="373,90 474,90 479,85 474,80 373,80 373,90 " class="clusterblast-orf"  />
<polygon style="stroke:black; stroke-width:1; fill:#FFFFFF; " description="trans-2-enoyl-CoA_reductase_(NAD(+))[br]Location: 5883148 - 5884368" locus_tag="SACTE_5211" id="clusterblast-1_h24_10_25" points="479,90 484,90 489,85 484,80 479,80 479,90 " class="clusterblast-orf"  />
<polygon style="stroke:black; stroke-width:1; fill:#FFFFFF; " description="NmrA_family_protein[br]Location: 5884473 - 5885312" locus_tag="SACTE_5212" id="clusterblast-1_h24_10_26" points="489,85 494,80 496,80 496,90 494,90 489,85 " class="clusterblast-orf"  />
<polygon style="stroke:black; stroke-width:1; fill:#FFFFFF; " description="ABC_transporter-like_protein[br]Location: 5885516 - 5887309" locus_tag="SACTE_5213" id="clusterblast-1_h24_10_27" points="498,90 507,90 512,85 507,80 498,80 498,90 " class="clusterblast-orf"  />
<polygon style="stroke:black; stroke-width:1; fill:#FFFFFF; " description="ABC_transporter-like_protein[br]Location: 5887306 - 5889225" locus_tag="SACTE_5214" id="clusterblast-1_h24_10_28" points="512,90 522,90 527,85 522,80 512,80 512,90 " class="clusterblast-orf"  />
<polygon style="stroke:black; stroke-width:1; fill:#FFFFFF; " description="hypothetical_protein[br]Location: 5890212 - 5890574" locus_tag="SACTE_5215" id="clusterblast-1_h24_10_29" points="535,90 538,85 535,80 535,90 " class="clusterblast-orf"  />
<polygon style="stroke:black; stroke-width:1; fill:#FFFFFF; " description="hypothetical_protein[br]Location: 5890571 - 5891218" locus_tag="SACTE_5216" id="clusterblast-1_h24_10_30" points="538,90 538,90 543,85 538,80 538,80 538,90 " class="clusterblast-orf"  />
<polygon style="stroke:black; stroke-width:1; fill:#FFFFFF; " description="XRE_family_transcriptional_regulator[br]Location: 5893450 - 5894979" locus_tag="SACTE_5218" id="clusterblast-1_h24_10_31" points="561,85 566,80 573,80 573,90 566,90 561,85 " class="clusterblast-orf"  />
<polygon style="stroke:black; stroke-width:1; fill:#FFFFFF; " description="hypothetical_protein[br]Location: 5895143 - 5895340" locus_tag="SACTE_5219" id="clusterblast-1_h24_10_32" points="574,85 576,80 576,90 574,85 " class="clusterblast-orf"  />
<polygon style="stroke:black; stroke-width:1; fill:#FFFFFF; " description="aconitate_hydratase_1[br]Location: 5895722 - 5898439" locus_tag="SACTE_5220" id="clusterblast-1_h24_10_33" points="579,90 595,90 600,85 595,80 579,80 579,90 " class="clusterblast-orf"  />
<polygon style="stroke:black; stroke-width:1; fill:#FFFFFF; " description="ROK_family_protein[br]Location: 5898549 - 5899778" locus_tag="SACTE_5221" id="clusterblast-1_h24_10_34" points="601,90 606,90 611,85 606,80 601,80 601,90 " class="clusterblast-orf"  />
<polygon style="stroke:black; stroke-width:1; fill:#FFFFFF; " description="hypothetical_protein[br]Location: 5899851 - 5900195" locus_tag="SACTE_5222" id="clusterblast-1_h24_10_35" points="612,85 614,80 614,90 612,85 " class="clusterblast-orf"  />
<polygon style="stroke:black; stroke-width:1; fill:#FFFFFF; " description="hypothetical_protein[br]Location: 5900192 - 5900611" locus_tag="SACTE_5223" id="clusterblast-1_h24_10_36" points="614,85 618,80 618,90 614,85 " class="clusterblast-orf"  />
<polygon style="stroke:black; stroke-width:1; fill:#FFFFFF; " description="ribonuclease_BN[br]Location: 5900720 - 5901802" locus_tag="SACTE_5224" id="clusterblast-1_h24_10_37" points="619,85 624,80 627,80 627,90 624,90 619,85 " class="clusterblast-orf"  />
<polygon style="stroke:black; stroke-width:1; fill:#FFFFFF; " description="putative_signal_peptide_protein[br]Location: 5901941 - 5902201" locus_tag="SACTE_5225" id="clusterblast-1_h24_10_38" points="628,90 630,85 628,80 628,90 " class="clusterblast-orf"  />
<polygon style="stroke:black; stroke-width:1; fill:#FFFFFF; " description="beta-galactosidase[br]Location: 5902325 - 5903704" locus_tag="SACTE_5226" id="clusterblast-1_h24_10_39" points="631,85 636,80 642,80 642,90 636,90 631,85 " class="clusterblast-orf"  />
</g>
</svg>
