<svg xmlns="http://www.w3.org/2000/svg" height="230" width="800" version="1.1" y="0" x="0" preserveAspectRatio="none" xmlns:xlink="http://www.w3.org/1999/xlink" viewBox="0 0 800 230"  >
<g class="clusterblast-cluster" label="Query sequence"  >
<text class="clusterblast-acc" y="10" x="5"  >
Query sequence</text>
<line y1="35" x2="778.0" style="stroke:grey; stroke-width:1; " x1="10" y2="35"  />
<polygon style="stroke:black; stroke-width:1; fill:#FFFFFF; " description="unannotated orf[br]Location: 18836 - 21554" locus_tag="CHAFR746836_0027290.1" class="clusterblast-orf" points="10,40 24,40 29,35 24,30 10,30 10,40 " id="clusterblast-1_q40_3_0"  />
<polygon style="stroke:black; stroke-width:1; fill:#FFFFFF; " description="unannotated orf[br]Location: 27135 - 27585" locus_tag="CHAFR746836_0027300.1" class="clusterblast-orf" points="68,40 72,35 68,30 68,40 " id="clusterblast-1_q40_3_1"  />
<polygon style="stroke:black; stroke-width:1; fill:rgb(190,63,63); " description="unannotated orf[br]Location: 30771 - 32507" locus_tag="CHAFR746836_0027310.1" class="clusterblast-orf" points="94,35 99,30 107,30 107,40 99,40 94,35 " id="clusterblast-1_q40_3_2"  />
<polygon style="stroke:black; stroke-width:1; fill:rgb(63,63,190); " description="unannotated orf[br]Location: 34247 - 35696" locus_tag="CHAFR746836_0027320.1" class="clusterblast-orf" points="119,40 124,40 129,35 124,30 119,30 119,40 " id="clusterblast-1_q40_3_3"  />
<polygon style="stroke:black; stroke-width:1; fill:#FFFFFF; " description="unannotated orf[br]Location: 37185 - 38130" locus_tag="CHAFR746836_0027330.1" class="clusterblast-orf" points="140,40 141,40 146,35 141,30 140,30 140,40 " id="clusterblast-1_q40_3_4"  />
<polygon style="stroke:black; stroke-width:1; fill:#FFFFFF; " description="unannotated orf[br]Location: 41765 - 42925" locus_tag="CHAFR746836_0027340.1" class="clusterblast-orf" points="172,35 177,30 180,30 180,40 177,40 172,35 " id="clusterblast-1_q40_3_5"  />
<polygon style="stroke:black; stroke-width:1; fill:#FFFFFF; " description="unannotated orf[br]Location: 55069 - 56002" locus_tag="CHAFR746836_0027350.1" class="clusterblast-orf" points="267,35 272,30 273,30 273,40 272,40 267,35 " id="clusterblast-1_q40_3_6"  />
<polygon style="stroke:black; stroke-width:1; fill:#FFFFFF; " description="unannotated orf[br]Location: 56950 - 57453" locus_tag="CHAFR746836_0027360.1" class="clusterblast-orf" points="280,35 284,30 284,40 280,35 " id="clusterblast-1_q40_3_7"  />
<polygon style="stroke:black; stroke-width:1; fill:#FFFFFF; " description="unannotated orf[br]Location: 59904 - 60587" locus_tag="CHAFR746836_0027370.1" class="clusterblast-orf" points="301,35 306,30 306,30 306,40 306,40 301,35 " id="clusterblast-1_q40_3_8"  />
<polygon style="stroke:black; stroke-width:1; fill:rgb(63,190,63); " description="unannotated orf[br]Location: 62113 - 63802" locus_tag="CHAFR746836_0027380.1" class="clusterblast-orf" points="317,40 324,40 329,35 324,30 317,30 317,40 " id="clusterblast-1_q40_3_9"  />
<polygon style="stroke:black; stroke-width:1; fill:rgb(190,63,190); " description="unannotated orf[br]Location: 65675 - 67240" locus_tag="CHAFR746836_0027390.1" class="clusterblast-orf" points="342,40 348,40 353,35 348,30 342,30 342,40 " id="clusterblast-1_q40_3_10"  />
<polygon style="stroke:black; stroke-width:1; fill:#FFFFFF; " description="unannotated orf[br]Location: 69095 - 71104" locus_tag="CHAFR746836_0027400.1" class="clusterblast-orf" points="366,35 371,30 380,30 380,40 371,40 366,35 " id="clusterblast-1_q40_3_11"  />
<polygon style="stroke:black; stroke-width:1; fill:#FFFFFF; " description="unannotated orf[br]Location: 72318 - 73122" locus_tag="CHAFR746836_0027410.1" class="clusterblast-orf" points="389,35 394,30 395,30 395,40 394,40 389,35 " id="clusterblast-1_q40_3_12"  />
<polygon style="stroke:black; stroke-width:1; fill:#FFFFFF; " description="unannotated orf[br]Location: 85144 - 86302" locus_tag="CHAFR746836_0027420.1" class="clusterblast-orf" points="480,40 483,40 488,35 483,30 480,30 480,40 " id="clusterblast-1_q40_3_13"  />
<polygon style="stroke:black; stroke-width:1; fill:#FFFFFF; " description="unannotated orf[br]Location: 87771 - 89252" locus_tag="CHAFR746836_0027430.1" class="clusterblast-orf" points="499,40 504,40 509,35 504,30 499,30 499,40 " id="clusterblast-1_q40_3_14"  />
<polygon style="stroke:black; stroke-width:1; fill:rgb(190,190,63); " description="unannotated orf[br]Location: 93673 - 95433" locus_tag="CHAFR746836_0027440.1" class="clusterblast-orf" points="541,35 546,30 553,30 553,40 546,40 541,35 " id="clusterblast-1_q40_3_15"  />
<polygon style="stroke:black; stroke-width:1; fill:#FFFFFF; " description="unannotated orf[br]Location: 101726 - 102802" locus_tag="CHAFR746836_0027450.1" class="clusterblast-orf" points="598,40 600,40 605,35 600,30 598,30 598,40 " id="clusterblast-1_q40_3_16"  />
<polygon style="stroke:black; stroke-width:1; fill:rgb(190,190,190); " description="unannotated orf[br]Location: 102943 - 104133" locus_tag="CHAFR746836_0027460.1" class="clusterblast-orf" points="606,35 611,30 615,30 615,40 611,40 606,35 " id="clusterblast-1_q40_3_17"  />
<polygon style="stroke:black; stroke-width:1; fill:rgb(63,190,190); " description="unannotated orf[br]Location: 113142 - 115383" locus_tag="CHAFR746836_0027470.1" class="clusterblast-orf" points="679,40 690,40 695,35 690,30 679,30 679,40 " id="clusterblast-1_q40_3_18"  />
<polygon style="stroke:black; stroke-width:1; fill:#FFFFFF; " description="unannotated orf[br]Location: 116732 - 117774" locus_tag="CHAFR746836_0027480.1" class="clusterblast-orf" points="704,40 707,40 712,35 707,30 704,30 704,40 " id="clusterblast-1_q40_3_19"  />
<polygon style="stroke:black; stroke-width:1; fill:rgb(63,63,63); " description="unannotated orf[br]Location: 118463 - 119147" locus_tag="CHAFR746836_0027490.1" class="clusterblast-orf" points="717,40 721,35 717,30 717,40 " id="clusterblast-1_q40_3_20"  />
<polygon style="stroke:black; stroke-width:1; fill:#FFFFFF; " description="unannotated orf[br]Location: 120001 - 121808" locus_tag="CHAFR746836_0027500.1" class="clusterblast-orf" points="727,40 735,40 740,35 735,30 727,30 727,40 " id="clusterblast-1_q40_3_21"  />
<polygon style="stroke:black; stroke-width:1; fill:#FFFFFF; " description="unannotated orf[br]Location: 122955 - 125087" locus_tag="CHAFR746836_0027510.1" class="clusterblast-orf" points="748,35 753,30 764,30 764,40 753,40 748,35 " id="clusterblast-1_q40_3_22"  />
<polygon style="stroke:black; stroke-width:1; fill:#FFFFFF; " description="unannotated orf[br]Location: 125673 - 127054" locus_tag="CHAFR746836_0027520.1" class="clusterblast-orf" points="768,35 773,30 778,30 778,40 773,40 768,35 " id="clusterblast-1_q40_3_23"  />
</g>
<g class="clusterblast-cluster" description="Trichoderma atroviride IMI 206040 TRIATcontig 23, whole ..." label="ABDG02000023.1_c2"  >
<text class="clusterblast-acc" y="60" x="5"  >
ABDG02000023.1_c2</text>
<text class="clusterblast-desc" y="60" x="460.8"  >
Trichoderma atroviride IMI 206040 TRIATcontig 23, whole ...</text>
<line y1="85" x2="778.0" style="stroke:grey; stroke-width:1; " x1="10" y2="85"  />
<polygon style="stroke:black; stroke-width:1; fill:rgb(63,63,190); " description="hypothetical_protein[br]Location: 836067 - 837512&lt;br&gt;&lt;br&gt;&lt;b&gt;BlastP hit with CHAFR746836_0027320.1&lt;/b&gt;&lt;br&gt;Percentage identity: 37%&lt;br&gt;Percentage coverage: 95%&lt;br&gt;BLAST bit score: 311&lt;br&gt;E-value: 6e-99" locus_tag="TRIATDRAFT_152486" id="clusterblast-1_h40_3_0" points="84,90 89,90 94,85 89,80 84,80 84,90 " class="clusterblast-orf"  />
<polygon style="stroke:black; stroke-width:1; fill:#FFFFFF; " description="Hypothetical_protein[br]Location: 838352 - 839443" locus_tag="TRIATDRAFT_88806" id="clusterblast-1_h40_3_1" points="100,90 102,90 107,85 102,80 100,80 100,90 " class="clusterblast-orf"  />
<polygon style="stroke:black; stroke-width:1; fill:#FFFFFF; " description="hypothetical_protein[br]Location: 839722 - 840578" locus_tag="TRIATDRAFT_317933" id="clusterblast-1_h40_3_2" points="109,85 114,80 116,80 116,90 114,90 109,85 " class="clusterblast-orf"  />
<polygon style="stroke:black; stroke-width:1; fill:#FFFFFF; " description="hypothetical_protein[br]Location: 840758 - 841067" locus_tag="TRIATDRAFT_283421" id="clusterblast-1_h40_3_3" points="117,85 119,80 119,90 117,85 " class="clusterblast-orf"  />
<polygon style="stroke:black; stroke-width:1; fill:rgb(190,190,190); " description="putative_hydrolase[br]Location: 841432 - 842458&lt;br&gt;&lt;br&gt;&lt;b&gt;BlastP hit with CHAFR746836_0027460.1&lt;/b&gt;&lt;br&gt;Percentage identity: 40%&lt;br&gt;Percentage coverage: 24%&lt;br&gt;BLAST bit score: 60&lt;br&gt;E-value: 5e-09" locus_tag="TRIATDRAFT_41079" id="clusterblast-1_h40_3_4" points="122,85 127,80 129,80 129,90 127,90 122,85 " class="clusterblast-orf"  />
<polygon style="stroke:black; stroke-width:1; fill:#FFFFFF; " description="hypothetical_protein[br]Location: 844123 - 845726" locus_tag="TRIATDRAFT_40955" id="clusterblast-1_h40_3_5" points="141,90 147,90 152,85 147,80 141,80 141,90 " class="clusterblast-orf"  />
<polygon style="stroke:black; stroke-width:1; fill:#FFFFFF; " description="hypothetical_protein[br]Location: 846178 - 846747" locus_tag="TRIATDRAFT_307825" id="clusterblast-1_h40_3_6" points="155,85 159,80 159,90 155,85 " class="clusterblast-orf"  />
<polygon style="stroke:black; stroke-width:1; fill:#FFFFFF; " description="hypothetical_protein[br]Location: 847856 - 849568" locus_tag="TRIATDRAFT_299404" id="clusterblast-1_h40_3_7" points="167,85 172,80 179,80 179,90 172,90 167,85 " class="clusterblast-orf"  />
<polygon style="stroke:black; stroke-width:1; fill:#FFFFFF; " description="Ca2+_transporter[br]Location: 852556 - 853846" locus_tag="TRIATDRAFT_88800" id="clusterblast-1_h40_3_8" points="201,85 206,80 210,80 210,90 206,90 201,85 " class="clusterblast-orf"  />
<polygon style="stroke:black; stroke-width:1; fill:#FFFFFF; " description="hypothetical_protein[br]Location: 854648 - 856598" locus_tag="TRIATDRAFT_241541" id="clusterblast-1_h40_3_9" points="215,90 224,90 229,85 224,80 215,80 215,90 " class="clusterblast-orf"  />
<polygon style="stroke:black; stroke-width:1; fill:#FFFFFF; " description="non-ribosomal_peptide_synthetase[br]Location: 857001 - 923302" locus_tag="TRIATDRAFT_317938" id="clusterblast-1_h40_3_10" points="232,85 237,80 703,80 703,90 237,90 232,85 " class="clusterblast-orf"  />
</g>
</svg>
