<svg xmlns="http://www.w3.org/2000/svg" height="230" width="800" version="1.1" y="0" x="0" preserveAspectRatio="none" xmlns:xlink="http://www.w3.org/1999/xlink" viewBox="0 0 800 230"  >
<g class="clusterblast-cluster" label="Query sequence"  >
<text class="clusterblast-acc" y="10" x="5"  >
Query sequence</text>
<line y1="35" x2="778.0" style="stroke:grey; stroke-width:1; " x1="10" y2="35"  />
<polygon style="stroke:black; stroke-width:1; fill:rgb(190,63,63); " description="unannotated orf[br]Location: 1171 - 2581" locus_tag="CHAFR746836_0090890.1" class="clusterblast-orf" points="10,35 15,30 21,30 21,40 15,40 10,35 " id="clusterblast-1_q24_8_0"  />
<polygon style="stroke:black; stroke-width:1; fill:#FFFFFF; " description="unannotated orf[br]Location: 3903 - 4681" locus_tag="CHAFR746836_0090900.1" class="clusterblast-orf" points="31,35 36,30 37,30 37,40 36,40 31,35 " id="clusterblast-1_q24_8_1"  />
<polygon style="stroke:black; stroke-width:1; fill:#FFFFFF; " description="unannotated orf[br]Location: 5272 - 5519" locus_tag="CHAFR746836_0090910.1" class="clusterblast-orf" points="42,40 44,35 42,30 42,40 " id="clusterblast-1_q24_8_2"  />
<polygon style="stroke:black; stroke-width:1; fill:#FFFFFF; " description="unannotated orf[br]Location: 14494 - 15565" locus_tag="CHAFR746836_0090920.1" class="clusterblast-orf" points="115,35 120,30 124,30 124,40 120,40 115,35 " id="clusterblast-1_q24_8_3"  />
<polygon style="stroke:black; stroke-width:1; fill:rgb(63,63,190); " description="unannotated orf[br]Location: 17145 - 18525" locus_tag="CHAFR746836_0090930.1" class="clusterblast-orf" points="136,40 142,40 147,35 142,30 136,30 136,40 " id="clusterblast-1_q24_8_4"  />
<polygon style="stroke:black; stroke-width:1; fill:#FFFFFF; " description="unannotated orf[br]Location: 28799 - 30524" locus_tag="CHAFR746836_0090940.1" class="clusterblast-orf" points="229,40 238,40 243,35 238,30 229,30 229,40 " id="clusterblast-1_q24_8_5"  />
<polygon style="stroke:black; stroke-width:1; fill:#FFFFFF; " description="unannotated orf[br]Location: 41424 - 43262" locus_tag="CHAFR746836_0090950.1" class="clusterblast-orf" points="329,35 334,30 344,30 344,40 334,40 329,35 " id="clusterblast-1_q24_8_6"  />
<polygon style="stroke:black; stroke-width:1; fill:#FFFFFF; " description="unannotated orf[br]Location: 43541 - 44533" locus_tag="CHAFR746836_0090960.1" class="clusterblast-orf" points="346,40 349,40 354,35 349,30 346,30 346,40 " id="clusterblast-1_q24_8_7"  />
<polygon style="stroke:black; stroke-width:1; fill:#FFFFFF; " description="unannotated orf[br]Location: 44819 - 46174" locus_tag="CHAFR746836_0090970.1" class="clusterblast-orf" points="356,35 361,30 367,30 367,40 361,40 356,35 " id="clusterblast-1_q24_8_8"  />
<polygon style="stroke:black; stroke-width:1; fill:#FFFFFF; " description="unannotated orf[br]Location: 46942 - 48495" locus_tag="CHAFR746836_0090980.1" class="clusterblast-orf" points="373,40 380,40 385,35 380,30 373,30 373,40 " id="clusterblast-1_q24_8_9"  />
<polygon style="stroke:black; stroke-width:1; fill:#FFFFFF; " description="unannotated orf[br]Location: 49208 - 50194" locus_tag="CHAFR746836_0090990.1" class="clusterblast-orf" points="391,40 394,40 399,35 394,30 391,30 391,40 " id="clusterblast-1_q24_8_10"  />
<polygon style="stroke:black; stroke-width:1; fill:rgb(63,190,63); " description="unannotated orf[br]Location: 51690 - 53335" locus_tag="CHAFR746836_0091000.1" class="clusterblast-orf" points="411,40 419,40 424,35 419,30 411,30 411,40 " id="clusterblast-1_q24_8_11"  />
<polygon style="stroke:black; stroke-width:1; fill:rgb(190,63,190); " description="unannotated orf[br]Location: 57952 - 59410" locus_tag="CHAFR746836_0091010.1" class="clusterblast-orf" points="460,40 467,40 472,35 467,30 460,30 460,40 " id="clusterblast-1_q24_8_12"  />
<polygon style="stroke:black; stroke-width:1; fill:rgb(190,190,63); " description="unannotated orf[br]Location: 62569 - 63924" locus_tag="CHAFR746836_0091020.1" class="clusterblast-orf" points="497,40 503,40 508,35 503,30 497,30 497,40 " id="clusterblast-1_q24_8_13"  />
<polygon style="stroke:black; stroke-width:1; fill:rgb(190,190,190); " description="unannotated orf[br]Location: 66784 - 68224" locus_tag="CHAFR746836_0091030.1" class="clusterblast-orf" points="531,40 537,40 542,35 537,30 531,30 531,40 " id="clusterblast-1_q24_8_14"  />
<polygon style="stroke:black; stroke-width:1; fill:#FFFFFF; " description="unannotated orf[br]Location: 88555 - 89706" locus_tag="CHAFR746836_0091040.1" class="clusterblast-orf" points="704,35 709,30 713,30 713,40 709,40 704,35 " id="clusterblast-1_q24_8_15"  />
<polygon style="stroke:black; stroke-width:1; fill:rgb(63,190,190); " description="unannotated orf[br]Location: 94755 - 95427" locus_tag="CHAFR746836_0091050.1" class="clusterblast-orf" points="753,35 758,30 758,30 758,40 758,40 753,35 " id="clusterblast-1_q24_8_16"  />
<polygon style="stroke:black; stroke-width:1; fill:rgb(63,63,63); " description="unannotated orf[br]Location: 95982 - 97863" locus_tag="CHAFR746836_0091060.1" class="clusterblast-orf" points="763,40 773,40 778,35 773,30 763,30 763,40 " id="clusterblast-1_q24_8_17"  />
</g>
<g class="clusterblast-cluster" description="Trichophyton equinum CBS 127.97 supercont1.34 genomic scaffo..." label="DS995751.1_c1"  >
<text class="clusterblast-acc" y="60" x="5"  >
DS995751.1_c1</text>
<text class="clusterblast-desc" y="60" x="460.8"  >
Trichophyton equinum CBS 127.97 supercont1.34 genomic scaffo...</text>
<line y1="85" x2="778.0" style="stroke:grey; stroke-width:1; " x1="10" y2="85"  />
<polygon style="stroke:black; stroke-width:1; fill:#FFFFFF; " description="protein_kinase_activator[br]Location: 158094 - 159411" locus_tag="TEQG_05774" id="clusterblast-1_h24_8_0" points="200,90 205,90 210,85 205,80 200,80 200,90 " class="clusterblast-orf"  />
<polygon style="stroke:black; stroke-width:1; fill:#FFFFFF; " description="translation_regulator_GCD7[br]Location: 160238 - 161778" locus_tag="TEQG_05775" id="clusterblast-1_h24_8_1" points="217,90 224,90 229,85 224,80 217,80 217,90 " class="clusterblast-orf"  />
<polygon style="stroke:black; stroke-width:1; fill:#FFFFFF; " description="40S_ribosomal_protein_S23[br]Location: 162160 - 162731" locus_tag="TEQG_05776" id="clusterblast-1_h24_8_2" points="232,85 236,80 236,90 232,85 " class="clusterblast-orf"  />
<polygon style="stroke:black; stroke-width:1; fill:#FFFFFF; " description="hypothetical_protein[br]Location: 163219 - 164001" locus_tag="TEQG_05777" id="clusterblast-1_h24_8_3" points="240,90 241,90 246,85 241,80 240,80 240,90 " class="clusterblast-orf"  />
<polygon style="stroke:black; stroke-width:1; fill:#FFFFFF; " description="hypothetical_protein[br]Location: 164104 - 164509" locus_tag="TEQG_05778" id="clusterblast-1_h24_8_4" points="247,85 250,80 250,90 247,85 " class="clusterblast-orf"  />
<polygon style="stroke:black; stroke-width:1; fill:#FFFFFF; " description="50S_ribosomal_protein_L17[br]Location: 164798 - 165424" locus_tag="TEQG_05779" id="clusterblast-1_h24_8_5" points="253,90 253,90 258,85 253,80 253,80 253,90 " class="clusterblast-orf"  />
<polygon style="stroke:black; stroke-width:1; fill:#FFFFFF; " description="vacuolar_protein_sorting_29[br]Location: 165666 - 166474" locus_tag="TEQG_05780" id="clusterblast-1_h24_8_6" points="260,85 265,80 266,80 266,90 265,90 260,85 " class="clusterblast-orf"  />
<polygon style="stroke:black; stroke-width:1; fill:#FFFFFF; " description="hypothetical_protein[br]Location: 167088 - 169136" locus_tag="TEQG_05781" id="clusterblast-1_h24_8_7" points="271,85 276,80 287,80 287,90 276,90 271,85 " class="clusterblast-orf"  />
<polygon style="stroke:black; stroke-width:1; fill:#FFFFFF; " description="hypothetical_protein[br]Location: 169108 - 169839" locus_tag="TEQG_08737" id="clusterblast-1_h24_8_8" points="287,90 288,90 293,85 288,80 287,80 287,90 " class="clusterblast-orf"  />
<polygon style="stroke:black; stroke-width:1; fill:#FFFFFF; " description="vacuolar_transporter_chaperone_1[br]Location: 170845 - 171356" locus_tag="TEQG_05782" id="clusterblast-1_h24_8_9" points="301,85 305,80 305,90 301,85 " class="clusterblast-orf"  />
<polygon style="stroke:black; stroke-width:1; fill:#FFFFFF; " description="dynein_light_chain[br]Location: 171837 - 172483" locus_tag="TEQG_05783" id="clusterblast-1_h24_8_10" points="309,90 309,90 314,85 309,80 309,80 309,90 " class="clusterblast-orf"  />
<polygon style="stroke:black; stroke-width:1; fill:#FFFFFF; " description="WD-repeat_protein_pop3[br]Location: 172870 - 174308" locus_tag="TEQG_05784" id="clusterblast-1_h24_8_11" points="317,85 322,80 328,80 328,90 322,90 317,85 " class="clusterblast-orf"  />
<polygon style="stroke:black; stroke-width:1; fill:#FFFFFF; " description="hypothetical_protein[br]Location: 175075 - 176817" locus_tag="TEQG_05785" id="clusterblast-1_h24_8_12" points="334,90 343,90 348,85 343,80 334,80 334,90 " class="clusterblast-orf"  />
<polygon style="stroke:black; stroke-width:1; fill:#FFFFFF; " description="hypothetical_protein[br]Location: 177391 - 178539" locus_tag="TEQG_05786" id="clusterblast-1_h24_8_13" points="353,90 357,90 362,85 357,80 353,80 353,90 " class="clusterblast-orf"  />
<polygon style="stroke:black; stroke-width:1; fill:#FFFFFF; " description="conidial_pigment_polyketide_synthase_PksP/Alb1[br]Location: 178996 - 185824" locus_tag="TEQG_05787" id="clusterblast-1_h24_8_14" points="366,85 371,80 420,80 420,90 371,90 366,85 " class="clusterblast-orf"  />
<polygon style="stroke:black; stroke-width:1; fill:#FFFFFF; " description="flavin-containing_monooxygenase[br]Location: 186719 - 188750" locus_tag="TEQG_05788" id="clusterblast-1_h24_8_15" points="427,90 438,90 443,85 438,80 427,80 427,90 " class="clusterblast-orf"  />
<polygon style="stroke:black; stroke-width:1; fill:#FFFFFF; " description="short_chain_dehydrogenase/reductase[br]Location: 189168 - 190232" locus_tag="TEQG_05789" id="clusterblast-1_h24_8_16" points="446,85 451,80 455,80 455,90 451,90 446,85 " class="clusterblast-orf"  />
<polygon style="stroke:black; stroke-width:1; fill:#FFFFFF; " description="hypothetical_protein[br]Location: 190998 - 192395" locus_tag="TEQG_05790" id="clusterblast-1_h24_8_17" points="461,85 466,80 472,80 472,90 466,90 461,85 " class="clusterblast-orf"  />
<polygon style="stroke:black; stroke-width:1; fill:rgb(190,63,190); " description="conidial_pigment_biosynthesis_oxidase[br]Location: 192840 - 195007&lt;br&gt;&lt;br&gt;&lt;b&gt;BlastP hit with CHAFR746836_0091010.1&lt;/b&gt;&lt;br&gt;Percentage identity: 32%&lt;br&gt;Percentage coverage: 22%&lt;br&gt;BLAST bit score: 55&lt;br&gt;E-value: 6e-07" locus_tag="TEQG_05791" id="clusterblast-1_h24_8_18" points="475,90 488,90 493,85 488,80 475,80 475,90 " class="clusterblast-orf"  />
<polygon style="stroke:black; stroke-width:1; fill:#FFFFFF; " description="hypothetical_protein[br]Location: 195249 - 196637" locus_tag="TEQG_05792" id="clusterblast-1_h24_8_19" points="495,85 500,80 506,80 506,90 500,90 495,85 " class="clusterblast-orf"  />
<polygon style="stroke:black; stroke-width:1; fill:#FFFFFF; " description="hypothetical_protein[br]Location: 196954 - 197395" locus_tag="TEQG_08738" id="clusterblast-1_h24_8_20" points="508,90 512,85 508,80 508,90 " class="clusterblast-orf"  />
<polygon style="stroke:black; stroke-width:1; fill:#FFFFFF; " description="hypothetical_protein[br]Location: 198632 - 199149" locus_tag="TEQG_08739" id="clusterblast-1_h24_8_21" points="521,90 521,90 526,85 521,80 521,80 521,90 " class="clusterblast-orf"  />
<polygon style="stroke:black; stroke-width:1; fill:rgb(190,63,63); " description="cercosporin_toxin_biosynthesis_protein[br]Location: 200420 - 201932&lt;br&gt;&lt;br&gt;&lt;b&gt;BlastP hit with CHAFR746836_0090890.1&lt;/b&gt;&lt;br&gt;Percentage identity: 33%&lt;br&gt;Percentage coverage: 100%&lt;br&gt;BLAST bit score: 238&lt;br&gt;E-value: 1e-71" locus_tag="TEQG_05793" id="clusterblast-1_h24_8_22" points="536,90 543,90 548,85 543,80 536,80 536,90 " class="clusterblast-orf"  />
<polygon style="stroke:black; stroke-width:1; fill:#FFFFFF; " description="MFS_aflatoxin_efflux_pump[br]Location: 202234 - 204022" locus_tag="TEQG_05794" id="clusterblast-1_h24_8_23" points="550,85 555,80 564,80 564,90 555,90 550,85 " class="clusterblast-orf"  />
<polygon style="stroke:black; stroke-width:1; fill:#FFFFFF; " description="C6_transcription_factor[br]Location: 204463 - 206700" locus_tag="TEQG_05795" id="clusterblast-1_h24_8_24" points="568,90 581,90 586,85 581,80 568,80 568,90 " class="clusterblast-orf"  />
</g>
</svg>
