<svg xmlns="http://www.w3.org/2000/svg" height="230" width="800" version="1.1" y="0" x="0" preserveAspectRatio="none" xmlns:xlink="http://www.w3.org/1999/xlink" viewBox="0 0 800 230"  >
<g class="clusterblast-cluster" label="Query sequence"  >
<text class="clusterblast-acc" y="10" x="5"  >
Query sequence</text>
<line y1="35" x2="778.0" style="stroke:grey; stroke-width:1; " x1="10" y2="35"  />
<polygon style="stroke:black; stroke-width:1; fill:rgb(190,63,63); " description="unannotated orf[br]Location: 1171 - 2581" locus_tag="CHAFR746836_0090890.1" class="clusterblast-orf" points="28,35 33,30 38,30 38,40 33,40 28,35 " id="clusterblast-1_q24_7_0"  />
<polygon style="stroke:black; stroke-width:1; fill:#FFFFFF; " description="unannotated orf[br]Location: 3903 - 4681" locus_tag="CHAFR746836_0090900.1" class="clusterblast-orf" points="48,35 53,30 54,30 54,40 53,40 48,35 " id="clusterblast-1_q24_7_1"  />
<polygon style="stroke:black; stroke-width:1; fill:#FFFFFF; " description="unannotated orf[br]Location: 5272 - 5519" locus_tag="CHAFR746836_0090910.1" class="clusterblast-orf" points="59,40 60,35 59,30 59,40 " id="clusterblast-1_q24_7_2"  />
<polygon style="stroke:black; stroke-width:1; fill:#FFFFFF; " description="unannotated orf[br]Location: 14494 - 15565" locus_tag="CHAFR746836_0090920.1" class="clusterblast-orf" points="128,35 133,30 136,30 136,40 133,40 128,35 " id="clusterblast-1_q24_7_3"  />
<polygon style="stroke:black; stroke-width:1; fill:rgb(63,63,190); " description="unannotated orf[br]Location: 17145 - 18525" locus_tag="CHAFR746836_0090930.1" class="clusterblast-orf" points="148,40 154,40 159,35 154,30 148,30 148,40 " id="clusterblast-1_q24_7_4"  />
<polygon style="stroke:black; stroke-width:1; fill:#FFFFFF; " description="unannotated orf[br]Location: 28799 - 30524" locus_tag="CHAFR746836_0090940.1" class="clusterblast-orf" points="237,40 245,40 250,35 245,30 237,30 237,40 " id="clusterblast-1_q24_7_5"  />
<polygon style="stroke:black; stroke-width:1; fill:#FFFFFF; " description="unannotated orf[br]Location: 41424 - 43262" locus_tag="CHAFR746836_0090950.1" class="clusterblast-orf" points="332,35 337,30 346,30 346,40 337,40 332,35 " id="clusterblast-1_q24_7_6"  />
<polygon style="stroke:black; stroke-width:1; fill:#FFFFFF; " description="unannotated orf[br]Location: 43541 - 44533" locus_tag="CHAFR746836_0090960.1" class="clusterblast-orf" points="348,40 351,40 356,35 351,30 348,30 348,40 " id="clusterblast-1_q24_7_7"  />
<polygon style="stroke:black; stroke-width:1; fill:#FFFFFF; " description="unannotated orf[br]Location: 44819 - 46174" locus_tag="CHAFR746836_0090970.1" class="clusterblast-orf" points="358,35 363,30 368,30 368,40 363,40 358,35 " id="clusterblast-1_q24_7_8"  />
<polygon style="stroke:black; stroke-width:1; fill:#FFFFFF; " description="unannotated orf[br]Location: 46942 - 48495" locus_tag="CHAFR746836_0090980.1" class="clusterblast-orf" points="374,40 381,40 386,35 381,30 374,30 374,40 " id="clusterblast-1_q24_7_9"  />
<polygon style="stroke:black; stroke-width:1; fill:#FFFFFF; " description="unannotated orf[br]Location: 49208 - 50194" locus_tag="CHAFR746836_0090990.1" class="clusterblast-orf" points="391,40 394,40 399,35 394,30 391,30 391,40 " id="clusterblast-1_q24_7_10"  />
<polygon style="stroke:black; stroke-width:1; fill:rgb(63,190,63); " description="unannotated orf[br]Location: 51690 - 53335" locus_tag="CHAFR746836_0091000.1" class="clusterblast-orf" points="410,40 417,40 422,35 417,30 410,30 410,40 " id="clusterblast-1_q24_7_11"  />
<polygon style="stroke:black; stroke-width:1; fill:rgb(190,63,190); " description="unannotated orf[br]Location: 57952 - 59410" locus_tag="CHAFR746836_0091010.1" class="clusterblast-orf" points="457,40 463,40 468,35 463,30 457,30 457,40 " id="clusterblast-1_q24_7_12"  />
<polygon style="stroke:black; stroke-width:1; fill:rgb(190,190,63); " description="unannotated orf[br]Location: 62569 - 63924" locus_tag="CHAFR746836_0091020.1" class="clusterblast-orf" points="492,40 498,40 503,35 498,30 492,30 492,40 " id="clusterblast-1_q24_7_13"  />
<polygon style="stroke:black; stroke-width:1; fill:rgb(190,190,190); " description="unannotated orf[br]Location: 66784 - 68224" locus_tag="CHAFR746836_0091030.1" class="clusterblast-orf" points="524,40 530,40 535,35 530,30 524,30 524,40 " id="clusterblast-1_q24_7_14"  />
<polygon style="stroke:black; stroke-width:1; fill:#FFFFFF; " description="unannotated orf[br]Location: 88555 - 89706" locus_tag="CHAFR746836_0091040.1" class="clusterblast-orf" points="689,35 694,30 698,30 698,40 694,40 689,35 " id="clusterblast-1_q24_7_15"  />
<polygon style="stroke:black; stroke-width:1; fill:rgb(63,190,190); " description="unannotated orf[br]Location: 94755 - 95427" locus_tag="CHAFR746836_0091050.1" class="clusterblast-orf" points="736,35 741,30 741,30 741,40 741,40 736,35 " id="clusterblast-1_q24_7_16"  />
<polygon style="stroke:black; stroke-width:1; fill:rgb(63,63,63); " description="unannotated orf[br]Location: 95982 - 97863" locus_tag="CHAFR746836_0091060.1" class="clusterblast-orf" points="745,40 754,40 759,35 754,30 745,30 745,40 " id="clusterblast-1_q24_7_17"  />
</g>
<g class="clusterblast-cluster" description="Metarhizium acridum CQMa 102 unplaced genomic scaffold Scf 0..." label="GL698567.1_c1"  >
<text class="clusterblast-acc" y="60" x="5"  >
GL698567.1_c1</text>
<text class="clusterblast-desc" y="60" x="460.8"  >
Metarhizium acridum CQMa 102 unplaced genomic scaffold Scf 0...</text>
<line y1="85" x2="778.0" style="stroke:grey; stroke-width:1; " x1="10" y2="85"  />
<polygon style="stroke:black; stroke-width:1; fill:#FFFFFF; " description="hypothetical_protein[br]Location: 25433 - 29656" locus_tag="MAC_08202" id="clusterblast-1_h24_7_0" points="10,85 15,80 41,80 41,90 15,90 10,85 " class="clusterblast-orf"  />
<polygon style="stroke:black; stroke-width:1; fill:#FFFFFF; " description="putative_transcriptional_activator_srcap-like[br]Location: 30579 - 35666" locus_tag="MAC_08203" id="clusterblast-1_h24_7_1" points="48,90 82,90 87,85 82,80 48,80 48,90 " class="clusterblast-orf"  />
<polygon style="stroke:black; stroke-width:1; fill:#FFFFFF; " description="hypothetical_protein[br]Location: 36040 - 37071" locus_tag="MAC_08204" id="clusterblast-1_h24_7_2" points="90,85 95,80 98,80 98,90 95,90 90,85 " class="clusterblast-orf"  />
<polygon style="stroke:black; stroke-width:1; fill:#FFFFFF; " description="hypothetical_protein[br]Location: 37938 - 41680" locus_tag="MAC_08205" id="clusterblast-1_h24_7_3" points="104,90 127,90 132,85 127,80 104,80 104,90 " class="clusterblast-orf"  />
<polygon style="stroke:black; stroke-width:1; fill:#FFFFFF; " description="hypothetical_protein[br]Location: 42523 - 43962" locus_tag="MAC_08206" id="clusterblast-1_h24_7_4" points="139,85 144,80 150,80 150,90 144,90 139,85 " class="clusterblast-orf"  />
<polygon style="stroke:black; stroke-width:1; fill:#FFFFFF; " description="polyketide_synthase[br]Location: 48883 - 55500" locus_tag="MAC_08207" id="clusterblast-1_h24_7_5" points="187,85 192,80 237,80 237,90 192,90 187,85 " class="clusterblast-orf"  />
<polygon style="stroke:black; stroke-width:1; fill:#FFFFFF; " description="integral_membrane_protein[br]Location: 58969 - 59490" locus_tag="MAC_08208" id="clusterblast-1_h24_7_6" points="263,85 267,80 267,90 263,85 " class="clusterblast-orf"  />
<polygon style="stroke:black; stroke-width:1; fill:#FFFFFF; " description="UbiA_prenyltransferase_family_protein[br]Location: 60650 - 61996" locus_tag="MAC_08209" id="clusterblast-1_h24_7_7" points="276,90 281,90 286,85 281,80 276,80 276,90 " class="clusterblast-orf"  />
<polygon style="stroke:black; stroke-width:1; fill:#FFFFFF; " description="geranylgeranyl_pyrophosphate_synthetase_AtmG[br]Location: 64535 - 65725" locus_tag="MAC_08210" id="clusterblast-1_h24_7_8" points="306,85 311,80 315,80 315,90 311,90 306,85 " class="clusterblast-orf"  />
<polygon style="stroke:black; stroke-width:1; fill:#FFFFFF; " description="FAD-dependent_monooxygenase[br]Location: 67018 - 69978" locus_tag="MAC_08211" id="clusterblast-1_h24_7_9" points="324,90 342,90 347,85 342,80 324,80 324,90 " class="clusterblast-orf"  />
<polygon style="stroke:black; stroke-width:1; fill:#FFFFFF; " description="chitooligosaccharide_oxidase[br]Location: 70847 - 72526" locus_tag="MAC_08212" id="clusterblast-1_h24_7_10" points="353,90 361,90 366,85 361,80 353,80 353,90 " class="clusterblast-orf"  />
<polygon style="stroke:black; stroke-width:1; fill:#FFFFFF; " description="protein_kinase-like_protein[br]Location: 75482 - 77910" locus_tag="MAC_08213" id="clusterblast-1_h24_7_11" points="388,90 402,90 407,85 402,80 388,80 388,90 " class="clusterblast-orf"  />
<polygon style="stroke:black; stroke-width:1; fill:#FFFFFF; " description="nonribosomal_peptide_synthase_GliP-like,[br]Location: 80674 - 85814" locus_tag="MAC_08214" id="clusterblast-1_h24_7_12" points="428,85 433,80 467,80 467,90 433,90 428,85 " class="clusterblast-orf"  />
<polygon style="stroke:black; stroke-width:1; fill:rgb(190,63,63); " description="O-methyltransferase,_putative[br]Location: 86628 - 87946&lt;br&gt;&lt;br&gt;&lt;b&gt;BlastP hit with CHAFR746836_0090890.1&lt;/b&gt;&lt;br&gt;Percentage identity: 33%&lt;br&gt;Percentage coverage: 33%&lt;br&gt;BLAST bit score: 57&lt;br&gt;E-value: 7e-08" locus_tag="MAC_08215" id="clusterblast-1_h24_7_13" points="473,90 478,90 483,85 478,80 473,80 473,90 " class="clusterblast-orf"  />
<polygon style="stroke:black; stroke-width:1; fill:#FFFFFF; " description="cytochrome_P450_oxidoreductase_GliC[br]Location: 88256 - 89140" locus_tag="MAC_08216" id="clusterblast-1_h24_7_14" points="485,85 490,80 492,80 492,90 490,90 485,85 " class="clusterblast-orf"  />
<polygon style="stroke:black; stroke-width:1; fill:#FFFFFF; " description="methyltransferase_SirN-like,_putative[br]Location: 90824 - 91668" locus_tag="MAC_08217" id="clusterblast-1_h24_7_15" points="505,90 506,90 511,85 506,80 505,80 505,90 " class="clusterblast-orf"  />
<polygon style="stroke:black; stroke-width:1; fill:#FFFFFF; " description="HET_domain-containing_protein[br]Location: 92987 - 96168" locus_tag="MAC_08218" id="clusterblast-1_h24_7_16" points="521,90 540,90 545,85 540,80 521,80 521,90 " class="clusterblast-orf"  />
<polygon style="stroke:black; stroke-width:1; fill:#FFFFFF; " description="phenolpthiocerol_synthesis_polyketide_synthase[br]Location: 98239 - 106291" locus_tag="MAC_08219" id="clusterblast-1_h24_7_17" points="561,85 566,80 622,80 622,90 566,90 561,85 " class="clusterblast-orf"  />
<polygon style="stroke:black; stroke-width:1; fill:#FFFFFF; " description="hypothetical_protein[br]Location: 110866 - 112244" locus_tag="MAC_08220" id="clusterblast-1_h24_7_18" points="656,85 661,80 667,80 667,90 661,90 656,85 " class="clusterblast-orf"  />
<polygon style="stroke:black; stroke-width:1; fill:#FFFFFF; " description="fumarylacetoacetate_hydrolase_family_protein[br]Location: 112816 - 114136" locus_tag="MAC_08221" id="clusterblast-1_h24_7_19" points="671,90 676,90 681,85 676,80 671,80 671,90 " class="clusterblast-orf"  />
<polygon style="stroke:black; stroke-width:1; fill:#FFFFFF; " description="hypothetical_protein[br]Location: 114752 - 116926" locus_tag="MAC_08222" id="clusterblast-1_h24_7_20" points="686,85 691,80 702,80 702,90 691,90 686,85 " class="clusterblast-orf"  />
<polygon style="stroke:black; stroke-width:1; fill:#FFFFFF; " description="hypothetical_protein[br]Location: 117526 - 118154" locus_tag="MAC_08223" id="clusterblast-1_h24_7_21" points="707,85 711,80 711,90 707,85 " class="clusterblast-orf"  />
<polygon style="stroke:black; stroke-width:1; fill:rgb(190,190,190); " description="FAD_binding_domain_protein[br]Location: 118583 - 120929&lt;br&gt;&lt;br&gt;&lt;b&gt;BlastP hit with CHAFR746836_0091030.1&lt;/b&gt;&lt;br&gt;Percentage identity: 33%&lt;br&gt;Percentage coverage: 99%&lt;br&gt;BLAST bit score: 247&lt;br&gt;E-value: 3e-74" locus_tag="MAC_08224" id="clusterblast-1_h24_7_22" points="715,90 727,90 732,85 727,80 715,80 715,90 " class="clusterblast-orf"  />
<polygon style="stroke:black; stroke-width:1; fill:#FFFFFF; " description="hypothetical_protein[br]Location: 121127 - 122018" locus_tag="MAC_08225" id="clusterblast-1_h24_7_23" points="734,85 739,80 741,80 741,90 739,90 734,85 " class="clusterblast-orf"  />
<polygon style="stroke:black; stroke-width:1; fill:#FFFFFF; " description="hypothetical_protein[br]Location: 122865 - 124006" locus_tag="MAC_08226" id="clusterblast-1_h24_7_24" points="747,85 752,80 756,80 756,90 752,90 747,85 " class="clusterblast-orf"  />
<polygon style="stroke:black; stroke-width:1; fill:#FFFFFF; " description="major_facilitator_superfamily_permease[br]Location: 124948 - 126883" locus_tag="MAC_08227" id="clusterblast-1_h24_7_25" points="763,90 773,90 778,85 773,80 763,80 763,90 " class="clusterblast-orf"  />
</g>
</svg>
