<svg xmlns="http://www.w3.org/2000/svg" height="230" width="800" version="1.1" y="0" x="0" preserveAspectRatio="none" xmlns:xlink="http://www.w3.org/1999/xlink" viewBox="0 0 800 230"  >
<g class="clusterblast-cluster" label="Query sequence"  >
<text class="clusterblast-acc" y="10" x="5"  >
Query sequence</text>
<line y1="35" x2="778.0" style="stroke:grey; stroke-width:1; " x1="10" y2="35"  />
<polygon style="stroke:black; stroke-width:1; fill:#FFFFFF; " description="unannotated orf[br]Location: 4665 - 6373" locus_tag="CHAFR746836_0090420.1" class="clusterblast-orf" points="13,35 18,30 28,30 28,40 18,40 13,35 " id="clusterblast-1_q23_5_0"  />
<polygon style="stroke:black; stroke-width:1; fill:rgb(190,63,63); " description="unannotated orf[br]Location: 13107 - 14013" locus_tag="CHAFR746836_0090430.1" class="clusterblast-orf" points="88,35 93,30 96,30 96,40 93,40 88,35 " id="clusterblast-1_q23_5_1"  />
<polygon style="stroke:black; stroke-width:1; fill:rgb(63,63,190); " description="unannotated orf[br]Location: 15082 - 18583" locus_tag="CHAFR746836_0090440.1" class="clusterblast-orf" points="105,35 110,30 136,30 136,40 110,40 105,35 " id="clusterblast-1_q23_5_2"  />
<polygon style="stroke:black; stroke-width:1; fill:rgb(63,190,63); " description="unannotated orf[br]Location: 62601 - 69132" locus_tag="CHAFR746836_0090450.1" class="clusterblast-orf" points="527,35 532,30 585,30 585,40 532,40 527,35 " id="clusterblast-1_q23_5_3"  />
<polygon style="stroke:black; stroke-width:1; fill:rgb(190,63,190); " description="unannotated orf[br]Location: 70531 - 72251" locus_tag="CHAFR746836_0090460.1" class="clusterblast-orf" points="598,40 608,40 613,35 608,30 598,30 598,40 " id="clusterblast-1_q23_5_4"  />
<polygon style="stroke:black; stroke-width:1; fill:#FFFFFF; " description="unannotated orf[br]Location: 75015 - 76460" locus_tag="CHAFR746836_0090470.1" class="clusterblast-orf" points="638,35 643,30 651,30 651,40 643,40 638,35 " id="clusterblast-1_q23_5_5"  />
<polygon style="stroke:black; stroke-width:1; fill:rgb(190,190,63); " description="unannotated orf[br]Location: 79984 - 80954" locus_tag="CHAFR746836_0090480.1" class="clusterblast-orf" points="682,35 687,30 690,30 690,40 687,40 682,35 " id="clusterblast-1_q23_5_6"  />
<polygon style="stroke:black; stroke-width:1; fill:rgb(190,190,190); " description="unannotated orf[br]Location: 81993 - 83038" locus_tag="CHAFR746836_0090490.1" class="clusterblast-orf" points="700,40 704,40 709,35 704,30 700,30 700,40 " id="clusterblast-1_q23_5_7"  />
<polygon style="stroke:black; stroke-width:1; fill:#FFFFFF; " description="unannotated orf[br]Location: 86529 - 87580" locus_tag="CHAFR746836_0090500.1" class="clusterblast-orf" points="740,35 745,30 749,30 749,40 745,40 740,35 " id="clusterblast-1_q23_5_8"  />
<polygon style="stroke:black; stroke-width:1; fill:#FFFFFF; " description="unannotated orf[br]Location: 88454 - 90258" locus_tag="CHAFR746836_0090510.1" class="clusterblast-orf" points="757,40 768,40 773,35 768,30 757,30 757,40 " id="clusterblast-1_q23_5_9"  />
</g>
<g class="clusterblast-cluster" description="Paenibacillus elgii B69 Contig10, whole genome shotgu..." label="NZ_AFHW01000010.1_c1"  >
<text class="clusterblast-acc" y="60" x="5"  >
NZ_AFHW01000010.1_c1</text>
<text class="clusterblast-desc" y="60" x="460.8"  >
Paenibacillus elgii B69 Contig10, whole genome shotgu...</text>
<line y1="85" x2="778.0" style="stroke:grey; stroke-width:1; " x1="10" y2="85"  />
<polygon style="stroke:black; stroke-width:1; fill:#FFFFFF; " description="hypothetical_protein[br]Location: 28934 - 29653" locus_tag="PelgB_010100004420" id="clusterblast-1_h23_5_0" points="10,90 11,90 16,85 11,80 10,80 10,90 " class="clusterblast-orf"  />
<polygon style="stroke:black; stroke-width:1; fill:#FFFFFF; " description="hypothetical_protein[br]Location: 29911 - 30477" locus_tag="PelgB_010100004425" id="clusterblast-1_h23_5_1" points="18,85 23,80 23,80 23,90 23,90 18,85 " class="clusterblast-orf"  />
<polygon style="stroke:black; stroke-width:1; fill:#FFFFFF; " description="bifunctional_deaminase-reductase[br]Location: 30768 - 31238" locus_tag="PelgB_010100004430" id="clusterblast-1_h23_5_2" points="26,85 30,80 30,90 26,85 " class="clusterblast-orf"  />
<polygon style="stroke:black; stroke-width:1; fill:#FFFFFF; " description="YCII-related_protein[br]Location: 31251 - 31496" locus_tag="PelgB_010100004435" id="clusterblast-1_h23_5_3" points="30,85 32,80 32,90 30,85 " class="clusterblast-orf"  />
<polygon style="stroke:black; stroke-width:1; fill:#FFFFFF; " description="hypothetical_protein[br]Location: 31672 - 32031" locus_tag="PelgB_010100004440" id="clusterblast-1_h23_5_4" points="34,85 37,80 37,90 34,85 " class="clusterblast-orf"  />
<polygon style="stroke:black; stroke-width:1; fill:#FFFFFF; " description="hypothetical_protein[br]Location: 32215 - 32787" locus_tag="PelgB_010100004445" id="clusterblast-1_h23_5_5" points="39,85 44,80 44,80 44,90 44,90 39,85 " class="clusterblast-orf"  />
<polygon style="stroke:black; stroke-width:1; fill:#FFFFFF; " description="amine_oxidase[br]Location: 32956 - 34395" locus_tag="PelgB_010100004450" id="clusterblast-1_h23_5_6" points="45,85 50,80 58,80 58,90 50,90 45,85 " class="clusterblast-orf"  />
<polygon style="stroke:black; stroke-width:1; fill:#FFFFFF; " description="sulfite_oxidase[br]Location: 34538 - 35230" locus_tag="PelgB_010100004455" id="clusterblast-1_h23_5_7" points="59,85 64,80 65,80 65,90 64,90 59,85 " class="clusterblast-orf"  />
<polygon style="stroke:black; stroke-width:1; fill:#FFFFFF; " description="transcriptional_regulator[br]Location: 35679 - 36572" locus_tag="PelgB_010100004460" id="clusterblast-1_h23_5_8" points="69,85 74,80 77,80 77,90 74,90 69,85 " class="clusterblast-orf"  />
<polygon style="stroke:black; stroke-width:1; fill:#FFFFFF; " description="propionyl-CoA_carboxylase[br]Location: 36719 - 38257" locus_tag="PelgB_010100004465" id="clusterblast-1_h23_5_9" points="79,85 84,80 92,80 92,90 84,90 79,85 " class="clusterblast-orf"  />
<polygon style="stroke:black; stroke-width:1; fill:rgb(190,190,190); " description="enoyl-CoA_hydratase[br]Location: 38292 - 39074&lt;br&gt;&lt;br&gt;&lt;b&gt;BlastP hit with CHAFR746836_0090480.1&lt;/b&gt;&lt;br&gt;Percentage identity: 32%&lt;br&gt;Percentage coverage: 89%&lt;br&gt;BLAST bit score: 119&lt;br&gt;E-value: 4e-30&lt;br&gt;&lt;br&gt;&lt;b&gt;BlastP hit with CHAFR746836_0090490.1&lt;/b&gt;&lt;br&gt;Percentage identity: 31%&lt;br&gt;Percentage coverage: 92%&lt;br&gt;BLAST bit score: 121&lt;br&gt;E-value: 4e-31" locus_tag="PelgB_010100004470" id="clusterblast-1_h23_5_10" points="93,85 98,80 100,80 100,90 98,90 93,85 " class="clusterblast-orf"  />
<polygon style="stroke:black; stroke-width:1; fill:#FFFFFF; " description="hydroxymethylglutaryl-CoA_lyase[br]Location: 39112 - 40038" locus_tag="PelgB_010100004475" id="clusterblast-1_h23_5_11" points="100,85 105,80 108,80 108,90 105,90 100,85 " class="clusterblast-orf"  />
<polygon style="stroke:black; stroke-width:1; fill:#FFFFFF; " description="acetyl-CoA_carboxylase_biotin_carboxyl_carrier[br]Location: 40044 - 40256" locus_tag="PelgB_010100004480" id="clusterblast-1_h23_5_12" points="108,85 110,80 110,90 108,85 " class="clusterblast-orf"  />
<polygon style="stroke:black; stroke-width:1; fill:#FFFFFF; " description="acetyl-CoA_carboxylase_biotin_carboxylase[br]Location: 40274 - 41614" locus_tag="PelgB_010100004485" id="clusterblast-1_h23_5_13" points="110,85 115,80 122,80 122,90 115,90 110,85 " class="clusterblast-orf"  />
<polygon style="stroke:black; stroke-width:1; fill:#FFFFFF; " description="acyl-CoA_dehydrogenase[br]Location: 41629 - 42768" locus_tag="PelgB_010100004490" id="clusterblast-1_h23_5_14" points="122,85 127,80 132,80 132,90 127,90 122,85 " class="clusterblast-orf"  />
<polygon style="stroke:black; stroke-width:1; fill:#FFFFFF; " description="lipoamide_acyltransferase_component_of[br]Location: 42804 - 44096" locus_tag="PelgB_010100004495" id="clusterblast-1_h23_5_15" points="133,85 138,80 144,80 144,90 138,90 133,85 " class="clusterblast-orf"  />
<polygon style="stroke:black; stroke-width:1; fill:#FFFFFF; " description="2-oxoisovalerate_dehydrogenase_beta_subunit[br]Location: 44115 - 45098" locus_tag="PelgB_010100004500" id="clusterblast-1_h23_5_16" points="144,85 149,80 153,80 153,90 149,90 144,85 " class="clusterblast-orf"  />
<polygon style="stroke:black; stroke-width:1; fill:#FFFFFF; " description="3-methyl-2-oxobutanoate_dehydrogenase[br]Location: 45111 - 46124" locus_tag="PelgB_010100004505" id="clusterblast-1_h23_5_17" points="153,85 158,80 162,80 162,90 158,90 153,85 " class="clusterblast-orf"  />
<polygon style="stroke:black; stroke-width:1; fill:#FFFFFF; " description="YjiB[br]Location: 46534 - 47733" locus_tag="PelgB_010100004510" id="clusterblast-1_h23_5_18" points="166,85 171,80 177,80 177,90 171,90 166,85 " class="clusterblast-orf"  />
<polygon style="stroke:black; stroke-width:1; fill:#FFFFFF; " description="hypothetical_protein[br]Location: 47780 - 48295" locus_tag="PelgB_010100004515" id="clusterblast-1_h23_5_19" points="177,85 182,80 182,80 182,90 182,90 177,85 " class="clusterblast-orf"  />
<polygon style="stroke:black; stroke-width:1; fill:rgb(63,190,63); " description="DfnH[br]Location: 48321 - 55526&lt;br&gt;&lt;br&gt;&lt;b&gt;BlastP hit with CHAFR746836_0090450.1&lt;/b&gt;&lt;br&gt;Percentage identity: 31%&lt;br&gt;Percentage coverage: 24%&lt;br&gt;BLAST bit score: 260&lt;br&gt;E-value: 3e-68" locus_tag="PelgB_010100004520" id="clusterblast-1_h23_5_20" points="182,85 187,80 246,80 246,90 187,90 182,85 " class="clusterblast-orf"  />
<polygon style="stroke:black; stroke-width:1; fill:rgb(63,190,63); " description="polyketide_synthase_of_type_I[br]Location: 55547 - 66223&lt;br&gt;&lt;br&gt;&lt;b&gt;BlastP hit with CHAFR746836_0090450.1&lt;/b&gt;&lt;br&gt;Percentage identity: 32%&lt;br&gt;Percentage coverage: 24%&lt;br&gt;BLAST bit score: 262&lt;br&gt;E-value: 8e-69" locus_tag="PelgB_010100004525" id="clusterblast-1_h23_5_21" points="246,85 251,80 341,80 341,90 251,90 246,85 " class="clusterblast-orf"  />
<polygon style="stroke:black; stroke-width:1; fill:rgb(63,190,63); " description="polyketide_synthase[br]Location: 66237 - 83783&lt;br&gt;&lt;br&gt;&lt;b&gt;BlastP hit with CHAFR746836_0090450.1&lt;/b&gt;&lt;br&gt;Percentage identity: 32%&lt;br&gt;Percentage coverage: 26%&lt;br&gt;BLAST bit score: 278&lt;br&gt;E-value: 2e-73" locus_tag="PelgB_010100004530" id="clusterblast-1_h23_5_22" points="341,85 346,80 497,80 497,90 346,90 341,85 " class="clusterblast-orf"  />
<polygon style="stroke:black; stroke-width:1; fill:#FFFFFF; " description="polyketide_synthase[br]Location: 83824 - 89625" locus_tag="PelgB_010100004535" id="clusterblast-1_h23_5_23" points="497,85 502,80 549,80 549,90 502,90 497,85 " class="clusterblast-orf"  />
<polygon style="stroke:black; stroke-width:1; fill:#FFFFFF; " description="polyketide_synthase[br]Location: 89685 - 94859" locus_tag="PelgB_010100004540" id="clusterblast-1_h23_5_24" points="549,85 554,80 595,80 595,90 554,90 549,85 " class="clusterblast-orf"  />
<polygon style="stroke:black; stroke-width:1; fill:#FFFFFF; " description="hypothetical_protein[br]Location: 94899 - 96140" locus_tag="PelgB_010100004545" id="clusterblast-1_h23_5_25" points="596,85 601,80 607,80 607,90 601,90 596,85 " class="clusterblast-orf"  />
<polygon style="stroke:black; stroke-width:1; fill:#FFFFFF; " description="hypothetical_protein[br]Location: 96166 - 99432" locus_tag="PelgB_010100004550" id="clusterblast-1_h23_5_26" points="607,85 612,80 636,80 636,90 612,90 607,85 " class="clusterblast-orf"  />
<polygon style="stroke:black; stroke-width:1; fill:#FFFFFF; " description="transcription_antitermination_protein[br]Location: 99571 - 100146" locus_tag="PelgB_010100004555" id="clusterblast-1_h23_5_27" points="637,85 642,80 642,80 642,90 642,90 637,85 " class="clusterblast-orf"  />
<polygon style="stroke:black; stroke-width:1; fill:#FFFFFF; " description="glycoside_hydrolase_family_protein[br]Location: 100429 - 102207" locus_tag="PelgB_010100004560" id="clusterblast-1_h23_5_28" points="645,85 650,80 661,80 661,90 650,90 645,85 " class="clusterblast-orf"  />
<polygon style="stroke:black; stroke-width:1; fill:#FFFFFF; " description="hypothetical_protein[br]Location: 102299 - 103942" locus_tag="PelgB_010100004565" id="clusterblast-1_h23_5_29" points="662,85 667,80 676,80 676,90 667,90 662,85 " class="clusterblast-orf"  />
<polygon style="stroke:black; stroke-width:1; fill:#FFFFFF; " description="hypothetical_protein[br]Location: 104073 - 104888" locus_tag="PelgB_010100004570" id="clusterblast-1_h23_5_30" points="677,85 682,80 685,80 685,90 682,90 677,85 " class="clusterblast-orf"  />
<polygon style="stroke:black; stroke-width:1; fill:#FFFFFF; " description="binding-protein-dependent_transporter_inner[br]Location: 104888 - 105808" locus_tag="PelgB_010100004575" id="clusterblast-1_h23_5_31" points="685,85 690,80 693,80 693,90 690,90 685,85 " class="clusterblast-orf"  />
<polygon style="stroke:black; stroke-width:1; fill:#FFFFFF; " description="family_1_extracellular_solute-binding_protein[br]Location: 105826 - 107169" locus_tag="PelgB_010100004580" id="clusterblast-1_h23_5_32" points="693,85 698,80 705,80 705,90 698,90 693,85 " class="clusterblast-orf"  />
<polygon style="stroke:black; stroke-width:1; fill:#FFFFFF; " description="AraC_family_transcriptional_regulator[br]Location: 107337 - 108944" locus_tag="PelgB_010100004585" id="clusterblast-1_h23_5_33" points="706,85 711,80 721,80 721,90 711,90 706,85 " class="clusterblast-orf"  />
<polygon style="stroke:black; stroke-width:1; fill:#FFFFFF; " description="sensor_with_HAMP_domain[br]Location: 108956 - 110839" locus_tag="PelgB_010100004590" id="clusterblast-1_h23_5_34" points="721,85 726,80 737,80 737,90 726,90 721,85 " class="clusterblast-orf"  />
<polygon style="stroke:black; stroke-width:1; fill:#FFFFFF; " description="family_1_extracellular_solute-binding_protein[br]Location: 110859 - 112247" locus_tag="PelgB_010100004595" id="clusterblast-1_h23_5_35" points="738,85 743,80 750,80 750,90 743,90 738,85 " class="clusterblast-orf"  />
<polygon style="stroke:black; stroke-width:1; fill:#FFFFFF; " description="hypothetical_protein[br]Location: 113033 - 113923" locus_tag="PelgB_010100004600" id="clusterblast-1_h23_5_36" points="757,85 762,80 765,80 765,90 762,90 757,85 " class="clusterblast-orf"  />
<polygon style="stroke:black; stroke-width:1; fill:#FFFFFF; " description="EmrB/QacA_subfamily_drug_resistance_transporter[br]Location: 113956 - 115350" locus_tag="PelgB_010100004605" id="clusterblast-1_h23_5_37" points="765,85 770,80 778,80 778,90 770,90 765,85 " class="clusterblast-orf"  />
</g>
</svg>
