<svg xmlns="http://www.w3.org/2000/svg" height="230" width="800" version="1.1" y="0" x="0" preserveAspectRatio="none" xmlns:xlink="http://www.w3.org/1999/xlink" viewBox="0 0 800 230"  >
<g class="clusterblast-cluster" label="Query sequence"  >
<text class="clusterblast-acc" y="10" x="5"  >
Query sequence</text>
<line y1="35" x2="778.0" style="stroke:grey; stroke-width:1; " x1="10" y2="35"  />
<polygon style="stroke:black; stroke-width:1; fill:#FFFFFF; " description="unannotated orf[br]Location: 690 - 1709" locus_tag="CHAFR746836_0063040.1" class="clusterblast-orf" points="226,35 231,30 234,30 234,40 231,40 226,35 " id="clusterblast-1_q6_8_0"  />
<polygon style="stroke:black; stroke-width:1; fill:red; " description="unannotated orf[br]Location: 3270 - 4522" locus_tag="CHAFR746836_0063050.1" class="clusterblast-orf" points="247,35 252,30 258,30 258,40 252,40 247,35 " id="clusterblast-1_q6_8_1"  />
<polygon style="stroke:black; stroke-width:1; fill:green; " description="unannotated orf[br]Location: 3270 - 4522" locus_tag="CHAFR746836_0063050.2" class="clusterblast-orf" points="247,35 252,30 258,30 258,40 252,40 247,35 " id="clusterblast-1_q6_8_2"  />
<polygon style="stroke:black; stroke-width:1; fill:#FFFFFF; " description="unannotated orf[br]Location: 14176 - 16017" locus_tag="CHAFR746836_0063060.1" class="clusterblast-orf" points="340,40 351,40 356,35 351,30 340,30 340,40 " id="clusterblast-1_q6_8_3"  />
<polygon style="stroke:black; stroke-width:1; fill:#FFFFFF; " description="unannotated orf[br]Location: 20821 - 21679" locus_tag="CHAFR746836_0063070.1" class="clusterblast-orf" points="397,35 402,30 404,30 404,40 402,40 397,35 " id="clusterblast-1_q6_8_4"  />
<polygon style="stroke:black; stroke-width:1; fill:blue; " description="unannotated orf[br]Location: 23739 - 34194" locus_tag="CHAFR746836_0063080.1" class="clusterblast-orf" points="421,35 426,30 510,30 510,40 426,40 421,35 " id="clusterblast-1_q6_8_5"  />
<polygon style="stroke:black; stroke-width:1; fill:yellow; " description="unannotated orf[br]Location: 38501 - 40231" locus_tag="CHAFR746836_0063090.1" class="clusterblast-orf" points="547,40 556,40 561,35 556,30 547,30 547,40 " id="clusterblast-1_q6_8_6"  />
</g>
<g class="clusterblast-cluster" description="Catenulispora acidiphila DSM 44928, complete genome." label="NC_013131.1_c4"  >
<text class="clusterblast-acc" y="60" x="5"  >
NC_013131.1_c4</text>
<text class="clusterblast-desc" y="60" x="460.8"  >
Catenulispora acidiphila DSM 44928, complete genome.</text>
<line y1="85" x2="778.0" style="stroke:grey; stroke-width:1; " x1="10" y2="85"  />
<polygon style="stroke:black; stroke-width:1; fill:#FFFFFF; " description="transcriptional_regulator,_SARP_family[br]Location: 2914536 - 2917571" locus_tag="Caci_2572" id="clusterblast-1_h6_8_0" points="10,85 15,80 35,80 35,90 15,90 10,85 " class="clusterblast-orf"  />
<polygon style="stroke:black; stroke-width:1; fill:#FFFFFF; " description="hypothetical_protein[br]Location: 2917632 - 2919101" locus_tag="Caci_2573" id="clusterblast-1_h6_8_1" points="36,85 41,80 48,80 48,90 41,90 36,85 " class="clusterblast-orf"  />
<polygon style="stroke:black; stroke-width:1; fill:#FFFFFF; " description="Patatin[br]Location: 2919182 - 2920105" locus_tag="Caci_2574" id="clusterblast-1_h6_8_2" points="49,85 54,80 57,80 57,90 54,90 49,85 " class="clusterblast-orf"  />
<polygon style="stroke:black; stroke-width:1; fill:#FFFFFF; " description="transcriptional_regulator,_TetR_family[br]Location: 2920230 - 2920781" locus_tag="Caci_2575" id="clusterblast-1_h6_8_3" points="58,90 58,90 63,85 58,80 58,80 58,90 " class="clusterblast-orf"  />
<polygon style="stroke:black; stroke-width:1; fill:#FFFFFF; " description="hypothetical_protein[br]Location: 2920913 - 2921848" locus_tag="Caci_2576" id="clusterblast-1_h6_8_4" points="64,90 67,90 72,85 67,80 64,80 64,90 " class="clusterblast-orf"  />
<polygon style="stroke:black; stroke-width:1; fill:#FFFFFF; " description="monooxygenase_FAD-binding[br]Location: 2921921 - 2923114" locus_tag="Caci_2577" id="clusterblast-1_h6_8_5" points="72,85 77,80 82,80 82,90 77,90 72,85 " class="clusterblast-orf"  />
<polygon style="stroke:black; stroke-width:1; fill:#FFFFFF; " description="Amidase[br]Location: 2923195 - 2924646" locus_tag="Caci_2578" id="clusterblast-1_h6_8_6" points="83,85 88,80 95,80 95,90 88,90 83,85 " class="clusterblast-orf"  />
<polygon style="stroke:black; stroke-width:1; fill:#FFFFFF; " description="AMP-dependent_synthetase_and_ligase[br]Location: 2924724 - 2926235" locus_tag="Caci_2579" id="clusterblast-1_h6_8_7" points="96,85 101,80 109,80 109,90 101,90 96,85 " class="clusterblast-orf"  />
<polygon style="stroke:black; stroke-width:1; fill:#FFFFFF; " description="drug_resistance_transporter,_EmrB/QacA[br]Location: 2926312 - 2927931" locus_tag="Caci_2580" id="clusterblast-1_h6_8_8" points="110,90 118,90 123,85 118,80 110,80 110,90 " class="clusterblast-orf"  />
<polygon style="stroke:black; stroke-width:1; fill:#FFFFFF; " description="FAD-dependent_pyridine_nucleotide-disulphide[br]Location: 2928137 - 2929219" locus_tag="Caci_2581" id="clusterblast-1_h6_8_9" points="125,90 129,90 134,85 129,80 125,80 125,90 " class="clusterblast-orf"  />
<polygon style="stroke:black; stroke-width:1; fill:#FFFFFF; " description="cytochrome_P450[br]Location: 2929245 - 2930459" locus_tag="Caci_2582" id="clusterblast-1_h6_8_10" points="134,90 140,90 145,85 140,80 134,80 134,90 " class="clusterblast-orf"  />
<polygon style="stroke:black; stroke-width:1; fill:#FFFFFF; " description="hypothetical_protein[br]Location: 2930557 - 2931483" locus_tag="Caci_2583" id="clusterblast-1_h6_8_11" points="146,90 148,90 153,85 148,80 146,80 146,90 " class="clusterblast-orf"  />
<polygon style="stroke:black; stroke-width:1; fill:#FFFFFF; " description="hypothetical_protein[br]Location: 2931601 - 2931999" locus_tag="Caci_2584" id="clusterblast-1_h6_8_12" points="154,85 158,80 158,90 154,85 " class="clusterblast-orf"  />
<polygon style="stroke:black; stroke-width:1; fill:#FFFFFF; " description="protein_of_unknown_function_DUF1697[br]Location: 2932182 - 2932721" locus_tag="Caci_2585" id="clusterblast-1_h6_8_13" points="159,85 164,80 164,80 164,90 164,90 159,85 " class="clusterblast-orf"  />
<polygon style="stroke:black; stroke-width:1; fill:#FFFFFF; " description="protein_of_unknown_function_DUF1271[br]Location: 2933104 - 2933346" locus_tag="Caci_2586" id="clusterblast-1_h6_8_14" points="167,90 169,85 167,80 167,90 " class="clusterblast-orf"  />
<polygon style="stroke:black; stroke-width:1; fill:#FFFFFF; " description="PfaD_family_protein[br]Location: 2933420 - 2936017" locus_tag="Caci_2587" id="clusterblast-1_h6_8_15" points="170,90 187,90 192,85 187,80 170,80 170,90 " class="clusterblast-orf"  />
<polygon style="stroke:black; stroke-width:1; fill:blue; " description="amino_acid_adenylation_domain_protein[br]Location: 2936127 - 2937995&lt;br&gt;&lt;br&gt;&lt;b&gt;BlastP hit with CHAFR746836_0063080.1&lt;/b&gt;&lt;br&gt;Percentage identity: 33%&lt;br&gt;Percentage coverage: 13%&lt;br&gt;BLAST bit score: 191&lt;br&gt;E-value: 1e-48" locus_tag="Caci_2588" id="clusterblast-1_h6_8_16" points="193,90 204,90 209,85 204,80 193,80 193,90 " class="clusterblast-orf"  />
<polygon style="stroke:black; stroke-width:1; fill:#FFFFFF; " description="chlorinating_enzyme[br]Location: 2938007 - 2939005" locus_tag="Caci_2589" id="clusterblast-1_h6_8_17" points="209,90 212,90 217,85 212,80 209,80 209,90 " class="clusterblast-orf"  />
<polygon style="stroke:black; stroke-width:1; fill:#FFFFFF; " description="alpha/beta_hydrolase_fold_protein[br]Location: 2939067 - 2940260" locus_tag="Caci_2590" id="clusterblast-1_h6_8_18" points="218,90 223,90 228,85 223,80 218,80 218,90 " class="clusterblast-orf"  />
<polygon style="stroke:black; stroke-width:1; fill:#FFFFFF; " description="transcriptional_regulator,_Crp/Fnr_family[br]Location: 2940334 - 2940999" locus_tag="Caci_2591" id="clusterblast-1_h6_8_19" points="229,90 229,90 234,85 229,80 229,80 229,90 " class="clusterblast-orf"  />
<polygon style="stroke:black; stroke-width:1; fill:#FFFFFF; " description="amino_acid_adenylation_domain_protein[br]Location: 2941059 - 2948423" locus_tag="Caci_2592" id="clusterblast-1_h6_8_20" points="235,90 292,90 297,85 292,80 235,80 235,90 " class="clusterblast-orf"  />
<polygon style="stroke:black; stroke-width:1; fill:#FFFFFF; " description="Thioesterase[br]Location: 2948470 - 2949264" locus_tag="Caci_2593" id="clusterblast-1_h6_8_21" points="298,90 299,90 304,85 299,80 298,80 298,90 " class="clusterblast-orf"  />
<polygon style="stroke:black; stroke-width:1; fill:#FFFFFF; " description="hypothetical_protein[br]Location: 2949302 - 2950279" locus_tag="Caci_2594" id="clusterblast-1_h6_8_22" points="305,90 308,90 313,85 308,80 305,80 305,90 " class="clusterblast-orf"  />
<polygon style="stroke:black; stroke-width:1; fill:#FFFFFF; " description="Hydroxymethylglutaryl-CoA_synthase[br]Location: 2950317 - 2951558" locus_tag="Caci_2595" id="clusterblast-1_h6_8_23" points="313,90 319,90 324,85 319,80 313,80 313,90 " class="clusterblast-orf"  />
<polygon style="stroke:black; stroke-width:1; fill:#FFFFFF; " description="Enoyl-CoA_hydratase/isomerase[br]Location: 2951549 - 2952355" locus_tag="Caci_2596" id="clusterblast-1_h6_8_24" points="324,90 326,90 331,85 326,80 324,80 324,90 " class="clusterblast-orf"  />
<polygon style="stroke:black; stroke-width:1; fill:#FFFFFF; " description="malonyl_CoA-acyl_carrier_protein_transacylase[br]Location: 2952424 - 2959278" locus_tag="Caci_2597" id="clusterblast-1_h6_8_25" points="331,90 385,90 390,85 385,80 331,80 331,90 " class="clusterblast-orf"  />
<polygon style="stroke:black; stroke-width:1; fill:#FFFFFF; " description="KR_domain_protein[br]Location: 2959295 - 2980744" locus_tag="Caci_2598" id="clusterblast-1_h6_8_26" points="390,90 567,90 572,85 567,80 390,80 390,90 " class="clusterblast-orf"  />
<polygon style="stroke:black; stroke-width:1; fill:#FFFFFF; " description="hypothetical_protein[br]Location: 2980741 - 2981715" locus_tag="Caci_2599" id="clusterblast-1_h6_8_27" points="572,90 575,90 580,85 575,80 572,80 572,90 " class="clusterblast-orf"  />
<polygon style="stroke:black; stroke-width:1; fill:#FFFFFF; " description="phosphopantetheine-binding[br]Location: 2981712 - 2981981" locus_tag="Caci_2600" id="clusterblast-1_h6_8_28" points="580,90 582,85 580,80 580,90 " class="clusterblast-orf"  />
<polygon style="stroke:black; stroke-width:1; fill:#FFFFFF; " description="Hydroxymethylglutaryl-coenzyme_A_synthase_domain[br]Location: 2981978 - 2983252" locus_tag="Caci_2601" id="clusterblast-1_h6_8_29" points="582,90 588,90 593,85 588,80 582,80 582,90 " class="clusterblast-orf"  />
<polygon style="stroke:black; stroke-width:1; fill:#FFFFFF; " description="hypothetical_protein[br]Location: 2983237 - 2983488" locus_tag="Caci_2602" id="clusterblast-1_h6_8_30" points="593,90 595,85 593,80 593,90 " class="clusterblast-orf"  />
<polygon style="stroke:black; stroke-width:1; fill:#FFFFFF; " description="Beta-ketoacyl_synthase[br]Location: 2983485 - 2984771" locus_tag="Caci_2603" id="clusterblast-1_h6_8_31" points="595,90 601,90 606,85 601,80 595,80 595,90 " class="clusterblast-orf"  />
<polygon style="stroke:black; stroke-width:1; fill:#FFFFFF; " description="LmbE_family_protein[br]Location: 2984768 - 2985493" locus_tag="Caci_2604" id="clusterblast-1_h6_8_32" points="606,85 611,80 612,80 612,90 611,90 606,85 " class="clusterblast-orf"  />
<polygon style="stroke:black; stroke-width:1; fill:#FFFFFF; " description="aminotransferase_class_IV[br]Location: 2986285 - 2987088" locus_tag="Caci_2606" id="clusterblast-1_h6_8_33" points="619,90 621,90 626,85 621,80 619,80 619,90 " class="clusterblast-orf"  />
<polygon style="stroke:black; stroke-width:1; fill:#FFFFFF; " description="hypothetical_protein[br]Location: 2987129 - 2989396" locus_tag="Caci_2607" id="clusterblast-1_h6_8_34" points="626,85 631,80 645,80 645,90 631,90 626,85 " class="clusterblast-orf"  />
<polygon style="stroke:black; stroke-width:1; fill:#FFFFFF; " description="glycoside_hydrolase_family_31[br]Location: 2989393 - 2991480" locus_tag="Caci_2608" id="clusterblast-1_h6_8_35" points="645,85 650,80 663,80 663,90 650,90 645,85 " class="clusterblast-orf"  />
<polygon style="stroke:black; stroke-width:1; fill:#FFFFFF; " description="binding-protein-dependent_transport_systems[br]Location: 2991532 - 2992350" locus_tag="Caci_2609" id="clusterblast-1_h6_8_36" points="664,85 669,80 670,80 670,90 669,90 664,85 " class="clusterblast-orf"  />
<polygon style="stroke:black; stroke-width:1; fill:#FFFFFF; " description="binding-protein-dependent_transport_systems[br]Location: 2992347 - 2993351" locus_tag="Caci_2610" id="clusterblast-1_h6_8_37" points="670,85 675,80 679,80 679,90 675,90 670,85 " class="clusterblast-orf"  />
<polygon style="stroke:black; stroke-width:1; fill:#FFFFFF; " description="extracellular_solute-binding_protein_family_1[br]Location: 2993354 - 2994715" locus_tag="Caci_2611" id="clusterblast-1_h6_8_38" points="679,85 684,80 691,80 691,90 684,90 679,85 " class="clusterblast-orf"  />
<polygon style="stroke:black; stroke-width:1; fill:#FFFFFF; " description="transcriptional_regulator,_LacI_family[br]Location: 2994832 - 2995860" locus_tag="Caci_2612" id="clusterblast-1_h6_8_39" points="692,85 697,80 700,80 700,90 697,90 692,85 " class="clusterblast-orf"  />
<polygon style="stroke:black; stroke-width:1; fill:red; " description="short-chain_dehydrogenase/reductase_SDR[br]Location: 2996512 - 2997408&lt;br&gt;&lt;br&gt;&lt;b&gt;BlastP hit with CHAFR746836_0063050.1&lt;/b&gt;&lt;br&gt;Percentage identity: 37%&lt;br&gt;Percentage coverage: 68%&lt;br&gt;BLAST bit score: 92&lt;br&gt;E-value: 2e-20&lt;br&gt;&lt;br&gt;&lt;b&gt;BlastP hit with CHAFR746836_0063050.2&lt;/b&gt;&lt;br&gt;Percentage identity: 37%&lt;br&gt;Percentage coverage: 76%&lt;br&gt;BLAST bit score: 92&lt;br&gt;E-value: 1e-20" locus_tag="Caci_2613" id="clusterblast-1_h6_8_40" points="706,85 711,80 713,80 713,90 711,90 706,85 " class="clusterblast-orf"  />
<polygon style="stroke:black; stroke-width:1; fill:#FFFFFF; " description="2-hydroxyglutarate_dehydrogenase[br]Location: 2997601 - 2998791" locus_tag="Caci_2614" id="clusterblast-1_h6_8_41" points="715,90 720,90 725,85 720,80 715,80 715,90 " class="clusterblast-orf"  />
<polygon style="stroke:black; stroke-width:1; fill:#FFFFFF; " description="hypothetical_protein[br]Location: 2999234 - 2999467" locus_tag="Caci_2615" id="clusterblast-1_h6_8_42" points="729,90 731,85 729,80 729,90 " class="clusterblast-orf"  />
<polygon style="stroke:black; stroke-width:1; fill:#FFFFFF; " description="hydrophobic_protein[br]Location: 2999648 - 2999824" locus_tag="Caci_2616" id="clusterblast-1_h6_8_43" points="732,90 734,85 732,80 732,90 " class="clusterblast-orf"  />
<polygon style="stroke:black; stroke-width:1; fill:#FFFFFF; " description="CsbD_family_protein[br]Location: 2999875 - 3000171" locus_tag="Caci_2617" id="clusterblast-1_h6_8_44" points="734,90 737,85 734,80 734,90 " class="clusterblast-orf"  />
<polygon style="stroke:black; stroke-width:1; fill:#FFFFFF; " description="sugar_isomerase_(SIS)[br]Location: 3000647 - 3001759" locus_tag="Caci_2618" id="clusterblast-1_h6_8_45" points="741,85 746,80 750,80 750,90 746,90 741,85 " class="clusterblast-orf"  />
<polygon style="stroke:black; stroke-width:1; fill:#FFFFFF; " description="transcriptional_regulator,_GntR_family[br]Location: 3001849 - 3002607" locus_tag="Caci_2619" id="clusterblast-1_h6_8_46" points="751,90 753,90 758,85 753,80 751,80 751,90 " class="clusterblast-orf"  />
<polygon style="stroke:black; stroke-width:1; fill:#FFFFFF; " description="ROK_family_protein[br]Location: 3002645 - 3003784" locus_tag="Caci_2620" id="clusterblast-1_h6_8_47" points="758,85 763,80 768,80 768,90 763,90 758,85 " class="clusterblast-orf"  />
<polygon style="stroke:black; stroke-width:1; fill:#FFFFFF; " description="ATPase_BadF/BadG/BcrA/BcrD_type[br]Location: 3003991 - 3004947" locus_tag="Caci_2621" id="clusterblast-1_h6_8_48" points="769,90 773,90 778,85 773,80 769,80 769,90 " class="clusterblast-orf"  />
</g>
</svg>
