<svg xmlns="http://www.w3.org/2000/svg" height="230" width="800" version="1.1" y="0" x="0" preserveAspectRatio="none" xmlns:xlink="http://www.w3.org/1999/xlink" viewBox="0 0 800 230"  >
<g class="clusterblast-cluster" label="Query sequence"  >
<text class="clusterblast-acc" y="10" x="5"  >
Query sequence</text>
<line y1="35" x2="778.0" style="stroke:grey; stroke-width:1; " x1="10" y2="35"  />
<polygon style="stroke:black; stroke-width:1; fill:#FFFFFF; " description="unannotated orf[br]Location: 25963 - 28663" locus_tag="CHAFR746836_0081060.1" class="clusterblast-orf" points="190,35 195,30 217,30 217,40 195,40 190,35 " id="clusterblast-1_q12_5_0"  />
<polygon style="stroke:black; stroke-width:1; fill:#FFFFFF; " description="unannotated orf[br]Location: 30819 - 31372" locus_tag="CHAFR746836_0081070.1" class="clusterblast-orf" points="239,35 244,30 245,30 245,40 244,40 239,35 " id="clusterblast-1_q12_5_1"  />
<polygon style="stroke:black; stroke-width:1; fill:#FFFFFF; " description="unannotated orf[br]Location: 32308 - 34099" locus_tag="CHAFR746836_0081080.1" class="clusterblast-orf" points="254,40 268,40 273,35 268,30 254,30 254,40 " id="clusterblast-1_q12_5_2"  />
<polygon style="stroke:black; stroke-width:1; fill:red; " description="unannotated orf[br]Location: 34732 - 35414" locus_tag="CHAFR746836_0081090.1" class="clusterblast-orf" points="279,35 284,30 286,30 286,40 284,40 279,35 " id="clusterblast-1_q12_5_3"  />
<polygon style="stroke:black; stroke-width:1; fill:#FFFFFF; " description="unannotated orf[br]Location: 35795 - 37570" locus_tag="CHAFR746836_0081100.1" class="clusterblast-orf" points="290,40 303,40 308,35 303,30 290,30 290,40 " id="clusterblast-1_q12_5_4"  />
<polygon style="stroke:black; stroke-width:1; fill:green; " description="unannotated orf[br]Location: 39190 - 39826" locus_tag="CHAFR746836_0081110.1" class="clusterblast-orf" points="324,35 329,30 331,30 331,40 329,40 324,35 " id="clusterblast-1_q12_5_5"  />
<polygon style="stroke:black; stroke-width:1; fill:#FFFFFF; " description="unannotated orf[br]Location: 40045 - 40878" locus_tag="CHAFR746836_0081120.1" class="clusterblast-orf" points="333,40 337,40 342,35 337,30 333,30 333,40 " id="clusterblast-1_q12_5_6"  />
<polygon style="stroke:black; stroke-width:1; fill:#FFFFFF; " description="unannotated orf[br]Location: 43039 - 45807" locus_tag="CHAFR746836_0081130.1" class="clusterblast-orf" points="364,35 369,30 392,30 392,40 369,40 364,35 " id="clusterblast-1_q12_5_7"  />
<polygon style="stroke:black; stroke-width:1; fill:#FFFFFF; " description="unannotated orf[br]Location: 63962 - 65930" locus_tag="CHAFR746836_0081140.1" class="clusterblast-orf" points="577,40 592,40 597,35 592,30 577,30 577,40 " id="clusterblast-1_q12_5_8"  />
<polygon style="stroke:black; stroke-width:1; fill:#FFFFFF; " description="unannotated orf[br]Location: 63962 - 65930" locus_tag="CHAFR746836_0081140.2" class="clusterblast-orf" points="577,40 592,40 597,35 592,30 577,30 577,40 " id="clusterblast-1_q12_5_9"  />
</g>
<g class="clusterblast-cluster" description="Staphylococcus lugdunensis VCU139 contig00052, whole gen..." label="AHLK01000029.1_c1"  >
<text class="clusterblast-acc" y="60" x="5"  >
AHLK01000029.1_c1</text>
<text class="clusterblast-desc" y="60" x="460.8"  >
Staphylococcus lugdunensis VCU139 contig00052, whole gen...</text>
<line y1="85" x2="778.0" style="stroke:grey; stroke-width:1; " x1="10" y2="85"  />
<polygon style="stroke:black; stroke-width:1; fill:#FFFFFF; " description="ParA/MinD_ATPase-like_protein[br]Location: 362 - 1426" locus_tag="SEVCU139_1303" id="clusterblast-1_h12_5_0" points="10,85 15,80 20,80 20,90 15,90 10,85 " class="clusterblast-orf"  />
<polygon style="stroke:black; stroke-width:1; fill:#FFFFFF; " description="drug_resistance_MFS_transporter,_drug:H+[br]Location: 1560 - 2996" locus_tag="SEVCU139_1304" id="clusterblast-1_h12_5_1" points="22,85 27,80 36,80 36,90 27,90 22,85 " class="clusterblast-orf"  />
<polygon style="stroke:black; stroke-width:1; fill:#FFFFFF; " description="multidrug_resistance_efflux_pump_SepA[br]Location: 3074 - 3541" locus_tag="SEVCU139_1305" id="clusterblast-1_h12_5_2" points="37,85 42,80 42,80 42,90 42,90 37,85 " class="clusterblast-orf"  />
<polygon style="stroke:black; stroke-width:1; fill:#FFFFFF; " description="transporter,_major_facilitator_family_protein[br]Location: 3647 - 4978" locus_tag="SEVCU139_1306" id="clusterblast-1_h12_5_3" points="43,85 48,80 57,80 57,90 48,90 43,85 " class="clusterblast-orf"  />
<polygon style="stroke:black; stroke-width:1; fill:#FFFFFF; " description="channel_protein,_hemolysin_III_family[br]Location: 5137 - 5823" locus_tag="SEVCU139_1307" id="clusterblast-1_h12_5_4" points="58,85 63,80 65,80 65,90 63,90 58,85 " class="clusterblast-orf"  />
<polygon style="stroke:black; stroke-width:1; fill:#FFFFFF; " description="UTP--glucose-1-phosphate_uridylyltransferase[br]Location: 5839 - 7026" locus_tag="SEVCU139_1308" id="clusterblast-1_h12_5_5" points="65,85 70,80 77,80 77,90 70,90 65,85 " class="clusterblast-orf"  />
<polygon style="stroke:black; stroke-width:1; fill:#FFFFFF; " description="putative_membrane-bound_metal-dependent[br]Location: 7288 - 7803" locus_tag="SEVCU139_1309" id="clusterblast-1_h12_5_6" points="80,85 85,80 85,80 85,90 85,90 80,85 " class="clusterblast-orf"  />
<polygon style="stroke:black; stroke-width:1; fill:#FFFFFF; " description="hypothetical_protein[br]Location: 7981 - 8241" locus_tag="SEVCU139_1310" id="clusterblast-1_h12_5_7" points="87,90 90,85 87,80 87,90 " class="clusterblast-orf"  />
<polygon style="stroke:black; stroke-width:1; fill:#FFFFFF; " description="transporter_gate_domain_protein[br]Location: 8480 - 9850" locus_tag="SEVCU139_1311" id="clusterblast-1_h12_5_8" points="92,85 97,80 106,80 106,90 97,90 92,85 " class="clusterblast-orf"  />
<polygon style="stroke:black; stroke-width:1; fill:#FFFFFF; " description="iron(III)_dicitrate_transport_system_permease[br]Location: 10115 - 11080" locus_tag="SEVCU139_1312" id="clusterblast-1_h12_5_9" points="109,85 114,80 119,80 119,90 114,90 109,85 " class="clusterblast-orf"  />
<polygon style="stroke:black; stroke-width:1; fill:#FFFFFF; " description="iron_chelate_uptake_ABC_transporter,_FeCT[br]Location: 11073 - 12101" locus_tag="SEVCU139_1313" id="clusterblast-1_h12_5_10" points="119,85 124,80 129,80 129,90 124,90 119,85 " class="clusterblast-orf"  />
<polygon style="stroke:black; stroke-width:1; fill:#FFFFFF; " description="periplasmic-binding_protein[br]Location: 12119 - 13114" locus_tag="SEVCU139_1314" id="clusterblast-1_h12_5_11" points="129,85 134,80 140,80 140,90 134,90 129,85 " class="clusterblast-orf"  />
<polygon style="stroke:black; stroke-width:1; fill:#FFFFFF; " description="alanine_racemase,_N-terminal_domain_protein[br]Location: 13605 - 14693" locus_tag="SEVCU139_1315" id="clusterblast-1_h12_5_12" points="145,85 150,80 156,80 156,90 150,90 145,85 " class="clusterblast-orf"  />
<polygon style="stroke:black; stroke-width:1; fill:#FFFFFF; " description="siderophore_biosynthesis_protein,_IucA/IucC[br]Location: 14697 - 16457" locus_tag="SEVCU139_1316" id="clusterblast-1_h12_5_13" points="156,85 161,80 174,80 174,90 161,90 156,85 " class="clusterblast-orf"  />
<polygon style="stroke:black; stroke-width:1; fill:#FFFFFF; " description="alkaline_shock_protein_23[br]Location: 16683 - 17192" locus_tag="SEVCU139_1317" id="clusterblast-1_h12_5_14" points="176,85 181,80 181,80 181,90 181,90 176,85 " class="clusterblast-orf"  />
<polygon style="stroke:black; stroke-width:1; fill:#FFFFFF; " description="membrane_protein,_PF10031_family[br]Location: 17258 - 17497" locus_tag="SEVCU139_1318" id="clusterblast-1_h12_5_15" points="182,85 184,80 184,90 182,85 " class="clusterblast-orf"  />
<polygon style="stroke:black; stroke-width:1; fill:#FFFFFF; " description="hypothetical_protein[br]Location: 17510 - 18046" locus_tag="SEVCU139_1319" id="clusterblast-1_h12_5_16" points="184,85 189,80 190,80 190,90 189,90 184,85 " class="clusterblast-orf"  />
<polygon style="stroke:black; stroke-width:1; fill:#FFFFFF; " description="zinc-binding_alcohol_dehydrogenase_family[br]Location: 18597 - 19604" locus_tag="SEVCU139_1320" id="clusterblast-1_h12_5_17" points="196,85 201,80 206,80 206,90 201,90 196,85 " class="clusterblast-orf"  />
<polygon style="stroke:black; stroke-width:1; fill:#FFFFFF; " description="oxidoreductase,_zinc-binding_dehydrogenase[br]Location: 19631 - 20632" locus_tag="SEVCU139_1321" id="clusterblast-1_h12_5_18" points="206,85 211,80 216,80 216,90 211,90 206,85 " class="clusterblast-orf"  />
<polygon style="stroke:black; stroke-width:1; fill:#FFFFFF; " description="alpha/beta_hydrolase,_PF06028_family[br]Location: 20727 - 21584" locus_tag="SEVCU139_1322" id="clusterblast-1_h12_5_19" points="217,85 222,80 226,80 226,90 222,90 217,85 " class="clusterblast-orf"  />
<polygon style="stroke:black; stroke-width:1; fill:#FFFFFF; " description="6-phospho-beta-galactosidase[br]Location: 21809 - 23218" locus_tag="SEVCU139_1323" id="clusterblast-1_h12_5_20" points="228,85 233,80 243,80 243,90 233,90 228,85 " class="clusterblast-orf"  />
<polygon style="stroke:black; stroke-width:1; fill:#FFFFFF; " description="PTS_system,_lactose-specific_IIC_component[br]Location: 23237 - 24976" locus_tag="SEVCU139_1324" id="clusterblast-1_h12_5_21" points="243,85 248,80 261,80 261,90 248,90 243,85 " class="clusterblast-orf"  />
<polygon style="stroke:black; stroke-width:1; fill:#FFFFFF; " description="lactose-specific_phosphotransferase_enzyme_IIA[br]Location: 24985 - 25296" locus_tag="SEVCU139_1325" id="clusterblast-1_h12_5_22" points="261,85 264,80 264,90 261,85 " class="clusterblast-orf"  />
<polygon style="stroke:black; stroke-width:1; fill:#FFFFFF; " description="tagatose-bisphosphate_aldolase[br]Location: 25316 - 26290" locus_tag="SEVCU139_1326" id="clusterblast-1_h12_5_23" points="264,85 269,80 274,80 274,90 269,90 264,85 " class="clusterblast-orf"  />
<polygon style="stroke:black; stroke-width:1; fill:#FFFFFF; " description="tagatose-6-phosphate_kinase[br]Location: 26294 - 27229" locus_tag="SEVCU139_1327" id="clusterblast-1_h12_5_24" points="274,85 279,80 284,80 284,90 279,90 274,85 " class="clusterblast-orf"  />
<polygon style="stroke:black; stroke-width:1; fill:#FFFFFF; " description="galactose-6-phosphate_isomerase,_LacB_subunit[br]Location: 27242 - 27757" locus_tag="SEVCU139_1328" id="clusterblast-1_h12_5_25" points="284,85 289,80 289,80 289,90 289,90 284,85 " class="clusterblast-orf"  />
<polygon style="stroke:black; stroke-width:1; fill:#FFFFFF; " description="galactose-6-phosphate_isomerase,_LacA_subunit[br]Location: 27773 - 28201" locus_tag="SEVCU139_1329" id="clusterblast-1_h12_5_26" points="289,85 294,80 294,80 294,90 294,90 289,85 " class="clusterblast-orf"  />
<polygon style="stroke:black; stroke-width:1; fill:#FFFFFF; " description="transcriptional_regulator,_DeoR_family[br]Location: 28432 - 29187" locus_tag="SEVCU139_1330" id="clusterblast-1_h12_5_27" points="296,85 301,80 304,80 304,90 301,90 296,85 " class="clusterblast-orf"  />
<polygon style="stroke:black; stroke-width:1; fill:#FFFFFF; " description="transcriptional_regulator,_Sir2_family[br]Location: 29389 - 30123" locus_tag="SEVCU139_1331" id="clusterblast-1_h12_5_28" points="306,90 308,90 313,85 308,80 306,80 306,90 " class="clusterblast-orf"  />
<polygon style="stroke:black; stroke-width:1; fill:#FFFFFF; " description="antibiotic_biosynthesis_monooxygenase[br]Location: 30420 - 31079" locus_tag="SEVCU139_1332" id="clusterblast-1_h12_5_29" points="316,85 321,80 323,80 323,90 321,90 316,85 " class="clusterblast-orf"  />
<polygon style="stroke:black; stroke-width:1; fill:#FFFFFF; " description="4'-phosphopantetheinyl_transferase_family[br]Location: 32332 - 32985" locus_tag="SEVCU139_1333" id="clusterblast-1_h12_5_30" points="336,85 341,80 342,80 342,90 341,90 336,85 " class="clusterblast-orf"  />
<polygon style="stroke:black; stroke-width:1; fill:#FFFFFF; " description="phosphopantetheine_attachment_domain_protein[br]Location: 32993 - 34732" locus_tag="SEVCU139_1334" id="clusterblast-1_h12_5_31" points="342,85 347,80 360,80 360,90 347,90 342,85 " class="clusterblast-orf"  />
<polygon style="stroke:black; stroke-width:1; fill:#FFFFFF; " description="thioesterase_domain_protein[br]Location: 34770 - 35456" locus_tag="SEVCU139_1335" id="clusterblast-1_h12_5_32" points="361,85 366,80 368,80 368,90 366,90 361,85 " class="clusterblast-orf"  />
<polygon style="stroke:black; stroke-width:1; fill:#FFFFFF; " description="NAD-binding_protein[br]Location: 35453 - 39586" locus_tag="SEVCU139_1336" id="clusterblast-1_h12_5_33" points="367,85 372,80 410,80 410,90 372,90 367,85 " class="clusterblast-orf"  />
<polygon style="stroke:black; stroke-width:1; fill:#FFFFFF; " description="AMP-binding_enzyme[br]Location: 39549 - 43325" locus_tag="SEVCU139_1337" id="clusterblast-1_h12_5_34" points="409,85 414,80 448,80 448,90 414,90 409,85 " class="clusterblast-orf"  />
<polygon style="stroke:black; stroke-width:1; fill:#FFFFFF; " description="condensation_domain_protein[br]Location: 43549 - 44268" locus_tag="SEVCU139_1338" id="clusterblast-1_h12_5_35" points="450,85 455,80 457,80 457,90 455,90 450,85 " class="clusterblast-orf"  />
<polygon style="stroke:black; stroke-width:1; fill:#FFFFFF; " description="condensation_domain_protein[br]Location: 44286 - 46865" locus_tag="SEVCU139_1339" id="clusterblast-1_h12_5_36" points="458,85 463,80 484,80 484,90 463,90 458,85 " class="clusterblast-orf"  />
<polygon style="stroke:black; stroke-width:1; fill:#FFFFFF; " description="condensation_domain_protein[br]Location: 46952 - 48505" locus_tag="SEVCU139_1340" id="clusterblast-1_h12_5_37" points="485,85 490,80 501,80 501,90 490,90 485,85 " class="clusterblast-orf"  />
<polygon style="stroke:black; stroke-width:1; fill:#FFFFFF; " description="AMP-binding_enzyme[br]Location: 48495 - 55619" locus_tag="SEVCU139_1341" id="clusterblast-1_h12_5_38" points="501,85 506,80 573,80 573,90 506,90 501,85 " class="clusterblast-orf"  />
<polygon style="stroke:black; stroke-width:1; fill:#FFFFFF; " description="hypothetical_protein[br]Location: 55645 - 55791" locus_tag="SEVCU139_1342" id="clusterblast-1_h12_5_39" points="573,85 575,80 575,90 573,85 " class="clusterblast-orf"  />
<polygon style="stroke:black; stroke-width:1; fill:#FFFFFF; " description="transcriptional_regulator,_TetR_family[br]Location: 55839 - 56216" locus_tag="SEVCU139_1343" id="clusterblast-1_h12_5_40" points="575,85 579,80 579,90 575,85 " class="clusterblast-orf"  />
<polygon style="stroke:black; stroke-width:1; fill:#FFFFFF; " description="putative_membrane_protein[br]Location: 56462 - 58003" locus_tag="SEVCU139_1344" id="clusterblast-1_h12_5_41" points="582,85 587,80 598,80 598,90 587,90 582,85 " class="clusterblast-orf"  />
<polygon style="stroke:black; stroke-width:1; fill:#FFFFFF; " description="ABC_transporter,_ATP-binding_protein[br]Location: 57996 - 58709" locus_tag="SEVCU139_1345" id="clusterblast-1_h12_5_42" points="597,85 602,80 605,80 605,90 602,90 597,85 " class="clusterblast-orf"  />
<polygon style="stroke:black; stroke-width:1; fill:#FFFFFF; " description="putative_membrane_protein[br]Location: 58722 - 59486" locus_tag="SEVCU139_1346" id="clusterblast-1_h12_5_43" points="605,85 610,80 613,80 613,90 610,90 605,85 " class="clusterblast-orf"  />
<polygon style="stroke:black; stroke-width:1; fill:#FFFFFF; " description="ABC_transporter,_ATP-binding_protein[br]Location: 59483 - 60373" locus_tag="SEVCU139_1347" id="clusterblast-1_h12_5_44" points="613,85 618,80 622,80 622,90 618,90 613,85 " class="clusterblast-orf"  />
<polygon style="stroke:black; stroke-width:1; fill:#FFFFFF; " description="hypothetical_protein[br]Location: 60360 - 60599" locus_tag="SEVCU139_1348" id="clusterblast-1_h12_5_45" points="622,85 624,80 624,90 622,85 " class="clusterblast-orf"  />
<polygon style="stroke:black; stroke-width:1; fill:#FFFFFF; " description="hypothetical_protein[br]Location: 60690 - 61199" locus_tag="SEVCU139_1349" id="clusterblast-1_h12_5_46" points="625,90 625,90 630,85 625,80 625,80 625,90 " class="clusterblast-orf"  />
<polygon style="stroke:black; stroke-width:1; fill:green; " description="ribosomal_protein_S9[br]Location: 61580 - 61972&lt;br&gt;&lt;br&gt;&lt;b&gt;BlastP hit with CHAFR746836_0081110.1&lt;/b&gt;&lt;br&gt;Percentage identity: 31%&lt;br&gt;Percentage coverage: 100%&lt;br&gt;BLAST bit score: 48&lt;br&gt;E-value: 4e-07" locus_tag="SEVCU139_1350" id="clusterblast-1_h12_5_47" points="634,85 638,80 638,90 634,85 " class="clusterblast-orf"  />
<polygon style="stroke:black; stroke-width:1; fill:#FFFFFF; " description="ribosomal_protein_L13[br]Location: 61992 - 62429" locus_tag="SEVCU139_1351" id="clusterblast-1_h12_5_48" points="638,85 643,80 643,80 643,90 643,90 638,85 " class="clusterblast-orf"  />
<polygon style="stroke:black; stroke-width:1; fill:#FFFFFF; " description="tRNA_pseudouridine_synthase_A[br]Location: 62695 - 63498" locus_tag="SEVCU139_1353" id="clusterblast-1_h12_5_49" points="645,85 650,80 654,80 654,90 650,90 645,85 " class="clusterblast-orf"  />
<polygon style="stroke:black; stroke-width:1; fill:#FFFFFF; " description="cobalt_transport_protein[br]Location: 63503 - 64309" locus_tag="SEVCU139_1354" id="clusterblast-1_h12_5_50" points="654,85 659,80 662,80 662,90 659,90 654,85 " class="clusterblast-orf"  />
<polygon style="stroke:black; stroke-width:1; fill:#FFFFFF; " description="cobalt_ATP-binding_cassette_C-terminal_domain[br]Location: 64306 - 65163" locus_tag="SEVCU139_1355" id="clusterblast-1_h12_5_51" points="662,85 667,80 671,80 671,90 667,90 662,85 " class="clusterblast-orf"  />
<polygon style="stroke:black; stroke-width:1; fill:#FFFFFF; " description="cobalt_ATP-binding_cassette_C-terminal_domain[br]Location: 65160 - 65969" locus_tag="SEVCU139_1356" id="clusterblast-1_h12_5_52" points="671,85 676,80 679,80 679,90 676,90 671,85 " class="clusterblast-orf"  />
<polygon style="stroke:black; stroke-width:1; fill:#FFFFFF; " description="ribosomal_protein_L17[br]Location: 66327 - 66695" locus_tag="SEVCU139_1357" id="clusterblast-1_h12_5_53" points="682,85 686,80 686,90 682,85 " class="clusterblast-orf"  />
<polygon style="stroke:black; stroke-width:1; fill:#FFFFFF; " description="DNA-directed_RNA_polymerase,_alpha_subunit[br]Location: 66712 - 67656" locus_tag="SEVCU139_1358" id="clusterblast-1_h12_5_54" points="686,85 691,80 696,80 696,90 691,90 686,85 " class="clusterblast-orf"  />
<polygon style="stroke:black; stroke-width:1; fill:red; " description="30S_ribosomal_protein_S11[br]Location: 67744 - 68133&lt;br&gt;&lt;br&gt;&lt;b&gt;BlastP hit with CHAFR746836_0081090.1&lt;/b&gt;&lt;br&gt;Percentage identity: 33%&lt;br&gt;Percentage coverage: 74%&lt;br&gt;BLAST bit score: 68&lt;br&gt;E-value: 8e-14" locus_tag="SEVCU139_1359" id="clusterblast-1_h12_5_55" points="697,85 701,80 701,90 697,85 " class="clusterblast-orf"  />
<polygon style="stroke:black; stroke-width:1; fill:#FFFFFF; " description="30S_ribosomal_protein_S13[br]Location: 68156 - 68521" locus_tag="SEVCU139_1360" id="clusterblast-1_h12_5_56" points="701,85 705,80 705,90 701,85 " class="clusterblast-orf"  />
<polygon style="stroke:black; stroke-width:1; fill:#FFFFFF; " description="ribosomal_protein_L36[br]Location: 68545 - 68658" locus_tag="SEVCU139_1361" id="clusterblast-1_h12_5_57" points="705,85 706,80 706,90 705,85 " class="clusterblast-orf"  />
<polygon style="stroke:black; stroke-width:1; fill:#FFFFFF; " description="translation_initiation_factor_IF-1[br]Location: 68690 - 68908" locus_tag="SEVCU139_1362" id="clusterblast-1_h12_5_58" points="707,85 709,80 709,90 707,85 " class="clusterblast-orf"  />
<polygon style="stroke:black; stroke-width:1; fill:#FFFFFF; " description="adenylate_kinase[br]Location: 69102 - 69752" locus_tag="SEVCU139_1363" id="clusterblast-1_h12_5_59" points="711,85 716,80 717,80 717,90 716,90 711,85 " class="clusterblast-orf"  />
<polygon style="stroke:black; stroke-width:1; fill:#FFFFFF; " description="preprotein_translocase,_SecY_subunit[br]Location: 69770 - 71062" locus_tag="SEVCU139_1364" id="clusterblast-1_h12_5_60" points="718,85 723,80 731,80 731,90 723,90 718,85 " class="clusterblast-orf"  />
<polygon style="stroke:black; stroke-width:1; fill:#FFFFFF; " description="ribosomal_protein_L15[br]Location: 71062 - 71502" locus_tag="SEVCU139_1365" id="clusterblast-1_h12_5_61" points="731,85 735,80 735,90 731,85 " class="clusterblast-orf"  />
<polygon style="stroke:black; stroke-width:1; fill:#FFFFFF; " description="ribosomal_protein_L30[br]Location: 71522 - 71701" locus_tag="SEVCU139_1366" id="clusterblast-1_h12_5_62" points="735,85 737,80 737,90 735,85 " class="clusterblast-orf"  />
<polygon style="stroke:black; stroke-width:1; fill:#FFFFFF; " description="ribosomal_protein_S5[br]Location: 71718 - 72218" locus_tag="SEVCU139_1367" id="clusterblast-1_h12_5_63" points="737,85 742,80 743,80 743,90 742,90 737,85 " class="clusterblast-orf"  />
<polygon style="stroke:black; stroke-width:1; fill:#FFFFFF; " description="ribosomal_protein_L18[br]Location: 72239 - 72601" locus_tag="SEVCU139_1368" id="clusterblast-1_h12_5_64" points="743,85 746,80 746,90 743,85 " class="clusterblast-orf"  />
<polygon style="stroke:black; stroke-width:1; fill:#FFFFFF; " description="ribosomal_protein_L6[br]Location: 72633 - 73169" locus_tag="SEVCU139_1369" id="clusterblast-1_h12_5_65" points="747,85 752,80 752,80 752,90 752,90 747,85 " class="clusterblast-orf"  />
<polygon style="stroke:black; stroke-width:1; fill:#FFFFFF; " description="ribosomal_protein_S8[br]Location: 73194 - 73592" locus_tag="SEVCU139_1370" id="clusterblast-1_h12_5_66" points="753,85 757,80 757,90 753,85 " class="clusterblast-orf"  />
<polygon style="stroke:black; stroke-width:1; fill:#FFFFFF; " description="ribosomal_protein_S14p/S29e[br]Location: 73624 - 73809" locus_tag="SEVCU139_1371" id="clusterblast-1_h12_5_67" points="757,85 759,80 759,90 757,85 " class="clusterblast-orf"  />
<polygon style="stroke:black; stroke-width:1; fill:#FFFFFF; " description="50S_ribosomal_protein_L5[br]Location: 73834 - 74373" locus_tag="SEVCU139_1372" id="clusterblast-1_h12_5_68" points="759,85 764,80 765,80 765,90 764,90 759,85 " class="clusterblast-orf"  />
<polygon style="stroke:black; stroke-width:1; fill:#FFFFFF; " description="ribosomal_protein_L24[br]Location: 74399 - 74716" locus_tag="SEVCU139_1373" id="clusterblast-1_h12_5_69" points="765,85 768,80 768,90 765,85 " class="clusterblast-orf"  />
<polygon style="stroke:black; stroke-width:1; fill:#FFFFFF; " description="ribosomal_protein_L14[br]Location: 74753 - 75121" locus_tag="SEVCU139_1374" id="clusterblast-1_h12_5_70" points="768,85 772,80 772,90 768,85 " class="clusterblast-orf"  />
<polygon style="stroke:black; stroke-width:1; fill:#FFFFFF; " description="30S_ribosomal_protein_S17[br]Location: 75153 - 75416" locus_tag="SEVCU139_1375" id="clusterblast-1_h12_5_71" points="773,85 775,80 775,90 773,85 " class="clusterblast-orf"  />
<polygon style="stroke:black; stroke-width:1; fill:#FFFFFF; " description="ribosomal_protein_L29[br]Location: 75434 - 75643" locus_tag="SEVCU139_1376" id="clusterblast-1_h12_5_72" points="775,85 778,80 778,90 775,85 " class="clusterblast-orf"  />
</g>
</svg>
