<svg xmlns="http://www.w3.org/2000/svg" height="230" width="800" version="1.1" y="0" x="0" preserveAspectRatio="none" xmlns:xlink="http://www.w3.org/1999/xlink" viewBox="0 0 800 230"  >
<g class="clusterblast-cluster" label="Query sequence"  >
<text class="clusterblast-acc" y="10" x="5"  >
Query sequence</text>
<line y1="35" x2="778.0" style="stroke:grey; stroke-width:1; " x1="10" y2="35"  />
<polygon style="stroke:black; stroke-width:1; fill:#FFFFFF; " description="unannotated orf[br]Location: 489 - 2721" locus_tag="CHAFR746836_0051070.1" class="clusterblast-orf" points="10,35 15,30 29,30 29,40 15,40 10,35 " id="clusterblast-1_q63_2_0"  />
<polygon style="stroke:black; stroke-width:1; fill:#FFFFFF; " description="unannotated orf[br]Location: 4200 - 5219" locus_tag="CHAFR746836_0051080.1" class="clusterblast-orf" points="41,35 46,30 50,30 50,40 46,40 41,35 " id="clusterblast-1_q63_2_1"  />
<polygon style="stroke:black; stroke-width:1; fill:#FFFFFF; " description="unannotated orf[br]Location: 6660 - 7800" locus_tag="CHAFR746836_0051090.1" class="clusterblast-orf" points="62,40 67,40 72,35 67,30 62,30 62,40 " id="clusterblast-1_q63_2_2"  />
<polygon style="stroke:black; stroke-width:1; fill:rgb(190,63,63); " description="unannotated orf[br]Location: 26765 - 27965" locus_tag="CHAFR746836_0051100.1" class="clusterblast-orf" points="233,40 239,40 244,35 239,30 233,30 233,40 " id="clusterblast-1_q63_2_3"  />
<polygon style="stroke:black; stroke-width:1; fill:rgb(63,63,190); " description="unannotated orf[br]Location: 28597 - 39479" locus_tag="CHAFR746836_0051110.1" class="clusterblast-orf" points="249,40 337,40 342,35 337,30 249,30 249,40 " id="clusterblast-1_q63_2_4"  />
<polygon style="stroke:black; stroke-width:1; fill:rgb(63,190,63); " description="unannotated orf[br]Location: 40061 - 41918" locus_tag="CHAFR746836_0051120.1" class="clusterblast-orf" points="347,40 358,40 363,35 358,30 347,30 347,40 " id="clusterblast-1_q63_2_5"  />
<polygon style="stroke:black; stroke-width:1; fill:rgb(190,63,190); " description="unannotated orf[br]Location: 43238 - 44908" locus_tag="CHAFR746836_0051130.1" class="clusterblast-orf" points="374,40 383,40 388,35 383,30 374,30 374,40 " id="clusterblast-1_q63_2_6"  />
<polygon style="stroke:black; stroke-width:1; fill:#FFFFFF; " description="unannotated orf[br]Location: 47854 - 53058" locus_tag="CHAFR746836_0051140.1" class="clusterblast-orf" points="413,35 418,30 458,30 458,40 418,40 413,35 " id="clusterblast-1_q63_2_7"  />
<polygon style="stroke:black; stroke-width:1; fill:rgb(190,190,63); " description="unannotated orf[br]Location: 53967 - 56732" locus_tag="CHAFR746836_0051150.1" class="clusterblast-orf" points="465,40 484,40 489,35 484,30 465,30 465,40 " id="clusterblast-1_q63_2_8"  />
<polygon style="stroke:black; stroke-width:1; fill:#FFFFFF; " description="unannotated orf[br]Location: 58548 - 59100" locus_tag="CHAFR746836_0051160.1" class="clusterblast-orf" points="504,35 509,30 509,30 509,40 509,40 504,35 " id="clusterblast-1_q63_2_9"  />
<polygon style="stroke:black; stroke-width:1; fill:#FFFFFF; " description="unannotated orf[br]Location: 60871 - 61857" locus_tag="CHAFR746836_0051170.1" class="clusterblast-orf" points="524,40 528,40 533,35 528,30 524,30 524,40 " id="clusterblast-1_q63_2_10"  />
<polygon style="stroke:black; stroke-width:1; fill:#FFFFFF; " description="unannotated orf[br]Location: 63105 - 64083" locus_tag="CHAFR746836_0051180.1" class="clusterblast-orf" points="543,35 548,30 552,30 552,40 548,40 543,35 " id="clusterblast-1_q63_2_11"  />
<polygon style="stroke:black; stroke-width:1; fill:#FFFFFF; " description="unannotated orf[br]Location: 67899 - 70038" locus_tag="CHAFR746836_0051190.1" class="clusterblast-orf" points="584,40 597,40 602,35 597,30 584,30 584,40 " id="clusterblast-1_q63_2_12"  />
<polygon style="stroke:black; stroke-width:1; fill:#FFFFFF; " description="unannotated orf[br]Location: 72649 - 74314" locus_tag="CHAFR746836_0051200.1" class="clusterblast-orf" points="625,35 630,30 639,30 639,40 630,40 625,35 " id="clusterblast-1_q63_2_13"  />
<polygon style="stroke:black; stroke-width:1; fill:#FFFFFF; " description="unannotated orf[br]Location: 77147 - 77748" locus_tag="CHAFR746836_0051210.1" class="clusterblast-orf" points="663,40 663,40 668,35 663,30 663,30 663,40 " id="clusterblast-1_q63_2_14"  />
<polygon style="stroke:black; stroke-width:1; fill:#FFFFFF; " description="unannotated orf[br]Location: 78975 - 79809" locus_tag="CHAFR746836_0051220.1" class="clusterblast-orf" points="679,40 681,40 686,35 681,30 679,30 679,40 " id="clusterblast-1_q63_2_15"  />
<polygon style="stroke:black; stroke-width:1; fill:#FFFFFF; " description="unannotated orf[br]Location: 85804 - 86841" locus_tag="CHAFR746836_0051230.1" class="clusterblast-orf" points="737,35 742,30 746,30 746,40 742,40 737,35 " id="clusterblast-1_q63_2_16"  />
<polygon style="stroke:black; stroke-width:1; fill:#FFFFFF; " description="unannotated orf[br]Location: 88142 - 90586" locus_tag="CHAFR746836_0051240.1" class="clusterblast-orf" points="757,35 762,30 778,30 778,40 762,40 757,35 " id="clusterblast-1_q63_2_17"  />
</g>
<g class="clusterblast-cluster" description="Mycosphaerella graminicola IPO323 chromosome 10, whole genom..." label="CM001205.1_c1"  >
<text class="clusterblast-acc" y="60" x="5"  >
CM001205.1_c1</text>
<text class="clusterblast-desc" y="60" x="460.8"  >
Mycosphaerella graminicola IPO323 chromosome 10, whole genom...</text>
<line y1="85" x2="778.0" style="stroke:grey; stroke-width:1; " x1="10" y2="85"  />
<polygon style="stroke:black; stroke-width:1; fill:#FFFFFF; " description="hypothetical_protein[br]Location: 427694 - 428563" locus_tag="MYCGRDRAFT_48694" id="clusterblast-1_h63_2_0" points="182,90 184,90 189,85 184,80 182,80 182,90 " class="clusterblast-orf"  />
<polygon style="stroke:black; stroke-width:1; fill:#FFFFFF; " description="hypothetical_protein[br]Location: 428617 - 429687" locus_tag="MYCGRDRAFT_48997" id="clusterblast-1_h63_2_1" points="189,85 194,80 198,80 198,90 194,90 189,85 " class="clusterblast-orf"  />
<polygon style="stroke:black; stroke-width:1; fill:#FFFFFF; " description="hypothetical_protein[br]Location: 430301 - 432179" locus_tag="MYCGRDRAFT_110974" id="clusterblast-1_h63_2_2" points="204,85 209,80 220,80 220,90 209,90 204,85 " class="clusterblast-orf"  />
<polygon style="stroke:black; stroke-width:1; fill:#FFFFFF; " description="hypothetical_protein[br]Location: 434653 - 436154" locus_tag="MYCGRDRAFT_76143" id="clusterblast-1_h63_2_3" points="241,90 249,90 254,85 249,80 241,80 241,90 " class="clusterblast-orf"  />
<polygon style="stroke:black; stroke-width:1; fill:#FFFFFF; " description="hypothetical_protein[br]Location: 437422 - 438857" locus_tag="MYCGRDRAFT_96123" id="clusterblast-1_h63_2_4" points="264,90 272,90 277,85 272,80 264,80 264,90 " class="clusterblast-orf"  />
<polygon style="stroke:black; stroke-width:1; fill:#FFFFFF; " description="hypothetical_protein[br]Location: 439622 - 440422" locus_tag="MYCGRDRAFT_76146" id="clusterblast-1_h63_2_5" points="283,90 285,90 290,85 285,80 283,80 283,90 " class="clusterblast-orf"  />
<polygon style="stroke:black; stroke-width:1; fill:#FFFFFF; " description="hypothetical_protein[br]Location: 440463 - 442177" locus_tag="MYCGRDRAFT_76149" id="clusterblast-1_h63_2_6" points="290,85 295,80 305,80 305,90 295,90 290,85 " class="clusterblast-orf"  />
<polygon style="stroke:black; stroke-width:1; fill:#FFFFFF; " description="hypothetical_protein[br]Location: 443021 - 443795" locus_tag="MYCGRDRAFT_105887" id="clusterblast-1_h63_2_7" points="312,85 317,80 319,80 319,90 317,90 312,85 " class="clusterblast-orf"  />
<polygon style="stroke:black; stroke-width:1; fill:#FFFFFF; " description="hypothetical_protein[br]Location: 444419 - 445102" locus_tag="MYCGRDRAFT_96127" id="clusterblast-1_h63_2_8" points="324,85 329,80 330,80 330,90 329,90 324,85 " class="clusterblast-orf"  />
<polygon style="stroke:black; stroke-width:1; fill:rgb(63,63,190); " description="putative_hybrid_polyketide[br]Location: 448503 - 457362&lt;br&gt;&lt;br&gt;&lt;b&gt;BlastP hit with CHAFR746836_0051100.1&lt;/b&gt;&lt;br&gt;Percentage identity: 61%&lt;br&gt;Percentage coverage: 95%&lt;br&gt;BLAST bit score: 415&lt;br&gt;E-value: 1e-129&lt;br&gt;&lt;br&gt;&lt;b&gt;BlastP hit with CHAFR746836_0051110.1&lt;/b&gt;&lt;br&gt;Percentage identity: 32%&lt;br&gt;Percentage coverage: 73%&lt;br&gt;BLAST bit score: 1228&lt;br&gt;E-value: 0.0" locus_tag="MYCGRDRAFT_62978" id="clusterblast-1_h63_2_9" points="359,85 364,80 434,80 434,90 364,90 359,85 " class="clusterblast-orf"  />
<polygon style="stroke:black; stroke-width:1; fill:rgb(63,190,63); " description="putative_major_facilitator_superfamily[br]Location: 459259 - 460865&lt;br&gt;&lt;br&gt;&lt;b&gt;BlastP hit with CHAFR746836_0051120.1&lt;/b&gt;&lt;br&gt;Percentage identity: 39%&lt;br&gt;Percentage coverage: 84%&lt;br&gt;BLAST bit score: 352&lt;br&gt;E-value: 2e-112" locus_tag="MYCGRDRAFT_87728" id="clusterblast-1_h63_2_10" points="451,90 459,90 464,85 459,80 451,80 451,90 " class="clusterblast-orf"  />
<polygon style="stroke:black; stroke-width:1; fill:#FFFFFF; " description="hypothetical_protein[br]Location: 461450 - 462655" locus_tag="MYCGRDRAFT_105888" id="clusterblast-1_h63_2_11" points="469,90 475,90 480,85 475,80 469,80 469,90 " class="clusterblast-orf"  />
<polygon style="stroke:black; stroke-width:1; fill:#FFFFFF; " description="hypothetical_protein[br]Location: 469523 - 473757" locus_tag="MYCGRDRAFT_110980" id="clusterblast-1_h63_2_12" points="538,85 543,80 574,80 574,90 543,90 538,85 " class="clusterblast-orf"  />
<polygon style="stroke:black; stroke-width:1; fill:#FFFFFF; " description="hypothetical_protein[br]Location: 474588 - 476205" locus_tag="MYCGRDRAFT_96131" id="clusterblast-1_h63_2_13" points="581,90 590,90 595,85 590,80 581,80 581,90 " class="clusterblast-orf"  />
<polygon style="stroke:black; stroke-width:1; fill:#FFFFFF; " description="hypothetical_protein[br]Location: 476527 - 477261" locus_tag="MYCGRDRAFT_49004" id="clusterblast-1_h63_2_14" points="598,85 603,80 604,80 604,90 603,90 598,85 " class="clusterblast-orf"  />
</g>
</svg>
