<svg xmlns="http://www.w3.org/2000/svg" height="230" width="800" version="1.1" y="0" x="0" preserveAspectRatio="none" xmlns:xlink="http://www.w3.org/1999/xlink" viewBox="0 0 800 230"  >
<g class="clusterblast-cluster" label="Query sequence"  >
<text class="clusterblast-acc" y="10" x="5"  >
Query sequence</text>
<line y1="35" x2="778.0" style="stroke:grey; stroke-width:1; " x1="10" y2="35"  />
<polygon style="stroke:black; stroke-width:1; fill:#FFFFFF; " description="unannotated orf[br]Location: 3489 - 4914" locus_tag="CHAFR746836_0101380.1" class="clusterblast-orf" points="10,35 15,30 27,30 27,40 15,40 10,35 " id="clusterblast-1_q29_4_0"  />
<polygon style="stroke:black; stroke-width:1; fill:#FFFFFF; " description="unannotated orf[br]Location: 5456 - 6575" locus_tag="CHAFR746836_0101390.1" class="clusterblast-orf" points="33,35 38,30 47,30 47,40 38,40 33,35 " id="clusterblast-1_q29_4_1"  />
<polygon style="stroke:black; stroke-width:1; fill:#FFFFFF; " description="unannotated orf[br]Location: 10922 - 11634" locus_tag="CHAFR746836_0101400.1" class="clusterblast-orf" points="99,40 102,40 107,35 102,30 99,30 99,40 " id="clusterblast-1_q29_4_2"  />
<polygon style="stroke:black; stroke-width:1; fill:#FFFFFF; " description="unannotated orf[br]Location: 19756 - 21668" locus_tag="CHAFR746836_0101410.1" class="clusterblast-orf" points="205,35 210,30 227,30 227,40 210,40 205,35 " id="clusterblast-1_q29_4_3"  />
<polygon style="stroke:black; stroke-width:1; fill:#FFFFFF; " description="unannotated orf[br]Location: 22408 - 23374" locus_tag="CHAFR746836_0101420.1" class="clusterblast-orf" points="236,40 243,40 248,35 243,30 236,30 236,40 " id="clusterblast-1_q29_4_4"  />
<polygon style="stroke:black; stroke-width:1; fill:rgb(190,63,63); " description="unannotated orf[br]Location: 23890 - 24643" locus_tag="CHAFR746836_0101430.1" class="clusterblast-orf" points="254,35 259,30 263,30 263,40 259,40 254,35 " id="clusterblast-1_q29_4_5"  />
<polygon style="stroke:black; stroke-width:1; fill:rgb(63,63,190); " description="unannotated orf[br]Location: 25525 - 33031" locus_tag="CHAFR746836_0101440.1" class="clusterblast-orf" points="274,35 279,30 364,30 364,40 279,40 274,35 " id="clusterblast-1_q29_4_6"  />
<polygon style="stroke:black; stroke-width:1; fill:rgb(63,190,63); " description="unannotated orf[br]Location: 34425 - 35697" locus_tag="CHAFR746836_0101450.1" class="clusterblast-orf" points="380,40 391,40 396,35 391,30 380,30 380,40 " id="clusterblast-1_q29_4_7"  />
<polygon style="stroke:black; stroke-width:1; fill:#FFFFFF; " description="unannotated orf[br]Location: 38970 - 40379" locus_tag="CHAFR746836_0101460.1" class="clusterblast-orf" points="435,40 447,40 452,35 447,30 435,30 435,40 " id="clusterblast-1_q29_4_8"  />
<polygon style="stroke:black; stroke-width:1; fill:rgb(190,63,190); " description="unannotated orf[br]Location: 43420 - 44310" locus_tag="CHAFR746836_0101470.1" class="clusterblast-orf" points="488,40 494,40 499,35 494,30 488,30 488,40 " id="clusterblast-1_q29_4_9"  />
<polygon style="stroke:black; stroke-width:1; fill:rgb(190,190,63); " description="unannotated orf[br]Location: 45003 - 45808" locus_tag="CHAFR746836_0101480.1" class="clusterblast-orf" points="507,40 512,40 517,35 512,30 507,30 507,40 " id="clusterblast-1_q29_4_10"  />
<polygon style="stroke:black; stroke-width:1; fill:rgb(190,190,190); " description="unannotated orf[br]Location: 46298 - 48111" locus_tag="CHAFR746836_0101490.1" class="clusterblast-orf" points="523,35 528,30 545,30 545,40 528,40 523,35 " id="clusterblast-1_q29_4_11"  />
<polygon style="stroke:black; stroke-width:1; fill:#FFFFFF; " description="unannotated orf[br]Location: 48769 - 49804" locus_tag="CHAFR746836_0101500.1" class="clusterblast-orf" points="552,35 557,30 565,30 565,40 557,40 552,35 " id="clusterblast-1_q29_4_12"  />
<polygon style="stroke:black; stroke-width:1; fill:#FFFFFF; " description="unannotated orf[br]Location: 50970 - 51894" locus_tag="CHAFR746836_0101510.1" class="clusterblast-orf" points="579,40 585,40 590,35 585,30 579,30 579,40 " id="clusterblast-1_q29_4_13"  />
<polygon style="stroke:black; stroke-width:1; fill:#FFFFFF; " description="unannotated orf[br]Location: 52569 - 55191" locus_tag="CHAFR746836_0101520.1" class="clusterblast-orf" points="598,40 624,40 629,35 624,30 598,30 598,40 " id="clusterblast-1_q29_4_14"  />
<polygon style="stroke:black; stroke-width:1; fill:#FFFFFF; " description="unannotated orf[br]Location: 55978 - 57046" locus_tag="CHAFR746836_0101530.1" class="clusterblast-orf" points="639,40 647,40 652,35 647,30 639,30 639,40 " id="clusterblast-1_q29_4_15"  />
<polygon style="stroke:black; stroke-width:1; fill:#FFFFFF; " description="unannotated orf[br]Location: 58243 - 59708" locus_tag="CHAFR746836_0101540.1" class="clusterblast-orf" points="666,40 679,40 684,35 679,30 666,30 666,40 " id="clusterblast-1_q29_4_16"  />
<polygon style="stroke:black; stroke-width:1; fill:#FFFFFF; " description="unannotated orf[br]Location: 60927 - 61452" locus_tag="CHAFR746836_0101550.1" class="clusterblast-orf" points="698,35 703,30 705,30 705,40 703,40 698,35 " id="clusterblast-1_q29_4_17"  />
<polygon style="stroke:black; stroke-width:1; fill:#FFFFFF; " description="unannotated orf[br]Location: 63620 - 67540" locus_tag="CHAFR746836_0101560.1" class="clusterblast-orf" points="730,40 773,40 778,35 773,30 730,30 730,40 " id="clusterblast-1_q29_4_18"  />
</g>
<g class="clusterblast-cluster" description="Trichoderma virens Gv29-8 TRIVIscaffold 86, whole genome..." label="ABDF02000086.1_c2"  >
<text class="clusterblast-acc" y="60" x="5"  >
ABDF02000086.1_c2</text>
<text class="clusterblast-desc" y="60" x="460.8"  >
Trichoderma virens Gv29-8 TRIVIscaffold 86, whole genome...</text>
<line y1="85" x2="778.0" style="stroke:grey; stroke-width:1; " x1="10" y2="85"  />
<polygon style="stroke:black; stroke-width:1; fill:#FFFFFF; " description="hypothetical_protein[br]Location: 563504 - 566250" locus_tag="TRIVIDRAFT_225751" id="clusterblast-1_h29_4_0" points="114,85 119,80 146,80 146,90 119,90 114,85 " class="clusterblast-orf"  />
<polygon style="stroke:black; stroke-width:1; fill:#FFFFFF; " description="hypothetical_protein[br]Location: 555907 - 556374" locus_tag="TRIVIDRAFT_47272" id="clusterblast-1_h29_4_1" points="232,90 233,90 238,85 233,80 232,80 232,90 " class="clusterblast-orf"  />
<polygon style="stroke:black; stroke-width:1; fill:#FFFFFF; " description="hypothetical_protein[br]Location: 551094 - 552139" locus_tag="TRIVIDRAFT_68459" id="clusterblast-1_h29_4_2" points="283,90 290,90 295,85 290,80 283,80 283,90 " class="clusterblast-orf"  />
<polygon style="stroke:black; stroke-width:1; fill:rgb(63,63,190); " description="putative_polyketide_synthase[br]Location: 539439 - 546836&lt;br&gt;&lt;br&gt;&lt;b&gt;BlastP hit with CHAFR746836_0101440.1&lt;/b&gt;&lt;br&gt;Percentage identity: 43%&lt;br&gt;Percentage coverage: 100%&lt;br&gt;BLAST bit score: 1818&lt;br&gt;E-value: 0.0" locus_tag="TRIVIDRAFT_47407" id="clusterblast-1_h29_4_3" points="346,85 351,80 435,80 435,90 351,90 346,85 " class="clusterblast-orf"  />
<polygon style="stroke:black; stroke-width:1; fill:rgb(190,63,190); " description="hypothetical_protein[br]Location: 536622 - 537684&lt;br&gt;&lt;br&gt;&lt;b&gt;BlastP hit with CHAFR746836_0101470.1&lt;/b&gt;&lt;br&gt;Percentage identity: 44%&lt;br&gt;Percentage coverage: 96%&lt;br&gt;BLAST bit score: 231&lt;br&gt;E-value: 3e-73" locus_tag="TRIVIDRAFT_158432" id="clusterblast-1_h29_4_4" points="456,90 464,90 469,85 464,80 456,80 456,90 " class="clusterblast-orf"  />
<polygon style="stroke:black; stroke-width:1; fill:rgb(190,190,63); " description="hypothetical_protein[br]Location: 535357 - 536140&lt;br&gt;&lt;br&gt;&lt;b&gt;BlastP hit with CHAFR746836_0101480.1&lt;/b&gt;&lt;br&gt;Percentage identity: 54%&lt;br&gt;Percentage coverage: 87%&lt;br&gt;BLAST bit score: 198&lt;br&gt;E-value: 2e-62" locus_tag="TRIVIDRAFT_194203" id="clusterblast-1_h29_4_5" points="475,90 479,90 484,85 479,80 475,80 475,90 " class="clusterblast-orf"  />
<polygon style="stroke:black; stroke-width:1; fill:rgb(63,190,63); " description="hypothetical_protein[br]Location: 533505 - 534903&lt;br&gt;&lt;br&gt;&lt;b&gt;BlastP hit with CHAFR746836_0101450.1&lt;/b&gt;&lt;br&gt;Percentage identity: 52%&lt;br&gt;Percentage coverage: 82%&lt;br&gt;BLAST bit score: 175&lt;br&gt;E-value: 3e-52" locus_tag="TRIVIDRAFT_225746" id="clusterblast-1_h29_4_6" points="489,85 494,80 506,80 506,90 494,90 489,85 " class="clusterblast-orf"  />
<polygon style="stroke:black; stroke-width:1; fill:#FFFFFF; " description="hypothetical_protein[br]Location: 530458 - 532473" locus_tag="TRIVIDRAFT_47601" id="clusterblast-1_h29_4_7" points="519,90 538,90 543,85 538,80 519,80 519,90 " class="clusterblast-orf"  />
<polygon style="stroke:black; stroke-width:1; fill:#FFFFFF; " description="hypothetical_protein[br]Location: 528334 - 530018" locus_tag="TRIVIDRAFT_134898" id="clusterblast-1_h29_4_8" points="548,85 553,80 568,80 568,90 553,90 548,85 " class="clusterblast-orf"  />
<polygon style="stroke:black; stroke-width:1; fill:#FFFFFF; " description="hypothetical_protein[br]Location: 525872 - 526967" locus_tag="TRIVIDRAFT_47324" id="clusterblast-1_h29_4_9" points="585,90 593,90 598,85 593,80 585,80 585,90 " class="clusterblast-orf"  />
<polygon style="stroke:black; stroke-width:1; fill:#FFFFFF; " description="hypothetical_protein[br]Location: 524838 - 525721" locus_tag="TRIVIDRAFT_68451" id="clusterblast-1_h29_4_10" points="599,85 604,80 610,80 610,90 604,90 599,85 " class="clusterblast-orf"  />
<polygon style="stroke:black; stroke-width:1; fill:#FFFFFF; " description="hypothetical_protein[br]Location: 522045 - 523827" locus_tag="TRIVIDRAFT_68450" id="clusterblast-1_h29_4_11" points="622,90 639,90 644,85 639,80 622,80 622,90 " class="clusterblast-orf"  />
<polygon style="stroke:black; stroke-width:1; fill:#FFFFFF; " description="hypothetical_protein[br]Location: 519664 - 521851" locus_tag="TRIVIDRAFT_81025" id="clusterblast-1_h29_4_12" points="646,85 651,80 672,80 672,90 651,90 646,85 " class="clusterblast-orf"  />
</g>
</svg>
