<svg xmlns="http://www.w3.org/2000/svg" height="430" width="800" version="1.1" y="0" x="0" preserveAspectRatio="none" xmlns:xlink="http://www.w3.org/1999/xlink" viewBox="0 0 800 430"  >
<g class="clusterblast-cluster" label="Query sequence"  >
<text class="clusterblast-acc" y="10" x="5"  >
Query sequence</text>
<line y1="35" x2="778.0" style="stroke:grey; stroke-width:1; " x1="10" y2="35"  />
<polygon style="stroke:black; stroke-width:1; fill:#FFFFFF; " description="unannotated orf[br]Location: 5189 - 6389" locus_tag="CHAFR746836_0080190.1" class="clusterblast-orf" points="327,35 332,30 338,30 338,40 332,40 327,35 " id="clusterblast-1_all_11_0_0"  />
<polygon style="stroke:black; stroke-width:1; fill:red; " description="unannotated orf[br]Location: 7072 - 8707" locus_tag="CHAFR746836_0080200.1" class="clusterblast-orf" points="345,35 350,30 360,30 360,40 350,40 345,35 " id="clusterblast-1_all_11_0_1"  />
<polygon style="stroke:black; stroke-width:1; fill:#FFFFFF; " description="unannotated orf[br]Location: 9665 - 11576" locus_tag="CHAFR746836_0080210.1" class="clusterblast-orf" points="369,35 374,30 388,30 388,40 374,40 369,35 " id="clusterblast-1_all_11_0_2"  />
<polygon style="stroke:black; stroke-width:1; fill:green; " description="unannotated orf[br]Location: 12176 - 14455" locus_tag="CHAFR746836_0080220.1" class="clusterblast-orf" points="393,40 410,40 415,35 410,30 393,30 393,40 " id="clusterblast-1_all_11_0_3"  />
<polygon style="stroke:black; stroke-width:1; fill:#FFFFFF; " description="unannotated orf[br]Location: 16174 - 17543" locus_tag="CHAFR746836_0080230.1" class="clusterblast-orf" points="432,40 440,40 445,35 440,30 432,30 432,40 " id="clusterblast-1_all_11_0_4"  />
<polygon style="stroke:black; stroke-width:1; fill:blue; " description="unannotated orf[br]Location: 17828 - 19091" locus_tag="CHAFR746836_0080240.1" class="clusterblast-orf" points="447,35 452,30 460,30 460,40 452,40 447,35 " id="clusterblast-1_all_11_0_5"  />
</g>
<g class="clusterblast-cluster" description="Trichoderma virens Gv29-8 TRIVIscaffold 75, whole genome..." label="ABDF02000075.1_c1"  >
<text class="clusterblast-acc" y="60" x="5"  >
ABDF02000075.1_c1</text>
<text class="clusterblast-desc" y="60" x="460.8"  >
Trichoderma virens Gv29-8 TRIVIscaffold 75, whole genome...</text>
<line y1="85" x2="778.0" style="stroke:grey; stroke-width:1; " x1="10" y2="85"  />
<polygon style="stroke:black; stroke-width:1; fill:#FFFFFF; " description="glycoside_hydrolase_family_71_protein[br]Location: 167249 - 169350" locus_tag="TRIVIDRAFT_70149" id="clusterblast-1_all_11_1_0" points="107,90 122,90 127,85 122,80 107,80 107,90 " class="clusterblast-orf"  />
<polygon style="stroke:black; stroke-width:1; fill:#FFFFFF; " description="hypothetical_protein[br]Location: 169958 - 171041" locus_tag="TRIVIDRAFT_202300" id="clusterblast-1_all_11_1_1" points="132,85 137,80 143,80 143,90 137,90 132,85 " class="clusterblast-orf"  />
<polygon style="stroke:black; stroke-width:1; fill:#FFFFFF; " description="hypothetical_protein[br]Location: 171401 - 172224" locus_tag="TRIVIDRAFT_51604" id="clusterblast-1_all_11_1_2" points="146,90 149,90 154,85 149,80 146,80 146,90 " class="clusterblast-orf"  />
<polygon style="stroke:black; stroke-width:1; fill:#FFFFFF; " description="hypothetical_protein[br]Location: 174384 - 175401" locus_tag="TRIVIDRAFT_51661" id="clusterblast-1_all_11_1_3" points="175,85 180,80 184,80 184,90 180,90 175,85 " class="clusterblast-orf"  />
<polygon style="stroke:black; stroke-width:1; fill:#FFFFFF; " description="hypothetical_protein[br]Location: 177332 - 178664" locus_tag="TRIVIDRAFT_70145" id="clusterblast-1_all_11_1_4" points="203,90 211,90 216,85 211,80 203,80 203,90 " class="clusterblast-orf"  />
<polygon style="stroke:black; stroke-width:1; fill:#FFFFFF; " description="hypothetical_protein[br]Location: 179879 - 185682" locus_tag="TRIVIDRAFT_23442" id="clusterblast-1_all_11_1_5" points="227,90 278,90 283,85 278,80 227,80 227,90 " class="clusterblast-orf"  />
<polygon style="stroke:black; stroke-width:1; fill:#FFFFFF; " description="hypothetical_protein[br]Location: 186255 - 191218" locus_tag="TRIVIDRAFT_202307" id="clusterblast-1_all_11_1_6" points="288,85 293,80 336,80 336,90 293,90 288,85 " class="clusterblast-orf"  />
<polygon style="stroke:black; stroke-width:1; fill:#FFFFFF; " description="hypothetical_protein[br]Location: 192249 - 196846" locus_tag="TRIVIDRAFT_192417" id="clusterblast-1_all_11_1_7" points="346,90 385,90 390,85 385,80 346,80 346,90 " class="clusterblast-orf"  />
<polygon style="stroke:black; stroke-width:1; fill:#FFFFFF; " description="hypothetical_protein[br]Location: 198005 - 199659" locus_tag="TRIVIDRAFT_51630" id="clusterblast-1_all_11_1_8" points="401,90 412,90 417,85 412,80 401,80 401,90 " class="clusterblast-orf"  />
<polygon style="stroke:black; stroke-width:1; fill:#FFFFFF; " description="hypothetical_protein[br]Location: 199941 - 200483" locus_tag="TRIVIDRAFT_223368" id="clusterblast-1_all_11_1_9" points="419,90 419,90 424,85 419,80 419,80 419,90 " class="clusterblast-orf"  />
<polygon style="stroke:black; stroke-width:1; fill:#FFFFFF; " description="non-ribosomal_peptide_synthetase[br]Location: 200783 - 208190" locus_tag="TRIVIDRAFT_223369" id="clusterblast-1_all_11_1_10" points="427,90 493,90 498,85 493,80 427,80 427,90 " class="clusterblast-orf"  />
<polygon style="stroke:black; stroke-width:1; fill:#FFFFFF; " description="hypothetical_protein[br]Location: 208930 - 211667" locus_tag="TRIVIDRAFT_112807" id="clusterblast-1_all_11_1_11" points="505,85 510,80 531,80 531,90 510,90 505,85 " class="clusterblast-orf"  />
<polygon style="stroke:black; stroke-width:1; fill:#FFFFFF; " description="hypothetical_protein[br]Location: 215349 - 216350" locus_tag="TRIVIDRAFT_153345" id="clusterblast-1_all_11_1_12" points="567,85 572,80 576,80 576,90 572,90 567,85 " class="clusterblast-orf"  />
<polygon style="stroke:black; stroke-width:1; fill:red; " description="hypothetical_protein[br]Location: 217689 - 219715&lt;br&gt;&lt;br&gt;&lt;b&gt;BlastP hit with CHAFR746836_0080200.1&lt;/b&gt;&lt;br&gt;Percentage identity: 47%&lt;br&gt;Percentage coverage: 95%&lt;br&gt;BLAST bit score: 496&lt;br&gt;E-value: 2e-168" locus_tag="TRIVIDRAFT_192420" id="clusterblast-1_all_11_1_13" points="589,85 594,80 608,80 608,90 594,90 589,85 " class="clusterblast-orf"  />
<polygon style="stroke:black; stroke-width:1; fill:#FFFFFF; " description="hypothetical_protein[br]Location: 220372 - 220764" locus_tag="TRIVIDRAFT_51664" id="clusterblast-1_all_11_1_14" points="615,85 619,80 619,90 615,85 " class="clusterblast-orf"  />
<polygon style="stroke:black; stroke-width:1; fill:green; " description="hypothetical_protein[br]Location: 221248 - 223223&lt;br&gt;&lt;br&gt;&lt;b&gt;BlastP hit with CHAFR746836_0080220.1&lt;/b&gt;&lt;br&gt;Percentage identity: 46%&lt;br&gt;Percentage coverage: 90%&lt;br&gt;BLAST bit score: 477&lt;br&gt;E-value: 2e-162" locus_tag="TRIVIDRAFT_192422" id="clusterblast-1_all_11_1_15" points="623,85 628,80 642,80 642,90 628,90 623,85 " class="clusterblast-orf"  />
<polygon style="stroke:black; stroke-width:1; fill:#FFFFFF; " description="hypothetical_protein[br]Location: 224668 - 225519" locus_tag="TRIVIDRAFT_137343" id="clusterblast-1_all_11_1_16" points="656,90 659,90 664,85 659,80 656,80 656,90 " class="clusterblast-orf"  />
<polygon style="stroke:black; stroke-width:1; fill:#FFFFFF; " description="hypothetical_protein[br]Location: 226217 - 227220" locus_tag="TRIVIDRAFT_70133" id="clusterblast-1_all_11_1_17" points="671,85 676,80 680,80 680,90 676,90 671,85 " class="clusterblast-orf"  />
</g>
<g class="clusterblast-cluster" description="Trichoderma virens Gv29-8 TRIVIscaffold 78, whole genome..." label="ABDF02000078.1_c1"  >
<text class="clusterblast-acc" y="110" x="5"  >
ABDF02000078.1_c1</text>
<text class="clusterblast-desc" y="110" x="460.8"  >
Trichoderma virens Gv29-8 TRIVIscaffold 78, whole genome...</text>
<line y1="135" x2="778.0" style="stroke:grey; stroke-width:1; " x1="10" y2="135"  />
<polygon style="stroke:black; stroke-width:1; fill:#FFFFFF; " description="hypothetical_protein[br]Location: 22016 - 24003" locus_tag="TRIVIDRAFT_223620" id="clusterblast-1_all_11_2_0" points="10,140 24,140 29,135 24,130 10,130 10,140 " class="clusterblast-orf"  />
<polygon style="stroke:black; stroke-width:1; fill:#FFFFFF; " description="hypothetical_protein[br]Location: 26721 - 27620" locus_tag="TRIVIDRAFT_49693" id="clusterblast-1_all_11_2_1" points="55,140 58,140 63,135 58,130 55,130 55,140 " class="clusterblast-orf"  />
<polygon style="stroke:black; stroke-width:1; fill:red; " description="hypothetical_protein[br]Location: 28424 - 30091&lt;br&gt;&lt;br&gt;&lt;b&gt;BlastP hit with CHAFR746836_0080200.1&lt;/b&gt;&lt;br&gt;Percentage identity: 35%&lt;br&gt;Percentage coverage: 95%&lt;br&gt;BLAST bit score: 364&lt;br&gt;E-value: 4e-117" locus_tag="TRIVIDRAFT_213302" id="clusterblast-1_all_11_2_2" points="71,135 76,130 87,130 87,140 76,140 71,135 " class="clusterblast-orf"  />
<polygon style="stroke:black; stroke-width:1; fill:#FFFFFF; " description="hypothetical_protein[br]Location: 31013 - 33157" locus_tag="TRIVIDRAFT_223622" id="clusterblast-1_all_11_2_3" points="96,140 111,140 116,135 111,130 96,130 96,140 " class="clusterblast-orf"  />
<polygon style="stroke:black; stroke-width:1; fill:#FFFFFF; " description="hypothetical_protein[br]Location: 33620 - 34793" locus_tag="TRIVIDRAFT_216312" id="clusterblast-1_all_11_2_4" points="121,135 126,130 132,130 132,140 126,140 121,135 " class="clusterblast-orf"  />
<polygon style="stroke:black; stroke-width:1; fill:#FFFFFF; " description="hypothetical_protein[br]Location: 35673 - 36551" locus_tag="TRIVIDRAFT_223624" id="clusterblast-1_all_11_2_5" points="140,140 144,140 149,135 144,130 140,130 140,140 " class="clusterblast-orf"  />
<polygon style="stroke:black; stroke-width:1; fill:#FFFFFF; " description="hypothetical_protein[br]Location: 37650 - 39222" locus_tag="TRIVIDRAFT_69355" id="clusterblast-1_all_11_2_6" points="159,140 169,140 174,135 169,130 159,130 159,140 " class="clusterblast-orf"  />
<polygon style="stroke:black; stroke-width:1; fill:#FFFFFF; " description="putative_polyketide_synthase[br]Location: 39815 - 45769" locus_tag="TRIVIDRAFT_49800" id="clusterblast-1_all_11_2_7" points="180,135 185,130 237,130 237,140 185,140 180,135 " class="clusterblast-orf"  />
<polygon style="stroke:black; stroke-width:1; fill:#FFFFFF; " description="hypothetical_protein[br]Location: 46398 - 47588" locus_tag="TRIVIDRAFT_49810" id="clusterblast-1_all_11_2_8" points="243,135 248,130 254,130 254,140 248,140 243,135 " class="clusterblast-orf"  />
<polygon style="stroke:black; stroke-width:1; fill:blue; " description="hypothetical_protein[br]Location: 48508 - 52024&lt;br&gt;&lt;br&gt;&lt;b&gt;BlastP hit with CHAFR746836_0080240.1&lt;/b&gt;&lt;br&gt;Percentage identity: 31%&lt;br&gt;Percentage coverage: 98%&lt;br&gt;BLAST bit score: 196&lt;br&gt;E-value: 5e-54" locus_tag="TRIVIDRAFT_192594" id="clusterblast-1_all_11_2_9" points="263,140 292,140 297,135 292,130 263,130 263,140 " class="clusterblast-orf"  />
<polygon style="stroke:black; stroke-width:1; fill:#FFFFFF; " description="hypothetical_protein[br]Location: 52268 - 53523" locus_tag="TRIVIDRAFT_49755" id="clusterblast-1_all_11_2_10" points="299,135 304,130 311,130 311,140 304,140 299,135 " class="clusterblast-orf"  />
<polygon style="stroke:black; stroke-width:1; fill:#FFFFFF; " description="hypothetical_protein[br]Location: 55312 - 56073" locus_tag="TRIVIDRAFT_18436" id="clusterblast-1_all_11_2_11" points="328,135 333,130 335,130 335,140 333,140 328,135 " class="clusterblast-orf"  />
<polygon style="stroke:black; stroke-width:1; fill:#FFFFFF; " description="hypothetical_protein[br]Location: 57119 - 58261" locus_tag="TRIVIDRAFT_49659" id="clusterblast-1_all_11_2_12" points="345,135 350,130 356,130 356,140 350,140 345,135 " class="clusterblast-orf"  />
<polygon style="stroke:black; stroke-width:1; fill:#FFFFFF; " description="non-ribosomal_peptide_synthetase[br]Location: 60046 - 84786" locus_tag="TRIVIDRAFT_69362" id="clusterblast-1_all_11_2_13" points="373,135 378,130 610,130 610,140 378,140 373,135 " class="clusterblast-orf"  />
<polygon style="stroke:black; stroke-width:1; fill:#FFFFFF; " description="hypothetical_protein[br]Location: 87545 - 88785" locus_tag="TRIVIDRAFT_83471" id="clusterblast-1_all_11_2_14" points="636,140 643,140 648,135 643,130 636,130 636,140 " class="clusterblast-orf"  />
<polygon style="stroke:black; stroke-width:1; fill:#FFFFFF; " description="hypothetical_protein[br]Location: 89989 - 91931" locus_tag="TRIVIDRAFT_180884" id="clusterblast-1_all_11_2_15" points="660,140 673,140 678,135 673,130 660,130 660,140 " class="clusterblast-orf"  />
<polygon style="stroke:black; stroke-width:1; fill:#FFFFFF; " description="hypothetical_protein[br]Location: 92780 - 94866" locus_tag="TRIVIDRAFT_11937" id="clusterblast-1_all_11_2_16" points="687,135 692,130 707,130 707,140 692,140 687,135 " class="clusterblast-orf"  />
<polygon style="stroke:black; stroke-width:1; fill:#FFFFFF; " description="hypothetical_protein[br]Location: 98207 - 99623" locus_tag="TRIVIDRAFT_81252" id="clusterblast-1_all_11_2_17" points="739,140 747,140 752,135 747,130 739,130 739,140 " class="clusterblast-orf"  />
<polygon style="stroke:black; stroke-width:1; fill:#FFFFFF; " description="hypothetical_protein[br]Location: 100187 - 101289" locus_tag="TRIVIDRAFT_192604" id="clusterblast-1_all_11_2_18" points="757,135 762,130 768,130 768,140 762,140 757,135 " class="clusterblast-orf"  />
<polygon style="stroke:black; stroke-width:1; fill:#FFFFFF; " description="hypothetical_protein[br]Location: 101576 - 102283" locus_tag="TRIVIDRAFT_154026" id="clusterblast-1_all_11_2_19" points="771,135 776,130 778,130 778,140 776,140 771,135 " class="clusterblast-orf"  />
</g>
<g class="clusterblast-cluster" description="Trichophyton equinum CBS 127.97 supercont1.1 genomic scaffol..." label="DS995718.1_c2"  >
<text class="clusterblast-acc" y="160" x="5"  >
DS995718.1_c2</text>
<text class="clusterblast-desc" y="160" x="460.8"  >
Trichophyton equinum CBS 127.97 supercont1.1 genomic scaffol...</text>
<line y1="185" x2="778.0" style="stroke:grey; stroke-width:1; " x1="10" y2="185"  />
<polygon style="stroke:black; stroke-width:1; fill:#FFFFFF; " description="hypothetical_protein[br]Location: 526835 - 528252" locus_tag="TEQG_00207" id="clusterblast-1_all_11_3_0" points="187,185 192,180 200,180 200,190 192,190 187,185 " class="clusterblast-orf"  />
<polygon style="stroke:black; stroke-width:1; fill:#FFFFFF; " description="hypothetical_protein[br]Location: 529490 - 530532" locus_tag="TEQG_00208" id="clusterblast-1_all_11_3_1" points="212,190 217,190 222,185 217,180 212,180 212,190 " class="clusterblast-orf"  />
<polygon style="stroke:black; stroke-width:1; fill:#FFFFFF; " description="valyl-tRNA_synthetase[br]Location: 530717 - 534106" locus_tag="TEQG_00209" id="clusterblast-1_all_11_3_2" points="224,185 229,180 256,180 256,190 229,190 224,185 " class="clusterblast-orf"  />
<polygon style="stroke:black; stroke-width:1; fill:#FFFFFF; " description="hypothetical_protein[br]Location: 534572 - 535325" locus_tag="TEQG_00210" id="clusterblast-1_all_11_3_3" points="261,185 266,180 268,180 268,190 266,190 261,185 " class="clusterblast-orf"  />
<polygon style="stroke:black; stroke-width:1; fill:#FFFFFF; " description="hypothetical_protein[br]Location: 535928 - 538417" locus_tag="TEQG_00211" id="clusterblast-1_all_11_3_4" points="274,190 292,190 297,185 292,180 274,180 274,190 " class="clusterblast-orf"  />
<polygon style="stroke:black; stroke-width:1; fill:#FFFFFF; " description="hypothetical_protein[br]Location: 540090 - 540415" locus_tag="TEQG_08568" id="clusterblast-1_all_11_3_5" points="313,190 316,185 313,180 313,190 " class="clusterblast-orf"  />
<polygon style="stroke:black; stroke-width:1; fill:#FFFFFF; " description="serine/threonine_protein_kinase[br]Location: 540959 - 541863" locus_tag="TEQG_00212" id="clusterblast-1_all_11_3_6" points="322,185 327,180 330,180 330,190 327,190 322,185 " class="clusterblast-orf"  />
<polygon style="stroke:black; stroke-width:1; fill:#FFFFFF; " description="CMGC/CK2_protein_kinase[br]Location: 542819 - 544033" locus_tag="TEQG_00213" id="clusterblast-1_all_11_3_7" points="339,185 344,180 351,180 351,190 344,190 339,185 " class="clusterblast-orf"  />
<polygon style="stroke:black; stroke-width:1; fill:#FFFFFF; " description="sterigmatocystin_8-O-methyltransferase[br]Location: 544565 - 546067" locus_tag="TEQG_00214" id="clusterblast-1_all_11_3_8" points="356,185 361,180 371,180 371,190 361,190 356,185 " class="clusterblast-orf"  />
<polygon style="stroke:black; stroke-width:1; fill:#FFFFFF; " description="TdiA_protein[br]Location: 546844 - 549816" locus_tag="TEQG_00215" id="clusterblast-1_all_11_3_9" points="378,190 401,190 406,185 401,180 378,180 378,190 " class="clusterblast-orf"  />
<polygon style="stroke:black; stroke-width:1; fill:blue; " description="methyltransferase_B[br]Location: 550641 - 552056&lt;br&gt;&lt;br&gt;&lt;b&gt;BlastP hit with CHAFR746836_0080240.1&lt;/b&gt;&lt;br&gt;Percentage identity: 31%&lt;br&gt;Percentage coverage: 96%&lt;br&gt;BLAST bit score: 223&lt;br&gt;E-value: 4e-67" locus_tag="TEQG_00216" id="clusterblast-1_all_11_3_10" points="414,190 423,190 428,185 423,180 414,180 414,190 " class="clusterblast-orf"  />
<polygon style="stroke:black; stroke-width:1; fill:#FFFFFF; " description="trichodiene_oxygenase[br]Location: 552567 - 554315" locus_tag="TEQG_00217" id="clusterblast-1_all_11_3_11" points="433,190 444,190 449,185 444,180 433,180 433,190 " class="clusterblast-orf"  />
<polygon style="stroke:black; stroke-width:1; fill:#FFFFFF; " description="hypothetical_protein[br]Location: 555063 - 556297" locus_tag="TEQG_00218" id="clusterblast-1_all_11_3_12" points="457,190 463,190 468,185 463,180 457,180 457,190 " class="clusterblast-orf"  />
<polygon style="stroke:black; stroke-width:1; fill:red; " description="MFS_transporter[br]Location: 556750 - 558738&lt;br&gt;&lt;br&gt;&lt;b&gt;BlastP hit with CHAFR746836_0080200.1&lt;/b&gt;&lt;br&gt;Percentage identity: 31%&lt;br&gt;Percentage coverage: 81%&lt;br&gt;BLAST bit score: 151&lt;br&gt;E-value: 2e-38" locus_tag="TEQG_00219" id="clusterblast-1_all_11_3_13" points="473,185 478,180 492,180 492,190 478,190 473,185 " class="clusterblast-orf"  />
<polygon style="stroke:black; stroke-width:1; fill:#FFFFFF; " description="NmrA_family_protein[br]Location: 559467 - 560423" locus_tag="TEQG_00220" id="clusterblast-1_all_11_3_14" points="499,190 503,190 508,185 503,180 499,180 499,190 " class="clusterblast-orf"  />
<polygon style="stroke:black; stroke-width:1; fill:#FFFFFF; " description="hypothetical_protein[br]Location: 560517 - 562181" locus_tag="TEQG_00221" id="clusterblast-1_all_11_3_15" points="509,185 514,180 525,180 525,190 514,190 509,185 " class="clusterblast-orf"  />
<polygon style="stroke:black; stroke-width:1; fill:#FFFFFF; " description="ribonuclease_P_protein_subunit_p30[br]Location: 563024 - 564047" locus_tag="TEQG_00222" id="clusterblast-1_all_11_3_16" points="533,190 538,190 543,185 538,180 533,180 533,190 " class="clusterblast-orf"  />
<polygon style="stroke:black; stroke-width:1; fill:#FFFFFF; " description="hypothetical_protein[br]Location: 564994 - 569967" locus_tag="TEQG_00223" id="clusterblast-1_all_11_3_17" points="552,190 594,190 599,185 594,180 552,180 552,190 " class="clusterblast-orf"  />
</g>
<g class="clusterblast-cluster" description="Trichophyton tonsurans CBS 112818 genomic scaffold supercont..." label="GG698491.1_c1"  >
<text class="clusterblast-acc" y="210" x="5"  >
GG698491.1_c1</text>
<text class="clusterblast-desc" y="210" x="460.8"  >
Trichophyton tonsurans CBS 112818 genomic scaffold supercont...</text>
<line y1="235" x2="778.0" style="stroke:grey; stroke-width:1; " x1="10" y2="235"  />
<polygon style="stroke:black; stroke-width:1; fill:#FFFFFF; " description="hypothetical_protein[br]Location: 261334 - 266310" locus_tag="TESG_03442" id="clusterblast-1_all_11_4_0" points="187,235 192,230 234,230 234,240 192,240 187,235 " class="clusterblast-orf"  />
<polygon style="stroke:black; stroke-width:1; fill:#FFFFFF; " description="ribonuclease_P_complex_subunit_Pop2[br]Location: 267278 - 268301" locus_tag="TESG_03443" id="clusterblast-1_all_11_4_1" points="243,235 248,230 253,230 253,240 248,240 243,235 " class="clusterblast-orf"  />
<polygon style="stroke:black; stroke-width:1; fill:#FFFFFF; " description="hypothetical_protein[br]Location: 269142 - 270587" locus_tag="TESG_03444" id="clusterblast-1_all_11_4_2" points="261,240 270,240 275,235 270,230 261,230 261,240 " class="clusterblast-orf"  />
<polygon style="stroke:black; stroke-width:1; fill:#FFFFFF; " description="hypothetical_protein[br]Location: 270893 - 271624" locus_tag="TESG_03445" id="clusterblast-1_all_11_4_3" points="278,235 283,230 285,230 285,240 283,240 278,235 " class="clusterblast-orf"  />
<polygon style="stroke:black; stroke-width:1; fill:red; " description="hypothetical_protein[br]Location: 272578 - 274566&lt;br&gt;&lt;br&gt;&lt;b&gt;BlastP hit with CHAFR746836_0080200.1&lt;/b&gt;&lt;br&gt;Percentage identity: 31%&lt;br&gt;Percentage coverage: 81%&lt;br&gt;BLAST bit score: 147&lt;br&gt;E-value: 5e-37" locus_tag="TESG_03446" id="clusterblast-1_all_11_4_4" points="294,240 308,240 313,235 308,230 294,230 294,240 " class="clusterblast-orf"  />
<polygon style="stroke:black; stroke-width:1; fill:#FFFFFF; " description="hypothetical_protein[br]Location: 275019 - 276254" locus_tag="TESG_03447" id="clusterblast-1_all_11_4_5" points="317,235 322,230 329,230 329,240 322,240 317,235 " class="clusterblast-orf"  />
<polygon style="stroke:black; stroke-width:1; fill:#FFFFFF; " description="hypothetical_protein[br]Location: 277002 - 278750" locus_tag="TESG_03448" id="clusterblast-1_all_11_4_6" points="336,235 341,230 353,230 353,240 341,240 336,235 " class="clusterblast-orf"  />
<polygon style="stroke:black; stroke-width:1; fill:blue; " description="hypothetical_protein[br]Location: 279261 - 280676&lt;br&gt;&lt;br&gt;&lt;b&gt;BlastP hit with CHAFR746836_0080240.1&lt;/b&gt;&lt;br&gt;Percentage identity: 31%&lt;br&gt;Percentage coverage: 96%&lt;br&gt;BLAST bit score: 223&lt;br&gt;E-value: 4e-67" locus_tag="TESG_03449" id="clusterblast-1_all_11_4_7" points="358,235 363,230 372,230 372,240 363,240 358,235 " class="clusterblast-orf"  />
<polygon style="stroke:black; stroke-width:1; fill:#FFFFFF; " description="hypothetical_protein[br]Location: 281501 - 284473" locus_tag="TESG_03450" id="clusterblast-1_all_11_4_8" points="379,235 384,230 408,230 408,240 384,240 379,235 " class="clusterblast-orf"  />
<polygon style="stroke:black; stroke-width:1; fill:#FFFFFF; " description="hypothetical_protein[br]Location: 285250 - 286752" locus_tag="TESG_03451" id="clusterblast-1_all_11_4_9" points="415,240 425,240 430,235 425,230 415,230 415,240 " class="clusterblast-orf"  />
<polygon style="stroke:black; stroke-width:1; fill:#FFFFFF; " description="CMGC/CK2_protein_kinase[br]Location: 287284 - 288497" locus_tag="TESG_03452" id="clusterblast-1_all_11_4_10" points="435,240 441,240 446,235 441,230 435,230 435,240 " class="clusterblast-orf"  />
<polygon style="stroke:black; stroke-width:1; fill:#FFFFFF; " description="serine/threonine_protein_kinase[br]Location: 289573 - 290613" locus_tag="TESG_03453" id="clusterblast-1_all_11_4_11" points="457,240 462,240 467,235 462,230 457,230 457,240 " class="clusterblast-orf"  />
<polygon style="stroke:black; stroke-width:1; fill:#FFFFFF; " description="hypothetical_protein[br]Location: 290863 - 291224" locus_tag="TESG_03454" id="clusterblast-1_all_11_4_12" points="469,235 472,230 472,240 469,235 " class="clusterblast-orf"  />
<polygon style="stroke:black; stroke-width:1; fill:#FFFFFF; " description="hypothetical_protein[br]Location: 292898 - 295390" locus_tag="TESG_03455" id="clusterblast-1_all_11_4_13" points="489,235 494,230 512,230 512,240 494,240 489,235 " class="clusterblast-orf"  />
<polygon style="stroke:black; stroke-width:1; fill:#FFFFFF; " description="hypothetical_protein[br]Location: 295993 - 296743" locus_tag="TESG_03456" id="clusterblast-1_all_11_4_14" points="518,240 520,240 525,235 520,230 518,230 518,240 " class="clusterblast-orf"  />
<polygon style="stroke:black; stroke-width:1; fill:#FFFFFF; " description="valyl-tRNA_synthetase[br]Location: 297209 - 300600" locus_tag="TESG_03457" id="clusterblast-1_all_11_4_15" points="530,240 557,240 562,235 557,230 530,230 530,240 " class="clusterblast-orf"  />
<polygon style="stroke:black; stroke-width:1; fill:#FFFFFF; " description="hypothetical_protein[br]Location: 300785 - 301827" locus_tag="TESG_03458" id="clusterblast-1_all_11_4_16" points="564,235 569,230 574,230 574,240 569,240 564,235 " class="clusterblast-orf"  />
<polygon style="stroke:black; stroke-width:1; fill:#FFFFFF; " description="hypothetical_protein[br]Location: 303065 - 304482" locus_tag="TESG_03459" id="clusterblast-1_all_11_4_17" points="586,240 594,240 599,235 594,230 586,230 586,240 " class="clusterblast-orf"  />
</g>
<g class="clusterblast-cluster" description="Cordyceps militaris CM01 unplaced genomic scaffold CCM S0000..." label="JH126399.1_c7"  >
<text class="clusterblast-acc" y="260" x="5"  >
JH126399.1_c7</text>
<text class="clusterblast-desc" y="260" x="460.8"  >
Cordyceps militaris CM01 unplaced genomic scaffold CCM S0000...</text>
<line y1="285" x2="778.0" style="stroke:grey; stroke-width:1; " x1="10" y2="285"  />
<polygon style="stroke:black; stroke-width:1; fill:#FFFFFF; " description="homeoprotein[br]Location: 6193555 - 6195548" locus_tag="CCM_01917" id="clusterblast-1_all_11_5_0" points="179,290 193,290 198,285 193,280 179,280 179,290 " class="clusterblast-orf"  />
<polygon style="stroke:black; stroke-width:1; fill:#FFFFFF; " description="haloacid_dehalogenase-like_hydrolase,_putative[br]Location: 6197165 - 6201793" locus_tag="CCM_01918" id="clusterblast-1_all_11_5_1" points="213,290 252,290 257,285 252,280 213,280 213,290 " class="clusterblast-orf"  />
<polygon style="stroke:black; stroke-width:1; fill:#FFFFFF; " description="CFEM_domain-containing_protein[br]Location: 6203352 - 6204618" locus_tag="CCM_01919" id="clusterblast-1_all_11_5_2" points="272,290 279,290 284,285 279,280 272,280 272,290 " class="clusterblast-orf"  />
<polygon style="stroke:black; stroke-width:1; fill:#FFFFFF; " description="ATP-dependent_bile_acid_permease[br]Location: 6204942 - 6210764" locus_tag="CCM_01920" id="clusterblast-1_all_11_5_3" points="287,285 292,280 343,280 343,290 292,290 287,285 " class="clusterblast-orf"  />
<polygon style="stroke:black; stroke-width:1; fill:#FFFFFF; " description="polyketide_synthase,_putative[br]Location: 6211521 - 6218454" locus_tag="CCM_01921" id="clusterblast-1_all_11_5_4" points="350,285 355,280 417,280 417,290 355,290 350,285 " class="clusterblast-orf"  />
<polygon style="stroke:black; stroke-width:1; fill:#FFFFFF; " description="Fungal_transcriptional_regulatory_protein[br]Location: 6219787 - 6220898" locus_tag="CCM_01922" id="clusterblast-1_all_11_5_5" points="429,285 434,280 440,280 440,290 434,290 429,285 " class="clusterblast-orf"  />
<polygon style="stroke:black; stroke-width:1; fill:blue; " description="hydroxyindole_O-methyltransferase,_putative[br]Location: 6222197 - 6223525&lt;br&gt;&lt;br&gt;&lt;b&gt;BlastP hit with CHAFR746836_0080240.1&lt;/b&gt;&lt;br&gt;Percentage identity: 31%&lt;br&gt;Percentage coverage: 55%&lt;br&gt;BLAST bit score: 84&lt;br&gt;E-value: 1e-16" locus_tag="CCM_01923" id="clusterblast-1_all_11_5_6" points="453,285 458,280 465,280 465,290 458,290 453,285 " class="clusterblast-orf"  />
<polygon style="stroke:black; stroke-width:1; fill:#FFFFFF; " description="conidial_pigment_biosynthesis_oxidase[br]Location: 6224000 - 6226174" locus_tag="CCM_01924" id="clusterblast-1_all_11_5_7" points="470,290 486,290 491,285 486,280 470,280 470,290 " class="clusterblast-orf"  />
<polygon style="stroke:black; stroke-width:1; fill:#FFFFFF; " description="carboxylesterase_family_protein[br]Location: 6227178 - 6228996" locus_tag="CCM_01925" id="clusterblast-1_all_11_5_8" points="500,290 513,290 518,285 513,280 500,280 500,290 " class="clusterblast-orf"  />
<polygon style="stroke:black; stroke-width:1; fill:#FFFFFF; " description="short_chain_dehydrogenase/reductase[br]Location: 6230579 - 6231627" locus_tag="CCM_01926" id="clusterblast-1_all_11_5_9" points="533,285 538,280 543,280 543,290 538,290 533,285 " class="clusterblast-orf"  />
<polygon style="stroke:black; stroke-width:1; fill:red; " description="MFS_transporter,_putative[br]Location: 6232248 - 6234158&lt;br&gt;&lt;br&gt;&lt;b&gt;BlastP hit with CHAFR746836_0080200.1&lt;/b&gt;&lt;br&gt;Percentage identity: 31%&lt;br&gt;Percentage coverage: 70%&lt;br&gt;BLAST bit score: 178&lt;br&gt;E-value: 4e-47" locus_tag="CCM_01927" id="clusterblast-1_all_11_5_10" points="549,290 562,290 567,285 562,280 549,280 549,290 " class="clusterblast-orf"  />
<polygon style="stroke:black; stroke-width:1; fill:#FFFFFF; " description="hypothetical_protein[br]Location: 6236515 - 6238290" locus_tag="CCM_01928" id="clusterblast-1_all_11_5_11" points="590,285 595,280 607,280 607,290 595,290 590,285 " class="clusterblast-orf"  />
</g>
</svg>
