<svg xmlns="http://www.w3.org/2000/svg" height="230" width="800" version="1.1" y="0" x="0" preserveAspectRatio="none" xmlns:xlink="http://www.w3.org/1999/xlink" viewBox="0 0 800 230"  >
<g class="clusterblast-cluster" label="Query sequence"  >
<text class="clusterblast-acc" y="10" x="5"  >
Query sequence</text>
<line y1="35" x2="778.0" style="stroke:grey; stroke-width:1; " x1="10" y2="35"  />
<polygon style="stroke:black; stroke-width:1; fill:rgb(190,63,63); " description="unannotated orf[br]Location: 74290 - 75458" locus_tag="CHAFR746836_0084510.1" class="clusterblast-orf" points="270,40 282,40 287,35 282,30 270,30 270,40 " id="clusterblast-1_q15_6_0"  />
<polygon style="stroke:black; stroke-width:1; fill:#FFFFFF; " description="unannotated orf[br]Location: 75669 - 76875" locus_tag="CHAFR746836_0084520.1" class="clusterblast-orf" points="290,35 295,30 308,30 308,40 295,40 290,35 " id="clusterblast-1_q15_6_1"  />
<polygon style="stroke:black; stroke-width:1; fill:rgb(63,63,190); " description="unannotated orf[br]Location: 78561 - 80604" locus_tag="CHAFR746836_0084530.1" class="clusterblast-orf" points="334,35 339,30 364,30 364,40 339,40 334,35 " id="clusterblast-1_q15_6_2"  />
<polygon style="stroke:black; stroke-width:1; fill:rgb(63,190,63); " description="unannotated orf[br]Location: 81404 - 83288" locus_tag="CHAFR746836_0084540.1" class="clusterblast-orf" points="376,40 399,40 404,35 399,30 376,30 376,40 " id="clusterblast-1_q15_6_3"  />
<polygon style="stroke:black; stroke-width:1; fill:rgb(190,63,190); " description="unannotated orf[br]Location: 83676 - 85677" locus_tag="CHAFR746836_0084550.1" class="clusterblast-orf" points="410,40 435,40 440,35 435,30 410,30 410,40 " id="clusterblast-1_q15_6_4"  />
<polygon style="stroke:black; stroke-width:1; fill:rgb(190,190,63); " description="unannotated orf[br]Location: 86720 - 88095" locus_tag="CHAFR746836_0084560.1" class="clusterblast-orf" points="456,40 472,40 477,35 472,30 456,30 456,40 " id="clusterblast-1_q15_6_5"  />
<polygon style="stroke:black; stroke-width:1; fill:#FFFFFF; " description="unannotated orf[br]Location: 88452 - 90694" locus_tag="CHAFR746836_0084570.1" class="clusterblast-orf" points="482,35 487,30 516,30 516,40 487,40 482,35 " id="clusterblast-1_q15_6_6"  />
</g>
<g class="clusterblast-cluster" description="Aspergillus kawachii IFO 4308 DNA, contig: scaffold00010, wh..." label="DF126456.1_c1"  >
<text class="clusterblast-acc" y="60" x="5"  >
DF126456.1_c1</text>
<text class="clusterblast-desc" y="60" x="460.8"  >
Aspergillus kawachii IFO 4308 DNA, contig: scaffold00010, wh...</text>
<line y1="85" x2="778.0" style="stroke:grey; stroke-width:1; " x1="10" y2="85"  />
<polygon style="stroke:black; stroke-width:1; fill:#FFFFFF; " description="hypothetical_protein[br]Location: 961723 - 962175" locus_tag="AKAW_04744" id="clusterblast-1_h15_6_0" points="10,85 15,80 16,80 16,90 15,90 10,85 " class="clusterblast-orf"  />
<polygon style="stroke:black; stroke-width:1; fill:#FFFFFF; " description="hypothetical_protein[br]Location: 964771 - 966980" locus_tag="AKAW_04745" id="clusterblast-1_h15_6_1" points="55,90 83,90 88,85 83,80 55,80 55,90 " class="clusterblast-orf"  />
<polygon style="stroke:black; stroke-width:1; fill:#FFFFFF; " description="saponin_hydrolase_precursor[br]Location: 969219 - 971114" locus_tag="AKAW_04746" id="clusterblast-1_h15_6_2" points="122,90 145,90 150,85 145,80 122,80 122,90 " class="clusterblast-orf"  />
<polygon style="stroke:black; stroke-width:1; fill:#FFFFFF; " description="similar_to_short-chain_dehydrogenase[br]Location: 972718 - 973639" locus_tag="AKAW_04747" id="clusterblast-1_h15_6_3" points="174,90 183,90 188,85 183,80 174,80 174,90 " class="clusterblast-orf"  />
<polygon style="stroke:black; stroke-width:1; fill:#FFFFFF; " description="alcohol_dehydrogenase[br]Location: 973821 - 975026" locus_tag="AKAW_04748" id="clusterblast-1_h15_6_4" points="191,85 196,80 209,80 209,90 196,90 191,85 " class="clusterblast-orf"  />
<polygon style="stroke:black; stroke-width:1; fill:#FFFFFF; " description="AMP_dependent_CoA_ligase[br]Location: 975486 - 976433" locus_tag="AKAW_04749" id="clusterblast-1_h15_6_5" points="216,85 221,80 230,80 230,90 221,90 216,85 " class="clusterblast-orf"  />
<polygon style="stroke:black; stroke-width:1; fill:rgb(63,63,190); " description="9-cis-epoxycarotenoid_dioxygenase[br]Location: 977979 - 979872&lt;br&gt;&lt;br&gt;&lt;b&gt;BlastP hit with CHAFR746836_0084530.1&lt;/b&gt;&lt;br&gt;Percentage identity: 48%&lt;br&gt;Percentage coverage: 50%&lt;br&gt;BLAST bit score: 295&lt;br&gt;E-value: 4e-90" locus_tag="AKAW_04750" id="clusterblast-1_h15_6_6" points="253,85 258,80 282,80 282,90 258,90 253,85 " class="clusterblast-orf"  />
<polygon style="stroke:black; stroke-width:1; fill:rgb(63,190,63); " description="phytoene_synthase[br]Location: 981544 - 982403&lt;br&gt;&lt;br&gt;&lt;b&gt;BlastP hit with CHAFR746836_0084540.1&lt;/b&gt;&lt;br&gt;Percentage identity: 39%&lt;br&gt;Percentage coverage: 47%&lt;br&gt;BLAST bit score: 179&lt;br&gt;E-value: 6e-50" locus_tag="AKAW_04751" id="clusterblast-1_h15_6_7" points="307,90 315,90 320,85 315,80 307,80 307,90 " class="clusterblast-orf"  />
<polygon style="stroke:black; stroke-width:1; fill:rgb(190,63,190); " description="phytoene_dehydrogenase[br]Location: 983422 - 985272&lt;br&gt;&lt;br&gt;&lt;b&gt;BlastP hit with CHAFR746836_0084550.1&lt;/b&gt;&lt;br&gt;Percentage identity: 51%&lt;br&gt;Percentage coverage: 86%&lt;br&gt;BLAST bit score: 550&lt;br&gt;E-value: 0.0" locus_tag="AKAW_04752" id="clusterblast-1_h15_6_8" points="335,90 358,90 363,85 358,80 335,80 335,90 " class="clusterblast-orf"  />
<polygon style="stroke:black; stroke-width:1; fill:rgb(190,63,190); " description="phytoene_dehydrogenase[br]Location: 987279 - 989084&lt;br&gt;&lt;br&gt;&lt;b&gt;BlastP hit with CHAFR746836_0084550.1&lt;/b&gt;&lt;br&gt;Percentage identity: 45%&lt;br&gt;Percentage coverage: 83%&lt;br&gt;BLAST bit score: 457&lt;br&gt;E-value: 6e-153" locus_tag="AKAW_04753" id="clusterblast-1_h15_6_9" points="393,85 398,80 420,80 420,90 398,90 393,85 " class="clusterblast-orf"  />
<polygon style="stroke:black; stroke-width:1; fill:#FFFFFF; " description="NRPS-like_enzyme[br]Location: 989898 - 993257" locus_tag="AKAW_04754" id="clusterblast-1_h15_6_10" points="432,90 477,90 482,85 477,80 432,80 432,90 " class="clusterblast-orf"  />
<polygon style="stroke:black; stroke-width:1; fill:#FFFFFF; " description="amidohydrolase[br]Location: 993685 - 995019" locus_tag="AKAW_04755" id="clusterblast-1_h15_6_11" points="489,90 504,90 509,85 504,80 489,80 489,90 " class="clusterblast-orf"  />
<polygon style="stroke:black; stroke-width:1; fill:#FFFFFF; " description="ribonuclease_Ms_(As_Ribonuclease_T1_Homologue)[br]Location: 995284 - 995752" locus_tag="AKAW_04756" id="clusterblast-1_h15_6_12" points="513,85 518,80 520,80 520,90 518,90 513,85 " class="clusterblast-orf"  />
<polygon style="stroke:black; stroke-width:1; fill:#FFFFFF; " description="homeobox_and_C2H2_transcription_factor[br]Location: 996651 - 998627" locus_tag="AKAW_04757" id="clusterblast-1_h15_6_13" points="533,85 538,80 563,80 563,90 538,90 533,85 " class="clusterblast-orf"  />
<polygon style="stroke:black; stroke-width:1; fill:#FFFFFF; " description="major_Facilitator_Superfamily_protein[br]Location: 1000058 - 1001878" locus_tag="AKAW_04758" id="clusterblast-1_h15_6_14" points="584,90 607,90 612,85 607,80 584,80 584,90 " class="clusterblast-orf"  />
<polygon style="stroke:black; stroke-width:1; fill:#FFFFFF; " description="hypothetical_protein[br]Location: 1003134 - 1003715" locus_tag="AKAW_04759" id="clusterblast-1_h15_6_15" points="631,90 634,90 639,85 634,80 631,80 631,90 " class="clusterblast-orf"  />
<polygon style="stroke:black; stroke-width:1; fill:#FFFFFF; " description="hypothetical_protein[br]Location: 1004034 - 1005581" locus_tag="AKAW_04760" id="clusterblast-1_h15_6_16" points="644,85 649,80 667,80 667,90 649,90 644,85 " class="clusterblast-orf"  />
<polygon style="stroke:black; stroke-width:1; fill:#FFFFFF; " description="hypothetical_protein[br]Location: 1007158 - 1007813" locus_tag="AKAW_04761" id="clusterblast-1_h15_6_17" points="691,90 696,90 701,85 696,80 691,80 691,90 " class="clusterblast-orf"  />
<polygon style="stroke:black; stroke-width:1; fill:#FFFFFF; " description="thioredoxin_reductase_GliT-like[br]Location: 1008573 - 1009630" locus_tag="AKAW_04762" id="clusterblast-1_h15_6_18" points="712,85 717,80 728,80 728,90 717,90 712,85 " class="clusterblast-orf"  />
<polygon style="stroke:black; stroke-width:1; fill:#FFFFFF; " description="hypothetical_protein[br]Location: 1012428 - 1012930" locus_tag="AKAW_04763" id="clusterblast-1_h15_6_19" points="770,85 775,80 778,80 778,90 775,90 770,85 " class="clusterblast-orf"  />
</g>
</svg>
