<svg xmlns="http://www.w3.org/2000/svg" height="230" width="800" version="1.1" y="0" x="0" preserveAspectRatio="none" xmlns:xlink="http://www.w3.org/1999/xlink" viewBox="0 0 800 230"  >
<g class="clusterblast-cluster" label="Query sequence"  >
<text class="clusterblast-acc" y="10" x="5"  >
Query sequence</text>
<line y1="35" x2="778.0" style="stroke:grey; stroke-width:1; " x1="10" y2="35"  />
<polygon style="stroke:black; stroke-width:1; fill:#FFFFFF; " description="unannotated orf[br]Location: 526 - 1764" locus_tag="CHAFR746836_0049830.1" class="clusterblast-orf" points="10,35 15,30 30,30 30,40 15,40 10,35 " id="clusterblast-1_q61_4_0"  />
<polygon style="stroke:black; stroke-width:1; fill:#FFFFFF; " description="unannotated orf[br]Location: 2667 - 6069" locus_tag="CHAFR746836_0049840.1" class="clusterblast-orf" points="44,40 95,40 100,35 95,30 44,30 44,40 " id="clusterblast-1_q61_4_1"  />
<polygon style="stroke:black; stroke-width:1; fill:#FFFFFF; " description="unannotated orf[br]Location: 8378 - 11086" locus_tag="CHAFR746836_0049850.1" class="clusterblast-orf" points="138,35 143,30 182,30 182,40 143,40 138,35 " id="clusterblast-1_q61_4_2"  />
<polygon style="stroke:black; stroke-width:1; fill:red; " description="unannotated orf[br]Location: 12115 - 13475" locus_tag="CHAFR746836_0049860.1" class="clusterblast-orf" points="198,40 216,40 221,35 216,30 198,30 198,40 " id="clusterblast-1_q61_4_3"  />
<polygon style="stroke:black; stroke-width:1; fill:#FFFFFF; " description="unannotated orf[br]Location: 17223 - 18472" locus_tag="CHAFR746836_0049870.1" class="clusterblast-orf" points="282,40 297,40 302,35 297,30 282,30 282,40 " id="clusterblast-1_q61_4_4"  />
<polygon style="stroke:black; stroke-width:1; fill:#FFFFFF; " description="unannotated orf[br]Location: 19776 - 20599" locus_tag="CHAFR746836_0049880.1" class="clusterblast-orf" points="323,35 328,30 337,30 337,40 328,40 323,35 " id="clusterblast-1_q61_4_5"  />
<polygon style="stroke:black; stroke-width:1; fill:green; " description="unannotated orf[br]Location: 21414 - 28833" locus_tag="CHAFR746836_0049890.1" class="clusterblast-orf" points="350,35 355,30 471,30 471,40 355,40 350,35 " id="clusterblast-1_q61_4_6"  />
<polygon style="stroke:black; stroke-width:1; fill:blue; " description="unannotated orf[br]Location: 33502 - 34522" locus_tag="CHAFR746836_0049900.1" class="clusterblast-orf" points="547,40 559,40 564,35 559,30 547,30 547,40 " id="clusterblast-1_q61_4_7"  />
<polygon style="stroke:black; stroke-width:1; fill:#FFFFFF; " description="unannotated orf[br]Location: 35396 - 36560" locus_tag="CHAFR746836_0049910.1" class="clusterblast-orf" points="578,35 583,30 597,30 597,40 583,40 578,35 " id="clusterblast-1_q61_4_8"  />
<polygon style="stroke:black; stroke-width:1; fill:#FFFFFF; " description="unannotated orf[br]Location: 43480 - 44101" locus_tag="CHAFR746836_0049920.1" class="clusterblast-orf" points="710,35 715,30 720,30 720,40 715,40 710,35 " id="clusterblast-1_q61_4_9"  />
<polygon style="stroke:black; stroke-width:1; fill:#FFFFFF; " description="unannotated orf[br]Location: 46657 - 47620" locus_tag="CHAFR746836_0049930.1" class="clusterblast-orf" points="762,35 767,30 778,30 778,40 767,40 762,35 " id="clusterblast-1_q61_4_10"  />
</g>
<g class="clusterblast-cluster" description="Aspergillus niger contig An12c0220, genomic contig." label="AM270278.1_c1"  >
<text class="clusterblast-acc" y="60" x="5"  >
AM270278.1_c1</text>
<text class="clusterblast-desc" y="60" x="460.8"  >
Aspergillus niger contig An12c0220, genomic contig.</text>
<line y1="85" x2="778.0" style="stroke:grey; stroke-width:1; " x1="10" y2="85"  />
<polygon style="stroke:black; stroke-width:1; fill:#FFFFFF; " description="[br]Location: 52537 - 54246" locus_tag="An12g07140" id="clusterblast-1_h61_4_0" points="11,90 33,90 38,85 33,80 11,80 11,90 " class="clusterblast-orf"  />
<polygon style="stroke:black; stroke-width:1; fill:#FFFFFF; " description="[br]Location: 50920 - 51987" locus_tag="An12g07130" id="clusterblast-1_h61_4_1" points="47,90 60,90 65,85 60,80 47,80 47,90 " class="clusterblast-orf"  />
<polygon style="stroke:black; stroke-width:1; fill:#FFFFFF; " description="unnamed[br]Location: 48472 - 50548" locus_tag="An12g07120" id="clusterblast-1_h61_4_2" points="71,85 76,80 105,80 105,90 76,90 71,85 " class="clusterblast-orf"  />
<polygon style="stroke:black; stroke-width:1; fill:#FFFFFF; " description="[br]Location: 41567 - 43672" locus_tag="An12g07110" id="clusterblast-1_h61_4_3" points="183,85 188,80 217,80 217,90 188,90 183,85 " class="clusterblast-orf"  />
<polygon style="stroke:black; stroke-width:1; fill:#FFFFFF; " description="[br]Location: 38626 - 39761" locus_tag="An12g07100" id="clusterblast-1_h61_4_4" points="247,90 260,90 265,85 260,80 247,80 247,90 " class="clusterblast-orf"  />
<polygon style="stroke:black; stroke-width:1; fill:#FFFFFF; " description="[br]Location: 35651 - 37079" locus_tag="An12g07090" id="clusterblast-1_h61_4_5" points="290,90 309,90 314,85 309,80 290,80 290,90 " class="clusterblast-orf"  />
<polygon style="stroke:black; stroke-width:1; fill:green; " description="5S_ribosomal_RNA[br]Location: 28213 - 35378&lt;br&gt;&lt;br&gt;&lt;b&gt;BlastP hit with CHAFR746836_0049890.1&lt;/b&gt;&lt;br&gt;Percentage identity: 46%&lt;br&gt;Percentage coverage: 90%&lt;br&gt;BLAST bit score: 1820&lt;br&gt;E-value: 0.0" locus_tag="An12g07070" id="clusterblast-1_h61_4_6" points="318,85 323,80 435,80 435,90 323,90 318,85 " class="clusterblast-orf"  />
<polygon style="stroke:black; stroke-width:1; fill:blue; " description="[br]Location: 26598 - 27527&lt;br&gt;&lt;br&gt;&lt;b&gt;BlastP hit with CHAFR746836_0049900.1&lt;/b&gt;&lt;br&gt;Percentage identity: 38%&lt;br&gt;Percentage coverage: 96%&lt;br&gt;BLAST bit score: 168&lt;br&gt;E-value: 2e-49" locus_tag="An12g07060" id="clusterblast-1_h61_4_7" points="446,90 456,90 461,85 456,80 446,80 446,90 " class="clusterblast-orf"  />
<polygon style="stroke:black; stroke-width:1; fill:blue; " description="unnamed[br]Location: 25361 - 26347&lt;br&gt;&lt;br&gt;&lt;b&gt;BlastP hit with CHAFR746836_0049900.1&lt;/b&gt;&lt;br&gt;Percentage identity: 37%&lt;br&gt;Percentage coverage: 97%&lt;br&gt;BLAST bit score: 166&lt;br&gt;E-value: 2e-48" locus_tag="An12g07050" id="clusterblast-1_h61_4_8" points="465,90 477,90 482,85 477,80 465,80 465,90 " class="clusterblast-orf"  />
<polygon style="stroke:black; stroke-width:1; fill:#FFFFFF; " description="[br]Location: 24086 - 24832" locus_tag="An12g07040" id="clusterblast-1_h61_4_9" points="490,85 495,80 502,80 502,90 495,90 490,85 " class="clusterblast-orf"  />
<polygon style="stroke:black; stroke-width:1; fill:#FFFFFF; " description="unnamed[br]Location: 22216 - 23211" locus_tag="An12g07030" id="clusterblast-1_h61_4_10" points="517,85 522,80 533,80 533,90 522,90 517,85 " class="clusterblast-orf"  />
<polygon style="stroke:black; stroke-width:1; fill:#FFFFFF; " description="[br]Location: 20407 - 21672" locus_tag="An12g07020" id="clusterblast-1_h61_4_11" points="542,90 557,90 562,85 557,80 542,80 542,90 " class="clusterblast-orf"  />
<polygon style="stroke:black; stroke-width:1; fill:#FFFFFF; " description="5S_ribosomal_RNA[br]Location: 18046 - 19026" locus_tag="An12g07000" id="clusterblast-1_h61_4_12" points="585,90 596,90 601,85 596,80 585,80 585,90 " class="clusterblast-orf"  />
<polygon style="stroke:black; stroke-width:1; fill:#FFFFFF; " description="[br]Location: 17603 - 17871" locus_tag="An12g06990" id="clusterblast-1_h61_4_13" points="604,85 608,80 608,90 604,85 " class="clusterblast-orf"  />
<polygon style="stroke:black; stroke-width:1; fill:#FFFFFF; " description="[br]Location: 15996 - 16549" locus_tag="An12g06980" id="clusterblast-1_h61_4_14" points="625,85 630,80 634,80 634,90 630,90 625,85 " class="clusterblast-orf"  />
<polygon style="stroke:black; stroke-width:1; fill:#FFFFFF; " description="[br]Location: 13980 - 14777" locus_tag="An12g06970" id="clusterblast-1_h61_4_15" points="654,90 662,90 667,85 662,80 654,80 654,90 " class="clusterblast-orf"  />
<polygon style="stroke:black; stroke-width:1; fill:#FFFFFF; " description="[br]Location: 12286 - 13589" locus_tag="An12g06960" id="clusterblast-1_h61_4_16" points="674,85 679,80 695,80 695,90 679,90 674,85 " class="clusterblast-orf"  />
<polygon style="stroke:black; stroke-width:1; fill:#FFFFFF; " description="unnamed[br]Location: 10370 - 11992" locus_tag="An12g06940" id="clusterblast-1_h61_4_17" points="700,85 705,80 726,80 726,90 705,90 700,85 " class="clusterblast-orf"  />
<polygon style="stroke:black; stroke-width:1; fill:#FFFFFF; " description="extracellular_alpha-amylase[br]Location: 7374 - 9415" locus_tag="An12g06930" id="clusterblast-1_h61_4_18" points="742,90 770,90 775,85 770,80 742,80 742,90 " class="clusterblast-orf"  />
</g>
</svg>
