<svg xmlns="http://www.w3.org/2000/svg" height="230" width="800" version="1.1" y="0" x="0" preserveAspectRatio="none" xmlns:xlink="http://www.w3.org/1999/xlink" viewBox="0 0 800 230"  >
<g class="clusterblast-cluster" label="Query sequence"  >
<text class="clusterblast-acc" y="10" x="5"  >
Query sequence</text>
<line y1="35" x2="778.0" style="stroke:grey; stroke-width:1; " x1="10" y2="35"  />
<polygon style="stroke:black; stroke-width:1; fill:#FFFFFF; " description="unannotated orf[br]Location: 5189 - 6389" locus_tag="CHAFR746836_0080190.1" class="clusterblast-orf" points="270,35 275,30 291,30 291,40 275,40 270,35 " id="clusterblast-1_q11_3_0"  />
<polygon style="stroke:black; stroke-width:1; fill:red; " description="unannotated orf[br]Location: 7072 - 8707" locus_tag="CHAFR746836_0080200.1" class="clusterblast-orf" points="303,35 308,30 332,30 332,40 308,40 303,35 " id="clusterblast-1_q11_3_1"  />
<polygon style="stroke:black; stroke-width:1; fill:#FFFFFF; " description="unannotated orf[br]Location: 9665 - 11576" locus_tag="CHAFR746836_0080210.1" class="clusterblast-orf" points="349,35 354,30 383,30 383,40 354,40 349,35 " id="clusterblast-1_q11_3_2"  />
<polygon style="stroke:black; stroke-width:1; fill:green; " description="unannotated orf[br]Location: 12176 - 14455" locus_tag="CHAFR746836_0080220.1" class="clusterblast-orf" points="394,40 429,40 434,35 429,30 394,30 394,40 " id="clusterblast-1_q11_3_3"  />
<polygon style="stroke:black; stroke-width:1; fill:#FFFFFF; " description="unannotated orf[br]Location: 16174 - 17543" locus_tag="CHAFR746836_0080230.1" class="clusterblast-orf" points="465,40 484,40 489,35 484,30 465,30 465,40 " id="clusterblast-1_q11_3_4"  />
<polygon style="stroke:black; stroke-width:1; fill:blue; " description="unannotated orf[br]Location: 17828 - 19091" locus_tag="CHAFR746836_0080240.1" class="clusterblast-orf" points="495,35 500,30 517,30 517,40 500,40 495,35 " id="clusterblast-1_q11_3_5"  />
</g>
<g class="clusterblast-cluster" description="Trichophyton equinum CBS 127.97 supercont1.1 genomic scaffol..." label="DS995718.1_c2"  >
<text class="clusterblast-acc" y="60" x="5"  >
DS995718.1_c2</text>
<text class="clusterblast-desc" y="60" x="460.8"  >
Trichophyton equinum CBS 127.97 supercont1.1 genomic scaffol...</text>
<line y1="85" x2="778.0" style="stroke:grey; stroke-width:1; " x1="10" y2="85"  />
<polygon style="stroke:black; stroke-width:1; fill:#FFFFFF; " description="hypothetical_protein[br]Location: 526835 - 528252" locus_tag="TEQG_00207" id="clusterblast-1_h11_3_0" points="10,85 15,80 35,80 35,90 15,90 10,85 " class="clusterblast-orf"  />
<polygon style="stroke:black; stroke-width:1; fill:#FFFFFF; " description="hypothetical_protein[br]Location: 529490 - 530532" locus_tag="TEQG_00208" id="clusterblast-1_h11_3_1" points="57,90 70,90 75,85 70,80 57,80 57,90 " class="clusterblast-orf"  />
<polygon style="stroke:black; stroke-width:1; fill:#FFFFFF; " description="valyl-tRNA_synthetase[br]Location: 530717 - 534106" locus_tag="TEQG_00209" id="clusterblast-1_h11_3_2" points="79,85 84,80 139,80 139,90 84,90 79,85 " class="clusterblast-orf"  />
<polygon style="stroke:black; stroke-width:1; fill:#FFFFFF; " description="hypothetical_protein[br]Location: 534572 - 535325" locus_tag="TEQG_00210" id="clusterblast-1_h11_3_3" points="147,85 152,80 161,80 161,90 152,90 147,85 " class="clusterblast-orf"  />
<polygon style="stroke:black; stroke-width:1; fill:#FFFFFF; " description="hypothetical_protein[br]Location: 535928 - 538417" locus_tag="TEQG_00211" id="clusterblast-1_h11_3_4" points="171,90 211,90 216,85 211,80 171,80 171,90 " class="clusterblast-orf"  />
<polygon style="stroke:black; stroke-width:1; fill:#FFFFFF; " description="hypothetical_protein[br]Location: 540090 - 540415" locus_tag="TEQG_08568" id="clusterblast-1_h11_3_5" points="246,90 246,90 251,85 246,80 246,80 246,90 " class="clusterblast-orf"  />
<polygon style="stroke:black; stroke-width:1; fill:#FFFFFF; " description="serine/threonine_protein_kinase[br]Location: 540959 - 541863" locus_tag="TEQG_00212" id="clusterblast-1_h11_3_6" points="261,85 266,80 277,80 277,90 266,90 261,85 " class="clusterblast-orf"  />
<polygon style="stroke:black; stroke-width:1; fill:#FFFFFF; " description="CMGC/CK2_protein_kinase[br]Location: 542819 - 544033" locus_tag="TEQG_00213" id="clusterblast-1_h11_3_7" points="294,85 299,80 316,80 316,90 299,90 294,85 " class="clusterblast-orf"  />
<polygon style="stroke:black; stroke-width:1; fill:#FFFFFF; " description="sterigmatocystin_8-O-methyltransferase[br]Location: 544565 - 546067" locus_tag="TEQG_00214" id="clusterblast-1_h11_3_8" points="325,85 330,80 352,80 352,90 330,90 325,85 " class="clusterblast-orf"  />
<polygon style="stroke:black; stroke-width:1; fill:#FFFFFF; " description="TdiA_protein[br]Location: 546844 - 549816" locus_tag="TEQG_00215" id="clusterblast-1_h11_3_9" points="366,90 414,90 419,85 414,80 366,80 366,90 " class="clusterblast-orf"  />
<polygon style="stroke:black; stroke-width:1; fill:blue; " description="methyltransferase_B[br]Location: 550641 - 552056&lt;br&gt;&lt;br&gt;&lt;b&gt;BlastP hit with CHAFR746836_0080240.1&lt;/b&gt;&lt;br&gt;Percentage identity: 31%&lt;br&gt;Percentage coverage: 96%&lt;br&gt;BLAST bit score: 223&lt;br&gt;E-value: 4e-67" locus_tag="TEQG_00216" id="clusterblast-1_h11_3_10" points="433,90 454,90 459,85 454,80 433,80 433,90 " class="clusterblast-orf"  />
<polygon style="stroke:black; stroke-width:1; fill:#FFFFFF; " description="trichodiene_oxygenase[br]Location: 552567 - 554315" locus_tag="TEQG_00217" id="clusterblast-1_h11_3_11" points="468,90 494,90 499,85 494,80 468,80 468,90 " class="clusterblast-orf"  />
<polygon style="stroke:black; stroke-width:1; fill:#FFFFFF; " description="hypothetical_protein[br]Location: 555063 - 556297" locus_tag="TEQG_00218" id="clusterblast-1_h11_3_12" points="512,90 529,90 534,85 529,80 512,80 512,90 " class="clusterblast-orf"  />
<polygon style="stroke:black; stroke-width:1; fill:red; " description="MFS_transporter[br]Location: 556750 - 558738&lt;br&gt;&lt;br&gt;&lt;b&gt;BlastP hit with CHAFR746836_0080200.1&lt;/b&gt;&lt;br&gt;Percentage identity: 31%&lt;br&gt;Percentage coverage: 81%&lt;br&gt;BLAST bit score: 151&lt;br&gt;E-value: 2e-38" locus_tag="TEQG_00219" id="clusterblast-1_h11_3_13" points="542,85 547,80 578,80 578,90 547,90 542,85 " class="clusterblast-orf"  />
<polygon style="stroke:black; stroke-width:1; fill:#FFFFFF; " description="NmrA_family_protein[br]Location: 559467 - 560423" locus_tag="TEQG_00220" id="clusterblast-1_h11_3_14" points="591,90 603,90 608,85 603,80 591,80 591,90 " class="clusterblast-orf"  />
<polygon style="stroke:black; stroke-width:1; fill:#FFFFFF; " description="hypothetical_protein[br]Location: 560517 - 562181" locus_tag="TEQG_00221" id="clusterblast-1_h11_3_15" points="609,85 614,80 639,80 639,90 614,90 609,85 " class="clusterblast-orf"  />
<polygon style="stroke:black; stroke-width:1; fill:#FFFFFF; " description="ribonuclease_P_protein_subunit_p30[br]Location: 563024 - 564047" locus_tag="TEQG_00222" id="clusterblast-1_h11_3_16" points="654,90 667,90 672,85 667,80 654,80 654,90 " class="clusterblast-orf"  />
<polygon style="stroke:black; stroke-width:1; fill:#FFFFFF; " description="hypothetical_protein[br]Location: 564994 - 569967" locus_tag="TEQG_00223" id="clusterblast-1_h11_3_17" points="689,90 773,90 778,85 773,80 689,80 689,90 " class="clusterblast-orf"  />
</g>
</svg>
