<svg xmlns="http://www.w3.org/2000/svg" height="230" width="800" version="1.1" y="0" x="0" preserveAspectRatio="none" xmlns:xlink="http://www.w3.org/1999/xlink" viewBox="0 0 800 230"  >
<g class="clusterblast-cluster" label="Query sequence"  >
<text class="clusterblast-acc" y="10" x="5"  >
Query sequence</text>
<line y1="35" x2="778.0" style="stroke:grey; stroke-width:1; " x1="10" y2="35"  />
<polygon style="stroke:black; stroke-width:1; fill:#FFFFFF; " description="unannotated orf[br]Location: 26332 - 27454" locus_tag="CHAFR746836_0031510.1" class="clusterblast-orf" points="10,35 15,30 23,30 23,40 15,40 10,35 " id="clusterblast-1_q43_4_0"  />
<polygon style="stroke:black; stroke-width:1; fill:#FFFFFF; " description="unannotated orf[br]Location: 28016 - 30730" locus_tag="CHAFR746836_0031520.1" class="clusterblast-orf" points="30,35 35,30 62,30 62,40 35,40 30,35 " id="clusterblast-1_q43_4_1"  />
<polygon style="stroke:black; stroke-width:1; fill:rgb(190,63,63); " description="unannotated orf[br]Location: 32876 - 35300" locus_tag="CHAFR746836_0031530.1" class="clusterblast-orf" points="88,35 93,30 117,30 117,40 93,40 88,35 " id="clusterblast-1_q43_4_2"  />
<polygon style="stroke:black; stroke-width:1; fill:#FFFFFF; " description="unannotated orf[br]Location: 36022 - 38283" locus_tag="CHAFR746836_0031540.1" class="clusterblast-orf" points="126,35 131,30 153,30 153,40 131,40 126,35 " id="clusterblast-1_q43_4_3"  />
<polygon style="stroke:black; stroke-width:1; fill:#FFFFFF; " description="unannotated orf[br]Location: 39348 - 40508" locus_tag="CHAFR746836_0031550.1" class="clusterblast-orf" points="165,35 170,30 179,30 179,40 170,40 165,35 " id="clusterblast-1_q43_4_4"  />
<polygon style="stroke:black; stroke-width:1; fill:rgb(63,63,190); " description="unannotated orf[br]Location: 41047 - 43006" locus_tag="CHAFR746836_0031560.1" class="clusterblast-orf" points="186,40 204,40 209,35 204,30 186,30 186,40 " id="clusterblast-1_q43_4_5"  />
<polygon style="stroke:black; stroke-width:1; fill:rgb(63,190,63); " description="unannotated orf[br]Location: 43610 - 45501" locus_tag="CHAFR746836_0031570.1" class="clusterblast-orf" points="217,35 222,30 239,30 239,40 222,40 217,35 " id="clusterblast-1_q43_4_6"  />
<polygon style="stroke:black; stroke-width:1; fill:#FFFFFF; " description="unannotated orf[br]Location: 45774 - 47650" locus_tag="CHAFR746836_0031580.1" class="clusterblast-orf" points="242,40 260,40 265,35 260,30 242,30 242,40 " id="clusterblast-1_q43_4_7"  />
<polygon style="stroke:black; stroke-width:1; fill:#FFFFFF; " description="unannotated orf[br]Location: 50384 - 51212" locus_tag="CHAFR746836_0031590.1" class="clusterblast-orf" points="298,40 303,40 308,35 303,30 298,30 298,40 " id="clusterblast-1_q43_4_8"  />
<polygon style="stroke:black; stroke-width:1; fill:#FFFFFF; " description="unannotated orf[br]Location: 51638 - 52722" locus_tag="CHAFR746836_0031600.1" class="clusterblast-orf" points="313,35 318,30 326,30 326,40 318,40 313,35 " id="clusterblast-1_q43_4_9"  />
<polygon style="stroke:black; stroke-width:1; fill:rgb(190,63,190); " description="unannotated orf[br]Location: 53244 - 55045" locus_tag="CHAFR746836_0031610.1" class="clusterblast-orf" points="332,40 349,40 354,35 349,30 332,30 332,40 " id="clusterblast-1_q43_4_10"  />
<polygon style="stroke:black; stroke-width:1; fill:#FFFFFF; " description="unannotated orf[br]Location: 55388 - 56607" locus_tag="CHAFR746836_0031620.1" class="clusterblast-orf" points="358,35 363,30 372,30 372,40 363,40 358,35 " id="clusterblast-1_q43_4_11"  />
<polygon style="stroke:black; stroke-width:1; fill:rgb(190,190,63); " description="unannotated orf[br]Location: 57102 - 59186" locus_tag="CHAFR746836_0031630.1" class="clusterblast-orf" points="378,40 398,40 403,35 398,30 378,30 378,40 " id="clusterblast-1_q43_4_12"  />
<polygon style="stroke:black; stroke-width:1; fill:#FFFFFF; " description="unannotated orf[br]Location: 62747 - 63923" locus_tag="CHAFR746836_0031640.1" class="clusterblast-orf" points="446,35 451,30 460,30 460,40 451,40 446,35 " id="clusterblast-1_q43_4_13"  />
<polygon style="stroke:black; stroke-width:1; fill:rgb(190,190,190); " description="unannotated orf[br]Location: 89457 - 90423" locus_tag="CHAFR746836_0031650.1" class="clusterblast-orf" points="766,35 771,30 778,30 778,40 771,40 766,35 " id="clusterblast-1_q43_4_14"  />
</g>
<g class="clusterblast-cluster" description="Rhodococcus opacus B4, complete genome." label="NC_012522.1_c11"  >
<text class="clusterblast-acc" y="60" x="5"  >
NC_012522.1_c11</text>
<text class="clusterblast-desc" y="60" x="460.8"  >
Rhodococcus opacus B4, complete genome.</text>
<line y1="85" x2="778.0" style="stroke:grey; stroke-width:1; " x1="10" y2="85"  />
<polygon style="stroke:black; stroke-width:1; fill:#FFFFFF; " description="putative_nucleotide-sugar_epimerase[br]Location: 4492079 - 4493146" locus_tag="ROP_41730" id="clusterblast-1_h43_4_0" points="81,90 88,90 93,85 88,80 81,80 81,90 " class="clusterblast-orf"  />
<polygon style="stroke:black; stroke-width:1; fill:#FFFFFF; " description="putative_glycosyltransferase[br]Location: 4491424 - 4492086" locus_tag="ROP_41720" id="clusterblast-1_h43_4_1" points="93,90 96,90 101,85 96,80 93,80 93,90 " class="clusterblast-orf"  />
<polygon style="stroke:black; stroke-width:1; fill:#FFFFFF; " description="hypothetical_protein[br]Location: 4490753 - 4491427" locus_tag="ROP_41710" id="clusterblast-1_h43_4_2" points="101,90 104,90 109,85 104,80 101,80 101,90 " class="clusterblast-orf"  />
<polygon style="stroke:black; stroke-width:1; fill:#FFFFFF; " description="hypothetical_protein[br]Location: 4489537 - 4490706" locus_tag="ROP_41700" id="clusterblast-1_h43_4_3" points="110,90 119,90 124,85 119,80 110,80 110,90 " class="clusterblast-orf"  />
<polygon style="stroke:black; stroke-width:1; fill:#FFFFFF; " description="hypothetical_membrane_protein[br]Location: 4488639 - 4489568" locus_tag="ROP_41690" id="clusterblast-1_h43_4_4" points="123,85 128,80 135,80 135,90 128,90 123,85 " class="clusterblast-orf"  />
<polygon style="stroke:black; stroke-width:1; fill:#FFFFFF; " description="enoyl-CoA_hydratase/isomerase_family_protein[br]Location: 4487836 - 4488621" locus_tag="ROP_41680" id="clusterblast-1_h43_4_5" points="135,85 140,80 144,80 144,90 140,90 135,85 " class="clusterblast-orf"  />
<polygon style="stroke:black; stroke-width:1; fill:#FFFFFF; " description="putative_TetR_family_transcriptional_regulator[br]Location: 4487134 - 4487745" locus_tag="ROP_41670" id="clusterblast-1_h43_4_6" points="145,90 148,90 153,85 148,80 145,80 145,90 " class="clusterblast-orf"  />
<polygon style="stroke:black; stroke-width:1; fill:#FFFFFF; " description="putative_acyl-CoA_dehydrogenase[br]Location: 4485452 - 4487137" locus_tag="ROP_41660" id="clusterblast-1_h43_4_7" points="153,90 168,90 173,85 168,80 153,80 153,90 " class="clusterblast-orf"  />
<polygon style="stroke:black; stroke-width:1; fill:rgb(190,190,63); " description="putative_oxidoreductase[br]Location: 4483601 - 4485424&lt;br&gt;&lt;br&gt;&lt;b&gt;BlastP hit with CHAFR746836_0031630.1&lt;/b&gt;&lt;br&gt;Percentage identity: 37%&lt;br&gt;Percentage coverage: 96%&lt;br&gt;BLAST bit score: 354&lt;br&gt;E-value: 7e-112" locus_tag="ROP_41650" id="clusterblast-1_h43_4_8" points="173,90 190,90 195,85 190,80 173,80 173,90 " class="clusterblast-orf"  />
<polygon style="stroke:black; stroke-width:1; fill:#FFFFFF; " description="hypothetical_protein[br]Location: 4483097 - 4483531" locus_tag="ROP_41640" id="clusterblast-1_h43_4_9" points="196,85 201,80 201,80 201,90 201,90 196,85 " class="clusterblast-orf"  />
<polygon style="stroke:black; stroke-width:1; fill:#FFFFFF; " description="hypothetical_protein[br]Location: 4482788 - 4483087" locus_tag="ROP_41630" id="clusterblast-1_h43_4_10" points="201,85 205,80 205,90 201,85 " class="clusterblast-orf"  />
<polygon style="stroke:black; stroke-width:1; fill:#FFFFFF; " description="putative_ABC_transporter_substrate-binding[br]Location: 4481305 - 4482315" locus_tag="ROP_41620" id="clusterblast-1_h43_4_11" points="210,90 217,90 222,85 217,80 210,80 210,90 " class="clusterblast-orf"  />
<polygon style="stroke:black; stroke-width:1; fill:#FFFFFF; " description="peptidase_M20_family_protein[br]Location: 4478912 - 4481296" locus_tag="ROP_41610" id="clusterblast-1_h43_4_12" points="222,85 227,80 251,80 251,90 227,90 222,85 " class="clusterblast-orf"  />
<polygon style="stroke:black; stroke-width:1; fill:#FFFFFF; " description="putative_gamma-glutamyl_transpeptidase[br]Location: 4476813 - 4478774" locus_tag="ROP_41600" id="clusterblast-1_h43_4_13" points="253,85 258,80 276,80 276,90 258,90 253,85 " class="clusterblast-orf"  />
<polygon style="stroke:black; stroke-width:1; fill:#FFFFFF; " description="hypothetical_membrane_protein[br]Location: 4475147 - 4476766" locus_tag="ROP_41590" id="clusterblast-1_h43_4_14" points="277,85 282,80 296,80 296,90 282,90 277,85 " class="clusterblast-orf"  />
<polygon style="stroke:black; stroke-width:1; fill:#FFFFFF; " description="hypothetical_membrane_protein[br]Location: 4474638 - 4475075" locus_tag="ROP_41580" id="clusterblast-1_h43_4_15" points="297,85 302,80 302,80 302,90 302,90 297,85 " class="clusterblast-orf"  />
<polygon style="stroke:black; stroke-width:1; fill:#FFFFFF; " description="putative_SufR_family_transcriptional_regulator[br]Location: 4473878 - 4474552" locus_tag="ROP_41570" id="clusterblast-1_h43_4_16" points="303,90 306,90 311,85 306,80 303,80 303,90 " class="clusterblast-orf"  />
<polygon style="stroke:black; stroke-width:1; fill:#FFFFFF; " description="putative_methyltransferase[br]Location: 4473019 - 4473801" locus_tag="ROP_41560" id="clusterblast-1_h43_4_17" points="312,85 317,80 322,80 322,90 317,90 312,85 " class="clusterblast-orf"  />
<polygon style="stroke:black; stroke-width:1; fill:#FFFFFF; " description="polyketide_synthase[br]Location: 4462088 - 4472671" locus_tag="ROP_41550" id="clusterblast-1_h43_4_18" points="326,90 448,90 453,85 448,80 326,80 326,90 " class="clusterblast-orf"  />
<polygon style="stroke:black; stroke-width:1; fill:#FFFFFF; " description="hypothetical_protein[br]Location: 4461580 - 4461993" locus_tag="ROP_41540" id="clusterblast-1_h43_4_19" points="454,90 454,90 459,85 454,80 454,80 454,90 " class="clusterblast-orf"  />
<polygon style="stroke:black; stroke-width:1; fill:#FFFFFF; " description="hypothetical_protein[br]Location: 4460478 - 4461443" locus_tag="ROP_41530" id="clusterblast-1_h43_4_20" points="460,90 467,90 472,85 467,80 460,80 460,90 " class="clusterblast-orf"  />
<polygon style="stroke:black; stroke-width:1; fill:#FFFFFF; " description="hypothetical_protein[br]Location: 4460014 - 4460364" locus_tag="ROP_41520" id="clusterblast-1_h43_4_21" points="473,85 478,80 478,80 478,90 478,90 473,85 " class="clusterblast-orf"  />
<polygon style="stroke:black; stroke-width:1; fill:rgb(63,63,190); " description="2-isopropylmalate_synthase[br]Location: 4456974 - 4458782&lt;br&gt;&lt;br&gt;&lt;b&gt;BlastP hit with CHAFR746836_0031560.1&lt;/b&gt;&lt;br&gt;Percentage identity: 44%&lt;br&gt;Percentage coverage: 86%&lt;br&gt;BLAST bit score: 445&lt;br&gt;E-value: 2e-147" locus_tag="ROP_41510" id="clusterblast-1_h43_4_22" points="492,90 509,90 514,85 509,80 492,80 492,90 " class="clusterblast-orf"  />
<polygon style="stroke:black; stroke-width:1; fill:#FFFFFF; " description="cytochrome_c_oxidase_subunit_I[br]Location: 4455076 - 4456815" locus_tag="ROP_41500" id="clusterblast-1_h43_4_23" points="516,90 532,90 537,85 532,80 516,80 516,90 " class="clusterblast-orf"  />
<polygon style="stroke:black; stroke-width:1; fill:#FFFFFF; " description="putative_acyl-CoA_carboxylase[br]Location: 4449171 - 4454657" locus_tag="ROP_41490" id="clusterblast-1_h43_4_24" points="542,90 602,90 607,85 602,80 542,80 542,90 " class="clusterblast-orf"  />
<polygon style="stroke:black; stroke-width:1; fill:#FFFFFF; " description="hypothetical_protein[br]Location: 4448566 - 4448946" locus_tag="ROP_41480" id="clusterblast-1_h43_4_25" points="610,90 610,90 615,85 610,80 610,80 610,90 " class="clusterblast-orf"  />
<polygon style="stroke:black; stroke-width:1; fill:#FFFFFF; " description="putative_LysR_family_transcriptional_regulator[br]Location: 4447612 - 4448505" locus_tag="ROP_41470" id="clusterblast-1_h43_4_26" points="615,85 620,80 626,80 626,90 620,90 615,85 " class="clusterblast-orf"  />
<polygon style="stroke:black; stroke-width:1; fill:#FFFFFF; " description="amino_acid_efflux_protein[br]Location: 4446622 - 4447539" locus_tag="ROP_41460" id="clusterblast-1_h43_4_27" points="627,90 633,90 638,85 633,80 627,80 627,90 " class="clusterblast-orf"  />
<polygon style="stroke:black; stroke-width:1; fill:#FFFFFF; " description="hypothetical_protein[br]Location: 4445343 - 4446596" locus_tag="ROP_41450" id="clusterblast-1_h43_4_28" points="638,90 648,90 653,85 648,80 638,80 638,90 " class="clusterblast-orf"  />
<polygon style="stroke:black; stroke-width:1; fill:#FFFFFF; " description="hypothetical_protein[br]Location: 4444640 - 4445350" locus_tag="ROP_41440" id="clusterblast-1_h43_4_29" points="653,90 657,90 662,85 657,80 653,80 653,90 " class="clusterblast-orf"  />
<polygon style="stroke:black; stroke-width:1; fill:#FFFFFF; " description="hypothetical_protein[br]Location: 4443539 - 4444555" locus_tag="ROP_41430" id="clusterblast-1_h43_4_30" points="663,85 668,80 675,80 675,90 668,90 663,85 " class="clusterblast-orf"  />
<polygon style="stroke:black; stroke-width:1; fill:#FFFFFF; " description="hypothetical_protein[br]Location: 4442888 - 4443334" locus_tag="ROP_41420" id="clusterblast-1_h43_4_31" points="677,90 678,90 683,85 678,80 677,80 677,90 " class="clusterblast-orf"  />
<polygon style="stroke:black; stroke-width:1; fill:#FFFFFF; " description="putative_ArsR_family_transcriptional_regulator[br]Location: 4442565 - 4442891" locus_tag="ROP_41410" id="clusterblast-1_h43_4_32" points="683,90 687,85 683,80 683,90 " class="clusterblast-orf"  />
<polygon style="stroke:black; stroke-width:1; fill:#FFFFFF; " description="putative_MFS_transporter[br]Location: 4440981 - 4442438" locus_tag="ROP_41400" id="clusterblast-1_h43_4_33" points="688,85 693,80 706,80 706,90 693,90 688,85 " class="clusterblast-orf"  />
</g>
</svg>
