<svg xmlns="http://www.w3.org/2000/svg" height="230" width="800" version="1.1" y="0" x="0" preserveAspectRatio="none" xmlns:xlink="http://www.w3.org/1999/xlink" viewBox="0 0 800 230"  >
<g class="clusterblast-cluster" label="Query sequence"  >
<text class="clusterblast-acc" y="10" x="5"  >
Query sequence</text>
<line y1="35" x2="778.0" style="stroke:grey; stroke-width:1; " x1="10" y2="35"  />
<polygon style="stroke:black; stroke-width:1; fill:#FFFFFF; " description="unannotated orf[br]Location: 3489 - 4914" locus_tag="CHAFR746836_0101380.1" class="clusterblast-orf" points="10,35 15,30 27,30 27,40 15,40 10,35 " id="clusterblast-1_q29_1_0"  />
<polygon style="stroke:black; stroke-width:1; fill:#FFFFFF; " description="unannotated orf[br]Location: 5456 - 6575" locus_tag="CHAFR746836_0101390.1" class="clusterblast-orf" points="33,35 38,30 47,30 47,40 38,40 33,35 " id="clusterblast-1_q29_1_1"  />
<polygon style="stroke:black; stroke-width:1; fill:#FFFFFF; " description="unannotated orf[br]Location: 10922 - 11634" locus_tag="CHAFR746836_0101400.1" class="clusterblast-orf" points="99,40 102,40 107,35 102,30 99,30 99,40 " id="clusterblast-1_q29_1_2"  />
<polygon style="stroke:black; stroke-width:1; fill:#FFFFFF; " description="unannotated orf[br]Location: 19756 - 21668" locus_tag="CHAFR746836_0101410.1" class="clusterblast-orf" points="205,35 210,30 227,30 227,40 210,40 205,35 " id="clusterblast-1_q29_1_3"  />
<polygon style="stroke:black; stroke-width:1; fill:#FFFFFF; " description="unannotated orf[br]Location: 22408 - 23374" locus_tag="CHAFR746836_0101420.1" class="clusterblast-orf" points="236,40 243,40 248,35 243,30 236,30 236,40 " id="clusterblast-1_q29_1_4"  />
<polygon style="stroke:black; stroke-width:1; fill:rgb(190,63,63); " description="unannotated orf[br]Location: 23890 - 24643" locus_tag="CHAFR746836_0101430.1" class="clusterblast-orf" points="254,35 259,30 263,30 263,40 259,40 254,35 " id="clusterblast-1_q29_1_5"  />
<polygon style="stroke:black; stroke-width:1; fill:rgb(63,63,190); " description="unannotated orf[br]Location: 25525 - 33031" locus_tag="CHAFR746836_0101440.1" class="clusterblast-orf" points="274,35 279,30 364,30 364,40 279,40 274,35 " id="clusterblast-1_q29_1_6"  />
<polygon style="stroke:black; stroke-width:1; fill:rgb(63,190,63); " description="unannotated orf[br]Location: 34425 - 35697" locus_tag="CHAFR746836_0101450.1" class="clusterblast-orf" points="380,40 391,40 396,35 391,30 380,30 380,40 " id="clusterblast-1_q29_1_7"  />
<polygon style="stroke:black; stroke-width:1; fill:#FFFFFF; " description="unannotated orf[br]Location: 38970 - 40379" locus_tag="CHAFR746836_0101460.1" class="clusterblast-orf" points="435,40 447,40 452,35 447,30 435,30 435,40 " id="clusterblast-1_q29_1_8"  />
<polygon style="stroke:black; stroke-width:1; fill:rgb(190,63,190); " description="unannotated orf[br]Location: 43420 - 44310" locus_tag="CHAFR746836_0101470.1" class="clusterblast-orf" points="488,40 494,40 499,35 494,30 488,30 488,40 " id="clusterblast-1_q29_1_9"  />
<polygon style="stroke:black; stroke-width:1; fill:rgb(190,190,63); " description="unannotated orf[br]Location: 45003 - 45808" locus_tag="CHAFR746836_0101480.1" class="clusterblast-orf" points="507,40 512,40 517,35 512,30 507,30 507,40 " id="clusterblast-1_q29_1_10"  />
<polygon style="stroke:black; stroke-width:1; fill:rgb(190,190,190); " description="unannotated orf[br]Location: 46298 - 48111" locus_tag="CHAFR746836_0101490.1" class="clusterblast-orf" points="523,35 528,30 545,30 545,40 528,40 523,35 " id="clusterblast-1_q29_1_11"  />
<polygon style="stroke:black; stroke-width:1; fill:#FFFFFF; " description="unannotated orf[br]Location: 48769 - 49804" locus_tag="CHAFR746836_0101500.1" class="clusterblast-orf" points="552,35 557,30 565,30 565,40 557,40 552,35 " id="clusterblast-1_q29_1_12"  />
<polygon style="stroke:black; stroke-width:1; fill:#FFFFFF; " description="unannotated orf[br]Location: 50970 - 51894" locus_tag="CHAFR746836_0101510.1" class="clusterblast-orf" points="579,40 585,40 590,35 585,30 579,30 579,40 " id="clusterblast-1_q29_1_13"  />
<polygon style="stroke:black; stroke-width:1; fill:#FFFFFF; " description="unannotated orf[br]Location: 52569 - 55191" locus_tag="CHAFR746836_0101520.1" class="clusterblast-orf" points="598,40 624,40 629,35 624,30 598,30 598,40 " id="clusterblast-1_q29_1_14"  />
<polygon style="stroke:black; stroke-width:1; fill:#FFFFFF; " description="unannotated orf[br]Location: 55978 - 57046" locus_tag="CHAFR746836_0101530.1" class="clusterblast-orf" points="639,40 647,40 652,35 647,30 639,30 639,40 " id="clusterblast-1_q29_1_15"  />
<polygon style="stroke:black; stroke-width:1; fill:#FFFFFF; " description="unannotated orf[br]Location: 58243 - 59708" locus_tag="CHAFR746836_0101540.1" class="clusterblast-orf" points="666,40 679,40 684,35 679,30 666,30 666,40 " id="clusterblast-1_q29_1_16"  />
<polygon style="stroke:black; stroke-width:1; fill:#FFFFFF; " description="unannotated orf[br]Location: 60927 - 61452" locus_tag="CHAFR746836_0101550.1" class="clusterblast-orf" points="698,35 703,30 705,30 705,40 703,40 698,35 " id="clusterblast-1_q29_1_17"  />
<polygon style="stroke:black; stroke-width:1; fill:#FFFFFF; " description="unannotated orf[br]Location: 63620 - 67540" locus_tag="CHAFR746836_0101560.1" class="clusterblast-orf" points="730,40 773,40 778,35 773,30 730,30 730,40 " id="clusterblast-1_q29_1_18"  />
</g>
<g class="clusterblast-cluster" description="Aspergillus kawachii IFO 4308 DNA, contig: scaffold00006, wh..." label="DF126452.1_c3"  >
<text class="clusterblast-acc" y="60" x="5"  >
DF126452.1_c3</text>
<text class="clusterblast-desc" y="60" x="460.8"  >
Aspergillus kawachii IFO 4308 DNA, contig: scaffold00006, wh...</text>
<line y1="85" x2="778.0" style="stroke:grey; stroke-width:1; " x1="10" y2="85"  />
<polygon style="stroke:black; stroke-width:1; fill:#FFFFFF; " description="tripeptidyl_peptidase_Sed3[br]Location: 453726 - 455556" locus_tag="AKAW_02956" id="clusterblast-1_h29_1_0" points="101,85 106,80 122,80 122,90 106,90 101,85 " class="clusterblast-orf"  />
<polygon style="stroke:black; stroke-width:1; fill:#FFFFFF; " description="trichothecene_3-O-acetyltransferase[br]Location: 456894 - 458237" locus_tag="AKAW_02957" id="clusterblast-1_h29_1_1" points="138,85 143,80 155,80 155,90 143,90 138,85 " class="clusterblast-orf"  />
<polygon style="stroke:black; stroke-width:1; fill:#FFFFFF; " description="aldo/keto_reductase[br]Location: 458835 - 459884" locus_tag="AKAW_02958" id="clusterblast-1_h29_1_2" points="162,85 167,80 174,80 174,90 167,90 162,85 " class="clusterblast-orf"  />
<polygon style="stroke:black; stroke-width:1; fill:#FFFFFF; " description="FAD-dependent_oxidase[br]Location: 461329 - 463034" locus_tag="AKAW_02959" id="clusterblast-1_h29_1_3" points="192,85 197,80 212,80 212,90 197,90 192,85 " class="clusterblast-orf"  />
<polygon style="stroke:black; stroke-width:1; fill:#FFFFFF; " description="hypothetical_protein[br]Location: 465977 - 467363" locus_tag="AKAW_02960" id="clusterblast-1_h29_1_4" points="247,90 259,90 264,85 259,80 247,80 247,90 " class="clusterblast-orf"  />
<polygon style="stroke:black; stroke-width:1; fill:#FFFFFF; " description="aldehyde_dehydrogenase[br]Location: 467837 - 468899" locus_tag="AKAW_02961" id="clusterblast-1_h29_1_5" points="270,85 275,80 282,80 282,90 275,90 270,85 " class="clusterblast-orf"  />
<polygon style="stroke:black; stroke-width:1; fill:#FFFFFF; " description="hypothetical_protein[br]Location: 469363 - 469722" locus_tag="AKAW_02962" id="clusterblast-1_h29_1_6" points="288,85 292,80 292,90 288,85 " class="clusterblast-orf"  />
<polygon style="stroke:black; stroke-width:1; fill:#FFFFFF; " description="cytochrome_P450_monooxygenase[br]Location: 470058 - 471997" locus_tag="AKAW_02963" id="clusterblast-1_h29_1_7" points="296,85 301,80 320,80 320,90 301,90 296,85 " class="clusterblast-orf"  />
<polygon style="stroke:black; stroke-width:1; fill:#FFFFFF; " description="hypothetical_protein[br]Location: 473511 - 474419" locus_tag="AKAW_02964" id="clusterblast-1_h29_1_8" points="338,90 344,90 349,85 344,80 338,80 338,90 " class="clusterblast-orf"  />
<polygon style="stroke:black; stroke-width:1; fill:rgb(63,63,190); " description="polyketide_synthase[br]Location: 474667 - 482075&lt;br&gt;&lt;br&gt;&lt;b&gt;BlastP hit with CHAFR746836_0101440.1&lt;/b&gt;&lt;br&gt;Percentage identity: 51%&lt;br&gt;Percentage coverage: 99%&lt;br&gt;BLAST bit score: 2421&lt;br&gt;E-value: 0.0" locus_tag="AKAW_02965" id="clusterblast-1_h29_1_9" points="352,85 357,80 440,80 440,90 357,90 352,85 " class="clusterblast-orf"  />
<polygon style="stroke:black; stroke-width:1; fill:rgb(63,190,63); " description="short_chain_dehydrogenase[br]Location: 482448 - 483642&lt;br&gt;&lt;br&gt;&lt;b&gt;BlastP hit with CHAFR746836_0101450.1&lt;/b&gt;&lt;br&gt;Percentage identity: 57%&lt;br&gt;Percentage coverage: 82%&lt;br&gt;BLAST bit score: 185&lt;br&gt;E-value: 4e-56" locus_tag="AKAW_02966" id="clusterblast-1_h29_1_10" points="445,90 454,90 459,85 454,80 445,80 445,90 " class="clusterblast-orf"  />
<polygon style="stroke:black; stroke-width:1; fill:rgb(190,63,190); " description="oxidoreductase,_short-chain[br]Location: 483990 - 485046&lt;br&gt;&lt;br&gt;&lt;b&gt;BlastP hit with CHAFR746836_0101470.1&lt;/b&gt;&lt;br&gt;Percentage identity: 45%&lt;br&gt;Percentage coverage: 107%&lt;br&gt;BLAST bit score: 234&lt;br&gt;E-value: 4e-74" locus_tag="AKAW_02967" id="clusterblast-1_h29_1_11" points="463,90 471,90 476,85 471,80 463,80 463,90 " class="clusterblast-orf"  />
<polygon style="stroke:black; stroke-width:1; fill:rgb(190,190,63); " description="hypothetical_protein[br]Location: 485201 - 485836&lt;br&gt;&lt;br&gt;&lt;b&gt;BlastP hit with CHAFR746836_0101480.1&lt;/b&gt;&lt;br&gt;Percentage identity: 57%&lt;br&gt;Percentage coverage: 106%&lt;br&gt;BLAST bit score: 245&lt;br&gt;E-value: 2e-80" locus_tag="AKAW_02968" id="clusterblast-1_h29_1_12" points="478,90 481,90 486,85 481,80 478,80 478,90 " class="clusterblast-orf"  />
<polygon style="stroke:black; stroke-width:1; fill:#FFFFFF; " description="major_facilitator_superfamily_transporter[br]Location: 486014 - 487715" locus_tag="AKAW_02969" id="clusterblast-1_h29_1_13" points="488,85 493,80 508,80 508,90 493,90 488,85 " class="clusterblast-orf"  />
<polygon style="stroke:black; stroke-width:1; fill:rgb(190,190,190); " description="AMP_dependent_ligase/synthetase[br]Location: 488330 - 490260&lt;br&gt;&lt;br&gt;&lt;b&gt;BlastP hit with CHAFR746836_0101490.1&lt;/b&gt;&lt;br&gt;Percentage identity: 42%&lt;br&gt;Percentage coverage: 91%&lt;br&gt;BLAST bit score: 389&lt;br&gt;E-value: 8e-127" locus_tag="AKAW_02970" id="clusterblast-1_h29_1_14" points="515,90 534,90 539,85 534,80 515,80 515,90 " class="clusterblast-orf"  />
<polygon style="stroke:black; stroke-width:1; fill:#FFFFFF; " description="hypothetical_protein[br]Location: 490340 - 491444" locus_tag="AKAW_02971" id="clusterblast-1_h29_1_15" points="540,85 545,80 553,80 553,90 545,90 540,85 " class="clusterblast-orf"  />
<polygon style="stroke:black; stroke-width:1; fill:#FFFFFF; " description="cytochrome_P450_monooxygenase[br]Location: 491690 - 493546" locus_tag="AKAW_02972" id="clusterblast-1_h29_1_16" points="556,90 573,90 578,85 573,80 556,80 556,90 " class="clusterblast-orf"  />
<polygon style="stroke:black; stroke-width:1; fill:#FFFFFF; " description="1-aminocyclopropane-1-carboxylate_oxidase[br]Location: 495338 - 496552" locus_tag="AKAW_02973" id="clusterblast-1_h29_1_17" points="599,90 609,90 614,85 609,80 599,80 599,90 " class="clusterblast-orf"  />
<polygon style="stroke:black; stroke-width:1; fill:rgb(190,63,63); " description="carbonyl_reductase[br]Location: 498033 - 498773&lt;br&gt;&lt;br&gt;&lt;b&gt;BlastP hit with CHAFR746836_0101430.1&lt;/b&gt;&lt;br&gt;Percentage identity: 40%&lt;br&gt;Percentage coverage: 102%&lt;br&gt;BLAST bit score: 157&lt;br&gt;E-value: 4e-45" locus_tag="AKAW_02974" id="clusterblast-1_h29_1_18" points="632,90 636,90 641,85 636,80 632,80 632,90 " class="clusterblast-orf"  />
<polygon style="stroke:black; stroke-width:1; fill:#FFFFFF; " description="sterigmatocystin_8-O-methyltransferase[br]Location: 499214 - 500879" locus_tag="AKAW_02975" id="clusterblast-1_h29_1_19" points="646,90 661,90 666,85 661,80 646,80 646,90 " class="clusterblast-orf"  />
<polygon style="stroke:black; stroke-width:1; fill:#FFFFFF; " description="hypothetical_protein[br]Location: 501099 - 502559" locus_tag="AKAW_02976" id="clusterblast-1_h29_1_20" points="669,85 674,80 686,80 686,90 674,90 669,85 " class="clusterblast-orf"  />
</g>
</svg>
