<svg xmlns="http://www.w3.org/2000/svg" height="230" width="800" version="1.1" y="0" x="0" preserveAspectRatio="none" xmlns:xlink="http://www.w3.org/1999/xlink" viewBox="0 0 800 230"  >
<g class="clusterblast-cluster" label="Query sequence"  >
<text class="clusterblast-acc" y="10" x="5"  >
Query sequence</text>
<line y1="35" x2="778.0" style="stroke:grey; stroke-width:1; " x1="10" y2="35"  />
<polygon style="stroke:black; stroke-width:1; fill:red; " description="unannotated orf[br]Location: 41959 - 43540" locus_tag="CHAFR746836_0014170.1" class="clusterblast-orf" points="179,35 184,30 205,30 205,40 184,40 179,35 " id="clusterblast-1_q31_8_0"  />
<polygon style="stroke:black; stroke-width:1; fill:green; " description="unannotated orf[br]Location: 53187 - 67692" locus_tag="CHAFR746836_0014180.1" class="clusterblast-orf" points="365,40 602,40 607,35 602,30 365,30 365,40 " id="clusterblast-1_q31_8_1"  />
</g>
<g class="clusterblast-cluster" description="Cordyceps militaris CM01 unplaced genomic scaffold CCM S0000..." label="JH126399.1_c6"  >
<text class="clusterblast-acc" y="60" x="5"  >
JH126399.1_c6</text>
<text class="clusterblast-desc" y="60" x="460.8"  >
Cordyceps militaris CM01 unplaced genomic scaffold CCM S0000...</text>
<line y1="85" x2="778.0" style="stroke:grey; stroke-width:1; " x1="10" y2="85"  />
<polygon style="stroke:black; stroke-width:1; fill:red; " description="L-ornithine_N5-oxygenase_SidA[br]Location: 5500297 - 5503992&lt;br&gt;&lt;br&gt;&lt;b&gt;BlastP hit with CHAFR746836_0014170.1&lt;/b&gt;&lt;br&gt;Percentage identity: 44%&lt;br&gt;Percentage coverage: 104%&lt;br&gt;BLAST bit score: 388&lt;br&gt;E-value: 1e-124" locus_tag="CCM_01706" id="clusterblast-1_h31_8_0" points="10,85 15,80 71,80 71,90 15,90 10,85 " class="clusterblast-orf"  />
<polygon style="stroke:black; stroke-width:1; fill:green; " description="nonribosomal_siderophore_peptide_synthase[br]Location: 5481892 - 5496446&lt;br&gt;&lt;br&gt;&lt;b&gt;BlastP hit with CHAFR746836_0014180.1&lt;/b&gt;&lt;br&gt;Percentage identity: 36%&lt;br&gt;Percentage coverage: 102%&lt;br&gt;BLAST bit score: 2894&lt;br&gt;E-value: 0.0" locus_tag="CCM_01705" id="clusterblast-1_h31_8_1" points="135,90 372,90 377,85 372,80 135,80 135,90 " class="clusterblast-orf"  />
<polygon style="stroke:black; stroke-width:1; fill:#FFFFFF; " description="choline_oxidase_(CodA),_putative[br]Location: 5479825 - 5481462" locus_tag="CCM_01704" id="clusterblast-1_h31_8_2" points="385,85 390,80 412,80 412,90 390,90 385,85 " class="clusterblast-orf"  />
<polygon style="stroke:black; stroke-width:1; fill:#FFFFFF; " description="betaine_aldehyde_dehydrogenase[br]Location: 5475843 - 5477372" locus_tag="CCM_01703" id="clusterblast-1_h31_8_3" points="453,90 473,90 478,85 473,80 453,80 453,90 " class="clusterblast-orf"  />
<polygon style="stroke:black; stroke-width:1; fill:#FFFFFF; " description="glyoxalase_family_protein[br]Location: 5475227 - 5475631" locus_tag="CCM_01702" id="clusterblast-1_h31_8_4" points="482,90 483,90 488,85 483,80 482,80 482,90 " class="clusterblast-orf"  />
<polygon style="stroke:black; stroke-width:1; fill:#FFFFFF; " description="hypothetical_protein[br]Location: 5472306 - 5474576" locus_tag="CCM_01701" id="clusterblast-1_h31_8_5" points="499,85 504,80 537,80 537,90 504,90 499,85 " class="clusterblast-orf"  />
<polygon style="stroke:black; stroke-width:1; fill:#FFFFFF; " description="amidase_family_protein[br]Location: 5467965 - 5469862" locus_tag="CCM_01700" id="clusterblast-1_h31_8_6" points="578,85 583,80 609,80 609,90 583,90 578,85 " class="clusterblast-orf"  />
<polygon style="stroke:black; stroke-width:1; fill:#FFFFFF; " description="hypothetical_protein[br]Location: 5465650 - 5466994" locus_tag="CCM_01699" id="clusterblast-1_h31_8_7" points="626,85 631,80 648,80 648,90 631,90 626,85 " class="clusterblast-orf"  />
<polygon style="stroke:black; stroke-width:1; fill:#FFFFFF; " description="LysM_domain_protein[br]Location: 5457870 - 5463973" locus_tag="CCM_01698" id="clusterblast-1_h31_8_8" points="676,85 681,80 778,80 778,90 681,90 676,85 " class="clusterblast-orf"  />
</g>
</svg>
