<svg xmlns="http://www.w3.org/2000/svg" height="230" width="800" version="1.1" y="0" x="0" preserveAspectRatio="none" xmlns:xlink="http://www.w3.org/1999/xlink" viewBox="0 0 800 230"  >
<g class="clusterblast-cluster" label="Query sequence"  >
<text class="clusterblast-acc" y="10" x="5"  >
Query sequence</text>
<line y1="35" x2="778.0" style="stroke:grey; stroke-width:1; " x1="10" y2="35"  />
<polygon style="stroke:black; stroke-width:1; fill:rgb(190,63,63); " description="unannotated orf[br]Location: 0 - 4473" locus_tag="CHAFR746836_0033810.1" class="clusterblast-orf" points="46,35 51,30 115,30 115,40 51,40 46,35 " id="clusterblast-1_q47_2_0"  />
<polygon style="stroke:black; stroke-width:1; fill:rgb(63,63,190); " description="unannotated orf[br]Location: 8908 - 16258" locus_tag="CHAFR746836_0033820.1" class="clusterblast-orf" points="183,35 188,30 297,30 297,40 188,40 183,35 " id="clusterblast-1_q47_2_1"  />
<polygon style="stroke:black; stroke-width:1; fill:rgb(63,190,63); " description="unannotated orf[br]Location: 17051 - 17982" locus_tag="CHAFR746836_0033830.1" class="clusterblast-orf" points="309,40 319,40 324,35 319,30 309,30 309,40 " id="clusterblast-1_q47_2_2"  />
<polygon style="stroke:black; stroke-width:1; fill:rgb(190,63,190); " description="unannotated orf[br]Location: 20014 - 21694" locus_tag="CHAFR746836_0033840.1" class="clusterblast-orf" points="355,40 376,40 381,35 376,30 355,30 355,40 " id="clusterblast-1_q47_2_3"  />
<polygon style="stroke:black; stroke-width:1; fill:rgb(190,190,63); " description="unannotated orf[br]Location: 21817 - 22799" locus_tag="CHAFR746836_0033850.1" class="clusterblast-orf" points="383,35 388,30 398,30 398,40 388,40 383,35 " id="clusterblast-1_q47_2_4"  />
<polygon style="stroke:black; stroke-width:1; fill:rgb(190,190,190); " description="unannotated orf[br]Location: 23459 - 25108" locus_tag="CHAFR746836_0033860.1" class="clusterblast-orf" points="409,40 429,40 434,35 429,30 409,30 409,40 " id="clusterblast-1_q47_2_5"  />
<polygon style="stroke:black; stroke-width:1; fill:#FFFFFF; " description="unannotated orf[br]Location: 25635 - 26766" locus_tag="CHAFR746836_0033870.1" class="clusterblast-orf" points="442,40 455,40 460,35 455,30 442,30 442,40 " id="clusterblast-1_q47_2_6"  />
<polygon style="stroke:black; stroke-width:1; fill:#FFFFFF; " description="unannotated orf[br]Location: 33731 - 34287" locus_tag="CHAFR746836_0033880.1" class="clusterblast-orf" points="568,35 573,30 576,30 576,40 573,40 568,35 " id="clusterblast-1_q47_2_7"  />
<polygon style="stroke:black; stroke-width:1; fill:#FFFFFF; " description="unannotated orf[br]Location: 40637 - 41931" locus_tag="CHAFR746836_0033890.1" class="clusterblast-orf" points="674,35 679,30 694,30 694,40 679,40 674,35 " id="clusterblast-1_q47_2_8"  />
<polygon style="stroke:black; stroke-width:1; fill:#FFFFFF; " description="unannotated orf[br]Location: 43999 - 44934" locus_tag="CHAFR746836_0033900.1" class="clusterblast-orf" points="726,35 731,30 741,30 741,40 731,40 726,35 " id="clusterblast-1_q47_2_9"  />
</g>
<g class="clusterblast-cluster" description="Botryotinia fuckeliana isolate T4 SupSuperContig 36 28 1 gen..." label="FQ790351.1_c2"  >
<text class="clusterblast-acc" y="60" x="5"  >
FQ790351.1_c2</text>
<text class="clusterblast-desc" y="60" x="460.8"  >
Botryotinia fuckeliana isolate T4 SupSuperContig 36 28 1 gen...</text>
<line y1="85" x2="778.0" style="stroke:grey; stroke-width:1; " x1="10" y2="85"  />
<polygon style="stroke:black; stroke-width:1; fill:#FFFFFF; " description="hypothetical_protein[br]Location: 435252 - 438391" locus_tag="CCD54528.1" id="clusterblast-1_h47_2_0" points="10,85 15,80 58,80 58,90 15,90 10,85 " class="clusterblast-orf"  />
<polygon style="stroke:black; stroke-width:1; fill:#FFFFFF; " description="similar_to_lariat_debranching_enzyme[br]Location: 439145 - 441011" locus_tag="CCD54529.1" id="clusterblast-1_h47_2_1" points="70,85 75,80 99,80 99,90 75,90 70,85 " class="clusterblast-orf"  />
<polygon style="stroke:black; stroke-width:1; fill:#FFFFFF; " description="hypothetical_protein[br]Location: 441303 - 441893" locus_tag="CCD54530.1" id="clusterblast-1_h47_2_2" points="103,90 107,90 112,85 107,80 103,80 103,90 " class="clusterblast-orf"  />
<polygon style="stroke:black; stroke-width:1; fill:#FFFFFF; " description="hypothetical_protein[br]Location: 441946 - 442170" locus_tag="CCD54531.1" id="clusterblast-1_h47_2_3" points="113,90 117,85 113,80 113,90 " class="clusterblast-orf"  />
<polygon style="stroke:black; stroke-width:1; fill:#FFFFFF; " description="similar_to_zinc_finger_protein_zpr1[br]Location: 442456 - 444008" locus_tag="CCD54532.1" id="clusterblast-1_h47_2_4" points="121,90 140,90 145,85 140,80 121,80 121,90 " class="clusterblast-orf"  />
<polygon style="stroke:black; stroke-width:1; fill:#FFFFFF; " description="similar_to_arsenic_resistance_protein_ArsH[br]Location: 444480 - 445462" locus_tag="CCD54533.1" id="clusterblast-1_h47_2_5" points="152,90 163,90 168,85 163,80 152,80 152,90 " class="clusterblast-orf"  />
<polygon style="stroke:black; stroke-width:1; fill:#FFFFFF; " description="hypothetical_protein[br]Location: 446435 - 449902" locus_tag="CCD54534.1" id="clusterblast-1_h47_2_6" points="183,85 188,80 236,80 236,90 188,90 183,85 " class="clusterblast-orf"  />
<polygon style="stroke:black; stroke-width:1; fill:#FFFFFF; " description="hypothetical_protein[br]Location: 450216 - 451381" locus_tag="CCD54535.1" id="clusterblast-1_h47_2_7" points="241,90 254,90 259,85 254,80 241,80 241,90 " class="clusterblast-orf"  />
<polygon style="stroke:black; stroke-width:1; fill:#FFFFFF; " description="predicted_protein[br]Location: 451582 - 451792" locus_tag="CCD54536.1" id="clusterblast-1_h47_2_8" points="262,90 265,85 262,80 262,90 " class="clusterblast-orf"  />
<polygon style="stroke:black; stroke-width:1; fill:#FFFFFF; " description="hypothetical_protein[br]Location: 452702 - 453514" locus_tag="CCD54537.1" id="clusterblast-1_h47_2_9" points="280,85 285,80 292,80 292,90 285,90 280,85 " class="clusterblast-orf"  />
<polygon style="stroke:black; stroke-width:1; fill:rgb(63,63,190); " description="BcPKS10,_polyketide_synthase[br]Location: 455883 - 463143&lt;br&gt;&lt;br&gt;&lt;b&gt;BlastP hit with CHAFR746836_0033820.1&lt;/b&gt;&lt;br&gt;Percentage identity: 45%&lt;br&gt;Percentage coverage: 61%&lt;br&gt;BLAST bit score: 1217&lt;br&gt;E-value: 0.0" locus_tag="CCD54538.1" id="clusterblast-1_h47_2_10" points="329,85 334,80 441,80 441,90 334,90 329,85 " class="clusterblast-orf"  />
<polygon style="stroke:black; stroke-width:1; fill:#FFFFFF; " description="predicted_protein[br]Location: 463635 - 463869" locus_tag="CCD54539.1" id="clusterblast-1_h47_2_11" points="449,90 452,85 449,80 449,90 " class="clusterblast-orf"  />
<polygon style="stroke:black; stroke-width:1; fill:rgb(63,190,63); " description="similar_to_peptidase_S15[br]Location: 464393 - 465433&lt;br&gt;&lt;br&gt;&lt;b&gt;BlastP hit with CHAFR746836_0033830.1&lt;/b&gt;&lt;br&gt;Percentage identity: 37%&lt;br&gt;Percentage coverage: 98%&lt;br&gt;BLAST bit score: 207&lt;br&gt;E-value: 2e-63" locus_tag="CCD54540.1" id="clusterblast-1_h47_2_12" points="460,90 472,90 477,85 472,80 460,80 460,90 " class="clusterblast-orf"  />
<polygon style="stroke:black; stroke-width:1; fill:#FFFFFF; " description="predicted_protein[br]Location: 465618 - 465980" locus_tag="CCD54541.1" id="clusterblast-1_h47_2_13" points="479,90 480,90 485,85 480,80 479,80 479,90 " class="clusterblast-orf"  />
<polygon style="stroke:black; stroke-width:1; fill:rgb(190,190,190); " description="similar_to_cytochrome_P450[br]Location: 466280 - 468367&lt;br&gt;&lt;br&gt;&lt;b&gt;BlastP hit with CHAFR746836_0033860.1&lt;/b&gt;&lt;br&gt;Percentage identity: 34%&lt;br&gt;Percentage coverage: 97%&lt;br&gt;BLAST bit score: 264&lt;br&gt;E-value: 9e-80" locus_tag="CCD54542.1" id="clusterblast-1_h47_2_14" points="490,90 517,90 522,85 517,80 490,80 490,90 " class="clusterblast-orf"  />
<polygon style="stroke:black; stroke-width:1; fill:#FFFFFF; " description="predicted_protein[br]Location: 469202 - 469351" locus_tag="CCD54543.1" id="clusterblast-1_h47_2_15" points="535,90 537,85 535,80 535,90 " class="clusterblast-orf"  />
<polygon style="stroke:black; stroke-width:1; fill:rgb(190,190,63); " description="hypothetical_protein[br]Location: 469474 - 469822&lt;br&gt;&lt;br&gt;&lt;b&gt;BlastP hit with CHAFR746836_0033850.1&lt;/b&gt;&lt;br&gt;Percentage identity: 36%&lt;br&gt;Percentage coverage: 35%&lt;br&gt;BLAST bit score: 60&lt;br&gt;E-value: 9e-11" locus_tag="CCD54544.1" id="clusterblast-1_h47_2_16" points="539,85 544,80 544,80 544,90 544,90 539,85 " class="clusterblast-orf"  />
<polygon style="stroke:black; stroke-width:1; fill:rgb(190,190,63); " description="similar_to_norsolorinic_acid_reductase[br]Location: 469899 - 470413&lt;br&gt;&lt;br&gt;&lt;b&gt;BlastP hit with CHAFR746836_0033850.1&lt;/b&gt;&lt;br&gt;Percentage identity: 45%&lt;br&gt;Percentage coverage: 58%&lt;br&gt;BLAST bit score: 119&lt;br&gt;E-value: 7e-32" locus_tag="CCD54545.1" id="clusterblast-1_h47_2_17" points="546,85 551,80 554,80 554,90 551,90 546,85 " class="clusterblast-orf"  />
<polygon style="stroke:black; stroke-width:1; fill:rgb(190,63,190); " description="similar_to_FAD/FMN-containing_isoamyl_alcohol[br]Location: 471450 - 473282&lt;br&gt;&lt;br&gt;&lt;b&gt;BlastP hit with CHAFR746836_0033840.1&lt;/b&gt;&lt;br&gt;Percentage identity: 38%&lt;br&gt;Percentage coverage: 103%&lt;br&gt;BLAST bit score: 317&lt;br&gt;E-value: 2e-99" locus_tag="CCD54546.1" id="clusterblast-1_h47_2_18" points="570,90 593,90 598,85 593,80 570,80 570,90 " class="clusterblast-orf"  />
<polygon style="stroke:black; stroke-width:1; fill:#FFFFFF; " description="hypothetical_protein[br]Location: 474040 - 474858" locus_tag="CCD54547.1" id="clusterblast-1_h47_2_19" points="610,85 615,80 622,80 622,90 615,90 610,85 " class="clusterblast-orf"  />
<polygon style="stroke:black; stroke-width:1; fill:#FFFFFF; " description="hypothetical_protein[br]Location: 475446 - 475805" locus_tag="CCD54548.1" id="clusterblast-1_h47_2_20" points="632,85 637,80 637,80 637,90 637,90 632,85 " class="clusterblast-orf"  />
<polygon style="stroke:black; stroke-width:1; fill:#FFFFFF; " description="hypothetical_protein[br]Location: 476380 - 478805" locus_tag="CCD54549.1" id="clusterblast-1_h47_2_21" points="646,90 679,90 684,85 679,80 646,80 646,90 " class="clusterblast-orf"  />
<polygon style="stroke:black; stroke-width:1; fill:#FFFFFF; " description="similar_to_ubiquinone_biosynthesis[br]Location: 479521 - 480651" locus_tag="CCD54550.1" id="clusterblast-1_h47_2_22" points="695,85 700,80 712,80 712,90 700,90 695,85 " class="clusterblast-orf"  />
<polygon style="stroke:black; stroke-width:1; fill:#FFFFFF; " description="similar_to_2-oxoisovalerate_dehydrogenase[br]Location: 481125 - 482632" locus_tag="CCD54551.1" id="clusterblast-1_h47_2_23" points="719,90 738,90 743,85 738,80 719,80 719,90 " class="clusterblast-orf"  />
<polygon style="stroke:black; stroke-width:1; fill:#FFFFFF; " description="similar_to_smr_domain-containing_protein[br]Location: 483114 - 484878" locus_tag="CCD54552.1" id="clusterblast-1_h47_2_24" points="750,85 755,80 778,80 778,90 755,90 750,85 " class="clusterblast-orf"  />
</g>
</svg>
