<svg xmlns="http://www.w3.org/2000/svg" height="230" width="800" version="1.1" y="0" x="0" preserveAspectRatio="none" xmlns:xlink="http://www.w3.org/1999/xlink" viewBox="0 0 800 230"  >
<g class="clusterblast-cluster" label="Query sequence"  >
<text class="clusterblast-acc" y="10" x="5"  >
Query sequence</text>
<line y1="35" x2="778.0" style="stroke:grey; stroke-width:1; " x1="10" y2="35"  />
<polygon style="stroke:black; stroke-width:1; fill:#FFFFFF; " description="unannotated orf[br]Location: 48550 - 50452" locus_tag="CHAFR746836_0048540.1" class="clusterblast-orf" points="17,35 22,30 48,30 48,40 22,40 17,35 " id="clusterblast-1_q60_6_0"  />
<polygon style="stroke:black; stroke-width:1; fill:#FFFFFF; " description="unannotated orf[br]Location: 51110 - 51728" locus_tag="CHAFR746836_0048550.1" class="clusterblast-orf" points="59,35 64,30 70,30 70,40 64,40 59,35 " id="clusterblast-1_q60_6_1"  />
<polygon style="stroke:black; stroke-width:1; fill:#FFFFFF; " description="unannotated orf[br]Location: 53237 - 55611" locus_tag="CHAFR746836_0048560.1" class="clusterblast-orf" points="95,35 100,30 135,30 135,40 100,40 95,35 " id="clusterblast-1_q60_6_2"  />
<polygon style="stroke:black; stroke-width:1; fill:#FFFFFF; " description="unannotated orf[br]Location: 57932 - 59484" locus_tag="CHAFR746836_0048570.1" class="clusterblast-orf" points="173,40 194,40 199,35 194,30 173,30 173,40 " id="clusterblast-1_q60_6_3"  />
<polygon style="stroke:black; stroke-width:1; fill:#FFFFFF; " description="unannotated orf[br]Location: 62331 - 63950" locus_tag="CHAFR746836_0048580.1" class="clusterblast-orf" points="247,35 252,30 274,30 274,40 252,40 247,35 " id="clusterblast-1_q60_6_4"  />
<polygon style="stroke:black; stroke-width:1; fill:red; " description="unannotated orf[br]Location: 64666 - 66296" locus_tag="CHAFR746836_0048590.1" class="clusterblast-orf" points="286,40 308,40 313,35 308,30 286,30 286,40 " id="clusterblast-1_q60_6_5"  />
<polygon style="stroke:black; stroke-width:1; fill:green; " description="unannotated orf[br]Location: 69864 - 75702" locus_tag="CHAFR746836_0048600.1" class="clusterblast-orf" points="373,40 465,40 470,35 465,30 373,30 373,40 " id="clusterblast-1_q60_6_6"  />
<polygon style="stroke:black; stroke-width:1; fill:blue; " description="unannotated orf[br]Location: 79743 - 81850" locus_tag="CHAFR746836_0048610.1" class="clusterblast-orf" points="538,40 568,40 573,35 568,30 538,30 538,40 " id="clusterblast-1_q60_6_7"  />
<polygon style="stroke:black; stroke-width:1; fill:#FFFFFF; " description="unannotated orf[br]Location: 85884 - 86805" locus_tag="CHAFR746836_0048620.1" class="clusterblast-orf" points="641,40 651,40 656,35 651,30 641,30 641,40 " id="clusterblast-1_q60_6_8"  />
<polygon style="stroke:black; stroke-width:1; fill:#FFFFFF; " description="unannotated orf[br]Location: 87662 - 90517" locus_tag="CHAFR746836_0048630.1" class="clusterblast-orf" points="670,40 713,40 718,35 713,30 670,30 670,40 " id="clusterblast-1_q60_6_9"  />
<polygon style="stroke:black; stroke-width:1; fill:#FFFFFF; " description="unannotated orf[br]Location: 91368 - 93605" locus_tag="CHAFR746836_0048640.1" class="clusterblast-orf" points="732,40 765,40 770,35 765,30 732,30 732,40 " id="clusterblast-1_q60_6_10"  />
</g>
<g class="clusterblast-cluster" description="Burkholderia pseudomallei 576 BUC.Contig179, whole ge..." label="NZ_ACCE01000010.1_c1"  >
<text class="clusterblast-acc" y="60" x="5"  >
NZ_ACCE01000010.1_c1</text>
<text class="clusterblast-desc" y="60" x="460.8"  >
Burkholderia pseudomallei 576 BUC.Contig179, whole ge...</text>
<line y1="85" x2="778.0" style="stroke:grey; stroke-width:1; " x1="10" y2="85"  />
<polygon style="stroke:black; stroke-width:1; fill:#FFFFFF; " description="aminotransferase,_class_III[br]Location: 91689 - 93176" locus_tag="BUC_4808" id="clusterblast-1_h60_6_0" points="10,85 15,80 34,80 34,90 15,90 10,85 " class="clusterblast-orf"  />
<polygon style="stroke:black; stroke-width:1; fill:#FFFFFF; " description="glutamine_synthetase_catalytic_domain_protein[br]Location: 90388 - 91722" locus_tag="BUC_4809" id="clusterblast-1_h60_6_1" points="34,85 39,80 56,80 56,90 39,90 34,85 " class="clusterblast-orf"  />
<polygon style="stroke:black; stroke-width:1; fill:#FFFFFF; " description="peptidase_C26_family_protein[br]Location: 89561 - 90361" locus_tag="BUC_4810" id="clusterblast-1_h60_6_2" points="57,85 62,80 70,80 70,90 62,90 57,85 " class="clusterblast-orf"  />
<polygon style="stroke:black; stroke-width:1; fill:#FFFFFF; " description="conserved_hypothetical_protein[br]Location: 89472 - 89606" locus_tag="BUC_4811" id="clusterblast-1_h60_6_3" points="69,85 71,80 71,90 69,85 " class="clusterblast-orf"  />
<polygon style="stroke:black; stroke-width:1; fill:#FFFFFF; " description="hypothetical_protein[br]Location: 89329 - 89463" locus_tag="BUC_4812" id="clusterblast-1_h60_6_4" points="72,85 74,80 74,90 72,85 " class="clusterblast-orf"  />
<polygon style="stroke:black; stroke-width:1; fill:#FFFFFF; " description="conserved_hypothetical_protein[br]Location: 88677 - 88805" locus_tag="BUC_4813" id="clusterblast-1_h60_6_5" points="83,85 85,80 85,90 83,85 " class="clusterblast-orf"  />
<polygon style="stroke:black; stroke-width:1; fill:#FFFFFF; " description="transcriptional_regulator_PuuR[br]Location: 88068 - 88637" locus_tag="BUC_4814" id="clusterblast-1_h60_6_6" points="85,90 90,90 95,85 90,80 85,80 85,90 " class="clusterblast-orf"  />
<polygon style="stroke:black; stroke-width:1; fill:red; " description="aldehyde_dehydrogenase_(NAD)_family_protein[br]Location: 86460 - 87950&lt;br&gt;&lt;br&gt;&lt;b&gt;BlastP hit with CHAFR746836_0048590.1&lt;/b&gt;&lt;br&gt;Percentage identity: 39%&lt;br&gt;Percentage coverage: 94%&lt;br&gt;BLAST bit score: 301&lt;br&gt;E-value: 5e-94" locus_tag="BUC_4815" id="clusterblast-1_h60_6_7" points="97,90 117,90 122,85 117,80 97,80 97,90 " class="clusterblast-orf"  />
<polygon style="stroke:black; stroke-width:1; fill:green; " description="agmatinase[br]Location: 85367 - 86329&lt;br&gt;&lt;br&gt;&lt;b&gt;BlastP hit with CHAFR746836_0048600.1&lt;/b&gt;&lt;br&gt;Percentage identity: 37%&lt;br&gt;Percentage coverage: 22%&lt;br&gt;BLAST bit score: 179&lt;br&gt;E-value: 9e-48" locus_tag="BUC_4816" id="clusterblast-1_h60_6_8" points="124,90 135,90 140,85 135,80 124,80 124,90 " class="clusterblast-orf"  />
<polygon style="stroke:black; stroke-width:1; fill:#FFFFFF; " description="hypothetical_protein[br]Location: 84835 - 85248" locus_tag="BUC_4817" id="clusterblast-1_h60_6_9" points="142,90 144,90 149,85 144,80 142,80 142,90 " class="clusterblast-orf"  />
<polygon style="stroke:black; stroke-width:1; fill:#FFFFFF; " description="chaperonin,_10_kDa[br]Location: 84351 - 84647" locus_tag="BUC_4818" id="clusterblast-1_h60_6_10" points="152,90 152,90 157,85 152,80 152,80 152,90 " class="clusterblast-orf"  />
<polygon style="stroke:black; stroke-width:1; fill:#FFFFFF; " description="chaperonin_GroL[br]Location: 82689 - 84329" locus_tag="BUC_4819" id="clusterblast-1_h60_6_11" points="157,90 180,90 185,85 180,80 157,80 157,90 " class="clusterblast-orf"  />
<polygon style="stroke:black; stroke-width:1; fill:#FFFFFF; " description="putative_membrane_protein[br]Location: 82181 - 82627" locus_tag="BUC_4820" id="clusterblast-1_h60_6_12" points="186,85 191,80 193,80 193,90 191,90 186,85 " class="clusterblast-orf"  />
<polygon style="stroke:black; stroke-width:1; fill:#FFFFFF; " description="hypothetical_protein[br]Location: 81863 - 81985" locus_tag="BUC_4821" id="clusterblast-1_h60_6_13" points="197,85 199,80 199,90 197,85 " class="clusterblast-orf"  />
<polygon style="stroke:black; stroke-width:1; fill:#FFFFFF; " description="hypothetical_protein[br]Location: 81736 - 81852" locus_tag="BUC_4822" id="clusterblast-1_h60_6_14" points="199,90 201,85 199,80 199,90 " class="clusterblast-orf"  />
<polygon style="stroke:black; stroke-width:1; fill:#FFFFFF; " description="ribonucleoside-diphosphate_reductase,[br]Location: 79039 - 81573" locus_tag="BUC_4823" id="clusterblast-1_h60_6_15" points="203,90 241,90 246,85 241,80 203,80 203,90 " class="clusterblast-orf"  />
<polygon style="stroke:black; stroke-width:1; fill:#FFFFFF; " description="conserved_hypothetical_protein[br]Location: 78356 - 78478" locus_tag="BUC_4824" id="clusterblast-1_h60_6_16" points="255,90 257,85 255,80 255,90 " class="clusterblast-orf"  />
<polygon style="stroke:black; stroke-width:1; fill:#FFFFFF; " description="conserved_hypothetical_protein[br]Location: 78042 - 78197" locus_tag="BUC_4825" id="clusterblast-1_h60_6_17" points="260,85 263,80 263,90 260,85 " class="clusterblast-orf"  />
<polygon style="stroke:black; stroke-width:1; fill:#FFFFFF; " description="2-aminobenzoate-CoA_ligase[br]Location: 76380 - 78005" locus_tag="BUC_4826" id="clusterblast-1_h60_6_18" points="263,90 285,90 290,85 285,80 263,80 263,90 " class="clusterblast-orf"  />
<polygon style="stroke:black; stroke-width:1; fill:#FFFFFF; " description="conserved_hypothetical_protein[br]Location: 75403 - 76293" locus_tag="BUC_4827" id="clusterblast-1_h60_6_19" points="292,90 302,90 307,85 302,80 292,80 292,90 " class="clusterblast-orf"  />
<polygon style="stroke:black; stroke-width:1; fill:#FFFFFF; " description="3-oxoacyl-(acyl-carrier-protein)_synthase_family[br]Location: 74297 - 75424" locus_tag="BUC_4828" id="clusterblast-1_h60_6_20" points="306,90 320,90 325,85 320,80 306,80 306,90 " class="clusterblast-orf"  />
<polygon style="stroke:black; stroke-width:1; fill:#FFFFFF; " description="3-oxoacyl-(acyl-carrier-protein)_synthase_family[br]Location: 73309 - 74307" locus_tag="BUC_4829" id="clusterblast-1_h60_6_21" points="325,90 337,90 342,85 337,80 325,80 325,90 " class="clusterblast-orf"  />
<polygon style="stroke:black; stroke-width:1; fill:#FFFFFF; " description="metallo-beta-lactamase_family_protein[br]Location: 72404 - 73330" locus_tag="BUC_4830" id="clusterblast-1_h60_6_22" points="341,90 352,90 357,85 352,80 341,80 341,90 " class="clusterblast-orf"  />
<polygon style="stroke:black; stroke-width:1; fill:#FFFFFF; " description="acyl-CoA_dehydrogenase[br]Location: 68407 - 72276" locus_tag="BUC_4831" id="clusterblast-1_h60_6_23" points="359,90 419,90 424,85 419,80 359,80 359,90 " class="clusterblast-orf"  />
<polygon style="stroke:black; stroke-width:1; fill:#FFFFFF; " description="conserved_hypothetical_protein[br]Location: 66258 - 68393" locus_tag="BUC_4832" id="clusterblast-1_h60_6_24" points="424,90 455,90 460,85 455,80 424,80 424,90 " class="clusterblast-orf"  />
<polygon style="stroke:black; stroke-width:1; fill:#FFFFFF; " description="putative_membrane_protein[br]Location: 65520 - 66251" locus_tag="BUC_4833" id="clusterblast-1_h60_6_25" points="460,90 467,90 472,85 467,80 460,80 460,90 " class="clusterblast-orf"  />
<polygon style="stroke:black; stroke-width:1; fill:#FFFFFF; " description="hypothetical_protein[br]Location: 65294 - 65440" locus_tag="BUC_4834" id="clusterblast-1_h60_6_26" points="473,90 476,85 473,80 473,90 " class="clusterblast-orf"  />
<polygon style="stroke:black; stroke-width:1; fill:#FFFFFF; " description="conserved_hypothetical_protein[br]Location: 64231 - 64701" locus_tag="BUC_4835" id="clusterblast-1_h60_6_27" points="486,90 488,90 493,85 488,80 486,80 486,90 " class="clusterblast-orf"  />
<polygon style="stroke:black; stroke-width:1; fill:#FFFFFF; " description="conserved_domain_protein[br]Location: 64116 - 64229" locus_tag="BUC_4836" id="clusterblast-1_h60_6_28" points="493,85 495,80 495,90 493,85 " class="clusterblast-orf"  />
<polygon style="stroke:black; stroke-width:1; fill:#FFFFFF; " description="transposase_B[br]Location: 63490 - 63690" locus_tag="BUC_4837" id="clusterblast-1_h60_6_29" points="502,90 506,85 502,80 502,90 " class="clusterblast-orf"  />
<polygon style="stroke:black; stroke-width:1; fill:#FFFFFF; " description="alkyl_hydroperoxide_reductase,_F_subunit[br]Location: 61668 - 63275" locus_tag="BUC_4838" id="clusterblast-1_h60_6_30" points="509,85 514,80 536,80 536,90 514,90 509,85 " class="clusterblast-orf"  />
<polygon style="stroke:black; stroke-width:1; fill:#FFFFFF; " description="peroxiredoxin[br]Location: 60901 - 61464" locus_tag="BUC_4839" id="clusterblast-1_h60_6_31" points="540,85 545,80 549,80 549,90 545,90 540,85 " class="clusterblast-orf"  />
<polygon style="stroke:black; stroke-width:1; fill:#FFFFFF; " description="hypothetical_protein[br]Location: 60618 - 60857" locus_tag="BUC_4841" id="clusterblast-1_h60_6_32" points="550,90 554,85 550,80 550,90 " class="clusterblast-orf"  />
<polygon style="stroke:black; stroke-width:1; fill:#FFFFFF; " description="chitin-binding_protein[br]Location: 59414 - 60640" locus_tag="BUC_4840" id="clusterblast-1_h60_6_33" points="553,85 558,80 574,80 574,90 558,90 553,85 " class="clusterblast-orf"  />
<polygon style="stroke:black; stroke-width:1; fill:#FFFFFF; " description="chitin_binding_domain_protein[br]Location: 59010 - 59417" locus_tag="BUC_4842" id="clusterblast-1_h60_6_34" points="574,85 579,80 581,80 581,90 579,90 574,85 " class="clusterblast-orf"  />
<polygon style="stroke:black; stroke-width:1; fill:#FFFFFF; " description="hypothetical_protein[br]Location: 58384 - 58983" locus_tag="BUC_4843" id="clusterblast-1_h60_6_35" points="581,85 586,80 591,80 591,90 586,90 581,85 " class="clusterblast-orf"  />
<polygon style="stroke:black; stroke-width:1; fill:#FFFFFF; " description="nitroreductase_family_protein[br]Location: 57782 - 58405" locus_tag="BUC_4844" id="clusterblast-1_h60_6_36" points="591,85 596,80 601,80 601,90 596,90 591,85 " class="clusterblast-orf"  />
<polygon style="stroke:black; stroke-width:1; fill:#FFFFFF; " description="conserved_hypothetical_protein[br]Location: 57554 - 57709" locus_tag="BUC_4845" id="clusterblast-1_h60_6_37" points="602,85 605,80 605,90 602,85 " class="clusterblast-orf"  />
<polygon style="stroke:black; stroke-width:1; fill:#FFFFFF; " description="hypothetical_protein[br]Location: 57343 - 57549" locus_tag="BUC_4846" id="clusterblast-1_h60_6_38" points="605,90 609,85 605,80 605,90 " class="clusterblast-orf"  />
<polygon style="stroke:black; stroke-width:1; fill:#FFFFFF; " description="conserved_hypothetical_protein[br]Location: 55632 - 57065" locus_tag="BUC_4847" id="clusterblast-1_h60_6_39" points="613,90 632,90 637,85 632,80 613,80 613,90 " class="clusterblast-orf"  />
<polygon style="stroke:black; stroke-width:1; fill:#FFFFFF; " description="conserved_hypothetical_protein[br]Location: 54596 - 55627" locus_tag="BUC_4848" id="clusterblast-1_h60_6_40" points="637,90 649,90 654,85 649,80 637,80 637,90 " class="clusterblast-orf"  />
<polygon style="stroke:black; stroke-width:1; fill:#FFFFFF; " description="putative_protease[br]Location: 53631 - 54587" locus_tag="BUC_4850" id="clusterblast-1_h60_6_41" points="655,90 666,90 671,85 666,80 655,80 655,90 " class="clusterblast-orf"  />
<polygon style="stroke:black; stroke-width:1; fill:#FFFFFF; " description="conserved_hypothetical_protein[br]Location: 53483 - 53662" locus_tag="BUC_4849" id="clusterblast-1_h60_6_42" points="670,85 673,80 673,90 670,85 " class="clusterblast-orf"  />
<polygon style="stroke:black; stroke-width:1; fill:#FFFFFF; " description="putative_protease[br]Location: 50072 - 53494" locus_tag="BUC_4851" id="clusterblast-1_h60_6_43" points="673,90 725,90 730,85 725,80 673,80 673,90 " class="clusterblast-orf"  />
<polygon style="stroke:black; stroke-width:1; fill:#FFFFFF; " description="hypothetical_protein[br]Location: 49896 - 50075" locus_tag="BUC_4852" id="clusterblast-1_h60_6_44" points="730,90 733,85 730,80 730,90 " class="clusterblast-orf"  />
<polygon style="stroke:black; stroke-width:1; fill:#FFFFFF; " description="conserved_hypothetical_protein[br]Location: 47236 - 49884" locus_tag="BUC_4853" id="clusterblast-1_h60_6_45" points="733,90 773,90 778,85 773,80 733,80 733,90 " class="clusterblast-orf"  />
</g>
</svg>
