<svg xmlns="http://www.w3.org/2000/svg" height="230" width="800" version="1.1" y="0" x="0" preserveAspectRatio="none" xmlns:xlink="http://www.w3.org/1999/xlink" viewBox="0 0 800 230"  >
<g class="clusterblast-cluster" label="Query sequence"  >
<text class="clusterblast-acc" y="10" x="5"  >
Query sequence</text>
<line y1="35" x2="778.0" style="stroke:grey; stroke-width:1; " x1="10" y2="35"  />
<polygon style="stroke:black; stroke-width:1; fill:#FFFFFF; " description="unannotated orf[br]Location: 0 - 322" locus_tag="CHAFR746836_0040870.1" class="clusterblast-orf" points="10,35 13,30 13,40 10,35 " id="clusterblast-1_q53_10_0"  />
<polygon style="stroke:black; stroke-width:1; fill:#FFFFFF; " description="unannotated orf[br]Location: 690 - 1609" locus_tag="CHAFR746836_0040880.1" class="clusterblast-orf" points="16,40 20,40 25,35 20,30 16,30 16,40 " id="clusterblast-1_q53_10_1"  />
<polygon style="stroke:black; stroke-width:1; fill:#FFFFFF; " description="unannotated orf[br]Location: 1917 - 2487" locus_tag="CHAFR746836_0040890.1" class="clusterblast-orf" points="28,35 33,30 34,30 34,40 33,40 28,35 " id="clusterblast-1_q53_10_2"  />
<polygon style="stroke:black; stroke-width:1; fill:#FFFFFF; " description="unannotated orf[br]Location: 2829 - 4095" locus_tag="CHAFR746836_0040900.1" class="clusterblast-orf" points="37,40 45,40 50,35 45,30 37,30 37,40 " id="clusterblast-1_q53_10_3"  />
<polygon style="stroke:black; stroke-width:1; fill:red; " description="unannotated orf[br]Location: 4748 - 6053" locus_tag="CHAFR746836_0040910.1" class="clusterblast-orf" points="56,40 64,40 69,35 64,30 56,30 56,40 " id="clusterblast-1_q53_10_4"  />
<polygon style="stroke:black; stroke-width:1; fill:green; " description="unannotated orf[br]Location: 5316 - 6053" locus_tag="CHAFR746836_0040910.2" class="clusterblast-orf" points="62,40 64,40 69,35 64,30 62,30 62,40 " id="clusterblast-1_q53_10_5"  />
<polygon style="stroke:black; stroke-width:1; fill:#FFFFFF; " description="unannotated orf[br]Location: 19247 - 21227" locus_tag="CHAFR746836_0040920.1" class="clusterblast-orf" points="198,35 203,30 217,30 217,40 203,40 198,35 " id="clusterblast-1_q53_10_6"  />
<polygon style="stroke:black; stroke-width:1; fill:#FFFFFF; " description="unannotated orf[br]Location: 22480 - 23723" locus_tag="CHAFR746836_0040930.1" class="clusterblast-orf" points="230,35 235,30 242,30 242,40 235,40 230,35 " id="clusterblast-1_q53_10_7"  />
<polygon style="stroke:black; stroke-width:1; fill:#FFFFFF; " description="unannotated orf[br]Location: 24447 - 25229" locus_tag="CHAFR746836_0040940.1" class="clusterblast-orf" points="249,40 252,40 257,35 252,30 249,30 249,40 " id="clusterblast-1_q53_10_8"  />
<polygon style="stroke:black; stroke-width:1; fill:blue; " description="unannotated orf[br]Location: 26989 - 36831" locus_tag="CHAFR746836_0040950.1" class="clusterblast-orf" points="274,40 365,40 370,35 365,30 274,30 274,40 " id="clusterblast-1_q53_10_9"  />
<polygon style="stroke:black; stroke-width:1; fill:#FFFFFF; " description="unannotated orf[br]Location: 37202 - 38681" locus_tag="CHAFR746836_0040960.1" class="clusterblast-orf" points="374,35 379,30 388,30 388,40 379,40 374,35 " id="clusterblast-1_q53_10_10"  />
<polygon style="stroke:black; stroke-width:1; fill:#FFFFFF; " description="unannotated orf[br]Location: 39268 - 43358" locus_tag="CHAFR746836_0040970.1" class="clusterblast-orf" points="394,35 399,30 434,30 434,40 399,40 394,35 " id="clusterblast-1_q53_10_11"  />
<polygon style="stroke:black; stroke-width:1; fill:#FFFFFF; " description="unannotated orf[br]Location: 44144 - 49961" locus_tag="CHAFR746836_0040980.1" class="clusterblast-orf" points="442,40 494,40 499,35 494,30 442,30 442,40 " id="clusterblast-1_q53_10_12"  />
<polygon style="stroke:black; stroke-width:1; fill:#FFFFFF; " description="unannotated orf[br]Location: 60900 - 62027" locus_tag="CHAFR746836_0040990.1" class="clusterblast-orf" points="606,40 612,40 617,35 612,30 606,30 606,40 " id="clusterblast-1_q53_10_13"  />
<polygon style="stroke:black; stroke-width:1; fill:#FFFFFF; " description="unannotated orf[br]Location: 67062 - 68025" locus_tag="CHAFR746836_0041000.1" class="clusterblast-orf" points="667,40 671,40 676,35 671,30 667,30 667,40 " id="clusterblast-1_q53_10_14"  />
<polygon style="stroke:black; stroke-width:1; fill:#FFFFFF; " description="unannotated orf[br]Location: 70299 - 71348" locus_tag="CHAFR746836_0041010.1" class="clusterblast-orf" points="698,40 704,40 709,35 704,30 698,30 698,40 " id="clusterblast-1_q53_10_15"  />
<polygon style="stroke:black; stroke-width:1; fill:#FFFFFF; " description="unannotated orf[br]Location: 73436 - 77093" locus_tag="CHAFR746836_0041020.1" class="clusterblast-orf" points="729,35 734,30 765,30 765,40 734,40 729,35 " id="clusterblast-1_q53_10_16"  />
<polygon style="stroke:black; stroke-width:1; fill:yellow; " description="unannotated orf[br]Location: 77315 - 78384" locus_tag="CHAFR746836_0041030.1" class="clusterblast-orf" points="767,40 773,40 778,35 773,30 767,30 767,40 " id="clusterblast-1_q53_10_17"  />
</g>
<g class="clusterblast-cluster" description="Nostoc punctiforme PCC 73102, complete genome." label="NC_010628.1_c4"  >
<text class="clusterblast-acc" y="60" x="5"  >
NC_010628.1_c4</text>
<text class="clusterblast-desc" y="60" x="460.8"  >
Nostoc punctiforme PCC 73102, complete genome.</text>
<line y1="85" x2="778.0" style="stroke:grey; stroke-width:1; " x1="10" y2="85"  />
<polygon style="stroke:black; stroke-width:1; fill:#FFFFFF; " description="WD-40_repeat-containing_protein[br]Location: 2565255 - 2568782" locus_tag="Npun_R2098" id="clusterblast-1_h53_10_0" points="67,90 96,90 101,85 96,80 67,80 67,90 " class="clusterblast-orf"  />
<polygon style="stroke:black; stroke-width:1; fill:red; " description="short_chain_dehydrogenase[br]Location: 2564038 - 2564790&lt;br&gt;&lt;br&gt;&lt;b&gt;BlastP hit with CHAFR746836_0040910.1&lt;/b&gt;&lt;br&gt;Percentage identity: 42%&lt;br&gt;Percentage coverage: 99%&lt;br&gt;BLAST bit score: 194&lt;br&gt;E-value: 6e-59&lt;br&gt;&lt;br&gt;&lt;b&gt;BlastP hit with CHAFR746836_0040910.2&lt;/b&gt;&lt;br&gt;Percentage identity: 47%&lt;br&gt;Percentage coverage: 91%&lt;br&gt;BLAST bit score: 108&lt;br&gt;E-value: 3e-28" locus_tag="Npun_F2097" id="clusterblast-1_h53_10_1" points="106,85 111,80 113,80 113,90 111,90 106,85 " class="clusterblast-orf"  />
<polygon style="stroke:black; stroke-width:1; fill:#FFFFFF; " description="GDSL_family_lipase[br]Location: 2563019 - 2563996" locus_tag="Npun_F2096" id="clusterblast-1_h53_10_2" points="113,85 118,80 123,80 123,90 118,90 113,85 " class="clusterblast-orf"  />
<polygon style="stroke:black; stroke-width:1; fill:#FFFFFF; " description="3-oxoacyl-(ACP)_synthase_III[br]Location: 2561777 - 2562916" locus_tag="Npun_F2095" id="clusterblast-1_h53_10_3" points="124,85 129,80 135,80 135,90 129,90 124,85 " class="clusterblast-orf"  />
<polygon style="stroke:black; stroke-width:1; fill:#FFFFFF; " description="thiamine_pyrophosphate_binding_domain-containing[br]Location: 2559770 - 2561581" locus_tag="Npun_F2094" id="clusterblast-1_h53_10_4" points="137,85 142,80 155,80 155,90 142,90 137,85 " class="clusterblast-orf"  />
<polygon style="stroke:black; stroke-width:1; fill:#FFFFFF; " description="Mo-dependent_nitrogenase_family_protein[br]Location: 2557962 - 2558228" locus_tag="Npun_R2093" id="clusterblast-1_h53_10_5" points="170,90 173,85 170,80 170,90 " class="clusterblast-orf"  />
<polygon style="stroke:black; stroke-width:1; fill:#FFFFFF; " description="hypothetical_protein[br]Location: 2557020 - 2557358" locus_tag="Npun_R2092" id="clusterblast-1_h53_10_6" points="178,90 182,85 178,80 178,90 " class="clusterblast-orf"  />
<polygon style="stroke:black; stroke-width:1; fill:#FFFFFF; " description="two_component_AraC_family_transcriptional[br]Location: 2555805 - 2556641" locus_tag="Npun_R2091" id="clusterblast-1_h53_10_7" points="185,90 189,90 194,85 189,80 185,80 185,90 " class="clusterblast-orf"  />
<polygon style="stroke:black; stroke-width:1; fill:#FFFFFF; " description="phosphopantetheine-binding[br]Location: 2555201 - 2555641" locus_tag="Npun_R2090" id="clusterblast-1_h53_10_8" points="195,90 195,90 200,85 195,80 195,80 195,90 " class="clusterblast-orf"  />
<polygon style="stroke:black; stroke-width:1; fill:#FFFFFF; " description="4'-phosphopantetheinyl_transferase[br]Location: 2554368 - 2555123" locus_tag="Npun_R2089" id="clusterblast-1_h53_10_9" points="200,90 203,90 208,85 203,80 200,80 200,90 " class="clusterblast-orf"  />
<polygon style="stroke:black; stroke-width:1; fill:#FFFFFF; " description="3-oxoacyl-(acyl-carrier-protein)_synthase_III[br]Location: 2553072 - 2554106" locus_tag="Npun_R2088" id="clusterblast-1_h53_10_10" points="210,90 215,90 220,85 215,80 210,80 210,90 " class="clusterblast-orf"  />
<polygon style="stroke:black; stroke-width:1; fill:#FFFFFF; " description="FkbH_like_protein[br]Location: 2551145 - 2553061" locus_tag="Npun_R2087" id="clusterblast-1_h53_10_11" points="221,90 234,90 239,85 234,80 221,80 221,90 " class="clusterblast-orf"  />
<polygon style="stroke:black; stroke-width:1; fill:#FFFFFF; " description="hypothetical_protein[br]Location: 2550931 - 2551152" locus_tag="Npun_R2086" id="clusterblast-1_h53_10_12" points="239,90 241,85 239,80 239,90 " class="clusterblast-orf"  />
<polygon style="stroke:black; stroke-width:1; fill:#FFFFFF; " description="dehydrogenase_catalytic_domain-containing[br]Location: 2550150 - 2550911" locus_tag="Npun_R2085" id="clusterblast-1_h53_10_13" points="242,90 244,90 249,85 244,80 242,80 242,90 " class="clusterblast-orf"  />
<polygon style="stroke:black; stroke-width:1; fill:#FFFFFF; " description="hypothetical_protein[br]Location: 2548836 - 2550056" locus_tag="Npun_R2084" id="clusterblast-1_h53_10_14" points="250,90 257,90 262,85 257,80 250,80 250,90 " class="clusterblast-orf"  />
<polygon style="stroke:black; stroke-width:1; fill:#FFFFFF; " description="AMP-dependent_synthetase_and_ligase[br]Location: 2544777 - 2548631" locus_tag="Npun_R2083" id="clusterblast-1_h53_10_15" points="264,90 297,90 302,85 297,80 264,80 264,90 " class="clusterblast-orf"  />
<polygon style="stroke:black; stroke-width:1; fill:#FFFFFF; " description="beta-ketoacyl_synthase[br]Location: 2538829 - 2544381" locus_tag="Npun_R2082" id="clusterblast-1_h53_10_16" points="306,90 355,90 360,85 355,80 306,80 306,90 " class="clusterblast-orf"  />
<polygon style="stroke:black; stroke-width:1; fill:blue; " description="beta-ketoacyl_synthase[br]Location: 2532676 - 2538726&lt;br&gt;&lt;br&gt;&lt;b&gt;BlastP hit with CHAFR746836_0040950.1&lt;/b&gt;&lt;br&gt;Percentage identity: 33%&lt;br&gt;Percentage coverage: 30%&lt;br&gt;BLAST bit score: 460&lt;br&gt;E-value: 1e-129" locus_tag="Npun_R2081" id="clusterblast-1_h53_10_17" points="361,90 415,90 420,85 415,80 361,80 361,90 " class="clusterblast-orf"  />
<polygon style="stroke:black; stroke-width:1; fill:blue; " description="beta-ketoacyl_synthase[br]Location: 2526874 - 2532567&lt;br&gt;&lt;br&gt;&lt;b&gt;BlastP hit with CHAFR746836_0040950.1&lt;/b&gt;&lt;br&gt;Percentage identity: 32%&lt;br&gt;Percentage coverage: 38%&lt;br&gt;BLAST bit score: 525&lt;br&gt;E-value: 1e-150" locus_tag="Npun_R2080" id="clusterblast-1_h53_10_18" points="421,90 472,90 477,85 472,80 421,80 421,90 " class="clusterblast-orf"  />
<polygon style="stroke:black; stroke-width:1; fill:blue; " description="beta-ketoacyl_synthase[br]Location: 2523324 - 2526566&lt;br&gt;&lt;br&gt;&lt;b&gt;BlastP hit with CHAFR746836_0040950.1&lt;/b&gt;&lt;br&gt;Percentage identity: 32%&lt;br&gt;Percentage coverage: 30%&lt;br&gt;BLAST bit score: 422&lt;br&gt;E-value: 3e-122" locus_tag="Npun_R2079" id="clusterblast-1_h53_10_19" points="480,90 507,90 512,85 507,80 480,80 480,90 " class="clusterblast-orf"  />
<polygon style="stroke:black; stroke-width:1; fill:#FFFFFF; " description="protein_of_unknown_function_DUF1100,_hydrolase[br]Location: 2522092 - 2523192" locus_tag="Npun_R2078" id="clusterblast-1_h53_10_20" points="513,90 519,90 524,85 519,80 513,80 513,90 " class="clusterblast-orf"  />
<polygon style="stroke:black; stroke-width:1; fill:#FFFFFF; " description="thioesterase[br]Location: 2521301 - 2522095" locus_tag="Npun_R2077" id="clusterblast-1_h53_10_21" points="524,90 527,90 532,85 527,80 524,80 524,90 " class="clusterblast-orf"  />
<polygon style="stroke:black; stroke-width:1; fill:#FFFFFF; " description="activator_of_Hsp90_ATPase_1_family_protein[br]Location: 2520574 - 2521023" locus_tag="Npun_R2076" id="clusterblast-1_h53_10_22" points="534,90 534,90 539,85 534,80 534,80 534,90 " class="clusterblast-orf"  />
<polygon style="stroke:black; stroke-width:1; fill:#FFFFFF; " description="flavoprotein_involved_in_K+_transport-like[br]Location: 2518576 - 2520117" locus_tag="Npun_R2075" id="clusterblast-1_h53_10_23" points="543,90 553,90 558,85 553,80 543,80 543,90 " class="clusterblast-orf"  />
<polygon style="stroke:black; stroke-width:1; fill:#FFFFFF; " description="hypothetical_protein[br]Location: 2517557 - 2518318" locus_tag="Npun_R2074" id="clusterblast-1_h53_10_24" points="561,90 563,90 568,85 563,80 561,80 561,90 " class="clusterblast-orf"  />
<polygon style="stroke:black; stroke-width:1; fill:#FFFFFF; " description="hypothetical_protein[br]Location: 2516525 - 2516959" locus_tag="Npun_R2073" id="clusterblast-1_h53_10_25" points="574,90 574,90 579,85 574,80 574,80 574,90 " class="clusterblast-orf"  />
<polygon style="stroke:black; stroke-width:1; fill:#FFFFFF; " description="acyl_carrier_protein[br]Location: 2515321 - 2515566" locus_tag="Npun_R2071" id="clusterblast-1_h53_10_26" points="588,90 590,85 588,80 588,90 " class="clusterblast-orf"  />
<polygon style="stroke:black; stroke-width:1; fill:#FFFFFF; " description="beta-ketoacyl_synthase[br]Location: 2514043 - 2515311" locus_tag="Npun_R2070" id="clusterblast-1_h53_10_27" points="590,90 598,90 603,85 598,80 590,80 590,90 " class="clusterblast-orf"  />
<polygon style="stroke:black; stroke-width:1; fill:#FFFFFF; " description="3-oxoacyl-(acyl-carrier-protein)_synthase_III[br]Location: 2512911 - 2513912" locus_tag="Npun_R2069" id="clusterblast-1_h53_10_28" points="604,90 609,90 614,85 609,80 604,80 604,90 " class="clusterblast-orf"  />
<polygon style="stroke:black; stroke-width:1; fill:#FFFFFF; " description="phenylalanine/histidine_ammonia-lyase[br]Location: 2511091 - 2512800" locus_tag="Npun_R2068" id="clusterblast-1_h53_10_29" points="615,90 627,90 632,85 627,80 615,80 615,90 " class="clusterblast-orf"  />
<polygon style="stroke:black; stroke-width:1; fill:#FFFFFF; " description="AMP-dependent_synthetase_and_ligase[br]Location: 2509368 - 2510909" locus_tag="Npun_R2067" id="clusterblast-1_h53_10_30" points="634,90 644,90 649,85 644,80 634,80 634,90 " class="clusterblast-orf"  />
<polygon style="stroke:black; stroke-width:1; fill:#FFFFFF; " description="thiamine_pyrophosphate_binding_domain-containing[br]Location: 2507506 - 2509266" locus_tag="Npun_R2066" id="clusterblast-1_h53_10_31" points="650,90 662,90 667,85 662,80 650,80 650,90 " class="clusterblast-orf"  />
<polygon style="stroke:black; stroke-width:1; fill:#FFFFFF; " description="3-oxoacyl-(acyl-carrier-protein)_synthase_III[br]Location: 2506165 - 2507325" locus_tag="Npun_R2065" id="clusterblast-1_h53_10_32" points="669,90 675,90 680,85 675,80 669,80 669,90 " class="clusterblast-orf"  />
<polygon style="stroke:black; stroke-width:1; fill:#FFFFFF; " description="hypothetical_protein[br]Location: 2505753 - 2506043" locus_tag="Npun_F2064" id="clusterblast-1_h53_10_33" points="681,85 684,80 684,90 681,85 " class="clusterblast-orf"  />
<polygon style="stroke:black; stroke-width:1; fill:#FFFFFF; " description="N-acyl-D-glucosamine_2-epimerase[br]Location: 2502220 - 2504235" locus_tag="Npun_R2062" id="clusterblast-1_h53_10_34" points="699,90 714,90 719,85 714,80 699,80 699,90 " class="clusterblast-orf"  />
</g>
</svg>
