<svg xmlns="http://www.w3.org/2000/svg" height="230" width="800" version="1.1" y="0" x="0" preserveAspectRatio="none" xmlns:xlink="http://www.w3.org/1999/xlink" viewBox="0 0 800 230"  >
<g class="clusterblast-cluster" label="Query sequence"  >
<text class="clusterblast-acc" y="10" x="5"  >
Query sequence</text>
<line y1="35" x2="778.0" style="stroke:grey; stroke-width:1; " x1="10" y2="35"  />
<polygon style="stroke:black; stroke-width:1; fill:red; " description="unannotated orf[br]Location: 12682 - 14106" locus_tag="CHAFR746836_0048090.1" class="clusterblast-orf" points="274,35 279,30 295,30 295,40 279,40 274,35 " id="clusterblast-1_q58_2_0"  />
<polygon style="stroke:black; stroke-width:1; fill:green; " description="unannotated orf[br]Location: 15778 - 17791" locus_tag="CHAFR746836_0048100.1" class="clusterblast-orf" points="320,40 345,40 350,35 345,30 320,30 320,40 " id="clusterblast-1_q58_2_1"  />
<polygon style="stroke:black; stroke-width:1; fill:blue; " description="unannotated orf[br]Location: 18075 - 18962" locus_tag="CHAFR746836_0048110.1" class="clusterblast-orf" points="354,35 359,30 368,30 368,40 359,40 354,35 " id="clusterblast-1_q58_2_2"  />
<polygon style="stroke:black; stroke-width:1; fill:yellow; " description="unannotated orf[br]Location: 20277 - 28682" locus_tag="CHAFR746836_0048120.1" class="clusterblast-orf" points="387,40 508,40 513,35 508,30 387,30 387,40 " id="clusterblast-1_q58_2_3"  />
</g>
<g class="clusterblast-cluster" description="Aspergillus niger contig An03c0160, genomic contig." label="AM270057.1_c1"  >
<text class="clusterblast-acc" y="60" x="5"  >
AM270057.1_c1</text>
<text class="clusterblast-desc" y="60" x="460.8"  >
Aspergillus niger contig An03c0160, genomic contig.</text>
<line y1="85" x2="778.0" style="stroke:grey; stroke-width:1; " x1="10" y2="85"  />
<polygon style="stroke:black; stroke-width:1; fill:#FFFFFF; " description="[br]Location: 1487 - 4627" locus_tag="An03g05040" id="clusterblast-1_h58_2_0" points="10,85 15,80 57,80 57,90 15,90 10,85 " class="clusterblast-orf"  />
<polygon style="stroke:black; stroke-width:1; fill:#FFFFFF; " description="[br]Location: 5673 - 6520" locus_tag="An03g05050" id="clusterblast-1_h58_2_1" points="72,85 77,80 85,80 85,90 77,90 72,85 " class="clusterblast-orf"  />
<polygon style="stroke:black; stroke-width:1; fill:#FFFFFF; " description="[br]Location: 7765 - 9586" locus_tag="An03g05060" id="clusterblast-1_h58_2_2" points="103,90 126,90 131,85 126,80 103,80 103,90 " class="clusterblast-orf"  />
<polygon style="stroke:black; stroke-width:1; fill:#FFFFFF; " description="unnamed[br]Location: 9739 - 11335" locus_tag="An03g05070" id="clusterblast-1_h58_2_3" points="133,85 138,80 157,80 157,90 138,90 133,85 " class="clusterblast-orf"  />
<polygon style="stroke:black; stroke-width:1; fill:#FFFFFF; " description="[br]Location: 11779 - 12649" locus_tag="An03g05080" id="clusterblast-1_h58_2_4" points="164,90 172,90 177,85 172,80 164,80 164,90 " class="clusterblast-orf"  />
<polygon style="stroke:black; stroke-width:1; fill:#FFFFFF; " description="unnamed[br]Location: 13231 - 14811" locus_tag="An03g05090" id="clusterblast-1_h58_2_5" points="185,85 190,80 209,80 209,90 190,90 185,85 " class="clusterblast-orf"  />
<polygon style="stroke:black; stroke-width:1; fill:#FFFFFF; " description="[br]Location: 16910 - 17752" locus_tag="An03g05100" id="clusterblast-1_h58_2_6" points="240,85 245,80 253,80 253,90 245,90 240,85 " class="clusterblast-orf"  />
<polygon style="stroke:black; stroke-width:1; fill:#FFFFFF; " description="[br]Location: 19274 - 20122" locus_tag="An03g05110" id="clusterblast-1_h58_2_7" points="276,90 283,90 288,85 283,80 276,80 276,90 " class="clusterblast-orf"  />
<polygon style="stroke:black; stroke-width:1; fill:green; " description="[br]Location: 20400 - 22507&lt;br&gt;&lt;br&gt;&lt;b&gt;BlastP hit with CHAFR746836_0048100.1&lt;/b&gt;&lt;br&gt;Percentage identity: 36%&lt;br&gt;Percentage coverage: 97%&lt;br&gt;BLAST bit score: 284&lt;br&gt;E-value: 2e-86" locus_tag="An03g05120" id="clusterblast-1_h58_2_8" points="293,85 298,80 324,80 324,90 298,90 293,85 " class="clusterblast-orf"  />
<polygon style="stroke:black; stroke-width:1; fill:blue; " description="[br]Location: 22973 - 23827&lt;br&gt;&lt;br&gt;&lt;b&gt;BlastP hit with CHAFR746836_0048110.1&lt;/b&gt;&lt;br&gt;Percentage identity: 36%&lt;br&gt;Percentage coverage: 96%&lt;br&gt;BLAST bit score: 134&lt;br&gt;E-value: 5e-37" locus_tag="An03g05130" id="clusterblast-1_h58_2_9" points="331,85 336,80 344,80 344,90 336,90 331,85 " class="clusterblast-orf"  />
<polygon style="stroke:black; stroke-width:1; fill:yellow; " description="[br]Location: 24410 - 32886&lt;br&gt;&lt;br&gt;&lt;b&gt;BlastP hit with CHAFR746836_0048120.1&lt;/b&gt;&lt;br&gt;Percentage identity: 37%&lt;br&gt;Percentage coverage: 101%&lt;br&gt;BLAST bit score: 1576&lt;br&gt;E-value: 0.0" locus_tag="An03g05140" id="clusterblast-1_h58_2_10" points="353,90 475,90 480,85 475,80 353,80 353,90 " class="clusterblast-orf"  />
<polygon style="stroke:black; stroke-width:1; fill:#FFFFFF; " description="[br]Location: 33155 - 34286" locus_tag="An03g05150" id="clusterblast-1_h58_2_11" points="484,90 495,90 500,85 495,80 484,80 484,90 " class="clusterblast-orf"  />
<polygon style="stroke:black; stroke-width:1; fill:#FFFFFF; " description="[br]Location: 34436 - 36571" locus_tag="An03g05160" id="clusterblast-1_h58_2_12" points="503,85 508,80 535,80 535,90 508,90 503,85 " class="clusterblast-orf"  />
<polygon style="stroke:black; stroke-width:1; fill:#FFFFFF; " description="[br]Location: 38846 - 41794" locus_tag="An03g05170" id="clusterblast-1_h58_2_13" points="569,85 574,80 613,80 613,90 574,90 569,85 " class="clusterblast-orf"  />
<polygon style="stroke:black; stroke-width:1; fill:#FFFFFF; " description="[br]Location: 41978 - 43725" locus_tag="An03g05180" id="clusterblast-1_h58_2_14" points="616,90 637,90 642,85 637,80 616,80 616,90 " class="clusterblast-orf"  />
<polygon style="stroke:black; stroke-width:1; fill:#FFFFFF; " description="[br]Location: 44728 - 45885" locus_tag="An03g05190" id="clusterblast-1_h58_2_15" points="657,90 669,90 674,85 669,80 657,80 657,90 " class="clusterblast-orf"  />
<polygon style="stroke:black; stroke-width:1; fill:#FFFFFF; " description="unnamed[br]Location: 46382 - 48190" locus_tag="An03g05200" id="clusterblast-1_h58_2_16" points="682,90 704,90 709,85 704,80 682,80 682,90 " class="clusterblast-orf"  />
<polygon style="stroke:black; stroke-width:1; fill:#FFFFFF; " description="[br]Location: 48881 - 50369" locus_tag="An03g05210" id="clusterblast-1_h58_2_17" points="719,90 736,90 741,85 736,80 719,80 719,90 " class="clusterblast-orf"  />
<polygon style="stroke:black; stroke-width:1; fill:#FFFFFF; " description="[br]Location: 50473 - 51603" locus_tag="An03g05220" id="clusterblast-1_h58_2_18" points="743,85 748,80 760,80 760,90 748,90 743,85 " class="clusterblast-orf"  />
<polygon style="stroke:black; stroke-width:1; fill:#FFFFFF; " description="unnamed[br]Location: 52462 - 52792" locus_tag="An03g05230" id="clusterblast-1_h58_2_19" points="773,90 773,90 778,85 773,80 773,80 773,90 " class="clusterblast-orf"  />
</g>
</svg>
