<svg xmlns="http://www.w3.org/2000/svg" height="230" width="800" version="1.1" y="0" x="0" preserveAspectRatio="none" xmlns:xlink="http://www.w3.org/1999/xlink" viewBox="0 0 800 230"  >
<g class="clusterblast-cluster" label="Query sequence"  >
<text class="clusterblast-acc" y="10" x="5"  >
Query sequence</text>
<line y1="35" x2="778.0" style="stroke:grey; stroke-width:1; " x1="10" y2="35"  />
<polygon style="stroke:black; stroke-width:1; fill:#FFFFFF; " description="unannotated orf[br]Location: 25768 - 28581" locus_tag="CHAFR746836_0026480.1" class="clusterblast-orf" points="10,35 15,30 36,30 36,40 15,40 10,35 " id="clusterblast-1_q39_5_0"  />
<polygon style="stroke:black; stroke-width:1; fill:#FFFFFF; " description="unannotated orf[br]Location: 29389 - 32410" locus_tag="CHAFR746836_0026490.1" class="clusterblast-orf" points="44,40 68,40 73,35 68,30 44,30 44,40 " id="clusterblast-1_q39_5_1"  />
<polygon style="stroke:black; stroke-width:1; fill:#FFFFFF; " description="unannotated orf[br]Location: 35419 - 37881" locus_tag="CHAFR746836_0026500.1" class="clusterblast-orf" points="102,35 107,30 125,30 125,40 107,40 102,35 " id="clusterblast-1_q39_5_2"  />
<polygon style="stroke:black; stroke-width:1; fill:#FFFFFF; " description="unannotated orf[br]Location: 39000 - 40527" locus_tag="CHAFR746836_0026510.1" class="clusterblast-orf" points="136,40 146,40 151,35 146,30 136,30 136,40 " id="clusterblast-1_q39_5_3"  />
<polygon style="stroke:black; stroke-width:1; fill:#FFFFFF; " description="unannotated orf[br]Location: 42530 - 44770" locus_tag="CHAFR746836_0026520.1" class="clusterblast-orf" points="170,40 186,40 191,35 186,30 170,30 170,40 " id="clusterblast-1_q39_5_4"  />
<polygon style="stroke:black; stroke-width:1; fill:rgb(190,63,63); " description="unannotated orf[br]Location: 45848 - 55198" locus_tag="CHAFR746836_0026530.1" class="clusterblast-orf" points="202,35 207,30 291,30 291,40 207,40 202,35 " id="clusterblast-1_q39_5_5"  />
<polygon style="stroke:black; stroke-width:1; fill:rgb(63,63,190); " description="unannotated orf[br]Location: 56792 - 57839" locus_tag="CHAFR746836_0026540.1" class="clusterblast-orf" points="306,40 311,40 316,35 311,30 306,30 306,40 " id="clusterblast-1_q39_5_6"  />
<polygon style="stroke:black; stroke-width:1; fill:rgb(63,190,63); " description="unannotated orf[br]Location: 62197 - 63622" locus_tag="CHAFR746836_0026550.1" class="clusterblast-orf" points="358,35 363,30 372,30 372,40 363,40 358,35 " id="clusterblast-1_q39_5_7"  />
<polygon style="stroke:black; stroke-width:1; fill:rgb(190,63,190); " description="unannotated orf[br]Location: 66838 - 68074" locus_tag="CHAFR746836_0026560.1" class="clusterblast-orf" points="402,40 409,40 414,35 409,30 402,30 402,40 " id="clusterblast-1_q39_5_8"  />
<polygon style="stroke:black; stroke-width:1; fill:rgb(190,190,63); " description="unannotated orf[br]Location: 68566 - 70348" locus_tag="CHAFR746836_0026570.1" class="clusterblast-orf" points="419,35 424,30 436,30 436,40 424,40 419,35 " id="clusterblast-1_q39_5_9"  />
<polygon style="stroke:black; stroke-width:1; fill:rgb(190,190,190); " description="unannotated orf[br]Location: 72585 - 73335" locus_tag="CHAFR746836_0026580.1" class="clusterblast-orf" points="457,40 460,40 465,35 460,30 457,30 457,40 " id="clusterblast-1_q39_5_10"  />
<polygon style="stroke:black; stroke-width:1; fill:#FFFFFF; " description="unannotated orf[br]Location: 81371 - 83366" locus_tag="CHAFR746836_0026590.1" class="clusterblast-orf" points="541,35 546,30 561,30 561,40 546,40 541,35 " id="clusterblast-1_q39_5_11"  />
<polygon style="stroke:black; stroke-width:1; fill:#FFFFFF; " description="unannotated orf[br]Location: 88456 - 90331" locus_tag="CHAFR746836_0026600.1" class="clusterblast-orf" points="609,40 622,40 627,35 622,30 609,30 609,40 " id="clusterblast-1_q39_5_12"  />
<polygon style="stroke:black; stroke-width:1; fill:#FFFFFF; " description="unannotated orf[br]Location: 94138 - 95689" locus_tag="CHAFR746836_0026610.1" class="clusterblast-orf" points="664,35 669,30 678,30 678,40 669,40 664,35 " id="clusterblast-1_q39_5_13"  />
<polygon style="stroke:black; stroke-width:1; fill:rgb(63,190,190); " description="unannotated orf[br]Location: 98792 - 99832" locus_tag="CHAFR746836_0026620.1" class="clusterblast-orf" points="708,35 713,30 718,30 718,40 713,40 708,35 " id="clusterblast-1_q39_5_14"  />
<polygon style="stroke:black; stroke-width:1; fill:#FFFFFF; " description="unannotated orf[br]Location: 100558 - 102743" locus_tag="CHAFR746836_0026630.1" class="clusterblast-orf" points="725,35 730,30 746,30 746,40 730,40 725,35 " id="clusterblast-1_q39_5_15"  />
<polygon style="stroke:black; stroke-width:1; fill:#FFFFFF; " description="unannotated orf[br]Location: 103839 - 106040" locus_tag="CHAFR746836_0026640.1" class="clusterblast-orf" points="756,40 773,40 778,35 773,30 756,30 756,40 " id="clusterblast-1_q39_5_16"  />
</g>
<g class="clusterblast-cluster" description="Glomerella graminicola M1.001 genomic scaffold supercont1.90..." label="GG697420.1_c1"  >
<text class="clusterblast-acc" y="60" x="5"  >
GG697420.1_c1</text>
<text class="clusterblast-desc" y="60" x="460.8"  >
Glomerella graminicola M1.001 genomic scaffold supercont1.90...</text>
<line y1="85" x2="778.0" style="stroke:grey; stroke-width:1; " x1="10" y2="85"  />
<polygon style="stroke:black; stroke-width:1; fill:#FFFFFF; " description="chromo_domain-containing_protein[br]Location: 33141 - 33785" locus_tag="GLRG_11500" id="clusterblast-1_h39_5_0" points="145,85 150,80 151,80 151,90 150,90 145,85 " class="clusterblast-orf"  />
<polygon style="stroke:black; stroke-width:1; fill:#FFFFFF; " description="hypothetical_protein[br]Location: 35254 - 37846" locus_tag="GLRG_11501" id="clusterblast-1_h39_5_1" points="165,90 185,90 190,85 185,80 165,80 165,90 " class="clusterblast-orf"  />
<polygon style="stroke:black; stroke-width:1; fill:#FFFFFF; " description="multicopper_oxidase[br]Location: 40523 - 42592" locus_tag="GLRG_11502" id="clusterblast-1_h39_5_2" points="215,90 230,90 235,85 230,80 215,80 215,90 " class="clusterblast-orf"  />
<polygon style="stroke:black; stroke-width:1; fill:#FFFFFF; " description="acetyltransferase[br]Location: 44205 - 44738" locus_tag="GLRG_11503" id="clusterblast-1_h39_5_3" points="250,85 255,80 255,80 255,90 255,90 250,85 " class="clusterblast-orf"  />
<polygon style="stroke:black; stroke-width:1; fill:#FFFFFF; " description="lipase[br]Location: 45946 - 46936" locus_tag="GLRG_11504" id="clusterblast-1_h39_5_4" points="267,85 272,80 276,80 276,90 272,90 267,85 " class="clusterblast-orf"  />
<polygon style="stroke:black; stroke-width:1; fill:#FFFFFF; " description="hypothetical_protein[br]Location: 48424 - 49109" locus_tag="GLRG_11505" id="clusterblast-1_h39_5_5" points="291,85 296,80 297,80 297,90 296,90 291,85 " class="clusterblast-orf"  />
<polygon style="stroke:black; stroke-width:1; fill:#FFFFFF; " description="hypothetical_protein[br]Location: 51908 - 52681" locus_tag="GLRG_11506" id="clusterblast-1_h39_5_6" points="324,90 326,90 331,85 326,80 324,80 324,90 " class="clusterblast-orf"  />
<polygon style="stroke:black; stroke-width:1; fill:rgb(190,63,63); " description="beta-ketoacyl_synthase_domain-containing[br]Location: 53275 - 63304&lt;br&gt;&lt;br&gt;&lt;b&gt;BlastP hit with CHAFR746836_0026530.1&lt;/b&gt;&lt;br&gt;Percentage identity: 38%&lt;br&gt;Percentage coverage: 89%&lt;br&gt;BLAST bit score: 1568&lt;br&gt;E-value: 0.0" locus_tag="GLRG_11507" id="clusterblast-1_h39_5_7" points="337,85 342,80 433,80 433,90 342,90 337,85 " class="clusterblast-orf"  />
<polygon style="stroke:black; stroke-width:1; fill:#FFFFFF; " description="zinc-binding_dehydrogenase[br]Location: 64092 - 65315" locus_tag="GLRG_11508" id="clusterblast-1_h39_5_8" points="441,90 447,90 452,85 447,80 441,80 441,90 " class="clusterblast-orf"  />
<polygon style="stroke:black; stroke-width:1; fill:#FFFFFF; " description="hypothetical_protein[br]Location: 73322 - 73702" locus_tag="GLRG_11509" id="clusterblast-1_h39_5_9" points="529,85 533,80 533,90 529,85 " class="clusterblast-orf"  />
<polygon style="stroke:black; stroke-width:1; fill:rgb(190,190,63); " description="cytochrome_P450[br]Location: 74327 - 76030&lt;br&gt;&lt;br&gt;&lt;b&gt;BlastP hit with CHAFR746836_0026570.1&lt;/b&gt;&lt;br&gt;Percentage identity: 32%&lt;br&gt;Percentage coverage: 95%&lt;br&gt;BLAST bit score: 268&lt;br&gt;E-value: 6e-81&lt;br&gt;&lt;br&gt;&lt;b&gt;BlastP hit with CHAFR746836_0026580.1&lt;/b&gt;&lt;br&gt;Percentage identity: 35%&lt;br&gt;Percentage coverage: 73%&lt;br&gt;BLAST bit score: 108&lt;br&gt;E-value: 7e-26" locus_tag="GLRG_11510" id="clusterblast-1_h39_5_10" points="539,85 544,80 555,80 555,90 544,90 539,85 " class="clusterblast-orf"  />
<polygon style="stroke:black; stroke-width:1; fill:#FFFFFF; " description="2OG-Fe(II)_oxygenase_superfamily_protein[br]Location: 76408 - 77603" locus_tag="GLRG_11511" id="clusterblast-1_h39_5_11" points="558,85 563,80 570,80 570,90 563,90 558,85 " class="clusterblast-orf"  />
<polygon style="stroke:black; stroke-width:1; fill:#FFFFFF; " description="hypothetical_protein[br]Location: 78436 - 79119" locus_tag="GLRG_11512" id="clusterblast-1_h39_5_12" points="578,90 579,90 584,85 579,80 578,80 578,90 " class="clusterblast-orf"  />
<polygon style="stroke:black; stroke-width:1; fill:#FFFFFF; " description="hypothetical_protein[br]Location: 79353 - 80471" locus_tag="GLRG_11513" id="clusterblast-1_h39_5_13" points="587,85 592,80 597,80 597,90 592,90 587,85 " class="clusterblast-orf"  />
<polygon style="stroke:black; stroke-width:1; fill:rgb(190,190,63); " description="cytochrome_P450[br]Location: 83240 - 85014&lt;br&gt;&lt;br&gt;&lt;b&gt;BlastP hit with CHAFR746836_0026570.1&lt;/b&gt;&lt;br&gt;Percentage identity: 35%&lt;br&gt;Percentage coverage: 96%&lt;br&gt;BLAST bit score: 306&lt;br&gt;E-value: 6e-96&lt;br&gt;&lt;br&gt;&lt;b&gt;BlastP hit with CHAFR746836_0026580.1&lt;/b&gt;&lt;br&gt;Percentage identity: 31%&lt;br&gt;Percentage coverage: 79%&lt;br&gt;BLAST bit score: 105&lt;br&gt;E-value: 1e-24" locus_tag="GLRG_11514" id="clusterblast-1_h39_5_14" points="624,90 636,90 641,85 636,80 624,80 624,90 " class="clusterblast-orf"  />
</g>
</svg>
