<svg xmlns="http://www.w3.org/2000/svg" height="230" width="800" version="1.1" y="0" x="0" preserveAspectRatio="none" xmlns:xlink="http://www.w3.org/1999/xlink" viewBox="0 0 800 230"  >
<g class="clusterblast-cluster" label="Query sequence"  >
<text class="clusterblast-acc" y="10" x="5"  >
Query sequence</text>
<line y1="35" x2="778.0" style="stroke:grey; stroke-width:1; " x1="10" y2="35"  />
<polygon style="stroke:black; stroke-width:1; fill:#FFFFFF; " description="unannotated orf[br]Location: 6136 - 7367" locus_tag="CHAFR746836_0085100.1" class="clusterblast-orf" points="122,35 127,30 130,30 130,40 127,40 122,35 " id="clusterblast-1_q17_9_0"  />
<polygon style="stroke:black; stroke-width:1; fill:rgb(190,63,63); " description="unannotated orf[br]Location: 11222 - 12640" locus_tag="CHAFR746836_0085110.1" class="clusterblast-orf" points="157,35 162,30 167,30 167,40 162,40 157,35 " id="clusterblast-1_q17_9_1"  />
<polygon style="stroke:black; stroke-width:1; fill:#FFFFFF; " description="unannotated orf[br]Location: 13318 - 14845" locus_tag="CHAFR746836_0085120.1" class="clusterblast-orf" points="171,40 177,40 182,35 177,30 171,30 171,40 " id="clusterblast-1_q17_9_2"  />
<polygon style="stroke:black; stroke-width:1; fill:rgb(63,63,190); " description="unannotated orf[br]Location: 45129 - 47273" locus_tag="CHAFR746836_0085130.1" class="clusterblast-orf" points="392,35 397,30 407,30 407,40 397,40 392,35 " id="clusterblast-1_q17_9_3"  />
<polygon style="stroke:black; stroke-width:1; fill:#FFFFFF; " description="unannotated orf[br]Location: 49048 - 50295" locus_tag="CHAFR746836_0085140.1" class="clusterblast-orf" points="419,40 423,40 428,35 423,30 419,30 419,40 " id="clusterblast-1_q17_9_4"  />
<polygon style="stroke:black; stroke-width:1; fill:#FFFFFF; " description="unannotated orf[br]Location: 50632 - 52244" locus_tag="CHAFR746836_0085150.1" class="clusterblast-orf" points="430,35 435,30 442,30 442,40 435,40 430,35 " id="clusterblast-1_q17_9_5"  />
<polygon style="stroke:black; stroke-width:1; fill:rgb(63,190,63); " description="unannotated orf[br]Location: 54334 - 65855" locus_tag="CHAFR746836_0085160.1" class="clusterblast-orf" points="456,40 531,40 536,35 531,30 456,30 456,40 " id="clusterblast-1_q17_9_6"  />
<polygon style="stroke:black; stroke-width:1; fill:rgb(190,63,190); " description="unannotated orf[br]Location: 67816 - 68591" locus_tag="CHAFR746836_0085170.1" class="clusterblast-orf" points="550,35 555,30 555,30 555,40 555,40 550,35 " id="clusterblast-1_q17_9_7"  />
<polygon style="stroke:black; stroke-width:1; fill:rgb(190,190,63); " description="unannotated orf[br]Location: 74280 - 75627" locus_tag="CHAFR746836_0085180.1" class="clusterblast-orf" points="594,40 599,40 604,35 599,30 594,30 594,40 " id="clusterblast-1_q17_9_8"  />
<polygon style="stroke:black; stroke-width:1; fill:#FFFFFF; " description="unannotated orf[br]Location: 77113 - 77652" locus_tag="CHAFR746836_0085190.1" class="clusterblast-orf" points="614,35 618,30 618,40 614,35 " id="clusterblast-1_q17_9_9"  />
<polygon style="stroke:black; stroke-width:1; fill:rgb(190,190,190); " description="unannotated orf[br]Location: 78175 - 79191" locus_tag="CHAFR746836_0085200.1" class="clusterblast-orf" points="622,40 624,40 629,35 624,30 622,30 622,40 " id="clusterblast-1_q17_9_10"  />
<polygon style="stroke:black; stroke-width:1; fill:#FFFFFF; " description="unannotated orf[br]Location: 83575 - 84480" locus_tag="CHAFR746836_0085210.1" class="clusterblast-orf" points="659,40 660,40 665,35 660,30 659,30 659,40 " id="clusterblast-1_q17_9_11"  />
</g>
<g class="clusterblast-cluster" description="Dickeya dadantii Ech703, complete genome." label="NC_012880.1_c1"  >
<text class="clusterblast-acc" y="60" x="5"  >
NC_012880.1_c1</text>
<text class="clusterblast-desc" y="60" x="460.8"  >
Dickeya dadantii Ech703, complete genome.</text>
<line y1="85" x2="778.0" style="stroke:grey; stroke-width:1; " x1="10" y2="85"  />
<polygon style="stroke:black; stroke-width:1; fill:#FFFFFF; " description="major_facilitator_superfamily_MFS_1[br]Location: 1608134 - 1609438" locus_tag="Dd703_1401" id="clusterblast-1_h17_9_0" points="10,85 15,80 19,80 19,90 15,90 10,85 " class="clusterblast-orf"  />
<polygon style="stroke:black; stroke-width:1; fill:#FFFFFF; " description="acyl-CoA_dehydrogenase_domain_protein[br]Location: 1609675 - 1610841" locus_tag="Dd703_1402" id="clusterblast-1_h17_9_1" points="20,85 25,80 28,80 28,90 25,90 20,85 " class="clusterblast-orf"  />
<polygon style="stroke:black; stroke-width:1; fill:#FFFFFF; " description="putative_acyl-CoA_dehydrogenase[br]Location: 1611479 - 1612624" locus_tag="Dd703_1403" id="clusterblast-1_h17_9_2" points="33,90 36,90 41,85 36,80 33,80 33,90 " class="clusterblast-orf"  />
<polygon style="stroke:black; stroke-width:1; fill:#FFFFFF; " description="Desulfoferrodoxin_ferrous_iron-binding_region[br]Location: 1612627 - 1613190" locus_tag="Dd703_1404" id="clusterblast-1_h17_9_3" points="41,90 45,85 41,80 41,90 " class="clusterblast-orf"  />
<polygon style="stroke:black; stroke-width:1; fill:#FFFFFF; " description="PTS_system,_beta-glucoside-specific_IIABC[br]Location: 1613485 - 1615362" locus_tag="Dd703_1405" id="clusterblast-1_h17_9_4" points="47,90 55,90 60,85 55,80 47,80 47,90 " class="clusterblast-orf"  />
<polygon style="stroke:black; stroke-width:1; fill:#FFFFFF; " description="transcriptional_antiterminator,_BglG[br]Location: 1615397 - 1616227" locus_tag="Dd703_1406" id="clusterblast-1_h17_9_5" points="60,90 61,90 66,85 61,80 60,80 60,90 " class="clusterblast-orf"  />
<polygon style="stroke:black; stroke-width:1; fill:#FFFFFF; " description="glycoside_hydrolase_family_1[br]Location: 1616486 - 1617880" locus_tag="Dd703_1407" id="clusterblast-1_h17_9_6" points="67,90 72,90 77,85 72,80 67,80 67,90 " class="clusterblast-orf"  />
<polygon style="stroke:black; stroke-width:1; fill:#FFFFFF; " description="Cupin_4_family_protein[br]Location: 1618086 - 1619210" locus_tag="Dd703_1408" id="clusterblast-1_h17_9_7" points="79,90 81,90 86,85 81,80 79,80 79,90 " class="clusterblast-orf"  />
<polygon style="stroke:black; stroke-width:1; fill:#FFFFFF; " description="short-chain_dehydrogenase/reductase_SDR[br]Location: 1619300 - 1620049" locus_tag="Dd703_1409" id="clusterblast-1_h17_9_8" points="87,85 92,80 92,80 92,90 92,90 87,85 " class="clusterblast-orf"  />
<polygon style="stroke:black; stroke-width:1; fill:#FFFFFF; " description="3-oxoadipate_enol-lactonase[br]Location: 1620489 - 1620605" locus_tag="Dd703_1410" id="clusterblast-1_h17_9_9" points="95,90 96,85 95,80 95,90 " class="clusterblast-orf"  />
<polygon style="stroke:black; stroke-width:1; fill:#FFFFFF; " description="hypothetical_protein[br]Location: 1620669 - 1620923" locus_tag="Dd703_1411" id="clusterblast-1_h17_9_10" points="97,90 98,85 97,80 97,90 " class="clusterblast-orf"  />
<polygon style="stroke:black; stroke-width:1; fill:#FFFFFF; " description="beta-lactamase_domain_protein[br]Location: 1621006 - 1621842" locus_tag="Dd703_1412" id="clusterblast-1_h17_9_11" points="99,90 100,90 105,85 100,80 99,80 99,90 " class="clusterblast-orf"  />
<polygon style="stroke:black; stroke-width:1; fill:#FFFFFF; " description="transcriptional_regulator,_LysR_family[br]Location: 1621905 - 1622792" locus_tag="Dd703_1413" id="clusterblast-1_h17_9_12" points="105,85 110,80 111,80 111,90 110,90 105,85 " class="clusterblast-orf"  />
<polygon style="stroke:black; stroke-width:1; fill:#FFFFFF; " description="hypothetical_protein[br]Location: 1623662 - 1623973" locus_tag="Dd703_1414" id="clusterblast-1_h17_9_13" points="117,90 119,85 117,80 117,90 " class="clusterblast-orf"  />
<polygon style="stroke:black; stroke-width:1; fill:#FFFFFF; " description="hypothetical_protein[br]Location: 1624970 - 1625578" locus_tag="Dd703_1415" id="clusterblast-1_h17_9_14" points="126,90 126,90 131,85 126,80 126,80 126,90 " class="clusterblast-orf"  />
<polygon style="stroke:black; stroke-width:1; fill:rgb(190,190,190); " description="polyketide_biosynthesis_enoyl-CoA_hydratase[br]Location: 1625841 - 1626590&lt;br&gt;&lt;br&gt;&lt;b&gt;BlastP hit with CHAFR746836_0085200.1&lt;/b&gt;&lt;br&gt;Percentage identity: 31%&lt;br&gt;Percentage coverage: 24%&lt;br&gt;BLAST bit score: 51&lt;br&gt;E-value: 3e-06" locus_tag="Dd703_1416" id="clusterblast-1_h17_9_15" points="132,85 137,80 138,80 138,90 137,90 132,85 " class="clusterblast-orf"  />
<polygon style="stroke:black; stroke-width:1; fill:#FFFFFF; " description="polyketide_biosynthesis_enoyl-CoA_hydratase[br]Location: 1626595 - 1627383" locus_tag="Dd703_1417" id="clusterblast-1_h17_9_16" points="138,85 143,80 143,80 143,90 143,90 138,85 " class="clusterblast-orf"  />
<polygon style="stroke:black; stroke-width:1; fill:#FFFFFF; " description="Hydroxymethylglutaryl-CoA_synthase[br]Location: 1627374 - 1628636" locus_tag="Dd703_1418" id="clusterblast-1_h17_9_17" points="143,85 148,80 152,80 152,90 148,90 143,85 " class="clusterblast-orf"  />
<polygon style="stroke:black; stroke-width:1; fill:#FFFFFF; " description="polyketide_beta-ketoacyl:acyl_carrier_protein[br]Location: 1628679 - 1629935" locus_tag="Dd703_1419" id="clusterblast-1_h17_9_18" points="152,85 157,80 161,80 161,90 157,90 152,85 " class="clusterblast-orf"  />
<polygon style="stroke:black; stroke-width:1; fill:#FFFFFF; " description="acyl_carrier_protein[br]Location: 1630002 - 1630253" locus_tag="Dd703_1420" id="clusterblast-1_h17_9_19" points="161,85 163,80 163,90 161,85 " class="clusterblast-orf"  />
<polygon style="stroke:black; stroke-width:1; fill:rgb(63,190,63); " description="FkbH_like_protein[br]Location: 1631306 - 1642741&lt;br&gt;&lt;br&gt;&lt;b&gt;BlastP hit with CHAFR746836_0085160.1&lt;/b&gt;&lt;br&gt;Percentage identity: 35%&lt;br&gt;Percentage coverage: 14%&lt;br&gt;BLAST bit score: 301&lt;br&gt;E-value: 6e-80" locus_tag="Dd703_1421" id="clusterblast-1_h17_9_20" points="170,90 245,90 250,85 245,80 170,80 170,90 " class="clusterblast-orf"  />
<polygon style="stroke:black; stroke-width:1; fill:#FFFFFF; " description="Flavin-containing_monooxygenase[br]Location: 1642802 - 1644106" locus_tag="Dd703_1422" id="clusterblast-1_h17_9_21" points="250,90 254,90 259,85 254,80 250,80 250,90 " class="clusterblast-orf"  />
<polygon style="stroke:black; stroke-width:1; fill:rgb(63,190,63); " description="6-methylsalicylic_acid_synthase.,[br]Location: 1644110 - 1651615&lt;br&gt;&lt;br&gt;&lt;b&gt;BlastP hit with CHAFR746836_0085160.1&lt;/b&gt;&lt;br&gt;Percentage identity: 36%&lt;br&gt;Percentage coverage: 15%&lt;br&gt;BLAST bit score: 335&lt;br&gt;E-value: 1e-90&lt;br&gt;&lt;br&gt;&lt;b&gt;BlastP hit with CHAFR746836_0085180.1&lt;/b&gt;&lt;br&gt;Percentage identity: 38%&lt;br&gt;Percentage coverage: 49%&lt;br&gt;BLAST bit score: 127&lt;br&gt;E-value: 2e-30" locus_tag="Dd703_1423" id="clusterblast-1_h17_9_22" points="259,90 306,90 311,85 306,80 259,80 259,90 " class="clusterblast-orf"  />
<polygon style="stroke:black; stroke-width:1; fill:#FFFFFF; " description="Luciferase-like_monooxygenase[br]Location: 1651612 - 1652745" locus_tag="Dd703_1424" id="clusterblast-1_h17_9_23" points="311,90 314,90 319,85 314,80 311,80 311,90 " class="clusterblast-orf"  />
<polygon style="stroke:black; stroke-width:1; fill:rgb(63,190,63); " description="KR_domain_protein[br]Location: 1652738 - 1673368&lt;br&gt;&lt;br&gt;&lt;b&gt;BlastP hit with CHAFR746836_0085160.1&lt;/b&gt;&lt;br&gt;Percentage identity: 37%&lt;br&gt;Percentage coverage: 14%&lt;br&gt;BLAST bit score: 313&lt;br&gt;E-value: 1e-83&lt;br&gt;&lt;br&gt;&lt;b&gt;BlastP hit with CHAFR746836_0085180.1&lt;/b&gt;&lt;br&gt;Percentage identity: 39%&lt;br&gt;Percentage coverage: 54%&lt;br&gt;BLAST bit score: 135&lt;br&gt;E-value: 6e-33" locus_tag="Dd703_1425" id="clusterblast-1_h17_9_24" points="319,90 457,90 462,85 457,80 319,80 319,90 " class="clusterblast-orf"  />
<polygon style="stroke:black; stroke-width:1; fill:#FFFFFF; " description="polyketide_synthase_of_type_I[br]Location: 1673415 - 1673684" locus_tag="Dd703_1426" id="clusterblast-1_h17_9_25" points="463,90 464,85 463,80 463,90 " class="clusterblast-orf"  />
<polygon style="stroke:black; stroke-width:1; fill:#FFFFFF; " description="hypothetical_protein[br]Location: 1673709 - 1674872" locus_tag="Dd703_1427" id="clusterblast-1_h17_9_26" points="465,90 468,90 473,85 468,80 465,80 465,90 " class="clusterblast-orf"  />
<polygon style="stroke:black; stroke-width:1; fill:#FFFFFF; " description="hypothetical_protein[br]Location: 1674875 - 1675234" locus_tag="Dd703_1428" id="clusterblast-1_h17_9_27" points="473,90 475,85 473,80 473,90 " class="clusterblast-orf"  />
<polygon style="stroke:black; stroke-width:1; fill:rgb(63,190,63); " description="6-deoxyerythronolide-B_synthase[br]Location: 1675427 - 1682518&lt;br&gt;&lt;br&gt;&lt;b&gt;BlastP hit with CHAFR746836_0085160.1&lt;/b&gt;&lt;br&gt;Percentage identity: 36%&lt;br&gt;Percentage coverage: 14%&lt;br&gt;BLAST bit score: 300&lt;br&gt;E-value: 6e-80" locus_tag="Dd703_1429" id="clusterblast-1_h17_9_28" points="477,90 521,90 526,85 521,80 477,80 477,90 " class="clusterblast-orf"  />
<polygon style="stroke:black; stroke-width:1; fill:rgb(63,190,63); " description="KR_domain_protein[br]Location: 1682511 - 1699349&lt;br&gt;&lt;br&gt;&lt;b&gt;BlastP hit with CHAFR746836_0085160.1&lt;/b&gt;&lt;br&gt;Percentage identity: 35%&lt;br&gt;Percentage coverage: 14%&lt;br&gt;BLAST bit score: 295&lt;br&gt;E-value: 4e-78" locus_tag="Dd703_1430" id="clusterblast-1_h17_9_29" points="526,90 638,90 643,85 638,80 526,80 526,90 " class="clusterblast-orf"  />
<polygon style="stroke:black; stroke-width:1; fill:#FFFFFF; " description="hypothetical_protein[br]Location: 1699492 - 1700319" locus_tag="Dd703_1431" id="clusterblast-1_h17_9_30" points="644,90 644,90 649,85 644,80 644,80 644,90 " class="clusterblast-orf"  />
<polygon style="stroke:black; stroke-width:1; fill:#FFFFFF; " description="PfaD_family_protein[br]Location: 1700364 - 1701809" locus_tag="Dd703_1432" id="clusterblast-1_h17_9_31" points="650,90 655,90 660,85 655,80 650,80 650,90 " class="clusterblast-orf"  />
<polygon style="stroke:black; stroke-width:1; fill:#FFFFFF; " description="malonyl_CoA-acyl_carrier_protein_transacylase[br]Location: 1701980 - 1703851" locus_tag="Dd703_1433" id="clusterblast-1_h17_9_32" points="661,90 669,90 674,85 669,80 661,80 661,90 " class="clusterblast-orf"  />
<polygon style="stroke:black; stroke-width:1; fill:#FFFFFF; " description="malonyl_CoA-acyl_carrier_protein_transacylase[br]Location: 1703921 - 1705054" locus_tag="Dd703_1434" id="clusterblast-1_h17_9_33" points="674,90 677,90 682,85 677,80 674,80 674,90 " class="clusterblast-orf"  />
<polygon style="stroke:black; stroke-width:1; fill:#FFFFFF; " description="hypothetical_protein[br]Location: 1705300 - 1705527" locus_tag="Dd703_1435" id="clusterblast-1_h17_9_34" points="684,90 685,85 684,80 684,90 " class="clusterblast-orf"  />
<polygon style="stroke:black; stroke-width:1; fill:#FFFFFF; " description="hypothetical_protein[br]Location: 1705521 - 1705721" locus_tag="Dd703_1436" id="clusterblast-1_h17_9_35" points="685,90 687,85 685,80 685,90 " class="clusterblast-orf"  />
<polygon style="stroke:black; stroke-width:1; fill:#FFFFFF; " description="hypothetical_protein[br]Location: 1706135 - 1706284" locus_tag="Dd703_1438" id="clusterblast-1_h17_9_36" points="690,90 691,85 690,80 690,90 " class="clusterblast-orf"  />
<polygon style="stroke:black; stroke-width:1; fill:#FFFFFF; " description="transcriptional_regulator,_LysR_family[br]Location: 1706347 - 1707252" locus_tag="Dd703_1439" id="clusterblast-1_h17_9_37" points="691,85 696,80 697,80 697,90 696,90 691,85 " class="clusterblast-orf"  />
<polygon style="stroke:black; stroke-width:1; fill:#FFFFFF; " description="extracellular_solute-binding_protein_family_5[br]Location: 1707402 - 1708946" locus_tag="Dd703_1440" id="clusterblast-1_h17_9_38" points="699,90 704,90 709,85 704,80 699,80 699,90 " class="clusterblast-orf"  />
<polygon style="stroke:black; stroke-width:1; fill:#FFFFFF; " description="dihydrodipicolinate_synthetase[br]Location: 1709234 - 1710118" locus_tag="Dd703_1441" id="clusterblast-1_h17_9_39" points="711,90 712,90 717,85 712,80 711,80 711,90 " class="clusterblast-orf"  />
<polygon style="stroke:black; stroke-width:1; fill:#FFFFFF; " description="Ribosylpyrimidine_nucleosidase[br]Location: 1710115 - 1711065" locus_tag="Dd703_1442" id="clusterblast-1_h17_9_40" points="717,90 719,90 724,85 719,80 717,80 717,90 " class="clusterblast-orf"  />
<polygon style="stroke:black; stroke-width:1; fill:#FFFFFF; " description="Inosine/uridine-preferring_nucleoside_hydrolase[br]Location: 1711062 - 1712015" locus_tag="Dd703_1443" id="clusterblast-1_h17_9_41" points="724,90 726,90 731,85 726,80 724,80 724,90 " class="clusterblast-orf"  />
<polygon style="stroke:black; stroke-width:1; fill:#FFFFFF; " description="binding-protein-dependent_transport_systems[br]Location: 1712025 - 1712996" locus_tag="Dd703_1444" id="clusterblast-1_h17_9_42" points="731,90 732,90 737,85 732,80 731,80 731,90 " class="clusterblast-orf"  />
<polygon style="stroke:black; stroke-width:1; fill:#FFFFFF; " description="binding-protein-dependent_transport_systems[br]Location: 1713000 - 1713908" locus_tag="Dd703_1445" id="clusterblast-1_h17_9_43" points="737,90 739,90 744,85 739,80 737,80 737,90 " class="clusterblast-orf"  />
<polygon style="stroke:black; stroke-width:1; fill:#FFFFFF; " description="ABC_transporter_related[br]Location: 1713912 - 1715705" locus_tag="Dd703_1446" id="clusterblast-1_h17_9_44" points="744,90 751,90 756,85 751,80 744,80 744,90 " class="clusterblast-orf"  />
<polygon style="stroke:black; stroke-width:1; fill:#FFFFFF; " description="transcriptional_regulator,_LysR_family[br]Location: 1716104 - 1716379" locus_tag="Dd703_1447" id="clusterblast-1_h17_9_45" points="759,90 761,85 759,80 759,90 " class="clusterblast-orf"  />
<polygon style="stroke:black; stroke-width:1; fill:#FFFFFF; " description="amino_acid_permease-associated_region[br]Location: 1716457 - 1717878" locus_tag="Dd703_1448" id="clusterblast-1_h17_9_46" points="761,85 766,80 771,80 771,90 766,90 761,85 " class="clusterblast-orf"  />
<polygon style="stroke:black; stroke-width:1; fill:#FFFFFF; " description="hypothetical_protein[br]Location: 1718559 - 1718783" locus_tag="Dd703_1449" id="clusterblast-1_h17_9_47" points="776,85 778,80 778,90 776,85 " class="clusterblast-orf"  />
</g>
</svg>
