<svg xmlns="http://www.w3.org/2000/svg" height="230" width="800" version="1.1" y="0" x="0" preserveAspectRatio="none" xmlns:xlink="http://www.w3.org/1999/xlink" viewBox="0 0 800 230"  >
<g class="clusterblast-cluster" label="Query sequence"  >
<text class="clusterblast-acc" y="10" x="5"  >
Query sequence</text>
<line y1="35" x2="778.0" style="stroke:grey; stroke-width:1; " x1="10" y2="35"  />
<polygon style="stroke:black; stroke-width:1; fill:red; " description="unannotated orf[br]Location: 12682 - 14106" locus_tag="CHAFR746836_0048090.1" class="clusterblast-orf" points="247,35 252,30 273,30 273,40 252,40 247,35 " id="clusterblast-1_q58_8_0"  />
<polygon style="stroke:black; stroke-width:1; fill:green; " description="unannotated orf[br]Location: 15778 - 17791" locus_tag="CHAFR746836_0048100.1" class="clusterblast-orf" points="303,40 335,40 340,35 335,30 303,30 303,40 " id="clusterblast-1_q58_8_1"  />
<polygon style="stroke:black; stroke-width:1; fill:blue; " description="unannotated orf[br]Location: 18075 - 18962" locus_tag="CHAFR746836_0048110.1" class="clusterblast-orf" points="345,35 350,30 362,30 362,40 350,40 345,35 " id="clusterblast-1_q58_8_2"  />
<polygon style="stroke:black; stroke-width:1; fill:yellow; " description="unannotated orf[br]Location: 20277 - 28682" locus_tag="CHAFR746836_0048120.1" class="clusterblast-orf" points="386,40 535,40 540,35 535,30 386,30 386,40 " id="clusterblast-1_q58_8_3"  />
</g>
<g class="clusterblast-cluster" description="Glarea lozoyensis 74030 Seq118, whole genome shotgun seq..." label="AGUE01000118.1_c1"  >
<text class="clusterblast-acc" y="60" x="5"  >
AGUE01000118.1_c1</text>
<text class="clusterblast-desc" y="60" x="460.8"  >
Glarea lozoyensis 74030 Seq118, whole genome shotgun seq...</text>
<line y1="85" x2="778.0" style="stroke:grey; stroke-width:1; " x1="10" y2="85"  />
<polygon style="stroke:black; stroke-width:1; fill:#FFFFFF; " description="putative_Uncharacterized_MFS-type_transporter[br]Location: 94390 - 96437" locus_tag="M7I_4780" id="clusterblast-1_h58_8_0" points="10,85 15,80 47,80 47,90 15,90 10,85 " class="clusterblast-orf"  />
<polygon style="stroke:black; stroke-width:1; fill:#FFFFFF; " description="putative_Choline-sulfatase[br]Location: 88112 - 89619" locus_tag="M7I_4779" id="clusterblast-1_h58_8_1" points="134,90 157,90 162,85 157,80 134,80 134,90 " class="clusterblast-orf"  />
<polygon style="stroke:black; stroke-width:1; fill:blue; " description="putative_Uncharacterized_hydrolase_C22A12.06c[br]Location: 85247 - 86338&lt;br&gt;&lt;br&gt;&lt;b&gt;BlastP hit with CHAFR746836_0048110.1&lt;/b&gt;&lt;br&gt;Percentage identity: 39%&lt;br&gt;Percentage coverage: 87%&lt;br&gt;BLAST bit score: 148&lt;br&gt;E-value: 1e-42" locus_tag="M7I_4778" id="clusterblast-1_h58_8_2" points="195,85 200,80 215,80 215,90 200,90 195,85 " class="clusterblast-orf"  />
<polygon style="stroke:black; stroke-width:1; fill:yellow; " description="putative_Phthiocerol_synthesis_polyketide[br]Location: 74391 - 82843&lt;br&gt;&lt;br&gt;&lt;b&gt;BlastP hit with CHAFR746836_0048120.1&lt;/b&gt;&lt;br&gt;Percentage identity: 40%&lt;br&gt;Percentage coverage: 34%&lt;br&gt;BLAST bit score: 583&lt;br&gt;E-value: 1e-169" locus_tag="M7I_4777" id="clusterblast-1_h58_8_3" points="259,90 409,90 414,85 409,80 259,80 259,90 " class="clusterblast-orf"  />
<polygon style="stroke:black; stroke-width:1; fill:#FFFFFF; " description="hypothetical_protein[br]Location: 71809 - 71998" locus_tag="M7I_4776" id="clusterblast-1_h58_8_4" points="457,85 461,80 461,90 457,85 " class="clusterblast-orf"  />
<polygon style="stroke:black; stroke-width:1; fill:#FFFFFF; " description="putative_GTP-binding_protein_2[br]Location: 67955 - 70589" locus_tag="M7I_4775" id="clusterblast-1_h58_8_5" points="483,90 527,90 532,85 527,80 483,80 483,90 " class="clusterblast-orf"  />
<polygon style="stroke:black; stroke-width:1; fill:#FFFFFF; " description="hypothetical_protein[br]Location: 65024 - 67055" locus_tag="M7I_4774" id="clusterblast-1_h58_8_6" points="548,85 553,80 585,80 585,90 553,90 548,85 " class="clusterblast-orf"  />
<polygon style="stroke:black; stroke-width:1; fill:#FFFFFF; " description="hypothetical_protein[br]Location: 63482 - 63805" locus_tag="M7I_4773" id="clusterblast-1_h58_8_7" points="608,85 613,80 614,80 614,90 613,90 608,85 " class="clusterblast-orf"  />
<polygon style="stroke:black; stroke-width:1; fill:red; " description="hypothetical_protein[br]Location: 59367 - 62307&lt;br&gt;&lt;br&gt;&lt;b&gt;BlastP hit with CHAFR746836_0048090.1&lt;/b&gt;&lt;br&gt;Percentage identity: 53%&lt;br&gt;Percentage coverage: 20%&lt;br&gt;BLAST bit score: 105&lt;br&gt;E-value: 3e-24" locus_tag="M7I_4772" id="clusterblast-1_h58_8_8" points="635,90 684,90 689,85 684,80 635,80 635,90 " class="clusterblast-orf"  />
<polygon style="stroke:black; stroke-width:1; fill:#FFFFFF; " description="hypothetical_protein[br]Location: 58106 - 59076" locus_tag="M7I_4771" id="clusterblast-1_h58_8_9" points="694,85 699,80 712,80 712,90 699,90 694,85 " class="clusterblast-orf"  />
<polygon style="stroke:black; stroke-width:1; fill:#FFFFFF; " description="hypothetical_protein[br]Location: 56306 - 57061" locus_tag="M7I_4770" id="clusterblast-1_h58_8_10" points="731,85 736,80 745,80 745,90 736,90 731,85 " class="clusterblast-orf"  />
<polygon style="stroke:black; stroke-width:1; fill:#FFFFFF; " description="hypothetical_protein[br]Location: 54541 - 55672" locus_tag="M7I_4769" id="clusterblast-1_h58_8_11" points="757,85 762,80 778,80 778,90 762,90 757,85 " class="clusterblast-orf"  />
</g>
</svg>
