<svg xmlns="http://www.w3.org/2000/svg" height="230" width="800" version="1.1" y="0" x="0" preserveAspectRatio="none" xmlns:xlink="http://www.w3.org/1999/xlink" viewBox="0 0 800 230"  >
<g class="clusterblast-cluster" label="Query sequence"  >
<text class="clusterblast-acc" y="10" x="5"  >
Query sequence</text>
<line y1="35" x2="778.0" style="stroke:grey; stroke-width:1; " x1="10" y2="35"  />
<polygon style="stroke:black; stroke-width:1; fill:rgb(190,63,63); " description="unannotated orf[br]Location: 121516 - 123190" locus_tag="CHAFR746836_0094200.1" class="clusterblast-orf" points="10,40 25,40 30,35 25,30 10,30 10,40 " id="clusterblast-1_q26_2_0"  />
<polygon style="stroke:black; stroke-width:1; fill:#FFFFFF; " description="unannotated orf[br]Location: 131375 - 131963" locus_tag="CHAFR746836_0094210.1" class="clusterblast-orf" points="129,35 134,30 136,30 136,40 134,40 129,35 " id="clusterblast-1_q26_2_1"  />
<polygon style="stroke:black; stroke-width:1; fill:#FFFFFF; " description="unannotated orf[br]Location: 132355 - 132981" locus_tag="CHAFR746836_0094220.1" class="clusterblast-orf" points="140,35 145,30 148,30 148,40 145,40 140,35 " id="clusterblast-1_q26_2_2"  />
<polygon style="stroke:black; stroke-width:1; fill:rgb(63,63,190); " description="unannotated orf[br]Location: 139202 - 140282" locus_tag="CHAFR746836_0094230.1" class="clusterblast-orf" points="223,35 228,30 236,30 236,40 228,40 223,35 " id="clusterblast-1_q26_2_3"  />
<polygon style="stroke:black; stroke-width:1; fill:rgb(63,190,63); " description="unannotated orf[br]Location: 142899 - 147562" locus_tag="CHAFR746836_0094240.1" class="clusterblast-orf" points="268,35 273,30 324,30 324,40 273,40 268,35 " id="clusterblast-1_q26_2_4"  />
<polygon style="stroke:black; stroke-width:1; fill:rgb(190,63,190); " description="unannotated orf[br]Location: 149403 - 151141" locus_tag="CHAFR746836_0094250.1" class="clusterblast-orf" points="346,40 362,40 367,35 362,30 346,30 346,40 " id="clusterblast-1_q26_2_5"  />
<polygon style="stroke:black; stroke-width:1; fill:rgb(190,190,63); " description="unannotated orf[br]Location: 153173 - 156458" locus_tag="CHAFR746836_0094260.1" class="clusterblast-orf" points="392,35 397,30 432,30 432,40 397,40 392,35 " id="clusterblast-1_q26_2_6"  />
<polygon style="stroke:black; stroke-width:1; fill:#FFFFFF; " description="unannotated orf[br]Location: 158921 - 161095" locus_tag="CHAFR746836_0094270.1" class="clusterblast-orf" points="461,40 483,40 488,35 483,30 461,30 461,40 " id="clusterblast-1_q26_2_7"  />
<polygon style="stroke:black; stroke-width:1; fill:#FFFFFF; " description="unannotated orf[br]Location: 163204 - 166182" locus_tag="CHAFR746836_0094280.1" class="clusterblast-orf" points="513,35 518,30 549,30 549,40 518,40 513,35 " id="clusterblast-1_q26_2_8"  />
<polygon style="stroke:black; stroke-width:1; fill:rgb(190,190,190); " description="unannotated orf[br]Location: 167736 - 168967" locus_tag="CHAFR746836_0094290.1" class="clusterblast-orf" points="568,40 578,40 583,35 578,30 568,30 568,40 " id="clusterblast-1_q26_2_9"  />
<polygon style="stroke:black; stroke-width:1; fill:rgb(63,190,190); " description="unannotated orf[br]Location: 169074 - 170389" locus_tag="CHAFR746836_0094300.1" class="clusterblast-orf" points="584,35 589,30 600,30 600,40 589,40 584,35 " id="clusterblast-1_q26_2_10"  />
<polygon style="stroke:black; stroke-width:1; fill:#FFFFFF; " description="unannotated orf[br]Location: 171033 - 171342" locus_tag="CHAFR746836_0094310.1" class="clusterblast-orf" points="608,35 612,30 612,40 608,35 " id="clusterblast-1_q26_2_11"  />
<polygon style="stroke:black; stroke-width:1; fill:#FFFFFF; " description="unannotated orf[br]Location: 175775 - 177555" locus_tag="CHAFR746836_0094320.1" class="clusterblast-orf" points="665,35 670,30 687,30 687,40 670,40 665,35 " id="clusterblast-1_q26_2_12"  />
<polygon style="stroke:black; stroke-width:1; fill:#FFFFFF; " description="unannotated orf[br]Location: 180145 - 180857" locus_tag="CHAFR746836_0094330.1" class="clusterblast-orf" points="718,40 721,40 726,35 721,30 718,30 718,40 " id="clusterblast-1_q26_2_13"  />
<polygon style="stroke:black; stroke-width:1; fill:#FFFFFF; " description="unannotated orf[br]Location: 181484 - 185078" locus_tag="CHAFR746836_0094340.1" class="clusterblast-orf" points="734,40 773,40 778,35 773,30 734,30 734,40 " id="clusterblast-1_q26_2_14"  />
</g>
<g class="clusterblast-cluster" description="Ajellomyces dermatitidis ER-3 genomic scaffold supercont1.10..." label="EQ999982.1_c2"  >
<text class="clusterblast-acc" y="60" x="5"  >
EQ999982.1_c2</text>
<text class="clusterblast-desc" y="60" x="460.8"  >
Ajellomyces dermatitidis ER-3 genomic scaffold supercont1.10...</text>
<line y1="85" x2="778.0" style="stroke:grey; stroke-width:1; " x1="10" y2="85"  />
<polygon style="stroke:black; stroke-width:1; fill:#FFFFFF; " description="ubiquitin_conjugating_enzyme_E2[br]Location: 2874373 - 2876303" locus_tag="BDCG_08283" id="clusterblast-1_h26_2_0" points="142,90 160,90 165,85 160,80 142,80 142,90 " class="clusterblast-orf"  />
<polygon style="stroke:black; stroke-width:1; fill:rgb(63,190,63); " description="cell_wall_biogenesis_protein_phosphatase_Ssd1[br]Location: 2868273 - 2872842&lt;br&gt;&lt;br&gt;&lt;b&gt;BlastP hit with CHAFR746836_0094240.1&lt;/b&gt;&lt;br&gt;Percentage identity: 66%&lt;br&gt;Percentage coverage: 101%&lt;br&gt;BLAST bit score: 1633&lt;br&gt;E-value: 0.0" locus_tag="BDCG_08282" id="clusterblast-1_h26_2_1" points="183,85 188,80 239,80 239,90 188,90 183,85 " class="clusterblast-orf"  />
<polygon style="stroke:black; stroke-width:1; fill:#FFFFFF; " description="predicted_protein[br]Location: 2864364 - 2865890" locus_tag="BDCG_08281" id="clusterblast-1_h26_2_2" points="267,90 281,90 286,85 281,80 267,80 267,90 " class="clusterblast-orf"  />
<polygon style="stroke:black; stroke-width:1; fill:rgb(190,63,190); " description="RNA_export_mediator_Gle1[br]Location: 2862224 - 2864033&lt;br&gt;&lt;br&gt;&lt;b&gt;BlastP hit with CHAFR746836_0094250.1&lt;/b&gt;&lt;br&gt;Percentage identity: 40%&lt;br&gt;Percentage coverage: 57%&lt;br&gt;BLAST bit score: 233&lt;br&gt;E-value: 2e-67" locus_tag="BDCG_08280" id="clusterblast-1_h26_2_3" points="290,90 307,90 312,85 307,80 290,80 290,90 " class="clusterblast-orf"  />
<polygon style="stroke:black; stroke-width:1; fill:#FFFFFF; " description="conserved_hypothetical_protein[br]Location: 2859807 - 2860688" locus_tag="BDCG_08279" id="clusterblast-1_h26_2_4" points="330,85 335,80 341,80 341,90 335,90 330,85 " class="clusterblast-orf"  />
<polygon style="stroke:black; stroke-width:1; fill:#FFFFFF; " description="predicted_protein[br]Location: 2858813 - 2859264" locus_tag="BDCG_08278" id="clusterblast-1_h26_2_5" points="347,90 348,90 353,85 348,80 347,80 347,90 " class="clusterblast-orf"  />
<polygon style="stroke:black; stroke-width:1; fill:#FFFFFF; " description="predicted_protein[br]Location: 2857386 - 2858273" locus_tag="BDCG_08277" id="clusterblast-1_h26_2_6" points="359,85 364,80 370,80 370,90 364,90 359,85 " class="clusterblast-orf"  />
<polygon style="stroke:black; stroke-width:1; fill:#FFFFFF; " description="lanthionine_synthetase_C_family_protein[br]Location: 2854786 - 2856587" locus_tag="BDCG_08276" id="clusterblast-1_h26_2_7" points="380,90 396,90 401,85 396,80 380,80 380,90 " class="clusterblast-orf"  />
<polygon style="stroke:black; stroke-width:1; fill:#FFFFFF; " description="CCAAT-box-binding_transcription_factor[br]Location: 2850883 - 2854427" locus_tag="BDCG_08275" id="clusterblast-1_h26_2_8" points="406,85 411,80 449,80 449,90 411,90 406,85 " class="clusterblast-orf"  />
<polygon style="stroke:black; stroke-width:1; fill:#FFFFFF; " description="prolyl-tRNA_synthetase[br]Location: 2848338 - 2850181" locus_tag="BDCG_08274" id="clusterblast-1_h26_2_9" points="457,90 474,90 479,85 474,80 457,80 457,90 " class="clusterblast-orf"  />
<polygon style="stroke:black; stroke-width:1; fill:#FFFFFF; " description="prefoldin_subunit_5[br]Location: 2847102 - 2848020" locus_tag="BDCG_08273" id="clusterblast-1_h26_2_10" points="483,90 489,90 494,85 489,80 483,80 483,90 " class="clusterblast-orf"  />
<polygon style="stroke:black; stroke-width:1; fill:#FFFFFF; " description="conserved_hypothetical_protein[br]Location: 2843974 - 2846425" locus_tag="BDCG_08272" id="clusterblast-1_h26_2_11" points="503,85 508,80 532,80 532,90 508,90 503,85 " class="clusterblast-orf"  />
<polygon style="stroke:black; stroke-width:1; fill:#FFFFFF; " description="NADH-ubiquinone_oxidoreductase_19_kDa_subunit[br]Location: 2842413 - 2843175" locus_tag="BDCG_08271" id="clusterblast-1_h26_2_12" points="542,90 546,90 551,85 546,80 542,80 542,90 " class="clusterblast-orf"  />
<polygon style="stroke:black; stroke-width:1; fill:#FFFFFF; " description="conserved_hypothetical_protein[br]Location: 2840579 - 2842033" locus_tag="BDCG_08270" id="clusterblast-1_h26_2_13" points="556,85 561,80 573,80 573,90 561,90 556,85 " class="clusterblast-orf"  />
<polygon style="stroke:black; stroke-width:1; fill:#FFFFFF; " description="conserved_hypothetical_protein[br]Location: 2838034 - 2839586" locus_tag="BDCG_08269" id="clusterblast-1_h26_2_14" points="585,90 599,90 604,85 599,80 585,80 585,90 " class="clusterblast-orf"  />
<polygon style="stroke:black; stroke-width:1; fill:#FFFFFF; " description="acyl_CoA_binding_protein[br]Location: 2834610 - 2836379" locus_tag="BDCG_08268" id="clusterblast-1_h26_2_15" points="624,85 629,80 645,80 645,90 629,90 624,85 " class="clusterblast-orf"  />
</g>
</svg>
