<svg xmlns="http://www.w3.org/2000/svg" height="230" width="800" version="1.1" y="0" x="0" preserveAspectRatio="none" xmlns:xlink="http://www.w3.org/1999/xlink" viewBox="0 0 800 230"  >
<g class="clusterblast-cluster" label="Query sequence"  >
<text class="clusterblast-acc" y="10" x="5"  >
Query sequence</text>
<line y1="35" x2="778.0" style="stroke:grey; stroke-width:1; " x1="10" y2="35"  />
<polygon style="stroke:black; stroke-width:1; fill:red; " description="unannotated orf[br]Location: 132361 - 134630" locus_tag="CHAFR746836_0093380.1" class="clusterblast-orf" points="111,35 116,30 148,30 148,40 116,40 111,35 " id="clusterblast-1_q25_6_0"  />
<polygon style="stroke:black; stroke-width:1; fill:green; " description="unannotated orf[br]Location: 135481 - 137568" locus_tag="CHAFR746836_0093390.1" class="clusterblast-orf" points="162,35 167,30 196,30 196,40 167,40 162,35 " id="clusterblast-1_q25_6_1"  />
<polygon style="stroke:black; stroke-width:1; fill:blue; " description="unannotated orf[br]Location: 139704 - 140960" locus_tag="CHAFR746836_0093400.1" class="clusterblast-orf" points="232,40 247,40 252,35 247,30 232,30 232,40 " id="clusterblast-1_q25_6_2"  />
<polygon style="stroke:black; stroke-width:1; fill:#FFFFFF; " description="unannotated orf[br]Location: 141330 - 141954" locus_tag="CHAFR746836_0093410.1" class="clusterblast-orf" points="258,35 263,30 269,30 269,40 263,40 258,35 " id="clusterblast-1_q25_6_3"  />
<polygon style="stroke:black; stroke-width:1; fill:#FFFFFF; " description="unannotated orf[br]Location: 142312 - 143163" locus_tag="CHAFR746836_0093420.1" class="clusterblast-orf" points="275,35 280,30 289,30 289,40 280,40 275,35 " id="clusterblast-1_q25_6_4"  />
<polygon style="stroke:black; stroke-width:1; fill:yellow; " description="unannotated orf[br]Location: 143792 - 145365" locus_tag="CHAFR746836_0093430.1" class="clusterblast-orf" points="299,40 320,40 325,35 320,30 299,30 299,40 " id="clusterblast-1_q25_6_5"  />
<polygon style="stroke:black; stroke-width:1; fill:#FFFFFF; " description="unannotated orf[br]Location: 149266 - 150822" locus_tag="CHAFR746836_0093440.1" class="clusterblast-orf" points="389,35 394,30 415,30 415,40 394,40 389,35 " id="clusterblast-1_q25_6_6"  />
<polygon style="stroke:black; stroke-width:1; fill:#FFFFFF; " description="unannotated orf[br]Location: 152427 - 154072" locus_tag="CHAFR746836_0093450.1" class="clusterblast-orf" points="441,35 446,30 468,30 468,40 446,40 441,35 " id="clusterblast-1_q25_6_7"  />
<polygon style="stroke:black; stroke-width:1; fill:#FFFFFF; " description="unannotated orf[br]Location: 156646 - 158903" locus_tag="CHAFR746836_0093460.1" class="clusterblast-orf" points="511,35 516,30 548,30 548,40 516,40 511,35 " id="clusterblast-1_q25_6_8"  />
<polygon style="stroke:black; stroke-width:1; fill:#FFFFFF; " description="unannotated orf[br]Location: 159870 - 162862" locus_tag="CHAFR746836_0093470.1" class="clusterblast-orf" points="564,40 608,40 613,35 608,30 564,30 564,40 " id="clusterblast-1_q25_6_9"  />
<polygon style="stroke:black; stroke-width:1; fill:#FFFFFF; " description="unannotated orf[br]Location: 164208 - 166576" locus_tag="CHAFR746836_0093480.1" class="clusterblast-orf" points="636,40 670,40 675,35 670,30 636,30 636,40 " id="clusterblast-1_q25_6_10"  />
</g>
<g class="clusterblast-cluster" description="Mycosphaerella graminicola IPO323 chromosome 7, whole genome..." label="CM001202.1_c1"  >
<text class="clusterblast-acc" y="60" x="5"  >
CM001202.1_c1</text>
<text class="clusterblast-desc" y="60" x="460.8"  >
Mycosphaerella graminicola IPO323 chromosome 7, whole genome...</text>
<line y1="85" x2="778.0" style="stroke:grey; stroke-width:1; " x1="10" y2="85"  />
<polygon style="stroke:black; stroke-width:1; fill:#FFFFFF; " description="hypothetical_protein[br]Location: 2607080 - 2608068" locus_tag="MYCGRDRAFT_44980" id="clusterblast-1_h25_6_0" points="10,90 21,90 26,85 21,80 10,80 10,90 " class="clusterblast-orf"  />
<polygon style="stroke:black; stroke-width:1; fill:#FFFFFF; " description="hypothetical_protein[br]Location: 2605773 - 2606813" locus_tag="MYCGRDRAFT_44943" id="clusterblast-1_h25_6_1" points="30,90 42,90 47,85 42,80 30,80 30,90 " class="clusterblast-orf"  />
<polygon style="stroke:black; stroke-width:1; fill:green; " description="putative_P450_monooxygenase[br]Location: 2603448 - 2605040&lt;br&gt;&lt;br&gt;&lt;b&gt;BlastP hit with CHAFR746836_0093390.1&lt;/b&gt;&lt;br&gt;Percentage identity: 32%&lt;br&gt;Percentage coverage: 95%&lt;br&gt;BLAST bit score: 235&lt;br&gt;E-value: 9e-69" locus_tag="MYCGRDRAFT_45271" id="clusterblast-1_h25_6_2" points="59,85 64,80 86,80 86,90 64,90 59,85 " class="clusterblast-orf"  />
<polygon style="stroke:black; stroke-width:1; fill:#FFFFFF; " description="ABC_transporter[br]Location: 2597608 - 2601755" locus_tag="MYCGRDRAFT_100851" id="clusterblast-1_h25_6_3" points="114,85 119,80 182,80 182,90 119,90 114,85 " class="clusterblast-orf"  />
<polygon style="stroke:black; stroke-width:1; fill:#FFFFFF; " description="hypothetical_protein[br]Location: 2592693 - 2594087" locus_tag="MYCGRDRAFT_45185" id="clusterblast-1_h25_6_4" points="240,90 258,90 263,85 258,80 240,80 240,90 " class="clusterblast-orf"  />
<polygon style="stroke:black; stroke-width:1; fill:#FFFFFF; " description="hypothetical_protein[br]Location: 2591337 - 2592281" locus_tag="MYCGRDRAFT_45561" id="clusterblast-1_h25_6_5" points="270,90 280,90 285,85 280,80 270,80 270,90 " class="clusterblast-orf"  />
<polygon style="stroke:black; stroke-width:1; fill:#FFFFFF; " description="hypothetical_protein[br]Location: 2590017 - 2591228" locus_tag="MYCGRDRAFT_45256" id="clusterblast-1_h25_6_6" points="287,85 292,80 307,80 307,90 292,90 287,85 " class="clusterblast-orf"  />
<polygon style="stroke:black; stroke-width:1; fill:#FFFFFF; " description="polyketide_synthase[br]Location: 2581920 - 2589469" locus_tag="MYCGRDRAFT_45348" id="clusterblast-1_h25_6_7" points="316,90 436,90 441,85 436,80 316,80 316,90 " class="clusterblast-orf"  />
<polygon style="stroke:black; stroke-width:1; fill:#FFFFFF; " description="hypothetical_protein[br]Location: 2577096 - 2579147" locus_tag="MYCGRDRAFT_45489" id="clusterblast-1_h25_6_8" points="486,90 515,90 520,85 515,80 486,80 486,90 " class="clusterblast-orf"  />
<polygon style="stroke:black; stroke-width:1; fill:#FFFFFF; " description="hypothetical_protein[br]Location: 2575718 - 2576723" locus_tag="MYCGRDRAFT_16430" id="clusterblast-1_h25_6_9" points="526,85 531,80 543,80 543,90 531,90 526,85 " class="clusterblast-orf"  />
<polygon style="stroke:black; stroke-width:1; fill:red; " description="hypothetical_protein[br]Location: 2571494 - 2574930&lt;br&gt;&lt;br&gt;&lt;b&gt;BlastP hit with CHAFR746836_0093380.1&lt;/b&gt;&lt;br&gt;Percentage identity: 38%&lt;br&gt;Percentage coverage: 97%&lt;br&gt;BLAST bit score: 360&lt;br&gt;E-value: 2e-114" locus_tag="MYCGRDRAFT_100850" id="clusterblast-1_h25_6_10" points="556,85 561,80 613,80 613,90 561,90 556,85 " class="clusterblast-orf"  />
<polygon style="stroke:black; stroke-width:1; fill:#FFFFFF; " description="hypothetical_protein[br]Location: 2566511 - 2567380" locus_tag="MYCGRDRAFT_110301" id="clusterblast-1_h25_6_11" points="680,85 685,80 695,80 695,90 685,90 680,85 " class="clusterblast-orf"  />
<polygon style="stroke:black; stroke-width:1; fill:#FFFFFF; " description="hypothetical_protein[br]Location: 2561490 - 2562458" locus_tag="MYCGRDRAFT_110300" id="clusterblast-1_h25_6_12" points="762,90 773,90 778,85 773,80 762,80 762,90 " class="clusterblast-orf"  />
</g>
</svg>
