<svg xmlns="http://www.w3.org/2000/svg" height="480" width="800" version="1.1" y="0" x="0" preserveAspectRatio="none" xmlns:xlink="http://www.w3.org/1999/xlink" viewBox="0 0 800 480"  >
<g class="clusterblast-cluster" label="Query sequence"  >
<text class="clusterblast-acc" y="10" x="5"  >
Query sequence</text>
<line y1="35" x2="778.0" style="stroke:grey; stroke-width:1; " x1="10" y2="35"  />
<polygon style="stroke:black; stroke-width:1; fill:red; " description="unannotated orf[br]Location: 132361 - 134630" locus_tag="CHAFR746836_0093380.1" class="clusterblast-orf" points="121,35 126,30 157,30 157,40 126,40 121,35 " id="clusterblast-1_all_25_0_0"  />
<polygon style="stroke:black; stroke-width:1; fill:green; " description="unannotated orf[br]Location: 135481 - 137568" locus_tag="CHAFR746836_0093390.1" class="clusterblast-orf" points="170,35 175,30 204,30 204,40 175,40 170,35 " id="clusterblast-1_all_25_0_1"  />
<polygon style="stroke:black; stroke-width:1; fill:blue; " description="unannotated orf[br]Location: 139704 - 140960" locus_tag="CHAFR746836_0093400.1" class="clusterblast-orf" points="238,40 253,40 258,35 253,30 238,30 238,40 " id="clusterblast-1_all_25_0_2"  />
<polygon style="stroke:black; stroke-width:1; fill:#FFFFFF; " description="unannotated orf[br]Location: 141330 - 141954" locus_tag="CHAFR746836_0093410.1" class="clusterblast-orf" points="264,35 269,30 273,30 273,40 269,40 264,35 " id="clusterblast-1_all_25_0_3"  />
<polygon style="stroke:black; stroke-width:1; fill:#FFFFFF; " description="unannotated orf[br]Location: 142312 - 143163" locus_tag="CHAFR746836_0093420.1" class="clusterblast-orf" points="279,35 284,30 293,30 293,40 284,40 279,35 " id="clusterblast-1_all_25_0_4"  />
<polygon style="stroke:black; stroke-width:1; fill:yellow; " description="unannotated orf[br]Location: 143792 - 145365" locus_tag="CHAFR746836_0093430.1" class="clusterblast-orf" points="303,40 323,40 328,35 323,30 303,30 303,40 " id="clusterblast-1_all_25_0_5"  />
<polygon style="stroke:black; stroke-width:1; fill:#FFFFFF; " description="unannotated orf[br]Location: 149266 - 150822" locus_tag="CHAFR746836_0093440.1" class="clusterblast-orf" points="390,35 395,30 415,30 415,40 395,40 390,35 " id="clusterblast-1_all_25_0_6"  />
<polygon style="stroke:black; stroke-width:1; fill:#FFFFFF; " description="unannotated orf[br]Location: 152427 - 154072" locus_tag="CHAFR746836_0093450.1" class="clusterblast-orf" points="440,35 445,30 467,30 467,40 445,40 440,35 " id="clusterblast-1_all_25_0_7"  />
<polygon style="stroke:black; stroke-width:1; fill:#FFFFFF; " description="unannotated orf[br]Location: 156646 - 158903" locus_tag="CHAFR746836_0093460.1" class="clusterblast-orf" points="508,35 513,30 544,30 544,40 513,40 508,35 " id="clusterblast-1_all_25_0_8"  />
<polygon style="stroke:black; stroke-width:1; fill:#FFFFFF; " description="unannotated orf[br]Location: 159870 - 162862" locus_tag="CHAFR746836_0093470.1" class="clusterblast-orf" points="559,40 602,40 607,35 602,30 559,30 559,40 " id="clusterblast-1_all_25_0_9"  />
<polygon style="stroke:black; stroke-width:1; fill:#FFFFFF; " description="unannotated orf[br]Location: 164208 - 166576" locus_tag="CHAFR746836_0093480.1" class="clusterblast-orf" points="628,40 661,40 666,35 661,30 628,30 628,40 " id="clusterblast-1_all_25_0_10"  />
</g>
<g class="clusterblast-cluster" description="Trichoderma virens Gv29-8 TRIVIscaffold 92, whole genome..." label="ABDF02000092.1_c2"  >
<text class="clusterblast-acc" y="60" x="5"  >
ABDF02000092.1_c2</text>
<text class="clusterblast-desc" y="60" x="460.8"  >
Trichoderma virens Gv29-8 TRIVIscaffold 92, whole genome...</text>
<line y1="85" x2="778.0" style="stroke:grey; stroke-width:1; " x1="10" y2="85"  />
<polygon style="stroke:black; stroke-width:1; fill:#FFFFFF; " description="hypothetical_protein[br]Location: 1815329 - 1817114" locus_tag="TRIVIDRAFT_56201" id="clusterblast-1_all_25_1_0" points="698,90 721,90 726,85 721,80 698,80 698,90 " class="clusterblast-orf"  />
<polygon style="stroke:black; stroke-width:1; fill:#FFFFFF; " description="hypothetical_protein[br]Location: 1817547 - 1818506" locus_tag="TRIVIDRAFT_82505" id="clusterblast-1_all_25_1_1" points="676,85 681,80 692,80 692,90 681,90 676,85 " class="clusterblast-orf"  />
<polygon style="stroke:black; stroke-width:1; fill:#FFFFFF; " description="hypothetical_protein[br]Location: 1819141 - 1821484" locus_tag="TRIVIDRAFT_124096" id="clusterblast-1_all_25_1_2" points="629,90 661,90 666,85 661,80 629,80 629,90 " class="clusterblast-orf"  />
<polygon style="stroke:black; stroke-width:1; fill:#FFFFFF; " description="hypothetical_protein[br]Location: 1822275 - 1823807" locus_tag="TRIVIDRAFT_56198" id="clusterblast-1_all_25_1_3" points="592,85 597,80 616,80 616,90 597,90 592,85 " class="clusterblast-orf"  />
<polygon style="stroke:black; stroke-width:1; fill:#FFFFFF; " description="hypothetical_protein[br]Location: 1824088 - 1825644" locus_tag="TRIVIDRAFT_82504" id="clusterblast-1_all_25_1_4" points="562,90 582,90 587,85 582,80 562,80 562,90 " class="clusterblast-orf"  />
<polygon style="stroke:black; stroke-width:1; fill:#FFFFFF; " description="hypothetical_protein[br]Location: 1826233 - 1826847" locus_tag="TRIVIDRAFT_39063" id="clusterblast-1_all_25_1_5" points="543,90 548,90 553,85 548,80 543,80 543,90 " class="clusterblast-orf"  />
<polygon style="stroke:black; stroke-width:1; fill:#FFFFFF; " description="hypothetical_protein[br]Location: 1827612 - 1828754" locus_tag="TRIVIDRAFT_207487" id="clusterblast-1_all_25_1_6" points="513,90 526,90 531,85 526,80 513,80 513,90 " class="clusterblast-orf"  />
<polygon style="stroke:black; stroke-width:1; fill:#FFFFFF; " description="hypothetical_protein[br]Location: 1829522 - 1831350" locus_tag="TRIVIDRAFT_64344" id="clusterblast-1_all_25_1_7" points="471,90 496,90 501,85 496,80 471,80 471,90 " class="clusterblast-orf"  />
<polygon style="stroke:black; stroke-width:1; fill:#FFFFFF; " description="hypothetical_protein[br]Location: 1833363 - 1833889" locus_tag="TRIVIDRAFT_111175" id="clusterblast-1_all_25_1_8" points="431,90 434,90 439,85 434,80 431,80 431,90 " class="clusterblast-orf"  />
<polygon style="stroke:black; stroke-width:1; fill:#FFFFFF; " description="hypothetical_protein[br]Location: 1834527 - 1835673" locus_tag="TRIVIDRAFT_217322" id="clusterblast-1_all_25_1_9" points="403,90 416,90 421,85 416,80 403,80 403,90 " class="clusterblast-orf"  />
<polygon style="stroke:black; stroke-width:1; fill:yellow; " description="hypothetical_protein[br]Location: 1836769 - 1838192&lt;br&gt;&lt;br&gt;&lt;b&gt;BlastP hit with CHAFR746836_0093430.1&lt;/b&gt;&lt;br&gt;Percentage identity: 32%&lt;br&gt;Percentage coverage: 98%&lt;br&gt;BLAST bit score: 197&lt;br&gt;E-value: 2e-57" locus_tag="TRIVIDRAFT_56195" id="clusterblast-1_all_25_1_10" points="362,90 380,90 385,85 380,80 362,80 362,90 " class="clusterblast-orf"  />
<polygon style="stroke:black; stroke-width:1; fill:green; " description="hypothetical_protein[br]Location: 1839776 - 1841746&lt;br&gt;&lt;br&gt;&lt;b&gt;BlastP hit with CHAFR746836_0093390.1&lt;/b&gt;&lt;br&gt;Percentage identity: 43%&lt;br&gt;Percentage coverage: 97%&lt;br&gt;BLAST bit score: 415&lt;br&gt;E-value: 2e-137" locus_tag="TRIVIDRAFT_74291" id="clusterblast-1_all_25_1_11" points="306,85 311,80 337,80 337,90 311,90 306,85 " class="clusterblast-orf"  />
<polygon style="stroke:black; stroke-width:1; fill:#FFFFFF; " description="hypothetical_protein[br]Location: 1843456 - 1845185" locus_tag="TRIVIDRAFT_74289" id="clusterblast-1_all_25_1_12" points="251,85 256,80 278,80 278,90 256,90 251,85 " class="clusterblast-orf"  />
<polygon style="stroke:black; stroke-width:1; fill:#FFFFFF; " description="hypothetical_protein[br]Location: 1846094 - 1847852" locus_tag="TRIVIDRAFT_39153" id="clusterblast-1_all_25_1_13" points="208,90 231,90 236,85 231,80 208,80 208,90 " class="clusterblast-orf"  />
<polygon style="stroke:black; stroke-width:1; fill:#FFFFFF; " description="hypothetical_protein[br]Location: 1848847 - 1849302" locus_tag="TRIVIDRAFT_228806" id="clusterblast-1_all_25_1_14" points="185,85 190,80 192,80 192,90 190,90 185,85 " class="clusterblast-orf"  />
<polygon style="stroke:black; stroke-width:1; fill:#FFFFFF; " description="hypothetical_protein[br]Location: 1850508 - 1852354" locus_tag="TRIVIDRAFT_38198" id="clusterblast-1_all_25_1_15" points="137,85 142,80 166,80 166,90 142,90 137,85 " class="clusterblast-orf"  />
<polygon style="stroke:black; stroke-width:1; fill:#FFFFFF; " description="hypothetical_protein[br]Location: 1853521 - 1855092" locus_tag="TRIVIDRAFT_64335" id="clusterblast-1_all_25_1_16" points="93,85 98,80 118,80 118,90 98,90 93,85 " class="clusterblast-orf"  />
<polygon style="stroke:black; stroke-width:1; fill:#FFFFFF; " description="hypothetical_protein[br]Location: 1855339 - 1857000" locus_tag="TRIVIDRAFT_56190" id="clusterblast-1_all_25_1_17" points="62,90 84,90 89,85 84,80 62,80 62,90 " class="clusterblast-orf"  />
</g>
<g class="clusterblast-cluster" description="Trichoderma virens Gv29-8 TRIVIscaffold 60, whole genome..." label="ABDF02000060.1_c1"  >
<text class="clusterblast-acc" y="110" x="5"  >
ABDF02000060.1_c1</text>
<text class="clusterblast-desc" y="110" x="460.8"  >
Trichoderma virens Gv29-8 TRIVIscaffold 60, whole genome...</text>
<line y1="135" x2="778.0" style="stroke:grey; stroke-width:1; " x1="10" y2="135"  />
<polygon style="stroke:black; stroke-width:1; fill:#FFFFFF; " description="glycoside_hydrolase_family_5_protein[br]Location: 39163 - 40680" locus_tag="TRIVIDRAFT_53160" id="clusterblast-1_all_25_2_0" points="221,135 226,130 245,130 245,140 226,140 221,135 " class="clusterblast-orf"  />
<polygon style="stroke:black; stroke-width:1; fill:#FFFFFF; " description="glycoside_hydrolase_family_67_protein[br]Location: 41255 - 43747" locus_tag="TRIVIDRAFT_151713" id="clusterblast-1_all_25_2_1" points="254,140 289,140 294,135 289,130 254,130 254,140 " class="clusterblast-orf"  />
<polygon style="stroke:black; stroke-width:1; fill:#FFFFFF; " description="hypothetical_protein[br]Location: 44668 - 46199" locus_tag="TRIVIDRAFT_53167" id="clusterblast-1_all_25_2_2" points="308,135 313,130 333,130 333,140 313,140 308,135 " class="clusterblast-orf"  />
<polygon style="stroke:black; stroke-width:1; fill:#FFFFFF; " description="hypothetical_protein[br]Location: 48822 - 49013" locus_tag="TRIVIDRAFT_151697" id="clusterblast-1_all_25_2_3" points="375,135 378,130 378,140 375,135 " class="clusterblast-orf"  />
<polygon style="stroke:black; stroke-width:1; fill:#FFFFFF; " description="hypothetical_protein[br]Location: 49905 - 50940" locus_tag="TRIVIDRAFT_70794" id="clusterblast-1_all_25_2_4" points="392,140 403,140 408,135 403,130 392,130 392,140 " class="clusterblast-orf"  />
<polygon style="stroke:black; stroke-width:1; fill:#FFFFFF; " description="glycosyltransferase_family_1_protein[br]Location: 51126 - 53894" locus_tag="TRIVIDRAFT_53154" id="clusterblast-1_all_25_2_5" points="411,135 416,130 455,130 455,140 416,140 411,135 " class="clusterblast-orf"  />
<polygon style="stroke:black; stroke-width:1; fill:green; " description="hypothetical_protein[br]Location: 56327 - 58208&lt;br&gt;&lt;br&gt;&lt;b&gt;BlastP hit with CHAFR746836_0093390.1&lt;/b&gt;&lt;br&gt;Percentage identity: 44%&lt;br&gt;Percentage coverage: 95%&lt;br&gt;BLAST bit score: 437&lt;br&gt;E-value: 2e-146" locus_tag="TRIVIDRAFT_53201" id="clusterblast-1_all_25_2_6" points="494,135 499,130 524,130 524,140 499,140 494,135 " class="clusterblast-orf"  />
<polygon style="stroke:black; stroke-width:1; fill:yellow; " description="hypothetical_protein[br]Location: 59929 - 60858&lt;br&gt;&lt;br&gt;&lt;b&gt;BlastP hit with CHAFR746836_0093430.1&lt;/b&gt;&lt;br&gt;Percentage identity: 34%&lt;br&gt;Percentage coverage: 65%&lt;br&gt;BLAST bit score: 171&lt;br&gt;E-value: 5e-49" locus_tag="TRIVIDRAFT_53145" id="clusterblast-1_all_25_2_7" points="552,140 561,140 566,135 561,130 552,130 552,140 " class="clusterblast-orf"  />
</g>
<g class="clusterblast-cluster" description="Aspergillus oryzae RIB40 DNA, SC011." label="AP007171.1_c4"  >
<text class="clusterblast-acc" y="160" x="5"  >
AP007171.1_c4</text>
<text class="clusterblast-desc" y="160" x="460.8"  >
Aspergillus oryzae RIB40 DNA, SC011.</text>
<line y1="185" x2="778.0" style="stroke:grey; stroke-width:1; " x1="10" y2="185"  />
<polygon style="stroke:black; stroke-width:1; fill:#FFFFFF; " description="[br]Location: 1025735 - 1026467" locus_tag="AO090011000401" id="clusterblast-1_all_25_3_0" points="695,190 701,190 706,185 701,180 695,180 695,190 " class="clusterblast-orf"  />
<polygon style="stroke:black; stroke-width:1; fill:#FFFFFF; " description="[br]Location: 1030328 - 1033641" locus_tag="AO090011000402" id="clusterblast-1_all_25_3_1" points="581,190 629,190 634,185 629,180 581,180 581,190 " class="clusterblast-orf"  />
<polygon style="stroke:black; stroke-width:1; fill:#FFFFFF; " description="[br]Location: 1035262 - 1035754" locus_tag="AO090011000403" id="clusterblast-1_all_25_3_2" points="547,190 550,190 555,185 550,180 547,180 547,190 " class="clusterblast-orf"  />
<polygon style="stroke:black; stroke-width:1; fill:#FFFFFF; " description="[br]Location: 1035820 - 1036248" locus_tag="AO090011000404" id="clusterblast-1_all_25_3_3" points="540,190 541,190 546,185 541,180 540,180 540,190 " class="clusterblast-orf"  />
<polygon style="stroke:black; stroke-width:1; fill:#FFFFFF; " description="[br]Location: 1037610 - 1038567" locus_tag="AO090011000405" id="clusterblast-1_all_25_3_4" points="503,190 513,190 518,185 513,180 503,180 503,190 " class="clusterblast-orf"  />
<polygon style="stroke:black; stroke-width:1; fill:#FFFFFF; " description="[br]Location: 1039554 - 1040571" locus_tag="AO090011000406" id="clusterblast-1_all_25_3_5" points="471,185 476,180 487,180 487,190 476,190 471,185 " class="clusterblast-orf"  />
<polygon style="stroke:black; stroke-width:1; fill:yellow; " description="[br]Location: 1044546 - 1045095&lt;br&gt;&lt;br&gt;&lt;b&gt;BlastP hit with CHAFR746836_0093430.1&lt;/b&gt;&lt;br&gt;Percentage identity: 34%&lt;br&gt;Percentage coverage: 40%&lt;br&gt;BLAST bit score: 87&lt;br&gt;E-value: 5e-19" locus_tag="AO090011000408" id="clusterblast-1_all_25_3_6" points="398,190 402,190 407,185 402,180 398,180 398,190 " class="clusterblast-orf"  />
<polygon style="stroke:black; stroke-width:1; fill:#FFFFFF; " description="[br]Location: 1047060 - 1048604" locus_tag="AO090011000410" id="clusterblast-1_all_25_3_7" points="343,185 348,180 367,180 367,190 348,190 343,185 " class="clusterblast-orf"  />
<polygon style="stroke:black; stroke-width:1; fill:#FFFFFF; " description="[br]Location: 1049375 - 1051191" locus_tag="AO090011000411" id="clusterblast-1_all_25_3_8" points="301,190 325,190 330,185 325,180 301,180 301,190 " class="clusterblast-orf"  />
<polygon style="stroke:black; stroke-width:1; fill:#FFFFFF; " description="[br]Location: 1051900 - 1053775" locus_tag="AO090011000412" id="clusterblast-1_all_25_3_9" points="260,185 265,180 290,180 290,190 265,190 260,185 " class="clusterblast-orf"  />
<polygon style="stroke:black; stroke-width:1; fill:#FFFFFF; " description="[br]Location: 1053886 - 1055459" locus_tag="AO090011000413" id="clusterblast-1_all_25_3_10" points="233,190 253,190 258,185 253,180 233,180 233,190 " class="clusterblast-orf"  />
<polygon style="stroke:black; stroke-width:1; fill:#FFFFFF; " description="[br]Location: 1055930 - 1057050" locus_tag="AO090011000414" id="clusterblast-1_all_25_3_11" points="208,190 221,190 226,185 221,180 208,180 208,190 " class="clusterblast-orf"  />
<polygon style="stroke:black; stroke-width:1; fill:green; " description="[br]Location: 1057794 - 1059707&lt;br&gt;&lt;br&gt;&lt;b&gt;BlastP hit with CHAFR746836_0093390.1&lt;/b&gt;&lt;br&gt;Percentage identity: 42%&lt;br&gt;Percentage coverage: 97%&lt;br&gt;BLAST bit score: 425&lt;br&gt;E-value: 1e-141" locus_tag="AO090011000415" id="clusterblast-1_all_25_3_12" points="165,185 170,180 196,180 196,190 170,190 165,185 " class="clusterblast-orf"  />
<polygon style="stroke:black; stroke-width:1; fill:#FFFFFF; " description="[br]Location: 1059957 - 1060664" locus_tag="AO090011000416" id="clusterblast-1_all_25_3_13" points="150,190 156,190 161,185 156,180 150,180 150,190 " class="clusterblast-orf"  />
<polygon style="stroke:black; stroke-width:1; fill:#FFFFFF; " description="[br]Location: 1062198 - 1063548" locus_tag="AO090011000417" id="clusterblast-1_all_25_3_14" points="104,185 109,180 126,180 126,190 109,190 104,185 " class="clusterblast-orf"  />
<polygon style="stroke:black; stroke-width:1; fill:#FFFFFF; " description="[br]Location: 1064223 - 1067040" locus_tag="AO090011000418" id="clusterblast-1_all_25_3_15" points="49,185 54,180 93,180 93,190 54,190 49,185 " class="clusterblast-orf"  />
</g>
<g class="clusterblast-cluster" description="Aspergillus oryzae RIB40 DNA, SC038." label="AP007169.1_c3"  >
<text class="clusterblast-acc" y="210" x="5"  >
AP007169.1_c3</text>
<text class="clusterblast-desc" y="210" x="460.8"  >
Aspergillus oryzae RIB40 DNA, SC038.</text>
<line y1="235" x2="778.0" style="stroke:grey; stroke-width:1; " x1="10" y2="235"  />
<polygon style="stroke:black; stroke-width:1; fill:blue; " description="[br]Location: 528975 - 529932&lt;br&gt;&lt;br&gt;&lt;b&gt;BlastP hit with CHAFR746836_0093400.1&lt;/b&gt;&lt;br&gt;Percentage identity: 31%&lt;br&gt;Percentage coverage: 74%&lt;br&gt;BLAST bit score: 108&lt;br&gt;E-value: 8e-26" locus_tag="AO090038000205" id="clusterblast-1_all_25_4_0" points="10,240 20,240 25,235 20,230 10,230 10,240 " class="clusterblast-orf"  />
<polygon style="stroke:black; stroke-width:1; fill:green; " description="[br]Location: 530249 - 531961&lt;br&gt;&lt;br&gt;&lt;b&gt;BlastP hit with CHAFR746836_0093390.1&lt;/b&gt;&lt;br&gt;Percentage identity: 34%&lt;br&gt;Percentage coverage: 94%&lt;br&gt;BLAST bit score: 300&lt;br&gt;E-value: 1e-93" locus_tag="AO090038000206" id="clusterblast-1_all_25_4_1" points="30,235 35,230 57,230 57,240 35,240 30,235 " class="clusterblast-orf"  />
<polygon style="stroke:black; stroke-width:1; fill:#FFFFFF; " description="[br]Location: 538390 - 539427" locus_tag="AO090038000208" id="clusterblast-1_all_25_4_2" points="160,235 165,230 176,230 176,240 165,240 160,235 " class="clusterblast-orf"  />
<polygon style="stroke:black; stroke-width:1; fill:#FFFFFF; " description="[br]Location: 541424 - 542305" locus_tag="AO090038000209" id="clusterblast-1_all_25_4_3" points="208,235 213,230 222,230 222,240 213,240 208,235 " class="clusterblast-orf"  />
<polygon style="stroke:black; stroke-width:1; fill:#FFFFFF; " description="[br]Location: 549651 - 557990" locus_tag="AO090038000210" id="clusterblast-1_all_25_4_4" points="339,235 344,230 472,230 472,240 344,240 339,235 " class="clusterblast-orf"  />
<polygon style="stroke:black; stroke-width:1; fill:#FFFFFF; " description="[br]Location: 560509 - 561104" locus_tag="AO090038000212" id="clusterblast-1_all_25_4_5" points="512,235 517,230 522,230 522,240 517,240 512,235 " class="clusterblast-orf"  />
<polygon style="stroke:black; stroke-width:1; fill:#FFFFFF; " description="[br]Location: 561878 - 565045" locus_tag="AO090038000213" id="clusterblast-1_all_25_4_6" points="534,240 580,240 585,235 580,230 534,230 534,240 " class="clusterblast-orf"  />
<polygon style="stroke:black; stroke-width:1; fill:#FFFFFF; " description="[br]Location: 565654 - 566806" locus_tag="AO090038000214" id="clusterblast-1_all_25_4_7" points="594,235 599,230 613,230 613,240 599,240 594,235 " class="clusterblast-orf"  />
<polygon style="stroke:black; stroke-width:1; fill:#FFFFFF; " description="[br]Location: 570601 - 571386" locus_tag="AO090038000215" id="clusterblast-1_all_25_4_8" points="673,240 681,240 686,235 681,230 673,230 673,240 " class="clusterblast-orf"  />
<polygon style="stroke:black; stroke-width:1; fill:#FFFFFF; " description="[br]Location: 573204 - 574385" locus_tag="AO090038000218" id="clusterblast-1_all_25_4_9" points="715,240 729,240 734,235 729,230 715,230 715,240 " class="clusterblast-orf"  />
<polygon style="stroke:black; stroke-width:1; fill:#FFFFFF; " description="[br]Location: 575821 - 576247" locus_tag="AO090038000219" id="clusterblast-1_all_25_4_10" points="756,240 758,240 763,235 758,230 756,230 756,240 " class="clusterblast-orf"  />
<polygon style="stroke:black; stroke-width:1; fill:#FFFFFF; " description="[br]Location: 576642 - 577138" locus_tag="AO090038000220" id="clusterblast-1_all_25_4_11" points="770,240 773,240 778,235 773,230 770,230 770,240 " class="clusterblast-orf"  />
</g>
<g class="clusterblast-cluster" description="Glomerella graminicola M1.001 genomic scaffold supercont1.62..." label="GG697392.1_c1"  >
<text class="clusterblast-acc" y="260" x="5"  >
GG697392.1_c1</text>
<text class="clusterblast-desc" y="260" x="460.8"  >
Glomerella graminicola M1.001 genomic scaffold supercont1.62...</text>
<line y1="285" x2="778.0" style="stroke:grey; stroke-width:1; " x1="10" y2="285"  />
<polygon style="stroke:black; stroke-width:1; fill:#FFFFFF; " description="glucan_1,3-beta-glucosidase[br]Location: 96771 - 98051" locus_tag="GLRG_10529" id="clusterblast-1_all_25_5_0" points="44,285 49,280 64,280 64,290 49,290 44,285 " class="clusterblast-orf"  />
<polygon style="stroke:black; stroke-width:1; fill:#FFFFFF; " description="methyltransferase_domain-containing_protein[br]Location: 99144 - 100280" locus_tag="GLRG_10530" id="clusterblast-1_all_25_5_1" points="81,285 86,280 99,280 99,290 86,290 81,285 " class="clusterblast-orf"  />
<polygon style="stroke:black; stroke-width:1; fill:#FFFFFF; " description="hypothetical_protein[br]Location: 100977 - 102140" locus_tag="GLRG_10531" id="clusterblast-1_all_25_5_2" points="111,290 124,290 129,285 124,280 111,280 111,290 " class="clusterblast-orf"  />
<polygon style="stroke:black; stroke-width:1; fill:#FFFFFF; " description="cytochrome_P450_monooxygenase[br]Location: 102406 - 104216" locus_tag="GLRG_10532" id="clusterblast-1_all_25_5_3" points="133,285 138,280 162,280 162,290 138,290 133,285 " class="clusterblast-orf"  />
<polygon style="stroke:black; stroke-width:1; fill:#FFFFFF; " description="2-nitropropane_dioxygenase[br]Location: 104629 - 106128" locus_tag="GLRG_10533" id="clusterblast-1_all_25_5_4" points="169,290 188,290 193,285 188,280 169,280 169,290 " class="clusterblast-orf"  />
<polygon style="stroke:black; stroke-width:1; fill:green; " description="cytochrome_P450[br]Location: 106543 - 108587&lt;br&gt;&lt;br&gt;&lt;b&gt;BlastP hit with CHAFR746836_0093390.1&lt;/b&gt;&lt;br&gt;Percentage identity: 31%&lt;br&gt;Percentage coverage: 97%&lt;br&gt;BLAST bit score: 219&lt;br&gt;E-value: 3e-63" locus_tag="GLRG_10534" id="clusterblast-1_all_25_5_5" points="199,285 204,280 232,280 232,290 204,290 199,285 " class="clusterblast-orf"  />
<polygon style="stroke:black; stroke-width:1; fill:#FFFFFF; " description="hydroxymethylglutaryl-CoA_synthase[br]Location: 109088 - 110679" locus_tag="GLRG_10535" id="clusterblast-1_all_25_5_6" points="240,285 245,280 265,280 265,290 245,290 240,285 " class="clusterblast-orf"  />
<polygon style="stroke:black; stroke-width:1; fill:#FFFFFF; " description="cytochrome_P450_monooxygenase[br]Location: 111184 - 112809" locus_tag="GLRG_10536" id="clusterblast-1_all_25_5_7" points="273,290 294,290 299,285 294,280 273,280 273,290 " class="clusterblast-orf"  />
<polygon style="stroke:black; stroke-width:1; fill:#FFFFFF; " description="beta-ketoacyl_synthase_domain-containing[br]Location: 113355 - 120836" locus_tag="GLRG_10537" id="clusterblast-1_all_25_5_8" points="308,285 313,280 427,280 427,290 313,290 308,285 " class="clusterblast-orf"  />
<polygon style="stroke:black; stroke-width:1; fill:#FFFFFF; " description="major_facilitator_superfamily_transporter[br]Location: 121801 - 123950" locus_tag="GLRG_10538" id="clusterblast-1_all_25_5_9" points="443,285 448,280 477,280 477,290 448,290 443,285 " class="clusterblast-orf"  />
<polygon style="stroke:black; stroke-width:1; fill:#FFFFFF; " description="transferase[br]Location: 124636 - 126051" locus_tag="GLRG_10539" id="clusterblast-1_all_25_5_10" points="488,290 505,290 510,285 505,280 488,280 488,290 " class="clusterblast-orf"  />
<polygon style="stroke:black; stroke-width:1; fill:#FFFFFF; " description="enoyl-CoA_hydratase/isomerase[br]Location: 126184 - 127023" locus_tag="GLRG_10540" id="clusterblast-1_all_25_5_11" points="513,290 521,290 526,285 521,280 513,280 513,290 " class="clusterblast-orf"  />
<polygon style="stroke:black; stroke-width:1; fill:#FFFFFF; " description="hypothetical_protein[br]Location: 129703 - 130257" locus_tag="GLRG_10541" id="clusterblast-1_all_25_5_12" points="569,290 572,290 577,285 572,280 569,280 569,290 " class="clusterblast-orf"  />
<polygon style="stroke:black; stroke-width:1; fill:#FFFFFF; " description="hypothetical_protein[br]Location: 130348 - 131965" locus_tag="GLRG_10542" id="clusterblast-1_all_25_5_13" points="579,285 584,280 605,280 605,290 584,290 579,285 " class="clusterblast-orf"  />
<polygon style="stroke:black; stroke-width:1; fill:#FFFFFF; " description="methyltransferase_domain-containing_protein[br]Location: 132617 - 133270" locus_tag="GLRG_10543" id="clusterblast-1_all_25_5_14" points="615,285 620,280 626,280 626,290 620,290 615,285 " class="clusterblast-orf"  />
<polygon style="stroke:black; stroke-width:1; fill:red; " description="GMC_oxidoreductase[br]Location: 134619 - 136627&lt;br&gt;&lt;br&gt;&lt;b&gt;BlastP hit with CHAFR746836_0093380.1&lt;/b&gt;&lt;br&gt;Percentage identity: 39%&lt;br&gt;Percentage coverage: 98%&lt;br&gt;BLAST bit score: 387&lt;br&gt;E-value: 6e-124" locus_tag="GLRG_10544" id="clusterblast-1_all_25_5_15" points="647,290 674,290 679,285 674,280 647,280 647,290 " class="clusterblast-orf"  />
<polygon style="stroke:black; stroke-width:1; fill:#FFFFFF; " description="FAD_binding_domain-containing_protein[br]Location: 136809 - 138632" locus_tag="GLRG_10545" id="clusterblast-1_all_25_5_16" points="682,285 687,280 711,280 711,290 687,290 682,285 " class="clusterblast-orf"  />
<polygon style="stroke:black; stroke-width:1; fill:#FFFFFF; " description="tat_pathway_signal_sequence[br]Location: 139248 - 140589" locus_tag="GLRG_10546" id="clusterblast-1_all_25_5_17" points="721,290 737,290 742,285 737,280 721,280 721,290 " class="clusterblast-orf"  />
</g>
<g class="clusterblast-cluster" description="Mycosphaerella graminicola IPO323 chromosome 7, whole genome..." label="CM001202.1_c1"  >
<text class="clusterblast-acc" y="310" x="5"  >
CM001202.1_c1</text>
<text class="clusterblast-desc" y="310" x="460.8"  >
Mycosphaerella graminicola IPO323 chromosome 7, whole genome...</text>
<line y1="335" x2="778.0" style="stroke:grey; stroke-width:1; " x1="10" y2="335"  />
<polygon style="stroke:black; stroke-width:1; fill:#FFFFFF; " description="hypothetical_protein[br]Location: 2561490 - 2562458" locus_tag="MYCGRDRAFT_110300" id="clusterblast-1_all_25_6_0" points="749,340 759,340 764,335 759,330 749,330 749,340 " class="clusterblast-orf"  />
<polygon style="stroke:black; stroke-width:1; fill:#FFFFFF; " description="hypothetical_protein[br]Location: 2566511 - 2567380" locus_tag="MYCGRDRAFT_110301" id="clusterblast-1_all_25_6_1" points="671,335 676,330 685,330 685,340 676,340 671,335 " class="clusterblast-orf"  />
<polygon style="stroke:black; stroke-width:1; fill:red; " description="hypothetical_protein[br]Location: 2571494 - 2574930&lt;br&gt;&lt;br&gt;&lt;b&gt;BlastP hit with CHAFR746836_0093380.1&lt;/b&gt;&lt;br&gt;Percentage identity: 38%&lt;br&gt;Percentage coverage: 97%&lt;br&gt;BLAST bit score: 360&lt;br&gt;E-value: 2e-114" locus_tag="MYCGRDRAFT_100850" id="clusterblast-1_all_25_6_2" points="551,335 556,330 605,330 605,340 556,340 551,335 " class="clusterblast-orf"  />
<polygon style="stroke:black; stroke-width:1; fill:#FFFFFF; " description="hypothetical_protein[br]Location: 2575718 - 2576723" locus_tag="MYCGRDRAFT_16430" id="clusterblast-1_all_25_6_3" points="522,335 527,330 538,330 538,340 527,340 522,335 " class="clusterblast-orf"  />
<polygon style="stroke:black; stroke-width:1; fill:#FFFFFF; " description="hypothetical_protein[br]Location: 2577096 - 2579147" locus_tag="MYCGRDRAFT_45489" id="clusterblast-1_all_25_6_4" points="483,340 511,340 516,335 511,330 483,330 483,340 " class="clusterblast-orf"  />
<polygon style="stroke:black; stroke-width:1; fill:#FFFFFF; " description="polyketide_synthase[br]Location: 2581920 - 2589469" locus_tag="MYCGRDRAFT_45348" id="clusterblast-1_all_25_6_5" points="319,340 434,340 439,335 434,330 319,330 319,340 " class="clusterblast-orf"  />
<polygon style="stroke:black; stroke-width:1; fill:#FFFFFF; " description="hypothetical_protein[br]Location: 2590017 - 2591228" locus_tag="MYCGRDRAFT_45256" id="clusterblast-1_all_25_6_6" points="291,335 296,330 310,330 310,340 296,340 291,335 " class="clusterblast-orf"  />
<polygon style="stroke:black; stroke-width:1; fill:#FFFFFF; " description="hypothetical_protein[br]Location: 2591337 - 2592281" locus_tag="MYCGRDRAFT_45561" id="clusterblast-1_all_25_6_7" points="274,340 284,340 289,335 284,330 274,330 274,340 " class="clusterblast-orf"  />
<polygon style="stroke:black; stroke-width:1; fill:#FFFFFF; " description="hypothetical_protein[br]Location: 2592693 - 2594087" locus_tag="MYCGRDRAFT_45185" id="clusterblast-1_all_25_6_8" points="245,340 262,340 267,335 262,330 245,330 245,340 " class="clusterblast-orf"  />
<polygon style="stroke:black; stroke-width:1; fill:#FFFFFF; " description="ABC_transporter[br]Location: 2597608 - 2601755" locus_tag="MYCGRDRAFT_100851" id="clusterblast-1_all_25_6_9" points="123,335 128,330 189,330 189,340 128,340 123,335 " class="clusterblast-orf"  />
<polygon style="stroke:black; stroke-width:1; fill:green; " description="putative_P450_monooxygenase[br]Location: 2603448 - 2605040&lt;br&gt;&lt;br&gt;&lt;b&gt;BlastP hit with CHAFR746836_0093390.1&lt;/b&gt;&lt;br&gt;Percentage identity: 32%&lt;br&gt;Percentage coverage: 95%&lt;br&gt;BLAST bit score: 235&lt;br&gt;E-value: 9e-69" locus_tag="MYCGRDRAFT_45271" id="clusterblast-1_all_25_6_10" points="70,335 75,330 96,330 96,340 75,340 70,335 " class="clusterblast-orf"  />
<polygon style="stroke:black; stroke-width:1; fill:#FFFFFF; " description="hypothetical_protein[br]Location: 2605773 - 2606813" locus_tag="MYCGRDRAFT_44943" id="clusterblast-1_all_25_6_11" points="42,340 54,340 59,335 54,330 42,330 42,340 " class="clusterblast-orf"  />
<polygon style="stroke:black; stroke-width:1; fill:#FFFFFF; " description="hypothetical_protein[br]Location: 2607080 - 2608068" locus_tag="MYCGRDRAFT_44980" id="clusterblast-1_all_25_6_12" points="22,340 33,340 38,335 33,330 22,330 22,340 " class="clusterblast-orf"  />
</g>
</svg>
