<svg xmlns="http://www.w3.org/2000/svg" height="230" width="800" version="1.1" y="0" x="0" preserveAspectRatio="none" xmlns:xlink="http://www.w3.org/1999/xlink" viewBox="0 0 800 230"  >
<g class="clusterblast-cluster" label="Query sequence"  >
<text class="clusterblast-acc" y="10" x="5"  >
Query sequence</text>
<line y1="35" x2="778.0" style="stroke:grey; stroke-width:1; " x1="10" y2="35"  />
<polygon style="stroke:black; stroke-width:1; fill:#FFFFFF; " description="unannotated orf[br]Location: 7918 - 9403" locus_tag="CHAFR746836_0043710.1" class="clusterblast-orf" points="10,40 39,40 44,35 39,30 10,30 10,40 " id="clusterblast-1_q54_6_0"  />
<polygon style="stroke:black; stroke-width:1; fill:rgb(169,42,42); " description="unannotated orf[br]Location: 10656 - 11541" locus_tag="CHAFR746836_0043720.1" class="clusterblast-orf" points="74,35 79,30 95,30 95,40 79,40 74,35 " id="clusterblast-1_q54_6_1"  />
<polygon style="stroke:black; stroke-width:1; fill:rgb(42,169,42); " description="unannotated orf[br]Location: 13140 - 14726" locus_tag="CHAFR746836_0043730.1" class="clusterblast-orf" points="132,40 165,40 170,35 165,30 132,30 132,40 " id="clusterblast-1_q54_6_2"  />
<polygon style="stroke:black; stroke-width:1; fill:#FFFFFF; " description="unannotated orf[br]Location: 14976 - 15545" locus_tag="CHAFR746836_0043740.1" class="clusterblast-orf" points="176,35 181,30 189,30 189,40 181,40 176,35 " id="clusterblast-1_q54_6_3"  />
<polygon style="stroke:black; stroke-width:1; fill:rgb(42,169,212); " description="unannotated orf[br]Location: 16433 - 17294" locus_tag="CHAFR746836_0043750.1" class="clusterblast-orf" points="210,40 225,40 230,35 225,30 210,30 210,40 " id="clusterblast-1_q54_6_4"  />
<polygon style="stroke:black; stroke-width:1; fill:rgb(169,169,42); " description="unannotated orf[br]Location: 17728 - 18694" locus_tag="CHAFR746836_0043760.1" class="clusterblast-orf" points="241,40 258,40 263,35 258,30 241,30 241,40 " id="clusterblast-1_q54_6_5"  />
<polygon style="stroke:black; stroke-width:1; fill:#FFFFFF; " description="unannotated orf[br]Location: 19149 - 19718" locus_tag="CHAFR746836_0043770.1" class="clusterblast-orf" points="274,35 279,30 287,30 287,40 279,40 274,35 " id="clusterblast-1_q54_6_6"  />
<polygon style="stroke:black; stroke-width:1; fill:rgb(169,42,127); " description="unannotated orf[br]Location: 20132 - 21930" locus_tag="CHAFR746836_0043780.1" class="clusterblast-orf" points="297,40 334,40 339,35 334,30 297,30 297,40 " id="clusterblast-1_q54_6_7"  />
<polygon style="stroke:black; stroke-width:1; fill:#FFFFFF; " description="unannotated orf[br]Location: 22653 - 24219" locus_tag="CHAFR746836_0043790.1" class="clusterblast-orf" points="357,35 362,30 393,30 393,40 362,40 357,35 " id="clusterblast-1_q54_6_8"  />
<polygon style="stroke:black; stroke-width:1; fill:rgb(42,42,212); " description="unannotated orf[br]Location: 25134 - 26929" locus_tag="CHAFR746836_0043800.1" class="clusterblast-orf" points="415,40 452,40 457,35 452,30 415,30 415,40 " id="clusterblast-1_q54_6_9"  />
<polygon style="stroke:black; stroke-width:1; fill:rgb(169,169,212); " description="unannotated orf[br]Location: 28053 - 29459" locus_tag="CHAFR746836_0043810.1" class="clusterblast-orf" points="484,40 512,40 517,35 512,30 484,30 484,40 " id="clusterblast-1_q54_6_10"  />
<polygon style="stroke:black; stroke-width:1; fill:#FFFFFF; " description="unannotated orf[br]Location: 30463 - 31516" locus_tag="CHAFR746836_0043820.1" class="clusterblast-orf" points="540,35 545,30 565,30 565,40 545,40 540,35 " id="clusterblast-1_q54_6_11"  />
<polygon style="stroke:black; stroke-width:1; fill:rgb(42,169,127); " description="unannotated orf[br]Location: 32618 - 34109" locus_tag="CHAFR746836_0043830.1" class="clusterblast-orf" points="591,35 596,30 626,30 626,40 596,40 591,35 " id="clusterblast-1_q54_6_12"  />
<polygon style="stroke:black; stroke-width:1; fill:rgb(169,42,212); " description="unannotated orf[br]Location: 37073 - 38965" locus_tag="CHAFR746836_0043840.1" class="clusterblast-orf" points="696,35 701,30 741,30 741,40 701,40 696,35 " id="clusterblast-1_q54_6_13"  />
<polygon style="stroke:black; stroke-width:1; fill:#FFFFFF; " description="unannotated orf[br]Location: 39447 - 40529" locus_tag="CHAFR746836_0043850.1" class="clusterblast-orf" points="752,40 773,40 778,35 773,30 752,30 752,40 " id="clusterblast-1_q54_6_14"  />
</g>
<g class="clusterblast-cluster" description="Exophiala dermatitidis NIH/UT8656 unplaced genomic scaffold ..." label="JH226131.1_c2"  >
<text class="clusterblast-acc" y="60" x="5"  >
JH226131.1_c2</text>
<text class="clusterblast-desc" y="60" x="460.8"  >
Exophiala dermatitidis NIH/UT8656 unplaced genomic scaffold ...</text>
<line y1="85" x2="778.0" style="stroke:grey; stroke-width:1; " x1="10" y2="85"  />
<polygon style="stroke:black; stroke-width:1; fill:#FFFFFF; " description="nonribosomal_peptide_synthase_GliP[br]Location: 4214608 - 4218970" locus_tag="HMPREF1120_02993" id="clusterblast-1_h54_6_0" points="111,85 116,80 213,80 213,90 116,90 111,85 " class="clusterblast-orf"  />
<polygon style="stroke:black; stroke-width:1; fill:#FFFFFF; " description="hypothetical_protein[br]Location: 4213481 - 4214063" locus_tag="HMPREF1120_02992" id="clusterblast-1_h54_6_1" points="226,85 231,80 240,80 240,90 231,90 226,85 " class="clusterblast-orf"  />
<polygon style="stroke:black; stroke-width:1; fill:rgb(169,42,212); " description="cytochrome_P450_monooxygenase[br]Location: 4211464 - 4213152&lt;br&gt;&lt;br&gt;&lt;b&gt;BlastP hit with CHAFR746836_0043840.1&lt;/b&gt;&lt;br&gt;Percentage identity: 31%&lt;br&gt;Percentage coverage: 72%&lt;br&gt;BLAST bit score: 171&lt;br&gt;E-value: 2e-45" locus_tag="HMPREF1120_02991" id="clusterblast-1_h54_6_2" points="248,85 253,80 287,80 287,90 253,90 248,85 " class="clusterblast-orf"  />
<polygon style="stroke:black; stroke-width:1; fill:#FFFFFF; " description="glutathione_S-transferase[br]Location: 4210265 - 4211164" locus_tag="HMPREF1120_02990" id="clusterblast-1_h54_6_3" points="294,85 299,80 316,80 316,90 299,90 294,85 " class="clusterblast-orf"  />
<polygon style="stroke:black; stroke-width:1; fill:#FFFFFF; " description="O-methyltransferase_GliM-like_protein[br]Location: 4208703 - 4210037" locus_tag="HMPREF1120_02989" id="clusterblast-1_h54_6_4" points="321,85 326,80 352,80 352,90 326,90 321,85 " class="clusterblast-orf"  />
<polygon style="stroke:black; stroke-width:1; fill:#FFFFFF; " description="1-aminocyclopropane-1-carboxylate_synthase[br]Location: 4207081 - 4208547" locus_tag="HMPREF1120_02988" id="clusterblast-1_h54_6_5" points="356,85 361,80 390,80 390,90 361,90 356,85 " class="clusterblast-orf"  />
<polygon style="stroke:black; stroke-width:1; fill:#FFFFFF; " description="hypothetical_protein[br]Location: 4206001 - 4206876" locus_tag="HMPREF1120_02987" id="clusterblast-1_h54_6_6" points="395,90 411,90 416,85 411,80 395,80 395,90 " class="clusterblast-orf"  />
<polygon style="stroke:black; stroke-width:1; fill:#FFFFFF; " description="membrane_dipeptidase[br]Location: 4204365 - 4205859" locus_tag="HMPREF1120_02986" id="clusterblast-1_h54_6_7" points="419,90 449,90 454,85 449,80 419,80 419,90 " class="clusterblast-orf"  />
<polygon style="stroke:black; stroke-width:1; fill:#FFFFFF; " description="DNA_repair_protein_RAD50[br]Location: 4202152 - 4204035" locus_tag="HMPREF1120_02985" id="clusterblast-1_h54_6_8" points="462,90 502,90 507,85 502,80 462,80 462,90 " class="clusterblast-orf"  />
<polygon style="stroke:black; stroke-width:1; fill:#FFFFFF; " description="long-chain_fatty-acid-CoA_ligase[br]Location: 4199351 - 4201409" locus_tag="HMPREF1120_02984" id="clusterblast-1_h54_6_9" points="524,85 529,80 573,80 573,90 529,90 524,85 " class="clusterblast-orf"  />
<polygon style="stroke:black; stroke-width:1; fill:#FFFFFF; " description="hypothetical_protein[br]Location: 4197798 - 4198790" locus_tag="HMPREF1120_02983" id="clusterblast-1_h54_6_10" points="586,90 604,90 609,85 604,80 586,80 586,90 " class="clusterblast-orf"  />
<polygon style="stroke:black; stroke-width:1; fill:#FFFFFF; " description="hypothetical_protein,_variant[br]Location: 4196952 - 4197179" locus_tag="HMPREF1120_02982" id="clusterblast-1_h54_6_11" points="624,90 624,90 629,85 624,80 624,80 624,90 " class="clusterblast-orf"  />
<polygon style="stroke:black; stroke-width:1; fill:#FFFFFF; " description="hypothetical_protein,_variant[br]Location: 4196952 - 4197179" locus_tag="HMPREF1120_02982" id="clusterblast-1_h54_6_12" points="624,90 624,90 629,85 624,80 624,80 624,90 " class="clusterblast-orf"  />
<polygon style="stroke:black; stroke-width:1; fill:rgb(42,169,127); " description="hypothetical_protein[br]Location: 4194997 - 4196472&lt;br&gt;&lt;br&gt;&lt;b&gt;BlastP hit with CHAFR746836_0043830.1&lt;/b&gt;&lt;br&gt;Percentage identity: 72%&lt;br&gt;Percentage coverage: 97%&lt;br&gt;BLAST bit score: 723&lt;br&gt;E-value: 0.0" locus_tag="HMPREF1120_02981" id="clusterblast-1_h54_6_13" points="640,85 645,80 675,80 675,90 645,90 640,85 " class="clusterblast-orf"  />
</g>
</svg>
