<svg xmlns="http://www.w3.org/2000/svg" height="230" width="800" version="1.1" y="0" x="0" preserveAspectRatio="none" xmlns:xlink="http://www.w3.org/1999/xlink" viewBox="0 0 800 230"  >
<g class="clusterblast-cluster" label="Query sequence"  >
<text class="clusterblast-acc" y="10" x="5"  >
Query sequence</text>
<line y1="35" x2="778.0" style="stroke:grey; stroke-width:1; " x1="10" y2="35"  />
<polygon style="stroke:black; stroke-width:1; fill:rgb(190,63,63); " description="unannotated orf[br]Location: 272 - 1577" locus_tag="CHAFR746836_0058790.1" class="clusterblast-orf" points="10,40 16,40 21,35 16,30 10,30 10,40 " id="clusterblast-1_q3_6_0"  />
<polygon style="stroke:black; stroke-width:1; fill:#FFFFFF; " description="unannotated orf[br]Location: 1879 - 3966" locus_tag="CHAFR746836_0058800.1" class="clusterblast-orf" points="23,35 28,30 41,30 41,40 28,40 23,35 " id="clusterblast-1_q3_6_1"  />
<polygon style="stroke:black; stroke-width:1; fill:rgb(63,63,190); " description="unannotated orf[br]Location: 20578 - 22096" locus_tag="CHAFR746836_0058810.1" class="clusterblast-orf" points="182,35 187,30 195,30 195,40 187,40 182,35 " id="clusterblast-1_q3_6_2"  />
<polygon style="stroke:black; stroke-width:1; fill:rgb(63,190,63); " description="unannotated orf[br]Location: 25478 - 26482" locus_tag="CHAFR746836_0058820.1" class="clusterblast-orf" points="224,40 227,40 232,35 227,30 224,30 224,40 " id="clusterblast-1_q3_6_3"  />
<polygon style="stroke:black; stroke-width:1; fill:#FFFFFF; " description="unannotated orf[br]Location: 45229 - 46910" locus_tag="CHAFR746836_0058830.1" class="clusterblast-orf" points="392,40 401,40 406,35 401,30 392,30 392,40 " id="clusterblast-1_q3_6_4"  />
<polygon style="stroke:black; stroke-width:1; fill:#FFFFFF; " description="unannotated orf[br]Location: 51364 - 52222" locus_tag="CHAFR746836_0058840.1" class="clusterblast-orf" points="444,35 449,30 451,30 451,40 449,40 444,35 " id="clusterblast-1_q3_6_5"  />
<polygon style="stroke:black; stroke-width:1; fill:#FFFFFF; " description="unannotated orf[br]Location: 53027 - 54066" locus_tag="CHAFR746836_0058850.1" class="clusterblast-orf" points="458,40 462,40 467,35 462,30 458,30 458,40 " id="clusterblast-1_q3_6_6"  />
<polygon style="stroke:black; stroke-width:1; fill:rgb(190,63,190); " description="unannotated orf[br]Location: 55805 - 57189" locus_tag="CHAFR746836_0058860.1" class="clusterblast-orf" points="482,35 487,30 494,30 494,40 487,40 482,35 " id="clusterblast-1_q3_6_7"  />
<polygon style="stroke:black; stroke-width:1; fill:rgb(190,190,63); " description="unannotated orf[br]Location: 62252 - 71057" locus_tag="CHAFR746836_0058870.1" class="clusterblast-orf" points="537,40 607,40 612,35 607,30 537,30 537,40 " id="clusterblast-1_q3_6_8"  />
<polygon style="stroke:black; stroke-width:1; fill:#FFFFFF; " description="unannotated orf[br]Location: 72245 - 73215" locus_tag="CHAFR746836_0058880.1" class="clusterblast-orf" points="622,35 627,30 630,30 630,40 627,40 622,35 " id="clusterblast-1_q3_6_9"  />
<polygon style="stroke:black; stroke-width:1; fill:#FFFFFF; " description="unannotated orf[br]Location: 78567 - 79753" locus_tag="CHAFR746836_0058890.1" class="clusterblast-orf" points="675,35 680,30 686,30 686,40 680,40 675,35 " id="clusterblast-1_q3_6_10"  />
<polygon style="stroke:black; stroke-width:1; fill:#FFFFFF; " description="unannotated orf[br]Location: 89948 - 90559" locus_tag="CHAFR746836_0058900.1" class="clusterblast-orf" points="772,40 773,40 778,35 773,30 772,30 772,40 " id="clusterblast-1_q3_6_11"  />
</g>
<g class="clusterblast-cluster" description="Aspergillus fumigatus A1163 scf 000003 genomic scaffold, who..." label="DS499596.1_c2"  >
<text class="clusterblast-acc" y="60" x="5"  >
DS499596.1_c2</text>
<text class="clusterblast-desc" y="60" x="460.8"  >
Aspergillus fumigatus A1163 scf 000003 genomic scaffold, who...</text>
<line y1="85" x2="778.0" style="stroke:grey; stroke-width:1; " x1="10" y2="85"  />
<polygon style="stroke:black; stroke-width:1; fill:#FFFFFF; " description="extracellular_endo-1,5-alpha-L-arabinase,[br]Location: 185736 - 186968" locus_tag="AFUB_034610" id="clusterblast-1_h3_6_0" points="187,90 192,90 197,85 192,80 187,80 187,90 " class="clusterblast-orf"  />
<polygon style="stroke:black; stroke-width:1; fill:#FFFFFF; " description="extracellular_dioxygenase,_putative[br]Location: 182574 - 183677" locus_tag="AFUB_034600" id="clusterblast-1_h3_6_1" points="214,90 219,90 224,85 219,80 214,80 214,90 " class="clusterblast-orf"  />
<polygon style="stroke:black; stroke-width:1; fill:#FFFFFF; " description="C4-dicarboxylate_transporter/malic_acid[br]Location: 180788 - 182016" locus_tag="AFUB_034590" id="clusterblast-1_h3_6_2" points="229,90 234,90 239,85 234,80 229,80 229,90 " class="clusterblast-orf"  />
<polygon style="stroke:black; stroke-width:1; fill:#FFFFFF; " description="LipA_and_NB-ARC_domain_protein[br]Location: 177998 - 180076" locus_tag="AFUB_034580" id="clusterblast-1_h3_6_3" points="245,90 258,90 263,85 258,80 245,80 245,90 " class="clusterblast-orf"  />
<polygon style="stroke:black; stroke-width:1; fill:#FFFFFF; " description="conserved_hypothetical_protein[br]Location: 177584 - 177858" locus_tag="AFUB_034570" id="clusterblast-1_h3_6_4" points="264,85 266,80 266,90 264,85 " class="clusterblast-orf"  />
<polygon style="stroke:black; stroke-width:1; fill:#FFFFFF; " description="hypothetical_protein[br]Location: 173226 - 173691" locus_tag="AFUB_034560" id="clusterblast-1_h3_6_5" points="299,90 303,85 299,80 299,90 " class="clusterblast-orf"  />
<polygon style="stroke:black; stroke-width:1; fill:#FFFFFF; " description="MFS_transporter,_putative[br]Location: 170560 - 172160" locus_tag="AFUB_034550" id="clusterblast-1_h3_6_6" points="312,90 321,90 326,85 321,80 312,80 312,90 " class="clusterblast-orf"  />
<polygon style="stroke:black; stroke-width:1; fill:#FFFFFF; " description="lysophospholipase_Plb3[br]Location: 168256 - 170148" locus_tag="AFUB_034540" id="clusterblast-1_h3_6_7" points="330,90 341,90 346,85 341,80 330,80 330,90 " class="clusterblast-orf"  />
<polygon style="stroke:black; stroke-width:1; fill:rgb(63,63,190); " description="aminotransferase,_putative[br]Location: 166463 - 167998&lt;br&gt;&lt;br&gt;&lt;b&gt;BlastP hit with CHAFR746836_0058810.1&lt;/b&gt;&lt;br&gt;Percentage identity: 47%&lt;br&gt;Percentage coverage: 96%&lt;br&gt;BLAST bit score: 443&lt;br&gt;E-value: 3e-150" locus_tag="AFUB_034530" id="clusterblast-1_h3_6_8" points="348,85 353,80 361,80 361,90 353,90 348,85 " class="clusterblast-orf"  />
<polygon style="stroke:black; stroke-width:1; fill:rgb(190,190,63); " description="polyketide_synthase,_putative[br]Location: 158409 - 166143&lt;br&gt;&lt;br&gt;&lt;b&gt;BlastP hit with CHAFR746836_0058870.1&lt;/b&gt;&lt;br&gt;Percentage identity: 42%&lt;br&gt;Percentage coverage: 103%&lt;br&gt;BLAST bit score: 1966&lt;br&gt;E-value: 0.0" locus_tag="AFUB_034520" id="clusterblast-1_h3_6_9" points="364,90 424,90 429,85 424,80 364,80 364,90 " class="clusterblast-orf"  />
<polygon style="stroke:black; stroke-width:1; fill:#FFFFFF; " description="toxin_biosynthesis_proten_(Fum3),_putative[br]Location: 156741 - 157832" locus_tag="AFUB_034510" id="clusterblast-1_h3_6_10" points="434,90 439,90 444,85 439,80 434,80 434,90 " class="clusterblast-orf"  />
<polygon style="stroke:black; stroke-width:1; fill:rgb(190,63,63); " description="MFS_transporter,_putative[br]Location: 154865 - 156666&lt;br&gt;&lt;br&gt;&lt;b&gt;BlastP hit with CHAFR746836_0058790.1&lt;/b&gt;&lt;br&gt;Percentage identity: 43%&lt;br&gt;Percentage coverage: 100%&lt;br&gt;BLAST bit score: 350&lt;br&gt;E-value: 5e-113" locus_tag="AFUB_034500" id="clusterblast-1_h3_6_11" points="444,85 449,80 460,80 460,90 449,90 444,85 " class="clusterblast-orf"  />
<polygon style="stroke:black; stroke-width:1; fill:#FFFFFF; " description="LysR_family_regulatory_protein,_putative[br]Location: 152710 - 154257" locus_tag="AFUB_034490" id="clusterblast-1_h3_6_12" points="465,90 473,90 478,85 473,80 465,80 465,90 " class="clusterblast-orf"  />
<polygon style="stroke:black; stroke-width:1; fill:#FFFFFF; " description="conserved_hypothetical_protein[br]Location: 151084 - 152589" locus_tag="AFUB_034480" id="clusterblast-1_h3_6_13" points="479,85 484,80 492,80 492,90 484,90 479,85 " class="clusterblast-orf"  />
<polygon style="stroke:black; stroke-width:1; fill:#FFFFFF; " description="fungal_specific_transcription_factor,_putative[br]Location: 146878 - 149718" locus_tag="AFUB_034470" id="clusterblast-1_h3_6_14" points="503,90 523,90 528,85 523,80 503,80 503,90 " class="clusterblast-orf"  />
<polygon style="stroke:black; stroke-width:1; fill:#FFFFFF; " description="cytochrome_P450_monooxygenase_(Fum15),_putative[br]Location: 144725 - 146477" locus_tag="AFUB_034460" id="clusterblast-1_h3_6_15" points="531,90 541,90 546,85 541,80 531,80 531,90 " class="clusterblast-orf"  />
<polygon style="stroke:black; stroke-width:1; fill:#FFFFFF; " description="reductase,_putative[br]Location: 143203 - 144261" locus_tag="AFUB_034450" id="clusterblast-1_h3_6_16" points="550,90 554,90 559,85 554,80 550,80 550,90 " class="clusterblast-orf"  />
<polygon style="stroke:black; stroke-width:1; fill:#FFFFFF; " description="pentafunctional_AROM_polypeptide,_putative[br]Location: 141885 - 142748" locus_tag="AFUB_034440" id="clusterblast-1_h3_6_17" points="563,85 568,80 570,80 570,90 568,90 563,85 " class="clusterblast-orf"  />
<polygon style="stroke:black; stroke-width:1; fill:#FFFFFF; " description="shikimate_5-dehydrogenase,_putative[br]Location: 140427 - 141458" locus_tag="AFUB_034430" id="clusterblast-1_h3_6_18" points="574,90 577,90 582,85 577,80 574,80 574,90 " class="clusterblast-orf"  />
<polygon style="stroke:black; stroke-width:1; fill:#FFFFFF; " description="pathogenesis_associated_protein_Pep2,_putative[br]Location: 139586 - 140333" locus_tag="AFUB_034420" id="clusterblast-1_h3_6_19" points="583,90 585,90 590,85 585,80 583,80 583,90 " class="clusterblast-orf"  />
<polygon style="stroke:black; stroke-width:1; fill:#FFFFFF; " description="4-hydroxyphenylpyruvate_dioxygenase,_putative[br]Location: 138521 - 139540" locus_tag="AFUB_034410" id="clusterblast-1_h3_6_20" points="590,85 595,80 599,80 599,90 595,90 590,85 " class="clusterblast-orf"  />
</g>
</svg>
