<svg xmlns="http://www.w3.org/2000/svg" height="230" width="800" version="1.1" y="0" x="0" preserveAspectRatio="none" xmlns:xlink="http://www.w3.org/1999/xlink" viewBox="0 0 800 230"  >
<g class="clusterblast-cluster" label="Query sequence"  >
<text class="clusterblast-acc" y="10" x="5"  >
Query sequence</text>
<line y1="35" x2="778.0" style="stroke:grey; stroke-width:1; " x1="10" y2="35"  />
<polygon style="stroke:black; stroke-width:1; fill:#FFFFFF; " description="unannotated orf[br]Location: 5400 - 7279" locus_tag="CHAFR746836_0015100.1" class="clusterblast-orf" points="10,35 15,30 38,30 38,40 15,40 10,35 " id="clusterblast-1_q34_8_0"  />
<polygon style="stroke:black; stroke-width:1; fill:#FFFFFF; " description="unannotated orf[br]Location: 13745 - 15770" locus_tag="CHAFR746836_0015110.1" class="clusterblast-orf" points="138,40 164,40 169,35 164,30 138,30 138,40 " id="clusterblast-1_q34_8_1"  />
<polygon style="stroke:black; stroke-width:1; fill:red; " description="unannotated orf[br]Location: 17291 - 22939" locus_tag="CHAFR746836_0015120.1" class="clusterblast-orf" points="193,35 198,30 280,30 280,40 198,40 193,35 " id="clusterblast-1_q34_8_2"  />
<polygon style="stroke:black; stroke-width:1; fill:green; " description="unannotated orf[br]Location: 27044 - 51976" locus_tag="CHAFR746836_0015130.1" class="clusterblast-orf" points="343,40 723,40 728,35 723,30 343,30 343,40 " id="clusterblast-1_q34_8_3"  />
<polygon style="stroke:black; stroke-width:1; fill:#FFFFFF; " description="unannotated orf[br]Location: 53293 - 55207" locus_tag="CHAFR746836_0015140.1" class="clusterblast-orf" points="748,35 753,30 778,30 778,40 753,40 748,35 " id="clusterblast-1_q34_8_4"  />
</g>
<g class="clusterblast-cluster" description="Aspergillus kawachii IFO 4308 DNA, contig: scaffold00026, wh..." label="DF126472.1_c3"  >
<text class="clusterblast-acc" y="60" x="5"  >
DF126472.1_c3</text>
<text class="clusterblast-desc" y="60" x="460.8"  >
Aspergillus kawachii IFO 4308 DNA, contig: scaffold00026, wh...</text>
<line y1="85" x2="778.0" style="stroke:grey; stroke-width:1; " x1="10" y2="85"  />
<polygon style="stroke:black; stroke-width:1; fill:#FFFFFF; " description="NAD_dependent_epimerase/dehydratase[br]Location: 184661 - 185924" locus_tag="AKAW_08297" id="clusterblast-1_h34_8_0" points="11,85 16,80 30,80 30,90 16,90 11,85 " class="clusterblast-orf"  />
<polygon style="stroke:black; stroke-width:1; fill:#FFFFFF; " description="capsule_polysaccharide_biosynthesis_protein[br]Location: 188943 - 189845" locus_tag="AKAW_08298" id="clusterblast-1_h34_8_1" points="77,90 85,90 90,85 85,80 77,80 77,90 " class="clusterblast-orf"  />
<polygon style="stroke:black; stroke-width:1; fill:#FFFFFF; " description="malonyl_CoA-acyl_carrier_protein_transacylase[br]Location: 190244 - 196721" locus_tag="AKAW_08299" id="clusterblast-1_h34_8_2" points="97,85 102,80 196,80 196,90 102,90 97,85 " class="clusterblast-orf"  />
<polygon style="stroke:black; stroke-width:1; fill:#FFFFFF; " description="glutathione_S-transferase[br]Location: 198104 - 198991" locus_tag="AKAW_08300" id="clusterblast-1_h34_8_3" points="218,85 223,80 231,80 231,90 223,90 218,85 " class="clusterblast-orf"  />
<polygon style="stroke:black; stroke-width:1; fill:red; " description="multidrug_resistance_protein[br]Location: 199436 - 204624&lt;br&gt;&lt;br&gt;&lt;b&gt;BlastP hit with CHAFR746836_0015120.1&lt;/b&gt;&lt;br&gt;Percentage identity: 37%&lt;br&gt;Percentage coverage: 99%&lt;br&gt;BLAST bit score: 1011&lt;br&gt;E-value: 0.0" locus_tag="AKAW_08301" id="clusterblast-1_h34_8_4" points="238,85 243,80 318,80 318,90 243,90 238,85 " class="clusterblast-orf"  />
<polygon style="stroke:black; stroke-width:1; fill:green; " description="nonribosomal_peptide_synthase[br]Location: 205524 - 214045&lt;br&gt;&lt;br&gt;&lt;b&gt;BlastP hit with CHAFR746836_0015130.1&lt;/b&gt;&lt;br&gt;Percentage identity: 32%&lt;br&gt;Percentage coverage: 32%&lt;br&gt;BLAST bit score: 1237&lt;br&gt;E-value: 0.0" locus_tag="AKAW_08302" id="clusterblast-1_h34_8_5" points="332,90 459,90 464,85 459,80 332,80 332,90 " class="clusterblast-orf"  />
<polygon style="stroke:black; stroke-width:1; fill:#FFFFFF; " description="sphingoid_long-chain_base_transporter[br]Location: 215558 - 216647" locus_tag="AKAW_08303" id="clusterblast-1_h34_8_6" points="487,90 499,90 504,85 499,80 487,80 487,90 " class="clusterblast-orf"  />
<polygon style="stroke:black; stroke-width:1; fill:#FFFFFF; " description="similar_to_An09g01670[br]Location: 216998 - 217855" locus_tag="AKAW_08304" id="clusterblast-1_h34_8_7" points="509,85 514,80 522,80 522,90 514,90 509,85 " class="clusterblast-orf"  />
<polygon style="stroke:black; stroke-width:1; fill:#FFFFFF; " description="hypothetical_protein[br]Location: 218279 - 218604" locus_tag="AKAW_08305" id="clusterblast-1_h34_8_8" points="529,85 534,80 534,80 534,90 534,90 529,85 " class="clusterblast-orf"  />
<polygon style="stroke:black; stroke-width:1; fill:#FFFFFF; " description="MFS_multidrug_transporter[br]Location: 218985 - 220894" locus_tag="AKAW_08306" id="clusterblast-1_h34_8_9" points="540,85 545,80 569,80 569,90 545,90 540,85 " class="clusterblast-orf"  />
<polygon style="stroke:black; stroke-width:1; fill:#FFFFFF; " description="histidine_acid_phosphatase[br]Location: 222167 - 223712" locus_tag="AKAW_08307" id="clusterblast-1_h34_8_10" points="589,85 594,80 613,80 613,90 594,90 589,85 " class="clusterblast-orf"  />
<polygon style="stroke:black; stroke-width:1; fill:#FFFFFF; " description="similar_to_An09g01620[br]Location: 224191 - 227255" locus_tag="AKAW_08308" id="clusterblast-1_h34_8_11" points="620,90 662,90 667,85 662,80 620,80 620,90 " class="clusterblast-orf"  />
<polygon style="stroke:black; stroke-width:1; fill:#FFFFFF; " description="UbiA_prenyltransferase_family_protein[br]Location: 227417 - 230345" locus_tag="AKAW_08309" id="clusterblast-1_h34_8_12" points="670,85 675,80 715,80 715,90 675,90 670,85 " class="clusterblast-orf"  />
<polygon style="stroke:black; stroke-width:1; fill:#FFFFFF; " description="kelch_repeat_protein[br]Location: 232210 - 234268" locus_tag="AKAW_08310" id="clusterblast-1_h34_8_13" points="744,90 770,90 775,85 770,80 744,80 744,90 " class="clusterblast-orf"  />
</g>
</svg>
