<svg xmlns="http://www.w3.org/2000/svg" height="230" width="800" version="1.1" y="0" x="0" preserveAspectRatio="none" xmlns:xlink="http://www.w3.org/1999/xlink" viewBox="0 0 800 230"  >
<g class="clusterblast-cluster" label="Query sequence"  >
<text class="clusterblast-acc" y="10" x="5"  >
Query sequence</text>
<line y1="35" x2="778.0" style="stroke:grey; stroke-width:1; " x1="10" y2="35"  />
<polygon style="stroke:black; stroke-width:1; fill:#FFFFFF; " description="unannotated orf[br]Location: 690 - 1709" locus_tag="CHAFR746836_0063040.1" class="clusterblast-orf" points="10,35 15,30 29,30 29,40 15,40 10,35 " id="clusterblast-1_q6_5_0"  />
<polygon style="stroke:black; stroke-width:1; fill:red; " description="unannotated orf[br]Location: 3270 - 4522" locus_tag="CHAFR746836_0063050.1" class="clusterblast-orf" points="60,35 65,30 84,30 84,40 65,40 60,35 " id="clusterblast-1_q6_5_1"  />
<polygon style="stroke:black; stroke-width:1; fill:green; " description="unannotated orf[br]Location: 3270 - 4522" locus_tag="CHAFR746836_0063050.2" class="clusterblast-orf" points="60,35 65,30 84,30 84,40 65,40 60,35 " id="clusterblast-1_q6_5_2"  />
<polygon style="stroke:black; stroke-width:1; fill:#FFFFFF; " description="unannotated orf[br]Location: 14176 - 16017" locus_tag="CHAFR746836_0063060.1" class="clusterblast-orf" points="271,40 302,40 307,35 302,30 271,30 271,40 " id="clusterblast-1_q6_5_3"  />
<polygon style="stroke:black; stroke-width:1; fill:#FFFFFF; " description="unannotated orf[br]Location: 20821 - 21679" locus_tag="CHAFR746836_0063070.1" class="clusterblast-orf" points="401,35 406,30 417,30 417,40 406,40 401,35 " id="clusterblast-1_q6_5_4"  />
<polygon style="stroke:black; stroke-width:1; fill:blue; " description="unannotated orf[br]Location: 23739 - 34194" locus_tag="CHAFR746836_0063080.1" class="clusterblast-orf" points="457,35 462,30 660,30 660,40 462,40 457,35 " id="clusterblast-1_q6_5_5"  />
<polygon style="stroke:black; stroke-width:1; fill:yellow; " description="unannotated orf[br]Location: 38501 - 40231" locus_tag="CHAFR746836_0063090.1" class="clusterblast-orf" points="744,40 773,40 778,35 773,30 744,30 744,40 " id="clusterblast-1_q6_5_6"  />
</g>
<g class="clusterblast-cluster" description="Streptomyces ipomoeae 91-03 genomic sequence." label="JF273471.1_c1"  >
<text class="clusterblast-acc" y="60" x="5"  >
JF273471.1_c1</text>
<text class="clusterblast-desc" y="60" x="460.8"  >
Streptomyces ipomoeae 91-03 genomic sequence.</text>
<line y1="85" x2="778.0" style="stroke:grey; stroke-width:1; " x1="10" y2="85"  />
<polygon style="stroke:black; stroke-width:1; fill:#FFFFFF; " description="IS116/IS110/IS902_family_transposase[br]Location: 44 - 1078" locus_tag="AEL30512.1" id="clusterblast-1_h6_5_0" points="89,90 104,90 109,85 104,80 89,80 89,90 " class="clusterblast-orf"  />
<polygon style="stroke:black; stroke-width:1; fill:#FFFFFF; " description="conserved_hypothetical_protein[br]Location: 1153 - 2358" locus_tag="AEL30513.1" id="clusterblast-1_h6_5_1" points="110,85 115,80 133,80 133,90 115,90 110,85 " class="clusterblast-orf"  />
<polygon style="stroke:black; stroke-width:1; fill:#FFFFFF; " description="thaxtomin_synthetase_b[br]Location: 2615 - 6940" locus_tag="AEL30514.1" id="clusterblast-1_h6_5_2" points="138,85 143,80 222,80 222,90 143,90 138,85 " class="clusterblast-orf"  />
<polygon style="stroke:black; stroke-width:1; fill:blue; " description="thaxtomin_synthetase_a[br]Location: 6993 - 11330&lt;br&gt;&lt;br&gt;&lt;b&gt;BlastP hit with CHAFR746836_0063080.1&lt;/b&gt;&lt;br&gt;Percentage identity: 31%&lt;br&gt;Percentage coverage: 30%&lt;br&gt;BLAST bit score: 337&lt;br&gt;E-value: 2e-92" locus_tag="AEL30515.1" id="clusterblast-1_h6_5_3" points="223,85 228,80 308,80 308,90 228,90 223,85 " class="clusterblast-orf"  />
<polygon style="stroke:black; stroke-width:1; fill:#FFFFFF; " description="MbtH-like_protein[br]Location: 11581 - 11775" locus_tag="AEL30516.1" id="clusterblast-1_h6_5_4" points="313,85 316,80 316,90 313,85 " class="clusterblast-orf"  />
<polygon style="stroke:black; stroke-width:1; fill:#FFFFFF; " description="AraC_family_transcriptional_regulator[br]Location: 12231 - 13193" locus_tag="AEL30517.1" id="clusterblast-1_h6_5_5" points="325,90 339,90 344,85 339,80 325,80 325,90 " class="clusterblast-orf"  />
<polygon style="stroke:black; stroke-width:1; fill:#FFFFFF; " description="putative_P450-like_protein[br]Location: 13641 - 14861" locus_tag="AEL30518.1" id="clusterblast-1_h6_5_6" points="353,90 371,90 376,85 371,80 353,80 353,90 " class="clusterblast-orf"  />
<polygon style="stroke:black; stroke-width:1; fill:#FFFFFF; " description="nitric_oxide_synthase-like_protein[br]Location: 14880 - 16052" locus_tag="AEL30519.1" id="clusterblast-1_h6_5_7" points="377,90 394,90 399,85 394,80 377,80 377,90 " class="clusterblast-orf"  />
<polygon style="stroke:black; stroke-width:1; fill:#FFFFFF; " description="putative_IS_transposase[br]Location: 16142 - 16468" locus_tag="AEL30520.1" id="clusterblast-1_h6_5_8" points="401,90 403,90 408,85 403,80 401,80 401,90 " class="clusterblast-orf"  />
<polygon style="stroke:black; stroke-width:1; fill:#FFFFFF; " description="transposase[br]Location: 16522 - 17283" locus_tag="AEL30521.1" id="clusterblast-1_h6_5_9" points="409,90 418,90 423,85 418,80 409,80 409,90 " class="clusterblast-orf"  />
<polygon style="stroke:black; stroke-width:1; fill:#FFFFFF; " description="hypothetical_protein_sghaA1_37512[br]Location: 17451 - 17678" locus_tag="AEL30522.1" id="clusterblast-1_h6_5_10" points="427,90 431,85 427,80 427,90 " class="clusterblast-orf"  />
<polygon style="stroke:black; stroke-width:1; fill:#FFFFFF; " description="hypothetical_protein_sghaA1_37512[br]Location: 17675 - 17854" locus_tag="AEL30523.1" id="clusterblast-1_h6_5_11" points="431,90 434,85 431,80 431,90 " class="clusterblast-orf"  />
<polygon style="stroke:black; stroke-width:1; fill:#FFFFFF; " description="NAD+_synthetase_domain-containing_protein[br]Location: 18458 - 19576" locus_tag="AEL30524.1" id="clusterblast-1_h6_5_12" points="446,90 463,90 468,85 463,80 446,80 446,90 " class="clusterblast-orf"  />
<polygon style="stroke:black; stroke-width:1; fill:#FFFFFF; " description="haloacid_dehalogenase_domain_protein_hydrolase[br]Location: 19573 - 20415" locus_tag="AEL30525.1" id="clusterblast-1_h6_5_13" points="468,90 479,90 484,85 479,80 468,80 468,90 " class="clusterblast-orf"  />
<polygon style="stroke:black; stroke-width:1; fill:#FFFFFF; " description="oxidoreductase_domain_protein[br]Location: 20484 - 21581" locus_tag="AEL30526.1" id="clusterblast-1_h6_5_14" points="486,90 502,90 507,85 502,80 486,80 486,90 " class="clusterblast-orf"  />
<polygon style="stroke:black; stroke-width:1; fill:#FFFFFF; " description="L-lysine_aminotransferase[br]Location: 21628 - 22902" locus_tag="AEL30527.1" id="clusterblast-1_h6_5_15" points="508,90 527,90 532,85 527,80 508,80 508,90 " class="clusterblast-orf"  />
<polygon style="stroke:black; stroke-width:1; fill:#FFFFFF; " description="major_facilitator_superfamily_MFS_1[br]Location: 22927 - 23607" locus_tag="AEL30528.1" id="clusterblast-1_h6_5_16" points="533,90 541,90 546,85 541,80 533,80 533,90 " class="clusterblast-orf"  />
<polygon style="stroke:black; stroke-width:1; fill:#FFFFFF; " description="putative_transposase[br]Location: 23643 - 24392" locus_tag="AEL30529.1" id="clusterblast-1_h6_5_17" points="547,90 556,90 561,85 556,80 547,80 547,90 " class="clusterblast-orf"  />
<polygon style="stroke:black; stroke-width:1; fill:#FFFFFF; " description="IS630_family_transposase[br]Location: 24425 - 24952" locus_tag="AEL30530.1" id="clusterblast-1_h6_5_18" points="562,85 567,80 572,80 572,90 567,90 562,85 " class="clusterblast-orf"  />
<polygon style="stroke:black; stroke-width:1; fill:#FFFFFF; " description="putative_transposase[br]Location: 24949 - 25488" locus_tag="AEL30531.1" id="clusterblast-1_h6_5_19" points="572,85 577,80 583,80 583,90 577,90 572,85 " class="clusterblast-orf"  />
<polygon style="stroke:black; stroke-width:1; fill:#FFFFFF; " description="hypothetical_protein_SCO0075[br]Location: 25777 - 26331" locus_tag="AEL30532.1" id="clusterblast-1_h6_5_20" points="588,90 594,90 599,85 594,80 588,80 588,90 " class="clusterblast-orf"  />
<polygon style="stroke:black; stroke-width:1; fill:#FFFFFF; " description="tn5741_family_transposase[br]Location: 26279 - 27199" locus_tag="AEL30533.1" id="clusterblast-1_h6_5_21" points="598,85 603,80 616,80 616,90 603,90 598,85 " class="clusterblast-orf"  />
<polygon style="stroke:black; stroke-width:1; fill:#FFFFFF; " description="major_facilitator_superfamily_MFS_1[br]Location: 27346 - 27927" locus_tag="AEL30534.1" id="clusterblast-1_h6_5_22" points="619,90 625,90 630,85 625,80 619,80 619,90 " class="clusterblast-orf"  />
<polygon style="stroke:black; stroke-width:1; fill:#FFFFFF; " description="transposase[br]Location: 27961 - 28590" locus_tag="AEL30535.1" id="clusterblast-1_h6_5_23" points="631,90 638,90 643,85 638,80 631,80 631,90 " class="clusterblast-orf"  />
<polygon style="stroke:black; stroke-width:1; fill:red; " description="dehydrogenase[br]Location: 28917 - 29834&lt;br&gt;&lt;br&gt;&lt;b&gt;BlastP hit with CHAFR746836_0063050.1&lt;/b&gt;&lt;br&gt;Percentage identity: 32%&lt;br&gt;Percentage coverage: 70%&lt;br&gt;BLAST bit score: 82&lt;br&gt;E-value: 7e-17&lt;br&gt;&lt;br&gt;&lt;b&gt;BlastP hit with CHAFR746836_0063050.2&lt;/b&gt;&lt;br&gt;Percentage identity: 32%&lt;br&gt;Percentage coverage: 78%&lt;br&gt;BLAST bit score: 81&lt;br&gt;E-value: 6e-17" locus_tag="AEL30536.1" id="clusterblast-1_h6_5_24" points="649,85 654,80 667,80 667,90 654,90 649,85 " class="clusterblast-orf"  />
<polygon style="stroke:black; stroke-width:1; fill:#FFFFFF; " description="hypothetical_protein[br]Location: 30007 - 30453" locus_tag="AEL30537.1" id="clusterblast-1_h6_5_25" points="670,85 675,80 679,80 679,90 675,90 670,85 " class="clusterblast-orf"  />
<polygon style="stroke:black; stroke-width:1; fill:#FFFFFF; " description="conserved_hypothetical_protein[br]Location: 30594 - 31364" locus_tag="AEL30538.1" id="clusterblast-1_h6_5_26" points="682,85 687,80 697,80 697,90 687,90 682,85 " class="clusterblast-orf"  />
</g>
</svg>
