<svg xmlns="http://www.w3.org/2000/svg" height="230" width="800" version="1.1" y="0" x="0" preserveAspectRatio="none" xmlns:xlink="http://www.w3.org/1999/xlink" viewBox="0 0 800 230"  >
<g class="clusterblast-cluster" label="Query sequence"  >
<text class="clusterblast-acc" y="10" x="5"  >
Query sequence</text>
<line y1="35" x2="778.0" style="stroke:grey; stroke-width:1; " x1="10" y2="35"  />
<polygon style="stroke:black; stroke-width:1; fill:red; " description="unannotated orf[br]Location: 132361 - 134630" locus_tag="CHAFR746836_0093380.1" class="clusterblast-orf" points="78,35 83,30 119,30 119,40 83,40 78,35 " id="clusterblast-1_q25_1_0"  />
<polygon style="stroke:black; stroke-width:1; fill:green; " description="unannotated orf[br]Location: 135481 - 137568" locus_tag="CHAFR746836_0093390.1" class="clusterblast-orf" points="135,35 140,30 173,30 173,40 140,40 135,35 " id="clusterblast-1_q25_1_1"  />
<polygon style="stroke:black; stroke-width:1; fill:blue; " description="unannotated orf[br]Location: 139704 - 140960" locus_tag="CHAFR746836_0093400.1" class="clusterblast-orf" points="213,40 231,40 236,35 231,30 213,30 213,40 " id="clusterblast-1_q25_1_2"  />
<polygon style="stroke:black; stroke-width:1; fill:#FFFFFF; " description="unannotated orf[br]Location: 141330 - 141954" locus_tag="CHAFR746836_0093410.1" class="clusterblast-orf" points="243,35 248,30 254,30 254,40 248,40 243,35 " id="clusterblast-1_q25_1_3"  />
<polygon style="stroke:black; stroke-width:1; fill:#FFFFFF; " description="unannotated orf[br]Location: 142312 - 143163" locus_tag="CHAFR746836_0093420.1" class="clusterblast-orf" points="261,35 266,30 277,30 277,40 266,40 261,35 " id="clusterblast-1_q25_1_4"  />
<polygon style="stroke:black; stroke-width:1; fill:yellow; " description="unannotated orf[br]Location: 143792 - 145365" locus_tag="CHAFR746836_0093430.1" class="clusterblast-orf" points="288,40 312,40 317,35 312,30 288,30 288,40 " id="clusterblast-1_q25_1_5"  />
<polygon style="stroke:black; stroke-width:1; fill:#FFFFFF; " description="unannotated orf[br]Location: 149266 - 150822" locus_tag="CHAFR746836_0093440.1" class="clusterblast-orf" points="389,35 394,30 418,30 418,40 394,40 389,35 " id="clusterblast-1_q25_1_6"  />
<polygon style="stroke:black; stroke-width:1; fill:#FFFFFF; " description="unannotated orf[br]Location: 152427 - 154072" locus_tag="CHAFR746836_0093450.1" class="clusterblast-orf" points="447,35 452,30 478,30 478,40 452,40 447,35 " id="clusterblast-1_q25_1_7"  />
<polygon style="stroke:black; stroke-width:1; fill:#FFFFFF; " description="unannotated orf[br]Location: 156646 - 158903" locus_tag="CHAFR746836_0093460.1" class="clusterblast-orf" points="525,35 530,30 567,30 567,40 530,40 525,35 " id="clusterblast-1_q25_1_8"  />
<polygon style="stroke:black; stroke-width:1; fill:#FFFFFF; " description="unannotated orf[br]Location: 159870 - 162862" locus_tag="CHAFR746836_0093470.1" class="clusterblast-orf" points="584,40 635,40 640,35 635,30 584,30 584,40 " id="clusterblast-1_q25_1_9"  />
<polygon style="stroke:black; stroke-width:1; fill:#FFFFFF; " description="unannotated orf[br]Location: 164208 - 166576" locus_tag="CHAFR746836_0093480.1" class="clusterblast-orf" points="664,40 703,40 708,35 703,30 664,30 664,40 " id="clusterblast-1_q25_1_10"  />
</g>
<g class="clusterblast-cluster" description="Trichoderma virens Gv29-8 TRIVIscaffold 92, whole genome..." label="ABDF02000092.1_c2"  >
<text class="clusterblast-acc" y="60" x="5"  >
ABDF02000092.1_c2</text>
<text class="clusterblast-desc" y="60" x="460.8"  >
Trichoderma virens Gv29-8 TRIVIscaffold 92, whole genome...</text>
<line y1="85" x2="778.0" style="stroke:grey; stroke-width:1; " x1="10" y2="85"  />
<polygon style="stroke:black; stroke-width:1; fill:#FFFFFF; " description="hypothetical_protein[br]Location: 1855339 - 1857000" locus_tag="TRIVIDRAFT_56190" id="clusterblast-1_h25_1_0" points="10,90 35,90 40,85 35,80 10,80 10,90 " class="clusterblast-orf"  />
<polygon style="stroke:black; stroke-width:1; fill:#FFFFFF; " description="hypothetical_protein[br]Location: 1853521 - 1855092" locus_tag="TRIVIDRAFT_64335" id="clusterblast-1_h25_1_1" points="45,85 50,80 74,80 74,90 50,90 45,85 " class="clusterblast-orf"  />
<polygon style="stroke:black; stroke-width:1; fill:#FFFFFF; " description="hypothetical_protein[br]Location: 1850508 - 1852354" locus_tag="TRIVIDRAFT_38198" id="clusterblast-1_h25_1_2" points="95,85 100,80 129,80 129,90 100,90 95,85 " class="clusterblast-orf"  />
<polygon style="stroke:black; stroke-width:1; fill:#FFFFFF; " description="hypothetical_protein[br]Location: 1848847 - 1849302" locus_tag="TRIVIDRAFT_228806" id="clusterblast-1_h25_1_3" points="151,85 156,80 160,80 160,90 156,90 151,85 " class="clusterblast-orf"  />
<polygon style="stroke:black; stroke-width:1; fill:#FFFFFF; " description="hypothetical_protein[br]Location: 1846094 - 1847852" locus_tag="TRIVIDRAFT_39153" id="clusterblast-1_h25_1_4" points="178,90 205,90 210,85 205,80 178,80 178,90 " class="clusterblast-orf"  />
<polygon style="stroke:black; stroke-width:1; fill:#FFFFFF; " description="hypothetical_protein[br]Location: 1843456 - 1845185" locus_tag="TRIVIDRAFT_74289" id="clusterblast-1_h25_1_5" points="227,85 232,80 259,80 259,90 232,90 227,85 " class="clusterblast-orf"  />
<polygon style="stroke:black; stroke-width:1; fill:green; " description="hypothetical_protein[br]Location: 1839776 - 1841746&lt;br&gt;&lt;br&gt;&lt;b&gt;BlastP hit with CHAFR746836_0093390.1&lt;/b&gt;&lt;br&gt;Percentage identity: 43%&lt;br&gt;Percentage coverage: 97%&lt;br&gt;BLAST bit score: 415&lt;br&gt;E-value: 2e-137" locus_tag="TRIVIDRAFT_74291" id="clusterblast-1_h25_1_6" points="291,85 296,80 327,80 327,90 296,90 291,85 " class="clusterblast-orf"  />
<polygon style="stroke:black; stroke-width:1; fill:yellow; " description="hypothetical_protein[br]Location: 1836769 - 1838192&lt;br&gt;&lt;br&gt;&lt;b&gt;BlastP hit with CHAFR746836_0093430.1&lt;/b&gt;&lt;br&gt;Percentage identity: 32%&lt;br&gt;Percentage coverage: 98%&lt;br&gt;BLAST bit score: 197&lt;br&gt;E-value: 2e-57" locus_tag="TRIVIDRAFT_56195" id="clusterblast-1_h25_1_7" points="356,90 377,90 382,85 377,80 356,80 356,90 " class="clusterblast-orf"  />
<polygon style="stroke:black; stroke-width:1; fill:#FFFFFF; " description="hypothetical_protein[br]Location: 1834527 - 1835673" locus_tag="TRIVIDRAFT_217322" id="clusterblast-1_h25_1_8" points="403,90 419,90 424,85 419,80 403,80 403,90 " class="clusterblast-orf"  />
<polygon style="stroke:black; stroke-width:1; fill:#FFFFFF; " description="hypothetical_protein[br]Location: 1833363 - 1833889" locus_tag="TRIVIDRAFT_111175" id="clusterblast-1_h25_1_9" points="435,90 440,90 445,85 440,80 435,80 435,90 " class="clusterblast-orf"  />
<polygon style="stroke:black; stroke-width:1; fill:#FFFFFF; " description="hypothetical_protein[br]Location: 1829522 - 1831350" locus_tag="TRIVIDRAFT_64344" id="clusterblast-1_h25_1_10" points="482,90 511,90 516,85 511,80 482,80 482,90 " class="clusterblast-orf"  />
<polygon style="stroke:black; stroke-width:1; fill:#FFFFFF; " description="hypothetical_protein[br]Location: 1827612 - 1828754" locus_tag="TRIVIDRAFT_207487" id="clusterblast-1_h25_1_11" points="530,90 546,90 551,85 546,80 530,80 530,90 " class="clusterblast-orf"  />
<polygon style="stroke:black; stroke-width:1; fill:#FFFFFF; " description="hypothetical_protein[br]Location: 1826233 - 1826847" locus_tag="TRIVIDRAFT_39063" id="clusterblast-1_h25_1_12" points="565,90 572,90 577,85 572,80 565,80 565,90 " class="clusterblast-orf"  />
<polygon style="stroke:black; stroke-width:1; fill:#FFFFFF; " description="hypothetical_protein[br]Location: 1824088 - 1825644" locus_tag="TRIVIDRAFT_82504" id="clusterblast-1_h25_1_13" points="587,90 611,90 616,85 611,80 587,80 587,90 " class="clusterblast-orf"  />
<polygon style="stroke:black; stroke-width:1; fill:#FFFFFF; " description="hypothetical_protein[br]Location: 1822275 - 1823807" locus_tag="TRIVIDRAFT_56198" id="clusterblast-1_h25_1_14" points="621,85 626,80 649,80 649,90 626,90 621,85 " class="clusterblast-orf"  />
<polygon style="stroke:black; stroke-width:1; fill:#FFFFFF; " description="hypothetical_protein[br]Location: 1819141 - 1821484" locus_tag="TRIVIDRAFT_124096" id="clusterblast-1_h25_1_15" points="664,90 702,90 707,85 702,80 664,80 664,90 " class="clusterblast-orf"  />
<polygon style="stroke:black; stroke-width:1; fill:#FFFFFF; " description="hypothetical_protein[br]Location: 1817547 - 1818506" locus_tag="TRIVIDRAFT_82505" id="clusterblast-1_h25_1_16" points="719,85 724,80 737,80 737,90 724,90 719,85 " class="clusterblast-orf"  />
<polygon style="stroke:black; stroke-width:1; fill:#FFFFFF; " description="hypothetical_protein[br]Location: 1815329 - 1817114" locus_tag="TRIVIDRAFT_56201" id="clusterblast-1_h25_1_17" points="745,90 773,90 778,85 773,80 745,80 745,90 " class="clusterblast-orf"  />
</g>
</svg>
