<svg xmlns="http://www.w3.org/2000/svg" height="230" width="800" version="1.1" y="0" x="0" preserveAspectRatio="none" xmlns:xlink="http://www.w3.org/1999/xlink" viewBox="0 0 800 230"  >
<g class="clusterblast-cluster" label="Query sequence"  >
<text class="clusterblast-acc" y="10" x="5"  >
Query sequence</text>
<line y1="35" x2="778.0" style="stroke:grey; stroke-width:1; " x1="10" y2="35"  />
<polygon style="stroke:black; stroke-width:1; fill:#FFFFFF; " description="unannotated orf[br]Location: 1502 - 2717" locus_tag="CHAFR746836_0018730.1" class="clusterblast-orf" points="233,40 241,40 246,35 241,30 233,30 233,40 " id="clusterblast-1_q38_10_0"  />
<polygon style="stroke:black; stroke-width:1; fill:#FFFFFF; " description="unannotated orf[br]Location: 5434 - 6658" locus_tag="CHAFR746836_0018740.1" class="clusterblast-orf" points="277,40 285,40 290,35 285,30 277,30 277,40 " id="clusterblast-1_q38_10_1"  />
<polygon style="stroke:black; stroke-width:1; fill:rgb(190,63,63); " description="unannotated orf[br]Location: 8194 - 15527" locus_tag="CHAFR746836_0018750.1" class="clusterblast-orf" points="307,35 312,30 390,30 390,40 312,40 307,35 " id="clusterblast-1_q38_10_2"  />
<polygon style="stroke:black; stroke-width:1; fill:rgb(63,63,190); " description="unannotated orf[br]Location: 16107 - 17386" locus_tag="CHAFR746836_0018760.1" class="clusterblast-orf" points="396,40 405,40 410,35 405,30 396,30 396,40 " id="clusterblast-1_q38_10_3"  />
<polygon style="stroke:black; stroke-width:1; fill:rgb(63,190,63); " description="unannotated orf[br]Location: 18113 - 19107" locus_tag="CHAFR746836_0018770.1" class="clusterblast-orf" points="419,40 425,40 430,35 425,30 419,30 419,40 " id="clusterblast-1_q38_10_4"  />
<polygon style="stroke:black; stroke-width:1; fill:#FFFFFF; " description="unannotated orf[br]Location: 21941 - 23810" locus_tag="CHAFR746836_0018780.1" class="clusterblast-orf" points="462,40 477,40 482,35 477,30 462,30 462,40 " id="clusterblast-1_q38_10_5"  />
<polygon style="stroke:black; stroke-width:1; fill:rgb(190,63,190); " description="unannotated orf[br]Location: 25428 - 26120" locus_tag="CHAFR746836_0018790.1" class="clusterblast-orf" points="501,40 503,40 508,35 503,30 501,30 501,40 " id="clusterblast-1_q38_10_6"  />
<polygon style="stroke:black; stroke-width:1; fill:rgb(190,190,63); " description="unannotated orf[br]Location: 28320 - 30189" locus_tag="CHAFR746836_0018800.1" class="clusterblast-orf" points="533,35 538,30 554,30 554,40 538,40 533,35 " id="clusterblast-1_q38_10_7"  />
</g>
<g class="clusterblast-cluster" description="Mycobacterium chubuense NBB4, complete genome." label="CP003053.1_c5"  >
<text class="clusterblast-acc" y="60" x="5"  >
CP003053.1_c5</text>
<text class="clusterblast-desc" y="60" x="460.8"  >
Mycobacterium chubuense NBB4, complete genome.</text>
<line y1="85" x2="778.0" style="stroke:grey; stroke-width:1; " x1="10" y2="85"  />
<polygon style="stroke:black; stroke-width:1; fill:#FFFFFF; " description="fatty_acid_desaturase[br]Location: 2905064 - 2906251" locus_tag="Mycch_2783" id="clusterblast-1_h38_10_0" points="10,90 18,90 23,85 18,80 10,80 10,90 " class="clusterblast-orf"  />
<polygon style="stroke:black; stroke-width:1; fill:#FFFFFF; " description="PE-PPE_domain-containing_protein[br]Location: 2903690 - 2905048" locus_tag="Mycch_2782" id="clusterblast-1_h38_10_1" points="23,85 28,80 38,80 38,90 28,90 23,85 " class="clusterblast-orf"  />
<polygon style="stroke:black; stroke-width:1; fill:#FFFFFF; " description="membrane_protein_involved_in_colicin_uptake[br]Location: 2901372 - 2902631" locus_tag="Mycch_2781" id="clusterblast-1_h38_10_2" points="50,90 59,90 64,85 59,80 50,80 50,90 " class="clusterblast-orf"  />
<polygon style="stroke:black; stroke-width:1; fill:#FFFFFF; " description="putative_flavoprotein_involved_in_K+_transport[br]Location: 2899721 - 2901208" locus_tag="Mycch_2780" id="clusterblast-1_h38_10_3" points="66,90 78,90 83,85 78,80 66,80 66,90 " class="clusterblast-orf"  />
<polygon style="stroke:black; stroke-width:1; fill:#FFFFFF; " description="Cutinase[br]Location: 2898998 - 2899681" locus_tag="Mycch_2779" id="clusterblast-1_h38_10_4" points="83,90 86,90 91,85 86,80 83,80 83,90 " class="clusterblast-orf"  />
<polygon style="stroke:black; stroke-width:1; fill:rgb(63,63,190); " description="short-chain_dehydrogenase_of_unknown_substrate[br]Location: 2898150 - 2898938&lt;br&gt;&lt;br&gt;&lt;b&gt;BlastP hit with CHAFR746836_0018760.1&lt;/b&gt;&lt;br&gt;Percentage identity: 31%&lt;br&gt;Percentage coverage: 37%&lt;br&gt;BLAST bit score: 54&lt;br&gt;E-value: 2e-07" locus_tag="Mycch_2778" id="clusterblast-1_h38_10_5" points="91,90 95,90 100,85 95,80 91,80 91,90 " class="clusterblast-orf"  />
<polygon style="stroke:black; stroke-width:1; fill:#FFFFFF; " description="hypothetical_protein[br]Location: 2896512 - 2898083" locus_tag="Mycch_2777" id="clusterblast-1_h38_10_6" points="101,85 106,80 119,80 119,90 106,90 101,85 " class="clusterblast-orf"  />
<polygon style="stroke:black; stroke-width:1; fill:rgb(63,190,63); " description="short-chain_alcohol_dehydrogenase[br]Location: 2895268 - 2896107&lt;br&gt;&lt;br&gt;&lt;b&gt;BlastP hit with CHAFR746836_0018760.1&lt;/b&gt;&lt;br&gt;Percentage identity: 31%&lt;br&gt;Percentage coverage: 66%&lt;br&gt;BLAST bit score: 64&lt;br&gt;E-value: 8e-11&lt;br&gt;&lt;br&gt;&lt;b&gt;BlastP hit with CHAFR746836_0018770.1&lt;/b&gt;&lt;br&gt;Percentage identity: 31%&lt;br&gt;Percentage coverage: 75%&lt;br&gt;BLAST bit score: 87&lt;br&gt;E-value: 6e-19" locus_tag="Mycch_2776" id="clusterblast-1_h38_10_7" points="123,85 128,80 133,80 133,90 128,90 123,85 " class="clusterblast-orf"  />
<polygon style="stroke:black; stroke-width:1; fill:#FFFFFF; " description="cytochrome_P450[br]Location: 2893862 - 2895232" locus_tag="Mycch_2775" id="clusterblast-1_h38_10_8" points="133,85 138,80 148,80 148,90 138,90 133,85 " class="clusterblast-orf"  />
<polygon style="stroke:black; stroke-width:1; fill:#FFFFFF; " description="putative_flavoprotein_involved_in_K+_transport[br]Location: 2892319 - 2893803" locus_tag="Mycch_2774" id="clusterblast-1_h38_10_9" points="149,85 154,80 166,80 166,90 154,90 149,85 " class="clusterblast-orf"  />
<polygon style="stroke:black; stroke-width:1; fill:#FFFFFF; " description="nitroreductase[br]Location: 2891432 - 2892136" locus_tag="Mycch_2773" id="clusterblast-1_h38_10_10" points="168,85 173,80 176,80 176,90 173,90 168,85 " class="clusterblast-orf"  />
<polygon style="stroke:black; stroke-width:1; fill:#FFFFFF; " description="Protein_of_unknown_function_(DUF2505)[br]Location: 2890923 - 2891429" locus_tag="Mycch_2772" id="clusterblast-1_h38_10_11" points="176,85 181,80 181,80 181,90 181,90 176,85 " class="clusterblast-orf"  />
<polygon style="stroke:black; stroke-width:1; fill:#FFFFFF; " description="hypothetical_protein[br]Location: 2890201 - 2890917" locus_tag="Mycch_2771" id="clusterblast-1_h38_10_12" points="181,85 186,80 189,80 189,90 186,90 181,85 " class="clusterblast-orf"  />
<polygon style="stroke:black; stroke-width:1; fill:#FFFFFF; " description="O-methyltransferase_involved_in_polyketide[br]Location: 2889301 - 2890131" locus_tag="Mycch_2770" id="clusterblast-1_h38_10_13" points="190,90 194,90 199,85 194,80 190,80 190,90 " class="clusterblast-orf"  />
<polygon style="stroke:black; stroke-width:1; fill:#FFFFFF; " description="hypothetical_protein[br]Location: 2888048 - 2889325" locus_tag="Mycch_2769" id="clusterblast-1_h38_10_14" points="199,85 204,80 213,80 213,90 204,90 199,85 " class="clusterblast-orf"  />
<polygon style="stroke:black; stroke-width:1; fill:#FFFFFF; " description="ABC_transporter_efflux_protein,_DrrB_family[br]Location: 2887159 - 2888010" locus_tag="Mycch_2768" id="clusterblast-1_h38_10_15" points="214,85 219,80 223,80 223,90 219,90 214,85 " class="clusterblast-orf"  />
<polygon style="stroke:black; stroke-width:1; fill:#FFFFFF; " description="ABC-type_multidrug_transport_system,_permease[br]Location: 2886314 - 2887162" locus_tag="Mycch_2767" id="clusterblast-1_h38_10_16" points="223,85 228,80 233,80 233,90 228,90 223,85 " class="clusterblast-orf"  />
<polygon style="stroke:black; stroke-width:1; fill:#FFFFFF; " description="daunorubicin_resistance_ABC_transporter[br]Location: 2885313 - 2886317" locus_tag="Mycch_2766" id="clusterblast-1_h38_10_17" points="233,85 238,80 244,80 244,90 238,90 233,85 " class="clusterblast-orf"  />
<polygon style="stroke:black; stroke-width:1; fill:#FFFFFF; " description="polyketide_synthase_family_protein[br]Location: 2880847 - 2885289" locus_tag="Mycch_2765" id="clusterblast-1_h38_10_18" points="244,85 249,80 294,80 294,90 249,90 244,85 " class="clusterblast-orf"  />
<polygon style="stroke:black; stroke-width:1; fill:rgb(190,63,63); " description="polyketide_synthase_family_protein[br]Location: 2875409 - 2880850&lt;br&gt;&lt;br&gt;&lt;b&gt;BlastP hit with CHAFR746836_0018750.1&lt;/b&gt;&lt;br&gt;Percentage identity: 32%&lt;br&gt;Percentage coverage: 50%&lt;br&gt;BLAST bit score: 506&lt;br&gt;E-value: 5e-146" locus_tag="Mycch_2764" id="clusterblast-1_h38_10_19" points="294,85 299,80 355,80 355,90 299,90 294,85 " class="clusterblast-orf"  />
<polygon style="stroke:black; stroke-width:1; fill:rgb(190,63,63); " description="polyketide_synthase_family_protein[br]Location: 2869932 - 2875409&lt;br&gt;&lt;br&gt;&lt;b&gt;BlastP hit with CHAFR746836_0018750.1&lt;/b&gt;&lt;br&gt;Percentage identity: 33%&lt;br&gt;Percentage coverage: 37%&lt;br&gt;BLAST bit score: 431&lt;br&gt;E-value: 1e-121" locus_tag="Mycch_2763" id="clusterblast-1_h38_10_20" points="355,85 360,80 416,80 416,90 360,90 355,85 " class="clusterblast-orf"  />
<polygon style="stroke:black; stroke-width:1; fill:rgb(190,63,63); " description="polyketide_synthase_family_protein[br]Location: 2865118 - 2869926&lt;br&gt;&lt;br&gt;&lt;b&gt;BlastP hit with CHAFR746836_0018750.1&lt;/b&gt;&lt;br&gt;Percentage identity: 34%&lt;br&gt;Percentage coverage: 37%&lt;br&gt;BLAST bit score: 449&lt;br&gt;E-value: 3e-128" locus_tag="Mycch_2762" id="clusterblast-1_h38_10_21" points="416,85 421,80 470,80 470,90 421,90 416,85 " class="clusterblast-orf"  />
<polygon style="stroke:black; stroke-width:1; fill:#FFFFFF; " description="acyl-CoA_synthetase_(AMP-forming)/AMP-acid[br]Location: 2863373 - 2865121" locus_tag="Mycch_2761" id="clusterblast-1_h38_10_22" points="470,85 475,80 490,80 490,90 475,90 470,85 " class="clusterblast-orf"  />
<polygon style="stroke:black; stroke-width:1; fill:rgb(190,63,63); " description="polyketide_synthase_family_protein[br]Location: 2857828 - 2863317&lt;br&gt;&lt;br&gt;&lt;b&gt;BlastP hit with CHAFR746836_0018750.1&lt;/b&gt;&lt;br&gt;Percentage identity: 34%&lt;br&gt;Percentage coverage: 34%&lt;br&gt;BLAST bit score: 427&lt;br&gt;E-value: 4e-120" locus_tag="Mycch_2760" id="clusterblast-1_h38_10_23" points="491,85 496,80 552,80 552,90 496,90 491,85 " class="clusterblast-orf"  />
<polygon style="stroke:black; stroke-width:1; fill:#FFFFFF; " description="acyl-CoA_synthetase_(AMP-forming)/AMP-acid[br]Location: 2856053 - 2857831" locus_tag="Mycch_2759" id="clusterblast-1_h38_10_24" points="552,85 557,80 572,80 572,90 557,90 552,85 " class="clusterblast-orf"  />
<polygon style="stroke:black; stroke-width:1; fill:#FFFFFF; " description="putative_thioesterase_involved_in_non-ribosomal[br]Location: 2854720 - 2855478" locus_tag="Mycch_2758" id="clusterblast-1_h38_10_25" points="578,85 583,80 587,80 587,90 583,90 578,85 " class="clusterblast-orf"  />
<polygon style="stroke:black; stroke-width:1; fill:#FFFFFF; " description="glycine_dehydrogenase,_decarboxylating[br]Location: 2851813 - 2854689" locus_tag="Mycch_2757" id="clusterblast-1_h38_10_26" points="587,85 592,80 619,80 619,90 592,90 587,85 " class="clusterblast-orf"  />
<polygon style="stroke:black; stroke-width:1; fill:#FFFFFF; " description="hypothetical_protein[br]Location: 2850856 - 2851479" locus_tag="Mycch_2756" id="clusterblast-1_h38_10_27" points="623,85 628,80 630,80 630,90 628,90 623,85 " class="clusterblast-orf"  />
<polygon style="stroke:black; stroke-width:1; fill:#FFFFFF; " description="hypothetical_protein[br]Location: 2850140 - 2850634" locus_tag="Mycch_2755" id="clusterblast-1_h38_10_28" points="633,85 638,80 638,80 638,90 638,90 633,85 " class="clusterblast-orf"  />
<polygon style="stroke:black; stroke-width:1; fill:#FFFFFF; " description="putative_transcriptional_regulator[br]Location: 2849301 - 2850047" locus_tag="Mycch_2754" id="clusterblast-1_h38_10_29" points="639,85 644,80 648,80 648,90 644,90 639,85 " class="clusterblast-orf"  />
<polygon style="stroke:black; stroke-width:1; fill:#FFFFFF; " description="FHA_domain-containing_protein[br]Location: 2848784 - 2849257" locus_tag="Mycch_2753" id="clusterblast-1_h38_10_30" points="648,85 653,80 653,80 653,90 653,90 648,85 " class="clusterblast-orf"  />
<polygon style="stroke:black; stroke-width:1; fill:#FFFFFF; " description="glycine_cleavage_system_H_protein[br]Location: 2848215 - 2848610" locus_tag="Mycch_2752" id="clusterblast-1_h38_10_31" points="655,85 660,80 660,80 660,90 660,90 655,85 " class="clusterblast-orf"  />
<polygon style="stroke:black; stroke-width:1; fill:#FFFFFF; " description="hypothetical_protein[br]Location: 2847310 - 2848179" locus_tag="Mycch_2751" id="clusterblast-1_h38_10_32" points="660,85 665,80 670,80 670,90 665,90 660,85 " class="clusterblast-orf"  />
<polygon style="stroke:black; stroke-width:1; fill:#FFFFFF; " description="hypothetical_protein[br]Location: 2846964 - 2847296" locus_tag="Mycch_2750" id="clusterblast-1_h38_10_33" points="670,85 674,80 674,90 670,85 " class="clusterblast-orf"  />
<polygon style="stroke:black; stroke-width:1; fill:#FFFFFF; " description="hypothetical_protein[br]Location: 2845985 - 2846878" locus_tag="Mycch_2749" id="clusterblast-1_h38_10_34" points="675,85 680,80 685,80 685,90 680,90 675,85 " class="clusterblast-orf"  />
<polygon style="stroke:black; stroke-width:1; fill:#FFFFFF; " description="phosphatidylglycerophosphate_synthase[br]Location: 2845371 - 2845988" locus_tag="Mycch_2748" id="clusterblast-1_h38_10_35" points="685,85 690,80 692,80 692,90 690,90 685,85 " class="clusterblast-orf"  />
<polygon style="stroke:black; stroke-width:1; fill:#FFFFFF; " description="preprotein_translocase_subunit_SecA_(ATPase,_RNA[br]Location: 2842961 - 2845360" locus_tag="Mycch_2747" id="clusterblast-1_h38_10_36" points="692,85 697,80 719,80 719,90 697,90 692,85 " class="clusterblast-orf"  />
<polygon style="stroke:black; stroke-width:1; fill:#FFFFFF; " description="ABC-type_uncharacterized_transport_system,[br]Location: 2840941 - 2842851" locus_tag="Mycch_2746" id="clusterblast-1_h38_10_37" points="720,90 736,90 741,85 736,80 720,80 720,90 " class="clusterblast-orf"  />
<polygon style="stroke:black; stroke-width:1; fill:#FFFFFF; " description="ABC-type_uncharacterized_transport_system,[br]Location: 2838981 - 2840894" locus_tag="Mycch_2745" id="clusterblast-1_h38_10_38" points="742,90 758,90 763,85 758,80 742,80 742,90 " class="clusterblast-orf"  />
<polygon style="stroke:black; stroke-width:1; fill:#FFFFFF; " description="protein_of_unknown_function_DUF222/HNH[br]Location: 2837705 - 2838979" locus_tag="Mycch_2744" id="clusterblast-1_h38_10_39" points="763,85 768,80 778,80 778,90 768,90 763,85 " class="clusterblast-orf"  />
</g>
</svg>
