<svg xmlns="http://www.w3.org/2000/svg" height="230" width="800" version="1.1" y="0" x="0" preserveAspectRatio="none" xmlns:xlink="http://www.w3.org/1999/xlink" viewBox="0 0 800 230"  >
<g class="clusterblast-cluster" label="Query sequence"  >
<text class="clusterblast-acc" y="10" x="5"  >
Query sequence</text>
<line y1="35" x2="778.0" style="stroke:grey; stroke-width:1; " x1="10" y2="35"  />
<polygon style="stroke:black; stroke-width:1; fill:#FFFFFF; " description="unannotated orf[br]Location: 6431 - 7772" locus_tag="CHAFR746836_0097870.1" class="clusterblast-orf" points="10,35 15,30 23,30 23,40 15,40 10,35 " id="clusterblast-1_q28_7_0"  />
<polygon style="stroke:black; stroke-width:1; fill:rgb(190,63,63); " description="unannotated orf[br]Location: 16189 - 18187" locus_tag="CHAFR746836_0097880.1" class="clusterblast-orf" points="108,35 113,30 128,30 128,40 113,40 108,35 " id="clusterblast-1_q28_7_1"  />
<polygon style="stroke:black; stroke-width:1; fill:rgb(63,63,190); " description="unannotated orf[br]Location: 19681 - 20616" locus_tag="CHAFR746836_0097890.1" class="clusterblast-orf" points="143,40 147,40 152,35 147,30 143,30 143,40 " id="clusterblast-1_q28_7_2"  />
<polygon style="stroke:black; stroke-width:1; fill:rgb(63,190,63); " description="unannotated orf[br]Location: 21366 - 23094" locus_tag="CHAFR746836_0097900.1" class="clusterblast-orf" points="160,40 172,40 177,35 172,30 160,30 160,40 " id="clusterblast-1_q28_7_3"  />
<polygon style="stroke:black; stroke-width:1; fill:rgb(190,63,190); " description="unannotated orf[br]Location: 26972 - 28062" locus_tag="CHAFR746836_0097910.1" class="clusterblast-orf" points="216,35 221,30 227,30 227,40 221,40 216,35 " id="clusterblast-1_q28_7_4"  />
<polygon style="stroke:black; stroke-width:1; fill:rgb(190,190,63); " description="unannotated orf[br]Location: 28976 - 30266" locus_tag="CHAFR746836_0097920.1" class="clusterblast-orf" points="236,40 244,40 249,35 244,30 236,30 236,40 " id="clusterblast-1_q28_7_5"  />
<polygon style="stroke:black; stroke-width:1; fill:rgb(190,190,190); " description="unannotated orf[br]Location: 30763 - 43644" locus_tag="CHAFR746836_0097930.1" class="clusterblast-orf" points="254,35 259,30 383,30 383,40 259,40 254,35 " id="clusterblast-1_q28_7_6"  />
<polygon style="stroke:black; stroke-width:1; fill:rgb(63,190,190); " description="unannotated orf[br]Location: 44702 - 45994" locus_tag="CHAFR746836_0097940.1" class="clusterblast-orf" points="394,35 399,30 407,30 407,40 399,40 394,35 " id="clusterblast-1_q28_7_7"  />
<polygon style="stroke:black; stroke-width:1; fill:rgb(63,63,63); " description="unannotated orf[br]Location: 47339 - 48596" locus_tag="CHAFR746836_0097950.1" class="clusterblast-orf" points="420,35 425,30 433,30 433,40 425,40 420,35 " id="clusterblast-1_q28_7_8"  />
<polygon style="stroke:black; stroke-width:1; fill:#FFFFFF; " description="unannotated orf[br]Location: 51399 - 52845" locus_tag="CHAFR746836_0097960.1" class="clusterblast-orf" points="461,35 466,30 476,30 476,40 466,40 461,35 " id="clusterblast-1_q28_7_9"  />
<polygon style="stroke:black; stroke-width:1; fill:#FFFFFF; " description="unannotated orf[br]Location: 70832 - 71924" locus_tag="CHAFR746836_0097970.1" class="clusterblast-orf" points="656,40 662,40 667,35 662,30 656,30 656,40 " id="clusterblast-1_q28_7_10"  />
<polygon style="stroke:black; stroke-width:1; fill:#FFFFFF; " description="unannotated orf[br]Location: 74856 - 75574" locus_tag="CHAFR746836_0097980.1" class="clusterblast-orf" points="697,40 699,40 704,35 699,30 697,30 697,40 " id="clusterblast-1_q28_7_11"  />
<polygon style="stroke:black; stroke-width:1; fill:#FFFFFF; " description="unannotated orf[br]Location: 80903 - 82884" locus_tag="CHAFR746836_0097990.1" class="clusterblast-orf" points="758,35 763,30 778,30 778,40 763,40 758,35 " id="clusterblast-1_q28_7_12"  />
</g>
<g class="clusterblast-cluster" description="Metarhizium anisopliae ARSEF 23 unplaced genomic scaffold Sc..." label="GL698734.1_c1"  >
<text class="clusterblast-acc" y="60" x="5"  >
GL698734.1_c1</text>
<text class="clusterblast-desc" y="60" x="460.8"  >
Metarhizium anisopliae ARSEF 23 unplaced genomic scaffold Sc...</text>
<line y1="85" x2="778.0" style="stroke:grey; stroke-width:1; " x1="10" y2="85"  />
<polygon style="stroke:black; stroke-width:1; fill:#FFFFFF; " description="FAD_binding_domain_protein[br]Location: 167962 - 169683" locus_tag="MAA_08511" id="clusterblast-1_h28_7_0" points="157,90 169,90 174,85 169,80 157,80 157,90 " class="clusterblast-orf"  />
<polygon style="stroke:black; stroke-width:1; fill:#FFFFFF; " description="IQ_calmodulin-binding_motif_protein[br]Location: 170154 - 172049" locus_tag="MAA_08512" id="clusterblast-1_h28_7_1" points="179,90 193,90 198,85 193,80 179,80 179,90 " class="clusterblast-orf"  />
<polygon style="stroke:black; stroke-width:1; fill:#FFFFFF; " description="SAM_dependent_carboxyl_methyltransferase_family[br]Location: 175418 - 176561" locus_tag="MAA_08513" id="clusterblast-1_h28_7_2" points="231,85 236,80 243,80 243,90 236,90 231,85 " class="clusterblast-orf"  />
<polygon style="stroke:black; stroke-width:1; fill:#FFFFFF; " description="putative_P450_monooxygenase[br]Location: 176954 - 178614" locus_tag="MAA_08514" id="clusterblast-1_h28_7_3" points="247,85 252,80 264,80 264,90 252,90 247,85 " class="clusterblast-orf"  />
<polygon style="stroke:black; stroke-width:1; fill:#FFFFFF; " description="betaine_aldehyde_dehydrogenase_1[br]Location: 178925 - 180751" locus_tag="MAA_08515" id="clusterblast-1_h28_7_4" points="267,85 272,80 285,80 285,90 272,90 267,85 " class="clusterblast-orf"  />
<polygon style="stroke:black; stroke-width:1; fill:#FFFFFF; " description="major_facilitator_superfamily_protein[br]Location: 181320 - 182966" locus_tag="MAA_08516" id="clusterblast-1_h28_7_5" points="291,85 296,80 307,80 307,90 296,90 291,85 " class="clusterblast-orf"  />
<polygon style="stroke:black; stroke-width:1; fill:#FFFFFF; " description="integral_membrane_protein,_putative[br]Location: 183338 - 183727" locus_tag="MAA_08517" id="clusterblast-1_h28_7_6" points="311,90 315,85 311,80 311,90 " class="clusterblast-orf"  />
<polygon style="stroke:black; stroke-width:1; fill:rgb(190,190,190); " description="hybrid_PKS-NRPS_protein[br]Location: 184393 - 196258&lt;br&gt;&lt;br&gt;&lt;b&gt;BlastP hit with CHAFR746836_0097930.1&lt;/b&gt;&lt;br&gt;Percentage identity: 38%&lt;br&gt;Percentage coverage: 63%&lt;br&gt;BLAST bit score: 1647&lt;br&gt;E-value: 0.0" locus_tag="MAA_08518" id="clusterblast-1_h28_7_7" points="322,85 327,80 441,80 441,90 327,90 322,85 " class="clusterblast-orf"  />
<polygon style="stroke:black; stroke-width:1; fill:rgb(190,190,63); " description="alpha/beta_hydrolase[br]Location: 196669 - 197949&lt;br&gt;&lt;br&gt;&lt;b&gt;BlastP hit with CHAFR746836_0097920.1&lt;/b&gt;&lt;br&gt;Percentage identity: 41%&lt;br&gt;Percentage coverage: 99%&lt;br&gt;BLAST bit score: 338&lt;br&gt;E-value: 1e-110" locus_tag="MAA_08519" id="clusterblast-1_h28_7_8" points="445,90 453,90 458,85 453,80 445,80 445,90 " class="clusterblast-orf"  />
<polygon style="stroke:black; stroke-width:1; fill:#FFFFFF; " description="eEF-1B_gamma_subunit-like_protein[br]Location: 198413 - 199151" locus_tag="MAA_08520" id="clusterblast-1_h28_7_9" points="462,90 465,90 470,85 465,80 462,80 462,90 " class="clusterblast-orf"  />
<polygon style="stroke:black; stroke-width:1; fill:#FFFFFF; " description="eukaryotic_aspartyl_protease[br]Location: 199721 - 201031" locus_tag="MAA_08521" id="clusterblast-1_h28_7_10" points="476,85 481,80 489,80 489,90 481,90 476,85 " class="clusterblast-orf"  />
<polygon style="stroke:black; stroke-width:1; fill:#FFFFFF; " description="ankyrin_repeat_protein[br]Location: 202250 - 207928" locus_tag="MAA_08522" id="clusterblast-1_h28_7_11" points="501,85 506,80 558,80 558,90 506,90 501,85 " class="clusterblast-orf"  />
<polygon style="stroke:black; stroke-width:1; fill:#FFFFFF; " description="Monophenol_monooxygenase[br]Location: 210348 - 213164" locus_tag="MAA_08523" id="clusterblast-1_h28_7_12" points="582,90 606,90 611,85 606,80 582,80 582,90 " class="clusterblast-orf"  />
<polygon style="stroke:black; stroke-width:1; fill:#FFFFFF; " description="nitroreductase_family_protein[br]Location: 214441 - 215143" locus_tag="MAA_08524" id="clusterblast-1_h28_7_13" points="623,90 625,90 630,85 625,80 623,80 623,90 " class="clusterblast-orf"  />
</g>
</svg>
