<svg xmlns="http://www.w3.org/2000/svg" height="230" width="800" version="1.1" y="0" x="0" preserveAspectRatio="none" xmlns:xlink="http://www.w3.org/1999/xlink" viewBox="0 0 800 230"  >
<g class="clusterblast-cluster" label="Query sequence"  >
<text class="clusterblast-acc" y="10" x="5"  >
Query sequence</text>
<line y1="35" x2="778.0" style="stroke:grey; stroke-width:1; " x1="10" y2="35"  />
<polygon style="stroke:black; stroke-width:1; fill:#FFFFFF; " description="unannotated orf[br]Location: 526 - 1764" locus_tag="CHAFR746836_0049830.1" class="clusterblast-orf" points="24,35 29,30 43,30 43,40 29,40 24,35 " id="clusterblast-1_q61_5_0"  />
<polygon style="stroke:black; stroke-width:1; fill:#FFFFFF; " description="unannotated orf[br]Location: 2667 - 6069" locus_tag="CHAFR746836_0049840.1" class="clusterblast-orf" points="57,40 106,40 111,35 106,30 57,30 57,40 " id="clusterblast-1_q61_5_1"  />
<polygon style="stroke:black; stroke-width:1; fill:#FFFFFF; " description="unannotated orf[br]Location: 8378 - 11086" locus_tag="CHAFR746836_0049850.1" class="clusterblast-orf" points="147,35 152,30 189,30 189,40 152,40 147,35 " id="clusterblast-1_q61_5_2"  />
<polygon style="stroke:black; stroke-width:1; fill:red; " description="unannotated orf[br]Location: 12115 - 13475" locus_tag="CHAFR746836_0049860.1" class="clusterblast-orf" points="205,40 222,40 227,35 222,30 205,30 205,40 " id="clusterblast-1_q61_5_3"  />
<polygon style="stroke:black; stroke-width:1; fill:#FFFFFF; " description="unannotated orf[br]Location: 17223 - 18472" locus_tag="CHAFR746836_0049870.1" class="clusterblast-orf" points="286,40 300,40 305,35 300,30 286,30 286,40 " id="clusterblast-1_q61_5_4"  />
<polygon style="stroke:black; stroke-width:1; fill:#FFFFFF; " description="unannotated orf[br]Location: 19776 - 20599" locus_tag="CHAFR746836_0049880.1" class="clusterblast-orf" points="326,35 331,30 339,30 339,40 331,40 326,35 " id="clusterblast-1_q61_5_5"  />
<polygon style="stroke:black; stroke-width:1; fill:green; " description="unannotated orf[br]Location: 21414 - 28833" locus_tag="CHAFR746836_0049890.1" class="clusterblast-orf" points="351,35 356,30 468,30 468,40 356,40 351,35 " id="clusterblast-1_q61_5_6"  />
<polygon style="stroke:black; stroke-width:1; fill:blue; " description="unannotated orf[br]Location: 33502 - 34522" locus_tag="CHAFR746836_0049900.1" class="clusterblast-orf" points="541,40 552,40 557,35 552,30 541,30 541,40 " id="clusterblast-1_q61_5_7"  />
<polygon style="stroke:black; stroke-width:1; fill:#FFFFFF; " description="unannotated orf[br]Location: 35396 - 36560" locus_tag="CHAFR746836_0049910.1" class="clusterblast-orf" points="571,35 576,30 589,30 589,40 576,40 571,35 " id="clusterblast-1_q61_5_8"  />
<polygon style="stroke:black; stroke-width:1; fill:#FFFFFF; " description="unannotated orf[br]Location: 43480 - 44101" locus_tag="CHAFR746836_0049920.1" class="clusterblast-orf" points="698,35 703,30 708,30 708,40 703,40 698,35 " id="clusterblast-1_q61_5_9"  />
<polygon style="stroke:black; stroke-width:1; fill:#FFFFFF; " description="unannotated orf[br]Location: 46657 - 47620" locus_tag="CHAFR746836_0049930.1" class="clusterblast-orf" points="748,35 753,30 763,30 763,40 753,40 748,35 " id="clusterblast-1_q61_5_10"  />
</g>
<g class="clusterblast-cluster" description="Trichoderma reesei QM6a unplaced genomic scaffold TRIREscaff..." label="GL985061.1_c3"  >
<text class="clusterblast-acc" y="60" x="5"  >
GL985061.1_c3</text>
<text class="clusterblast-desc" y="60" x="460.8"  >
Trichoderma reesei QM6a unplaced genomic scaffold TRIREscaff...</text>
<line y1="85" x2="778.0" style="stroke:grey; stroke-width:1; " x1="10" y2="85"  />
<polygon style="stroke:black; stroke-width:1; fill:#FFFFFF; " description="predicted_protein[br]Location: 514286 - 516064" locus_tag="TRIREDRAFT_26994" id="clusterblast-1_h61_5_0" points="10,90 32,90 37,85 32,80 10,80 10,90 " class="clusterblast-orf"  />
<polygon style="stroke:black; stroke-width:1; fill:#FFFFFF; " description="predicted_protein[br]Location: 512920 - 513568" locus_tag="TRIREDRAFT_121163" id="clusterblast-1_h61_5_1" points="49,85 54,80 59,80 59,90 54,90 49,85 " class="clusterblast-orf"  />
<polygon style="stroke:black; stroke-width:1; fill:#FFFFFF; " description="glycoside_hydrolase_family_20[br]Location: 509949 - 512211" locus_tag="TRIREDRAFT_105931" id="clusterblast-1_h61_5_2" points="70,85 75,80 105,80 105,90 75,90 70,85 " class="clusterblast-orf"  />
<polygon style="stroke:black; stroke-width:1; fill:#FFFFFF; " description="predicted_protein[br]Location: 504033 - 506795" locus_tag="TRIREDRAFT_35726" id="clusterblast-1_h61_5_3" points="155,90 193,90 198,85 193,80 155,80 155,90 " class="clusterblast-orf"  />
<polygon style="stroke:black; stroke-width:1; fill:#FFFFFF; " description="predicted_protein[br]Location: 502741 - 503205" locus_tag="TRIREDRAFT_59151" id="clusterblast-1_h61_5_4" points="211,85 216,80 219,80 219,90 216,90 211,85 " class="clusterblast-orf"  />
<polygon style="stroke:black; stroke-width:1; fill:#FFFFFF; " description="predicted_protein[br]Location: 500672 - 501274" locus_tag="TRIREDRAFT_59759" id="clusterblast-1_h61_5_5" points="242,85 247,80 251,80 251,90 247,90 242,85 " class="clusterblast-orf"  />
<polygon style="stroke:black; stroke-width:1; fill:green; " description="polyketide_synthase[br]Location: 489709 - 496750&lt;br&gt;&lt;br&gt;&lt;b&gt;BlastP hit with CHAFR746836_0049890.1&lt;/b&gt;&lt;br&gt;Percentage identity: 48%&lt;br&gt;Percentage coverage: 90%&lt;br&gt;BLAST bit score: 1927&lt;br&gt;E-value: 0.0" locus_tag="TRIREDRAFT_59482" id="clusterblast-1_h61_5_6" points="313,85 318,80 423,80 423,90 318,90 313,85 " class="clusterblast-orf"  />
<polygon style="stroke:black; stroke-width:1; fill:blue; " description="hypothetical_protein[br]Location: 486801 - 487766&lt;br&gt;&lt;br&gt;&lt;b&gt;BlastP hit with CHAFR746836_0049900.1&lt;/b&gt;&lt;br&gt;Percentage identity: 46%&lt;br&gt;Percentage coverage: 96%&lt;br&gt;BLAST bit score: 222&lt;br&gt;E-value: 3e-70" locus_tag="TRIREDRAFT_59368" id="clusterblast-1_h61_5_7" points="454,90 464,90 469,85 464,80 454,80 454,90 " class="clusterblast-orf"  />
<polygon style="stroke:black; stroke-width:1; fill:#FFFFFF; " description="glycosyltransferase_family_1[br]Location: 484124 - 485739" locus_tag="TRIREDRAFT_105924" id="clusterblast-1_h61_5_8" points="486,90 506,90 511,85 506,80 486,80 486,90 " class="clusterblast-orf"  />
<polygon style="stroke:black; stroke-width:1; fill:#FFFFFF; " description="predicted_protein[br]Location: 472904 - 474067" locus_tag="TRIREDRAFT_76734" id="clusterblast-1_h61_5_9" points="669,90 682,90 687,85 682,80 669,80 669,90 " class="clusterblast-orf"  />
<polygon style="stroke:black; stroke-width:1; fill:#FFFFFF; " description="vesicular_transport_protein[br]Location: 467138 - 470596" locus_tag="TRIREDRAFT_59435" id="clusterblast-1_h61_5_10" points="723,85 728,80 778,80 778,90 728,90 723,85 " class="clusterblast-orf"  />
</g>
</svg>
