<svg xmlns="http://www.w3.org/2000/svg" height="230" width="800" version="1.1" y="0" x="0" preserveAspectRatio="none" xmlns:xlink="http://www.w3.org/1999/xlink" viewBox="0 0 800 230"  >
<g class="clusterblast-cluster" label="Query sequence"  >
<text class="clusterblast-acc" y="10" x="5"  >
Query sequence</text>
<line y1="35" x2="778.0" style="stroke:grey; stroke-width:1; " x1="10" y2="35"  />
<polygon style="stroke:black; stroke-width:1; fill:rgb(169,42,42); " description="unannotated orf[br]Location: 62218 - 64265" locus_tag="CHAFR746836_0054410.1" class="clusterblast-orf" points="10,40 19,40 24,35 19,30 10,30 10,40 " id="clusterblast-1_q1_8_0"  />
<polygon style="stroke:black; stroke-width:1; fill:#FFFFFF; " description="unannotated orf[br]Location: 64981 - 65489" locus_tag="CHAFR746836_0054420.1" class="clusterblast-orf" points="29,40 33,35 29,30 29,40 " id="clusterblast-1_q1_8_1"  />
<polygon style="stroke:black; stroke-width:1; fill:#FFFFFF; " description="unannotated orf[br]Location: 80166 - 81468" locus_tag="CHAFR746836_0054430.1" class="clusterblast-orf" points="136,40 140,40 145,35 140,30 136,30 136,40 " id="clusterblast-1_q1_8_2"  />
<polygon style="stroke:black; stroke-width:1; fill:#FFFFFF; " description="unannotated orf[br]Location: 84860 - 87066" locus_tag="CHAFR746836_0054440.1" class="clusterblast-orf" points="169,40 180,40 185,35 180,30 169,30 169,40 " id="clusterblast-1_q1_8_3"  />
<polygon style="stroke:black; stroke-width:1; fill:rgb(42,169,42); " description="unannotated orf[br]Location: 87538 - 88972" locus_tag="CHAFR746836_0054450.1" class="clusterblast-orf" points="188,40 194,40 199,35 194,30 188,30 188,40 " id="clusterblast-1_q1_8_4"  />
<polygon style="stroke:black; stroke-width:1; fill:rgb(42,169,212); " description="unannotated orf[br]Location: 97154 - 98501" locus_tag="CHAFR746836_0054460.1" class="clusterblast-orf" points="256,35 261,30 266,30 266,40 261,40 256,35 " id="clusterblast-1_q1_8_5"  />
<polygon style="stroke:black; stroke-width:1; fill:#FFFFFF; " description="unannotated orf[br]Location: 108188 - 110019" locus_tag="CHAFR746836_0054470.1" class="clusterblast-orf" points="334,40 342,40 347,35 342,30 334,30 334,40 " id="clusterblast-1_q1_8_6"  />
<polygon style="stroke:black; stroke-width:1; fill:rgb(169,169,42); " description="unannotated orf[br]Location: 111553 - 112688" locus_tag="CHAFR746836_0054480.1" class="clusterblast-orf" points="358,35 363,30 366,30 366,40 363,40 358,35 " id="clusterblast-1_q1_8_7"  />
<polygon style="stroke:black; stroke-width:1; fill:rgb(169,42,127); " description="unannotated orf[br]Location: 113347 - 114741" locus_tag="CHAFR746836_0054490.1" class="clusterblast-orf" points="371,40 376,40 381,35 376,30 371,30 371,40 " id="clusterblast-1_q1_8_8"  />
<polygon style="stroke:black; stroke-width:1; fill:rgb(42,42,212); " description="unannotated orf[br]Location: 114954 - 116913" locus_tag="CHAFR746836_0054500.1" class="clusterblast-orf" points="382,35 387,30 396,30 396,40 387,40 382,35 " id="clusterblast-1_q1_8_9"  />
<polygon style="stroke:black; stroke-width:1; fill:rgb(169,169,212); " description="unannotated orf[br]Location: 128349 - 129215" locus_tag="CHAFR746836_0054510.1" class="clusterblast-orf" points="477,35 482,30 483,30 483,40 482,40 477,35 " id="clusterblast-1_q1_8_10"  />
<polygon style="stroke:black; stroke-width:1; fill:#FFFFFF; " description="unannotated orf[br]Location: 131482 - 134522" locus_tag="CHAFR746836_0054520.1" class="clusterblast-orf" points="499,35 504,30 520,30 520,40 504,40 499,35 " id="clusterblast-1_q1_8_11"  />
<polygon style="stroke:black; stroke-width:1; fill:rgb(42,169,127); " description="unannotated orf[br]Location: 135952 - 139193" locus_tag="CHAFR746836_0054530.1" class="clusterblast-orf" points="530,35 535,30 553,30 553,40 535,40 530,35 " id="clusterblast-1_q1_8_12"  />
<polygon style="stroke:black; stroke-width:1; fill:#FFFFFF; " description="unannotated orf[br]Location: 139580 - 146566" locus_tag="CHAFR746836_0054540.1" class="clusterblast-orf" points="556,35 561,30 605,30 605,40 561,40 556,35 " id="clusterblast-1_q1_8_13"  />
<polygon style="stroke:black; stroke-width:1; fill:#FFFFFF; " description="unannotated orf[br]Location: 150095 - 150570" locus_tag="CHAFR746836_0054550.1" class="clusterblast-orf" points="630,40 634,35 630,30 630,40 " id="clusterblast-1_q1_8_14"  />
<polygon style="stroke:black; stroke-width:1; fill:#FFFFFF; " description="unannotated orf[br]Location: 151645 - 154018" locus_tag="CHAFR746836_0054560.1" class="clusterblast-orf" points="641,40 653,40 658,35 653,30 641,30 641,40 " id="clusterblast-1_q1_8_15"  />
<polygon style="stroke:black; stroke-width:1; fill:rgb(169,42,212); " description="unannotated orf[br]Location: 155657 - 156954" locus_tag="CHAFR746836_0054570.1" class="clusterblast-orf" points="670,40 674,40 679,35 674,30 670,30 670,40 " id="clusterblast-1_q1_8_16"  />
<polygon style="stroke:black; stroke-width:1; fill:#FFFFFF; " description="unannotated orf[br]Location: 161927 - 163454" locus_tag="CHAFR746836_0054580.1" class="clusterblast-orf" points="714,40 720,40 725,35 720,30 714,30 714,40 " id="clusterblast-1_q1_8_17"  />
<polygon style="stroke:black; stroke-width:1; fill:#FFFFFF; " description="unannotated orf[br]Location: 165596 - 167549" locus_tag="CHAFR746836_0054590.1" class="clusterblast-orf" points="740,35 745,30 754,30 754,40 745,40 740,35 " id="clusterblast-1_q1_8_18"  />
<polygon style="stroke:black; stroke-width:1; fill:#FFFFFF; " description="unannotated orf[br]Location: 170397 - 170926" locus_tag="CHAFR746836_0054600.1" class="clusterblast-orf" points="774,35 778,30 778,40 774,35 " id="clusterblast-1_q1_8_19"  />
</g>
<g class="clusterblast-cluster" description="Aspergillus niger ATCC 1015, whole genome shotgun sequen..." label="ACJE01000019.1_c9"  >
<text class="clusterblast-acc" y="60" x="5"  >
ACJE01000019.1_c9</text>
<text class="clusterblast-desc" y="60" x="460.8"  >
Aspergillus niger ATCC 1015, whole genome shotgun sequen...</text>
<line y1="85" x2="778.0" style="stroke:grey; stroke-width:1; " x1="10" y2="85"  />
<polygon style="stroke:black; stroke-width:1; fill:#FFFFFF; " description="hypothetical_protein[br]Location: 2417277 - 2419624" locus_tag="ASPNIDRAFT_209058" id="clusterblast-1_h1_8_0" points="216,85 221,80 232,80 232,90 221,90 216,85 " class="clusterblast-orf"  />
<polygon style="stroke:black; stroke-width:1; fill:rgb(42,169,212); " description="hypothetical_protein[br]Location: 2413127 - 2414115&lt;br&gt;&lt;br&gt;&lt;b&gt;BlastP hit with CHAFR746836_0054460.1&lt;/b&gt;&lt;br&gt;Percentage identity: 64%&lt;br&gt;Percentage coverage: 63%&lt;br&gt;BLAST bit score: 407&lt;br&gt;E-value: 7e-139" locus_tag="ASPNIDRAFT_56053" id="clusterblast-1_h1_8_1" points="254,85 259,80 261,80 261,90 259,90 254,85 " class="clusterblast-orf"  />
<polygon style="stroke:black; stroke-width:1; fill:rgb(42,169,42); " description="hypothetical_protein[br]Location: 2410338 - 2411878&lt;br&gt;&lt;br&gt;&lt;b&gt;BlastP hit with CHAFR746836_0054450.1&lt;/b&gt;&lt;br&gt;Percentage identity: 51%&lt;br&gt;Percentage coverage: 101%&lt;br&gt;BLAST bit score: 437&lt;br&gt;E-value: 7e-148" locus_tag="ASPNIDRAFT_179814" id="clusterblast-1_h1_8_2" points="270,90 276,90 281,85 276,80 270,80 270,90 " class="clusterblast-orf"  />
<polygon style="stroke:black; stroke-width:1; fill:rgb(169,42,212); " description="hypothetical_protein[br]Location: 2408215 - 2409465&lt;br&gt;&lt;br&gt;&lt;b&gt;BlastP hit with CHAFR746836_0054570.1&lt;/b&gt;&lt;br&gt;Percentage identity: 69%&lt;br&gt;Percentage coverage: 97%&lt;br&gt;BLAST bit score: 546&lt;br&gt;E-value: 0.0" locus_tag="ASPNIDRAFT_209050" id="clusterblast-1_h1_8_3" points="287,85 292,80 296,80 296,90 292,90 287,85 " class="clusterblast-orf"  />
<polygon style="stroke:black; stroke-width:1; fill:#FFFFFF; " description="hypothetical_protein[br]Location: 2405576 - 2407581" locus_tag="ASPNIDRAFT_120691" id="clusterblast-1_h1_8_4" points="301,85 306,80 315,80 315,90 306,90 301,85 " class="clusterblast-orf"  />
<polygon style="stroke:black; stroke-width:1; fill:#FFFFFF; " description="hypothetical_protein[br]Location: 2402511 - 2404310" locus_tag="ASPNIDRAFT_179623" id="clusterblast-1_h1_8_5" points="324,90 331,90 336,85 331,80 324,80 324,90 " class="clusterblast-orf"  />
<polygon style="stroke:black; stroke-width:1; fill:#FFFFFF; " description="hypothetical_protein[br]Location: 2397984 - 2401481" locus_tag="ASPNIDRAFT_39432" id="clusterblast-1_h1_8_6" points="344,85 349,80 368,80 368,90 349,90 344,85 " class="clusterblast-orf"  />
<polygon style="stroke:black; stroke-width:1; fill:#FFFFFF; " description="hypothetical_protein[br]Location: 2390151 - 2397541" locus_tag="ASPNIDRAFT_118629" id="clusterblast-1_h1_8_7" points="372,85 377,80 424,80 424,90 377,90 372,85 " class="clusterblast-orf"  />
<polygon style="stroke:black; stroke-width:1; fill:#FFFFFF; " description="hypothetical_protein[br]Location: 2386963 - 2388732" locus_tag="ASPNIDRAFT_53054" id="clusterblast-1_h1_8_8" points="434,90 441,90 446,85 441,80 434,80 434,90 " class="clusterblast-orf"  />
<polygon style="stroke:black; stroke-width:1; fill:#FFFFFF; " description="hypothetical_protein[br]Location: 2384999 - 2386663" locus_tag="ASPNIDRAFT_53053" id="clusterblast-1_h1_8_9" points="448,85 453,80 460,80 460,90 453,90 448,85 " class="clusterblast-orf"  />
<polygon style="stroke:black; stroke-width:1; fill:#FFFFFF; " description="hypothetical_protein[br]Location: 2382164 - 2383843" locus_tag="ASPNIDRAFT_56049" id="clusterblast-1_h1_8_10" points="468,90 475,90 480,85 475,80 468,80 468,90 " class="clusterblast-orf"  />
<polygon style="stroke:black; stroke-width:1; fill:#FFFFFF; " description="dihydrofolate_reductase[br]Location: 2381179 - 2381961" locus_tag="ASPNIDRAFT_178578" id="clusterblast-1_h1_8_11" points="482,85 487,80 487,80 487,90 487,90 482,85 " class="clusterblast-orf"  />
<polygon style="stroke:black; stroke-width:1; fill:#FFFFFF; " description="hypothetical_protein[br]Location: 2379683 - 2380007" locus_tag="ASPNIDRAFT_179599" id="clusterblast-1_h1_8_12" points="495,85 498,80 498,90 495,85 " class="clusterblast-orf"  />
<polygon style="stroke:black; stroke-width:1; fill:#FFFFFF; " description="hypothetical_protein[br]Location: 2377184 - 2378806" locus_tag="ASPNIDRAFT_39426" id="clusterblast-1_h1_8_13" points="504,85 509,80 515,80 515,90 509,90 504,85 " class="clusterblast-orf"  />
<polygon style="stroke:black; stroke-width:1; fill:#FFFFFF; " description="hypothetical_protein[br]Location: 2374607 - 2375849" locus_tag="ASPNIDRAFT_209032" id="clusterblast-1_h1_8_14" points="525,85 530,80 534,80 534,90 530,90 525,85 " class="clusterblast-orf"  />
<polygon style="stroke:black; stroke-width:1; fill:#FFFFFF; " description="hypothetical_protein[br]Location: 2372343 - 2373139" locus_tag="ASPNIDRAFT_209029" id="clusterblast-1_h1_8_15" points="544,90 545,90 550,85 545,80 544,80 544,90 " class="clusterblast-orf"  />
<polygon style="stroke:black; stroke-width:1; fill:#FFFFFF; " description="Hypothetical_protein[br]Location: 2370933 - 2371814" locus_tag="ASPNIDRAFT_179332" id="clusterblast-1_h1_8_16" points="553,90 554,90 559,85 554,80 553,80 553,90 " class="clusterblast-orf"  />
<polygon style="stroke:black; stroke-width:1; fill:#FFFFFF; " description="hypothetical_protein[br]Location: 2369461 - 2370454" locus_tag="ASPNIDRAFT_53049" id="clusterblast-1_h1_8_17" points="563,85 568,80 570,80 570,90 568,90 563,85 " class="clusterblast-orf"  />
</g>
</svg>
