<svg xmlns="http://www.w3.org/2000/svg" height="230" width="800" version="1.1" y="0" x="0" preserveAspectRatio="none" xmlns:xlink="http://www.w3.org/1999/xlink" viewBox="0 0 800 230"  >
<g class="clusterblast-cluster" label="Query sequence"  >
<text class="clusterblast-acc" y="10" x="5"  >
Query sequence</text>
<line y1="35" x2="778.0" style="stroke:grey; stroke-width:1; " x1="10" y2="35"  />
<polygon style="stroke:black; stroke-width:1; fill:#FFFFFF; " description="unannotated orf[br]Location: 215284 - 216006" locus_tag="CHAFR746836_0067220.1" class="clusterblast-orf" points="86,40 94,40 99,35 94,30 86,30 86,40 " id="clusterblast-1_q7_1_0"  />
<polygon style="stroke:black; stroke-width:1; fill:#FFFFFF; " description="unannotated orf[br]Location: 224693 - 224914" locus_tag="CHAFR746836_0067230.1" class="clusterblast-orf" points="257,35 261,30 261,40 257,35 " id="clusterblast-1_q7_1_1"  />
<polygon style="stroke:black; stroke-width:1; fill:red; " description="unannotated orf[br]Location: 228611 - 236326" locus_tag="CHAFR746836_0067240.1" class="clusterblast-orf" points="329,35 334,30 470,30 470,40 334,40 329,35 " id="clusterblast-1_q7_1_2"  />
<polygon style="stroke:black; stroke-width:1; fill:green; " description="unannotated orf[br]Location: 237740 - 238731" locus_tag="CHAFR746836_0067250.1" class="clusterblast-orf" points="496,40 509,40 514,35 509,30 496,30 496,40 " id="clusterblast-1_q7_1_3"  />
<polygon style="stroke:black; stroke-width:1; fill:blue; " description="unannotated orf[br]Location: 238911 - 240394" locus_tag="CHAFR746836_0067260.1" class="clusterblast-orf" points="517,35 522,30 544,30 544,40 522,40 517,35 " id="clusterblast-1_q7_1_4"  />
<polygon style="stroke:black; stroke-width:1; fill:yellow; " description="unannotated orf[br]Location: 240782 - 242473" locus_tag="CHAFR746836_0067270.1" class="clusterblast-orf" points="551,35 556,30 582,30 582,40 556,40 551,35 " id="clusterblast-1_q7_1_5"  />
<polygon style="stroke:black; stroke-width:1; fill:#FFFFFF; " description="unannotated orf[br]Location: 242970 - 243933" locus_tag="CHAFR746836_0067280.1" class="clusterblast-orf" points="591,40 604,40 609,35 604,30 591,30 591,40 " id="clusterblast-1_q7_1_6"  />
<polygon style="stroke:black; stroke-width:1; fill:#FFFFFF; " description="unannotated orf[br]Location: 244594 - 245945" locus_tag="CHAFR746836_0067290.1" class="clusterblast-orf" points="621,40 641,40 646,35 641,30 621,30 621,40 " id="clusterblast-1_q7_1_7"  />
<polygon style="stroke:black; stroke-width:1; fill:#FFFFFF; " description="unannotated orf[br]Location: 246456 - 248994" locus_tag="CHAFR746836_0067300.1" class="clusterblast-orf" points="655,40 696,40 701,35 696,30 655,30 655,40 " id="clusterblast-1_q7_1_8"  />
</g>
<g class="clusterblast-cluster" description="Mycosphaerella graminicola IPO323 chromosome 10, whole genom..." label="CM001205.1_c2"  >
<text class="clusterblast-acc" y="60" x="5"  >
CM001205.1_c2</text>
<text class="clusterblast-desc" y="60" x="460.8"  >
Mycosphaerella graminicola IPO323 chromosome 10, whole genom...</text>
<line y1="85" x2="778.0" style="stroke:grey; stroke-width:1; " x1="10" y2="85"  />
<polygon style="stroke:black; stroke-width:1; fill:#FFFFFF; " description="hypothetical_protein[br]Location: 1433970 - 1434464" locus_tag="MYCGRDRAFT_96389" id="clusterblast-1_h7_1_0" points="10,90 14,90 19,85 14,80 10,80 10,90 " class="clusterblast-orf"  />
<polygon style="stroke:black; stroke-width:1; fill:#FFFFFF; " description="hypothetical_protein[br]Location: 1435059 - 1435817" locus_tag="MYCGRDRAFT_76564" id="clusterblast-1_h7_1_1" points="29,85 34,80 43,80 43,90 34,90 29,85 " class="clusterblast-orf"  />
<polygon style="stroke:black; stroke-width:1; fill:#FFFFFF; " description="hypothetical_protein[br]Location: 1436178 - 1437155" locus_tag="MYCGRDRAFT_63387" id="clusterblast-1_h7_1_2" points="50,85 55,80 68,80 68,90 55,90 50,85 " class="clusterblast-orf"  />
<polygon style="stroke:black; stroke-width:1; fill:#FFFFFF; " description="putative_P450_monooxygenase[br]Location: 1437567 - 1439416" locus_tag="MYCGRDRAFT_48855" id="clusterblast-1_h7_1_3" points="75,85 80,80 109,80 109,90 80,90 75,85 " class="clusterblast-orf"  />
<polygon style="stroke:black; stroke-width:1; fill:yellow; " description="putative_major_facilitator_superfamily[br]Location: 1440011 - 1441659&lt;br&gt;&lt;br&gt;&lt;b&gt;BlastP hit with CHAFR746836_0067270.1&lt;/b&gt;&lt;br&gt;Percentage identity: 41%&lt;br&gt;Percentage coverage: 96%&lt;br&gt;BLAST bit score: 364&lt;br&gt;E-value: 2e-117" locus_tag="MYCGRDRAFT_76570" id="clusterblast-1_h7_1_4" points="120,90 145,90 150,85 145,80 120,80 120,90 " class="clusterblast-orf"  />
<polygon style="stroke:black; stroke-width:1; fill:blue; " description="5-aminolevulinate_synthase[br]Location: 1442061 - 1443747&lt;br&gt;&lt;br&gt;&lt;b&gt;BlastP hit with CHAFR746836_0067260.1&lt;/b&gt;&lt;br&gt;Percentage identity: 52%&lt;br&gt;Percentage coverage: 98%&lt;br&gt;BLAST bit score: 504&lt;br&gt;E-value: 2e-174" locus_tag="MYCGRDRAFT_48965" id="clusterblast-1_h7_1_5" points="157,85 162,80 188,80 188,90 162,90 157,85 " class="clusterblast-orf"  />
<polygon style="stroke:black; stroke-width:1; fill:green; " description="hypothetical_protein[br]Location: 1444870 - 1445821&lt;br&gt;&lt;br&gt;&lt;b&gt;BlastP hit with CHAFR746836_0067250.1&lt;/b&gt;&lt;br&gt;Percentage identity: 48%&lt;br&gt;Percentage coverage: 82%&lt;br&gt;BLAST bit score: 248&lt;br&gt;E-value: 3e-79" locus_tag="MYCGRDRAFT_48819" id="clusterblast-1_h7_1_6" points="209,90 221,90 226,85 221,80 209,80 209,90 " class="clusterblast-orf"  />
<polygon style="stroke:black; stroke-width:1; fill:#FFFFFF; " description="serine_palmitoyl_CoA_transferase_subunit_LcbA[br]Location: 1445965 - 1447668" locus_tag="MYCGRDRAFT_49166" id="clusterblast-1_h7_1_7" points="229,85 234,80 260,80 260,90 234,90 229,85 " class="clusterblast-orf"  />
<polygon style="stroke:black; stroke-width:1; fill:red; " description="polyketide_synthase[br]Location: 1448653 - 1456017&lt;br&gt;&lt;br&gt;&lt;b&gt;BlastP hit with CHAFR746836_0067240.1&lt;/b&gt;&lt;br&gt;Percentage identity: 48%&lt;br&gt;Percentage coverage: 98%&lt;br&gt;BLAST bit score: 2279&lt;br&gt;E-value: 0.0" locus_tag="MYCGRDRAFT_101493" id="clusterblast-1_h7_1_8" points="278,90 407,90 412,85 407,80 278,80 278,90 " class="clusterblast-orf"  />
<polygon style="stroke:black; stroke-width:1; fill:#FFFFFF; " description="putative_P450_monooxygenase[br]Location: 1460785 - 1462504" locus_tag="MYCGRDRAFT_48687" id="clusterblast-1_h7_1_9" points="499,85 504,80 531,80 531,90 504,90 499,85 " class="clusterblast-orf"  />
<polygon style="stroke:black; stroke-width:1; fill:#FFFFFF; " description="hypothetical_protein[br]Location: 1464720 - 1466107" locus_tag="MYCGRDRAFT_76577" id="clusterblast-1_h7_1_10" points="571,90 592,90 597,85 592,80 571,80 571,90 " class="clusterblast-orf"  />
<polygon style="stroke:black; stroke-width:1; fill:#FFFFFF; " description="putative_P450_monooxygenase[br]Location: 1466602 - 1468337" locus_tag="MYCGRDRAFT_76579" id="clusterblast-1_h7_1_11" points="606,90 632,90 637,85 632,80 606,80 606,90 " class="clusterblast-orf"  />
<polygon style="stroke:black; stroke-width:1; fill:#FFFFFF; " description="hypothetical_protein[br]Location: 1468719 - 1468967" locus_tag="MYCGRDRAFT_29567" id="clusterblast-1_h7_1_12" points="644,85 649,80 649,80 649,90 649,90 644,85 " class="clusterblast-orf"  />
<polygon style="stroke:black; stroke-width:1; fill:#FFFFFF; " description="hypothetical_protein[br]Location: 1469160 - 1469840" locus_tag="MYCGRDRAFT_49046" id="clusterblast-1_h7_1_13" points="652,90 660,90 665,85 660,80 652,80 652,90 " class="clusterblast-orf"  />
<polygon style="stroke:black; stroke-width:1; fill:#FFFFFF; " description="hypothetical_protein[br]Location: 1470884 - 1471129" locus_tag="MYCGRDRAFT_106026" id="clusterblast-1_h7_1_14" points="684,90 688,85 684,80 684,90 " class="clusterblast-orf"  />
<polygon style="stroke:black; stroke-width:1; fill:#FFFFFF; " description="hypothetical_protein[br]Location: 1473012 - 1474574" locus_tag="MYCGRDRAFT_96400" id="clusterblast-1_h7_1_15" points="723,85 728,80 751,80 751,90 728,90 723,85 " class="clusterblast-orf"  />
<polygon style="stroke:black; stroke-width:1; fill:#FFFFFF; " description="hypothetical_protein[br]Location: 1475101 - 1476009" locus_tag="MYCGRDRAFT_96401" id="clusterblast-1_h7_1_16" points="761,85 766,80 778,80 778,90 766,90 761,85 " class="clusterblast-orf"  />
</g>
</svg>
