<svg xmlns="http://www.w3.org/2000/svg" height="230" width="800" version="1.1" y="0" x="0" preserveAspectRatio="none" xmlns:xlink="http://www.w3.org/1999/xlink" viewBox="0 0 800 230"  >
<g class="clusterblast-cluster" label="Query sequence"  >
<text class="clusterblast-acc" y="10" x="5"  >
Query sequence</text>
<line y1="35" x2="778.0" style="stroke:grey; stroke-width:1; " x1="10" y2="35"  />
<polygon style="stroke:black; stroke-width:1; fill:red; " description="unannotated orf[br]Location: 78016 - 79242" locus_tag="CHAFR746836_0016770.1" class="clusterblast-orf" points="249,35 254,30 271,30 271,40 254,40 249,35 " id="clusterblast-1_q36_6_0"  />
<polygon style="stroke:black; stroke-width:1; fill:green; " description="unannotated orf[br]Location: 81171 - 82179" locus_tag="CHAFR746836_0016780.1" class="clusterblast-orf" points="307,40 320,40 325,35 320,30 307,30 307,40 " id="clusterblast-1_q36_6_1"  />
<polygon style="stroke:black; stroke-width:1; fill:blue; " description="unannotated orf[br]Location: 82820 - 84436" locus_tag="CHAFR746836_0016790.1" class="clusterblast-orf" points="337,40 362,40 367,35 362,30 337,30 337,40 " id="clusterblast-1_q36_6_2"  />
<polygon style="stroke:black; stroke-width:1; fill:#FFFFFF; " description="unannotated orf[br]Location: 86969 - 88192" locus_tag="CHAFR746836_0016800.1" class="clusterblast-orf" points="413,35 418,30 436,30 436,40 418,40 413,35 " id="clusterblast-1_q36_6_3"  />
<polygon style="stroke:black; stroke-width:1; fill:yellow; " description="unannotated orf[br]Location: 89104 - 90705" locus_tag="CHAFR746836_0016810.1" class="clusterblast-orf" points="453,40 477,40 482,35 477,30 453,30 453,40 " id="clusterblast-1_q36_6_4"  />
<polygon style="stroke:black; stroke-width:1; fill:#FFFFFF; " description="unannotated orf[br]Location: 92624 - 93697" locus_tag="CHAFR746836_0016820.1" class="clusterblast-orf" points="517,35 522,30 537,30 537,40 522,40 517,35 " id="clusterblast-1_q36_6_5"  />
</g>
<g class="clusterblast-cluster" description="Trichoderma virens Gv29-8 TRIVIscaffold 3, whole genome ..." label="ABDF02000003.1_c1"  >
<text class="clusterblast-acc" y="60" x="5"  >
ABDF02000003.1_c1</text>
<text class="clusterblast-desc" y="60" x="460.8"  >
Trichoderma virens Gv29-8 TRIVIscaffold 3, whole genome ...</text>
<line y1="85" x2="778.0" style="stroke:grey; stroke-width:1; " x1="10" y2="85"  />
<polygon style="stroke:black; stroke-width:1; fill:#FFFFFF; " description="hypothetical_protein[br]Location: 1029188 - 1030544" locus_tag="TRIVIDRAFT_219158" id="clusterblast-1_h36_6_0" points="10,90 29,90 34,85 29,80 10,80 10,90 " class="clusterblast-orf"  />
<polygon style="stroke:black; stroke-width:1; fill:#FFFFFF; " description="hypothetical_protein[br]Location: 1028049 - 1028861" locus_tag="TRIVIDRAFT_215418" id="clusterblast-1_h36_6_1" points="40,85 45,80 55,80 55,90 45,90 40,85 " class="clusterblast-orf"  />
<polygon style="stroke:black; stroke-width:1; fill:#FFFFFF; " description="hypothetical_protein[br]Location: 1026536 - 1026964" locus_tag="TRIVIDRAFT_138325" id="clusterblast-1_h36_6_2" points="75,85 80,80 83,80 83,90 80,90 75,85 " class="clusterblast-orf"  />
<polygon style="stroke:black; stroke-width:1; fill:#FFFFFF; " description="glycosyltransferase_family_50_protein[br]Location: 1024578 - 1025966" locus_tag="TRIVIDRAFT_72492" id="clusterblast-1_h36_6_3" points="94,85 99,80 119,80 119,90 99,90 94,85 " class="clusterblast-orf"  />
<polygon style="stroke:black; stroke-width:1; fill:#FFFFFF; " description="hypothetical_protein[br]Location: 1023151 - 1024069" locus_tag="TRIVIDRAFT_31804" id="clusterblast-1_h36_6_4" points="129,90 141,90 146,85 141,80 129,80 129,90 " class="clusterblast-orf"  />
<polygon style="stroke:black; stroke-width:1; fill:#FFFFFF; " description="hypothetical_protein[br]Location: 1020749 - 1021942" locus_tag="TRIVIDRAFT_25327" id="clusterblast-1_h36_6_5" points="168,85 173,80 190,80 190,90 173,90 168,85 " class="clusterblast-orf"  />
<polygon style="stroke:black; stroke-width:1; fill:#FFFFFF; " description="hypothetical_protein[br]Location: 1019613 - 1020005" locus_tag="TRIVIDRAFT_215417" id="clusterblast-1_h36_6_6" points="204,85 209,80 211,80 211,90 209,90 204,85 " class="clusterblast-orf"  />
<polygon style="stroke:black; stroke-width:1; fill:#FFFFFF; " description="hypothetical_protein[br]Location: 1017748 - 1019526" locus_tag="TRIVIDRAFT_85158" id="clusterblast-1_h36_6_7" points="212,85 217,80 245,80 245,90 217,90 212,85 " class="clusterblast-orf"  />
<polygon style="stroke:black; stroke-width:1; fill:#FFFFFF; " description="hypothetical_protein[br]Location: 1010561 - 1012056" locus_tag="TRIVIDRAFT_143434" id="clusterblast-1_h36_6_8" points="350,90 372,90 377,85 372,80 350,80 350,90 " class="clusterblast-orf"  />
<polygon style="stroke:black; stroke-width:1; fill:yellow; " description="hypothetical_protein[br]Location: 1008148 - 1009729&lt;br&gt;&lt;br&gt;&lt;b&gt;BlastP hit with CHAFR746836_0016810.1&lt;/b&gt;&lt;br&gt;Percentage identity: 62%&lt;br&gt;Percentage coverage: 97%&lt;br&gt;BLAST bit score: 573&lt;br&gt;E-value: 0.0" locus_tag="TRIVIDRAFT_81989" id="clusterblast-1_h36_6_9" points="393,85 398,80 422,80 422,90 398,90 393,85 " class="clusterblast-orf"  />
<polygon style="stroke:black; stroke-width:1; fill:green; " description="hypothetical_protein[br]Location: 1005273 - 1006232&lt;br&gt;&lt;br&gt;&lt;b&gt;BlastP hit with CHAFR746836_0016780.1&lt;/b&gt;&lt;br&gt;Percentage identity: 72%&lt;br&gt;Percentage coverage: 100%&lt;br&gt;BLAST bit score: 464&lt;br&gt;E-value: 1e-163" locus_tag="TRIVIDRAFT_31920" id="clusterblast-1_h36_6_10" points="457,90 470,90 475,85 470,80 457,80 457,90 " class="clusterblast-orf"  />
<polygon style="stroke:black; stroke-width:1; fill:blue; " description="hypothetical_protein[br]Location: 1002890 - 1004569&lt;br&gt;&lt;br&gt;&lt;b&gt;BlastP hit with CHAFR746836_0016790.1&lt;/b&gt;&lt;br&gt;Percentage identity: 66%&lt;br&gt;Percentage coverage: 101%&lt;br&gt;BLAST bit score: 632&lt;br&gt;E-value: 0.0" locus_tag="TRIVIDRAFT_85153" id="clusterblast-1_h36_6_11" points="488,90 514,90 519,85 514,80 488,80 488,90 " class="clusterblast-orf"  />
<polygon style="stroke:black; stroke-width:1; fill:#FFFFFF; " description="hypothetical_protein[br]Location: 999361 - 1001439" locus_tag="TRIVIDRAFT_189187" id="clusterblast-1_h36_6_12" points="545,85 550,80 584,80 584,90 550,90 545,85 " class="clusterblast-orf"  />
<polygon style="stroke:black; stroke-width:1; fill:#FFFFFF; " description="hypothetical_protein[br]Location: 996714 - 997271" locus_tag="TRIVIDRAFT_32529" id="clusterblast-1_h36_6_13" points="622,90 627,90 632,85 627,80 622,80 622,90 " class="clusterblast-orf"  />
<polygon style="stroke:black; stroke-width:1; fill:#FFFFFF; " description="hypothetical_protein[br]Location: 993930 - 996534" locus_tag="TRIVIDRAFT_33005" id="clusterblast-1_h36_6_14" points="636,85 641,80 683,80 683,90 641,90 636,85 " class="clusterblast-orf"  />
<polygon style="stroke:black; stroke-width:1; fill:#FFFFFF; " description="hypothetical_protein[br]Location: 991778 - 993277" locus_tag="TRIVIDRAFT_177324" id="clusterblast-1_h36_6_15" points="696,85 701,80 723,80 723,90 701,90 696,85 " class="clusterblast-orf"  />
<polygon style="stroke:black; stroke-width:1; fill:#FFFFFF; " description="hypothetical_protein[br]Location: 988823 - 989796" locus_tag="TRIVIDRAFT_72478" id="clusterblast-1_h36_6_16" points="760,85 765,80 778,80 778,90 765,90 760,85 " class="clusterblast-orf"  />
</g>
</svg>
