<svg xmlns="http://www.w3.org/2000/svg" height="230" width="800" version="1.1" y="0" x="0" preserveAspectRatio="none" xmlns:xlink="http://www.w3.org/1999/xlink" viewBox="0 0 800 230"  >
<g class="clusterblast-cluster" label="Query sequence"  >
<text class="clusterblast-acc" y="10" x="5"  >
Query sequence</text>
<line y1="35" x2="778.0" style="stroke:grey; stroke-width:1; " x1="10" y2="35"  />
<polygon style="stroke:black; stroke-width:1; fill:#FFFFFF; " description="unannotated orf[br]Location: 0 - 322" locus_tag="CHAFR746836_0040870.1" class="clusterblast-orf" points="103,35 105,30 105,40 103,35 " id="clusterblast-1_q53_5_0"  />
<polygon style="stroke:black; stroke-width:1; fill:#FFFFFF; " description="unannotated orf[br]Location: 690 - 1609" locus_tag="CHAFR746836_0040880.1" class="clusterblast-orf" points="108,40 109,40 114,35 109,30 108,30 108,40 " id="clusterblast-1_q53_5_1"  />
<polygon style="stroke:black; stroke-width:1; fill:#FFFFFF; " description="unannotated orf[br]Location: 1917 - 2487" locus_tag="CHAFR746836_0040890.1" class="clusterblast-orf" points="117,35 121,30 121,40 117,35 " id="clusterblast-1_q53_5_2"  />
<polygon style="stroke:black; stroke-width:1; fill:#FFFFFF; " description="unannotated orf[br]Location: 2829 - 4095" locus_tag="CHAFR746836_0040900.1" class="clusterblast-orf" points="123,40 128,40 133,35 128,30 123,30 123,40 " id="clusterblast-1_q53_5_3"  />
<polygon style="stroke:black; stroke-width:1; fill:red; " description="unannotated orf[br]Location: 4748 - 6053" locus_tag="CHAFR746836_0040910.1" class="clusterblast-orf" points="138,40 142,40 147,35 142,30 138,30 138,40 " id="clusterblast-1_q53_5_4"  />
<polygon style="stroke:black; stroke-width:1; fill:green; " description="unannotated orf[br]Location: 5316 - 6053" locus_tag="CHAFR746836_0040910.2" class="clusterblast-orf" points="142,40 142,40 147,35 142,30 142,30 142,40 " id="clusterblast-1_q53_5_5"  />
<polygon style="stroke:black; stroke-width:1; fill:#FFFFFF; " description="unannotated orf[br]Location: 19247 - 21227" locus_tag="CHAFR746836_0040920.1" class="clusterblast-orf" points="245,35 250,30 260,30 260,40 250,40 245,35 " id="clusterblast-1_q53_5_6"  />
<polygon style="stroke:black; stroke-width:1; fill:#FFFFFF; " description="unannotated orf[br]Location: 22480 - 23723" locus_tag="CHAFR746836_0040930.1" class="clusterblast-orf" points="269,35 274,30 278,30 278,40 274,40 269,35 " id="clusterblast-1_q53_5_7"  />
<polygon style="stroke:black; stroke-width:1; fill:#FFFFFF; " description="unannotated orf[br]Location: 24447 - 25229" locus_tag="CHAFR746836_0040940.1" class="clusterblast-orf" points="283,40 284,40 289,35 284,30 283,30 283,40 " id="clusterblast-1_q53_5_8"  />
<polygon style="stroke:black; stroke-width:1; fill:blue; " description="unannotated orf[br]Location: 26989 - 36831" locus_tag="CHAFR746836_0040950.1" class="clusterblast-orf" points="302,40 370,40 375,35 370,30 302,30 302,40 " id="clusterblast-1_q53_5_9"  />
<polygon style="stroke:black; stroke-width:1; fill:#FFFFFF; " description="unannotated orf[br]Location: 37202 - 38681" locus_tag="CHAFR746836_0040960.1" class="clusterblast-orf" points="378,35 383,30 389,30 389,40 383,40 378,35 " id="clusterblast-1_q53_5_10"  />
<polygon style="stroke:black; stroke-width:1; fill:#FFFFFF; " description="unannotated orf[br]Location: 39268 - 43358" locus_tag="CHAFR746836_0040970.1" class="clusterblast-orf" points="393,35 398,30 423,30 423,40 398,40 393,35 " id="clusterblast-1_q53_5_11"  />
<polygon style="stroke:black; stroke-width:1; fill:#FFFFFF; " description="unannotated orf[br]Location: 44144 - 49961" locus_tag="CHAFR746836_0040980.1" class="clusterblast-orf" points="429,40 467,40 472,35 467,30 429,30 429,40 " id="clusterblast-1_q53_5_12"  />
<polygon style="stroke:black; stroke-width:1; fill:#FFFFFF; " description="unannotated orf[br]Location: 60900 - 62027" locus_tag="CHAFR746836_0040990.1" class="clusterblast-orf" points="553,40 557,40 562,35 557,30 553,30 553,40 " id="clusterblast-1_q53_5_13"  />
<polygon style="stroke:black; stroke-width:1; fill:#FFFFFF; " description="unannotated orf[br]Location: 67062 - 68025" locus_tag="CHAFR746836_0041000.1" class="clusterblast-orf" points="599,40 601,40 606,35 601,30 599,30 599,40 " id="clusterblast-1_q53_5_14"  />
<polygon style="stroke:black; stroke-width:1; fill:#FFFFFF; " description="unannotated orf[br]Location: 70299 - 71348" locus_tag="CHAFR746836_0041010.1" class="clusterblast-orf" points="623,40 626,40 631,35 626,30 623,30 623,40 " id="clusterblast-1_q53_5_15"  />
<polygon style="stroke:black; stroke-width:1; fill:#FFFFFF; " description="unannotated orf[br]Location: 73436 - 77093" locus_tag="CHAFR746836_0041020.1" class="clusterblast-orf" points="646,35 651,30 673,30 673,40 651,40 646,35 " id="clusterblast-1_q53_5_16"  />
<polygon style="stroke:black; stroke-width:1; fill:yellow; " description="unannotated orf[br]Location: 77315 - 78384" locus_tag="CHAFR746836_0041030.1" class="clusterblast-orf" points="675,40 678,40 683,35 678,30 675,30 675,40 " id="clusterblast-1_q53_5_17"  />
</g>
<g class="clusterblast-cluster" description="Amycolatopsis mediterranei U32 chromosome, complete genome." label="NC_014318.1_c11"  >
<text class="clusterblast-acc" y="60" x="5"  >
NC_014318.1_c11</text>
<text class="clusterblast-desc" y="60" x="460.8"  >
Amycolatopsis mediterranei U32 chromosome, complete genome.</text>
<line y1="85" x2="778.0" style="stroke:grey; stroke-width:1; " x1="10" y2="85"  />
<polygon style="stroke:black; stroke-width:1; fill:#FFFFFF; " description="hypothetical_protein[br]Location: 4489513 - 4492611" locus_tag="AMED_4093" id="clusterblast-1_h53_5_0" points="10,90 27,90 32,85 27,80 10,80 10,90 " class="clusterblast-orf"  />
<polygon style="stroke:black; stroke-width:1; fill:#FFFFFF; " description="cellulose-binding_protein[br]Location: 4488065 - 4489393" locus_tag="AMED_4092" id="clusterblast-1_h53_5_1" points="33,90 38,90 43,85 38,80 33,80 33,90 " class="clusterblast-orf"  />
<polygon style="stroke:black; stroke-width:1; fill:#FFFFFF; " description="alpha/beta_hydrolase[br]Location: 4487309 - 4488061" locus_tag="AMED_4091" id="clusterblast-1_h53_5_2" points="43,85 48,80 49,80 49,90 48,90 43,85 " class="clusterblast-orf"  />
<polygon style="stroke:black; stroke-width:1; fill:#FFFFFF; " description="hypothetical_protein[br]Location: 4486941 - 4487309" locus_tag="AMED_4090" id="clusterblast-1_h53_5_3" points="49,85 51,80 51,90 49,85 " class="clusterblast-orf"  />
<polygon style="stroke:black; stroke-width:1; fill:#FFFFFF; " description="TetR_family_transcriptional_regulator[br]Location: 4486263 - 4486862" locus_tag="AMED_4089" id="clusterblast-1_h53_5_4" points="52,90 56,85 52,80 52,90 " class="clusterblast-orf"  />
<polygon style="stroke:black; stroke-width:1; fill:#FFFFFF; " description="LacI_family_transcriptional_regulator[br]Location: 4485231 - 4486229" locus_tag="AMED_4088" id="clusterblast-1_h53_5_5" points="57,90 59,90 64,85 59,80 57,80 57,90 " class="clusterblast-orf"  />
<polygon style="stroke:black; stroke-width:1; fill:#FFFFFF; " description="sugar_ABC_transporter_periplasmic_protein[br]Location: 4483370 - 4484716" locus_tag="AMED_4087" id="clusterblast-1_h53_5_6" points="68,90 73,90 78,85 73,80 68,80 68,90 " class="clusterblast-orf"  />
<polygon style="stroke:black; stroke-width:1; fill:#FFFFFF; " description="sugar_ABC_transporter_permease[br]Location: 4482416 - 4483357" locus_tag="AMED_4086" id="clusterblast-1_h53_5_7" points="78,90 80,90 85,85 80,80 78,80 78,90 " class="clusterblast-orf"  />
<polygon style="stroke:black; stroke-width:1; fill:#FFFFFF; " description="sugar_ABC_transporter_permease[br]Location: 4481556 - 4482371" locus_tag="AMED_4085" id="clusterblast-1_h53_5_8" points="85,90 86,90 91,85 86,80 85,80 85,90 " class="clusterblast-orf"  />
<polygon style="stroke:black; stroke-width:1; fill:#FFFFFF; " description="rieske_(2Fe-2S)_domain-containing_protein[br]Location: 4480449 - 4481522" locus_tag="AMED_4084" id="clusterblast-1_h53_5_9" points="92,85 97,80 100,80 100,90 97,90 92,85 " class="clusterblast-orf"  />
<polygon style="stroke:black; stroke-width:1; fill:#FFFFFF; " description="MerR_family_transcriptional_regulator[br]Location: 4479513 - 4480403" locus_tag="AMED_4083" id="clusterblast-1_h53_5_10" points="100,85 105,80 106,80 106,90 105,90 100,85 " class="clusterblast-orf"  />
<polygon style="stroke:black; stroke-width:1; fill:#FFFFFF; " description="MerR_family_transcriptional_regulator[br]Location: 4478406 - 4479293" locus_tag="AMED_4082" id="clusterblast-1_h53_5_11" points="108,85 113,80 115,80 115,90 113,90 108,85 " class="clusterblast-orf"  />
<polygon style="stroke:black; stroke-width:1; fill:#FFFFFF; " description="ribonuclease_BN[br]Location: 4477352 - 4478290" locus_tag="AMED_4081" id="clusterblast-1_h53_5_12" points="115,85 120,80 122,80 122,90 120,90 115,85 " class="clusterblast-orf"  />
<polygon style="stroke:black; stroke-width:1; fill:#FFFFFF; " description="CDP-diacylglycerol--glycerol-3-phosphate[br]Location: 4476716 - 4477348" locus_tag="AMED_4080" id="clusterblast-1_h53_5_13" points="122,90 122,90 127,85 122,80 122,80 122,90 " class="clusterblast-orf"  />
<polygon style="stroke:black; stroke-width:1; fill:#FFFFFF; " description="zeta-phytoene_desaturase[br]Location: 4474999 - 4476510" locus_tag="AMED_4079" id="clusterblast-1_h53_5_14" points="129,85 134,80 140,80 140,90 134,90 129,85 " class="clusterblast-orf"  />
<polygon style="stroke:black; stroke-width:1; fill:#FFFFFF; " description="glycosyl_transferase[br]Location: 4473902 - 4475002" locus_tag="AMED_4078" id="clusterblast-1_h53_5_15" points="140,85 145,80 148,80 148,90 145,90 140,85 " class="clusterblast-orf"  />
<polygon style="stroke:black; stroke-width:1; fill:#FFFFFF; " description="hypothetical_protein[br]Location: 4473105 - 4473923" locus_tag="AMED_4077" id="clusterblast-1_h53_5_16" points="148,85 153,80 154,80 154,90 153,90 148,85 " class="clusterblast-orf"  />
<polygon style="stroke:black; stroke-width:1; fill:#FFFFFF; " description="polyprenyl_synthetase[br]Location: 4471631 - 4472734" locus_tag="AMED_4076" id="clusterblast-1_h53_5_17" points="157,90 160,90 165,85 160,80 157,80 157,90 " class="clusterblast-orf"  />
<polygon style="stroke:black; stroke-width:1; fill:#FFFFFF; " description="phytoene_dehydrogenase-related_protein[br]Location: 4470159 - 4471634" locus_tag="AMED_4075" id="clusterblast-1_h53_5_18" points="165,90 171,90 176,85 171,80 165,80 165,90 " class="clusterblast-orf"  />
<polygon style="stroke:black; stroke-width:1; fill:#FFFFFF; " description="phytoene_synthase[br]Location: 4469200 - 4470162" locus_tag="AMED_4074" id="clusterblast-1_h53_5_19" points="176,90 178,90 183,85 178,80 176,80 176,90 " class="clusterblast-orf"  />
<polygon style="stroke:black; stroke-width:1; fill:#FFFFFF; " description="lycopene_cyclase[br]Location: 4468858 - 4469199" locus_tag="AMED_4073" id="clusterblast-1_h53_5_20" points="183,90 185,85 183,80 183,90 " class="clusterblast-orf"  />
<polygon style="stroke:black; stroke-width:1; fill:#FFFFFF; " description="lycopene_cyclase[br]Location: 4468541 - 4468861" locus_tag="AMED_4072" id="clusterblast-1_h53_5_21" points="185,90 188,85 185,80 185,90 " class="clusterblast-orf"  />
<polygon style="stroke:black; stroke-width:1; fill:#FFFFFF; " description="ubiquinone/menaquinone_biosynthesis[br]Location: 4467813 - 4468544" locus_tag="AMED_4071" id="clusterblast-1_h53_5_22" points="188,90 188,90 193,85 188,80 188,80 188,90 " class="clusterblast-orf"  />
<polygon style="stroke:black; stroke-width:1; fill:#FFFFFF; " description="isorenieratene_synthase[br]Location: 4466275 - 4467816" locus_tag="AMED_4070" id="clusterblast-1_h53_5_23" points="193,90 199,90 204,85 199,80 193,80 193,90 " class="clusterblast-orf"  />
<polygon style="stroke:black; stroke-width:1; fill:#FFFFFF; " description="oxidoreductase[br]Location: 4465031 - 4466278" locus_tag="AMED_4069" id="clusterblast-1_h53_5_24" points="204,90 209,90 214,85 209,80 204,80 204,90 " class="clusterblast-orf"  />
<polygon style="stroke:black; stroke-width:1; fill:#FFFFFF; " description="hyalin[br]Location: 4462848 - 4464707" locus_tag="AMED_4068" id="clusterblast-1_h53_5_25" points="216,90 225,90 230,85 225,80 216,80 216,90 " class="clusterblast-orf"  />
<polygon style="stroke:black; stroke-width:1; fill:#FFFFFF; " description="3-oxoacyl-[acyl-carrier-protein]_synthase_III[br]Location: 4461817 - 4462803" locus_tag="AMED_4067" id="clusterblast-1_h53_5_26" points="230,85 235,80 237,80 237,90 235,90 230,85 " class="clusterblast-orf"  />
<polygon style="stroke:black; stroke-width:1; fill:blue; " description="non-ribosomal_peptide_synthetase/polyketide[br]Location: 4456424 - 4461820&lt;br&gt;&lt;br&gt;&lt;b&gt;BlastP hit with CHAFR746836_0040950.1&lt;/b&gt;&lt;br&gt;Percentage identity: 35%&lt;br&gt;Percentage coverage: 13%&lt;br&gt;BLAST bit score: 215&lt;br&gt;E-value: 2e-54" locus_tag="AMED_4066" id="clusterblast-1_h53_5_27" points="237,85 242,80 277,80 277,90 242,90 237,85 " class="clusterblast-orf"  />
<polygon style="stroke:black; stroke-width:1; fill:#FFFFFF; " description="non-ribosomal_peptide_synthase[br]Location: 4448713 - 4456410" locus_tag="AMED_4065" id="clusterblast-1_h53_5_28" points="277,85 282,80 334,80 334,90 282,90 277,85 " class="clusterblast-orf"  />
<polygon style="stroke:black; stroke-width:1; fill:#FFFFFF; " description="hypothetical_protein[br]Location: 4448152 - 4448436" locus_tag="AMED_4064" id="clusterblast-1_h53_5_29" points="336,90 339,85 336,80 336,90 " class="clusterblast-orf"  />
<polygon style="stroke:black; stroke-width:1; fill:#FFFFFF; " description="acyl-CoA_dehydrogenase[br]Location: 4447052 - 4448146" locus_tag="AMED_4063" id="clusterblast-1_h53_5_30" points="339,90 342,90 347,85 342,80 339,80 339,90 " class="clusterblast-orf"  />
<polygon style="stroke:black; stroke-width:1; fill:#FFFFFF; " description="FkbH-like_protein[br]Location: 4446033 - 4447064" locus_tag="AMED_4062" id="clusterblast-1_h53_5_31" points="347,90 349,90 354,85 349,80 347,80 347,90 " class="clusterblast-orf"  />
<polygon style="stroke:black; stroke-width:1; fill:yellow; " description="3-hydroxybutyryl-CoA_dehydrogenase[br]Location: 4445197 - 4446036&lt;br&gt;&lt;br&gt;&lt;b&gt;BlastP hit with CHAFR746836_0041030.1&lt;/b&gt;&lt;br&gt;Percentage identity: 36%&lt;br&gt;Percentage coverage: 89%&lt;br&gt;BLAST bit score: 177&lt;br&gt;E-value: 2e-51" locus_tag="AMED_4061" id="clusterblast-1_h53_5_32" points="354,90 355,90 360,85 355,80 354,80 354,90 " class="clusterblast-orf"  />
<polygon style="stroke:black; stroke-width:1; fill:#FFFFFF; " description="PaaX_family_transcriptional_regulator[br]Location: 4444376 - 4445212" locus_tag="AMED_4060" id="clusterblast-1_h53_5_33" points="360,85 365,80 366,80 366,90 365,90 360,85 " class="clusterblast-orf"  />
<polygon style="stroke:black; stroke-width:1; fill:#FFFFFF; " description="major_facilitator_transporter[br]Location: 4442923 - 4444245" locus_tag="AMED_4059" id="clusterblast-1_h53_5_34" points="367,90 372,90 377,85 372,80 367,80 367,90 " class="clusterblast-orf"  />
<polygon style="stroke:black; stroke-width:1; fill:#FFFFFF; " description="hypothetical_protein[br]Location: 4441580 - 4442926" locus_tag="AMED_4058" id="clusterblast-1_h53_5_35" points="377,90 382,90 387,85 382,80 377,80 377,90 " class="clusterblast-orf"  />
<polygon style="stroke:black; stroke-width:1; fill:#FFFFFF; " description="hypothetical_protein[br]Location: 4440853 - 4441470" locus_tag="AMED_4057" id="clusterblast-1_h53_5_36" points="388,90 388,90 393,85 388,80 388,80 388,90 " class="clusterblast-orf"  />
<polygon style="stroke:black; stroke-width:1; fill:#FFFFFF; " description="LysR_family_transcriptional_regulator[br]Location: 4439931 - 4440830" locus_tag="AMED_4056" id="clusterblast-1_h53_5_37" points="393,85 398,80 399,80 399,90 398,90 393,85 " class="clusterblast-orf"  />
<polygon style="stroke:black; stroke-width:1; fill:#FFFFFF; " description="myo-inositol-1(or_4)-monophosphatase[br]Location: 4439117 - 4439896" locus_tag="AMED_4055" id="clusterblast-1_h53_5_38" points="400,90 400,90 405,85 400,80 400,80 400,90 " class="clusterblast-orf"  />
<polygon style="stroke:black; stroke-width:1; fill:#FFFFFF; " description="beta-lactamase_class_C[br]Location: 4437937 - 4439106" locus_tag="AMED_4054" id="clusterblast-1_h53_5_39" points="405,85 410,80 414,80 414,90 410,90 405,85 " class="clusterblast-orf"  />
<polygon style="stroke:black; stroke-width:1; fill:#FFFFFF; " description="two-component_system_response_regulator[br]Location: 4437193 - 4437849" locus_tag="AMED_4053" id="clusterblast-1_h53_5_40" points="415,90 415,90 420,85 415,80 415,80 415,90 " class="clusterblast-orf"  />
<polygon style="stroke:black; stroke-width:1; fill:#FFFFFF; " description="two-component_system_histidine_kinase[br]Location: 4436087 - 4437196" locus_tag="AMED_4052" id="clusterblast-1_h53_5_41" points="420,90 423,90 428,85 423,80 420,80 420,90 " class="clusterblast-orf"  />
<polygon style="stroke:black; stroke-width:1; fill:#FFFFFF; " description="PHB_depolymerase_family_esterase[br]Location: 4435119 - 4436030" locus_tag="AMED_4051" id="clusterblast-1_h53_5_42" points="428,85 433,80 435,80 435,90 433,90 428,85 " class="clusterblast-orf"  />
<polygon style="stroke:black; stroke-width:1; fill:#FFFFFF; " description="PaaX_family_transcriptional_regulator[br]Location: 4434062 - 4434634" locus_tag="AMED_4050" id="clusterblast-1_h53_5_43" points="439,90 443,85 439,80 439,90 " class="clusterblast-orf"  />
<polygon style="stroke:black; stroke-width:1; fill:#FFFFFF; " description="hypothetical_protein[br]Location: 4432483 - 4433985" locus_tag="AMED_4049" id="clusterblast-1_h53_5_44" points="443,90 449,90 454,85 449,80 443,80 443,90 " class="clusterblast-orf"  />
<polygon style="stroke:black; stroke-width:1; fill:#FFFFFF; " description="hypothetical_protein[br]Location: 4431947 - 4432486" locus_tag="AMED_4048" id="clusterblast-1_h53_5_45" points="454,85 458,80 458,90 454,85 " class="clusterblast-orf"  />
<polygon style="stroke:black; stroke-width:1; fill:#FFFFFF; " description="F-type_H+-transporting_ATPase_subunit_c[br]Location: 4431614 - 4431859" locus_tag="AMED_4047" id="clusterblast-1_h53_5_46" points="459,85 461,80 461,90 459,85 " class="clusterblast-orf"  />
<polygon style="stroke:black; stroke-width:1; fill:#FFFFFF; " description="SARP_family_transcriptional_regulator[br]Location: 4429717 - 4430394" locus_tag="AMED_4046" id="clusterblast-1_h53_5_47" points="470,90 470,90 475,85 470,80 470,80 470,90 " class="clusterblast-orf"  />
<polygon style="stroke:black; stroke-width:1; fill:#FFFFFF; " description="acyl_carrier_protein[br]Location: 4429203 - 4429442" locus_tag="AMED_4045" id="clusterblast-1_h53_5_48" points="477,90 479,85 477,80 477,90 " class="clusterblast-orf"  />
<polygon style="stroke:black; stroke-width:1; fill:#FFFFFF; " description="3-oxoacyl-[acyl-carrier-protein]_synthase_II[br]Location: 4427882 - 4429096" locus_tag="AMED_4044" id="clusterblast-1_h53_5_49" points="480,90 484,90 489,85 484,80 480,80 480,90 " class="clusterblast-orf"  />
<polygon style="stroke:black; stroke-width:1; fill:#FFFFFF; " description="3-oxoacyl-[acyl-carrier-protein]_synthase_II[br]Location: 4426776 - 4427885" locus_tag="AMED_4043" id="clusterblast-1_h53_5_50" points="489,90 492,90 497,85 492,80 489,80 489,90 " class="clusterblast-orf"  />
<polygon style="stroke:black; stroke-width:1; fill:red; " description="3-oxoacyl-[acyl-carrier-protein]_reductase[br]Location: 4425962 - 4426702&lt;br&gt;&lt;br&gt;&lt;b&gt;BlastP hit with CHAFR746836_0040910.1&lt;/b&gt;&lt;br&gt;Percentage identity: 32%&lt;br&gt;Percentage coverage: 98%&lt;br&gt;BLAST bit score: 97&lt;br&gt;E-value: 2e-22&lt;br&gt;&lt;br&gt;&lt;b&gt;BlastP hit with CHAFR746836_0040910.2&lt;/b&gt;&lt;br&gt;Percentage identity: 38%&lt;br&gt;Percentage coverage: 93%&lt;br&gt;BLAST bit score: 73&lt;br&gt;E-value: 2e-15" locus_tag="AMED_4042" id="clusterblast-1_h53_5_51" points="497,90 498,90 503,85 498,80 497,80 497,90 " class="clusterblast-orf"  />
<polygon style="stroke:black; stroke-width:1; fill:#FFFFFF; " description="hypothetical_protein[br]Location: 4424565 - 4425947" locus_tag="AMED_4041" id="clusterblast-1_h53_5_52" points="503,90 508,90 513,85 508,80 503,80 503,90 " class="clusterblast-orf"  />
<polygon style="stroke:black; stroke-width:1; fill:#FFFFFF; " description="ornithine_cyclodeaminase[br]Location: 4423495 - 4424532" locus_tag="AMED_4040" id="clusterblast-1_h53_5_53" points="513,90 516,90 521,85 516,80 513,80 513,90 " class="clusterblast-orf"  />
<polygon style="stroke:black; stroke-width:1; fill:#FFFFFF; " description="cysteine_synthase[br]Location: 4422492 - 4423481" locus_tag="AMED_4039" id="clusterblast-1_h53_5_54" points="521,90 523,90 528,85 523,80 521,80 521,90 " class="clusterblast-orf"  />
<polygon style="stroke:black; stroke-width:1; fill:#FFFFFF; " description="hypothetical_protein[br]Location: 4421030 - 4422331" locus_tag="AMED_4038" id="clusterblast-1_h53_5_55" points="530,90 534,90 539,85 534,80 530,80 530,90 " class="clusterblast-orf"  />
<polygon style="stroke:black; stroke-width:1; fill:#FFFFFF; " description="multidrug_ABC_transporter_ATPase[br]Location: 4420072 - 4421037" locus_tag="AMED_4037" id="clusterblast-1_h53_5_56" points="539,85 544,80 546,80 546,90 544,90 539,85 " class="clusterblast-orf"  />
<polygon style="stroke:black; stroke-width:1; fill:#FFFFFF; " description="MbtH_protein[br]Location: 4419869 - 4420072" locus_tag="AMED_4036" id="clusterblast-1_h53_5_57" points="546,85 548,80 548,90 546,85 " class="clusterblast-orf"  />
<polygon style="stroke:black; stroke-width:1; fill:#FFFFFF; " description="ABC_transporter[br]Location: 4418858 - 4419664" locus_tag="AMED_4035" id="clusterblast-1_h53_5_58" points="549,85 554,80 555,80 555,90 554,90 549,85 " class="clusterblast-orf"  />
<polygon style="stroke:black; stroke-width:1; fill:#FFFFFF; " description="non-ribosomal_peptide_synthetase[br]Location: 4408839 - 4418855" locus_tag="AMED_4034" id="clusterblast-1_h53_5_59" points="555,85 560,80 629,80 629,90 560,90 555,85 " class="clusterblast-orf"  />
<polygon style="stroke:black; stroke-width:1; fill:#FFFFFF; " description="cysteine_synthase[br]Location: 4407862 - 4408839" locus_tag="AMED_4033" id="clusterblast-1_h53_5_60" points="629,85 634,80 637,80 637,90 634,90 629,85 " class="clusterblast-orf"  />
<polygon style="stroke:black; stroke-width:1; fill:#FFFFFF; " description="acyl-CoA_dehydrogenase[br]Location: 4406648 - 4407871" locus_tag="AMED_4032" id="clusterblast-1_h53_5_61" points="637,85 642,80 646,80 646,90 642,90 637,85 " class="clusterblast-orf"  />
<polygon style="stroke:black; stroke-width:1; fill:#FFFFFF; " description="hypothetical_protein[br]Location: 4406034 - 4406651" locus_tag="AMED_4031" id="clusterblast-1_h53_5_62" points="646,85 650,80 650,90 646,85 " class="clusterblast-orf"  />
<polygon style="stroke:black; stroke-width:1; fill:#FFFFFF; " description="acyl_carrier_protein[br]Location: 4405743 - 4406030" locus_tag="AMED_4030" id="clusterblast-1_h53_5_63" points="650,85 652,80 652,90 650,85 " class="clusterblast-orf"  />
<polygon style="stroke:black; stroke-width:1; fill:#FFFFFF; " description="phytoene_dehydrogenase-related_protein[br]Location: 4403980 - 4405662" locus_tag="AMED_4029" id="clusterblast-1_h53_5_64" points="653,85 658,80 665,80 665,90 658,90 653,85 " class="clusterblast-orf"  />
<polygon style="stroke:black; stroke-width:1; fill:#FFFFFF; " description="ABC_transporter_permease[br]Location: 4401302 - 4403872" locus_tag="AMED_4028" id="clusterblast-1_h53_5_65" points="666,85 671,80 685,80 685,90 671,90 666,85 " class="clusterblast-orf"  />
<polygon style="stroke:black; stroke-width:1; fill:#FFFFFF; " description="peptide_ABC_transporter_ATPase[br]Location: 4400508 - 4401302" locus_tag="AMED_4027" id="clusterblast-1_h53_5_66" points="685,85 690,80 691,80 691,90 690,90 685,85 " class="clusterblast-orf"  />
<polygon style="stroke:black; stroke-width:1; fill:#FFFFFF; " description="two-component_system_histidine_kinase[br]Location: 4399077 - 4400327" locus_tag="AMED_4026" id="clusterblast-1_h53_5_67" points="692,90 697,90 702,85 697,80 692,80 692,90 " class="clusterblast-orf"  />
<polygon style="stroke:black; stroke-width:1; fill:#FFFFFF; " description="two-component_system_response_regulator[br]Location: 4398426 - 4399070" locus_tag="AMED_4025" id="clusterblast-1_h53_5_68" points="702,85 707,80 707,80 707,90 707,90 702,85 " class="clusterblast-orf"  />
<polygon style="stroke:black; stroke-width:1; fill:#FFFFFF; " description="hypothetical_protein[br]Location: 4397561 - 4398370" locus_tag="AMED_4024" id="clusterblast-1_h53_5_69" points="707,85 712,80 713,80 713,90 712,90 707,85 " class="clusterblast-orf"  />
<polygon style="stroke:black; stroke-width:1; fill:#FFFFFF; " description="diaminopimelate_decarboxylase[br]Location: 4396262 - 4397557" locus_tag="AMED_4023" id="clusterblast-1_h53_5_70" points="713,85 718,80 723,80 723,90 718,90 713,85 " class="clusterblast-orf"  />
<polygon style="stroke:black; stroke-width:1; fill:#FFFFFF; " description="3-oxoacyl-(ACP)_synthase_III[br]Location: 4395325 - 4396251" locus_tag="AMED_4022" id="clusterblast-1_h53_5_71" points="723,85 728,80 729,80 729,90 728,90 723,85 " class="clusterblast-orf"  />
<polygon style="stroke:black; stroke-width:1; fill:#FFFFFF; " description="SARP_family_transcriptional_regulator_fused_with[br]Location: 4392076 - 4395180" locus_tag="AMED_4021" id="clusterblast-1_h53_5_72" points="731,85 736,80 754,80 754,90 736,90 731,85 " class="clusterblast-orf"  />
<polygon style="stroke:black; stroke-width:1; fill:#FFFFFF; " description="MarR_family_transcriptional_regulator[br]Location: 4391480 - 4391941" locus_tag="AMED_4020" id="clusterblast-1_h53_5_73" points="755,85 758,80 758,90 755,85 " class="clusterblast-orf"  />
<polygon style="stroke:black; stroke-width:1; fill:#FFFFFF; " description="short-chain_dehydrogenase/reductase_SDR[br]Location: 4390688 - 4391428" locus_tag="AMED_4019" id="clusterblast-1_h53_5_74" points="758,90 759,90 764,85 759,80 758,80 758,90 " class="clusterblast-orf"  />
<polygon style="stroke:black; stroke-width:1; fill:#FFFFFF; " description="hypothetical_protein[br]Location: 4390558 - 4390719" locus_tag="AMED_4018" id="clusterblast-1_h53_5_75" points="764,85 765,80 765,90 764,85 " class="clusterblast-orf"  />
<polygon style="stroke:black; stroke-width:1; fill:#FFFFFF; " description="3-oxoacyl-[acyl-carrier-protein]_reductase[br]Location: 4389643 - 4390437" locus_tag="AMED_4017" id="clusterblast-1_h53_5_76" points="766,85 771,80 772,80 772,90 771,90 766,85 " class="clusterblast-orf"  />
<polygon style="stroke:black; stroke-width:1; fill:#FFFFFF; " description="hypothetical_protein[br]Location: 4388838 - 4389638" locus_tag="AMED_4016" id="clusterblast-1_h53_5_77" points="772,85 777,80 778,80 778,90 777,90 772,85 " class="clusterblast-orf"  />
</g>
</svg>
