<svg xmlns="http://www.w3.org/2000/svg" height="230" width="800" version="1.1" y="0" x="0" preserveAspectRatio="none" xmlns:xlink="http://www.w3.org/1999/xlink" viewBox="0 0 800 230"  >
<g class="clusterblast-cluster" label="Query sequence"  >
<text class="clusterblast-acc" y="10" x="5"  >
Query sequence</text>
<line y1="35" x2="778.0" style="stroke:grey; stroke-width:1; " x1="10" y2="35"  />
<polygon style="stroke:black; stroke-width:1; fill:#FFFFFF; " description="unannotated orf[br]Location: 1502 - 2717" locus_tag="CHAFR746836_0018730.1" class="clusterblast-orf" points="318,40 319,40 324,35 319,30 318,30 318,40 " id="clusterblast-1_q38_8_0"  />
<polygon style="stroke:black; stroke-width:1; fill:#FFFFFF; " description="unannotated orf[br]Location: 5434 - 6658" locus_tag="CHAFR746836_0018740.1" class="clusterblast-orf" points="338,40 340,40 345,35 340,30 338,30 338,40 " id="clusterblast-1_q38_8_1"  />
<polygon style="stroke:black; stroke-width:1; fill:rgb(190,63,63); " description="unannotated orf[br]Location: 8194 - 15527" locus_tag="CHAFR746836_0018750.1" class="clusterblast-orf" points="353,35 358,30 392,30 392,40 358,40 353,35 " id="clusterblast-1_q38_8_2"  />
<polygon style="stroke:black; stroke-width:1; fill:rgb(63,63,190); " description="unannotated orf[br]Location: 16107 - 17386" locus_tag="CHAFR746836_0018760.1" class="clusterblast-orf" points="395,40 397,40 402,35 397,30 395,30 395,40 " id="clusterblast-1_q38_8_3"  />
<polygon style="stroke:black; stroke-width:1; fill:rgb(63,190,63); " description="unannotated orf[br]Location: 18113 - 19107" locus_tag="CHAFR746836_0018770.1" class="clusterblast-orf" points="405,40 406,40 411,35 406,30 405,30 405,40 " id="clusterblast-1_q38_8_4"  />
<polygon style="stroke:black; stroke-width:1; fill:#FFFFFF; " description="unannotated orf[br]Location: 21941 - 23810" locus_tag="CHAFR746836_0018780.1" class="clusterblast-orf" points="426,40 431,40 436,35 431,30 426,30 426,40 " id="clusterblast-1_q38_8_5"  />
<polygon style="stroke:black; stroke-width:1; fill:rgb(190,63,190); " description="unannotated orf[br]Location: 25428 - 26120" locus_tag="CHAFR746836_0018790.1" class="clusterblast-orf" points="444,40 448,35 444,30 444,40 " id="clusterblast-1_q38_8_6"  />
<polygon style="stroke:black; stroke-width:1; fill:rgb(190,190,63); " description="unannotated orf[br]Location: 28320 - 30189" locus_tag="CHAFR746836_0018800.1" class="clusterblast-orf" points="459,35 464,30 469,30 469,40 464,40 459,35 " id="clusterblast-1_q38_8_7"  />
</g>
<g class="clusterblast-cluster" description="Stigmatella aurantiaca DW4/3-1 chromosome, complete genome." label="NC_014623.1_c8"  >
<text class="clusterblast-acc" y="60" x="5"  >
NC_014623.1_c8</text>
<text class="clusterblast-desc" y="60" x="460.8"  >
Stigmatella aurantiaca DW4/3-1 chromosome, complete genome.</text>
<line y1="85" x2="778.0" style="stroke:grey; stroke-width:1; " x1="10" y2="85"  />
<polygon style="stroke:black; stroke-width:1; fill:#FFFFFF; " description="citrate_synthase[br]Location: 4893963 - 4895264" locus_tag="STAUR_4039" id="clusterblast-1_h38_8_0" points="10,90 11,90 16,85 11,80 10,80 10,90 " class="clusterblast-orf"  />
<polygon style="stroke:black; stroke-width:1; fill:#FFFFFF; " description="long-chain-fatty-acid-CoA_ligase[br]Location: 4892098 - 4893894" locus_tag="STAUR_4038" id="clusterblast-1_h38_8_1" points="17,85 22,80 26,80 26,90 22,90 17,85 " class="clusterblast-orf"  />
<polygon style="stroke:black; stroke-width:1; fill:#FFFFFF; " description="hypothetical_protein[br]Location: 4891615 - 4891971" locus_tag="STAUR_4037" id="clusterblast-1_h38_8_2" points="27,90 29,85 27,80 27,90 " class="clusterblast-orf"  />
<polygon style="stroke:black; stroke-width:1; fill:#FFFFFF; " description="hypothetical_protein[br]Location: 4890830 - 4891468" locus_tag="STAUR_4036" id="clusterblast-1_h38_8_3" points="30,90 33,85 30,80 30,90 " class="clusterblast-orf"  />
<polygon style="stroke:black; stroke-width:1; fill:#FFFFFF; " description="pyruvate_kinase[br]Location: 4889224 - 4890624" locus_tag="STAUR_4035" id="clusterblast-1_h38_8_4" points="34,90 36,90 41,85 36,80 34,80 34,90 " class="clusterblast-orf"  />
<polygon style="stroke:black; stroke-width:1; fill:#FFFFFF; " description="hypothetical_protein[br]Location: 4888507 - 4889178" locus_tag="STAUR_4034" id="clusterblast-1_h38_8_5" points="42,85 45,80 45,90 42,85 " class="clusterblast-orf"  />
<polygon style="stroke:black; stroke-width:1; fill:#FFFFFF; " description="carbamoyl-phosphate_synthase_small_subunit[br]Location: 4887372 - 4888487" locus_tag="STAUR_4033" id="clusterblast-1_h38_8_6" points="45,85 50,80 51,80 51,90 50,90 45,85 " class="clusterblast-orf"  />
<polygon style="stroke:black; stroke-width:1; fill:#FFFFFF; " description="dihydroorotase,_multifunctional_complex_type[br]Location: 4886071 - 4887372" locus_tag="STAUR_4032" id="clusterblast-1_h38_8_7" points="51,85 56,80 58,80 58,90 56,90 51,85 " class="clusterblast-orf"  />
<polygon style="stroke:black; stroke-width:1; fill:#FFFFFF; " description="aspartate_carbamoyltransferase[br]Location: 4885184 - 4886074" locus_tag="STAUR_4031" id="clusterblast-1_h38_8_8" points="58,85 63,80 63,80 63,90 63,90 58,85 " class="clusterblast-orf"  />
<polygon style="stroke:black; stroke-width:1; fill:#FFFFFF; " description="signal_peptidase_i[br]Location: 4883889 - 4885124" locus_tag="STAUR_4030" id="clusterblast-1_h38_8_9" points="63,85 68,80 70,80 70,90 68,90 63,85 " class="clusterblast-orf"  />
<polygon style="stroke:black; stroke-width:1; fill:#FFFFFF; " description="GTP-binding_protein_LepA[br]Location: 4882077 - 4883888" locus_tag="STAUR_4029" id="clusterblast-1_h38_8_10" points="70,85 75,80 79,80 79,90 75,90 70,85 " class="clusterblast-orf"  />
<polygon style="stroke:black; stroke-width:1; fill:#FFFFFF; " description="UDP-glucose_4-epimerase[br]Location: 4880994 - 4881938" locus_tag="STAUR_4028" id="clusterblast-1_h38_8_11" points="80,85 85,80 85,80 85,90 85,90 80,85 " class="clusterblast-orf"  />
<polygon style="stroke:black; stroke-width:1; fill:#FFFFFF; " description="NAD-dependent_epimerase/dehydratase_family[br]Location: 4879985 - 4880941" locus_tag="STAUR_4027" id="clusterblast-1_h38_8_12" points="85,85 90,80 90,80 90,90 90,90 85,85 " class="clusterblast-orf"  />
<polygon style="stroke:black; stroke-width:1; fill:#FFFFFF; " description="hypothetical_protein[br]Location: 4879799 - 4879981" locus_tag="STAUR_4026" id="clusterblast-1_h38_8_13" points="90,85 91,80 91,90 90,85 " class="clusterblast-orf"  />
<polygon style="stroke:black; stroke-width:1; fill:#FFFFFF; " description="hypothetical_protein[br]Location: 4879091 - 4879696" locus_tag="STAUR_4025" id="clusterblast-1_h38_8_14" points="92,90 95,85 92,80 92,90 " class="clusterblast-orf"  />
<polygon style="stroke:black; stroke-width:1; fill:#FFFFFF; " description="cupin_domain-containing_protein[br]Location: 4878704 - 4879066" locus_tag="STAUR_4024" id="clusterblast-1_h38_8_15" points="95,85 97,80 97,90 95,85 " class="clusterblast-orf"  />
<polygon style="stroke:black; stroke-width:1; fill:#FFFFFF; " description="adventurous_gliding_motility_protein_I[br]Location: 4877808 - 4878671" locus_tag="STAUR_4023" id="clusterblast-1_h38_8_16" points="97,85 102,80 102,80 102,90 102,90 97,85 " class="clusterblast-orf"  />
<polygon style="stroke:black; stroke-width:1; fill:#FFFFFF; " description="tRNA-specific_2-thiouridylase_mnma[br]Location: 4876632 - 4877678" locus_tag="STAUR_4022" id="clusterblast-1_h38_8_17" points="103,85 108,80 108,80 108,90 108,90 103,85 " class="clusterblast-orf"  />
<polygon style="stroke:black; stroke-width:1; fill:#FFFFFF; " description="tRNA_nucleotidyltransferase/poly(a)_polymerase[br]Location: 4875301 - 4876572" locus_tag="STAUR_4021" id="clusterblast-1_h38_8_18" points="108,85 113,80 115,80 115,90 113,90 108,85 " class="clusterblast-orf"  />
<polygon style="stroke:black; stroke-width:1; fill:#FFFFFF; " description="melh_protein[br]Location: 4874281 - 4875255" locus_tag="STAUR_4020" id="clusterblast-1_h38_8_19" points="115,85 120,80 121,80 121,90 120,90 115,85 " class="clusterblast-orf"  />
<polygon style="stroke:black; stroke-width:1; fill:#FFFFFF; " description="non-ribosomal_peptide_synthase-like_protein[br]Location: 4868995 - 4874265" locus_tag="STAUR_4019" id="clusterblast-1_h38_8_20" points="121,85 126,80 149,80 149,90 126,90 121,85 " class="clusterblast-orf"  />
<polygon style="stroke:black; stroke-width:1; fill:rgb(190,63,63); " description="MtaF_protein[br]Location: 4864916 - 4868998&lt;br&gt;&lt;br&gt;&lt;b&gt;BlastP hit with CHAFR746836_0018750.1&lt;/b&gt;&lt;br&gt;Percentage identity: 35%&lt;br&gt;Percentage coverage: 37%&lt;br&gt;BLAST bit score: 510&lt;br&gt;E-value: 2e-150" locus_tag="STAUR_4018" id="clusterblast-1_h38_8_21" points="149,85 154,80 170,80 170,90 154,90 149,85 " class="clusterblast-orf"  />
<polygon style="stroke:black; stroke-width:1; fill:rgb(190,63,63); " description="MtaE_protein[br]Location: 4859068 - 4864911&lt;br&gt;&lt;br&gt;&lt;b&gt;BlastP hit with CHAFR746836_0018750.1&lt;/b&gt;&lt;br&gt;Percentage identity: 33%&lt;br&gt;Percentage coverage: 40%&lt;br&gt;BLAST bit score: 514&lt;br&gt;E-value: 3e-148" locus_tag="STAUR_4017" id="clusterblast-1_h38_8_22" points="170,85 175,80 201,80 201,90 175,90 170,85 " class="clusterblast-orf"  />
<polygon style="stroke:black; stroke-width:1; fill:#FFFFFF; " description="amino_acid_adenylation_domain-containing[br]Location: 4849134 - 4859009" locus_tag="STAUR_4016" id="clusterblast-1_h38_8_23" points="201,85 206,80 254,80 254,90 206,90 201,85 " class="clusterblast-orf"  />
<polygon style="stroke:black; stroke-width:1; fill:#FFFFFF; " description="MtaC_protein[br]Location: 4845166 - 4849137" locus_tag="STAUR_4015" id="clusterblast-1_h38_8_24" points="254,85 259,80 275,80 275,90 259,90 254,85 " class="clusterblast-orf"  />
<polygon style="stroke:black; stroke-width:1; fill:rgb(190,63,63); " description="modular_polyketide_synthase[br]Location: 4833254 - 4845127&lt;br&gt;&lt;br&gt;&lt;b&gt;BlastP hit with CHAFR746836_0018750.1&lt;/b&gt;&lt;br&gt;Percentage identity: 34%&lt;br&gt;Percentage coverage: 43%&lt;br&gt;BLAST bit score: 528&lt;br&gt;E-value: 2e-150" locus_tag="STAUR_4014" id="clusterblast-1_h38_8_25" points="275,85 280,80 338,80 338,90 280,90 275,85 " class="clusterblast-orf"  />
<polygon style="stroke:black; stroke-width:1; fill:#FFFFFF; " description="4'-phosphopantetheinyl_transferase[br]Location: 4831729 - 4832562" locus_tag="STAUR_4012" id="clusterblast-1_h38_8_26" points="341,85 346,80 346,80 346,90 346,90 341,85 " class="clusterblast-orf"  />
<polygon style="stroke:black; stroke-width:1; fill:#FFFFFF; " description="kelch_domain-containing_protein[br]Location: 4829449 - 4831665" locus_tag="STAUR_4011" id="clusterblast-1_h38_8_27" points="346,85 351,80 358,80 358,90 351,90 346,85 " class="clusterblast-orf"  />
<polygon style="stroke:black; stroke-width:1; fill:#FFFFFF; " description="group_2_glycosyl_transferase[br]Location: 4827925 - 4829172" locus_tag="STAUR_4010" id="clusterblast-1_h38_8_28" points="359,90 361,90 366,85 361,80 359,80 359,90 " class="clusterblast-orf"  />
<polygon style="stroke:black; stroke-width:1; fill:#FFFFFF; " description="hypothetical_protein[br]Location: 4826834 - 4827928" locus_tag="STAUR_4009" id="clusterblast-1_h38_8_29" points="366,90 367,90 372,85 367,80 366,80 366,90 " class="clusterblast-orf"  />
<polygon style="stroke:black; stroke-width:1; fill:#FFFFFF; " description="hypothetical_protein[br]Location: 4825705 - 4826817" locus_tag="STAUR_4008" id="clusterblast-1_h38_8_30" points="372,90 373,90 378,85 373,80 372,80 372,90 " class="clusterblast-orf"  />
<polygon style="stroke:black; stroke-width:1; fill:#FFFFFF; " description="hypothetical_protein[br]Location: 4825058 - 4825696" locus_tag="STAUR_4007" id="clusterblast-1_h38_8_31" points="378,90 381,85 378,80 378,90 " class="clusterblast-orf"  />
<polygon style="stroke:black; stroke-width:1; fill:#FFFFFF; " description="rieske_family_iron-sulfur_cluster-binding[br]Location: 4823426 - 4825042" locus_tag="STAUR_4006" id="clusterblast-1_h38_8_32" points="381,85 386,80 390,80 390,90 386,90 381,85 " class="clusterblast-orf"  />
<polygon style="stroke:black; stroke-width:1; fill:#FFFFFF; " description="hypothetical_protein[br]Location: 4822135 - 4823265" locus_tag="STAUR_4005" id="clusterblast-1_h38_8_33" points="391,85 396,80 397,80 397,90 396,90 391,85 " class="clusterblast-orf"  />
<polygon style="stroke:black; stroke-width:1; fill:#FFFFFF; " description="hypothetical_protein[br]Location: 4821686 - 4822021" locus_tag="STAUR_4004" id="clusterblast-1_h38_8_34" points="397,85 399,80 399,90 397,85 " class="clusterblast-orf"  />
<polygon style="stroke:black; stroke-width:1; fill:#FFFFFF; " description="chitinase,_class_I[br]Location: 4820103 - 4821314" locus_tag="STAUR_4003" id="clusterblast-1_h38_8_35" points="401,90 402,90 407,85 402,80 401,80 401,90 " class="clusterblast-orf"  />
<polygon style="stroke:black; stroke-width:1; fill:#FFFFFF; " description="ice-like_protease_(caspase)_p20_domain_protein[br]Location: 4817794 - 4819938" locus_tag="STAUR_4002" id="clusterblast-1_h38_8_36" points="408,90 415,90 420,85 415,80 408,80 408,90 " class="clusterblast-orf"  />
<polygon style="stroke:black; stroke-width:1; fill:#FFFFFF; " description="StkC_protein[br]Location: 4817279 - 4817557" locus_tag="STAUR_4000" id="clusterblast-1_h38_8_37" points="421,85 422,80 422,90 421,85 " class="clusterblast-orf"  />
<polygon style="stroke:black; stroke-width:1; fill:#FFFFFF; " description="StkB_protein[br]Location: 4816834 - 4817259" locus_tag="STAUR_3999" id="clusterblast-1_h38_8_38" points="423,85 425,80 425,90 423,85 " class="clusterblast-orf"  />
<polygon style="stroke:black; stroke-width:1; fill:#FFFFFF; " description="StkA_protein[br]Location: 4815205 - 4816824" locus_tag="STAUR_3998" id="clusterblast-1_h38_8_39" points="425,85 430,80 433,80 433,90 430,90 425,85 " class="clusterblast-orf"  />
<polygon style="stroke:black; stroke-width:1; fill:#FFFFFF; " description="ATP-dependent_DNA_helicase,_uvrd/rep_family[br]Location: 4813038 - 4815116" locus_tag="STAUR_3997" id="clusterblast-1_h38_8_40" points="434,85 439,80 445,80 445,90 439,90 434,85 " class="clusterblast-orf"  />
<polygon style="stroke:black; stroke-width:1; fill:#FFFFFF; " description="StkY_protein[br]Location: 4811195 - 4812988" locus_tag="STAUR_3996" id="clusterblast-1_h38_8_41" points="445,85 450,80 455,80 455,90 450,90 445,85 " class="clusterblast-orf"  />
<polygon style="stroke:black; stroke-width:1; fill:#FFFFFF; " description="hypothetical_protein[br]Location: 4810298 - 4811167" locus_tag="STAUR_3995" id="clusterblast-1_h38_8_42" points="455,90 459,85 455,80 455,90 " class="clusterblast-orf"  />
<polygon style="stroke:black; stroke-width:1; fill:#FFFFFF; " description="glycosyl_transferase_group_2_family_protein[br]Location: 4809116 - 4810297" locus_tag="STAUR_3994" id="clusterblast-1_h38_8_43" points="459,85 464,80 466,80 466,90 464,90 459,85 " class="clusterblast-orf"  />
<polygon style="stroke:black; stroke-width:1; fill:#FFFFFF; " description="hypothetical_protein[br]Location: 4807075 - 4808949" locus_tag="STAUR_3993" id="clusterblast-1_h38_8_44" points="467,85 472,80 476,80 476,90 472,90 467,85 " class="clusterblast-orf"  />
<polygon style="stroke:black; stroke-width:1; fill:#FFFFFF; " description="ComE_protein[br]Location: 4806622 - 4807038" locus_tag="STAUR_3992" id="clusterblast-1_h38_8_45" points="477,85 479,80 479,90 477,85 " class="clusterblast-orf"  />
<polygon style="stroke:black; stroke-width:1; fill:#FFFFFF; " description="aspartokinase[br]Location: 4805321 - 4806625" locus_tag="STAUR_3991" id="clusterblast-1_h38_8_46" points="479,85 484,80 486,80 486,90 484,90 479,85 " class="clusterblast-orf"  />
<polygon style="stroke:black; stroke-width:1; fill:#FFFFFF; " description="histidine_ammonia-lyase[br]Location: 4803732 - 4805264" locus_tag="STAUR_3990" id="clusterblast-1_h38_8_47" points="486,90 489,90 494,85 489,80 486,80 486,90 " class="clusterblast-orf"  />
<polygon style="stroke:black; stroke-width:1; fill:#FFFFFF; " description="hypothetical_protein[br]Location: 4803391 - 4803654" locus_tag="STAUR_3989" id="clusterblast-1_h38_8_48" points="495,90 496,85 495,80 495,90 " class="clusterblast-orf"  />
<polygon style="stroke:black; stroke-width:1; fill:#FFFFFF; " description="alpha-L-arabinofuranosidase_B_family_protein[br]Location: 4800465 - 4803233" locus_tag="STAUR_3988" id="clusterblast-1_h38_8_49" points="497,90 506,90 511,85 506,80 497,80 497,90 " class="clusterblast-orf"  />
<polygon style="stroke:black; stroke-width:1; fill:#FFFFFF; " description="hypothetical_protein[br]Location: 4797597 - 4800443" locus_tag="STAUR_3987" id="clusterblast-1_h38_8_50" points="512,90 522,90 527,85 522,80 512,80 512,90 " class="clusterblast-orf"  />
<polygon style="stroke:black; stroke-width:1; fill:#FFFFFF; " description="glycoside_hydrolase[br]Location: 4796498 - 4797475" locus_tag="STAUR_3986" id="clusterblast-1_h38_8_51" points="527,85 532,80 532,80 532,90 532,90 527,85 " class="clusterblast-orf"  />
<polygon style="stroke:black; stroke-width:1; fill:rgb(190,63,63); " description="polyketide_synthase_AufI[br]Location: 4788768 - 4795823&lt;br&gt;&lt;br&gt;&lt;b&gt;BlastP hit with CHAFR746836_0018750.1&lt;/b&gt;&lt;br&gt;Percentage identity: 33%&lt;br&gt;Percentage coverage: 37%&lt;br&gt;BLAST bit score: 449&lt;br&gt;E-value: 3e-126" locus_tag="STAUR_3985" id="clusterblast-1_h38_8_52" points="536,90 568,90 573,85 568,80 536,80 536,90 " class="clusterblast-orf"  />
<polygon style="stroke:black; stroke-width:1; fill:#FFFFFF; " description="polyketide_synthase[br]Location: 4783216 - 4788771" locus_tag="STAUR_3984" id="clusterblast-1_h38_8_53" points="573,90 598,90 603,85 598,80 573,80 573,90 " class="clusterblast-orf"  />
<polygon style="stroke:black; stroke-width:1; fill:#FFFFFF; " description="polyketide_synthase_AufC[br]Location: 4777536 - 4783190" locus_tag="STAUR_3983" id="clusterblast-1_h38_8_54" points="603,90 628,90 633,85 628,80 603,80 603,90 " class="clusterblast-orf"  />
<polygon style="stroke:black; stroke-width:1; fill:rgb(190,63,63); " description="polyketide_synthase_AufC[br]Location: 4771261 - 4777539&lt;br&gt;&lt;br&gt;&lt;b&gt;BlastP hit with CHAFR746836_0018750.1&lt;/b&gt;&lt;br&gt;Percentage identity: 31%&lt;br&gt;Percentage coverage: 54%&lt;br&gt;BLAST bit score: 475&lt;br&gt;E-value: 5e-135" locus_tag="STAUR_3982" id="clusterblast-1_h38_8_55" points="633,90 661,90 666,85 661,80 633,80 633,90 " class="clusterblast-orf"  />
<polygon style="stroke:black; stroke-width:1; fill:#FFFFFF; " description="transposase,_is4-like_protein[br]Location: 4769631 - 4771244" locus_tag="STAUR_3981" id="clusterblast-1_h38_8_56" points="666,85 671,80 675,80 675,90 671,90 666,85 " class="clusterblast-orf"  />
<polygon style="stroke:black; stroke-width:1; fill:#FFFFFF; " description="hypothetical_protein[br]Location: 4769224 - 4769478" locus_tag="STAUR_3980" id="clusterblast-1_h38_8_57" points="676,85 677,80 677,90 676,85 " class="clusterblast-orf"  />
<polygon style="stroke:black; stroke-width:1; fill:#FFFFFF; " description="hypothetical_protein[br]Location: 4766061 - 4769090" locus_tag="STAUR_3979" id="clusterblast-1_h38_8_58" points="678,85 683,80 694,80 694,90 683,90 678,85 " class="clusterblast-orf"  />
<polygon style="stroke:black; stroke-width:1; fill:#FFFFFF; " description="hypothetical_protein[br]Location: 4764627 - 4765877" locus_tag="STAUR_3978" id="clusterblast-1_h38_8_59" points="695,85 700,80 701,80 701,90 700,90 695,85 " class="clusterblast-orf"  />
<polygon style="stroke:black; stroke-width:1; fill:#FFFFFF; " description="hypothetical_protein[br]Location: 4763831 - 4764595" locus_tag="STAUR_3977" id="clusterblast-1_h38_8_60" points="701,85 705,80 705,90 701,85 " class="clusterblast-orf"  />
<polygon style="stroke:black; stroke-width:1; fill:#FFFFFF; " description="catalase_family_protein[br]Location: 4762846 - 4763406" locus_tag="STAUR_3976" id="clusterblast-1_h38_8_61" points="708,85 711,80 711,90 708,85 " class="clusterblast-orf"  />
<polygon style="stroke:black; stroke-width:1; fill:#FFFFFF; " description="LysR-like_transcriptional_regulator[br]Location: 4762108 - 4762794" locus_tag="STAUR_3975" id="clusterblast-1_h38_8_62" points="711,90 715,85 711,80 711,90 " class="clusterblast-orf"  />
<polygon style="stroke:black; stroke-width:1; fill:#FFFFFF; " description="LysR-like_transcriptional_regulator[br]Location: 4761851 - 4762093" locus_tag="STAUR_3974" id="clusterblast-1_h38_8_63" points="715,90 716,85 715,80 715,90 " class="clusterblast-orf"  />
<polygon style="stroke:black; stroke-width:1; fill:#FFFFFF; " description="copper_amine_oxidase[br]Location: 4759704 - 4761734" locus_tag="STAUR_3973" id="clusterblast-1_h38_8_64" points="717,90 722,90 727,85 722,80 717,80 717,90 " class="clusterblast-orf"  />
<polygon style="stroke:black; stroke-width:1; fill:rgb(63,190,63); " description="levodione_reductase[br]Location: 4758896 - 4759651&lt;br&gt;&lt;br&gt;&lt;b&gt;BlastP hit with CHAFR746836_0018760.1&lt;/b&gt;&lt;br&gt;Percentage identity: 32%&lt;br&gt;Percentage coverage: 67%&lt;br&gt;BLAST bit score: 84&lt;br&gt;E-value: 4e-18&lt;br&gt;&lt;br&gt;&lt;b&gt;BlastP hit with CHAFR746836_0018770.1&lt;/b&gt;&lt;br&gt;Percentage identity: 31%&lt;br&gt;Percentage coverage: 96%&lt;br&gt;BLAST bit score: 89&lt;br&gt;E-value: 1e-19" locus_tag="STAUR_3972" id="clusterblast-1_h38_8_65" points="728,90 732,85 728,80 728,90 " class="clusterblast-orf"  />
<polygon style="stroke:black; stroke-width:1; fill:#FFFFFF; " description="hypothetical_protein[br]Location: 4758555 - 4758875" locus_tag="STAUR_3971" id="clusterblast-1_h38_8_66" points="732,85 733,80 733,90 732,85 " class="clusterblast-orf"  />
<polygon style="stroke:black; stroke-width:1; fill:#FFFFFF; " description="hypothetical_protein[br]Location: 4757559 - 4758389" locus_tag="STAUR_3970" id="clusterblast-1_h38_8_67" points="734,90 734,90 739,85 734,80 734,80 734,90 " class="clusterblast-orf"  />
<polygon style="stroke:black; stroke-width:1; fill:#FFFFFF; " description="hypothetical_protein[br]Location: 4756639 - 4757562" locus_tag="STAUR_3969" id="clusterblast-1_h38_8_68" points="739,90 743,85 739,80 739,90 " class="clusterblast-orf"  />
<polygon style="stroke:black; stroke-width:1; fill:#FFFFFF; " description="plasmid_pria4b_orf-3-like_family_protein[br]Location: 4755914 - 4756603" locus_tag="STAUR_3968" id="clusterblast-1_h38_8_69" points="744,85 747,80 747,90 744,85 " class="clusterblast-orf"  />
<polygon style="stroke:black; stroke-width:1; fill:#FFFFFF; " description="HIT_family_protein[br]Location: 4755484 - 4755924" locus_tag="STAUR_3967" id="clusterblast-1_h38_8_70" points="747,85 750,80 750,90 747,85 " class="clusterblast-orf"  />
<polygon style="stroke:black; stroke-width:1; fill:#FFFFFF; " description="hypothetical_protein[br]Location: 4754930 - 4755370" locus_tag="STAUR_3966" id="clusterblast-1_h38_8_71" points="750,85 753,80 753,90 750,85 " class="clusterblast-orf"  />
<polygon style="stroke:black; stroke-width:1; fill:#FFFFFF; " description="hypothetical_protein[br]Location: 4754522 - 4754911" locus_tag="STAUR_3965" id="clusterblast-1_h38_8_72" points="753,85 755,80 755,90 753,85 " class="clusterblast-orf"  />
<polygon style="stroke:black; stroke-width:1; fill:#FFFFFF; " description="protein_kinase[br]Location: 4753079 - 4754440" locus_tag="STAUR_3964" id="clusterblast-1_h38_8_73" points="755,85 760,80 762,80 762,90 760,90 755,85 " class="clusterblast-orf"  />
<polygon style="stroke:black; stroke-width:1; fill:#FFFFFF; " description="hypothetical_protein[br]Location: 4752238 - 4752960" locus_tag="STAUR_3963" id="clusterblast-1_h38_8_74" points="763,90 767,85 763,80 763,90 " class="clusterblast-orf"  />
<polygon style="stroke:black; stroke-width:1; fill:#FFFFFF; " description="hypothetical_protein[br]Location: 4751743 - 4751958" locus_tag="STAUR_3962" id="clusterblast-1_h38_8_75" points="768,85 769,80 769,90 768,85 " class="clusterblast-orf"  />
<polygon style="stroke:black; stroke-width:1; fill:#FFFFFF; " description="hypothetical_protein[br]Location: 4750217 - 4751533" locus_tag="STAUR_3961" id="clusterblast-1_h38_8_76" points="771,85 776,80 778,80 778,90 776,90 771,85 " class="clusterblast-orf"  />
</g>
</svg>
