<svg xmlns="http://www.w3.org/2000/svg" height="230" width="800" version="1.1" y="0" x="0" preserveAspectRatio="none" xmlns:xlink="http://www.w3.org/1999/xlink" viewBox="0 0 800 230"  >
<g class="clusterblast-cluster" label="Query sequence"  >
<text class="clusterblast-acc" y="10" x="5"  >
Query sequence</text>
<line y1="35" x2="778.0" style="stroke:grey; stroke-width:1; " x1="10" y2="35"  />
<polygon style="stroke:black; stroke-width:1; fill:#FFFFFF; " description="unannotated orf[br]Location: 1495 - 3001" locus_tag="CHAFR746836_0081150.1" class="clusterblast-orf" points="97,40 100,40 105,35 100,30 97,30 97,40 " id="clusterblast-1_q13_9_0"  />
<polygon style="stroke:black; stroke-width:1; fill:#FFFFFF; " description="unannotated orf[br]Location: 21967 - 22906" locus_tag="CHAFR746836_0081160.1" class="clusterblast-orf" points="211,40 211,40 216,35 211,30 211,30 211,40 " id="clusterblast-1_q13_9_1"  />
<polygon style="stroke:black; stroke-width:1; fill:rgb(190,63,63); " description="unannotated orf[br]Location: 24204 - 25838" locus_tag="CHAFR746836_0081170.1" class="clusterblast-orf" points="223,40 227,40 232,35 227,30 223,30 223,40 " id="clusterblast-1_q13_9_2"  />
<polygon style="stroke:black; stroke-width:1; fill:rgb(63,63,190); " description="unannotated orf[br]Location: 26476 - 34147" locus_tag="CHAFR746836_0081180.1" class="clusterblast-orf" points="236,35 241,30 279,30 279,40 241,40 236,35 " id="clusterblast-1_q13_9_3"  />
<polygon style="stroke:black; stroke-width:1; fill:rgb(63,190,63); " description="unannotated orf[br]Location: 36803 - 37711" locus_tag="CHAFR746836_0081190.1" class="clusterblast-orf" points="294,40 294,40 299,35 294,30 294,30 294,40 " id="clusterblast-1_q13_9_4"  />
<polygon style="stroke:black; stroke-width:1; fill:#FFFFFF; " description="unannotated orf[br]Location: 39559 - 39909" locus_tag="CHAFR746836_0081200.1" class="clusterblast-orf" points="309,35 311,30 311,40 309,35 " id="clusterblast-1_q13_9_5"  />
<polygon style="stroke:black; stroke-width:1; fill:rgb(190,63,190); " description="unannotated orf[br]Location: 40364 - 42098" locus_tag="CHAFR746836_0081210.1" class="clusterblast-orf" points="313,40 318,40 323,35 318,30 313,30 313,40 " id="clusterblast-1_q13_9_6"  />
<polygon style="stroke:black; stroke-width:1; fill:#FFFFFF; " description="unannotated orf[br]Location: 65220 - 66075" locus_tag="CHAFR746836_0081220.1" class="clusterblast-orf" points="452,35 457,30 457,30 457,40 457,40 452,35 " id="clusterblast-1_q13_9_7"  />
<polygon style="stroke:black; stroke-width:1; fill:rgb(190,190,63); " description="unannotated orf[br]Location: 67588 - 77792" locus_tag="CHAFR746836_0081230.1" class="clusterblast-orf" points="465,40 517,40 522,35 517,30 465,30 465,40 " id="clusterblast-1_q13_9_8"  />
<polygon style="stroke:black; stroke-width:1; fill:#FFFFFF; " description="unannotated orf[br]Location: 80581 - 81578" locus_tag="CHAFR746836_0081240.1" class="clusterblast-orf" points="538,40 539,40 544,35 539,30 538,30 538,40 " id="clusterblast-1_q13_9_9"  />
<polygon style="stroke:black; stroke-width:1; fill:#FFFFFF; " description="unannotated orf[br]Location: 105554 - 107591" locus_tag="CHAFR746836_0081250.1" class="clusterblast-orf" points="677,35 682,30 689,30 689,40 682,40 677,35 " id="clusterblast-1_q13_9_10"  />
</g>
<g class="clusterblast-cluster" description="Aspergillus oryzae RIB40 DNA, SC001." label="AP007154.1_c3"  >
<text class="clusterblast-acc" y="60" x="5"  >
AP007154.1_c3</text>
<text class="clusterblast-desc" y="60" x="460.8"  >
Aspergillus oryzae RIB40 DNA, SC001.</text>
<line y1="85" x2="778.0" style="stroke:grey; stroke-width:1; " x1="10" y2="85"  />
<polygon style="stroke:black; stroke-width:1; fill:#FFFFFF; " description="[br]Location: 618690 - 619367" locus_tag="AO090001000253" id="clusterblast-1_h13_9_0" points="10,90 13,85 10,80 10,90 " class="clusterblast-orf"  />
<polygon style="stroke:black; stroke-width:1; fill:#FFFFFF; " description="[br]Location: 621183 - 622491" locus_tag="AO090001000254" id="clusterblast-1_h13_9_1" points="23,90 26,90 31,85 26,80 23,80 23,90 " class="clusterblast-orf"  />
<polygon style="stroke:black; stroke-width:1; fill:#FFFFFF; " description="[br]Location: 623341 - 624168" locus_tag="AO090001000255" id="clusterblast-1_h13_9_2" points="35,90 35,90 40,85 35,80 35,80 35,90 " class="clusterblast-orf"  />
<polygon style="stroke:black; stroke-width:1; fill:#FFFFFF; " description="[br]Location: 626435 - 627372" locus_tag="AO090001000256" id="clusterblast-1_h13_9_3" points="53,90 53,90 58,85 53,80 53,80 53,90 " class="clusterblast-orf"  />
<polygon style="stroke:black; stroke-width:1; fill:#FFFFFF; " description="[br]Location: 628006 - 628813" locus_tag="AO090001000257" id="clusterblast-1_h13_9_4" points="62,90 66,85 62,80 62,90 " class="clusterblast-orf"  />
<polygon style="stroke:black; stroke-width:1; fill:#FFFFFF; " description="[br]Location: 629120 - 630472" locus_tag="AO090001000258" id="clusterblast-1_h13_9_5" points="68,85 73,80 75,80 75,90 73,90 68,85 " class="clusterblast-orf"  />
<polygon style="stroke:black; stroke-width:1; fill:#FFFFFF; " description="[br]Location: 631077 - 633254" locus_tag="AO090001000259" id="clusterblast-1_h13_9_6" points="79,90 86,90 91,85 86,80 79,80 79,90 " class="clusterblast-orf"  />
<polygon style="stroke:black; stroke-width:1; fill:#FFFFFF; " description="[br]Location: 633887 - 636916" locus_tag="AO090001000260" id="clusterblast-1_h13_9_7" points="94,85 99,80 111,80 111,90 99,90 94,85 " class="clusterblast-orf"  />
<polygon style="stroke:black; stroke-width:1; fill:#FFFFFF; " description="[br]Location: 637265 - 638397" locus_tag="AO090001000261" id="clusterblast-1_h13_9_8" points="113,85 118,80 120,80 120,90 118,90 113,85 " class="clusterblast-orf"  />
<polygon style="stroke:black; stroke-width:1; fill:#FFFFFF; " description="[br]Location: 638748 - 655090" locus_tag="AO090001000262" id="clusterblast-1_h13_9_9" points="121,90 208,90 213,85 208,80 121,80 121,90 " class="clusterblast-orf"  />
<polygon style="stroke:black; stroke-width:1; fill:#FFFFFF; " description="[br]Location: 656686 - 657222" locus_tag="AO090001000263" id="clusterblast-1_h13_9_10" points="222,90 225,85 222,80 222,90 " class="clusterblast-orf"  />
<polygon style="stroke:black; stroke-width:1; fill:#FFFFFF; " description="[br]Location: 657634 - 658704" locus_tag="AO090001000264" id="clusterblast-1_h13_9_11" points="227,90 228,90 233,85 228,80 227,80 227,90 " class="clusterblast-orf"  />
<polygon style="stroke:black; stroke-width:1; fill:#FFFFFF; " description="[br]Location: 659394 - 662514" locus_tag="AO090001000265" id="clusterblast-1_h13_9_12" points="237,90 249,90 254,85 249,80 237,80 237,90 " class="clusterblast-orf"  />
<polygon style="stroke:black; stroke-width:1; fill:#FFFFFF; " description="[br]Location: 663368 - 665832" locus_tag="AO090001000266" id="clusterblast-1_h13_9_13" points="259,90 268,90 273,85 268,80 259,80 259,90 " class="clusterblast-orf"  />
<polygon style="stroke:black; stroke-width:1; fill:#FFFFFF; " description="[br]Location: 666525 - 670738" locus_tag="AO090001000267" id="clusterblast-1_h13_9_14" points="277,90 295,90 300,85 295,80 277,80 277,90 " class="clusterblast-orf"  />
<polygon style="stroke:black; stroke-width:1; fill:#FFFFFF; " description="[br]Location: 671670 - 674458" locus_tag="AO090001000268" id="clusterblast-1_h13_9_15" points="305,90 316,90 321,85 316,80 305,80 305,90 " class="clusterblast-orf"  />
<polygon style="stroke:black; stroke-width:1; fill:#FFFFFF; " description="[br]Location: 675348 - 677824" locus_tag="AO090001000269" id="clusterblast-1_h13_9_16" points="326,90 335,90 340,85 335,80 326,80 326,90 " class="clusterblast-orf"  />
<polygon style="stroke:black; stroke-width:1; fill:#FFFFFF; " description="[br]Location: 678923 - 679917" locus_tag="AO090001000270" id="clusterblast-1_h13_9_17" points="346,85 351,80 351,80 351,90 351,90 346,85 " class="clusterblast-orf"  />
<polygon style="stroke:black; stroke-width:1; fill:#FFFFFF; " description="[br]Location: 680648 - 681182" locus_tag="AO090001000271" id="clusterblast-1_h13_9_18" points="355,90 358,85 355,80 355,90 " class="clusterblast-orf"  />
<polygon style="stroke:black; stroke-width:1; fill:#FFFFFF; " description="[br]Location: 681516 - 681968" locus_tag="AO090001000272" id="clusterblast-1_h13_9_19" points="360,90 363,85 360,80 360,90 " class="clusterblast-orf"  />
<polygon style="stroke:black; stroke-width:1; fill:#FFFFFF; " description="[br]Location: 682448 - 683787" locus_tag="AO090001000273" id="clusterblast-1_h13_9_20" points="365,90 368,90 373,85 368,80 365,80 365,90 " class="clusterblast-orf"  />
<polygon style="stroke:black; stroke-width:1; fill:#FFFFFF; " description="[br]Location: 685610 - 687413" locus_tag="AO090001000275" id="clusterblast-1_h13_9_21" points="383,85 388,80 393,80 393,90 388,90 383,85 " class="clusterblast-orf"  />
<polygon style="stroke:black; stroke-width:1; fill:rgb(63,63,190); " description="[br]Location: 688720 - 700560&lt;br&gt;&lt;br&gt;&lt;b&gt;BlastP hit with CHAFR746836_0081180.1&lt;/b&gt;&lt;br&gt;Percentage identity: 37%&lt;br&gt;Percentage coverage: 102%&lt;br&gt;BLAST bit score: 1607&lt;br&gt;E-value: 0.0" locus_tag="AO090001000277" id="clusterblast-1_h13_9_22" points="400,85 405,80 467,80 467,90 405,90 400,85 " class="clusterblast-orf"  />
<polygon style="stroke:black; stroke-width:1; fill:#FFFFFF; " description="[br]Location: 700845 - 701323" locus_tag="AO090001000278" id="clusterblast-1_h13_9_23" points="468,90 471,85 468,80 468,90 " class="clusterblast-orf"  />
<polygon style="stroke:black; stroke-width:1; fill:#FFFFFF; " description="[br]Location: 701653 - 702618" locus_tag="AO090001000279" id="clusterblast-1_h13_9_24" points="473,85 478,80 478,80 478,90 478,90 473,85 " class="clusterblast-orf"  />
<polygon style="stroke:black; stroke-width:1; fill:#FFFFFF; " description="[br]Location: 702754 - 703431" locus_tag="AO090001000280" id="clusterblast-1_h13_9_25" points="479,85 483,80 483,90 479,85 " class="clusterblast-orf"  />
<polygon style="stroke:black; stroke-width:1; fill:#FFFFFF; " description="[br]Location: 703506 - 703928" locus_tag="AO090001000281" id="clusterblast-1_h13_9_26" points="483,85 485,80 485,90 483,85 " class="clusterblast-orf"  />
<polygon style="stroke:black; stroke-width:1; fill:rgb(190,63,63); " description="[br]Location: 704562 - 706072&lt;br&gt;&lt;br&gt;&lt;b&gt;BlastP hit with CHAFR746836_0081170.1&lt;/b&gt;&lt;br&gt;Percentage identity: 35%&lt;br&gt;Percentage coverage: 75%&lt;br&gt;BLAST bit score: 199&lt;br&gt;E-value: 2e-56" locus_tag="AO090001000282" id="clusterblast-1_h13_9_27" points="489,90 492,90 497,85 492,80 489,80 489,90 " class="clusterblast-orf"  />
<polygon style="stroke:black; stroke-width:1; fill:#FFFFFF; " description="[br]Location: 706986 - 707376" locus_tag="AO090001000283" id="clusterblast-1_h13_9_28" points="502,85 505,80 505,90 502,85 " class="clusterblast-orf"  />
<polygon style="stroke:black; stroke-width:1; fill:#FFFFFF; " description="[br]Location: 707482 - 708600" locus_tag="AO090001000284" id="clusterblast-1_h13_9_29" points="505,85 510,80 511,80 511,90 510,90 505,85 " class="clusterblast-orf"  />
<polygon style="stroke:black; stroke-width:1; fill:#FFFFFF; " description="[br]Location: 711106 - 713417" locus_tag="AO090001000285" id="clusterblast-1_h13_9_30" points="525,90 533,90 538,85 533,80 525,80 525,90 " class="clusterblast-orf"  />
<polygon style="stroke:black; stroke-width:1; fill:#FFFFFF; " description="[br]Location: 714133 - 714879" locus_tag="AO090001000286" id="clusterblast-1_h13_9_31" points="542,85 546,80 546,90 542,85 " class="clusterblast-orf"  />
<polygon style="stroke:black; stroke-width:1; fill:#FFFFFF; " description="[br]Location: 715634 - 716775" locus_tag="AO090001000287" id="clusterblast-1_h13_9_32" points="551,90 552,90 557,85 552,80 551,80 551,90 " class="clusterblast-orf"  />
<polygon style="stroke:black; stroke-width:1; fill:#FFFFFF; " description="[br]Location: 717010 - 718895" locus_tag="AO090001000288" id="clusterblast-1_h13_9_33" points="558,85 563,80 569,80 569,90 563,90 558,85 " class="clusterblast-orf"  />
<polygon style="stroke:black; stroke-width:1; fill:#FFFFFF; " description="[br]Location: 718972 - 720365" locus_tag="AO090001000289" id="clusterblast-1_h13_9_34" points="569,90 572,90 577,85 572,80 569,80 569,90 " class="clusterblast-orf"  />
<polygon style="stroke:black; stroke-width:1; fill:#FFFFFF; " description="[br]Location: 720892 - 722379" locus_tag="AO090001000290" id="clusterblast-1_h13_9_35" points="580,90 583,90 588,85 583,80 580,80 580,90 " class="clusterblast-orf"  />
<polygon style="stroke:black; stroke-width:1; fill:#FFFFFF; " description="[br]Location: 723350 - 724381" locus_tag="AO090001000291" id="clusterblast-1_h13_9_36" points="594,85 599,80 599,80 599,90 599,90 594,85 " class="clusterblast-orf"  />
<polygon style="stroke:black; stroke-width:1; fill:#FFFFFF; " description="[br]Location: 724896 - 725715" locus_tag="AO090001000292" id="clusterblast-1_h13_9_37" points="602,85 607,80 607,80 607,90 607,90 602,85 " class="clusterblast-orf"  />
<polygon style="stroke:black; stroke-width:1; fill:rgb(63,63,190); " description="[br]Location: 726483 - 734003&lt;br&gt;&lt;br&gt;&lt;b&gt;BlastP hit with CHAFR746836_0081180.1&lt;/b&gt;&lt;br&gt;Percentage identity: 41%&lt;br&gt;Percentage coverage: 50%&lt;br&gt;BLAST bit score: 913&lt;br&gt;E-value: 0.0" locus_tag="AO090001000293" id="clusterblast-1_h13_9_38" points="611,90 648,90 653,85 648,80 611,80 611,90 " class="clusterblast-orf"  />
<polygon style="stroke:black; stroke-width:1; fill:#FFFFFF; " description="[br]Location: 749752 - 751686" locus_tag="AO090001000294" id="clusterblast-1_h13_9_39" points="741,90 747,90 752,85 747,80 741,80 741,90 " class="clusterblast-orf"  />
<polygon style="stroke:black; stroke-width:1; fill:#FFFFFF; " description="[br]Location: 753677 - 756269" locus_tag="AO090001000295" id="clusterblast-1_h13_9_40" points="763,90 773,90 778,85 773,80 763,80 763,90 " class="clusterblast-orf"  />
</g>
</svg>
