<svg xmlns="http://www.w3.org/2000/svg" height="230" width="800" version="1.1" y="0" x="0" preserveAspectRatio="none" xmlns:xlink="http://www.w3.org/1999/xlink" viewBox="0 0 800 230"  >
<g class="clusterblast-cluster" label="Query sequence"  >
<text class="clusterblast-acc" y="10" x="5"  >
Query sequence</text>
<line y1="35" x2="778.0" style="stroke:grey; stroke-width:1; " x1="10" y2="35"  />
<polygon style="stroke:black; stroke-width:1; fill:#FFFFFF; " description="unannotated orf[br]Location: 25963 - 28663" locus_tag="CHAFR746836_0081060.1" class="clusterblast-orf" points="52,35 57,30 98,30 98,40 57,40 52,35 " id="clusterblast-1_q12_4_0"  />
<polygon style="stroke:black; stroke-width:1; fill:#FFFFFF; " description="unannotated orf[br]Location: 30819 - 31372" locus_tag="CHAFR746836_0081070.1" class="clusterblast-orf" points="134,35 139,30 144,30 144,40 139,40 134,35 " id="clusterblast-1_q12_4_1"  />
<polygon style="stroke:black; stroke-width:1; fill:#FFFFFF; " description="unannotated orf[br]Location: 32308 - 34099" locus_tag="CHAFR746836_0081080.1" class="clusterblast-orf" points="160,40 185,40 190,35 185,30 160,30 160,40 " id="clusterblast-1_q12_4_2"  />
<polygon style="stroke:black; stroke-width:1; fill:red; " description="unannotated orf[br]Location: 34732 - 35414" locus_tag="CHAFR746836_0081090.1" class="clusterblast-orf" points="201,35 206,30 213,30 213,40 206,40 201,35 " id="clusterblast-1_q12_4_3"  />
<polygon style="stroke:black; stroke-width:1; fill:#FFFFFF; " description="unannotated orf[br]Location: 35795 - 37570" locus_tag="CHAFR746836_0081100.1" class="clusterblast-orf" points="219,40 245,40 250,35 245,30 219,30 219,40 " id="clusterblast-1_q12_4_4"  />
<polygon style="stroke:black; stroke-width:1; fill:green; " description="unannotated orf[br]Location: 39190 - 39826" locus_tag="CHAFR746836_0081110.1" class="clusterblast-orf" points="277,35 282,30 288,30 288,40 282,40 277,35 " id="clusterblast-1_q12_4_5"  />
<polygon style="stroke:black; stroke-width:1; fill:#FFFFFF; " description="unannotated orf[br]Location: 40045 - 40878" locus_tag="CHAFR746836_0081120.1" class="clusterblast-orf" points="292,40 301,40 306,35 301,30 292,30 292,40 " id="clusterblast-1_q12_4_6"  />
<polygon style="stroke:black; stroke-width:1; fill:#FFFFFF; " description="unannotated orf[br]Location: 43039 - 45807" locus_tag="CHAFR746836_0081130.1" class="clusterblast-orf" points="343,35 348,30 390,30 390,40 348,40 343,35 " id="clusterblast-1_q12_4_7"  />
<polygon style="stroke:black; stroke-width:1; fill:#FFFFFF; " description="unannotated orf[br]Location: 63962 - 65930" locus_tag="CHAFR746836_0081140.1" class="clusterblast-orf" points="700,40 729,40 734,35 729,30 700,30 700,40 " id="clusterblast-1_q12_4_8"  />
<polygon style="stroke:black; stroke-width:1; fill:#FFFFFF; " description="unannotated orf[br]Location: 63962 - 65930" locus_tag="CHAFR746836_0081140.2" class="clusterblast-orf" points="700,40 729,40 734,35 729,30 700,30 700,40 " id="clusterblast-1_q12_4_9"  />
</g>
<g class="clusterblast-cluster" description="Staphylococcus saprophyticus subsp. saprophyticus ATCC 1530..." label="NC_007350.1_c1"  >
<text class="clusterblast-acc" y="60" x="5"  >
NC_007350.1_c1</text>
<text class="clusterblast-desc" y="60" x="460.8"  >
Staphylococcus saprophyticus subsp. saprophyticus ATCC 1530...</text>
<line y1="85" x2="778.0" style="stroke:grey; stroke-width:1; " x1="10" y2="85"  />
<polygon style="stroke:black; stroke-width:1; fill:#FFFFFF; " description="arginase[br]Location: 749451 - 750356" locus_tag="SSP0721" id="clusterblast-1_h12_4_0" points="10,85 15,80 25,80 25,90 15,90 10,85 " class="clusterblast-orf"  />
<polygon style="stroke:black; stroke-width:1; fill:#FFFFFF; " description="putative_chromosome_partitioning_ATPase[br]Location: 742157 - 743221" locus_tag="SSP0720" id="clusterblast-1_h12_4_1" points="131,85 136,80 149,80 149,90 136,90 131,85 " class="clusterblast-orf"  />
<polygon style="stroke:black; stroke-width:1; fill:#FFFFFF; " description="hypothetical_protein[br]Location: 741456 - 741914" locus_tag="SSP0719" id="clusterblast-1_h12_4_2" points="154,85 159,80 161,80 161,90 159,90 154,85 " class="clusterblast-orf"  />
<polygon style="stroke:black; stroke-width:1; fill:#FFFFFF; " description="major_facilitator_superfamily_permease[br]Location: 739932 - 741269" locus_tag="SSP0718" id="clusterblast-1_h12_4_3" points="165,85 170,80 187,80 187,90 170,90 165,85 " class="clusterblast-orf"  />
<polygon style="stroke:black; stroke-width:1; fill:#FFFFFF; " description="hypothetical_protein[br]Location: 739074 - 739757" locus_tag="SSP0717" id="clusterblast-1_h12_4_4" points="190,85 195,80 202,80 202,90 195,90 190,85 " class="clusterblast-orf"  />
<polygon style="stroke:black; stroke-width:1; fill:#FFFFFF; " description="putative_UDP-N-acetylglucosamine[br]Location: 737870 - 739057" locus_tag="SSP0716" id="clusterblast-1_h12_4_5" points="202,85 207,80 223,80 223,90 207,90 202,85 " class="clusterblast-orf"  />
<polygon style="stroke:black; stroke-width:1; fill:#FFFFFF; " description="hypothetical_protein[br]Location: 737251 - 737754" locus_tag="SSP0715" id="clusterblast-1_h12_4_6" points="225,85 230,80 233,80 233,90 230,90 225,85 " class="clusterblast-orf"  />
<polygon style="stroke:black; stroke-width:1; fill:#FFFFFF; " description="hypothetical_protein[br]Location: 736814 - 737074" locus_tag="SSP0714" id="clusterblast-1_h12_4_7" points="236,90 236,90 241,85 236,80 236,80 236,90 " class="clusterblast-orf"  />
<polygon style="stroke:black; stroke-width:1; fill:#FFFFFF; " description="heme-degrading_monooxygenase_IsdG[br]Location: 736296 - 736610" locus_tag="SSP0713" id="clusterblast-1_h12_4_8" points="244,90 244,90 249,85 244,80 244,80 244,90 " class="clusterblast-orf"  />
<polygon style="stroke:black; stroke-width:1; fill:#FFFFFF; " description="hypothetical_protein[br]Location: 734754 - 736127" locus_tag="SSP0712" id="clusterblast-1_h12_4_9" points="252,85 257,80 276,80 276,90 257,90 252,85 " class="clusterblast-orf"  />
<polygon style="stroke:black; stroke-width:1; fill:#FFFFFF; " description="putative_ABC-type_cobalamin_Fe3+-siderophores[br]Location: 733575 - 734537" locus_tag="SSP0711" id="clusterblast-1_h12_4_10" points="280,85 285,80 296,80 296,90 285,90 280,85 " class="clusterblast-orf"  />
<polygon style="stroke:black; stroke-width:1; fill:#FFFFFF; " description="putative_ABC-type_cobalamin_Fe3+-siderophores[br]Location: 732544 - 733578" locus_tag="SSP0710" id="clusterblast-1_h12_4_11" points="296,85 301,80 314,80 314,90 301,90 296,85 " class="clusterblast-orf"  />
<polygon style="stroke:black; stroke-width:1; fill:#FFFFFF; " description="putative_ABC-type_cobalamin_Fe3+-siderophores[br]Location: 731521 - 732531" locus_tag="SSP0709" id="clusterblast-1_h12_4_12" points="314,85 319,80 331,80 331,90 319,90 314,85 " class="clusterblast-orf"  />
<polygon style="stroke:black; stroke-width:1; fill:#FFFFFF; " description="putative_amino_acid_racemase[br]Location: 730365 - 731426" locus_tag="SSP0708" id="clusterblast-1_h12_4_13" points="333,85 338,80 351,80 351,90 338,90 333,85 " class="clusterblast-orf"  />
<polygon style="stroke:black; stroke-width:1; fill:#FFFFFF; " description="hypothetical_protein[br]Location: 728604 - 730361" locus_tag="SSP0707" id="clusterblast-1_h12_4_14" points="351,85 356,80 381,80 381,90 356,90 351,85 " class="clusterblast-orf"  />
<polygon style="stroke:black; stroke-width:1; fill:#FFFFFF; " description="major_facilitator_superfamily_permease[br]Location: 727432 - 728607" locus_tag="SSP0706" id="clusterblast-1_h12_4_15" points="381,85 386,80 401,80 401,90 386,90 381,85 " class="clusterblast-orf"  />
<polygon style="stroke:black; stroke-width:1; fill:#FFFFFF; " description="hypothetical_protein[br]Location: 725374 - 727329" locus_tag="SSP0705" id="clusterblast-1_h12_4_16" points="403,90 431,90 436,85 431,80 403,80 403,90 " class="clusterblast-orf"  />
<polygon style="stroke:black; stroke-width:1; fill:#FFFFFF; " description="alkaline_shock_protein_23[br]Location: 724770 - 725270" locus_tag="SSP0704" id="clusterblast-1_h12_4_17" points="438,85 443,80 446,80 446,90 443,90 438,85 " class="clusterblast-orf"  />
<polygon style="stroke:black; stroke-width:1; fill:#FFFFFF; " description="hypothetical_protein[br]Location: 724402 - 724641" locus_tag="SSP0703" id="clusterblast-1_h12_4_18" points="448,85 453,80 453,80 453,90 453,90 448,85 " class="clusterblast-orf"  />
<polygon style="stroke:black; stroke-width:1; fill:#FFFFFF; " description="hypothetical_protein[br]Location: 723853 - 724389" locus_tag="SSP0702" id="clusterblast-1_h12_4_19" points="453,85 458,80 462,80 462,90 458,90 453,85 " class="clusterblast-orf"  />
<polygon style="stroke:black; stroke-width:1; fill:#FFFFFF; " description="putative_glycine_betaine_transporter[br]Location: 722134 - 723708" locus_tag="SSP0701" id="clusterblast-1_h12_4_20" points="464,85 469,80 491,80 491,90 469,90 464,85 " class="clusterblast-orf"  />
<polygon style="stroke:black; stroke-width:1; fill:#FFFFFF; " description="putative_zinc-binding_dehydrogenase[br]Location: 720905 - 721912" locus_tag="SSP0700" id="clusterblast-1_h12_4_21" points="495,85 500,80 512,80 512,90 500,90 495,85 " class="clusterblast-orf"  />
<polygon style="stroke:black; stroke-width:1; fill:#FFFFFF; " description="putative_NADP-dependent_oxidoreductase[br]Location: 719877 - 720884" locus_tag="SSP0699" id="clusterblast-1_h12_4_22" points="513,85 518,80 530,80 530,90 518,90 513,85 " class="clusterblast-orf"  />
<polygon style="stroke:black; stroke-width:1; fill:#FFFFFF; " description="putative_oxidoreductase[br]Location: 718735 - 719727" locus_tag="SSP0698" id="clusterblast-1_h12_4_23" points="532,90 544,90 549,85 544,80 532,80 532,90 " class="clusterblast-orf"  />
<polygon style="stroke:black; stroke-width:1; fill:#FFFFFF; " description="hypothetical_protein[br]Location: 717821 - 718684" locus_tag="SSP0697" id="clusterblast-1_h12_4_24" points="550,85 555,80 565,80 565,90 555,90 550,85 " class="clusterblast-orf"  />
<polygon style="stroke:black; stroke-width:1; fill:green; " description="30S_ribosomal_protein_S9[br]Location: 717211 - 717603&lt;br&gt;&lt;br&gt;&lt;b&gt;BlastP hit with CHAFR746836_0081110.1&lt;/b&gt;&lt;br&gt;Percentage identity: 31%&lt;br&gt;Percentage coverage: 100%&lt;br&gt;BLAST bit score: 48&lt;br&gt;E-value: 7e-07" locus_tag="SSP0696" id="clusterblast-1_h12_4_25" points="569,85 574,80 575,80 575,90 574,90 569,85 " class="clusterblast-orf"  />
<polygon style="stroke:black; stroke-width:1; fill:#FFFFFF; " description="50S_ribosomal_protein_L13[br]Location: 716754 - 717191" locus_tag="SSP0695" id="clusterblast-1_h12_4_26" points="576,85 581,80 583,80 583,90 581,90 576,85 " class="clusterblast-orf"  />
<polygon style="stroke:black; stroke-width:1; fill:#FFFFFF; " description="tRNA_pseudouridine_synthase_A[br]Location: 715746 - 716549" locus_tag="SSP0694" id="clusterblast-1_h12_4_27" points="587,85 592,80 600,80 600,90 592,90 587,85 " class="clusterblast-orf"  />
<polygon style="stroke:black; stroke-width:1; fill:#FFFFFF; " description="putative_ABC-type_cobalt_transport_system[br]Location: 714933 - 715739" locus_tag="SSP0693" id="clusterblast-1_h12_4_28" points="600,85 605,80 614,80 614,90 605,90 600,85 " class="clusterblast-orf"  />
<polygon style="stroke:black; stroke-width:1; fill:#FFFFFF; " description="cobalt_transporter_ATP-binding_subunit[br]Location: 714080 - 714943" locus_tag="SSP0692" id="clusterblast-1_h12_4_29" points="614,85 619,80 629,80 629,90 619,90 614,85 " class="clusterblast-orf"  />
<polygon style="stroke:black; stroke-width:1; fill:#FFFFFF; " description="cobalt_transporter_ATP-binding_subunit[br]Location: 713274 - 714083" locus_tag="SSP0691" id="clusterblast-1_h12_4_30" points="629,85 634,80 642,80 642,90 634,90 629,85 " class="clusterblast-orf"  />
<polygon style="stroke:black; stroke-width:1; fill:#FFFFFF; " description="50S_ribosomal_protein_L17[br]Location: 712225 - 712593" locus_tag="SSP0690" id="clusterblast-1_h12_4_31" points="654,85 659,80 660,80 660,90 659,90 654,85 " class="clusterblast-orf"  />
<polygon style="stroke:black; stroke-width:1; fill:#FFFFFF; " description="DNA-directed_RNA_polymerase_subunit_alpha[br]Location: 711262 - 712206" locus_tag="SSP0689" id="clusterblast-1_h12_4_32" points="661,85 666,80 677,80 677,90 666,90 661,85 " class="clusterblast-orf"  />
<polygon style="stroke:black; stroke-width:1; fill:red; " description="30S_ribosomal_protein_S11[br]Location: 710797 - 711186&lt;br&gt;&lt;br&gt;&lt;b&gt;BlastP hit with CHAFR746836_0081090.1&lt;/b&gt;&lt;br&gt;Percentage identity: 33%&lt;br&gt;Percentage coverage: 74%&lt;br&gt;BLAST bit score: 68&lt;br&gt;E-value: 6e-14" locus_tag="SSP0688" id="clusterblast-1_h12_4_33" points="678,85 683,80 685,80 685,90 683,90 678,85 " class="clusterblast-orf"  />
<polygon style="stroke:black; stroke-width:1; fill:#FFFFFF; " description="30S_ribosomal_protein_S13[br]Location: 710408 - 710773" locus_tag="SSP0687" id="clusterblast-1_h12_4_34" points="685,85 690,80 691,80 691,90 690,90 685,85 " class="clusterblast-orf"  />
<polygon style="stroke:black; stroke-width:1; fill:#FFFFFF; " description="50S_ribosomal_protein_L36[br]Location: 710273 - 710386" locus_tag="SSP0686" id="clusterblast-1_h12_4_35" points="692,85 694,80 694,90 692,85 " class="clusterblast-orf"  />
<polygon style="stroke:black; stroke-width:1; fill:#FFFFFF; " description="translation_initiation_factor_IF-1[br]Location: 710023 - 710241" locus_tag="SSP0685" id="clusterblast-1_h12_4_36" points="694,85 698,80 698,90 694,85 " class="clusterblast-orf"  />
<polygon style="stroke:black; stroke-width:1; fill:#FFFFFF; " description="adenylate_kinase[br]Location: 709201 - 709851" locus_tag="SSP0684" id="clusterblast-1_h12_4_37" points="701,85 706,80 712,80 712,90 706,90 701,85 " class="clusterblast-orf"  />
<polygon style="stroke:black; stroke-width:1; fill:#FFFFFF; " description="preprotein_translocase_subunit_SecY[br]Location: 707891 - 709183" locus_tag="SSP0683" id="clusterblast-1_h12_4_38" points="712,85 717,80 734,80 734,90 717,90 712,85 " class="clusterblast-orf"  />
<polygon style="stroke:black; stroke-width:1; fill:#FFFFFF; " description="50S_ribosomal_protein_L15[br]Location: 707451 - 707891" locus_tag="SSP0682" id="clusterblast-1_h12_4_39" points="734,85 739,80 742,80 742,90 739,90 734,85 " class="clusterblast-orf"  />
<polygon style="stroke:black; stroke-width:1; fill:#FFFFFF; " description="50S_ribosomal_protein_L30[br]Location: 707253 - 707432" locus_tag="SSP0681" id="clusterblast-1_h12_4_40" points="742,85 745,80 745,90 742,85 " class="clusterblast-orf"  />
<polygon style="stroke:black; stroke-width:1; fill:#FFFFFF; " description="30S_ribosomal_protein_S5[br]Location: 706739 - 707236" locus_tag="SSP0680" id="clusterblast-1_h12_4_41" points="746,85 751,80 754,80 754,90 751,90 746,85 " class="clusterblast-orf"  />
<polygon style="stroke:black; stroke-width:1; fill:#FFFFFF; " description="50S_ribosomal_protein_L18[br]Location: 706356 - 706718" locus_tag="SSP0679" id="clusterblast-1_h12_4_42" points="754,85 759,80 761,80 761,90 759,90 754,85 " class="clusterblast-orf"  />
<polygon style="stroke:black; stroke-width:1; fill:#FFFFFF; " description="50S_ribosomal_protein_L6[br]Location: 705788 - 706324" locus_tag="SSP0678" id="clusterblast-1_h12_4_43" points="761,85 766,80 770,80 770,90 766,90 761,85 " class="clusterblast-orf"  />
<polygon style="stroke:black; stroke-width:1; fill:#FFFFFF; " description="30S_ribosomal_protein_S8[br]Location: 705362 - 705760" locus_tag="SSP0677" id="clusterblast-1_h12_4_44" points="771,85 776,80 778,80 778,90 776,90 771,85 " class="clusterblast-orf"  />
</g>
</svg>
