<svg xmlns="http://www.w3.org/2000/svg" height="230" width="800" version="1.1" y="0" x="0" preserveAspectRatio="none" xmlns:xlink="http://www.w3.org/1999/xlink" viewBox="0 0 800 230"  >
<g class="clusterblast-cluster" label="Query sequence"  >
<text class="clusterblast-acc" y="10" x="5"  >
Query sequence</text>
<line y1="35" x2="778.0" style="stroke:grey; stroke-width:1; " x1="10" y2="35"  />
<polygon style="stroke:black; stroke-width:1; fill:#FFFFFF; " description="unannotated orf[br]Location: 48550 - 50452" locus_tag="CHAFR746836_0048540.1" class="clusterblast-orf" points="16,35 21,30 47,30 47,40 21,40 16,35 " id="clusterblast-1_q60_9_0"  />
<polygon style="stroke:black; stroke-width:1; fill:#FFFFFF; " description="unannotated orf[br]Location: 51110 - 51728" locus_tag="CHAFR746836_0048550.1" class="clusterblast-orf" points="58,35 63,30 69,30 69,40 63,40 58,35 " id="clusterblast-1_q60_9_1"  />
<polygon style="stroke:black; stroke-width:1; fill:#FFFFFF; " description="unannotated orf[br]Location: 53237 - 55611" locus_tag="CHAFR746836_0048560.1" class="clusterblast-orf" points="94,35 99,30 134,30 134,40 99,40 94,35 " id="clusterblast-1_q60_9_2"  />
<polygon style="stroke:black; stroke-width:1; fill:#FFFFFF; " description="unannotated orf[br]Location: 57932 - 59484" locus_tag="CHAFR746836_0048570.1" class="clusterblast-orf" points="173,40 194,40 199,35 194,30 173,30 173,40 " id="clusterblast-1_q60_9_3"  />
<polygon style="stroke:black; stroke-width:1; fill:#FFFFFF; " description="unannotated orf[br]Location: 62331 - 63950" locus_tag="CHAFR746836_0048580.1" class="clusterblast-orf" points="246,35 251,30 273,30 273,40 251,40 246,35 " id="clusterblast-1_q60_9_4"  />
<polygon style="stroke:black; stroke-width:1; fill:red; " description="unannotated orf[br]Location: 64666 - 66296" locus_tag="CHAFR746836_0048590.1" class="clusterblast-orf" points="285,40 308,40 313,35 308,30 285,30 285,40 " id="clusterblast-1_q60_9_5"  />
<polygon style="stroke:black; stroke-width:1; fill:green; " description="unannotated orf[br]Location: 69864 - 75702" locus_tag="CHAFR746836_0048600.1" class="clusterblast-orf" points="372,40 465,40 470,35 465,30 372,30 372,40 " id="clusterblast-1_q60_9_6"  />
<polygon style="stroke:black; stroke-width:1; fill:blue; " description="unannotated orf[br]Location: 79743 - 81850" locus_tag="CHAFR746836_0048610.1" class="clusterblast-orf" points="538,40 568,40 573,35 568,30 538,30 538,40 " id="clusterblast-1_q60_9_7"  />
<polygon style="stroke:black; stroke-width:1; fill:#FFFFFF; " description="unannotated orf[br]Location: 85884 - 86805" locus_tag="CHAFR746836_0048620.1" class="clusterblast-orf" points="641,40 651,40 656,35 651,30 641,30 641,40 " id="clusterblast-1_q60_9_8"  />
<polygon style="stroke:black; stroke-width:1; fill:#FFFFFF; " description="unannotated orf[br]Location: 87662 - 90517" locus_tag="CHAFR746836_0048630.1" class="clusterblast-orf" points="670,40 713,40 718,35 713,30 670,30 670,40 " id="clusterblast-1_q60_9_9"  />
<polygon style="stroke:black; stroke-width:1; fill:#FFFFFF; " description="unannotated orf[br]Location: 91368 - 93605" locus_tag="CHAFR746836_0048640.1" class="clusterblast-orf" points="733,40 765,40 770,35 765,30 733,30 733,40 " id="clusterblast-1_q60_9_10"  />
</g>
<g class="clusterblast-cluster" description="Burkholderia pseudomallei 1106a chromosome II, complete gen..." label="NC_009078.1_c4"  >
<text class="clusterblast-acc" y="60" x="5"  >
NC_009078.1_c4</text>
<text class="clusterblast-desc" y="60" x="460.8"  >
Burkholderia pseudomallei 1106a chromosome II, complete gen...</text>
<line y1="85" x2="778.0" style="stroke:grey; stroke-width:1; " x1="10" y2="85"  />
<polygon style="stroke:black; stroke-width:1; fill:#FFFFFF; " description="putative_aminotransferase[br]Location: 618861 - 620279" locus_tag="BURPS1106A_A0635" id="clusterblast-1_h60_9_0" points="10,85 15,80 33,80 33,90 15,90 10,85 " class="clusterblast-orf"  />
<polygon style="stroke:black; stroke-width:1; fill:#FFFFFF; " description="glutamine_synthetase_catalytic_domain[br]Location: 620315 - 621649" locus_tag="BURPS1106A_A0636" id="clusterblast-1_h60_9_1" points="34,85 39,80 56,80 56,90 39,90 34,85 " class="clusterblast-orf"  />
<polygon style="stroke:black; stroke-width:1; fill:#FFFFFF; " description="glutamine_amidotransferase[br]Location: 621676 - 622476" locus_tag="BURPS1106A_A0637" id="clusterblast-1_h60_9_2" points="57,85 62,80 70,80 70,90 62,90 57,85 " class="clusterblast-orf"  />
<polygon style="stroke:black; stroke-width:1; fill:#FFFFFF; " description="hypothetical_protein[br]Location: 622431 - 622565" locus_tag="BURPS1106A_A0638" id="clusterblast-1_h60_9_3" points="69,85 72,80 72,90 69,85 " class="clusterblast-orf"  />
<polygon style="stroke:black; stroke-width:1; fill:#FFFFFF; " description="hypothetical_protein[br]Location: 622574 - 622708" locus_tag="BURPS1106A_A0639" id="clusterblast-1_h60_9_4" points="72,85 74,80 74,90 72,85 " class="clusterblast-orf"  />
<polygon style="stroke:black; stroke-width:1; fill:#FFFFFF; " description="hypothetical_protein[br]Location: 623232 - 623360" locus_tag="BURPS1106A_A0640" id="clusterblast-1_h60_9_5" points="83,85 85,80 85,90 83,85 " class="clusterblast-orf"  />
<polygon style="stroke:black; stroke-width:1; fill:#FFFFFF; " description="aldehyde_dehydrogenase-like_protein[br]Location: 623418 - 623969" locus_tag="BURPS1106A_A0641" id="clusterblast-1_h60_9_6" points="86,90 90,90 95,85 90,80 86,80 86,90 " class="clusterblast-orf"  />
<polygon style="stroke:black; stroke-width:1; fill:red; " description="aldehyde_dehydrogenase_(NAD)_family_protein[br]Location: 624079 - 625569&lt;br&gt;&lt;br&gt;&lt;b&gt;BlastP hit with CHAFR746836_0048590.1&lt;/b&gt;&lt;br&gt;Percentage identity: 39%&lt;br&gt;Percentage coverage: 94%&lt;br&gt;BLAST bit score: 301&lt;br&gt;E-value: 5e-94" locus_tag="BURPS1106A_A0642" id="clusterblast-1_h60_9_7" points="97,90 117,90 122,85 117,80 97,80 97,90 " class="clusterblast-orf"  />
<polygon style="stroke:black; stroke-width:1; fill:green; " description="agmatinase[br]Location: 625700 - 626662&lt;br&gt;&lt;br&gt;&lt;b&gt;BlastP hit with CHAFR746836_0048600.1&lt;/b&gt;&lt;br&gt;Percentage identity: 37%&lt;br&gt;Percentage coverage: 22%&lt;br&gt;BLAST bit score: 179&lt;br&gt;E-value: 9e-48" locus_tag="BURPS1106A_A0643" id="clusterblast-1_h60_9_8" points="124,90 135,90 140,85 135,80 124,80 124,90 " class="clusterblast-orf"  />
<polygon style="stroke:black; stroke-width:1; fill:#FFFFFF; " description="hypothetical_protein[br]Location: 626781 - 627194" locus_tag="BURPS1106A_A0644" id="clusterblast-1_h60_9_9" points="142,90 144,90 149,85 144,80 142,80 142,90 " class="clusterblast-orf"  />
<polygon style="stroke:black; stroke-width:1; fill:#FFFFFF; " description="co-chaperonin_GroES[br]Location: 627332 - 627622" locus_tag="BURPS1106A_A0645" id="clusterblast-1_h60_9_10" points="151,90 151,90 156,85 151,80 151,80 151,90 " class="clusterblast-orf"  />
<polygon style="stroke:black; stroke-width:1; fill:#FFFFFF; " description="chaperonin_GroEL[br]Location: 627644 - 629290" locus_tag="BURPS1106A_A0646" id="clusterblast-1_h60_9_11" points="157,90 179,90 184,85 179,80 157,80 157,90 " class="clusterblast-orf"  />
<polygon style="stroke:black; stroke-width:1; fill:#FFFFFF; " description="hypothetical_protein[br]Location: 629351 - 629797" locus_tag="BURPS1106A_A0647" id="clusterblast-1_h60_9_12" points="185,85 190,80 193,80 193,90 190,90 185,85 " class="clusterblast-orf"  />
<polygon style="stroke:black; stroke-width:1; fill:#FFFFFF; " description="hypothetical_protein[br]Location: 629993 - 630145" locus_tag="BURPS1106A_A0648" id="clusterblast-1_h60_9_13" points="196,85 198,80 198,90 196,85 " class="clusterblast-orf"  />
<polygon style="stroke:black; stroke-width:1; fill:#FFFFFF; " description="ribonucleoside-diphosphate_reductase,[br]Location: 630404 - 632938" locus_tag="BURPS1106A_A0649" id="clusterblast-1_h60_9_14" points="203,90 240,90 245,85 240,80 203,80 203,90 " class="clusterblast-orf"  />
<polygon style="stroke:black; stroke-width:1; fill:#FFFFFF; " description="hypothetical_protein[br]Location: 633191 - 633502" locus_tag="BURPS1106A_A0651" id="clusterblast-1_h60_9_15" points="249,90 250,90 255,85 250,80 249,80 249,90 " class="clusterblast-orf"  />
<polygon style="stroke:black; stroke-width:1; fill:#FFFFFF; " description="hypothetical_protein[br]Location: 633490 - 633699" locus_tag="BURPS1106A_A0650" id="clusterblast-1_h60_9_16" points="254,85 258,80 258,90 254,85 " class="clusterblast-orf"  />
<polygon style="stroke:black; stroke-width:1; fill:#FFFFFF; " description="hypothetical_protein[br]Location: 633780 - 633935" locus_tag="BURPS1106A_A0652" id="clusterblast-1_h60_9_17" points="259,85 262,80 262,90 259,85 " class="clusterblast-orf"  />
<polygon style="stroke:black; stroke-width:1; fill:#FFFFFF; " description="2-aminobenzoate-CoA_ligase[br]Location: 633972 - 635597" locus_tag="BURPS1106A_A0653" id="clusterblast-1_h60_9_18" points="263,90 285,90 290,85 285,80 263,80 263,90 " class="clusterblast-orf"  />
<polygon style="stroke:black; stroke-width:1; fill:#FFFFFF; " description="hypothetical_protein[br]Location: 635684 - 636574" locus_tag="BURPS1106A_A0654" id="clusterblast-1_h60_9_19" points="291,90 301,90 306,85 301,80 291,80 291,90 " class="clusterblast-orf"  />
<polygon style="stroke:black; stroke-width:1; fill:#FFFFFF; " description="3-oxoacyl-(acyl-carrier-protein)_synthase_family[br]Location: 636574 - 637680" locus_tag="BURPS1106A_A0655" id="clusterblast-1_h60_9_20" points="306,90 320,90 325,85 320,80 306,80 306,90 " class="clusterblast-orf"  />
<polygon style="stroke:black; stroke-width:1; fill:#FFFFFF; " description="3-oxoacyl-(acyl_carrier_protein)_synthase_III[br]Location: 637670 - 638668" locus_tag="BURPS1106A_A0656" id="clusterblast-1_h60_9_21" points="324,90 336,90 341,85 336,80 324,80 324,90 " class="clusterblast-orf"  />
<polygon style="stroke:black; stroke-width:1; fill:#FFFFFF; " description="metallo-beta-lactamase_family_protein[br]Location: 638647 - 639573" locus_tag="BURPS1106A_A0657" id="clusterblast-1_h60_9_22" points="341,90 351,90 356,85 351,80 341,80 341,90 " class="clusterblast-orf"  />
<polygon style="stroke:black; stroke-width:1; fill:#FFFFFF; " description="acyl-CoA_dehydrogenase[br]Location: 639701 - 643552" locus_tag="BURPS1106A_A0658" id="clusterblast-1_h60_9_23" points="358,90 418,90 423,85 418,80 358,80 358,90 " class="clusterblast-orf"  />
<polygon style="stroke:black; stroke-width:1; fill:#FFFFFF; " description="hypothetical_protein[br]Location: 643566 - 645701" locus_tag="BURPS1106A_A0660" id="clusterblast-1_h60_9_24" points="423,90 454,90 459,85 454,80 423,80 423,90 " class="clusterblast-orf"  />
<polygon style="stroke:black; stroke-width:1; fill:#FFFFFF; " description="hypothetical_protein[br]Location: 645680 - 645913" locus_tag="BURPS1106A_A0659" id="clusterblast-1_h60_9_25" points="459,85 463,80 463,90 459,85 " class="clusterblast-orf"  />
<polygon style="stroke:black; stroke-width:1; fill:#FFFFFF; " description="hypothetical_protein[br]Location: 645981 - 646439" locus_tag="BURPS1106A_A0661" id="clusterblast-1_h60_9_26" points="464,90 466,90 471,85 466,80 464,80 464,90 " class="clusterblast-orf"  />
<polygon style="stroke:black; stroke-width:1; fill:#FFFFFF; " description="hypothetical_protein[br]Location: 646519 - 646665" locus_tag="BURPS1106A_A0662" id="clusterblast-1_h60_9_27" points="473,90 475,85 473,80 473,90 " class="clusterblast-orf"  />
<polygon style="stroke:black; stroke-width:1; fill:#FFFFFF; " description="hypothetical_protein[br]Location: 647272 - 647727" locus_tag="BURPS1106A_A0663" id="clusterblast-1_h60_9_28" points="485,90 488,90 493,85 488,80 485,80 485,90 " class="clusterblast-orf"  />
<polygon style="stroke:black; stroke-width:1; fill:#FFFFFF; " description="transposase[br]Location: 647729 - 647842" locus_tag="BURPS1106A_A0664" id="clusterblast-1_h60_9_29" points="493,85 495,80 495,90 493,85 " class="clusterblast-orf"  />
<polygon style="stroke:black; stroke-width:1; fill:#FFFFFF; " description="transposase_B[br]Location: 648232 - 648468" locus_tag="BURPS1106A_A0665" id="clusterblast-1_h60_9_30" points="501,90 505,85 501,80 501,90 " class="clusterblast-orf"  />
<polygon style="stroke:black; stroke-width:1; fill:#FFFFFF; " description="alkyl_hydroperoxide_reductase,_subunit_F[br]Location: 648683 - 650290" locus_tag="BURPS1106A_A0666" id="clusterblast-1_h60_9_31" points="509,85 514,80 536,80 536,90 514,90 509,85 " class="clusterblast-orf"  />
<polygon style="stroke:black; stroke-width:1; fill:#FFFFFF; " description="alkyl_hydroperoxide_reductase,_subunit_C[br]Location: 650494 - 651057" locus_tag="BURPS1106A_A0667" id="clusterblast-1_h60_9_32" points="539,85 544,80 549,80 549,90 544,90 539,85 " class="clusterblast-orf"  />
<polygon style="stroke:black; stroke-width:1; fill:#FFFFFF; " description="hypothetical_protein[br]Location: 651137 - 651253" locus_tag="BURPS1106A_A0668" id="clusterblast-1_h60_9_33" points="550,85 552,80 552,90 550,85 " class="clusterblast-orf"  />
<polygon style="stroke:black; stroke-width:1; fill:#FFFFFF; " description="chitin-binding_protein[br]Location: 651317 - 652543" locus_tag="BURPS1106A_A0669" id="clusterblast-1_h60_9_34" points="553,85 558,80 574,80 574,90 558,90 553,85 " class="clusterblast-orf"  />
<polygon style="stroke:black; stroke-width:1; fill:#FFFFFF; " description="hypothetical_protein[br]Location: 652974 - 653573" locus_tag="BURPS1106A_A0670" id="clusterblast-1_h60_9_35" points="581,85 586,80 591,80 591,90 586,90 581,85 " class="clusterblast-orf"  />
<polygon style="stroke:black; stroke-width:1; fill:#FFFFFF; " description="nitroreductase_family_protein[br]Location: 653552 - 654175" locus_tag="BURPS1106A_A0671" id="clusterblast-1_h60_9_36" points="590,85 595,80 601,80 601,90 595,90 590,85 " class="clusterblast-orf"  />
<polygon style="stroke:black; stroke-width:1; fill:#FFFFFF; " description="hypothetical_protein[br]Location: 654248 - 654403" locus_tag="BURPS1106A_A0672" id="clusterblast-1_h60_9_37" points="602,85 605,80 605,90 602,85 " class="clusterblast-orf"  />
<polygon style="stroke:black; stroke-width:1; fill:#FFFFFF; " description="hypothetical_protein[br]Location: 654402 - 654614" locus_tag="BURPS1106A_A0673" id="clusterblast-1_h60_9_38" points="605,90 608,85 605,80 605,90 " class="clusterblast-orf"  />
<polygon style="stroke:black; stroke-width:1; fill:#FFFFFF; " description="hypothetical_protein[br]Location: 654892 - 656325" locus_tag="BURPS1106A_A0674" id="clusterblast-1_h60_9_39" points="613,90 632,90 637,85 632,80 613,80 613,90 " class="clusterblast-orf"  />
<polygon style="stroke:black; stroke-width:1; fill:#FFFFFF; " description="hypothetical_protein[br]Location: 656420 - 657361" locus_tag="BURPS1106A_A0675" id="clusterblast-1_h60_9_40" points="638,90 649,90 654,85 649,80 638,80 638,90 " class="clusterblast-orf"  />
<polygon style="stroke:black; stroke-width:1; fill:#FFFFFF; " description="hypothetical_protein[br]Location: 657370 - 658326" locus_tag="BURPS1106A_A0677" id="clusterblast-1_h60_9_41" points="654,90 665,90 670,85 665,80 654,80 654,90 " class="clusterblast-orf"  />
<polygon style="stroke:black; stroke-width:1; fill:#FFFFFF; " description="hypothetical_protein[br]Location: 658295 - 658459" locus_tag="BURPS1106A_A0676" id="clusterblast-1_h60_9_42" points="670,85 673,80 673,90 670,85 " class="clusterblast-orf"  />
<polygon style="stroke:black; stroke-width:1; fill:#FFFFFF; " description="transglutaminase_domain-containing_protein[br]Location: 658463 - 661885" locus_tag="BURPS1106A_A0678" id="clusterblast-1_h60_9_43" points="673,90 725,90 730,85 725,80 673,80 673,90 " class="clusterblast-orf"  />
<polygon style="stroke:black; stroke-width:1; fill:#FFFFFF; " description="hypothetical_protein[br]Location: 661882 - 662061" locus_tag="BURPS1106A_A0679" id="clusterblast-1_h60_9_44" points="730,90 733,85 730,80 730,90 " class="clusterblast-orf"  />
<polygon style="stroke:black; stroke-width:1; fill:#FFFFFF; " description="hypothetical_protein[br]Location: 662025 - 664721" locus_tag="BURPS1106A_A0680" id="clusterblast-1_h60_9_45" points="732,90 773,90 778,85 773,80 732,80 732,90 " class="clusterblast-orf"  />
</g>
</svg>
