<svg xmlns="http://www.w3.org/2000/svg" height="230" width="800" version="1.1" y="0" x="0" preserveAspectRatio="none" xmlns:xlink="http://www.w3.org/1999/xlink" viewBox="0 0 800 230"  >
<g class="clusterblast-cluster" label="Query sequence"  >
<text class="clusterblast-acc" y="10" x="5"  >
Query sequence</text>
<line y1="35" x2="778.0" style="stroke:grey; stroke-width:1; " x1="10" y2="35"  />
<polygon style="stroke:black; stroke-width:1; fill:rgb(169,42,42); " description="unannotated orf[br]Location: 62218 - 64265" locus_tag="CHAFR746836_0054410.1" class="clusterblast-orf" points="10,40 19,40 24,35 19,30 10,30 10,40 " id="clusterblast-1_q1_4_0"  />
<polygon style="stroke:black; stroke-width:1; fill:#FFFFFF; " description="unannotated orf[br]Location: 64981 - 65489" locus_tag="CHAFR746836_0054420.1" class="clusterblast-orf" points="29,40 33,35 29,30 29,40 " id="clusterblast-1_q1_4_1"  />
<polygon style="stroke:black; stroke-width:1; fill:#FFFFFF; " description="unannotated orf[br]Location: 80166 - 81468" locus_tag="CHAFR746836_0054430.1" class="clusterblast-orf" points="136,40 140,40 145,35 140,30 136,30 136,40 " id="clusterblast-1_q1_4_2"  />
<polygon style="stroke:black; stroke-width:1; fill:#FFFFFF; " description="unannotated orf[br]Location: 84860 - 87066" locus_tag="CHAFR746836_0054440.1" class="clusterblast-orf" points="169,40 180,40 185,35 180,30 169,30 169,40 " id="clusterblast-1_q1_4_3"  />
<polygon style="stroke:black; stroke-width:1; fill:rgb(42,169,42); " description="unannotated orf[br]Location: 87538 - 88972" locus_tag="CHAFR746836_0054450.1" class="clusterblast-orf" points="188,40 194,40 199,35 194,30 188,30 188,40 " id="clusterblast-1_q1_4_4"  />
<polygon style="stroke:black; stroke-width:1; fill:rgb(42,169,212); " description="unannotated orf[br]Location: 97154 - 98501" locus_tag="CHAFR746836_0054460.1" class="clusterblast-orf" points="256,35 261,30 266,30 266,40 261,40 256,35 " id="clusterblast-1_q1_4_5"  />
<polygon style="stroke:black; stroke-width:1; fill:#FFFFFF; " description="unannotated orf[br]Location: 108188 - 110019" locus_tag="CHAFR746836_0054470.1" class="clusterblast-orf" points="334,40 342,40 347,35 342,30 334,30 334,40 " id="clusterblast-1_q1_4_6"  />
<polygon style="stroke:black; stroke-width:1; fill:rgb(169,169,42); " description="unannotated orf[br]Location: 111553 - 112688" locus_tag="CHAFR746836_0054480.1" class="clusterblast-orf" points="358,35 363,30 366,30 366,40 363,40 358,35 " id="clusterblast-1_q1_4_7"  />
<polygon style="stroke:black; stroke-width:1; fill:rgb(169,42,127); " description="unannotated orf[br]Location: 113347 - 114741" locus_tag="CHAFR746836_0054490.1" class="clusterblast-orf" points="371,40 376,40 381,35 376,30 371,30 371,40 " id="clusterblast-1_q1_4_8"  />
<polygon style="stroke:black; stroke-width:1; fill:rgb(42,42,212); " description="unannotated orf[br]Location: 114954 - 116913" locus_tag="CHAFR746836_0054500.1" class="clusterblast-orf" points="382,35 387,30 396,30 396,40 387,40 382,35 " id="clusterblast-1_q1_4_9"  />
<polygon style="stroke:black; stroke-width:1; fill:rgb(169,169,212); " description="unannotated orf[br]Location: 128349 - 129215" locus_tag="CHAFR746836_0054510.1" class="clusterblast-orf" points="477,35 482,30 483,30 483,40 482,40 477,35 " id="clusterblast-1_q1_4_10"  />
<polygon style="stroke:black; stroke-width:1; fill:#FFFFFF; " description="unannotated orf[br]Location: 131482 - 134522" locus_tag="CHAFR746836_0054520.1" class="clusterblast-orf" points="499,35 504,30 520,30 520,40 504,40 499,35 " id="clusterblast-1_q1_4_11"  />
<polygon style="stroke:black; stroke-width:1; fill:rgb(42,169,127); " description="unannotated orf[br]Location: 135952 - 139193" locus_tag="CHAFR746836_0054530.1" class="clusterblast-orf" points="530,35 535,30 553,30 553,40 535,40 530,35 " id="clusterblast-1_q1_4_12"  />
<polygon style="stroke:black; stroke-width:1; fill:#FFFFFF; " description="unannotated orf[br]Location: 139580 - 146566" locus_tag="CHAFR746836_0054540.1" class="clusterblast-orf" points="556,35 561,30 605,30 605,40 561,40 556,35 " id="clusterblast-1_q1_4_13"  />
<polygon style="stroke:black; stroke-width:1; fill:#FFFFFF; " description="unannotated orf[br]Location: 150095 - 150570" locus_tag="CHAFR746836_0054550.1" class="clusterblast-orf" points="630,40 634,35 630,30 630,40 " id="clusterblast-1_q1_4_14"  />
<polygon style="stroke:black; stroke-width:1; fill:#FFFFFF; " description="unannotated orf[br]Location: 151645 - 154018" locus_tag="CHAFR746836_0054560.1" class="clusterblast-orf" points="641,40 653,40 658,35 653,30 641,30 641,40 " id="clusterblast-1_q1_4_15"  />
<polygon style="stroke:black; stroke-width:1; fill:rgb(169,42,212); " description="unannotated orf[br]Location: 155657 - 156954" locus_tag="CHAFR746836_0054570.1" class="clusterblast-orf" points="670,40 674,40 679,35 674,30 670,30 670,40 " id="clusterblast-1_q1_4_16"  />
<polygon style="stroke:black; stroke-width:1; fill:#FFFFFF; " description="unannotated orf[br]Location: 161927 - 163454" locus_tag="CHAFR746836_0054580.1" class="clusterblast-orf" points="714,40 720,40 725,35 720,30 714,30 714,40 " id="clusterblast-1_q1_4_17"  />
<polygon style="stroke:black; stroke-width:1; fill:#FFFFFF; " description="unannotated orf[br]Location: 165596 - 167549" locus_tag="CHAFR746836_0054590.1" class="clusterblast-orf" points="740,35 745,30 754,30 754,40 745,40 740,35 " id="clusterblast-1_q1_4_18"  />
<polygon style="stroke:black; stroke-width:1; fill:#FFFFFF; " description="unannotated orf[br]Location: 170397 - 170926" locus_tag="CHAFR746836_0054600.1" class="clusterblast-orf" points="774,35 778,30 778,40 774,35 " id="clusterblast-1_q1_4_19"  />
</g>
<g class="clusterblast-cluster" description="Ajellomyces dermatitidis ATCC 18188 genomic scaffold superco..." label="GG749409.1_c2"  >
<text class="clusterblast-acc" y="60" x="5"  >
GG749409.1_c2</text>
<text class="clusterblast-desc" y="60" x="460.8"  >
Ajellomyces dermatitidis ATCC 18188 genomic scaffold superco...</text>
<line y1="85" x2="778.0" style="stroke:grey; stroke-width:1; " x1="10" y2="85"  />
<polygon style="stroke:black; stroke-width:1; fill:#FFFFFF; " description="hypothetical_protein[br]Location: 1437612 - 1438488" locus_tag="BDDG_01365" id="clusterblast-1_h1_4_0" points="234,85 239,80 240,80 240,90 239,90 234,85 " class="clusterblast-orf"  />
<polygon style="stroke:black; stroke-width:1; fill:rgb(169,42,127); " description="acetylase[br]Location: 1440425 - 1442356&lt;br&gt;&lt;br&gt;&lt;b&gt;BlastP hit with CHAFR746836_0054490.1&lt;/b&gt;&lt;br&gt;Percentage identity: 51%&lt;br&gt;Percentage coverage: 93%&lt;br&gt;BLAST bit score: 430&lt;br&gt;E-value: 5e-146" locus_tag="BDDG_01366" id="clusterblast-1_h1_4_1" points="253,90 262,90 267,85 262,80 253,80 253,90 " class="clusterblast-orf"  />
<polygon style="stroke:black; stroke-width:1; fill:rgb(42,42,212); " description="long-chain-fatty-acid-CoA_ligase[br]Location: 1442484 - 1444646&lt;br&gt;&lt;br&gt;&lt;b&gt;BlastP hit with CHAFR746836_0054500.1&lt;/b&gt;&lt;br&gt;Percentage identity: 60%&lt;br&gt;Percentage coverage: 96%&lt;br&gt;BLAST bit score: 691&lt;br&gt;E-value: 0.0" locus_tag="BDDG_01367" id="clusterblast-1_h1_4_2" points="268,85 273,80 283,80 283,90 273,90 268,85 " class="clusterblast-orf"  />
<polygon style="stroke:black; stroke-width:1; fill:rgb(169,169,212); " description="L-ornithine_5-monooxygenase[br]Location: 1445580 - 1447163&lt;br&gt;&lt;br&gt;&lt;b&gt;BlastP hit with CHAFR746836_0054510.1&lt;/b&gt;&lt;br&gt;Percentage identity: 36%&lt;br&gt;Percentage coverage: 62%&lt;br&gt;BLAST bit score: 108&lt;br&gt;E-value: 1e-25" locus_tag="BDDG_01368" id="clusterblast-1_h1_4_3" points="290,90 296,90 301,85 296,80 290,80 290,90 " class="clusterblast-orf"  />
<polygon style="stroke:black; stroke-width:1; fill:rgb(169,169,42); " description="peroxisomal_dehydratase[br]Location: 1447570 - 1448962&lt;br&gt;&lt;br&gt;&lt;b&gt;BlastP hit with CHAFR746836_0054480.1&lt;/b&gt;&lt;br&gt;Percentage identity: 44%&lt;br&gt;Percentage coverage: 97%&lt;br&gt;BLAST bit score: 231&lt;br&gt;E-value: 5e-72" locus_tag="BDDG_01369" id="clusterblast-1_h1_4_4" points="304,85 309,80 314,80 314,90 309,90 304,85 " class="clusterblast-orf"  />
<polygon style="stroke:black; stroke-width:1; fill:#FFFFFF; " description="hypothetical_protein[br]Location: 1449929 - 1450718" locus_tag="BDDG_01370" id="clusterblast-1_h1_4_5" points="321,85 326,80 326,80 326,90 326,90 321,85 " class="clusterblast-orf"  />
<polygon style="stroke:black; stroke-width:1; fill:#FFFFFF; " description="siderophore_iron_transporter[br]Location: 1451419 - 1453363" locus_tag="BDDG_01371" id="clusterblast-1_h1_4_6" points="331,85 336,80 345,80 345,90 336,90 331,85 " class="clusterblast-orf"  />
<polygon style="stroke:black; stroke-width:1; fill:#FFFFFF; " description="hypothetical_protein[br]Location: 1454898 - 1455230" locus_tag="BDDG_01372" id="clusterblast-1_h1_4_7" points="356,85 358,80 358,90 356,85 " class="clusterblast-orf"  />
<polygon style="stroke:black; stroke-width:1; fill:#FFFFFF; " description="RTA1_domain-containing_protein[br]Location: 1455368 - 1456597" locus_tag="BDDG_01373" id="clusterblast-1_h1_4_8" points="359,90 363,90 368,85 363,80 359,80 359,90 " class="clusterblast-orf"  />
<polygon style="stroke:black; stroke-width:1; fill:#FFFFFF; " description="peptide_synthetase[br]Location: 1457258 - 1463144" locus_tag="BDDG_01374" id="clusterblast-1_h1_4_9" points="372,85 377,80 414,80 414,90 377,90 372,85 " class="clusterblast-orf"  />
<polygon style="stroke:black; stroke-width:1; fill:#FFFFFF; " description="AtrH_protein[br]Location: 1464353 - 1468478" locus_tag="BDDG_01375" id="clusterblast-1_h1_4_10" points="422,90 447,90 452,85 447,80 422,80 422,90 " class="clusterblast-orf"  />
<polygon style="stroke:black; stroke-width:1; fill:#FFFFFF; " description="oxidoreductase[br]Location: 1468921 - 1470519" locus_tag="BDDG_01376" id="clusterblast-1_h1_4_11" points="455,85 460,80 466,80 466,90 460,90 455,85 " class="clusterblast-orf"  />
<polygon style="stroke:black; stroke-width:1; fill:#FFFFFF; " description="hypothetical_protein[br]Location: 1472306 - 1473105" locus_tag="BDDG_01377" id="clusterblast-1_h1_4_12" points="479,90 479,90 484,85 479,80 479,80 479,90 " class="clusterblast-orf"  />
<polygon style="stroke:black; stroke-width:1; fill:#FFFFFF; " description="type_I_phosphodiesterase/nucleotide[br]Location: 1474757 - 1477059" locus_tag="BDDG_01378" id="clusterblast-1_h1_4_13" points="496,85 501,80 512,80 512,90 501,90 496,85 " class="clusterblast-orf"  />
<polygon style="stroke:black; stroke-width:1; fill:#FFFFFF; " description="kinase_domain-containing_protein[br]Location: 1477514 - 1478477" locus_tag="BDDG_01379" id="clusterblast-1_h1_4_14" points="515,90 517,90 522,85 517,80 515,80 515,90 " class="clusterblast-orf"  />
<polygon style="stroke:black; stroke-width:1; fill:#FFFFFF; " description="hypothetical_protein[br]Location: 1479788 - 1482860" locus_tag="BDDG_01380" id="clusterblast-1_h1_4_15" points="531,90 548,90 553,85 548,80 531,80 531,90 " class="clusterblast-orf"  />
</g>
</svg>
