<svg xmlns="http://www.w3.org/2000/svg" height="230" width="800" version="1.1" y="0" x="0" preserveAspectRatio="none" xmlns:xlink="http://www.w3.org/1999/xlink" viewBox="0 0 800 230"  >
<g class="clusterblast-cluster" label="Query sequence"  >
<text class="clusterblast-acc" y="10" x="5"  >
Query sequence</text>
<line y1="35" x2="778.0" style="stroke:grey; stroke-width:1; " x1="10" y2="35"  />
<polygon style="stroke:black; stroke-width:1; fill:#FFFFFF; " description="unannotated orf[br]Location: 4665 - 6373" locus_tag="CHAFR746836_0090420.1" class="clusterblast-orf" points="10,35 15,30 25,30 25,40 15,40 10,35 " id="clusterblast-1_q23_3_0"  />
<polygon style="stroke:black; stroke-width:1; fill:rgb(190,63,63); " description="unannotated orf[br]Location: 13107 - 14013" locus_tag="CHAFR746836_0090430.1" class="clusterblast-orf" points="85,35 90,30 93,30 93,40 90,40 85,35 " id="clusterblast-1_q23_3_1"  />
<polygon style="stroke:black; stroke-width:1; fill:rgb(63,63,190); " description="unannotated orf[br]Location: 15082 - 18583" locus_tag="CHAFR746836_0090440.1" class="clusterblast-orf" points="103,35 108,30 134,30 134,40 108,40 103,35 " id="clusterblast-1_q23_3_2"  />
<polygon style="stroke:black; stroke-width:1; fill:rgb(63,190,63); " description="unannotated orf[br]Location: 62601 - 69132" locus_tag="CHAFR746836_0090450.1" class="clusterblast-orf" points="529,35 534,30 588,30 588,40 534,40 529,35 " id="clusterblast-1_q23_3_3"  />
<polygon style="stroke:black; stroke-width:1; fill:rgb(190,63,190); " description="unannotated orf[br]Location: 70531 - 72251" locus_tag="CHAFR746836_0090460.1" class="clusterblast-orf" points="600,40 611,40 616,35 611,30 600,30 600,40 " id="clusterblast-1_q23_3_4"  />
<polygon style="stroke:black; stroke-width:1; fill:#FFFFFF; " description="unannotated orf[br]Location: 75015 - 76460" locus_tag="CHAFR746836_0090470.1" class="clusterblast-orf" points="641,35 646,30 654,30 654,40 646,40 641,35 " id="clusterblast-1_q23_3_5"  />
<polygon style="stroke:black; stroke-width:1; fill:rgb(190,190,63); " description="unannotated orf[br]Location: 79984 - 80954" locus_tag="CHAFR746836_0090480.1" class="clusterblast-orf" points="685,35 690,30 694,30 694,40 690,40 685,35 " id="clusterblast-1_q23_3_6"  />
<polygon style="stroke:black; stroke-width:1; fill:rgb(190,190,190); " description="unannotated orf[br]Location: 81993 - 83038" locus_tag="CHAFR746836_0090490.1" class="clusterblast-orf" points="703,40 708,40 713,35 708,30 703,30 703,40 " id="clusterblast-1_q23_3_7"  />
<polygon style="stroke:black; stroke-width:1; fill:#FFFFFF; " description="unannotated orf[br]Location: 86529 - 87580" locus_tag="CHAFR746836_0090500.1" class="clusterblast-orf" points="744,35 749,30 753,30 753,40 749,40 744,35 " id="clusterblast-1_q23_3_8"  />
<polygon style="stroke:black; stroke-width:1; fill:#FFFFFF; " description="unannotated orf[br]Location: 88454 - 90258" locus_tag="CHAFR746836_0090510.1" class="clusterblast-orf" points="761,40 773,40 778,35 773,30 761,30 761,40 " id="clusterblast-1_q23_3_9"  />
</g>
<g class="clusterblast-cluster" description="Mycosphaerella graminicola IPO323 chromosome 11, whole genom..." label="CM001206.1_c3"  >
<text class="clusterblast-acc" y="60" x="5"  >
CM001206.1_c3</text>
<text class="clusterblast-desc" y="60" x="460.8"  >
Mycosphaerella graminicola IPO323 chromosome 11, whole genom...</text>
<line y1="85" x2="778.0" style="stroke:grey; stroke-width:1; " x1="10" y2="85"  />
<polygon style="stroke:black; stroke-width:1; fill:#FFFFFF; " description="hypothetical_protein[br]Location: 612724 - 617124" locus_tag="MYCGRDRAFT_96599" id="clusterblast-1_h23_3_0" points="167,90 201,90 206,85 201,80 167,80 167,90 " class="clusterblast-orf"  />
<polygon style="stroke:black; stroke-width:1; fill:#FFFFFF; " description="hypothetical_protein[br]Location: 610262 - 611143" locus_tag="MYCGRDRAFT_111234" id="clusterblast-1_h23_3_1" points="220,85 225,80 228,80 228,90 225,90 220,85 " class="clusterblast-orf"  />
<polygon style="stroke:black; stroke-width:1; fill:#FFFFFF; " description="hypothetical_protein[br]Location: 608709 - 609611" locus_tag="MYCGRDRAFT_49783" id="clusterblast-1_h23_3_2" points="234,90 237,90 242,85 237,80 234,80 234,90 " class="clusterblast-orf"  />
<polygon style="stroke:black; stroke-width:1; fill:#FFFFFF; " description="hypothetical_protein[br]Location: 605976 - 607249" locus_tag="MYCGRDRAFT_111233" id="clusterblast-1_h23_3_3" points="255,90 262,90 267,85 262,80 255,80 255,90 " class="clusterblast-orf"  />
<polygon style="stroke:black; stroke-width:1; fill:rgb(190,63,63); " description="hypothetical_protein[br]Location: 604612 - 605471&lt;br&gt;&lt;br&gt;&lt;b&gt;BlastP hit with CHAFR746836_0090430.1&lt;/b&gt;&lt;br&gt;Percentage identity: 51%&lt;br&gt;Percentage coverage: 84%&lt;br&gt;BLAST bit score: 277&lt;br&gt;E-value: 1e-90" locus_tag="MYCGRDRAFT_87994" id="clusterblast-1_h23_3_4" points="271,85 276,80 279,80 279,90 276,90 271,85 " class="clusterblast-orf"  />
<polygon style="stroke:black; stroke-width:1; fill:rgb(63,63,190); " description="hypothetical_protein[br]Location: 600309 - 603354&lt;br&gt;&lt;br&gt;&lt;b&gt;BlastP hit with CHAFR746836_0090440.1&lt;/b&gt;&lt;br&gt;Percentage identity: 44%&lt;br&gt;Percentage coverage: 64%&lt;br&gt;BLAST bit score: 494&lt;br&gt;E-value: 2e-156" locus_tag="MYCGRDRAFT_87993" id="clusterblast-1_h23_3_5" points="290,85 295,80 317,80 317,90 295,90 290,85 " class="clusterblast-orf"  />
<polygon style="stroke:black; stroke-width:1; fill:#FFFFFF; " description="hypothetical_protein[br]Location: 595714 - 596031" locus_tag="MYCGRDRAFT_96593" id="clusterblast-1_h23_3_6" points="356,85 359,80 359,90 356,85 " class="clusterblast-orf"  />
<polygon style="stroke:black; stroke-width:1; fill:rgb(63,190,63); " description="polyketide_synthase[br]Location: 586456 - 593034&lt;br&gt;&lt;br&gt;&lt;b&gt;BlastP hit with CHAFR746836_0090450.1&lt;/b&gt;&lt;br&gt;Percentage identity: 47%&lt;br&gt;Percentage coverage: 102%&lt;br&gt;BLAST bit score: 1968&lt;br&gt;E-value: 0.0" locus_tag="MYCGRDRAFT_96592" id="clusterblast-1_h23_3_7" points="383,90 437,90 442,85 437,80 383,80 383,90 " class="clusterblast-orf"  />
<polygon style="stroke:black; stroke-width:1; fill:#FFFFFF; " description="hypothetical_protein[br]Location: 584834 - 585795" locus_tag="MYCGRDRAFT_96591" id="clusterblast-1_h23_3_8" points="448,90 451,90 456,85 451,80 448,80 448,90 " class="clusterblast-orf"  />
<polygon style="stroke:black; stroke-width:1; fill:#FFFFFF; " description="putative_ABC/SMC6_protein[br]Location: 578773 - 582315" locus_tag="MYCGRDRAFT_219702" id="clusterblast-1_h23_3_9" points="479,90 506,90 511,85 506,80 479,80 479,90 " class="clusterblast-orf"  />
<polygon style="stroke:black; stroke-width:1; fill:#FFFFFF; " description="hypothetical_protein[br]Location: 574401 - 576048" locus_tag="MYCGRDRAFT_50123" id="clusterblast-1_h23_3_10" points="535,85 540,80 550,80 550,90 540,90 535,85 " class="clusterblast-orf"  />
<polygon style="stroke:black; stroke-width:1; fill:#FFFFFF; " description="hypothetical_protein[br]Location: 570835 - 572265" locus_tag="MYCGRDRAFT_96588" id="clusterblast-1_h23_3_11" points="569,90 577,90 582,85 577,80 569,80 569,90 " class="clusterblast-orf"  />
<polygon style="stroke:black; stroke-width:1; fill:#FFFFFF; " description="hypothetical_protein[br]Location: 569124 - 569917" locus_tag="MYCGRDRAFT_111231" id="clusterblast-1_h23_3_12" points="590,90 592,90 597,85 592,80 590,80 590,90 " class="clusterblast-orf"  />
<polygon style="stroke:black; stroke-width:1; fill:#FFFFFF; " description="hypothetical_protein[br]Location: 568325 - 569131" locus_tag="MYCGRDRAFT_30084" id="clusterblast-1_h23_3_13" points="597,90 599,90 604,85 599,80 597,80 597,90 " class="clusterblast-orf"  />
<polygon style="stroke:black; stroke-width:1; fill:#FFFFFF; " description="hypothetical_protein[br]Location: 566694 - 567897" locus_tag="MYCGRDRAFT_50126" id="clusterblast-1_h23_3_14" points="608,85 613,80 619,80 619,90 613,90 608,85 " class="clusterblast-orf"  />
</g>
</svg>
