<svg xmlns="http://www.w3.org/2000/svg" height="230" width="800" version="1.1" y="0" x="0" preserveAspectRatio="none" xmlns:xlink="http://www.w3.org/1999/xlink" viewBox="0 0 800 230"  >
<g class="clusterblast-cluster" label="Query sequence"  >
<text class="clusterblast-acc" y="10" x="5"  >
Query sequence</text>
<line y1="35" x2="778.0" style="stroke:grey; stroke-width:1; " x1="10" y2="35"  />
<polygon style="stroke:black; stroke-width:1; fill:#FFFFFF; " description="unannotated orf[br]Location: 1495 - 3001" locus_tag="CHAFR746836_0081150.1" class="clusterblast-orf" points="10,40 15,40 20,35 15,30 10,30 10,40 " id="clusterblast-1_q13_10_0"  />
<polygon style="stroke:black; stroke-width:1; fill:#FFFFFF; " description="unannotated orf[br]Location: 21967 - 22906" locus_tag="CHAFR746836_0081160.1" class="clusterblast-orf" points="158,40 159,40 164,35 159,30 158,30 158,40 " id="clusterblast-1_q13_10_1"  />
<polygon style="stroke:black; stroke-width:1; fill:rgb(190,63,63); " description="unannotated orf[br]Location: 24204 - 25838" locus_tag="CHAFR746836_0081170.1" class="clusterblast-orf" points="174,40 181,40 186,35 181,30 174,30 174,40 " id="clusterblast-1_q13_10_2"  />
<polygon style="stroke:black; stroke-width:1; fill:rgb(63,63,190); " description="unannotated orf[br]Location: 26476 - 34147" locus_tag="CHAFR746836_0081180.1" class="clusterblast-orf" points="190,35 195,30 246,30 246,40 195,40 190,35 " id="clusterblast-1_q13_10_3"  />
<polygon style="stroke:black; stroke-width:1; fill:rgb(63,190,63); " description="unannotated orf[br]Location: 36803 - 37711" locus_tag="CHAFR746836_0081190.1" class="clusterblast-orf" points="265,40 267,40 272,35 267,30 265,30 265,40 " id="clusterblast-1_q13_10_4"  />
<polygon style="stroke:black; stroke-width:1; fill:#FFFFFF; " description="unannotated orf[br]Location: 39559 - 39909" locus_tag="CHAFR746836_0081200.1" class="clusterblast-orf" points="285,35 288,30 288,40 285,35 " id="clusterblast-1_q13_10_5"  />
<polygon style="stroke:black; stroke-width:1; fill:rgb(190,63,190); " description="unannotated orf[br]Location: 40364 - 42098" locus_tag="CHAFR746836_0081210.1" class="clusterblast-orf" points="291,40 298,40 303,35 298,30 291,30 291,40 " id="clusterblast-1_q13_10_6"  />
<polygon style="stroke:black; stroke-width:1; fill:#FFFFFF; " description="unannotated orf[br]Location: 65220 - 66075" locus_tag="CHAFR746836_0081220.1" class="clusterblast-orf" points="471,35 476,30 477,30 477,40 476,40 471,35 " id="clusterblast-1_q13_10_7"  />
<polygon style="stroke:black; stroke-width:1; fill:rgb(190,190,63); " description="unannotated orf[br]Location: 67588 - 77792" locus_tag="CHAFR746836_0081230.1" class="clusterblast-orf" points="488,40 557,40 562,35 557,30 488,30 488,40 " id="clusterblast-1_q13_10_8"  />
<polygon style="stroke:black; stroke-width:1; fill:#FFFFFF; " description="unannotated orf[br]Location: 80581 - 81578" locus_tag="CHAFR746836_0081240.1" class="clusterblast-orf" points="582,40 584,40 589,35 584,30 582,30 582,40 " id="clusterblast-1_q13_10_9"  />
<polygon style="stroke:black; stroke-width:1; fill:#FFFFFF; " description="unannotated orf[br]Location: 105554 - 107591" locus_tag="CHAFR746836_0081250.1" class="clusterblast-orf" points="763,35 768,30 778,30 778,40 768,40 763,35 " id="clusterblast-1_q13_10_10"  />
</g>
<g class="clusterblast-cluster" description="Trichoderma virens Gv29-8 TRIVIscaffold 6, whole genome..." label="ABDF02000006.1_c4"  >
<text class="clusterblast-acc" y="60" x="5"  >
ABDF02000006.1_c4</text>
<text class="clusterblast-desc" y="60" x="460.8"  >
Trichoderma virens Gv29-8 TRIVIscaffold 6, whole genome...</text>
<line y1="85" x2="778.0" style="stroke:grey; stroke-width:1; " x1="10" y2="85"  />
<polygon style="stroke:black; stroke-width:1; fill:rgb(190,190,63); " description="hypothetical_protein[br]Location: 3122092 - 3131342&lt;br&gt;&lt;br&gt;&lt;b&gt;BlastP hit with CHAFR746836_0081230.1&lt;/b&gt;&lt;br&gt;Percentage identity: 34%&lt;br&gt;Percentage coverage: 98%&lt;br&gt;BLAST bit score: 1599&lt;br&gt;E-value: 0.0" locus_tag="TRIVIDRAFT_230731" id="clusterblast-1_h13_10_0" points="215,90 276,90 281,85 276,80 215,80 215,90 " class="clusterblast-orf"  />
<polygon style="stroke:black; stroke-width:1; fill:#FFFFFF; " description="hypothetical_protein[br]Location: 3132226 - 3133276" locus_tag="TRIVIDRAFT_60120" id="clusterblast-1_h13_10_1" points="288,85 293,80 295,80 295,90 293,90 288,85 " class="clusterblast-orf"  />
<polygon style="stroke:black; stroke-width:1; fill:#FFFFFF; " description="hypothetical_protein[br]Location: 3133807 - 3134604" locus_tag="TRIVIDRAFT_222320" id="clusterblast-1_h13_10_2" points="299,90 300,90 305,85 300,80 299,80 299,90 " class="clusterblast-orf"  />
<polygon style="stroke:black; stroke-width:1; fill:#FFFFFF; " description="hypothetical_protein[br]Location: 3135031 - 3135674" locus_tag="TRIVIDRAFT_222321" id="clusterblast-1_h13_10_3" points="308,90 308,90 313,85 308,80 308,80 308,90 " class="clusterblast-orf"  />
<polygon style="stroke:black; stroke-width:1; fill:#FFFFFF; " description="hypothetical_protein[br]Location: 3135758 - 3137869" locus_tag="TRIVIDRAFT_222322" id="clusterblast-1_h13_10_4" points="313,85 318,80 329,80 329,90 318,90 313,85 " class="clusterblast-orf"  />
<polygon style="stroke:black; stroke-width:1; fill:#FFFFFF; " description="hypothetical_protein[br]Location: 3138945 - 3140591" locus_tag="TRIVIDRAFT_209309" id="clusterblast-1_h13_10_5" points="336,90 343,90 348,85 343,80 336,80 336,90 " class="clusterblast-orf"  />
<polygon style="stroke:black; stroke-width:1; fill:#FFFFFF; " description="hypothetical_protein[br]Location: 3141754 - 3142466" locus_tag="TRIVIDRAFT_53817" id="clusterblast-1_h13_10_6" points="357,90 357,90 362,85 357,80 357,80 357,90 " class="clusterblast-orf"  />
<polygon style="stroke:black; stroke-width:1; fill:rgb(63,63,190); " description="putative_polyketide_synthase[br]Location: 3142761 - 3152497&lt;br&gt;&lt;br&gt;&lt;b&gt;BlastP hit with CHAFR746836_0081180.1&lt;/b&gt;&lt;br&gt;Percentage identity: 31%&lt;br&gt;Percentage coverage: 74%&lt;br&gt;BLAST bit score: 788&lt;br&gt;E-value: 0.0" locus_tag="TRIVIDRAFT_149212" id="clusterblast-1_h13_10_7" points="364,85 369,80 435,80 435,90 369,90 364,85 " class="clusterblast-orf"  />
<polygon style="stroke:black; stroke-width:1; fill:#FFFFFF; " description="hypothetical_protein[br]Location: 3156171 - 3157317" locus_tag="TRIVIDRAFT_28606" id="clusterblast-1_h13_10_8" points="461,85 466,80 469,80 469,90 466,90 461,85 " class="clusterblast-orf"  />
<polygon style="stroke:black; stroke-width:1; fill:#FFFFFF; " description="hypothetical_protein[br]Location: 3158821 - 3159133" locus_tag="TRIVIDRAFT_222327" id="clusterblast-1_h13_10_9" points="480,90 483,85 480,80 480,90 " class="clusterblast-orf"  />
<polygon style="stroke:black; stroke-width:1; fill:#FFFFFF; " description="hypothetical_protein[br]Location: 3159810 - 3163571" locus_tag="TRIVIDRAFT_151071" id="clusterblast-1_h13_10_10" points="488,85 493,80 515,80 515,90 493,90 488,85 " class="clusterblast-orf"  />
<polygon style="stroke:black; stroke-width:1; fill:#FFFFFF; " description="hypothetical_protein[br]Location: 3165688 - 3165897" locus_tag="TRIVIDRAFT_19925" id="clusterblast-1_h13_10_11" points="530,85 532,80 532,90 530,85 " class="clusterblast-orf"  />
<polygon style="stroke:black; stroke-width:1; fill:#FFFFFF; " description="hypothetical_protein[br]Location: 3166990 - 3168342" locus_tag="TRIVIDRAFT_149245" id="clusterblast-1_h13_10_12" points="540,90 544,90 549,85 544,80 540,80 540,90 " class="clusterblast-orf"  />
<polygon style="stroke:black; stroke-width:1; fill:#FFFFFF; " description="hypothetical_protein[br]Location: 3169200 - 3170357" locus_tag="TRIVIDRAFT_191638" id="clusterblast-1_h13_10_13" points="556,90 559,90 564,85 559,80 556,80 556,90 " class="clusterblast-orf"  />
<polygon style="stroke:black; stroke-width:1; fill:#FFFFFF; " description="hypothetical_protein[br]Location: 3170810 - 3171427" locus_tag="TRIVIDRAFT_60111" id="clusterblast-1_h13_10_14" points="567,85 572,80 572,80 572,90 572,90 567,85 " class="clusterblast-orf"  />
</g>
</svg>
