<svg xmlns="http://www.w3.org/2000/svg" height="230" width="800" version="1.1" y="0" x="0" preserveAspectRatio="none" xmlns:xlink="http://www.w3.org/1999/xlink" viewBox="0 0 800 230"  >
<g class="clusterblast-cluster" label="Query sequence"  >
<text class="clusterblast-acc" y="10" x="5"  >
Query sequence</text>
<line y1="35" x2="778.0" style="stroke:grey; stroke-width:1; " x1="10" y2="35"  />
<polygon style="stroke:black; stroke-width:1; fill:red; " description="unannotated orf[br]Location: 1639 - 3862" locus_tag="CHAFR746836_0009390.1" class="clusterblast-orf" points="155,40 181,40 186,35 181,30 155,30 155,40 " id="clusterblast-1_q30_10_0"  />
<polygon style="stroke:black; stroke-width:1; fill:#FFFFFF; " description="unannotated orf[br]Location: 4351 - 6763" locus_tag="CHAFR746836_0009400.1" class="clusterblast-orf" points="193,40 222,40 227,35 222,30 193,30 193,40 " id="clusterblast-1_q30_10_1"  />
<polygon style="stroke:black; stroke-width:1; fill:#FFFFFF; " description="unannotated orf[br]Location: 8433 - 9813" locus_tag="CHAFR746836_0009410.1" class="clusterblast-orf" points="251,40 265,40 270,35 265,30 251,30 251,40 " id="clusterblast-1_q30_10_2"  />
<polygon style="stroke:black; stroke-width:1; fill:#FFFFFF; " description="unannotated orf[br]Location: 10159 - 11305" locus_tag="CHAFR746836_0009420.1" class="clusterblast-orf" points="275,35 280,30 291,30 291,40 280,40 275,35 " id="clusterblast-1_q30_10_3"  />
<polygon style="stroke:black; stroke-width:1; fill:green; " description="unannotated orf[br]Location: 12094 - 15169" locus_tag="CHAFR746836_0009430.1" class="clusterblast-orf" points="303,35 308,30 346,30 346,40 308,40 303,35 " id="clusterblast-1_q30_10_4"  />
<polygon style="stroke:black; stroke-width:1; fill:blue; " description="unannotated orf[br]Location: 18460 - 19626" locus_tag="CHAFR746836_0009440.1" class="clusterblast-orf" points="393,35 398,30 409,30 409,40 398,40 393,35 " id="clusterblast-1_q30_10_5"  />
<polygon style="stroke:black; stroke-width:1; fill:yellow; " description="unannotated orf[br]Location: 21127 - 22798" locus_tag="CHAFR746836_0009450.1" class="clusterblast-orf" points="431,35 436,30 454,30 454,40 436,40 431,35 " id="clusterblast-1_q30_10_6"  />
<polygon style="stroke:black; stroke-width:1; fill:#FFFFFF; " description="unannotated orf[br]Location: 24451 - 25288" locus_tag="CHAFR746836_0009460.1" class="clusterblast-orf" points="478,35 483,30 490,30 490,40 483,40 478,35 " id="clusterblast-1_q30_10_7"  />
<polygon style="stroke:black; stroke-width:1; fill:#FFFFFF; " description="unannotated orf[br]Location: 26586 - 27329" locus_tag="CHAFR746836_0009470.1" class="clusterblast-orf" points="508,35 513,30 518,30 518,40 513,40 508,35 " id="clusterblast-1_q30_10_8"  />
<polygon style="stroke:black; stroke-width:1; fill:#FFFFFF; " description="unannotated orf[br]Location: 27584 - 28762" locus_tag="CHAFR746836_0009480.1" class="clusterblast-orf" points="522,40 534,40 539,35 534,30 522,30 522,40 " id="clusterblast-1_q30_10_9"  />
<polygon style="stroke:black; stroke-width:1; fill:#FFFFFF; " description="unannotated orf[br]Location: 28842 - 30026" locus_tag="CHAFR746836_0009490.1" class="clusterblast-orf" points="540,35 545,30 557,30 557,40 545,40 540,35 " id="clusterblast-1_q30_10_10"  />
<polygon style="stroke:black; stroke-width:1; fill:#FFFFFF; " description="unannotated orf[br]Location: 30391 - 33688" locus_tag="CHAFR746836_0009500.1" class="clusterblast-orf" points="562,40 604,40 609,35 604,30 562,30 562,40 " id="clusterblast-1_q30_10_11"  />
<polygon style="stroke:black; stroke-width:1; fill:#FFFFFF; " description="unannotated orf[br]Location: 34235 - 35268" locus_tag="CHAFR746836_0009510.1" class="clusterblast-orf" points="616,35 621,30 631,30 631,40 621,40 616,35 " id="clusterblast-1_q30_10_12"  />
</g>
<g class="clusterblast-cluster" description="Aspergillus niger contig An12c0070, genomic contig." label="AM270264.1_c1"  >
<text class="clusterblast-acc" y="60" x="5"  >
AM270264.1_c1</text>
<text class="clusterblast-desc" y="60" x="460.8"  >
Aspergillus niger contig An12c0070, genomic contig.</text>
<line y1="85" x2="778.0" style="stroke:grey; stroke-width:1; " x1="10" y2="85"  />
<polygon style="stroke:black; stroke-width:1; fill:#FFFFFF; " description="[br]Location: 137134 - 140664" locus_tag="An12g02750" id="clusterblast-1_h30_10_0" points="10,90 55,90 60,85 55,80 10,80 10,90 " class="clusterblast-orf"  />
<polygon style="stroke:black; stroke-width:1; fill:#FFFFFF; " description="[br]Location: 135745 - 136659" locus_tag="An12g02740" id="clusterblast-1_h30_10_1" points="66,90 74,90 79,85 74,80 66,80 66,90 " class="clusterblast-orf"  />
<polygon style="stroke:black; stroke-width:1; fill:#FFFFFF; " description="[br]Location: 127745 - 135210" locus_tag="An12g02730" id="clusterblast-1_h30_10_2" points="87,85 92,80 193,80 193,90 92,90 87,85 " class="clusterblast-orf"  />
<polygon style="stroke:black; stroke-width:1; fill:#FFFFFF; " description="[br]Location: 124506 - 125420" locus_tag="An12g02720" id="clusterblast-1_h30_10_3" points="225,85 230,80 238,80 238,90 230,90 225,85 " class="clusterblast-orf"  />
<polygon style="stroke:black; stroke-width:1; fill:red; " description="[br]Location: 119657 - 122354&lt;br&gt;&lt;br&gt;&lt;b&gt;BlastP hit with CHAFR746836_0009390.1&lt;/b&gt;&lt;br&gt;Percentage identity: 37%&lt;br&gt;Percentage coverage: 24%&lt;br&gt;BLAST bit score: 96&lt;br&gt;E-value: 5e-20" locus_tag="An12g02710" id="clusterblast-1_h30_10_4" points="269,90 302,90 307,85 302,80 269,80 269,90 " class="clusterblast-orf"  />
<polygon style="stroke:black; stroke-width:1; fill:#FFFFFF; " description="[br]Location: 118752 - 119580" locus_tag="An12g02700" id="clusterblast-1_h30_10_5" points="308,85 313,80 320,80 320,90 313,90 308,85 " class="clusterblast-orf"  />
<polygon style="stroke:black; stroke-width:1; fill:#FFFFFF; " description="[br]Location: 118071 - 118627" locus_tag="An12g02690" id="clusterblast-1_h30_10_6" points="322,90 325,90 330,85 325,80 322,80 322,90 " class="clusterblast-orf"  />
<polygon style="stroke:black; stroke-width:1; fill:#FFFFFF; " description="unnamed[br]Location: 116316 - 116873" locus_tag="An12g02680" id="clusterblast-1_h30_10_7" points="347,85 352,80 354,80 354,90 352,90 347,85 " class="clusterblast-orf"  />
<polygon style="stroke:black; stroke-width:1; fill:green; " description="[br]Location: 105465 - 114488&lt;br&gt;&lt;br&gt;&lt;b&gt;BlastP hit with CHAFR746836_0009430.1&lt;/b&gt;&lt;br&gt;Percentage identity: 39%&lt;br&gt;Percentage coverage: 39%&lt;br&gt;BLAST bit score: 286&lt;br&gt;E-value: 3e-78" locus_tag="An12g02670" id="clusterblast-1_h30_10_8" points="380,90 503,90 508,85 503,80 380,80 380,90 " class="clusterblast-orf"  />
<polygon style="stroke:black; stroke-width:1; fill:#FFFFFF; " description="hypothetical_protein[br]Location: 103761 - 105218" locus_tag="An12g02660" id="clusterblast-1_h30_10_9" points="512,85 517,80 532,80 532,90 517,90 512,85 " class="clusterblast-orf"  />
<polygon style="stroke:black; stroke-width:1; fill:#FFFFFF; " description="[br]Location: 102008 - 102820" locus_tag="An12g02650" id="clusterblast-1_h30_10_10" points="546,90 552,90 557,85 552,80 546,80 546,90 " class="clusterblast-orf"  />
<polygon style="stroke:black; stroke-width:1; fill:#FFFFFF; " description="[br]Location: 100264 - 101399" locus_tag="An12g02640" id="clusterblast-1_h30_10_11" points="566,90 577,90 582,85 577,80 566,80 566,90 " class="clusterblast-orf"  />
<polygon style="stroke:black; stroke-width:1; fill:blue; " description="unnamed[br]Location: 98852 - 99944&lt;br&gt;&lt;br&gt;&lt;b&gt;BlastP hit with CHAFR746836_0009440.1&lt;/b&gt;&lt;br&gt;Percentage identity: 31%&lt;br&gt;Percentage coverage: 73%&lt;br&gt;BLAST bit score: 100&lt;br&gt;E-value: 6e-23" locus_tag="An12g02630" id="clusterblast-1_h30_10_12" points="586,85 591,80 602,80 602,90 591,90 586,85 " class="clusterblast-orf"  />
<polygon style="stroke:black; stroke-width:1; fill:#FFFFFF; " description="[br]Location: 96548 - 98287" locus_tag="An12g02620" id="clusterblast-1_h30_10_13" points="610,90 630,90 635,85 630,80 610,80 610,90 " class="clusterblast-orf"  />
<polygon style="stroke:black; stroke-width:1; fill:#FFFFFF; " description="tRNA-Asp[br]Location: 94348 - 95796" locus_tag="An12g02600" id="clusterblast-1_h30_10_14" points="645,90 661,90 666,85 661,80 645,80 645,90 " class="clusterblast-orf"  />
<polygon style="stroke:black; stroke-width:1; fill:#FFFFFF; " description="unnamed[br]Location: 93446 - 93845" locus_tag="An12g02590" id="clusterblast-1_h30_10_15" points="673,85 678,80 679,80 679,90 678,90 673,85 " class="clusterblast-orf"  />
<polygon style="stroke:black; stroke-width:1; fill:#FFFFFF; " description="hypothetical_protein[br]Location: 92144 - 92520" locus_tag="An12g02580" id="clusterblast-1_h30_10_16" points="692,85 697,80 697,80 697,90 697,90 692,85 " class="clusterblast-orf"  />
<polygon style="stroke:black; stroke-width:1; fill:#FFFFFF; " description="5S_ribosomal_RNA[br]Location: 86460 - 88802" locus_tag="An12g02560" id="clusterblast-1_h30_10_17" points="744,85 749,80 778,80 778,90 749,90 744,85 " class="clusterblast-orf"  />
</g>
</svg>
