<svg xmlns="http://www.w3.org/2000/svg" height="230" width="800" version="1.1" y="0" x="0" preserveAspectRatio="none" xmlns:xlink="http://www.w3.org/1999/xlink" viewBox="0 0 800 230"  >
<g class="clusterblast-cluster" label="Query sequence"  >
<text class="clusterblast-acc" y="10" x="5"  >
Query sequence</text>
<line y1="35" x2="778.0" style="stroke:grey; stroke-width:1; " x1="10" y2="35"  />
<polygon style="stroke:black; stroke-width:1; fill:red; " description="unannotated orf[br]Location: 21692 - 23171" locus_tag="CHAFR746836_0031020.1" class="clusterblast-orf" points="10,35 15,30 25,30 25,40 15,40 10,35 " id="clusterblast-1_q42_5_0"  />
<polygon style="stroke:black; stroke-width:1; fill:green; " description="unannotated orf[br]Location: 24117 - 25593" locus_tag="CHAFR746836_0031030.1" class="clusterblast-orf" points="35,35 40,30 50,30 50,40 40,40 35,35 " id="clusterblast-1_q42_5_1"  />
<polygon style="stroke:black; stroke-width:1; fill:blue; " description="unannotated orf[br]Location: 26212 - 40332" locus_tag="CHAFR746836_0031040.1" class="clusterblast-orf" points="56,40 198,40 203,35 198,30 56,30 56,40 " id="clusterblast-1_q42_5_2"  />
<polygon style="stroke:black; stroke-width:1; fill:#FFFFFF; " description="unannotated orf[br]Location: 45285 - 47271" locus_tag="CHAFR746836_0031050.1" class="clusterblast-orf" points="255,40 270,40 275,35 270,30 255,30 255,40 " id="clusterblast-1_q42_5_3"  />
<polygon style="stroke:black; stroke-width:1; fill:#FFFFFF; " description="unannotated orf[br]Location: 49060 - 49584" locus_tag="CHAFR746836_0031060.1" class="clusterblast-orf" points="294,40 295,40 300,35 295,30 294,30 294,40 " id="clusterblast-1_q42_5_4"  />
<polygon style="stroke:black; stroke-width:1; fill:#FFFFFF; " description="unannotated orf[br]Location: 51570 - 54053" locus_tag="CHAFR746836_0031070.1" class="clusterblast-orf" points="320,40 341,40 346,35 341,30 320,30 320,40 " id="clusterblast-1_q42_5_5"  />
<polygon style="stroke:black; stroke-width:1; fill:#FFFFFF; " description="unannotated orf[br]Location: 83506 - 87093" locus_tag="CHAFR746836_0031080.1" class="clusterblast-orf" points="652,40 685,40 690,35 685,30 652,30 652,40 " id="clusterblast-1_q42_5_6"  />
<polygon style="stroke:black; stroke-width:1; fill:#FFFFFF; " description="unannotated orf[br]Location: 93748 - 95553" locus_tag="CHAFR746836_0031090.1" class="clusterblast-orf" points="759,40 773,40 778,35 773,30 759,30 759,40 " id="clusterblast-1_q42_5_7"  />
</g>
<g class="clusterblast-cluster" description="Trichoderma virens Gv29-8 TRIVIscaffold 81, whole genome..." label="ABDF02000081.1_c3"  >
<text class="clusterblast-acc" y="60" x="5"  >
ABDF02000081.1_c3</text>
<text class="clusterblast-desc" y="60" x="460.8"  >
Trichoderma virens Gv29-8 TRIVIscaffold 81, whole genome...</text>
<line y1="85" x2="778.0" style="stroke:grey; stroke-width:1; " x1="10" y2="85"  />
<polygon style="stroke:black; stroke-width:1; fill:#FFFFFF; " description="hypothetical_protein[br]Location: 707724 - 709109" locus_tag="TRIVIDRAFT_48107" id="clusterblast-1_h42_5_0" points="127,85 132,80 141,80 141,90 132,90 127,85 " class="clusterblast-orf"  />
<polygon style="stroke:black; stroke-width:1; fill:#FFFFFF; " description="hypothetical_protein[br]Location: 712866 - 713712" locus_tag="TRIVIDRAFT_68765" id="clusterblast-1_h42_5_1" points="180,90 184,90 189,85 184,80 180,80 180,90 " class="clusterblast-orf"  />
<polygon style="stroke:black; stroke-width:1; fill:#FFFFFF; " description="hypothetical_protein[br]Location: 716162 - 716948" locus_tag="TRIVIDRAFT_193161" id="clusterblast-1_h42_5_2" points="214,85 219,80 222,80 222,90 219,90 214,85 " class="clusterblast-orf"  />
<polygon style="stroke:black; stroke-width:1; fill:#FFFFFF; " description="hypothetical_protein[br]Location: 717515 - 719933" locus_tag="TRIVIDRAFT_47744" id="clusterblast-1_h42_5_3" points="228,90 248,90 253,85 248,80 228,80 228,90 " class="clusterblast-orf"  />
<polygon style="stroke:black; stroke-width:1; fill:#FFFFFF; " description="hypothetical_protein[br]Location: 721399 - 722362" locus_tag="TRIVIDRAFT_90003" id="clusterblast-1_h42_5_4" points="269,85 274,80 279,80 279,90 274,90 269,85 " class="clusterblast-orf"  />
<polygon style="stroke:black; stroke-width:1; fill:#FFFFFF; " description="hypothetical_protein[br]Location: 724274 - 725248" locus_tag="TRIVIDRAFT_137077" id="clusterblast-1_h42_5_5" points="299,85 304,80 309,80 309,90 304,90 299,85 " class="clusterblast-orf"  />
<polygon style="stroke:black; stroke-width:1; fill:#FFFFFF; " description="hypothetical_protein[br]Location: 726207 - 727378" locus_tag="TRIVIDRAFT_68769" id="clusterblast-1_h42_5_6" points="319,85 324,80 331,80 331,90 324,90 319,85 " class="clusterblast-orf"  />
<polygon style="stroke:black; stroke-width:1; fill:blue; " description="putative_PKS-NRPS_protein[br]Location: 727939 - 740017&lt;br&gt;&lt;br&gt;&lt;b&gt;BlastP hit with CHAFR746836_0031040.1&lt;/b&gt;&lt;br&gt;Percentage identity: 43%&lt;br&gt;Percentage coverage: 57%&lt;br&gt;BLAST bit score: 1847&lt;br&gt;E-value: 0.0" locus_tag="TRIVIDRAFT_47905" id="clusterblast-1_h42_5_7" points="337,85 342,80 462,80 462,90 342,90 337,85 " class="clusterblast-orf"  />
<polygon style="stroke:black; stroke-width:1; fill:green; " description="hypothetical_protein[br]Location: 740643 - 741798&lt;br&gt;&lt;br&gt;&lt;b&gt;BlastP hit with CHAFR746836_0031030.1&lt;/b&gt;&lt;br&gt;Percentage identity: 39%&lt;br&gt;Percentage coverage: 98%&lt;br&gt;BLAST bit score: 248&lt;br&gt;E-value: 3e-77" locus_tag="TRIVIDRAFT_48208" id="clusterblast-1_h42_5_8" points="469,85 474,80 481,80 481,90 474,90 469,85 " class="clusterblast-orf"  />
<polygon style="stroke:black; stroke-width:1; fill:#FFFFFF; " description="hypothetical_protein[br]Location: 742322 - 743581" locus_tag="TRIVIDRAFT_47972" id="clusterblast-1_h42_5_9" points="486,90 494,90 499,85 494,80 486,80 486,90 " class="clusterblast-orf"  />
<polygon style="stroke:black; stroke-width:1; fill:#FFFFFF; " description="hypothetical_protein[br]Location: 744563 - 749093" locus_tag="TRIVIDRAFT_155466" id="clusterblast-1_h42_5_10" points="510,85 515,80 557,80 557,90 515,90 510,85 " class="clusterblast-orf"  />
<polygon style="stroke:black; stroke-width:1; fill:#FFFFFF; " description="hypothetical_protein[br]Location: 749714 - 751006" locus_tag="TRIVIDRAFT_193168" id="clusterblast-1_h42_5_11" points="563,85 568,80 577,80 577,90 568,90 563,85 " class="clusterblast-orf"  />
<polygon style="stroke:black; stroke-width:1; fill:#FFFFFF; " description="hypothetical_protein[br]Location: 751863 - 752480" locus_tag="TRIVIDRAFT_48080" id="clusterblast-1_h42_5_12" points="585,90 587,90 592,85 587,80 585,80 585,90 " class="clusterblast-orf"  />
<polygon style="stroke:black; stroke-width:1; fill:#FFFFFF; " description="hypothetical_protein[br]Location: 753520 - 754643" locus_tag="TRIVIDRAFT_209800" id="clusterblast-1_h42_5_13" points="603,85 608,80 614,80 614,90 608,90 603,85 " class="clusterblast-orf"  />
<polygon style="stroke:black; stroke-width:1; fill:#FFFFFF; " description="hypothetical_protein[br]Location: 755112 - 756401" locus_tag="TRIVIDRAFT_68777" id="clusterblast-1_h42_5_14" points="619,90 628,90 633,85 628,80 619,80 619,90 " class="clusterblast-orf"  />
<polygon style="stroke:black; stroke-width:1; fill:#FFFFFF; " description="hypothetical_protein[br]Location: 757105 - 759046" locus_tag="TRIVIDRAFT_47764" id="clusterblast-1_h42_5_15" points="640,85 645,80 660,80 660,90 645,90 640,85 " class="clusterblast-orf"  />
</g>
</svg>
