<svg xmlns="http://www.w3.org/2000/svg" height="230" width="800" version="1.1" y="0" x="0" preserveAspectRatio="none" xmlns:xlink="http://www.w3.org/1999/xlink" viewBox="0 0 800 230"  >
<g class="clusterblast-cluster" label="Query sequence"  >
<text class="clusterblast-acc" y="10" x="5"  >
Query sequence</text>
<line y1="35" x2="778.0" style="stroke:grey; stroke-width:1; " x1="10" y2="35"  />
<polygon style="stroke:black; stroke-width:1; fill:rgb(169,42,42); " description="unannotated orf[br]Location: 42361 - 45359" locus_tag="CHAFR746836_0094690.1" class="clusterblast-orf" points="10,35 15,30 30,30 30,40 15,40 10,35 " id="clusterblast-1_q27_1_0"  />
<polygon style="stroke:black; stroke-width:1; fill:#FFFFFF; " description="unannotated orf[br]Location: 45759 - 47601" locus_tag="CHAFR746836_0094700.1" class="clusterblast-orf" points="32,40 40,40 45,35 40,30 32,30 32,40 " id="clusterblast-1_q27_1_1"  />
<polygon style="stroke:black; stroke-width:1; fill:#FFFFFF; " description="unannotated orf[br]Location: 49113 - 50656" locus_tag="CHAFR746836_0094710.1" class="clusterblast-orf" points="55,35 60,30 65,30 65,40 60,40 55,35 " id="clusterblast-1_q27_1_2"  />
<polygon style="stroke:black; stroke-width:1; fill:#FFFFFF; " description="unannotated orf[br]Location: 51961 - 53519" locus_tag="CHAFR746836_0094720.1" class="clusterblast-orf" points="74,35 79,30 84,30 84,40 79,40 74,35 " id="clusterblast-1_q27_1_3"  />
<polygon style="stroke:black; stroke-width:1; fill:rgb(42,169,42); " description="unannotated orf[br]Location: 61574 - 67323" locus_tag="CHAFR746836_0094730.1" class="clusterblast-orf" points="138,35 143,30 177,30 177,40 143,40 138,35 " id="clusterblast-1_q27_1_4"  />
<polygon style="stroke:black; stroke-width:1; fill:rgb(42,169,212); " description="unannotated orf[br]Location: 70255 - 75654" locus_tag="CHAFR746836_0094740.1" class="clusterblast-orf" points="196,40 228,40 233,35 228,30 196,30 196,40 " id="clusterblast-1_q27_1_5"  />
<polygon style="stroke:black; stroke-width:1; fill:rgb(169,169,42); " description="unannotated orf[br]Location: 88624 - 90116" locus_tag="CHAFR746836_0094750.1" class="clusterblast-orf" points="320,35 325,30 330,30 330,40 325,40 320,35 " id="clusterblast-1_q27_1_6"  />
<polygon style="stroke:black; stroke-width:1; fill:#FFFFFF; " description="unannotated orf[br]Location: 91304 - 92309" locus_tag="CHAFR746836_0094760.1" class="clusterblast-orf" points="338,40 339,40 344,35 339,30 338,30 338,40 " id="clusterblast-1_q27_1_7"  />
<polygon style="stroke:black; stroke-width:1; fill:#FFFFFF; " description="unannotated orf[br]Location: 92407 - 93918" locus_tag="CHAFR746836_0094770.1" class="clusterblast-orf" points="345,35 350,30 355,30 355,40 350,40 345,35 " id="clusterblast-1_q27_1_8"  />
<polygon style="stroke:black; stroke-width:1; fill:rgb(169,42,127); " description="unannotated orf[br]Location: 94558 - 96160" locus_tag="CHAFR746836_0094780.1" class="clusterblast-orf" points="359,40 365,40 370,35 365,30 359,30 359,40 " id="clusterblast-1_q27_1_9"  />
<polygon style="stroke:black; stroke-width:1; fill:#FFFFFF; " description="unannotated orf[br]Location: 96488 - 97143" locus_tag="CHAFR746836_0094790.1" class="clusterblast-orf" points="372,35 377,30 377,30 377,40 377,40 372,35 " id="clusterblast-1_q27_1_10"  />
<polygon style="stroke:black; stroke-width:1; fill:#FFFFFF; " description="unannotated orf[br]Location: 99047 - 101039" locus_tag="CHAFR746836_0094800.1" class="clusterblast-orf" points="389,40 398,40 403,35 398,30 389,30 389,40 " id="clusterblast-1_q27_1_11"  />
<polygon style="stroke:black; stroke-width:1; fill:#FFFFFF; " description="unannotated orf[br]Location: 105913 - 106563" locus_tag="CHAFR746836_0094810.1" class="clusterblast-orf" points="435,35 440,30 440,30 440,40 440,40 435,35 " id="clusterblast-1_q27_1_12"  />
<polygon style="stroke:black; stroke-width:1; fill:#FFFFFF; " description="unannotated orf[br]Location: 108528 - 112083" locus_tag="CHAFR746836_0094820.1" class="clusterblast-orf" points="453,40 472,40 477,35 472,30 453,30 453,40 " id="clusterblast-1_q27_1_13"  />
<polygon style="stroke:black; stroke-width:1; fill:rgb(42,42,212); " description="unannotated orf[br]Location: 112908 - 114711" locus_tag="CHAFR746836_0094830.1" class="clusterblast-orf" points="482,35 487,30 494,30 494,40 487,40 482,35 " id="clusterblast-1_q27_1_14"  />
<polygon style="stroke:black; stroke-width:1; fill:rgb(169,169,212); " description="unannotated orf[br]Location: 115507 - 115979" locus_tag="CHAFR746836_0094840.1" class="clusterblast-orf" points="500,40 503,35 500,30 500,40 " id="clusterblast-1_q27_1_15"  />
<polygon style="stroke:black; stroke-width:1; fill:rgb(42,169,127); " description="unannotated orf[br]Location: 116099 - 117436" locus_tag="CHAFR746836_0094850.1" class="clusterblast-orf" points="504,35 509,30 513,30 513,40 509,40 504,35 " id="clusterblast-1_q27_1_16"  />
<polygon style="stroke:black; stroke-width:1; fill:#FFFFFF; " description="unannotated orf[br]Location: 117682 - 118147" locus_tag="CHAFR746836_0094860.1" class="clusterblast-orf" points="514,40 518,35 514,30 514,40 " id="clusterblast-1_q27_1_17"  />
<polygon style="stroke:black; stroke-width:1; fill:#FFFFFF; " description="unannotated orf[br]Location: 119597 - 120815" locus_tag="CHAFR746836_0094870.1" class="clusterblast-orf" points="527,35 532,30 535,30 535,40 532,40 527,35 " id="clusterblast-1_q27_1_18"  />
<polygon style="stroke:black; stroke-width:1; fill:#FFFFFF; " description="unannotated orf[br]Location: 121630 - 122020" locus_tag="CHAFR746836_0094880.1" class="clusterblast-orf" points="541,40 543,35 541,30 541,40 " id="clusterblast-1_q27_1_19"  />
<polygon style="stroke:black; stroke-width:1; fill:#FFFFFF; " description="unannotated orf[br]Location: 122290 - 123684" locus_tag="CHAFR746836_0094890.1" class="clusterblast-orf" points="545,40 550,40 555,35 550,30 545,30 545,40 " id="clusterblast-1_q27_1_20"  />
<polygon style="stroke:black; stroke-width:1; fill:#FFFFFF; " description="unannotated orf[br]Location: 124088 - 124999" locus_tag="CHAFR746836_0094900.1" class="clusterblast-orf" points="557,35 562,30 563,30 563,40 562,40 557,35 " id="clusterblast-1_q27_1_21"  />
<polygon style="stroke:black; stroke-width:1; fill:#FFFFFF; " description="unannotated orf[br]Location: 125439 - 126681" locus_tag="CHAFR746836_0094910.1" class="clusterblast-orf" points="566,40 570,40 575,35 570,30 566,30 566,40 " id="clusterblast-1_q27_1_22"  />
<polygon style="stroke:black; stroke-width:1; fill:#FFFFFF; " description="unannotated orf[br]Location: 127006 - 130058" locus_tag="CHAFR746836_0094920.1" class="clusterblast-orf" points="577,35 582,30 597,30 597,40 582,40 577,35 " id="clusterblast-1_q27_1_23"  />
<polygon style="stroke:black; stroke-width:1; fill:#FFFFFF; " description="unannotated orf[br]Location: 132463 - 134428" locus_tag="CHAFR746836_0094930.1" class="clusterblast-orf" points="613,35 618,30 627,30 627,40 618,40 613,35 " id="clusterblast-1_q27_1_24"  />
<polygon style="stroke:black; stroke-width:1; fill:rgb(169,42,212); " description="unannotated orf[br]Location: 137446 - 138588" locus_tag="CHAFR746836_0094940.2" class="clusterblast-orf" points="647,35 652,30 655,30 655,40 652,40 647,35 " id="clusterblast-1_q27_1_25"  />
<polygon style="stroke:black; stroke-width:1; fill:rgb(42,42,127); " description="unannotated orf[br]Location: 137501 - 138588" locus_tag="CHAFR746836_0094940.1" class="clusterblast-orf" points="647,35 652,30 655,30 655,40 652,40 647,35 " id="clusterblast-1_q27_1_26"  />
<polygon style="stroke:black; stroke-width:1; fill:#FFFFFF; " description="unannotated orf[br]Location: 154744 - 156934" locus_tag="CHAFR746836_0094950.1" class="clusterblast-orf" points="763,40 773,40 778,35 773,30 763,30 763,40 " id="clusterblast-1_q27_1_27"  />
</g>
<g class="clusterblast-cluster" description="Aspergillus kawachii IFO 4308 DNA, contig: scaffold00003, wh..." label="DF126449.1_c1"  >
<text class="clusterblast-acc" y="60" x="5"  >
DF126449.1_c1</text>
<text class="clusterblast-desc" y="60" x="460.8"  >
Aspergillus kawachii IFO 4308 DNA, contig: scaffold00003, wh...</text>
<line y1="85" x2="778.0" style="stroke:grey; stroke-width:1; " x1="10" y2="85"  />
<polygon style="stroke:black; stroke-width:1; fill:#FFFFFF; " description="similar_to_An18g02410[br]Location: 323525 - 325607" locus_tag="AKAW_01383" id="clusterblast-1_h27_1_0" points="247,85 252,80 260,80 260,90 252,90 247,85 " class="clusterblast-orf"  />
<polygon style="stroke:black; stroke-width:1; fill:#FFFFFF; " description="hypothetical_protein[br]Location: 319036 - 322820" locus_tag="AKAW_01382" id="clusterblast-1_h27_1_1" points="265,85 270,80 291,80 291,90 270,90 265,85 " class="clusterblast-orf"  />
<polygon style="stroke:black; stroke-width:1; fill:rgb(42,42,212); " description="MFS_efflux_transporter[br]Location: 315505 - 316995&lt;br&gt;&lt;br&gt;&lt;b&gt;BlastP hit with CHAFR746836_0094830.1&lt;/b&gt;&lt;br&gt;Percentage identity: 53%&lt;br&gt;Percentage coverage: 100%&lt;br&gt;BLAST bit score: 521&lt;br&gt;E-value: 7e-180" locus_tag="AKAW_01381" id="clusterblast-1_h27_1_2" points="304,85 309,80 314,80 314,90 309,90 304,85 " class="clusterblast-orf"  />
<polygon style="stroke:black; stroke-width:1; fill:rgb(169,169,212); " description="eukaryotic_initiation_factor_1A[br]Location: 314342 - 314811&lt;br&gt;&lt;br&gt;&lt;b&gt;BlastP hit with CHAFR746836_0094840.1&lt;/b&gt;&lt;br&gt;Percentage identity: 56%&lt;br&gt;Percentage coverage: 100%&lt;br&gt;BLAST bit score: 154&lt;br&gt;E-value: 5e-47" locus_tag="AKAW_01380" id="clusterblast-1_h27_1_3" points="319,90 322,85 319,80 319,90 " class="clusterblast-orf"  />
<polygon style="stroke:black; stroke-width:1; fill:rgb(42,169,127); " description="alpha-1,3-mannosyltransferase[br]Location: 312770 - 314170&lt;br&gt;&lt;br&gt;&lt;b&gt;BlastP hit with CHAFR746836_0094850.1&lt;/b&gt;&lt;br&gt;Percentage identity: 52%&lt;br&gt;Percentage coverage: 91%&lt;br&gt;BLAST bit score: 335&lt;br&gt;E-value: 4e-110" locus_tag="AKAW_01379" id="clusterblast-1_h27_1_4" points="323,85 328,80 333,80 333,90 328,90 323,85 " class="clusterblast-orf"  />
<polygon style="stroke:black; stroke-width:1; fill:#FFFFFF; " description="alpha-1,3-mannosyltransferase[br]Location: 311882 - 312316" locus_tag="AKAW_01378" id="clusterblast-1_h27_1_5" points="336,85 339,80 339,90 336,85 " class="clusterblast-orf"  />
<polygon style="stroke:black; stroke-width:1; fill:#FFFFFF; " description="serine/threonine_protein_phosphatase[br]Location: 309767 - 311126" locus_tag="AKAW_01377" id="clusterblast-1_h27_1_6" points="344,90 348,90 353,85 348,80 344,80 344,90 " class="clusterblast-orf"  />
<polygon style="stroke:black; stroke-width:1; fill:#FFFFFF; " description="C6_transcription_factor[br]Location: 305810 - 308734" locus_tag="AKAW_01376" id="clusterblast-1_h27_1_7" points="360,85 365,80 379,80 379,90 365,90 360,85 " class="clusterblast-orf"  />
<polygon style="stroke:black; stroke-width:1; fill:#FFFFFF; " description="NRPS-like_enzyme[br]Location: 301470 - 304580" locus_tag="AKAW_01375" id="clusterblast-1_h27_1_8" points="387,85 392,80 408,80 408,90 392,90 387,85 " class="clusterblast-orf"  />
<polygon style="stroke:black; stroke-width:1; fill:#FFFFFF; " description="aminotransferase[br]Location: 298879 - 300287" locus_tag="AKAW_01374" id="clusterblast-1_h27_1_9" points="416,90 421,90 426,85 421,80 416,80 416,90 " class="clusterblast-orf"  />
<polygon style="stroke:black; stroke-width:1; fill:#FFFFFF; " description="similar_to_LOC100501756[br]Location: 294842 - 296341" locus_tag="AKAW_01373" id="clusterblast-1_h27_1_10" points="443,90 448,90 453,85 448,80 443,80 443,90 " class="clusterblast-orf"  />
<polygon style="stroke:black; stroke-width:1; fill:#FFFFFF; " description="C2H2_transcription_factor[br]Location: 285450 - 288966" locus_tag="AKAW_01372" id="clusterblast-1_h27_1_11" points="492,85 497,80 516,80 516,90 497,90 492,85 " class="clusterblast-orf"  />
<polygon style="stroke:black; stroke-width:1; fill:#FFFFFF; " description="hypothetical_protein[br]Location: 282013 - 283527" locus_tag="AKAW_01371" id="clusterblast-1_h27_1_12" points="529,90 534,90 539,85 534,80 529,80 529,90 " class="clusterblast-orf"  />
</g>
</svg>
