<svg xmlns="http://www.w3.org/2000/svg" height="230" width="800" version="1.1" y="0" x="0" preserveAspectRatio="none" xmlns:xlink="http://www.w3.org/1999/xlink" viewBox="0 0 800 230"  >
<g class="clusterblast-cluster" label="Query sequence"  >
<text class="clusterblast-acc" y="10" x="5"  >
Query sequence</text>
<line y1="35" x2="778.0" style="stroke:grey; stroke-width:1; " x1="10" y2="35"  />
<polygon style="stroke:black; stroke-width:1; fill:#FFFFFF; " description="unannotated orf[br]Location: 26281 - 31608" locus_tag="CHAFR746836_0084640.1" class="clusterblast-orf" points="219,40 252,40 257,35 252,30 219,30 219,40 " id="clusterblast-1_q16_3_0"  />
<polygon style="stroke:black; stroke-width:1; fill:#FFFFFF; " description="unannotated orf[br]Location: 38353 - 39581" locus_tag="CHAFR746836_0084650.1" class="clusterblast-orf" points="306,40 310,40 315,35 310,30 306,30 306,40 " id="clusterblast-1_q16_3_1"  />
<polygon style="stroke:black; stroke-width:1; fill:#FFFFFF; " description="unannotated orf[br]Location: 44228 - 48651" locus_tag="CHAFR746836_0084660.1" class="clusterblast-orf" points="349,35 354,30 381,30 381,40 354,40 349,35 " id="clusterblast-1_q16_3_2"  />
<polygon style="stroke:black; stroke-width:1; fill:red; " description="unannotated orf[br]Location: 50656 - 54036" locus_tag="CHAFR746836_0084670.1" class="clusterblast-orf" points="396,40 416,40 421,35 416,30 396,30 396,40 " id="clusterblast-1_q16_3_3"  />
<polygon style="stroke:black; stroke-width:1; fill:green; " description="unannotated orf[br]Location: 70727 - 72035" locus_tag="CHAFR746836_0084680.1" class="clusterblast-orf" points="542,35 547,30 552,30 552,40 547,40 542,35 " id="clusterblast-1_q16_3_4"  />
<polygon style="stroke:black; stroke-width:1; fill:#FFFFFF; " description="unannotated orf[br]Location: 72765 - 74194" locus_tag="CHAFR746836_0084690.1" class="clusterblast-orf" points="557,40 562,40 567,35 562,30 557,30 557,40 " id="clusterblast-1_q16_3_5"  />
</g>
<g class="clusterblast-cluster" description="Streptomyces kanamyceticus strain KCTC 9225 FK506 gene clust..." label="HM116536.1_c1"  >
<text class="clusterblast-acc" y="60" x="5"  >
HM116536.1_c1</text>
<text class="clusterblast-desc" y="60" x="460.8"  >
Streptomyces kanamyceticus strain KCTC 9225 FK506 gene clust...</text>
<line y1="85" x2="778.0" style="stroke:grey; stroke-width:1; " x1="10" y2="85"  />
<polygon style="stroke:black; stroke-width:1; fill:#FFFFFF; " description="probable_NAD-dependent_formate_dehdyrogenase[br]Location: 122 - 1297" locus_tag="Tcs_SK_001" id="clusterblast-1_h16_3_0" points="10,90 13,90 18,85 13,80 10,80 10,90 " class="clusterblast-orf"  />
<polygon style="stroke:black; stroke-width:1; fill:#FFFFFF; " description="hypothetical_protein[br]Location: 1462 - 2061" locus_tag="Tcs_SK_002" id="clusterblast-1_h16_3_1" points="19,85 24,80 24,80 24,90 24,90 19,85 " class="clusterblast-orf"  />
<polygon style="stroke:black; stroke-width:1; fill:#FFFFFF; " description="hypothetical_protein[br]Location: 2092 - 2319" locus_tag="Tcs_SK_003" id="clusterblast-1_h16_3_2" points="24,90 25,85 24,80 24,90 " class="clusterblast-orf"  />
<polygon style="stroke:black; stroke-width:1; fill:#FFFFFF; " description="putative_tetR-family_transcriptional_regulator[br]Location: 2376 - 2990" locus_tag="Tcs_SK_004" id="clusterblast-1_h16_3_3" points="26,85 30,80 30,90 26,85 " class="clusterblast-orf"  />
<polygon style="stroke:black; stroke-width:1; fill:green; " description="putative_oxidoreductase[br]Location: 2990 - 3838&lt;br&gt;&lt;br&gt;&lt;b&gt;BlastP hit with CHAFR746836_0084680.1&lt;/b&gt;&lt;br&gt;Percentage identity: 37%&lt;br&gt;Percentage coverage: 27%&lt;br&gt;BLAST bit score: 72&lt;br&gt;E-value: 4e-13" locus_tag="Tcs_SK_005" id="clusterblast-1_h16_3_4" points="30,85 35,80 37,80 37,90 35,90 30,85 " class="clusterblast-orf"  />
<polygon style="stroke:black; stroke-width:1; fill:#FFFFFF; " description="TPR_repeat_protein[br]Location: 4272 - 4940" locus_tag="Tcs_SK_006" id="clusterblast-1_h16_3_5" points="40,85 45,80 45,80 45,90 45,90 40,85 " class="clusterblast-orf"  />
<polygon style="stroke:black; stroke-width:1; fill:#FFFFFF; " description="hypothetical_protein[br]Location: 5155 - 5286" locus_tag="Tcs_SK_007" id="clusterblast-1_h16_3_6" points="46,85 47,80 47,90 46,85 " class="clusterblast-orf"  />
<polygon style="stroke:black; stroke-width:1; fill:#FFFFFF; " description="putative_transcriptional_regulator[br]Location: 5499 - 5891" locus_tag="Tcs_SK_008" id="clusterblast-1_h16_3_7" points="49,85 52,80 52,90 49,85 " class="clusterblast-orf"  />
<polygon style="stroke:black; stroke-width:1; fill:#FFFFFF; " description="hypothetical_protein[br]Location: 5947 - 6102" locus_tag="Tcs_SK_009" id="clusterblast-1_h16_3_8" points="52,85 53,80 53,90 52,85 " class="clusterblast-orf"  />
<polygon style="stroke:black; stroke-width:1; fill:#FFFFFF; " description="FrnE[br]Location: 6174 - 6557" locus_tag="Tcs_SK_010" id="clusterblast-1_h16_3_9" points="54,90 56,85 54,80 54,90 " class="clusterblast-orf"  />
<polygon style="stroke:black; stroke-width:1; fill:#FFFFFF; " description="FMN-dependent_NADH-azoreductase[br]Location: 6605 - 7249" locus_tag="Tcs_SK_011" id="clusterblast-1_h16_3_10" points="57,90 61,85 57,80 57,90 " class="clusterblast-orf"  />
<polygon style="stroke:black; stroke-width:1; fill:#FFFFFF; " description="hypothetical_protein[br]Location: 7392 - 8735" locus_tag="Tcs_SK_012" id="clusterblast-1_h16_3_11" points="62,85 67,80 72,80 72,90 67,90 62,85 " class="clusterblast-orf"  />
<polygon style="stroke:black; stroke-width:1; fill:#FFFFFF; " description="hypothetical_protein[br]Location: 8757 - 9314" locus_tag="Tcs_SK_013" id="clusterblast-1_h16_3_12" points="72,85 76,80 76,90 72,85 " class="clusterblast-orf"  />
<polygon style="stroke:black; stroke-width:1; fill:#FFFFFF; " description="hypothetical_protein[br]Location: 9500 - 9814" locus_tag="Tcs_SK_014" id="clusterblast-1_h16_3_13" points="78,85 80,80 80,90 78,85 " class="clusterblast-orf"  />
<polygon style="stroke:black; stroke-width:1; fill:#FFFFFF; " description="transcriptional_regulator,_LysR_family[br]Location: 10018 - 10905" locus_tag="Tcs_SK_015" id="clusterblast-1_h16_3_14" points="82,90 83,90 88,85 83,80 82,80 82,90 " class="clusterblast-orf"  />
<polygon style="stroke:black; stroke-width:1; fill:#FFFFFF; " description="hypothetical_protein[br]Location: 10954 - 11859" locus_tag="Tcs_SK_016" id="clusterblast-1_h16_3_15" points="88,85 93,80 95,80 95,90 93,90 88,85 " class="clusterblast-orf"  />
<polygon style="stroke:black; stroke-width:1; fill:#FFFFFF; " description="hypothetical_protein[br]Location: 11856 - 12221" locus_tag="Tcs_SK_017" id="clusterblast-1_h16_3_16" points="95,85 98,80 98,90 95,85 " class="clusterblast-orf"  />
<polygon style="stroke:black; stroke-width:1; fill:#FFFFFF; " description="hypothetical_protein[br]Location: 12606 - 13166" locus_tag="Tcs_SK_018" id="clusterblast-1_h16_3_17" points="100,85 104,80 104,90 100,85 " class="clusterblast-orf"  />
<polygon style="stroke:black; stroke-width:1; fill:#FFFFFF; " description="protein_kinase/transcriptional_regulator,_LuxR[br]Location: 13194 - 15296" locus_tag="Tcs_SK_019" id="clusterblast-1_h16_3_18" points="105,85 110,80 120,80 120,90 110,90 105,85 " class="clusterblast-orf"  />
<polygon style="stroke:black; stroke-width:1; fill:#FFFFFF; " description="acyl_transferase_domain_protein[br]Location: 15815 - 17095" locus_tag="Tcs_SK_020" id="clusterblast-1_h16_3_19" points="124,90 128,90 133,85 128,80 124,80 124,90 " class="clusterblast-orf"  />
<polygon style="stroke:black; stroke-width:1; fill:#FFFFFF; " description="polyketide_synthase_module-related_protein[br]Location: 17103 - 19493" locus_tag="Tcs_SK_021" id="clusterblast-1_h16_3_20" points="133,90 146,90 151,85 146,80 133,80 133,90 " class="clusterblast-orf"  />
<polygon style="stroke:black; stroke-width:1; fill:#FFFFFF; " description="crotonyl-CoA_reductase[br]Location: 19490 - 20827" locus_tag="Tcs_SK_022" id="clusterblast-1_h16_3_21" points="151,90 155,90 160,85 155,80 151,80 151,90 " class="clusterblast-orf"  />
<polygon style="stroke:black; stroke-width:1; fill:#FFFFFF; " description="acyl-CoA_dehydrogenase[br]Location: 20824 - 21984" locus_tag="Tcs_SK_023" id="clusterblast-1_h16_3_22" points="160,90 164,90 169,85 164,80 160,80 160,90 " class="clusterblast-orf"  />
<polygon style="stroke:black; stroke-width:1; fill:#FFFFFF; " description="hydroxy-malonyl-ACP_O-methyltransferase[br]Location: 22063 - 22731" locus_tag="Tcs_SK_024" id="clusterblast-1_h16_3_23" points="169,90 169,90 174,85 169,80 169,80 169,90 " class="clusterblast-orf"  />
<polygon style="stroke:black; stroke-width:1; fill:#FFFFFF; " description="glyceryl_transferase[br]Location: 22709 - 23797" locus_tag="Tcs_SK_025" id="clusterblast-1_h16_3_24" points="174,85 179,80 182,80 182,90 179,90 174,85 " class="clusterblast-orf"  />
<polygon style="stroke:black; stroke-width:1; fill:#FFFFFF; " description="acyl-CoA_dehydrogenase[br]Location: 23808 - 24908" locus_tag="Tcs_SK_026" id="clusterblast-1_h16_3_25" points="182,85 187,80 190,80 190,90 187,90 182,85 " class="clusterblast-orf"  />
<polygon style="stroke:black; stroke-width:1; fill:#FFFFFF; " description="acyl_carrier_protein[br]Location: 24901 - 25161" locus_tag="Tcs_SK_027" id="clusterblast-1_h16_3_26" points="190,85 192,80 192,90 190,85 " class="clusterblast-orf"  />
<polygon style="stroke:black; stroke-width:1; fill:#FFFFFF; " description="glyceryl-ACP_oxidoreductase[br]Location: 25158 - 26009" locus_tag="Tcs_SK_028" id="clusterblast-1_h16_3_27" points="192,85 197,80 198,80 198,90 197,90 192,85 " class="clusterblast-orf"  />
<polygon style="stroke:black; stroke-width:1; fill:#FFFFFF; " description="lysine_cyclodeaminase[br]Location: 26030 - 27067" locus_tag="Tcs_SK_029" id="clusterblast-1_h16_3_28" points="198,85 203,80 206,80 206,90 203,90 198,85 " class="clusterblast-orf"  />
<polygon style="stroke:black; stroke-width:1; fill:#FFFFFF; " description="polyketide_synthase[br]Location: 27071 - 37864" locus_tag="Tcs_SK_030" id="clusterblast-1_h16_3_29" points="206,85 211,80 284,80 284,90 211,90 206,85 " class="clusterblast-orf"  />
<polygon style="stroke:black; stroke-width:1; fill:red; " description="polyketide_synthase[br]Location: 37869 - 60644&lt;br&gt;&lt;br&gt;&lt;b&gt;BlastP hit with CHAFR746836_0084670.1&lt;/b&gt;&lt;br&gt;Percentage identity: 31%&lt;br&gt;Percentage coverage: 12%&lt;br&gt;BLAST bit score: 54&lt;br&gt;E-value: 6e-06" locus_tag="Tcs_SK_031" id="clusterblast-1_h16_3_30" points="284,85 289,80 450,80 450,90 289,90 284,85 " class="clusterblast-orf"  />
<polygon style="stroke:black; stroke-width:1; fill:#FFFFFF; " description="oxidase[br]Location: 60907 - 61905" locus_tag="Tcs_SK_032" id="clusterblast-1_h16_3_31" points="452,90 454,90 459,85 454,80 452,80 452,90 " class="clusterblast-orf"  />
<polygon style="stroke:black; stroke-width:1; fill:#FFFFFF; " description="peptide_synthetase[br]Location: 61902 - 66422" locus_tag="Tcs_SK_033" id="clusterblast-1_h16_3_32" points="459,90 487,90 492,85 487,80 459,80 459,90 " class="clusterblast-orf"  />
<polygon style="stroke:black; stroke-width:1; fill:#FFFFFF; " description="polyketide_synthase[br]Location: 66425 - 85651" locus_tag="Tcs_SK_034" id="clusterblast-1_h16_3_33" points="492,90 627,90 632,85 627,80 492,80 492,90 " class="clusterblast-orf"  />
<polygon style="stroke:black; stroke-width:1; fill:#FFFFFF; " description="cytochrome_P450[br]Location: 85648 - 86814" locus_tag="Tcs_SK_035" id="clusterblast-1_h16_3_34" points="632,90 636,90 641,85 636,80 632,80 632,90 " class="clusterblast-orf"  />
<polygon style="stroke:black; stroke-width:1; fill:#FFFFFF; " description="31-O-demethyl-FK506_methyltransferase[br]Location: 86953 - 87591" locus_tag="Tcs_SK_036" id="clusterblast-1_h16_3_35" points="642,90 646,85 642,80 642,90 " class="clusterblast-orf"  />
<polygon style="stroke:black; stroke-width:1; fill:#FFFFFF; " description="cholesterol_oxidase_regulator[br]Location: 87607 - 90411" locus_tag="Tcs_SK_037" id="clusterblast-1_h16_3_36" points="647,85 652,80 667,80 667,90 652,90 647,85 " class="clusterblast-orf"  />
<polygon style="stroke:black; stroke-width:1; fill:#FFFFFF; " description="thioesterase[br]Location: 90447 - 91214" locus_tag="Tcs_SK_038" id="clusterblast-1_h16_3_37" points="667,85 672,80 673,80 673,90 672,90 667,85 " class="clusterblast-orf"  />
<polygon style="stroke:black; stroke-width:1; fill:#FFFFFF; " description="crotonyl-CoA_reductase[br]Location: 91211 - 91552" locus_tag="Tcs_SK_039" id="clusterblast-1_h16_3_38" points="673,85 675,80 675,90 673,85 " class="clusterblast-orf"  />
<polygon style="stroke:black; stroke-width:1; fill:#FFFFFF; " description="hypothetical_protein[br]Location: 91622 - 91762" locus_tag="Tcs_SK_040" id="clusterblast-1_h16_3_39" points="676,90 677,85 676,80 676,90 " class="clusterblast-orf"  />
<polygon style="stroke:black; stroke-width:1; fill:#FFFFFF; " description="hypothetical_protein[br]Location: 91805 - 92641" locus_tag="Tcs_SK_041" id="clusterblast-1_h16_3_40" points="677,85 682,80 683,80 683,90 682,90 677,85 " class="clusterblast-orf"  />
<polygon style="stroke:black; stroke-width:1; fill:#FFFFFF; " description="putative_lipase[br]Location: 92633 - 93091" locus_tag="Tcs_SK_042" id="clusterblast-1_h16_3_41" points="683,90 687,85 683,80 683,90 " class="clusterblast-orf"  />
<polygon style="stroke:black; stroke-width:1; fill:#FFFFFF; " description="hypothetical_protein[br]Location: 93108 - 93458" locus_tag="Tcs_SK_043" id="clusterblast-1_h16_3_42" points="687,90 689,85 687,80 687,90 " class="clusterblast-orf"  />
<polygon style="stroke:black; stroke-width:1; fill:#FFFFFF; " description="putative_membrane_protein[br]Location: 93449 - 93610" locus_tag="Tcs_SK_044" id="clusterblast-1_h16_3_43" points="689,90 690,85 689,80 689,90 " class="clusterblast-orf"  />
<polygon style="stroke:black; stroke-width:1; fill:#FFFFFF; " description="hypothetical_protein[br]Location: 93839 - 94795" locus_tag="Tcs_SK_045" id="clusterblast-1_h16_3_44" points="692,85 697,80 699,80 699,90 697,90 692,85 " class="clusterblast-orf"  />
<polygon style="stroke:black; stroke-width:1; fill:#FFFFFF; " description="hypothetical_protein[br]Location: 95308 - 95718" locus_tag="Tcs_SK_046" id="clusterblast-1_h16_3_45" points="703,90 706,85 703,80 703,90 " class="clusterblast-orf"  />
<polygon style="stroke:black; stroke-width:1; fill:#FFFFFF; " description="hypothetical_protein[br]Location: 95722 - 96012" locus_tag="Tcs_SK_047" id="clusterblast-1_h16_3_46" points="706,85 708,80 708,90 706,85 " class="clusterblast-orf"  />
<polygon style="stroke:black; stroke-width:1; fill:#FFFFFF; " description="hypothetical_protein[br]Location: 96025 - 96180" locus_tag="Tcs_SK_048" id="clusterblast-1_h16_3_47" points="708,90 709,85 708,80 708,90 " class="clusterblast-orf"  />
<polygon style="stroke:black; stroke-width:1; fill:#FFFFFF; " description="hypothetical_protein[br]Location: 96232 - 97302" locus_tag="Tcs_SK_049" id="clusterblast-1_h16_3_48" points="709,85 714,80 717,80 717,90 714,90 709,85 " class="clusterblast-orf"  />
<polygon style="stroke:black; stroke-width:1; fill:#FFFFFF; " description="putative_regulatory_protein[br]Location: 97410 - 98402" locus_tag="Tcs_SK_050" id="clusterblast-1_h16_3_49" points="718,90 720,90 725,85 720,80 718,80 718,90 " class="clusterblast-orf"  />
<polygon style="stroke:black; stroke-width:1; fill:#FFFFFF; " description="putative_zinc-binding_dehydrogenase[br]Location: 98492 - 99445" locus_tag="Tcs_SK_051" id="clusterblast-1_h16_3_50" points="726,85 731,80 733,80 733,90 731,90 726,85 " class="clusterblast-orf"  />
<polygon style="stroke:black; stroke-width:1; fill:#FFFFFF; " description="regulatory_protein_TetR[br]Location: 99518 - 100102" locus_tag="Tcs_SK_052" id="clusterblast-1_h16_3_51" points="733,90 733,90 738,85 733,80 733,80 733,90 " class="clusterblast-orf"  />
<polygon style="stroke:black; stroke-width:1; fill:#FFFFFF; " description="hypothetical_protein[br]Location: 100266 - 100676" locus_tag="Tcs_SK_053" id="clusterblast-1_h16_3_52" points="739,90 742,85 739,80 739,90 " class="clusterblast-orf"  />
<polygon style="stroke:black; stroke-width:1; fill:#FFFFFF; " description="hypothetical_protein[br]Location: 100877 - 101311" locus_tag="Tcs_SK_054" id="clusterblast-1_h16_3_53" points="743,85 746,80 746,90 743,85 " class="clusterblast-orf"  />
<polygon style="stroke:black; stroke-width:1; fill:#FFFFFF; " description="hypothetical_protein[br]Location: 101319 - 101444" locus_tag="Tcs_SK_055" id="clusterblast-1_h16_3_54" points="746,90 747,85 746,80 746,90 " class="clusterblast-orf"  />
<polygon style="stroke:black; stroke-width:1; fill:#FFFFFF; " description="hypothetical_protein[br]Location: 101444 - 101617" locus_tag="Tcs_SK_056" id="clusterblast-1_h16_3_55" points="747,90 749,85 747,80 747,90 " class="clusterblast-orf"  />
<polygon style="stroke:black; stroke-width:1; fill:#FFFFFF; " description="hypothetical_protein[br]Location: 101704 - 102945" locus_tag="Tcs_SK_057" id="clusterblast-1_h16_3_56" points="749,85 754,80 758,80 758,90 754,90 749,85 " class="clusterblast-orf"  />
<polygon style="stroke:black; stroke-width:1; fill:#FFFFFF; " description="putative_integral_membrane_protein[br]Location: 103057 - 103203" locus_tag="Tcs_SK_058" id="clusterblast-1_h16_3_57" points="759,85 760,80 760,90 759,85 " class="clusterblast-orf"  />
<polygon style="stroke:black; stroke-width:1; fill:#FFFFFF; " description="hypothetical_protein[br]Location: 103190 - 103831" locus_tag="Tcs_SK_059" id="clusterblast-1_h16_3_58" points="760,90 760,90 765,85 760,80 760,80 760,90 " class="clusterblast-orf"  />
<polygon style="stroke:black; stroke-width:1; fill:#FFFFFF; " description="sensor_protein[br]Location: 103898 - 105037" locus_tag="Tcs_SK_060" id="clusterblast-1_h16_3_59" points="765,85 770,80 774,80 774,90 770,90 765,85 " class="clusterblast-orf"  />
<polygon style="stroke:black; stroke-width:1; fill:#FFFFFF; " description="sensor_protein[br]Location: 105077 - 105241" locus_tag="Tcs_SK_061" id="clusterblast-1_h16_3_60" points="774,85 775,80 775,90 774,85 " class="clusterblast-orf"  />
<polygon style="stroke:black; stroke-width:1; fill:#FFFFFF; " description="putative_two-component_regulator[br]Location: 105259 - 105585" locus_tag="Tcs_SK_062" id="clusterblast-1_h16_3_61" points="775,85 778,80 778,90 775,85 " class="clusterblast-orf"  />
</g>
</svg>
