<svg xmlns="http://www.w3.org/2000/svg" height="230" width="800" version="1.1" y="0" x="0" preserveAspectRatio="none" xmlns:xlink="http://www.w3.org/1999/xlink" viewBox="0 0 800 230"  >
<g class="clusterblast-cluster" label="Query sequence"  >
<text class="clusterblast-acc" y="10" x="5"  >
Query sequence</text>
<line y1="35" x2="778.0" style="stroke:grey; stroke-width:1; " x1="10" y2="35"  />
<polygon style="stroke:black; stroke-width:1; fill:rgb(190,63,63); " description="unannotated orf[br]Location: 74290 - 75458" locus_tag="CHAFR746836_0084510.1" class="clusterblast-orf" points="219,40 238,40 243,35 238,30 219,30 219,40 " id="clusterblast-1_q15_1_0"  />
<polygon style="stroke:black; stroke-width:1; fill:#FFFFFF; " description="unannotated orf[br]Location: 75669 - 76875" locus_tag="CHAFR746836_0084520.1" class="clusterblast-orf" points="248,35 253,30 273,30 273,40 253,40 248,35 " id="clusterblast-1_q15_1_1"  />
<polygon style="stroke:black; stroke-width:1; fill:rgb(63,63,190); " description="unannotated orf[br]Location: 78561 - 80604" locus_tag="CHAFR746836_0084530.1" class="clusterblast-orf" points="309,35 314,30 353,30 353,40 314,40 309,35 " id="clusterblast-1_q15_1_2"  />
<polygon style="stroke:black; stroke-width:1; fill:rgb(63,190,63); " description="unannotated orf[br]Location: 81404 - 83288" locus_tag="CHAFR746836_0084540.1" class="clusterblast-orf" points="370,40 404,40 409,35 404,30 370,30 370,40 " id="clusterblast-1_q15_1_3"  />
<polygon style="stroke:black; stroke-width:1; fill:rgb(190,63,190); " description="unannotated orf[br]Location: 83676 - 85677" locus_tag="CHAFR746836_0084550.1" class="clusterblast-orf" points="418,40 455,40 460,35 455,30 418,30 418,40 " id="clusterblast-1_q15_1_4"  />
<polygon style="stroke:black; stroke-width:1; fill:rgb(190,190,63); " description="unannotated orf[br]Location: 86720 - 88095" locus_tag="CHAFR746836_0084560.1" class="clusterblast-orf" points="482,40 507,40 512,35 507,30 482,30 482,40 " id="clusterblast-1_q15_1_5"  />
<polygon style="stroke:black; stroke-width:1; fill:#FFFFFF; " description="unannotated orf[br]Location: 88452 - 90694" locus_tag="CHAFR746836_0084570.1" class="clusterblast-orf" points="519,35 524,30 567,30 567,40 524,40 519,35 " id="clusterblast-1_q15_1_6"  />
</g>
<g class="clusterblast-cluster" description="Botryotinia fuckeliana isolate T4 SupSuperContig 246 31 4 1 ..." label="FQ790352.1_c3"  >
<text class="clusterblast-acc" y="60" x="5"  >
FQ790352.1_c3</text>
<text class="clusterblast-desc" y="60" x="460.8"  >
Botryotinia fuckeliana isolate T4 SupSuperContig 246 31 4 1 ...</text>
<line y1="85" x2="778.0" style="stroke:grey; stroke-width:1; " x1="10" y2="85"  />
<polygon style="stroke:black; stroke-width:1; fill:#FFFFFF; " description="similar_to_GPR/FUN34_family_protein[br]Location: 889024 - 890064" locus_tag="CCD55066.1" id="clusterblast-1_h15_1_0" points="10,85 15,80 32,80 32,90 15,90 10,85 " class="clusterblast-orf"  />
<polygon style="stroke:black; stroke-width:1; fill:#FFFFFF; " description="hypothetical_protein[br]Location: 887589 - 888363" locus_tag="CCD55065.1" id="clusterblast-1_h15_1_1" points="46,90 57,90 62,85 57,80 46,80 46,90 " class="clusterblast-orf"  />
<polygon style="stroke:black; stroke-width:1; fill:#FFFFFF; " description="predicted_protein[br]Location: 886679 - 887508" locus_tag="CCD55064.1" id="clusterblast-1_h15_1_2" points="64,90 76,90 81,85 76,80 64,80 64,90 " class="clusterblast-orf"  />
<polygon style="stroke:black; stroke-width:1; fill:#FFFFFF; " description="predicted_protein[br]Location: 883493 - 884175" locus_tag="CCD55063.1" id="clusterblast-1_h15_1_3" points="135,85 140,80 149,80 149,90 140,90 135,85 " class="clusterblast-orf"  />
<polygon style="stroke:black; stroke-width:1; fill:#FFFFFF; " description="hypothetical_protein[br]Location: 880098 - 882017" locus_tag="CCD55062.1" id="clusterblast-1_h15_1_4" points="180,85 185,80 221,80 221,90 185,90 180,85 " class="clusterblast-orf"  />
<polygon style="stroke:black; stroke-width:1; fill:rgb(63,63,190); " description="hypothetical_protein[br]Location: 876753 - 878702&lt;br&gt;&lt;br&gt;&lt;b&gt;BlastP hit with CHAFR746836_0084530.1&lt;/b&gt;&lt;br&gt;Percentage identity: 71%&lt;br&gt;Percentage coverage: 100%&lt;br&gt;BLAST bit score: 958&lt;br&gt;E-value: 0.0" locus_tag="CCD55061.1" id="clusterblast-1_h15_1_5" points="251,85 256,80 292,80 292,90 256,90 251,85 " class="clusterblast-orf"  />
<polygon style="stroke:black; stroke-width:1; fill:rgb(63,190,63); " description="BcPHS1,_similar_to_phytoene_synthase[br]Location: 873457 - 875404&lt;br&gt;&lt;br&gt;&lt;b&gt;BlastP hit with CHAFR746836_0084540.1&lt;/b&gt;&lt;br&gt;Percentage identity: 59%&lt;br&gt;Percentage coverage: 104%&lt;br&gt;BLAST bit score: 715&lt;br&gt;E-value: 0.0" locus_tag="CCD55060.1" id="clusterblast-1_h15_1_6" points="321,90 357,90 362,85 357,80 321,80 321,90 " class="clusterblast-orf"  />
<polygon style="stroke:black; stroke-width:1; fill:rgb(190,63,190); " description="hypothetical_protein[br]Location: 871131 - 873047&lt;br&gt;&lt;br&gt;&lt;b&gt;BlastP hit with CHAFR746836_0084550.1&lt;/b&gt;&lt;br&gt;Percentage identity: 68%&lt;br&gt;Percentage coverage: 100%&lt;br&gt;BLAST bit score: 845&lt;br&gt;E-value: 0.0" locus_tag="CCD55059.1" id="clusterblast-1_h15_1_7" points="371,90 406,90 411,85 406,80 371,80 371,90 " class="clusterblast-orf"  />
<polygon style="stroke:black; stroke-width:1; fill:rgb(190,190,63); " description="BOP2,_G_protein-coupled_receptor_:_Microbial[br]Location: 868687 - 869766&lt;br&gt;&lt;br&gt;&lt;b&gt;BlastP hit with CHAFR746836_0084560.1&lt;/b&gt;&lt;br&gt;Percentage identity: 58%&lt;br&gt;Percentage coverage: 97%&lt;br&gt;BLAST bit score: 379&lt;br&gt;E-value: 5e-129" locus_tag="CCD55058.1" id="clusterblast-1_h15_1_8" points="440,90 458,90 463,85 458,80 440,80 440,90 " class="clusterblast-orf"  />
<polygon style="stroke:black; stroke-width:1; fill:#FFFFFF; " description="similar_to_alpha/beta_hydrolase_fold[br]Location: 866308 - 867333" locus_tag="CCD55057.1" id="clusterblast-1_h15_1_9" points="492,90 509,90 514,85 509,80 492,80 492,90 " class="clusterblast-orf"  />
<polygon style="stroke:black; stroke-width:1; fill:#FFFFFF; " description="hypothetical_protein[br]Location: 863896 - 865107" locus_tag="CCD55056.1" id="clusterblast-1_h15_1_10" points="539,90 560,90 565,85 560,80 539,80 539,90 " class="clusterblast-orf"  />
<polygon style="stroke:black; stroke-width:1; fill:#FFFFFF; " description="similar_to_arylsulfatase[br]Location: 861435 - 863296" locus_tag="CCD55055.1" id="clusterblast-1_h15_1_11" points="578,85 583,80 617,80 617,90 583,90 578,85 " class="clusterblast-orf"  />
<polygon style="stroke:black; stroke-width:1; fill:#FFFFFF; " description="similar_to_MFS_multidrug_transporter[br]Location: 858535 - 860574" locus_tag="CCD55054.1" id="clusterblast-1_h15_1_12" points="635,90 674,90 679,85 674,80 635,80 635,90 " class="clusterblast-orf"  />
<polygon style="stroke:black; stroke-width:1; fill:#FFFFFF; " description="similar_to_DNA_mismatch_repair_protein_msh6[br]Location: 853882 - 857785" locus_tag="CCD55053.1" id="clusterblast-1_h15_1_13" points="695,90 773,90 778,85 773,80 695,80 695,90 " class="clusterblast-orf"  />
</g>
</svg>
