<svg xmlns="http://www.w3.org/2000/svg" height="530" width="800" version="1.1" y="0" x="0" preserveAspectRatio="none" xmlns:xlink="http://www.w3.org/1999/xlink" viewBox="0 0 800 530"  >
<g class="clusterblast-cluster" label="Query sequence"  >
<text class="clusterblast-acc" y="10" x="5"  >
Query sequence</text>
<line y1="35" x2="778.0" style="stroke:grey; stroke-width:1; " x1="10" y2="35"  />
<polygon style="stroke:black; stroke-width:1; fill:#FFFFFF; " description="unannotated orf[br]Location: 18836 - 21554" locus_tag="CHAFR746836_0027290.1" class="clusterblast-orf" points="10,40 24,40 29,35 24,30 10,30 10,40 " id="clusterblast-1_all_40_0_0"  />
<polygon style="stroke:black; stroke-width:1; fill:#FFFFFF; " description="unannotated orf[br]Location: 27135 - 27585" locus_tag="CHAFR746836_0027300.1" class="clusterblast-orf" points="68,40 72,35 68,30 68,40 " id="clusterblast-1_all_40_0_1"  />
<polygon style="stroke:black; stroke-width:1; fill:rgb(190,63,63); " description="unannotated orf[br]Location: 30771 - 32507" locus_tag="CHAFR746836_0027310.1" class="clusterblast-orf" points="94,35 99,30 107,30 107,40 99,40 94,35 " id="clusterblast-1_all_40_0_2"  />
<polygon style="stroke:black; stroke-width:1; fill:rgb(63,63,190); " description="unannotated orf[br]Location: 34247 - 35696" locus_tag="CHAFR746836_0027320.1" class="clusterblast-orf" points="119,40 124,40 129,35 124,30 119,30 119,40 " id="clusterblast-1_all_40_0_3"  />
<polygon style="stroke:black; stroke-width:1; fill:#FFFFFF; " description="unannotated orf[br]Location: 37185 - 38130" locus_tag="CHAFR746836_0027330.1" class="clusterblast-orf" points="140,40 141,40 146,35 141,30 140,30 140,40 " id="clusterblast-1_all_40_0_4"  />
<polygon style="stroke:black; stroke-width:1; fill:#FFFFFF; " description="unannotated orf[br]Location: 41765 - 42925" locus_tag="CHAFR746836_0027340.1" class="clusterblast-orf" points="172,35 177,30 180,30 180,40 177,40 172,35 " id="clusterblast-1_all_40_0_5"  />
<polygon style="stroke:black; stroke-width:1; fill:#FFFFFF; " description="unannotated orf[br]Location: 55069 - 56002" locus_tag="CHAFR746836_0027350.1" class="clusterblast-orf" points="267,35 272,30 273,30 273,40 272,40 267,35 " id="clusterblast-1_all_40_0_6"  />
<polygon style="stroke:black; stroke-width:1; fill:#FFFFFF; " description="unannotated orf[br]Location: 56950 - 57453" locus_tag="CHAFR746836_0027360.1" class="clusterblast-orf" points="280,35 284,30 284,40 280,35 " id="clusterblast-1_all_40_0_7"  />
<polygon style="stroke:black; stroke-width:1; fill:#FFFFFF; " description="unannotated orf[br]Location: 59904 - 60587" locus_tag="CHAFR746836_0027370.1" class="clusterblast-orf" points="301,35 306,30 306,30 306,40 306,40 301,35 " id="clusterblast-1_all_40_0_8"  />
<polygon style="stroke:black; stroke-width:1; fill:rgb(63,190,63); " description="unannotated orf[br]Location: 62113 - 63802" locus_tag="CHAFR746836_0027380.1" class="clusterblast-orf" points="317,40 324,40 329,35 324,30 317,30 317,40 " id="clusterblast-1_all_40_0_9"  />
<polygon style="stroke:black; stroke-width:1; fill:rgb(190,63,190); " description="unannotated orf[br]Location: 65675 - 67240" locus_tag="CHAFR746836_0027390.1" class="clusterblast-orf" points="342,40 348,40 353,35 348,30 342,30 342,40 " id="clusterblast-1_all_40_0_10"  />
<polygon style="stroke:black; stroke-width:1; fill:#FFFFFF; " description="unannotated orf[br]Location: 69095 - 71104" locus_tag="CHAFR746836_0027400.1" class="clusterblast-orf" points="366,35 371,30 380,30 380,40 371,40 366,35 " id="clusterblast-1_all_40_0_11"  />
<polygon style="stroke:black; stroke-width:1; fill:#FFFFFF; " description="unannotated orf[br]Location: 72318 - 73122" locus_tag="CHAFR746836_0027410.1" class="clusterblast-orf" points="389,35 394,30 395,30 395,40 394,40 389,35 " id="clusterblast-1_all_40_0_12"  />
<polygon style="stroke:black; stroke-width:1; fill:#FFFFFF; " description="unannotated orf[br]Location: 85144 - 86302" locus_tag="CHAFR746836_0027420.1" class="clusterblast-orf" points="480,40 483,40 488,35 483,30 480,30 480,40 " id="clusterblast-1_all_40_0_13"  />
<polygon style="stroke:black; stroke-width:1; fill:#FFFFFF; " description="unannotated orf[br]Location: 87771 - 89252" locus_tag="CHAFR746836_0027430.1" class="clusterblast-orf" points="499,40 504,40 509,35 504,30 499,30 499,40 " id="clusterblast-1_all_40_0_14"  />
<polygon style="stroke:black; stroke-width:1; fill:rgb(190,190,63); " description="unannotated orf[br]Location: 93673 - 95433" locus_tag="CHAFR746836_0027440.1" class="clusterblast-orf" points="541,35 546,30 553,30 553,40 546,40 541,35 " id="clusterblast-1_all_40_0_15"  />
<polygon style="stroke:black; stroke-width:1; fill:#FFFFFF; " description="unannotated orf[br]Location: 101726 - 102802" locus_tag="CHAFR746836_0027450.1" class="clusterblast-orf" points="598,40 600,40 605,35 600,30 598,30 598,40 " id="clusterblast-1_all_40_0_16"  />
<polygon style="stroke:black; stroke-width:1; fill:rgb(190,190,190); " description="unannotated orf[br]Location: 102943 - 104133" locus_tag="CHAFR746836_0027460.1" class="clusterblast-orf" points="606,35 611,30 615,30 615,40 611,40 606,35 " id="clusterblast-1_all_40_0_17"  />
<polygon style="stroke:black; stroke-width:1; fill:rgb(63,190,190); " description="unannotated orf[br]Location: 113142 - 115383" locus_tag="CHAFR746836_0027470.1" class="clusterblast-orf" points="679,40 690,40 695,35 690,30 679,30 679,40 " id="clusterblast-1_all_40_0_18"  />
<polygon style="stroke:black; stroke-width:1; fill:#FFFFFF; " description="unannotated orf[br]Location: 116732 - 117774" locus_tag="CHAFR746836_0027480.1" class="clusterblast-orf" points="704,40 707,40 712,35 707,30 704,30 704,40 " id="clusterblast-1_all_40_0_19"  />
<polygon style="stroke:black; stroke-width:1; fill:rgb(63,63,63); " description="unannotated orf[br]Location: 118463 - 119147" locus_tag="CHAFR746836_0027490.1" class="clusterblast-orf" points="717,40 721,35 717,30 717,40 " id="clusterblast-1_all_40_0_20"  />
<polygon style="stroke:black; stroke-width:1; fill:#FFFFFF; " description="unannotated orf[br]Location: 120001 - 121808" locus_tag="CHAFR746836_0027500.1" class="clusterblast-orf" points="727,40 735,40 740,35 735,30 727,30 727,40 " id="clusterblast-1_all_40_0_21"  />
<polygon style="stroke:black; stroke-width:1; fill:#FFFFFF; " description="unannotated orf[br]Location: 122955 - 125087" locus_tag="CHAFR746836_0027510.1" class="clusterblast-orf" points="748,35 753,30 764,30 764,40 753,40 748,35 " id="clusterblast-1_all_40_0_22"  />
<polygon style="stroke:black; stroke-width:1; fill:#FFFFFF; " description="unannotated orf[br]Location: 125673 - 127054" locus_tag="CHAFR746836_0027520.1" class="clusterblast-orf" points="768,35 773,30 778,30 778,40 773,40 768,35 " id="clusterblast-1_all_40_0_23"  />
</g>
<g class="clusterblast-cluster" description="Cordyceps militaris CM01 unplaced genomic scaffold CCM S0000..." label="JH126405.1_c3"  >
<text class="clusterblast-acc" y="60" x="5"  >
JH126405.1_c3</text>
<text class="clusterblast-desc" y="60" x="460.8"  >
Cordyceps militaris CM01 unplaced genomic scaffold CCM S0000...</text>
<line y1="85" x2="778.0" style="stroke:grey; stroke-width:1; " x1="10" y2="85"  />
<polygon style="stroke:black; stroke-width:1; fill:rgb(190,190,190); " description="epoxide_hydrolase,_putative[br]Location: 1568077 - 1569039&lt;br&gt;&lt;br&gt;&lt;b&gt;BlastP hit with CHAFR746836_0027460.1&lt;/b&gt;&lt;br&gt;Percentage identity: 32%&lt;br&gt;Percentage coverage: 94%&lt;br&gt;BLAST bit score: 174&lt;br&gt;E-value: 7e-50" locus_tag="CCM_08720" id="clusterblast-1_all_40_1_0" points="541,85 546,80 547,80 547,90 546,90 541,85 " class="clusterblast-orf"  />
<polygon style="stroke:black; stroke-width:1; fill:#FFFFFF; " description="alcohol_dehydrogenase,_putative[br]Location: 1569379 - 1570571" locus_tag="CCM_08721" id="clusterblast-1_all_40_1_1" points="531,85 536,80 539,80 539,90 536,90 531,85 " class="clusterblast-orf"  />
<polygon style="stroke:black; stroke-width:1; fill:#FFFFFF; " description="LPS-induced_tumor_necrosis_factor_alpha_factor[br]Location: 1572300 - 1573040" locus_tag="CCM_08722" id="clusterblast-1_all_40_1_2" points="513,85 518,80 518,80 518,90 518,90 513,85 " class="clusterblast-orf"  />
<polygon style="stroke:black; stroke-width:1; fill:rgb(190,63,190); " description="oxalate_decarboxylase_oxdC,_putative[br]Location: 1573264 - 1574844&lt;br&gt;&lt;br&gt;&lt;b&gt;BlastP hit with CHAFR746836_0027390.1&lt;/b&gt;&lt;br&gt;Percentage identity: 67%&lt;br&gt;Percentage coverage: 92%&lt;br&gt;BLAST bit score: 537&lt;br&gt;E-value: 0.0" locus_tag="CCM_08723" id="clusterblast-1_all_40_1_3" points="500,90 507,90 512,85 507,80 500,80 500,90 " class="clusterblast-orf"  />
<polygon style="stroke:black; stroke-width:1; fill:#FFFFFF; " description="selenium-binding_protein[br]Location: 1576325 - 1578175" locus_tag="CCM_08724" id="clusterblast-1_all_40_1_4" points="477,85 482,80 490,80 490,90 482,90 477,85 " class="clusterblast-orf"  />
<polygon style="stroke:black; stroke-width:1; fill:#FFFFFF; " description="acyl-protein_thioesterase_1[br]Location: 1578348 - 1579129" locus_tag="CCM_08725" id="clusterblast-1_all_40_1_5" points="470,90 470,90 475,85 470,80 470,80 470,90 " class="clusterblast-orf"  />
<polygon style="stroke:black; stroke-width:1; fill:#FFFFFF; " description="gibberellin_20-oxidase,_putative[br]Location: 1580733 - 1581782" locus_tag="CCM_08727" id="clusterblast-1_all_40_1_6" points="451,90 454,90 459,85 454,80 451,80 451,90 " class="clusterblast-orf"  />
<polygon style="stroke:black; stroke-width:1; fill:#FFFFFF; " description="Phosphoesterase_family[br]Location: 1582225 - 1583437" locus_tag="CCM_08728" id="clusterblast-1_all_40_1_7" points="439,90 443,90 448,85 443,80 439,80 439,90 " class="clusterblast-orf"  />
<polygon style="stroke:black; stroke-width:1; fill:#FFFFFF; " description="C6_transcription_factor,_putative[br]Location: 1585651 - 1588251" locus_tag="CCM_08729" id="clusterblast-1_all_40_1_8" points="405,85 410,80 424,80 424,90 410,90 405,85 " class="clusterblast-orf"  />
<polygon style="stroke:black; stroke-width:1; fill:#FFFFFF; " description="NRPS-like_enzyme,_putative[br]Location: 1588382 - 1591743" locus_tag="CCM_08730" id="clusterblast-1_all_40_1_9" points="380,85 385,80 404,80 404,90 385,90 380,85 " class="clusterblast-orf"  />
<polygon style="stroke:black; stroke-width:1; fill:#FFFFFF; " description="hypothetical_protein[br]Location: 1593790 - 1595160" locus_tag="CCM_08731" id="clusterblast-1_all_40_1_10" points="356,85 361,80 366,80 366,90 361,90 356,85 " class="clusterblast-orf"  />
<polygon style="stroke:black; stroke-width:1; fill:#FFFFFF; " description="endo-1,3(4)-beta-glucanase,_putative[br]Location: 1596828 - 1599555" locus_tag="CCM_08732" id="clusterblast-1_all_40_1_11" points="325,85 330,80 344,80 344,90 330,90 325,85 " class="clusterblast-orf"  />
<polygon style="stroke:black; stroke-width:1; fill:#FFFFFF; " description="mannosidase_MsdS[br]Location: 1599822 - 1601532" locus_tag="CCM_08733" id="clusterblast-1_all_40_1_12" points="311,90 318,90 323,85 318,80 311,80 311,90 " class="clusterblast-orf"  />
<polygon style="stroke:black; stroke-width:1; fill:#FFFFFF; " description="Extracellular_membrane_protein,_8-cysteine[br]Location: 1602989 - 1603633" locus_tag="CCM_08734" id="clusterblast-1_all_40_1_13" points="296,85 301,80 301,80 301,90 301,90 296,85 " class="clusterblast-orf"  />
<polygon style="stroke:black; stroke-width:1; fill:#FFFFFF; " description="von_Willebrand_domain_containing_protein[br]Location: 1606917 - 1609769" locus_tag="CCM_08735" id="clusterblast-1_all_40_1_14" points="252,90 268,90 273,85 268,80 252,80 252,90 " class="clusterblast-orf"  />
<polygon style="stroke:black; stroke-width:1; fill:#FFFFFF; " description="nitrate_reductase[br]Location: 1610474 - 1611991" locus_tag="CCM_08736" id="clusterblast-1_all_40_1_15" points="237,90 242,90 247,85 242,80 237,80 237,90 " class="clusterblast-orf"  />
</g>
<g class="clusterblast-cluster" description="Aspergillus fumigatus A1163 scf 000003 genomic scaffold, who..." label="DS499596.1_c2"  >
<text class="clusterblast-acc" y="110" x="5"  >
DS499596.1_c2</text>
<text class="clusterblast-desc" y="110" x="460.8"  >
Aspergillus fumigatus A1163 scf 000003 genomic scaffold, who...</text>
<line y1="135" x2="778.0" style="stroke:grey; stroke-width:1; " x1="10" y2="135"  />
<polygon style="stroke:black; stroke-width:1; fill:#FFFFFF; " description="4-hydroxyphenylpyruvate_dioxygenase,_putative[br]Location: 138521 - 139540" locus_tag="AFUB_034410" id="clusterblast-1_all_40_2_0" points="222,140 224,140 229,135 224,130 222,130 222,140 " class="clusterblast-orf"  />
<polygon style="stroke:black; stroke-width:1; fill:#FFFFFF; " description="pathogenesis_associated_protein_Pep2,_putative[br]Location: 139586 - 140333" locus_tag="AFUB_034420" id="clusterblast-1_all_40_2_1" points="229,135 234,130 234,130 234,140 234,140 229,135 " class="clusterblast-orf"  />
<polygon style="stroke:black; stroke-width:1; fill:#FFFFFF; " description="shikimate_5-dehydrogenase,_putative[br]Location: 140427 - 141458" locus_tag="AFUB_034430" id="clusterblast-1_all_40_2_2" points="235,135 240,130 242,130 242,140 240,140 235,135 " class="clusterblast-orf"  />
<polygon style="stroke:black; stroke-width:1; fill:#FFFFFF; " description="pentafunctional_AROM_polypeptide,_putative[br]Location: 141885 - 142748" locus_tag="AFUB_034440" id="clusterblast-1_all_40_2_3" points="245,140 246,140 251,135 246,130 245,130 245,140 " class="clusterblast-orf"  />
<polygon style="stroke:black; stroke-width:1; fill:#FFFFFF; " description="reductase,_putative[br]Location: 143203 - 144261" locus_tag="AFUB_034450" id="clusterblast-1_all_40_2_4" points="255,135 260,130 262,130 262,140 260,140 255,135 " class="clusterblast-orf"  />
<polygon style="stroke:black; stroke-width:1; fill:rgb(190,63,63); " description="cytochrome_P450_monooxygenase_(Fum15),_putative[br]Location: 144725 - 146477&lt;br&gt;&lt;br&gt;&lt;b&gt;BlastP hit with CHAFR746836_0027310.1&lt;/b&gt;&lt;br&gt;Percentage identity: 38%&lt;br&gt;Percentage coverage: 99%&lt;br&gt;BLAST bit score: 376&lt;br&gt;E-value: 7e-122" locus_tag="AFUB_034460" id="clusterblast-1_all_40_2_5" points="266,135 271,130 278,130 278,140 271,140 266,135 " class="clusterblast-orf"  />
<polygon style="stroke:black; stroke-width:1; fill:#FFFFFF; " description="fungal_specific_transcription_factor,_putative[br]Location: 146878 - 149718" locus_tag="AFUB_034470" id="clusterblast-1_all_40_2_6" points="281,135 286,130 301,130 301,140 286,140 281,135 " class="clusterblast-orf"  />
<polygon style="stroke:black; stroke-width:1; fill:#FFFFFF; " description="conserved_hypothetical_protein[br]Location: 151084 - 152589" locus_tag="AFUB_034480" id="clusterblast-1_all_40_2_7" points="311,140 316,140 321,135 316,130 311,130 311,140 " class="clusterblast-orf"  />
<polygon style="stroke:black; stroke-width:1; fill:#FFFFFF; " description="LysR_family_regulatory_protein,_putative[br]Location: 152710 - 154257" locus_tag="AFUB_034490" id="clusterblast-1_all_40_2_8" points="322,135 327,130 333,130 333,140 327,140 322,135 " class="clusterblast-orf"  />
<polygon style="stroke:black; stroke-width:1; fill:#FFFFFF; " description="MFS_transporter,_putative[br]Location: 154865 - 156666" locus_tag="AFUB_034500" id="clusterblast-1_all_40_2_9" points="337,140 345,140 350,135 345,130 337,130 337,140 " class="clusterblast-orf"  />
<polygon style="stroke:black; stroke-width:1; fill:#FFFFFF; " description="toxin_biosynthesis_proten_(Fum3),_putative[br]Location: 156741 - 157832" locus_tag="AFUB_034510" id="clusterblast-1_all_40_2_10" points="351,135 356,130 359,130 359,140 356,140 351,135 " class="clusterblast-orf"  />
<polygon style="stroke:black; stroke-width:1; fill:#FFFFFF; " description="polyketide_synthase,_putative[br]Location: 158409 - 166143" locus_tag="AFUB_034520" id="clusterblast-1_all_40_2_11" points="363,135 368,130 418,130 418,140 368,140 363,135 " class="clusterblast-orf"  />
<polygon style="stroke:black; stroke-width:1; fill:#FFFFFF; " description="aminotransferase,_putative[br]Location: 166463 - 167998" locus_tag="AFUB_034530" id="clusterblast-1_all_40_2_12" points="420,140 426,140 431,135 426,130 420,130 420,140 " class="clusterblast-orf"  />
<polygon style="stroke:black; stroke-width:1; fill:#FFFFFF; " description="lysophospholipase_Plb3[br]Location: 168256 - 170148" locus_tag="AFUB_034540" id="clusterblast-1_all_40_2_13" points="433,135 438,130 446,130 446,140 438,140 433,135 " class="clusterblast-orf"  />
<polygon style="stroke:black; stroke-width:1; fill:rgb(63,63,190); " description="MFS_transporter,_putative[br]Location: 170560 - 172160&lt;br&gt;&lt;br&gt;&lt;b&gt;BlastP hit with CHAFR746836_0027320.1&lt;/b&gt;&lt;br&gt;Percentage identity: 32%&lt;br&gt;Percentage coverage: 56%&lt;br&gt;BLAST bit score: 112&lt;br&gt;E-value: 1e-25" locus_tag="AFUB_034550" id="clusterblast-1_all_40_2_14" points="449,135 454,130 460,130 460,140 454,140 449,135 " class="clusterblast-orf"  />
<polygon style="stroke:black; stroke-width:1; fill:#FFFFFF; " description="hypothetical_protein[br]Location: 173226 - 173691" locus_tag="AFUB_034560" id="clusterblast-1_all_40_2_15" points="468,135 471,130 471,140 468,135 " class="clusterblast-orf"  />
<polygon style="stroke:black; stroke-width:1; fill:#FFFFFF; " description="conserved_hypothetical_protein[br]Location: 177584 - 177858" locus_tag="AFUB_034570" id="clusterblast-1_all_40_2_16" points="499,140 501,135 499,130 499,140 " class="clusterblast-orf"  />
<polygon style="stroke:black; stroke-width:1; fill:#FFFFFF; " description="LipA_and_NB-ARC_domain_protein[br]Location: 177998 - 180076" locus_tag="AFUB_034580" id="clusterblast-1_all_40_2_17" points="502,135 507,130 516,130 516,140 507,140 502,135 " class="clusterblast-orf"  />
<polygon style="stroke:black; stroke-width:1; fill:#FFFFFF; " description="C4-dicarboxylate_transporter/malic_acid[br]Location: 180788 - 182016" locus_tag="AFUB_034590" id="clusterblast-1_all_40_2_18" points="521,135 526,130 530,130 530,140 526,140 521,135 " class="clusterblast-orf"  />
<polygon style="stroke:black; stroke-width:1; fill:#FFFFFF; " description="extracellular_dioxygenase,_putative[br]Location: 182574 - 183677" locus_tag="AFUB_034600" id="clusterblast-1_all_40_2_19" points="534,135 539,130 542,130 542,140 539,140 534,135 " class="clusterblast-orf"  />
<polygon style="stroke:black; stroke-width:1; fill:#FFFFFF; " description="extracellular_endo-1,5-alpha-L-arabinase,[br]Location: 185736 - 186968" locus_tag="AFUB_034610" id="clusterblast-1_all_40_2_20" points="557,135 562,130 565,130 565,140 562,140 557,135 " class="clusterblast-orf"  />
</g>
<g class="clusterblast-cluster" description="Trichoderma atroviride IMI 206040 TRIATcontig 23, whole ..." label="ABDG02000023.1_c2"  >
<text class="clusterblast-acc" y="160" x="5"  >
ABDG02000023.1_c2</text>
<text class="clusterblast-desc" y="160" x="460.8"  >
Trichoderma atroviride IMI 206040 TRIATcontig 23, whole ...</text>
<line y1="185" x2="778.0" style="stroke:grey; stroke-width:1; " x1="10" y2="185"  />
<polygon style="stroke:black; stroke-width:1; fill:rgb(63,63,190); " description="hypothetical_protein[br]Location: 836067 - 837512&lt;br&gt;&lt;br&gt;&lt;b&gt;BlastP hit with CHAFR746836_0027320.1&lt;/b&gt;&lt;br&gt;Percentage identity: 37%&lt;br&gt;Percentage coverage: 95%&lt;br&gt;BLAST bit score: 311&lt;br&gt;E-value: 6e-99" locus_tag="TRIATDRAFT_152486" id="clusterblast-1_all_40_3_0" points="84,190 89,190 94,185 89,180 84,180 84,190 " class="clusterblast-orf"  />
<polygon style="stroke:black; stroke-width:1; fill:#FFFFFF; " description="Hypothetical_protein[br]Location: 838352 - 839443" locus_tag="TRIATDRAFT_88806" id="clusterblast-1_all_40_3_1" points="100,190 102,190 107,185 102,180 100,180 100,190 " class="clusterblast-orf"  />
<polygon style="stroke:black; stroke-width:1; fill:#FFFFFF; " description="hypothetical_protein[br]Location: 839722 - 840578" locus_tag="TRIATDRAFT_317933" id="clusterblast-1_all_40_3_2" points="109,185 114,180 116,180 116,190 114,190 109,185 " class="clusterblast-orf"  />
<polygon style="stroke:black; stroke-width:1; fill:#FFFFFF; " description="hypothetical_protein[br]Location: 840758 - 841067" locus_tag="TRIATDRAFT_283421" id="clusterblast-1_all_40_3_3" points="117,185 119,180 119,190 117,185 " class="clusterblast-orf"  />
<polygon style="stroke:black; stroke-width:1; fill:rgb(190,190,190); " description="putative_hydrolase[br]Location: 841432 - 842458&lt;br&gt;&lt;br&gt;&lt;b&gt;BlastP hit with CHAFR746836_0027460.1&lt;/b&gt;&lt;br&gt;Percentage identity: 40%&lt;br&gt;Percentage coverage: 24%&lt;br&gt;BLAST bit score: 60&lt;br&gt;E-value: 5e-09" locus_tag="TRIATDRAFT_41079" id="clusterblast-1_all_40_3_4" points="122,185 127,180 129,180 129,190 127,190 122,185 " class="clusterblast-orf"  />
<polygon style="stroke:black; stroke-width:1; fill:#FFFFFF; " description="hypothetical_protein[br]Location: 844123 - 845726" locus_tag="TRIATDRAFT_40955" id="clusterblast-1_all_40_3_5" points="141,190 147,190 152,185 147,180 141,180 141,190 " class="clusterblast-orf"  />
<polygon style="stroke:black; stroke-width:1; fill:#FFFFFF; " description="hypothetical_protein[br]Location: 846178 - 846747" locus_tag="TRIATDRAFT_307825" id="clusterblast-1_all_40_3_6" points="155,185 159,180 159,190 155,185 " class="clusterblast-orf"  />
<polygon style="stroke:black; stroke-width:1; fill:#FFFFFF; " description="hypothetical_protein[br]Location: 847856 - 849568" locus_tag="TRIATDRAFT_299404" id="clusterblast-1_all_40_3_7" points="167,185 172,180 179,180 179,190 172,190 167,185 " class="clusterblast-orf"  />
<polygon style="stroke:black; stroke-width:1; fill:#FFFFFF; " description="Ca2+_transporter[br]Location: 852556 - 853846" locus_tag="TRIATDRAFT_88800" id="clusterblast-1_all_40_3_8" points="201,185 206,180 210,180 210,190 206,190 201,185 " class="clusterblast-orf"  />
<polygon style="stroke:black; stroke-width:1; fill:#FFFFFF; " description="hypothetical_protein[br]Location: 854648 - 856598" locus_tag="TRIATDRAFT_241541" id="clusterblast-1_all_40_3_9" points="215,190 224,190 229,185 224,180 215,180 215,190 " class="clusterblast-orf"  />
<polygon style="stroke:black; stroke-width:1; fill:#FFFFFF; " description="non-ribosomal_peptide_synthetase[br]Location: 857001 - 923302" locus_tag="TRIATDRAFT_317938" id="clusterblast-1_all_40_3_10" points="232,185 237,180 703,180 703,190 237,190 232,185 " class="clusterblast-orf"  />
</g>
<g class="clusterblast-cluster" description="Trichoderma virens Gv29-8 TRIVIscaffold 85, whole genome..." label="ABDF02000085.1_c3"  >
<text class="clusterblast-acc" y="210" x="5"  >
ABDF02000085.1_c3</text>
<text class="clusterblast-desc" y="210" x="460.8"  >
Trichoderma virens Gv29-8 TRIVIscaffold 85, whole genome...</text>
<line y1="235" x2="778.0" style="stroke:grey; stroke-width:1; " x1="10" y2="235"  />
<polygon style="stroke:black; stroke-width:1; fill:rgb(63,63,190); " description="hypothetical_protein[br]Location: 811698 - 813234&lt;br&gt;&lt;br&gt;&lt;b&gt;BlastP hit with CHAFR746836_0027320.1&lt;/b&gt;&lt;br&gt;Percentage identity: 33%&lt;br&gt;Percentage coverage: 100%&lt;br&gt;BLAST bit score: 294&lt;br&gt;E-value: 9e-92" locus_tag="TRIVIDRAFT_43674" id="clusterblast-1_all_40_4_0" points="95,240 100,240 105,235 100,230 95,230 95,240 " class="clusterblast-orf"  />
<polygon style="stroke:black; stroke-width:1; fill:rgb(190,190,190); " description="hypothetical_protein[br]Location: 813973 - 814969&lt;br&gt;&lt;br&gt;&lt;b&gt;BlastP hit with CHAFR746836_0027460.1&lt;/b&gt;&lt;br&gt;Percentage identity: 41%&lt;br&gt;Percentage coverage: 26%&lt;br&gt;BLAST bit score: 55&lt;br&gt;E-value: 1e-07" locus_tag="TRIVIDRAFT_43515" id="clusterblast-1_all_40_4_1" points="111,240 113,240 118,235 113,230 111,230 111,240 " class="clusterblast-orf"  />
<polygon style="stroke:black; stroke-width:1; fill:#FFFFFF; " description="hypothetical_protein[br]Location: 815356 - 816733" locus_tag="TRIVIDRAFT_44263" id="clusterblast-1_all_40_4_2" points="120,240 125,240 130,235 125,230 120,230 120,240 " class="clusterblast-orf"  />
<polygon style="stroke:black; stroke-width:1; fill:#FFFFFF; " description="hypothetical_protein[br]Location: 817922 - 819024" locus_tag="TRIVIDRAFT_43965" id="clusterblast-1_all_40_4_3" points="139,235 144,230 146,230 146,240 144,240 139,235 " class="clusterblast-orf"  />
<polygon style="stroke:black; stroke-width:1; fill:#FFFFFF; " description="hypothetical_protein[br]Location: 820170 - 821799" locus_tag="TRIVIDRAFT_204313" id="clusterblast-1_all_40_4_4" points="155,240 161,240 166,235 161,230 155,230 155,240 " class="clusterblast-orf"  />
<polygon style="stroke:black; stroke-width:1; fill:#FFFFFF; " description="hypothetical_protein[br]Location: 822302 - 822881" locus_tag="TRIVIDRAFT_43552" id="clusterblast-1_all_40_4_5" points="170,235 174,230 174,240 170,235 " class="clusterblast-orf"  />
<polygon style="stroke:black; stroke-width:1; fill:#FFFFFF; " description="hypothetical_protein[br]Location: 823923 - 825631" locus_tag="TRIVIDRAFT_76316" id="clusterblast-1_all_40_4_6" points="181,235 186,230 193,230 193,240 186,240 181,235 " class="clusterblast-orf"  />
<polygon style="stroke:black; stroke-width:1; fill:#FFFFFF; " description="Ca2+_transporter[br]Location: 828728 - 830102" locus_tag="TRIVIDRAFT_43618" id="clusterblast-1_all_40_4_7" points="215,235 220,230 225,230 225,240 220,240 215,235 " class="clusterblast-orf"  />
<polygon style="stroke:black; stroke-width:1; fill:#FFFFFF; " description="hypothetical_protein[br]Location: 831111 - 832760" locus_tag="TRIVIDRAFT_43748" id="clusterblast-1_all_40_4_8" points="232,240 239,240 244,235 239,230 232,230 232,240 " class="clusterblast-orf"  />
<polygon style="stroke:black; stroke-width:1; fill:#FFFFFF; " description="Non-robosomal_peptide_synthetase[br]Location: 833098 - 895907" locus_tag="TRIVIDRAFT_66940" id="clusterblast-1_all_40_4_9" points="246,235 251,230 692,230 692,240 251,240 246,235 " class="clusterblast-orf"  />
</g>
<g class="clusterblast-cluster" description="Aspergillus niger contig An04c0370, genomic contig." label="AM270097.1_c1"  >
<text class="clusterblast-acc" y="260" x="5"  >
AM270097.1_c1</text>
<text class="clusterblast-desc" y="260" x="460.8"  >
Aspergillus niger contig An04c0370, genomic contig.</text>
<line y1="285" x2="778.0" style="stroke:grey; stroke-width:1; " x1="10" y2="285"  />
<polygon style="stroke:black; stroke-width:1; fill:#FFFFFF; " description="[br]Location: 32838 - 34607" locus_tag="An04g09900" id="clusterblast-1_all_40_5_0" points="555,285 560,280 567,280 567,290 560,290 555,285 " class="clusterblast-orf"  />
<polygon style="stroke:black; stroke-width:1; fill:#FFFFFF; " description="[br]Location: 35015 - 36293" locus_tag="An04g09910" id="clusterblast-1_all_40_5_1" points="544,290 548,290 553,285 548,280 544,280 544,290 " class="clusterblast-orf"  />
<polygon style="stroke:black; stroke-width:1; fill:#FFFFFF; " description="unnamed[br]Location: 36989 - 38220" locus_tag="An04g09920" id="clusterblast-1_all_40_5_2" points="530,285 535,280 539,280 539,290 535,290 530,285 " class="clusterblast-orf"  />
<polygon style="stroke:black; stroke-width:1; fill:#FFFFFF; " description="hypothetical_protein[br]Location: 39209 - 40618" locus_tag="An04g09930" id="clusterblast-1_all_40_5_3" points="513,290 518,290 523,285 518,280 513,280 513,290 " class="clusterblast-orf"  />
<polygon style="stroke:black; stroke-width:1; fill:#FFFFFF; " description="unnamed[br]Location: 40823 - 41497" locus_tag="An04g09940" id="clusterblast-1_all_40_5_4" points="507,285 511,280 511,290 507,285 " class="clusterblast-orf"  />
<polygon style="stroke:black; stroke-width:1; fill:#FFFFFF; " description="hypothetical_protein[br]Location: 41739 - 42839" locus_tag="An04g09950" id="clusterblast-1_all_40_5_5" points="497,285 502,280 505,280 505,290 502,290 497,285 " class="clusterblast-orf"  />
<polygon style="stroke:black; stroke-width:1; fill:#FFFFFF; " description="[br]Location: 43018 - 45125" locus_tag="An04g09960" id="clusterblast-1_all_40_5_6" points="481,285 486,280 496,280 496,290 486,290 481,285 " class="clusterblast-orf"  />
<polygon style="stroke:black; stroke-width:1; fill:#FFFFFF; " description="hypothetical_protein[br]Location: 45281 - 45681" locus_tag="An04g09970" id="clusterblast-1_all_40_5_7" points="477,290 480,285 477,280 477,290 " class="clusterblast-orf"  />
<polygon style="stroke:black; stroke-width:1; fill:#FFFFFF; " description="[br]Location: 45806 - 46423" locus_tag="An04g09980" id="clusterblast-1_all_40_5_8" points="472,285 476,280 476,290 472,285 " class="clusterblast-orf"  />
<polygon style="stroke:black; stroke-width:1; fill:#FFFFFF; " description="unnamed[br]Location: 46653 - 47589" locus_tag="An04g09990" id="clusterblast-1_all_40_5_9" points="463,290 465,290 470,285 465,280 463,280 463,290 " class="clusterblast-orf"  />
<polygon style="stroke:black; stroke-width:1; fill:rgb(63,190,190); " description="[br]Location: 48162 - 49942&lt;br&gt;&lt;br&gt;&lt;b&gt;BlastP hit with CHAFR746836_0027470.1&lt;/b&gt;&lt;br&gt;Percentage identity: 31%&lt;br&gt;Percentage coverage: 35%&lt;br&gt;BLAST bit score: 107&lt;br&gt;E-value: 2e-23" locus_tag="An04g10000" id="clusterblast-1_all_40_5_10" points="447,290 454,290 459,285 454,280 447,280 447,290 " class="clusterblast-orf"  />
<polygon style="stroke:black; stroke-width:1; fill:#FFFFFF; " description="unnamed[br]Location: 50624 - 51902" locus_tag="An04g10010" id="clusterblast-1_all_40_5_11" points="433,285 438,280 442,280 442,290 438,290 433,285 " class="clusterblast-orf"  />
<polygon style="stroke:black; stroke-width:1; fill:#FFFFFF; " description="[br]Location: 52755 - 53759" locus_tag="An04g10020" id="clusterblast-1_all_40_5_12" points="420,290 422,290 427,285 422,280 420,280 420,290 " class="clusterblast-orf"  />
<polygon style="stroke:black; stroke-width:1; fill:#FFFFFF; " description="[br]Location: 54438 - 62930" locus_tag="An04g10030" id="clusterblast-1_all_40_5_13" points="354,285 359,280 415,280 415,290 359,290 354,285 " class="clusterblast-orf"  />
<polygon style="stroke:black; stroke-width:1; fill:#FFFFFF; " description="unnamed[br]Location: 63704 - 65037" locus_tag="An04g10040" id="clusterblast-1_all_40_5_14" points="340,285 345,280 349,280 349,290 345,290 340,285 " class="clusterblast-orf"  />
<polygon style="stroke:black; stroke-width:1; fill:#FFFFFF; " description="[br]Location: 65646 - 69071" locus_tag="An04g10050" id="clusterblast-1_all_40_5_15" points="311,290 330,290 335,285 330,280 311,280 311,290 " class="clusterblast-orf"  />
<polygon style="stroke:black; stroke-width:1; fill:#FFFFFF; " description="[br]Location: 69397 - 71443" locus_tag="An04g10060" id="clusterblast-1_all_40_5_16" points="294,285 299,280 309,280 309,290 299,290 294,285 " class="clusterblast-orf"  />
<polygon style="stroke:black; stroke-width:1; fill:#FFFFFF; " description="[br]Location: 72112 - 73418" locus_tag="An04g10070" id="clusterblast-1_all_40_5_17" points="280,290 284,290 289,285 284,280 280,280 280,290 " class="clusterblast-orf"  />
<polygon style="stroke:black; stroke-width:1; fill:#FFFFFF; " description="[br]Location: 74347 - 75689" locus_tag="An04g10080" id="clusterblast-1_all_40_5_18" points="264,290 268,290 273,285 268,280 264,280 264,290 " class="clusterblast-orf"  />
<polygon style="stroke:black; stroke-width:1; fill:rgb(190,190,63); " description="[br]Location: 76901 - 78570&lt;br&gt;&lt;br&gt;&lt;b&gt;BlastP hit with CHAFR746836_0027440.1&lt;/b&gt;&lt;br&gt;Percentage identity: 31%&lt;br&gt;Percentage coverage: 89%&lt;br&gt;BLAST bit score: 231&lt;br&gt;E-value: 7e-67" locus_tag="An04g10090" id="clusterblast-1_all_40_5_19" points="244,285 249,280 255,280 255,290 249,290 244,285 " class="clusterblast-orf"  />
<polygon style="stroke:black; stroke-width:1; fill:#FFFFFF; " description="[br]Location: 80168 - 81430" locus_tag="An04g10100" id="clusterblast-1_all_40_5_20" points="223,290 227,290 232,285 227,280 223,280 223,290 " class="clusterblast-orf"  />
</g>
<g class="clusterblast-cluster" description="Streptomyces hygroscopicus subsp. jinggangensis 5008 chrom..." label="NC_017765.1_c13"  >
<text class="clusterblast-acc" y="310" x="5"  >
NC_017765.1_c13</text>
<text class="clusterblast-desc" y="310" x="460.8"  >
Streptomyces hygroscopicus subsp. jinggangensis 5008 chrom...</text>
<line y1="335" x2="778.0" style="stroke:grey; stroke-width:1; " x1="10" y2="335"  />
<polygon style="stroke:black; stroke-width:1; fill:#FFFFFF; " description="alpha-ketoglutarate-dependent_taurine[br]Location: 2209700 - 2210581" locus_tag="SHJG_1827" id="clusterblast-1_all_40_6_0" points="572,340 573,340 578,335 573,330 572,330 572,340 " class="clusterblast-orf"  />
<polygon style="stroke:black; stroke-width:1; fill:#FFFFFF; " description="putative_ABC-type_nitrate/sulfonate/bicarbonate[br]Location: 2210614 - 2211369" locus_tag="SHJG_1828" id="clusterblast-1_all_40_6_1" points="567,340 567,340 572,335 567,330 567,330 567,340 " class="clusterblast-orf"  />
<polygon style="stroke:black; stroke-width:1; fill:#FFFFFF; " description="putative_ABC-type_taurine_transport[br]Location: 2211425 - 2212405" locus_tag="SHJG_1829" id="clusterblast-1_all_40_6_2" points="560,340 562,340 567,335 562,330 560,330 560,340 " class="clusterblast-orf"  />
<polygon style="stroke:black; stroke-width:1; fill:#FFFFFF; " description="putative_ABC-type_nitrate/sulfonate/bicarbonate[br]Location: 2212592 - 2213368" locus_tag="SHJG_1830" id="clusterblast-1_all_40_6_3" points="553,340 553,340 558,335 553,330 553,330 553,340 " class="clusterblast-orf"  />
<polygon style="stroke:black; stroke-width:1; fill:#FFFFFF; " description="Sir2-family_regulator_protein[br]Location: 2214185 - 2215084" locus_tag="SHJG_1831" id="clusterblast-1_all_40_6_4" points="541,335 546,330 547,330 547,340 546,340 541,335 " class="clusterblast-orf"  />
<polygon style="stroke:black; stroke-width:1; fill:#FFFFFF; " description="hypothetical_protein[br]Location: 2216038 - 2216529" locus_tag="SHJG_1832" id="clusterblast-1_all_40_6_5" points="530,335 534,330 534,340 530,335 " class="clusterblast-orf"  />
<polygon style="stroke:black; stroke-width:1; fill:#FFFFFF; " description="hypothetical_protein[br]Location: 2216663 - 2217247" locus_tag="SHJG_1833" id="clusterblast-1_all_40_6_6" points="525,335 529,330 529,340 525,335 " class="clusterblast-orf"  />
<polygon style="stroke:black; stroke-width:1; fill:#FFFFFF; " description="hypothetical_protein[br]Location: 2217306 - 2217899" locus_tag="SHJG_1834" id="clusterblast-1_all_40_6_7" points="521,340 525,335 521,330 521,340 " class="clusterblast-orf"  />
<polygon style="stroke:black; stroke-width:1; fill:#FFFFFF; " description="hypothetical_protein[br]Location: 2218096 - 2218863" locus_tag="SHJG_1835" id="clusterblast-1_all_40_6_8" points="514,335 519,330 519,330 519,340 519,340 514,335 " class="clusterblast-orf"  />
<polygon style="stroke:black; stroke-width:1; fill:#FFFFFF; " description="hypothetical_protein[br]Location: 2219092 - 2219340" locus_tag="SHJG_1836" id="clusterblast-1_all_40_6_9" points="510,335 512,330 512,340 510,335 " class="clusterblast-orf"  />
<polygon style="stroke:black; stroke-width:1; fill:#FFFFFF; " description="hypothetical_protein[br]Location: 2219465 - 2220205" locus_tag="SHJG_1837" id="clusterblast-1_all_40_6_10" points="504,340 504,340 509,335 504,330 504,330 504,340 " class="clusterblast-orf"  />
<polygon style="stroke:black; stroke-width:1; fill:rgb(63,63,63); " description="cyanamide_hydratase[br]Location: 2220712 - 2221263&lt;br&gt;&lt;br&gt;&lt;b&gt;BlastP hit with CHAFR746836_0027490.1&lt;/b&gt;&lt;br&gt;Percentage identity: 31%&lt;br&gt;Percentage coverage: 85%&lt;br&gt;BLAST bit score: 80&lt;br&gt;E-value: 2e-17" locus_tag="SHJG_1838" id="clusterblast-1_all_40_6_11" points="497,340 501,335 497,330 497,340 " class="clusterblast-orf"  />
<polygon style="stroke:black; stroke-width:1; fill:#FFFFFF; " description="AraC_family_transcriptional_regulator[br]Location: 2221486 - 2222460" locus_tag="SHJG_1839" id="clusterblast-1_all_40_6_12" points="488,335 493,330 495,330 495,340 493,340 488,335 " class="clusterblast-orf"  />
<polygon style="stroke:black; stroke-width:1; fill:#FFFFFF; " description="putative_flavodoxin[br]Location: 2222667 - 2223281" locus_tag="SHJG_1840" id="clusterblast-1_all_40_6_13" points="482,335 487,330 487,330 487,340 487,340 482,335 " class="clusterblast-orf"  />
<polygon style="stroke:black; stroke-width:1; fill:#FFFFFF; " description="putative_methyltransferase[br]Location: 2223451 - 2224176" locus_tag="SHJG_1841" id="clusterblast-1_all_40_6_14" points="476,335 481,330 481,330 481,340 481,340 476,335 " class="clusterblast-orf"  />
<polygon style="stroke:black; stroke-width:1; fill:#FFFFFF; " description="hypothetical_protein[br]Location: 2224215 - 2224343" locus_tag="SHJG_1842" id="clusterblast-1_all_40_6_15" points="475,335 476,330 476,340 475,335 " class="clusterblast-orf"  />
<polygon style="stroke:black; stroke-width:1; fill:#FFFFFF; " description="putative_glycine/serine[br]Location: 2224304 - 2225656" locus_tag="SHJG_1843" id="clusterblast-1_all_40_6_16" points="466,340 470,340 475,335 470,330 466,330 466,340 " class="clusterblast-orf"  />
<polygon style="stroke:black; stroke-width:1; fill:#FFFFFF; " description="NRPS_protein[br]Location: 2225659 - 2227272" locus_tag="SHJG_1844" id="clusterblast-1_all_40_6_17" points="454,340 460,340 465,335 460,330 454,330 454,340 " class="clusterblast-orf"  />
<polygon style="stroke:black; stroke-width:1; fill:#FFFFFF; " description="hypothetical_protein[br]Location: 2227377 - 2228654" locus_tag="SHJG_1845" id="clusterblast-1_all_40_6_18" points="444,340 448,340 453,335 448,330 444,330 444,340 " class="clusterblast-orf"  />
<polygon style="stroke:black; stroke-width:1; fill:#FFFFFF; " description="hypothetical_protein[br]Location: 2228651 - 2229421" locus_tag="SHJG_1846" id="clusterblast-1_all_40_6_19" points="439,340 439,340 444,335 439,330 439,330 439,340 " class="clusterblast-orf"  />
<polygon style="stroke:black; stroke-width:1; fill:#FFFFFF; " description="MbtH_domain-containing_protein[br]Location: 2229418 - 2229597" locus_tag="SHJG_1847" id="clusterblast-1_all_40_6_20" points="438,340 439,335 438,330 438,340 " class="clusterblast-orf"  />
<polygon style="stroke:black; stroke-width:1; fill:#FFFFFF; " description="NRPS_protein[br]Location: 2229594 - 2233517" locus_tag="SHJG_1848" id="clusterblast-1_all_40_6_21" points="410,340 433,340 438,335 433,330 410,330 410,340 " class="clusterblast-orf"  />
<polygon style="stroke:black; stroke-width:1; fill:#FFFFFF; " description="putative_polyketide_synthase[br]Location: 2233550 - 2237563" locus_tag="SHJG_1849" id="clusterblast-1_all_40_6_22" points="381,340 404,340 409,335 404,330 381,330 381,340 " class="clusterblast-orf"  />
<polygon style="stroke:black; stroke-width:1; fill:#FFFFFF; " description="hypothetical_protein[br]Location: 2237572 - 2239401" locus_tag="SHJG_1850" id="clusterblast-1_all_40_6_23" points="368,340 376,340 381,335 376,330 368,330 368,340 " class="clusterblast-orf"  />
<polygon style="stroke:black; stroke-width:1; fill:#FFFFFF; " description="hypothetical_protein[br]Location: 2240177 - 2240662" locus_tag="SHJG_1851" id="clusterblast-1_all_40_6_24" points="359,335 362,330 362,340 359,335 " class="clusterblast-orf"  />
<polygon style="stroke:black; stroke-width:1; fill:#FFFFFF; " description="NRPS_protein[br]Location: 2241326 - 2242627" locus_tag="SHJG_1852" id="clusterblast-1_all_40_6_25" points="345,335 350,330 354,330 354,340 350,340 345,335 " class="clusterblast-orf"  />
<polygon style="stroke:black; stroke-width:1; fill:#FFFFFF; " description="cytochrome_P450_monooxygenase[br]Location: 2242658 - 2243965" locus_tag="SHJG_1853" id="clusterblast-1_all_40_6_26" points="336,335 341,330 345,330 345,340 341,340 336,335 " class="clusterblast-orf"  />
<polygon style="stroke:black; stroke-width:1; fill:#FFFFFF; " description="thioesterase[br]Location: 2244003 - 2244770" locus_tag="SHJG_1854" id="clusterblast-1_all_40_6_27" points="330,335 335,330 335,330 335,340 335,340 330,335 " class="clusterblast-orf"  />
<polygon style="stroke:black; stroke-width:1; fill:#FFFFFF; " description="major_facilitator_subfamily_permease[br]Location: 2244882 - 2246096" locus_tag="SHJG_1855" id="clusterblast-1_all_40_6_28" points="320,335 325,330 329,330 329,340 325,340 320,335 " class="clusterblast-orf"  />
<polygon style="stroke:black; stroke-width:1; fill:rgb(63,190,63); " description="putative_aminopeptidase[br]Location: 2246236 - 2247588&lt;br&gt;&lt;br&gt;&lt;b&gt;BlastP hit with CHAFR746836_0027380.1&lt;/b&gt;&lt;br&gt;Percentage identity: 33%&lt;br&gt;Percentage coverage: 81%&lt;br&gt;BLAST bit score: 196&lt;br&gt;E-value: 7e-55" locus_tag="SHJG_1856" id="clusterblast-1_all_40_6_29" points="310,340 314,340 319,335 314,330 310,330 310,340 " class="clusterblast-orf"  />
<polygon style="stroke:black; stroke-width:1; fill:#FFFFFF; " description="putative_amino_acid_binding_protein[br]Location: 2248046 - 2249218" locus_tag="SHJG_1857" id="clusterblast-1_all_40_6_30" points="298,340 302,340 307,335 302,330 298,330 298,340 " class="clusterblast-orf"  />
<polygon style="stroke:black; stroke-width:1; fill:#FFFFFF; " description="AraC_family_transcriptional_regulator[br]Location: 2249325 - 2250311" locus_tag="SHJG_1858" id="clusterblast-1_all_40_6_31" points="291,340 293,340 298,335 293,330 291,330 291,340 " class="clusterblast-orf"  />
<polygon style="stroke:black; stroke-width:1; fill:#FFFFFF; " description="hypothetical_protein[br]Location: 2250586 - 2251143" locus_tag="SHJG_1859" id="clusterblast-1_all_40_6_32" points="285,335 289,330 289,340 285,335 " class="clusterblast-orf"  />
<polygon style="stroke:black; stroke-width:1; fill:#FFFFFF; " description="oxidoreductase[br]Location: 2251146 - 2251868" locus_tag="SHJG_1860" id="clusterblast-1_all_40_6_33" points="279,335 284,330 285,330 285,340 284,340 279,335 " class="clusterblast-orf"  />
<polygon style="stroke:black; stroke-width:1; fill:#FFFFFF; " description="hypothetical_protein[br]Location: 2251897 - 2252169" locus_tag="SHJG_1861" id="clusterblast-1_all_40_6_34" points="277,335 279,330 279,340 277,335 " class="clusterblast-orf"  />
<polygon style="stroke:black; stroke-width:1; fill:#FFFFFF; " description="hypothetical_protein[br]Location: 2252363 - 2252569" locus_tag="SHJG_1863" id="clusterblast-1_all_40_6_35" points="275,340 276,335 275,330 275,340 " class="clusterblast-orf"  />
<polygon style="stroke:black; stroke-width:1; fill:#FFFFFF; " description="putative_secreted_peptidase[br]Location: 2252543 - 2256163" locus_tag="SHJG_1862" id="clusterblast-1_all_40_6_36" points="249,335 254,330 275,330 275,340 254,340 249,335 " class="clusterblast-orf"  />
<polygon style="stroke:black; stroke-width:1; fill:#FFFFFF; " description="transcriptional_regulator[br]Location: 2256352 - 2257356" locus_tag="SHJG_1864" id="clusterblast-1_all_40_6_37" points="241,340 243,340 248,335 243,330 241,330 241,340 " class="clusterblast-orf"  />
<polygon style="stroke:black; stroke-width:1; fill:#FFFFFF; " description="hypothetical_protein[br]Location: 2257401 - 2257904" locus_tag="SHJG_1865" id="clusterblast-1_all_40_6_38" points="237,335 240,330 240,340 237,335 " class="clusterblast-orf"  />
<polygon style="stroke:black; stroke-width:1; fill:#FFFFFF; " description="hypothetical_protein[br]Location: 2258135 - 2258728" locus_tag="SHJG_1866" id="clusterblast-1_all_40_6_39" points="231,335 235,330 235,340 231,335 " class="clusterblast-orf"  />
<polygon style="stroke:black; stroke-width:1; fill:#FFFFFF; " description="hypothetical_protein[br]Location: 2259135 - 2259287" locus_tag="SHJG_1868" id="clusterblast-1_all_40_6_40" points="227,340 228,335 227,330 227,340 " class="clusterblast-orf"  />
<polygon style="stroke:black; stroke-width:1; fill:#FFFFFF; " description="putative_metabolite_transport_protein[br]Location: 2259252 - 2260517" locus_tag="SHJG_1867" id="clusterblast-1_all_40_6_41" points="218,335 223,330 227,330 227,340 223,340 218,335 " class="clusterblast-orf"  />
<polygon style="stroke:black; stroke-width:1; fill:#FFFFFF; " description="glycosyl_hydrolase[br]Location: 2260917 - 2265005" locus_tag="SHJG_1869" id="clusterblast-1_all_40_6_42" points="186,335 191,330 215,330 215,340 191,340 186,335 " class="clusterblast-orf"  />
</g>
<g class="clusterblast-cluster" description="Metarhizium anisopliae ARSEF 23 unplaced genomic scaffold Sc..." label="GL698714.1_c2"  >
<text class="clusterblast-acc" y="360" x="5"  >
GL698714.1_c2</text>
<text class="clusterblast-desc" y="360" x="460.8"  >
Metarhizium anisopliae ARSEF 23 unplaced genomic scaffold Sc...</text>
<line y1="385" x2="778.0" style="stroke:grey; stroke-width:1; " x1="10" y2="385"  />
<polygon style="stroke:black; stroke-width:1; fill:#FFFFFF; " description="hypothetical_protein[br]Location: 215909 - 216196" locus_tag="MAA_03312" id="clusterblast-1_all_40_7_0" points="241,385 243,380 243,390 241,385 " class="clusterblast-orf"  />
<polygon style="stroke:black; stroke-width:1; fill:#FFFFFF; " description="MYND_domain_protein,_putative[br]Location: 227418 - 228392" locus_tag="MAA_03313" id="clusterblast-1_all_40_7_1" points="322,385 327,380 329,380 329,390 327,390 322,385 " class="clusterblast-orf"  />
<polygon style="stroke:black; stroke-width:1; fill:rgb(190,190,190); " description="hydrolase,_putative[br]Location: 228849 - 229745&lt;br&gt;&lt;br&gt;&lt;b&gt;BlastP hit with CHAFR746836_0027460.1&lt;/b&gt;&lt;br&gt;Percentage identity: 32%&lt;br&gt;Percentage coverage: 36%&lt;br&gt;BLAST bit score: 65&lt;br&gt;E-value: 1e-10" locus_tag="MAA_03314" id="clusterblast-1_all_40_7_2" points="332,385 337,380 339,380 339,390 337,390 332,385 " class="clusterblast-orf"  />
<polygon style="stroke:black; stroke-width:1; fill:#FFFFFF; " description="hypothetical_protein[br]Location: 231162 - 232376" locus_tag="MAA_03315" id="clusterblast-1_all_40_7_3" points="349,390 352,390 357,385 352,380 349,380 349,390 " class="clusterblast-orf"  />
<polygon style="stroke:black; stroke-width:1; fill:#FFFFFF; " description="sedoheptulose-1,7-bisphosphatase[br]Location: 233481 - 234491" locus_tag="MAA_03316" id="clusterblast-1_all_40_7_4" points="365,390 367,390 372,385 367,380 365,380 365,390 " class="clusterblast-orf"  />
<polygon style="stroke:black; stroke-width:1; fill:#FFFFFF; " description="NRPS-like_enzyme,_putative[br]Location: 234668 - 237990" locus_tag="MAA_03317" id="clusterblast-1_all_40_7_5" points="374,385 379,380 397,380 397,390 379,390 374,385 " class="clusterblast-orf"  />
<polygon style="stroke:black; stroke-width:1; fill:rgb(63,63,190); " description="MFS_transporter,_putative[br]Location: 240407 - 241454&lt;br&gt;&lt;br&gt;&lt;b&gt;BlastP hit with CHAFR746836_0027320.1&lt;/b&gt;&lt;br&gt;Percentage identity: 36%&lt;br&gt;Percentage coverage: 48%&lt;br&gt;BLAST bit score: 144&lt;br&gt;E-value: 6e-38" locus_tag="MAA_03318" id="clusterblast-1_all_40_7_6" points="414,385 419,380 422,380 422,390 419,390 414,385 " class="clusterblast-orf"  />
<polygon style="stroke:black; stroke-width:1; fill:#FFFFFF; " description="succinyl-CoA:3-ketoacid-coenzyme_A_transferase[br]Location: 242225 - 244158" locus_tag="MAA_03319" id="clusterblast-1_all_40_7_7" points="427,390 436,390 441,385 436,380 427,380 427,390 " class="clusterblast-orf"  />
<polygon style="stroke:black; stroke-width:1; fill:#FFFFFF; " description="hypothetical_protein[br]Location: 244473 - 245141" locus_tag="MAA_03320" id="clusterblast-1_all_40_7_8" points="443,385 448,380 448,380 448,390 448,390 443,385 " class="clusterblast-orf"  />
<polygon style="stroke:black; stroke-width:1; fill:#FFFFFF; " description="dicarboxylate_carrier_protein[br]Location: 245770 - 246639" locus_tag="MAA_03321" id="clusterblast-1_all_40_7_9" points="452,390 454,390 459,385 454,380 452,380 452,390 " class="clusterblast-orf"  />
<polygon style="stroke:black; stroke-width:1; fill:#FFFFFF; " description="hypothetical_protein[br]Location: 247201 - 249743" locus_tag="MAA_03322" id="clusterblast-1_all_40_7_10" points="463,385 468,380 481,380 481,390 468,390 463,385 " class="clusterblast-orf"  />
<polygon style="stroke:black; stroke-width:1; fill:#FFFFFF; " description="NACHT_and_Ankyrin_domain_protein[br]Location: 254666 - 258769" locus_tag="MAA_03323" id="clusterblast-1_all_40_7_11" points="516,390 540,390 545,385 540,380 516,380 516,390 " class="clusterblast-orf"  />
</g>
</svg>
