<svg xmlns="http://www.w3.org/2000/svg" height="230" width="800" version="1.1" y="0" x="0" preserveAspectRatio="none" xmlns:xlink="http://www.w3.org/1999/xlink" viewBox="0 0 800 230"  >
<g class="clusterblast-cluster" label="Query sequence"  >
<text class="clusterblast-acc" y="10" x="5"  >
Query sequence</text>
<line y1="35" x2="778.0" style="stroke:grey; stroke-width:1; " x1="10" y2="35"  />
<polygon style="stroke:black; stroke-width:1; fill:#FFFFFF; " description="unannotated orf[br]Location: 1013 - 2670" locus_tag="CHAFR746836_0031900.1" class="clusterblast-orf" points="10,35 15,30 19,30 19,40 15,40 10,35 " id="clusterblast-1_q44_10_0"  />
<polygon style="stroke:black; stroke-width:1; fill:#FFFFFF; " description="unannotated orf[br]Location: 5806 - 8080" locus_tag="CHAFR746836_0031910.1" class="clusterblast-orf" points="38,40 47,40 52,35 47,30 38,30 38,40 " id="clusterblast-1_q44_10_1"  />
<polygon style="stroke:black; stroke-width:1; fill:rgb(190,63,63); " description="unannotated orf[br]Location: 14959 - 16522" locus_tag="CHAFR746836_0031920.1" class="clusterblast-orf" points="93,35 98,30 102,30 102,40 98,40 93,35 " id="clusterblast-1_q44_10_2"  />
<polygon style="stroke:black; stroke-width:1; fill:rgb(63,63,190); " description="unannotated orf[br]Location: 18634 - 27051" locus_tag="CHAFR746836_0031930.1" class="clusterblast-orf" points="115,35 120,30 165,30 165,40 120,40 115,35 " id="clusterblast-1_q44_10_3"  />
<polygon style="stroke:black; stroke-width:1; fill:rgb(63,190,63); " description="unannotated orf[br]Location: 28690 - 31017" locus_tag="CHAFR746836_0031940.1" class="clusterblast-orf" points="174,35 179,30 188,30 188,40 179,40 174,35 " id="clusterblast-1_q44_10_4"  />
<polygon style="stroke:black; stroke-width:1; fill:rgb(190,63,190); " description="unannotated orf[br]Location: 31821 - 32686" locus_tag="CHAFR746836_0031950.1" class="clusterblast-orf" points="193,40 193,40 198,35 193,30 193,30 193,40 " id="clusterblast-1_q44_10_5"  />
<polygon style="stroke:black; stroke-width:1; fill:#FFFFFF; " description="unannotated orf[br]Location: 33127 - 34136" locus_tag="CHAFR746836_0031960.1" class="clusterblast-orf" points="201,35 206,30 207,30 207,40 206,40 201,35 " id="clusterblast-1_q44_10_6"  />
<polygon style="stroke:black; stroke-width:1; fill:#FFFFFF; " description="unannotated orf[br]Location: 34492 - 36671" locus_tag="CHAFR746836_0031970.1" class="clusterblast-orf" points="209,40 217,40 222,35 217,30 209,30 209,40 " id="clusterblast-1_q44_10_7"  />
<polygon style="stroke:black; stroke-width:1; fill:#FFFFFF; " description="unannotated orf[br]Location: 90516 - 91329" locus_tag="CHAFR746836_0031980.1" class="clusterblast-orf" points="543,40 543,40 548,35 543,30 543,30 543,40 " id="clusterblast-1_q44_10_8"  />
<polygon style="stroke:black; stroke-width:1; fill:#FFFFFF; " description="unannotated orf[br]Location: 95107 - 95607" locus_tag="CHAFR746836_0031990.1" class="clusterblast-orf" points="570,35 573,30 573,40 570,35 " id="clusterblast-1_q44_10_9"  />
<polygon style="stroke:black; stroke-width:1; fill:#FFFFFF; " description="unannotated orf[br]Location: 98154 - 98987" locus_tag="CHAFR746836_0032000.1" class="clusterblast-orf" points="589,40 593,35 589,30 589,40 " id="clusterblast-1_q44_10_10"  />
<polygon style="stroke:black; stroke-width:1; fill:#FFFFFF; " description="unannotated orf[br]Location: 110556 - 112350" locus_tag="CHAFR746836_0032010.1" class="clusterblast-orf" points="662,35 667,30 673,30 673,40 667,40 662,35 " id="clusterblast-1_q44_10_11"  />
<polygon style="stroke:black; stroke-width:1; fill:rgb(190,190,63); " description="unannotated orf[br]Location: 112800 - 115534" locus_tag="CHAFR746836_0032020.1" class="clusterblast-orf" points="676,40 687,40 692,35 687,30 676,30 676,40 " id="clusterblast-1_q44_10_12"  />
<polygon style="stroke:black; stroke-width:1; fill:rgb(190,190,190); " description="unannotated orf[br]Location: 116249 - 122294" locus_tag="CHAFR746836_0032030.1" class="clusterblast-orf" points="696,40 727,40 732,35 727,30 696,30 696,40 " id="clusterblast-1_q44_10_13"  />
<polygon style="stroke:black; stroke-width:1; fill:rgb(63,190,190); " description="unannotated orf[br]Location: 126098 - 127042" locus_tag="CHAFR746836_0032040.1" class="clusterblast-orf" points="755,35 760,30 761,30 761,40 760,40 755,35 " id="clusterblast-1_q44_10_14"  />
<polygon style="stroke:black; stroke-width:1; fill:rgb(63,63,63); " description="unannotated orf[br]Location: 128617 - 129857" locus_tag="CHAFR746836_0032050.1" class="clusterblast-orf" points="770,40 773,40 778,35 773,30 770,30 770,40 " id="clusterblast-1_q44_10_15"  />
</g>
<g class="clusterblast-cluster" description="Aspergillus niger contig An12c0070, genomic contig." label="AM270264.1_c1"  >
<text class="clusterblast-acc" y="60" x="5"  >
AM270264.1_c1</text>
<text class="clusterblast-desc" y="60" x="460.8"  >
Aspergillus niger contig An12c0070, genomic contig.</text>
<line y1="85" x2="778.0" style="stroke:grey; stroke-width:1; " x1="10" y2="85"  />
<polygon style="stroke:black; stroke-width:1; fill:#FFFFFF; " description="[br]Location: 137134 - 140664" locus_tag="An12g02750" id="clusterblast-1_h44_10_0" points="232,90 248,90 253,85 248,80 232,80 232,90 " class="clusterblast-orf"  />
<polygon style="stroke:black; stroke-width:1; fill:#FFFFFF; " description="[br]Location: 135745 - 136659" locus_tag="An12g02740" id="clusterblast-1_h44_10_1" points="255,90 256,90 261,85 256,80 255,80 255,90 " class="clusterblast-orf"  />
<polygon style="stroke:black; stroke-width:1; fill:rgb(63,63,190); " description="[br]Location: 127745 - 135210&lt;br&gt;&lt;br&gt;&lt;b&gt;BlastP hit with CHAFR746836_0031930.1&lt;/b&gt;&lt;br&gt;Percentage identity: 35%&lt;br&gt;Percentage coverage: 51%&lt;br&gt;BLAST bit score: 760&lt;br&gt;E-value: 0.0" locus_tag="An12g02730" id="clusterblast-1_h44_10_2" points="264,85 269,80 309,80 309,90 269,90 264,85 " class="clusterblast-orf"  />
<polygon style="stroke:black; stroke-width:1; fill:rgb(63,190,63); " description="[br]Location: 124506 - 125420&lt;br&gt;&lt;br&gt;&lt;b&gt;BlastP hit with CHAFR746836_0031940.1&lt;/b&gt;&lt;br&gt;Percentage identity: 31%&lt;br&gt;Percentage coverage: 22%&lt;br&gt;BLAST bit score: 52&lt;br&gt;E-value: 4e-06" locus_tag="An12g02720" id="clusterblast-1_h44_10_3" points="322,85 327,80 328,80 328,90 327,90 322,85 " class="clusterblast-orf"  />
<polygon style="stroke:black; stroke-width:1; fill:#FFFFFF; " description="[br]Location: 119657 - 122354" locus_tag="An12g02710" id="clusterblast-1_h44_10_4" points="341,90 352,90 357,85 352,80 341,80 341,90 " class="clusterblast-orf"  />
<polygon style="stroke:black; stroke-width:1; fill:#FFFFFF; " description="[br]Location: 118752 - 119580" locus_tag="An12g02700" id="clusterblast-1_h44_10_5" points="357,85 362,80 362,80 362,90 362,90 357,85 " class="clusterblast-orf"  />
<polygon style="stroke:black; stroke-width:1; fill:#FFFFFF; " description="[br]Location: 118071 - 118627" locus_tag="An12g02690" id="clusterblast-1_h44_10_6" points="363,90 366,85 363,80 363,90 " class="clusterblast-orf"  />
<polygon style="stroke:black; stroke-width:1; fill:#FFFFFF; " description="unnamed[br]Location: 116316 - 116873" locus_tag="An12g02680" id="clusterblast-1_h44_10_7" points="373,85 377,80 377,90 373,85 " class="clusterblast-orf"  />
<polygon style="stroke:black; stroke-width:1; fill:#FFFFFF; " description="[br]Location: 105465 - 114488" locus_tag="An12g02670" id="clusterblast-1_h44_10_8" points="388,90 436,90 441,85 436,80 388,80 388,90 " class="clusterblast-orf"  />
<polygon style="stroke:black; stroke-width:1; fill:#FFFFFF; " description="hypothetical_protein[br]Location: 103761 - 105218" locus_tag="An12g02660" id="clusterblast-1_h44_10_9" points="443,85 448,80 451,80 451,90 448,90 443,85 " class="clusterblast-orf"  />
<polygon style="stroke:black; stroke-width:1; fill:#FFFFFF; " description="[br]Location: 102008 - 102820" locus_tag="An12g02650" id="clusterblast-1_h44_10_10" points="457,90 457,90 462,85 457,80 457,80 457,90 " class="clusterblast-orf"  />
<polygon style="stroke:black; stroke-width:1; fill:#FFFFFF; " description="[br]Location: 100264 - 101399" locus_tag="An12g02640" id="clusterblast-1_h44_10_11" points="466,90 467,90 472,85 467,80 466,80 466,90 " class="clusterblast-orf"  />
<polygon style="stroke:black; stroke-width:1; fill:#FFFFFF; " description="unnamed[br]Location: 98852 - 99944" locus_tag="An12g02630" id="clusterblast-1_h44_10_12" points="474,85 479,80 481,80 481,90 479,90 474,85 " class="clusterblast-orf"  />
<polygon style="stroke:black; stroke-width:1; fill:#FFFFFF; " description="[br]Location: 96548 - 98287" locus_tag="An12g02620" id="clusterblast-1_h44_10_13" points="484,90 489,90 494,85 489,80 484,80 484,90 " class="clusterblast-orf"  />
<polygon style="stroke:black; stroke-width:1; fill:#FFFFFF; " description="tRNA-Asp[br]Location: 94348 - 95796" locus_tag="An12g02600" id="clusterblast-1_h44_10_14" points="499,90 503,90 508,85 503,80 499,80 499,90 " class="clusterblast-orf"  />
<polygon style="stroke:black; stroke-width:1; fill:#FFFFFF; " description="unnamed[br]Location: 93446 - 93845" locus_tag="An12g02590" id="clusterblast-1_h44_10_15" points="511,85 513,80 513,90 511,85 " class="clusterblast-orf"  />
<polygon style="stroke:black; stroke-width:1; fill:#FFFFFF; " description="hypothetical_protein[br]Location: 92144 - 92520" locus_tag="An12g02580" id="clusterblast-1_h44_10_16" points="518,85 521,80 521,90 518,85 " class="clusterblast-orf"  />
<polygon style="stroke:black; stroke-width:1; fill:#FFFFFF; " description="5S_ribosomal_RNA[br]Location: 86460 - 88802" locus_tag="An12g02560" id="clusterblast-1_h44_10_17" points="541,85 546,80 555,80 555,90 546,90 541,85 " class="clusterblast-orf"  />
</g>
</svg>
