<svg xmlns="http://www.w3.org/2000/svg" height="230" width="800" version="1.1" y="0" x="0" preserveAspectRatio="none" xmlns:xlink="http://www.w3.org/1999/xlink" viewBox="0 0 800 230"  >
<g class="clusterblast-cluster" label="Query sequence"  >
<text class="clusterblast-acc" y="10" x="5"  >
Query sequence</text>
<line y1="35" x2="778.0" style="stroke:grey; stroke-width:1; " x1="10" y2="35"  />
<polygon style="stroke:black; stroke-width:1; fill:rgb(190,63,63); " description="unannotated orf[br]Location: 25203 - 26345" locus_tag="CHAFR746836_0077540.1" class="clusterblast-orf" points="10,40 14,40 19,35 14,30 10,30 10,40 " id="clusterblast-1_q10_3_0"  />
<polygon style="stroke:black; stroke-width:1; fill:rgb(63,63,190); " description="unannotated orf[br]Location: 33656 - 34656" locus_tag="CHAFR746836_0077550.1" class="clusterblast-orf" points="80,35 85,30 88,30 88,40 85,40 80,35 " id="clusterblast-1_q10_3_1"  />
<polygon style="stroke:black; stroke-width:1; fill:#FFFFFF; " description="unannotated orf[br]Location: 40941 - 41922" locus_tag="CHAFR746836_0077560.1" class="clusterblast-orf" points="141,40 144,40 149,35 144,30 141,30 141,40 " id="clusterblast-1_q10_3_2"  />
<polygon style="stroke:black; stroke-width:1; fill:#FFFFFF; " description="unannotated orf[br]Location: 42481 - 43285" locus_tag="CHAFR746836_0077570.1" class="clusterblast-orf" points="153,35 158,30 160,30 160,40 158,40 153,35 " id="clusterblast-1_q10_3_3"  />
<polygon style="stroke:black; stroke-width:1; fill:#FFFFFF; " description="unannotated orf[br]Location: 45175 - 46813" locus_tag="CHAFR746836_0077580.1" class="clusterblast-orf" points="176,40 184,40 189,35 184,30 176,30 176,40 " id="clusterblast-1_q10_3_4"  />
<polygon style="stroke:black; stroke-width:1; fill:#FFFFFF; " description="unannotated orf[br]Location: 52915 - 54699" locus_tag="CHAFR746836_0077590.1" class="clusterblast-orf" points="240,40 250,40 255,35 250,30 240,30 240,40 " id="clusterblast-1_q10_3_5"  />
<polygon style="stroke:black; stroke-width:1; fill:rgb(63,190,63); " description="unannotated orf[br]Location: 56890 - 57476" locus_tag="CHAFR746836_0077600.1" class="clusterblast-orf" points="273,40 273,40 278,35 273,30 273,30 273,40 " id="clusterblast-1_q10_3_6"  />
<polygon style="stroke:black; stroke-width:1; fill:rgb(190,63,190); " description="unannotated orf[br]Location: 58827 - 59758" locus_tag="CHAFR746836_0077610.1" class="clusterblast-orf" points="290,40 292,40 297,35 292,30 290,30 290,40 " id="clusterblast-1_q10_3_7"  />
<polygon style="stroke:black; stroke-width:1; fill:#FFFFFF; " description="unannotated orf[br]Location: 60873 - 61266" locus_tag="CHAFR746836_0077620.1" class="clusterblast-orf" points="307,35 310,30 310,40 307,35 " id="clusterblast-1_q10_3_8"  />
<polygon style="stroke:black; stroke-width:1; fill:#FFFFFF; " description="unannotated orf[br]Location: 62590 - 64438" locus_tag="CHAFR746836_0077630.1" class="clusterblast-orf" points="321,35 326,30 336,30 336,40 326,40 321,35 " id="clusterblast-1_q10_3_9"  />
<polygon style="stroke:black; stroke-width:1; fill:rgb(190,190,63); " description="unannotated orf[br]Location: 67540 - 77132" locus_tag="CHAFR746836_0077640.1" class="clusterblast-orf" points="362,35 367,30 442,30 442,40 367,40 362,35 " id="clusterblast-1_q10_3_10"  />
<polygon style="stroke:black; stroke-width:1; fill:#FFFFFF; " description="unannotated orf[br]Location: 83720 - 84542" locus_tag="CHAFR746836_0077650.1" class="clusterblast-orf" points="497,40 499,40 504,35 499,30 497,30 497,40 " id="clusterblast-1_q10_3_11"  />
<polygon style="stroke:black; stroke-width:1; fill:#FFFFFF; " description="unannotated orf[br]Location: 85708 - 88797" locus_tag="CHAFR746836_0077660.1" class="clusterblast-orf" points="513,35 518,30 539,30 539,40 518,40 513,35 " id="clusterblast-1_q10_3_12"  />
<polygon style="stroke:black; stroke-width:1; fill:#FFFFFF; " description="unannotated orf[br]Location: 89609 - 90957" locus_tag="CHAFR746836_0077670.1" class="clusterblast-orf" points="546,35 551,30 557,30 557,40 551,40 546,35 " id="clusterblast-1_q10_3_13"  />
<polygon style="stroke:black; stroke-width:1; fill:#FFFFFF; " description="unannotated orf[br]Location: 91271 - 91979" locus_tag="CHAFR746836_0077680.1" class="clusterblast-orf" points="560,40 561,40 566,35 561,30 560,30 560,40 " id="clusterblast-1_q10_3_14"  />
<polygon style="stroke:black; stroke-width:1; fill:#FFFFFF; " description="unannotated orf[br]Location: 92728 - 93646" locus_tag="CHAFR746836_0077690.1" class="clusterblast-orf" points="572,35 577,30 579,30 579,40 577,40 572,35 " id="clusterblast-1_q10_3_15"  />
<polygon style="stroke:black; stroke-width:1; fill:#FFFFFF; " description="unannotated orf[br]Location: 94508 - 95510" locus_tag="CHAFR746836_0077700.1" class="clusterblast-orf" points="587,40 590,40 595,35 590,30 587,30 587,40 " id="clusterblast-1_q10_3_16"  />
<polygon style="stroke:black; stroke-width:1; fill:#FFFFFF; " description="unannotated orf[br]Location: 95897 - 96815" locus_tag="CHAFR746836_0077710.1" class="clusterblast-orf" points="598,35 603,30 606,30 606,40 603,40 598,35 " id="clusterblast-1_q10_3_17"  />
<polygon style="stroke:black; stroke-width:1; fill:rgb(190,190,190); " description="unannotated orf[br]Location: 99791 - 101108" locus_tag="CHAFR746836_0077720.1" class="clusterblast-orf" points="631,40 637,40 642,35 637,30 631,30 631,40 " id="clusterblast-1_q10_3_18"  />
<polygon style="stroke:black; stroke-width:1; fill:#FFFFFF; " description="unannotated orf[br]Location: 105182 - 105691" locus_tag="CHAFR746836_0077730.1" class="clusterblast-orf" points="676,40 680,35 676,30 676,40 " id="clusterblast-1_q10_3_19"  />
<polygon style="stroke:black; stroke-width:1; fill:#FFFFFF; " description="unannotated orf[br]Location: 116324 - 117422" locus_tag="CHAFR746836_0077740.1" class="clusterblast-orf" points="768,35 773,30 778,30 778,40 773,40 768,35 " id="clusterblast-1_q10_3_20"  />
</g>
<g class="clusterblast-cluster" description="Trichoderma reesei QM6a unplaced genomic scaffold TRIREscaff..." label="GL985062.1_c1"  >
<text class="clusterblast-acc" y="60" x="5"  >
GL985062.1_c1</text>
<text class="clusterblast-desc" y="60" x="460.8"  >
Trichoderma reesei QM6a unplaced genomic scaffold TRIREscaff...</text>
<line y1="85" x2="778.0" style="stroke:grey; stroke-width:1; " x1="10" y2="85"  />
<polygon style="stroke:black; stroke-width:1; fill:rgb(63,190,63); " description="predicted_protein[br]Location: 242538 - 243357&lt;br&gt;&lt;br&gt;&lt;b&gt;BlastP hit with CHAFR746836_0077600.1&lt;/b&gt;&lt;br&gt;Percentage identity: 35%&lt;br&gt;Percentage coverage: 93%&lt;br&gt;BLAST bit score: 95&lt;br&gt;E-value: 7e-23" locus_tag="TRIREDRAFT_60000" id="clusterblast-1_h10_3_0" points="196,90 197,90 202,85 197,80 196,80 196,90 " class="clusterblast-orf"  />
<polygon style="stroke:black; stroke-width:1; fill:#FFFFFF; " description="predicted_protein[br]Location: 238139 - 241181" locus_tag="TRIREDRAFT_121319" id="clusterblast-1_h10_3_1" points="214,90 234,90 239,85 234,80 214,80 214,90 " class="clusterblast-orf"  />
<polygon style="stroke:black; stroke-width:1; fill:#FFFFFF; " description="predicted_protein[br]Location: 234088 - 235549" locus_tag="TRIREDRAFT_22064" id="clusterblast-1_h10_3_2" points="261,90 268,90 273,85 268,80 261,80 261,90 " class="clusterblast-orf"  />
<polygon style="stroke:black; stroke-width:1; fill:#FFFFFF; " description="predicted_protein[br]Location: 231323 - 232151" locus_tag="TRIREDRAFT_77000" id="clusterblast-1_h10_3_3" points="289,90 291,90 296,85 291,80 289,80 289,90 " class="clusterblast-orf"  />
<polygon style="stroke:black; stroke-width:1; fill:#FFFFFF; " description="hypothetical_protein[br]Location: 229136 - 231043" locus_tag="TRIREDRAFT_106276" id="clusterblast-1_h10_3_4" points="298,85 303,80 314,80 314,90 303,90 298,85 " class="clusterblast-orf"  />
<polygon style="stroke:black; stroke-width:1; fill:#FFFFFF; " description="predicted_protein[br]Location: 227378 - 228820" locus_tag="TRIREDRAFT_47153" id="clusterblast-1_h10_3_5" points="317,85 322,80 329,80 329,90 322,90 317,85 " class="clusterblast-orf"  />
<polygon style="stroke:black; stroke-width:1; fill:#FFFFFF; " description="predicted_protein[br]Location: 225820 - 227223" locus_tag="TRIREDRAFT_106274" id="clusterblast-1_h10_3_6" points="330,90 337,90 342,85 337,80 330,80 330,90 " class="clusterblast-orf"  />
<polygon style="stroke:black; stroke-width:1; fill:#FFFFFF; " description="predicted_protein[br]Location: 224660 - 225607" locus_tag="TRIREDRAFT_60067" id="clusterblast-1_h10_3_7" points="343,90 346,90 351,85 346,80 343,80 343,90 " class="clusterblast-orf"  />
<polygon style="stroke:black; stroke-width:1; fill:rgb(190,190,63); " description="polyketide_synthase[br]Location: 215526 - 224521&lt;br&gt;&lt;br&gt;&lt;b&gt;BlastP hit with CHAFR746836_0077640.1&lt;/b&gt;&lt;br&gt;Percentage identity: 34%&lt;br&gt;Percentage coverage: 94%&lt;br&gt;BLAST bit score: 1499&lt;br&gt;E-value: 0.0" locus_tag="TRIREDRAFT_106272" id="clusterblast-1_h10_3_8" points="352,85 357,80 427,80 427,90 357,90 352,85 " class="clusterblast-orf"  />
<polygon style="stroke:black; stroke-width:1; fill:#FFFFFF; " description="predicted_protein[br]Location: 211398 - 212420" locus_tag="TRIREDRAFT_121315" id="clusterblast-1_h10_3_9" points="453,85 458,80 462,80 462,90 458,90 453,85 " class="clusterblast-orf"  />
<polygon style="stroke:black; stroke-width:1; fill:#FFFFFF; " description="predicted_protein[br]Location: 209942 - 210400" locus_tag="TRIREDRAFT_106270" id="clusterblast-1_h10_3_10" points="470,90 474,85 470,80 470,90 " class="clusterblast-orf"  />
<polygon style="stroke:black; stroke-width:1; fill:#FFFFFF; " description="predicted_protein[br]Location: 206734 - 208203" locus_tag="TRIREDRAFT_76995" id="clusterblast-1_h10_3_11" points="488,85 493,80 500,80 500,90 493,90 488,85 " class="clusterblast-orf"  />
<polygon style="stroke:black; stroke-width:1; fill:#FFFFFF; " description="predicted_protein[br]Location: 202858 - 204427" locus_tag="TRIREDRAFT_39587" id="clusterblast-1_h10_3_12" points="520,90 528,90 533,85 528,80 520,80 520,90 " class="clusterblast-orf"  />
<polygon style="stroke:black; stroke-width:1; fill:#FFFFFF; " description="predicted_protein[br]Location: 199209 - 200111" locus_tag="TRIREDRAFT_106267" id="clusterblast-1_h10_3_13" points="556,90 558,90 563,85 558,80 556,80 556,90 " class="clusterblast-orf"  />
<polygon style="stroke:black; stroke-width:1; fill:#FFFFFF; " description="predicted_protein[br]Location: 195947 - 197483" locus_tag="TRIREDRAFT_76992" id="clusterblast-1_h10_3_14" points="578,90 585,90 590,85 585,80 578,80 578,90 " class="clusterblast-orf"  />
</g>
</svg>
