<svg xmlns="http://www.w3.org/2000/svg" height="230" width="800" version="1.1" y="0" x="0" preserveAspectRatio="none" xmlns:xlink="http://www.w3.org/1999/xlink" viewBox="0 0 800 230"  >
<g class="clusterblast-cluster" label="Query sequence"  >
<text class="clusterblast-acc" y="10" x="5"  >
Query sequence</text>
<line y1="35" x2="778.0" style="stroke:grey; stroke-width:1; " x1="10" y2="35"  />
<polygon style="stroke:black; stroke-width:1; fill:red; " description="unannotated orf[br]Location: 68134 - 70502" locus_tag="CHAFR746836_0071420.1" class="clusterblast-orf" points="10,35 15,30 20,30 20,40 15,40 10,35 " id="clusterblast-1_q9_7_0"  />
<polygon style="stroke:black; stroke-width:1; fill:#FFFFFF; " description="unannotated orf[br]Location: 72327 - 73788" locus_tag="CHAFR746836_0071430.1" class="clusterblast-orf" points="28,35 33,30 35,30 35,40 33,40 28,35 " id="clusterblast-1_q9_7_1"  />
<polygon style="stroke:black; stroke-width:1; fill:#FFFFFF; " description="unannotated orf[br]Location: 76531 - 77863" locus_tag="CHAFR746836_0071440.1" class="clusterblast-orf" points="47,35 52,30 53,30 53,40 52,40 47,35 " id="clusterblast-1_q9_7_2"  />
<polygon style="stroke:black; stroke-width:1; fill:#FFFFFF; " description="unannotated orf[br]Location: 80274 - 82068" locus_tag="CHAFR746836_0071450.1" class="clusterblast-orf" points="64,40 67,40 72,35 67,30 64,30 64,40 " id="clusterblast-1_q9_7_3"  />
<polygon style="stroke:black; stroke-width:1; fill:green; " description="unannotated orf[br]Location: 84469 - 85881" locus_tag="CHAFR746836_0071460.1" class="clusterblast-orf" points="83,35 88,30 89,30 89,40 88,40 83,35 " id="clusterblast-1_q9_7_4"  />
<polygon style="stroke:black; stroke-width:1; fill:blue; " description="unannotated orf[br]Location: 86196 - 88112" locus_tag="CHAFR746836_0071470.1" class="clusterblast-orf" points="91,40 94,40 99,35 94,30 91,30 91,40 " id="clusterblast-1_q9_7_5"  />
<polygon style="stroke:black; stroke-width:1; fill:#FFFFFF; " description="unannotated orf[br]Location: 90971 - 93131" locus_tag="CHAFR746836_0071480.1" class="clusterblast-orf" points="112,35 117,30 122,30 122,40 117,40 112,35 " id="clusterblast-1_q9_7_6"  />
<polygon style="stroke:black; stroke-width:1; fill:#FFFFFF; " description="unannotated orf[br]Location: 94508 - 96197" locus_tag="CHAFR746836_0071490.1" class="clusterblast-orf" points="128,40 130,40 135,35 130,30 128,30 128,40 " id="clusterblast-1_q9_7_7"  />
<polygon style="stroke:black; stroke-width:1; fill:#FFFFFF; " description="unannotated orf[br]Location: 97454 - 99476" locus_tag="CHAFR746836_0071500.1" class="clusterblast-orf" points="141,40 145,40 150,35 145,30 141,30 141,40 " id="clusterblast-1_q9_7_8"  />
<polygon style="stroke:black; stroke-width:1; fill:#FFFFFF; " description="unannotated orf[br]Location: 100761 - 101297" locus_tag="CHAFR746836_0071510.1" class="clusterblast-orf" points="156,40 158,35 156,30 156,40 " id="clusterblast-1_q9_7_9"  />
<polygon style="stroke:black; stroke-width:1; fill:#FFFFFF; " description="unannotated orf[br]Location: 104385 - 104721" locus_tag="CHAFR746836_0071520.1" class="clusterblast-orf" points="172,40 174,35 172,30 172,40 " id="clusterblast-1_q9_7_10"  />
<polygon style="stroke:black; stroke-width:1; fill:#FFFFFF; " description="unannotated orf[br]Location: 107563 - 110227" locus_tag="CHAFR746836_0071530.1" class="clusterblast-orf" points="186,35 191,30 198,30 198,40 191,40 186,35 " id="clusterblast-1_q9_7_11"  />
<polygon style="stroke:black; stroke-width:1; fill:#FFFFFF; " description="unannotated orf[br]Location: 114742 - 115039" locus_tag="CHAFR746836_0071540.1" class="clusterblast-orf" points="219,40 220,35 219,30 219,40 " id="clusterblast-1_q9_7_12"  />
<polygon style="stroke:black; stroke-width:1; fill:#FFFFFF; " description="unannotated orf[br]Location: 123259 - 127108" locus_tag="CHAFR746836_0071550.1" class="clusterblast-orf" points="257,35 262,30 274,30 274,40 262,40 257,35 " id="clusterblast-1_q9_7_13"  />
<polygon style="stroke:black; stroke-width:1; fill:#FFFFFF; " description="unannotated orf[br]Location: 144812 - 146250" locus_tag="CHAFR746836_0071560.1" class="clusterblast-orf" points="354,35 359,30 360,30 360,40 359,40 354,35 " id="clusterblast-1_q9_7_14"  />
<polygon style="stroke:black; stroke-width:1; fill:#FFFFFF; " description="unannotated orf[br]Location: 152743 - 154459" locus_tag="CHAFR746836_0071570.1" class="clusterblast-orf" points="389,35 394,30 397,30 397,40 394,40 389,35 " id="clusterblast-1_q9_7_15"  />
<polygon style="stroke:black; stroke-width:1; fill:#FFFFFF; " description="unannotated orf[br]Location: 156531 - 157389" locus_tag="CHAFR746836_0071580.1" class="clusterblast-orf" points="406,35 410,30 410,40 406,35 " id="clusterblast-1_q9_7_16"  />
<polygon style="stroke:black; stroke-width:1; fill:#FFFFFF; " description="unannotated orf[br]Location: 164785 - 166669" locus_tag="CHAFR746836_0071590.1" class="clusterblast-orf" points="443,40 447,40 452,35 447,30 443,30 443,40 " id="clusterblast-1_q9_7_17"  />
<polygon style="stroke:black; stroke-width:1; fill:#FFFFFF; " description="unannotated orf[br]Location: 201968 - 203433" locus_tag="CHAFR746836_0071600.1" class="clusterblast-orf" points="610,40 612,40 617,35 612,30 610,30 610,40 " id="clusterblast-1_q9_7_18"  />
<polygon style="stroke:black; stroke-width:1; fill:#FFFFFF; " description="unannotated orf[br]Location: 204836 - 205972" locus_tag="CHAFR746836_0071610.1" class="clusterblast-orf" points="623,40 623,40 628,35 623,30 623,30 623,40 " id="clusterblast-1_q9_7_19"  />
<polygon style="stroke:black; stroke-width:1; fill:#FFFFFF; " description="unannotated orf[br]Location: 207637 - 210779" locus_tag="CHAFR746836_0071620.1" class="clusterblast-orf" points="636,35 641,30 650,30 650,40 641,40 636,35 " id="clusterblast-1_q9_7_20"  />
<polygon style="stroke:black; stroke-width:1; fill:#FFFFFF; " description="unannotated orf[br]Location: 211916 - 213325" locus_tag="CHAFR746836_0071630.1" class="clusterblast-orf" points="655,35 660,30 661,30 661,40 660,40 655,35 " id="clusterblast-1_q9_7_21"  />
<polygon style="stroke:black; stroke-width:1; fill:yellow; " description="unannotated orf[br]Location: 215213 - 216863" locus_tag="CHAFR746836_0071640.1" class="clusterblast-orf" points="670,35 675,30 677,30 677,40 675,40 670,35 " id="clusterblast-1_q9_7_22"  />
<polygon style="stroke:black; stroke-width:1; fill:#FFFFFF; " description="unannotated orf[br]Location: 224691 - 226010" locus_tag="CHAFR746836_0071650.1" class="clusterblast-orf" points="712,40 713,40 718,35 713,30 712,30 712,40 " id="clusterblast-1_q9_7_23"  />
<polygon style="stroke:black; stroke-width:1; fill:#FFFFFF; " description="unannotated orf[br]Location: 230972 - 232109" locus_tag="CHAFR746836_0071660.1" class="clusterblast-orf" points="740,40 740,40 745,35 740,30 740,30 740,40 " id="clusterblast-1_q9_7_24"  />
<polygon style="stroke:black; stroke-width:1; fill:#FFFFFF; " description="unannotated orf[br]Location: 233318 - 234463" locus_tag="CHAFR746836_0071670.1" class="clusterblast-orf" points="751,35 756,30 756,30 756,40 756,40 751,35 " id="clusterblast-1_q9_7_25"  />
<polygon style="stroke:black; stroke-width:1; fill:#FFFFFF; " description="unannotated orf[br]Location: 234897 - 236194" locus_tag="CHAFR746836_0071680.1" class="clusterblast-orf" points="758,40 759,40 764,35 759,30 758,30 758,40 " id="clusterblast-1_q9_7_26"  />
<polygon style="stroke:black; stroke-width:1; fill:#FFFFFF; " description="unannotated orf[br]Location: 236494 - 237888" locus_tag="CHAFR746836_0071690.1" class="clusterblast-orf" points="765,35 770,30 771,30 771,40 770,40 765,35 " id="clusterblast-1_q9_7_27"  />
<polygon style="stroke:black; stroke-width:1; fill:#FFFFFF; " description="unannotated orf[br]Location: 238790 - 239245" locus_tag="CHAFR746836_0071700.1" class="clusterblast-orf" points="775,40 778,35 775,30 775,40 " id="clusterblast-1_q9_7_28"  />
</g>
<g class="clusterblast-cluster" description="Rhodococcus equi ATCC 33707 Contig5947.fasta, whole g..." label="NZ_ADNW02000013.1_c1"  >
<text class="clusterblast-acc" y="60" x="5"  >
NZ_ADNW02000013.1_c1</text>
<text class="clusterblast-desc" y="60" x="460.8"  >
Rhodococcus equi ATCC 33707 Contig5947.fasta, whole g...</text>
<line y1="85" x2="778.0" style="stroke:grey; stroke-width:1; " x1="10" y2="85"  />
<polygon style="stroke:black; stroke-width:1; fill:#FFFFFF; " description="30S_ribosomal_protein_S13[br]Location: 195885 - 196253" locus_tag="HMPREF0724_12936" id="clusterblast-1_h9_7_0" points="204,85 205,80 205,90 204,85 " class="clusterblast-orf"  />
<polygon style="stroke:black; stroke-width:1; fill:#FFFFFF; " description="50S_ribosomal_protein_L36[br]Location: 195561 - 195674" locus_tag="HMPREF0724_12935" id="clusterblast-1_h9_7_1" points="206,85 207,80 207,90 206,85 " class="clusterblast-orf"  />
<polygon style="stroke:black; stroke-width:1; fill:#FFFFFF; " description="translation_initiation_factor_IF-1[br]Location: 195226 - 195483" locus_tag="HMPREF0724_12934" id="clusterblast-1_h9_7_2" points="207,85 208,80 208,90 207,85 " class="clusterblast-orf"  />
<polygon style="stroke:black; stroke-width:1; fill:#FFFFFF; " description="D-tyrosyl-tRNA(Tyr)_deacylase[br]Location: 194594 - 195031" locus_tag="HMPREF0724_12933" id="clusterblast-1_h9_7_3" points="209,90 211,85 209,80 209,90 " class="clusterblast-orf"  />
<polygon style="stroke:black; stroke-width:1; fill:#FFFFFF; " description="methionyl_aminopeptidase[br]Location: 193704 - 194507" locus_tag="HMPREF0724_12932" id="clusterblast-1_h9_7_4" points="211,85 215,80 215,90 211,85 " class="clusterblast-orf"  />
<polygon style="stroke:black; stroke-width:1; fill:#FFFFFF; " description="adenylate_kinase[br]Location: 193159 - 193704" locus_tag="HMPREF0724_12931" id="clusterblast-1_h9_7_5" points="215,85 217,80 217,90 215,85 " class="clusterblast-orf"  />
<polygon style="stroke:black; stroke-width:1; fill:#FFFFFF; " description="preprotein_translocase_subunit_SecY[br]Location: 191840 - 193162" locus_tag="HMPREF0724_12930" id="clusterblast-1_h9_7_6" points="217,85 222,80 223,80 223,90 222,90 217,85 " class="clusterblast-orf"  />
<polygon style="stroke:black; stroke-width:1; fill:#FFFFFF; " description="50S_ribosomal_protein_L15[br]Location: 191177 - 191617" locus_tag="HMPREF0724_12929" id="clusterblast-1_h9_7_7" points="224,85 226,80 226,90 224,85 " class="clusterblast-orf"  />
<polygon style="stroke:black; stroke-width:1; fill:#FFFFFF; " description="50S_ribosomal_protein_L30[br]Location: 190995 - 191174" locus_tag="HMPREF0724_12928" id="clusterblast-1_h9_7_8" points="226,85 227,80 227,90 226,85 " class="clusterblast-orf"  />
<polygon style="stroke:black; stroke-width:1; fill:#FFFFFF; " description="30S_ribosomal_protein_S5[br]Location: 190354 - 190995" locus_tag="HMPREF0724_12927" id="clusterblast-1_h9_7_9" points="227,85 230,80 230,90 227,85 " class="clusterblast-orf"  />
<polygon style="stroke:black; stroke-width:1; fill:#FFFFFF; " description="50S_ribosomal_protein_L18[br]Location: 189915 - 190322" locus_tag="HMPREF0724_12926" id="clusterblast-1_h9_7_10" points="230,85 232,80 232,90 230,85 " class="clusterblast-orf"  />
<polygon style="stroke:black; stroke-width:1; fill:#FFFFFF; " description="50S_ribosomal_protein_L6[br]Location: 189374 - 189913" locus_tag="HMPREF0724_12925" id="clusterblast-1_h9_7_11" points="232,85 234,80 234,90 232,85 " class="clusterblast-orf"  />
<polygon style="stroke:black; stroke-width:1; fill:#FFFFFF; " description="30S_ribosomal_protein_S8[br]Location: 188961 - 189359" locus_tag="HMPREF0724_12924" id="clusterblast-1_h9_7_12" points="234,85 236,80 236,90 234,85 " class="clusterblast-orf"  />
<polygon style="stroke:black; stroke-width:1; fill:#FFFFFF; " description="30S_ribosomal_protein_S14[br]Location: 188605 - 188790" locus_tag="HMPREF0724_12923" id="clusterblast-1_h9_7_13" points="237,85 238,80 238,90 237,85 " class="clusterblast-orf"  />
<polygon style="stroke:black; stroke-width:1; fill:#FFFFFF; " description="50S_ribosomal_protein_L5[br]Location: 188034 - 188600" locus_tag="HMPREF0724_12922" id="clusterblast-1_h9_7_14" points="238,85 240,80 240,90 238,85 " class="clusterblast-orf"  />
<polygon style="stroke:black; stroke-width:1; fill:#FFFFFF; " description="50S_ribosomal_protein_L24[br]Location: 187715 - 188032" locus_tag="HMPREF0724_12921" id="clusterblast-1_h9_7_15" points="240,85 242,80 242,90 240,85 " class="clusterblast-orf"  />
<polygon style="stroke:black; stroke-width:1; fill:#FFFFFF; " description="50S_ribosomal_protein_L14[br]Location: 187347 - 187715" locus_tag="HMPREF0724_12920" id="clusterblast-1_h9_7_16" points="242,85 243,80 243,90 242,85 " class="clusterblast-orf"  />
<polygon style="stroke:black; stroke-width:1; fill:#FFFFFF; " description="30S_ribosomal_protein_S17[br]Location: 186886 - 187176" locus_tag="HMPREF0724_12919" id="clusterblast-1_h9_7_17" points="244,85 246,80 246,90 244,85 " class="clusterblast-orf"  />
<polygon style="stroke:black; stroke-width:1; fill:#FFFFFF; " description="50S_ribosomal_protein_L29[br]Location: 186653 - 186889" locus_tag="HMPREF0724_12918" id="clusterblast-1_h9_7_18" points="246,85 247,80 247,90 246,85 " class="clusterblast-orf"  />
<polygon style="stroke:black; stroke-width:1; fill:#FFFFFF; " description="50S_ribosomal_protein_L16[br]Location: 186237 - 186653" locus_tag="HMPREF0724_12917" id="clusterblast-1_h9_7_19" points="247,85 248,80 248,90 247,85 " class="clusterblast-orf"  />
<polygon style="stroke:black; stroke-width:1; fill:#FFFFFF; " description="30S_ribosomal_protein_S3[br]Location: 185436 - 186233" locus_tag="HMPREF0724_12916" id="clusterblast-1_h9_7_20" points="248,85 252,80 252,90 248,85 " class="clusterblast-orf"  />
<polygon style="stroke:black; stroke-width:1; fill:#FFFFFF; " description="50S_ribosomal_protein_L22[br]Location: 185032 - 185436" locus_tag="HMPREF0724_12915" id="clusterblast-1_h9_7_21" points="252,85 254,80 254,90 252,85 " class="clusterblast-orf"  />
<polygon style="stroke:black; stroke-width:1; fill:#FFFFFF; " description="30S_ribosomal_protein_S19[br]Location: 184754 - 185035" locus_tag="HMPREF0724_12914" id="clusterblast-1_h9_7_22" points="254,85 255,80 255,90 254,85 " class="clusterblast-orf"  />
<polygon style="stroke:black; stroke-width:1; fill:#FFFFFF; " description="50S_ribosomal_protein_L2[br]Location: 183902 - 184735" locus_tag="HMPREF0724_12913" id="clusterblast-1_h9_7_23" points="255,85 259,80 259,90 255,85 " class="clusterblast-orf"  />
<polygon style="stroke:black; stroke-width:1; fill:#FFFFFF; " description="50S_ribosomal_protein_L23[br]Location: 183556 - 183861" locus_tag="HMPREF0724_12912" id="clusterblast-1_h9_7_24" points="259,85 260,80 260,90 259,85 " class="clusterblast-orf"  />
<polygon style="stroke:black; stroke-width:1; fill:#FFFFFF; " description="50S_ribosomal_protein_L4[br]Location: 182894 - 183559" locus_tag="HMPREF0724_12911" id="clusterblast-1_h9_7_25" points="260,85 263,80 263,90 260,85 " class="clusterblast-orf"  />
<polygon style="stroke:black; stroke-width:1; fill:#FFFFFF; " description="50S_ribosomal_protein_L3[br]Location: 182244 - 182897" locus_tag="HMPREF0724_12910" id="clusterblast-1_h9_7_26" points="263,85 266,80 266,90 263,85 " class="clusterblast-orf"  />
<polygon style="stroke:black; stroke-width:1; fill:#FFFFFF; " description="30S_ribosomal_protein_S10[br]Location: 181910 - 182215" locus_tag="HMPREF0724_12909" id="clusterblast-1_h9_7_27" points="267,85 268,80 268,90 267,85 " class="clusterblast-orf"  />
<polygon style="stroke:black; stroke-width:1; fill:#FFFFFF; " description="thioesterase[br]Location: 180945 - 181424" locus_tag="HMPREF0724_12908" id="clusterblast-1_h9_7_28" points="270,90 272,85 270,80 270,90 " class="clusterblast-orf"  />
<polygon style="stroke:black; stroke-width:1; fill:#FFFFFF; " description="transcriptional_regulator[br]Location: 180111 - 180797" locus_tag="HMPREF0724_12907" id="clusterblast-1_h9_7_29" points="273,90 276,85 273,80 273,90 " class="clusterblast-orf"  />
<polygon style="stroke:black; stroke-width:1; fill:#FFFFFF; " description="daunorubicin_resistance_ABC_superfamily_ATP[br]Location: 178942 - 179913" locus_tag="HMPREF0724_12906" id="clusterblast-1_h9_7_30" points="277,90 281,85 277,80 277,90 " class="clusterblast-orf"  />
<polygon style="stroke:black; stroke-width:1; fill:#FFFFFF; " description="daunorubicin_resistance_ABC_superfamily_ATP[br]Location: 178082 - 178945" locus_tag="HMPREF0724_12905" id="clusterblast-1_h9_7_31" points="281,90 285,85 281,80 281,90 " class="clusterblast-orf"  />
<polygon style="stroke:black; stroke-width:1; fill:#FFFFFF; " description="antibiotic_resistance_ABC_superfamily_ATP[br]Location: 177213 - 178085" locus_tag="HMPREF0724_12904" id="clusterblast-1_h9_7_32" points="285,90 289,85 285,80 285,90 " class="clusterblast-orf"  />
<polygon style="stroke:black; stroke-width:1; fill:#FFFFFF; " description="triacylglycerol_lipase[br]Location: 176109 - 177041" locus_tag="HMPREF0724_12903" id="clusterblast-1_h9_7_33" points="290,90 294,85 290,80 290,90 " class="clusterblast-orf"  />
<polygon style="stroke:black; stroke-width:1; fill:#FFFFFF; " description="non-ribosomal_peptide_synthetase[br]Location: 163955 - 176029" locus_tag="HMPREF0724_12902" id="clusterblast-1_h9_7_34" points="294,85 299,80 348,80 348,90 299,90 294,85 " class="clusterblast-orf"  />
<polygon style="stroke:black; stroke-width:1; fill:#FFFFFF; " description="exopolyphosphatase[br]Location: 153032 - 163735" locus_tag="HMPREF0724_12901" id="clusterblast-1_h9_7_35" points="349,85 354,80 397,80 397,90 354,90 349,85 " class="clusterblast-orf"  />
<polygon style="stroke:black; stroke-width:1; fill:#FFFFFF; " description="hypothetical_protein[br]Location: 132188 - 152944" locus_tag="HMPREF0724_12900" id="clusterblast-1_h9_7_36" points="398,85 403,80 491,80 491,90 403,90 398,85 " class="clusterblast-orf"  />
<polygon style="stroke:black; stroke-width:1; fill:#FFFFFF; " description="pyridoxamine_5'-phosphate_oxidase_family[br]Location: 131415 - 131831" locus_tag="HMPREF0724_12899" id="clusterblast-1_h9_7_37" points="493,85 495,80 495,90 493,85 " class="clusterblast-orf"  />
<polygon style="stroke:black; stroke-width:1; fill:#FFFFFF; " description="regulatory_protein_GntR[br]Location: 130594 - 131349" locus_tag="HMPREF0724_12898" id="clusterblast-1_h9_7_38" points="495,85 498,80 498,90 495,85 " class="clusterblast-orf"  />
<polygon style="stroke:black; stroke-width:1; fill:#FFFFFF; " description="acetoacetyl-coenzyme_A_synthetase[br]Location: 128471 - 130432" locus_tag="HMPREF0724_12897" id="clusterblast-1_h9_7_39" points="499,85 504,80 508,80 508,90 504,90 499,85 " class="clusterblast-orf"  />
<polygon style="stroke:black; stroke-width:1; fill:#FFFFFF; " description="citrate_lyase,_beta_subunit[br]Location: 127610 - 128467" locus_tag="HMPREF0724_12896" id="clusterblast-1_h9_7_40" points="508,85 512,80 512,90 508,85 " class="clusterblast-orf"  />
<polygon style="stroke:black; stroke-width:1; fill:#FFFFFF; " description="MoaC_family_protein[br]Location: 127140 - 127613" locus_tag="HMPREF0724_12895" id="clusterblast-1_h9_7_41" points="512,85 514,80 514,90 512,85 " class="clusterblast-orf"  />
<polygon style="stroke:black; stroke-width:1; fill:green; " description="acyl-CoA_dehydrogenase[br]Location: 125973 - 127136&lt;br&gt;&lt;br&gt;&lt;b&gt;BlastP hit with CHAFR746836_0071460.1&lt;/b&gt;&lt;br&gt;Percentage identity: 34%&lt;br&gt;Percentage coverage: 88%&lt;br&gt;BLAST bit score: 206&lt;br&gt;E-value: 3e-60" locus_tag="HMPREF0724_12894" id="clusterblast-1_h9_7_42" points="514,85 519,80 519,80 519,90 519,90 514,85 " class="clusterblast-orf"  />
<polygon style="stroke:black; stroke-width:1; fill:red; " description="acetyl/propionyl-CoA_carboxylase[br]Location: 123952 - 125976&lt;br&gt;&lt;br&gt;&lt;b&gt;BlastP hit with CHAFR746836_0071420.1&lt;/b&gt;&lt;br&gt;Percentage identity: 38%&lt;br&gt;Percentage coverage: 94%&lt;br&gt;BLAST bit score: 414&lt;br&gt;E-value: 1e-132" locus_tag="HMPREF0724_12893" id="clusterblast-1_h9_7_43" points="519,85 524,80 528,80 528,90 524,90 519,85 " class="clusterblast-orf"  />
<polygon style="stroke:black; stroke-width:1; fill:blue; " description="propionyl-CoA_carboxylase[br]Location: 122384 - 123943&lt;br&gt;&lt;br&gt;&lt;b&gt;BlastP hit with CHAFR746836_0071470.1&lt;/b&gt;&lt;br&gt;Percentage identity: 61%&lt;br&gt;Percentage coverage: 86%&lt;br&gt;BLAST bit score: 612&lt;br&gt;E-value: 0.0" locus_tag="HMPREF0724_12892" id="clusterblast-1_h9_7_44" points="528,85 533,80 535,80 535,90 533,90 528,85 " class="clusterblast-orf"  />
<polygon style="stroke:black; stroke-width:1; fill:#FFFFFF; " description="TetR_family_transcriptional_regulator[br]Location: 121637 - 122266" locus_tag="HMPREF0724_12891" id="clusterblast-1_h9_7_45" points="536,90 538,85 536,80 536,90 " class="clusterblast-orf"  />
<polygon style="stroke:black; stroke-width:1; fill:#FFFFFF; " description="hypothetical_protein[br]Location: 121368 - 121631" locus_tag="HMPREF0724_12890" id="clusterblast-1_h9_7_46" points="538,85 540,80 540,90 538,85 " class="clusterblast-orf"  />
<polygon style="stroke:black; stroke-width:1; fill:#FFFFFF; " description="zinc-binding_dehydrogenase[br]Location: 120136 - 121248" locus_tag="HMPREF0724_12889" id="clusterblast-1_h9_7_47" points="540,85 545,80 545,80 545,90 545,90 540,85 " class="clusterblast-orf"  />
<polygon style="stroke:black; stroke-width:1; fill:yellow; " description="phenylacetaldehyde_dehydrogenase[br]Location: 118604 - 120097&lt;br&gt;&lt;br&gt;&lt;b&gt;BlastP hit with CHAFR746836_0071640.1&lt;/b&gt;&lt;br&gt;Percentage identity: 42%&lt;br&gt;Percentage coverage: 99%&lt;br&gt;BLAST bit score: 329&lt;br&gt;E-value: 4e-105" locus_tag="HMPREF0724_12888" id="clusterblast-1_h9_7_48" points="545,85 550,80 552,80 552,90 550,90 545,85 " class="clusterblast-orf"  />
<polygon style="stroke:black; stroke-width:1; fill:#FFFFFF; " description="fis_family_transcriptional_regulator[br]Location: 116857 - 118497" locus_tag="HMPREF0724_12887" id="clusterblast-1_h9_7_49" points="552,85 557,80 560,80 560,90 557,90 552,85 " class="clusterblast-orf"  />
<polygon style="stroke:black; stroke-width:1; fill:#FFFFFF; " description="substrate-CoA_ligase[br]Location: 115189 - 116841" locus_tag="HMPREF0724_12886" id="clusterblast-1_h9_7_50" points="560,85 565,80 567,80 567,90 565,90 560,85 " class="clusterblast-orf"  />
<polygon style="stroke:black; stroke-width:1; fill:#FFFFFF; " description="MFS_family_major_facilitator_transporter[br]Location: 113701 - 115017" locus_tag="HMPREF0724_12885" id="clusterblast-1_h9_7_51" points="568,85 573,80 574,80 574,90 573,90 568,85 " class="clusterblast-orf"  />
<polygon style="stroke:black; stroke-width:1; fill:#FFFFFF; " description="hypothetical_protein[br]Location: 112929 - 113585" locus_tag="HMPREF0724_12884" id="clusterblast-1_h9_7_52" points="575,85 577,80 577,90 575,85 " class="clusterblast-orf"  />
<polygon style="stroke:black; stroke-width:1; fill:#FFFFFF; " description="protein_of_hypothetical_function_DUF779[br]Location: 111712 - 112242" locus_tag="HMPREF0724_12883" id="clusterblast-1_h9_7_53" points="581,85 583,80 583,90 581,85 " class="clusterblast-orf"  />
</g>
</svg>
