<svg xmlns="http://www.w3.org/2000/svg" height="230" width="800" version="1.1" y="0" x="0" preserveAspectRatio="none" xmlns:xlink="http://www.w3.org/1999/xlink" viewBox="0 0 800 230"  >
<g class="clusterblast-cluster" label="Query sequence"  >
<text class="clusterblast-acc" y="10" x="5"  >
Query sequence</text>
<line y1="35" x2="778.0" style="stroke:grey; stroke-width:1; " x1="10" y2="35"  />
<polygon style="stroke:black; stroke-width:1; fill:red; " description="unannotated orf[br]Location: 18826 - 24323" locus_tag="CHAFR746836_0048040.1" class="clusterblast-orf" points="10,35 15,30 226,30 226,40 15,40 10,35 " id="clusterblast-1_q57_8_0"  />
<polygon style="stroke:black; stroke-width:1; fill:#FFFFFF; " description="unannotated orf[br]Location: 27327 - 29289" locus_tag="CHAFR746836_0048050.1" class="clusterblast-orf" points="344,35 349,30 422,30 422,40 349,40 344,35 " id="clusterblast-1_q57_8_1"  />
<polygon style="stroke:black; stroke-width:1; fill:green; " description="unannotated orf[br]Location: 31909 - 32971" locus_tag="CHAFR746836_0048060.1" class="clusterblast-orf" points="525,40 562,40 567,35 562,30 525,30 525,40 " id="clusterblast-1_q57_8_2"  />
<polygon style="stroke:black; stroke-width:1; fill:blue; " description="unannotated orf[br]Location: 33755 - 35353" locus_tag="CHAFR746836_0048070.1" class="clusterblast-orf" points="598,35 603,30 661,30 661,40 603,40 598,35 " id="clusterblast-1_q57_8_3"  />
<polygon style="stroke:black; stroke-width:1; fill:yellow; " description="unannotated orf[br]Location: 36309 - 38321" locus_tag="CHAFR746836_0048080.1" class="clusterblast-orf" points="698,40 773,40 778,35 773,30 698,30 698,40 " id="clusterblast-1_q57_8_4"  />
</g>
<g class="clusterblast-cluster" description="Colletotrichum higginsianum IMI 349063 WGS project CACQ0..." label="CACQ02006079.1_c1"  >
<text class="clusterblast-acc" y="60" x="5"  >
CACQ02006079.1_c1</text>
<text class="clusterblast-desc" y="60" x="460.8"  >
Colletotrichum higginsianum IMI 349063 WGS project CACQ0...</text>
<line y1="85" x2="778.0" style="stroke:grey; stroke-width:1; " x1="10" y2="85"  />
<polygon style="stroke:black; stroke-width:1; fill:green; " description="TOXD[br]Location: 877 - 2026&lt;br&gt;&lt;br&gt;&lt;b&gt;BlastP hit with CHAFR746836_0048060.1&lt;/b&gt;&lt;br&gt;Percentage identity: 39%&lt;br&gt;Percentage coverage: 100%&lt;br&gt;BLAST bit score: 260&lt;br&gt;E-value: 4e-82" locus_tag="CH063_03066" id="clusterblast-1_h57_8_0" points="180,90 220,90 225,85 220,80 180,80 180,90 " class="clusterblast-orf"  />
<polygon style="stroke:black; stroke-width:1; fill:red; " description="polyketide_synthase/peptide_synthetase[br]Location: 3218 - 11703&lt;br&gt;&lt;br&gt;&lt;b&gt;BlastP hit with CHAFR746836_0048040.1&lt;/b&gt;&lt;br&gt;Percentage identity: 35%&lt;br&gt;Percentage coverage: 102%&lt;br&gt;BLAST bit score: 1076&lt;br&gt;E-value: 0.0&lt;br&gt;&lt;br&gt;&lt;b&gt;BlastP hit with CHAFR746836_0048050.1&lt;/b&gt;&lt;br&gt;Percentage identity: 56%&lt;br&gt;Percentage coverage: 100%&lt;br&gt;BLAST bit score: 657&lt;br&gt;E-value: 0.0" locus_tag="CH063_03067" id="clusterblast-1_h57_8_1" points="272,90 601,90 606,85 601,80 272,80 272,90 " class="clusterblast-orf"  />
</g>
</svg>
