<svg xmlns="http://www.w3.org/2000/svg" height="230" width="800" version="1.1" y="0" x="0" preserveAspectRatio="none" xmlns:xlink="http://www.w3.org/1999/xlink" viewBox="0 0 800 230"  >
<g class="clusterblast-cluster" label="Query sequence"  >
<text class="clusterblast-acc" y="10" x="5"  >
Query sequence</text>
<line y1="35" x2="778.0" style="stroke:grey; stroke-width:1; " x1="10" y2="35"  />
<polygon style="stroke:black; stroke-width:1; fill:#FFFFFF; " description="unannotated orf[br]Location: 526 - 1764" locus_tag="CHAFR746836_0049830.1" class="clusterblast-orf" points="10,35 15,30 30,30 30,40 15,40 10,35 " id="clusterblast-1_q61_9_0"  />
<polygon style="stroke:black; stroke-width:1; fill:#FFFFFF; " description="unannotated orf[br]Location: 2667 - 6069" locus_tag="CHAFR746836_0049840.1" class="clusterblast-orf" points="44,40 95,40 100,35 95,30 44,30 44,40 " id="clusterblast-1_q61_9_1"  />
<polygon style="stroke:black; stroke-width:1; fill:#FFFFFF; " description="unannotated orf[br]Location: 8378 - 11086" locus_tag="CHAFR746836_0049850.1" class="clusterblast-orf" points="138,35 143,30 182,30 182,40 143,40 138,35 " id="clusterblast-1_q61_9_2"  />
<polygon style="stroke:black; stroke-width:1; fill:red; " description="unannotated orf[br]Location: 12115 - 13475" locus_tag="CHAFR746836_0049860.1" class="clusterblast-orf" points="198,40 216,40 221,35 216,30 198,30 198,40 " id="clusterblast-1_q61_9_3"  />
<polygon style="stroke:black; stroke-width:1; fill:#FFFFFF; " description="unannotated orf[br]Location: 17223 - 18472" locus_tag="CHAFR746836_0049870.1" class="clusterblast-orf" points="282,40 297,40 302,35 297,30 282,30 282,40 " id="clusterblast-1_q61_9_4"  />
<polygon style="stroke:black; stroke-width:1; fill:#FFFFFF; " description="unannotated orf[br]Location: 19776 - 20599" locus_tag="CHAFR746836_0049880.1" class="clusterblast-orf" points="323,35 328,30 337,30 337,40 328,40 323,35 " id="clusterblast-1_q61_9_5"  />
<polygon style="stroke:black; stroke-width:1; fill:green; " description="unannotated orf[br]Location: 21414 - 28833" locus_tag="CHAFR746836_0049890.1" class="clusterblast-orf" points="350,35 355,30 471,30 471,40 355,40 350,35 " id="clusterblast-1_q61_9_6"  />
<polygon style="stroke:black; stroke-width:1; fill:blue; " description="unannotated orf[br]Location: 33502 - 34522" locus_tag="CHAFR746836_0049900.1" class="clusterblast-orf" points="547,40 559,40 564,35 559,30 547,30 547,40 " id="clusterblast-1_q61_9_7"  />
<polygon style="stroke:black; stroke-width:1; fill:#FFFFFF; " description="unannotated orf[br]Location: 35396 - 36560" locus_tag="CHAFR746836_0049910.1" class="clusterblast-orf" points="578,35 583,30 597,30 597,40 583,40 578,35 " id="clusterblast-1_q61_9_8"  />
<polygon style="stroke:black; stroke-width:1; fill:#FFFFFF; " description="unannotated orf[br]Location: 43480 - 44101" locus_tag="CHAFR746836_0049920.1" class="clusterblast-orf" points="710,35 715,30 720,30 720,40 715,40 710,35 " id="clusterblast-1_q61_9_9"  />
<polygon style="stroke:black; stroke-width:1; fill:#FFFFFF; " description="unannotated orf[br]Location: 46657 - 47620" locus_tag="CHAFR746836_0049930.1" class="clusterblast-orf" points="762,35 767,30 778,30 778,40 767,40 762,35 " id="clusterblast-1_q61_9_10"  />
</g>
<g class="clusterblast-cluster" description="Aspergillus niger ATCC 1015, whole genome shotgun sequen..." label="ACJE01000006.1_c1"  >
<text class="clusterblast-acc" y="60" x="5"  >
ACJE01000006.1_c1</text>
<text class="clusterblast-desc" y="60" x="460.8"  >
Aspergillus niger ATCC 1015, whole genome shotgun sequen...</text>
<line y1="85" x2="778.0" style="stroke:grey; stroke-width:1; " x1="10" y2="85"  />
<polygon style="stroke:black; stroke-width:1; fill:#FFFFFF; " description="hypothetical_protein[br]Location: 1090147 - 1091856" locus_tag="ASPNIDRAFT_42214" id="clusterblast-1_h61_9_0" points="15,90 37,90 42,85 37,80 15,80 15,90 " class="clusterblast-orf"  />
<polygon style="stroke:black; stroke-width:1; fill:#FFFFFF; " description="hypothetical_protein[br]Location: 1088530 - 1089597" locus_tag="ASPNIDRAFT_49590" id="clusterblast-1_h61_9_1" points="51,90 64,90 69,85 64,80 51,80 51,90 " class="clusterblast-orf"  />
<polygon style="stroke:black; stroke-width:1; fill:#FFFFFF; " description="hypothetical_protein[br]Location: 1086130 - 1088158" locus_tag="ASPNIDRAFT_42216" id="clusterblast-1_h61_9_2" points="75,85 80,80 108,80 108,90 80,90 75,85 " class="clusterblast-orf"  />
<polygon style="stroke:black; stroke-width:1; fill:#FFFFFF; " description="hypothetical_protein[br]Location: 1079929 - 1081281" locus_tag="ASPNIDRAFT_49591" id="clusterblast-1_h61_9_3" points="187,85 192,80 209,80 209,90 192,90 187,85 " class="clusterblast-orf"  />
<polygon style="stroke:black; stroke-width:1; fill:#FFFFFF; " description="hypothetical_protein[br]Location: 1078663 - 1079289" locus_tag="ASPNIDRAFT_186516" id="clusterblast-1_h61_9_4" points="219,85 224,80 230,80 230,90 224,90 219,85 " class="clusterblast-orf"  />
<polygon style="stroke:black; stroke-width:1; fill:#FFFFFF; " description="hypothetical_protein[br]Location: 1076169 - 1077370" locus_tag="ASPNIDRAFT_42219" id="clusterblast-1_h61_9_5" points="251,90 265,90 270,85 265,80 251,80 251,90 " class="clusterblast-orf"  />
<polygon style="stroke:black; stroke-width:1; fill:#FFFFFF; " description="hypothetical_protein[br]Location: 1073194 - 1074622" locus_tag="ASPNIDRAFT_42220" id="clusterblast-1_h61_9_6" points="296,90 314,90 319,85 314,80 296,80 296,90 " class="clusterblast-orf"  />
<polygon style="stroke:black; stroke-width:1; fill:green; " description="hypothetical_protein[br]Location: 1065786 - 1072569&lt;br&gt;&lt;br&gt;&lt;b&gt;BlastP hit with CHAFR746836_0049890.1&lt;/b&gt;&lt;br&gt;Percentage identity: 46%&lt;br&gt;Percentage coverage: 90%&lt;br&gt;BLAST bit score: 1808&lt;br&gt;E-value: 0.0" locus_tag="ASPNIDRAFT_118666" id="clusterblast-1_h61_9_7" points="329,85 334,80 440,80 440,90 334,90 329,85 " class="clusterblast-orf"  />
<polygon style="stroke:black; stroke-width:1; fill:blue; " description="hypothetical_protein[br]Location: 1064326 - 1065070&lt;br&gt;&lt;br&gt;&lt;b&gt;BlastP hit with CHAFR746836_0049900.1&lt;/b&gt;&lt;br&gt;Percentage identity: 34%&lt;br&gt;Percentage coverage: 87%&lt;br&gt;BLAST bit score: 118&lt;br&gt;E-value: 2e-30" locus_tag="ASPNIDRAFT_42223" id="clusterblast-1_h61_9_8" points="451,90 458,90 463,85 458,80 451,80 451,90 " class="clusterblast-orf"  />
<polygon style="stroke:black; stroke-width:1; fill:blue; " description="hypothetical_protein[br]Location: 1063115 - 1063890&lt;br&gt;&lt;br&gt;&lt;b&gt;BlastP hit with CHAFR746836_0049900.1&lt;/b&gt;&lt;br&gt;Percentage identity: 31%&lt;br&gt;Percentage coverage: 77%&lt;br&gt;BLAST bit score: 94&lt;br&gt;E-value: 5e-22" locus_tag="ASPNIDRAFT_42224" id="clusterblast-1_h61_9_9" points="471,90 478,90 483,85 478,80 471,80 471,90 " class="clusterblast-orf"  />
<polygon style="stroke:black; stroke-width:1; fill:#FFFFFF; " description="hypothetical_protein[br]Location: 1060276 - 1060824" locus_tag="ASPNIDRAFT_42225" id="clusterblast-1_h61_9_10" points="521,85 526,80 530,80 530,90 526,90 521,85 " class="clusterblast-orf"  />
<polygon style="stroke:black; stroke-width:1; fill:#FFFFFF; " description="hypothetical_protein[br]Location: 1058089 - 1059132" locus_tag="ASPNIDRAFT_186614" id="clusterblast-1_h61_9_11" points="548,90 560,90 565,85 560,80 548,80 548,90 " class="clusterblast-orf"  />
<polygon style="stroke:black; stroke-width:1; fill:#FFFFFF; " description="hypothetical_protein[br]Location: 1053684 - 1056259" locus_tag="ASPNIDRAFT_42227" id="clusterblast-1_h61_9_12" points="595,90 632,90 637,85 632,80 595,80 595,90 " class="clusterblast-orf"  />
<polygon style="stroke:black; stroke-width:1; fill:#FFFFFF; " description="hypothetical_protein[br]Location: 1051631 - 1053086" locus_tag="ASPNIDRAFT_140924" id="clusterblast-1_h61_9_13" points="647,90 665,90 670,85 665,80 647,80 647,90 " class="clusterblast-orf"  />
<polygon style="stroke:black; stroke-width:1; fill:#FFFFFF; " description="hypothetical_protein[br]Location: 1049630 - 1050883" locus_tag="ASPNIDRAFT_186323" id="clusterblast-1_h61_9_14" points="683,85 688,80 703,80 703,90 688,90 683,85 " class="clusterblast-orf"  />
<polygon style="stroke:black; stroke-width:1; fill:#FFFFFF; " description="hypothetical_protein[br]Location: 1047420 - 1048829" locus_tag="ASPNIDRAFT_133118" id="clusterblast-1_h61_9_15" points="716,90 734,90 739,85 734,80 716,80 716,90 " class="clusterblast-orf"  />
<polygon style="stroke:black; stroke-width:1; fill:#FFFFFF; " description="hypothetical_protein[br]Location: 1045450 - 1047167" locus_tag="ASPNIDRAFT_185699" id="clusterblast-1_h61_9_16" points="743,85 748,80 771,80 771,90 748,90 743,85 " class="clusterblast-orf"  />
</g>
</svg>
