<svg xmlns="http://www.w3.org/2000/svg" height="230" width="800" version="1.1" y="0" x="0" preserveAspectRatio="none" xmlns:xlink="http://www.w3.org/1999/xlink" viewBox="0 0 800 230"  >
<g class="clusterblast-cluster" label="Query sequence"  >
<text class="clusterblast-acc" y="10" x="5"  >
Query sequence</text>
<line y1="35" x2="778.0" style="stroke:grey; stroke-width:1; " x1="10" y2="35"  />
<polygon style="stroke:black; stroke-width:1; fill:red; " description="unannotated orf[br]Location: 147728 - 150067" locus_tag="CHAFR746836_0089390.1" class="clusterblast-orf" points="147,35 152,30 182,30 182,40 152,40 147,35 " id="clusterblast-1_q21_3_0"  />
<polygon style="stroke:black; stroke-width:1; fill:green; " description="unannotated orf[br]Location: 150361 - 151620" locus_tag="CHAFR746836_0089400.1" class="clusterblast-orf" points="186,40 200,40 205,35 200,30 186,30 186,40 " id="clusterblast-1_q21_3_1"  />
<polygon style="stroke:black; stroke-width:1; fill:#FFFFFF; " description="unannotated orf[br]Location: 151969 - 153053" locus_tag="CHAFR746836_0089410.1" class="clusterblast-orf" points="210,35 215,30 227,30 227,40 215,40 210,35 " id="clusterblast-1_q21_3_2"  />
<polygon style="stroke:black; stroke-width:1; fill:#FFFFFF; " description="unannotated orf[br]Location: 157887 - 159330" locus_tag="CHAFR746836_0089420.1" class="clusterblast-orf" points="299,35 304,30 321,30 321,40 304,40 299,35 " id="clusterblast-1_q21_3_3"  />
<polygon style="stroke:black; stroke-width:1; fill:#FFFFFF; " description="unannotated orf[br]Location: 160724 - 163324" locus_tag="CHAFR746836_0089430.1" class="clusterblast-orf" points="342,40 376,40 381,35 376,30 342,30 342,40 " id="clusterblast-1_q21_3_4"  />
<polygon style="stroke:black; stroke-width:1; fill:#FFFFFF; " description="unannotated orf[br]Location: 169082 - 169702" locus_tag="CHAFR746836_0089440.1" class="clusterblast-orf" points="468,35 473,30 477,30 477,40 473,40 468,35 " id="clusterblast-1_q21_3_5"  />
<polygon style="stroke:black; stroke-width:1; fill:#FFFFFF; " description="unannotated orf[br]Location: 172361 - 174491" locus_tag="CHAFR746836_0089450.1" class="clusterblast-orf" points="517,35 522,30 549,30 549,40 522,40 517,35 " id="clusterblast-1_q21_3_6"  />
<polygon style="stroke:black; stroke-width:1; fill:blue; " description="unannotated orf[br]Location: 175623 - 180497" locus_tag="CHAFR746836_0089460.1" class="clusterblast-orf" points="566,40 634,40 639,35 634,30 566,30 566,40 " id="clusterblast-1_q21_3_7"  />
</g>
<g class="clusterblast-cluster" description="Pseudoramibacter alactolyticus ATCC 23263 contig00016..." label="NZ_AEQN01000016.1_c1"  >
<text class="clusterblast-acc" y="60" x="5"  >
NZ_AEQN01000016.1_c1</text>
<text class="clusterblast-desc" y="60" x="460.8"  >
Pseudoramibacter alactolyticus ATCC 23263 contig00016...</text>
<line y1="85" x2="778.0" style="stroke:grey; stroke-width:1; " x1="10" y2="85"  />
<polygon style="stroke:black; stroke-width:1; fill:#FFFFFF; " description="3-methyl-2-oxobutanoate_dehydrogenase[br]Location: 257196 - 257363" locus_tag="HMP0721_1187" id="clusterblast-1_h21_3_0" points="10,85 12,80 12,90 10,85 " class="clusterblast-orf"  />
<polygon style="stroke:black; stroke-width:1; fill:#FFFFFF; " description="conserved_hypothetical_protein[br]Location: 257429 - 258166" locus_tag="HMP0721_1188" id="clusterblast-1_h21_3_1" points="13,85 18,80 24,80 24,90 18,90 13,85 " class="clusterblast-orf"  />
<polygon style="stroke:black; stroke-width:1; fill:#FFFFFF; " description="adenylosuccinate_lyase[br]Location: 258218 - 259654" locus_tag="HMP0721_1189" id="clusterblast-1_h21_3_2" points="25,85 30,80 46,80 46,90 30,90 25,85 " class="clusterblast-orf"  />
<polygon style="stroke:black; stroke-width:1; fill:#FFFFFF; " description="uracil_phosphoribosyltransferase[br]Location: 259674 - 260360" locus_tag="HMP0721_1190" id="clusterblast-1_h21_3_3" points="47,85 52,80 57,80 57,90 52,90 47,85 " class="clusterblast-orf"  />
<polygon style="stroke:black; stroke-width:1; fill:#FFFFFF; " description="aspartate_transaminase[br]Location: 260426 - 261634" locus_tag="HMP0721_1191" id="clusterblast-1_h21_3_4" points="58,85 63,80 76,80 76,90 63,90 58,85 " class="clusterblast-orf"  />
<polygon style="stroke:black; stroke-width:1; fill:#FFFFFF; " description="Ser/Thr_protein_phosphatase[br]Location: 261631 - 262437" locus_tag="HMP0721_1192" id="clusterblast-1_h21_3_5" points="76,85 81,80 88,80 88,90 81,90 76,85 " class="clusterblast-orf"  />
<polygon style="stroke:black; stroke-width:1; fill:#FFFFFF; " description="2',3'-cyclic-nucleotide_2'-phosphodiesterase[br]Location: 262492 - 264024" locus_tag="HMP0721_1193" id="clusterblast-1_h21_3_6" points="89,85 94,80 112,80 112,90 94,90 89,85 " class="clusterblast-orf"  />
<polygon style="stroke:black; stroke-width:1; fill:#FFFFFF; " description="hypothetical_protein[br]Location: 264063 - 264224" locus_tag="HMP0721_1194" id="clusterblast-1_h21_3_7" points="113,85 115,80 115,90 113,85 " class="clusterblast-orf"  />
<polygon style="stroke:black; stroke-width:1; fill:#FFFFFF; " description="DMT_superfamily_drug/metabolite_transporter[br]Location: 264451 - 265368" locus_tag="HMP0721_1195" id="clusterblast-1_h21_3_8" points="119,90 127,90 132,85 127,80 119,80 119,90 " class="clusterblast-orf"  />
<polygon style="stroke:black; stroke-width:1; fill:#FFFFFF; " description="conserved_hypothetical_protein[br]Location: 265422 - 266069" locus_tag="HMP0721_1196" id="clusterblast-1_h21_3_9" points="133,90 138,90 143,85 138,80 133,80 133,90 " class="clusterblast-orf"  />
<polygon style="stroke:black; stroke-width:1; fill:#FFFFFF; " description="esterase[br]Location: 266023 - 266478" locus_tag="HMP0721_1197" id="clusterblast-1_h21_3_10" points="142,85 147,80 149,80 149,90 147,90 142,85 " class="clusterblast-orf"  />
<polygon style="stroke:black; stroke-width:1; fill:#FFFFFF; " description="pyridoxamine_5'-phosphate_oxidase[br]Location: 266475 - 266990" locus_tag="HMP0721_1198" id="clusterblast-1_h21_3_11" points="149,85 154,80 157,80 157,90 154,90 149,85 " class="clusterblast-orf"  />
<polygon style="stroke:black; stroke-width:1; fill:#FFFFFF; " description="conserved_hypothetical_protein[br]Location: 266992 - 268395" locus_tag="HMP0721_1199" id="clusterblast-1_h21_3_12" points="157,85 162,80 178,80 178,90 162,90 157,85 " class="clusterblast-orf"  />
<polygon style="stroke:black; stroke-width:1; fill:#FFFFFF; " description="conserved_hypothetical_protein[br]Location: 268568 - 269584" locus_tag="HMP0721_1200" id="clusterblast-1_h21_3_13" points="181,90 191,90 196,85 191,80 181,80 181,90 " class="clusterblast-orf"  />
<polygon style="stroke:black; stroke-width:1; fill:#FFFFFF; " description="peptide-methionine_(S)-S-oxide_reductase[br]Location: 269632 - 270576" locus_tag="HMP0721_1201" id="clusterblast-1_h21_3_14" points="197,90 206,90 211,85 206,80 197,80 197,90 " class="clusterblast-orf"  />
<polygon style="stroke:black; stroke-width:1; fill:#FFFFFF; " description="conserved_hypothetical_protein[br]Location: 270549 - 270707" locus_tag="HMP0721_1202" id="clusterblast-1_h21_3_15" points="210,85 213,80 213,90 210,85 " class="clusterblast-orf"  />
<polygon style="stroke:black; stroke-width:1; fill:#FFFFFF; " description="phenylacetate-CoA_ligase[br]Location: 270700 - 272121" locus_tag="HMP0721_1203" id="clusterblast-1_h21_3_16" points="213,85 218,80 234,80 234,90 218,90 213,85 " class="clusterblast-orf"  />
<polygon style="stroke:black; stroke-width:1; fill:#FFFFFF; " description="conserved_hypothetical_protein[br]Location: 272336 - 272518" locus_tag="HMP0721_1204" id="clusterblast-1_h21_3_17" points="237,85 240,80 240,90 237,85 " class="clusterblast-orf"  />
<polygon style="stroke:black; stroke-width:1; fill:#FFFFFF; " description="AMP-binding_enzyme_family_protein[br]Location: 272520 - 274034" locus_tag="HMP0721_1205" id="clusterblast-1_h21_3_18" points="240,85 245,80 263,80 263,90 245,90 240,85 " class="clusterblast-orf"  />
<polygon style="stroke:black; stroke-width:1; fill:#FFFFFF; " description="permease[br]Location: 274092 - 276338" locus_tag="HMP0721_1206" id="clusterblast-1_h21_3_19" points="264,85 269,80 297,80 297,90 269,90 264,85 " class="clusterblast-orf"  />
<polygon style="stroke:black; stroke-width:1; fill:#FFFFFF; " description="ABC_superfamily_ATP_binding_cassette[br]Location: 276357 - 277055" locus_tag="HMP0721_1207" id="clusterblast-1_h21_3_20" points="298,85 303,80 308,80 308,90 303,90 298,85 " class="clusterblast-orf"  />
<polygon style="stroke:black; stroke-width:1; fill:blue; " description="conserved_hypothetical_protein[br]Location: 277119 - 286796&lt;br&gt;&lt;br&gt;&lt;b&gt;BlastP hit with CHAFR746836_0089460.1&lt;/b&gt;&lt;br&gt;Percentage identity: 33%&lt;br&gt;Percentage coverage: 11%&lt;br&gt;BLAST bit score: 93&lt;br&gt;E-value: 1e-17" locus_tag="HMP0721_1208" id="clusterblast-1_h21_3_21" points="309,85 314,80 455,80 455,90 314,90 309,85 " class="clusterblast-orf"  />
<polygon style="stroke:black; stroke-width:1; fill:#FFFFFF; " description="oleoyl-[acyl-carrier-protein]_hydrolase[br]Location: 286793 - 287512" locus_tag="HMP0721_1209" id="clusterblast-1_h21_3_22" points="455,85 460,80 465,80 465,90 460,90 455,85 " class="clusterblast-orf"  />
<polygon style="stroke:black; stroke-width:1; fill:#FFFFFF; " description="AMP-dependent_synthetase_and_ligase[br]Location: 287509 - 288810" locus_tag="HMP0721_1210" id="clusterblast-1_h21_3_23" points="465,85 470,80 485,80 485,90 470,90 465,85 " class="clusterblast-orf"  />
<polygon style="stroke:black; stroke-width:1; fill:#FFFFFF; " description="radical_SAM_domain_protein[br]Location: 288825 - 290120" locus_tag="HMP0721_1211" id="clusterblast-1_h21_3_24" points="485,85 490,80 505,80 505,90 490,90 485,85 " class="clusterblast-orf"  />
<polygon style="stroke:black; stroke-width:1; fill:#FFFFFF; " description="thioesterase[br]Location: 290125 - 290955" locus_tag="HMP0721_1212" id="clusterblast-1_h21_3_25" points="505,85 510,80 517,80 517,90 510,90 505,85 " class="clusterblast-orf"  />
<polygon style="stroke:black; stroke-width:1; fill:#FFFFFF; " description="conserved_hypothetical_protein[br]Location: 290952 - 291191" locus_tag="HMP0721_1213" id="clusterblast-1_h21_3_26" points="517,85 521,80 521,90 517,85 " class="clusterblast-orf"  />
<polygon style="stroke:black; stroke-width:1; fill:#FFFFFF; " description="conserved_hypothetical_protein[br]Location: 291192 - 291431" locus_tag="HMP0721_1214" id="clusterblast-1_h21_3_27" points="521,85 524,80 524,90 521,85 " class="clusterblast-orf"  />
<polygon style="stroke:black; stroke-width:1; fill:#FFFFFF; " description="hypothetical_protein[br]Location: 291450 - 291584" locus_tag="HMP0721_1215" id="clusterblast-1_h21_3_28" points="525,85 527,80 527,90 525,85 " class="clusterblast-orf"  />
<polygon style="stroke:black; stroke-width:1; fill:#FFFFFF; " description="conserved_hypothetical_protein[br]Location: 291992 - 294250" locus_tag="HMP0721_1216" id="clusterblast-1_h21_3_29" points="533,85 538,80 567,80 567,90 538,90 533,85 " class="clusterblast-orf"  />
<polygon style="stroke:black; stroke-width:1; fill:#FFFFFF; " description="NADPH-dependent_butanol_dehydrogenase[br]Location: 294295 - 295464" locus_tag="HMP0721_1217" id="clusterblast-1_h21_3_30" points="567,85 572,80 585,80 585,90 572,90 567,85 " class="clusterblast-orf"  />
<polygon style="stroke:black; stroke-width:1; fill:#FFFFFF; " description="conserved_hypothetical_protein[br]Location: 295555 - 295692" locus_tag="HMP0721_1218" id="clusterblast-1_h21_3_31" points="586,85 588,80 588,90 586,85 " class="clusterblast-orf"  />
<polygon style="stroke:black; stroke-width:1; fill:#FFFFFF; " description="NUDIX_family_hydrolase[br]Location: 295999 - 296667" locus_tag="HMP0721_1219" id="clusterblast-1_h21_3_32" points="593,85 598,80 603,80 603,90 598,90 593,85 " class="clusterblast-orf"  />
<polygon style="stroke:black; stroke-width:1; fill:#FFFFFF; " description="superoxide_reductase[br]Location: 296795 - 297172" locus_tag="HMP0721_1220" id="clusterblast-1_h21_3_33" points="605,90 606,90 611,85 606,80 605,80 605,90 " class="clusterblast-orf"  />
<polygon style="stroke:black; stroke-width:1; fill:red; " description="DEAD/DEAH_family_ATP-dependent_RNA_helicase[br]Location: 297319 - 298971&lt;br&gt;&lt;br&gt;&lt;b&gt;BlastP hit with CHAFR746836_0089390.1&lt;/b&gt;&lt;br&gt;Percentage identity: 33%&lt;br&gt;Percentage coverage: 52%&lt;br&gt;BLAST bit score: 191&lt;br&gt;E-value: 5e-51" locus_tag="HMP0721_1221" id="clusterblast-1_h21_3_34" points="613,85 618,80 638,80 638,90 618,90 613,85 " class="clusterblast-orf"  />
<polygon style="stroke:black; stroke-width:1; fill:#FFFFFF; " description="conserved_hypothetical_protein[br]Location: 299068 - 299727" locus_tag="HMP0721_1222" id="clusterblast-1_h21_3_35" points="639,85 644,80 649,80 649,90 644,90 639,85 " class="clusterblast-orf"  />
<polygon style="stroke:black; stroke-width:1; fill:#FFFFFF; " description="group_2_glycosyl_transferase[br]Location: 300017 - 301267" locus_tag="HMP0721_1223" id="clusterblast-1_h21_3_36" points="653,90 667,90 672,85 667,80 653,80 653,90 " class="clusterblast-orf"  />
<polygon style="stroke:black; stroke-width:1; fill:#FFFFFF; " description="conserved_hypothetical_protein[br]Location: 301458 - 303200" locus_tag="HMP0721_1224" id="clusterblast-1_h21_3_37" points="675,85 680,80 701,80 701,90 680,90 675,85 " class="clusterblast-orf"  />
<polygon style="stroke:black; stroke-width:1; fill:#FFFFFF; " description="conserved_hypothetical_protein[br]Location: 303463 - 304872" locus_tag="HMP0721_1225" id="clusterblast-1_h21_3_38" points="705,90 721,90 726,85 721,80 705,80 705,90 " class="clusterblast-orf"  />
<polygon style="stroke:black; stroke-width:1; fill:#FFFFFF; " description="conserved_hypothetical_protein[br]Location: 304925 - 305479" locus_tag="HMP0721_1226" id="clusterblast-1_h21_3_39" points="727,85 732,80 736,80 736,90 732,90 727,85 " class="clusterblast-orf"  />
<polygon style="stroke:black; stroke-width:1; fill:#FFFFFF; " description="flavodoxin[br]Location: 305516 - 305947" locus_tag="HMP0721_1227" id="clusterblast-1_h21_3_40" points="736,85 741,80 743,80 743,90 741,90 736,85 " class="clusterblast-orf"  />
<polygon style="stroke:black; stroke-width:1; fill:#FFFFFF; " description="conserved_hypothetical_protein[br]Location: 305940 - 306068" locus_tag="HMP0721_1228" id="clusterblast-1_h21_3_41" points="743,85 744,80 744,90 743,85 " class="clusterblast-orf"  />
<polygon style="stroke:black; stroke-width:1; fill:#FFFFFF; " description="heavy_metal_translocating_P-type_ATPase[br]Location: 306174 - 308264" locus_tag="HMP0721_1229" id="clusterblast-1_h21_3_42" points="746,85 751,80 778,80 778,90 751,90 746,85 " class="clusterblast-orf"  />
</g>
</svg>
