<svg xmlns="http://www.w3.org/2000/svg" height="230" width="800" version="1.1" y="0" x="0" preserveAspectRatio="none" xmlns:xlink="http://www.w3.org/1999/xlink" viewBox="0 0 800 230"  >
<g class="clusterblast-cluster" label="Query sequence"  >
<text class="clusterblast-acc" y="10" x="5"  >
Query sequence</text>
<line y1="35" x2="778.0" style="stroke:grey; stroke-width:1; " x1="10" y2="35"  />
<polygon style="stroke:black; stroke-width:1; fill:#FFFFFF; " description="unannotated orf[br]Location: 7918 - 9403" locus_tag="CHAFR746836_0043710.1" class="clusterblast-orf" points="117,40 137,40 142,35 137,30 117,30 117,40 " id="clusterblast-1_q54_1_0"  />
<polygon style="stroke:black; stroke-width:1; fill:rgb(169,42,42); " description="unannotated orf[br]Location: 10656 - 11541" locus_tag="CHAFR746836_0043720.1" class="clusterblast-orf" points="163,35 168,30 178,30 178,40 168,40 163,35 " id="clusterblast-1_q54_1_1"  />
<polygon style="stroke:black; stroke-width:1; fill:rgb(42,169,42); " description="unannotated orf[br]Location: 13140 - 14726" locus_tag="CHAFR746836_0043730.1" class="clusterblast-orf" points="205,40 227,40 232,35 227,30 205,30 205,40 " id="clusterblast-1_q54_1_2"  />
<polygon style="stroke:black; stroke-width:1; fill:#FFFFFF; " description="unannotated orf[br]Location: 14976 - 15545" locus_tag="CHAFR746836_0043740.1" class="clusterblast-orf" points="236,35 241,30 246,30 246,40 241,40 236,35 " id="clusterblast-1_q54_1_3"  />
<polygon style="stroke:black; stroke-width:1; fill:rgb(42,169,212); " description="unannotated orf[br]Location: 16433 - 17294" locus_tag="CHAFR746836_0043750.1" class="clusterblast-orf" points="261,40 270,40 275,35 270,30 261,30 261,40 " id="clusterblast-1_q54_1_4"  />
<polygon style="stroke:black; stroke-width:1; fill:rgb(169,169,42); " description="unannotated orf[br]Location: 17728 - 18694" locus_tag="CHAFR746836_0043760.1" class="clusterblast-orf" points="283,40 294,40 299,35 294,30 283,30 283,40 " id="clusterblast-1_q54_1_5"  />
<polygon style="stroke:black; stroke-width:1; fill:#FFFFFF; " description="unannotated orf[br]Location: 19149 - 19718" locus_tag="CHAFR746836_0043770.1" class="clusterblast-orf" points="307,35 312,30 316,30 316,40 312,40 307,35 " id="clusterblast-1_q54_1_6"  />
<polygon style="stroke:black; stroke-width:1; fill:rgb(169,42,127); " description="unannotated orf[br]Location: 20132 - 21930" locus_tag="CHAFR746836_0043780.1" class="clusterblast-orf" points="323,40 349,40 354,35 349,30 323,30 323,40 " id="clusterblast-1_q54_1_7"  />
<polygon style="stroke:black; stroke-width:1; fill:#FFFFFF; " description="unannotated orf[br]Location: 22653 - 24219" locus_tag="CHAFR746836_0043790.1" class="clusterblast-orf" points="366,35 371,30 393,30 393,40 371,40 366,35 " id="clusterblast-1_q54_1_8"  />
<polygon style="stroke:black; stroke-width:1; fill:rgb(42,42,212); " description="unannotated orf[br]Location: 25134 - 26929" locus_tag="CHAFR746836_0043800.1" class="clusterblast-orf" points="408,40 433,40 438,35 433,30 408,30 408,40 " id="clusterblast-1_q54_1_9"  />
<polygon style="stroke:black; stroke-width:1; fill:rgb(169,169,212); " description="unannotated orf[br]Location: 28053 - 29459" locus_tag="CHAFR746836_0043810.1" class="clusterblast-orf" points="458,40 476,40 481,35 476,30 458,30 458,40 " id="clusterblast-1_q54_1_10"  />
<polygon style="stroke:black; stroke-width:1; fill:#FFFFFF; " description="unannotated orf[br]Location: 30463 - 31516" locus_tag="CHAFR746836_0043820.1" class="clusterblast-orf" points="498,35 503,30 516,30 516,40 503,40 498,35 " id="clusterblast-1_q54_1_11"  />
<polygon style="stroke:black; stroke-width:1; fill:rgb(42,169,127); " description="unannotated orf[br]Location: 32618 - 34109" locus_tag="CHAFR746836_0043830.1" class="clusterblast-orf" points="535,35 540,30 560,30 560,40 540,40 535,35 " id="clusterblast-1_q54_1_12"  />
<polygon style="stroke:black; stroke-width:1; fill:rgb(169,42,212); " description="unannotated orf[br]Location: 37073 - 38965" locus_tag="CHAFR746836_0043840.1" class="clusterblast-orf" points="610,35 615,30 642,30 642,40 615,40 610,35 " id="clusterblast-1_q54_1_13"  />
<polygon style="stroke:black; stroke-width:1; fill:#FFFFFF; " description="unannotated orf[br]Location: 39447 - 40529" locus_tag="CHAFR746836_0043850.1" class="clusterblast-orf" points="650,40 664,40 669,35 664,30 650,30 650,40 " id="clusterblast-1_q54_1_14"  />
</g>
<g class="clusterblast-cluster" description="Frankia sp. EuI1c chromosome, complete genome." label="NC_014666.1_c17"  >
<text class="clusterblast-acc" y="60" x="5"  >
NC_014666.1_c17</text>
<text class="clusterblast-desc" y="60" x="460.8"  >
Frankia sp. EuI1c chromosome, complete genome.</text>
<line y1="85" x2="778.0" style="stroke:grey; stroke-width:1; " x1="10" y2="85"  />
<polygon style="stroke:black; stroke-width:1; fill:#FFFFFF; " description="short-chain_dehydrogenase/reductase_SDR[br]Location: 6586083 - 6586838" locus_tag="FraEuI1c_5361" id="clusterblast-1_h54_1_0" points="10,90 17,90 22,85 17,80 10,80 10,90 " class="clusterblast-orf"  />
<polygon style="stroke:black; stroke-width:1; fill:rgb(42,169,212); " description="short-chain_dehydrogenase/reductase_SDR[br]Location: 6585222 - 6585959&lt;br&gt;&lt;br&gt;&lt;b&gt;BlastP hit with CHAFR746836_0043750.1&lt;/b&gt;&lt;br&gt;Percentage identity: 33%&lt;br&gt;Percentage coverage: 77%&lt;br&gt;BLAST bit score: 83&lt;br&gt;E-value: 1e-17" locus_tag="FraEuI1c_5360" id="clusterblast-1_h54_1_1" points="24,90 32,90 37,85 32,80 24,80 24,90 " class="clusterblast-orf"  />
<polygon style="stroke:black; stroke-width:1; fill:#FFFFFF; " description="extracellular_ligand-binding_receptor[br]Location: 6583885 - 6585132" locus_tag="FraEuI1c_5359" id="clusterblast-1_h54_1_2" points="38,85 43,80 60,80 60,90 43,90 38,85 " class="clusterblast-orf"  />
<polygon style="stroke:black; stroke-width:1; fill:#FFFFFF; " description="AMP-dependent_synthetase_and_ligase[br]Location: 6581948 - 6583615" locus_tag="FraEuI1c_5358" id="clusterblast-1_h54_1_3" points="64,85 69,80 92,80 92,90 69,90 64,85 " class="clusterblast-orf"  />
<polygon style="stroke:black; stroke-width:1; fill:#FFFFFF; " description="monooxygenase_FAD-binding_protein[br]Location: 6580039 - 6581772" locus_tag="FraEuI1c_5357" id="clusterblast-1_h54_1_4" points="95,90 120,90 125,85 120,80 95,80 95,90 " class="clusterblast-orf"  />
<polygon style="stroke:black; stroke-width:1; fill:#FFFFFF; " description="alpha/beta_hydrolase_fold_protein[br]Location: 6579194 - 6580042" locus_tag="FraEuI1c_5356" id="clusterblast-1_h54_1_5" points="125,90 134,90 139,85 134,80 125,80 125,90 " class="clusterblast-orf"  />
<polygon style="stroke:black; stroke-width:1; fill:#FFFFFF; " description="2-oxopent-4-enoate_hydratase[br]Location: 6578376 - 6579197" locus_tag="FraEuI1c_5355" id="clusterblast-1_h54_1_6" points="139,90 148,90 153,85 148,80 139,80 139,90 " class="clusterblast-orf"  />
<polygon style="stroke:black; stroke-width:1; fill:#FFFFFF; " description="acetaldehyde_dehydrogenase_(acetylating)[br]Location: 6577414 - 6578370" locus_tag="FraEuI1c_5354" id="clusterblast-1_h54_1_7" points="153,90 164,90 169,85 164,80 153,80 153,90 " class="clusterblast-orf"  />
<polygon style="stroke:black; stroke-width:1; fill:#FFFFFF; " description="4-hydroxy-2-oxovalerate_aldolase[br]Location: 6576350 - 6577414" locus_tag="FraEuI1c_5353" id="clusterblast-1_h54_1_8" points="169,90 182,90 187,85 182,80 169,80 169,90 " class="clusterblast-orf"  />
<polygon style="stroke:black; stroke-width:1; fill:#FFFFFF; " description="IclR_family_transcriptional_regulator[br]Location: 6575581 - 6576303" locus_tag="FraEuI1c_5352" id="clusterblast-1_h54_1_9" points="188,90 195,90 200,85 195,80 188,80 188,90 " class="clusterblast-orf"  />
<polygon style="stroke:black; stroke-width:1; fill:#FFFFFF; " description="fumarate_reductase/succinate_dehydrogenase[br]Location: 6573689 - 6575344" locus_tag="FraEuI1c_5351" id="clusterblast-1_h54_1_10" points="204,90 227,90 232,85 227,80 204,80 204,90 " class="clusterblast-orf"  />
<polygon style="stroke:black; stroke-width:1; fill:#FFFFFF; " description="Flavin-containing_monooxygenase-like_protein[br]Location: 6571851 - 6573647" locus_tag="FraEuI1c_5350" id="clusterblast-1_h54_1_11" points="233,90 258,90 263,85 258,80 233,80 233,90 " class="clusterblast-orf"  />
<polygon style="stroke:black; stroke-width:1; fill:rgb(169,169,42); " description="lipase[br]Location: 6570702 - 6571706&lt;br&gt;&lt;br&gt;&lt;b&gt;BlastP hit with CHAFR746836_0043760.1&lt;/b&gt;&lt;br&gt;Percentage identity: 33%&lt;br&gt;Percentage coverage: 82%&lt;br&gt;BLAST bit score: 99&lt;br&gt;E-value: 1e-22" locus_tag="FraEuI1c_5349" id="clusterblast-1_h54_1_12" points="266,90 278,90 283,85 278,80 266,80 266,90 " class="clusterblast-orf"  />
<polygon style="stroke:black; stroke-width:1; fill:#FFFFFF; " description="hypothetical_protein[br]Location: 6570215 - 6570517" locus_tag="FraEuI1c_5348" id="clusterblast-1_h54_1_13" points="286,85 291,80 291,80 291,90 291,90 286,85 " class="clusterblast-orf"  />
<polygon style="stroke:black; stroke-width:1; fill:#FFFFFF; " description="regulatory_protein_ArsR[br]Location: 6569848 - 6570213" locus_tag="FraEuI1c_5347" id="clusterblast-1_h54_1_14" points="291,85 296,80 297,80 297,90 296,90 291,85 " class="clusterblast-orf"  />
<polygon style="stroke:black; stroke-width:1; fill:#FFFFFF; " description="NB-ARC_domain_protein[br]Location: 6566470 - 6569691" locus_tag="FraEuI1c_5346" id="clusterblast-1_h54_1_15" points="300,90 349,90 354,85 349,80 300,80 300,90 " class="clusterblast-orf"  />
<polygon style="stroke:black; stroke-width:1; fill:#FFFFFF; " description="thioester_reductase_domain_protein[br]Location: 6562913 - 6566443" locus_tag="FraEuI1c_5345" id="clusterblast-1_h54_1_16" points="355,85 360,80 415,80 415,90 360,90 355,85 " class="clusterblast-orf"  />
<polygon style="stroke:black; stroke-width:1; fill:#FFFFFF; " description="Ethyl_tert-butyl_ether_degradation_EthD[br]Location: 6562321 - 6562680" locus_tag="FraEuI1c_5344" id="clusterblast-1_h54_1_17" points="419,90 420,90 425,85 420,80 419,80 419,90 " class="clusterblast-orf"  />
<polygon style="stroke:black; stroke-width:1; fill:#FFFFFF; " description="alcohol_dehydrogenase_zinc-binding_domain[br]Location: 6561356 - 6562321" locus_tag="FraEuI1c_5343" id="clusterblast-1_h54_1_18" points="425,90 436,90 441,85 436,80 425,80 425,90 " class="clusterblast-orf"  />
<polygon style="stroke:black; stroke-width:1; fill:#FFFFFF; " description="TetR_family_transcriptional_regulator[br]Location: 6560482 - 6561159" locus_tag="FraEuI1c_5342" id="clusterblast-1_h54_1_19" points="444,90 451,90 456,85 451,80 444,80 444,90 " class="clusterblast-orf"  />
<polygon style="stroke:black; stroke-width:1; fill:#FFFFFF; " description="lipolytic_protein_G-D-S-L_family[br]Location: 6559607 - 6560485" locus_tag="FraEuI1c_5341" id="clusterblast-1_h54_1_20" points="456,85 461,80 471,80 471,90 461,90 456,85 " class="clusterblast-orf"  />
<polygon style="stroke:black; stroke-width:1; fill:#FFFFFF; " description="TetR_family_transcriptional_regulator[br]Location: 6558703 - 6559467" locus_tag="FraEuI1c_5340" id="clusterblast-1_h54_1_21" points="473,90 481,90 486,85 481,80 473,80 473,90 " class="clusterblast-orf"  />
<polygon style="stroke:black; stroke-width:1; fill:#FFFFFF; " description="3-carboxyethylcatechol_2,3-dioxygenase[br]Location: 6557671 - 6558609" locus_tag="FraEuI1c_5339" id="clusterblast-1_h54_1_22" points="488,85 493,80 503,80 503,90 493,90 488,85 " class="clusterblast-orf"  />
<polygon style="stroke:black; stroke-width:1; fill:#FFFFFF; " description="MarR_family_transcriptional_regulator[br]Location: 6557157 - 6557714" locus_tag="FraEuI1c_5338" id="clusterblast-1_h54_1_23" points="503,85 508,80 512,80 512,90 508,90 503,85 " class="clusterblast-orf"  />
<polygon style="stroke:black; stroke-width:1; fill:#FFFFFF; " description="amidohydrolase_2[br]Location: 6555840 - 6557087" locus_tag="FraEuI1c_5337" id="clusterblast-1_h54_1_24" points="513,85 518,80 534,80 534,90 518,90 513,85 " class="clusterblast-orf"  />
<polygon style="stroke:black; stroke-width:1; fill:#FFFFFF; " description="acyl-CoA_dehydrogenase_domain-containing[br]Location: 6554539 - 6555699" locus_tag="FraEuI1c_5336" id="clusterblast-1_h54_1_25" points="537,85 542,80 557,80 557,90 542,90 537,85 " class="clusterblast-orf"  />
<polygon style="stroke:black; stroke-width:1; fill:#FFFFFF; " description="dehydrogenase_E1_component[br]Location: 6552323 - 6554293" locus_tag="FraEuI1c_5335" id="clusterblast-1_h54_1_26" points="561,90 589,90 594,85 589,80 561,80 561,90 " class="clusterblast-orf"  />
<polygon style="stroke:black; stroke-width:1; fill:rgb(169,42,212); " description="cytochrome_P450[br]Location: 6550849 - 6552123&lt;br&gt;&lt;br&gt;&lt;b&gt;BlastP hit with CHAFR746836_0043840.1&lt;/b&gt;&lt;br&gt;Percentage identity: 35%&lt;br&gt;Percentage coverage: 21%&lt;br&gt;BLAST bit score: 57&lt;br&gt;E-value: 2e-07" locus_tag="FraEuI1c_5334" id="clusterblast-1_h54_1_27" points="597,90 614,90 619,85 614,80 597,80 597,90 " class="clusterblast-orf"  />
<polygon style="stroke:black; stroke-width:1; fill:#FFFFFF; " description="ferredoxin[br]Location: 6550624 - 6550818" locus_tag="FraEuI1c_5333" id="clusterblast-1_h54_1_28" points="620,90 623,85 620,80 620,90 " class="clusterblast-orf"  />
<polygon style="stroke:black; stroke-width:1; fill:#FFFFFF; " description="enoyl-CoA_hydratase/isomerase[br]Location: 6549846 - 6550631" locus_tag="FraEuI1c_5332" id="clusterblast-1_h54_1_29" points="623,90 631,90 636,85 631,80 623,80 623,90 " class="clusterblast-orf"  />
<polygon style="stroke:black; stroke-width:1; fill:#FFFFFF; " description="short-chain_dehydrogenase/reductase_SDR[br]Location: 6549067 - 6549849" locus_tag="FraEuI1c_5331" id="clusterblast-1_h54_1_30" points="636,90 644,90 649,85 644,80 636,80 636,90 " class="clusterblast-orf"  />
<polygon style="stroke:black; stroke-width:1; fill:#FFFFFF; " description="short-chain_dehydrogenase/reductase_SDR[br]Location: 6548313 - 6549059" locus_tag="FraEuI1c_5330" id="clusterblast-1_h54_1_31" points="649,90 657,90 662,85 657,80 649,80 649,90 " class="clusterblast-orf"  />
<polygon style="stroke:black; stroke-width:1; fill:#FFFFFF; " description="TetR_family_transcriptional_regulator[br]Location: 6547639 - 6548328" locus_tag="FraEuI1c_5329" id="clusterblast-1_h54_1_32" points="662,85 667,80 673,80 673,90 667,90 662,85 " class="clusterblast-orf"  />
<polygon style="stroke:black; stroke-width:1; fill:#FFFFFF; " description="hypothetical_protein[br]Location: 6546396 - 6547445" locus_tag="FraEuI1c_5328" id="clusterblast-1_h54_1_33" points="677,90 689,90 694,85 689,80 677,80 677,90 " class="clusterblast-orf"  />
<polygon style="stroke:black; stroke-width:1; fill:#FFFFFF; " description="cytochrome_P450[br]Location: 6544931 - 6546202" locus_tag="FraEuI1c_5327" id="clusterblast-1_h54_1_34" points="698,85 703,80 719,80 719,90 703,90 698,85 " class="clusterblast-orf"  />
<polygon style="stroke:black; stroke-width:1; fill:#FFFFFF; " description="AMP-dependent_synthetase_and_ligase[br]Location: 6543319 - 6544851" locus_tag="FraEuI1c_5326" id="clusterblast-1_h54_1_35" points="721,85 726,80 747,80 747,90 726,90 721,85 " class="clusterblast-orf"  />
<polygon style="stroke:black; stroke-width:1; fill:rgb(42,42,212); " description="Phenylacetone_monooxygenase[br]Location: 6541492 - 6543075&lt;br&gt;&lt;br&gt;&lt;b&gt;BlastP hit with CHAFR746836_0043800.1&lt;/b&gt;&lt;br&gt;Percentage identity: 31%&lt;br&gt;Percentage coverage: 91%&lt;br&gt;BLAST bit score: 288&lt;br&gt;E-value: 4e-88" locus_tag="FraEuI1c_5325" id="clusterblast-1_h54_1_36" points="751,90 773,90 778,85 773,80 751,80 751,90 " class="clusterblast-orf"  />
</g>
</svg>
