<svg xmlns="http://www.w3.org/2000/svg" height="230" width="800" version="1.1" y="0" x="0" preserveAspectRatio="none" xmlns:xlink="http://www.w3.org/1999/xlink" viewBox="0 0 800 230"  >
<g class="clusterblast-cluster" label="Query sequence"  >
<text class="clusterblast-acc" y="10" x="5"  >
Query sequence</text>
<line y1="35" x2="778.0" style="stroke:grey; stroke-width:1; " x1="10" y2="35"  />
<polygon style="stroke:black; stroke-width:1; fill:rgb(190,63,63); " description="unannotated orf[br]Location: 272 - 1577" locus_tag="CHAFR746836_0058790.1" class="clusterblast-orf" points="67,40 71,40 76,35 71,30 67,30 67,40 " id="clusterblast-1_q3_4_0"  />
<polygon style="stroke:black; stroke-width:1; fill:#FFFFFF; " description="unannotated orf[br]Location: 1879 - 3966" locus_tag="CHAFR746836_0058800.1" class="clusterblast-orf" points="78,35 83,30 93,30 93,40 83,40 78,35 " id="clusterblast-1_q3_4_1"  />
<polygon style="stroke:black; stroke-width:1; fill:rgb(63,63,190); " description="unannotated orf[br]Location: 20578 - 22096" locus_tag="CHAFR746836_0058810.1" class="clusterblast-orf" points="213,35 218,30 224,30 224,40 218,40 213,35 " id="clusterblast-1_q3_4_2"  />
<polygon style="stroke:black; stroke-width:1; fill:rgb(63,190,63); " description="unannotated orf[br]Location: 25478 - 26482" locus_tag="CHAFR746836_0058820.1" class="clusterblast-orf" points="249,40 251,40 256,35 251,30 249,30 249,40 " id="clusterblast-1_q3_4_3"  />
<polygon style="stroke:black; stroke-width:1; fill:#FFFFFF; " description="unannotated orf[br]Location: 45229 - 46910" locus_tag="CHAFR746836_0058830.1" class="clusterblast-orf" points="392,40 399,40 404,35 399,30 392,30 392,40 " id="clusterblast-1_q3_4_4"  />
<polygon style="stroke:black; stroke-width:1; fill:#FFFFFF; " description="unannotated orf[br]Location: 51364 - 52222" locus_tag="CHAFR746836_0058840.1" class="clusterblast-orf" points="436,35 441,30 442,30 442,40 441,40 436,35 " id="clusterblast-1_q3_4_5"  />
<polygon style="stroke:black; stroke-width:1; fill:#FFFFFF; " description="unannotated orf[br]Location: 53027 - 54066" locus_tag="CHAFR746836_0058850.1" class="clusterblast-orf" points="448,40 451,40 456,35 451,30 448,30 448,40 " id="clusterblast-1_q3_4_6"  />
<polygon style="stroke:black; stroke-width:1; fill:rgb(190,63,190); " description="unannotated orf[br]Location: 55805 - 57189" locus_tag="CHAFR746836_0058860.1" class="clusterblast-orf" points="468,35 473,30 478,30 478,40 473,40 468,35 " id="clusterblast-1_q3_4_7"  />
<polygon style="stroke:black; stroke-width:1; fill:rgb(190,190,63); " description="unannotated orf[br]Location: 62252 - 71057" locus_tag="CHAFR746836_0058870.1" class="clusterblast-orf" points="515,40 573,40 578,35 573,30 515,30 515,40 " id="clusterblast-1_q3_4_8"  />
<polygon style="stroke:black; stroke-width:1; fill:#FFFFFF; " description="unannotated orf[br]Location: 72245 - 73215" locus_tag="CHAFR746836_0058880.1" class="clusterblast-orf" points="587,35 592,30 594,30 594,40 592,40 587,35 " id="clusterblast-1_q3_4_9"  />
<polygon style="stroke:black; stroke-width:1; fill:#FFFFFF; " description="unannotated orf[br]Location: 78567 - 79753" locus_tag="CHAFR746836_0058890.1" class="clusterblast-orf" points="633,35 638,30 641,30 641,40 638,40 633,35 " id="clusterblast-1_q3_4_10"  />
<polygon style="stroke:black; stroke-width:1; fill:#FFFFFF; " description="unannotated orf[br]Location: 89948 - 90559" locus_tag="CHAFR746836_0058900.1" class="clusterblast-orf" points="715,40 719,35 715,30 715,40 " id="clusterblast-1_q3_4_11"  />
</g>
<g class="clusterblast-cluster" description="Aspergillus kawachii IFO 4308 DNA, contig: scaffold00020, wh..." label="DF126466.1_c3"  >
<text class="clusterblast-acc" y="60" x="5"  >
DF126466.1_c3</text>
<text class="clusterblast-desc" y="60" x="460.8"  >
Aspergillus kawachii IFO 4308 DNA, contig: scaffold00020, wh...</text>
<line y1="85" x2="778.0" style="stroke:grey; stroke-width:1; " x1="10" y2="85"  />
<polygon style="stroke:black; stroke-width:1; fill:#FFFFFF; " description="serine/threonine_protein_phosphatase_PP1[br]Location: 403737 - 404888" locus_tag="AKAW_07274" id="clusterblast-1_h3_4_0" points="10,85 15,80 18,80 18,90 15,90 10,85 " class="clusterblast-orf"  />
<polygon style="stroke:black; stroke-width:1; fill:#FFFFFF; " description="serine/threonine-protein_phosphatase_PP2A[br]Location: 405915 - 406772" locus_tag="AKAW_07275" id="clusterblast-1_h3_4_1" points="25,90 26,90 31,85 26,80 25,80 25,90 " class="clusterblast-orf"  />
<polygon style="stroke:black; stroke-width:1; fill:#FFFFFF; " description="hypothetical_protein[br]Location: 407463 - 409010" locus_tag="AKAW_07276" id="clusterblast-1_h3_4_2" points="36,90 43,90 48,85 43,80 36,80 36,90 " class="clusterblast-orf"  />
<polygon style="stroke:black; stroke-width:1; fill:#FFFFFF; " description="hypothetical_protein[br]Location: 410661 - 411790" locus_tag="AKAW_07277" id="clusterblast-1_h3_4_3" points="60,85 65,80 68,80 68,90 65,90 60,85 " class="clusterblast-orf"  />
<polygon style="stroke:black; stroke-width:1; fill:#FFFFFF; " description="branched-chain_amino_acid_aminotransferase[br]Location: 412885 - 414320" locus_tag="AKAW_07278" id="clusterblast-1_h3_4_4" points="76,90 81,90 86,85 81,80 76,80 76,90 " class="clusterblast-orf"  />
<polygon style="stroke:black; stroke-width:1; fill:#FFFFFF; " description="similar_to_alternative_sulfate_transporter[br]Location: 417041 - 420728" locus_tag="AKAW_07279" id="clusterblast-1_h3_4_5" points="106,90 127,90 132,85 127,80 106,80 106,90 " class="clusterblast-orf"  />
<polygon style="stroke:black; stroke-width:1; fill:#FFFFFF; " description="major_facilitator_superfamily_transporter[br]Location: 420964 - 421593" locus_tag="AKAW_07280" id="clusterblast-1_h3_4_6" points="134,85 139,80 139,80 139,90 139,90 134,85 " class="clusterblast-orf"  />
<polygon style="stroke:black; stroke-width:1; fill:rgb(63,190,63); " description="thioredoxin_reductase_GliT[br]Location: 423219 - 424286&lt;br&gt;&lt;br&gt;&lt;b&gt;BlastP hit with CHAFR746836_0058820.1&lt;/b&gt;&lt;br&gt;Percentage identity: 38%&lt;br&gt;Percentage coverage: 104%&lt;br&gt;BLAST bit score: 194&lt;br&gt;E-value: 1e-57" locus_tag="AKAW_07281" id="clusterblast-1_h3_4_7" points="150,85 155,80 158,80 158,90 155,90 150,85 " class="clusterblast-orf"  />
<polygon style="stroke:black; stroke-width:1; fill:#FFFFFF; " description="nonribosomal_peptide_synthase[br]Location: 424801 - 440292" locus_tag="AKAW_07282" id="clusterblast-1_h3_4_8" points="162,90 269,90 274,85 269,80 162,80 162,90 " class="clusterblast-orf"  />
<polygon style="stroke:black; stroke-width:1; fill:#FFFFFF; " description="methyltransferase_domain-containing_protein[br]Location: 440439 - 441449" locus_tag="AKAW_07283" id="clusterblast-1_h3_4_9" points="275,85 280,80 282,80 282,90 280,90 275,85 " class="clusterblast-orf"  />
<polygon style="stroke:black; stroke-width:1; fill:#FFFFFF; " description="bicyclomycin_resistance_protein[br]Location: 442546 - 444075" locus_tag="AKAW_07284" id="clusterblast-1_h3_4_10" points="290,90 296,90 301,85 296,80 290,80 290,90 " class="clusterblast-orf"  />
<polygon style="stroke:black; stroke-width:1; fill:rgb(190,63,190); " description="sterigmatocystin_8-O-methyltransferase[br]Location: 444228 - 445573&lt;br&gt;&lt;br&gt;&lt;b&gt;BlastP hit with CHAFR746836_0058860.1&lt;/b&gt;&lt;br&gt;Percentage identity: 32%&lt;br&gt;Percentage coverage: 101%&lt;br&gt;BLAST bit score: 191&lt;br&gt;E-value: 5e-55" locus_tag="AKAW_07285" id="clusterblast-1_h3_4_11" points="302,85 307,80 312,80 312,90 307,90 302,85 " class="clusterblast-orf"  />
<polygon style="stroke:black; stroke-width:1; fill:#FFFFFF; " description="major_facilitator_superfamily_transporter[br]Location: 446178 - 448012" locus_tag="AKAW_07286" id="clusterblast-1_h3_4_12" points="316,85 321,80 330,80 330,90 321,90 316,85 " class="clusterblast-orf"  />
<polygon style="stroke:black; stroke-width:1; fill:#FFFFFF; " description="isoflavone_reductase_family_protein[br]Location: 448506 - 449605" locus_tag="AKAW_07287" id="clusterblast-1_h3_4_13" points="333,85 338,80 341,80 341,90 338,90 333,85 " class="clusterblast-orf"  />
<polygon style="stroke:black; stroke-width:1; fill:#FFFFFF; " description="hypothetical_protein[br]Location: 451161 - 451759" locus_tag="AKAW_07288" id="clusterblast-1_h3_4_14" points="352,85 357,80 357,80 357,90 357,90 352,85 " class="clusterblast-orf"  />
<polygon style="stroke:black; stroke-width:1; fill:#FFFFFF; " description="hypothetical_protein[br]Location: 452785 - 456320" locus_tag="AKAW_07289" id="clusterblast-1_h3_4_15" points="364,90 385,90 390,85 385,80 364,80 364,90 " class="clusterblast-orf"  />
<polygon style="stroke:black; stroke-width:1; fill:#FFFFFF; " description="similar_to_An12g02740[br]Location: 456800 - 457717" locus_tag="AKAW_07290" id="clusterblast-1_h3_4_16" points="393,90 395,90 400,85 395,80 393,80 393,90 " class="clusterblast-orf"  />
<polygon style="stroke:black; stroke-width:1; fill:rgb(190,190,63); " description="PKSN_polyketide_synthase_for_alternapyrone[br]Location: 458248 - 465716&lt;br&gt;&lt;br&gt;&lt;b&gt;BlastP hit with CHAFR746836_0058870.1&lt;/b&gt;&lt;br&gt;Percentage identity: 33%&lt;br&gt;Percentage coverage: 52%&lt;br&gt;BLAST bit score: 607&lt;br&gt;E-value: 1e-176" locus_tag="AKAW_07291" id="clusterblast-1_h3_4_17" points="404,85 409,80 458,80 458,90 409,90 404,85 " class="clusterblast-orf"  />
<polygon style="stroke:black; stroke-width:1; fill:#FFFFFF; " description="hypothetical_protein[br]Location: 468170 - 469090" locus_tag="AKAW_07292" id="clusterblast-1_h3_4_18" points="475,85 480,80 482,80 482,90 480,90 475,85 " class="clusterblast-orf"  />
<polygon style="stroke:black; stroke-width:1; fill:#FFFFFF; " description="hypothetical_protein[br]Location: 471089 - 471780" locus_tag="AKAW_07293" id="clusterblast-1_h3_4_19" points="497,85 502,80 502,80 502,90 502,90 497,85 " class="clusterblast-orf"  />
<polygon style="stroke:black; stroke-width:1; fill:#FFFFFF; " description="glutathione_transferase[br]Location: 472525 - 473579" locus_tag="AKAW_07294" id="clusterblast-1_h3_4_20" points="507,90 510,90 515,85 510,80 507,80 507,90 " class="clusterblast-orf"  />
<polygon style="stroke:black; stroke-width:1; fill:#FFFFFF; " description="2-deoxy-D-gluconate_3-dehydrogenase[br]Location: 475405 - 477173" locus_tag="AKAW_07295" id="clusterblast-1_h3_4_21" points="528,85 533,80 541,80 541,90 533,90 528,85 " class="clusterblast-orf"  />
<polygon style="stroke:black; stroke-width:1; fill:#FFFFFF; " description="similar_to_An12g02680[br]Location: 478341 - 478898" locus_tag="AKAW_07296" id="clusterblast-1_h3_4_22" points="549,85 553,80 553,90 549,85 " class="clusterblast-orf"  />
<polygon style="stroke:black; stroke-width:1; fill:rgb(190,190,63); " description="polyketide_synthase[br]Location: 480751 - 489785&lt;br&gt;&lt;br&gt;&lt;b&gt;BlastP hit with CHAFR746836_0058870.1&lt;/b&gt;&lt;br&gt;Percentage identity: 41%&lt;br&gt;Percentage coverage: 100%&lt;br&gt;BLAST bit score: 1840&lt;br&gt;E-value: 0.0" locus_tag="AKAW_07297" id="clusterblast-1_h3_4_23" points="566,90 627,90 632,85 627,80 566,80 566,90 " class="clusterblast-orf"  />
<polygon style="stroke:black; stroke-width:1; fill:#FFFFFF; " description="UbiE/COQ5_methyltransferase[br]Location: 491738 - 492550" locus_tag="AKAW_07298" id="clusterblast-1_h3_4_24" points="646,90 647,90 652,85 647,80 646,80 646,90 " class="clusterblast-orf"  />
<polygon style="stroke:black; stroke-width:1; fill:#FFFFFF; " description="aldo/keto_reductase[br]Location: 493141 - 494261" locus_tag="AKAW_07299" id="clusterblast-1_h3_4_25" points="656,90 659,90 664,85 659,80 656,80 656,90 " class="clusterblast-orf"  />
<polygon style="stroke:black; stroke-width:1; fill:#FFFFFF; " description="hscarg_dehydrogenase[br]Location: 494622 - 495695" locus_tag="AKAW_07300" id="clusterblast-1_h3_4_26" points="667,85 672,80 675,80 675,90 672,90 667,85 " class="clusterblast-orf"  />
<polygon style="stroke:black; stroke-width:1; fill:#FFFFFF; " description="C6_transcription_factor[br]Location: 496664 - 497833" locus_tag="AKAW_07301" id="clusterblast-1_h3_4_27" points="682,90 685,90 690,85 685,80 682,80 682,90 " class="clusterblast-orf"  />
<polygon style="stroke:black; stroke-width:1; fill:#FFFFFF; " description="hypothetical_protein[br]Location: 499319 - 500177" locus_tag="AKAW_07302" id="clusterblast-1_h3_4_28" points="701,90 702,90 707,85 702,80 701,80 701,90 " class="clusterblast-orf"  />
<polygon style="stroke:black; stroke-width:1; fill:#FFFFFF; " description="hypothetical_protein[br]Location: 500694 - 501167" locus_tag="AKAW_07303" id="clusterblast-1_h3_4_29" points="711,85 714,80 714,90 711,85 " class="clusterblast-orf"  />
<polygon style="stroke:black; stroke-width:1; fill:#FFFFFF; " description="similar_to_An12g05540[br]Location: 503989 - 504480" locus_tag="AKAW_07304" id="clusterblast-1_h3_4_30" points="734,90 738,85 734,80 734,90 " class="clusterblast-orf"  />
<polygon style="stroke:black; stroke-width:1; fill:#FFFFFF; " description="similar_to_An12g05550[br]Location: 505102 - 506084" locus_tag="AKAW_07305" id="clusterblast-1_h3_4_31" points="743,85 748,80 750,80 750,90 748,90 743,85 " class="clusterblast-orf"  />
<polygon style="stroke:black; stroke-width:1; fill:#FFFFFF; " description="short-chain_dehydrogenase[br]Location: 507518 - 508500" locus_tag="AKAW_07306" id="clusterblast-1_h3_4_32" points="760,90 762,90 767,85 762,80 760,80 760,90 " class="clusterblast-orf"  />
<polygon style="stroke:black; stroke-width:1; fill:#FFFFFF; " description="similar_to_An12g02510[br]Location: 508892 - 509935" locus_tag="AKAW_07307" id="clusterblast-1_h3_4_33" points="770,90 773,90 778,85 773,80 770,80 770,90 " class="clusterblast-orf"  />
</g>
</svg>
