<svg xmlns="http://www.w3.org/2000/svg" height="90" width="768.0" version="1.1" y="0" x="0" preserveAspectRatio="none" xmlns:xlink="http://www.w3.org/1999/xlink" viewBox="0 -30 819.2 60"  >
<g  >
<line y1="60" x2="778.0" style="stroke:grey; stroke-width:2; " x1="10" y2="60"  />
</g>
<g id="a13_000"  >
<polygon style="stroke:black; stroke-width:1; fill:grey; " points="10,65 15,65 20,60 15,55 10,55 10,65 "  />
</g>
<g id="a13_001"  >
<polygon style="stroke:black; stroke-width:1; fill:grey; " points="158,65 159,65 164,60 159,55 158,55 158,65 "  />
</g>
<g id="a13_002"  >
<polygon style="stroke:black; stroke-width:1; fill:grey; " points="174,65 181,65 186,60 181,55 174,55 174,65 "  />
</g>
<g id="a13_003"  >
<polygon style="stroke:black; stroke-width:1; fill:#810E15; " points="190,60 195,55 246,55 246,65 195,65 190,60 "  />
</g>
<g id="a13_004"  >
<polygon style="stroke:black; stroke-width:1; fill:grey; " points="265,65 267,65 272,60 267,55 265,55 265,65 "  />
</g>
<g id="a13_005"  >
<polygon style="stroke:black; stroke-width:1; fill:grey; " points="285,60 288,55 288,65 285,60 "  />
</g>
<g id="a13_006"  >
<polygon style="stroke:black; stroke-width:1; fill:grey; " points="291,65 298,65 303,60 298,55 291,55 291,65 "  />
</g>
<g id="a13_007"  >
<polygon style="stroke:black; stroke-width:1; fill:grey; " points="471,60 476,55 477,55 477,65 476,65 471,60 "  />
</g>
<g id="a13_008"  >
<polygon style="stroke:black; stroke-width:1; fill:grey; " points="488,65 557,65 562,60 557,55 488,55 488,65 "  />
</g>
<g id="a13_009"  >
<polygon style="stroke:black; stroke-width:1; fill:grey; " points="582,65 584,65 589,60 584,55 582,55 582,65 "  />
</g>
<g id="a13_0010"  >
<polygon style="stroke:black; stroke-width:1; fill:grey; " points="763,60 768,55 778,55 778,65 768,65 763,60 "  />
</g>
<g  >
<line y1="0" x2="778.0" style="stroke:grey; stroke-width:1; " x1="10" y2="0"  />
</g>
<g id="b13_000"  >
<defs  >
<linearGradient id="KS_domain13_1"  >
<stop stop-color="#08B208" stop-opacity="1" offset="0%"  />
<stop stop-color="#81F781" stop-opacity="1" offset="100%"  />
</linearGradient>
</defs>
<defs  >
<linearGradient id="KS_line13_1"  >
<stop stop-color="#81F781" stop-opacity="1" offset="0%"  />
<stop stop-color="#08B208" stop-opacity="1" offset="100%"  />
</linearGradient>
</defs>
<rect style="stroke:url(#KS_line13_1); stroke-width:1; fill:url(#KS_domain13_1); " rx="8" height="15" width="128.850997262" y="-8" x="15.1059835745"  />
<text style="font-size:12px; font-family:MS Reference Sans Serif; font-weight:bold; " y="4" x="65.5314822057" fill="#0A2A0A"  >
KS</text>
</g>
<g id="b13_001"  >
<defs  >
<linearGradient id="AT_domain13_1"  >
<stop stop-color="#DC0404" stop-opacity="1" offset="0%"  />
<stop stop-color="#F78181" stop-opacity="1" offset="100%"  />
</linearGradient>
</defs>
<defs  >
<linearGradient id="AT_line13_1"  >
<stop stop-color="#F78181" stop-opacity="1" offset="0%"  />
<stop stop-color="#DC0404" stop-opacity="1" offset="100%"  />
</linearGradient>
</defs>
<rect style="stroke:url(#AT_line13_1); stroke-width:1; fill:url(#AT_domain13_1); " rx="8" height="15" width="96.1126319906" y="-8" x="178.197105984"  />
<text style="font-size:8px; font-family:MS Reference Sans Serif; font-weight:bold; " y="3" x="216.253421979" fill="#2A1B0A"  >
AT</text>
</g>
<g id="b13_002"  >
<defs  >
<linearGradient id="DH_domain13_1"  >
<stop stop-color="#B45F04" stop-opacity="1" offset="0%"  />
<stop stop-color="#F7BE81" stop-opacity="1" offset="100%"  />
</linearGradient>
</defs>
<defs  >
<linearGradient id="DH_line13_1"  >
<stop stop-color="#F7BE81" stop-opacity="1" offset="0%"  />
<stop stop-color="#B45F04" stop-opacity="1" offset="100%"  />
</linearGradient>
</defs>
<rect style="stroke:url(#DH_line13_1); stroke-width:1; fill:url(#DH_domain13_1); " rx="8" height="15" width="54.9644114196" y="-8" x="297.436840047"  />
<text style="font-size:8px; font-family:MS Reference Sans Serif; font-weight:bold; " y="3" x="314.919045757" fill="#3B0B0B"  >
DH</text>
</g>
<g id="b13_003"  >
<defs  >
<linearGradient id="other_domain13_1"  >
<stop stop-color="#929292" stop-opacity="1" offset="0%"  />
<stop stop-color="#DBDBDB" stop-opacity="1" offset="100%"  />
</linearGradient>
</defs>
<defs  >
<linearGradient id="other_line13_1"  >
<stop stop-color="#DBDBDB" stop-opacity="1" offset="0%"  />
<stop stop-color="#929292" stop-opacity="1" offset="100%"  />
</linearGradient>
</defs>
<rect style="stroke:url(#other_line13_1); stroke-width:1; fill:url(#other_domain13_1); " rx="8" height="15" width="61.271802894" y="-8" x="428.991005084"  />
<text style="font-size:8px; font-family:MS Reference Sans Serif; font-weight:bold; " y="3" x="433.626906531" fill="#0B0B0B"  >
cMT</text>
</g>
<g id="b13_004"  >
<defs  >
<linearGradient id="KR_domain13_1"  >
<stop stop-color="#089E4B" stop-opacity="1" offset="0%"  />
<stop stop-color="#81F781" stop-opacity="1" offset="100%"  />
</linearGradient>
</defs>
<defs  >
<linearGradient id="KR_line13_1"  >
<stop stop-color="#81F781" stop-opacity="1" offset="0%"  />
<stop stop-color="#089E4B" stop-opacity="1" offset="100%"  />
</linearGradient>
</defs>
<rect style="stroke:url(#KR_line13_1); stroke-width:1; fill:url(#KR_domain13_1); " rx="8" height="15" width="51.660539695" y="-8" x="643.141963238"  />
<text style="font-size:8px; font-family:MS Reference Sans Serif; font-weight:bold; " y="3" x="658.972233086" fill="#0A2A1B"  >
KR</text>
</g>
<g id="b13_004"  >
<defs  >
<linearGradient id="KR_domain13_1"  >
<stop stop-color="#089E4B" stop-opacity="1" offset="0%"  />
<stop stop-color="#81F781" stop-opacity="1" offset="100%"  />
</linearGradient>
</defs>
<defs  >
<linearGradient id="KR_line13_1"  >
<stop stop-color="#81F781" stop-opacity="1" offset="0%"  />
<stop stop-color="#089E4B" stop-opacity="1" offset="100%"  />
</linearGradient>
</defs>
<rect style="stroke:url(#KR_line13_1); stroke-width:1; fill:url(#KR_domain13_1); " rx="8" height="15" width="51.660539695" y="-8" x="643.141963238"  />
<text style="font-size:8px; font-family:MS Reference Sans Serif; font-weight:bold; " y="3" x="658.972233086" fill="#0A2A1B"  >
KR</text>
</g>
</svg>
