<svg xmlns="http://www.w3.org/2000/svg" height="90" width="768.0" version="1.1" y="0" x="0" preserveAspectRatio="none" xmlns:xlink="http://www.w3.org/1999/xlink" viewBox="0 -30 819.2 60"  >
<g  >
<line y1="60" x2="778.0" style="stroke:grey; stroke-width:2; " x1="10" y2="60"  />
</g>
<g id="a18_000"  >
<polygon style="stroke:black; stroke-width:1; fill:grey; " points="10,65 61,65 66,60 61,55 10,55 10,65 "  />
</g>
<g id="a18_001"  >
<polygon style="stroke:black; stroke-width:1; fill:#810E15; " points="332,65 409,65 414,60 409,55 332,55 332,65 "  />
</g>
<g id="a18_002"  >
<polygon style="stroke:black; stroke-width:1; fill:grey; " points="426,60 431,55 472,55 472,65 431,65 426,60 "  />
</g>
<g id="a18_003"  >
<polygon style="stroke:black; stroke-width:1; fill:grey; " points="488,60 493,55 526,55 526,65 493,65 488,60 "  />
</g>
<g id="a18_004"  >
<polygon style="stroke:black; stroke-width:1; fill:grey; " points="679,60 684,55 778,55 778,65 684,65 679,60 "  />
</g>
<g  >
<line y1="0" x2="778.0" style="stroke:grey; stroke-width:1; " x1="10" y2="0"  />
</g>
<g id="b18_000"  >
<defs  >
<linearGradient id="A_domain18_1"  >
<stop stop-color="#56157F" stop-opacity="1" offset="0%"  />
<stop stop-color="#BE81F7" stop-opacity="1" offset="100%"  />
</linearGradient>
</defs>
<defs  >
<linearGradient id="A_line18_1"  >
<stop stop-color="#BE81F7" stop-opacity="1" offset="0%"  />
<stop stop-color="#56157F" stop-opacity="1" offset="100%"  />
</linearGradient>
</defs>
<rect style="stroke:url(#A_line18_1); stroke-width:1; fill:url(#A_domain18_1); " rx="8" height="15" width="192.0" y="-8" x="47.4634146341"  />
<text style="font-size:12px; font-family:MS Reference Sans Serif; font-weight:bold; " y="4" x="133.463414634" fill="#1B0A2A"  >
A</text>
</g>
<g id="b18_001"  >
<defs  >
<linearGradient id="TE_domain18_1"  >
<stop stop-color="#750072" stop-opacity="1" offset="0%"  />
<stop stop-color="#F5A9F2" stop-opacity="1" offset="100%"  />
</linearGradient>
</defs>
<defs  >
<linearGradient id="TE_line18_1"  >
<stop stop-color="#F5A9F2" stop-opacity="1" offset="0%"  />
<stop stop-color="#750072" stop-opacity="1" offset="100%"  />
</linearGradient>
</defs>
<rect style="stroke:url(#TE_line18_1); stroke-width:1; fill:url(#TE_domain18_1); " rx="8" height="15" width="166.578397213" y="-8" x="475.616724739"  />
<text style="font-size:12px; font-family:MS Reference Sans Serif; font-weight:bold; " y="4" x="548.905923345" fill="#2A0A29"  >
TD</text>
</g>
<g id="b18_001"  >
<defs  >
<linearGradient id="TE_domain18_1"  >
<stop stop-color="#750072" stop-opacity="1" offset="0%"  />
<stop stop-color="#F5A9F2" stop-opacity="1" offset="100%"  />
</linearGradient>
</defs>
<defs  >
<linearGradient id="TE_line18_1"  >
<stop stop-color="#F5A9F2" stop-opacity="1" offset="0%"  />
<stop stop-color="#750072" stop-opacity="1" offset="100%"  />
</linearGradient>
</defs>
<rect style="stroke:url(#TE_line18_1); stroke-width:1; fill:url(#TE_domain18_1); " rx="8" height="15" width="166.578397213" y="-8" x="475.616724739"  />
<text style="font-size:12px; font-family:MS Reference Sans Serif; font-weight:bold; " y="4" x="548.905923345" fill="#2A0A29"  >
TD</text>
</g>
</svg>
