<svg xmlns="http://www.w3.org/2000/svg" height="270" width="768.0" version="1.1" y="0" x="0" preserveAspectRatio="none" xmlns:xlink="http://www.w3.org/1999/xlink" viewBox="0 -30 819.2 180"  >
<g  >
<line y1="60" x2="778.0" style="stroke:grey; stroke-width:2; " x1="10" y2="60"  />
</g>
<g id="a26_000"  >
<polygon style="stroke:black; stroke-width:1; fill:grey; " points="10,65 25,65 30,60 25,55 10,55 10,65 "  />
</g>
<g id="a26_001"  >
<polygon style="stroke:black; stroke-width:1; fill:grey; " points="129,60 134,55 136,55 136,65 134,65 129,60 "  />
</g>
<g id="a26_002"  >
<polygon style="stroke:black; stroke-width:1; fill:grey; " points="140,60 145,55 148,55 148,65 145,65 140,60 "  />
</g>
<g id="a26_003"  >
<polygon style="stroke:black; stroke-width:1; fill:grey; " points="223,60 228,55 236,55 236,65 228,65 223,60 "  />
</g>
<g id="a26_004"  >
<polygon style="stroke:black; stroke-width:1; fill:grey; " points="268,60 273,55 324,55 324,65 273,65 268,60 "  />
</g>
<g id="a26_005"  >
<polygon style="stroke:black; stroke-width:1; fill:grey; " points="346,65 362,65 367,60 362,55 346,55 346,65 "  />
</g>
<g id="a26_006"  >
<polygon style="stroke:black; stroke-width:1; fill:grey; " points="392,60 397,55 432,55 432,65 397,65 392,60 "  />
</g>
<g id="a26_007"  >
<polygon style="stroke:black; stroke-width:1; fill:grey; " points="461,65 483,65 488,60 483,55 461,55 461,65 "  />
</g>
<g id="a26_008"  >
<polygon style="stroke:black; stroke-width:1; fill:grey; " points="513,60 518,55 549,55 549,65 518,65 513,60 "  />
</g>
<g id="a26_009"  >
<polygon style="stroke:black; stroke-width:1; fill:grey; " points="568,65 578,65 583,60 578,55 568,55 568,65 "  />
</g>
<g id="a26_0010"  >
<polygon style="stroke:black; stroke-width:1; fill:grey; " points="584,60 589,55 600,55 600,65 589,65 584,60 "  />
</g>
<g id="a26_0011"  >
<polygon style="stroke:black; stroke-width:1; fill:grey; " points="608,60 612,55 612,65 608,60 "  />
</g>
<g id="a26_0012"  >
<polygon style="stroke:black; stroke-width:1; fill:grey; " points="665,60 670,55 687,55 687,65 670,65 665,60 "  />
</g>
<g id="a26_0013"  >
<polygon style="stroke:black; stroke-width:1; fill:grey; " points="718,65 721,65 726,60 721,55 718,55 718,65 "  />
</g>
<g id="a26_0014"  >
<polygon style="stroke:black; stroke-width:1; fill:grey; " points="734,65 773,65 778,60 773,55 734,55 734,65 "  />
</g>
<g  >
<line y1="0" x2="778.0" style="stroke:grey; stroke-width:1; " x1="10" y2="0"  />
</g>
<g id="b26_000"  >
<defs  >
<linearGradient id="ACP_domain26_1"  >
<stop stop-color="#084BC6" stop-opacity="1" offset="0%"  />
<stop stop-color="#81BEF7" stop-opacity="1" offset="100%"  />
</linearGradient>
</defs>
<defs  >
<linearGradient id="ACP_line26_1"  >
<stop stop-color="#81BEF7" stop-opacity="1" offset="0%"  />
<stop stop-color="#084BC6" stop-opacity="1" offset="100%"  />
</linearGradient>
</defs>
<rect style="stroke:url(#ACP_line26_1); stroke-width:1; fill:url(#ACP_domain26_1); " rx="8" height="15" width="75.6989247312" y="-8" x="477.956989247"  />
<text style="font-size:8px; font-family:MS Reference Sans Serif; font-weight:bold; " y="3" x="503.806451613" fill="#0A1B2A"  >
ACP</text>
<line y1="60" x2="574.301075269" style="stroke:grey; stroke-width:1; " x1="10" y2="60"  />
</g>
<g id="b26_000"  >
<defs  >
<linearGradient id="ACP_domain26_1"  >
<stop stop-color="#084BC6" stop-opacity="1" offset="0%"  />
<stop stop-color="#81BEF7" stop-opacity="1" offset="100%"  />
</linearGradient>
</defs>
<defs  >
<linearGradient id="ACP_line26_1"  >
<stop stop-color="#81BEF7" stop-opacity="1" offset="0%"  />
<stop stop-color="#084BC6" stop-opacity="1" offset="100%"  />
</linearGradient>
</defs>
<rect style="stroke:url(#ACP_line26_1); stroke-width:1; fill:url(#ACP_domain26_1); " rx="8" height="15" width="75.6989247312" y="-8" x="477.956989247"  />
<text style="font-size:8px; font-family:MS Reference Sans Serif; font-weight:bold; " y="3" x="503.806451613" fill="#0A1B2A"  >
ACP</text>
<line y1="60" x2="574.301075269" style="stroke:grey; stroke-width:1; " x1="10" y2="60"  />
</g>
<g id="b26_001"  >
<defs  >
<linearGradient id="other_domain26_1"  >
<stop stop-color="#929292" stop-opacity="1" offset="0%"  />
<stop stop-color="#DBDBDB" stop-opacity="1" offset="100%"  />
</linearGradient>
</defs>
<defs  >
<linearGradient id="other_line26_1"  >
<stop stop-color="#DBDBDB" stop-opacity="1" offset="0%"  />
<stop stop-color="#929292" stop-opacity="1" offset="100%"  />
</linearGradient>
</defs>
<rect style="stroke:url(#other_line26_1); stroke-width:1; fill:url(#other_domain26_1); " rx="8" height="15" width="224.344086022" y="52" x="21.0107526882"  />
<text style="font-size:8px; font-family:MS Reference Sans Serif; font-weight:bold; " y="63" x="107.182795699" fill="#0B0B0B"  >
NAD_binding_</text>
<line y1="120" x2="612.838709677" style="stroke:grey; stroke-width:1; " x1="10" y2="120"  />
</g>
<g id="b26_001"  >
<defs  >
<linearGradient id="other_domain26_1"  >
<stop stop-color="#929292" stop-opacity="1" offset="0%"  />
<stop stop-color="#DBDBDB" stop-opacity="1" offset="100%"  />
</linearGradient>
</defs>
<defs  >
<linearGradient id="other_line26_1"  >
<stop stop-color="#DBDBDB" stop-opacity="1" offset="0%"  />
<stop stop-color="#929292" stop-opacity="1" offset="100%"  />
</linearGradient>
</defs>
<rect style="stroke:url(#other_line26_1); stroke-width:1; fill:url(#other_domain26_1); " rx="8" height="15" width="224.344086022" y="52" x="21.0107526882"  />
<text style="font-size:8px; font-family:MS Reference Sans Serif; font-weight:bold; " y="63" x="107.182795699" fill="#0B0B0B"  >
NAD_binding_</text>
<line y1="120" x2="612.838709677" style="stroke:grey; stroke-width:1; " x1="10" y2="120"  />
</g>
<g id="b26_002"  >
<defs  >
<linearGradient id="ER_domain26_1"  >
<stop stop-color="#089E85" stop-opacity="1" offset="0%"  />
<stop stop-color="#81F7F3" stop-opacity="1" offset="100%"  />
</linearGradient>
</defs>
<defs  >
<linearGradient id="ER_line26_1"  >
<stop stop-color="#81F7F3" stop-opacity="1" offset="0%"  />
<stop stop-color="#089E85" stop-opacity="1" offset="100%"  />
</linearGradient>
</defs>
<rect style="stroke:url(#ER_line26_1); stroke-width:1; fill:url(#ER_domain26_1); " rx="8" height="15" width="425.290322581" y="112" x="36.1505376344"  />
<text style="font-size:12px; font-family:MS Reference Sans Serif; font-weight:bold; " y="124" x="234.795698925" fill="#0A2A29"  >
ER</text>
</g>
<g id="b26_002"  >
<defs  >
<linearGradient id="ER_domain26_1"  >
<stop stop-color="#089E85" stop-opacity="1" offset="0%"  />
<stop stop-color="#81F7F3" stop-opacity="1" offset="100%"  />
</linearGradient>
</defs>
<defs  >
<linearGradient id="ER_line26_1"  >
<stop stop-color="#81F7F3" stop-opacity="1" offset="0%"  />
<stop stop-color="#089E85" stop-opacity="1" offset="100%"  />
</linearGradient>
</defs>
<rect style="stroke:url(#ER_line26_1); stroke-width:1; fill:url(#ER_domain26_1); " rx="8" height="15" width="425.290322581" y="112" x="36.1505376344"  />
<text style="font-size:12px; font-family:MS Reference Sans Serif; font-weight:bold; " y="124" x="234.795698925" fill="#0A2A29"  >
ER</text>
</g>
</svg>
