<svg xmlns="http://www.w3.org/2000/svg" height="0" width="768.0" version="1.1" y="0" x="0" preserveAspectRatio="none" xmlns:xlink="http://www.w3.org/1999/xlink" viewBox="0 -30 819.2 0"  >
<g  >
<line y1="60" x2="778.0" style="stroke:grey; stroke-width:2; " x1="10" y2="60"  />
</g>
<g id="a9_000"  >
<polygon style="stroke:black; stroke-width:1; fill:grey; " points="10,60 15,55 20,55 20,65 15,65 10,60 "  />
</g>
<g id="a9_001"  >
<polygon style="stroke:black; stroke-width:1; fill:grey; " points="28,60 33,55 35,55 35,65 33,65 28,60 "  />
</g>
<g id="a9_002"  >
<polygon style="stroke:black; stroke-width:1; fill:grey; " points="47,60 52,55 53,55 53,65 52,65 47,60 "  />
</g>
<g id="a9_003"  >
<polygon style="stroke:black; stroke-width:1; fill:grey; " points="64,65 67,65 72,60 67,55 64,55 64,65 "  />
</g>
<g id="a9_004"  >
<polygon style="stroke:black; stroke-width:1; fill:grey; " points="83,60 88,55 89,55 89,65 88,65 83,60 "  />
</g>
<g id="a9_005"  >
<polygon style="stroke:black; stroke-width:1; fill:grey; " points="91,65 94,65 99,60 94,55 91,55 91,65 "  />
</g>
<g id="a9_006"  >
<polygon style="stroke:black; stroke-width:1; fill:grey; " points="112,60 117,55 122,55 122,65 117,65 112,60 "  />
</g>
<g id="a9_007"  >
<polygon style="stroke:black; stroke-width:1; fill:grey; " points="128,65 130,65 135,60 130,55 128,55 128,65 "  />
</g>
<g id="a9_008"  >
<polygon style="stroke:black; stroke-width:1; fill:grey; " points="141,65 145,65 150,60 145,55 141,55 141,65 "  />
</g>
<g id="a9_009"  >
<polygon style="stroke:black; stroke-width:1; fill:grey; " points="156,65 158,60 156,55 156,65 "  />
</g>
<g id="a9_0010"  >
<polygon style="stroke:black; stroke-width:1; fill:grey; " points="172,65 174,60 172,55 172,65 "  />
</g>
<g id="a9_0011"  >
<polygon style="stroke:black; stroke-width:1; fill:grey; " points="186,60 191,55 198,55 198,65 191,65 186,60 "  />
</g>
<g id="a9_0012"  >
<polygon style="stroke:black; stroke-width:1; fill:grey; " points="219,65 220,60 219,55 219,65 "  />
</g>
<g id="a9_0013"  >
<polygon style="stroke:black; stroke-width:1; fill:grey; " points="257,60 262,55 274,55 274,65 262,65 257,60 "  />
</g>
<g id="a9_0014"  >
<polygon style="stroke:black; stroke-width:1; fill:grey; " points="354,60 359,55 360,55 360,65 359,65 354,60 "  />
</g>
<g id="a9_0015"  >
<polygon style="stroke:black; stroke-width:1; fill:grey; " points="389,60 394,55 397,55 397,65 394,65 389,60 "  />
</g>
<g id="a9_0016"  >
<polygon style="stroke:black; stroke-width:1; fill:grey; " points="406,60 410,55 410,65 406,60 "  />
</g>
<g id="a9_0017"  >
<polygon style="stroke:black; stroke-width:1; fill:grey; " points="443,65 447,65 452,60 447,55 443,55 443,65 "  />
</g>
<g id="a9_0018"  >
<polygon style="stroke:black; stroke-width:1; fill:grey; " points="610,65 612,65 617,60 612,55 610,55 610,65 "  />
</g>
<g id="a9_0019"  >
<polygon style="stroke:black; stroke-width:1; fill:grey; " points="623,65 623,65 628,60 623,55 623,55 623,65 "  />
</g>
<g id="a9_0020"  >
<polygon style="stroke:black; stroke-width:1; fill:grey; " points="636,60 641,55 650,55 650,65 641,65 636,60 "  />
</g>
<g id="a9_0021"  >
<polygon style="stroke:black; stroke-width:1; fill:grey; " points="655,60 660,55 661,55 661,65 660,65 655,60 "  />
</g>
<g id="a9_0022"  >
<polygon style="stroke:black; stroke-width:1; fill:grey; " points="670,60 675,55 677,55 677,65 675,65 670,60 "  />
</g>
<g id="a9_0023"  >
<polygon style="stroke:black; stroke-width:1; fill:grey; " points="712,65 713,65 718,60 713,55 712,55 712,65 "  />
</g>
<g id="a9_0024"  >
<polygon style="stroke:black; stroke-width:1; fill:grey; " points="740,65 740,65 745,60 740,55 740,55 740,65 "  />
</g>
<g id="a9_0025"  >
<polygon style="stroke:black; stroke-width:1; fill:grey; " points="751,60 756,55 756,55 756,65 756,65 751,60 "  />
</g>
<g id="a9_0026"  >
<polygon style="stroke:black; stroke-width:1; fill:grey; " points="758,65 759,65 764,60 759,55 758,55 758,65 "  />
</g>
<g id="a9_0027"  >
<polygon style="stroke:black; stroke-width:1; fill:grey; " points="765,60 770,55 771,55 771,65 770,65 765,60 "  />
</g>
<g id="a9_0028"  >
<polygon style="stroke:black; stroke-width:1; fill:grey; " points="775,65 778,60 775,55 775,65 "  />
</g>
</svg>
