<svg xmlns="http://www.w3.org/2000/svg" height="180" width="768.0" version="1.1" y="0" x="0" preserveAspectRatio="none" xmlns:xlink="http://www.w3.org/1999/xlink" viewBox="0 -30 819.2 120"  >
<g  >
<line y1="60" x2="778.0" style="stroke:grey; stroke-width:2; " x1="10" y2="60"  />
</g>
<g id="a16_000"  >
<polygon style="stroke:black; stroke-width:1; fill:grey; " points="10,65 90,65 95,60 90,55 10,55 10,65 "  />
</g>
<g id="a16_001"  >
<polygon style="stroke:black; stroke-width:1; fill:grey; " points="203,65 218,65 223,60 218,55 203,55 203,65 "  />
</g>
<g id="a16_002"  >
<polygon style="stroke:black; stroke-width:1; fill:grey; " points="297,60 302,55 368,55 368,65 302,65 297,60 "  />
</g>
<g id="a16_003"  >
<polygon style="stroke:black; stroke-width:1; fill:#810E15; " points="400,65 449,65 454,60 449,55 400,55 400,65 "  />
</g>
<g id="a16_004"  >
<polygon style="stroke:black; stroke-width:1; fill:grey; " points="722,60 727,55 743,55 743,65 727,65 722,60 "  />
</g>
<g id="a16_005"  >
<polygon style="stroke:black; stroke-width:1; fill:grey; " points="755,65 773,65 778,60 773,55 755,55 755,65 "  />
</g>
<g  >
<line y1="0" x2="778.0" style="stroke:grey; stroke-width:1; " x1="10" y2="0"  />
</g>
<g id="b16_000"  >
<defs  >
<linearGradient id="A_domain16_1"  >
<stop stop-color="#56157F" stop-opacity="1" offset="0%"  />
<stop stop-color="#BE81F7" stop-opacity="1" offset="100%"  />
</linearGradient>
</defs>
<defs  >
<linearGradient id="A_line16_1"  >
<stop stop-color="#BE81F7" stop-opacity="1" offset="0%"  />
<stop stop-color="#56157F" stop-opacity="1" offset="100%"  />
</linearGradient>
</defs>
<rect style="stroke:url(#A_line16_1); stroke-width:1; fill:url(#A_domain16_1); " rx="8" height="15" width="284.419182948" y="-8" x="35.918294849"  />
<text style="font-size:12px; font-family:MS Reference Sans Serif; font-weight:bold; " y="4" x="168.127886323" fill="#1B0A2A"  >
A</text>
<line y1="60" x2="334.660746004" style="stroke:grey; stroke-width:1; " x1="10" y2="60"  />
</g>
<g id="b16_000"  >
<defs  >
<linearGradient id="A_domain16_1"  >
<stop stop-color="#56157F" stop-opacity="1" offset="0%"  />
<stop stop-color="#BE81F7" stop-opacity="1" offset="100%"  />
</linearGradient>
</defs>
<defs  >
<linearGradient id="A_line16_1"  >
<stop stop-color="#BE81F7" stop-opacity="1" offset="0%"  />
<stop stop-color="#56157F" stop-opacity="1" offset="100%"  />
</linearGradient>
</defs>
<rect style="stroke:url(#A_line16_1); stroke-width:1; fill:url(#A_domain16_1); " rx="8" height="15" width="284.419182948" y="-8" x="35.918294849"  />
<text style="font-size:12px; font-family:MS Reference Sans Serif; font-weight:bold; " y="4" x="168.127886323" fill="#1B0A2A"  >
A</text>
<line y1="60" x2="334.660746004" style="stroke:grey; stroke-width:1; " x1="10" y2="60"  />
</g>
<g id="b16_001"  >
<defs  >
<linearGradient id="other_domain16_1"  >
<stop stop-color="#929292" stop-opacity="1" offset="0%"  />
<stop stop-color="#DBDBDB" stop-opacity="1" offset="100%"  />
</linearGradient>
</defs>
<defs  >
<linearGradient id="other_line16_1"  >
<stop stop-color="#DBDBDB" stop-opacity="1" offset="0%"  />
<stop stop-color="#929292" stop-opacity="1" offset="100%"  />
</linearGradient>
</defs>
<rect style="stroke:url(#other_line16_1); stroke-width:1; fill:url(#other_domain16_1); " rx="8" height="15" width="255.090586146" y="52" x="15.4564831261"  />
<text style="font-size:8px; font-family:MS Reference Sans Serif; font-weight:bold; " y="63" x="117.001776199" fill="#0B0B0B"  >
Aminotran_</text>
</g>
<g id="b16_001"  >
<defs  >
<linearGradient id="other_domain16_1"  >
<stop stop-color="#929292" stop-opacity="1" offset="0%"  />
<stop stop-color="#DBDBDB" stop-opacity="1" offset="100%"  />
</linearGradient>
</defs>
<defs  >
<linearGradient id="other_line16_1"  >
<stop stop-color="#DBDBDB" stop-opacity="1" offset="0%"  />
<stop stop-color="#929292" stop-opacity="1" offset="100%"  />
</linearGradient>
</defs>
<rect style="stroke:url(#other_line16_1); stroke-width:1; fill:url(#other_domain16_1); " rx="8" height="15" width="255.090586146" y="52" x="15.4564831261"  />
<text style="font-size:8px; font-family:MS Reference Sans Serif; font-weight:bold; " y="63" x="117.001776199" fill="#0B0B0B"  >
Aminotran_</text>
</g>
</svg>
