<svg xmlns="http://www.w3.org/2000/svg" height="180" width="768.0" version="1.1" y="0" x="0" preserveAspectRatio="none" xmlns:xlink="http://www.w3.org/1999/xlink" viewBox="0 -30 819.2 120"  >
<g  >
<line y1="60" x2="778.0" style="stroke:grey; stroke-width:2; " x1="10" y2="60"  />
</g>
<g id="a53_000"  >
<polygon style="stroke:black; stroke-width:1; fill:grey; " points="10,60 13,55 13,65 10,60 "  />
</g>
<g id="a53_001"  >
<polygon style="stroke:black; stroke-width:1; fill:grey; " points="16,65 20,65 25,60 20,55 16,55 16,65 "  />
</g>
<g id="a53_002"  >
<polygon style="stroke:black; stroke-width:1; fill:grey; " points="28,60 33,55 34,55 34,65 33,65 28,60 "  />
</g>
<g id="a53_003"  >
<polygon style="stroke:black; stroke-width:1; fill:grey; " points="37,65 45,65 50,60 45,55 37,55 37,65 "  />
</g>
<g id="a53_004"  >
<polygon style="stroke:black; stroke-width:1; fill:grey; " points="56,65 64,65 69,60 64,55 56,55 56,65 "  />
</g>
<g id="a53_005"  >
<polygon style="stroke:black; stroke-width:1; fill:grey; " points="62,65 64,65 69,60 64,55 62,55 62,65 "  />
</g>
<g id="a53_006"  >
<polygon style="stroke:black; stroke-width:1; fill:grey; " points="198,60 203,55 217,55 217,65 203,65 198,60 "  />
</g>
<g id="a53_007"  >
<polygon style="stroke:black; stroke-width:1; fill:grey; " points="230,60 235,55 242,55 242,65 235,65 230,60 "  />
</g>
<g id="a53_008"  >
<polygon style="stroke:black; stroke-width:1; fill:grey; " points="249,65 252,65 257,60 252,55 249,55 249,65 "  />
</g>
<g id="a53_009"  >
<polygon style="stroke:black; stroke-width:1; fill:#810E15; " points="274,65 365,65 370,60 365,55 274,55 274,65 "  />
</g>
<g id="a53_0010"  >
<polygon style="stroke:black; stroke-width:1; fill:grey; " points="374,60 379,55 388,55 388,65 379,65 374,60 "  />
</g>
<g id="a53_0011"  >
<polygon style="stroke:black; stroke-width:1; fill:grey; " points="394,60 399,55 434,55 434,65 399,65 394,60 "  />
</g>
<g id="a53_0012"  >
<polygon style="stroke:black; stroke-width:1; fill:grey; " points="442,65 494,65 499,60 494,55 442,55 442,65 "  />
</g>
<g id="a53_0013"  >
<polygon style="stroke:black; stroke-width:1; fill:grey; " points="606,65 612,65 617,60 612,55 606,55 606,65 "  />
</g>
<g id="a53_0014"  >
<polygon style="stroke:black; stroke-width:1; fill:grey; " points="667,65 671,65 676,60 671,55 667,55 667,65 "  />
</g>
<g id="a53_0015"  >
<polygon style="stroke:black; stroke-width:1; fill:grey; " points="698,65 704,65 709,60 704,55 698,55 698,65 "  />
</g>
<g id="a53_0016"  >
<polygon style="stroke:black; stroke-width:1; fill:grey; " points="729,60 734,55 765,55 765,65 734,65 729,60 "  />
</g>
<g id="a53_0017"  >
<polygon style="stroke:black; stroke-width:1; fill:grey; " points="767,65 773,65 778,60 773,55 767,55 767,65 "  />
</g>
<g  >
<line y1="0" x2="111.853658537" style="stroke:grey; stroke-width:1; " x1="10" y2="0"  />
</g>
<g id="b53_000"  >
<defs  >
<linearGradient id="KR_domain53_1"  >
<stop stop-color="#089E4B" stop-opacity="1" offset="0%"  />
<stop stop-color="#81F781" stop-opacity="1" offset="100%"  />
</linearGradient>
</defs>
<defs  >
<linearGradient id="KR_line53_1"  >
<stop stop-color="#81F781" stop-opacity="1" offset="0%"  />
<stop stop-color="#089E4B" stop-opacity="1" offset="100%"  />
</linearGradient>
</defs>
<rect style="stroke:url(#KR_line53_1); stroke-width:1; fill:url(#KR_domain53_1); " rx="8" height="15" width="39.3365853659" y="-8" x="11.4048780488"  />
<text style="font-size:8px; font-family:MS Reference Sans Serif; font-weight:bold; " y="3" x="21.0731707317" fill="#0A2A1B"  >
KR</text>
<line y1="60" x2="778.0" style="stroke:grey; stroke-width:1; " x1="10" y2="60"  />
</g>
<g id="b53_000"  >
<defs  >
<linearGradient id="KR_domain53_1"  >
<stop stop-color="#089E4B" stop-opacity="1" offset="0%"  />
<stop stop-color="#81F781" stop-opacity="1" offset="100%"  />
</linearGradient>
</defs>
<defs  >
<linearGradient id="KR_line53_1"  >
<stop stop-color="#81F781" stop-opacity="1" offset="0%"  />
<stop stop-color="#089E4B" stop-opacity="1" offset="100%"  />
</linearGradient>
</defs>
<rect style="stroke:url(#KR_line53_1); stroke-width:1; fill:url(#KR_domain53_1); " rx="8" height="15" width="39.3365853659" y="-8" x="11.4048780488"  />
<text style="font-size:8px; font-family:MS Reference Sans Serif; font-weight:bold; " y="3" x="21.0731707317" fill="#0A2A1B"  >
KR</text>
<line y1="60" x2="778.0" style="stroke:grey; stroke-width:1; " x1="10" y2="60"  />
</g>
<g id="b53_001"  >
<defs  >
<linearGradient id="KS_domain53_1"  >
<stop stop-color="#08B208" stop-opacity="1" offset="0%"  />
<stop stop-color="#81F781" stop-opacity="1" offset="100%"  />
</linearGradient>
</defs>
<defs  >
<linearGradient id="KS_line53_1"  >
<stop stop-color="#81F781" stop-opacity="1" offset="0%"  />
<stop stop-color="#08B208" stop-opacity="1" offset="100%"  />
</linearGradient>
</defs>
<rect style="stroke:url(#KS_line53_1); stroke-width:1; fill:url(#KS_domain53_1); " rx="8" height="15" width="99.512195122" y="52" x="11.4048780488"  />
<text style="font-size:8px; font-family:MS Reference Sans Serif; font-weight:bold; " y="63" x="51.1609756098" fill="#3B0B0B"  >
KS</text>
</g>
<g id="b53_002"  >
<defs  >
<linearGradient id="AT_domain53_1"  >
<stop stop-color="#DC0404" stop-opacity="1" offset="0%"  />
<stop stop-color="#F78181" stop-opacity="1" offset="100%"  />
</linearGradient>
</defs>
<defs  >
<linearGradient id="AT_line53_1"  >
<stop stop-color="#F78181" stop-opacity="1" offset="0%"  />
<stop stop-color="#DC0404" stop-opacity="1" offset="100%"  />
</linearGradient>
</defs>
<rect style="stroke:url(#AT_line53_1); stroke-width:1; fill:url(#AT_domain53_1); " rx="8" height="15" width="69.7756097561" y="52" x="142.058536585"  />
<text style="font-size:8px; font-family:MS Reference Sans Serif; font-weight:bold; " y="63" x="166.946341463" fill="#2A1B0A"  >
AT</text>
</g>
<g id="b53_003"  >
<defs  >
<linearGradient id="DH_domain53_1"  >
<stop stop-color="#B45F04" stop-opacity="1" offset="0%"  />
<stop stop-color="#F7BE81" stop-opacity="1" offset="100%"  />
</linearGradient>
</defs>
<defs  >
<linearGradient id="DH_line53_1"  >
<stop stop-color="#F7BE81" stop-opacity="1" offset="0%"  />
<stop stop-color="#B45F04" stop-opacity="1" offset="100%"  />
</linearGradient>
</defs>
<rect style="stroke:url(#DH_line53_1); stroke-width:1; fill:url(#DH_domain53_1); " rx="8" height="15" width="44.956097561" y="52" x="231.034146341"  />
<text style="font-size:8px; font-family:MS Reference Sans Serif; font-weight:bold; " y="63" x="243.512195122" fill="#3B0B0B"  >
DH</text>
</g>
<g id="b53_004"  >
<defs  >
<linearGradient id="other_domain53_1"  >
<stop stop-color="#929292" stop-opacity="1" offset="0%"  />
<stop stop-color="#DBDBDB" stop-opacity="1" offset="100%"  />
</linearGradient>
</defs>
<defs  >
<linearGradient id="other_line53_1"  >
<stop stop-color="#DBDBDB" stop-opacity="1" offset="0%"  />
<stop stop-color="#929292" stop-opacity="1" offset="100%"  />
</linearGradient>
</defs>
<rect style="stroke:url(#other_line53_1); stroke-width:1; fill:url(#other_domain53_1); " rx="8" height="15" width="45.6585365854" y="52" x="340.614634146"  />
</g>
<g id="b53_005"  >
<defs  >
<linearGradient id="ER_domain53_1"  >
<stop stop-color="#089E85" stop-opacity="1" offset="0%"  />
<stop stop-color="#81F7F3" stop-opacity="1" offset="100%"  />
</linearGradient>
</defs>
<defs  >
<linearGradient id="ER_line53_1"  >
<stop stop-color="#81F7F3" stop-opacity="1" offset="0%"  />
<stop stop-color="#089E85" stop-opacity="1" offset="100%"  />
</linearGradient>
</defs>
<rect style="stroke:url(#ER_line53_1); stroke-width:1; fill:url(#ER_domain53_1); " rx="8" height="15" width="73.5219512195" y="52" x="441.531707317"  />
<text style="font-size:8px; font-family:MS Reference Sans Serif; font-weight:bold; " y="63" x="468.292682927" fill="#0A2A29"  >
ER</text>
</g>
<g id="b53_006"  >
<defs  >
<linearGradient id="KR_domain53_2"  >
<stop stop-color="#089E4B" stop-opacity="1" offset="0%"  />
<stop stop-color="#81F781" stop-opacity="1" offset="100%"  />
</linearGradient>
</defs>
<defs  >
<linearGradient id="KR_line53_2"  >
<stop stop-color="#81F781" stop-opacity="1" offset="0%"  />
<stop stop-color="#089E4B" stop-opacity="1" offset="100%"  />
</linearGradient>
</defs>
<rect style="stroke:url(#KR_line53_2); stroke-width:1; fill:url(#KR_domain53_2); " rx="8" height="15" width="38.6341463415" y="52" x="520.43902439"  />
<text style="font-size:8px; font-family:MS Reference Sans Serif; font-weight:bold; " y="63" x="529.756097561" fill="#0A2A1B"  >
KR</text>
</g>
<g id="b53_007"  >
<defs  >
<linearGradient id="ACP_domain53_1"  >
<stop stop-color="#084BC6" stop-opacity="1" offset="0%"  />
<stop stop-color="#81BEF7" stop-opacity="1" offset="100%"  />
</linearGradient>
</defs>
<defs  >
<linearGradient id="ACP_line53_1"  >
<stop stop-color="#81BEF7" stop-opacity="1" offset="0%"  />
<stop stop-color="#084BC6" stop-opacity="1" offset="100%"  />
</linearGradient>
</defs>
<rect style="stroke:url(#ACP_line53_1); stroke-width:1; fill:url(#ACP_domain53_1); " rx="8" height="15" width="13.8146341463" y="52" x="591.853658537"  />
</g>
<g id="b53_007"  >
<defs  >
<linearGradient id="ACP_domain53_1"  >
<stop stop-color="#084BC6" stop-opacity="1" offset="0%"  />
<stop stop-color="#81BEF7" stop-opacity="1" offset="100%"  />
</linearGradient>
</defs>
<defs  >
<linearGradient id="ACP_line53_1"  >
<stop stop-color="#81BEF7" stop-opacity="1" offset="0%"  />
<stop stop-color="#084BC6" stop-opacity="1" offset="100%"  />
</linearGradient>
</defs>
<rect style="stroke:url(#ACP_line53_1); stroke-width:1; fill:url(#ACP_domain53_1); " rx="8" height="15" width="13.8146341463" y="52" x="591.853658537"  />
</g>
</svg>
