<svg xmlns="http://www.w3.org/2000/svg" height="90" width="768.0" version="1.1" y="0" x="0" preserveAspectRatio="none" xmlns:xlink="http://www.w3.org/1999/xlink" viewBox="0 -30 819.2 60"  >
<g  >
<line y1="60" x2="778.0" style="stroke:grey; stroke-width:2; " x1="10" y2="60"  />
</g>
<g id="a32_000"  >
<polygon style="stroke:black; stroke-width:1; fill:grey; " points="10,60 15,55 32,55 32,65 15,65 10,60 "  />
</g>
<g id="a32_001"  >
<polygon style="stroke:black; stroke-width:1; fill:grey; " points="38,65 49,65 54,60 49,55 38,55 38,65 "  />
</g>
<g id="a32_002"  >
<polygon style="stroke:black; stroke-width:1; fill:grey; " points="61,60 66,55 66,55 66,65 66,65 61,60 "  />
</g>
<g id="a32_003"  >
<polygon style="stroke:black; stroke-width:1; fill:grey; " points="117,60 122,55 129,55 129,65 122,65 117,60 "  />
</g>
<g id="a32_004"  >
<polygon style="stroke:black; stroke-width:1; fill:grey; " points="151,65 156,65 161,60 156,55 151,55 151,65 "  />
</g>
<g id="a32_005"  >
<polygon style="stroke:black; stroke-width:1; fill:#810E15; " points="170,60 175,55 183,55 183,65 175,65 170,60 "  />
</g>
<g id="a32_006"  >
<polygon style="stroke:black; stroke-width:1; fill:grey; " points="195,60 200,55 202,55 202,65 200,65 195,60 "  />
</g>
<g id="a32_007"  >
<polygon style="stroke:black; stroke-width:1; fill:grey; " points="213,65 217,60 213,55 213,65 "  />
</g>
<g id="a32_008"  >
<polygon style="stroke:black; stroke-width:1; fill:grey; " points="262,65 264,65 269,60 264,55 262,55 262,65 "  />
</g>
<g id="a32_009"  >
<polygon style="stroke:black; stroke-width:1; fill:grey; " points="310,65 314,65 319,60 314,55 310,55 310,65 "  />
</g>
<g id="a32_0010"  >
<polygon style="stroke:black; stroke-width:1; fill:grey; " points="350,60 355,55 362,55 362,65 355,65 350,60 "  />
</g>
<g id="a32_0011"  >
<polygon style="stroke:black; stroke-width:1; fill:grey; " points="370,60 375,55 384,55 384,65 375,65 370,60 "  />
</g>
<g id="a32_0012"  >
<polygon style="stroke:black; stroke-width:1; fill:grey; " points="413,60 418,55 430,55 430,65 418,65 413,60 "  />
</g>
<g id="a32_0013"  >
<polygon style="stroke:black; stroke-width:1; fill:grey; " points="433,60 438,55 438,55 438,65 438,65 433,60 "  />
</g>
<g id="a32_0014"  >
<polygon style="stroke:black; stroke-width:1; fill:grey; " points="448,65 454,65 459,60 454,55 448,55 448,65 "  />
</g>
<g id="a32_0015"  >
<polygon style="stroke:black; stroke-width:1; fill:grey; " points="461,60 466,55 478,55 478,65 466,65 461,60 "  />
</g>
<g id="a32_0016"  >
<polygon style="stroke:black; stroke-width:1; fill:grey; " points="493,65 496,65 501,60 496,55 493,55 493,65 "  />
</g>
<g id="a32_0017"  >
<polygon style="stroke:black; stroke-width:1; fill:grey; " points="516,65 530,65 535,60 530,55 516,55 516,65 "  />
</g>
<g id="a32_0018"  >
<polygon style="stroke:black; stroke-width:1; fill:grey; " points="557,65 572,65 577,60 572,55 557,55 557,65 "  />
</g>
<g id="a32_0019"  >
<polygon style="stroke:black; stroke-width:1; fill:grey; " points="581,60 586,55 591,55 591,65 586,65 581,60 "  />
</g>
<g id="a32_0020"  >
<polygon style="stroke:black; stroke-width:1; fill:grey; " points="602,60 607,55 612,55 612,65 607,65 602,60 "  />
</g>
<g id="a32_0021"  >
<polygon style="stroke:black; stroke-width:1; fill:grey; " points="641,65 651,65 656,60 651,55 641,55 641,65 "  />
</g>
<g id="a32_0022"  >
<polygon style="stroke:black; stroke-width:1; fill:grey; " points="716,65 718,65 723,60 718,55 716,55 716,65 "  />
</g>
<g id="a32_0023"  >
<polygon style="stroke:black; stroke-width:1; fill:grey; " points="726,60 731,55 740,55 740,65 731,65 726,60 "  />
</g>
<g id="a32_0024"  >
<polygon style="stroke:black; stroke-width:1; fill:grey; " points="761,65 773,65 778,60 773,55 761,55 761,65 "  />
</g>
<g  >
<line y1="0" x2="778.0" style="stroke:grey; stroke-width:1; " x1="10" y2="0"  />
</g>
<g id="b32_000"  >
<defs  >
<linearGradient id="KR_domain32_1"  >
<stop stop-color="#089E4B" stop-opacity="1" offset="0%"  />
<stop stop-color="#81F781" stop-opacity="1" offset="100%"  />
</linearGradient>
</defs>
<defs  >
<linearGradient id="KR_line32_1"  >
<stop stop-color="#81F781" stop-opacity="1" offset="0%"  />
<stop stop-color="#089E4B" stop-opacity="1" offset="100%"  />
</linearGradient>
</defs>
<rect style="stroke:url(#KR_line32_1); stroke-width:1; fill:url(#KR_domain32_1); " rx="8" height="15" width="196.413793103" y="-8" x="62.9655172414"  />
<text style="font-size:12px; font-family:MS Reference Sans Serif; font-weight:bold; " y="4" x="147.172413793" fill="#0A2A1B"  >
KR</text>
</g>
<g id="b32_000"  >
<defs  >
<linearGradient id="KR_domain32_1"  >
<stop stop-color="#089E4B" stop-opacity="1" offset="0%"  />
<stop stop-color="#81F781" stop-opacity="1" offset="100%"  />
</linearGradient>
</defs>
<defs  >
<linearGradient id="KR_line32_1"  >
<stop stop-color="#81F781" stop-opacity="1" offset="0%"  />
<stop stop-color="#089E4B" stop-opacity="1" offset="100%"  />
</linearGradient>
</defs>
<rect style="stroke:url(#KR_line32_1); stroke-width:1; fill:url(#KR_domain32_1); " rx="8" height="15" width="196.413793103" y="-8" x="62.9655172414"  />
<text style="font-size:12px; font-family:MS Reference Sans Serif; font-weight:bold; " y="4" x="147.172413793" fill="#0A2A1B"  >
KR</text>
</g>
</svg>
