<svg xmlns="http://www.w3.org/2000/svg" height="0" width="768.0" version="1.1" y="0" x="0" preserveAspectRatio="none" xmlns:xlink="http://www.w3.org/1999/xlink" viewBox="0 -30 819.2 0"  >
<g  >
<line y1="60" x2="778.0" style="stroke:grey; stroke-width:2; " x1="10" y2="60"  />
</g>
<g id="a33_000"  >
<polygon style="stroke:black; stroke-width:1; fill:grey; " points="10,60 15,55 27,55 27,65 15,65 10,60 "  />
</g>
<g id="a33_001"  >
<polygon style="stroke:black; stroke-width:1; fill:grey; " points="33,60 38,55 67,55 67,65 38,65 33,60 "  />
</g>
<g id="a33_002"  >
<polygon style="stroke:black; stroke-width:1; fill:grey; " points="80,65 92,65 97,60 92,55 80,55 80,65 "  />
</g>
<g id="a33_003"  >
<polygon style="stroke:black; stroke-width:1; fill:grey; " points="114,65 134,65 139,60 134,55 114,55 114,65 "  />
</g>
<g id="a33_004"  >
<polygon style="stroke:black; stroke-width:1; fill:grey; " points="169,65 182,65 187,60 182,55 169,55 169,65 "  />
</g>
<g id="a33_005"  >
<polygon style="stroke:black; stroke-width:1; fill:grey; " points="198,65 218,65 223,60 218,55 198,55 198,65 "  />
</g>
<g id="a33_006"  >
<polygon style="stroke:black; stroke-width:1; fill:grey; " points="247,65 254,65 259,60 254,55 247,55 247,65 "  />
</g>
<g id="a33_007"  >
<polygon style="stroke:black; stroke-width:1; fill:grey; " points="269,65 275,65 280,60 275,55 269,55 269,65 "  />
</g>
<g id="a33_008"  >
<polygon style="stroke:black; stroke-width:1; fill:grey; " points="305,65 328,65 333,60 328,55 305,55 305,65 "  />
</g>
<g id="a33_009"  >
<polygon style="stroke:black; stroke-width:1; fill:grey; " points="335,60 340,55 352,55 352,65 340,65 335,60 "  />
</g>
<g id="a33_0010"  >
<polygon style="stroke:black; stroke-width:1; fill:grey; " points="716,65 740,65 745,60 740,55 716,55 716,65 "  />
</g>
<g id="a33_0011"  >
<polygon style="stroke:black; stroke-width:1; fill:grey; " points="758,65 773,65 778,60 773,55 758,55 758,65 "  />
</g>
</svg>
