<svg xmlns="http://www.w3.org/2000/svg" height="180" width="768.0" version="1.1" y="0" x="0" preserveAspectRatio="none" xmlns:xlink="http://www.w3.org/1999/xlink" viewBox="0 -30 819.2 120"  >
<g  >
<line y1="60" x2="778.0" style="stroke:grey; stroke-width:2; " x1="10" y2="60"  />
</g>
<g id="a40_000"  >
<polygon style="stroke:black; stroke-width:1; fill:grey; " points="10,65 24,65 29,60 24,55 10,55 10,65 "  />
</g>
<g id="a40_001"  >
<polygon style="stroke:black; stroke-width:1; fill:grey; " points="68,65 72,60 68,55 68,65 "  />
</g>
<g id="a40_002"  >
<polygon style="stroke:black; stroke-width:1; fill:grey; " points="94,60 99,55 107,55 107,65 99,65 94,60 "  />
</g>
<g id="a40_003"  >
<polygon style="stroke:black; stroke-width:1; fill:grey; " points="119,65 124,65 129,60 124,55 119,55 119,65 "  />
</g>
<g id="a40_004"  >
<polygon style="stroke:black; stroke-width:1; fill:grey; " points="140,65 141,65 146,60 141,55 140,55 140,65 "  />
</g>
<g id="a40_005"  >
<polygon style="stroke:black; stroke-width:1; fill:grey; " points="172,60 177,55 180,55 180,65 177,65 172,60 "  />
</g>
<g id="a40_006"  >
<polygon style="stroke:black; stroke-width:1; fill:grey; " points="267,60 272,55 273,55 273,65 272,65 267,60 "  />
</g>
<g id="a40_007"  >
<polygon style="stroke:black; stroke-width:1; fill:grey; " points="280,60 284,55 284,65 280,60 "  />
</g>
<g id="a40_008"  >
<polygon style="stroke:black; stroke-width:1; fill:grey; " points="301,60 306,55 306,55 306,65 306,65 301,60 "  />
</g>
<g id="a40_009"  >
<polygon style="stroke:black; stroke-width:1; fill:grey; " points="317,65 324,65 329,60 324,55 317,55 317,65 "  />
</g>
<g id="a40_0010"  >
<polygon style="stroke:black; stroke-width:1; fill:grey; " points="342,65 348,65 353,60 348,55 342,55 342,65 "  />
</g>
<g id="a40_0011"  >
<polygon style="stroke:black; stroke-width:1; fill:grey; " points="366,60 371,55 380,55 380,65 371,65 366,60 "  />
</g>
<g id="a40_0012"  >
<polygon style="stroke:black; stroke-width:1; fill:grey; " points="389,60 394,55 395,55 395,65 394,65 389,60 "  />
</g>
<g id="a40_0013"  >
<polygon style="stroke:black; stroke-width:1; fill:grey; " points="480,65 483,65 488,60 483,55 480,55 480,65 "  />
</g>
<g id="a40_0014"  >
<polygon style="stroke:black; stroke-width:1; fill:grey; " points="499,65 504,65 509,60 504,55 499,55 499,65 "  />
</g>
<g id="a40_0015"  >
<polygon style="stroke:black; stroke-width:1; fill:grey; " points="541,60 546,55 553,55 553,65 546,65 541,60 "  />
</g>
<g id="a40_0016"  >
<polygon style="stroke:black; stroke-width:1; fill:grey; " points="598,65 600,65 605,60 600,55 598,55 598,65 "  />
</g>
<g id="a40_0017"  >
<polygon style="stroke:black; stroke-width:1; fill:grey; " points="606,60 611,55 615,55 615,65 611,65 606,60 "  />
</g>
<g id="a40_0018"  >
<polygon style="stroke:black; stroke-width:1; fill:grey; " points="679,65 690,65 695,60 690,55 679,55 679,65 "  />
</g>
<g id="a40_0019"  >
<polygon style="stroke:black; stroke-width:1; fill:grey; " points="704,65 707,65 712,60 707,55 704,55 704,65 "  />
</g>
<g id="a40_0020"  >
<polygon style="stroke:black; stroke-width:1; fill:grey; " points="717,65 721,60 717,55 717,65 "  />
</g>
<g id="a40_0021"  >
<polygon style="stroke:black; stroke-width:1; fill:grey; " points="727,65 735,65 740,60 735,55 727,55 727,65 "  />
</g>
<g id="a40_0022"  >
<polygon style="stroke:black; stroke-width:1; fill:grey; " points="748,60 753,55 764,55 764,65 753,65 748,60 "  />
</g>
<g id="a40_0023"  >
<polygon style="stroke:black; stroke-width:1; fill:grey; " points="768,60 773,55 778,55 778,65 773,65 768,60 "  />
</g>
<g  >
<line y1="0" x2="698.322766571" style="stroke:grey; stroke-width:1; " x1="10" y2="0"  />
</g>
<g id="b40_000"  >
<defs  >
<linearGradient id="other_domain40_1"  >
<stop stop-color="#929292" stop-opacity="1" offset="0%"  />
<stop stop-color="#DBDBDB" stop-opacity="1" offset="100%"  />
</linearGradient>
</defs>
<defs  >
<linearGradient id="other_line40_1"  >
<stop stop-color="#DBDBDB" stop-opacity="1" offset="0%"  />
<stop stop-color="#929292" stop-opacity="1" offset="100%"  />
</linearGradient>
</defs>
<rect style="stroke:url(#other_line40_1); stroke-width:1; fill:url(#other_domain40_1); " rx="8" height="15" width="411.665706052" y="-8" x="122.876080692"  />
<text style="font-size:12px; font-family:MS Reference Sans Serif; font-weight:bold; " y="4" x="306.708933718" fill="#0B0B0B"  >
oMT</text>
<line y1="60" x2="778.0" style="stroke:grey; stroke-width:1; " x1="10" y2="60"  />
</g>
<g id="b40_000"  >
<defs  >
<linearGradient id="other_domain40_1"  >
<stop stop-color="#929292" stop-opacity="1" offset="0%"  />
<stop stop-color="#DBDBDB" stop-opacity="1" offset="100%"  />
</linearGradient>
</defs>
<defs  >
<linearGradient id="other_line40_1"  >
<stop stop-color="#DBDBDB" stop-opacity="1" offset="0%"  />
<stop stop-color="#929292" stop-opacity="1" offset="100%"  />
</linearGradient>
</defs>
<rect style="stroke:url(#other_line40_1); stroke-width:1; fill:url(#other_domain40_1); " rx="8" height="15" width="411.665706052" y="-8" x="122.876080692"  />
<text style="font-size:12px; font-family:MS Reference Sans Serif; font-weight:bold; " y="4" x="306.708933718" fill="#0B0B0B"  >
oMT</text>
<line y1="60" x2="778.0" style="stroke:grey; stroke-width:1; " x1="10" y2="60"  />
</g>
<g id="b40_001"  >
<defs  >
<linearGradient id="KR_domain40_1"  >
<stop stop-color="#089E4B" stop-opacity="1" offset="0%"  />
<stop stop-color="#81F781" stop-opacity="1" offset="100%"  />
</linearGradient>
</defs>
<defs  >
<linearGradient id="KR_line40_1"  >
<stop stop-color="#81F781" stop-opacity="1" offset="0%"  />
<stop stop-color="#089E4B" stop-opacity="1" offset="100%"  />
</linearGradient>
</defs>
<rect style="stroke:url(#KR_line40_1); stroke-width:1; fill:url(#KR_domain40_1); " rx="8" height="15" width="371.827089337" y="52" x="18.8530259366"  />
<text style="font-size:12px; font-family:MS Reference Sans Serif; font-weight:bold; " y="64" x="190.766570605" fill="#0A2A1B"  >
KR</text>
</g>
<g id="b40_001"  >
<defs  >
<linearGradient id="KR_domain40_1"  >
<stop stop-color="#089E4B" stop-opacity="1" offset="0%"  />
<stop stop-color="#81F781" stop-opacity="1" offset="100%"  />
</linearGradient>
</defs>
<defs  >
<linearGradient id="KR_line40_1"  >
<stop stop-color="#81F781" stop-opacity="1" offset="0%"  />
<stop stop-color="#089E4B" stop-opacity="1" offset="100%"  />
</linearGradient>
</defs>
<rect style="stroke:url(#KR_line40_1); stroke-width:1; fill:url(#KR_domain40_1); " rx="8" height="15" width="371.827089337" y="52" x="18.8530259366"  />
<text style="font-size:12px; font-family:MS Reference Sans Serif; font-weight:bold; " y="64" x="190.766570605" fill="#0A2A1B"  >
KR</text>
</g>
</svg>
