<svg xmlns="http://www.w3.org/2000/svg" height="90" width="768.0" version="1.1" y="0" x="0" preserveAspectRatio="none" xmlns:xlink="http://www.w3.org/1999/xlink" viewBox="0 -30 819.2 60"  >
<g  >
<line y1="60" x2="778.0" style="stroke:grey; stroke-width:2; " x1="10" y2="60"  />
</g>
<g id="a8_000"  >
<polygon style="stroke:black; stroke-width:1; fill:grey; " points="10,65 54,65 59,60 54,55 10,55 10,65 "  />
</g>
<g id="a8_001"  >
<polygon style="stroke:black; stroke-width:1; fill:#810E15; " points="129,60 134,55 289,55 289,65 134,65 129,60 "  />
</g>
<g id="a8_002"  >
<polygon style="stroke:black; stroke-width:1; fill:grey; " points="340,65 417,65 422,60 417,55 340,55 340,65 "  />
</g>
<g id="a8_003"  >
<polygon style="stroke:black; stroke-width:1; fill:grey; " points="504,60 509,55 546,55 546,65 509,65 504,60 "  />
</g>
<g id="a8_004"  >
<polygon style="stroke:black; stroke-width:1; fill:grey; " points="607,60 612,55 778,55 778,65 612,65 607,60 "  />
</g>
<g  >
<line y1="0" x2="778.0" style="stroke:grey; stroke-width:1; " x1="10" y2="0"  />
</g>
<g id="b8_000"  >
<defs  >
<linearGradient id="A_domain8_1"  >
<stop stop-color="#56157F" stop-opacity="1" offset="0%"  />
<stop stop-color="#BE81F7" stop-opacity="1" offset="100%"  />
</linearGradient>
</defs>
<defs  >
<linearGradient id="A_line8_1"  >
<stop stop-color="#BE81F7" stop-opacity="1" offset="0%"  />
<stop stop-color="#56157F" stop-opacity="1" offset="100%"  />
</linearGradient>
</defs>
<rect style="stroke:url(#A_line8_1); stroke-width:1; fill:url(#A_domain8_1); " rx="8" height="15" width="297.062656642" y="-8" x="42.7218045113"  />
<text style="font-size:12px; font-family:MS Reference Sans Serif; font-weight:bold; " y="4" x="181.253132832" fill="#1B0A2A"  >
A</text>
</g>
<g id="b8_001"  >
<defs  >
<linearGradient id="PCP_domain8_1"  >
<stop stop-color="#084BC6" stop-opacity="1" offset="0%"  />
<stop stop-color="#81BEF7" stop-opacity="1" offset="100%"  />
</linearGradient>
</defs>
<defs  >
<linearGradient id="PCP_line8_1"  >
<stop stop-color="#81BEF7" stop-opacity="1" offset="0%"  />
<stop stop-color="#084BC6" stop-opacity="1" offset="100%"  />
</linearGradient>
</defs>
<rect style="stroke:url(#PCP_line8_1); stroke-width:1; fill:url(#PCP_domain8_1); " rx="8" height="15" width="46.8370927318" y="-8" x="414.852130326"  />
<text style="font-size:8px; font-family:MS Reference Sans Serif; font-weight:bold; " y="3" x="426.270676692" fill="#0A1B2A"  >
PCP</text>
</g>
<g id="b8_002"  >
<defs  >
<linearGradient id="TE_domain8_1"  >
<stop stop-color="#750072" stop-opacity="1" offset="0%"  />
<stop stop-color="#F5A9F2" stop-opacity="1" offset="100%"  />
</linearGradient>
</defs>
<defs  >
<linearGradient id="TE_line8_1"  >
<stop stop-color="#F5A9F2" stop-opacity="1" offset="0%"  />
<stop stop-color="#750072" stop-opacity="1" offset="100%"  />
</linearGradient>
</defs>
<rect style="stroke:url(#TE_line8_1); stroke-width:1; fill:url(#TE_domain8_1); " rx="8" height="15" width="158.476190476" y="-8" x="491.844611529"  />
<text style="font-size:12px; font-family:MS Reference Sans Serif; font-weight:bold; " y="4" x="561.082706767" fill="#2A0A29"  >
TD</text>
</g>
<g id="b8_002"  >
<defs  >
<linearGradient id="TE_domain8_1"  >
<stop stop-color="#750072" stop-opacity="1" offset="0%"  />
<stop stop-color="#F5A9F2" stop-opacity="1" offset="100%"  />
</linearGradient>
</defs>
<defs  >
<linearGradient id="TE_line8_1"  >
<stop stop-color="#F5A9F2" stop-opacity="1" offset="0%"  />
<stop stop-color="#750072" stop-opacity="1" offset="100%"  />
</linearGradient>
</defs>
<rect style="stroke:url(#TE_line8_1); stroke-width:1; fill:url(#TE_domain8_1); " rx="8" height="15" width="158.476190476" y="-8" x="491.844611529"  />
<text style="font-size:12px; font-family:MS Reference Sans Serif; font-weight:bold; " y="4" x="561.082706767" fill="#2A0A29"  >
TD</text>
</g>
</svg>
