<svg xmlns="http://www.w3.org/2000/svg" height="90" width="768.0" version="1.1" y="0" x="0" preserveAspectRatio="none" xmlns:xlink="http://www.w3.org/1999/xlink" viewBox="0 -30 819.2 60"  >
<g  >
<line y1="60" x2="778.0" style="stroke:grey; stroke-width:2; " x1="10" y2="60"  />
</g>
<g id="a24_000"  >
<polygon style="stroke:black; stroke-width:1; fill:grey; " points="10,60 15,55 21,55 21,65 15,65 10,60 "  />
</g>
<g id="a24_001"  >
<polygon style="stroke:black; stroke-width:1; fill:grey; " points="31,60 36,55 37,55 37,65 36,65 31,60 "  />
</g>
<g id="a24_002"  >
<polygon style="stroke:black; stroke-width:1; fill:grey; " points="42,65 44,60 42,55 42,65 "  />
</g>
<g id="a24_003"  >
<polygon style="stroke:black; stroke-width:1; fill:grey; " points="115,60 120,55 124,55 124,65 120,65 115,60 "  />
</g>
<g id="a24_004"  >
<polygon style="stroke:black; stroke-width:1; fill:grey; " points="136,65 142,65 147,60 142,55 136,55 136,65 "  />
</g>
<g id="a24_005"  >
<polygon style="stroke:black; stroke-width:1; fill:grey; " points="229,65 238,65 243,60 238,55 229,55 229,65 "  />
</g>
<g id="a24_006"  >
<polygon style="stroke:black; stroke-width:1; fill:grey; " points="329,60 334,55 344,55 344,65 334,65 329,60 "  />
</g>
<g id="a24_007"  >
<polygon style="stroke:black; stroke-width:1; fill:grey; " points="346,65 349,65 354,60 349,55 346,55 346,65 "  />
</g>
<g id="a24_008"  >
<polygon style="stroke:black; stroke-width:1; fill:grey; " points="356,60 361,55 367,55 367,65 361,65 356,60 "  />
</g>
<g id="a24_009"  >
<polygon style="stroke:black; stroke-width:1; fill:grey; " points="373,65 380,65 385,60 380,55 373,55 373,65 "  />
</g>
<g id="a24_0010"  >
<polygon style="stroke:black; stroke-width:1; fill:grey; " points="391,65 394,65 399,60 394,55 391,55 391,65 "  />
</g>
<g id="a24_0011"  >
<polygon style="stroke:black; stroke-width:1; fill:grey; " points="411,65 419,65 424,60 419,55 411,55 411,65 "  />
</g>
<g id="a24_0012"  >
<polygon style="stroke:black; stroke-width:1; fill:grey; " points="460,65 467,65 472,60 467,55 460,55 460,65 "  />
</g>
<g id="a24_0013"  >
<polygon style="stroke:black; stroke-width:1; fill:grey; " points="497,65 503,65 508,60 503,55 497,55 497,65 "  />
</g>
<g id="a24_0014"  >
<polygon style="stroke:black; stroke-width:1; fill:grey; " points="531,65 537,65 542,60 537,55 531,55 531,65 "  />
</g>
<g id="a24_0015"  >
<polygon style="stroke:black; stroke-width:1; fill:grey; " points="704,60 709,55 713,55 713,65 709,65 704,60 "  />
</g>
<g id="a24_0016"  >
<polygon style="stroke:black; stroke-width:1; fill:grey; " points="753,60 758,55 758,55 758,65 758,65 753,60 "  />
</g>
<g id="a24_0017"  >
<polygon style="stroke:black; stroke-width:1; fill:grey; " points="763,65 773,65 778,60 773,55 763,55 763,65 "  />
</g>
<g  >
<line y1="0" x2="778.0" style="stroke:grey; stroke-width:1; " x1="10" y2="0"  />
</g>
<g id="b24_000"  >
<defs  >
<linearGradient id="KR_domain24_1"  >
<stop stop-color="#089E4B" stop-opacity="1" offset="0%"  />
<stop stop-color="#81F781" stop-opacity="1" offset="100%"  />
</linearGradient>
</defs>
<defs  >
<linearGradient id="KR_line24_1"  >
<stop stop-color="#81F781" stop-opacity="1" offset="0%"  />
<stop stop-color="#089E4B" stop-opacity="1" offset="100%"  />
</linearGradient>
</defs>
<rect style="stroke:url(#KR_line24_1); stroke-width:1; fill:url(#KR_domain24_1); " rx="8" height="15" width="287.165217391" y="-8" x="173.617391304"  />
<text style="font-size:12px; font-family:MS Reference Sans Serif; font-weight:bold; " y="4" x="303.2" fill="#0A2A1B"  >
KR</text>
</g>
<g id="b24_000"  >
<defs  >
<linearGradient id="KR_domain24_1"  >
<stop stop-color="#089E4B" stop-opacity="1" offset="0%"  />
<stop stop-color="#81F781" stop-opacity="1" offset="100%"  />
</linearGradient>
</defs>
<defs  >
<linearGradient id="KR_line24_1"  >
<stop stop-color="#81F781" stop-opacity="1" offset="0%"  />
<stop stop-color="#089E4B" stop-opacity="1" offset="100%"  />
</linearGradient>
</defs>
<rect style="stroke:url(#KR_line24_1); stroke-width:1; fill:url(#KR_domain24_1); " rx="8" height="15" width="287.165217391" y="-8" x="173.617391304"  />
<text style="font-size:12px; font-family:MS Reference Sans Serif; font-weight:bold; " y="4" x="303.2" fill="#0A2A1B"  >
KR</text>
</g>
</svg>
