<svg xmlns="http://www.w3.org/2000/svg" height="90" width="768.0" version="1.1" y="0" x="0" preserveAspectRatio="none" xmlns:xlink="http://www.w3.org/1999/xlink" viewBox="0 -30 819.2 60"  >
<g  >
<line y1="60" x2="778.0" style="stroke:grey; stroke-width:2; " x1="10" y2="60"  />
</g>
<g id="a47_000"  >
<polygon style="stroke:black; stroke-width:1; fill:grey; " points="10,60 15,55 86,55 86,65 15,65 10,60 "  />
</g>
<g id="a47_001"  >
<polygon style="stroke:black; stroke-width:1; fill:#810E15; " points="162,60 167,55 287,55 287,65 167,65 162,60 "  />
</g>
<g id="a47_002"  >
<polygon style="stroke:black; stroke-width:1; fill:grey; " points="301,65 312,65 317,60 312,55 301,55 301,65 "  />
</g>
<g id="a47_003"  >
<polygon style="stroke:black; stroke-width:1; fill:grey; " points="352,65 375,65 380,60 375,55 352,55 352,65 "  />
</g>
<g id="a47_004"  >
<polygon style="stroke:black; stroke-width:1; fill:grey; " points="382,60 387,55 399,55 399,65 387,65 382,60 "  />
</g>
<g id="a47_005"  >
<polygon style="stroke:black; stroke-width:1; fill:grey; " points="410,65 434,65 439,60 434,55 410,55 410,65 "  />
</g>
<g id="a47_006"  >
<polygon style="stroke:black; stroke-width:1; fill:grey; " points="448,65 462,65 467,60 462,55 448,55 448,65 "  />
</g>
<g id="a47_007"  >
<polygon style="stroke:black; stroke-width:1; fill:grey; " points="586,60 591,55 596,55 596,65 591,65 586,60 "  />
</g>
<g id="a47_008"  >
<polygon style="stroke:black; stroke-width:1; fill:grey; " points="704,60 709,55 726,55 726,65 709,65 704,60 "  />
</g>
<g id="a47_009"  >
<polygon style="stroke:black; stroke-width:1; fill:grey; " points="762,60 767,55 778,55 778,65 767,65 762,60 "  />
</g>
<g  >
<line y1="0" x2="778.0" style="stroke:grey; stroke-width:1; " x1="10" y2="0"  />
</g>
<g id="b47_000"  >
<defs  >
<linearGradient id="KS_domain47_1"  >
<stop stop-color="#08B208" stop-opacity="1" offset="0%"  />
<stop stop-color="#81F781" stop-opacity="1" offset="100%"  />
</linearGradient>
</defs>
<defs  >
<linearGradient id="KS_line47_1"  >
<stop stop-color="#81F781" stop-opacity="1" offset="0%"  />
<stop stop-color="#08B208" stop-opacity="1" offset="100%"  />
</linearGradient>
</defs>
<rect style="stroke:url(#KS_line47_1); stroke-width:1; fill:url(#KS_domain47_1); " rx="8" height="15" width="125.074285714" y="-8" x="11.253877551"  />
<text style="font-size:12px; font-family:MS Reference Sans Serif; font-weight:bold; " y="4" x="59.7910204082" fill="#0A2A0A"  >
KS</text>
</g>
<g id="b47_001"  >
<defs  >
<linearGradient id="AT_domain47_1"  >
<stop stop-color="#DC0404" stop-opacity="1" offset="0%"  />
<stop stop-color="#F78181" stop-opacity="1" offset="100%"  />
</linearGradient>
</defs>
<defs  >
<linearGradient id="AT_line47_1"  >
<stop stop-color="#F78181" stop-opacity="1" offset="0%"  />
<stop stop-color="#DC0404" stop-opacity="1" offset="100%"  />
</linearGradient>
</defs>
<rect style="stroke:url(#AT_line47_1); stroke-width:1; fill:url(#AT_domain47_1); " rx="8" height="15" width="94.667755102" y="-8" x="175.198367347"  />
<text style="font-size:8px; font-family:MS Reference Sans Serif; font-weight:bold; " y="3" x="212.532244898" fill="#2A1B0A"  >
AT</text>
</g>
<g id="b47_002"  >
<defs  >
<linearGradient id="DH_domain47_1"  >
<stop stop-color="#B45F04" stop-opacity="1" offset="0%"  />
<stop stop-color="#F7BE81" stop-opacity="1" offset="100%"  />
</linearGradient>
</defs>
<defs  >
<linearGradient id="DH_line47_1"  >
<stop stop-color="#F7BE81" stop-opacity="1" offset="0%"  />
<stop stop-color="#B45F04" stop-opacity="1" offset="100%"  />
</linearGradient>
</defs>
<rect style="stroke:url(#DH_line47_1); stroke-width:1; fill:url(#DH_domain47_1); " rx="8" height="15" width="54.8571428571" y="-8" x="296.19755102"  />
<text style="font-size:8px; font-family:MS Reference Sans Serif; font-weight:bold; " y="3" x="313.626122449" fill="#3B0B0B"  >
DH</text>
</g>
<g id="b47_003"  >
<defs  >
<linearGradient id="ER_domain47_1"  >
<stop stop-color="#089E85" stop-opacity="1" offset="0%"  />
<stop stop-color="#81F7F3" stop-opacity="1" offset="100%"  />
</linearGradient>
</defs>
<defs  >
<linearGradient id="ER_line47_1"  >
<stop stop-color="#81F7F3" stop-opacity="1" offset="0%"  />
<stop stop-color="#089E85" stop-opacity="1" offset="100%"  />
</linearGradient>
</defs>
<rect style="stroke:url(#ER_line47_1); stroke-width:1; fill:url(#ER_domain47_1); " rx="8" height="15" width="98.4293877551" y="-8" x="519.074285714"  />
<text style="font-size:8px; font-family:MS Reference Sans Serif; font-weight:bold; " y="3" x="558.288979592" fill="#0A2A29"  >
ER</text>
</g>
<g id="b47_004"  >
<defs  >
<linearGradient id="KR_domain47_1"  >
<stop stop-color="#089E4B" stop-opacity="1" offset="0%"  />
<stop stop-color="#81F781" stop-opacity="1" offset="100%"  />
</linearGradient>
</defs>
<defs  >
<linearGradient id="KR_line47_1"  >
<stop stop-color="#81F781" stop-opacity="1" offset="0%"  />
<stop stop-color="#089E4B" stop-opacity="1" offset="100%"  />
</linearGradient>
</defs>
<rect style="stroke:url(#KR_line47_1); stroke-width:1; fill:url(#KR_domain47_1); " rx="8" height="15" width="55.4840816327" y="-8" x="625.340408163"  />
<text style="font-size:8px; font-family:MS Reference Sans Serif; font-weight:bold; " y="3" x="643.08244898" fill="#0A2A1B"  >
KR</text>
</g>
<g id="b47_005"  >
<defs  >
<linearGradient id="ACP_domain47_1"  >
<stop stop-color="#084BC6" stop-opacity="1" offset="0%"  />
<stop stop-color="#81BEF7" stop-opacity="1" offset="100%"  />
</linearGradient>
</defs>
<defs  >
<linearGradient id="ACP_line47_1"  >
<stop stop-color="#81BEF7" stop-opacity="1" offset="0%"  />
<stop stop-color="#084BC6" stop-opacity="1" offset="100%"  />
</linearGradient>
</defs>
<rect style="stroke:url(#ACP_line47_1); stroke-width:1; fill:url(#ACP_domain47_1); " rx="8" height="15" width="17.5542857143" y="-8" x="720.321632653"  />
</g>
<g id="b47_005"  >
<defs  >
<linearGradient id="ACP_domain47_1"  >
<stop stop-color="#084BC6" stop-opacity="1" offset="0%"  />
<stop stop-color="#81BEF7" stop-opacity="1" offset="100%"  />
</linearGradient>
</defs>
<defs  >
<linearGradient id="ACP_line47_1"  >
<stop stop-color="#81BEF7" stop-opacity="1" offset="0%"  />
<stop stop-color="#084BC6" stop-opacity="1" offset="100%"  />
</linearGradient>
</defs>
<rect style="stroke:url(#ACP_line47_1); stroke-width:1; fill:url(#ACP_domain47_1); " rx="8" height="15" width="17.5542857143" y="-8" x="720.321632653"  />
</g>
</svg>
