<svg xmlns="http://www.w3.org/2000/svg" height="90" width="768.0" version="1.1" y="0" x="0" preserveAspectRatio="none" xmlns:xlink="http://www.w3.org/1999/xlink" viewBox="0 -30 819.2 60"  >
<g  >
<line y1="60" x2="778.0" style="stroke:grey; stroke-width:2; " x1="10" y2="60"  />
</g>
<g id="a21_000"  >
<polygon style="stroke:black; stroke-width:1; fill:grey; " points="10,60 15,55 64,55 64,65 15,65 10,60 "  />
</g>
<g id="a21_001"  >
<polygon style="stroke:black; stroke-width:1; fill:grey; " points="71,65 96,65 101,60 96,55 71,55 71,65 "  />
</g>
<g id="a21_002"  >
<polygon style="stroke:black; stroke-width:1; fill:grey; " points="109,60 114,55 134,55 134,65 114,65 109,60 "  />
</g>
<g id="a21_003"  >
<polygon style="stroke:black; stroke-width:1; fill:grey; " points="248,60 253,55 281,55 281,65 253,65 248,60 "  />
</g>
<g id="a21_004"  >
<polygon style="stroke:black; stroke-width:1; fill:grey; " points="314,65 370,65 375,60 370,55 314,55 314,65 "  />
</g>
<g id="a21_005"  >
<polygon style="stroke:black; stroke-width:1; fill:grey; " points="510,60 515,55 524,55 524,65 515,65 510,60 "  />
</g>
<g id="a21_006"  >
<polygon style="stroke:black; stroke-width:1; fill:grey; " points="587,60 592,55 637,55 637,65 592,65 587,60 "  />
</g>
<g id="a21_007"  >
<polygon style="stroke:black; stroke-width:1; fill:grey; " points="663,65 773,65 778,60 773,55 663,55 663,65 "  />
</g>
<g  >
<line y1="0" x2="778.0" style="stroke:grey; stroke-width:1; " x1="10" y2="0"  />
</g>
<g id="b21_000"  >
<defs  >
<linearGradient id="other_domain21_1"  >
<stop stop-color="#929292" stop-opacity="1" offset="0%"  />
<stop stop-color="#DBDBDB" stop-opacity="1" offset="100%"  />
</linearGradient>
</defs>
<defs  >
<linearGradient id="other_line21_1"  >
<stop stop-color="#DBDBDB" stop-opacity="1" offset="0%"  />
<stop stop-color="#929292" stop-opacity="1" offset="100%"  />
</linearGradient>
</defs>
<rect style="stroke:url(#other_line21_1); stroke-width:1; fill:url(#other_domain21_1); " rx="8" height="15" width="97.4187192118" y="-8" x="19.4581280788"  />
<text style="font-size:8px; font-family:MS Reference Sans Serif; font-weight:bold; " y="3" x="42.1674876847" fill="#0B0B0B"  >
cMT</text>
</g>
<g id="b21_001"  >
<defs  >
<linearGradient id="KR_domain21_1"  >
<stop stop-color="#089E4B" stop-opacity="1" offset="0%"  />
<stop stop-color="#81F781" stop-opacity="1" offset="100%"  />
</linearGradient>
</defs>
<defs  >
<linearGradient id="KR_line21_1"  >
<stop stop-color="#81F781" stop-opacity="1" offset="0%"  />
<stop stop-color="#089E4B" stop-opacity="1" offset="100%"  />
</linearGradient>
</defs>
<rect style="stroke:url(#KR_line21_1); stroke-width:1; fill:url(#KR_domain21_1); " rx="8" height="15" width="82.7586206897" y="-8" x="316.916256158"  />
<text style="font-size:8px; font-family:MS Reference Sans Serif; font-weight:bold; " y="3" x="348.295566502" fill="#0A2A1B"  >
KR</text>
</g>
<g id="b21_002"  >
<defs  >
<linearGradient id="C_domain21_1"  >
<stop stop-color="#393989" stop-opacity="1" offset="0%"  />
<stop stop-color="#8181F7" stop-opacity="1" offset="100%"  />
</linearGradient>
</defs>
<defs  >
<linearGradient id="C_line21_1"  >
<stop stop-color="#8181F7" stop-opacity="1" offset="0%"  />
<stop stop-color="#393989" stop-opacity="1" offset="100%"  />
</linearGradient>
</defs>
<rect style="stroke:url(#C_line21_1); stroke-width:1; fill:url(#C_domain21_1); " rx="8" height="15" width="137.142857143" y="-8" x="508.443349754"  />
<text style="font-size:12px; font-family:MS Reference Sans Serif; font-weight:bold; " y="4" x="567.014778325" fill="#0A0A2A"  >
C</text>
</g>
<g id="b21_002"  >
<defs  >
<linearGradient id="C_domain21_1"  >
<stop stop-color="#393989" stop-opacity="1" offset="0%"  />
<stop stop-color="#8181F7" stop-opacity="1" offset="100%"  />
</linearGradient>
</defs>
<defs  >
<linearGradient id="C_line21_1"  >
<stop stop-color="#8181F7" stop-opacity="1" offset="0%"  />
<stop stop-color="#393989" stop-opacity="1" offset="100%"  />
</linearGradient>
</defs>
<rect style="stroke:url(#C_line21_1); stroke-width:1; fill:url(#C_domain21_1); " rx="8" height="15" width="137.142857143" y="-8" x="508.443349754"  />
<text style="font-size:12px; font-family:MS Reference Sans Serif; font-weight:bold; " y="4" x="567.014778325" fill="#0A0A2A"  >
C</text>
</g>
</svg>
