<svg xmlns="http://www.w3.org/2000/svg" height="180" width="768.0" version="1.1" y="0" x="0" preserveAspectRatio="none" xmlns:xlink="http://www.w3.org/1999/xlink" viewBox="0 -30 819.2 120"  >
<g  >
<line y1="60" x2="778.0" style="stroke:grey; stroke-width:2; " x1="10" y2="60"  />
</g>
<g id="a3_000"  >
<polygon style="stroke:black; stroke-width:1; fill:grey; " points="10,65 16,65 21,60 16,55 10,55 10,65 "  />
</g>
<g id="a3_001"  >
<polygon style="stroke:black; stroke-width:1; fill:grey; " points="23,60 28,55 41,55 41,65 28,65 23,60 "  />
</g>
<g id="a3_002"  >
<polygon style="stroke:black; stroke-width:1; fill:grey; " points="182,60 187,55 195,55 195,65 187,65 182,60 "  />
</g>
<g id="a3_003"  >
<polygon style="stroke:black; stroke-width:1; fill:grey; " points="224,65 227,65 232,60 227,55 224,55 224,65 "  />
</g>
<g id="a3_004"  >
<polygon style="stroke:black; stroke-width:1; fill:grey; " points="392,65 401,65 406,60 401,55 392,55 392,65 "  />
</g>
<g id="a3_005"  >
<polygon style="stroke:black; stroke-width:1; fill:grey; " points="444,60 449,55 451,55 451,65 449,65 444,60 "  />
</g>
<g id="a3_006"  >
<polygon style="stroke:black; stroke-width:1; fill:grey; " points="458,65 462,65 467,60 462,55 458,55 458,65 "  />
</g>
<g id="a3_007"  >
<polygon style="stroke:black; stroke-width:1; fill:grey; " points="482,60 487,55 494,55 494,65 487,65 482,60 "  />
</g>
<g id="a3_008"  >
<polygon style="stroke:black; stroke-width:1; fill:#810E15; " points="537,65 607,65 612,60 607,55 537,55 537,65 "  />
</g>
<g id="a3_009"  >
<polygon style="stroke:black; stroke-width:1; fill:grey; " points="622,60 627,55 630,55 630,65 627,65 622,60 "  />
</g>
<g id="a3_0010"  >
<polygon style="stroke:black; stroke-width:1; fill:grey; " points="675,60 680,55 686,55 686,65 680,65 675,60 "  />
</g>
<g id="a3_0011"  >
<polygon style="stroke:black; stroke-width:1; fill:grey; " points="772,65 773,65 778,60 773,55 772,55 772,65 "  />
</g>
<g  >
<line y1="0" x2="142.404770017" style="stroke:grey; stroke-width:1; " x1="10" y2="0"  />
</g>
<g id="b3_000"  >
<defs  >
<linearGradient id="other_domain3_1"  >
<stop stop-color="#929292" stop-opacity="1" offset="0%"  />
<stop stop-color="#DBDBDB" stop-opacity="1" offset="100%"  />
</linearGradient>
</defs>
<defs  >
<linearGradient id="other_line3_1"  >
<stop stop-color="#DBDBDB" stop-opacity="1" offset="0%"  />
<stop stop-color="#929292" stop-opacity="1" offset="100%"  />
</linearGradient>
</defs>
<rect style="stroke:url(#other_line3_1); stroke-width:1; fill:url(#other_domain3_1); " rx="8" height="15" width="90.0143100511" y="-8" x="32.5035775128"  />
<text style="font-size:6px; font-family:MS Reference Sans Serif; font-weight:bold; " y="3" x="51.5107325383" fill="#0B0B0B"  >
Aminotran__</text>
<line y1="60" x2="778.0" style="stroke:grey; stroke-width:1; " x1="10" y2="60"  />
</g>
<g id="b3_000"  >
<defs  >
<linearGradient id="other_domain3_1"  >
<stop stop-color="#929292" stop-opacity="1" offset="0%"  />
<stop stop-color="#DBDBDB" stop-opacity="1" offset="100%"  />
</linearGradient>
</defs>
<defs  >
<linearGradient id="other_line3_1"  >
<stop stop-color="#DBDBDB" stop-opacity="1" offset="0%"  />
<stop stop-color="#929292" stop-opacity="1" offset="100%"  />
</linearGradient>
</defs>
<rect style="stroke:url(#other_line3_1); stroke-width:1; fill:url(#other_domain3_1); " rx="8" height="15" width="90.0143100511" y="-8" x="32.5035775128"  />
<text style="font-size:6px; font-family:MS Reference Sans Serif; font-weight:bold; " y="3" x="51.5107325383" fill="#0B0B0B"  >
Aminotran__</text>
<line y1="60" x2="778.0" style="stroke:grey; stroke-width:1; " x1="10" y2="60"  />
</g>
<g id="b3_001"  >
<defs  >
<linearGradient id="KS_domain3_1"  >
<stop stop-color="#08B208" stop-opacity="1" offset="0%"  />
<stop stop-color="#81F781" stop-opacity="1" offset="100%"  />
</linearGradient>
</defs>
<defs  >
<linearGradient id="KS_line3_1"  >
<stop stop-color="#81F781" stop-opacity="1" offset="0%"  />
<stop stop-color="#08B208" stop-opacity="1" offset="100%"  />
</linearGradient>
</defs>
<rect style="stroke:url(#KS_line3_1); stroke-width:1; fill:url(#KS_domain3_1); " rx="8" height="15" width="99.9577512777" y="52" x="24.9151618399"  />
<text style="font-size:8px; font-family:MS Reference Sans Serif; font-weight:bold; " y="63" x="64.8940374787" fill="#3B0B0B"  >
KS</text>
</g>
<g id="b3_002"  >
<defs  >
<linearGradient id="AT_domain3_1"  >
<stop stop-color="#DC0404" stop-opacity="1" offset="0%"  />
<stop stop-color="#F78181" stop-opacity="1" offset="100%"  />
</linearGradient>
</defs>
<defs  >
<linearGradient id="AT_line3_1"  >
<stop stop-color="#F78181" stop-opacity="1" offset="0%"  />
<stop stop-color="#DC0404" stop-opacity="1" offset="100%"  />
</linearGradient>
</defs>
<rect style="stroke:url(#AT_line3_1); stroke-width:1; fill:url(#AT_domain3_1); " rx="8" height="15" width="77.4541737649" y="52" x="149.208177172"  />
<text style="font-size:8px; font-family:MS Reference Sans Serif; font-weight:bold; " y="63" x="177.935264055" fill="#2A1B0A"  >
AT</text>
</g>
<g id="b3_003"  >
<defs  >
<linearGradient id="DH_domain3_1"  >
<stop stop-color="#B45F04" stop-opacity="1" offset="0%"  />
<stop stop-color="#F7BE81" stop-opacity="1" offset="100%"  />
</linearGradient>
</defs>
<defs  >
<linearGradient id="DH_line3_1"  >
<stop stop-color="#F7BE81" stop-opacity="1" offset="0%"  />
<stop stop-color="#B45F04" stop-opacity="1" offset="100%"  />
</linearGradient>
</defs>
<rect style="stroke:url(#DH_line3_1); stroke-width:1; fill:url(#DH_domain3_1); " rx="8" height="15" width="43.4371379898" y="52" x="243.409199319"  />
<text style="font-size:8px; font-family:MS Reference Sans Serif; font-weight:bold; " y="63" x="255.127768313" fill="#3B0B0B"  >
DH</text>
</g>
<g id="b3_004"  >
<defs  >
<linearGradient id="other_domain3_2"  >
<stop stop-color="#929292" stop-opacity="1" offset="0%"  />
<stop stop-color="#DBDBDB" stop-opacity="1" offset="100%"  />
</linearGradient>
</defs>
<defs  >
<linearGradient id="other_line3_2"  >
<stop stop-color="#DBDBDB" stop-opacity="1" offset="0%"  />
<stop stop-color="#929292" stop-opacity="1" offset="100%"  />
</linearGradient>
</defs>
<rect style="stroke:url(#other_line3_2); stroke-width:1; fill:url(#other_domain3_2); " rx="8" height="15" width="49.9788756388" y="52" x="358.543781942"  />
</g>
<g id="b3_005"  >
<defs  >
<linearGradient id="ER_domain3_1"  >
<stop stop-color="#089E85" stop-opacity="1" offset="0%"  />
<stop stop-color="#81F7F3" stop-opacity="1" offset="100%"  />
</linearGradient>
</defs>
<defs  >
<linearGradient id="ER_line3_1"  >
<stop stop-color="#81F7F3" stop-opacity="1" offset="0%"  />
<stop stop-color="#089E85" stop-opacity="1" offset="100%"  />
</linearGradient>
</defs>
<rect style="stroke:url(#ER_line3_1); stroke-width:1; fill:url(#ER_domain3_1); " rx="8" height="15" width="82.6875638842" y="52" x="462.949914821"  />
<text style="font-size:8px; font-family:MS Reference Sans Serif; font-weight:bold; " y="63" x="494.293696763" fill="#0A2A29"  >
ER</text>
</g>
<g id="b3_006"  >
<defs  >
<linearGradient id="KR_domain3_1"  >
<stop stop-color="#089E4B" stop-opacity="1" offset="0%"  />
<stop stop-color="#81F781" stop-opacity="1" offset="100%"  />
</linearGradient>
</defs>
<defs  >
<linearGradient id="KR_line3_1"  >
<stop stop-color="#81F781" stop-opacity="1" offset="0%"  />
<stop stop-color="#089E4B" stop-opacity="1" offset="100%"  />
</linearGradient>
</defs>
<rect style="stroke:url(#KR_line3_1); stroke-width:1; fill:url(#KR_domain3_1); " rx="8" height="15" width="44.7454855196" y="52" x="551.917546848"  />
<text style="font-size:8px; font-family:MS Reference Sans Serif; font-weight:bold; " y="63" x="564.290289608" fill="#0A2A1B"  >
KR</text>
</g>
<g id="b3_006"  >
<defs  >
<linearGradient id="KR_domain3_1"  >
<stop stop-color="#089E4B" stop-opacity="1" offset="0%"  />
<stop stop-color="#81F781" stop-opacity="1" offset="100%"  />
</linearGradient>
</defs>
<defs  >
<linearGradient id="KR_line3_1"  >
<stop stop-color="#81F781" stop-opacity="1" offset="0%"  />
<stop stop-color="#089E4B" stop-opacity="1" offset="100%"  />
</linearGradient>
</defs>
<rect style="stroke:url(#KR_line3_1); stroke-width:1; fill:url(#KR_domain3_1); " rx="8" height="15" width="44.7454855196" y="52" x="551.917546848"  />
<text style="font-size:8px; font-family:MS Reference Sans Serif; font-weight:bold; " y="63" x="564.290289608" fill="#0A2A1B"  >
KR</text>
</g>
</svg>
