<svg xmlns="http://www.w3.org/2000/svg" height="450" width="768.0" version="1.1" y="0" x="0" preserveAspectRatio="none" xmlns:xlink="http://www.w3.org/1999/xlink" viewBox="0 -30 819.2 300"  >
<g  >
<line y1="60" x2="778.0" style="stroke:grey; stroke-width:2; " x1="10" y2="60"  />
</g>
<g id="a29_000"  >
<polygon style="stroke:black; stroke-width:1; fill:grey; " points="10,60 15,55 27,55 27,65 15,65 10,60 "  />
</g>
<g id="a29_001"  >
<polygon style="stroke:black; stroke-width:1; fill:grey; " points="33,60 38,55 47,55 47,65 38,65 33,60 "  />
</g>
<g id="a29_002"  >
<polygon style="stroke:black; stroke-width:1; fill:grey; " points="99,65 102,65 107,60 102,55 99,55 99,65 "  />
</g>
<g id="a29_003"  >
<polygon style="stroke:black; stroke-width:1; fill:grey; " points="205,60 210,55 227,55 227,65 210,65 205,60 "  />
</g>
<g id="a29_004"  >
<polygon style="stroke:black; stroke-width:1; fill:grey; " points="236,65 243,65 248,60 243,55 236,55 236,65 "  />
</g>
<g id="a29_005"  >
<polygon style="stroke:black; stroke-width:1; fill:grey; " points="254,60 259,55 263,55 263,65 259,65 254,60 "  />
</g>
<g id="a29_006"  >
<polygon style="stroke:black; stroke-width:1; fill:#810E15; " points="274,60 279,55 364,55 364,65 279,65 274,60 "  />
</g>
<g id="a29_007"  >
<polygon style="stroke:black; stroke-width:1; fill:grey; " points="380,65 391,65 396,60 391,55 380,55 380,65 "  />
</g>
<g id="a29_008"  >
<polygon style="stroke:black; stroke-width:1; fill:#810E15; " points="435,65 447,65 452,60 447,55 435,55 435,65 "  />
</g>
<g id="a29_009"  >
<polygon style="stroke:black; stroke-width:1; fill:grey; " points="488,65 494,65 499,60 494,55 488,55 488,65 "  />
</g>
<g id="a29_0010"  >
<polygon style="stroke:black; stroke-width:1; fill:grey; " points="507,65 512,65 517,60 512,55 507,55 507,65 "  />
</g>
<g id="a29_0011"  >
<polygon style="stroke:black; stroke-width:1; fill:#810E15; " points="523,60 528,55 545,55 545,65 528,65 523,60 "  />
</g>
<g id="a29_0012"  >
<polygon style="stroke:black; stroke-width:1; fill:grey; " points="552,60 557,55 565,55 565,65 557,65 552,60 "  />
</g>
<g id="a29_0013"  >
<polygon style="stroke:black; stroke-width:1; fill:grey; " points="579,65 585,65 590,60 585,55 579,55 579,65 "  />
</g>
<g id="a29_0014"  >
<polygon style="stroke:black; stroke-width:1; fill:grey; " points="598,65 624,65 629,60 624,55 598,55 598,65 "  />
</g>
<g id="a29_0015"  >
<polygon style="stroke:black; stroke-width:1; fill:grey; " points="639,65 647,65 652,60 647,55 639,55 639,65 "  />
</g>
<g id="a29_0016"  >
<polygon style="stroke:black; stroke-width:1; fill:grey; " points="666,65 679,65 684,60 679,55 666,55 666,65 "  />
</g>
<g id="a29_0017"  >
<polygon style="stroke:black; stroke-width:1; fill:grey; " points="698,60 703,55 705,55 705,65 703,65 698,60 "  />
</g>
<g id="a29_0018"  >
<polygon style="stroke:black; stroke-width:1; fill:grey; " points="730,65 773,65 778,60 773,55 730,55 730,65 "  />
</g>
<g  >
<line y1="0" x2="108.839328537" style="stroke:grey; stroke-width:1; " x1="10" y2="0"  />
</g>
<g id="b29_000"  >
<defs  >
<linearGradient id="KR_domain29_1"  >
<stop stop-color="#089E4B" stop-opacity="1" offset="0%"  />
<stop stop-color="#81F781" stop-opacity="1" offset="100%"  />
</linearGradient>
</defs>
<defs  >
<linearGradient id="KR_line29_1"  >
<stop stop-color="#81F781" stop-opacity="1" offset="0%"  />
<stop stop-color="#089E4B" stop-opacity="1" offset="100%"  />
</linearGradient>
</defs>
<rect style="stroke:url(#KR_line29_1); stroke-width:1; fill:url(#KR_domain29_1); " rx="8" height="15" width="32.5371702638" y="-8" x="11.5347721823"  />
<text style="font-size:8px; font-family:MS Reference Sans Serif; font-weight:bold; " y="3" x="17.8033573141" fill="#0A2A1B"  >
KR</text>
<line y1="60" x2="87.0455635492" style="stroke:grey; stroke-width:1; " x1="10" y2="60"  />
</g>
<g id="b29_000"  >
<defs  >
<linearGradient id="KR_domain29_1"  >
<stop stop-color="#089E4B" stop-opacity="1" offset="0%"  />
<stop stop-color="#81F781" stop-opacity="1" offset="100%"  />
</linearGradient>
</defs>
<defs  >
<linearGradient id="KR_line29_1"  >
<stop stop-color="#81F781" stop-opacity="1" offset="0%"  />
<stop stop-color="#089E4B" stop-opacity="1" offset="100%"  />
</linearGradient>
</defs>
<rect style="stroke:url(#KR_line29_1); stroke-width:1; fill:url(#KR_domain29_1); " rx="8" height="15" width="32.5371702638" y="-8" x="11.5347721823"  />
<text style="font-size:8px; font-family:MS Reference Sans Serif; font-weight:bold; " y="3" x="17.8033573141" fill="#0A2A1B"  >
KR</text>
<line y1="60" x2="87.0455635492" style="stroke:grey; stroke-width:1; " x1="10" y2="60"  />
</g>
<g id="b29_001"  >
<defs  >
<linearGradient id="KR_domain29_2"  >
<stop stop-color="#089E4B" stop-opacity="1" offset="0%"  />
<stop stop-color="#81F781" stop-opacity="1" offset="100%"  />
</linearGradient>
</defs>
<defs  >
<linearGradient id="KR_line29_2"  >
<stop stop-color="#81F781" stop-opacity="1" offset="0%"  />
<stop stop-color="#089E4B" stop-opacity="1" offset="100%"  />
</linearGradient>
</defs>
<rect style="stroke:url(#KR_line29_2); stroke-width:1; fill:url(#KR_domain29_2); " rx="8" height="15" width="47.2709832134" y="52" x="12.4556354916"  />
<text style="font-size:8px; font-family:MS Reference Sans Serif; font-weight:bold; " y="63" x="26.0911270983" fill="#0A2A1B"  >
KR</text>
<line y1="120" x2="778.0" style="stroke:grey; stroke-width:1; " x1="10" y2="120"  />
</g>
<g id="b29_001"  >
<defs  >
<linearGradient id="KR_domain29_2"  >
<stop stop-color="#089E4B" stop-opacity="1" offset="0%"  />
<stop stop-color="#81F781" stop-opacity="1" offset="100%"  />
</linearGradient>
</defs>
<defs  >
<linearGradient id="KR_line29_2"  >
<stop stop-color="#81F781" stop-opacity="1" offset="0%"  />
<stop stop-color="#089E4B" stop-opacity="1" offset="100%"  />
</linearGradient>
</defs>
<rect style="stroke:url(#KR_line29_2); stroke-width:1; fill:url(#KR_domain29_2); " rx="8" height="15" width="47.2709832134" y="52" x="12.4556354916"  />
<text style="font-size:8px; font-family:MS Reference Sans Serif; font-weight:bold; " y="63" x="26.0911270983" fill="#0A2A1B"  >
KR</text>
<line y1="120" x2="778.0" style="stroke:grey; stroke-width:1; " x1="10" y2="120"  />
</g>
<g id="b29_002"  >
<defs  >
<linearGradient id="KS_domain29_1"  >
<stop stop-color="#08B208" stop-opacity="1" offset="0%"  />
<stop stop-color="#81F781" stop-opacity="1" offset="100%"  />
</linearGradient>
</defs>
<defs  >
<linearGradient id="KS_line29_1"  >
<stop stop-color="#81F781" stop-opacity="1" offset="0%"  />
<stop stop-color="#08B208" stop-opacity="1" offset="100%"  />
</linearGradient>
</defs>
<rect style="stroke:url(#KS_line29_1); stroke-width:1; fill:url(#KS_domain29_1); " rx="8" height="15" width="128.920863309" y="112" x="27.4964028777"  />
<text style="font-size:12px; font-family:MS Reference Sans Serif; font-weight:bold; " y="124" x="77.9568345324" fill="#0A2A0A"  >
KS</text>
</g>
<g id="b29_003"  >
<defs  >
<linearGradient id="AT_domain29_1"  >
<stop stop-color="#DC0404" stop-opacity="1" offset="0%"  />
<stop stop-color="#F78181" stop-opacity="1" offset="100%"  />
</linearGradient>
</defs>
<defs  >
<linearGradient id="AT_line29_1"  >
<stop stop-color="#F78181" stop-opacity="1" offset="0%"  />
<stop stop-color="#DC0404" stop-opacity="1" offset="100%"  />
</linearGradient>
</defs>
<rect style="stroke:url(#AT_line29_1); stroke-width:1; fill:url(#AT_domain29_1); " rx="8" height="15" width="95.1558752998" y="112" x="188.954436451"  />
<text style="font-size:8px; font-family:MS Reference Sans Serif; font-weight:bold; " y="123" x="226.532374101" fill="#2A1B0A"  >
AT</text>
</g>
<g id="b29_004"  >
<defs  >
<linearGradient id="DH_domain29_1"  >
<stop stop-color="#B45F04" stop-opacity="1" offset="0%"  />
<stop stop-color="#F7BE81" stop-opacity="1" offset="100%"  />
</linearGradient>
</defs>
<defs  >
<linearGradient id="DH_line29_1"  >
<stop stop-color="#F7BE81" stop-opacity="1" offset="0%"  />
<stop stop-color="#B45F04" stop-opacity="1" offset="100%"  />
</linearGradient>
</defs>
<rect style="stroke:url(#DH_line29_1); stroke-width:1; fill:url(#DH_domain29_1); " rx="8" height="15" width="54.3309352518" y="112" x="308.052757794"  />
<text style="font-size:8px; font-family:MS Reference Sans Serif; font-weight:bold; " y="123" x="325.21822542" fill="#3B0B0B"  >
DH</text>
</g>
<g id="b29_005"  >
<defs  >
<linearGradient id="ER_domain29_1"  >
<stop stop-color="#089E85" stop-opacity="1" offset="0%"  />
<stop stop-color="#81F7F3" stop-opacity="1" offset="100%"  />
</linearGradient>
</defs>
<defs  >
<linearGradient id="ER_line29_1"  >
<stop stop-color="#81F7F3" stop-opacity="1" offset="0%"  />
<stop stop-color="#089E85" stop-opacity="1" offset="100%"  />
</linearGradient>
</defs>
<rect style="stroke:url(#ER_line29_1); stroke-width:1; fill:url(#ER_domain29_1); " rx="8" height="15" width="97.6115107914" y="112" x="526.604316547"  />
<text style="font-size:8px; font-family:MS Reference Sans Serif; font-weight:bold; " y="123" x="565.410071942" fill="#0A2A29"  >
ER</text>
</g>
<g id="b29_006"  >
<defs  >
<linearGradient id="KR_domain29_3"  >
<stop stop-color="#089E4B" stop-opacity="1" offset="0%"  />
<stop stop-color="#81F781" stop-opacity="1" offset="100%"  />
</linearGradient>
</defs>
<defs  >
<linearGradient id="KR_line29_3"  >
<stop stop-color="#81F781" stop-opacity="1" offset="0%"  />
<stop stop-color="#089E4B" stop-opacity="1" offset="100%"  />
</linearGradient>
</defs>
<rect style="stroke:url(#KR_line29_3); stroke-width:1; fill:url(#KR_domain29_3); " rx="8" height="15" width="55.2517985612" y="112" x="631.275779376"  />
<text style="font-size:8px; font-family:MS Reference Sans Serif; font-weight:bold; " y="123" x="648.901678657" fill="#0A2A1B"  >
KR</text>
<line y1="180" x2="100.858513189" style="stroke:grey; stroke-width:1; " x1="10" y2="180"  />
</g>
<g id="b29_006"  >
<defs  >
<linearGradient id="KR_domain29_3"  >
<stop stop-color="#089E4B" stop-opacity="1" offset="0%"  />
<stop stop-color="#81F781" stop-opacity="1" offset="100%"  />
</linearGradient>
</defs>
<defs  >
<linearGradient id="KR_line29_3"  >
<stop stop-color="#81F781" stop-opacity="1" offset="0%"  />
<stop stop-color="#089E4B" stop-opacity="1" offset="100%"  />
</linearGradient>
</defs>
<rect style="stroke:url(#KR_line29_3); stroke-width:1; fill:url(#KR_domain29_3); " rx="8" height="15" width="55.2517985612" y="112" x="631.275779376"  />
<text style="font-size:8px; font-family:MS Reference Sans Serif; font-weight:bold; " y="123" x="648.901678657" fill="#0A2A1B"  >
KR</text>
<line y1="180" x2="100.858513189" style="stroke:grey; stroke-width:1; " x1="10" y2="180"  />
</g>
<g id="b29_007"  >
<defs  >
<linearGradient id="KR_domain29_4"  >
<stop stop-color="#089E4B" stop-opacity="1" offset="0%"  />
<stop stop-color="#81F781" stop-opacity="1" offset="100%"  />
</linearGradient>
</defs>
<defs  >
<linearGradient id="KR_line29_4"  >
<stop stop-color="#81F781" stop-opacity="1" offset="0%"  />
<stop stop-color="#089E4B" stop-opacity="1" offset="100%"  />
</linearGradient>
</defs>
<rect style="stroke:url(#KR_line29_4); stroke-width:1; fill:url(#KR_domain29_4); " rx="8" height="15" width="38.6762589928" y="172" x="11.8417266187"  />
<text style="font-size:8px; font-family:MS Reference Sans Serif; font-weight:bold; " y="183" x="21.1798561151" fill="#0A2A1B"  >
KR</text>
<line y1="240" x2="195.400479616" style="stroke:grey; stroke-width:1; " x1="10" y2="240"  />
</g>
<g id="b29_007"  >
<defs  >
<linearGradient id="KR_domain29_4"  >
<stop stop-color="#089E4B" stop-opacity="1" offset="0%"  />
<stop stop-color="#81F781" stop-opacity="1" offset="100%"  />
</linearGradient>
</defs>
<defs  >
<linearGradient id="KR_line29_4"  >
<stop stop-color="#81F781" stop-opacity="1" offset="0%"  />
<stop stop-color="#089E4B" stop-opacity="1" offset="100%"  />
</linearGradient>
</defs>
<rect style="stroke:url(#KR_line29_4); stroke-width:1; fill:url(#KR_domain29_4); " rx="8" height="15" width="38.6762589928" y="172" x="11.8417266187"  />
<text style="font-size:8px; font-family:MS Reference Sans Serif; font-weight:bold; " y="183" x="21.1798561151" fill="#0A2A1B"  >
KR</text>
<line y1="240" x2="195.400479616" style="stroke:grey; stroke-width:1; " x1="10" y2="240"  />
</g>
<g id="b29_008"  >
<defs  >
<linearGradient id="A_domain29_1"  >
<stop stop-color="#56157F" stop-opacity="1" offset="0%"  />
<stop stop-color="#BE81F7" stop-opacity="1" offset="100%"  />
</linearGradient>
</defs>
<defs  >
<linearGradient id="A_line29_1"  >
<stop stop-color="#BE81F7" stop-opacity="1" offset="0%"  />
<stop stop-color="#56157F" stop-opacity="1" offset="100%"  />
</linearGradient>
</defs>
<rect style="stroke:url(#A_line29_1); stroke-width:1; fill:url(#A_domain29_1); " rx="8" height="15" width="131.683453237" y="232" x="26.2685851319"  />
<text style="font-size:12px; font-family:MS Reference Sans Serif; font-weight:bold; " y="244" x="82.1103117506" fill="#1B0A2A"  >
A</text>
</g>
<g id="b29_008"  >
<defs  >
<linearGradient id="A_domain29_1"  >
<stop stop-color="#56157F" stop-opacity="1" offset="0%"  />
<stop stop-color="#BE81F7" stop-opacity="1" offset="100%"  />
</linearGradient>
</defs>
<defs  >
<linearGradient id="A_line29_1"  >
<stop stop-color="#BE81F7" stop-opacity="1" offset="0%"  />
<stop stop-color="#56157F" stop-opacity="1" offset="100%"  />
</linearGradient>
</defs>
<rect style="stroke:url(#A_line29_1); stroke-width:1; fill:url(#A_domain29_1); " rx="8" height="15" width="131.683453237" y="232" x="26.2685851319"  />
<text style="font-size:12px; font-family:MS Reference Sans Serif; font-weight:bold; " y="244" x="82.1103117506" fill="#1B0A2A"  >
A</text>
</g>
</svg>
