<svg xmlns="http://www.w3.org/2000/svg" height="180" width="768.0" version="1.1" y="0" x="0" preserveAspectRatio="none" xmlns:xlink="http://www.w3.org/1999/xlink" viewBox="0 -30 819.2 120"  >
<g  >
<line y1="60" x2="778.0" style="stroke:grey; stroke-width:2; " x1="10" y2="60"  />
</g>
<g id="a27_000"  >
<polygon style="stroke:black; stroke-width:1; fill:grey; " points="10,60 15,55 30,55 30,65 15,65 10,60 "  />
</g>
<g id="a27_001"  >
<polygon style="stroke:black; stroke-width:1; fill:grey; " points="32,65 40,65 45,60 40,55 32,55 32,65 "  />
</g>
<g id="a27_002"  >
<polygon style="stroke:black; stroke-width:1; fill:grey; " points="55,60 60,55 65,55 65,65 60,65 55,60 "  />
</g>
<g id="a27_003"  >
<polygon style="stroke:black; stroke-width:1; fill:grey; " points="74,60 79,55 84,55 84,65 79,65 74,60 "  />
</g>
<g id="a27_004"  >
<polygon style="stroke:black; stroke-width:1; fill:grey; " points="138,60 143,55 177,55 177,65 143,65 138,60 "  />
</g>
<g id="a27_005"  >
<polygon style="stroke:black; stroke-width:1; fill:grey; " points="196,65 228,65 233,60 228,55 196,55 196,65 "  />
</g>
<g id="a27_006"  >
<polygon style="stroke:black; stroke-width:1; fill:grey; " points="320,60 325,55 330,55 330,65 325,65 320,60 "  />
</g>
<g id="a27_007"  >
<polygon style="stroke:black; stroke-width:1; fill:grey; " points="338,65 339,65 344,60 339,55 338,55 338,65 "  />
</g>
<g id="a27_008"  >
<polygon style="stroke:black; stroke-width:1; fill:grey; " points="345,60 350,55 355,55 355,65 350,65 345,60 "  />
</g>
<g id="a27_009"  >
<polygon style="stroke:black; stroke-width:1; fill:grey; " points="359,65 365,65 370,60 365,55 359,55 359,65 "  />
</g>
<g id="a27_0010"  >
<polygon style="stroke:black; stroke-width:1; fill:grey; " points="372,60 377,55 377,55 377,65 377,65 372,60 "  />
</g>
<g id="a27_0011"  >
<polygon style="stroke:black; stroke-width:1; fill:grey; " points="389,65 398,65 403,60 398,55 389,55 389,65 "  />
</g>
<g id="a27_0012"  >
<polygon style="stroke:black; stroke-width:1; fill:grey; " points="435,60 440,55 440,55 440,65 440,65 435,60 "  />
</g>
<g id="a27_0013"  >
<polygon style="stroke:black; stroke-width:1; fill:grey; " points="453,65 472,65 477,60 472,55 453,55 453,65 "  />
</g>
<g id="a27_0014"  >
<polygon style="stroke:black; stroke-width:1; fill:grey; " points="482,60 487,55 494,55 494,65 487,65 482,60 "  />
</g>
<g id="a27_0015"  >
<polygon style="stroke:black; stroke-width:1; fill:grey; " points="500,65 503,60 500,55 500,65 "  />
</g>
<g id="a27_0016"  >
<polygon style="stroke:black; stroke-width:1; fill:grey; " points="504,60 509,55 513,55 513,65 509,65 504,60 "  />
</g>
<g id="a27_0017"  >
<polygon style="stroke:black; stroke-width:1; fill:grey; " points="514,65 518,60 514,55 514,65 "  />
</g>
<g id="a27_0018"  >
<polygon style="stroke:black; stroke-width:1; fill:grey; " points="527,60 532,55 535,55 535,65 532,65 527,60 "  />
</g>
<g id="a27_0019"  >
<polygon style="stroke:black; stroke-width:1; fill:grey; " points="541,65 543,60 541,55 541,65 "  />
</g>
<g id="a27_0020"  >
<polygon style="stroke:black; stroke-width:1; fill:grey; " points="545,65 550,65 555,60 550,55 545,55 545,65 "  />
</g>
<g id="a27_0021"  >
<polygon style="stroke:black; stroke-width:1; fill:grey; " points="557,60 562,55 563,55 563,65 562,65 557,60 "  />
</g>
<g id="a27_0022"  >
<polygon style="stroke:black; stroke-width:1; fill:grey; " points="566,65 570,65 575,60 570,55 566,55 566,65 "  />
</g>
<g id="a27_0023"  >
<polygon style="stroke:black; stroke-width:1; fill:grey; " points="577,60 582,55 597,55 597,65 582,65 577,60 "  />
</g>
<g id="a27_0024"  >
<polygon style="stroke:black; stroke-width:1; fill:grey; " points="613,60 618,55 627,55 627,65 618,65 613,60 "  />
</g>
<g id="a27_0025"  >
<polygon style="stroke:black; stroke-width:1; fill:grey; " points="647,60 652,55 655,55 655,65 652,65 647,60 "  />
</g>
<g id="a27_0026"  >
<polygon style="stroke:black; stroke-width:1; fill:grey; " points="647,60 652,55 655,55 655,65 652,65 647,60 "  />
</g>
<g id="a27_0027"  >
<polygon style="stroke:black; stroke-width:1; fill:grey; " points="763,65 773,65 778,60 773,55 763,55 763,65 "  />
</g>
<g  >
<line y1="0" x2="778.0" style="stroke:grey; stroke-width:1; " x1="10" y2="0"  />
</g>
<g id="b27_000"  >
<defs  >
<linearGradient id="KR_domain27_1"  >
<stop stop-color="#089E4B" stop-opacity="1" offset="0%"  />
<stop stop-color="#81F781" stop-opacity="1" offset="100%"  />
</linearGradient>
</defs>
<defs  >
<linearGradient id="KR_line27_1"  >
<stop stop-color="#81F781" stop-opacity="1" offset="0%"  />
<stop stop-color="#089E4B" stop-opacity="1" offset="100%"  />
</linearGradient>
</defs>
<rect style="stroke:url(#KR_line27_1); stroke-width:1; fill:url(#KR_domain27_1); " rx="8" height="15" width="353.684210526" y="-8" x="36.2736842105"  />
<text style="font-size:12px; font-family:MS Reference Sans Serif; font-weight:bold; " y="4" x="199.115789474" fill="#0A2A1B"  >
KR</text>
<line y1="60" x2="741.621052632" style="stroke:grey; stroke-width:1; " x1="10" y2="60"  />
</g>
<g id="b27_000"  >
<defs  >
<linearGradient id="KR_domain27_1"  >
<stop stop-color="#089E4B" stop-opacity="1" offset="0%"  />
<stop stop-color="#81F781" stop-opacity="1" offset="100%"  />
</linearGradient>
</defs>
<defs  >
<linearGradient id="KR_line27_1"  >
<stop stop-color="#81F781" stop-opacity="1" offset="0%"  />
<stop stop-color="#089E4B" stop-opacity="1" offset="100%"  />
</linearGradient>
</defs>
<rect style="stroke:url(#KR_line27_1); stroke-width:1; fill:url(#KR_domain27_1); " rx="8" height="15" width="353.684210526" y="-8" x="36.2736842105"  />
<text style="font-size:12px; font-family:MS Reference Sans Serif; font-weight:bold; " y="4" x="199.115789474" fill="#0A2A1B"  >
KR</text>
<line y1="60" x2="741.621052632" style="stroke:grey; stroke-width:1; " x1="10" y2="60"  />
</g>
<g id="b27_001"  >
<defs  >
<linearGradient id="KR_domain27_2"  >
<stop stop-color="#089E4B" stop-opacity="1" offset="0%"  />
<stop stop-color="#81F781" stop-opacity="1" offset="100%"  />
</linearGradient>
</defs>
<defs  >
<linearGradient id="KR_line27_2"  >
<stop stop-color="#81F781" stop-opacity="1" offset="0%"  />
<stop stop-color="#089E4B" stop-opacity="1" offset="100%"  />
</linearGradient>
</defs>
<rect style="stroke:url(#KR_line27_2); stroke-width:1; fill:url(#KR_domain27_2); " rx="8" height="15" width="353.684210526" y="52" x="36.2736842105"  />
<text style="font-size:12px; font-family:MS Reference Sans Serif; font-weight:bold; " y="64" x="199.115789474" fill="#0A2A1B"  >
KR</text>
</g>
<g id="b27_001"  >
<defs  >
<linearGradient id="KR_domain27_2"  >
<stop stop-color="#089E4B" stop-opacity="1" offset="0%"  />
<stop stop-color="#81F781" stop-opacity="1" offset="100%"  />
</linearGradient>
</defs>
<defs  >
<linearGradient id="KR_line27_2"  >
<stop stop-color="#81F781" stop-opacity="1" offset="0%"  />
<stop stop-color="#089E4B" stop-opacity="1" offset="100%"  />
</linearGradient>
</defs>
<rect style="stroke:url(#KR_line27_2); stroke-width:1; fill:url(#KR_domain27_2); " rx="8" height="15" width="353.684210526" y="52" x="36.2736842105"  />
<text style="font-size:12px; font-family:MS Reference Sans Serif; font-weight:bold; " y="64" x="199.115789474" fill="#0A2A1B"  >
KR</text>
</g>
</svg>
