<svg xmlns="http://www.w3.org/2000/svg" height="90" width="768.0" version="1.1" y="0" x="0" preserveAspectRatio="none" xmlns:xlink="http://www.w3.org/1999/xlink" viewBox="0 -30 819.2 60"  >
<g  >
<line y1="60" x2="778.0" style="stroke:grey; stroke-width:2; " x1="10" y2="60"  />
</g>
<g id="a20_000"  >
<polygon style="stroke:black; stroke-width:1; fill:grey; " points="10,60 15,55 23,55 23,65 15,65 10,60 "  />
</g>
<g id="a20_001"  >
<polygon style="stroke:black; stroke-width:1; fill:grey; " points="25,65 26,65 31,60 26,55 25,55 25,65 "  />
</g>
<g id="a20_002"  >
<polygon style="stroke:black; stroke-width:1; fill:grey; " points="67,60 72,55 77,55 77,65 72,65 67,60 "  />
</g>
<g id="a20_003"  >
<polygon style="stroke:black; stroke-width:1; fill:grey; " points="80,65 84,60 80,55 80,65 "  />
</g>
<g id="a20_004"  >
<polygon style="stroke:black; stroke-width:1; fill:grey; " points="92,60 97,55 99,55 99,65 97,65 92,60 "  />
</g>
<g id="a20_005"  >
<polygon style="stroke:black; stroke-width:1; fill:grey; " points="106,60 111,55 130,55 130,65 111,65 106,60 "  />
</g>
<g id="a20_006"  >
<polygon style="stroke:black; stroke-width:1; fill:grey; " points="132,65 135,60 132,55 132,65 "  />
</g>
<g id="a20_007"  >
<polygon style="stroke:black; stroke-width:1; fill:grey; " points="155,65 169,65 174,60 169,55 155,55 155,65 "  />
</g>
<g id="a20_008"  >
<polygon style="stroke:black; stroke-width:1; fill:grey; " points="178,60 183,55 192,55 192,65 183,65 178,60 "  />
</g>
<g id="a20_009"  >
<polygon style="stroke:black; stroke-width:1; fill:grey; " points="300,60 305,55 313,55 313,65 305,65 300,60 "  />
</g>
<g id="a20_0010"  >
<polygon style="stroke:black; stroke-width:1; fill:grey; " points="321,65 324,60 321,55 321,65 "  />
</g>
<g id="a20_0011"  >
<polygon style="stroke:black; stroke-width:1; fill:grey; " points="338,65 342,60 338,55 338,65 "  />
</g>
<g id="a20_0012"  >
<polygon style="stroke:black; stroke-width:1; fill:grey; " points="354,65 356,65 361,60 356,55 354,55 354,65 "  />
</g>
<g id="a20_0013"  >
<polygon style="stroke:black; stroke-width:1; fill:grey; " points="380,65 387,65 392,60 387,55 380,55 380,65 "  />
</g>
<g id="a20_0014"  >
<polygon style="stroke:black; stroke-width:1; fill:grey; " points="425,60 430,55 464,55 464,65 430,65 425,60 "  />
</g>
<g id="a20_0015"  >
<polygon style="stroke:black; stroke-width:1; fill:grey; " points="425,60 430,55 464,55 464,65 430,65 425,60 "  />
</g>
<g id="a20_0016"  >
<polygon style="stroke:black; stroke-width:1; fill:grey; " points="489,60 494,55 497,55 497,65 494,65 489,60 "  />
</g>
<g id="a20_0017"  >
<polygon style="stroke:black; stroke-width:1; fill:#810E15; " points="521,65 588,65 593,60 588,55 521,55 521,65 "  />
</g>
<g id="a20_0018"  >
<polygon style="stroke:black; stroke-width:1; fill:grey; " points="622,65 630,65 635,60 630,55 622,55 622,65 "  />
</g>
<g id="a20_0019"  >
<polygon style="stroke:black; stroke-width:1; fill:grey; " points="636,60 641,55 646,55 646,65 641,65 636,60 "  />
</g>
<g id="a20_0020"  >
<polygon style="stroke:black; stroke-width:1; fill:grey; " points="683,65 686,65 691,60 686,55 683,55 683,65 "  />
</g>
<g id="a20_0021"  >
<polygon style="stroke:black; stroke-width:1; fill:grey; " points="744,65 746,65 751,60 746,55 744,55 744,65 "  />
</g>
<g id="a20_0022"  >
<polygon style="stroke:black; stroke-width:1; fill:grey; " points="761,60 766,55 778,55 778,65 766,65 761,60 "  />
</g>
<g  >
<line y1="0" x2="778.0" style="stroke:grey; stroke-width:1; " x1="10" y2="0"  />
</g>
<g id="b20_000"  >
<defs  >
<linearGradient id="KS_domain20_1"  >
<stop stop-color="#08B208" stop-opacity="1" offset="0%"  />
<stop stop-color="#81F781" stop-opacity="1" offset="100%"  />
</linearGradient>
</defs>
<defs  >
<linearGradient id="KS_line20_1"  >
<stop stop-color="#81F781" stop-opacity="1" offset="0%"  />
<stop stop-color="#08B208" stop-opacity="1" offset="100%"  />
</linearGradient>
</defs>
<rect style="stroke:url(#KS_line20_1); stroke-width:1; fill:url(#KS_domain20_1); " rx="8" height="15" width="92.9776046738" y="-8" x="27.1996105161"  />
<text style="font-size:8px; font-family:MS Reference Sans Serif; font-weight:bold; " y="3" x="63.688412853" fill="#3B0B0B"  >
KS</text>
</g>
<g id="b20_001"  >
<defs  >
<linearGradient id="AT_domain20_1"  >
<stop stop-color="#DC0404" stop-opacity="1" offset="0%"  />
<stop stop-color="#F78181" stop-opacity="1" offset="100%"  />
</linearGradient>
</defs>
<defs  >
<linearGradient id="AT_line20_1"  >
<stop stop-color="#F78181" stop-opacity="1" offset="0%"  />
<stop stop-color="#DC0404" stop-opacity="1" offset="100%"  />
</linearGradient>
</defs>
<rect style="stroke:url(#AT_line20_1); stroke-width:1; fill:url(#AT_domain20_1); " rx="8" height="15" width="78.0214216164" y="-8" x="146.101265823"  />
<text style="font-size:8px; font-family:MS Reference Sans Serif; font-weight:bold; " y="3" x="175.111976631" fill="#2A1B0A"  >
AT</text>
</g>
<g id="b20_002"  >
<defs  >
<linearGradient id="DH_domain20_1"  >
<stop stop-color="#B45F04" stop-opacity="1" offset="0%"  />
<stop stop-color="#F7BE81" stop-opacity="1" offset="100%"  />
</linearGradient>
</defs>
<defs  >
<linearGradient id="DH_line20_1"  >
<stop stop-color="#F7BE81" stop-opacity="1" offset="0%"  />
<stop stop-color="#B45F04" stop-opacity="1" offset="100%"  />
</linearGradient>
</defs>
<rect style="stroke:url(#DH_line20_1); stroke-width:1; fill:url(#DH_domain20_1); " rx="8" height="15" width="46.1148977605" y="-8" x="241.571567673"  />
<text style="font-size:8px; font-family:MS Reference Sans Serif; font-weight:bold; " y="3" x="254.629016553" fill="#3B0B0B"  >
DH</text>
</g>
<g id="b20_003"  >
<defs  >
<linearGradient id="ER_domain20_1"  >
<stop stop-color="#089E85" stop-opacity="1" offset="0%"  />
<stop stop-color="#81F7F3" stop-opacity="1" offset="100%"  />
</linearGradient>
</defs>
<defs  >
<linearGradient id="ER_line20_1"  >
<stop stop-color="#81F7F3" stop-opacity="1" offset="0%"  />
<stop stop-color="#089E85" stop-opacity="1" offset="100%"  />
</linearGradient>
</defs>
<rect style="stroke:url(#ER_line20_1); stroke-width:1; fill:url(#ER_domain20_1); " rx="8" height="15" width="76.7750730282" y="-8" x="387.145082765"  />
<text style="font-size:8px; font-family:MS Reference Sans Serif; font-weight:bold; " y="3" x="415.532619279" fill="#0A2A29"  >
ER</text>
</g>
<g id="b20_004"  >
<defs  >
<linearGradient id="KR_domain20_1"  >
<stop stop-color="#089E4B" stop-opacity="1" offset="0%"  />
<stop stop-color="#81F781" stop-opacity="1" offset="100%"  />
</linearGradient>
</defs>
<defs  >
<linearGradient id="KR_line20_1"  >
<stop stop-color="#81F781" stop-opacity="1" offset="0%"  />
<stop stop-color="#089E4B" stop-opacity="1" offset="100%"  />
</linearGradient>
</defs>
<rect style="stroke:url(#KR_line20_1); stroke-width:1; fill:url(#KR_domain20_1); " rx="8" height="15" width="44.3700097371" y="-8" x="469.653359299"  />
<text style="font-size:8px; font-family:MS Reference Sans Serif; font-weight:bold; " y="3" x="481.838364167" fill="#0A2A1B"  >
KR</text>
</g>
<g id="b20_004"  >
<defs  >
<linearGradient id="KR_domain20_1"  >
<stop stop-color="#089E4B" stop-opacity="1" offset="0%"  />
<stop stop-color="#81F781" stop-opacity="1" offset="100%"  />
</linearGradient>
</defs>
<defs  >
<linearGradient id="KR_line20_1"  >
<stop stop-color="#81F781" stop-opacity="1" offset="0%"  />
<stop stop-color="#089E4B" stop-opacity="1" offset="100%"  />
</linearGradient>
</defs>
<rect style="stroke:url(#KR_line20_1); stroke-width:1; fill:url(#KR_domain20_1); " rx="8" height="15" width="44.3700097371" y="-8" x="469.653359299"  />
<text style="font-size:8px; font-family:MS Reference Sans Serif; font-weight:bold; " y="3" x="481.838364167" fill="#0A2A1B"  >
KR</text>
</g>
</svg>
